ply
format ascii 1.0
element vertex 660
property float x
property float y
property float z
element face 788
property list uchar int vertex_index
end_header
-27.354795 19.371479 30.305189
-17.198212 10.592589 45.956512
-25.656282 2.004882 38.759708
-39.500278 7.73863 5.445869
-36.950645 7.442912 22.150604
-31.695795 22.519112 21.35211
-27.077841 10.260905 34.352482
-31.463057 5.207117 30.751188
-32.443512 13.727259 25.753315
-37.022942 15.994127 16.656055
-22.534742 15.368912 38.482899
-19.728189 -1.793596 46.5956
-21.563957 6.250315 42.286362
-40.039631 -1.300337 11.390576
-35.30928 -0.987391 27.601145
-39.595013 -0.412017 19.403166
-40.260761 8.031934 13.436931
-39.273666 17.051561 7.945505
-29.615925 21.017859 25.903303
-27.533676 14.69838 32.098919
-29.86791 12.04845 30.073067
-29.934385 16.585411 27.892733
-32.247177 18.119759 23.528206
-19.94381 12.913456 42.33535
-20.07147 17.801311 40.857975
-18.663134 4.163206 46.11187
-19.482025 8.480702 44.017788
-22.140652 10.542712 40.37056
-39.84058 3.068338 8.322819
-24.591703 -2.16434 41.001171
-34.360027 6.391604 26.527996
-33.544388 2.37894 29.041145
-36.324959 3.186116 24.871439
-37.792313 -0.420272 23.536222
-38.564373 3.653596 20.721638
-40.059856 3.765294 16.559357
-39.069538 7.928655 17.637556
-36.291824 20.258337 14.322376
-38.563087 16.538015 12.167053
-37.573227 20.98493 9.755327
-38.245049 21.330654 5.330906
-33.536545 23.87479 16.637783
-26.572418 6.22714 36.362522
-28.584064 3.661356 34.775482
-29.40975 7.919651 32.303429
-32.117416 9.519486 28.209078
-34.899437 10.576906 23.834059
-37.21637 11.622112 19.406425
-34.802116 14.974083 21.455824
-34.433891 19.35173 18.95965
-25.016638 17.375242 34.5126
-24.837931 22.240438 32.776894
-22.543154 20.158031 36.93121
-22.68766 0.009833 42.780327
-17.736687 0.138093 48.252892
-20.702673 2.173226 44.46603
-23.677544 4.321242 40.404427
-24.396023 8.44252 38.268478
-24.811153 12.837252 36.355034
-30.669878 1.110159 33.004108
-32.384689 -1.839841 31.609257
-36.621658 -4.766959 26.489426
-38.732121 -4.609647 22.535482
-39.967442 -5.024754 18.447161
-40.389343 -0.779312 15.360809
-40.559887 3.487138 12.282909
-40.448719 7.925953 9.293069
-39.003777 12.218996 14.961895
-40.010681 12.427443 10.568467
-39.992809 12.504619 6.410278
-28.473806 20.285997 28.13121
-28.200516 22.737516 27.142439
-27.239651 21.7477 29.27038
-27.521336 17.01856 31.147547
-28.71196 15.854358 29.986496
-28.665688 18.06249 29.008204
-29.86351 18.805534 26.818344
-18.584778 11.91135 44.136673
-18.698315 14.35682 43.389252
-17.302372 13.033263 45.246986
-17.965891 7.316104 45.975857
-18.331093 9.39625 45.046024
-19.744896 10.656672 43.148895
-39.716896 5.294865 6.966039
-39.089474 2.861164 6.575329
-38.918587 5.42007 5.125198
-25.158028 -0.132185 39.900829
-26.073078 -1.186904 39.040951
-26.61162 0.789429 37.945309
-35.741772 6.907486 24.318581
-35.33334 4.860558 25.747387
-36.685547 5.393034 23.476173
-37.475151 3.524188 22.86363
-37.861019 5.579551 21.356747
-38.836124 5.846169 19.230194
-38.052956 7.688344 20.015047
-35.699425 22.558168 13.199208
-36.996037 20.73284 11.958625
-36.356812 23.015934 10.820831
-36.984333 23.141232 8.501763
-26.844013 8.157309 35.380726
-27.982792 7.063594 34.368069
-28.166548 9.157743 33.390373
-31.193005 12.934252 27.895952
-31.016569 10.820271 29.088318
-32.452324 11.539155 26.835804
-33.507305 10.005276 26.114376
-33.71283 12.192002 24.733578
-35.003468 12.733096 22.495535
-33.688591 14.406609 23.548388
-32.068302 20.404274 22.292027
-33.3578 18.71953 21.32015
-33.136375 21.017075 19.974195
-34.036118 21.637335 17.769188
-23.791945 16.240606 36.569855
-23.830181 18.774618 35.644981
-22.664261 17.719925 37.583069
-18.842752 19.268736 41.89872
-21.233364 -0.735934 44.646893
-16.738691 1.10573 48.987228
-20.125492 5.117217 44.244694
-19.729143 3.136571 45.263866
-21.175974 4.242414 43.324394
-22.175762 3.159391 42.499813
-22.574165 5.137431 41.448097
-23.98086 6.330701 39.426559
-22.971985 7.363726 40.308651
-22.43718 12.890892 39.336987
-23.556242 11.621928 38.322891
-23.700825 13.95233 37.424091
-25.092682 15.119 35.219749
-23.573658 23.801998 33.998005
-30.012764 4.606352 32.741772
-29.656277 2.487712 33.840786
-31.127628 3.257195 31.819195
-34.453754 0.779248 28.307436
-33.032337 0.256819 30.306257
-33.831886 -1.443014 29.697317
-34.691231 -3.071093 28.922657
-36.044888 -2.792028 26.971754
-38.833656 -0.404788 21.410622
-38.298698 -2.491943 23.068542
-39.231384 -2.588156 20.911894
-39.478806 -4.802936 20.522594
-39.862099 -2.578506 18.842733
-40.214806 -2.920077 16.849894
-40.127403 -0.529962 17.354288
-40.226139 5.792852 14.957247
-40.459686 3.694628 14.41656
-40.533714 5.728069 12.798567
-40.541267 5.676572 10.704239
-40.501453 7.933075 11.312746
-37.183651 13.793988 18.015362
-38.166176 12.021818 17.209122
-38.072121 14.130337 15.83709
-39.015335 16.793406 10.054741
-39.407936 14.44904 11.401735
-39.721317 14.647369 9.195253
-40.138943 12.459561 8.403798
-39.780235 14.897417 7.036937
-39.625252 14.904774 5.041076
-39.358482 17.111519 5.803013
-38.290596 21.379335 3.319871
-30.608212 22.001535 23.618513
-30.260336 24.369364 22.45195
-27.333876 12.482167 33.216343
-28.483053 11.223175 32.20837
-28.720591 13.467319 31.00136
-29.968801 14.380502 28.904816
-31.191387 15.093775 26.836111
-32.376213 15.825304 24.706522
-31.126913 17.329247 25.727177
-30.978539 19.750612 24.513245
-21.245594 14.161083 40.44323
-21.329819 16.602568 39.646038
-20.028307 15.376603 41.582825
-18.805439 16.837313 42.617596
-17.212681 3.177841 47.905334
-17.753828 5.286197 46.749241
-19.136374 6.252377 45.0079
-20.511702 7.297572 43.185604
-21.905886 8.448339 41.24873
-20.852888 9.433357 42.201221
-21.145021 11.737624 41.229176
-26.902946 -2.400342 38.275745
-28.397739 -1.689829 36.37101
-32.919556 5.864341 28.660963
-32.556183 3.890173 29.830557
-33.992039 4.388854 27.78503
-35.04044 2.822871 26.880163
-35.855896 1.098556 26.244526
-36.642025 -0.636074 25.541149
-37.140583 1.450323 24.134541
-38.232361 1.669638 22.085072
-39.220974 1.63455 19.892757
-39.907169 1.550563 17.850325
-39.4422 3.815907 18.555605
-39.630329 5.893623 17.137054
-39.786152 7.918552 15.558431
-36.728836 18.124916 15.43076
-37.887241 16.205294 14.466961
-37.523308 18.409151 13.191963
-38.10984 18.807249 10.922084
-38.570965 18.997858 8.695462
-38.815605 19.189348 6.516719
-38.051048 21.039953 7.553891
-39.238781 10.217085 4.024858
-38.616364 7.611697 3.719054
-34.454178 24.247566 14.223005
-26.175886 4.152781 37.507023
-27.156082 3.018948 36.683731
-27.563742 4.951307 35.59177
-28.940929 5.816559 33.634178
-30.434164 6.643051 31.50738
-29.592663 9.924873 31.301065
-30.82773 8.646976 30.242521
-31.917423 7.327981 29.381264
-33.325916 7.919718 27.299414
-34.651749 8.489231 25.214701
-35.981308 9.071789 22.943132
-37.192055 9.434239 20.727543
-36.174667 11.155932 21.51952
-36.095161 13.349141 20.328325
-36.015778 15.415788 19.070599
-33.551029 16.580141 22.442768
-34.68103 17.125437 20.208319
-35.770233 17.683729 17.800982
-35.382935 19.939631 16.625891
-34.899094 22.133488 15.521119
-26.245367 18.281506 32.423199
-26.142828 20.874073 31.416809
-25.072014 19.744267 33.50782
-23.731703 21.282671 34.834663
-21.338165 19.040848 38.901833
-23.111065 -2.897388 42.898781
-23.675613 -1.0293 41.863903
-24.173019 1.025972 40.777699
-18.785587 -0.732902 47.37748
-18.234335 2.128755 47.161575
-19.265511 1.121618 46.355354
-20.238674 0.13413 45.554272
-21.711861 1.136384 43.612709
-23.209318 2.153458 41.593987
-24.689402 3.246147 39.542625
-25.137314 5.264826 38.389256
-25.441988 7.193483 37.404289
-25.755404 9.327297 36.320053
-23.24588 9.552616 39.324818
-24.668123 10.538129 37.273495
-25.969995 11.529703 35.310841
-26.177513 13.720789 34.275909
-26.336752 16.001781 33.215839
-25.92259 23.272934 30.56419
-28.118328 1.682735 35.913975
-29.095337 0.317899 35.100601
-29.999214 -1.005925 34.325455
-32.068516 1.82036 31.088835
-31.468325 -0.388482 32.411896
-30.860443 -2.400672 33.571327
-37.221226 -2.566384 25.070557
-37.749012 -4.639386 24.564383
-40.289539 -3.10611 14.838898
-40.366585 -1.078226 13.453386
-40.344227 1.594564 15.761678
-40.506557 1.374895 13.822619
-40.37466 1.006544 11.793427
-40.348747 3.217144 10.280334
-40.273651 5.53391 8.800261
-40.106907 7.939588 7.254344
-38.195873 9.755908 18.600288
-39.044731 10.119216 16.379541
-39.722984 10.139318 14.286559
-38.818932 14.398826 13.597724
-39.598557 12.392291 12.831399
-40.167145 10.288179 12.067199
-40.364754 10.222721 10.014892
-40.285824 10.174545 7.977438
-39.891243 10.089865 5.914655
-39.60236 12.458812 4.554694
-38.865681 19.248068 4.476575
-17.764653 9.994419 45.501268
-17.594249 8.852939 45.961268
-17.027808 9.451109 46.416511
-35.735941 23.88323 11.392603
-36.028118 22.787051 12.01002
-35.407247 23.654347 12.581792
-36.04938 24.027951 10.282203
-35.735941 23.88323 11.392603
-31.442854 23.744179 20.789969
-32.164977 22.911911 20.160725
-32.164977 22.911911 20.160725
-32.885267 22.160892 19.471767
-32.416085 21.768093 20.663153
-18.801603 20.58486 41.554209
-18.150879 19.975132 42.478606
-20.185533 -2.331346 46.188474
-19.418975 -2.821024 47.142297
-20.480777 -1.264765 45.621246
-20.93812 -1.802515 45.214121
-20.185533 -2.331346 46.188474
-16.258961 1.595302 49.314527
-16.010115 0.607777 49.836946
-39.80576 -2.574673 11.242233
-40.047767 -2.428217 12.144689
-23.389928 25.112656 33.653902
-22.929721 24.594674 34.614834
-29.456938 22.246521 25.356445
-29.953082 22.738359 24.21405
-30.112068 21.509697 24.760908
-28.029556 23.960107 26.635663
-27.540849 23.528813 27.76235
-18.126213 16.231957 43.528435
-18.751877 15.597067 43.003424
-18.072651 14.99171 43.914263
-18.11703 17.411994 43.229296
-18.126213 16.231957 43.528435
-17.164853 5.690807 47.242624
-16.986121 4.703497 47.690576
-39.564211 1.827401 8.201911
-39.912205 1.990209 9.103687
-38.684842 1.633531 6.402392
-38.605175 2.76671 5.777045
-25.042972 -2.719919 40.549311
-24.291127 -3.099712 41.506302
-27.247982 -1.342642 37.654501
-26.488012 -1.793623 38.658348
-26.833048 -0.735923 38.037104
-27.995379 -0.987385 36.702134
-27.650343 -2.045085 37.323377
-27.247982 -1.342642 37.654501
-37.189062 23.216511 7.404875
-36.651041 24.162017 7.978257
-38.792307 10.140737 3.205242
-39.069992 11.349488 3.349515
-33.258206 24.971195 16.06619
-33.717022 25.157583 14.858802
-33.995362 24.061178 15.430394
-29.979445 25.573113 21.962352
-29.532077 25.172235 23.142131
-22.45398 21.470892 36.570032
-23.048254 22.033212 35.521759
-23.137428 20.720351 35.882936
-22.341606 -3.429963 43.893172
-22.798737 -3.919969 43.41036
-23.181636 -0.509734 42.322115
-22.881607 -1.483814 42.895031
-22.387631 -0.964248 43.353243
-17.504706 -0.84326 48.747349
-17.021144 -0.408531 49.123993
-18.261137 -0.297405 47.815186
-18.029156 -1.278758 48.309643
-17.504706 -0.84326 48.747349
-38.226246 6.284096 3.659361
-38.073843 7.566123 2.946172
-32.057386 -2.850528 32.191921
-31.295262 -3.130943 33.172956
-31.622566 -2.120256 32.590292
-36.285717 -5.80818 27.161061
-35.994537 -4.855393 27.422175
-36.917484 -5.805338 26.182431
-36.285717 -5.80818 27.161061
-38.499472 -5.716412 23.221304
-38.007918 -5.731281 24.235755
-38.240566 -4.624517 23.549932
-38.89695 -5.747503 22.280376
-38.499472 -5.716412 23.221304
-39.816719 -6.067167 19.210306
-39.572401 -5.956258 20.248022
-39.723124 -4.913845 19.484878
-39.977831 -6.219774 18.149354
-39.816719 -6.067167 19.210306
-40.067181 -5.125744 17.413896
-39.977831 -6.219774 18.149354
-39.420926 14.790853 4.110063
-39.414032 15.988431 4.427995
-38.494025 20.321381 2.974946
-38.205647 21.377998 2.4015
-27.060416 23.033905 28.826321
-27.540849 23.528813 27.76235
-27.720084 22.242608 28.206409
-17.374679 14.329932 44.84313
-18.072651 14.99171 43.914263
-18.000343 13.695042 44.318119
-17.411648 7.812867 46.426184
-17.270885 6.705761 46.855932
-18.148492 8.356177 45.510941
-17.411648 7.812867 46.426184
-17.594249 8.852939 45.961268
-38.519732 4.046163 5.051979
-38.605175 2.76671 5.777045
-39.00403 4.140617 5.850264
-27.102319 0.252244 37.489283
-26.833048 -0.735923 38.037104
-26.342349 -0.198737 38.49313
-36.36314 24.090599 9.122669
-36.670572 23.078583 9.661297
-36.04938 24.027951 10.282203
-36.651041 24.162017 7.978257
-36.36314 24.090599 9.122669
-32.800119 24.721046 17.296166
-33.085352 23.58975 17.803561
-33.335138 22.471023 18.369264
-33.586247 21.327205 18.871692
-32.885267 22.160892 19.471767
-33.085352 23.58975 17.803561
-33.786332 22.756062 17.203485
-33.335138 22.471023 18.369264
-19.459474 19.882382 40.974144
-20.073833 19.148669 40.453772
-19.457111 18.535024 41.378348
-19.459474 19.882382 40.974144
-18.801603 20.58486 41.554209
-21.660483 -1.337131 44.286526
-20.93812 -1.802515 45.214121
-21.960512 -0.36305 43.71361
-22.387631 -0.964248 43.353243
-21.660483 -1.337131 44.286526
-16.522146 0.075288 49.491161
-16.010115 0.607777 49.836946
-17.237689 0.621912 48.62006
-17.021144 -0.408531 49.123993
-16.522146 0.075288 49.491161
-24.088483 24.316076 32.939102
-24.720619 23.535296 32.328547
-24.205794 23.021218 33.38745
-24.088483 24.316076 32.939102
-23.389928 25.112656 33.653902
-33.555561 -2.472645 30.260348
-32.831963 -2.671059 31.216318
-33.108288 -1.641428 30.653287
-33.985233 -3.286684 29.873018
-33.555561 -2.472645 30.260348
-34.261558 -2.257054 29.309987
-34.343773 -4.108763 29.557158
-33.985233 -3.286684 29.873018
-35.029324 -4.00746 28.63879
-34.343773 -4.108763 29.557158
-35.706152 -3.867928 27.663339
-35.029324 -4.00746 28.63879
-35.36806 -2.93156 27.947206
-36.333273 -3.779494 26.73059
-35.994537 -4.855393 27.422175
-35.706152 -3.867928 27.663339
-39.280647 17.091804 4.808963
-39.414032 15.988431 4.427995
-39.491867 16.008147 5.422045
-37.960678 22.370843 3.741181
-38.267823 21.354995 4.325388
-37.937905 22.346503 4.746698
-37.959614 22.434426 2.795897
-37.960678 22.370843 3.741181
-38.205647 21.377998 2.4015
-37.959614 22.434426 2.795897
-29.779143 23.922273 23.630769
-30.434274 23.18545 23.035232
-29.953082 22.738359 24.21405
-29.532077 25.172235 23.142131
-29.779143 23.922273 23.630769
-28.749234 23.106349 25.976013
-29.456938 22.246521 25.356445
-28.90822 21.877688 26.522871
-28.749234 23.106349 25.976013
-28.029556 23.960107 26.635663
-18.135686 18.627706 42.869858
-18.824095 18.053024 42.258158
-18.11703 17.411994 43.229296
-18.150879 19.975132 42.478606
-18.135686 18.627706 42.869858
-18.965499 -2.28567 47.536417
-19.418975 -2.821024 47.142297
-16.715547 3.649319 48.268623
-16.495956 2.631358 48.773581
-17.483255 4.232019 47.327287
-16.715547 3.649319 48.268623
-16.986121 4.703497 47.690576
-17.859859 6.301151 46.362549
-17.164853 5.690807 47.242624
-17.270885 6.705761 46.855932
-39.724914 -1.481066 10.442286
-40.01173 -0.194128 10.637565
-39.188658 1.723815 7.328166
-39.564211 1.827401 8.201911
-39.465027 2.964751 7.449074
-39.188658 1.723815 7.328166
-38.684842 1.633531 6.402392
-25.78366 -2.2312 39.569201
-25.042972 -2.719919 40.549311
-25.33239 -1.675622 40.021061
-26.198594 -2.837919 39.186598
-25.78366 -2.2312 39.569201
-26.488012 -1.793623 38.658348
-26.626702 -3.463795 38.749338
-26.198594 -2.837919 39.186598
-27.350275 -3.071716 37.844549
-26.626702 -3.463795 38.749338
-28.097672 -2.71646 36.892181
-27.350275 -3.071716 37.844549
-27.650343 -2.045085 37.323377
-28.863284 -2.307684 35.927494
-28.097672 -2.71646 36.892181
-37.72242 22.165872 6.930939
-37.517691 22.090592 8.027827
-37.189062 23.216511 7.404875
-37.81942 22.311222 5.819446
-38.148049 21.185303 6.442398
-37.72242 22.165872 6.930939
-37.937905 22.346503 4.746698
-37.81942 22.311222 5.819446
-16.558301 11.239014 46.453323
-16.439391 10.054308 46.859111
-16.439391 10.054308 46.859111
-17.027808 9.451109 46.416511
-38.481099 8.838043 3.05234
-38.927572 8.914391 3.871956
-38.792307 10.140737 3.205242
-38.073843 7.566123 2.946172
-38.481099 8.838043 3.05234
-34.122284 25.339765 13.696549
-34.784624 24.499046 13.09369
-34.122284 25.339765 13.696549
-33.717022 25.157583 14.858802
-33.258206 24.971195 16.06619
-32.800119 24.721046 17.296166
-30.725124 24.669305 21.339889
-31.442854 23.744179 20.789969
-30.978065 23.444238 21.90203
-30.725124 24.669305 21.339889
-29.979445 25.573113 21.962352
-34.784624 24.499046 13.09369
-35.407247 23.654347 12.581792
-35.076802 23.402867 13.711106
-22.969231 23.292876 35.10343
-23.65268 22.542335 34.416334
-23.048254 22.033212 35.521759
-22.929721 24.594674 34.614834
-22.969231 23.292876 35.10343
-20.707181 19.768438 39.475701
-20.704818 18.421079 39.879904
-20.073833 19.148669 40.453772
-21.296908 20.326614 38.53347
-20.707181 19.768438 39.475701
-21.899403 20.885205 37.548159
-21.94066 19.59944 37.916522
-21.296908 20.326614 38.53347
-22.45398 21.470892 36.570032
-21.899403 20.885205 37.548159
-16.610381 12.459352 46.09856
-17.250292 11.812926 45.601749
-16.558301 11.239014 46.453323
-16.689827 13.660817 45.723309
-16.610381 12.459352 46.09856
-17.374679 14.329932 44.84313
-16.689827 13.660817 45.723309
-23.550808 -3.466235 42.455107
-22.798737 -3.919969 43.41036
-23.851384 -2.530864 41.949976
-24.291127 -3.099712 41.506302
-23.550808 -3.466235 42.455107
-22.599333 -2.417858 43.41247
-22.341606 -3.429963 43.893172
-23.393339 -1.963344 42.381342
-22.599333 -2.417858 43.41247
-22.881607 -1.483814 42.895031
-18.494198 -1.755323 47.927357
-18.029156 -1.278758 48.309643
-19.256888 -1.263249 46.98654
-18.965499 -2.28567 47.536417
-18.494198 -1.755323 47.927357
-16.975686 2.141786 48.446281
-16.258961 1.595302 49.314527
-16.495956 2.631358 48.773581
-39.80576 -2.574673 11.242233
-39.724914 -1.481066 10.442286
-38.377358 5.188282 4.362433
-38.767476 6.515884 4.422126
-38.226246 6.284096 3.659361
-38.519732 4.046163 5.051979
-38.377358 5.188282 4.362433
-26.401886 23.796522 29.473225
-27.060416 23.033905 28.826321
-26.58112 22.510317 29.917285
-25.262949 24.051544 31.222195
-25.38026 22.756686 31.670542
-24.720619 23.535296 32.328547
-25.729801 24.59077 30.139451
-25.262949 24.051544 31.222195
-26.401886 23.796522 29.473225
-25.729801 24.59077 30.139451
-27.855673 0.698897 36.473616
-27.102319 0.252244 37.489283
-27.364974 1.236082 36.929642
-28.344178 0.016479 36.066929
-27.855673 0.698897 36.473616
-28.606833 1.000317 35.507288
-28.746538 -0.685965 35.735805
-27.995379 -0.987385 36.702134
-28.344178 0.016479 36.066929
-29.664021 -1.965732 34.904716
-28.863284 -2.307684 35.927494
-29.198476 -1.347877 35.348232
-30.094636 -2.663106 34.527653
-29.664021 -1.965732 34.904716
-30.429828 -1.703299 33.948391
-30.518423 -3.386633 34.129559
-30.094636 -2.663106 34.527653
-30.518423 -3.386633 34.129559
-31.295262 -3.130943 33.172956
-32.057386 -2.850528 32.191921
-32.831963 -2.671059 31.216318
-37.481161 -5.741551 25.219909
-36.917484 -5.805338 26.182431
-37.185335 -4.703172 25.526905
-37.481161 -5.741551 25.219909
-38.007918 -5.731281 24.235755
-39.270292 -5.844148 21.273932
-38.89695 -5.747503 22.280376
-39.105463 -4.706291 21.529038
-39.270292 -5.844148 21.273932
-39.572401 -5.956258 20.248022
-40.190863 -4.073405 16.615262
-40.067181 -5.125744 17.413896
-40.091124 -3.972415 17.648528
-40.228229 -4.166422 15.609764
-40.190863 -4.073405 16.615262
-40.252173 -3.013094 15.844396
-40.178949 -4.354738 14.704749
-40.228229 -4.166422 15.609764
-40.172721 -3.331104 13.868849
-40.178949 -4.354738 14.704749
-40.211244 -2.317162 13.176094
-40.172721 -3.331104 13.868849
-40.328062 -2.092168 14.146142
-40.203108 -1.189281 12.421981
-40.047767 -2.428217 12.144689
-40.211244 -2.317162 13.176094
-40.179244 0.959313 10.83899
-40.01173 -0.194128 10.637565
-40.207145 -0.146896 11.592001
-40.166288 2.064612 10.082444
-40.179244 0.959313 10.83899
-40.361704 2.111844 11.03688
-40.094664 3.142741 9.301576
-39.912205 1.990209 9.103687
-40.166288 2.064612 10.082444
-39.251781 12.470351 3.614433
-39.069992 11.349488 3.349515
-39.42057 11.337948 4.289776
-39.40948 13.567872 3.866872
-39.613806 13.681793 4.797885
-39.420926 14.790853 4.110063
-39.251781 12.470351 3.614433
-39.40948 13.567872 3.866872
-39.034247 18.160078 4.145745
-39.280647 17.091804 4.808963
-39.112082 18.179794 5.139794
-38.781567 19.255747 3.553298
-38.578139 20.313702 3.898223
-38.494025 20.321381 2.974946
-39.034247 18.160078 4.145745
-38.781567 19.255747 3.553298
3 0 72 70
3 0 75 73
3 0 70 75
3 1 79 77
3 1 280 282
3 280 81 281
3 280 281 282
3 1 77 81
3 3 85 83
3 2 88 86
3 4 91 89
3 4 93 91
3 4 95 93
3 283 98 284
3 285 284 96
3 283 284 285
3 287 286 98
3 5 288 289
3 6 102 100
3 8 105 103
3 8 107 105
3 8 109 107
3 5 112 110
3 5 290 292
3 292 291 112
3 290 291 292
3 10 116 114
3 294 293 117
3 11 295 296
3 11 297 299
3 297 118 298
3 297 298 299
3 300 119 301
3 12 122 120
3 12 124 122
3 12 126 124
3 10 129 127
3 10 114 129
3 13 302 303
3 305 304 131
3 7 134 132
3 14 137 135
3 14 138 137
3 14 139 138
3 15 142 140
3 15 144 142
3 15 146 144
3 16 149 147
3 16 151 149
3 9 154 152
3 17 157 155
3 17 159 157
3 17 161 159
3 18 306 308
3 308 307 163
3 306 307 308
3 310 309 71
3 19 167 165
3 21 168 74
3 21 169 168
3 21 171 169
3 18 172 76
3 18 163 172
3 23 175 173
3 311 176 312
3 313 312 78
3 311 312 313
3 315 314 176
3 316 178 317
3 26 179 80
3 26 180 179
3 26 182 180
3 23 183 82
3 23 173 183
3 28 318 319
3 321 320 84
3 29 322 323
3 324 184 325
3 326 325 87
3 324 325 326
3 327 185 328
3 329 328 184
3 327 328 329
3 30 188 186
3 32 189 90
3 32 190 189
3 32 192 190
3 34 193 92
3 34 194 193
3 34 196 194
3 36 197 94
3 36 198 197
3 37 201 199
3 39 202 97
3 39 203 202
3 39 205 203
3 331 330 99
3 333 332 206
3 41 334 336
3 336 335 208
3 334 335 336
3 338 337 164
3 42 211 209
3 44 212 101
3 44 213 212
3 20 214 166
3 45 215 104
3 45 216 215
3 45 217 216
3 46 218 106
3 46 219 218
3 46 221 219
3 48 222 108
3 48 223 222
3 22 224 170
3 49 225 111
3 49 226 225
3 49 227 226
3 41 228 113
3 41 208 228
3 50 231 229
3 52 232 115
3 52 339 341
3 341 340 232
3 339 340 341
3 24 233 174
3 342 234 343
3 53 344 346
3 344 235 345
3 344 345 346
3 53 236 235
3 54 347 348
3 54 349 351
3 349 237 350
3 349 350 351
3 25 238 177
3 55 239 121
3 55 240 239
3 55 241 240
3 56 242 123
3 56 243 242
3 56 244 243
3 57 245 125
3 57 246 245
3 27 247 181
3 58 248 128
3 58 249 248
3 58 250 249
3 50 251 130
3 50 229 251
3 353 352 207
3 51 252 230
3 43 253 210
3 59 254 133
3 59 255 254
3 31 256 187
3 60 257 136
3 60 258 257
3 60 354 356
3 356 355 258
3 354 355 356
3 61 357 358
3 61 359 360
3 33 259 191
3 62 260 141
3 62 361 363
3 363 362 260
3 361 362 363
3 62 364 365
3 63 366 368
3 368 367 143
3 366 367 368
3 63 369 370
3 63 371 372
3 64 261 145
3 64 262 261
3 35 263 195
3 65 264 148
3 65 265 264
3 65 266 265
3 66 267 150
3 66 268 267
3 47 269 220
3 67 270 153
3 67 271 270
3 38 272 200
3 68 273 156
3 68 274 273
3 68 275 274
3 69 276 158
3 69 277 276
3 69 278 277
3 374 373 160
3 40 279 204
3 376 375 162
3 70 71 18
3 72 71 70
3 72 377 379
3 379 378 71
3 377 378 379
3 73 74 19
3 75 74 73
3 75 21 74
3 75 76 21
3 70 76 75
3 70 18 76
3 77 78 23
3 79 78 77
3 79 380 382
3 382 381 78
3 380 381 382
3 383 80 384
3 81 385 387
3 385 80 386
3 385 386 387
3 81 26 80
3 81 82 26
3 77 82 81
3 77 23 82
3 83 84 28
3 85 84 83
3 85 388 390
3 390 389 84
3 388 389 390
3 86 87 29
3 88 87 86
3 88 391 393
3 393 392 87
3 391 392 393
3 89 90 30
3 91 90 89
3 91 32 90
3 91 92 32
3 93 92 91
3 93 34 92
3 93 94 34
3 95 94 93
3 95 36 94
3 96 97 37
3 98 97 96
3 98 39 97
3 98 99 39
3 394 99 395
3 396 395 98
3 394 395 396
3 398 397 99
3 400 399 41
3 100 101 42
3 102 101 100
3 102 44 101
3 103 104 20
3 105 104 103
3 105 45 104
3 105 106 45
3 107 106 105
3 107 46 106
3 107 108 46
3 109 108 107
3 109 48 108
3 110 111 22
3 112 111 110
3 112 49 111
3 112 113 49
3 401 113 402
3 403 402 112
3 401 402 403
3 404 41 405
3 406 405 113
3 404 405 406
3 114 115 50
3 116 115 114
3 116 52 115
3 117 407 409
3 409 408 24
3 407 408 409
3 411 410 117
3 118 412 413
3 118 414 416
3 414 53 415
3 414 415 416
3 119 417 418
3 119 419 421
3 419 54 420
3 419 420 421
3 120 121 25
3 122 121 120
3 122 55 121
3 122 123 55
3 124 123 122
3 124 56 123
3 124 125 56
3 126 125 124
3 126 57 125
3 127 128 27
3 129 128 127
3 129 58 128
3 129 130 58
3 114 130 129
3 114 50 130
3 131 422 424
3 424 423 51
3 422 423 424
3 426 425 131
3 132 133 43
3 134 133 132
3 134 59 133
3 135 136 31
3 137 136 135
3 137 60 136
3 137 427 429
3 429 428 60
3 427 428 429
3 138 430 432
3 432 431 137
3 430 431 432
3 138 433 434
3 138 435 436
3 139 437 439
3 439 438 138
3 437 438 439
3 139 440 442
3 440 61 441
3 440 441 442
3 140 141 33
3 142 141 140
3 142 62 141
3 142 143 62
3 144 143 142
3 144 63 143
3 144 145 63
3 146 145 144
3 146 64 145
3 147 148 35
3 149 148 147
3 149 65 148
3 149 150 65
3 151 150 149
3 151 66 150
3 152 153 47
3 154 153 152
3 154 67 153
3 155 156 38
3 157 156 155
3 157 68 156
3 157 158 68
3 159 158 157
3 159 69 158
3 159 160 69
3 161 160 159
3 161 443 445
3 445 444 160
3 443 444 445
3 446 162 447
3 448 447 40
3 446 447 448
3 449 162 450
3 452 451 162
3 163 164 5
3 453 164 454
3 455 454 163
3 453 454 455
3 457 456 164
3 71 458 460
3 460 459 18
3 458 459 460
3 462 461 71
3 165 166 6
3 167 166 165
3 167 20 166
3 74 167 19
3 168 167 74
3 168 20 167
3 168 103 20
3 169 103 168
3 169 8 103
3 169 170 8
3 171 170 169
3 171 22 170
3 76 171 21
3 172 171 76
3 172 22 171
3 172 110 22
3 163 110 172
3 163 5 110
3 173 174 10
3 175 174 173
3 175 24 174
3 78 175 23
3 176 175 78
3 176 24 175
3 176 117 24
3 463 117 464
3 465 464 176
3 463 464 465
3 467 466 117
3 468 11 469
3 470 177 471
3 178 472 474
3 472 177 473
3 472 473 474
3 178 25 177
3 80 475 477
3 475 178 476
3 475 476 477
3 179 178 80
3 179 25 178
3 179 120 25
3 180 120 179
3 180 12 120
3 180 181 12
3 182 181 180
3 182 27 181
3 82 182 26
3 183 182 82
3 183 27 182
3 183 127 27
3 173 127 183
3 173 10 127
3 479 478 13
3 84 480 482
3 482 481 28
3 480 481 482
3 484 483 84
3 87 485 487
3 487 486 29
3 485 486 487
3 184 488 490
3 490 489 87
3 488 489 490
3 184 491 492
3 184 493 494
3 185 495 497
3 497 496 184
3 495 496 497
3 185 498 499
3 186 187 7
3 188 187 186
3 188 31 187
3 90 188 30
3 189 188 90
3 189 31 188
3 189 135 31
3 190 135 189
3 190 14 135
3 190 191 14
3 192 191 190
3 192 33 191
3 92 192 32
3 193 192 92
3 193 33 192
3 193 140 33
3 194 140 193
3 194 15 140
3 194 195 15
3 196 195 194
3 196 35 195
3 94 196 34
3 197 196 94
3 197 35 196
3 197 147 35
3 198 147 197
3 198 16 147
3 199 200 9
3 201 200 199
3 201 38 200
3 97 201 37
3 202 201 97
3 202 38 201
3 202 155 38
3 203 155 202
3 203 17 155
3 203 204 17
3 205 204 203
3 205 40 204
3 99 205 39
3 500 205 501
3 502 501 99
3 500 501 502
3 503 40 504
3 505 504 205
3 503 504 505
3 507 506 40
3 509 508 1
3 510 1 511
3 206 207 3
3 512 207 513
3 514 513 206
3 512 513 514
3 516 515 207
3 208 517 518
3 520 519 208
3 522 521 41
3 164 523 525
3 525 524 5
3 523 524 525
3 527 526 164
3 209 210 2
3 211 210 209
3 211 43 210
3 101 211 42
3 212 211 101
3 212 43 211
3 212 132 43
3 213 132 212
3 213 7 132
3 166 102 6
3 214 102 166
3 214 44 102
3 104 214 20
3 215 214 104
3 215 44 214
3 215 213 44
3 216 213 215
3 216 7 213
3 216 186 7
3 217 186 216
3 217 30 186
3 106 217 45
3 218 217 106
3 218 30 217
3 218 89 30
3 219 89 218
3 219 4 89
3 219 220 4
3 221 220 219
3 221 47 220
3 108 221 46
3 222 221 108
3 222 47 221
3 222 152 47
3 223 152 222
3 223 9 152
3 170 109 8
3 224 109 170
3 224 48 109
3 111 224 22
3 225 224 111
3 225 48 224
3 225 223 48
3 226 223 225
3 226 9 223
3 226 199 9
3 227 199 226
3 227 37 199
3 113 227 49
3 228 227 113
3 228 37 227
3 228 96 37
3 208 96 228
3 208 528 530
3 530 529 96
3 528 529 530
3 229 230 0
3 231 230 229
3 231 51 230
3 115 231 50
3 232 231 115
3 232 51 231
3 232 131 51
3 531 131 532
3 533 532 232
3 531 532 533
3 535 534 131
3 174 116 10
3 233 116 174
3 233 52 116
3 536 233 537
3 538 537 24
3 536 537 538
3 539 233 540
3 541 52 542
3 543 542 233
3 541 542 543
3 545 544 52
3 546 79 547
3 548 547 1
3 546 547 548
3 549 79 550
3 552 551 79
3 234 553 554
3 234 555 557
3 555 29 556
3 555 556 557
3 558 234 559
3 235 560 562
3 560 234 561
3 560 561 562
3 235 29 234
3 235 86 29
3 236 86 235
3 236 2 86
3 237 563 564
3 237 565 567
3 565 11 566
3 565 566 567
3 177 568 570
3 568 119 569
3 568 569 570
3 238 119 177
3 238 54 119
3 121 238 25
3 239 238 121
3 239 54 238
3 239 237 54
3 240 237 239
3 240 11 237
3 240 118 11
3 241 118 240
3 241 53 118
3 123 241 55
3 242 241 123
3 242 53 241
3 242 236 53
3 243 236 242
3 243 2 236
3 243 209 2
3 244 209 243
3 244 42 209
3 125 244 56
3 245 244 125
3 245 42 244
3 245 100 42
3 246 100 245
3 246 6 100
3 181 126 12
3 247 126 181
3 247 57 126
3 128 247 27
3 248 247 128
3 248 57 247
3 248 246 57
3 249 246 248
3 249 6 246
3 249 165 6
3 250 165 249
3 250 19 165
3 130 250 58
3 251 250 130
3 251 19 250
3 251 73 19
3 229 73 251
3 229 0 73
3 572 571 13
3 207 85 3
3 573 85 574
3 575 574 207
3 573 574 575
3 577 576 85
3 230 72 0
3 252 72 230
3 252 578 580
3 580 579 72
3 578 579 580
3 581 252 582
3 583 582 51
3 581 582 583
3 584 252 585
3 587 586 252
3 210 88 2
3 253 88 210
3 253 588 590
3 590 589 88
3 588 589 590
3 133 253 43
3 254 253 133
3 254 591 593
3 593 592 253
3 591 592 593
3 254 594 596
3 594 185 595
3 594 595 596
3 255 185 254
3 255 597 599
3 599 598 185
3 597 598 599
3 187 134 7
3 256 134 187
3 256 59 134
3 136 256 31
3 257 256 136
3 257 59 256
3 257 255 59
3 258 255 257
3 258 600 602
3 602 601 255
3 600 601 602
3 258 603 604
3 606 605 258
3 608 607 60
3 191 139 14
3 259 139 191
3 259 61 139
3 141 259 33
3 260 259 141
3 260 61 259
3 260 609 611
3 611 610 61
3 609 610 611
3 613 612 260
3 143 614 616
3 616 615 62
3 614 615 616
3 618 617 143
3 145 619 621
3 621 620 63
3 619 620 621
3 261 622 624
3 624 623 145
3 622 623 624
3 261 625 626
3 261 627 628
3 262 629 631
3 631 630 261
3 629 630 631
3 262 632 634
3 632 13 633
3 632 633 634
3 195 146 15
3 263 146 195
3 263 64 146
3 148 263 35
3 264 263 148
3 264 64 263
3 264 262 64
3 265 262 264
3 265 13 262
3 265 635 637
3 637 636 13
3 635 636 637
3 266 638 640
3 640 639 265
3 638 639 640
3 266 641 643
3 641 28 642
3 641 642 643
3 150 266 65
3 267 266 150
3 267 28 266
3 267 83 28
3 268 83 267
3 268 3 83
3 220 95 4
3 269 95 220
3 269 36 95
3 153 269 47
3 270 269 153
3 270 36 269
3 270 198 36
3 271 198 270
3 271 16 198
3 200 154 9
3 272 154 200
3 272 67 154
3 156 272 38
3 273 272 156
3 273 67 272
3 273 271 67
3 274 271 273
3 274 16 271
3 274 151 16
3 275 151 274
3 275 66 151
3 158 275 68
3 276 275 158
3 276 66 275
3 276 268 66
3 277 268 276
3 277 3 268
3 277 206 3
3 278 206 277
3 278 644 646
3 646 645 206
3 644 645 646
3 160 278 69
3 647 278 648
3 649 648 160
3 647 648 649
3 651 650 278
3 204 161 17
3 279 161 204
3 279 652 654
3 654 653 161
3 652 653 654
3 162 279 40
3 655 279 656
3 657 656 162
3 655 656 657
3 659 658 279
