ply
format ascii 1.0
element vertex 76
property float x
property float y
property float z
element face 55
property list uchar int vertex_index
end_header
2.927184 78.868828 -42.734539
-1.573732 81.100571 -45.181126
0.714144 80.020401 -44.038616
-0.802972 77.830536 -45.443863
5.512233 85.198349 -38.935577
-3.138084 78.964203 -46.509724
2.332106 82.034286 -42.446957
3.966633 83.85537 -40.696625
4.391695 80.798378 -41.183262
2.207261 77.842121 -43.4454
1.100742 78.417908 -44.097438
1.820664 79.444615 -43.386578
3.281947 77.242847 -42.746507
2.207261 77.842121 -43.4454
-2.355908 80.032387 -45.845425
-3.597494 80.542866 -46.369312
-2.815317 81.61105 -45.705013
-1.540407 76.686668 -46.075407
-0.419102 76.213299 -45.495666
1.943526 83.633137 -42.231896
1.171775 82.70129 -43.0387
5.036373 82.993046 -40.045388
4.739433 84.52686 -39.816101
5.809173 83.664535 -39.164864
5.248904 81.46455 -40.288706
4.179164 82.326874 -40.939943
5.036373 82.993046 -40.045388
0.342183 77.322975 -44.800062
-0.044414 78.925468 -44.741239
1.100742 78.417908 -44.097438
-0.419102 76.213299 -45.495666
0.342183 77.322975 -44.800062
6.291019 85.698689 -38.006746
5.227632 86.615532 -38.549931
6.644604 84.322403 -38.189706
6.291019 85.698689 -38.006746
5.809173 83.664535 -39.164864
6.644604 84.322403 -38.189706
-4.356711 79.346527 -47.005701
-3.597494 80.542866 -46.369312
-3.837155 77.627842 -47.113729
-4.356711 79.346527 -47.005701
-2.707963 77.253502 -46.608337
-1.970528 78.397369 -45.976793
-1.540407 76.686668 -46.075407
-3.837155 77.627842 -47.113729
-2.707963 77.253502 -46.608337
-2.063692 82.716392 -45.004216
-2.815317 81.61105 -45.705013
-0.781144 82.234432 -44.405785
-2.063692 82.716392 -45.004216
0.362794 81.694348 -43.83453
-0.429794 80.560486 -44.609871
-0.781144 82.234432 -44.405785
1.523125 81.027344 -43.242786
0.362794 81.694348 -43.83453
1.171775 82.70129 -43.0387
4.315621 86.008629 -39.592106
5.227632 86.615532 -38.549931
3.542821 85.33714 -40.472629
4.315621 86.008629 -39.592106
4.739433 84.52686 -39.816101
2.760789 84.543678 -41.35673
3.542821 85.33714 -40.472629
3.149369 82.944828 -41.571791
1.943526 83.633137 -42.231896
2.760789 84.543678 -41.35673
5.456228 79.945149 -40.440372
5.248904 81.46455 -40.288706
4.68146 79.238617 -41.253076
5.456228 79.945149 -40.440372
3.949204 78.273842 -42.028715
3.65944 79.833603 -41.9589
4.68146 79.238617 -41.253076
3.281947 77.242847 -42.746507
3.949204 78.273842 -42.028715
3 0 9 11
3 11 10 2
3 9 10 11
3 0 12 13
3 1 14 16
3 14 5 15
3 14 15 16
3 18 17 3
3 19 6 20
3 21 7 22
3 23 22 4
3 21 22 23
3 24 8 25
3 26 25 7
3 24 25 26
3 2 3 1
3 27 3 28
3 29 28 2
3 27 28 29
3 31 30 3
3 32 4 33
3 34 4 35
3 37 36 4
3 5 38 39
3 5 40 41
3 3 5 1
3 42 5 43
3 44 43 3
3 42 43 44
3 46 45 5
3 47 1 48
3 49 1 50
3 51 2 52
3 53 52 1
3 51 52 53
3 6 54 56
3 54 2 55
3 54 55 56
3 6 0 2
3 4 57 58
3 7 59 61
3 61 60 4
3 59 60 61
3 7 62 63
3 7 64 66
3 64 6 65
3 64 65 66
3 8 6 7
3 8 0 6
3 67 8 68
3 69 8 70
3 71 0 72
3 73 72 8
3 71 72 73
3 75 74 0
