ply
format ascii 1.0
element vertex 86
property float x
property float y
property float z
element face 68
property list uchar int vertex_index
end_header
-41.320469 -11.756359 -34.176125
-41.430607 -16.313349 -34.823971
-41.400963 -11.167083 -37.714474
-41.356709 -19.011496 -33.149738
-41.376816 -16.582043 -33.172836
-41.231068 -9.21704 -35.415405
-41.359913 -11.29455 -35.95623
-41.272369 -14.235379 -31.342653
-41.348286 -14.32365 -32.912933
-41.263245 -12.023964 -32.598297
-41.408836 -19.08741 -34.84177
-41.479248 -16.275242 -36.613041
-41.397449 -13.9559 -34.592697
-41.442017 -13.644893 -36.289902
-41.34474 -16.552044 -32.331978
-41.335566 -17.759175 -32.321979
-41.247685 -8.980642 -36.334311
-41.154656 -7.981163 -36.007652
-41.218878 -12.194288 -31.818339
-41.267807 -13.129672 -31.970475
-41.22344 -13.299995 -31.190517
-41.440574 -12.371393 -37.933775
-41.461101 -13.610298 -37.221489
-41.42149 -12.405988 -37.002188
-41.405142 -10.945446 -38.694986
-41.440574 -12.371393 -37.933775
-41.325512 -18.973901 -32.31043
-41.292382 -20.256023 -32.326116
-41.366763 -17.796769 -33.161287
-41.325512 -18.973901 -32.31043
-41.335566 -17.759175 -32.321979
-41.312107 -10.019397 -36.604723
-41.29549 -10.255795 -35.685817
-41.247685 -8.980642 -36.334311
-41.332632 -9.955663 -37.483845
-41.380438 -11.230816 -36.835352
-41.312107 -10.019397 -36.604723
-41.340814 -9.748608 -38.391259
-41.332632 -9.955663 -37.483845
-41.310327 -14.279515 -32.127793
-41.330475 -15.422847 -32.202027
-41.292516 -15.378712 -31.416887
-41.191736 -11.128561 -32.34222
-41.218878 -12.194288 -31.818339
-41.223585 -10.854029 -33.137415
-41.191736 -11.128561 -32.34222
-41.252198 -10.720226 -33.926329
-41.291857 -11.890161 -33.387211
-41.223585 -10.854029 -33.137415
-41.207497 -9.450567 -34.545969
-41.275768 -10.4867 -34.795765
-41.252198 -10.720226 -33.926329
-41.138852 -8.352241 -35.044821
-41.207497 -9.450567 -34.545969
-41.154656 -7.981163 -36.007652
-41.138852 -8.352241 -35.044821
-41.321791 -20.291844 -33.175886
-41.292382 -20.256023 -32.326116
-41.347854 -20.329801 -34.021902
-41.321791 -20.291844 -33.175886
-41.382773 -19.049453 -33.995754
-41.366297 -20.467274 -34.834797
-41.347854 -20.329801 -34.021902
-41.429294 -19.089057 -35.729719
-41.366297 -20.467274 -34.834797
-41.4645 -17.682973 -36.615355
-41.429294 -19.089057 -35.729719
-41.444042 -17.681326 -35.727406
-41.491274 -16.310643 -37.511291
-41.4645 -17.682973 -36.615355
-41.362551 -15.452846 -33.042884
-41.34474 -16.552044 -32.331978
-41.330475 -15.422847 -32.202027
-41.479717 -14.925473 -37.383059
-41.460633 -14.960067 -36.451471
-41.461101 -13.610298 -37.221489
-41.491274 -16.310643 -37.511291
-41.479717 -14.925473 -37.383059
-41.405142 -10.945446 -38.694986
-41.340814 -9.748608 -38.391259
-41.249611 -15.380536 -30.618814
-41.292516 -15.378712 -31.416887
-41.212799 -14.304387 -30.544754
-41.249611 -15.380536 -30.618814
-41.22344 -13.299995 -31.190517
-41.212799 -14.304387 -30.544754
3 14 4 15
3 17 16 5
3 18 9 19
3 20 19 7
3 18 19 20
3 1 10 3
3 1 11 10
3 0 12 8
3 2 13 6
3 2 21 23
3 23 22 13
3 21 22 23
3 2 24 25
3 26 3 27
3 4 28 30
3 28 3 29
3 28 29 30
3 4 1 3
3 5 6 0
3 31 6 32
3 33 32 5
3 31 32 33
3 34 2 35
3 36 35 6
3 34 35 36
3 38 37 2
3 7 39 41
3 39 8 40
3 39 40 41
3 9 8 7
3 9 0 8
3 42 9 43
3 44 9 45
3 46 0 47
3 48 47 9
3 46 47 48
3 49 5 50
3 51 50 0
3 49 50 51
3 52 5 53
3 55 54 5
3 3 56 57
3 10 58 60
3 60 59 3
3 58 59 60
3 10 61 62
3 10 63 64
3 11 65 67
3 67 66 10
3 65 66 67
3 11 68 69
3 8 70 72
3 70 4 71
3 70 71 72
3 12 4 8
3 12 1 4
3 6 12 0
3 13 12 6
3 13 1 12
3 13 11 1
3 73 11 74
3 75 74 13
3 73 74 75
3 77 76 11
3 79 78 2
3 80 7 81
3 82 7 83
3 85 84 7
