ply
format ascii 1.0
element vertex 185
property float x
property float y
property float z
element face 158
property list uchar int vertex_index
end_header
4.192447 1.464197 -64.315552
0.018994 -12.405716 -53.646061
1.822868 -9.245955 -57.461948
2.216322 -2.296621 -60.43998
2.399963 4.149558 -62.92609
4.38378 7.966296 -66.592293
3.881884 -5.460009 -61.390991
0.418395 -9.149856 -55.229706
0.903224 -11.004333 -55.503853
1.20045 -7.611361 -57.026817
1.565351 2.026477 -60.917099
1.537877 5.146084 -61.881367
3.367403 8.98342 -65.647995
3.149287 -0.463107 -62.391533
3.034404 -3.895882 -60.985645
4.054132 -2.051349 -62.865501
7.292809 -4.068388 -64.737686
5.946186 -5.674436 -63.17345
1.510337 8.154598 -62.701817
-0.480963 -15.855569 -52.032215
2.475217 -10.87838 -57.806614
5.33193 3.177706 -66.037338
1.387166 -4.405021 -58.402397
1.477161 -1.032351 -59.718678
2.356532 0.976919 -61.804794
3.266929 2.66871 -63.646534
2.386391 7.18167 -63.8139
3.356908 5.936368 -64.806267
4.261058 4.704139 -65.493065
2.099387 -5.73664 -59.052517
2.859688 -7.337517 -59.515053
3.578204 -9.159481 -59.692738
5.013029 -3.787439 -63.144722
4.749162 -7.263549 -61.558277
4.426479 -11.031843 -59.842384
0.486598 -7.538231 -55.852363
0.11556 -8.533288 -54.88389
0.877625 -6.768983 -56.750919
0.809423 -8.380608 -56.128262
0.486598 -7.538231 -55.852363
1.115191 5.685437 -61.329555
1.161871 4.213898 -60.944162
7.172301 -5.917531 -63.91255
7.868867 -5.005769 -64.673896
-0.440297 -13.312662 -52.646658
-0.238862 -11.693376 -53.380795
-0.230984 -14.130643 -52.839138
-0.690276 -15.037588 -51.839735
-0.440297 -13.312662 -52.646658
0.25874 -13.383492 -53.803583
0.008761 -15.108419 -52.99666
-0.230984 -14.130643 -52.839138
1.648594 -10.959457 -56.67882
1.188772 -11.838646 -55.699772
1.363046 -10.125144 -56.4829
2.149042 -10.062168 -57.634281
1.974768 -11.77567 -56.851152
1.648594 -10.959457 -56.67882
5.905196 2.377319 -66.213093
5.934642 4.155973 -66.854904
1.124693 -0.381329 -59.341389
1.11192 -1.906455 -58.79372
2.416506 8.697156 -64.238081
1.948364 7.668134 -63.257858
1.978479 9.183619 -63.68204
4.861404 7.193208 -66.844983
4.800044 5.56213 -66.295368
4.322419 6.335217 -66.042679
5.595189 -2.950934 -63.950333
5.085303 -1.934737 -63.921036
5.249605 -8.231355 -61.595447
5.347674 -6.468993 -62.365864
5.848117 -7.436798 -62.403034
5.088264 -10.115502 -60.737501
4.58782 -9.147696 -60.70033
5.249605 -8.231355 -61.595447
4.868005 -12.149553 -59.791082
5.088264 -10.115502 -60.737501
-0.039161 -10.065447 -54.172617
0.11556 -8.533288 -54.88389
0.218695 -10.777786 -54.437883
-0.238862 -11.693376 -53.380795
-0.039161 -10.065447 -54.172617
1.175607 2.654095 -60.462029
1.168788 1.148084 -59.9406
1.551614 3.58628 -61.399233
1.175607 2.654095 -60.462029
1.161871 4.213898 -60.944162
3.372632 10.539755 -65.980137
2.907012 9.598031 -65.155128
3.911599 9.965022 -66.511784
3.372632 10.539755 -65.980137
4.419787 9.45646 -66.983933
3.875591 8.474858 -66.120144
3.911599 9.965022 -66.511784
4.977527 8.820159 -67.391178
4.419787 9.45646 -66.983933
6.619497 -4.871412 -63.955568
6.061768 -3.894432 -63.964697
6.735079 -3.091408 -64.746814
6.49899 -6.720555 -63.130432
6.619497 -4.871412 -63.955568
7.172301 -5.917531 -63.91255
5.848117 -7.436798 -62.403034
6.49899 -6.720555 -63.130432
1.068358 8.605853 -62.07904
1.101422 7.189694 -61.73978
1.477715 9.585843 -62.988811
1.068358 8.605853 -62.07904
1.035736 10.037097 -62.366035
1.978479 9.183619 -63.68204
1.477715 9.585843 -62.988811
-0.97948 -16.719528 -51.052542
-1.188792 -15.901547 -50.860062
-0.690276 -15.037588 -51.839735
-0.772274 -17.568535 -51.270037
-0.97948 -16.719528 -51.052542
-0.264195 -16.886183 -52.180284
-0.772274 -17.568535 -51.270037
-0.264195 -16.886183 -52.180284
0.008761 -15.108419 -52.99666
0.700855 -12.682801 -54.732479
0.25874 -13.383492 -53.803583
0.461109 -11.705025 -54.574957
0.700855 -12.682801 -54.732479
1.188772 -11.838646 -55.699772
2.289703 -12.726906 -56.990092
1.974768 -11.77567 -56.851152
2.875941 -11.891519 -57.92803
2.289703 -12.726906 -56.990092
5.244753 1.547835 -65.367344
4.675012 0.69108 -64.506451
4.762188 2.320952 -65.176445
5.244753 1.547835 -65.367344
5.905196 2.377319 -66.213093
7.412408 -2.247579 -65.534165
6.735079 -3.091408 -64.746814
8.008948 -3.145106 -65.503475
7.412408 -2.247579 -65.534165
7.868867 -5.005769 -64.673896
8.008948 -3.145106 -65.503475
1.066922 -3.59279 -58.13558
0.970983 -5.165813 -57.438709
1.432163 -2.718686 -59.060537
1.066922 -3.59279 -58.13558
1.11192 -1.906455 -58.79372
1.521256 0.497063 -60.317888
1.124693 -0.381329 -59.341389
1.168788 1.148084 -59.9406
1.524107 6.650341 -62.291592
1.115191 5.685437 -61.329555
1.101422 7.189694 -61.73978
2.876897 8.082545 -64.730947
2.416506 8.697156 -64.238081
2.907012 9.598031 -65.155128
5.335479 4.798914 -66.567505
4.796494 3.940923 -65.765202
4.800044 5.56213 -66.295368
5.934642 4.155973 -66.854904
5.335479 4.798914 -66.567505
4.861404 7.193208 -66.844983
4.977527 8.820159 -67.391178
1.293808 -6.008191 -57.714607
0.877625 -6.768983 -56.750919
0.970983 -5.165813 -57.438709
3.427435 -11.032069 -58.871092
2.875941 -11.891519 -57.92803
3.026711 -10.01893 -58.749676
4.605854 -1.066693 -63.781425
4.12329 -0.293576 -63.590526
4.675012 0.69108 -64.506451
4.533581 -2.919394 -63.005111
4.605854 -1.066693 -63.781425
5.085303 -1.934737 -63.921036
5.479608 -4.730937 -63.159086
5.595189 -2.950934 -63.950333
6.061768 -3.894432 -63.964697
3.851572 -11.96825 -58.945915
3.427435 -11.032069 -58.871092
4.002341 -10.095662 -59.767561
4.210654 -13.10916 -58.902828
3.635747 -14.045568 -58.006359
3.851572 -11.96825 -58.945915
4.210654 -13.10916 -58.902828
4.868005 -12.149553 -59.791082
3 35 7 36
3 37 9 38
3 39 38 7
3 37 38 39
3 40 11 41
3 0 15 13
3 43 42 16
3 1 44 45
3 1 46 48
3 46 19 47
3 46 47 48
3 1 49 51
3 51 50 19
3 49 50 51
3 2 52 54
3 54 53 8
3 52 53 54
3 2 55 57
3 55 20 56
3 55 56 57
3 59 58 21
3 60 23 61
3 4 24 10
3 4 25 24
3 62 26 63
3 64 63 18
3 62 63 64
3 5 27 12
3 5 28 27
3 5 65 67
3 67 66 28
3 65 66 67
3 3 29 22
3 6 30 14
3 6 31 30
3 68 32 69
3 70 33 71
3 72 71 17
3 70 71 72
3 73 34 74
3 75 74 33
3 73 74 75
3 77 76 34
3 7 78 79
3 7 80 82
3 80 1 81
3 80 81 82
3 7 8 1
3 9 8 7
3 9 2 8
3 83 10 84
3 11 85 87
3 85 10 86
3 85 86 87
3 11 4 10
3 88 12 89
3 90 12 91
3 92 5 93
3 94 93 12
3 92 93 94
3 96 95 5
3 13 14 3
3 15 14 13
3 15 6 14
3 16 97 99
3 97 17 98
3 97 98 99
3 100 17 101
3 102 101 16
3 100 101 102
3 104 103 17
3 105 18 106
3 107 18 108
3 107 108 109
3 111 110 18
3 19 112 114
3 112 113 114
3 19 115 116
3 19 117 118
3 120 119 19
3 8 121 123
3 123 122 1
3 121 122 123
3 125 124 8
3 20 126 127
3 20 128 129
3 21 130 132
3 132 131 0
3 130 131 132
3 134 133 21
3 135 16 136
3 137 16 138
3 140 139 16
3 141 22 142
3 23 143 145
3 143 22 144
3 143 144 145
3 23 3 22
3 10 146 148
3 146 23 147
3 146 147 148
3 24 23 10
3 24 3 23
3 24 13 3
3 25 13 24
3 25 0 13
3 18 149 151
3 149 11 150
3 149 150 151
3 26 11 18
3 26 4 11
3 12 152 154
3 152 26 153
3 152 153 154
3 27 26 12
3 27 4 26
3 27 25 4
3 28 25 27
3 28 0 25
3 28 21 0
3 155 21 156
3 157 156 28
3 155 156 157
3 159 158 21
3 161 160 5
3 22 162 164
3 162 9 163
3 162 163 164
3 29 9 22
3 29 2 9
3 14 29 3
3 30 29 14
3 30 2 29
3 30 20 2
3 31 20 30
3 31 165 167
3 167 166 20
3 165 166 167
3 168 15 169
3 170 169 0
3 168 169 170
3 32 171 173
3 171 15 172
3 171 172 173
3 32 6 15
3 17 174 176
3 174 32 175
3 174 175 176
3 33 32 17
3 33 6 32
3 33 31 6
3 34 31 33
3 34 177 179
3 179 178 31
3 177 178 179
3 34 180 182
3 180 181 182
3 184 183 34
