ply
format ascii 1.0
element vertex 327
property float x
property float y
property float z
element face 265
property list uchar int vertex_index
end_header
-3.703894 82.724983 -41.263294
-1.485542 93.430611 -36.870361
1.44423 100.907555 -28.542181
3.332971 75.180359 -47.06218
-6.402965 89.594193 -35.379047
-5.412499 93.887039 -32.055031
-0.041718 79.493652 -44.523949
8.038297 76.455521 -48.535767
9.787875 83.392479 -47.374176
-7.174828 84.725716 -37.473694
-2.726098 88.356682 -39.56776
2.232996 91.40303 -41.03204
6.146541 69.685287 -48.985294
-0.051842 97.705978 -33.101227
7.283359 82.55114 -46.939156
8.041951 85.97612 -46.078285
-4.080266 91.517609 -36.20298
-4.651441 89.119644 -37.483986
-2.302559 91.007637 -38.193501
-0.423398 89.877251 -40.333939
0.176132 92.401253 -39.035789
-5.590317 80.994759 -40.208088
-3.882011 79.795349 -41.885803
1.548251 77.462692 -45.803909
-0.655558 76.240364 -44.781601
0.935283 74.258408 -46.022064
0.478861 70.934067 -46.230518
2.535097 71.862312 -47.198895
3.922356 69.103958 -48.214756
0.726873 99.462341 -30.915972
-10.223072 87.588699 -32.07922
-8.076806 89.902832 -33.068192
-5.918275 91.831856 -33.902725
-3.462886 93.82486 -34.548588
-11.82733 87.308884 -29.647316
-1.361966 84.248878 -42.386864
-1.863152 81.314461 -42.960861
6.442631 79.2911 -47.473331
-5.339705 83.958374 -39.515793
-6.780218 87.277794 -36.57077
-5.014595 86.543365 -38.665421
-3.215183 85.468063 -40.632065
-0.870078 87.050667 -41.546886
1.655059 88.654442 -42.267807
-2.194504 78.213852 -43.428162
5.351889 66.251617 -49.15834
7.212125 73.208107 -48.831486
-2.850095 95.878166 -32.57732
-0.983322 95.650551 -34.965904
2.860618 93.976059 -39.542622
7.056914 86.988231 -45.346025
6.729787 85.457855 -45.818112
4.114981 73.779106 -47.607069
3.716044 72.120082 -47.675427
2.934034 73.521335 -47.130538
1.085552 100.184948 -29.729076
-0.191877 99.381256 -29.631191
0.166801 100.103863 -28.444295
-8.987696 89.705501 -31.896214
-9.149939 88.745766 -32.573706
-10.060829 88.548435 -31.401728
-5.665387 92.859448 -32.978878
-6.846606 91.824562 -32.631342
-6.593718 92.852154 -31.707495
-10.862958 88.408528 -30.185776
-11.595952 88.289193 -28.921654
-10.060829 88.548435 -31.401728
-11.025201 87.448791 -30.863268
-10.862958 88.408528 -30.185776
-0.474831 83.458225 -43.172512
-0.134651 84.921302 -42.85704
5.54014 80.487336 -46.855209
5.202856 78.89352 -47.093498
9.387794 81.663296 -47.726785
8.135536 81.242627 -47.509276
8.535617 82.97181 -47.156666
10.615843 81.997688 -47.914791
9.387794 81.663296 -47.726785
-7.188988 83.421776 -37.931614
-8.077474 83.660607 -36.900593
-6.257267 84.342045 -38.494743
-6.271427 83.038105 -38.952663
-7.188988 83.421776 -37.931614
-6.591591 88.435993 -35.974908
-7.694548 87.452316 -35.412804
-7.505922 88.610516 -34.816942
3.235727 90.636848 -41.988949
2.946758 89.262554 -42.606832
1.944028 90.028736 -41.649923
-1.883426 74.224449 -44.262665
-1.645596 75.73558 -44.192189
-0.893388 74.729233 -44.852078
0.202219 69.356636 -46.266527
1.223511 69.611374 -46.817886
6.827687 68.209549 -49.387228
6.430362 66.492714 -49.473751
5.749215 67.968452 -49.071817
7.625211 74.831814 -48.683627
6.431762 74.551437 -48.350245
6.844848 76.175145 -48.202385
-1.450969 96.792072 -32.839274
-2.446298 96.786773 -31.55304
-1.047172 97.70068 -31.814993
3.341929 95.269142 -38.654803
1.932159 94.503578 -38.44496
-6.277906 93.777432 -30.811972
-6.593718 92.852154 -31.707495
6.350491 83.745365 -46.248547
5.960504 82.117356 -46.588121
7.662655 84.26363 -46.50872
6.350491 83.745365 -46.248547
6.729787 85.457855 -45.818112
-7.962267 84.996476 -36.486269
-8.077474 83.660607 -36.900593
-5.688786 79.631005 -40.390919
-6.486873 80.139092 -39.536608
-4.834633 79.0313 -41.229776
-5.688786 79.631005 -40.390919
-4.736164 80.395054 -41.046945
-4.080048 78.377224 -41.981833
-4.834633 79.0313 -41.229776
-0.097968 73.738255 -45.472309
-0.893388 74.729233 -44.852078
0.139863 75.249386 -45.401832
0.707072 72.596238 -46.126291
-0.326179 72.076085 -45.576536
-0.097968 73.738255 -45.472309
2.251629 70.075496 -47.302075
1.223511 69.611374 -46.817886
1.506979 71.39819 -46.714707
3.228727 70.483135 -47.706826
2.945259 68.69632 -47.810005
2.251629 70.075496 -47.302075
4.409674 70.740905 -48.183357
3.228727 70.483135 -47.706826
3.716044 72.120082 -47.675427
5.521766 71.03157 -48.568626
5.034448 69.394622 -48.600025
4.409674 70.740905 -48.183357
8.82973 75.029808 -48.976996
9.218858 76.728107 -48.776108
-0.657814 98.578861 -30.722366
-0.191877 99.381256 -29.631191
0.337515 98.584159 -32.0086
-1.047172 97.70068 -31.814993
-0.657814 98.578861 -30.722366
-9.415976 87.607769 -33.167029
-10.352355 86.490646 -32.654276
-8.342842 88.764836 -33.661515
-9.415976 87.607769 -33.167029
-9.149939 88.745766 -32.573706
-7.239885 89.748513 -34.223619
-7.505922 88.610516 -34.816942
-8.342842 88.764836 -33.661515
-7.925871 90.86005 -32.214075
-8.987696 89.705501 -31.896214
-6.99754 90.867344 -33.485459
-7.925871 90.86005 -32.214075
-6.846606 91.824562 -32.631342
-12.54916 87.006085 -28.460968
-12.317782 87.986393 -27.735306
-11.595952 88.289193 -28.921654
-12.64961 86.068814 -29.168683
-12.54916 87.006085 -28.460968
-11.927321 86.332386 -30.286099
-12.64961 86.068814 -29.168683
-11.125191 86.472294 -31.502052
-11.927321 86.332386 -30.286099
-11.025201 87.448791 -30.863268
-10.352355 86.490646 -32.654276
-11.125191 86.472294 -31.502052
-0.725423 81.991017 -43.459511
-1.612559 82.781669 -42.673862
-0.474831 83.458225 -43.172512
0.185293 81.080612 -44.241055
-0.952435 80.404056 -43.742405
-0.725423 81.991017 -43.459511
1.078073 80.061909 -44.980324
0.185293 81.080612 -44.241055
1.873058 79.046429 -45.620304
0.753267 78.478172 -45.163929
1.078073 80.061909 -44.980324
2.755666 77.979317 -46.258787
1.873058 79.046429 -45.620304
3.648026 76.83815 -46.887923
2.440611 76.321526 -46.433044
2.755666 77.979317 -46.258787
4.492185 75.537564 -47.465592
3.648026 76.83815 -46.887923
6.047016 77.592934 -47.671167
5.202856 78.89352 -47.093498
7.240464 77.873311 -48.004549
6.844848 76.175145 -48.202385
6.047016 77.592934 -47.671167
6.862995 80.92112 -47.206243
5.54014 80.487336 -46.855209
5.960504 82.117356 -46.588121
7.715172 79.612606 -47.776363
6.862995 80.92112 -47.206243
8.135536 81.242627 -47.509276
8.513005 78.194817 -48.307581
7.240464 77.873311 -48.004549
7.715172 79.612606 -47.776363
9.218858 76.728107 -48.776108
8.513005 78.194817 -48.307581
2.420735 100.927826 -29.85644
2.826434 101.660763 -28.620728
-6.396732 81.556297 -39.298811
-6.486873 80.139092 -39.536608
-5.465011 82.476567 -39.861941
-6.396732 81.556297 -39.298811
-6.271427 83.038105 -38.952663
-7.764962 86.272514 -36.034807
-7.694548 87.452316 -35.412804
-6.977523 86.001755 -37.022232
-7.962267 84.996476 -36.486269
-7.764962 86.272514 -36.034807
0.111293 86.322197 -42.437051
-0.134651 84.921302 -42.85704
-1.116022 85.649773 -41.966875
1.373862 87.124085 -42.797512
0.111293 86.322197 -42.437051
0.392491 87.852554 -41.907347
2.594737 87.732731 -43.164991
1.373862 87.124085 -42.797512
2.594737 87.732731 -43.164991
2.946758 89.262554 -42.606832
0.576883 100.738911 -27.23003
0.166801 100.103863 -28.444295
1.941026 101.56157 -27.317484
0.576883 100.738911 -27.23003
3.32323 102.314778 -27.396031
2.826434 101.660763 -28.620728
1.941026 101.56157 -27.317484
-3.236294 77.586476 -42.753012
-4.080048 78.377224 -41.981833
-3.038257 79.004601 -42.656982
-2.415069 76.722324 -43.515469
-1.425031 77.227108 -44.104882
-1.645596 75.73558 -44.192189
-3.236294 77.586476 -42.753012
-2.415069 76.722324 -43.515469
-0.486178 70.463657 -45.667591
-0.326179 72.076085 -45.576536
-0.486178 70.463657 -45.667591
0.202219 69.356636 -46.266527
3.603625 67.389912 -48.306106
2.945259 68.69632 -47.810005
4.318391 65.963741 -48.777899
3.603625 67.389912 -48.306106
4.637123 67.677787 -48.686548
4.86319 64.610216 -49.193245
4.318391 65.963741 -48.777899
5.925621 64.608204 -49.558881
4.86319 64.610216 -49.193245
5.925621 64.608204 -49.558881
6.430362 66.492714 -49.473751
4.114981 73.779106 -47.607069
4.492185 75.537564 -47.465592
6.054558 72.79298 -48.491722
6.431762 74.551437 -48.350245
6.679333 71.446697 -48.90839
5.521766 71.03157 -48.568626
6.054558 72.79298 -48.491722
8.416644 73.406101 -49.124855
7.625211 74.831814 -48.683627
8.82973 75.029808 -48.976996
7.81666 71.779644 -49.206133
8.416644 73.406101 -49.124855
7.283868 70.018234 -49.283037
6.679333 71.446697 -48.90839
7.81666 71.779644 -49.206133
6.827687 68.209549 -49.387228
7.283868 70.018234 -49.283037
-5.035329 94.834122 -31.059624
-6.277906 93.777432 -30.811972
-3.754126 95.829685 -31.320768
-2.446298 96.786773 -31.55304
-4.131297 94.882602 -32.316175
-5.035329 94.834122 -31.059624
-3.754126 95.829685 -31.320768
2.062056 100.205219 -31.043336
1.085552 100.184948 -29.729076
2.420735 100.927826 -29.85644
1.662671 99.341271 -32.188485
2.062056 100.205219 -31.043336
1.273313 98.463089 -33.281113
0.337515 98.584159 -32.0086
1.662671 99.341271 -32.188485
0.852584 97.451786 -34.321362
1.273313 98.463089 -33.281113
0.386844 96.424072 -35.2537
-0.517582 96.678264 -34.033566
0.852584 97.451786 -34.321362
0.010189 95.340824 -36.156601
0.386844 96.424072 -35.2537
-0.240921 94.230854 -37.108829
-1.234432 94.540581 -35.918132
0.010189 95.340824 -36.156601
0.589916 93.716175 -38.191544
-0.654705 92.915932 -37.953075
-0.240921 94.230854 -37.108829
1.518375 93.188656 -39.289206
0.589916 93.716175 -38.191544
1.932159 94.503578 -38.44496
4.263555 94.64925 -39.745718
3.341929 95.269142 -38.654803
3.891582 93.397904 -40.520789
4.263555 94.64925 -39.745718
3.577771 92.111389 -41.265498
2.546807 92.689545 -40.287331
3.891582 93.397904 -40.520789
4.580502 91.345208 -42.222407
3.235727 90.636848 -41.988949
3.577771 92.111389 -41.265498
8.322784 87.541413 -45.514282
7.056914 86.988231 -45.346025
7.337747 88.553524 -44.782022
9.340759 86.314056 -46.277233
8.322784 87.541413 -45.514282
10.213721 85.022236 -46.925179
8.914913 84.684299 -46.72623
9.340759 86.314056 -46.277233
11.126931 83.750878 -47.519956
10.213721 85.022236 -46.925179
10.615843 81.997688 -47.914791
11.126931 83.750878 -47.519956
3 50 15 51
3 1 18 16
3 1 20 18
3 0 22 21
3 3 25 23
3 3 27 25
3 3 52 54
3 54 53 27
3 52 53 54
3 2 55 57
3 55 29 56
3 55 56 57
3 58 31 59
3 60 59 30
3 58 59 60
3 5 61 63
3 61 32 62
3 61 62 63
3 5 33 32
3 64 34 65
3 66 30 67
3 68 67 34
3 66 67 68
3 70 69 35
3 71 37 72
3 8 73 75
3 75 74 14
3 73 74 75
3 8 76 77
3 9 78 79
3 9 80 82
3 80 38 81
3 80 81 82
3 4 83 85
3 83 39 84
3 83 84 85
3 10 40 17
3 10 41 40
3 10 42 41
3 11 43 19
3 11 86 88
3 88 87 43
3 86 87 88
3 6 44 36
3 91 90 24
3 89 90 91
3 93 92 26
3 12 45 28
3 12 94 96
3 96 95 45
3 94 95 96
3 7 97 99
3 97 46 98
3 97 98 99
3 13 100 102
3 100 47 101
3 100 101 102
3 13 48 47
3 103 49 104
3 105 5 106
3 107 14 108
3 15 109 111
3 109 14 110
3 109 110 111
3 15 8 14
3 112 9 113
3 16 17 4
3 18 17 16
3 18 10 17
3 18 19 10
3 20 19 18
3 20 11 19
3 21 114 115
3 22 116 118
3 118 117 21
3 116 117 118
3 22 119 120
3 23 24 6
3 25 24 23
3 25 121 123
3 123 122 24
3 121 122 123
3 25 124 126
3 124 26 125
3 124 125 126
3 27 26 25
3 27 127 129
3 129 128 26
3 127 128 129
3 27 130 132
3 130 28 131
3 130 131 132
3 133 28 134
3 135 134 27
3 133 134 135
3 136 12 137
3 138 137 28
3 136 137 138
3 140 139 7
3 29 141 142
3 29 143 145
3 143 13 144
3 143 144 145
3 30 146 147
3 31 148 150
3 150 149 30
3 148 149 150
3 31 151 153
3 151 4 152
3 151 152 153
3 154 31 155
3 32 156 158
3 156 31 157
3 156 157 158
3 32 4 31
3 32 16 4
3 33 16 32
3 33 1 16
3 34 159 161
3 159 160 161
3 34 162 163
3 34 164 165
3 30 166 168
3 168 167 34
3 166 167 168
3 30 169 170
3 35 36 0
3 171 36 172
3 173 172 35
3 171 172 173
3 174 6 175
3 176 175 36
3 174 175 176
3 177 6 178
3 179 23 180
3 181 180 6
3 179 180 181
3 182 23 183
3 184 3 185
3 186 185 23
3 184 185 186
3 188 187 3
3 37 189 190
3 37 191 193
3 191 7 192
3 191 192 193
3 14 194 196
3 194 37 195
3 194 195 196
3 197 37 198
3 199 198 14
3 197 198 199
3 200 7 201
3 202 201 37
3 200 201 202
3 204 203 7
3 206 205 2
3 207 21 208
3 38 209 211
3 209 21 210
3 209 210 211
3 38 0 21
3 39 212 213
3 39 214 216
3 214 9 215
3 214 215 216
3 17 39 4
3 40 39 17
3 40 9 39
3 40 38 9
3 41 38 40
3 41 0 38
3 41 35 0
3 42 35 41
3 42 217 219
3 219 218 35
3 217 218 219
3 19 42 10
3 43 42 19
3 43 220 222
3 222 221 42
3 220 221 222
3 43 223 224
3 226 225 43
3 227 2 228
3 229 2 230
3 233 232 2
3 231 232 233
3 36 22 0
3 44 22 36
3 44 234 236
3 236 235 22
3 234 235 236
3 24 44 6
3 237 44 238
3 239 238 24
3 237 238 239
3 241 240 44
3 26 242 243
3 245 244 26
3 28 246 247
3 45 248 250
3 250 249 28
3 248 249 250
3 45 251 252
3 45 253 254
3 256 255 45
3 258 257 3
3 46 259 260
3 46 261 263
3 261 12 262
3 261 262 263
3 264 46 265
3 266 265 7
3 264 265 266
3 267 46 268
3 269 12 270
3 271 270 46
3 269 270 271
3 273 272 12
3 274 5 275
3 47 276 277
3 47 278 280
3 278 5 279
3 278 279 280
3 47 33 5
3 48 33 47
3 48 1 33
3 281 29 282
3 283 282 2
3 281 282 283
3 284 29 285
3 286 13 287
3 288 287 29
3 286 287 288
3 289 13 290
3 291 48 292
3 293 292 13
3 291 292 293
3 294 48 295
3 296 1 297
3 298 297 48
3 296 297 298
3 299 20 300
3 301 300 1
3 299 300 301
3 49 302 304
3 302 20 303
3 302 303 304
3 49 11 20
3 305 49 306
3 307 49 308
3 309 11 310
3 311 310 49
3 309 310 311
3 314 313 11
3 312 313 314
3 315 15 316
3 315 316 317
3 318 15 319
3 320 8 321
3 322 321 15
3 320 321 322
3 323 8 324
3 326 325 8
