ply
format ascii 1.0
element vertex 263
property float x
property float y
property float z
element face 212
property list uchar int vertex_index
end_header
27.748724 -50.834244 -46.198147
25.664482 -58.671597 -43.276459
28.083681 -59.535767 -39.85675
30.919535 -57.397522 -18.386124
31.341959 -58.419144 -23.069662
31.486425 -58.970665 -27.654343
22.88903 -57.499294 -45.882118
24.780582 -49.137985 -48.799194
30.914145 -59.605049 -32.101913
29.768562 -59.855511 -36.145889
26.598454 -40.485027 -51.795784
26.647997 -54.892033 -44.751038
27.936766 -55.461929 -43.235565
30.585606 -56.897415 -15.929866
28.915182 -63.507545 -21.381483
30.085854 -60.717442 -20.909515
30.20652 -61.174026 -23.327293
31.472141 -58.726345 -25.380272
30.090298 -61.829971 -25.682331
29.669582 -62.488285 -30.12262
29.211119 -62.755955 -32.295559
28.983376 -59.813484 -38.020496
25.695551 -44.89365 -50.263573
26.857952 -59.341408 -41.616245
32.004864 -55.325661 -20.322222
29.892931 -60.219364 -18.530512
31.104031 -58.034031 -20.593882
32.338737 -55.610462 -22.689949
23.15094 -61.921021 -43.360939
24.296722 -58.050072 -44.721325
25.414186 -53.960155 -46.145168
26.203585 -50.21788 -47.537449
23.775311 -53.606384 -47.255119
29.96419 -62.160965 -27.965006
31.237741 -59.410698 -29.917873
26.8741 -62.993263 -38.320953
27.773767 -63.133369 -36.35577
28.490009 -63.139786 -34.360302
30.408901 -59.820995 -34.103825
27.282223 -46.018707 -48.951443
27.968506 -41.832039 -50.542313
28.360481 -51.152392 -45.507519
27.810118 -53.181286 -44.783964
27.19836 -52.863138 -45.474592
28.896745 -49.147741 -46.228926
28.360481 -51.152392 -45.507519
28.156083 -48.921158 -46.926859
28.896745 -49.147741 -46.228926
29.512562 -62.694038 -23.550993
29.560851 -62.340785 -22.354388
28.866893 -63.860798 -22.578088
29.454451 -63.022011 -24.728512
30.148409 -61.501998 -24.504812
29.512562 -62.694038 -23.550993
28.260915 -64.363928 -32.469195
28.572333 -64.162039 -31.452368
26.261217 -59.006502 -42.446352
25.668458 -60.926749 -41.721492
25.071723 -60.591843 -42.5516
28.500904 -55.732812 -42.390295
29.014105 -53.871685 -43.174511
31.321407 -56.073637 -18.234451
31.154443 -55.823583 -17.006321
30.75257 -57.147469 -17.157995
31.462199 -56.361592 -19.354173
31.864072 -55.037706 -19.2025
31.321407 -56.073637 -18.234451
29.341636 -61.614948 -18.725651
29.326657 -61.190233 -17.576603
31.949022 -57.171251 -24.024392
32.447411 -55.76691 -23.834536
31.840348 -57.014803 -22.879805
32.09513 -57.525034 -27.449169
32.087988 -57.402874 -26.312134
31.479283 -58.848505 -26.517308
32.101901 -57.583446 -28.602797
32.09513 -57.525034 -27.449169
21.906926 -63.564774 -43.314656
22.636429 -63.767182 -42.633703
23.592876 -57.774683 -45.301721
23.024817 -59.758654 -44.642786
22.320971 -59.483265 -45.223183
29.172722 -63.661003 -28.215865
29.301997 -63.470333 -27.075139
31.689813 -58.051904 -31.943488
31.851611 -57.954729 -30.851468
31.075943 -59.507874 -31.009893
27.47889 -61.264515 -39.088852
26.313789 -62.855543 -39.280632
26.91858 -61.126795 -40.04853
27.685313 -38.986477 -51.950599
28.37034 -39.659982 -51.323864
27.28348 -41.158533 -51.169049
28.454502 -53.466234 -44.026228
27.292381 -55.176981 -43.993302
27.810118 -53.181286 -44.783964
29.014105 -53.871685 -43.174511
28.454502 -53.466234 -44.026228
30.022869 -57.921178 -14.893023
30.408455 -56.669773 -14.736603
30.152296 -58.198 -16.038197
30.022869 -57.921178 -14.893023
30.31926 -58.448054 -17.266326
30.75257 -57.147469 -17.157995
30.152296 -58.198 -16.038197
29.500518 -62.112493 -21.145499
29.438097 -61.863987 -19.915152
28.852761 -63.259039 -20.151136
21.598885 -59.040866 -45.820861
22.320971 -59.483265 -45.223183
22.048101 -57.070133 -46.487247
21.598885 -59.040866 -45.820861
28.801564 -64.028204 -30.365899
29.025418 -63.824663 -29.294672
29.440351 -62.62212 -31.209089
28.801564 -64.028204 -30.365899
28.572333 -64.162039 -31.452368
29.538201 -58.080876 -38.868536
28.533528 -59.674626 -38.938623
29.088354 -57.942017 -39.786663
29.954555 -58.113865 -38.016008
29.538201 -58.080876 -38.868536
30.347148 -58.134878 -37.078705
29.375969 -59.834497 -37.083192
29.954555 -58.113865 -38.016008
30.651946 -58.294331 -36.036548
30.347148 -58.134878 -37.078705
24.471839 -46.542431 -50.054129
25.238066 -47.015817 -49.531384
24.014354 -48.664598 -49.321939
24.985449 -44.26372 -50.808394
24.471839 -46.542431 -50.054129
25.436901 -42.059408 -51.574499
26.147002 -42.689339 -51.029679
24.985449 -44.26372 -50.808394
28.250379 -64.621826 -20.31848
28.852761 -63.259039 -20.151136
28.21373 -64.984921 -21.501821
28.250379 -64.621826 -20.31848
28.866893 -63.860798 -22.578088
28.21373 -64.984921 -21.501821
26.305715 -61.029616 -40.928278
25.668458 -60.926749 -41.721492
27.470816 -59.438587 -40.736497
26.91858 -61.126795 -40.04853
26.305715 -61.029616 -40.928278
27.961497 -57.672552 -41.580635
27.397359 -57.401668 -42.425905
28.500904 -55.732812 -42.390295
28.574361 -57.769731 -40.700888
27.470816 -59.438587 -40.736497
27.961497 -57.672552 -41.580635
29.088354 -57.942017 -39.786663
28.574361 -57.769731 -40.700888
30.942744 -55.671695 -15.831271
30.408455 -56.669773 -14.736603
30.942744 -55.671695 -15.831271
31.154443 -55.823583 -17.006321
32.378069 -54.010286 -20.195488
31.864072 -55.037706 -19.2025
32.594335 -54.065481 -21.322484
32.378069 -54.010286 -20.195488
29.805958 -59.858975 -17.33852
29.326657 -61.190233 -17.576603
30.406233 -58.808443 -18.458318
30.31926 -58.448054 -17.266326
29.805958 -59.858975 -17.33852
29.989393 -60.468403 -19.720014
29.341636 -61.614948 -18.725651
29.438097 -61.863987 -19.915152
32.761272 -54.207882 -22.506347
32.594335 -54.065481 -21.322484
32.171801 -55.468061 -21.506085
32.916218 -54.362276 -23.673358
32.761272 -54.207882 -22.506347
32.916218 -54.362276 -23.673358
32.447411 -55.76691 -23.834536
32.014112 -57.324852 -25.179697
31.949022 -57.171251 -24.024392
31.40705 -58.572744 -24.224967
32.014112 -57.324852 -25.179697
32.087988 -57.402874 -26.312134
23.814952 -62.216555 -42.59384
22.636429 -63.767182 -42.633703
24.407711 -60.296309 -43.318699
25.071723 -60.591843 -42.5516
23.814952 -62.216555 -42.59384
22.451926 -61.694129 -43.962593
21.906926 -63.564774 -43.314656
23.723831 -59.985546 -44.041132
22.451926 -61.694129 -43.962593
23.024817 -59.758654 -44.642786
22.491242 -55.123678 -47.173748
23.332171 -55.552839 -46.568618
22.048101 -57.070133 -46.487247
23.059019 -52.973592 -47.856724
22.491242 -55.123678 -47.173748
23.561655 -50.739393 -48.628761
24.277946 -51.372185 -48.027157
23.059019 -52.973592 -47.856724
24.014354 -48.664598 -49.321939
23.561655 -50.739393 -48.628761
29.365051 -63.304836 -25.933802
29.454451 -63.022011 -24.728512
30.027244 -61.995468 -26.823669
29.365051 -63.304836 -25.933802
29.301997 -63.470333 -27.075139
29.816886 -62.324625 -29.043813
29.172722 -63.661003 -28.215865
29.025418 -63.824663 -29.294672
31.977559 -57.803463 -29.734561
32.101901 -57.583446 -28.602797
31.362083 -59.190681 -28.786108
31.977559 -57.803463 -29.734561
31.851611 -57.954729 -30.851468
25.787487 -64.543556 -38.456631
26.313789 -62.855543 -39.280632
26.274869 -64.653649 -37.480785
25.787487 -64.543556 -38.456631
26.724702 -64.723702 -36.498193
26.274869 -64.653649 -37.480785
27.323933 -63.063316 -37.338362
27.143043 -64.718448 -35.509304
26.724702 -64.723702 -36.498193
27.501165 -64.721657 -34.51157
27.143043 -64.718448 -35.509304
28.131888 -63.136578 -35.358036
27.90036 -64.555844 -33.501566
27.501165 -64.721657 -34.51157
28.850564 -62.947871 -33.32793
28.260915 -64.363928 -32.469195
27.90036 -64.555844 -33.501566
30.972116 -58.277073 -35.015517
30.088732 -59.838253 -35.124857
30.651946 -58.294331 -36.036548
31.295313 -58.135691 -34.002983
30.972116 -58.277073 -35.015517
31.547935 -58.027718 -33.002027
30.661523 -59.713022 -33.102869
31.295313 -58.135691 -34.002983
31.689813 -58.051904 -31.943488
31.547935 -58.027718 -33.002027
27.383513 -48.612976 -47.59651
28.156083 -48.921158 -46.926859
26.976154 -50.526062 -46.867798
27.922832 -46.51339 -48.303507
27.383513 -48.612976 -47.59651
26.742904 -48.118294 -48.244446
28.392254 -44.327535 -49.100789
27.922832 -46.51339 -48.303507
28.735396 -42.234201 -49.896224
28.392254 -44.327535 -49.100789
27.625364 -43.925373 -49.746878
29.077292 -40.191792 -50.673474
28.735396 -42.234201 -49.896224
29.077292 -40.191792 -50.673474
28.37034 -39.659982 -51.323864
25.859684 -39.967115 -52.287431
25.436901 -42.059408 -51.574499
26.991971 -38.293087 -52.571926
25.859684 -39.967115 -52.287431
27.685313 -38.986477 -51.950599
26.991971 -38.293087 -52.571926
3 0 41 43
3 43 42 11
3 41 42 43
3 0 44 45
3 0 46 47
3 48 16 49
3 50 49 14
3 48 49 50
3 51 18 52
3 53 52 16
3 51 52 53
3 54 20 55
3 1 56 58
3 56 23 57
3 56 57 58
3 60 59 12
3 3 61 63
3 63 62 13
3 61 62 63
3 3 64 66
3 64 24 65
3 64 65 66
3 67 25 68
3 4 26 15
3 4 27 26
3 4 69 71
3 71 70 27
3 69 70 71
3 5 72 74
3 74 73 17
3 72 73 74
3 5 75 76
3 77 28 78
3 6 79 81
3 79 29 80
3 79 80 81
3 6 30 29
3 6 32 30
3 82 33 83
3 8 34 19
3 8 84 86
3 86 85 34
3 84 85 86
3 2 87 89
3 87 35 88
3 87 88 89
3 9 36 21
3 9 37 36
3 9 38 37
3 7 39 31
3 10 40 22
3 10 90 92
3 92 91 40
3 90 91 92
3 11 12 1
3 93 12 94
3 95 94 11
3 93 94 95
3 97 96 12
3 98 13 99
3 100 13 101
3 102 3 103
3 104 103 13
3 102 103 104
3 14 105 107
3 105 15 106
3 105 106 107
3 16 15 14
3 16 4 15
3 16 17 4
3 18 17 16
3 18 5 17
3 108 6 109
3 111 110 6
3 112 19 113
3 20 114 116
3 114 19 115
3 114 115 116
3 20 8 19
3 117 21 118
3 119 118 2
3 117 118 119
3 120 21 121
3 122 9 123
3 124 123 21
3 122 123 124
3 126 125 9
3 127 22 128
3 129 128 7
3 127 128 129
3 130 22 131
3 132 10 133
3 134 133 22
3 132 133 134
3 135 14 136
3 137 14 138
3 140 139 14
3 23 141 142
3 23 143 145
3 143 2 144
3 143 144 145
3 12 23 1
3 146 23 147
3 148 147 12
3 146 147 148
3 149 2 150
3 151 150 23
3 149 150 151
3 153 152 2
3 13 154 155
3 157 156 13
3 24 158 159
3 24 160 161
3 25 162 163
3 25 164 166
3 164 3 165
3 164 165 166
3 15 167 169
3 167 25 168
3 167 168 169
3 26 25 15
3 26 3 25
3 26 24 3
3 27 24 26
3 27 170 172
3 172 171 24
3 170 171 172
3 27 173 174
3 176 175 27
3 17 177 179
3 179 178 4
3 177 178 179
3 181 180 17
3 28 182 183
3 28 184 186
3 184 1 185
3 184 185 186
3 187 28 188
3 29 189 191
3 189 28 190
3 189 190 191
3 29 1 28
3 29 11 1
3 30 11 29
3 30 0 11
3 30 31 0
3 32 31 30
3 32 7 31
3 192 32 193
3 194 193 6
3 192 193 194
3 195 32 196
3 197 7 198
3 199 198 32
3 197 198 199
3 201 200 7
3 202 18 203
3 33 204 206
3 204 18 205
3 204 205 206
3 33 5 18
3 19 207 209
3 207 33 208
3 207 208 209
3 34 33 19
3 34 5 33
3 34 210 212
3 212 211 5
3 210 211 212
3 214 213 34
3 35 215 216
3 35 217 218
3 21 35 2
3 36 35 21
3 36 219 221
3 221 220 35
3 219 220 221
3 36 222 223
3 37 224 226
3 226 225 36
3 224 225 226
3 37 227 228
3 37 229 231
3 229 20 230
3 229 230 231
3 38 20 37
3 38 8 20
3 232 38 233
3 234 233 9
3 232 233 234
3 235 38 236
3 237 8 238
3 239 238 38
3 237 238 239
3 241 240 8
3 31 242 244
3 244 243 0
3 242 243 244
3 39 245 247
3 247 246 31
3 245 246 247
3 39 248 249
3 22 39 7
3 40 39 22
3 40 250 252
3 252 251 39
3 250 251 252
3 40 253 254
3 256 255 40
3 257 10 258
3 259 10 260
3 262 261 10
