ply
format ascii 1.0
element vertex 157
property float x
property float y
property float z
element face 113
property list uchar int vertex_index
end_header
30.528389 28.022379 18.640472
30.257576 36.26186 7.253824
27.864557 32.384258 19.404081
33.302227 29.14222 10.467776
30.642467 31.12365 14.780383
24.990744 31.538469 25.816002
26.395304 31.212152 23.451984
30.432119 35.033619 9.133104
31.795898 32.664734 8.79279
33.162876 30.221233 8.640646
31.990807 31.370298 10.710517
29.213427 30.204437 18.953478
29.215391 31.831379 17.1441
30.586222 29.701946 16.678055
30.054192 37.441982 5.436491
27.963408 34.094341 17.269646
32.018734 30.1747 12.628874
33.279926 28.001469 12.523939
24.867917 30.631093 26.726689
24.26192 31.736073 27.000534
25.565649 30.420673 25.656275
24.867917 30.631093 26.726689
31.176894 33.245558 9.868121
31.114009 33.849176 8.962947
30.495005 34.430001 10.038278
31.274349 32.59834 10.826985
31.893352 32.017516 9.751653
31.176894 33.245558 9.868121
31.242579 27.700321 17.564571
31.271495 28.540104 16.583362
30.557305 28.862163 17.659264
27.076609 31.001157 22.340632
26.97084 30.177248 23.283642
30.812866 35.505572 6.222468
30.711174 36.095633 5.313801
30.155884 36.851921 6.345158
33.872761 28.502634 9.539718
33.803085 29.04214 8.626153
33.232551 29.681726 9.554211
33.902651 28.028924 10.521812
33.872761 28.502634 9.539718
27.913983 33.2393 18.336863
27.300561 34.354635 18.448558
27.251136 33.499594 19.515776
30.010577 32.177275 14.90974
29.297039 32.531139 16.091598
29.928929 31.477514 15.962242
30.655664 31.806736 13.783588
30.010577 32.177275 14.90974
31.330601 30.649175 13.704629
31.343798 31.332261 12.707833
30.655664 31.806736 13.783588
33.237302 27.39088 13.510387
32.601228 28.464551 13.585971
33.924476 26.82905 12.557821
33.237302 27.39088 13.510387
24.391344 32.745387 25.96773
24.26192 31.736073 27.000534
25.092915 32.469848 24.823824
24.391344 32.745387 25.96773
25.693024 31.37531 24.633993
25.795195 32.306689 23.641815
25.092915 32.469848 24.823824
26.267929 30.257514 24.474266
25.693024 31.37531 24.633993
25.565649 30.420673 25.656275
26.97084 30.177248 23.283642
26.267929 30.257514 24.474266
31.006483 34.421469 8.023267
30.919211 35.03559 7.083626
30.344848 35.64774 8.193464
31.688372 33.237026 7.85311
31.006483 34.421469 8.023267
31.114009 33.849176 8.962947
32.327101 32.010984 7.867412
31.688372 33.237026 7.85311
32.479387 31.442984 8.716718
33.010589 30.789233 7.79134
32.327101 32.010984 7.867412
31.254376 29.314789 15.663029
31.282498 30.025641 14.714193
30.614345 30.412798 15.729219
31.254376 29.314789 15.663029
31.271495 28.540104 16.583362
29.448799 38.712294 5.573723
29.962805 37.931027 4.611875
29.53237 38.067801 6.456571
29.448799 38.712294 5.573723
29.634062 37.477739 7.365238
30.155884 36.851921 6.345158
29.53237 38.067801 6.456571
29.67635 36.869346 8.307536
29.634062 37.477739 7.365238
29.763622 36.255226 9.247176
30.344848 35.64774 8.193464
29.67635 36.869346 8.307536
29.793402 35.618426 10.217661
29.763622 36.255226 9.247176
30.495005 34.430001 10.038278
29.793402 35.618426 10.217661
27.196292 32.664646 20.492387
27.251136 33.499594 19.515776
26.461666 32.078593 22.516339
25.795195 32.306689 23.641815
26.461666 32.078593 22.516339
27.076609 31.001157 22.340632
27.811236 31.58721 20.31668
27.196292 32.664646 20.492387
28.485671 30.497299 20.091378
28.538992 31.294348 19.17878
27.811236 31.58721 20.31668
29.136754 29.426266 19.874451
28.485671 30.497299 20.091378
29.794235 28.335237 19.717948
29.870908 29.113408 18.796975
29.136754 29.426266 19.874451
30.5108 36.68461 4.562991
29.962805 37.931027 4.611875
30.5108 36.68461 4.562991
30.711174 36.095633 5.313801
30.812866 35.505572 6.222468
30.919211 35.03559 7.083626
33.641025 29.595908 7.73623
33.010589 30.789233 7.79134
33.641025 29.595908 7.73623
33.803085 29.04214 8.626153
27.295942 35.241028 17.451307
27.300561 34.354635 18.448558
27.993799 34.82476 16.286428
27.295942 35.241028 17.451307
28.671048 33.662621 16.154371
28.589399 32.96286 17.206873
29.297039 32.531139 16.091598
27.993799 34.82476 16.286428
28.671048 33.662621 16.154371
31.329834 31.93006 11.748655
31.274349 32.59834 10.826985
32.00477 30.772499 11.669695
31.329834 31.93006 11.748655
31.343798 31.332261 12.707833
31.970632 29.551167 13.638438
31.330601 30.649175 13.704629
31.282498 30.025641 14.714193
32.64933 29.088085 12.576407
31.970632 29.551167 13.638438
32.601228 28.464551 13.585971
33.891501 27.458548 11.549893
33.902651 28.028924 10.521812
33.291077 28.571844 11.495857
33.891501 27.458548 11.549893
33.924476 26.82905 12.557821
30.400667 27.210041 19.657165
29.794235 28.335237 19.717948
31.084333 27.025161 18.596948
30.400667 27.210041 19.657165
31.242579 27.700321 17.564571
31.084333 27.025161 18.596948
3 18 5 19
3 21 20 5
3 22 8 23
3 24 23 7
3 22 23 24
3 25 10 26
3 27 26 8
3 25 26 27
3 0 13 11
3 0 28 30
3 30 29 13
3 28 29 30
3 32 31 6
3 1 33 35
3 35 34 14
3 33 34 35
3 3 36 38
3 38 37 9
3 36 37 38
3 3 39 40
3 2 41 43
3 41 15 42
3 41 42 43
3 4 44 46
3 46 45 12
3 44 45 46
3 4 47 48
3 4 49 51
3 49 16 50
3 49 50 51
3 52 17 53
3 55 54 17
3 5 56 57
3 5 58 59
3 5 60 62
3 60 6 61
3 60 61 62
3 63 6 64
3 65 64 5
3 63 64 65
3 67 66 6
3 7 68 70
3 70 69 1
3 68 69 70
3 8 71 73
3 73 72 7
3 71 72 73
3 8 74 75
3 8 76 78
3 76 9 77
3 76 77 78
3 10 9 8
3 10 3 9
3 11 12 2
3 13 12 11
3 13 4 12
3 13 79 81
3 81 80 4
3 79 80 81
3 83 82 13
3 84 14 85
3 86 14 87
3 88 1 89
3 90 89 14
3 88 89 90
3 91 1 92
3 93 7 94
3 95 94 1
3 93 94 95
3 96 7 97
3 99 98 7
3 100 2 101
3 6 102 103
3 105 104 6
3 106 2 107
3 108 11 109
3 110 109 2
3 108 109 110
3 111 11 112
3 113 0 114
3 115 114 11
3 113 114 115
3 14 116 117
3 119 118 14
3 121 120 1
3 9 122 123
3 125 124 9
3 15 126 127
3 15 128 129
3 12 15 2
3 130 15 131
3 132 131 12
3 130 131 132
3 134 133 15
3 135 10 136
3 16 137 139
3 137 10 138
3 137 138 139
3 16 3 10
3 140 16 141
3 142 141 4
3 140 141 142
3 17 143 145
3 143 16 144
3 143 144 145
3 17 3 16
3 17 146 148
3 148 147 3
3 146 147 148
3 150 149 17
3 151 0 152
3 153 0 154
3 156 155 0
