ply
format ascii 1.0
element vertex 359
property float x
property float y
property float z
element face 309
property list uchar int vertex_index
end_header
15.157025 36.98386 -52.012749
17.589762 29.067917 -34.95266
21.461481 32.598507 -57.033588
27.139935 26.753401 -49.446556
33.257011 20.920465 -50.398163
20.485817 25.994606 -37.014313
19.068977 30.151377 -40.286522
23.535549 29.11179 -47.937122
25.628757 25.264891 -43.905144
18.485043 24.561495 -31.728247
18.174948 34.692867 -54.702488
14.703304 36.343483 -57.331875
21.105536 32.249378 -51.638092
24.444733 30.107424 -53.467571
28.016815 27.499903 -54.807323
11.215096 36.88549 -59.112465
30.309902 24.260178 -50.319519
22.127918 24.477425 -37.709782
21.522276 26.53911 -39.544903
23.96979 26.28056 -43.111294
18.955683 22.252005 -30.242022
19.951641 22.910383 -32.544498
20.363384 20.796787 -30.988771
19.77137 33.657955 -55.924847
17.993196 34.640892 -57.482471
19.520361 33.279083 -50.283253
20.826921 31.768414 -48.764004
25.335667 27.941116 -48.726913
24.018782 29.699642 -50.655056
25.779295 28.540768 -51.40139
26.261774 28.852722 -54.177841
27.499695 27.381243 -52.20269
12.931535 36.724903 -58.412979
31.26717 22.414845 -47.969303
30.810888 24.408564 -52.798141
32.320835 22.635763 -52.855694
18.961226 27.323032 -35.820499
18.435442 29.503881 -37.663242
19.873419 28.010212 -38.629059
20.641115 28.693207 -41.273342
21.372601 29.350899 -44.002613
21.952753 30.107162 -46.956348
23.091494 28.267294 -45.222
24.718578 27.21603 -46.022583
26.396519 26.119425 -46.656605
18.141506 26.72366 -33.374405
19.605026 25.02919 -34.290104
21.080328 23.621603 -35.096451
16.555622 35.835896 -53.410309
15.036654 36.725086 -54.594097
16.494011 35.626175 -56.203762
16.235331 35.303505 -58.841282
18.050156 34.703033 -52.04068
19.604113 33.615543 -53.083702
21.304331 32.533337 -54.34753
22.440695 30.727903 -49.877087
22.71752 31.211882 -52.552174
23.000557 31.443354 -55.191277
24.69289 30.338682 -56.196888
13.423029 37.323723 -55.943264
11.635878 37.799961 -56.795284
9.863041 37.986641 -57.495743
28.077101 24.924236 -47.07983
28.678703 25.59798 -49.838909
29.119646 26.027224 -52.463493
35.409595 16.933207 -47.795048
34.608498 18.852898 -50.088833
33.71003 20.643906 -52.675484
22.643933 24.903781 -39.054911
22.940076 23.913955 -38.116424
14.389717 37.425316 -52.723402
14.515634 37.60905 -51.368864
19.06441 21.256352 -29.450389
18.415106 22.086891 -29.121151
19.76826 20.528742 -29.823763
19.659534 21.524396 -30.615396
19.06441 21.256352 -29.450389
20.576181 33.102213 -57.76367
19.731126 33.631937 -57.2093
20.616425 33.128231 -56.479218
17.315429 30.168222 -35.767003
16.938037 30.08079 -34.463299
20.612345 31.463307 -47.278652
20.003633 32.362797 -48.137736
32.572502 21.78345 -50.442343
32.984081 20.873717 -49.182024
32.788923 21.778114 -51.626928
32.104414 22.641099 -51.671109
32.572502 21.78345 -50.442343
21.497491 28.036335 -41.779197
21.081696 27.616159 -40.409122
21.938071 26.959287 -40.914978
21.863234 28.365181 -43.143833
21.006858 29.022053 -42.637977
21.497491 28.036335 -41.779197
22.722681 27.823379 -43.753526
22.232048 28.809096 -44.612307
21.863234 28.365181 -43.143833
17.834818 25.526682 -31.366909
18.038156 24.308339 -30.59577
18.313274 25.642578 -32.551326
17.663049 26.607765 -32.189988
17.834818 25.526682 -31.366909
21.317118 22.552551 -34.240021
20.515985 23.265993 -33.820475
20.752774 22.196942 -32.964044
21.889165 23.027572 -35.549132
21.317118 22.552551 -34.240021
17.053539 34.797235 -59.481772
17.114263 34.972199 -58.161876
17.932472 34.465929 -58.802366
16.094866 35.050932 -60.009932
17.053539 34.797235 -59.481772
18.37088 30.958143 -39.838847
18.054112 30.634394 -38.527206
18.752209 29.827629 -38.974882
17.956285 34.640417 -50.62488
17.322672 35.273527 -51.326477
27.220582 28.281183 -55.873498
26.343061 28.957593 -55.558757
27.139294 28.176313 -54.492582
28.085632 27.528603 -56.103454
27.220582 28.281183 -55.873498
28.534391 23.981727 -46.035474
27.6905 24.560619 -45.796385
30.038678 24.007188 -49.026823
30.517312 23.084522 -47.851715
30.788536 23.337511 -49.144411
29.494302 24.929079 -50.079214
29.223078 24.676089 -48.786518
30.038678 24.007188 -49.026823
30.195919 25.225613 -53.922428
30.959575 24.386445 -54.026297
35.590688 16.842329 -48.95644
35.96822 15.8018 -47.605524
35.19014 17.802174 -50.103333
35.009046 17.893052 -48.941941
35.590688 16.842329 -48.95644
33.88695 20.331713 -53.779325
34.347434 19.542057 -52.580635
33.147917 21.520826 -53.908279
33.88695 20.331713 -53.779325
22.341112 25.934624 -39.972471
21.825097 25.508268 -38.627342
22.643933 24.903781 -39.054911
21.938071 26.959287 -40.914978
22.341112 25.934624 -39.972471
23.564869 25.805349 -41.755667
23.161828 26.830012 -42.698173
24.381138 25.238104 -42.087187
23.564869 25.805349 -41.755667
25.210622 24.730269 -42.484112
24.799273 25.772725 -43.508219
24.381138 25.238104 -42.087187
18.273476 23.153594 -29.852657
18.415106 22.086891 -29.121151
18.720363 23.40675 -30.985135
18.038156 24.308339 -30.59577
18.273476 23.153594 -29.852657
20.958645 21.140144 -32.186181
20.752774 22.196942 -32.964044
20.157512 21.853585 -31.766634
18.842039 34.123406 -57.988112
18.882283 34.149423 -56.703659
19.731126 33.631937 -57.2093
17.932472 34.465929 -58.802366
18.842039 34.123406 -57.988112
18.662317 31.167237 -41.20875
19.371426 30.460782 -41.651488
19.350354 33.118132 -48.89736
18.691387 33.928442 -49.746167
20.173641 32.523748 -49.523629
19.350354 33.118132 -48.89736
20.003633 32.362797 -48.137736
13.652976 36.245458 -59.112302
13.817419 36.534193 -57.872427
14.53886 36.054749 -58.57175
12.771882 36.275557 -59.627918
13.652976 36.245458 -59.112302
11.913663 36.35585 -59.977661
12.073315 36.805196 -58.762722
12.771882 36.275557 -59.627918
31.989161 21.620907 -47.967594
31.674513 21.448324 -46.800899
31.577582 22.53064 -49.227913
31.989161 21.620907 -47.967594
31.098948 23.453307 -50.403021
30.788536 23.337511 -49.144411
31.577582 22.53064 -49.227913
31.349441 23.527499 -51.642332
30.560395 24.334371 -51.55883
31.098948 23.453307 -50.403021
31.565862 23.522163 -52.826918
31.349441 23.527499 -51.642332
32.104414 22.641099 -51.671109
31.714549 23.500045 -54.055073
30.959575 24.386445 -54.026297
31.565862 23.522163 -52.826918
21.400171 32.568184 -58.373552
22.241965 32.091549 -57.521907
20.157494 29.731697 -42.144897
19.371426 30.460782 -41.651488
19.855046 29.422292 -40.779932
20.523238 30.060543 -43.509533
20.157494 29.731697 -42.144897
21.006858 29.022053 -42.637977
20.885185 30.25455 -44.897957
20.523238 30.060543 -43.509533
21.662677 29.729031 -45.47948
21.175262 30.632681 -46.374825
20.885185 30.25455 -44.897957
23.530642 27.273927 -44.166647
22.722681 27.823379 -43.753526
23.161828 26.830012 -42.698173
33.680813 19.950726 -49.118587
32.984081 20.873717 -49.182024
17.214354 28.842367 -33.711161
16.938037 30.08079 -34.463299
17.490226 27.670238 -32.922033
17.663049 26.607765 -32.189988
17.865634 27.895789 -34.163533
17.214354 28.842367 -33.711161
17.490226 27.670238 -32.922033
22.41296 23.455483 -36.855797
21.604123 24.049514 -36.403116
21.889165 23.027572 -35.549132
22.940076 23.913955 -38.116424
22.41296 23.455483 -36.855797
15.304873 35.534759 -59.326454
14.53886 36.054749 -58.57175
15.469317 35.823494 -58.086579
15.304873 35.534759 -59.326454
16.094866 35.050932 -60.009932
20.576181 33.102213 -57.76367
21.400171 32.568184 -58.373552
15.194365 37.054533 -50.678442
14.515634 37.60905 -51.368864
17.738269 30.386204 -37.122293
17.315429 30.168222 -35.767003
18.012602 29.285899 -36.307951
17.356939 31.516718 -37.986258
17.738269 30.386204 -37.122293
18.054112 30.634394 -38.527206
17.96422 31.974003 -40.761074
18.37088 30.958143 -39.838847
18.662317 31.167237 -41.20875
15.876107 36.41394 -51.312511
15.194365 37.054533 -50.678442
16.575405 35.839958 -52.011291
15.856324 36.409878 -52.711529
15.876107 36.41394 -51.312511
17.302889 35.269464 -52.725494
16.575405 35.839958 -52.011291
17.322672 35.273527 -51.326477
18.785259 33.991058 -51.161967
17.956285 34.640417 -50.62488
18.691387 33.928442 -49.746167
21.389837 30.937788 -47.860176
20.612345 31.463307 -47.278652
21.175262 30.632681 -46.374825
23.011502 31.513973 -56.600752
22.241965 32.091549 -57.521907
22.231019 32.02093 -56.112432
23.857669 30.961636 -57.103558
23.011502 31.513973 -56.600752
23.846723 30.891018 -55.694083
24.756409 30.323109 -57.509434
23.857669 30.961636 -57.103558
25.558619 29.700573 -56.568281
25.477332 29.595702 -55.187365
26.343061 28.957593 -55.558757
24.756409 30.323109 -57.509434
25.558619 29.700573 -56.568281
14.329531 37.295929 -54.014076
14.389717 37.425316 -52.723402
15.09684 36.854473 -53.303423
13.522719 37.595247 -54.688659
14.329531 37.295929 -54.014076
14.229841 37.024405 -55.268681
12.724745 37.922443 -55.216522
13.522719 37.595247 -54.688659
11.831169 38.160562 -55.642532
12.724745 37.922443 -55.216522
12.529453 37.561842 -56.369274
11.018043 38.394249 -56.020842
11.831169 38.160562 -55.642532
10.131625 38.487589 -56.371071
11.018043 38.394249 -56.020842
10.74946 37.893301 -57.145513
9.292288 38.575762 -56.738401
10.131625 38.487589 -56.371071
10.985703 36.366672 -60.16317
11.913663 36.35585 -59.977661
10.323211 36.852388 -59.362757
10.985703 36.366672 -60.16317
9.647184 37.402963 -58.554396
10.539069 37.436065 -58.304104
10.323211 36.852388 -59.362757
9.020703 37.946041 -57.755623
9.647184 37.402963 -58.554396
8.449949 38.535162 -56.998282
9.292288 38.575762 -56.738401
9.020703 37.946041 -57.755623
20.43347 19.736777 -30.01717
19.76826 20.528742 -29.823763
21.078235 20.096433 -31.227652
20.43347 19.736777 -30.01717
20.958645 21.140144 -32.186181
21.078235 20.096433 -31.227652
26.036069 24.278558 -42.9037
25.210622 24.730269 -42.484112
26.466328 24.730946 -44.209041
26.036069 24.278558 -42.9037
26.873641 23.744613 -43.207598
26.850209 25.158213 -45.584772
26.012638 25.692158 -45.280874
26.466328 24.730946 -44.209041
27.23681 25.521831 -46.868218
26.850209 25.158213 -45.584772
27.6905 24.560619 -45.796385
30.930875 22.118265 -46.676212
31.674513 21.448324 -46.800899
30.930875 22.118265 -46.676212
30.517312 23.084522 -47.851715
28.922277 24.339217 -47.406979
28.534391 23.981727 -46.035474
28.377902 25.261108 -48.45937
28.922277 24.339217 -47.406979
29.223078 24.676089 -48.786518
29.350298 26.034943 -53.755104
29.965267 25.217894 -52.630817
30.195919 25.225613 -53.922428
28.798883 26.771282 -54.927019
28.56823 26.763564 -53.635408
29.350298 26.034943 -53.755104
28.085632 27.528603 -56.103454
28.798883 26.771282 -54.927019
35.706833 15.952176 -46.542007
35.96822 15.8018 -47.605524
35.109591 16.942735 -46.573086
35.706833 15.952176 -46.542007
34.757104 17.957096 -47.81703
35.109591 16.942735 -46.573086
34.356556 18.916942 -48.963922
34.757104 17.957096 -47.81703
35.009046 17.893052 -48.941941
33.932755 19.886682 -50.243498
33.680813 19.950726 -49.118587
34.356556 18.916942 -48.963922
34.796667 18.646553 -51.287309
35.19014 17.802174 -50.103333
34.159264 19.748402 -51.382159
34.796667 18.646553 -51.287309
34.347434 19.542057 -52.580635
32.45332 22.516754 -53.998385
33.015433 21.639834 -52.765589
33.147917 21.520826 -53.908279
31.714549 23.500045 -54.055073
32.45332 22.516754 -53.998385
3 69 68 17
3 0 70 71
3 72 20 73
3 74 22 75
3 76 75 20
3 74 75 76
3 2 77 79
3 79 78 23
3 77 78 79
3 1 80 81
3 82 26 83
3 3 29 27
3 3 31 29
3 4 84 85
3 4 86 88
3 86 35 87
3 86 87 88
3 5 38 36
3 89 39 90
3 91 90 18
3 89 90 91
3 92 40 93
3 94 93 39
3 92 93 94
3 95 42 96
3 97 96 40
3 95 96 97
3 8 43 19
3 8 44 43
3 9 98 99
3 9 100 102
3 100 45 101
3 100 101 102
3 9 46 45
3 103 47 104
3 105 104 21
3 103 104 105
3 107 106 47
3 10 50 48
3 108 51 109
3 110 109 24
3 108 109 110
3 112 111 51
3 6 113 115
3 115 114 37
3 113 114 115
3 116 52 117
3 12 53 25
3 12 54 53
3 7 55 41
3 13 56 28
3 13 57 56
3 13 58 57
3 14 118 120
3 120 119 30
3 118 119 120
3 14 121 122
3 11 59 49
3 15 60 32
3 15 61 60
3 123 62 124
3 16 125 127
3 127 126 33
3 125 126 127
3 16 128 130
3 128 63 129
3 128 129 130
3 16 64 63
3 132 131 34
3 133 65 134
3 135 66 136
3 137 136 65
3 135 136 137
3 138 67 139
3 141 140 67
3 17 18 5
3 142 18 143
3 144 143 17
3 142 143 144
3 146 145 18
3 147 19 148
3 149 19 150
3 151 8 152
3 153 152 19
3 151 152 153
3 20 154 155
3 20 156 158
3 156 9 157
3 156 157 158
3 20 21 9
3 22 21 20
3 22 159 161
3 161 160 21
3 159 160 161
3 23 24 10
3 162 24 163
3 164 163 23
3 162 163 164
3 166 165 24
3 168 167 6
3 169 25 170
3 26 171 173
3 171 25 172
3 171 172 173
3 26 12 25
3 27 28 7
3 29 28 27
3 29 13 28
3 29 30 13
3 31 30 29
3 31 14 30
3 174 32 175
3 176 175 11
3 174 175 176
3 177 32 178
3 179 15 180
3 181 180 32
3 179 180 181
3 182 33 183
3 184 33 185
3 186 16 187
3 188 187 33
3 186 187 188
3 189 34 190
3 191 190 16
3 189 190 191
3 35 192 194
3 192 34 193
3 192 193 194
3 35 195 197
3 197 196 34
3 195 196 197
3 199 198 2
3 36 37 1
3 38 37 36
3 38 6 37
3 18 38 5
3 39 38 18
3 39 6 38
3 39 200 202
3 202 201 6
3 200 201 202
3 40 203 205
3 205 204 39
3 203 204 205
3 40 206 207
3 40 208 210
3 208 41 209
3 208 209 210
3 42 41 40
3 42 7 41
3 19 211 213
3 211 42 212
3 211 212 213
3 43 42 19
3 43 7 42
3 43 27 7
3 44 27 43
3 44 3 27
3 214 4 215
3 216 1 217
3 45 218 219
3 45 220 222
3 220 1 221
3 220 221 222
3 45 36 1
3 46 36 45
3 46 5 36
3 21 46 9
3 47 46 21
3 47 5 46
3 47 17 5
3 223 17 224
3 225 224 47
3 223 224 225
3 227 226 17
3 48 49 0
3 50 49 48
3 50 11 49
3 24 50 10
3 51 50 24
3 51 11 50
3 51 228 230
3 230 229 11
3 228 229 230
3 232 231 51
3 234 233 2
3 235 0 236
3 37 237 239
3 239 238 1
3 237 238 239
3 242 241 37
3 240 241 242
3 245 244 6
3 243 244 245
3 246 0 247
3 248 48 249
3 250 249 0
3 248 249 250
3 52 251 253
3 251 48 252
3 251 252 253
3 52 10 48
3 25 254 256
3 254 52 255
3 254 255 256
3 53 52 25
3 53 10 52
3 53 23 10
3 54 23 53
3 54 2 23
3 41 257 259
3 257 26 258
3 257 258 259
3 55 26 41
3 55 12 26
3 28 55 7
3 56 55 28
3 56 12 55
3 56 54 12
3 57 54 56
3 57 2 54
3 57 260 262
3 262 261 2
3 260 261 262
3 58 263 265
3 265 264 57
3 263 264 265
3 58 266 267
3 30 58 13
3 268 58 269
3 270 269 30
3 268 269 270
3 272 271 58
3 49 273 275
3 275 274 0
3 273 274 275
3 59 276 278
3 278 277 49
3 276 277 278
3 59 279 280
3 32 59 11
3 60 59 32
3 60 281 283
3 283 282 59
3 281 282 283
3 60 284 285
3 61 286 288
3 288 287 60
3 286 287 288
3 61 289 290
3 291 15 292
3 293 15 294
3 295 61 296
3 297 296 15
3 295 296 297
3 298 61 299
3 302 301 61
3 300 301 302
3 303 22 304
3 305 22 306
3 308 307 22
3 309 8 310
3 311 8 312
3 311 312 313
3 314 44 315
3 316 315 8
3 314 315 316
3 62 317 319
3 317 44 318
3 317 318 319
3 62 3 44
3 33 320 321
3 323 322 33
3 324 62 325
3 63 326 328
3 326 62 327
3 326 327 328
3 63 3 62
3 63 31 3
3 64 31 63
3 64 14 31
3 34 64 16
3 329 64 330
3 331 330 34
3 329 330 331
3 332 14 333
3 334 333 64
3 332 333 334
3 336 335 14
3 65 337 338
3 65 339 340
3 65 341 342
3 66 343 345
3 345 344 65
3 343 344 345
3 66 346 348
3 346 4 347
3 346 347 348
3 349 66 350
3 67 351 353
3 351 66 352
3 351 352 353
3 67 4 66
3 67 35 4
3 354 35 355
3 356 355 67
3 354 355 356
3 358 357 35
