ply
format ascii 1.0
element vertex 173
property float x
property float y
property float z
element face 151
property list uchar int vertex_index
end_header
1.058252 101.061424 -23.831718
5.960558 94.517586 -31.466719
3.64982 99.410561 -17.989058
6.241457 97.362473 -22.545189
8.46483 95.451172 -16.885666
10.708899 90.363007 -29.35708
3.790611 98.149498 -28.013096
8.694981 94.322609 -26.375917
4.674606 98.309418 -15.122577
5.993382 97.584122 -17.507332
7.044124 96.33815 -14.565714
2.376076 99.737564 -26.163784
8.662881 95.326889 -21.735262
7.672751 95.841316 -24.42885
10.02915 93.727325 -23.644947
10.963634 92.18306 -25.486574
3.556507 96.217896 -32.334934
4.643645 94.011894 -33.847271
2.260232 100.470398 -20.985882
3.755376 99.230537 -23.340868
4.843101 98.598312 -20.452192
7.438644 96.493607 -19.556255
9.819503 94.340294 -18.988575
8.363728 92.535751 -30.516201
7.926784 94.961082 -11.666227
8.661835 93.535225 -9.004654
-0.550598 99.847427 -31.438551
2.370756 98.145378 -30.665726
4.901969 96.481682 -29.808603
5.013209 97.894302 -25.462906
6.293938 96.310768 -27.2458
7.395557 94.527428 -28.984001
9.836378 92.323616 -28.08036
11.947427 90.3181 -26.836617
9.251848 94.342728 -14.107973
10.812897 93.189552 -16.179844
6.313616 96.677712 -13.390251
5.859365 97.323784 -14.844145
5.128856 97.663345 -13.668682
5.128856 97.663345 -13.668682
3.93895 98.58928 -13.793368
1.717164 100.399494 -24.997751
0.99394 100.598884 -26.419995
0.335028 101.260815 -25.253963
10.543183 93.387664 -22.329704
9.346016 94.527107 -22.690104
9.860049 94.187446 -21.374862
11.092492 92.650939 -23.226262
10.543183 93.387664 -22.329704
-0.325984 101.874809 -24.111984
0.303758 101.639671 -22.596713
0.335028 101.260815 -25.253963
-0.325984 101.874809 -24.111984
2.334131 100.330224 -18.166431
2.890179 99.803269 -16.719184
2.955026 99.94048 -19.48747
1.639337 100.860142 -19.664842
2.334131 100.330224 -18.166431
10.034164 90.254879 -30.569958
8.861579 91.341251 -31.149518
9.536314 91.449379 -29.93664
8.040909 93.644165 -7.792333
7.608606 94.480851 -9.153781
-1.252247 100.715408 -30.414773
-1.842769 100.469955 -31.768459
3.080684 98.147438 -29.339411
1.664122 99.045613 -29.73989
2.374049 99.047673 -28.413575
12.548959 90.091255 -25.583583
11.455531 91.25058 -26.161596
12.057063 91.023735 -24.908562
12.98704 89.115925 -26.236753
12.548959 90.091255 -25.583583
9.630544 93.674485 -12.727286
8.589316 94.651905 -12.8871
8.968011 93.983662 -11.506412
11.843594 92.076435 -15.809527
11.122013 92.662659 -14.825076
11.390123 92.676197 -17.198088
11.843594 92.076435 -15.809527
3.402571 99.252697 -15.285944
3.93895 98.58928 -13.793368
4.162213 98.859989 -16.555817
2.890179 99.803269 -16.719184
3.402571 99.252697 -15.285944
11.105336 89.191674 -29.942839
11.738947 89.275654 -28.733283
1.666782 99.841706 -27.488919
0.99394 100.598884 -26.419995
3.083343 98.943531 -27.08844
2.374049 99.047673 -28.413575
1.666782 99.841706 -27.488919
11.559735 91.878807 -24.147075
10.496392 92.955192 -24.56576
11.092492 92.650939 -23.226262
12.057063 91.023735 -24.908562
11.559735 91.878807 -24.147075
2.773018 95.993084 -33.550577
2.229226 97.051903 -32.720457
3.316587 94.890083 -34.306745
2.773018 95.993084 -33.550577
4.100076 95.114895 -33.091102
3.900143 93.648372 -35.000653
3.316587 94.890083 -34.306745
10.43836 93.694149 -20.001519
9.860049 94.187446 -21.374862
9.241192 94.833591 -20.361919
0.904748 101.344158 -21.173795
1.639337 100.860142 -19.664842
1.659242 100.765911 -22.4088
0.303758 101.639671 -22.596713
0.904748 101.344158 -21.173795
7.686254 92.370663 -31.706755
6.484669 93.36158 -32.182014
7.162143 93.526668 -30.99146
7.686254 92.370663 -31.706755
8.861579 91.341251 -31.149518
10.034164 90.254879 -30.569958
11.105336 89.191674 -29.942839
7.24108 95.193779 -10.484568
6.754945 95.989178 -11.940507
8.29431 94.248154 -10.335441
7.24108 95.193779 -10.484568
7.608606 94.480851 -9.153781
9.335537 93.270733 -10.175626
8.968011 93.983662 -11.506412
8.29431 94.248154 -10.335441
9.132627 92.654278 -7.75073
8.040909 93.644165 -7.792333
9.739321 92.483807 -8.874661
9.132627 92.654278 -7.75073
9.335537 93.270733 -10.175626
9.739321 92.483807 -8.874661
-1.213647 99.554913 -32.711819
-1.842769 100.469955 -31.768459
0.175674 98.866669 -32.272266
-1.213647 99.554913 -32.711819
0.203445 99.896637 -30.126302
-1.252247 100.715408 -30.414773
0.910079 98.996402 -31.052138
0.203445 99.896637 -30.126302
1.664122 99.045613 -29.73989
1.636351 98.015644 -31.885853
0.175674 98.866669 -32.272266
0.910079 98.996402 -31.052138
2.963631 97.181637 -31.50033
2.229226 97.051903 -32.720457
1.636351 98.015644 -31.885853
12.358211 89.2532 -27.473052
11.738947 89.275654 -28.733283
11.328163 90.340553 -28.096849
12.358211 89.2532 -27.473052
12.98704 89.115925 -26.236753
7.485454 95.649616 -13.11597
6.313616 96.677712 -13.390251
6.754945 95.989178 -11.940507
10.341489 93.239247 -13.789141
9.630544 93.674485 -12.727286
10.032373 93.76614 -15.143908
10.341489 93.239247 -13.789141
11.122013 92.662659 -14.825076
10.893427 93.251568 -18.602454
10.3162 93.764923 -17.58421
11.390123 92.676197 -17.198088
10.43836 93.694149 -20.001519
10.893427 93.251568 -18.602454
5.826213 93.108734 -33.37229
5.302102 94.26474 -32.656995
6.484669 93.36158 -32.182014
5.104045 92.807975 -34.514729
5.826213 93.108734 -33.37229
3.900143 93.648372 -35.000653
5.104045 92.807975 -34.514729
3 36 10 37
3 38 37 8
3 36 37 38
3 39 8 40
3 0 41 43
3 41 11 42
3 41 42 43
3 44 14 45
3 46 45 12
3 44 45 46
3 48 47 14
3 0 49 50
3 0 51 52
3 1 17 16
3 2 20 18
3 4 21 9
3 4 22 21
3 2 53 54
3 2 55 57
3 55 18 56
3 55 56 57
3 5 58 60
3 60 59 23
3 58 59 60
3 61 25 62
3 63 26 64
3 6 65 67
3 65 27 66
3 65 66 67
3 6 28 27
3 3 29 19
3 7 30 13
3 7 31 30
3 7 32 31
3 68 33 69
3 70 69 15
3 68 69 70
3 72 71 33
3 73 34 74
3 75 74 24
3 73 74 75
3 76 35 77
3 79 78 35
3 8 9 2
3 10 9 8
3 10 4 9
3 8 80 81
3 8 82 84
3 82 2 83
3 82 83 84
3 86 85 5
3 11 87 88
3 11 89 91
3 89 6 90
3 89 90 91
3 12 13 3
3 14 13 12
3 14 7 13
3 14 15 7
3 92 15 93
3 94 93 14
3 92 93 94
3 96 95 15
3 16 97 98
3 17 99 101
3 101 100 16
3 99 100 101
3 17 102 103
3 18 19 0
3 20 19 18
3 20 3 19
3 9 20 2
3 21 20 9
3 21 3 20
3 21 12 3
3 22 12 21
3 22 104 106
3 106 105 12
3 104 105 106
3 18 107 108
3 18 109 111
3 109 0 110
3 109 110 111
3 23 112 114
3 114 113 1
3 112 113 114
3 116 115 23
3 118 117 5
3 119 24 120
3 25 121 123
3 121 24 122
3 121 122 123
3 25 124 126
3 126 125 24
3 124 125 126
3 127 25 128
3 129 25 130
3 132 131 25
3 26 133 134
3 26 135 136
3 137 26 138
3 27 139 141
3 139 26 140
3 139 140 141
3 27 142 144
3 144 143 26
3 142 143 144
3 27 145 147
3 145 16 146
3 145 146 147
3 28 16 27
3 28 1 16
3 19 11 0
3 29 11 19
3 29 6 11
3 13 29 3
3 30 29 13
3 30 6 29
3 30 28 6
3 31 28 30
3 31 1 28
3 31 23 1
3 32 23 31
3 32 5 23
3 15 32 7
3 33 32 15
3 33 5 32
3 33 148 150
3 150 149 5
3 148 149 150
3 152 151 33
3 24 153 155
3 153 10 154
3 153 154 155
3 34 10 24
3 34 4 10
3 156 34 157
3 35 158 160
3 158 34 159
3 158 159 160
3 35 4 34
3 35 22 4
3 161 22 162
3 163 162 35
3 161 162 163
3 165 164 22
3 166 17 167
3 168 167 1
3 166 167 168
3 169 17 170
3 172 171 17
