ply
format ascii 1.0
element vertex 610
property float x
property float y
property float z
element face 562
property list uchar int vertex_index
end_header
39.5797 -25.612141 -44.669739
38.146439 4.984714 -55.381714
40.57975 -15.331176 -41.602608
40.061512 -1.192198 -46.077862
39.807377 -10.033036 -50.493679
37.111107 -41.840858 -29.812515
39.056801 3.654367 -39.396439
37.864445 11.328607 -49.129837
40.369629 -20.1752 -43.301807
40.489174 -12.539334 -45.982841
39.961639 -17.78157 -47.515701
38.83165 -15.906879 -51.750401
38.677418 -23.707695 -48.72784
39.80204 -1.97151 -38.386097
39.415913 2.073571 -50.676449
39.241756 5.328503 -47.527035
38.236942 8.657854 -52.50024
36.463966 12.091782 -57.384892
40.223408 -4.465482 -41.482506
40.513855 -8.388499 -43.983826
40.186665 -5.362729 -48.366028
39.284439 -2.655113 -52.892521
37.640228 -0.025716 -57.346146
38.523846 -7.824811 -54.611595
39.879856 -27.247772 -40.531132
36.134693 -42.657005 -25.483181
38.493286 -35.994282 -33.140953
38.932564 -34.645615 -37.337467
37.960762 4.618433 -35.609089
37.688942 8.684451 -40.118023
39.71801 1.69249 -42.938225
38.674141 7.659093 -44.143322
35.771782 16.751451 -50.117832
35.164154 2.61628 -61.630436
40.053471 -22.965076 -43.953007
40.21862 -19.304037 -45.34705
39.832397 -21.720409 -46.074406
39.242729 -24.457029 -46.750683
38.413712 -31.516134 -29.943699
39.992733 -5.073241 -37.786774
38.897015 3.386951 -52.988029
38.886814 5.428097 -51.626595
38.188862 7.234334 -54.107666
37.445667 10.39236 -54.982914
37.371181 8.722048 -56.433353
37.196438 6.522566 -57.732761
40.498062 -9.59259 -41.80978
40.589794 -11.771838 -42.6842
40.231071 -11.348484 -48.219135
40.373772 -8.876259 -47.334679
40.053898 -7.703946 -49.586262
39.810673 -3.927192 -50.656929
39.591213 -6.20205 -51.761349
38.945625 -4.879153 -53.966324
39.251904 -8.830779 -52.581474
39.703388 -26.732069 -35.494648
39.96899 -25.846775 -37.607906
40.117626 -24.989264 -39.663979
39.77721 -28.442705 -38.358952
36.607185 -42.489937 -27.573576
37.434498 -39.341778 -29.334248
38.175816 -36.259151 -31.187645
37.848801 -38.958408 -31.544409
39.12801 1.654471 -37.156528
37.849144 6.674798 -37.806622
40.19698 -2.854779 -43.77578
40.021442 -1.352817 -42.249008
39.929806 0.289625 -44.534058
38.599258 8.555174 -48.398968
39.002342 6.680133 -46.001133
38.319923 9.59756 -46.606171
37.94397 10.274027 -44.609318
37.517048 12.198298 -47.145767
36.907532 14.12241 -49.539879
37.070042 -2.285953 -58.268261
36.465218 1.515784 -59.598286
35.913494 -1.369007 -60.166157
40.596703 -13.961702 -43.747444
40.481293 -16.499594 -44.599625
40.300732 -15.228508 -46.740479
39.937626 -13.975526 -49.025154
39.416729 -12.860793 -51.182663
39.487328 -16.716003 -49.703609
37.969826 -22.592335 -50.717686
39.354176 -27.71633 -33.492283
36.555649 -44.727947 -30.179819
37.436039 -41.553074 -32.043888
39.501915 0.905959 -38.929512
39.827961 0.230132 -48.356949
39.727844 1.96823 -46.802261
39.385361 3.733069 -49.147839
38.776932 7.224813 -50.055038
38.043625 10.341326 -51.008358
37.180645 13.248306 -51.606926
37.361481 11.950779 -53.462173
35.144917 -3.974267 -60.664051
40.236485 -9.514305 -38.339874
40.171494 -6.213918 -39.209961
40.349998 -7.781084 -40.587917
40.385704 -6.229977 -42.73452
40.333748 -4.749454 -44.96048
40.55249 -10.401594 -45.000294
40.408131 -6.702262 -46.120953
40.166454 -3.249129 -47.295124
39.848053 -1.665259 -49.679737
39.4002 -0.152708 -51.910366
38.807869 1.131798 -54.119324
37.981022 2.472739 -56.436207
38.55912 -1.265739 -55.146084
38.103447 -3.880084 -56.115311
37.570992 -6.553785 -56.727051
38.759483 -11.710772 -53.205364
40.480789 -18.697985 -40.466923
40.170311 -23.771093 -41.873409
39.791176 -26.537354 -42.595753
37.842197 -34.421215 -28.495615
38.319302 -33.873909 -30.529297
38.765228 -33.238762 -32.703129
39.103188 -32.550079 -34.739811
38.166042 -38.452343 -33.748096
38.764126 -35.395012 -35.188435
39.323315 -31.934965 -36.733391
39.466656 -30.962809 -38.920517
38.928562 -28.601706 -45.063248
38.473301 -27.510746 -47.085163
36.922554 -25.849354 -50.821693
37.134815 6.796008 -35.798359
37.027355 8.87444 -38.171623
40.036255 -3.06129 -40.075802
39.796055 -0.178334 -40.525814
39.437416 2.803349 -41.245583
39.556938 3.39852 -45.274948
39.273781 4.742528 -43.526001
38.890358 5.802878 -41.797958
38.22707 8.310385 -42.066349
36.196705 15.873116 -51.98444
36.921764 4.051274 -58.723217
35.685165 5.350591 -60.920387
34.295856 6.513942 -62.953407
33.721233 3.792339 -63.505493
38.157907 -31.963607 -28.932499
38.439747 -30.506936 -29.68474
40.032989 -6.562701 -37.438936
39.941061 -5.897946 -36.713262
40.584772 -13.551507 -42.143404
40.554857 -12.455389 -41.635551
40.549835 -14.235057 -41.094755
39.791822 -27.426851 -36.968773
39.836189 -26.289422 -36.551277
39.659021 -27.869498 -35.912143
39.695932 -28.724815 -37.344296
39.8731 -27.14474 -37.983429
39.791822 -27.426851 -36.968773
36.859146 -42.165397 -28.693046
36.409071 -43.753204 -27.824326
36.661032 -43.428665 -28.943795
38.810036 3.973254 -38.458361
38.845641 2.973306 -37.338406
39.092405 2.654419 -38.276483
38.756327 4.95475 -39.594433
38.810036 3.973254 -38.458361
36.181207 -3.312769 -59.450544
36.491768 -1.82748 -59.217209
36.759481 -3.771242 -58.501597
40.425461 -18.337397 -43.950716
40.510699 -17.015664 -43.572422
40.454867 -18.853467 -42.923513
38.785069 -21.755313 -49.402744
39.066423 -22.153843 -48.429969
38.323622 -23.150015 -49.722763
38.431272 -21.197633 -50.397667
38.785069 -21.755313 -49.402744
39.115906 -29.291154 -32.775851
39.147522 -28.161278 -32.4882
39.316412 -28.884405 -33.819516
39.115906 -29.291154 -32.775851
36.177893 -46.222096 -30.379928
36.076809 -46.245308 -29.31161
36.6782 -44.555502 -31.253686
36.177893 -46.222096 -30.379928
39.664102 -1.548827 -37.552092
39.787193 -2.885508 -37.371598
39.651978 -0.532776 -38.657804
39.51404 -0.110093 -37.823799
39.664102 -1.548827 -37.552092
36.48336 12.856171 -56.57118
36.97421 12.00646 -55.370192
36.954816 11.242071 -56.183903
35.969795 13.546585 -57.800572
36.48336 12.856171 -56.57118
35.924161 12.6641 -58.560944
35.969795 13.546585 -57.800572
40.37136 -9.442773 -40.058199
40.293242 -8.647695 -39.463895
40.314604 -10.309383 -38.934178
40.377316 -20.512352 -39.784916
40.39434 -19.350261 -39.386656
40.4332 -19.930835 -40.837229
40.377316 -20.512352 -39.784916
35.719736 -43.964693 -24.642802
35.551623 -45.22403 -24.888818
35.966579 -43.916342 -25.729197
35.891571 -42.675214 -24.479521
35.719736 -43.964693 -24.642802
36.277065 -41.40978 -25.33009
35.891571 -42.675214 -24.479521
37.770561 -35.595998 -28.741978
37.512197 -35.842903 -27.69748
38.009113 -35.322345 -29.758819
38.080749 -34.147562 -29.512456
37.770561 -35.595998 -28.741978
37.891048 -39.849018 -33.969561
37.80104 -40.002708 -32.895992
37.526047 -41.399383 -33.117457
38.848345 -35.020314 -36.262951
38.538647 -36.730644 -35.457718
38.622866 -36.355946 -36.532234
38.480201 -30.038187 -45.326898
38.724277 -30.452344 -44.302613
38.252571 -29.492708 -46.337856
38.700931 -28.056226 -46.074206
38.480201 -30.038187 -45.326898
36.717922 -27.856019 -50.081142
37.330263 -26.315576 -49.929142
37.992562 3.568998 -34.540823
38.309956 3.405744 -35.509784
37.57773 4.608233 -34.519996
37.992562 3.568998 -34.540823
37.547789 5.707221 -35.703724
37.164757 5.697021 -34.614632
37.57773 4.608233 -34.519996
37.207603 9.862359 -40.283846
36.87681 9.957353 -39.310646
37.358148 8.779445 -39.144823
37.694683 10.502765 -43.61777
37.506197 11.478687 -44.800211
35.590688 16.842329 -48.95644
35.96822 15.8018 -47.605524
36.149313 15.710922 -48.766916
35.19014 17.802174 -50.103333
35.590688 16.842329 -48.95644
36.293829 15.412166 -52.978517
36.688675 14.560711 -51.795683
36.785799 14.09976 -52.78976
34.839724 -2.042267 -61.377224
34.421949 -3.545902 -61.513237
32.894543 4.240747 -64.382042
33.354 2.324299 -63.674334
33.263046 5.548218 -64.125465
32.894543 4.240747 -64.382042
39.643913 -21.1602 -47.103252
39.708534 -19.19078 -47.8239
39.897018 -19.750989 -46.795054
39.349079 -22.52851 -47.441391
39.643913 -21.1602 -47.103252
39.537563 -23.088719 -46.412545
38.960074 -24.082362 -47.739261
39.066423 -22.153843 -48.429969
39.349079 -22.52851 -47.441391
38.67729 -30.06118 -30.713908
38.439747 -30.506936 -29.68474
38.645674 -31.191056 -31.001559
38.67729 -30.06118 -30.713908
39.88254 -4.436374 -37.071936
39.941061 -5.897946 -36.713262
39.897386 -3.522376 -38.086436
39.787193 -2.885508 -37.371598
39.88254 -4.436374 -37.071936
36.853996 9.429384 -57.60943
36.400388 11.114251 -58.0852
36.917574 10.406915 -56.909122
36.766624 8.329643 -58.259134
36.853996 9.429384 -57.60943
37.28381 7.622307 -57.083057
36.620939 7.255143 -58.871955
36.766624 8.329643 -58.259134
40.508991 -11.365765 -41.198341
40.445392 -10.348526 -40.669131
40.543928 -10.682214 -42.24699
40.508991 -11.365765 -41.198341
40.554857 -12.455389 -41.635551
38.454125 -15.187342 -52.759003
38.456694 -17.275472 -51.991877
39.886538 -25.00752 -36.273438
39.726902 -25.565458 -35.19064
40.019339 -24.564872 -37.330067
39.886538 -25.00752 -36.273438
39.836189 -26.289422 -36.551277
40.121416 -24.086747 -38.355407
40.019339 -24.564872 -37.330067
40.043308 -25.418019 -38.635942
40.195734 -23.657992 -39.383444
40.121416 -24.086747 -38.355407
36.202826 -43.832808 -26.774395
36.409071 -43.753204 -27.824326
36.370939 -42.573471 -26.528378
35.966579 -43.916342 -25.729197
36.202826 -43.832808 -26.774395
36.773202 -41.154179 -27.399438
36.536957 -41.237713 -26.35424
36.370939 -42.573471 -26.528378
37.186859 -39.580099 -28.279774
36.773202 -41.154179 -27.399438
37.020842 -40.915858 -28.453912
37.566711 -38.05628 -29.161294
37.186859 -39.580099 -28.279774
37.805157 -37.800465 -30.260946
37.937371 -36.514966 -30.087992
37.566711 -38.05628 -29.161294
38.652037 -36.035252 -37.541591
38.622866 -36.355946 -36.532234
38.934403 -34.30662 -38.378965
38.652037 -36.035252 -37.541591
38.89358 1.923763 -36.283504
39.147402 0.60768 -36.090623
38.89358 1.923763 -36.283504
38.845641 2.973306 -37.338406
38.262017 4.455287 -36.564686
38.309956 3.405744 -35.509784
38.206208 5.483469 -37.663452
37.904953 5.646615 -36.707855
38.262017 4.455287 -36.564686
38.152499 6.464965 -38.799525
38.206208 5.483469 -37.663452
38.072397 7.469792 -39.955225
37.769043 7.679624 -38.962322
38.152499 6.464965 -38.799525
37.292736 12.440822 -46.068435
37.506197 11.478687 -44.800211
37.730509 11.236162 -45.877543
37.021946 13.434346 -47.280884
37.292736 12.440822 -46.068435
36.717188 14.396402 -48.477939
37.021946 13.434346 -47.280884
37.21229 13.160354 -48.342823
36.339657 15.43693 -49.828856
36.149313 15.710922 -48.766916
36.717188 14.396402 -48.477939
40.568404 -15.746718 -43.146332
40.588226 -14.646439 -42.675026
40.559927 -16.431455 -42.073914
40.538998 -15.230648 -44.173535
40.568404 -15.746718 -43.146332
40.510699 -17.015664 -43.572422
39.471379 -18.657997 -48.917854
39.724483 -17.248787 -48.609655
39.708534 -19.19078 -47.8239
39.190023 -18.259467 -49.890629
39.471379 -18.657997 -48.917854
38.862184 -17.854905 -50.914024
39.159489 -16.311441 -50.727005
39.190023 -18.259467 -49.890629
38.456694 -17.275472 -51.991877
38.862184 -17.854905 -50.914024
38.025782 -20.618199 -51.47552
38.431272 -21.197633 -50.397667
37.517662 -22.271638 -51.577956
38.025782 -20.618199 -51.47552
39.357089 -26.628797 -33.134236
39.147522 -28.161278 -32.4882
39.552296 -26.057588 -34.189457
39.357089 -26.628797 -33.134236
39.528782 -27.224199 -34.493465
39.726902 -25.565458 -35.19064
39.552296 -26.057588 -34.189457
39.491018 -28.392275 -34.820698
39.528782 -27.224199 -34.493465
39.316412 -28.884405 -33.819516
39.659021 -27.869498 -35.912143
39.491018 -28.392275 -34.820698
36.383303 -44.872209 -29.127447
36.076809 -46.245308 -29.31161
36.833378 -43.284402 -29.996167
36.661032 -43.428665 -28.943795
36.383303 -44.872209 -29.127447
37.118395 -42.968066 -32.185721
36.995844 -43.140511 -31.111854
36.6782 -44.555502 -31.253686
37.208403 -42.814375 -33.259289
37.526047 -41.399383 -33.117457
37.118395 -42.968066 -32.185721
39.327088 0.264163 -36.937307
39.147402 0.60768 -36.090623
39.314963 1.280215 -38.04302
39.327088 0.264163 -36.937307
39.51404 -0.110093 -37.823799
36.876217 13.450997 -53.717384
36.785799 14.09976 -52.78976
37.271063 12.599543 -52.534549
36.932118 12.78567 -54.609821
37.403574 11.17157 -54.222544
36.97421 12.00646 -55.370192
36.876217 13.450997 -53.717384
36.932118 12.78567 -54.609821
35.924161 12.6641 -58.560944
36.400388 11.114251 -58.0852
35.385599 -6.08265 -59.867686
35.796919 -4.615399 -59.699492
34.725697 -5.542741 -60.708299
35.385599 -6.08265 -59.867686
34.421949 -3.545902 -61.513237
34.725697 -5.542741 -60.708299
40.20399 -7.864111 -38.774918
40.12237 -7.133039 -38.15053
40.154865 -8.783233 -37.715486
40.42403 -8.686837 -41.198848
40.37136 -9.442773 -40.058199
40.445392 -10.348526 -40.669131
37.009957 -5.905158 -57.730992
36.759481 -3.771242 -58.501597
37.320517 -4.419869 -57.497656
38.418041 -13.089289 -53.486485
38.795567 -13.808826 -52.477882
38.454125 -15.187342 -52.759003
38.310453 -11.211653 -54.233219
38.418041 -13.089289 -53.486485
38.192634 -9.268673 -54.936335
38.641665 -9.767792 -53.908479
38.310453 -11.211653 -54.233219
37.716207 -8.633159 -55.994062
38.047419 -7.189298 -55.669323
38.192634 -9.268673 -54.936335
37.206873 -8.01291 -56.957327
37.716207 -8.633159 -55.994062
37.009957 -5.905158 -57.730992
37.206873 -8.01291 -56.957327
40.1511 -10.284401 -37.262996
40.154865 -8.783233 -37.715486
40.224949 -11.128333 -37.817909
40.1511 -10.284401 -37.262996
40.314604 -10.309383 -38.934178
40.224949 -11.128333 -37.817909
40.518254 -15.980792 -40.529768
40.549835 -14.235057 -41.094755
40.468773 -17.664196 -39.961925
40.39434 -19.350261 -39.386656
40.53027 -17.014581 -41.034765
40.518254 -15.980792 -40.529768
40.468773 -17.664196 -39.961925
40.510447 -18.11486 -41.506071
40.559927 -16.431455 -42.073914
40.53027 -17.014581 -41.034765
40.510447 -18.11486 -41.506071
40.4332 -19.930835 -40.837229
40.377621 -20.669443 -42.254671
40.454867 -18.853467 -42.923513
40.251619 -23.076474 -40.435757
40.195734 -23.657992 -39.383444
40.277962 -22.467389 -41.540472
40.251619 -23.076474 -40.435757
40.143968 -24.380178 -40.768694
40.26997 -21.973146 -42.587608
40.377621 -20.669443 -42.254671
40.277962 -22.467389 -41.540472
36.277065 -41.40978 -25.33009
36.536957 -41.237713 -26.35424
37.564953 -34.781981 -27.439378
37.512197 -35.842903 -27.69748
37.87215 -33.416147 -28.208457
37.564953 -34.781981 -27.439378
38.127955 -32.968674 -29.219657
38.157907 -31.963607 -28.932499
37.87215 -33.416147 -28.208457
38.598469 -32.369943 -31.294358
38.645674 -31.191056 -31.001559
38.366507 -32.695021 -30.236498
38.247559 -35.06653 -30.858471
38.009113 -35.322345 -29.758819
37.937371 -36.514966 -30.087992
38.821432 -32.05237 -32.381273
38.598469 -32.369943 -31.294358
38.542265 -33.556336 -31.616213
39.021938 -31.645622 -33.424938
38.821432 -32.05237 -32.381273
39.190918 -31.30128 -34.44328
39.021938 -31.645622 -33.424938
38.934208 -32.89442 -33.72147
39.358922 -30.778502 -35.534725
39.190918 -31.30128 -34.44328
38.239605 -38.25931 -34.737549
37.891048 -39.849018 -33.969561
38.465084 -36.923677 -34.468266
38.239605 -38.25931 -34.737549
38.538647 -36.730644 -35.457718
39.468985 -30.470945 -36.531515
39.358922 -30.778502 -35.534725
39.213251 -32.242522 -35.736601
39.550263 -30.188835 -37.546171
39.695932 -28.724815 -37.344296
39.468985 -30.470945 -36.531515
39.201448 -32.465217 -39.17049
39.19961 -32.804212 -38.128992
38.934403 -34.30662 -38.378965
39.439059 -30.644013 -39.978756
39.201448 -32.465217 -39.17049
39.645658 -28.786494 -40.784064
39.673256 -29.105291 -39.725825
39.439059 -30.644013 -39.978756
39.601319 -28.431285 -41.816374
39.835516 -26.892563 -41.563443
39.645658 -28.786494 -40.784064
39.533181 -27.927802 -42.830839
39.601319 -28.431285 -41.816374
39.427442 -27.465196 -43.867832
39.685438 -26.074748 -43.632746
39.533181 -27.927802 -42.830839
39.101873 -28.959978 -44.064587
38.897589 -30.810617 -43.303951
38.724277 -30.452344 -44.302613
39.254131 -27.106924 -44.866494
39.427442 -27.465196 -43.867832
39.101873 -28.959978 -44.064587
37.917864 -29.145947 -47.265215
38.252571 -29.492708 -46.337856
38.105637 -27.146273 -48.060877
37.917864 -29.145947 -47.265215
38.207695 -25.244747 -48.882216
38.57536 -25.60922 -47.906502
38.105637 -27.146273 -48.060877
37.853899 -24.687067 -49.877139
38.323622 -23.150015 -49.722763
38.207695 -25.244747 -48.882216
37.44619 -24.220844 -50.769689
37.853899 -24.687067 -49.877139
37.330263 -26.315576 -49.929142
36.994026 -23.900148 -51.629959
37.517662 -22.271638 -51.577956
37.44619 -24.220844 -50.769689
36.220434 -27.38597 -50.950328
36.717922 -27.856019 -50.081142
36.377607 -25.376501 -51.735313
36.220434 -27.38597 -50.950328
36.994026 -23.900148 -51.629959
36.377607 -25.376501 -51.735313
36.693148 6.649199 -34.626612
36.723089 5.550213 -33.442884
37.164757 5.697021 -34.614632
36.679081 7.739231 -35.865017
36.237414 7.592423 -34.69327
36.693148 6.649199 -34.626612
36.625351 8.778447 -37.051649
36.679081 7.739231 -35.865017
37.081085 7.835224 -36.984991
36.510774 9.846965 -38.178641
36.625351 8.778447 -37.051649
36.510774 9.846965 -38.178641
36.87681 9.957353 -39.310646
40.082114 -5.643579 -38.498368
40.032989 -6.562701 -37.438936
40.12237 -7.133039 -38.15053
38.673105 6.029006 -40.795192
38.756327 4.95475 -39.594433
38.973579 4.728623 -40.597199
38.341461 7.282759 -40.929388
38.673105 6.029006 -40.795192
38.558714 7.056631 -41.932153
37.958006 8.497418 -41.092186
38.072397 7.469792 -39.955225
38.341461 7.282759 -40.929388
37.836233 9.520944 -42.346285
38.08552 9.292206 -43.337834
37.694683 10.502765 -43.61777
37.567169 9.707977 -41.372122
37.958006 8.497418 -41.092186
37.836233 9.520944 -42.346285
37.207603 9.862359 -40.283846
37.567169 9.707977 -41.372122
35.747709 16.712847 -53.304974
36.293829 15.412166 -52.978517
35.590771 17.156662 -52.235113
35.747709 16.712847 -53.304974
35.37831 17.59583 -51.301809
35.984244 16.312283 -51.051136
35.590771 17.156662 -52.235113
34.796667 18.646553 -51.287309
35.19014 17.802174 -50.103333
35.37831 17.59583 -51.301809
36.483603 6.019497 -59.367183
36.620939 7.255143 -58.871955
37.059101 5.28692 -58.227989
35.865303 6.669156 -60.465768
36.483603 6.019497 -59.367183
36.303465 4.700933 -59.821802
35.254161 7.076171 -61.496567
35.865303 6.669156 -60.465768
34.559507 7.657846 -62.513076
35.254161 7.076171 -61.496567
34.99051 5.932266 -61.936897
33.797945 8.281146 -63.537365
34.061596 9.42505 -63.097035
34.559507 7.657846 -62.513076
35.529206 -2.671637 -60.415104
36.181207 -3.312769 -59.450544
35.796919 -4.615399 -59.699492
35.224013 -0.739637 -61.128277
35.529206 -2.671637 -60.415104
34.839724 -2.042267 -61.377224
34.849343 1.253007 -61.860416
35.538824 0.623637 -60.898297
35.224013 -0.739637 -61.128277
34.127882 1.841036 -62.797945
33.354 2.324299 -63.674334
34.442694 3.204309 -62.567965
34.849343 1.253007 -61.860416
34.127882 1.841036 -62.797945
33.550358 6.909019 -63.849422
34.008544 5.153141 -63.22945
33.263046 5.548218 -64.125465
33.797945 8.281146 -63.537365
33.550358 6.909019 -63.849422
3 0 36 34
3 0 37 36
3 140 38 141
3 142 39 143
3 1 42 40
3 1 44 42
3 1 45 44
3 2 144 146
3 144 47 145
3 144 145 146
3 4 50 48
3 4 52 50
3 4 54 52
3 147 56 148
3 149 148 55
3 147 148 149
3 150 58 151
3 152 151 56
3 150 151 152
3 5 153 155
3 153 59 154
3 153 154 155
3 5 60 59
3 5 62 60
3 6 156 158
3 158 157 63
3 156 157 158
3 6 159 160
3 3 67 65
3 7 70 68
3 7 72 70
3 7 73 72
3 161 76 162
3 163 162 74
3 161 162 163
3 8 164 166
3 164 78 165
3 164 165 166
3 10 79 35
3 10 80 79
3 10 82 80
3 12 167 168
3 12 169 171
3 169 83 170
3 169 170 171
3 172 84 173
3 175 174 84
3 176 85 177
3 179 178 85
3 13 180 181
3 13 182 184
3 182 87 183
3 182 183 184
3 14 90 88
3 16 91 41
3 16 92 91
3 16 94 92
3 17 185 187
3 187 186 43
3 185 186 187
3 17 188 189
3 17 190 191
3 192 98 193
3 194 193 96
3 192 193 194
3 19 99 46
3 19 100 99
3 9 101 77
3 20 102 49
3 20 103 102
3 20 104 103
3 21 105 51
3 21 106 105
3 21 108 106
3 23 109 53
3 23 110 109
3 11 111 81
3 195 112 196
3 198 197 112
3 24 113 57
3 24 114 113
3 25 199 201
3 199 200 201
3 25 202 203
3 25 204 205
3 206 115 207
3 208 116 209
3 210 209 115
3 208 209 210
3 26 117 61
3 26 118 117
3 211 119 212
3 213 212 86
3 211 212 213
3 27 214 216
3 214 120 215
3 214 215 216
3 27 121 120
3 27 122 121
3 217 123 218
3 219 124 220
3 221 220 123
3 219 220 221
3 222 125 223
3 28 224 225
3 28 226 227
3 28 228 230
3 228 126 229
3 228 229 230
3 29 127 64
3 29 231 233
3 233 232 127
3 231 232 233
3 18 128 97
3 30 129 66
3 30 130 129
3 15 131 89
3 31 132 69
3 31 133 132
3 31 134 133
3 235 234 71
3 32 236 238
3 236 237 238
3 32 239 240
3 241 135 242
3 243 242 93
3 241 242 243
3 22 136 107
3 33 137 75
3 33 138 137
3 245 244 95
3 246 139 247
3 249 248 139
3 34 35 8
3 36 35 34
3 36 10 35
3 36 250 252
3 252 251 10
3 250 251 252
3 37 253 255
3 255 254 36
3 253 254 255
3 37 256 258
3 256 12 257
3 256 257 258
3 38 259 260
3 38 261 262
3 39 263 264
3 39 265 267
3 265 13 266
3 265 266 267
3 40 41 14
3 42 41 40
3 42 16 41
3 42 43 16
3 44 43 42
3 44 17 43
3 44 268 270
3 270 269 17
3 268 269 270
3 45 271 273
3 273 272 44
3 271 272 273
3 45 274 275
3 276 46 277
3 47 278 280
3 278 46 279
3 278 279 280
3 47 19 46
3 48 49 9
3 50 49 48
3 50 20 49
3 50 51 20
3 52 51 50
3 52 21 51
3 52 53 21
3 54 53 52
3 54 23 53
3 282 281 11
3 55 283 284
3 56 285 287
3 287 286 55
3 285 286 287
3 56 288 289
3 56 290 292
3 290 57 291
3 290 291 292
3 58 57 56
3 58 24 57
3 59 293 294
3 59 295 297
3 295 25 296
3 295 296 297
3 59 298 300
3 300 299 25
3 298 299 300
3 60 301 303
3 303 302 59
3 301 302 303
3 60 304 305
3 60 306 308
3 306 61 307
3 306 307 308
3 62 61 60
3 62 26 61
3 309 27 310
3 312 311 27
3 63 313 314
3 316 315 63
3 317 28 318
3 319 64 320
3 321 320 28
3 319 320 321
3 322 64 323
3 324 29 325
3 326 325 64
3 324 325 326
3 65 66 18
3 67 66 65
3 67 30 66
3 68 69 15
3 70 69 68
3 70 31 69
3 70 71 31
3 72 71 70
3 72 327 329
3 329 328 71
3 327 328 329
3 72 330 331
3 73 332 334
3 334 333 72
3 332 333 334
3 73 335 337
3 335 32 336
3 335 336 337
3 74 75 22
3 76 75 74
3 76 33 75
3 338 77 339
3 340 339 2
3 338 339 340
3 78 341 343
3 341 77 342
3 341 342 343
3 78 9 77
3 35 78 8
3 79 78 35
3 79 9 78
3 79 48 9
3 80 48 79
3 80 4 48
3 80 81 4
3 82 81 80
3 82 11 81
3 344 82 345
3 346 345 10
3 344 345 346
3 347 82 348
3 349 11 350
3 351 350 82
3 349 350 351
3 353 352 11
3 83 354 355
3 83 356 357
3 84 358 359
3 84 360 361
3 84 362 364
3 362 55 363
3 362 363 364
3 365 55 366
3 367 366 84
3 365 366 367
3 369 368 55
3 85 370 371
3 85 372 374
3 372 5 373
3 372 373 374
3 85 86 5
3 375 86 376
3 377 376 85
3 375 376 377
3 380 379 86
3 378 379 380
3 381 63 382
3 87 383 385
3 383 63 384
3 383 384 385
3 87 6 63
3 88 89 3
3 90 89 88
3 90 15 89
3 41 90 14
3 91 90 41
3 91 15 90
3 91 68 15
3 92 68 91
3 92 7 68
3 92 93 7
3 94 93 92
3 94 386 388
3 388 387 93
3 386 387 388
3 43 94 16
3 389 94 390
3 391 390 43
3 389 390 391
3 393 392 94
3 395 394 17
3 396 95 397
3 398 95 399
3 401 400 95
3 96 402 404
3 402 97 403
3 402 403 404
3 98 97 96
3 98 18 97
3 46 405 407
3 405 98 406
3 405 406 407
3 99 98 46
3 99 18 98
3 99 65 18
3 100 65 99
3 100 3 65
3 77 47 2
3 101 47 77
3 101 19 47
3 49 101 9
3 102 101 49
3 102 19 101
3 102 100 19
3 103 100 102
3 103 3 100
3 103 88 3
3 104 88 103
3 104 14 88
3 51 104 20
3 105 104 51
3 105 14 104
3 105 40 14
3 106 40 105
3 106 1 40
3 106 107 1
3 108 107 106
3 108 22 107
3 53 108 21
3 109 108 53
3 109 22 108
3 109 74 22
3 110 74 109
3 110 408 410
3 410 409 74
3 408 409 410
3 81 54 4
3 111 54 81
3 111 23 54
3 411 111 412
3 413 412 11
3 411 412 413
3 414 111 415
3 416 23 417
3 418 417 111
3 416 417 418
3 419 110 420
3 421 420 23
3 419 420 421
3 422 110 423
3 425 424 110
3 426 96 427
3 428 96 429
3 431 430 96
3 432 2 433
3 112 434 435
3 112 436 438
3 436 2 437
3 436 437 438
3 112 439 441
3 441 440 2
3 439 440 441
3 443 442 112
3 444 8 445
3 57 446 447
3 113 448 450
3 450 449 57
3 448 449 450
3 113 451 453
3 451 8 452
3 451 452 453
3 113 34 8
3 114 34 113
3 114 0 34
3 455 454 25
3 115 456 457
3 115 458 459
3 115 460 462
3 460 38 461
3 460 461 462
3 116 38 115
3 116 463 465
3 465 464 38
3 463 464 465
3 61 466 468
3 466 116 467
3 466 467 468
3 117 116 61
3 117 469 471
3 471 470 116
3 469 470 471
3 117 472 473
3 118 474 476
3 476 475 117
3 474 475 476
3 118 477 478
3 86 62 5
3 119 62 86
3 119 26 62
3 479 119 480
3 120 481 483
3 481 119 482
3 481 482 483
3 120 26 119
3 120 118 26
3 121 118 120
3 121 484 486
3 486 485 118
3 484 485 486
3 121 487 489
3 487 58 488
3 487 488 489
3 122 58 121
3 122 24 58
3 490 122 491
3 492 491 27
3 490 491 492
3 493 122 494
3 495 24 496
3 497 496 122
3 495 496 497
3 498 114 499
3 500 499 24
3 498 499 500
3 501 114 502
3 503 0 504
3 505 504 114
3 503 504 505
3 123 506 508
3 506 507 508
3 123 509 511
3 509 0 510
3 509 510 511
3 123 37 0
3 124 37 123
3 124 12 37
3 512 124 513
3 514 124 515
3 516 12 517
3 518 517 124
3 516 517 518
3 519 83 520
3 521 520 12
3 519 520 521
3 125 522 524
3 522 83 523
3 522 523 524
3 125 525 527
3 527 526 83
3 525 526 527
3 528 125 529
3 530 125 531
3 533 532 125
3 126 534 536
3 534 535 536
3 126 537 539
3 537 538 539
3 64 126 28
3 127 126 64
3 127 540 542
3 542 541 126
3 540 541 542
3 127 543 544
3 546 545 127
3 97 547 549
3 547 39 548
3 547 548 549
3 128 39 97
3 128 13 39
3 66 128 18
3 129 128 66
3 129 13 128
3 129 87 13
3 130 87 129
3 130 6 87
3 89 67 3
3 131 67 89
3 131 30 67
3 69 131 15
3 132 131 69
3 132 30 131
3 132 130 30
3 133 130 132
3 133 6 130
3 133 550 552
3 552 551 6
3 550 551 552
3 134 553 555
3 555 554 133
3 553 554 555
3 134 556 558
3 556 29 557
3 556 557 558
3 71 134 31
3 559 134 560
3 561 560 71
3 559 560 561
3 562 29 563
3 564 563 134
3 562 563 564
3 566 565 29
3 93 73 7
3 135 73 93
3 135 32 73
3 567 135 568
3 569 135 570
3 571 32 572
3 573 572 135
3 571 572 573
3 576 575 32
3 574 575 576
3 107 45 1
3 136 45 107
3 136 577 579
3 579 578 45
3 577 578 579
3 75 136 22
3 137 136 75
3 137 580 582
3 582 581 136
3 580 581 582
3 137 583 584
3 138 585 587
3 587 586 137
3 585 586 587
3 138 588 590
3 588 589 590
3 95 591 593
3 591 76 592
3 591 592 593
3 594 76 595
3 596 595 95
3 594 595 596
3 597 33 598
3 599 598 76
3 597 598 599
3 139 600 601
3 139 602 604
3 602 33 603
3 602 603 604
3 139 138 33
3 605 138 606
3 607 606 139
3 605 606 607
3 609 608 138
