ply
format ascii 1.0
element vertex 922
property float x
property float y
property float z
element face 1102
property list uchar int vertex_index
end_header
27.714834 -72.507332 22.778091
28.944464 -53.290249 40.558277
27.849581 -41.851936 -12.872649
26.031067 -67.790031 3.601604
28.945545 -28.682827 36.169899
29.962217 -49.84206 21.24852
30.450136 -45.620106 3.771632
27.412006 -70.543121 13.062035
28.724304 -63.149235 31.996122
29.449387 -51.87326 30.476013
28.832853 -61.562199 21.985123
28.313868 -59.392132 12.52454
33.552994 -34.407307 12.772553
27.722185 -63.710159 41.981747
34.157463 6.178484 26.350353
32.521763 -10.493269 27.550652
31.026176 -25.521042 28.425035
28.99247 -41.623077 38.32671
30.024235 -39.170727 29.212198
31.740616 -36.802692 21.136841
30.491474 -47.552307 12.481263
27.342257 -57.203445 3.700397
26.188572 -55.039642 -4.454307
29.683142 -43.779404 -4.638562
27.743368 -71.547562 17.988255
28.257017 -68.030876 27.363279
28.862461 -62.504292 26.923777
28.324148 -67.326286 22.463676
28.166286 -66.154556 17.680223
34.119644 -28.335255 16.925949
24.913929 -67.165825 46.775677
26.739248 -63.246151 46.769405
26.33005 -68.156731 42.116184
27.339298 -68.443413 37.334591
33.103733 11.610577 29.139971
32.4566 3.316996 29.83807
33.340748 -2.160655 27.106377
31.707611 -4.457472 30.424034
25.191818 -66.193169 -0.598374
28.442852 -23.637499 39.064934
29.175957 -21.833649 35.176369
30.295212 -19.907303 31.567774
29.838181 -27.1752 32.175602
28.732792 -48.110203 44.358139
28.699644 -42.503819 42.979282
29.047289 -47.425385 39.422401
29.683399 -50.743874 25.948944
29.687832 -45.75098 29.853443
30.184023 -44.451435 25.467609
30.823721 -38.050327 25.044739
30.77067 -43.54174 21.153297
31.392347 -42.443401 16.873192
30.244839 -48.768814 16.806322
27.134567 -63.649147 8.03295
27.859364 -58.27747 7.960356
26.425909 -62.500351 3.625637
25.686102 -61.236702 -0.56544
32.34119 -39.297249 3.805891
30.064226 -44.973446 -0.532168
27.76811 -49.75716 -4.57391
28.261429 -50.699558 -0.606791
26.828699 -69.162819 8.32395
28.945072 -58.312206 36.407356
29.228529 -52.733189 35.461353
29.167225 -57.76825 31.349592
29.288984 -56.790134 26.33618
29.358988 -55.617332 21.688475
29.308638 -54.865383 16.917946
28.655369 -60.430527 17.230122
27.72868 -64.945511 12.662663
34.03297 -33.631683 8.427565
32.309242 -40.169319 8.41226
28.522139 -53.71851 45.426003
27.921341 -58.594204 46.291359
28.561804 -58.557541 41.407265
28.339329 -63.708008 37.095585
27.90407 -68.599739 32.416153
33.358864 -16.176083 24.431366
31.728838 -17.807615 28.056768
32.49411 -23.713829 24.614931
28.555483 -36.726521 41.650471
28.928911 -35.113022 37.12141
29.340067 -46.703018 34.52507
29.403755 -40.554119 33.732967
29.553211 -33.918148 32.930855
30.454733 -32.463753 28.858503
31.60264 -31.055868 24.87591
32.850925 -29.76342 20.983223
32.687004 -35.680317 17.051748
31.914778 -41.406208 12.596824
30.581156 -46.507332 8.186147
29.237944 -53.664684 12.520768
29.035364 -52.621403 8.068676
28.746891 -51.545658 3.780754
26.722076 -56.146263 -0.661412
24.999043 -59.96138 -4.416683
28.899755 -42.872055 -8.89602
27.158449 -48.855785 -8.468848
25.574558 -54.265606 -8.171091
27.981812 -70.340004 25.131062
28.316702 -67.740898 24.874815
28.043243 -69.969566 22.731548
28.053967 -69.338737 20.323252
25.682417 -67.605728 44.621712
25.395712 -69.962967 42.175507
25.963625 -70.566513 39.805344
31.999023 6.104523 31.266014
31.671221 2.139767 31.537239
32.062157 -0.645029 30.195448
31.31938 -1.99023 31.764099
27.163055 -41.378143 -14.843853
25.594769 -67.038483 1.366195
28.739868 -22.847355 37.182095
29.033983 -25.249914 35.646721
29.508404 -24.508762 33.657639
29.360149 -27.902363 34.086304
28.873472 -50.678719 42.333374
28.902555 -47.878902 41.814308
29.037552 -50.547516 39.801132
29.815454 -50.317436 23.661207
29.916348 -47.647503 25.656612
30.120344 -47.270515 23.364979
30.460201 -44.021912 23.363882
30.342113 -46.81274 21.08836
30.591879 -46.086811 18.959633
30.107998 -49.306622 19.014256
26.546562 -65.843246 5.803885
26.747183 -63.26152 5.691831
26.146656 -65.071938 3.50967
25.740622 -64.392258 1.345937
31.32476 -42.702011 3.757414
31.226494 -42.228409 1.576911
30.261072 -45.361206 1.60872
29.149281 -47.832176 -0.594887
29.373827 -48.233788 1.57425
27.141903 -69.89386 10.633625
27.071428 -72.614098 10.744187
28.852219 -60.89566 34.204121
29.07366 -58.034328 33.895462
28.967436 -60.585323 31.697472
28.85973 -62.139477 24.461693
29.092655 -59.618111 26.779736
29.082445 -59.394901 24.278992
29.314262 -56.40403 24.082012
29.082375 -58.719154 21.919432
29.058037 -58.021564 19.590212
28.782576 -60.883495 19.707829
27.807405 -68.159996 15.377547
27.989412 -65.488487 15.223612
27.575174 -67.670181 13.002362
27.272427 -67.099434 10.530944
34.280399 -31.208855 12.734976
34.679066 -30.474985 10.570134
33.800491 -34.192635 10.489032
33.128117 -37.121815 8.262529
32.987156 -37.430534 10.656374
28.116327 -51.116455 49.950459
28.437021 -51.091862 47.335972
28.23024 -53.651379 47.885414
27.31741 -63.403099 44.397038
27.384182 -61.020126 46.663071
27.857027 -61.14856 44.174286
28.27607 -58.772209 43.767483
28.204493 -61.189163 41.786865
28.485855 -61.071999 39.345081
28.069023 -63.679211 39.660591
26.966612 -70.948082 35.125805
27.655256 -68.541573 34.95528
27.345997 -70.974586 32.607273
27.648724 -70.791229 30.143713
33.614166 9.112801 27.794525
33.90274 13.304283 27.351217
34.502827 10.314893 25.866264
34.652756 3.149009 24.949825
32.973209 -6.358077 27.248154
33.839569 -5.346993 25.509792
33.44577 -9.221714 25.702673
33.858635 -12.534002 24.092846
33.002247 -13.088028 25.962057
30.692245 -22.613098 29.977278
30.990198 -18.834585 29.783884
31.398664 -21.631502 28.151449
32.131248 -20.807047 26.379284
31.735815 -24.706959 26.498917
28.833456 -41.952778 40.636475
28.641617 -39.609077 42.155006
28.778389 -38.881779 39.863182
28.720123 -35.885578 39.26778
28.970884 -38.459545 37.556717
29.341587 -52.340916 32.94817
29.296001 -49.803802 34.996758
29.417313 -49.369534 32.679291
29.840958 -42.367641 29.54076
29.580048 -43.225082 31.779861
29.672405 -39.848591 31.540054
29.478039 -37.107304 33.239643
29.820652 -36.62141 31.093845
29.985197 -33.06953 30.83511
30.199419 -35.701855 29.206976
31.254753 -37.393257 23.187166
31.179281 -34.562557 25.056236
31.714636 -34.118538 22.991096
32.232925 -30.473278 22.853346
32.275597 -33.529713 20.963116
32.842556 -32.652042 19.113817
32.211723 -36.336933 19.069344
31.010258 -45.047199 14.696083
31.678877 -41.923466 14.661827
31.161106 -44.619183 12.464441
31.305691 -44.040005 10.368873
30.49976 -47.250607 10.294646
28.835707 -57.267101 14.767632
29.31142 -54.090977 14.700191
28.730362 -56.546062 12.468076
27.590662 -57.832985 5.81152
28.344622 -55.617462 7.823912
28.218313 -54.871643 5.83185
28.916134 -52.018322 5.886649
27.98349 -54.450977 3.735199
27.736479 -53.918228 1.552442
27.058954 -56.542385 1.454059
24.979809 -62.885078 -2.601972
25.350544 -60.429611 -2.573598
30.910721 -41.131069 -2.717758
29.285952 -43.479084 -6.765782
28.032038 -45.88628 -8.684818
28.399048 -46.370453 -6.626885
26.912741 -52.49329 -4.570746
26.625528 -52.02039 -6.527701
25.935457 -54.489799 -6.29235
25.243828 -57.125488 -6.136866
27.634056 -70.922333 15.590124
28.519361 -65.556999 29.764923
28.821426 -62.820694 29.415474
28.595884 -65.25531 27.115742
28.603825 -65.007935 24.64439
28.593557 -64.380913 22.230312
28.523876 -63.799145 19.839268
28.305191 -66.529747 20.197311
27.970797 -68.749069 17.833529
33.878143 -31.536198 14.973412
25.925777 -65.232697 46.876442
26.5767 -65.673866 44.510601
27.1105 -65.857735 42.277912
27.523054 -66.164787 39.803696
26.872868 -68.354156 39.825356
26.580921 -70.578445 37.601952
32.793201 7.48669 29.528374
33.300213 5.007346 28.132797
33.72131 1.933358 26.847893
32.878807 0.731918 28.543056
32.516121 -3.379696 28.741219
32.118809 -7.264749 29.012987
24.735079 -65.469055 -2.698227
29.352062 -18.170671 34.835308
29.901691 -17.17955 33.12434
29.653927 -20.929121 33.465733
30.036818 -23.640734 31.863588
30.405008 -26.233526 30.283609
28.745733 -45.367607 43.573475
28.891092 -44.886707 41.109688
29.038988 -44.625591 38.742489
29.5599 -51.399227 28.079262
29.563501 -48.859108 30.185608
29.71636 -48.375553 27.945417
29.905098 -45.221386 27.682226
30.139849 -41.959583 27.326332
30.390656 -38.571842 27.18346
30.483013 -41.197845 25.30895
30.838423 -40.844505 23.204653
31.265781 -40.064766 21.098257
31.644657 -39.612106 19.0714
31.090235 -42.913628 19.085094
30.811588 -45.50053 17.003685
30.39233 -48.083988 14.668732
27.733589 -61.51704 10.275555
28.067129 -58.981613 10.159376
27.417326 -60.98748 7.843766
27.138014 -60.459095 5.814732
26.824003 -59.891079 3.686486
26.496077 -59.210457 1.488867
26.068192 -61.891445 1.553664
25.339413 -63.70892 -0.705453
31.095629 -41.676731 -0.613701
29.956615 -44.245342 -2.515646
28.705404 -46.837624 -4.592784
28.981041 -47.177509 -2.681294
28.045725 -50.135059 -2.648196
27.241957 -52.818691 -2.565288
26.431377 -68.591309 5.857347
28.657692 -29.644958 38.124798
28.979492 -55.790565 38.400108
29.099873 -53.171688 37.944069
29.119602 -55.598518 35.837345
29.231237 -55.266502 33.355572
29.317602 -54.806835 31.127644
29.061798 -59.94986 29.170074
29.250128 -57.08886 28.844936
29.40514 -54.320019 28.469696
29.47994 -53.846409 26.137632
29.562246 -53.260372 23.832279
29.645702 -52.693203 21.378168
29.681498 -52.447624 19.096579
29.33515 -55.326206 19.211866
28.965548 -57.648907 17.173828
28.490421 -59.934696 14.78649
28.384418 -63.342419 17.405649
28.191509 -62.738834 14.842316
27.955404 -62.248291 12.460803
27.431355 -64.311081 10.212433
26.902924 -66.564674 8.035624
33.252544 -36.559887 6.121084
32.293114 -39.961349 6.009466
31.451294 -42.913303 6.083328
28.541145 -48.365376 46.850014
28.682125 -50.824818 44.815487
28.753481 -53.50156 43.062057
26.850355 -60.667114 49.017159
27.415514 -58.489223 48.866985
27.894262 -56.205181 48.361614
28.269634 -56.289055 45.915871
28.556826 -56.223564 43.506905
28.800938 -55.918354 40.967556
28.775084 -58.513683 38.91497
28.698582 -61.082005 36.640793
28.559927 -63.558174 34.442791
27.908291 -66.057983 37.328983
28.177523 -66.064812 34.689548
28.358829 -65.974945 32.282394
28.138306 -68.24939 29.836685
27.832354 -70.742462 27.602472
34.19627 -1.188519 25.379589
33.755188 -19.083277 22.637241
30.891159 -5.903769 32.195198
31.283314 -8.362541 30.799259
31.703442 -11.217248 29.314648
30.575157 -16.110685 31.345572
31.322342 -15.189236 29.560074
32.159264 -14.267788 27.696932
32.532017 -17.131203 26.213457
32.95369 -19.950277 24.468594
33.239925 -23.08238 22.716713
28.667789 -32.72438 38.732731
28.934444 -32.059151 36.561703
29.164837 -50.142887 37.555386
29.195688 -47.352188 36.924728
29.19573 -44.135582 36.387653
29.500828 -46.277542 32.140911
29.365328 -43.628437 34.156826
29.176882 -40.870972 36.00174
29.193974 -37.747498 35.393627
29.198923 -34.652519 35.07864
29.263309 -31.221903 34.547543
29.692074 -30.719902 32.460117
30.164976 -29.66045 30.605402
30.72146 -29.090542 28.640221
30.666105 -35.392059 27.020081
30.985546 -31.86331 26.898989
31.368286 -28.210587 26.665966
32.057606 -27.457605 24.686195
32.74107 -26.874805 22.750132
33.444683 -26.202557 20.78684
33.480991 -29.148462 18.969831
33.378864 -32.166977 16.990089
33.107018 -35.242306 14.893708
32.031998 -39.138458 16.896536
32.398544 -38.532246 14.856899
32.729095 -37.932598 12.786251
32.151215 -40.734661 10.512744
31.402889 -43.477345 8.262374
30.527617 -46.077114 5.87074
29.746674 -51.856323 16.983805
29.801046 -51.230824 14.74984
29.815514 -50.702152 12.511948
28.570705 -55.992332 10.138323
29.146685 -53.122272 10.211684
29.798143 -50.177437 10.245072
29.743553 -49.646545 7.915717
29.709173 -49.005531 5.876938
29.55352 -48.608948 3.650033
28.486759 -51.203629 1.529238
27.494003 -53.429256 -0.442847
26.490856 -55.464546 -2.560739
26.115044 -58.74572 -0.678356
25.837782 -58.008774 -2.618954
25.50663 -57.603027 -4.480554
24.717676 -59.390434 -6.085328
28.426571 -42.382648 -10.863597
27.581997 -45.493073 -10.652847
25.988726 -51.282478 -10.148618
27.478479 -49.309689 -6.535113
26.30698 -51.670593 -8.372715
27.580614 -73.55048 21.669992
27.750181 -72.223713 21.624408
27.750181 -72.223713 21.624408
27.914386 -70.95483 21.601136
27.879039 -71.238449 22.754819
24.841119 -70.786038 42.102202
25.00778 -69.717827 43.284905
25.190896 -71.177086 40.877573
24.841119 -70.786038 42.102202
31.307536 1.37895 32.355222
31.475531 3.380803 32.221266
31.131615 -0.686049 32.468653
31.4953 0.074769 31.650669
31.307536 1.37895 32.355222
27.506318 -41.61504 -13.858251
27.878197 -39.953485 -14.029474
28.22146 -40.190382 -13.043872
25.809146 -68.75188 2.483745
25.590997 -68.376106 1.366041
25.812918 -67.414257 2.4839
28.989764 -26.966371 35.90831
28.849645 -25.703804 36.664248
28.805425 -27.42026 36.925837
27.975387 -52.395021 50.144625
27.903964 -51.20849 51.183035
28.032344 -53.662484 49.112102
28.173283 -52.383917 48.917936
27.975387 -52.395021 50.144625
27.013167 -72.082157 32.58552
27.156305 -70.961334 33.866539
26.823474 -72.068905 33.844786
27.207486 -72.084976 31.367038
27.013167 -72.082157 32.58552
34.603054 6.814302 25.411395
34.775736 8.882506 25.169351
34.330145 8.246688 26.108308
34.405109 4.663747 25.650089
34.850701 5.299564 24.711131
34.603054 6.814302 25.411395
24.801046 -62.537347 -3.521189
24.660463 -63.786605 -3.573654
30.146468 -42.209423 -4.786471
30.760258 -40.885255 -3.826068
30.296931 -42.455236 -3.67816
29.484547 -43.629244 -5.702172
29.947874 -42.059263 -5.85008
30.146468 -42.209423 -4.786471
27.583866 -72.64431 16.737739
27.52921 -72.331695 15.538674
27.688712 -71.234948 16.789189
34.379903 -28.113798 15.888153
34.425337 -26.616711 16.945539
33.998894 -29.935727 15.94968
34.259153 -29.714269 14.911885
34.379903 -28.113798 15.888153
25.419853 -66.199261 46.826059
25.530945 -65.113972 47.867269
25.025021 -66.080536 47.816887
26.131355 -71.676682 37.41206
26.272273 -70.572479 38.703648
25.822707 -71.670716 38.513756
26.398474 -71.814258 36.274344
26.131355 -71.676682 37.41206
24.946622 -67.048798 -1.609019
24.718252 -66.686741 -2.658946
24.963448 -65.831112 -1.6483
28.490979 -21.895387 38.764519
28.364168 -22.47843 39.73116
29.030222 -20.570462 35.913658
28.812178 -21.077314 36.916522
28.957912 -22.340502 36.179232
29.26401 -20.00216 35.005838
29.118274 -18.738972 35.743128
29.030222 -20.570462 35.913658
28.739263 -46.738905 43.965807
28.664203 -45.543073 44.849272
28.657732 -46.914372 45.241604
32.28752 -39.114664 2.690345
32.790512 -37.739384 3.770499
26.619309 -70.111592 7.0842
26.420648 -69.825837 5.850898
26.630038 -68.877064 7.090649
28.538288 -29.961498 39.234616
28.537849 -28.46117 38.881971
34.464834 -31.904567 8.325122
34.787882 -30.326217 9.396406
34.356018 -32.053334 9.498849
34.090179 -33.436615 7.242801
34.464834 -31.904567 8.325122
33.642757 -35.095785 7.274324
33.699966 -34.900717 6.08956
34.090179 -33.436615 7.242801
28.423471 -48.496584 48.06786
28.466217 -47.139471 47.757456
26.794801 -61.956632 47.893282
26.447478 -61.75233 49.097845
26.391925 -63.041849 47.973968
27.604408 -71.871189 27.687425
27.740539 -70.766846 28.873092
27.512594 -71.895573 28.958046
27.714015 -71.750427 26.420989
27.604408 -71.871189 27.687425
33.214493 13.698459 28.971512
32.851175 12.751252 29.834792
34.431812 15.895801 26.155196
34.012095 15.284217 27.119393
34.322458 13.915868 26.38702
34.278877 -4.843003 24.616802
34.077005 -6.932212 24.69441
33.800039 -15.742039 23.460424
34.049925 -13.920999 23.291164
33.60875 -14.355042 24.262106
33.557026 -17.62968 23.534304
33.998201 -17.195636 22.563361
33.800039 -15.742039 23.460424
30.552132 -6.52812 33.016745
30.734583 -4.552679 32.855098
31.112653 -10.373152 30.890508
30.917659 -9.149746 31.600132
31.322717 -11.800506 30.148203
31.493378 -9.789894 30.056953
31.112653 -10.373152 30.890508
28.60389 -41.268595 43.794017
28.630859 -42.715939 44.196978
28.497089 -36.995474 42.741979
28.540156 -38.436752 42.994247
28.59855 -38.167799 41.902738
28.451035 -35.460049 42.43056
28.497089 -36.995474 42.741979
28.517164 -35.128756 41.297691
28.451035 -35.460049 42.43056
29.356455 -41.217327 -9.01058
29.541272 -41.604405 -7.976825
28.663163 -42.627352 -9.879808
29.119864 -40.972623 -9.994369
29.356455 -41.217327 -9.01058
26.970737 -48.643417 -9.423239
27.407531 -47.158665 -9.531224
27.595244 -47.371032 -8.576833
26.573588 -50.069131 -9.308733
26.385875 -49.856763 -10.263124
26.970737 -48.643417 -9.423239
25.429087 -54.072748 -9.042959
25.795298 -52.775241 -9.143771
25.940769 -52.968099 -8.271903
25.134864 -55.26218 -8.879051
25.429087 -54.072748 -9.042959
27.618496 -72.838097 18.047528
27.764448 -71.743828 19.229489
27.919747 -70.639415 20.396988
28.048605 -69.654151 21.5274
27.914386 -70.95483 21.601136
27.764448 -71.743828 19.229489
27.898668 -70.44315 19.155753
27.919747 -70.639415 20.396988
34.111771 -26.859803 17.954766
34.425337 -26.616711 16.945539
25.151133 -68.539208 44.508007
25.298173 -67.385776 45.698695
24.766889 -68.319256 45.58499
25.539065 -68.784347 43.39861
25.151133 -68.539208 44.508007
25.00778 -69.717827 43.284905
25.474853 -71.478859 39.692492
25.679668 -70.26474 40.990426
25.190896 -71.177086 40.877573
25.822707 -71.670716 38.513756
25.474853 -71.478859 39.692492
31.639432 5.363181 32.085653
31.812905 7.381399 31.903763
31.453314 6.640056 32.723402
31.835122 4.122145 31.401626
31.639432 5.363181 32.085653
31.475531 3.380803 32.221266
27.483574 -39.713413 -15.039675
27.878197 -39.953485 -14.029474
26.79441 -40.985218 -15.831846
27.483574 -39.713413 -15.039675
25.363804 -67.969673 0.314557
25.162329 -67.547016 -0.667728
25.393293 -66.615826 0.383911
25.363804 -67.969673 0.314557
25.590997 -68.376106 1.366041
28.702587 -24.502524 37.431934
28.59136 -23.242427 38.123514
28.554079 -24.897596 38.373354
28.886926 -24.048634 36.414408
28.702587 -24.502524 37.431934
28.849645 -25.703804 36.664248
26.95196 -70.918637 9.415188
26.795358 -70.553116 8.260351
26.985301 -69.52834 9.478787
26.916723 -72.278756 9.47047
26.95196 -70.918637 9.415188
27.106665 -71.253979 10.688906
26.939882 -73.565041 9.578152
26.916723 -72.278756 9.47047
34.479732 -30.84192 11.652555
34.871832 -29.028517 11.648042
34.672499 -29.395452 12.730463
28.051288 -49.974813 50.858122
27.903964 -51.20849 51.183035
28.211062 -49.872124 49.618082
28.051288 -49.974813 50.858122
28.276674 -51.104158 48.643215
28.371409 -49.859827 48.310839
28.211062 -49.872124 49.618082
27.358849 -71.993298 30.135258
27.49736 -70.882908 31.375493
27.207486 -72.084976 31.367038
27.512594 -71.895573 28.958046
27.358849 -71.993298 30.135258
34.622501 12.421173 25.644544
34.322458 13.915868 26.38702
34.202784 11.809588 26.60874
34.931769 11.076324 24.913896
34.622501 12.421173 25.644544
34.931769 11.076324 24.913896
34.775736 8.882506 25.169351
35.1205 3.619358 23.949352
34.850701 5.299564 24.711131
34.90242 1.490109 24.174328
35.1205 3.619358 23.949352
33.880106 -8.869573 24.790851
34.077005 -6.932212 24.69441
33.642669 -7.284353 25.606233
33.652203 -10.877858 24.897759
34.086539 -10.525716 23.985937
33.880106 -8.869573 24.790851
24.986414 -61.309614 -3.507002
25.165177 -61.657345 -2.587785
24.801046 -62.537347 -3.521189
24.810664 -61.075498 -4.428545
25.174793 -60.195495 -3.49514
24.986414 -61.309614 -3.507002
24.647626 -60.765703 -5.282013
24.810664 -61.075498 -4.428545
31.3938 -39.518074 -2.793764
31.529459 -39.722037 -1.615318
31.3938 -39.518074 -2.793764
30.760258 -40.885255 -3.826068
29.734371 -41.907919 -6.911706
29.947874 -42.059263 -5.85008
29.092854 -43.17557 -7.830901
29.541272 -41.604405 -7.976825
29.734371 -41.907919 -6.911706
25.480432 -55.507294 -7.039803
25.299983 -55.395197 -7.979173
25.755007 -54.377702 -7.23172
25.134618 -56.825138 -6.96206
25.480432 -55.507294 -7.039803
25.589643 -55.807643 -6.214608
24.868541 -57.930414 -6.903292
25.134618 -56.825138 -6.96206
27.466656 -72.002678 14.385741
27.355631 -71.813072 13.121696
27.523031 -70.732727 14.326079
27.466656 -72.002678 14.385741
27.52921 -72.331695 15.538674
27.583866 -72.64431 16.737739
27.618496 -72.838097 18.047528
34.460281 -29.550598 13.792667
34.672499 -29.395452 12.730463
34.079271 -31.372526 13.854194
34.460281 -29.550598 13.792667
34.259153 -29.714269 14.911885
25.985189 -64.035122 48.027487
25.530945 -65.113972 47.867269
26.332512 -64.239424 46.822924
26.391925 -63.041849 47.973968
25.985189 -64.035122 48.027487
26.591319 -71.999077 35.03627
26.773767 -70.763263 36.363878
26.398474 -71.814258 36.274344
26.823474 -72.068905 33.844786
26.591319 -71.999077 35.03627
32.72071 10.74519 29.994693
32.851175 12.751252 29.834792
32.168356 7.992163 31.057714
31.982238 9.269039 31.695463
31.812905 7.381399 31.903763
32.565444 8.683247 30.188894
32.168356 7.992163 31.057714
32.396112 6.795606 30.397194
32.948467 9.548633 29.334173
32.72071 10.74519 29.994693
32.565444 8.683247 30.188894
24.492775 -66.359261 -3.631384
24.538097 -65.078594 -3.621782
24.492775 -66.359261 -3.631384
24.718252 -66.686741 -2.658946
24.946622 -67.048798 -1.609019
25.162329 -67.547016 -0.667728
28.639487 -21.500315 37.823099
28.490979 -21.895387 38.764519
28.59136 -23.242427 38.123514
28.639487 -21.500315 37.823099
28.812178 -21.077314 36.916522
29.231645 -16.865432 35.474619
29.118274 -18.738972 35.743128
29.478238 -16.284043 34.651668
29.231645 -16.865432 35.474619
29.626877 -17.67511 33.979824
29.753052 -15.788483 33.796184
29.478238 -16.284043 34.651668
28.653903 -44.147833 44.494074
28.664203 -45.543073 44.849272
28.722689 -43.935713 43.276378
28.630859 -42.715939 44.196978
28.653903 -44.147833 44.494074
24.538097 -65.078594 -3.621782
24.660463 -63.786605 -3.573654
24.857444 -64.177066 -2.6501
31.730171 -40.580244 1.575854
32.28752 -39.114664 2.690345
31.783842 -40.762829 2.691401
31.664739 -40.304405 0.480548
31.730171 -40.580244 1.575854
31.161061 -41.95257 0.481605
31.621913 -39.994867 -0.563289
31.664739 -40.304405 0.480548
31.003175 -41.4039 -1.665729
31.529459 -39.722037 -1.615318
31.621913 -39.994867 -0.563289
24.500224 -66.833489 47.828572
25.025021 -66.080536 47.816887
24.376821 -67.977257 46.613966
24.500224 -66.833489 47.828572
23.963116 -67.644921 47.66686
24.766889 -68.319256 45.58499
24.376821 -67.977257 46.613966
27.212055 -43.06697 -13.681688
27.456608 -43.470354 -12.731848
26.215916 -69.482681 4.674632
26.01576 -69.082043 3.546761
26.231222 -68.19067 4.729475
26.215916 -69.482681 4.674632
26.420648 -69.825837 5.850898
26.619309 -70.111592 7.0842
26.795358 -70.553116 8.260351
27.185341 -72.84856 11.962772
27.241717 -71.578609 11.903111
27.355631 -71.813072 13.121696
27.05059 -73.946537 10.745638
27.185341 -72.84856 11.962772
27.164504 -74.180999 11.964223
26.939882 -73.565041 9.578152
27.05059 -73.946537 10.745638
28.337666 -24.166138 40.071741
28.364168 -22.47843 39.73116
28.430428 -25.45744 39.35204
28.337666 -24.166138 40.071741
28.554079 -24.897596 38.373354
28.430428 -25.45744 39.35204
28.661499 -27.901326 37.903286
28.537849 -28.46117 38.881971
28.801619 -29.163892 37.147348
28.805425 -27.42026 36.925837
28.661499 -27.901326 37.903286
35.06666 -28.771389 10.521179
34.871832 -29.028517 11.648042
35.06666 -28.771389 10.521179
34.787882 -30.326217 9.396406
33.246189 -36.370703 4.928096
33.699966 -34.900717 6.08956
32.796867 -37.928568 4.963487
32.790512 -37.739384 3.770499
33.246189 -36.370703 4.928096
27.515462 -73.718365 22.898267
27.655255 -72.632862 24.008798
28.561909 -47.041958 46.487542
28.466217 -47.139471 47.757456
28.636969 -48.237789 45.604077
28.657732 -46.914372 45.241604
28.561909 -47.041958 46.487542
28.489083 -49.728619 47.092993
28.423471 -48.496584 48.06786
28.371409 -49.859827 48.310839
26.498785 -60.567314 50.111847
26.095908 -61.65253 50.192533
26.447478 -61.75233 49.097845
26.854778 -59.49175 50.032797
26.498785 -60.567314 50.111847
27.137358 -58.402805 49.95771
26.854778 -59.49175 50.032797
27.132935 -59.578169 48.942072
27.417959 -57.31064 49.77448
27.137358 -58.402805 49.95771
27.657333 -56.168619 49.521795
27.417959 -57.31064 49.77448
27.654888 -57.347202 48.6143
27.864355 -54.939385 49.350203
27.657333 -56.168619 49.521795
28.062251 -54.92828 48.123514
28.032344 -53.662484 49.112102
27.864355 -54.939385 49.350203
27.788744 -71.549198 25.185284
27.907083 -70.541233 26.366767
27.714015 -71.750427 26.420989
27.655255 -72.632862 24.008798
27.848323 -71.423668 23.954577
27.788744 -71.549198 25.185284
33.613996 14.545312 28.077135
33.214493 13.698459 28.971512
33.503236 12.45743 28.245594
33.613996 14.545312 28.077135
34.012095 15.284217 27.119393
34.674177 -0.678655 24.389209
34.90242 1.490109 24.174328
34.424513 0.980245 25.164707
34.457228 -2.763766 24.5517
34.017919 -3.267756 25.444691
34.278877 -4.843003 24.616802
34.674177 -0.678655 24.389209
34.457228 -2.763766 24.5517
34.293627 -11.933445 23.19819
34.086539 -10.525716 23.985937
34.293627 -11.933445 23.19819
34.049925 -13.920999 23.291164
34.146627 -18.715713 21.704055
33.998201 -17.195636 22.563361
33.864762 -20.690849 21.76195
34.146627 -18.715713 21.704055
26.868792 -42.830074 -14.66729
27.506318 -41.61504 -13.858251
27.212055 -43.06697 -13.681688
26.516396 -42.514263 -15.681974
26.868792 -42.830074 -14.66729
26.147752 -42.121338 -16.669967
26.79441 -40.985218 -15.831846
26.516396 -42.514263 -15.681974
25.809146 -68.75188 2.483745
26.01576 -69.082043 3.546761
27.580614 -73.55048 21.669992
27.515462 -73.718365 22.898267
30.948693 -2.59591 32.639549
31.131615 -0.686049 32.468653
30.760928 -1.291729 33.344103
31.105269 -3.946999 31.979648
30.948693 -2.59591 32.639549
30.734583 -4.552679 32.855098
30.721581 -7.92036 32.298102
30.552132 -6.52812 33.016745
31.087236 -7.133155 31.497228
30.721581 -7.92036 32.298102
30.917659 -9.149746 31.600132
30.050842 -15.361903 32.952947
29.753052 -15.788483 33.796184
30.387575 -14.827471 32.063564
30.050842 -15.361903 32.952947
30.238424 -16.645117 32.234956
30.758575 -14.247224 31.163665
30.387575 -14.827471 32.063564
31.132167 -13.7865 30.270916
30.758575 -14.247224 31.163665
30.948749 -15.64996 30.452823
31.512892 -13.203242 29.437361
31.322717 -11.800506 30.148203
31.132167 -13.7865 30.270916
33.60713 -22.6904 21.801685
33.864762 -20.690849 21.76195
33.497557 -21.082828 22.676977
28.574876 -39.821224 43.381879
28.60389 -41.268595 43.794017
28.670631 -41.056448 42.567144
28.574876 -39.821224 43.381879
28.540156 -38.436752 42.994247
28.599485 -34.708285 40.106346
28.517164 -35.128756 41.297691
28.637803 -36.30605 40.459125
28.573318 -33.127685 39.838822
28.599485 -34.708285 40.106346
28.693956 -34.304979 39.000256
28.543336 -31.501209 39.538582
28.573318 -33.127685 39.838822
28.66274 -31.184669 38.428764
28.538288 -29.961498 39.234616
28.543336 -31.501209 39.538582
33.709509 -24.250488 20.836749
33.60713 -22.6904 21.801685
33.342304 -24.642468 21.751776
33.77429 -25.793454 19.885212
33.709509 -24.250488 20.836749
33.792444 -27.266407 18.976707
33.77429 -25.793454 19.885212
33.462837 -27.675509 19.878335
33.800318 -28.741858 17.94789
34.111771 -26.859803 17.954766
33.792444 -27.266407 18.976707
24.605465 -59.062887 -6.877523
24.868541 -57.930414 -6.903292
24.980752 -58.257961 -6.111097
24.506943 -60.48023 -6.116335
24.858359 -59.675907 -5.251005
24.647626 -60.765703 -5.282013
24.381827 -60.133966 -6.874379
24.506943 -60.48023 -6.116335
24.605465 -59.062887 -6.877523
24.381827 -60.133966 -6.874379
28.487877 -40.642955 -12.060381
28.22146 -40.190382 -13.043872
28.776372 -40.908311 -11.055855
29.119864 -40.972623 -9.994369
28.138076 -42.117292 -11.868123
28.487877 -40.642955 -12.060381
28.776372 -40.908311 -11.055855
27.745103 -43.73571 -11.727322
27.456608 -43.470354 -12.731848
28.138076 -42.117292 -11.868123
27.322816 -45.290923 -11.621947
27.745103 -43.73571 -11.727322
28.004284 -43.93786 -10.758222
26.980063 -46.734099 -11.428579
27.322816 -45.290923 -11.621947
27.18251 -46.962061 -10.515238
27.807018 -45.689677 -9.668833
27.407531 -47.158665 -9.531224
26.980063 -46.734099 -11.428579
27.18251 -46.962061 -10.515238
25.834559 -51.037287 -11.005665
26.385875 -49.856763 -10.263124
25.48189 -52.401258 -10.898308
25.834559 -51.037287 -11.005665
25.63617 -52.581184 -10.031723
26.147853 -51.476535 -9.260666
25.795298 -52.775241 -9.143771
25.48189 -52.401258 -10.898308
25.63617 -52.581184 -10.031723
25.134864 -55.26218 -8.879051
25.299983 -55.395197 -7.979173
3 0 392 393
3 0 101 99
3 0 394 396
3 396 395 101
3 394 395 396
3 397 104 398
3 400 399 104
3 401 107 402
3 403 109 404
3 405 404 107
3 403 404 405
3 2 406 408
3 406 110 407
3 406 407 408
3 3 409 411
3 411 410 111
3 409 410 411
3 4 412 414
3 412 113 413
3 412 413 414
3 4 115 113
3 1 118 116
3 5 121 119
3 5 123 121
3 5 125 123
3 3 128 126
3 3 111 128
3 6 132 130
3 6 134 132
3 7 136 135
3 8 139 137
3 10 142 140
3 10 144 142
3 10 146 144
3 7 149 147
3 7 135 149
3 12 153 151
3 12 155 153
3 415 156 416
3 417 158 418
3 419 418 156
3 417 418 419
3 13 161 159
3 13 163 161
3 13 165 163
3 420 168 421
3 422 421 166
3 420 421 422
3 424 423 168
3 14 172 170
3 14 425 427
3 427 426 172
3 425 426 427
3 14 428 430
3 428 173 429
3 428 429 430
3 15 176 174
3 15 178 176
3 16 181 179
3 16 183 181
3 17 186 184
3 17 188 186
3 9 191 189
3 18 194 192
3 18 196 194
3 18 198 196
3 19 201 199
3 19 203 201
3 19 205 203
3 20 208 206
3 20 210 208
3 11 213 211
3 21 216 214
3 21 218 216
3 21 220 218
3 432 431 221
3 23 433 435
3 435 434 223
3 433 434 435
3 23 436 438
3 436 224 437
3 436 437 438
3 23 226 224
3 22 229 227
3 22 230 229
3 24 439 441
3 441 440 231
3 439 440 441
3 25 234 232
3 27 235 100
3 27 236 235
3 27 238 236
3 24 239 102
3 24 231 239
3 29 442 443
3 29 444 446
3 444 240 445
3 444 445 446
3 30 447 449
3 447 241 448
3 447 448 449
3 32 242 103
3 32 243 242
3 32 245 243
3 450 246 451
3 452 451 105
3 450 451 452
3 454 453 246
3 35 247 106
3 35 248 247
3 35 250 248
3 37 251 108
3 37 252 251
3 38 455 457
3 457 456 253
3 455 456 457
3 39 458 459
3 40 460 462
3 462 461 112
3 460 461 462
3 40 463 465
3 463 254 464
3 463 464 465
3 40 256 254
3 42 257 114
3 42 258 257
3 43 466 468
3 466 259 467
3 466 467 468
3 45 260 117
3 45 261 260
3 46 264 262
3 48 265 120
3 48 266 265
3 48 268 266
3 50 269 122
3 50 270 269
3 50 272 270
3 52 273 124
3 52 274 273
3 53 277 275
3 55 278 127
3 55 279 278
3 55 281 279
3 38 282 129
3 38 253 282
3 57 469 470
3 58 283 131
3 58 284 283
3 58 286 284
3 60 287 133
3 60 288 287
3 61 471 473
3 473 472 289
3 471 472 473
3 474 290 475
3 62 293 291
3 64 294 138
3 64 295 294
3 26 296 233
3 65 297 141
3 65 298 297
3 65 299 298
3 66 300 143
3 66 301 300
3 66 303 301
3 68 304 145
3 68 305 304
3 28 306 237
3 69 307 148
3 69 308 307
3 69 309 308
3 61 310 150
3 61 289 310
3 70 476 478
3 478 477 152
3 476 477 478
3 70 479 480
3 70 481 483
3 481 311 482
3 481 482 483
3 71 312 154
3 71 313 312
3 484 314 485
3 72 315 157
3 72 316 315
3 31 486 488
3 486 317 487
3 486 487 488
3 73 318 160
3 73 319 318
3 73 320 319
3 74 321 162
3 74 322 321
3 74 323 322
3 75 324 164
3 75 325 324
3 33 326 244
3 76 327 167
3 76 328 327
3 76 329 328
3 489 330 490
3 491 490 169
3 489 490 491
3 493 492 330
3 34 494 495
3 498 497 171
3 496 497 498
3 36 331 249
3 500 499 175
3 77 501 503
3 503 502 177
3 501 502 503
3 77 504 506
3 504 332 505
3 504 505 506
3 507 333 508
3 509 334 510
3 511 335 512
3 513 512 334
3 511 512 513
3 41 336 255
3 78 337 180
3 78 338 337
3 78 339 338
3 79 340 182
3 79 341 340
3 44 514 515
3 80 516 518
3 518 517 185
3 516 517 518
3 80 519 520
3 80 521 522
3 81 342 187
3 81 343 342
3 63 344 292
3 82 345 190
3 82 346 345
3 47 347 263
3 83 348 193
3 83 349 348
3 83 350 349
3 84 351 195
3 84 352 351
3 84 353 352
3 85 354 197
3 85 355 354
3 49 356 267
3 86 357 200
3 86 358 357
3 86 359 358
3 87 360 202
3 87 361 360
3 87 362 361
3 88 363 204
3 88 364 363
3 51 365 271
3 89 366 207
3 89 367 366
3 89 368 367
3 90 369 209
3 90 370 369
3 67 371 302
3 91 372 212
3 91 373 372
3 54 374 276
3 92 375 215
3 92 376 375
3 92 377 376
3 93 378 217
3 93 379 378
3 93 380 379
3 94 381 219
3 94 382 381
3 56 383 280
3 95 384 222
3 95 385 384
3 95 386 385
3 96 523 524
3 96 525 527
3 525 387 526
3 525 526 527
3 96 388 387
3 97 528 530
3 530 529 225
3 528 529 530
3 97 531 533
3 531 389 532
3 531 532 533
3 59 390 285
3 98 391 228
3 98 534 536
3 536 535 391
3 534 535 536
3 98 537 538
3 540 539 24
3 99 100 25
3 101 100 99
3 101 27 100
3 101 102 27
3 541 102 542
3 543 542 101
3 541 542 543
3 544 24 545
3 546 545 102
3 544 545 546
3 547 29 548
3 549 103 550
3 551 550 30
3 549 550 551
3 104 552 554
3 552 103 553
3 552 553 554
3 104 32 103
3 104 105 32
3 555 105 556
3 557 556 104
3 555 556 557
3 559 558 105
3 560 106 561
3 560 561 562
3 107 563 565
3 563 106 564
3 563 564 565
3 107 35 106
3 107 108 35
3 109 108 107
3 109 37 108
3 110 566 567
3 110 568 569
3 111 570 572
3 572 571 38
3 570 571 572
3 574 573 111
3 575 112 576
3 577 576 39
3 575 576 577
3 113 578 580
3 578 112 579
3 578 579 580
3 113 40 112
3 113 114 40
3 115 114 113
3 115 42 114
3 116 117 43
3 118 117 116
3 118 45 117
3 119 120 46
3 121 120 119
3 121 48 120
3 121 122 48
3 123 122 121
3 123 50 122
3 123 124 50
3 125 124 123
3 125 52 124
3 126 127 53
3 128 127 126
3 128 55 127
3 128 129 55
3 111 129 128
3 111 38 129
3 130 131 57
3 132 131 130
3 132 58 131
3 132 133 58
3 134 133 132
3 134 60 133
3 135 581 583
3 583 582 61
3 581 582 583
3 136 584 586
3 586 585 135
3 584 585 586
3 136 587 588
3 137 138 62
3 139 138 137
3 139 64 138
3 140 141 26
3 142 141 140
3 142 65 141
3 142 143 65
3 144 143 142
3 144 66 143
3 144 145 66
3 146 145 144
3 146 68 145
3 147 148 28
3 149 148 147
3 149 69 148
3 149 150 69
3 135 150 149
3 135 61 150
3 151 589 591
3 589 152 590
3 589 590 591
3 153 152 151
3 153 70 152
3 153 154 70
3 155 154 153
3 155 71 154
3 156 592 593
3 156 594 595
3 156 596 598
3 596 157 597
3 596 597 598
3 158 157 156
3 158 72 157
3 159 160 31
3 161 160 159
3 161 73 160
3 161 162 73
3 163 162 161
3 163 74 162
3 163 164 74
3 165 164 163
3 165 75 164
3 166 167 33
3 168 167 166
3 168 76 167
3 168 169 76
3 599 169 600
3 601 600 168
3 599 600 601
3 603 602 169
3 170 171 34
3 172 171 170
3 172 604 606
3 606 605 171
3 604 605 606
3 172 607 608
3 610 609 172
3 173 611 612
3 173 613 614
3 174 175 36
3 176 175 174
3 176 615 617
3 617 616 175
3 615 616 617
3 176 618 620
3 618 177 619
3 618 619 620
3 178 177 176
3 178 77 177
3 179 180 41
3 181 180 179
3 181 78 180
3 181 182 78
3 183 182 181
3 183 79 182
3 184 185 44
3 186 185 184
3 186 80 185
3 186 187 80
3 188 187 186
3 188 81 187
3 189 190 63
3 191 190 189
3 191 82 190
3 192 193 47
3 194 193 192
3 194 83 193
3 194 195 83
3 196 195 194
3 196 84 195
3 196 197 84
3 198 197 196
3 198 85 197
3 199 200 49
3 201 200 199
3 201 86 200
3 201 202 86
3 203 202 201
3 203 87 202
3 203 204 87
3 205 204 203
3 205 88 204
3 206 207 51
3 208 207 206
3 208 89 207
3 208 209 89
3 210 209 208
3 210 90 209
3 211 212 67
3 213 212 211
3 213 91 212
3 214 215 54
3 216 215 214
3 216 92 215
3 216 217 92
3 218 217 216
3 218 93 217
3 218 219 93
3 220 219 218
3 220 94 219
3 221 222 56
3 621 222 622
3 623 622 221
3 621 622 623
3 624 95 625
3 626 625 222
3 624 625 626
3 628 627 95
3 223 629 630
3 632 631 223
3 224 633 634
3 224 635 637
3 635 96 636
3 635 636 637
3 224 225 96
3 226 225 224
3 226 97 225
3 227 228 59
3 229 228 227
3 229 98 228
3 229 638 640
3 640 639 98
3 638 639 640
3 230 641 643
3 643 642 229
3 641 642 643
3 230 644 645
3 231 646 648
3 648 647 7
3 646 647 648
3 650 649 231
3 652 651 24
3 232 233 8
3 234 233 232
3 234 26 233
3 100 234 25
3 235 234 100
3 235 26 234
3 235 140 26
3 236 140 235
3 236 10 140
3 236 237 10
3 238 237 236
3 238 28 237
3 102 238 27
3 239 238 102
3 239 28 238
3 239 147 28
3 231 147 239
3 231 7 147
3 653 151 654
3 240 655 657
3 655 151 656
3 655 656 657
3 240 12 151
3 241 658 659
3 241 660 662
3 660 31 661
3 660 661 662
3 103 241 30
3 242 241 103
3 242 31 241
3 242 159 31
3 243 159 242
3 243 13 159
3 243 244 13
3 245 244 243
3 245 33 244
3 105 245 32
3 246 245 105
3 246 33 245
3 246 166 33
3 663 166 664
3 665 664 246
3 663 664 665
3 667 666 166
3 668 34 669
3 106 670 672
3 670 671 672
3 247 673 675
3 675 674 106
3 673 674 675
3 247 676 678
3 676 34 677
3 676 677 678
3 247 170 34
3 248 170 247
3 248 14 170
3 248 249 14
3 250 249 248
3 250 36 249
3 108 250 35
3 251 250 108
3 251 36 250
3 251 174 36
3 252 174 251
3 252 15 174
3 253 679 680
3 682 681 253
3 684 683 38
3 112 685 687
3 687 686 39
3 685 686 687
3 689 688 112
3 254 690 691
3 254 692 693
3 254 694 696
3 694 255 695
3 694 695 696
3 256 255 254
3 256 41 255
3 114 256 40
3 257 256 114
3 257 41 256
3 257 179 41
3 258 179 257
3 258 16 179
3 259 697 698
3 259 699 701
3 699 44 700
3 699 700 701
3 117 259 43
3 260 259 117
3 260 44 259
3 260 184 44
3 261 184 260
3 261 17 184
3 262 263 9
3 264 263 262
3 264 47 263
3 120 264 46
3 265 264 120
3 265 47 264
3 265 192 47
3 266 192 265
3 266 18 192
3 266 267 18
3 268 267 266
3 268 49 267
3 122 268 48
3 269 268 122
3 269 49 268
3 269 199 49
3 270 199 269
3 270 19 199
3 270 271 19
3 272 271 270
3 272 51 271
3 124 272 50
3 273 272 124
3 273 51 272
3 273 206 51
3 274 206 273
3 274 20 206
3 275 276 11
3 277 276 275
3 277 54 276
3 127 277 53
3 278 277 127
3 278 54 277
3 278 214 54
3 279 214 278
3 279 21 214
3 279 280 21
3 281 280 279
3 281 56 280
3 129 281 55
3 282 281 129
3 282 56 281
3 282 221 56
3 253 221 282
3 253 702 704
3 704 703 221
3 702 703 704
3 131 705 707
3 707 706 57
3 705 706 707
3 283 708 710
3 710 709 131
3 708 709 710
3 283 711 712
3 283 713 715
3 713 223 714
3 713 714 715
3 284 223 283
3 284 23 223
3 284 285 23
3 286 285 284
3 286 59 285
3 133 286 58
3 287 286 133
3 287 59 286
3 287 227 59
3 288 227 287
3 288 22 227
3 716 30 717
3 718 30 719
3 718 719 720
3 722 721 30
3 724 723 2
3 289 725 727
3 727 726 3
3 725 726 727
3 729 728 289
3 731 730 61
3 732 136 733
3 734 733 7
3 732 733 734
3 735 136 736
3 735 736 737
3 739 738 136
3 740 39 741
3 742 39 743
3 745 744 39
3 290 746 747
3 290 748 750
3 748 4 749
3 748 749 750
3 291 292 1
3 293 292 291
3 293 63 292
3 138 293 62
3 294 293 138
3 294 63 293
3 294 189 63
3 295 189 294
3 295 9 189
3 233 139 8
3 296 139 233
3 296 64 139
3 141 296 26
3 297 296 141
3 297 64 296
3 297 295 64
3 298 295 297
3 298 9 295
3 298 262 9
3 299 262 298
3 299 46 262
3 143 299 65
3 300 299 143
3 300 46 299
3 300 119 46
3 301 119 300
3 301 5 119
3 301 302 5
3 303 302 301
3 303 67 302
3 145 303 66
3 304 303 145
3 304 67 303
3 304 211 67
3 305 211 304
3 305 11 211
3 237 146 10
3 306 146 237
3 306 68 146
3 148 306 28
3 307 306 148
3 307 68 306
3 307 305 68
3 308 305 307
3 308 11 305
3 308 275 11
3 309 275 308
3 309 53 275
3 150 309 69
3 310 309 150
3 310 53 309
3 310 126 53
3 289 126 310
3 289 3 126
3 152 751 752
3 754 753 152
3 311 755 756
3 311 757 759
3 757 57 758
3 757 758 759
3 154 311 70
3 312 311 154
3 312 57 311
3 312 130 57
3 313 130 312
3 313 6 130
3 761 760 0
3 314 762 763
3 314 764 766
3 764 43 765
3 764 765 766
3 157 767 769
3 767 314 768
3 767 768 769
3 315 314 157
3 315 43 314
3 315 116 43
3 316 116 315
3 316 1 116
3 317 770 772
3 770 771 772
3 317 773 774
3 160 317 31
3 318 317 160
3 318 775 777
3 777 776 317
3 775 776 777
3 318 778 779
3 319 780 782
3 782 781 318
3 780 781 782
3 319 783 784
3 319 785 787
3 785 158 786
3 785 786 787
3 320 158 319
3 320 72 158
3 162 320 73
3 321 320 162
3 321 72 320
3 321 316 72
3 322 316 321
3 322 1 316
3 322 291 1
3 323 291 322
3 323 62 291
3 164 323 74
3 324 323 164
3 324 62 323
3 324 137 62
3 325 137 324
3 325 8 137
3 244 165 13
3 326 165 244
3 326 75 165
3 167 326 33
3 327 326 167
3 327 75 326
3 327 325 75
3 328 325 327
3 328 8 325
3 328 232 8
3 329 232 328
3 329 25 232
3 169 329 76
3 330 329 169
3 330 25 329
3 330 99 25
3 788 99 789
3 790 789 330
3 788 789 790
3 791 0 792
3 793 792 99
3 791 792 793
3 171 794 796
3 796 795 34
3 794 795 796
3 798 797 171
3 249 173 14
3 331 173 249
3 331 799 801
3 801 800 173
3 799 800 801
3 175 331 36
3 802 331 803
3 804 803 175
3 802 803 804
3 806 805 331
3 177 807 808
3 810 809 177
3 332 811 812
3 332 813 814
3 815 110 816
3 817 816 2
3 815 816 817
3 818 110 819
3 822 821 110
3 820 821 822
3 824 823 3
3 826 825 0
3 827 109 828
3 827 828 829
3 333 830 832
3 830 109 831
3 830 831 832
3 333 37 109
3 833 333 834
3 334 835 837
3 835 333 836
3 835 836 837
3 334 37 333
3 334 252 37
3 335 252 334
3 335 15 252
3 255 838 839
3 336 840 842
3 842 841 255
3 840 841 842
3 336 843 844
3 180 336 41
3 337 336 180
3 337 845 847
3 847 846 336
3 845 846 847
3 337 848 850
3 848 335 849
3 848 849 850
3 338 335 337
3 338 15 335
3 338 178 15
3 339 178 338
3 339 77 178
3 182 339 78
3 340 339 182
3 340 77 339
3 340 332 77
3 341 332 340
3 341 851 853
3 853 852 332
3 851 852 853
3 185 854 856
3 856 855 44
3 854 855 856
3 858 857 185
3 187 859 861
3 861 860 80
3 859 860 861
3 342 862 864
3 864 863 187
3 862 863 864
3 342 865 866
3 342 867 869
3 867 290 868
3 867 868 869
3 343 290 342
3 343 4 290
3 292 118 1
3 344 118 292
3 344 45 118
3 190 344 63
3 345 344 190
3 345 45 344
3 345 261 45
3 346 261 345
3 346 17 261
3 263 191 9
3 347 191 263
3 347 82 191
3 193 347 47
3 348 347 193
3 348 82 347
3 348 346 82
3 349 346 348
3 349 17 346
3 349 188 17
3 350 188 349
3 350 81 188
3 195 350 83
3 351 350 195
3 351 81 350
3 351 343 81
3 352 343 351
3 352 4 343
3 352 115 4
3 353 115 352
3 353 42 115
3 197 353 84
3 354 353 197
3 354 42 353
3 354 258 42
3 355 258 354
3 355 16 258
3 267 198 18
3 356 198 267
3 356 85 198
3 200 356 49
3 357 356 200
3 357 85 356
3 357 355 85
3 358 355 357
3 358 16 355
3 358 183 16
3 359 183 358
3 359 79 183
3 202 359 86
3 360 359 202
3 360 79 359
3 360 341 79
3 361 341 360
3 361 870 872
3 872 871 341
3 870 871 872
3 361 873 874
3 362 875 877
3 877 876 361
3 875 876 877
3 362 878 880
3 878 29 879
3 878 879 880
3 204 362 87
3 363 362 204
3 363 29 362
3 363 240 29
3 364 240 363
3 364 12 240
3 271 205 19
3 365 205 271
3 365 88 205
3 207 365 51
3 366 365 207
3 366 88 365
3 366 364 88
3 367 364 366
3 367 12 364
3 367 155 12
3 368 155 367
3 368 71 155
3 209 368 89
3 369 368 209
3 369 71 368
3 369 313 71
3 370 313 369
3 370 6 313
3 302 125 5
3 371 125 302
3 371 52 125
3 212 371 67
3 372 371 212
3 372 52 371
3 372 274 52
3 373 274 372
3 373 20 274
3 276 213 11
3 374 213 276
3 374 91 213
3 215 374 54
3 375 374 215
3 375 91 374
3 375 373 91
3 376 373 375
3 376 20 373
3 376 210 20
3 377 210 376
3 377 90 210
3 217 377 92
3 378 377 217
3 378 90 377
3 378 370 90
3 379 370 378
3 379 6 370
3 379 134 6
3 380 134 379
3 380 60 134
3 219 380 93
3 381 380 219
3 381 60 380
3 381 288 60
3 382 288 381
3 382 22 288
3 280 220 21
3 383 220 280
3 383 94 220
3 222 383 56
3 384 383 222
3 384 94 383
3 384 382 94
3 385 382 384
3 385 22 382
3 385 230 22
3 386 230 385
3 386 881 883
3 883 882 230
3 881 882 883
3 884 386 885
3 886 885 95
3 884 885 886
3 887 386 888
3 890 889 386
3 891 2 892
3 387 893 894
3 387 895 897
3 895 2 896
3 895 896 897
3 387 898 900
3 900 899 2
3 898 899 900
3 388 901 903
3 903 902 387
3 901 902 903
3 388 904 905
3 225 388 96
3 906 388 907
3 908 907 225
3 906 907 908
3 910 909 388
3 389 911 912
3 389 913 914
3 285 226 23
3 390 226 285
3 390 97 226
3 228 390 59
3 391 390 228
3 391 97 390
3 391 389 97
3 915 389 916
3 917 916 391
3 915 916 917
3 919 918 389
3 921 920 98
