ply
format ascii 1.0
element vertex 381
property float x
property float y
property float z
element face 353
property list uchar int vertex_index
end_header
5.290642 92.216187 13.272218
-1.238522 98.245697 -6.819683
2.545226 95.914993 4.384449
8.411523 103.935837 -5.295657
-3.82166 75.830513 22.946648
3.70708 83.655731 21.84166
4.156519 94.127647 9.295656
6.596077 98.236145 5.362895
2.372161 89.791832 13.402618
0.439478 91.46373 8.83088
-3.058753 98.472717 -12.488165
1.902848 101.947395 -12.238676
-3.719533 93.989616 -1.438025
-5.889757 94.488991 -6.922797
-4.846037 70.106804 27.308802
-0.078989 79.894012 22.405714
0.738994 97.389542 -1.089141
3.489361 101.404915 -6.326842
5.32098 100.30748 -0.426163
-1.742771 92.876678 3.718219
-7.43575 71.803856 22.992861
0.993602 85.150833 17.672796
4.716454 88.632858 17.153891
6.297473 93.782425 12.113779
4.779557 93.114494 11.496208
5.875546 95.027107 9.840781
4.022714 91.217377 13.288063
3.169619 92.048309 11.227593
-2.125009 98.48909 -9.705277
-0.712253 100.206894 -12.430669
0.29399 100.197754 -9.470554
-2.516292 96.220543 -4.153698
-4.859214 94.26622 -4.154461
-3.596316 96.393684 -6.823238
-4.594728 96.513161 -9.66145
1.703526 96.785629 1.616633
3.112203 99.089844 -1.026867
3.752653 98.083168 2.011795
1.423168 93.829361 6.421281
-0.594569 92.165184 6.446232
0.336539 94.423859 3.98792
-0.496335 95.22821 1.330866
5.932065 102.777 -5.918616
5.15592 103.178726 -8.888484
7.515206 104.336975 -8.348886
-4.334876 72.937836 25.236031
-6.242941 70.790642 25.282528
-5.595914 73.882156 23.035753
1.88303 81.841339 22.154863
0.507114 82.591637 20.08956
2.35418 84.507408 19.710264
2.893601 86.984566 17.382212
3.456579 95.14045 6.853616
4.661551 97.221985 4.814498
5.336663 96.201233 7.371848
7.265352 97.09684 8.060978
0.588178 88.360733 13.307867
-0.591574 88.973686 11.127234
1.375891 90.628204 11.160867
2.357841 93.040573 8.819763
-4.247229 98.040581 -15.295433
-1.724841 99.971481 -15.334179
0.942195 101.774918 -14.978737
-4.945193 91.700172 0.922323
-7.100202 92.314774 -4.288916
-5.553524 96.42305 -12.360616
-5.366555 67.100304 29.374292
-1.977335 77.93428 22.630943
-0.602549 77.086433 24.750261
-0.224565 97.895088 -3.886913
1.19871 99.909302 -6.478389
2.015805 99.449287 -3.687173
4.433203 101.009186 -3.502922
6.815951 102.234093 -2.881204
5.970698 99.287056 2.614665
7.440195 101.253609 0.399438
-2.656881 90.571968 6.186952
-3.810238 91.255196 3.461417
-2.805229 93.472557 1.078287
-1.566891 95.746933 -1.405931
2.674007 101.760498 -9.2959
4.535974 103.495995 -11.90514
-7.968083 68.73494 25.243261
-9.093558 69.804001 22.868698
-8.673429 72.723282 20.567078
-0.825469 83.368141 17.889206
-0.129666 85.91201 15.602899
1.666878 87.585075 15.443388
3.480835 89.197807 15.294015
4.975977 90.632568 14.979084
6.242092 90.421425 16.404991
5.853673 92.235478 13.776108
6.357088 93.018597 13.196889
5.794058 92.999306 12.692998
-4.456506 76.332645 21.763054
-5.343633 75.358467 21.807606
-4.708787 74.856335 22.9912
-3.590523 77.264175 21.699046
-4.456506 76.332645 21.763054
3.913386 84.945706 20.614157
3.236936 85.371544 19.548459
3.03063 84.08157 20.775962
4.601111 84.658276 21.535125
3.913386 84.945706 20.614157
7.416051 96.385815 9.331936
6.570449 96.061973 8.950879
6.721148 95.350948 10.221837
8.163415 97.364219 8.540853
7.416051 96.385815 9.331936
2.738113 102.67617 -13.583605
2.257786 102.589932 -14.953636
1.422521 101.861156 -13.608707
-4.843942 93.027374 -1.491758
-5.456772 91.882652 -0.311584
-4.332363 92.844894 -0.257851
-7.037088 93.404469 -6.832276
-7.642311 92.31736 -5.515336
-6.49498 93.401882 -5.605856
-6.487502 94.413563 -8.253272
-7.037088 93.404469 -6.832276
-0.824449 75.651382 25.911099
-1.52563 76.104855 24.858371
8.512808 101.681477 0.787986
7.794695 100.722516 1.960408
8.268228 102.207561 -0.811084
8.512808 101.681477 0.787986
-0.54893 90.65208 8.786839
-1.064456 89.407059 9.935016
-0.076048 90.218708 9.979057
5.760281 104.119141 -11.675821
4.845947 103.33736 -10.396812
6.070254 103.960507 -10.167492
5.307403 104.118771 -13.240349
5.760281 104.119141 -11.675821
-5.75537 68.989689 27.376494
-6.015629 67.486439 28.409239
-5.106296 68.603554 28.341547
-0.782434 80.269463 21.335377
-1.731607 79.289597 21.447991
-1.028162 78.914146 22.518328
7.035312 93.892121 12.654419
6.932111 94.728607 11.358336
7.035312 93.892121 12.654419
6.357088 93.018597 13.196889
6.932111 94.728607 11.358336
6.721148 95.350948 10.221837
6.08651 94.404766 10.97728
7.372637 99.213784 4.442137
7.565929 98.583343 5.831936
7.249897 104.539631 -9.897693
6.070254 103.960507 -10.167492
6.335563 103.75785 -8.618685
-6.269584 74.276977 21.877496
-7.189502 73.237827 21.856051
-6.515832 72.843006 23.014307
-6.269584 74.276977 21.877496
-5.343633 75.358467 21.807606
3.506646 86.610123 18.384433
2.62389 85.745987 18.546238
3.236936 85.371544 19.548459
4.418073 87.434269 18.270273
3.805027 87.808712 17.268051
3.506646 86.610123 18.384433
5.346465 88.405689 17.988501
4.418073 87.434269 18.270273
7.900567 98.013691 7.180978
7.565929 98.583343 5.831936
6.930715 97.666493 6.711937
7.900567 98.013691 7.180978
8.163415 97.364219 8.540853
-0.001698 88.667209 12.21755
-0.973951 87.735981 12.319003
-0.384075 87.429505 13.409319
-3.408829 98.826367 -16.725963
-4.706847 97.809082 -16.617118
-2.147635 99.791816 -16.745337
-3.408829 98.826367 -16.725963
-2.986035 99.006031 -15.314806
-0.896469 100.672043 -16.664455
-2.147635 99.791816 -16.745337
0.437049 101.573761 -16.486735
-0.896469 100.672043 -16.664455
-0.391323 100.873199 -15.156458
1.731826 102.395637 -16.386404
0.437049 101.573761 -16.486735
1.731826 102.395637 -16.386404
2.257786 102.589932 -14.953636
9.251421 104.658493 -6.475274
9.559755 104.351562 -4.888687
-6.020407 90.670574 0.975046
-5.395164 90.555428 2.188403
-6.020407 90.670574 0.975046
-5.456772 91.882652 -0.311584
-5.413782 93.165676 -2.849976
-4.843942 93.027374 -1.491758
-4.289373 94.127918 -2.796243
-6.534277 92.189953 -2.917204
-5.413782 93.165676 -2.849976
-5.979708 93.290497 -4.221689
-7.59612 91.237568 -3.020049
-6.534277 92.189953 -2.917204
-8.196553 91.206593 -4.187518
-7.59612 91.237568 -3.020049
-8.196553 91.206593 -4.187518
-7.642311 92.31736 -5.515336
-5.839987 95.425648 -9.622598
-6.487502 94.413563 -8.253272
-5.242242 95.501076 -8.292124
-6.319385 95.380593 -10.972181
-5.839987 95.425648 -9.622598
-5.074126 96.468106 -11.011033
-6.763165 95.354931 -12.36773
-6.319385 95.380593 -10.972181
-6.14817 96.172425 -13.717364
-6.763165 95.354931 -12.36773
-5.495023 96.98119 -15.184772
-6.14817 96.172425 -13.717364
-4.900377 97.231816 -13.828024
-4.706847 97.809082 -16.617118
-5.495023 96.98119 -15.184772
-4.72482 66.477367 30.443279
-5.58092 65.534292 30.420266
-4.480183 68.029728 29.406972
-4.72482 66.477367 30.443279
-4.219924 69.532978 28.374226
-5.106296 68.603554 28.341547
-4.480183 68.029728 29.406972
-3.923976 71.112812 27.275441
-4.219924 69.532978 28.374226
-3.668395 72.528328 26.239055
-4.590457 71.52232 26.272416
-3.923976 71.112812 27.275441
-3.391794 74.030556 25.101256
-3.668395 72.528328 26.239055
-3.135185 75.476895 23.956565
-4.078268 74.384175 24.09134
-3.391794 74.030556 25.101256
-2.213023 76.528778 23.798713
-2.899497 76.882396 22.788795
-3.135185 75.476895 23.956565
-1.289942 77.510357 23.690602
-2.213023 76.528778 23.798713
-1.52563 76.104855 24.858371
0.135184 76.656696 25.793257
-0.824449 75.651382 25.911099
0.35151 78.037418 24.651089
0.135184 76.656696 25.793257
0.61329 79.441208 23.478815
-0.340769 78.490223 23.577987
0.35151 78.037418 24.651089
1.594299 80.414871 23.353389
0.902021 80.867676 22.280288
0.61329 79.441208 23.478815
2.547193 81.332988 23.24783
1.594299 80.414871 23.353389
3.459218 82.240184 23.091228
2.795055 82.748535 21.998261
2.547193 81.332988 23.24783
4.459939 83.33023 22.819164
3.459218 82.240184 23.091228
7.059947 99.739239 3.068022
6.283387 98.761601 3.98878
7.372637 99.213784 4.442137
6.705446 100.270332 1.507051
7.059947 99.739239 3.068022
7.794695 100.722516 1.960408
7.956105 102.697803 -2.451405
7.128073 101.743851 -1.240883
8.268228 102.207561 -0.811084
8.753891 103.548676 -3.658632
7.613737 103.084965 -4.088431
7.956105 102.697803 -2.451405
9.559755 104.351562 -4.888687
8.753891 103.548676 -3.658632
-1.538803 88.1888 11.055014
-0.973951 87.735981 12.319003
-1.538803 88.1888 11.055014
-1.064456 89.407059 9.935016
-1.065953 91.002807 7.594515
-0.54893 90.65208 8.786839
-0.077546 91.814457 7.638556
-2.09711 90.206199 7.464875
-1.065953 91.002807 7.594515
-1.625725 91.368576 6.316592
-3.152463 89.355412 7.340171
-2.09711 90.206199 7.464875
-3.729024 89.642098 6.137222
-3.152463 89.355412 7.340171
-4.305703 89.983711 4.774455
-3.729024 89.642098 6.137222
-3.23356 90.913582 4.824184
-4.827687 90.33294 3.45795
-4.305703 89.983711 4.774455
-4.377715 91.477684 2.19187
-5.395164 90.555428 2.188403
-4.827687 90.33294 3.45795
4.054676 103.45047 -13.416837
2.738113 102.67617 -13.583605
3.219411 102.721695 -12.071908
4.054676 103.45047 -13.416837
5.307403 104.118771 -13.240349
8.803263 104.859062 -8.001888
7.963365 104.136406 -6.822272
9.251421 104.658493 -6.475274
8.456615 105.032005 -9.496277
8.803263 104.859062 -8.001888
7.249897 104.539631 -9.897693
8.456615 105.032005 -9.496277
-6.241934 66.019009 29.40652
-5.58092 65.534292 30.420266
-6.241934 66.019009 29.40652
-6.015629 67.486439 28.409239
-6.453822 69.331608 26.363357
-5.75537 68.989689 27.376494
-5.544489 70.448723 26.295665
-7.316393 68.303757 26.343724
-6.453822 69.331608 26.363357
-7.105512 69.762791 25.262895
-8.197909 67.248787 26.286725
-7.316393 68.303757 26.343724
-8.761069 67.765221 25.149401
-8.197909 67.248787 26.286725
-9.323806 68.299751 23.96212
-8.761069 67.765221 25.149401
-8.530821 69.26947 24.055979
-9.868879 68.773102 22.797152
-9.323806 68.299751 23.96212
-9.677488 70.187492 21.718072
-9.868879 68.773102 22.797152
-9.467424 71.647133 20.567262
-9.677488 70.187492 21.718072
-8.883494 71.263642 21.717888
-9.245907 73.078285 19.443605
-9.467424 71.647133 20.567262
-7.808342 73.697541 20.643159
-8.05459 72.263569 21.779969
-7.189502 73.237827 21.856051
-8.467021 74.056953 19.455663
-7.808342 73.697541 20.643159
-9.245907 73.078285 19.443605
-8.467021 74.056953 19.455663
-2.66836 78.316059 21.541193
-3.590523 77.264175 21.699046
-2.899497 76.882396 22.788795
-2.66836 78.316059 21.541193
-1.731607 79.289597 21.447991
-0.489382 81.618275 20.1773
-0.782434 80.269463 21.335377
0.214062 81.242825 21.247637
-1.155674 82.006527 19.077123
-0.489382 81.618275 20.1773
-0.159178 82.979889 18.989383
-1.725318 82.402172 18.048043
-1.155674 82.006527 19.077123
-1.483089 83.677307 16.818556
-1.725318 82.402172 18.048043
-1.135187 84.949241 15.675402
-1.483089 83.677307 16.818556
-0.477568 84.640075 16.746053
-0.742997 86.205143 14.556836
-1.135187 84.949241 15.675402
0.229256 87.136371 14.455383
-0.384075 87.429505 13.409319
-0.742997 86.205143 14.556836
5.69634 91.443668 14.629542
5.853673 92.235478 13.776108
5.13331 91.424378 14.125651
6.329398 91.338097 15.342495
5.69634 91.443668 14.629542
5.609034 90.526996 15.692037
7.03088 91.254929 16.072727
6.329398 91.338097 15.342495
6.109285 89.299972 17.614051
5.479273 89.527141 16.779441
5.346465 88.405689 17.988501
6.924679 90.224987 17.240157
6.109285 89.299972 17.614051
7.03088 91.254929 16.072727
6.924679 90.224987 17.240157
4.601111 84.658276 21.535125
4.459939 83.33023 22.819164
3 0 91 93
3 93 92 23
3 91 92 93
3 0 23 24
3 0 24 26
3 1 30 28
3 1 33 31
3 1 28 33
3 2 37 35
3 2 40 38
3 2 35 40
3 3 44 42
3 4 47 45
3 4 94 96
3 96 95 47
3 94 95 96
3 4 97 98
3 5 50 48
3 5 99 101
3 101 100 50
3 99 100 101
3 5 102 103
3 6 54 52
3 104 55 105
3 106 105 25
3 104 105 106
3 108 107 55
3 8 58 56
3 6 59 27
3 6 52 59
3 10 61 60
3 11 62 29
3 11 109 111
3 111 110 62
3 109 110 111
3 12 112 114
3 114 113 63
3 112 113 114
3 13 64 32
3 13 115 117
3 117 116 64
3 115 116 117
3 13 118 119
3 10 65 34
3 10 60 65
3 120 68 121
3 16 71 69
3 18 72 36
3 18 73 72
3 7 74 53
3 122 75 123
3 125 124 75
3 9 126 128
3 128 127 57
3 126 127 128
3 19 76 39
3 19 77 76
3 19 78 77
3 16 79 41
3 16 69 79
3 17 80 70
3 129 81 130
3 131 130 43
3 129 130 131
3 133 132 81
3 14 134 136
3 136 135 66
3 134 135 136
3 20 82 46
3 20 83 82
3 20 84 83
3 15 137 139
3 139 138 67
3 137 138 139
3 21 85 49
3 21 86 85
3 21 87 86
3 22 88 51
3 22 89 88
3 22 90 89
3 23 140 141
3 143 142 23
3 24 25 6
3 23 25 24
3 23 144 146
3 146 145 25
3 144 145 146
3 26 27 8
3 24 27 26
3 24 6 27
3 28 29 10
3 30 29 28
3 30 11 29
3 31 32 12
3 33 32 31
3 33 13 32
3 33 34 13
3 28 34 33
3 28 10 34
3 35 36 16
3 37 36 35
3 37 18 36
3 148 147 7
3 38 39 9
3 40 39 38
3 40 19 39
3 40 41 19
3 35 41 40
3 35 16 41
3 42 43 17
3 44 43 42
3 44 149 151
3 151 150 43
3 149 150 151
3 45 46 14
3 47 46 45
3 47 20 46
3 47 152 154
3 154 153 20
3 152 153 154
3 156 155 47
3 48 49 15
3 50 49 48
3 50 21 49
3 50 51 21
3 157 51 158
3 159 158 50
3 157 158 159
3 160 22 161
3 162 161 51
3 160 161 162
3 164 163 22
3 52 53 2
3 54 53 52
3 54 7 53
3 25 54 6
3 55 54 25
3 55 7 54
3 55 165 167
3 167 166 7
3 165 166 167
3 169 168 55
3 56 170 172
3 170 57 171
3 170 171 172
3 58 57 56
3 58 9 57
3 27 58 8
3 59 58 27
3 59 9 58
3 59 38 9
3 52 38 59
3 52 2 38
3 60 173 174
3 61 175 177
3 177 176 60
3 175 176 177
3 61 178 179
3 29 61 10
3 62 61 29
3 62 180 182
3 182 181 61
3 180 181 182
3 62 183 184
3 186 185 62
3 188 187 3
3 63 189 190
3 192 191 63
3 32 193 195
3 195 194 12
3 193 194 195
3 64 196 198
3 198 197 32
3 196 197 198
3 64 199 200
3 64 201 202
3 204 203 64
3 34 205 207
3 207 206 13
3 205 206 207
3 65 208 210
3 210 209 34
3 208 209 210
3 65 211 212
3 65 213 214
3 60 215 217
3 217 216 65
3 215 216 217
3 60 218 219
3 220 66 221
3 222 66 223
3 224 14 225
3 226 225 66
3 224 225 226
3 227 14 228
3 229 45 230
3 231 230 14
3 229 230 231
3 232 45 233
3 234 4 235
3 236 235 45
3 234 235 236
3 237 67 238
3 239 238 4
3 237 238 239
3 68 240 242
3 240 67 241
3 240 241 242
3 68 15 67
3 243 68 244
3 245 68 246
3 247 15 248
3 249 248 68
3 247 248 249
3 250 48 251
3 252 251 15
3 250 251 252
3 253 48 254
3 255 5 256
3 257 256 48
3 255 256 257
3 259 258 5
3 69 70 1
3 71 70 69
3 71 17 70
3 36 71 16
3 72 71 36
3 72 17 71
3 72 42 17
3 73 42 72
3 73 3 42
3 53 37 2
3 74 37 53
3 74 18 37
3 260 74 261
3 262 261 7
3 260 261 262
3 75 263 265
3 263 74 264
3 263 264 265
3 75 18 74
3 75 73 18
3 266 73 267
3 268 267 75
3 266 267 268
3 269 3 270
3 271 270 73
3 269 270 271
3 273 272 3
3 57 274 275
3 277 276 57
3 39 278 280
3 280 279 9
3 278 279 280
3 76 281 283
3 283 282 39
3 281 282 283
3 76 284 285
3 76 286 287
3 77 288 290
3 290 289 76
3 288 289 290
3 77 291 292
3 77 293 295
3 293 63 294
3 293 294 295
3 78 63 77
3 78 12 63
3 41 78 19
3 79 78 41
3 79 12 78
3 79 31 12
3 69 31 79
3 69 1 31
3 70 30 1
3 80 30 70
3 80 11 30
3 43 80 17
3 81 80 43
3 81 11 80
3 81 296 298
3 298 297 11
3 296 297 298
3 300 299 81
3 301 44 302
3 303 302 3
3 301 302 303
3 304 44 305
3 307 306 44
3 66 308 309
3 311 310 66
3 46 312 314
3 314 313 14
3 312 313 314
3 82 315 317
3 317 316 46
3 315 316 317
3 82 318 319
3 82 320 321
3 83 322 324
3 324 323 82
3 322 323 324
3 83 325 326
3 83 327 328
3 84 329 331
3 331 330 83
3 329 330 331
3 84 332 333
3 334 84 335
3 336 335 20
3 334 335 336
3 337 84 338
3 340 339 84
3 67 341 343
3 343 342 4
3 341 342 343
3 345 344 67
3 49 346 348
3 348 347 15
3 346 347 348
3 85 349 351
3 351 350 49
3 349 350 351
3 85 352 353
3 85 354 355
3 86 356 358
3 358 357 85
3 356 357 358
3 86 359 360
3 86 361 363
3 361 56 362
3 361 362 363
3 87 56 86
3 87 8 56
3 51 87 21
3 88 87 51
3 88 8 87
3 88 26 8
3 89 26 88
3 89 0 26
3 89 364 366
3 366 365 0
3 364 365 366
3 90 367 369
3 369 368 89
3 367 368 369
3 90 370 371
3 372 90 373
3 374 373 22
3 372 373 374
3 375 90 376
3 378 377 90
3 380 379 5
