ply
format ascii 1.0
element vertex 94
property float x
property float y
property float z
element face 77
property list uchar int vertex_index
end_header
-10.101385 106.223206 -25.129707
-12.246848 107.284279 -19.295313
-9.507905 106.035065 -13.050268
-7.143116 105.672546 -19.207327
-10.98574 106.855499 -22.183645
-13.617695 107.342049 -22.288857
-6.967606 105.026344 -13.177876
-8.282625 105.960846 -16.110426
-5.700906 104.841408 -16.019863
-13.340814 107.402908 -16.071182
-15.548182 107.641785 -15.989787
-14.778327 107.648026 -19.307344
-10.89912 106.854927 -16.272644
-9.601955 106.580948 -19.296072
-8.488485 106.081032 -22.373625
-5.787967 105.022491 -21.987133
-7.260579 105.316849 -24.831129
-11.364375 106.488705 -25.219038
-11.806552 106.804851 -23.746007
-10.543563 106.539353 -23.656676
-5.637206 104.379658 -13.20512
-6.285014 104.396591 -11.735993
-5.003856 104.28719 -14.626114
-6.334256 104.933876 -14.598869
-5.637206 104.379658 -13.20512
-14.882814 107.415562 -22.237136
-14.44428 107.17677 -23.802871
-10.009039 105.910713 -11.469255
-8.79335 105.476601 -11.640968
-10.700237 106.398098 -12.985848
-10.009039 105.910713 -11.469255
-10.203512 106.444996 -14.661456
-11.395844 106.808029 -14.597036
-10.700237 106.398098 -12.985848
-5.148846 104.587257 -23.262456
-4.473482 104.384567 -21.85258
-5.885153 104.734436 -24.684454
-6.524273 105.16967 -23.409131
-5.148846 104.587257 -23.262456
-6.606129 104.77166 -26.124193
-5.885153 104.734436 -24.684454
-16.733662 107.587097 -15.794659
-16.330007 107.6465 -17.449672
-13.122529 107.048126 -23.798613
-12.301717 107.098774 -22.236251
-11.806552 106.804851 -23.746007
-14.44428 107.17677 -23.802871
-13.122529 107.048126 -23.798613
-7.5232 104.97224 -11.704771
-6.285014 104.396591 -11.735993
-8.237755 105.530704 -13.114072
-8.79335 105.476601 -11.640968
-7.5232 104.97224 -11.704771
-10.765045 106.025589 -26.657571
-9.434293 105.712913 -26.467339
-14.444498 107.522346 -16.030485
-14.899493 107.435265 -14.407664
-13.795809 107.315827 -14.448362
-15.94508 107.64962 -19.108451
-16.330007 107.6465 -17.449672
-15.163255 107.644905 -17.648566
-15.463131 107.568551 -20.746379
-14.198011 107.495037 -20.798101
-14.882814 107.415562 -22.237136
-15.94508 107.64962 -19.108451
-15.463131 107.568551 -20.746379
-11.364375 106.488705 -25.219038
-10.765045 106.025589 -26.657571
-12.616691 107.08202 -14.496306
-13.795809 107.315827 -14.448362
-12.119967 107.128918 -16.171913
-12.616691 107.08202 -14.496306
-11.395844 106.808029 -14.597036
-4.437009 104.197876 -16.047401
-5.003856 104.28719 -14.626114
-5.077017 104.640545 -17.481507
-4.437009 104.197876 -16.047401
-5.798122 105.056114 -19.075239
-6.422011 105.256977 -17.613595
-5.077017 104.640545 -17.481507
-5.120547 104.731087 -20.465142
-4.473482 104.384567 -21.85258
-6.465542 105.347519 -20.59723
-5.798122 105.056114 -19.075239
-5.120547 104.731087 -20.465142
-8.01389 105.259735 -26.31805
-9.434293 105.712913 -26.467339
-8.680982 105.770027 -24.980418
-8.01389 105.259735 -26.31805
-6.606129 104.77166 -26.124193
-16.020045 107.51651 -14.378597
-14.899493 107.435265 -14.407664
-16.020045 107.51651 -14.378597
-16.733662 107.587097 -15.794659
3 0 17 19
3 19 18 4
3 17 18 19
3 20 6 21
3 22 8 23
3 24 23 6
3 22 23 24
3 1 11 9
3 26 25 5
3 2 27 28
3 2 29 30
3 2 31 33
3 31 12 32
3 31 32 33
3 3 13 7
3 3 14 13
3 34 15 35
3 36 16 37
3 38 37 15
3 36 37 38
3 40 39 16
3 42 41 10
3 4 5 1
3 43 5 44
3 45 44 4
3 43 44 45
3 47 46 5
3 6 48 49
3 6 50 52
3 50 2 51
3 50 51 52
3 6 7 2
3 8 7 6
3 8 3 7
3 54 53 0
3 9 55 57
3 55 10 56
3 55 56 57
3 11 10 9
3 11 58 60
3 60 59 10
3 58 59 60
3 5 11 1
3 61 11 62
3 63 62 5
3 61 62 63
3 65 64 11
3 67 66 0
3 68 9 69
3 12 70 72
3 70 9 71
3 70 71 72
3 12 1 9
3 7 12 2
3 13 12 7
3 13 1 12
3 13 4 1
3 14 4 13
3 14 0 4
3 73 8 74
3 75 8 76
3 77 3 78
3 79 78 8
3 77 78 79
3 15 80 81
3 15 82 84
3 82 3 83
3 82 83 84
3 15 14 3
3 16 14 15
3 16 0 14
3 16 85 87
3 87 86 0
3 85 86 87
3 89 88 16
3 10 90 91
3 93 92 10
