ply
format ascii 1.0
element vertex 257
property float x
property float y
property float z
element face 221
property list uchar int vertex_index
end_header
12.876076 31.030441 43.515469
16.864958 21.090279 42.501316
10.016223 20.403074 49.155628
18.452728 16.502609 41.912357
22.015308 30.015623 32.065186
14.984554 25.891222 43.144142
16.083902 30.618898 40.262428
18.220478 25.730431 39.486706
9.409134 31.010269 46.495052
11.64633 25.596077 46.405369
13.535738 20.801102 45.983444
19.237617 14.501828 41.510559
11.620174 33.529312 43.72385
23.404484 29.748302 29.915873
16.008976 23.444061 42.784027
16.655416 25.732895 41.362885
17.660883 23.350527 40.946621
8.299732 20.451485 50.484024
9.127663 22.98551 49.186043
10.91424 23.14658 47.709503
12.626596 23.148937 46.221062
11.801646 20.60813 47.605995
17.658449 18.848171 42.211292
18.51251 21.060041 40.624077
19.239531 18.85811 40.386333
20.888239 19.077171 38.30838
7.456973 17.829502 51.765972
9.239302 17.818665 50.398331
11.002472 18.104076 48.889153
20.543804 30.275663 34.288086
13.849085 28.264208 43.538761
14.5213 30.627312 42.011719
15.63595 28.219917 41.673428
17.252394 28.082729 39.832996
18.670025 28.258654 37.942276
19.186493 23.327337 39.094673
19.624474 25.861065 37.614655
20.098463 28.162766 35.989227
21.575209 27.775015 33.976128
8.747081 28.173721 47.946194
10.513288 28.207781 46.55928
12.297276 28.203026 45.030243
13.363505 25.621712 44.840492
14.31939 23.223492 44.593243
15.238256 20.840376 44.297672
12.792191 18.255407 47.282719
14.348926 18.4706 45.763695
16.040092 18.69405 44.000706
16.856541 16.427034 43.678532
17.639158 14.303818 43.32756
20.020834 14.692018 40.554401
19.543372 13.572126 41.387203
13.10703 32.190836 42.842462
12.479079 33.440271 42.946653
12.248125 32.279877 43.619659
23.46879 30.84099 29.050469
24.074787 29.73601 28.776625
21.251478 18.027174 38.170732
20.453882 17.956761 39.159786
21.642524 19.142809 37.322764
21.251478 18.027174 38.170732
7.879685 16.653457 51.717568
6.982456 16.512353 52.428404
8.77085 16.648038 51.033747
8.348137 17.824084 51.082151
7.879685 16.653457 51.717568
9.656146 16.656693 50.323679
8.77085 16.648038 51.033747
21.419683 31.180493 32.367746
20.683931 31.310513 33.479197
21.279556 30.145643 33.176636
19.594302 22.239242 38.935295
18.849501 22.193689 39.859375
19.25731 21.105594 39.699997
20.372468 25.773567 36.613153
20.127309 24.645025 37.40106
20.609462 26.924417 35.800439
19.861469 27.011916 36.801941
20.372468 25.773567 36.613153
21.347836 26.730542 34.79389
20.836836 27.968891 34.982678
20.609462 26.924417 35.800439
9.707475 32.297032 45.782702
8.77682 32.313761 46.488502
10.307948 30.878563 45.810488
9.707475 32.297032 45.782702
8.384189 26.868133 48.616251
7.855452 28.148004 48.595225
11.079809 26.901929 46.482325
10.146255 26.872872 47.260317
10.712777 25.56702 47.183361
12.31078 17.028787 47.986123
11.897331 18.179741 48.085936
11.41592 16.953122 48.789339
14.75546 17.348847 45.618563
13.936387 17.262089 46.430887
15.601043 17.460572 44.737068
15.194509 18.582325 44.8822
14.75546 17.348847 45.618563
16.009268 16.327064 44.575981
16.448317 17.560542 43.839619
15.601043 17.460572 44.737068
17.15014 13.177248 44.088785
16.817597 14.212409 44.21084
17.960695 13.325408 43.197719
17.15014 13.177248 44.088785
15.506571 31.965678 40.375301
14.72527 31.969885 41.249947
15.302601 30.623105 41.137073
19.628571 15.66909 40.760875
19.236127 16.66948 40.961775
18.845173 15.502218 41.711458
19.628571 15.66909 40.760875
20.020834 14.692018 40.554401
11.914357 34.824177 42.918703
11.043681 34.881305 43.671655
11.914357 34.824177 42.918703
12.479079 33.440271 42.946653
22.785317 30.984958 30.174934
22.090729 31.118619 31.24959
22.709896 29.881963 30.99053
22.785317 30.984958 30.174934
23.46879 30.84099 29.050469
8.514326 30.962694 47.17132
8.77682 32.313761 46.488502
7.780323 21.710005 50.533161
7.37392 20.400761 51.177568
8.194288 22.977018 49.88417
7.780323 21.710005 50.533161
8.713698 21.718498 49.835033
8.57448 24.274027 49.236176
8.194288 22.977018 49.88417
9.453443 24.261737 48.573698
8.57448 24.274027 49.236176
10.346732 24.342272 47.835428
9.453443 24.261737 48.573698
10.020951 23.066045 48.447773
11.280285 24.371329 47.057436
10.712777 25.56702 47.183361
10.346732 24.342272 47.835428
16.274504 31.845477 39.507019
16.812835 30.604275 39.360767
19.620821 20.004629 39.581125
19.25731 21.105594 39.699997
18.87602 19.959075 40.505205
19.629528 17.847231 40.198763
18.846129 17.68036 41.149345
19.236127 16.66948 40.961775
20.063885 18.967641 39.347357
19.629528 17.847231 40.198763
20.453882 17.956761 39.159786
20.445175 20.114159 38.542148
19.620821 20.004629 39.581125
20.063885 18.967641 39.347357
21.201686 20.155121 37.552543
20.445175 20.114159 38.542148
21.201686 20.155121 37.552543
21.642524 19.142809 37.322764
6.618016 17.772498 52.393228
6.982456 16.512353 52.428404
6.95254 19.08977 51.818542
6.618016 17.772498 52.393228
7.878353 19.140494 51.124998
7.37392 20.400761 51.177568
6.95254 19.08977 51.818542
10.537731 16.799399 49.56909
10.120887 17.961371 49.643742
9.656146 16.656693 50.323679
11.41592 16.953122 48.789339
10.537731 16.799399 49.56909
19.955807 31.550441 34.527348
19.795331 30.435096 35.336403
19.955807 31.550441 34.527348
20.683931 31.310513 33.479197
21.419683 31.180493 32.367746
22.090729 31.118619 31.24959
17.397081 29.336191 39.146051
16.812835 30.604275 39.360767
16.668148 29.350814 40.047712
18.105896 29.424153 38.200691
17.397081 29.336191 39.146051
17.961209 28.170692 38.887636
18.858441 29.426591 37.163498
18.105896 29.424153 38.200691
19.908319 23.378161 38.14107
19.594302 22.239242 38.935295
19.405483 24.594201 38.354664
19.908319 23.378161 38.14107
20.127309 24.645025 37.40106
19.57266 29.378647 36.186974
18.858441 29.426591 37.163498
19.384244 28.21071 36.965751
20.321134 29.219214 35.138656
19.795331 30.435096 35.336403
19.57266 29.378647 36.186974
22.087111 26.667156 33.746235
21.347836 26.730542 34.79389
22.290987 27.750456 32.875976
22.087111 26.667156 33.746235
22.511037 28.87076 31.920505
21.795259 28.895319 33.020657
22.290987 27.750456 32.875976
23.205624 28.737099 30.845849
22.709896 29.881963 30.99053
22.511037 28.87076 31.920505
23.94499 28.694026 29.685488
23.205624 28.737099 30.845849
24.074787 29.73601 28.776625
23.94499 28.694026 29.685488
10.812995 33.556553 44.397101
11.043681 34.881305 43.671655
11.413467 32.138084 44.424886
10.812995 33.556553 44.397101
12.041418 30.888649 44.320696
12.248125 32.279877 43.619659
11.413467 32.138084 44.424886
8.1833 29.54442 47.896891
7.855452 28.148004 48.595225
9.078107 29.591995 47.220623
8.514326 30.962694 47.17132
8.1833 29.54442 47.896891
9.263152 26.855843 47.953773
8.384189 26.868133 48.616251
9.630184 28.190751 47.252737
9.263152 26.855843 47.953773
10.146255 26.872872 47.260317
10.860024 29.477319 45.842602
10.307948 30.878563 45.810488
9.961211 29.609025 46.527166
11.752019 29.474941 45.078083
10.860024 29.477319 45.842602
11.405282 28.205404 45.794761
12.586676 29.616734 44.272856
12.041418 30.888649 44.320696
11.752019 29.474941 45.078083
13.158019 17.154492 47.190399
12.31078 17.028787 47.986123
13.570559 18.363004 46.523207
13.158019 17.154492 47.190399
13.936387 17.262089 46.430887
16.426289 15.274017 44.386326
16.009268 16.327064 44.575981
17.24785 15.365426 43.503046
16.426289 15.274017 44.386326
16.817597 14.212409 44.21084
18.759925 13.424413 42.289219
18.438387 14.402823 42.41906
17.960695 13.325408 43.197719
19.543372 13.572126 41.387203
18.759925 13.424413 42.289219
13.929642 31.989272 42.090587
13.10703 32.190836 42.842462
13.698688 30.828876 42.763594
13.929642 31.989272 42.090587
14.72527 31.969885 41.249947
15.506571 31.965678 40.375301
16.274504 31.845477 39.507019
3 51 50 11
3 0 52 54
3 54 53 12
3 52 53 54
3 56 55 13
3 1 16 14
3 2 18 17
3 2 19 18
3 2 21 19
3 3 24 22
3 57 25 58
3 60 59 25
3 61 26 62
3 63 27 64
3 65 64 26
3 63 64 65
3 67 66 27
3 4 68 70
3 70 69 29
3 68 69 70
3 5 32 30
3 7 33 15
3 7 34 33
3 71 35 72
3 73 72 23
3 71 72 73
3 74 36 75
3 76 37 77
3 78 77 36
3 76 77 78
3 79 38 80
3 81 80 37
3 79 80 81
3 8 82 83
3 8 84 85
3 86 39 87
3 9 88 90
3 88 40 89
3 88 89 90
3 9 41 40
3 9 42 41
3 10 43 20
3 10 44 43
3 91 45 92
3 93 92 28
3 91 92 93
3 94 46 95
3 96 47 97
3 98 97 46
3 96 97 98
3 99 48 100
3 101 100 47
3 99 100 101
3 102 49 103
3 105 104 49
3 6 106 108
3 108 107 31
3 106 107 108
3 11 109 111
3 111 110 3
3 109 110 111
3 113 112 11
3 12 114 115
3 117 116 12
3 13 118 120
3 120 119 4
3 118 119 120
3 122 121 13
3 14 15 5
3 16 15 14
3 16 7 15
3 123 8 124
3 17 125 126
3 18 127 129
3 129 128 17
3 127 128 129
3 18 130 131
3 18 132 133
3 19 134 136
3 136 135 18
3 134 135 136
3 19 137 139
3 137 9 138
3 137 138 139
3 19 20 9
3 21 20 19
3 21 10 20
3 141 140 6
3 22 23 1
3 24 23 22
3 24 142 144
3 144 143 23
3 142 143 144
3 145 24 146
3 147 146 3
3 145 146 147
3 25 148 150
3 148 24 149
3 148 149 150
3 25 151 153
3 153 152 24
3 151 152 153
3 25 154 155
3 157 156 25
3 26 158 159
3 26 160 161
3 26 162 164
3 162 17 163
3 162 163 164
3 27 17 26
3 27 2 17
3 27 28 2
3 165 28 166
3 167 166 27
3 165 166 167
3 169 168 28
3 29 170 171
3 173 172 29
3 175 174 4
3 30 31 0
3 32 31 30
3 32 6 31
3 15 32 5
3 33 32 15
3 33 6 32
3 33 176 178
3 178 177 6
3 176 177 178
3 34 179 181
3 181 180 33
3 179 180 181
3 34 182 183
3 23 16 1
3 35 16 23
3 35 7 16
3 184 35 185
3 36 186 188
3 186 35 187
3 186 187 188
3 36 7 35
3 36 34 7
3 37 34 36
3 37 189 191
3 191 190 34
3 189 190 191
3 37 192 194
3 192 29 193
3 192 193 194
3 38 29 37
3 38 4 29
3 195 38 196
3 197 38 198
3 199 4 200
3 201 200 38
3 199 200 201
3 202 13 203
3 204 203 4
3 202 203 204
3 205 13 206
3 208 207 13
3 209 12 210
3 211 12 212
3 213 0 214
3 215 214 12
3 213 214 215
3 39 216 217
3 39 218 220
3 218 8 219
3 218 219 220
3 221 39 222
3 40 223 225
3 223 39 224
3 223 224 225
3 40 8 39
3 40 226 228
3 228 227 8
3 226 227 228
3 41 229 231
3 231 230 40
3 229 230 231
3 41 232 234
3 232 0 233
3 232 233 234
3 41 30 0
3 42 30 41
3 42 5 30
3 20 42 9
3 43 42 20
3 43 5 42
3 43 14 5
3 44 14 43
3 44 1 14
3 28 21 2
3 45 21 28
3 45 10 21
3 235 45 236
3 46 237 239
3 237 45 238
3 237 238 239
3 46 10 45
3 46 44 10
3 47 44 46
3 47 1 44
3 47 22 1
3 48 22 47
3 48 3 22
3 240 48 241
3 49 242 244
3 242 48 243
3 242 243 244
3 49 3 48
3 49 11 3
3 245 11 246
3 247 246 49
3 245 246 247
3 249 248 11
3 31 250 252
3 252 251 0
3 250 251 252
3 254 253 31
3 256 255 6
