ply
format ascii 1.0
element vertex 592
property float x
property float y
property float z
element face 664
property list uchar int vertex_index
end_header
38.766216 -22.581221 11.36142
38.945908 -7.819839 16.255924
36.261192 -36.636971 18.116011
38.110451 -0.652609 9.128608
34.409782 -42.123169 10.690858
39.261776 -27.58552 4.995993
38.208801 -16.130535 15.1835
38.79641 -5.076818 23.140644
38.530899 -14.04398 23.067318
38.665218 -22.508972 20.44525
36.55138 -29.317961 24.142368
38.831509 -29.493685 15.213255
37.775513 -34.81139 7.939837
37.528248 -19.277847 9.317506
36.502274 -18.60014 5.094601
38.243729 -21.913918 6.814953
38.865883 -24.191956 3.531689
39.153309 -25.218908 8.34499
38.654209 -4.304078 12.584405
37.69585 -8.889683 12.637546
37.150036 -12.804285 12.183049
38.375916 -12.095333 15.889577
38.534824 -18.436743 22.115524
37.716724 -21.785332 24.606779
34.734112 -36.652012 22.770775
34.684761 -32.892376 25.578566
36.573269 -33.080791 21.424831
37.981461 -29.688328 19.782097
37.774391 -33.066753 16.775806
38.495647 -32.436893 11.716951
37.215153 -36.01004 13.128543
34.970131 -40.642727 5.493009
39.485149 4.28959 9.097581
39.74469 0.29053 12.513978
39.701321 -3.108794 16.091404
34.40773 -40.078697 19.453417
35.478424 -39.654533 14.501404
33.595901 -43.150291 15.749352
35.444199 -13.19312 8.483019
37.115028 -16.458595 11.028318
38.350052 -19.477209 13.623888
39.750164 -1.982534 19.446928
39.331604 -6.453826 19.832289
38.624672 -9.635056 23.386364
38.939919 -11.015186 19.858425
38.721561 -15.286298 19.16494
38.744862 -19.077911 17.925116
38.966675 -22.739258 15.835244
36.299271 -25.114038 26.611439
37.894089 -25.833654 22.541046
38.840721 -26.154871 17.988253
39.213024 -26.000933 13.293904
39.221519 -28.862436 10.248365
38.816212 -31.311802 6.494578
36.212406 -38.504616 9.459366
36.623726 -37.019833 4.198556
38.221169 -20.880171 10.302936
37.887508 -20.670935 8.170098
38.551796 -22.356474 9.077684
38.823254 -23.631927 7.634671
38.987946 -23.980759 9.978746
38.845211 -6.061475 14.4444
38.164898 -6.567317 12.686192
38.414509 -8.310732 14.391503
38.091167 -10.510106 14.332631
38.616863 -10.10103 16.136883
37.656384 -19.656946 25.326317
35.550999 -36.711376 20.59383
35.705276 -34.869858 22.094826
36.4566 -34.968548 19.812952
37.22451 -33.140007 19.222664
37.073284 -34.896317 17.38098
37.583584 -34.539696 14.928283
36.802681 -36.38821 15.663866
40.178173 0.781147 14.18326
39.727001 -1.548703 14.196312
40.043327 -0.959059 15.948065
32.459229 -42.231483 22.253839
33.529343 -40.355568 21.766218
33.323582 -41.997395 20.061596
34.045021 -41.648487 17.744829
33.041878 -43.460995 18.246279
39.177876 -25.952135 4.252406
39.028732 -25.065567 1.727086
39.191456 -26.940674 2.363399
39.144062 -28.707151 3.269231
37.822716 1.443328 7.536306
37.069927 -0.832405 7.557102
37.700554 -14.523726 13.611208
37.061886 -14.737959 11.691526
37.6744 -16.2633 12.981104
37.81028 -18.037434 12.297953
38.207527 -17.781675 14.352335
39.413269 -1.276467 21.135727
39.307339 -3.564208 21.339325
39.552769 -4.186754 19.633673
39.180798 -5.798691 21.454426
38.109192 -11.114757 25.124498
38.552647 -11.945884 23.345957
38.89048 -10.308393 21.647802
38.798019 -12.504244 21.394291
38.800026 -13.320929 19.638405
38.719547 -14.74004 21.257984
38.59956 -20.493134 21.290966
38.732243 -18.804087 20.018343
38.80085 -20.771013 19.119158
38.834789 -20.990992 16.989529
38.896198 -22.736053 18.166807
35.688225 -31.01285 24.90947
34.540821 -30.874353 26.878134
35.506172 -28.986784 26.295168
36.421822 -27.314631 25.447775
37.254601 -27.434322 23.534327
38.456173 -29.621235 17.638187
38.478157 -27.884886 19.022499
38.85812 -27.967747 16.645266
39.091763 -26.184994 15.589038
39.117748 -27.840607 14.212956
39.259785 -27.433975 11.877712
39.07383 -29.296629 12.74074
38.184536 -33.683262 9.855011
38.699863 -31.929962 9.028061
38.345345 -33.101994 7.169342
38.466488 -32.342644 4.589702
37.883221 -34.213375 5.345655
34.937828 -41.000256 12.670247
35.942551 -39.023914 11.957237
35.337772 -40.29361 10.044924
35.785599 -38.87582 4.696416
36.021534 -37.913765 2.276955
36.786949 -36.084011 1.570694
36.670338 -17.686363 8.245311
37.029179 -19.00457 7.188686
37.449455 -20.211632 5.945671
38.570026 -23.046827 5.221735
39.022858 -24.742945 5.920394
39.264973 -26.527399 6.85752
38.409847 -2.534293 10.832504
37.497189 -3.046032 9.355732
37.823395 -4.950696 10.999256
37.281315 -7.068265 10.951294
36.787876 -9.093563 10.760617
37.371082 -10.841258 12.485431
37.829258 -12.560001 14.021667
38.227909 -14.100849 15.564597
38.119419 -15.687 24.615988
38.501205 -16.25515 22.771931
38.126404 -17.911213 24.207748
38.202347 -20.122744 23.439199
38.289436 -22.139477 22.543779
34.711239 -34.877838 24.247679
35.660717 -33.089561 23.629541
36.571941 -31.332287 22.816696
37.328995 -29.521881 22.082476
37.334839 -31.317919 20.688334
37.898643 -31.431118 18.416174
38.401703 -31.197266 15.939919
38.719219 -31.005802 13.544765
38.199341 -32.775982 14.34951
37.930031 -34.147507 12.604197
37.553169 -35.429546 10.566282
34.670372 -41.514317 8.058107
38.565735 3.827164 7.547598
38.836246 1.703825 9.164092
39.675117 2.268946 10.787337
39.032433 -0.181984 10.755263
39.178867 -2.013075 12.460893
39.293644 -3.719681 14.315279
39.310135 -5.534596 16.261997
33.712559 -38.502972 23.285553
34.613544 -38.452858 21.165054
35.400089 -38.322079 18.726345
35.90815 -38.243076 16.352638
34.997124 -39.986233 16.963633
34.547169 -41.387844 15.257518
34.04607 -42.697739 13.174391
36.377048 -13.053329 10.405742
36.327896 -14.81446 9.804356
36.430302 -16.337648 9.069024
37.247253 -17.864061 10.210531
37.96582 -19.456848 11.371692
38.515617 -21.028788 12.47435
40.099205 -0.332428 17.674252
39.835945 -2.624149 17.813074
39.533897 -4.966807 18.025185
39.255688 -7.183044 18.122614
38.673798 -7.302414 23.445993
39.023575 -7.9692 21.662672
39.127281 -8.665726 19.876577
38.991837 -9.387856 18.049391
38.77763 -11.60925 17.973093
38.616379 -13.606516 17.608114
38.53907 -15.651011 17.156298
38.702461 -16.772362 20.740364
38.708126 -17.26754 18.676058
38.542107 -17.673302 16.487488
38.617188 -19.421871 15.776585
38.732365 -21.095919 14.680305
38.919876 -22.768435 13.571072
37.817379 -23.750904 23.666845
38.359333 -24.185495 21.553663
37.928101 -27.883123 21.282362
38.424709 -26.100407 20.374327
38.767464 -24.353785 19.24264
39.010155 -24.457762 16.879642
39.113941 -24.488958 14.565876
39.104168 -24.337484 12.191789
39.237129 -25.728518 10.853241
39.303204 -27.081749 9.319995
39.272995 -28.392757 7.638644
38.943501 -30.658352 10.92433
39.07988 -30.117117 8.400819
39.141144 -29.451008 5.845171
38.893326 -30.49531 3.90735
36.374439 -37.839024 13.982924
36.759907 -37.297764 11.387457
37.025772 -36.69614 8.751327
35.61541 -39.580559 7.360206
36.452591 -37.785301 6.745046
37.223217 -35.972878 6.04262
37.368633 -35.119251 3.241225
37.503803 -34.166 0.746045
40.263277 0.985263 15.039099
40.348786 1.894598 14.104999
40.195854 0.11516 15.921501
40.11075 -0.088956 15.065663
40.263277 0.985263 15.039099
32.386158 -43.025098 21.35409
31.941216 -43.122791 22.47148
32.818335 -42.908054 20.257969
32.891406 -42.114439 21.157718
32.386158 -43.025098 21.35409
32.677482 -43.639854 19.35031
33.18273 -42.729195 19.153938
32.818335 -42.908054 20.257969
39.051874 -4.320513 22.239984
39.044998 -3.244316 22.241894
38.789534 -4.000621 23.142553
38.541773 -12.994932 23.206637
38.345047 -12.723228 24.094428
38.334173 -13.772277 23.955109
35.693922 -38.397457 1.397622
35.586397 -38.888096 2.646494
36.083151 -37.482322 1.046466
35.693922 -38.397457 1.397622
38.063382 -21.620901 5.666809
37.666245 -20.769759 5.232168
37.846592 -21.062775 6.380312
38.406878 -22.480373 6.018344
38.22653 -22.187356 4.8702
38.063382 -21.620901 5.666809
37.852907 -16.537805 25.288109
37.816876 -15.404864 25.534374
37.8564 -17.649911 25.083989
38.122912 -16.799107 24.411868
37.852907 -16.537805 25.288109
34.722676 -35.764925 23.509227
34.237955 -35.774379 24.45866
34.249392 -36.661467 23.720208
39.025442 4.058377 8.322589
38.881411 5.056492 7.550235
39.341117 5.287705 8.325226
39.709903 1.279738 11.650658
39.944515 2.460662 11.586729
39.979301 1.471454 12.450049
33.196834 -39.405205 23.514059
33.200159 -38.451546 24.262777
35.964266 -17.821862 4.653854
36.273388 -18.006873 5.658294
38.762277 -23.789512 2.288555
38.583772 -23.289967 3.201056
38.953458 -24.647394 0.446895
39.064617 -25.562652 0.852121
36.944817 -3.112189 8.534666
37.159485 -4.131296 9.322093
34.937735 -13.151121 7.539636
34.96405 -12.356154 7.799231
35.44973 -13.966629 8.146035
34.937735 -13.151121 7.539636
36.763542 -12.928807 11.294396
36.456097 -12.092517 10.561421
36.842591 -11.967995 11.450074
39.832487 -0.816797 19.343273
39.66404 -0.463763 20.187672
39.581716 -1.629501 20.291328
39.924684 -1.157481 18.56059
40.007008 0.008256 18.456935
39.832487 -0.816797 19.343273
38.351832 -9.314421 24.326129
38.094092 -10.054272 25.195196
38.366932 -10.374907 24.255431
38.649235 -8.468735 23.416179
38.376395 -8.1481 24.355944
38.351832 -9.314421 24.326129
34.103617 -32.746319 26.504734
34.169794 -33.782806 25.85835
33.92613 -30.626911 27.789907
34.452469 -29.768116 27.50097
35.768976 -24.880007 27.53212
35.877148 -25.964013 26.974694
36.258377 -24.003706 27.056495
35.768976 -24.880007 27.53212
36.691536 -24.329769 26.11966
36.258377 -24.003706 27.056495
37.855734 -24.792279 23.103946
37.513645 -24.608751 24.127885
37.552 -25.650126 23.564985
38.501524 -31.914585 3.302295
38.250891 -32.802717 3.65532
37.19964 -34.661808 -0.092942
37.145376 -35.125006 1.15837
36.841213 -35.620813 0.319383
37.533085 -33.692934 -0.565783
37.19964 -34.661808 -0.092942
37.284414 -19.320089 26.262697
37.62139 -18.522778 25.643273
37.332224 -20.458745 25.903067
37.284414 -19.320089 26.262697
36.960254 -20.121887 26.839447
37.362394 -21.522938 25.543298
37.686554 -20.721139 24.966548
37.332224 -20.458745 25.903067
39.735689 5.45142 9.139883
39.341117 5.287705 8.325226
40.196043 1.716763 13.28469
40.348786 1.894598 14.104999
39.961432 0.535838 13.348619
39.979301 1.471454 12.450049
40.196043 1.716763 13.28469
32.005425 -42.151302 23.306016
31.941216 -43.122791 22.47148
32.570169 -41.26946 22.998202
32.005425 -42.151302 23.306016
32.994286 -41.293526 22.010028
33.105227 -40.331503 22.754391
32.570169 -41.26946 22.998202
36.255844 -18.365606 4.024002
36.765837 -19.155576 4.411606
39.145979 -26.500206 1.170278
39.064617 -25.562652 0.852121
39.110094 -26.003121 2.045242
39.141035 -27.41161 1.427211
39.145979 -26.500206 1.170278
39.117338 -28.294848 1.880127
39.141035 -27.41161 1.427211
39.167759 -27.823912 2.816315
39.029213 -29.166766 2.313147
39.117338 -28.294848 1.880127
37.215998 1.381046 6.735041
37.660406 2.549141 6.781192
36.839603 0.24318 6.745439
37.215998 1.381046 6.735041
37.446321 0.305461 7.546704
36.450464 -1.000163 6.826398
36.839603 0.24318 6.745439
35.486727 -12.26711 8.677095
34.96405 -12.356154 7.799231
39.097963 -2.100446 22.140095
39.150641 -0.94626 21.882664
38.835335 -1.770239 22.887032
39.360304 -2.420338 21.237526
39.097963 -2.100446 22.140095
39.044998 -3.244316 22.241894
38.12332 -12.307665 24.983698
37.82188 -11.937355 25.857376
38.33092 -11.530321 24.235228
38.12332 -12.307665 24.983698
38.345047 -12.723228 24.094428
34.935144 -28.824331 27.209487
34.452469 -29.768116 27.50097
35.023497 -29.930568 26.586651
35.480598 -27.900386 26.816558
34.935144 -28.824331 27.209487
35.938423 -27.06431 26.392862
35.480598 -27.900386 26.816558
35.963997 -28.150707 25.871471
36.360546 -26.214334 26.029607
35.877148 -25.964013 26.974694
35.938423 -27.06431 26.392862
36.815866 -26.390615 25.018349
36.754591 -25.290318 25.600181
36.360546 -26.214334 26.029607
37.232256 -26.45046 24.061625
36.815866 -26.390615 25.018349
36.838211 -27.374477 24.491051
37.574345 -26.633988 23.037686
37.552 -25.650126 23.564985
37.232256 -26.45046 24.061625
37.959257 -33.738083 4.033296
38.250891 -32.802717 3.65532
38.174854 -33.278009 4.967678
35.468429 -39.369124 3.856225
35.377865 -39.759273 5.094712
35.060696 -40.252577 4.254521
35.903566 -38.394792 3.486686
35.468429 -39.369124 3.856225
35.586397 -38.888096 2.646494
36.465858 -36.567445 0.693335
36.404241 -36.998888 1.923825
36.083151 -37.482322 1.046466
36.841213 -35.620813 0.319383
36.465858 -36.567445 0.693335
36.35742 -17.549985 7.233649
36.17951 -16.892973 7.70203
36.53684 -18.209089 6.705336
36.35742 -17.549985 7.233649
36.849759 -18.345467 7.716998
36.765726 -18.802355 6.141643
36.273388 -18.006873 5.658294
36.53684 -18.209089 6.705336
37.239428 -19.961322 4.837141
36.765837 -19.155576 4.411606
36.975865 -19.405886 5.520136
37.239428 -19.961322 4.837141
37.666245 -20.769759 5.232168
38.435844 -22.717402 4.046079
38.22653 -22.187356 4.8702
38.717954 -23.619391 4.376712
38.583772 -23.289967 3.201056
38.435844 -22.717402 4.046079
37.322588 -5.083628 10.143855
37.159485 -4.131296 9.322093
37.660292 -3.998364 10.177494
37.051548 -6.142413 10.119874
37.322588 -5.083628 10.143855
37.552355 -6.009481 10.975275
36.765867 -7.180665 10.082405
37.051548 -6.142413 10.119874
36.519148 -8.193314 9.987067
36.765867 -7.180665 10.082405
37.034595 -8.080914 10.855956
36.287838 -9.259227 9.920758
36.519148 -8.193314 9.987067
36.66151 -10.112634 10.738858
36.287838 -9.259227 9.920758
36.953114 -10.986482 11.601266
36.66151 -10.112634 10.738858
37.079479 -9.96741 11.623024
37.260559 -11.822771 12.33424
36.842591 -11.967995 11.450074
36.953114 -10.986482 11.601266
38.481823 -4.702796 23.981973
38.789534 -4.000621 23.142553
38.128433 -14.593787 24.729444
37.816876 -15.404864 25.534374
38.325159 -14.86549 23.841653
38.334173 -13.772277 23.955109
38.128433 -14.593787 24.729444
37.891394 -18.78408 24.767032
37.8564 -17.649911 25.083989
37.62139 -18.522778 25.643273
34.183033 -34.775537 25.192906
34.237955 -35.774379 24.45866
34.698 -33.885107 24.913123
34.169794 -33.782806 25.85835
34.183033 -34.775537 25.192906
34.247156 -42.36245 8.38479
34.540077 -41.818743 9.374482
34.116861 -42.666876 9.701166
34.385182 -41.973005 7.019599
34.247156 -42.36245 8.38479
34.535061 -41.537211 5.737051
34.820251 -41.078522 6.775558
34.385182 -41.973005 7.019599
34.649524 -41.140856 4.573803
34.535061 -41.537211 5.737051
35.060696 -40.252577 4.254521
34.649524 -41.140856 4.573803
38.425794 4.987338 6.81597
38.881411 5.056492 7.550235
38.031915 3.741059 6.786837
37.891975 4.901233 6.05521
38.425794 4.987338 6.81597
38.194226 2.635246 7.541952
37.660406 2.549141 6.781192
38.031915 3.741059 6.786837
39.818164 4.43513 9.914528
39.735689 5.45142 9.139883
39.913148 3.424808 10.759405
39.944515 2.460662 11.586729
39.580133 3.279268 9.942459
39.818164 4.43513 9.914528
39.913148 3.424808 10.759405
33.738615 -37.586946 23.977597
33.200159 -38.451546 24.262777
34.223336 -37.577492 23.028164
34.249392 -36.661467 23.720208
33.738615 -37.586946 23.977597
33.620951 -39.42927 22.525886
33.196834 -39.405205 23.514059
33.105227 -40.331503 22.754391
32.503991 -44.41902 18.491723
32.677482 -43.639854 19.35031
32.791973 -44.260471 17.292838
32.503991 -44.41902 18.491723
33.068984 -44.10512 16.044374
33.318889 -43.305643 16.997816
32.791973 -44.260471 17.292838
33.332115 -43.84292 14.721139
33.068984 -44.10512 16.044374
33.557199 -43.616644 13.433658
33.820985 -42.924015 14.461872
33.332115 -43.84292 14.721139
33.744354 -43.343063 12.166236
33.557199 -43.616644 13.433658
33.92621 -43.055779 10.92447
34.227926 -42.410454 11.932624
33.744354 -43.343063 12.166236
34.116861 -42.666876 9.701166
33.92621 -43.055779 10.92447
35.964266 -17.821862 4.653854
36.255844 -18.365606 4.024002
38.843702 -24.226318 1.386254
38.762277 -23.789512 2.288555
38.947307 -24.628762 2.629387
38.843702 -24.226318 1.386254
38.953458 -24.647394 0.446895
36.731186 -2.005376 7.635351
37.283558 -1.939218 8.456417
36.944817 -3.112189 8.534666
36.450464 -1.000163 6.826398
36.731186 -2.005376 7.635351
35.953152 -12.197214 9.638457
36.456097 -12.092517 10.561421
35.910623 -13.123224 9.444381
35.486727 -12.26711 8.677095
35.953152 -12.197214 9.638457
35.891579 -14.777299 8.806703
35.44973 -13.966629 8.146035
35.886048 -14.00379 9.143688
35.942781 -15.538894 8.439037
35.891579 -14.777299 8.806703
36.379099 -15.576054 9.43669
36.059492 -16.218615 8.113886
35.942781 -15.538894 8.439037
36.55032 -17.012006 8.657167
36.17951 -16.892973 7.70203
36.059492 -16.218615 8.113886
39.456463 -0.099793 20.948909
39.150641 -0.94626 21.882664
39.456463 -0.099793 20.948909
39.66404 -0.463763 20.187672
40.19829 0.737754 17.566807
40.007008 0.008256 18.456935
40.223793 0.428476 16.784595
40.19829 0.737754 17.566807
40.071266 -0.645744 16.811158
40.195854 0.11516 15.921501
40.223793 0.428476 16.784595
38.465671 -5.838333 24.101906
38.481823 -4.702796 23.981973
37.782888 -10.79645 25.966586
37.82188 -11.937355 25.857376
37.782888 -10.79645 25.966586
38.094092 -10.054272 25.195196
38.404365 -6.951131 24.254581
38.376395 -8.1481 24.355944
38.735104 -6.189616 23.293319
38.465671 -5.838333 24.101906
38.404365 -6.951131 24.254581
34.031647 -31.737308 27.154517
34.103617 -32.746319 26.504734
34.612791 -31.883364 26.22835
34.031647 -31.737308 27.154517
33.92613 -30.626911 27.789907
37.400262 -22.665416 25.11733
37.362394 -21.522938 25.543298
36.691536 -24.329769 26.11966
36.754591 -25.290318 25.600181
37.45059 -23.648202 24.647362
37.513645 -24.608751 24.127885
37.767052 -22.768118 24.136812
37.400262 -22.665416 25.11733
37.45059 -23.648202 24.647362
38.903845 -30.060845 2.632207
39.029213 -29.166766 2.313147
39.018694 -29.60123 3.588291
38.714943 -30.990918 2.961119
38.679907 -31.418977 4.248526
38.501524 -31.914585 3.302295
38.903845 -30.060845 2.632207
38.714943 -30.990918 2.961119
37.701964 -34.191021 2.981082
37.959257 -33.738083 4.033296
37.625927 -34.666313 4.29344
37.769548 -33.714395 1.733491
37.701964 -34.191021 2.981082
37.436218 -34.642625 1.993635
37.796059 -33.256057 0.354074
37.769548 -33.714395 1.733491
37.796059 -33.256057 0.354074
37.533085 -33.692934 -0.565783
3 0 58 56
3 0 60 58
3 1 63 61
3 1 65 63
3 2 69 67
3 2 71 69
3 2 73 71
3 222 74 223
3 224 76 225
3 226 225 74
3 224 225 226
3 227 77 228
3 229 79 230
3 231 230 77
3 229 230 231
3 232 81 233
3 234 233 79
3 232 233 234
3 5 84 82
3 5 85 84
3 3 87 86
3 6 90 88
3 6 92 90
3 7 235 237
3 235 94 236
3 235 236 237
3 7 96 94
3 8 238 240
3 238 98 239
3 238 239 240
3 8 100 98
3 8 102 100
3 9 105 103
3 9 107 105
3 10 110 108
3 10 111 110
3 10 112 111
3 11 115 113
3 11 117 115
3 11 119 117
3 12 122 120
3 12 124 122
3 4 127 125
3 241 129 242
3 244 243 129
3 13 132 131
3 15 133 57
3 15 245 247
3 247 246 133
3 245 246 247
3 15 248 250
3 248 134 249
3 248 249 250
3 17 135 59
3 17 136 135
3 18 139 137
3 19 140 62
3 19 141 140
3 19 142 141
3 21 143 64
3 21 144 143
3 251 145 252
3 253 147 254
3 255 254 145
3 253 254 255
3 23 148 66
3 23 149 148
3 24 256 258
3 256 150 257
3 256 257 258
3 26 151 68
3 26 152 151
3 26 154 152
3 28 155 70
3 28 156 155
3 28 158 156
3 30 159 72
3 30 160 159
3 32 259 261
3 259 162 260
3 259 260 261
3 32 163 162
3 33 262 264
3 262 164 263
3 262 263 264
3 33 165 164
3 33 166 165
3 34 167 75
3 34 168 167
3 265 169 266
3 35 170 78
3 35 171 170
3 35 173 171
3 37 174 80
3 37 175 174
3 14 267 268
3 16 269 270
3 272 271 83
3 274 273 138
3 38 275 276
3 38 277 278
3 20 279 281
3 279 176 280
3 279 280 281
3 39 177 89
3 39 178 177
3 39 179 178
3 40 180 91
3 40 181 180
3 41 282 284
3 284 283 93
3 282 283 284
3 41 285 287
3 285 182 286
3 285 286 287
3 41 183 182
3 42 184 95
3 42 185 184
3 43 288 290
3 290 289 97
3 288 289 290
3 43 291 293
3 291 186 292
3 291 292 293
3 43 187 186
3 44 188 99
3 44 189 188
3 44 190 189
3 45 191 101
3 45 192 191
3 22 193 146
3 46 194 104
3 46 195 194
3 46 196 195
3 47 197 106
3 47 198 197
3 25 294 295
3 297 296 109
3 48 298 299
3 48 300 301
3 48 302 303
3 49 304 306
3 304 199 305
3 304 305 306
3 49 200 199
3 27 201 153
3 50 202 114
3 50 203 202
3 50 204 203
3 51 205 116
3 51 206 205
3 51 207 206
3 52 208 118
3 52 209 208
3 29 210 157
3 53 211 121
3 53 212 211
3 53 213 212
3 308 307 123
3 36 214 172
3 54 215 126
3 54 216 215
3 31 217 161
3 55 218 128
3 55 219 218
3 55 220 219
3 309 221 310
3 311 310 130
3 309 310 311
3 313 312 221
3 56 57 13
3 58 57 56
3 58 15 57
3 58 59 15
3 60 59 58
3 60 17 59
3 61 62 18
3 63 62 61
3 63 19 62
3 63 64 19
3 65 64 63
3 65 21 64
3 314 66 315
3 316 66 317
3 316 317 318
3 319 23 320
3 321 320 66
3 319 320 321
3 67 68 24
3 69 68 67
3 69 26 68
3 69 70 26
3 71 70 69
3 71 28 70
3 71 72 28
3 73 72 71
3 73 30 72
3 322 32 323
3 74 324 325
3 74 326 328
3 326 33 327
3 326 327 328
3 74 75 33
3 76 75 74
3 76 34 75
3 77 329 330
3 77 331 332
3 77 333 335
3 333 78 334
3 333 334 335
3 79 78 77
3 79 35 78
3 79 80 35
3 81 80 79
3 81 37 80
3 337 336 14
3 82 83 16
3 84 83 82
3 84 338 340
3 340 339 83
3 338 339 340
3 84 341 342
3 85 343 345
3 345 344 84
3 343 344 345
3 85 346 347
3 86 348 349
3 87 350 352
3 352 351 86
3 350 351 352
3 87 353 354
3 355 38 356
3 88 89 20
3 90 89 88
3 90 39 89
3 90 91 39
3 92 91 90
3 92 40 91
3 357 93 358
3 357 358 359
3 94 360 362
3 360 93 361
3 360 361 362
3 94 41 93
3 94 95 41
3 96 95 94
3 96 42 95
3 363 97 364
3 98 365 367
3 365 97 366
3 365 366 367
3 98 43 97
3 98 99 43
3 100 99 98
3 100 44 99
3 100 101 44
3 102 101 100
3 102 45 101
3 103 104 22
3 105 104 103
3 105 46 104
3 105 106 46
3 107 106 105
3 107 47 106
3 108 109 25
3 110 109 108
3 110 368 370
3 370 369 109
3 368 369 370
3 110 371 372
3 111 373 375
3 375 374 110
3 373 374 375
3 111 376 378
3 376 48 377
3 376 377 378
3 111 379 381
3 381 380 48
3 379 380 381
3 112 382 384
3 384 383 111
3 382 383 384
3 112 385 387
3 385 49 386
3 385 386 387
3 113 114 27
3 115 114 113
3 115 50 114
3 115 116 50
3 117 116 115
3 117 51 116
3 117 118 51
3 119 118 117
3 119 52 118
3 120 121 29
3 122 121 120
3 122 53 121
3 122 123 53
3 124 123 122
3 124 388 390
3 390 389 123
3 388 389 390
3 125 126 36
3 127 126 125
3 127 54 126
3 391 128 392
3 393 392 31
3 391 392 393
3 129 394 396
3 394 128 395
3 394 395 396
3 129 55 128
3 129 130 55
3 397 130 398
3 399 398 129
3 397 398 399
3 401 400 130
3 131 402 403
3 132 404 406
3 406 405 131
3 404 405 406
3 132 407 409
3 407 14 408
3 407 408 409
3 57 132 13
3 133 132 57
3 133 14 132
3 133 410 412
3 412 411 14
3 410 411 412
3 414 413 133
3 134 415 416
3 134 417 419
3 417 16 418
3 417 418 419
3 59 134 15
3 135 134 59
3 135 16 134
3 135 82 16
3 136 82 135
3 136 5 82
3 137 138 3
3 139 138 137
3 139 420 422
3 422 421 138
3 420 421 422
3 62 139 18
3 140 139 62
3 140 423 425
3 425 424 139
3 423 424 425
3 140 426 427
3 141 428 430
3 430 429 140
3 428 429 430
3 141 431 432
3 141 433 434
3 142 435 437
3 437 436 141
3 435 436 437
3 142 438 440
3 438 20 439
3 438 439 440
3 64 142 19
3 143 142 64
3 143 20 142
3 143 88 20
3 144 88 143
3 144 6 88
3 441 7 442
3 145 443 444
3 145 445 447
3 445 8 446
3 445 446 447
3 145 146 8
3 147 146 145
3 147 22 146
3 66 448 450
3 448 147 449
3 448 449 450
3 148 147 66
3 148 22 147
3 148 103 22
3 149 103 148
3 149 9 103
3 150 451 452
3 150 453 455
3 453 25 454
3 453 454 455
3 68 150 24
3 151 150 68
3 151 25 150
3 151 108 25
3 152 108 151
3 152 10 108
3 152 153 10
3 154 153 152
3 154 27 153
3 70 154 26
3 155 154 70
3 155 27 154
3 155 113 27
3 156 113 155
3 156 11 113
3 156 157 11
3 158 157 156
3 158 29 157
3 72 158 28
3 159 158 72
3 159 29 158
3 159 120 29
3 160 120 159
3 160 12 120
3 456 161 457
3 458 457 4
3 456 457 458
3 459 161 460
3 461 31 462
3 463 462 161
3 461 462 463
3 464 31 465
3 467 466 31
3 162 468 469
3 162 470 472
3 470 471 472
3 162 473 475
3 473 86 474
3 473 474 475
3 163 86 162
3 163 3 86
3 476 32 477
3 164 478 479
3 164 480 482
3 480 32 481
3 480 481 482
3 164 163 32
3 165 163 164
3 165 3 163
3 165 137 3
3 166 137 165
3 166 18 137
3 75 166 33
3 167 166 75
3 167 18 166
3 167 61 18
3 168 61 167
3 168 1 61
3 169 483 484
3 169 485 487
3 485 24 486
3 485 486 487
3 78 488 490
3 488 169 489
3 488 489 490
3 170 169 78
3 170 24 169
3 170 67 24
3 171 67 170
3 171 2 67
3 171 172 2
3 173 172 171
3 173 36 172
3 80 173 35
3 174 173 80
3 174 36 173
3 174 125 36
3 175 125 174
3 175 4 125
3 491 81 492
3 493 81 494
3 495 37 496
3 497 496 81
3 495 496 497
3 498 37 499
3 500 175 501
3 502 501 37
3 500 501 502
3 503 175 504
3 505 4 506
3 507 506 175
3 505 506 507
3 509 508 4
3 511 510 14
3 83 512 514
3 514 513 16
3 512 513 514
3 516 515 83
3 138 87 3
3 517 87 518
3 519 518 138
3 517 518 519
3 521 520 87
3 176 522 523
3 176 524 526
3 524 38 525
3 524 525 526
3 89 176 20
3 177 176 89
3 177 38 176
3 177 527 529
3 529 528 38
3 527 528 529
3 178 530 532
3 532 531 177
3 530 531 532
3 178 533 534
3 178 535 537
3 535 131 536
3 535 536 537
3 179 131 178
3 179 13 131
3 91 179 39
3 180 179 91
3 180 13 179
3 180 56 13
3 181 56 180
3 181 0 56
3 93 538 539
3 541 540 93
3 182 542 543
3 182 544 545
3 182 546 548
3 546 76 547
3 546 547 548
3 183 76 182
3 183 34 76
3 95 183 41
3 184 183 95
3 184 34 183
3 184 168 34
3 185 168 184
3 185 1 168
3 549 7 550
3 97 551 552
3 554 553 97
3 186 555 556
3 186 557 559
3 557 7 558
3 557 558 559
3 186 96 7
3 187 96 186
3 187 42 96
3 99 187 43
3 188 187 99
3 188 42 187
3 188 185 42
3 189 185 188
3 189 1 185
3 189 65 1
3 190 65 189
3 190 21 65
3 101 190 44
3 191 190 101
3 191 21 190
3 191 144 21
3 192 144 191
3 192 6 144
3 146 102 8
3 193 102 146
3 193 45 102
3 104 193 22
3 194 193 104
3 194 45 193
3 194 192 45
3 195 192 194
3 195 6 192
3 195 92 6
3 196 92 195
3 196 40 92
3 106 196 46
3 197 196 106
3 197 40 196
3 197 181 40
3 198 181 197
3 198 0 181
3 109 560 562
3 562 561 25
3 560 561 562
3 564 563 109
3 565 23 566
3 568 567 48
3 199 569 570
3 199 571 573
3 571 23 572
3 571 572 573
3 199 149 23
3 200 149 199
3 200 9 149
3 153 112 10
3 201 112 153
3 201 49 112
3 114 201 27
3 202 201 114
3 202 49 201
3 202 200 49
3 203 200 202
3 203 9 200
3 203 107 9
3 204 107 203
3 204 47 107
3 116 204 50
3 205 204 116
3 205 47 204
3 205 198 47
3 206 198 205
3 206 0 198
3 206 60 0
3 207 60 206
3 207 17 60
3 118 207 51
3 208 207 118
3 208 17 207
3 208 136 17
3 209 136 208
3 209 5 136
3 157 119 11
3 210 119 157
3 210 52 119
3 121 210 29
3 211 210 121
3 211 52 210
3 211 209 52
3 212 209 211
3 212 5 209
3 212 85 5
3 213 85 212
3 213 574 576
3 576 575 85
3 574 575 576
3 123 213 53
3 577 213 578
3 579 578 123
3 577 578 579
3 581 580 213
3 172 73 2
3 214 73 172
3 214 30 73
3 126 214 36
3 215 214 126
3 215 30 214
3 215 160 30
3 216 160 215
3 216 12 160
3 161 127 4
3 217 127 161
3 217 54 127
3 128 217 31
3 218 217 128
3 218 54 217
3 218 216 54
3 219 216 218
3 219 12 216
3 219 124 12
3 220 124 219
3 220 582 584
3 584 583 124
3 582 583 584
3 130 220 55
3 221 220 130
3 221 585 587
3 587 586 220
3 585 586 587
3 221 588 589
3 591 590 221
