ply
format ascii 1.0
element vertex 213
property float x
property float y
property float z
element face 179
property list uchar int vertex_index
end_header
-2.159414 2.618351 -63.907612
-2.873408 -8.296381 -60.364635
-0.766425 -1.947405 -60.218426
-2.571131 -2.880743 -62.286884
-1.171281 -7.482529 -58.61541
-4.647791 -4.043397 -63.830811
-6.850972 -5.937109 -64.513565
0.256323 -12.588025 -54.572708
-1.361066 -13.222135 -56.654175
-0.967914 -4.640103 -59.454624
-1.899208 5.343213 -64.478088
-2.948537 4.898462 -65.604721
-3.156741 2.371137 -64.972229
-2.725143 -5.576911 -61.347202
-3.547963 -3.419249 -63.108742
-3.69354 -6.117154 -62.109001
-4.79875 -6.682404 -62.819904
-3.956782 -8.742924 -61.220646
-6.858318 -3.296299 -65.641991
1.932117 -20.310045 -49.948269
1.027333 -17.698555 -51.895523
1.019333 -14.790228 -52.668514
0.254368 -15.323114 -53.718365
-0.567769 -12.820652 -55.740295
-0.529652 -15.943672 -54.63063
-0.544495 0.504323 -60.817207
-1.453385 0.360106 -62.134014
-2.32936 -0.133599 -63.094769
-1.656259 -2.40526 -61.332668
-1.852878 -5.151157 -60.478836
-1.996595 -7.951622 -59.513226
-3.37309 -0.467366 -64.125496
-5.750908 -4.875681 -64.297531
2.936696 -22.747971 -48.047783
0.289281 -9.714567 -55.497681
-0.463858 -10.016495 -56.598957
-1.281738 -10.206438 -57.697277
-2.08922 -10.792953 -58.469547
-2.029311 3.980782 -64.19285
-1.54015 4.130035 -63.577659
-1.670253 2.767604 -63.292422
-6.809219 -1.828918 -66.21143
-7.468111 -2.397435 -66.314239
0.66542 -18.032119 -52.334947
1.102611 -19.297128 -51.415394
0.278937 -16.844399 -53.246369
0.64085 -16.510835 -52.806944
0.66542 -18.032119 -52.334947
-0.113073 -17.154677 -53.702501
-0.137642 -15.633393 -54.174498
0.278937 -16.844399 -53.246369
-0.65546 -0.721541 -60.517817
-0.23076 -0.703383 -59.824707
-0.341725 -1.929248 -59.525317
-4.580535 -2.64747 -64.351281
-4.030622 -2.335396 -63.990246
-4.097877 -3.731323 -63.469776
-5.177324 -3.069483 -64.631863
-4.580535 -2.64747 -64.351281
-5.19935 -4.459539 -64.064171
-5.728883 -3.485626 -64.865223
-5.177324 -3.069483 -64.631863
-5.328193 -7.158728 -62.995048
-4.901034 -8.069631 -62.293399
-7.39127 -6.72975 -64.435791
-7.461569 -5.274257 -65.102104
-6.860006 -7.319786 -63.911741
-7.39127 -6.72975 -64.435791
2.556468 -23.094738 -48.55262
3.108522 -24.274641 -47.62768
2.292281 -20.011669 -49.433662
1.8404 -18.805657 -50.39786
0.594186 -12.294778 -54.104812
0.975691 -13.395879 -53.152715
0.637828 -13.689127 -53.620611
0.272802 -11.151296 -55.035195
0.610664 -10.858049 -54.567299
0.594186 -12.294778 -54.104812
-0.456954 -3.203878 -59.220123
-0.341725 -1.929248 -59.525317
-0.557698 -4.550227 -58.838223
-0.86717 -3.293754 -59.836525
-0.456954 -3.203878 -59.220123
-0.652075 -5.899667 -58.46736
-0.557698 -4.550227 -58.838223
-0.753758 -7.320881 -58.047753
-1.069597 -6.061316 -59.035017
-0.652075 -5.899667 -58.46736
-1.372828 5.421568 -63.757347
-1.54015 4.130035 -63.577659
-1.754313 6.602996 -64.643627
-1.227933 6.681351 -63.922886
-1.372828 5.421568 -63.757347
-2.336806 6.478487 -65.339199
-1.754313 6.602996 -64.643627
-2.861471 6.256111 -65.902515
-2.336806 6.478487 -65.339199
-2.423872 5.120838 -65.041404
-3.399244 5.995643 -66.392482
-2.861471 6.256111 -65.902515
-3.536938 4.702948 -66.12896
-3.399244 5.995643 -66.392482
-3.64104 3.439286 -65.812714
-3.536938 4.702948 -66.12896
-3.052639 3.6348 -65.288475
-3.741526 2.006311 -65.400044
-3.64104 3.439286 -65.812714
-4.48005 -9.099891 -61.49377
-4.901034 -8.069631 -62.293399
-4.377766 -7.712664 -62.020275
-7.465241 -3.953852 -65.666317
-7.468111 -2.397435 -66.314239
-6.854645 -4.616704 -65.077778
-7.461569 -5.274257 -65.102104
-7.465241 -3.953852 -65.666317
1.555003 -20.602873 -50.441767
2.054178 -21.875774 -49.502863
1.479725 -19.0043 -50.921896
1.555003 -20.602873 -50.441767
1.102611 -19.297128 -51.415394
1.388008 -17.499913 -51.371487
1.8404 -18.805657 -50.39786
1.479725 -19.0043 -50.921896
1.023333 -16.244391 -52.282018
1.384008 -16.045749 -51.757982
1.388008 -17.499913 -51.371487
-0.121482 0.615371 -60.148068
-0.23076 -0.703383 -59.824707
-0.384895 1.761778 -61.019339
-0.121482 0.615371 -60.148068
-0.862794 1.71059 -61.747219
-0.384895 1.761778 -61.019339
-1.317239 1.638481 -62.405622
-0.862794 1.71059 -61.747219
-0.99894 0.432214 -61.475611
-1.806399 1.489229 -63.020813
-1.670253 2.767604 -63.292422
-1.317239 1.638481 -62.405622
-3.849701 0.587059 -64.976677
-3.741526 2.006311 -65.400044
-3.264915 0.951886 -64.548862
-3.943185 -0.859455 -64.498623
-3.460527 -1.943308 -63.617119
-4.030622 -2.335396 -63.990246
-3.849701 0.587059 -64.976677
-3.943185 -0.859455 -64.498623
-6.282587 -2.695934 -65.537453
-6.809219 -1.828918 -66.21143
-6.304613 -4.08599 -64.969761
-6.282587 -2.695934 -65.537453
-5.728883 -3.485626 -64.865223
-5.804272 -6.255367 -63.733862
-5.274829 -5.779043 -63.558718
-5.328193 -7.158728 -62.995048
-6.354304 -6.786081 -63.841879
-6.30094 -5.406395 -64.405548
-5.804272 -6.255367 -63.733862
-6.860006 -7.319786 -63.911741
-6.354304 -6.786081 -63.841879
3.476403 -23.986394 -47.123711
3.108522 -24.274641 -47.62768
3.271275 -22.420206 -47.572848
3.476403 -23.986394 -47.123711
2.434407 -21.529008 -48.998026
2.556468 -23.094738 -48.55262
2.054178 -21.875774 -49.502863
2.79457 -21.230632 -48.483419
2.434407 -21.529008 -48.998026
2.292281 -20.011669 -49.433662
3.271275 -22.420206 -47.572848
2.79457 -21.230632 -48.483419
1.357591 -14.649971 -52.136807
1.722266 -15.905492 -51.226275
1.384008 -16.045749 -51.757982
1.357591 -14.649971 -52.136807
0.975691 -13.395879 -53.152715
0.656238 -9.618455 -54.893736
0.610664 -10.858049 -54.567299
0.366979 -8.388514 -55.846882
0.656238 -9.618455 -54.893736
-0.023477 -8.4369 -56.488888
0.366979 -8.388514 -55.846882
-0.400046 -8.587864 -57.039526
-0.023477 -8.4369 -56.488888
-0.087288 -9.865531 -56.048319
-0.81757 -8.749512 -57.607183
-0.753758 -7.320881 -58.047753
-0.400046 -8.587864 -57.039526
-0.524684 -17.407576 -54.165651
-0.113073 -17.154677 -53.702501
-0.983573 -16.099813 -55.139627
-0.524684 -17.407576 -54.165651
-1.399281 -14.739045 -56.151399
-0.945359 -14.582904 -55.642403
-0.983573 -16.099813 -55.139627
-1.822974 -13.452565 -57.098084
-1.399281 -14.739045 -56.151399
-2.187051 -12.237974 -58.005769
-1.725143 -12.007544 -57.561861
-1.822974 -13.452565 -57.098084
-2.596996 -10.962267 -58.939878
-2.187051 -12.237974 -58.005769
-2.98909 -9.713981 -59.887422
-2.481314 -9.544667 -59.417091
-2.596996 -10.962267 -58.939878
-3.530778 -9.937253 -60.315428
-3.415095 -8.519652 -60.792641
-2.98909 -9.713981 -59.887422
-4.057842 -10.19888 -60.680731
-3.530778 -9.937253 -60.315428
-4.58111 -10.555847 -60.953856
-4.48005 -9.099891 -61.49377
-4.057842 -10.19888 -60.680731
3 0 38 40
3 38 10 39
3 38 39 40
3 0 11 10
3 0 12 11
3 1 15 13
3 1 17 15
3 41 18 42
3 43 20 44
3 45 22 46
3 47 46 20
3 45 46 47
3 48 24 49
3 50 49 22
3 48 49 50
3 2 51 53
3 51 25 52
3 51 52 53
3 2 26 25
3 2 28 26
3 4 29 9
3 4 30 29
3 3 31 27
3 5 54 56
3 56 55 14
3 54 55 56
3 5 57 58
3 5 59 61
3 59 32 60
3 59 60 61
3 63 62 16
3 6 64 65
3 6 66 67
3 68 33 69
3 71 70 19
3 7 72 74
3 74 73 21
3 72 73 74
3 7 75 77
3 75 34 76
3 75 76 77
3 7 35 34
3 8 36 23
3 8 37 36
3 78 2 79
3 80 9 81
3 82 81 2
3 80 81 82
3 83 9 84
3 85 4 86
3 87 86 9
3 85 86 87
3 10 88 89
3 10 90 92
3 90 91 92
3 10 93 94
3 11 95 97
3 97 96 10
3 95 96 97
3 11 98 99
3 11 100 101
3 12 102 104
3 104 103 11
3 102 103 104
3 12 105 106
3 13 14 3
3 15 14 13
3 15 5 14
3 15 16 5
3 17 16 15
3 17 107 109
3 109 108 16
3 107 108 109
3 18 110 111
3 18 112 114
3 112 6 113
3 112 113 114
3 115 19 116
3 20 117 119
3 117 19 118
3 117 118 119
3 20 120 122
3 122 121 19
3 120 121 122
3 20 123 125
3 123 21 124
3 123 124 125
3 22 21 20
3 22 7 21
3 22 23 7
3 24 23 22
3 24 8 23
3 25 126 127
3 25 128 129
3 25 130 131
3 26 132 134
3 134 133 25
3 132 133 134
3 26 135 137
3 135 0 136
3 135 136 137
3 26 27 0
3 28 27 26
3 28 3 27
3 9 28 2
3 29 28 9
3 29 3 28
3 29 13 3
3 30 13 29
3 30 1 13
3 27 12 0
3 31 12 27
3 31 138 140
3 140 139 12
3 138 139 140
3 14 31 3
3 141 31 142
3 143 142 14
3 141 142 143
3 145 144 31
3 146 18 147
3 32 148 150
3 148 18 149
3 148 149 150
3 32 6 18
3 16 32 5
3 151 32 152
3 153 152 16
3 151 152 153
3 154 6 155
3 156 155 32
3 154 155 156
3 158 157 6
3 33 159 160
3 33 161 162
3 19 163 165
3 163 33 164
3 163 164 165
3 166 33 167
3 168 167 19
3 166 167 168
3 170 169 33
3 21 171 173
3 171 172 173
3 175 174 21
3 34 176 177
3 34 178 179
3 34 180 181
3 35 182 184
3 184 183 34
3 182 183 184
3 35 185 187
3 185 4 186
3 185 186 187
3 23 35 7
3 36 35 23
3 36 4 35
3 36 30 4
3 37 30 36
3 37 1 30
3 188 24 189
3 190 24 191
3 192 8 193
3 194 193 24
3 192 193 194
3 195 8 196
3 197 37 198
3 199 198 8
3 197 198 199
3 200 37 201
3 202 1 203
3 204 203 37
3 202 203 204
3 205 17 206
3 207 206 1
3 205 206 207
3 208 17 209
3 212 211 17
3 210 211 212
