ply
format ascii 1.0
element vertex 703
property float x
property float y
property float z
element face 720
property list uchar int vertex_index
end_header
-40.854156 -27.051092 -31.189356
-39.125629 -29.613762 -45.496834
-40.892967 -4.314759 -44.579628
-41.5033 -16.346043 -38.409542
-41.078243 -6.745286 -36.599899
-38.119534 -16.369896 -53.823238
-38.071434 -41.270241 -36.773037
-40.751961 -28.090578 -38.244709
-40.938885 -15.782024 -46.216919
-39.190456 -2.62526 -53.58268
-39.374805 3.492263 -40.35334
-38.449287 7.455056 -49.990658
-35.007565 10.496861 -59.908096
-26.437347 25.807159 -56.593014
-40.998741 -8.168198 -33.044319
-40.085308 -32.84095 -30.470539
-40.005787 -33.775089 -34.083305
-40.886517 -27.711653 -34.663876
-41.366756 -10.273982 -41.831375
-41.407295 -16.073793 -42.180225
-41.099709 -9.827952 -45.705181
-40.303734 -9.312509 -50.098518
-40.325157 -3.343539 -49.076515
-39.435688 0.749735 -35.940037
-34.718033 15.661375 -48.927128
-37.1945 10.985902 -47.233059
-37.065346 9.107649 -55.223106
-34.368629 15.029756 -57.674561
-38.86335 -35.552761 -41.188725
-41.323757 -21.847139 -34.827824
-41.075302 -5.427233 -40.516647
-31.885509 19.619295 -50.279228
-38.867271 -23.187622 -49.788956
-36.712582 -23.471558 -53.139069
-37.220871 -44.971561 -28.831141
-38.657768 -40.019566 -33.223282
-39.665184 -34.542099 -37.800674
-40.180519 -29.017462 -41.89233
-41.32814 -22.037544 -38.532181
-41.022018 -22.40926 -42.357674
-40.299145 -22.53377 -46.101982
-39.831398 -15.828982 -50.347713
-38.905758 -9.105255 -54.087238
-40.041504 -32.103149 -27.180084
-40.461449 -1.583443 -38.477871
-40.36562 0.200357 -43.033047
-37.751331 8.238634 -42.008495
-39.123188 5.649806 -45.004761
-39.93689 1.782361 -47.414135
-38.994411 3.045355 -52.323814
-37.452198 3.990263 -56.891773
-35.185242 4.569337 -61.085182
-30.134697 22.172674 -55.720894
-40.52602 -29.926132 -30.919689
-40.538624 -30.284712 -32.647312
-40.906567 -27.159702 -32.976913
-41.171169 -7.216521 -43.218262
-41.263306 -9.788437 -43.785225
-41.002464 -6.785673 -45.467327
-40.743034 -6.432964 -47.569061
-40.664776 -3.790097 -46.843323
-34.178158 16.815443 -51.749401
-35.544605 14.501575 -50.655506
-35.458633 13.948095 -55.00703
-39.054317 -32.550694 -43.420822
-38.183018 -36.250237 -42.858994
-38.287296 -33.080765 -45.197384
-41.264301 -8.744244 -37.253216
-41.280666 -8.330132 -39.068043
-41.091457 -6.063686 -38.526081
-38.608288 -19.793247 -51.74696
-37.92321 -23.082872 -51.59082
-38.074177 -41.988083 -29.321905
-37.956863 -42.66539 -31.029388
-38.770679 -39.540642 -31.556719
-40.412197 -31.125914 -36.137508
-39.876816 -34.167648 -36.00177
-40.268471 -31.328106 -38.023739
-39.979607 -31.829456 -39.827049
-40.524799 -28.583057 -40.011906
-41.449753 -19.090704 -36.617668
-41.362423 -21.672283 -36.746967
-41.463329 -18.902107 -38.638161
-41.228443 -16.110413 -44.169899
-41.272774 -19.125179 -42.396996
-41.027367 -19.186617 -44.343678
-40.730644 -22.36227 -44.268723
-40.672714 -19.165483 -46.235291
-40.143288 -19.080093 -48.27169
-40.472122 -15.701791 -48.329456
-39.826672 -5.885133 -51.826439
-39.673531 -9.29282 -52.168461
-39.11235 -5.688902 -53.922504
-38.146416 -5.523959 -56.077244
-38.335632 -2.36342 -55.773006
-39.536625 -34.845051 -26.775591
-39.518406 -34.411671 -24.995193
-40.461281 -28.759459 -26.014383
-39.443592 2.127249 -38.120739
-40.003685 0.905235 -39.438499
-40.447578 -0.683244 -40.642769
-39.980598 1.806566 -41.617126
-37.869534 9.457439 -48.770527
-38.249348 8.354552 -46.210255
-38.80175 6.758472 -47.526718
-39.592838 3.867786 -46.317577
-39.282852 4.575381 -48.739433
-39.569691 2.260707 -49.878342
-38.782154 5.435423 -51.215832
-36.129929 9.811992 -57.620647
-37.29528 6.738202 -56.199741
-36.29493 7.395437 -58.463852
-36.466637 4.315364 -58.953491
-35.197468 7.647876 -60.561531
-29.257669 22.992296 -53.672691
-28.275146 24.120434 -56.292229
-37.485973 -43.980644 -34.592491
-41.046635 -7.487441 -34.674236
-39.568634 -35.675228 -30.206739
-39.482162 -36.383408 -31.879992
-40.089478 -33.210781 -32.327553
-40.512787 -30.665829 -34.463604
-40.869911 -27.780926 -36.414555
-41.476997 -13.180511 -40.05032
-41.48708 -16.059196 -40.299019
-41.42746 -13.134743 -42.031219
-41.303879 -12.966815 -43.979691
-41.067829 -12.640163 -46.069206
-40.6954 -12.627949 -48.128792
-40.762657 -9.305288 -47.98505
-40.349625 -6.01554 -49.734585
-39.829727 -2.947532 -51.387348
-38.701275 4.473219 -38.748886
-36.070374 13.296434 -48.050255
-36.80608 12.002115 -49.800495
-37.398792 10.353299 -51.237289
-37.865173 8.27117 -52.614086
-36.755062 11.147137 -53.875381
-35.856537 12.078882 -56.403164
-34.807022 12.891461 -58.80069
-24.476732 27.408251 -56.623264
-38.520393 -38.485439 -38.996761
-41.08989 -24.183409 -31.442499
-41.137657 -24.3561 -33.102261
-41.286873 -21.572193 -33.202034
-41.480186 -13.575704 -38.153076
-41.409321 -10.72381 -39.675499
-41.266014 -7.929244 -41.077808
-41.018883 -4.859139 -42.483898
-33.368156 17.680769 -49.638908
-32.67646 18.983116 -52.449699
-39.112705 -26.265648 -47.646633
-38.3815 -29.636143 -47.324505
-38.198208 -26.466648 -49.489353
-37.003952 -45.917549 -30.518559
-37.767487 -43.348026 -32.746376
-38.392906 -40.752834 -34.986279
-39.416855 -36.745037 -33.723434
-39.193546 -37.479275 -35.427414
-38.949425 -37.83783 -37.285831
-39.325989 -35.078426 -39.470695
-39.595089 -32.222286 -41.57449
-39.747978 -29.050079 -43.860054
-41.170376 -24.547274 -34.912704
-41.161304 -24.819752 -36.598289
-41.085293 -25.13269 -38.48204
-41.404556 -19.191654 -40.472958
-41.228767 -22.176413 -40.46291
-40.954536 -25.132519 -40.352039
-40.680859 -25.567198 -42.15218
-40.315754 -25.811922 -43.958614
-39.775597 -25.903763 -45.971699
-39.697292 -22.633665 -48.022499
-39.451275 -19.414379 -50.077881
-39.058445 -16.023115 -52.157135
-40.115601 -12.561457 -50.335724
-39.429237 -12.543749 -52.248779
-36.346443 -47.313549 -26.512373
-37.291943 -44.276718 -26.994871
-38.168934 -41.205532 -27.585674
-39.560959 -35.232571 -28.421741
-40.089993 -32.327011 -28.829378
-40.512341 -29.488916 -29.293306
-40.057575 -31.522877 -25.54306
-40.456909 -29.321037 -27.540022
-40.804672 -26.87364 -29.494459
-40.819618 -5.156374 -35.631004
-39.988235 -1.46048 -35.287548
-40.83316 -4.230248 -37.573933
-40.820168 -3.380647 -39.501835
-40.766285 -2.514736 -41.642525
-40.686184 -2.01669 -43.85548
-38.691589 5.791342 -41.280792
-38.471794 7.249239 -43.728577
-39.324638 4.502365 -42.638714
-39.814529 2.962544 -43.997623
-40.234257 0.804351 -45.17667
-40.473228 -1.316062 -46.238697
-40.172928 -0.740762 -48.457302
-39.760735 -0.331553 -50.710258
-39.173923 0.227505 -52.978043
-38.087631 6.17526 -53.867886
-38.265671 3.680221 -54.733665
-38.423107 0.614936 -55.221249
-37.424953 0.918329 -57.521038
-36.371826 1.224092 -59.428322
-35.064949 1.458679 -61.34222
-31.021225 21.050186 -52.990505
-23.251936 28.283726 -58.932568
-25.237129 26.744162 -58.899155
-27.000448 25.178835 -58.909504
-33.839809 7.909064 -62.617634
-33.669357 4.801821 -63.086945
-34.517889 16.199677 -52.628679
-33.753415 17.435693 -53.036773
-41.171272 -7.744765 -36.926558
-41.247685 -8.980642 -36.334311
-41.154656 -7.981163 -36.007652
-37.799925 -18.074038 -53.719183
-38.044302 -19.785713 -52.681044
-38.363911 -18.081572 -52.785099
-38.814468 -39.222158 -30.648735
-38.422428 -40.764363 -30.439312
-38.466217 -40.445879 -29.531328
-39.22789 -35.505733 -23.982064
-39.219003 -35.797783 -24.865444
-26.958536 25.248045 -55.310043
-26.045615 26.041441 -55.477087
-27.356246 24.963797 -56.442622
-27.877435 24.404682 -55.159651
-26.958536 25.248045 -55.310043
-37.532299 -43.077621 -36.555769
-37.239569 -44.432823 -35.465496
-37.778704 -42.625442 -35.682764
-41.091334 -8.926146 -33.360426
-41.059484 -9.200679 -32.565231
-41.022688 -7.82782 -33.859278
-41.11528 -8.585767 -34.175384
-41.091334 -8.926146 -33.360426
-38.275904 4.862747 -37.932926
-38.694233 3.76644 -37.626969
-35.394204 14.478904 -48.488692
-35.655404 13.727266 -47.08371
-34.979233 14.909737 -47.522147
-36.510677 12.519846 -51.073923
-36.175342 13.251845 -50.228001
-35.87994 13.769576 -51.501429
-36.807034 11.695438 -51.79232
-37.102436 11.177707 -50.518892
-36.510677 12.519846 -51.073923
-36.485169 12.092357 -53.111366
-37.076927 10.750218 -52.556335
-36.807034 11.695438 -51.79232
-23.548048 28.098163 -56.663698
-24.117036 27.574638 -55.413356
-38.39873 -37.305492 -40.995487
-38.227251 -38.771832 -39.899506
-38.691871 -37.0191 -40.092743
-37.642696 -38.053648 -42.664183
-37.784754 -36.397374 -43.739674
-41.257464 -21.536371 -32.352263
-41.188381 -22.877801 -32.322266
-41.158972 -22.841979 -31.472496
-41.440574 -12.371393 -37.933775
-41.461101 -13.610298 -37.221489
-41.405142 -10.945446 -38.694986
-41.444754 -12.149757 -38.914288
-41.440574 -12.371393 -37.933775
-32.626832 18.650032 -49.959068
-32.927049 17.937544 -48.628519
-32.185726 18.906807 -48.948679
-36.90455 -25.06971 -52.15102
-37.509864 -24.875367 -51.376896
-37.317896 -23.277215 -52.364945
-36.229322 -25.452887 -52.801922
-36.90455 -25.06971 -52.15102
-37.112412 -45.444555 -29.67485
-36.597915 -47.057654 -29.341949
-36.706375 -46.58466 -28.498241
-38.744591 -10.953812 -54.04721
-39.006331 -12.67306 -53.127981
-39.167497 -10.824502 -53.168008
-38.44697 -9.093712 -54.985792
-38.744591 -10.953812 -54.04721
-37.649479 -5.551766 -56.943981
-37.727774 -3.8526 -56.952396
-35.90513 -48.293161 -25.300234
-35.836628 -48.793059 -26.183332
-35.395316 -49.772671 -24.971193
-37.320609 -43.903134 -26.126629
-36.860489 -45.358561 -25.820881
-37.759104 -42.367541 -26.42203
-37.730439 -42.741125 -27.290273
-37.320609 -43.903134 -26.126629
-39.24831 -36.431801 -27.403357
-39.229429 -36.756664 -28.190396
-40.051191 -31.33099 -24.740882
-39.799657 -32.69727 -24.47102
-40.613932 -27.924166 -27.689126
-40.459095 -29.040248 -26.777203
-40.616118 -27.643377 -26.926306
-40.787813 -26.700468 -28.666345
-40.630791 -28.097338 -28.51724
-40.613932 -27.924166 -27.689126
-40.911689 -25.552593 -29.572333
-40.787813 -26.700468 -28.666345
-40.626785 -4.460698 -35.084831
-40.803674 -5.63848 -34.718853
-39.711962 -0.355372 -35.613793
-39.655678 -0.945723 -34.639717
-39.379404 0.159384 -34.965961
-40.475329 -2.172731 -37.48321
-40.25147 -0.984714 -37.858698
-40.647305 -2.906845 -38.025902
-40.661184 -3.496134 -37.03124
-40.475329 -2.172731 -37.48321
-37.838915 7.439854 -40.785669
-37.318861 8.593452 -41.123901
-38.22146 7.014988 -41.644644
-38.309044 6.216208 -40.421818
-37.838915 7.439854 -40.785669
-37.371011 10.316072 -45.923001
-36.862837 11.419752 -46.325314
-30.926532 21.217023 -55.489119
-31.369796 20.655779 -54.123924
-30.577961 21.61143 -54.3557
-23.446359 27.953147 -60.140709
-22.466506 28.658177 -60.128653
-24.438956 27.183365 -60.124003
-24.244532 27.513944 -58.915862
-23.446359 27.953147 -60.140709
-27.300787 24.654671 -59.851589
-26.282719 25.617897 -60.030029
-27.950032 24.240153 -58.655163
-27.300787 24.654671 -59.851589
-33.062914 9.428202 -63.36727
-33.802334 9.304382 -62.353878
-32.882251 4.709821 -63.919384
-32.93528 6.377147 -63.850204
-33.632485 3.037365 -63.069273
-32.882251 4.709821 -63.919384
-37.87178 -31.57137 -47.088763
-37.884785 -29.870667 -48.113506
-40.960829 -8.500103 -32.306345
-41.059484 -9.200679 -32.565231
-35.201112 15.042744 -52.081732
-34.861382 15.658509 -51.202454
-34.517889 16.199677 -52.628679
-35.87994 13.769576 -51.501429
-35.201112 15.042744 -52.081732
-35.158126 14.766004 -54.257493
-35.836954 13.492836 -53.677191
-34.728424 15.26822 -55.511291
-35.158126 14.766004 -54.257493
-34.183422 15.809051 -56.845057
-34.913631 14.488926 -56.340795
-34.728424 15.26822 -55.511291
-37.836893 -34.812638 -44.908869
-37.784754 -36.397374 -43.739674
-38.235157 -34.665501 -44.028189
-41.312107 -10.019397 -36.604723
-41.247685 -8.980642 -36.334311
-41.332632 -9.955663 -37.483845
-41.312107 -10.019397 -36.604723
-41.272483 -8.537188 -38.160629
-41.340814 -9.748608 -38.391259
-41.332632 -9.955663 -37.483845
-31.407362 19.806242 -49.188009
-32.185726 18.906807 -48.948679
-37.701763 -21.430526 -52.602974
-38.265749 -21.43806 -51.66889
-38.044302 -19.785713 -52.681044
-37.096449 -21.624869 -53.377099
-37.317896 -23.277215 -52.364945
-37.701763 -21.430526 -52.602974
-37.822382 -2.272331 -56.800277
-37.727774 -3.8526 -56.952396
-38.241024 -3.943689 -55.925125
-39.228113 -36.014473 -25.755643
-39.236143 -36.238041 -26.580282
-39.527515 -34.628361 -25.885392
-39.228113 -36.014473 -25.755643
-39.219003 -35.797783 -24.865444
-40.43631 -28.637711 -25.151334
-40.253044 -29.949281 -24.976544
-40.594299 -27.471376 -26.099767
-40.43631 -28.637711 -25.151334
-40.616118 -27.643377 -26.926306
-40.594299 -27.471376 -26.099767
-39.742542 0.870632 -37.680132
-39.73859 0.181876 -36.589781
-39.43964 1.438492 -37.030388
-40.022588 0.259626 -38.339012
-39.742542 0.870632 -37.680132
-39.723638 1.516242 -38.779619
-40.232567 -0.339104 -38.958185
-40.25147 -0.984714 -37.858698
-40.022588 0.259626 -38.339012
-37.229973 9.409589 -42.437912
-37.318861 8.593452 -41.123901
-28.368697 23.840613 -53.849882
-28.900026 23.111688 -52.541912
-28.011054 23.960006 -52.719103
-28.766407 23.556365 -54.98246
-28.368697 23.840613 -53.849882
-27.877435 24.404682 -55.159651
-36.950708 -45.687634 -34.348417
-37.129087 -45.319145 -33.38702
-36.950708 -45.687634 -34.348417
-37.239569 -44.432823 -35.465496
-41.138852 -8.352241 -35.044821
-41.207497 -9.450567 -34.545969
-41.11528 -8.585767 -34.175384
-41.062439 -7.116364 -35.637068
-41.154656 -7.981163 -36.007652
-41.138852 -8.352241 -35.044821
-37.534604 -16.326871 -54.700136
-37.839293 -14.555945 -54.794506
-39.525398 -36.029318 -31.043366
-39.170209 -37.643541 -30.810372
-39.213446 -37.289451 -29.973745
-39.037075 1.149417 -35.156774
-39.379404 0.159384 -34.965961
-39.061439 1.904698 -36.222544
-39.037075 1.149417 -35.156774
-39.065392 2.593455 -37.312895
-39.43964 1.438492 -37.030388
-39.061439 1.904698 -36.222544
-39.072434 3.300234 -38.434812
-39.065392 2.593455 -37.312895
-38.694233 3.76644 -37.626969
-36.300774 12.575017 -46.733912
-35.655404 13.727266 -47.08371
-36.632437 12.141168 -47.641657
-36.862837 11.419752 -46.325314
-36.300774 12.575017 -46.733912
-36.106848 12.547616 -54.441205
-36.485169 12.092357 -53.111366
-35.836954 13.492836 -53.677191
-25.065307 26.841987 -55.492212
-24.117036 27.574638 -55.413356
-25.45704 26.607705 -56.608139
-26.045615 26.041441 -55.477087
-25.065307 26.841987 -55.492212
-38.045019 -40.201749 -38.76979
-37.82054 -41.59415 -37.657928
-38.295913 -39.87784 -37.884899
-38.045019 -40.201749 -38.76979
-38.227251 -38.771832 -39.899506
-38.058563 -37.65423 -41.830622
-38.39873 -37.305492 -40.995487
-38.523184 -35.901499 -42.02386
-38.058563 -37.65423 -41.830622
-37.642696 -38.053648 -42.664183
-41.321791 -20.291844 -33.175886
-41.257464 -21.536371 -32.352263
-41.292382 -20.256023 -32.326116
-41.347854 -20.329801 -34.021902
-41.321791 -20.291844 -33.175886
-41.366297 -20.467274 -34.834797
-41.305315 -21.709666 -34.014929
-41.347854 -20.329801 -34.021902
-41.429294 -19.089057 -35.729719
-41.386755 -20.468922 -35.722746
-41.366297 -20.467274 -34.834797
-41.4645 -17.682973 -36.615355
-41.429294 -19.089057 -35.729719
-41.491274 -16.310643 -37.511291
-41.476527 -17.718373 -37.513605
-41.4645 -17.682973 -36.615355
-41.479717 -14.925473 -37.383059
-41.461101 -13.610298 -37.221489
-41.491743 -14.960874 -38.281309
-41.491274 -16.310643 -37.511291
-41.479717 -14.925473 -37.383059
-41.344994 -9.526971 -39.371771
-41.405142 -10.945446 -38.694986
-41.340814 -9.748608 -38.391259
-34.308515 15.976162 -47.957521
-34.979233 14.909737 -47.522147
-33.633577 16.985859 -48.313412
-32.927049 17.937544 -48.628519
-34.043094 16.671072 -49.283018
-34.308515 15.976162 -47.957521
-33.633577 16.985859 -48.313412
-33.002566 18.51953 -53.386922
-33.753415 17.435693 -53.036773
-33.427309 17.899279 -52.09955
-37.793138 -28.28592 -49.195931
-37.884785 -29.870667 -48.113506
-38.289854 -28.051395 -48.406929
-37.647363 -26.567255 -50.326162
-38.060709 -24.77476 -50.540087
-37.509864 -24.875367 -51.376896
-37.793138 -28.28592 -49.195931
-37.647363 -26.567255 -50.326162
-37.799925 -18.074038 -53.719183
-37.534604 -16.326871 -54.700136
-36.476345 -21.729441 -54.128965
-37.096449 -21.624869 -53.377099
-36.005812 -23.722979 -53.812184
-36.476345 -21.729441 -54.128965
-36.229322 -25.452887 -52.801922
-36.005812 -23.722979 -53.812184
-36.494791 -47.488243 -30.235622
-36.597915 -47.057654 -29.341949
-36.888077 -46.287598 -31.350054
-36.494791 -47.488243 -30.235622
-37.269845 -45.002836 -32.463962
-36.888077 -46.287598 -31.350054
-37.38572 -44.632787 -31.632467
-37.62673 -43.664335 -33.669433
-37.129087 -45.319145 -33.38702
-37.269845 -45.002836 -32.463962
-39.126421 -37.962025 -31.718356
-38.814468 -39.222158 -30.648735
-39.170209 -37.643541 -30.810372
-38.820934 -14.412743 -53.082159
-39.243841 -14.283432 -52.202957
-39.006331 -12.67306 -53.127981
-38.351479 -14.586133 -53.915211
-38.588989 -16.196506 -52.990187
-38.820934 -14.412743 -53.082159
-37.839293 -14.555945 -54.794506
-38.351479 -14.586133 -53.915211
-38.067299 -7.303064 -55.980795
-38.44697 -9.093712 -54.985792
-38.526087 -7.314607 -55.082241
-38.067299 -7.303064 -55.980795
-37.649479 -5.551766 -56.943981
-36.269161 -47.755654 -27.338856
-35.836628 -48.793059 -26.183332
-36.783657 -46.142555 -27.671757
-36.706375 -46.58466 -28.498241
-36.269161 -47.755654 -27.338856
-36.387739 -46.876976 -25.579632
-35.90513 -48.293161 -25.300234
-36.819193 -45.795134 -26.753622
-36.387739 -46.876976 -25.579632
-36.860489 -45.358561 -25.820881
-38.513596 -40.054603 -28.663213
-38.466217 -40.445879 -29.531328
-38.121555 -41.596807 -28.453789
-38.163916 -40.931555 -26.6343
-37.759104 -42.367541 -26.42203
-38.533417 -39.743145 -27.772362
-38.163916 -40.931555 -26.6343
-38.528399 -39.469168 -26.820988
-38.513596 -40.054603 -28.663213
-38.533417 -39.743145 -27.772362
-39.233267 -36.977993 -29.082895
-39.213446 -37.289451 -29.973745
-39.564796 -35.453899 -29.31424
-39.233267 -36.977993 -29.082895
-39.229429 -36.756664 -28.190396
-39.548792 -35.038811 -27.598666
-39.24831 -36.431801 -27.403357
-39.236143 -36.238041 -26.580282
-39.530073 -34.141666 -24.197086
-39.22789 -35.505733 -23.982064
-39.78799 -32.967274 -25.269126
-39.530073 -34.141666 -24.197086
-39.799657 -32.69727 -24.47102
-40.259428 -30.141168 -25.778721
-40.051191 -31.33099 -24.740882
-40.253044 -29.949281 -24.976544
-41.054299 -24.207478 -30.546354
-40.947281 -25.528525 -30.468479
-40.911689 -25.552593 -29.572333
-41.158972 -22.841979 -31.472496
-41.054299 -24.207478 -30.546354
-40.854452 -7.576879 -32.603604
-40.960829 -8.500103 -32.306345
-40.893236 -7.144392 -33.425511
-40.854452 -7.576879 -32.603604
-40.917183 -6.804013 -34.240469
-41.022688 -7.82782 -33.859278
-40.893236 -7.144392 -33.425511
-40.933127 -6.321908 -35.15262
-40.917183 -6.804013 -34.240469
-40.803674 -5.63848 -34.718853
-39.934619 -2.01962 -34.33802
-39.655678 -0.945723 -34.639717
-40.211094 -2.61275 -34.913103
-39.934619 -2.01962 -34.33802
-40.014864 -0.923232 -36.263537
-39.711962 -0.355372 -35.613793
-39.73859 0.181876 -36.589781
-40.238721 -2.11125 -35.888048
-40.014864 -0.923232 -36.263537
-40.211094 -2.61275 -34.913103
-40.238721 -2.11125 -35.888048
-40.654413 -3.959197 -36.059776
-40.626785 -4.460698 -35.084831
-40.826389 -4.693311 -36.602469
-40.654413 -3.959197 -36.059776
-40.661184 -3.496134 -37.03124
-38.313887 5.557146 -39.155864
-38.275904 4.862747 -37.932926
-38.696432 5.132281 -40.014839
-38.313887 5.557146 -39.155864
-38.309044 6.216208 -40.421818
-37.649427 8.942438 -43.310719
-37.229973 9.409589 -42.437912
-37.898435 9.000397 -45.411598
-37.371011 10.316072 -45.923001
-37.721924 9.670227 -46.721657
-38.009659 8.447741 -44.17076
-37.898435 9.000397 -45.411598
-38.360571 7.801896 -44.969416
-38.111563 7.743937 -42.868536
-37.649427 8.942438 -43.310719
-38.009659 8.447741 -44.17076
-37.367042 -0.631457 -57.674293
-37.822382 -2.272331 -56.800277
-37.880292 -0.722546 -56.647022
-36.840479 -0.478575 -58.627935
-37.367042 -0.631457 -57.674293
-36.89839 1.07121 -58.47468
-36.238897 -0.431292 -59.578799
-36.840479 -0.478575 -58.627935
-35.585459 -0.313999 -60.535747
-36.238897 -0.431292 -59.578799
-35.718387 1.341385 -60.385271
-34.934302 -0.305576 -61.366366
-35.585459 -0.313999 -60.535747
-31.058422 20.571437 -50.603609
-31.407362 19.806242 -49.188009
-30.580275 20.758384 -49.51239
-29.744502 22.257938 -52.300341
-28.900026 23.111688 -52.541912
-30.62628 21.286883 -51.959248
-29.744502 22.257938 -52.300341
-30.139447 22.021241 -53.331598
-31.453367 20.334741 -51.634867
-31.058422 20.571437 -50.603609
-30.62628 21.286883 -51.959248
-32.197413 19.622244 -53.853521
-31.848842 20.016651 -52.720102
-31.369796 20.655779 -54.123924
-33.002566 18.51953 -53.386922
-32.197413 19.622244 -53.853521
-22.225707 28.985028 -58.976282
-22.466506 28.658177 -60.128653
-22.93565 28.535901 -57.81835
-21.909421 29.237203 -57.862065
-22.225707 28.985028 -58.976282
-23.864334 27.845989 -57.777916
-23.548048 28.098163 -56.663698
-22.93565 28.535901 -57.81835
-25.40106 26.40056 -60.024855
-24.438956 27.183365 -60.124003
-26.118789 25.961498 -58.90433
-25.40106 26.40056 -60.024855
-26.282719 25.617897 -60.030029
-28.587381 23.710952 -57.346525
-27.637797 24.649634 -57.600866
-27.950032 24.240153 -58.655163
-29.517156 22.737072 -57.060858
-29.204921 23.146554 -56.006562
-28.587381 23.710952 -57.346525
-30.392103 21.733165 -56.800892
-29.517156 22.737072 -57.060858
-30.926532 21.217023 -55.489119
-30.392103 21.733165 -56.800892
-33.646603 16.223433 -58.197192
-34.183422 15.809051 -56.845057
-33.852062 15.252667 -58.897463
-33.646603 16.223433 -58.197192
-34.071258 14.183519 -59.460527
-34.587826 13.960608 -58.237626
-33.852062 15.252667 -58.897463
-34.187748 13.093167 -60.044615
-34.071258 14.183519 -59.460527
-34.28802 11.895867 -60.598318
-34.907294 11.694161 -59.354393
-34.187748 13.093167 -60.044615
-34.386212 10.598281 -60.999109
-34.28802 11.895867 -60.598318
-34.481163 9.173789 -61.325827
-35.102517 9.072368 -60.234814
-34.386212 10.598281 -60.999109
-34.518639 7.77847 -61.589583
-34.481163 9.173789 -61.325827
-33.802334 9.304382 -62.353878
-33.020505 7.930769 -63.615549
-33.062914 9.428202 -63.36727
-32.24361 9.449908 -64.365184
-33.754583 6.355443 -62.852289
-33.020505 7.930769 -63.615549
-32.93528 6.377147 -63.850204
-34.330281 1.365795 -62.196911
-34.367153 3.13025 -62.214582
-33.632485 3.037365 -63.069273
-34.934302 -0.305576 -61.366366
-34.330281 1.365795 -62.196911
-37.532299 -43.077621 -36.555769
-37.82054 -41.59415 -37.657928
-37.824678 -33.293681 -46.025202
-38.334398 -31.358454 -46.260945
-37.87178 -31.57137 -47.088763
-37.836893 -34.812638 -44.908869
-37.824678 -33.293681 -46.025202
3 0 55 53
3 2 58 56
3 2 60 58
3 214 213 61
3 1 66 64
3 4 215 217
3 215 67 216
3 215 216 217
3 4 69 67
3 5 218 220
3 220 219 70
3 218 219 220
3 221 74 222
3 223 222 72
3 221 222 223
3 7 77 75
3 7 79 77
3 3 82 80
3 8 85 83
3 8 87 85
3 8 89 87
3 9 92 90
3 9 94 92
3 224 96 225
3 10 99 98
3 10 101 99
3 11 104 102
3 11 106 104
3 11 108 106
3 12 111 109
3 12 113 111
3 13 226 227
3 13 228 230
3 228 115 229
3 228 229 230
3 6 231 233
3 233 232 116
3 231 232 233
3 14 234 235
3 14 236 238
3 236 117 237
3 236 237 238
3 15 120 118
3 17 121 54
3 17 122 121
3 18 125 123
3 20 126 57
3 20 127 126
3 20 129 127
3 22 130 59
3 22 131 130
3 239 132 240
3 24 241 243
3 241 133 242
3 241 242 243
3 244 134 245
3 246 245 62
3 244 245 246
3 247 135 248
3 249 248 134
3 247 248 249
3 250 137 251
3 252 251 135
3 250 251 252
3 27 138 63
3 27 139 138
3 253 140 254
3 28 255 257
3 257 256 141
3 255 256 257
3 259 258 65
3 260 144 261
3 262 261 142
3 260 261 262
3 263 145 264
3 265 146 266
3 267 266 145
3 265 266 267
3 30 147 68
3 30 148 147
3 31 268 270
3 268 149 269
3 268 269 270
3 31 150 149
3 32 153 151
3 33 271 273
3 273 272 71
3 271 272 273
3 33 274 275
3 34 276 278
3 276 154 277
3 276 277 278
3 35 155 73
3 35 156 155
3 16 157 119
3 36 158 76
3 36 159 158
3 36 160 159
3 37 161 78
3 37 162 161
3 29 163 143
3 38 164 81
3 38 165 164
3 19 166 124
3 39 167 84
3 39 168 167
3 39 169 168
3 40 170 86
3 40 171 170
3 40 172 171
3 41 173 88
3 41 174 173
3 21 175 128
3 42 176 91
3 42 279 281
3 281 280 176
3 279 280 281
3 42 282 283
3 285 284 93
3 286 177 287
3 286 287 288
3 289 178 290
3 291 179 292
3 293 292 178
3 291 292 293
3 294 180 295
3 43 181 95
3 43 182 181
3 296 183 297
3 298 184 299
3 300 299 97
3 298 299 300
3 301 185 302
3 303 302 184
3 301 302 303
3 305 304 185
3 306 186 307
3 23 308 310
3 308 187 309
3 308 309 310
3 44 311 312
3 44 313 315
3 313 188 314
3 313 314 315
3 44 189 188
3 45 190 100
3 45 191 190
3 46 316 317
3 46 318 320
3 318 192 319
3 318 319 320
3 25 321 322
3 47 193 103
3 47 194 193
3 47 195 194
3 48 196 105
3 48 197 196
3 48 198 197
3 49 199 107
3 49 200 199
3 26 201 136
3 50 202 110
3 50 203 202
3 50 204 203
3 51 205 112
3 51 206 205
3 52 207 114
3 52 323 325
3 325 324 207
3 323 324 325
3 326 208 327
3 328 209 329
3 330 329 208
3 328 329 330
3 331 210 332
3 334 333 210
3 335 211 336
3 337 212 338
3 340 339 212
3 342 341 152
3 343 14 344
3 53 54 15
3 55 54 53
3 55 17 54
3 56 57 18
3 58 57 56
3 58 20 57
3 58 59 20
3 60 59 58
3 60 22 59
3 61 62 24
3 345 62 346
3 347 346 61
3 345 346 347
3 349 348 62
3 350 63 351
3 352 63 353
3 354 27 355
3 356 355 63
3 354 355 356
3 64 65 28
3 66 65 64
3 66 357 359
3 359 358 65
3 357 358 359
3 67 360 361
3 67 362 363
3 67 364 366
3 364 68 365
3 364 365 366
3 69 68 67
3 69 30 68
3 367 31 368
3 70 71 32
3 369 71 370
3 371 370 70
3 369 370 371
3 372 33 373
3 374 373 71
3 372 373 374
3 72 73 34
3 74 73 72
3 74 35 73
3 75 76 16
3 77 76 75
3 77 36 76
3 77 78 36
3 79 78 77
3 79 37 78
3 80 81 29
3 82 81 80
3 82 38 81
3 83 84 19
3 85 84 83
3 85 39 84
3 85 86 39
3 87 86 85
3 87 40 86
3 87 88 40
3 89 88 87
3 89 41 88
3 90 91 21
3 92 91 90
3 92 42 91
3 92 93 42
3 94 93 92
3 94 375 377
3 377 376 93
3 375 376 377
3 378 95 379
3 96 380 382
3 380 95 381
3 380 381 382
3 96 43 95
3 383 97 384
3 385 97 386
3 388 387 97
3 98 389 391
3 391 390 23
3 389 390 391
3 99 392 394
3 394 393 98
3 392 393 394
3 99 395 397
3 395 44 396
3 395 396 397
3 99 100 44
3 101 100 99
3 101 45 100
3 398 46 399
3 102 103 25
3 104 103 102
3 104 47 103
3 104 105 47
3 106 105 104
3 106 48 105
3 106 107 48
3 108 107 106
3 108 49 107
3 109 110 26
3 111 110 109
3 111 50 110
3 111 112 50
3 113 112 111
3 113 51 112
3 400 114 401
3 400 401 402
3 115 403 405
3 403 114 404
3 403 404 405
3 115 52 114
3 116 406 407
3 409 408 116
3 117 410 412
3 410 411 412
3 117 413 415
3 413 4 414
3 413 414 415
3 417 416 5
3 118 418 420
3 418 119 419
3 418 419 420
3 120 119 118
3 120 16 119
3 54 120 15
3 121 120 54
3 121 16 120
3 121 75 16
3 122 75 121
3 122 7 75
3 123 124 3
3 125 124 123
3 125 19 124
3 57 125 18
3 126 125 57
3 126 19 125
3 126 83 19
3 127 83 126
3 127 8 83
3 127 128 8
3 129 128 127
3 129 21 128
3 59 129 20
3 130 129 59
3 130 21 129
3 130 90 21
3 131 90 130
3 131 9 90
3 421 23 422
3 423 23 424
3 425 98 426
3 427 426 23
3 425 426 427
3 132 428 430
3 428 98 429
3 428 429 430
3 132 10 98
3 133 431 432
3 133 433 435
3 433 25 434
3 433 434 435
3 62 133 24
3 134 133 62
3 134 25 133
3 134 102 25
3 135 102 134
3 135 11 102
3 135 136 11
3 137 136 135
3 137 26 136
3 63 436 438
3 436 137 437
3 436 437 438
3 138 137 63
3 138 26 137
3 138 109 26
3 139 109 138
3 139 12 109
3 140 439 440
3 140 441 443
3 441 13 442
3 441 442 443
3 141 444 446
3 446 445 6
3 444 445 446
3 448 447 141
3 65 449 451
3 451 450 28
3 449 450 451
3 453 452 65
3 142 143 0
3 144 143 142
3 144 29 143
3 454 144 455
3 454 455 456
3 457 144 458
3 459 29 460
3 461 460 144
3 459 460 461
3 462 80 463
3 464 463 29
3 462 463 464
3 465 80 466
3 467 3 468
3 469 468 80
3 467 468 469
3 145 470 471
3 145 472 474
3 472 3 473
3 472 473 474
3 145 123 3
3 146 123 145
3 146 18 123
3 68 475 477
3 475 146 476
3 475 476 477
3 147 146 68
3 147 18 146
3 147 56 18
3 148 56 147
3 148 2 56
3 478 24 479
3 149 480 481
3 149 482 484
3 482 24 483
3 482 483 484
3 149 61 24
3 150 61 149
3 150 485 487
3 487 486 61
3 485 486 487
3 151 152 1
3 153 152 151
3 153 488 490
3 490 489 152
3 488 489 490
3 71 153 32
3 491 153 492
3 493 492 71
3 491 492 493
3 495 494 153
3 497 496 5
3 498 33 499
3 500 33 501
3 503 502 33
3 154 504 505
3 154 506 507
3 73 154 34
3 155 154 73
3 155 508 510
3 510 509 154
3 508 509 510
3 155 511 513
3 511 116 512
3 511 512 513
3 156 116 155
3 156 6 116
3 119 514 516
3 514 74 515
3 514 515 516
3 157 74 119
3 157 35 74
3 76 157 16
3 158 157 76
3 158 35 157
3 158 156 35
3 159 156 158
3 159 6 156
3 159 141 6
3 160 141 159
3 160 28 141
3 78 160 36
3 161 160 78
3 161 28 160
3 161 64 28
3 162 64 161
3 162 1 64
3 143 55 0
3 163 55 143
3 163 17 55
3 81 163 29
3 164 163 81
3 164 17 163
3 164 122 17
3 165 122 164
3 165 7 122
3 124 82 3
3 166 82 124
3 166 38 82
3 84 166 19
3 167 166 84
3 167 38 166
3 167 165 38
3 168 165 167
3 168 7 165
3 168 79 7
3 169 79 168
3 169 37 79
3 86 169 39
3 170 169 86
3 170 37 169
3 170 162 37
3 171 162 170
3 171 1 162
3 171 151 1
3 172 151 171
3 172 32 151
3 88 172 40
3 173 172 88
3 173 32 172
3 173 70 32
3 174 70 173
3 174 5 70
3 128 89 8
3 175 89 128
3 175 41 89
3 91 175 21
3 176 175 91
3 176 41 175
3 176 174 41
3 517 174 518
3 519 518 176
3 517 518 519
3 520 5 521
3 522 521 174
3 520 521 522
3 524 523 5
3 93 525 527
3 527 526 42
3 525 526 527
3 529 528 93
3 177 530 531
3 177 532 534
3 532 34 533
3 532 533 534
3 535 177 536
3 178 537 539
3 537 177 538
3 537 538 539
3 178 34 177
3 178 72 34
3 179 72 178
3 179 540 542
3 542 541 72
3 540 541 542
3 543 179 544
3 545 179 546
3 545 546 547
3 549 548 179
3 550 118 551
3 180 552 554
3 552 118 553
3 552 553 554
3 180 15 118
3 95 555 557
3 555 180 556
3 555 556 557
3 181 180 95
3 181 15 180
3 181 53 15
3 182 53 181
3 182 0 53
3 558 96 559
3 183 560 562
3 560 96 561
3 560 561 562
3 183 43 96
3 97 563 565
3 563 183 564
3 563 564 565
3 184 183 97
3 184 43 183
3 184 182 43
3 185 182 184
3 185 0 182
3 185 142 0
3 566 142 567
3 568 567 185
3 566 567 568
3 570 569 142
3 571 14 572
3 573 14 574
3 575 117 576
3 577 576 14
3 575 576 577
3 186 578 580
3 578 117 579
3 578 579 580
3 186 4 117
3 187 581 582
3 187 583 584
3 585 187 586
3 587 586 23
3 585 586 587
3 588 187 589
3 591 590 187
3 592 186 593
3 188 594 596
3 594 186 595
3 594 595 596
3 188 4 186
3 188 69 4
3 189 69 188
3 189 30 69
3 100 189 44
3 190 189 100
3 190 30 189
3 190 148 30
3 191 148 190
3 191 2 148
3 597 132 598
3 192 599 601
3 599 132 600
3 599 600 601
3 192 10 132
3 602 46 603
3 103 604 606
3 606 605 25
3 604 605 606
3 193 607 609
3 609 608 103
3 607 608 609
3 193 610 612
3 610 46 611
3 610 611 612
3 193 192 46
3 194 192 193
3 194 10 192
3 194 101 10
3 195 101 194
3 195 45 101
3 105 195 47
3 196 195 105
3 196 45 195
3 196 191 45
3 197 191 196
3 197 2 191
3 197 60 2
3 198 60 197
3 198 22 60
3 107 198 48
3 199 198 107
3 199 22 198
3 199 131 22
3 200 131 199
3 200 9 131
3 136 108 11
3 201 108 136
3 201 49 108
3 110 201 26
3 202 201 110
3 202 49 201
3 202 200 49
3 203 200 202
3 203 9 200
3 203 94 9
3 204 94 203
3 204 613 615
3 615 614 94
3 613 614 615
3 112 204 50
3 205 204 112
3 205 616 618
3 618 617 204
3 616 617 618
3 205 619 620
3 206 621 623
3 623 622 205
3 621 622 623
3 206 624 625
3 626 31 627
3 626 627 628
3 114 629 630
3 207 631 633
3 633 632 114
3 631 632 633
3 207 634 636
3 634 31 635
3 634 635 636
3 207 150 31
3 637 150 638
3 639 638 207
3 637 638 639
3 641 640 150
3 208 642 643
3 208 644 646
3 644 645 646
3 208 647 649
3 647 140 648
3 647 648 649
3 209 140 208
3 209 13 140
3 650 209 651
3 210 652 654
3 652 209 653
3 652 653 654
3 210 13 209
3 210 115 13
3 655 115 656
3 657 656 210
3 655 656 657
3 658 52 659
3 660 659 115
3 658 659 660
3 661 52 662
3 664 663 52
3 665 27 666
3 667 27 668
3 669 139 670
3 671 670 27
3 669 670 671
3 672 139 673
3 674 12 675
3 676 675 139
3 674 675 676
3 677 12 678
3 679 113 680
3 681 680 12
3 679 680 681
3 211 682 684
3 682 113 683
3 682 683 684
3 211 51 113
3 685 211 686
3 685 686 687
3 212 688 690
3 688 211 689
3 688 689 690
3 212 51 211
3 212 206 51
3 691 206 692
3 693 692 212
3 691 692 693
3 695 694 206
3 697 696 6
3 152 66 1
3 698 66 699
3 700 699 152
3 698 699 700
3 702 701 66
