ply
format ascii 1.0
element vertex 651
property float x
property float y
property float z
element face 669
property list uchar int vertex_index
end_header
19.607821 -9.392749 -65.605782
9.554511 8.075827 -70.306602
6.733288 -21.913244 -57.417297
4.485586 14.074 -67.914154
10.864136 20.285072 -72.447449
17.200987 12.291487 -72.650742
15.264122 -0.494245 -68.806
22.898739 1.457074 -69.116684
8.444925 -5.943151 -64.610107
13.444701 -14.923699 -62.546486
33.300034 10.04835 -64.121323
30.48975 -1.073428 -65.342247
-1.043272 8.319516 -58.451939
0.57362 12.087274 -62.043568
2.446621 10.212641 -64.662262
2.406734 15.91398 -65.41259
11.487254 25.177601 -71.647552
18.293835 18.186838 -73.109123
21.403652 13.221372 -72.132568
20.324045 7.077155 -71.174805
24.37088 7.073595 -70.170547
6.537355 5.13424 -67.67247
6.177349 -2.114428 -64.755943
8.979717 1.260642 -67.753761
11.687537 -3.086766 -67.057777
12.4468 4.107905 -69.988068
33.698982 -3.117537 -62.362423
6.877362 11.333016 -69.608589
2.620105 21.305305 -65.465645
4.844291 19.568981 -68.420563
7.315032 17.244371 -70.659836
10.216121 14.571643 -71.984024
14.843111 22.177109 -73.008018
13.973381 16.75271 -73.140541
13.206937 10.791758 -72.094757
16.160059 6.120474 -71.138039
19.002815 0.968042 -69.462723
17.751371 -5.157186 -67.219872
21.11084 -4.583806 -67.361458
2.110324 -20.65889 -54.440292
4.820261 -17.243498 -57.919807
5.750049 -9.19916 -61.632618
7.778534 -13.745371 -61.080441
10.916636 -10.413039 -63.747574
14.284958 -7.527386 -65.832588
16.96113 -11.658252 -64.498337
16.020559 -19.132427 -61.28178
19.495026 -15.325809 -63.141148
22.468559 -18.006666 -61.901386
22.292202 -10.866738 -64.822174
32.067852 4.689155 -65.258591
26.763741 0.452781 -67.652771
24.713245 -5.416555 -66.441727
1.41134 13.951179 -63.712711
1.424315 16.70512 -63.967033
22.116257 16.039993 -72.122536
23.643719 13.232411 -71.392044
22.943487 10.353755 -71.266449
25.108635 10.102015 -70.419189
8.0249 6.475955 -69.068947
7.794404 3.257789 -67.860863
9.354028 4.651549 -69.147461
10.673654 2.726273 -68.988991
10.917172 6.120985 -70.228783
3.377861 12.09609 -66.312279
4.455795 10.946624 -67.375572
5.571274 9.674022 -68.190063
5.65862 12.701612 -68.883423
2.64557 23.762403 -64.968193
3.65845 20.414907 -66.953957
4.999506 22.270979 -68.183655
7.569617 20.17709 -70.74926
8.882803 18.921959 -71.63134
8.69834 15.990751 -71.439857
10.420907 17.503395 -72.324684
16.943966 22.896322 -72.802017
17.706259 15.273244 -73.035255
16.07946 17.664856 -73.290001
15.537998 14.6678 -73.038788
13.499143 13.659451 -72.712097
15.155934 11.655742 -72.511459
14.607234 8.547564 -71.720741
16.61862 9.472047 -72.062286
21.689037 4.353676 -70.209328
19.712488 4.08278 -70.414299
20.983828 1.413973 -69.435036
20.133587 -1.629363 -68.500046
21.932076 -1.605262 -68.308235
3.439029 -19.156656 -56.151154
3.994829 -15.186477 -57.963272
7.051794 -7.766675 -63.087414
6.617887 -11.627822 -61.270111
8.208015 -9.972773 -62.825352
9.387981 -12.095975 -62.482315
9.734975 -8.125635 -64.279411
13.381606 -1.463587 -68.128799
12.980823 -5.151319 -66.547867
14.679812 -3.811411 -67.43058
16.010542 -6.296233 -66.612495
16.575172 -2.989737 -67.982727
14.753943 -16.991606 -61.949707
16.494299 -15.100729 -63.000267
15.222467 -13.234303 -63.593697
22.19533 -21.965256 -60.320168
20.625593 -20.488239 -61.016075
20.941641 -16.703972 -62.554642
19.223537 -18.788105 -61.705647
32.123539 -2.080468 -63.946957
32.986767 0.85626 -63.843174
31.275679 1.932207 -65.473106
30.365316 5.838687 -66.807907
29.580635 2.719475 -66.794373
27.612946 3.23903 -67.988892
28.747688 -0.374093 -66.522072
-1.145014 11.215862 -59.024288
-0.222057 10.189709 -60.297729
1.445093 11.017087 -63.275806
2.325157 12.973505 -64.991356
3.400791 15.018707 -66.71579
9.572066 24.084385 -71.215691
11.039246 22.782238 -72.168518
18.692289 20.966219 -72.863876
20.370443 18.505741 -72.659012
19.890051 15.681136 -72.733261
19.264727 12.785802 -72.525658
18.859592 9.892452 -72.038788
20.890469 10.090434 -71.75795
22.346956 7.179839 -70.796684
23.69669 4.158694 -69.688644
5.157576 -0.082036 -64.69735
6.478463 1.576932 -66.388847
7.532007 -0.42677 -66.330643
8.725087 -2.221824 -66.269264
9.991348 -4.330706 -65.966614
10.34918 -0.630186 -67.59919
11.988064 0.549106 -68.581657
13.79915 1.719429 -69.416504
32.881584 -6.204051 -62.254906
29.487879 -3.963211 -65.106041
5.339029 6.420121 -67.097672
6.678727 8.22253 -68.707405
8.190425 9.906129 -70.115952
1.440402 19.408958 -63.970051
2.459088 18.73555 -65.502724
3.510202 17.694641 -66.9524
4.708848 16.839224 -68.357475
6.274857 21.144217 -69.618706
6.06612 18.47094 -69.673103
5.887183 15.655773 -69.449387
7.149692 14.395432 -70.317337
8.454092 12.992461 -70.915245
9.820934 11.402649 -71.260742
13.103064 23.788528 -72.47612
12.756059 21.28813 -72.873337
16.593758 20.325466 -73.208191
14.364849 19.696732 -73.22686
12.357868 18.475513 -72.93972
12.005651 15.68692 -72.69294
11.597817 12.632896 -72.122688
11.283685 9.559198 -71.33812
12.674148 7.654695 -71.167068
14.195891 5.378591 -70.734406
15.61688 2.816735 -70.036163
18.178402 6.866772 -71.338684
17.645729 3.522296 -70.347931
17.037081 0.259995 -69.222221
18.352209 -2.096395 -68.397041
19.471348 -4.691329 -67.42141
18.846392 -7.597072 -66.305588
20.385851 -7.411275 -66.356758
4.232501 -21.392334 -56.069374
5.702363 -19.705376 -57.63929
5.309532 -13.267262 -59.73978
6.282584 -15.681278 -59.488796
7.269623 -17.940706 -59.176003
10.497057 -14.3471 -61.963619
12.12452 -12.723837 -63.139534
11.341002 -6.665893 -65.465897
12.573281 -8.974834 -64.839996
13.922001 -11.152685 -64.230782
15.66815 -9.80503 -65.109627
17.292837 -8.488846 -65.85128
18.449503 -10.364349 -65.169319
17.411747 -21.276392 -60.585995
17.77096 -17.200422 -62.270393
18.130806 -13.523439 -63.827457
19.587528 -11.849392 -64.591675
22.513399 -14.430454 -63.355141
20.988541 -13.112321 -64.03154
20.825848 -9.853436 -65.370132
34.534531 -0.110267 -62.090397
32.804859 7.304097 -64.745438
31.060152 8.423479 -66.498329
26.492895 6.721782 -69.242821
25.608347 3.969526 -69.017921
24.910152 1.056279 -68.475304
27.63847 -3.217019 -66.208427
25.775747 -2.512399 -67.115738
23.866495 -1.894935 -67.842773
22.869965 -4.853596 -67.02784
21.896641 -7.571875 -66.159561
0.923825 17.154463 -63.194433
0.946824 15.819616 -63.136764
24.764555 13.066735 -70.861999
23.930583 14.561924 -71.325592
25.497013 11.501537 -70.375572
24.376177 11.667213 -70.905617
24.764555 13.066735 -70.861999
7.201586 -23.111866 -57.203224
6.32869 -24.03303 -56.473451
7.576853 -21.002759 -58.147892
7.201586 -23.111866 -57.203224
5.096385 23.477191 -67.93996
4.377477 22.689072 -67.373306
9.873469 19.603516 -72.039395
9.05209 20.203617 -71.615204
10.042756 20.885174 -72.023258
18.081449 23.103214 -72.535618
17.172781 24.052827 -72.427132
3.635747 -14.045568 -58.006359
3.359681 -15.957304 -57.094565
7.748359 -6.854913 -63.84876
7.172301 -5.917531 -63.91255
7.868867 -5.005769 -64.673896
14.099322 -15.957653 -62.248097
13.834692 -17.976053 -61.359253
13.180072 -16.9421 -61.657643
19.763846 -21.641015 -60.548338
20.432973 -22.591458 -60.175936
19.062818 -20.790948 -60.893124
19.924565 -19.638172 -61.360861
19.763846 -21.641015 -60.548338
32.680004 11.823846 -64.687588
33.490765 11.292243 -63.680806
32.463189 10.531274 -65.054993
32.680004 11.823846 -64.687588
-1.239804 12.66004 -59.160703
-1.640769 11.698232 -58.38248
0.175782 11.138492 -61.170648
-0.25185 11.582265 -60.539758
0.145989 12.531047 -61.412678
0.6 10.572191 -61.749916
0.202161 9.623409 -60.876996
0.175782 11.138492 -61.170648
1.009356 11.552181 -62.659687
1.035736 10.037097 -62.366035
0.6 10.572191 -61.749916
10.52966 24.630993 -71.431622
9.71254 25.285796 -70.836796
10.670134 25.832404 -71.052727
21.456457 18.64074 -72.273411
20.651208 19.747906 -72.447373
6.507909 3.355586 -67.030659
5.905196 2.377319 -66.213093
5.934642 4.155973 -66.854904
32.266458 -7.496134 -62.289339
33.010519 -8.196013 -61.532337
32.034146 -5.604767 -63.031555
32.266458 -7.496134 -62.289339
-1.399808 7.403214 -57.62619
-1.527281 8.885117 -57.861428
2.416506 8.697156 -64.238081
1.978479 9.183619 -63.68204
4.861404 7.193208 -66.844983
4.800044 5.56213 -66.295368
2.058233 21.627782 -64.620672
2.070966 22.85633 -64.371947
2.632837 22.533854 -65.216919
2.030254 20.357132 -64.717848
1.468382 20.679608 -63.872875
2.058233 21.627782 -64.620672
7.040348 21.978507 -70.057148
6.359612 22.438942 -69.408844
13.973088 22.982819 -72.742069
14.133436 24.214883 -72.448986
15.003459 23.409174 -72.714935
1.492595 -21.401941 -53.572176
1.799009 -19.560783 -54.384394
1.725458 -22.728842 -53.521627
1.492595 -21.401941 -53.572176
2.410911 -21.973813 -54.356641
1.725458 -22.728842 -53.521627
5.595189 -2.950934 -63.950333
5.085303 -1.934737 -63.921036
5.667463 -1.098232 -64.726647
5.249605 -8.231355 -61.595447
5.848117 -7.436798 -62.403034
5.088264 -10.115502 -60.737501
5.249605 -8.231355 -61.595447
5.52979 -11.233211 -60.686199
4.868005 -12.149553 -59.791082
5.088264 -10.115502 -60.737501
8.30754 -14.974988 -60.830317
8.053085 -17.072655 -59.878098
7.524078 -15.843038 -60.128222
15.795752 -21.187053 -60.43511
15.111551 -20.089022 -60.74646
16.716153 -20.20441 -60.933887
16.491346 -22.259036 -60.087217
15.795752 -21.187053 -60.43511
23.282635 -18.631166 -61.534618
23.146021 -20.610461 -60.744009
22.331944 -19.985961 -61.110777
23.340317 -16.734848 -62.289438
23.282635 -18.631166 -61.534618
22.490979 -16.21856 -62.628264
23.362737 -14.946742 -63.016316
23.340317 -16.734848 -62.289438
34.116757 -1.613902 -62.22641
34.839724 -2.042267 -61.377224
34.421949 -3.545902 -61.513237
32.894543 4.240747 -64.382042
33.354 2.324299 -63.674334
32.52731 2.772708 -64.550883
32.436356 5.996626 -65.002015
33.263046 5.548218 -64.125465
32.894543 4.240747 -64.382042
29.735234 7.479857 -67.44878
29.458939 5.983956 -67.433468
27.522728 6.425503 -68.650925
26.858691 8.152718 -69.277412
27.963549 -5.123995 -65.44289
28.563175 -3.590115 -65.657234
28.888253 -5.49709 -64.891697
25.244496 -3.964477 -66.778732
26.134249 -4.280719 -66.406811
25.602998 -5.732797 -66.069806
22.094421 -9.219307 -65.490868
22.71029 -7.874223 -65.920204
22.908071 -9.521655 -65.25151
0.521477 13.510693 -62.175032
0.145989 12.531047 -61.412678
0.940337 14.442645 -63.009603
0.99248 13.019227 -62.87814
0.521477 13.510693 -62.175032
1.417828 15.32815 -63.839872
0.940337 14.442645 -63.009603
0.946824 15.819616 -63.136764
11.666835 26.304312 -71.203002
10.670134 25.832404 -71.052727
23.166852 15.965715 -71.690838
22.329364 17.407866 -72.005173
22.879988 14.636202 -71.75729
23.166852 15.965715 -71.690838
23.930583 14.561924 -71.325592
-0.921782 6.895383 -58.22336
-0.578194 7.857439 -59.09466
3.372632 10.539755 -65.980137
2.907012 9.598031 -65.155128
2.912241 11.154366 -65.48727
3.911599 9.965022 -66.511784
3.372632 10.539755 -65.980137
3.916828 11.521357 -66.843926
4.419787 9.45646 -66.983933
3.911599 9.965022 -66.511784
5.013535 10.310323 -67.782817
4.977527 8.820159 -67.391178
4.419787 9.45646 -66.983933
3.306526 24.613619 -65.509716
2.743255 25.029334 -64.669586
3.200509 23.434784 -65.765575
3.306526 24.613619 -65.509716
3.187776 22.206235 -66.014301
2.632837 22.533854 -65.216919
3.200509 23.434784 -65.765575
3.706949 21.761035 -66.758457
3.139278 20.860106 -66.209801
3.187776 22.206235 -66.014301
4.328978 21.342943 -67.568806
3.706949 21.761035 -66.758457
4.377477 22.689072 -67.373306
8.395497 20.831183 -71.174164
7.687728 21.494944 -70.622425
8.22621 19.549525 -71.1903
8.395497 20.831183 -71.174164
9.05209 20.203617 -71.615204
16.053887 23.76878 -72.611935
17.172781 24.052827 -72.427132
15.893539 22.536715 -72.905018
15.003459 23.409174 -72.714935
16.053887 23.76878 -72.611935
2.417428 -18.693511 -55.333074
1.799009 -19.560783 -54.384394
3.081781 -17.942394 -56.188505
2.774676 -19.907773 -55.295723
2.417428 -18.693511 -55.333074
3.716929 -17.171567 -57.057213
3.081781 -17.942394 -56.188505
3.359681 -15.957304 -57.094565
6.061768 -3.894432 -63.964697
6.735079 -3.091408 -64.746814
6.49899 -6.720555 -63.130432
7.172301 -5.917531 -63.91255
6.400921 -8.482917 -62.360016
5.848117 -7.436798 -62.403034
6.49899 -6.720555 -63.130432
14.478243 -19.018611 -61.080423
13.834692 -17.976053 -61.359253
15.387251 -18.062016 -61.615743
15.111551 -20.089022 -60.74646
14.478243 -19.018611 -61.080423
21.217841 -23.329966 -59.827982
21.991104 -24.11174 -59.475893
21.410461 -21.226748 -60.668121
21.217841 -23.329966 -59.827982
20.432973 -22.591458 -60.175936
29.066598 4.424349 -67.426701
29.458939 5.983956 -67.433468
29.972976 4.279081 -66.80114
28.596791 2.979253 -67.391633
28.082754 4.684127 -68.023961
29.066598 4.424349 -67.426701
25.009868 -7.266533 -65.68726
25.602998 -5.732797 -66.069806
24.118592 -6.796563 -66.061287
25.009868 -7.266533 -65.68726
23.110878 -11.397863 -64.483074
22.908071 -9.521655 -65.25151
-1.578152 10.33329 -58.147602
-1.640769 11.698232 -58.38248
-1.094143 9.767689 -58.738113
-1.527281 8.885117 -57.861428
-1.578152 10.33329 -58.147602
-0.713329 12.095341 -59.903038
-1.239804 12.66004 -59.160703
-0.683535 10.702786 -59.661008
-0.713329 12.095341 -59.903038
-0.25185 11.582265 -60.539758
-0.167587 8.792535 -60.017555
-0.578194 7.857439 -59.09466
-0.632664 9.254613 -59.374834
-0.167587 8.792535 -60.017555
0.202161 9.623409 -60.876996
1.477715 9.585843 -62.988811
1.035736 10.037097 -62.366035
1.945857 10.614864 -63.969034
1.978479 9.183619 -63.68204
1.477715 9.585843 -62.988811
8.816187 24.604487 -70.597931
9.71254 25.285796 -70.836796
8.688952 23.448591 -70.855641
8.816187 24.604487 -70.597931
9.396721 22.78483 -71.40738
8.688952 23.448591 -70.855641
10.130312 22.133757 -71.883793
9.396721 22.78483 -71.40738
10.305656 23.433312 -71.692104
10.951691 21.533655 -72.307984
10.042756 20.885174 -72.023258
10.130312 22.133757 -71.883793
19.812131 20.978144 -72.549804
18.95561 22.138162 -72.566547
19.531366 19.73598 -72.761444
19.812131 20.978144 -72.549804
20.651208 19.747906 -72.447373
21.24335 17.272867 -72.390774
21.456457 18.64074 -72.273411
22.329364 17.407866 -72.005173
5.244753 1.547835 -65.367344
4.675012 0.69108 -64.506451
5.81802 0.747448 -65.543098
5.244753 1.547835 -65.367344
5.905196 2.377319 -66.213093
7.412408 -2.247579 -65.534165
6.735079 -3.091408 -64.746814
6.854678 -1.270599 -65.543293
8.008948 -3.145106 -65.503475
7.412408 -2.247579 -65.534165
8.128547 -1.324297 -66.299954
8.585006 -4.082488 -65.439685
7.868867 -5.005769 -64.673896
8.008948 -3.145106 -65.503475
12.610789 -15.75322 -61.994406
13.180072 -16.9421 -61.657643
34.061596 9.42505 -63.097035
33.490765 11.292243 -63.680806
34.00273 -5.114376 -61.557485
34.421949 -3.545902 -61.513237
33.594031 -6.657633 -61.503727
33.010519 -8.196013 -61.532337
33.290283 -4.660794 -62.308664
34.00273 -5.114376 -61.557485
33.594031 -6.657633 -61.503727
31.655124 -3.542975 -63.877581
32.502561 -4.142259 -63.100932
32.034146 -5.604767 -63.031555
30.838229 -3.039455 -64.575226
31.306645 -1.576948 -64.644602
31.655124 -3.542975 -63.877581
30.337294 -4.484347 -64.457123
29.988815 -2.51832 -65.224144
30.838229 -3.039455 -64.575226
29.700997 -5.950785 -64.35646
30.337294 -4.484347 -64.457123
28.888253 -5.49709 -64.891697
29.700997 -5.950785 -64.35646
-1.399808 7.403214 -57.62619
-0.921782 6.895383 -58.22336
2.416506 8.697156 -64.238081
2.907012 9.598031 -65.155128
5.335479 4.798914 -66.567505
4.800044 5.56213 -66.295368
5.938192 5.777181 -67.385071
5.934642 4.155973 -66.854904
5.335479 4.798914 -66.567505
5.455151 8.047072 -67.643867
4.861404 7.193208 -66.844983
4.977527 8.820159 -67.391178
5.863392 -22.865285 -56.599512
6.32869 -24.03303 -56.473451
2.146189 24.204384 -64.178747
2.743255 25.029334 -64.669586
2.146189 24.204384 -64.178747
2.070966 22.85633 -64.371947
0.938229 19.936937 -63.178242
1.468382 20.679608 -63.872875
0.931869 18.506382 -63.195942
0.938229 19.936937 -63.178242
1.432358 18.057039 -63.968542
0.923825 17.154463 -63.194433
0.931869 18.506382 -63.195942
5.721936 23.002323 -68.691318
5.096385 23.477191 -67.93996
5.637182 21.707598 -68.901181
5.721936 23.002323 -68.691318
6.359612 22.438942 -69.408844
6.922237 20.660654 -70.183983
7.040348 21.978507 -70.057148
7.687728 21.494944 -70.622425
12.526066 25.745331 -71.659126
11.666835 26.304312 -71.203002
13.333971 25.050795 -72.07341
14.133436 24.214883 -72.448986
12.295159 24.483064 -72.061836
12.526066 25.745331 -71.659126
13.333971 25.050795 -72.07341
17.818127 21.931271 -72.832947
18.081449 23.103214 -72.535618
18.95561 22.138162 -72.566547
3.075264 -21.222696 -55.212072
2.410911 -21.973813 -54.356641
2.774676 -19.907773 -55.295723
3.471999 -22.340535 -55.171183
3.075264 -21.222696 -55.212072
3.835765 -20.274495 -56.110264
3.824399 -23.475535 -55.123602
3.471999 -22.340535 -55.171183
4.612998 -22.60483 -55.92555
3.824399 -23.475535 -55.123602
5.347929 -21.761351 -56.710509
4.612998 -22.60483 -55.92555
4.967432 -20.548855 -56.854332
6.217826 -20.80931 -57.528294
5.863392 -22.865285 -56.599512
5.347929 -21.761351 -56.710509
4.605854 -1.066693 -63.781425
4.675012 0.69108 -64.506451
4.605854 -1.066693 -63.781425
5.085303 -1.934737 -63.921036
5.595189 -2.950934 -63.950333
6.061768 -3.894432 -63.964697
4.210654 -13.10916 -58.902828
3.635747 -14.045568 -58.006359
4.652181 -14.226869 -58.851526
4.210654 -13.10916 -58.902828
4.868005 -12.149553 -59.791082
7.84502 -19.01649 -59.027245
7.576853 -21.002759 -58.147892
7.001456 -19.926975 -58.29665
7.84502 -19.01649 -59.027245
8.053085 -17.072655 -59.878098
9.112264 -14.15029 -61.531254
8.30754 -14.974988 -60.830317
8.583258 -12.920673 -61.781378
9.666802 -15.275852 -61.271906
9.112264 -14.15029 -61.531254
9.942519 -13.221538 -62.222967
10.3071 -16.320525 -61.097345
9.666802 -15.275852 -61.271906
11.136967 -15.46492 -61.702973
10.3071 -16.320525 -61.097345
11.950699 -14.653289 -62.29093
11.136967 -15.46492 -61.702973
11.310789 -13.535469 -62.551576
12.78461 -13.823768 -62.84301
12.610789 -15.75322 -61.994406
11.950699 -14.653289 -62.29093
17.191972 -23.302632 -59.772114
16.491346 -22.259036 -60.087217
18.156923 -22.035092 -60.333298
17.191972 -23.302632 -59.772114
18.317642 -20.032249 -61.145821
19.062818 -20.790948 -60.893124
18.156923 -22.035092 -60.333298
22.984765 -22.785181 -59.886839
21.991104 -24.11174 -59.475893
22.984765 -22.785181 -59.886839
23.146021 -20.610461 -60.744009
23.221477 -13.179721 -63.749558
23.362737 -14.946742 -63.016316
22.4028 -12.648596 -64.088658
23.110878 -11.397863 -64.483074
23.221477 -13.179721 -63.749558
33.797945 8.281146 -63.537365
34.061596 9.42505 -63.097035
35.224013 -0.739637 -61.128277
34.839724 -2.042267 -61.377224
34.849343 1.253007 -61.860416
35.224013 -0.739637 -61.128277
34.127882 1.841036 -62.797945
33.760649 0.372997 -62.966786
33.354 2.324299 -63.674334
34.849343 1.253007 -61.860416
34.127882 1.841036 -62.797945
33.550358 6.909019 -63.849422
33.263046 5.548218 -64.125465
33.052447 8.676223 -64.43338
33.797945 8.281146 -63.537365
33.550358 6.909019 -63.849422
32.215601 9.159148 -65.367051
32.463189 10.531274 -65.054993
33.052447 8.676223 -64.43338
31.343247 9.718839 -66.243496
32.215601 9.159148 -65.367051
31.932505 7.863788 -65.621883
30.41444 10.218001 -67.097698
31.343247 9.718839 -66.243496
30.082652 8.772253 -67.293991
30.712734 7.131083 -66.653118
29.735234 7.479857 -67.44878
30.41444 10.218001 -67.097698
30.082652 8.772253 -67.293991
26.166561 9.842834 -69.865597
25.497013 11.501537 -70.375572
25.800765 8.411898 -69.831005
26.166561 9.842834 -69.865597
26.858691 8.152718 -69.277412
27.05292 4.980406 -68.615857
27.522728 6.425503 -68.650925
28.082754 4.684127 -68.023961
27.065611 -4.633029 -65.953156
27.963549 -5.123995 -65.44289
26.707109 -2.864709 -66.662082
27.065611 -4.633029 -65.953156
26.134249 -4.280719 -66.406811
23.196952 -6.515083 -66.354343
23.791605 -5.135075 -66.734783
24.118592 -6.796563 -66.061287
22.383303 -6.212735 -66.5937
23.196952 -6.515083 -66.354343
22.71029 -7.874223 -65.920204
3 201 54 202
3 203 56 204
3 205 58 206
3 207 206 56
3 205 206 207
3 1 61 59
3 1 63 61
3 2 208 209
3 2 210 211
3 3 65 64
3 3 67 65
3 212 70 213
3 4 214 216
3 214 72 215
3 214 215 216
3 4 74 72
3 217 75 218
3 5 78 76
3 5 80 78
3 5 82 80
3 7 85 83
3 7 87 85
3 219 89 220
3 8 221 223
3 221 90 222
3 221 222 223
3 8 92 90
3 8 94 92
3 6 97 95
3 6 99 97
3 9 224 226
3 224 100 225
3 224 225 226
3 9 102 100
3 227 104 228
3 229 106 230
3 231 230 104
3 229 230 231
3 10 232 233
3 10 234 235
3 11 109 107
3 11 111 109
3 11 113 111
3 236 114 237
3 13 238 240
3 238 115 239
3 238 239 240
3 13 241 243
3 243 242 115
3 241 242 243
3 13 244 246
3 244 116 245
3 244 245 246
3 15 117 53
3 15 118 117
3 16 247 249
3 247 119 248
3 247 248 249
3 16 120 119
3 250 122 251
3 18 123 55
3 18 124 123
3 18 126 124
3 20 127 57
3 20 128 127
3 21 252 254
3 252 130 253
3 252 253 254
3 23 131 60
3 23 132 131
3 23 134 132
3 25 135 62
3 25 136 135
3 255 137 256
3 258 257 137
3 12 259 260
3 14 261 262
3 263 139 264
3 27 140 66
3 27 141 140
3 28 265 267
3 267 266 68
3 265 266 267
3 28 268 270
3 268 142 269
3 268 269 270
3 28 143 142
3 29 144 69
3 29 145 144
3 271 146 272
3 30 147 71
3 30 148 147
3 30 149 148
3 31 150 73
3 31 151 150
3 32 273 275
3 273 152 274
3 273 274 275
3 32 153 152
3 17 154 121
3 33 155 77
3 33 156 155
3 33 157 156
3 34 158 79
3 34 159 158
3 34 160 159
3 35 161 81
3 35 162 161
3 19 163 125
3 36 164 84
3 36 165 164
3 36 166 165
3 38 167 86
3 38 169 167
3 39 276 277
3 39 278 279
3 39 280 281
3 40 170 88
3 40 171 170
3 22 282 284
3 284 283 129
3 282 283 284
3 41 285 286
3 41 287 288
3 41 289 291
3 289 172 290
3 289 290 291
3 42 173 91
3 42 174 173
3 42 292 294
3 294 293 174
3 292 293 294
3 43 175 93
3 43 176 175
3 24 177 133
3 44 178 96
3 44 179 178
3 44 180 179
3 37 181 98
3 37 168 181
3 46 295 296
3 46 297 299
3 297 183 298
3 297 298 299
3 46 184 183
3 45 185 101
3 45 182 185
3 48 300 302
3 302 301 103
3 300 301 302
3 48 303 304
3 48 305 307
3 305 187 306
3 305 306 307
3 47 188 105
3 47 186 188
3 26 308 310
3 308 190 309
3 308 309 310
3 50 311 313
3 313 312 108
3 311 312 313
3 50 314 316
3 314 191 315
3 314 315 316
3 50 192 191
3 318 317 110
3 319 193 320
3 51 194 112
3 51 195 194
3 321 196 322
3 323 322 138
3 321 322 323
3 52 324 326
3 324 197 325
3 324 325 326
3 52 198 197
3 52 199 198
3 49 327 329
3 327 200 328
3 327 328 329
3 49 189 200
3 330 13 331
3 332 53 333
3 334 333 13
3 332 333 334
3 54 335 337
3 335 53 336
3 335 336 337
3 54 15 53
3 338 16 339
3 340 55 341
3 56 342 344
3 342 55 343
3 342 343 344
3 56 18 55
3 56 57 18
3 58 57 56
3 58 20 57
3 59 60 21
3 61 60 59
3 61 23 60
3 61 62 23
3 63 62 61
3 63 25 62
3 346 345 12
3 64 347 349
3 349 348 14
3 347 348 349
3 65 350 352
3 352 351 64
3 350 351 352
3 65 353 354
3 65 355 357
3 355 66 356
3 355 356 357
3 67 66 65
3 67 27 66
3 358 68 359
3 360 68 361
3 362 28 363
3 364 363 68
3 362 363 364
3 365 69 366
3 367 366 28
3 365 366 367
3 70 368 370
3 368 69 369
3 368 369 370
3 70 29 69
3 371 71 372
3 72 373 375
3 373 71 374
3 373 374 375
3 72 30 71
3 72 73 30
3 74 73 72
3 74 31 73
3 75 376 377
3 75 378 380
3 378 32 379
3 378 379 380
3 76 77 17
3 78 77 76
3 78 33 77
3 78 79 33
3 80 79 78
3 80 34 79
3 80 81 34
3 82 81 80
3 82 35 81
3 83 84 19
3 85 84 83
3 85 36 84
3 85 86 36
3 87 86 85
3 87 38 86
3 381 39 382
3 383 88 384
3 385 384 39
3 383 384 385
3 89 386 388
3 386 88 387
3 386 387 388
3 89 40 88
3 390 389 22
3 90 391 392
3 90 393 395
3 393 41 394
3 393 394 395
3 90 91 41
3 92 91 90
3 92 42 91
3 92 93 42
3 94 93 92
3 94 43 93
3 95 96 24
3 97 96 95
3 97 44 96
3 97 98 44
3 99 98 97
3 99 37 98
3 100 396 397
3 100 398 400
3 398 46 399
3 398 399 400
3 100 101 46
3 102 101 100
3 102 45 101
3 401 103 402
3 104 403 405
3 403 103 404
3 403 404 405
3 104 48 103
3 104 105 48
3 106 105 104
3 106 47 105
3 107 108 26
3 109 108 107
3 109 50 108
3 109 110 50
3 111 110 109
3 111 406 408
3 408 407 110
3 406 407 408
3 111 409 411
3 409 112 410
3 409 410 411
3 113 112 111
3 113 51 112
3 412 52 413
3 415 414 52
3 416 49 417
3 114 418 419
3 114 420 422
3 420 12 421
3 420 421 422
3 423 114 424
3 115 425 427
3 425 114 426
3 425 426 427
3 115 12 114
3 115 428 430
3 430 429 12
3 428 429 430
3 432 431 115
3 116 433 434
3 116 435 437
3 435 14 436
3 435 436 437
3 53 116 13
3 117 116 53
3 117 14 116
3 117 64 14
3 118 64 117
3 118 3 64
3 119 438 439
3 119 440 441
3 119 442 443
3 120 444 446
3 446 445 119
3 444 445 446
3 120 447 449
3 447 4 448
3 447 448 449
3 450 121 451
3 122 452 454
3 452 121 453
3 452 453 454
3 122 17 121
3 55 455 457
3 455 122 456
3 455 456 457
3 123 122 55
3 123 17 122
3 123 76 17
3 124 76 123
3 124 5 76
3 124 125 5
3 126 125 124
3 126 19 125
3 57 126 18
3 127 126 57
3 127 19 126
3 127 83 19
3 128 83 127
3 128 7 83
3 458 129 459
3 130 460 462
3 460 129 461
3 460 461 462
3 130 22 129
3 60 130 21
3 131 130 60
3 131 22 130
3 131 463 465
3 465 464 22
3 463 464 465
3 132 466 468
3 468 467 131
3 466 467 468
3 132 469 471
3 469 8 470
3 469 470 471
3 132 133 8
3 134 133 132
3 134 24 133
3 62 134 23
3 135 134 62
3 135 24 134
3 135 95 24
3 136 95 135
3 136 6 95
3 472 9 473
3 474 10 475
3 476 26 477
3 137 478 479
3 137 480 482
3 480 26 481
3 480 481 482
3 137 107 26
3 483 107 484
3 485 484 137
3 483 484 485
3 486 11 487
3 488 487 107
3 486 487 488
3 489 138 490
3 491 490 11
3 489 490 491
3 492 138 493
3 495 494 138
3 497 496 12
3 499 498 14
3 139 500 501
3 139 502 504
3 502 21 503
3 502 503 504
3 66 505 507
3 505 139 506
3 505 506 507
3 140 139 66
3 140 21 139
3 140 59 21
3 141 59 140
3 141 1 59
3 508 2 509
3 68 510 511
3 513 512 68
3 142 514 515
3 142 516 517
3 142 518 520
3 518 54 519
3 518 519 520
3 143 54 142
3 143 15 54
3 69 143 28
3 144 143 69
3 144 15 143
3 144 118 15
3 145 118 144
3 145 3 118
3 521 70 522
3 146 523 525
3 523 70 524
3 523 524 525
3 146 29 70
3 71 526 528
3 526 146 527
3 526 527 528
3 147 146 71
3 147 29 146
3 147 145 29
3 148 145 147
3 148 3 145
3 148 67 3
3 149 67 148
3 149 27 67
3 73 149 30
3 150 149 73
3 150 27 149
3 150 141 27
3 151 141 150
3 151 1 141
3 529 16 530
3 152 531 532
3 152 533 535
3 533 16 534
3 533 534 535
3 152 120 16
3 153 120 152
3 153 4 120
3 121 536 538
3 536 75 537
3 536 537 538
3 154 75 121
3 154 32 75
3 77 154 17
3 155 154 77
3 155 32 154
3 155 153 32
3 156 153 155
3 156 4 153
3 156 74 4
3 157 74 156
3 157 31 74
3 79 157 33
3 158 157 79
3 158 31 157
3 158 151 31
3 159 151 158
3 159 1 151
3 159 63 1
3 160 63 159
3 160 25 63
3 81 160 34
3 161 160 81
3 161 25 160
3 161 136 25
3 162 136 161
3 162 6 136
3 125 82 5
3 163 82 125
3 163 35 82
3 84 163 19
3 164 163 84
3 164 35 163
3 164 162 35
3 165 162 164
3 165 6 162
3 165 99 6
3 166 99 165
3 166 37 99
3 86 166 36
3 167 166 86
3 167 37 166
3 167 168 37
3 169 168 167
3 169 0 168
3 88 539 541
3 541 540 39
3 539 540 541
3 170 542 544
3 544 543 88
3 542 543 544
3 170 545 546
3 170 547 548
3 171 549 551
3 551 550 170
3 549 550 551
3 171 552 554
3 552 2 553
3 552 553 554
3 129 555 556
3 558 557 129
3 560 559 22
3 561 89 562
3 172 563 565
3 563 89 564
3 563 564 565
3 172 40 89
3 91 172 41
3 173 172 91
3 173 40 172
3 173 171 40
3 174 171 173
3 174 2 171
3 174 566 568
3 568 567 2
3 566 567 568
3 570 569 174
3 93 571 573
3 573 572 42
3 571 572 573
3 175 574 576
3 576 575 93
3 574 575 576
3 175 577 578
3 175 579 580
3 176 581 583
3 583 582 175
3 581 582 583
3 176 584 586
3 584 9 585
3 584 585 586
3 133 94 8
3 177 94 133
3 177 43 94
3 96 177 24
3 178 177 96
3 178 43 177
3 178 176 43
3 179 176 178
3 179 9 176
3 179 102 9
3 180 102 179
3 180 45 102
3 98 180 44
3 181 180 98
3 181 45 180
3 181 182 45
3 168 182 181
3 168 0 182
3 183 587 588
3 183 589 590
3 183 591 593
3 591 106 592
3 591 592 593
3 184 106 183
3 184 47 106
3 101 184 46
3 185 184 101
3 185 47 184
3 185 186 47
3 182 186 185
3 182 0 186
3 103 594 595
3 597 596 103
3 187 598 599
3 187 600 602
3 600 49 601
3 600 601 602
3 105 187 48
3 188 187 105
3 188 49 187
3 188 189 49
3 186 189 188
3 186 0 189
3 603 10 604
3 190 605 606
3 190 607 608
3 108 190 26
3 609 190 610
3 611 610 108
3 609 610 611
3 613 612 190
3 191 614 615
3 191 616 618
3 616 10 617
3 616 617 618
3 191 619 621
3 621 620 10
3 619 620 621
3 192 622 624
3 624 623 191
3 622 623 624
3 192 625 626
3 110 192 50
3 627 192 628
3 629 628 110
3 627 628 629
3 631 630 192
3 632 58 633
3 193 634 636
3 634 58 635
3 634 635 636
3 193 20 58
3 112 637 639
3 637 193 638
3 637 638 639
3 194 193 112
3 194 20 193
3 194 128 20
3 195 128 194
3 195 7 128
3 138 113 11
3 196 113 138
3 196 51 113
3 640 196 641
3 197 642 644
3 642 196 643
3 642 643 644
3 197 51 196
3 197 195 51
3 198 195 197
3 198 7 195
3 198 87 7
3 199 87 198
3 199 38 87
3 645 199 646
3 647 646 52
3 645 646 647
3 200 648 650
3 648 199 649
3 648 649 650
3 200 38 199
3 200 169 38
3 189 169 200
3 189 0 169
