ply
format ascii 1.0
element vertex 470
property float x
property float y
property float z
element face 462
property list uchar int vertex_index
end_header
25.823698 54.93568 -2.441801
14.725031 85.765404 -26.740921
19.866184 75.464775 -21.408499
15.361182 75.839066 -29.286892
22.767174 72.122856 -12.965534
24.743767 59.897377 -9.635037
9.239076 84.473328 -35.549667
9.969376 72.493362 -36.617069
21.144222 69.751343 -18.868103
25.505648 57.589821 -6.076673
25.29887 53.709343 -8.520334
-0.035233 74.596062 -45.54747
7.836184 89.890572 -34.014908
12.199725 85.435196 -31.366041
12.749164 74.516243 -32.957417
9.951637 65.919197 -36.484711
17.757425 80.725716 -24.139791
15.433653 80.909531 -28.460951
17.68951 76.154121 -25.568964
16.974373 70.715004 -26.082842
22.793184 68.1567 -15.019608
23.444799 62.07901 -13.172264
23.931454 66.326996 -11.21015
24.578157 63.837189 -7.104511
24.718067 60.80286 -3.03244
19.576817 79.729866 -19.680582
21.511778 74.213257 -17.329617
6.106113 82.130722 -39.39415
12.784333 80.159531 -32.535862
9.868639 78.563698 -36.366791
6.900828 75.840775 -39.828461
25.733603 56.20327 -4.331831
25.933788 54.456272 -5.802798
1.487339 76.815414 -44.156261
3.63671 75.616867 -42.758476
11.501772 88.02034 -30.528599
13.499846 85.768913 -29.078981
13.418033 69.296349 -31.311409
18.953854 77.947845 -22.767788
17.859184 78.347237 -24.930269
18.811132 75.711929 -23.561499
22.897411 70.22448 -14.117613
23.431639 67.295532 -13.10251
23.405365 69.321976 -12.02045
24.067451 66.672348 -7.703443
24.133745 65.414291 -5.550584
24.706625 62.312469 -5.007114
24.121096 63.888676 -3.470352
18.28647 82.355881 -20.995173
19.145468 81.550278 -18.429893
21.960911 74.993492 -13.96917
21.353374 76.092941 -16.272144
22.197481 73.247131 -15.193591
22.255438 71.197891 -16.089308
24.170631 61.02132 -11.371693
23.6609 58.803326 -12.277047
24.405993 57.766575 -10.653813
25.624657 50.511749 -7.989911
8.629421 87.242928 -34.897785
6.376739 89.117935 -36.172241
7.069806 86.199028 -37.077915
7.776976 83.446457 -37.443836
15.433165 78.592323 -29.005274
14.044511 80.848686 -30.621195
14.215122 78.030449 -30.870472
11.340413 73.50444 -34.83849
11.405004 76.592873 -34.719532
10.006016 75.526993 -36.492275
8.301946 77.455704 -38.210041
8.612201 74.189507 -38.189869
7.329795 72.656219 -39.71381
8.754991 70.87587 -38.166779
20.551809 72.71859 -20.215549
19.607714 73.128105 -22.103445
23.129881 71.150581 -10.704344
19.816008 80.613472 -15.984898
25.170849 58.918949 -7.917707
25.017904 56.92128 -9.05599
25.541145 55.70171 -7.372662
25.88072 52.512695 -7.047668
10.135335 87.735771 -32.742027
10.786044 85.190384 -33.413513
15.04605 73.028862 -29.51067
14.100317 75.130081 -31.093521
13.834109 72.373344 -31.215866
12.49575 71.512321 -33.075539
11.241851 70.579216 -34.81385
10.085354 69.203743 -36.396954
11.103275 67.373039 -34.740124
16.326876 83.333038 -25.507378
15.198135 83.342979 -27.740131
16.640347 80.905182 -26.352268
16.664976 78.542076 -27.035723
16.57415 75.973747 -27.417395
18.521557 73.429497 -24.080204
17.441647 73.490364 -25.884125
16.178301 73.261719 -27.834562
23.14957 65.354378 -14.131769
23.832544 64.105309 -12.270168
24.377455 63.223869 -10.375321
23.816147 68.023674 -9.889353
24.358086 64.941948 -9.179673
24.786156 61.96793 -8.530132
25.068977 60.671001 -6.629877
25.217356 59.31554 -4.6238
25.280773 57.793556 -2.707179
24.580065 59.489479 -1.038467
25.201517 56.475124 -0.761632
15.807346 85.5411 -24.39579
17.391016 82.957039 -23.186785
18.744974 80.217552 -21.98521
19.806021 77.70739 -20.722746
20.365807 78.875801 -17.189846
20.617676 77.024498 -18.556898
20.763542 74.760895 -19.377085
21.473686 71.918747 -18.142233
22.012341 68.92379 -16.965525
22.84177 59.913532 -13.880247
24.643721 54.490063 -9.946038
13.91608 83.272888 -29.924295
12.523868 82.924767 -32.107792
11.123285 82.461555 -34.070824
12.836223 77.438416 -32.819332
11.401007 79.582405 -34.406445
9.616091 81.421928 -36.099239
8.135296 80.541512 -37.855385
6.520761 79.091919 -39.697483
4.971225 77.678856 -41.322891
5.511384 74.183655 -41.355709
8.802896 67.869286 -38.172028
26.019663 54.133719 -3.266911
25.974615 54.767514 -4.211927
25.77865 55.569475 -3.386816
2.207261 77.842121 -43.4454
1.100742 78.417908 -44.097438
3.281947 77.242847 -42.746507
2.562024 76.21614 -43.457369
2.207261 77.842121 -43.4454
14.112438 85.767158 -27.909951
13.134421 86.978607 -28.594234
13.747013 86.976853 -27.425204
23.817422 66.157429 -4.810006
23.81725 66.9268 -5.897877
23.811098 65.394621 -3.76989
24.12742 64.651483 -4.510468
23.817422 66.157429 -4.810006
18.769868 82.477314 -17.790819
18.472634 82.792965 -18.99342
25.329408 49.287611 -8.454987
25.740156 48.801502 -7.859811
20.701866 69.992878 -19.734828
20.405659 71.476502 -20.408551
20.848015 71.234967 -19.541826
26.128626 51.945355 -6.255352
25.907254 53.484483 -6.425233
26.15516 52.917143 -5.632917
26.066118 50.917518 -6.877185
26.128626 51.945355 -6.255352
-1.156538 75.069432 -46.12721
-0.419102 76.213299 -45.495666
-0.703002 73.415031 -46.144956
-1.156538 75.069432 -46.12721
0.370915 72.901329 -45.552478
-0.703002 73.415031 -46.144956
14.206834 71.214576 -30.43259
14.440079 72.701103 -30.363268
14.812805 71.542336 -29.579993
12.366256 69.90276 -33.050045
12.956891 70.404335 -32.193474
12.827398 68.794774 -32.16798
11.739307 69.436207 -33.919201
11.8688 71.045769 -33.944694
12.366256 69.90276 -33.050045
11.670019 67.833119 -33.882338
11.172563 68.976128 -34.776987
11.739307 69.436207 -33.919201
18.851672 72.093018 -23.322733
19.064636 73.278801 -23.091825
19.394751 71.942322 -22.334353
17.20801 72.102684 -25.983483
17.748482 72.164147 -25.149943
17.514845 70.776466 -25.249302
16.384552 70.629505 -26.980449
15.986517 71.902862 -27.856309
16.576337 71.988361 -26.958702
22.971377 66.755539 -14.575689
22.779153 65.629089 -14.977732
22.60096 67.03025 -15.421651
23.639277 68.792 -9.20565
23.473014 69.587128 -10.296848
23.296143 70.355454 -9.613146
24.510044 58.691401 -0.067831
24.181492 60.156885 -0.181553
24.82077 57.184223 0.070587
24.890791 57.982302 -0.900049
24.510044 58.691401 -0.067831
25.190196 55.598119 0.134055
24.82077 57.184223 0.070587
16.30827 85.278732 -23.174134
15.458313 86.500935 -23.770319
17.100105 83.986702 -22.569631
16.599181 84.249069 -23.791288
16.30827 85.278732 -23.174134
20.691122 78.316543 -16.016295
20.090908 79.744636 -16.587372
20.416223 79.185379 -15.413821
22.60096 67.03025 -15.421651
22.210538 67.413795 -16.39461
22.402763 68.540245 -15.992566
23.143285 60.996271 -13.526256
22.756884 61.473667 -14.352332
23.058398 62.556406 -13.998341
23.318812 57.74937 -12.61714
23.754445 57.220236 -11.866928
6.700314 90.747315 -34.598547
7.422482 91.048073 -33.456108
5.177914 89.937893 -36.775553
5.659885 88.575325 -37.168262
5.036373 82.993046 -40.045388
5.809173 83.664535 -39.164864
5.248904 81.46455 -40.288706
5.036373 82.993046 -40.045388
6.662577 71.779785 -40.49271
7.384457 70.982261 -39.775842
20.917248 68.547818 -19.058169
21.371879 68.215741 -18.190373
26.074708 53.894014 -4.94741
25.833695 55.329771 -5.067315
25.974615 54.767514 -4.211927
26.15516 52.917143 -5.632917
26.074708 53.894014 -4.94741
0.342183 77.322975 -44.800062
1.100742 78.417908 -44.097438
0.726053 75.705738 -44.851866
-0.419102 76.213299 -45.495666
0.342183 77.322975 -44.800062
1.830035 75.092647 -44.19375
1.068749 73.982972 -44.889354
0.726053 75.705738 -44.851866
2.90472 74.493374 -43.494858
1.830035 75.092647 -44.19375
2.562024 76.21614 -43.457369
3.876604 73.938969 -42.802471
2.90472 74.493374 -43.494858
12.135383 88.104321 -29.319043
11.105336 89.191674 -29.942839
12.500809 86.894627 -29.80379
12.135383 88.104321 -29.319043
13.134421 86.978607 -28.594234
13.791513 68.053895 -30.383598
13.998797 69.676079 -30.480362
13.242404 67.749157 -31.256949
13.791513 68.053895 -30.383598
12.827398 68.794774 -32.16798
13.242404 67.749157 -31.256949
17.233816 69.292797 -25.247336
17.514845 70.776466 -25.249302
16.66763 69.302147 -26.139352
17.233816 69.292797 -25.247336
23.784103 67.555828 -6.974307
23.764928 68.116337 -8.112695
24.100598 66.043319 -6.627014
23.784103 67.555828 -6.974307
23.81725 66.9268 -5.897877
18.043135 83.195766 -20.27606
17.547832 83.686123 -21.473826
18.715969 81.95308 -19.712533
18.043135 83.195766 -20.27606
18.472634 82.792965 -18.99342
21.657142 75.543216 -15.120657
21.184906 76.925113 -15.557444
21.488675 76.375389 -14.405957
24.126991 56.701861 -11.055311
23.754445 57.220236 -11.866928
24.033447 58.284951 -11.46543
25.239309 50.86737 -8.680928
25.076416 52.466167 -8.94614
25.461763 52.110546 -8.255123
25.239309 50.86737 -8.680928
25.329408 49.287611 -8.454987
6.006418 87.115871 -37.621099
5.659885 88.575325 -37.168262
6.723273 87.658481 -36.625078
6.291019 85.698689 -38.006746
6.006418 87.115871 -37.621099
6.644604 84.322403 -38.189706
6.291019 85.698689 -38.006746
7.423391 84.822743 -37.260875
6.941545 82.78859 -38.418993
5.809173 83.664535 -39.164864
6.644604 84.322403 -38.189706
8.097055 70.092087 -39.002327
7.384457 70.982261 -39.775842
8.042393 71.766044 -38.940295
9.42202 63.629773 -37.292694
9.428156 65.255364 -37.306494
9.945501 64.293606 -36.470911
19.933612 71.681259 -21.352499
20.079762 72.923348 -21.159497
20.405659 71.476502 -20.408551
19.394751 71.942322 -22.334353
19.933612 71.681259 -21.352499
20.701866 69.992878 -19.734828
20.917248 68.547818 -19.058169
22.762595 72.500897 -11.183338
22.948528 71.636719 -11.834939
22.581242 72.987034 -12.313933
22.905843 71.84412 -9.931276
22.762595 72.500897 -11.183338
23.296143 70.355454 -9.613146
22.905843 71.84412 -9.931276
19.431824 81.432377 -15.277314
19.105138 82.008911 -16.568321
20.087265 80.048935 -14.713634
19.431824 81.432377 -15.277314
20.416223 79.185379 -15.413821
20.087265 80.048935 -14.713634
21.729509 75.797196 -13.271687
21.488675 76.375389 -14.405957
22.17811 74.422352 -12.815751
21.729509 75.797196 -13.271687
22.581242 72.987034 -12.313933
22.364043 73.558174 -13.467352
22.17811 74.422352 -12.815751
25.938086 49.917046 -7.348307
25.752688 51.512222 -7.51879
26.066118 50.917518 -6.877185
25.740156 48.801502 -7.859811
25.938086 49.917046 -7.348307
0.370915 72.901329 -45.552478
1.068749 73.982972 -44.889354
8.597807 90.018662 -32.898871
7.422482 91.048073 -33.456108
10.430601 89.083545 -31.155717
11.105336 89.191674 -29.942839
9.747383 88.941261 -32.262431
10.430601 89.083545 -31.155717
10.818554 87.878056 -31.635313
8.98576 88.813172 -33.378467
8.597807 90.018662 -32.898871
9.747383 88.941261 -32.262431
13.626071 70.834846 -31.263638
14.206834 71.214576 -30.43259
13.998797 69.676079 -30.480362
11.558346 66.353443 -33.823985
11.670019 67.833119 -33.882338
11.044312 65.767029 -34.680782
11.558346 66.353443 -33.823985
10.468493 65.040108 -35.553076
10.527456 66.646118 -35.612417
11.044312 65.767029 -34.680782
9.945501 64.293606 -36.470911
10.468493 65.040108 -35.553076
26.134709 53.407022 -2.448948
25.865455 54.143827 -1.594573
18.288437 72.133713 -24.247983
18.851672 72.093018 -23.322733
17.981602 73.45993 -24.982164
18.288437 72.133713 -24.247983
17.748482 72.164147 -25.149943
15.420391 71.786434 -28.694363
15.612175 73.145291 -28.672616
15.986517 71.902862 -27.856309
14.812805 71.542336 -29.579993
15.420391 71.786434 -28.694363
16.384552 70.629505 -26.980449
16.66763 69.302147 -26.139352
22.910784 64.19409 -14.478093
22.779153 65.629089 -14.977732
23.297185 63.716694 -13.652017
23.058398 62.556406 -13.998341
22.910784 64.19409 -14.478093
23.941799 67.348011 -8.796398
23.639277 68.792 -9.20565
23.764928 68.116337 -8.112695
23.752447 64.566744 -2.655616
23.811098 65.394621 -3.76989
24.070122 63.12164 -2.476516
23.752447 64.566744 -2.655616
24.368608 61.578732 -2.25756
24.419581 62.345768 -3.251396
24.070122 63.12164 -2.476516
24.299607 60.922041 -1.260573
24.181492 60.156885 -0.181553
24.649066 60.146169 -2.035454
24.368608 61.578732 -2.25756
24.299607 60.922041 -1.260573
25.554365 54.913549 -0.754489
25.865455 54.143827 -1.594573
25.512608 55.705402 -1.601716
25.554365 54.913549 -0.754489
25.190196 55.598119 0.134055
14.375843 86.839577 -26.188906
13.747013 86.976853 -27.425204
14.917 86.727425 -25.01634
15.458313 86.500935 -23.770319
15.266189 85.653252 -25.568356
14.375843 86.839577 -26.188906
14.917 86.727425 -25.01634
17.838743 82.65646 -22.090979
17.100105 83.986702 -22.569631
17.547832 83.686123 -21.473826
19.480738 81.081875 -17.207396
18.769868 82.477314 -17.790819
19.105138 82.008911 -16.568321
20.85959 77.484371 -16.730995
20.691122 78.316543 -16.016295
21.184906 76.925113 -15.557444
21.805938 67.801964 -17.239085
21.371879 68.215741 -18.190373
21.578281 69.337567 -17.916814
21.805938 67.801964 -17.239085
22.210538 67.413795 -16.39461
22.428635 60.343166 -14.616701
22.756884 61.473667 -14.352332
22.471363 58.756223 -14.119819
22.428635 60.343166 -14.616701
22.909247 58.304474 -13.41874
23.251335 59.358429 -13.078647
23.318812 57.74937 -12.61714
22.471363 58.756223 -14.119819
22.909247 58.304474 -13.41874
24.245855 55.063604 -10.701424
24.126991 56.701861 -11.055311
24.524857 56.128319 -10.299926
24.748841 52.856527 -9.658991
24.971296 54.099703 -9.233186
25.076416 52.466167 -8.94614
24.344958 53.4431 -10.316813
24.748841 52.856527 -9.658991
24.245855 55.063604 -10.701424
24.344958 53.4431 -10.316813
26.019663 54.133719 -3.266911
26.134709 53.407022 -2.448948
5.970591 90.360996 -35.677214
6.700314 90.747315 -34.598547
7.106461 89.504254 -35.093575
5.970591 90.360996 -35.677214
5.177914 89.937893 -36.775553
5.456228 79.945149 -40.440372
5.248904 81.46455 -40.288706
6.313437 80.611321 -39.545817
4.68146 79.238617 -41.253076
5.456228 79.945149 -40.440372
5.745993 78.385388 -40.510187
3.949204 78.273842 -42.028715
4.68146 79.238617 -41.253076
4.303967 76.647862 -42.040684
3.281947 77.242847 -42.746507
3.949204 78.273842 -42.028715
4.813941 73.222363 -42.101087
3.876604 73.938969 -42.802471
4.574047 74.900261 -42.057092
5.753371 72.543503 -41.313659
6.42059 73.419937 -40.534759
6.662577 71.779785 -40.49271
5.055928 71.582211 -42.059038
4.813941 73.222363 -42.101087
5.753371 72.543503 -41.313659
8.121008 68.588795 -39.004951
8.097055 70.092087 -39.002327
8.778944 69.372578 -38.169404
8.853786 66.230408 -38.150152
9.377267 66.894241 -37.328369
9.428156 65.255364 -37.306494
8.245236 67.020508 -38.960217
8.853786 66.230408 -38.150152
8.296125 65.38163 -38.938341
8.121008 68.588795 -39.004951
8.245236 67.020508 -38.960217
3 0 130 132
3 132 131 31
3 130 131 132
3 133 33 134
3 135 34 136
3 137 136 33
3 135 136 137
3 1 138 140
3 138 36 139
3 138 139 140
3 2 40 38
3 4 43 41
3 141 45 142
3 143 47 144
3 145 144 45
3 143 144 145
3 146 49 147
3 4 52 50
3 4 41 52
3 5 56 54
3 149 148 57
3 6 60 58
3 6 61 60
3 3 64 62
3 7 67 65
3 7 69 67
3 7 71 69
3 8 150 152
3 152 151 72
3 150 151 152
3 9 78 76
3 153 79 154
3 155 154 32
3 153 154 155
3 157 156 79
3 11 158 159
3 11 160 161
3 11 162 163
3 13 80 35
3 13 81 80
3 164 84 165
3 166 165 82
3 164 165 166
3 167 85 168
3 169 168 37
3 167 168 169
3 170 86 171
3 172 171 85
3 170 171 172
3 173 88 174
3 175 174 86
3 173 174 175
3 16 91 89
3 18 92 39
3 18 93 92
3 176 94 177
3 178 177 73
3 176 177 178
3 19 179 181
3 179 95 180
3 179 180 181
3 19 96 95
3 19 182 184
3 184 183 96
3 182 183 184
3 20 185 187
3 185 97 186
3 185 186 187
3 22 98 42
3 22 99 98
3 188 100 189
3 190 189 74
3 188 189 190
3 23 101 44
3 23 102 101
3 23 103 102
3 24 104 46
3 24 105 104
3 191 106 192
3 193 107 194
3 195 194 106
3 193 194 195
3 197 196 107
3 198 108 199
3 200 109 201
3 202 201 108
3 200 201 202
3 25 110 48
3 25 111 110
3 203 112 204
3 205 204 75
3 203 204 205
3 26 113 51
3 26 114 113
3 26 115 114
3 20 116 53
3 20 206 208
3 208 207 116
3 206 207 208
3 21 209 211
3 209 117 210
3 209 210 211
3 213 212 55
3 10 118 77
3 12 214 215
3 217 216 59
3 27 218 219
3 27 220 221
3 17 119 90
3 28 120 63
3 28 121 120
3 14 122 83
3 29 123 66
3 29 124 123
3 29 125 124
3 30 126 68
3 30 127 126
3 30 128 127
3 223 222 70
3 15 129 87
3 225 224 8
3 31 32 9
3 226 32 227
3 228 227 31
3 226 227 228
3 230 229 32
3 33 231 232
3 33 233 235
3 233 11 234
3 233 234 235
3 33 236 238
3 238 237 11
3 236 237 238
3 34 239 241
3 241 240 33
3 239 240 241
3 34 242 243
3 244 35 245
3 36 246 248
3 246 35 247
3 246 247 248
3 36 13 35
3 249 37 250
3 251 37 252
3 254 253 37
3 38 39 16
3 40 39 38
3 40 18 39
3 255 19 256
3 258 257 19
3 41 42 20
3 43 42 41
3 43 22 42
3 259 44 260
3 45 261 263
3 261 44 262
3 261 262 263
3 45 23 44
3 45 46 23
3 47 46 45
3 47 24 46
3 264 48 265
3 49 266 268
3 266 48 267
3 266 267 268
3 49 25 48
3 50 269 271
3 269 51 270
3 269 270 271
3 52 51 50
3 52 26 51
3 52 53 26
3 41 53 52
3 41 20 53
3 54 55 21
3 56 55 54
3 56 272 274
3 274 273 55
3 272 273 274
3 57 275 277
3 277 276 10
3 275 276 277
3 279 278 57
3 58 59 12
3 60 59 58
3 60 280 282
3 282 281 59
3 280 281 282
3 60 283 284
3 61 285 287
3 287 286 60
3 285 286 287
3 61 288 290
3 288 27 289
3 288 289 290
3 62 63 17
3 64 63 62
3 64 28 63
3 65 66 14
3 67 66 65
3 67 29 66
3 67 68 29
3 69 68 67
3 69 30 68
3 69 70 30
3 71 70 69
3 71 291 293
3 293 292 70
3 291 292 293
3 296 295 15
3 294 295 296
3 72 73 2
3 297 73 298
3 299 298 72
3 297 298 299
3 301 300 73
3 303 302 8
3 304 74 305
3 306 305 4
3 304 305 306
3 307 74 308
3 310 309 74
3 311 75 312
3 313 75 314
3 316 315 75
3 317 50 318
3 319 50 320
3 321 4 322
3 323 322 50
3 321 322 323
3 76 77 5
3 78 77 76
3 78 10 77
3 32 78 9
3 79 78 32
3 79 10 78
3 79 57 10
3 324 57 325
3 326 325 79
3 324 325 326
3 328 327 57
3 330 329 11
3 331 12 332
3 35 333 334
3 80 335 337
3 337 336 35
3 335 336 337
3 80 338 340
3 338 12 339
3 338 339 340
3 80 58 12
3 81 58 80
3 81 6 58
3 82 83 3
3 84 83 82
3 84 14 83
3 37 341 343
3 341 84 342
3 341 342 343
3 85 84 37
3 85 14 84
3 85 65 14
3 86 65 85
3 86 7 65
3 86 87 7
3 88 87 86
3 88 15 87
3 344 88 345
3 346 88 347
3 348 15 349
3 350 349 88
3 348 349 350
3 352 351 15
3 354 353 0
3 89 90 1
3 91 90 89
3 91 17 90
3 39 91 16
3 92 91 39
3 92 17 91
3 92 62 17
3 93 62 92
3 93 3 62
3 73 40 2
3 94 40 73
3 94 18 40
3 355 94 356
3 95 357 359
3 357 94 358
3 357 358 359
3 95 18 94
3 95 93 18
3 96 93 95
3 96 3 93
3 96 82 3
3 360 82 361
3 362 361 96
3 360 361 362
3 364 363 82
3 366 365 19
3 97 367 368
3 97 369 371
3 369 21 370
3 369 370 371
3 42 97 20
3 98 97 42
3 98 21 97
3 98 54 21
3 99 54 98
3 99 5 54
3 74 43 4
3 100 43 74
3 100 22 43
3 44 372 374
3 372 100 373
3 372 373 374
3 101 100 44
3 101 22 100
3 101 99 22
3 102 99 101
3 102 5 99
3 102 76 5
3 103 76 102
3 103 9 76
3 46 103 23
3 104 103 46
3 104 9 103
3 104 31 9
3 105 31 104
3 105 0 31
3 375 47 376
3 377 47 378
3 379 24 380
3 381 380 47
3 379 380 381
3 106 382 383
3 106 384 386
3 384 24 385
3 384 385 386
3 106 105 24
3 107 105 106
3 107 0 105
3 107 387 389
3 389 388 0
3 387 388 389
3 391 390 107
3 392 1 393
3 108 394 395
3 108 396 398
3 396 1 397
3 396 397 398
3 108 89 1
3 109 89 108
3 109 16 89
3 48 399 401
3 399 109 400
3 399 400 401
3 110 109 48
3 110 16 109
3 110 38 16
3 111 38 110
3 111 2 38
3 75 402 404
3 402 49 403
3 402 403 404
3 112 49 75
3 112 25 49
3 51 405 407
3 405 112 406
3 405 406 407
3 113 112 51
3 113 25 112
3 113 111 25
3 114 111 113
3 114 2 111
3 114 72 2
3 115 72 114
3 115 8 72
3 53 115 26
3 116 115 53
3 116 8 115
3 116 408 410
3 410 409 8
3 408 409 410
3 412 411 116
3 117 413 414
3 117 415 416
3 55 117 21
3 417 117 418
3 419 418 55
3 417 418 419
3 421 420 117
3 77 56 5
3 118 56 77
3 118 422 424
3 424 423 56
3 422 423 424
3 425 118 426
3 427 426 10
3 425 426 427
3 428 118 429
3 431 430 118
3 433 432 0
3 59 434 436
3 436 435 12
3 434 435 436
3 438 437 59
3 90 36 1
3 119 36 90
3 119 13 36
3 63 119 17
3 120 119 63
3 120 13 119
3 120 81 13
3 121 81 120
3 121 6 81
3 83 64 3
3 122 64 83
3 122 28 64
3 66 122 14
3 123 122 66
3 123 28 122
3 123 121 28
3 124 121 123
3 124 6 121
3 124 61 6
3 125 61 124
3 125 27 61
3 68 125 29
3 126 125 68
3 126 27 125
3 126 439 441
3 441 440 27
3 439 440 441
3 127 442 444
3 444 443 126
3 442 443 444
3 127 445 446
3 127 447 449
3 447 34 448
3 447 448 449
3 128 34 127
3 128 450 452
3 452 451 34
3 450 451 452
3 70 128 30
3 453 128 454
3 455 454 70
3 453 454 455
3 458 457 128
3 456 457 458
3 87 71 7
3 129 71 87
3 129 459 461
3 461 460 71
3 459 460 461
3 462 129 463
3 464 463 15
3 462 463 464
3 465 129 466
3 465 466 467
3 469 468 129
