ply
format ascii 1.0
element vertex 235
property float x
property float y
property float z
element face 198
property list uchar int vertex_index
end_header
23.752235 23.350485 -38.523067
19.173136 20.260698 -28.658756
25.133251 15.203015 -30.633701
22.353867 27.379463 -42.285053
22.196037 13.67132 -25.934597
25.190578 11.195137 -26.316114
21.553907 21.4835 -33.383591
19.41856 16.504137 -25.31613
21.974676 17.406845 -29.618822
24.695646 19.155222 -34.581291
27.11717 21.120329 -39.650032
23.159948 25.330137 -40.40004
24.792486 24.195648 -41.06308
17.874529 21.921776 -28.00028
17.591269 24.055183 -29.463293
16.286312 31.093664 -33.973938
17.041096 31.268528 -36.581345
23.640038 14.344808 -28.217287
22.097754 15.480796 -27.749407
23.489656 16.203379 -30.049482
23.444567 18.113663 -32.052517
24.927778 17.060698 -32.470375
27.570478 19.007421 -37.418026
28.060644 22.197983 -42.322823
18.066757 19.874098 -26.443823
23.618986 12.468911 -26.167717
25.122061 13.186759 -28.426937
16.838945 28.616817 -32.469662
17.184593 26.491869 -31.005571
22.698002 22.433542 -36.001812
19.295418 18.317987 -26.954556
20.789867 15.005111 -25.654247
20.659441 16.802553 -27.355831
20.503557 18.676767 -29.04557
21.793085 19.39608 -31.466534
23.047857 20.258156 -33.946384
24.226883 21.341768 -36.61134
26.71191 13.946425 -30.733755
26.560402 16.035738 -32.92276
26.268265 18.065527 -34.958107
25.893593 20.148279 -37.048664
25.44245 22.292202 -39.251328
26.443382 23.292225 -41.902256
23.456091 24.340311 -39.461553
22.643933 24.903781 -39.054911
22.940076 23.913955 -38.116424
19.06441 21.256352 -29.450389
18.415106 22.086891 -29.121151
18.523832 21.091237 -28.329518
19.76826 20.528742 -29.823763
19.06441 21.256352 -29.450389
17.315429 30.168222 -35.767003
16.663704 31.181096 -35.277642
16.938037 30.08079 -34.463299
17.636314 19.73581 -25.521845
17.506482 20.727895 -26.158988
21.497491 28.036335 -41.779197
21.938071 26.959287 -40.914978
21.863234 28.365181 -43.143833
21.497491 28.036335 -41.779197
22.722681 27.823379 -43.753526
21.863234 28.365181 -43.143833
24.404782 11.832024 -26.241915
23.6541 11.540717 -25.178421
24.439895 10.90383 -25.25262
16.437912 28.513217 -31.260099
16.245155 29.727792 -32.014326
17.834818 25.526682 -31.366909
17.387931 25.273526 -30.234432
18.038156 24.308339 -30.59577
17.663049 26.607765 -32.189988
17.834818 25.526682 -31.366909
21.317118 22.552551 -34.240021
20.752774 22.196942 -32.964044
22.125954 21.958521 -34.692701
21.889165 23.027572 -35.549132
21.317118 22.552551 -34.240021
18.820094 17.239036 -25.103678
18.877578 16.423353 -24.367578
19.356989 17.411062 -26.135343
18.758523 18.145961 -25.922891
18.820094 17.239036 -25.103678
21.492952 14.338216 -25.794422
20.819277 14.169242 -24.784309
21.522362 13.502347 -24.924484
27.497092 13.400429 -30.837859
26.723416 12.935465 -29.63187
27.212789 16.493936 -34.075763
27.378661 15.454152 -33.028158
27.06672 17.508831 -35.093437
26.414333 17.050632 -33.940433
27.212789 16.493936 -34.075763
27.682272 23.197492 -43.417881
28.526163 22.618601 -43.656971
22.341112 25.934624 -39.972471
22.643933 24.903781 -39.054911
22.756908 26.3548 -41.342546
21.938071 26.959287 -40.914978
22.341112 25.934624 -39.972471
23.564869 25.805349 -41.755667
23.161828 26.830012 -42.698173
22.756908 26.3548 -41.342546
24.381138 25.238104 -42.087187
23.564869 25.805349 -41.755667
23.976217 24.762892 -40.73156
25.210622 24.730269 -42.484112
24.381138 25.238104 -42.087187
25.193095 10.258926 -25.287364
24.439895 10.90383 -25.25262
17.732899 22.98848 -28.731786
17.144936 23.892039 -28.358018
17.286566 22.825336 -27.626511
18.273476 23.153594 -29.852657
17.732899 22.98848 -28.731786
18.415106 22.086891 -29.121151
18.038156 24.308339 -30.59577
18.273476 23.153594 -29.852657
20.958645 21.140144 -32.186181
20.752774 22.196942 -32.964044
16.002672 32.285376 -34.776457
15.727292 32.213515 -33.5065
16.380064 32.372808 -36.08016
16.002672 32.285376 -34.776457
16.663704 31.181096 -35.277642
16.698608 32.347564 -37.328812
16.380064 32.372808 -36.08016
19.481804 15.679869 -24.536703
18.877578 16.423353 -24.367578
28.362954 18.47429 -37.577122
27.717827 17.979778 -36.323397
28.109985 19.528495 -38.683234
28.362954 18.47429 -37.577122
27.883331 20.584949 -39.799237
27.343824 20.063875 -38.534029
28.109985 19.528495 -38.683234
28.355068 21.123776 -41.135632
27.588907 21.659156 -40.986428
27.883331 20.584949 -39.799237
28.870903 21.605933 -42.478044
28.355068 21.123776 -41.135632
28.526163 22.618601 -43.656971
28.870903 21.605933 -42.478044
17.410368 21.751734 -26.937216
17.286566 22.825336 -27.626511
17.970643 20.897937 -27.222051
17.410368 21.751734 -26.937216
17.506482 20.727895 -26.158988
22.722681 27.823379 -43.753526
23.161828 26.830012 -42.698173
22.19218 12.758154 -24.924665
21.522362 13.502347 -24.924484
22.903655 12.15695 -25.041225
23.6541 11.540717 -25.178421
22.907511 13.070115 -26.051157
22.19218 12.758154 -24.924665
22.903655 12.15695 -25.041225
15.968839 30.966215 -32.766464
15.727292 32.213515 -33.5065
16.562628 29.855241 -33.2218
15.968839 30.966215 -32.766464
16.245155 29.727792 -32.014326
17.214354 28.842367 -33.711161
16.938037 30.08079 -34.463299
16.562628 29.855241 -33.2218
17.014648 25.011962 -29.078736
17.144936 23.892039 -28.358018
16.81131 26.230306 -29.849874
17.014648 25.011962 -29.078736
17.387931 25.273526 -30.234432
16.610737 27.450744 -30.528054
16.81131 26.230306 -29.849874
17.011769 27.554343 -31.737617
16.437912 28.513217 -31.260099
16.610737 27.450744 -30.528054
17.490226 27.670238 -32.922033
17.011769 27.554343 -31.737617
17.663049 26.607765 -32.189988
17.214354 28.842367 -33.711161
17.490226 27.670238 -32.922033
22.41296 23.455483 -36.855797
21.889165 23.027572 -35.549132
23.225119 22.892013 -37.262439
22.940076 23.913955 -38.116424
22.41296 23.455483 -36.855797
17.738269 30.386204 -37.122293
17.315429 30.168222 -35.767003
17.356939 31.516718 -37.986258
17.738269 30.386204 -37.122293
16.698608 32.347564 -37.328812
17.356939 31.516718 -37.986258
18.144192 18.924017 -25.667524
17.636314 19.73581 -25.521845
18.681088 19.096042 -26.699189
18.144192 18.924017 -25.667524
18.758523 18.145961 -25.922891
20.167458 14.930356 -24.705761
20.819277 14.169242 -24.784309
20.104214 15.754624 -25.485188
19.481804 15.679869 -24.536703
20.167458 14.930356 -24.705761
20.43347 19.736777 -30.01717
19.76826 20.528742 -29.823763
19.838347 19.468733 -28.852163
21.078235 20.096433 -31.227652
20.43347 19.736777 -30.01717
21.148321 19.036424 -30.256052
21.673496 20.43979 -32.425063
20.958645 21.140144 -32.186181
21.078235 20.096433 -31.227652
26.038525 10.622128 -26.467883
25.193095 10.258926 -25.287364
25.96275 11.559821 -27.423049
26.038525 10.622128 -26.467883
25.928491 12.555632 -28.47846
25.156319 12.190948 -27.371525
25.96275 11.559821 -27.423049
25.916985 13.566592 -29.580346
25.928491 12.555632 -28.47846
26.723416 12.935465 -29.63187
27.454415 14.409496 -31.933656
27.497092 13.400429 -30.837859
26.636156 14.991081 -31.828257
27.454415 14.409496 -31.933656
27.378661 15.454152 -33.028158
26.919372 18.536474 -36.188066
27.06672 17.508831 -35.093437
27.717827 17.979778 -36.323397
26.036069 24.278558 -42.9037
25.210622 24.730269 -42.484112
25.617934 23.743936 -41.482668
26.873641 23.744613 -43.207598
27.252013 22.745104 -42.112539
27.682272 23.197492 -43.417881
26.036069 24.278558 -42.9037
26.873641 23.744613 -43.207598
3 0 43 45
3 43 11 44
3 43 44 45
3 0 12 11
3 1 46 48
3 48 47 13
3 46 47 48
3 1 49 50
3 51 16 52
3 53 52 15
3 51 52 53
3 2 19 17
3 2 21 19
3 54 24 55
3 3 56 57
3 3 58 59
3 3 60 61
3 5 62 64
3 62 25 63
3 62 63 64
3 5 26 25
3 65 27 66
3 67 28 68
3 69 68 14
3 67 68 69
3 71 70 28
3 6 72 73
3 6 74 76
3 74 29 75
3 74 75 76
3 7 77 78
3 7 79 81
3 79 30 80
3 79 80 81
3 4 82 84
3 82 31 83
3 82 83 84
3 8 32 18
3 8 33 32
3 8 34 33
3 9 35 20
3 9 36 35
3 85 37 86
3 87 38 88
3 89 39 90
3 91 90 38
3 89 90 91
3 10 40 22
3 10 41 40
3 10 42 41
3 93 92 23
3 11 94 95
3 11 96 98
3 96 3 97
3 96 97 98
3 11 99 101
3 101 100 3
3 99 100 101
3 12 102 104
3 104 103 11
3 102 103 104
3 12 105 106
3 107 5 108
3 13 109 111
3 109 14 110
3 109 110 111
3 112 14 113
3 114 113 13
3 112 113 114
3 116 115 14
3 117 6 118
3 15 119 120
3 16 121 123
3 123 122 15
3 121 122 123
3 16 124 125
3 126 7 127
3 17 18 4
3 19 18 17
3 19 8 18
3 19 20 8
3 21 20 19
3 21 9 20
3 128 22 129
3 130 22 131
3 132 10 133
3 134 133 22
3 132 133 134
3 135 23 136
3 137 136 10
3 135 136 137
3 138 23 139
3 141 140 23
3 142 13 143
3 24 144 146
3 144 13 145
3 144 145 146
3 24 1 13
3 148 147 3
3 149 4 150
3 25 151 152
3 25 153 155
3 153 4 154
3 153 154 155
3 25 17 4
3 26 17 25
3 26 2 17
3 156 15 157
3 27 158 160
3 158 15 159
3 158 159 160
3 27 161 163
3 163 162 15
3 161 162 163
3 14 164 165
3 28 166 168
3 168 167 14
3 166 167 168
3 28 169 170
3 28 171 173
3 171 27 172
3 171 172 173
3 174 27 175
3 176 175 28
3 174 175 176
3 178 177 27
3 29 179 180
3 29 181 183
3 181 0 182
3 181 182 183
3 184 16 185
3 186 16 187
3 189 188 16
3 190 24 191
3 30 192 194
3 192 24 193
3 192 193 194
3 30 1 24
3 31 195 196
3 31 197 199
3 197 7 198
3 197 198 199
3 18 31 4
3 32 31 18
3 32 7 31
3 32 30 7
3 33 30 32
3 33 1 30
3 33 200 202
3 202 201 1
3 200 201 202
3 34 203 205
3 205 204 33
3 203 204 205
3 34 206 208
3 206 6 207
3 206 207 208
3 20 34 8
3 35 34 20
3 35 6 34
3 35 29 6
3 36 29 35
3 36 0 29
3 209 5 210
3 211 5 212
3 213 26 214
3 215 214 5
3 213 214 215
3 37 216 218
3 216 26 217
3 216 217 218
3 37 2 26
3 219 37 220
3 38 221 223
3 221 37 222
3 221 222 223
3 38 2 37
3 38 21 2
3 39 21 38
3 39 9 21
3 22 224 226
3 224 39 225
3 224 225 226
3 40 39 22
3 40 9 39
3 40 36 9
3 41 36 40
3 41 0 36
3 41 12 0
3 42 12 41
3 42 227 229
3 229 228 12
3 227 228 229
3 23 42 10
3 230 42 231
3 232 231 23
3 230 231 232
3 234 233 42
