ply
format ascii 1.0
element vertex 71
property float x
property float y
property float z
element face 46
property list uchar int vertex_index
end_header
12.710616 40.868866 -44.33905
6.429564 42.011696 -53.356174
8.03511 41.830597 -52.555729
11.314211 41.552402 -48.12801
9.949978 42.393517 -49.420147
11.587182 42.231335 -45.594341
12.686348 40.303417 -46.844608
11.203851 41.141157 -49.336168
11.955976 40.643528 -48.749276
12.200536 41.950397 -43.734572
12.69508 41.182054 -43.027889
12.148899 41.5501 -44.966696
11.638819 42.631632 -44.362217
12.200536 41.950397 -43.734572
9.207217 42.769776 -49.924606
9.787394 41.862631 -50.566921
6.701793 42.785187 -52.369388
7.504566 42.694637 -51.969166
7.232337 41.921146 -52.955951
5.917558 42.920267 -52.749519
6.701793 42.785187 -52.369388
5.649405 42.018757 -53.635131
5.917558 42.920267 -52.749519
13.243272 40.082668 -43.583154
12.69508 41.182054 -43.027889
13.284273 39.926391 -44.886288
13.243272 40.082668 -43.583154
8.622943 41.052 -53.23024
8.82996 41.581171 -52.134712
7.809552 41.144979 -53.59382
8.622943 41.052 -53.23024
7.006779 41.235529 -53.994043
7.232337 41.921146 -52.955951
7.809552 41.144979 -53.59382
6.168126 41.248734 -54.244482
7.006779 41.235529 -53.994043
10.632095 41.97296 -48.774079
10.114444 42.902388 -48.213215
10.79656 42.481831 -47.567147
10.521735 41.561715 -49.982237
10.632095 41.97296 -48.774079
11.203851 41.141157 -49.336168
9.787394 41.862631 -50.566921
10.521735 41.561715 -49.982237
11.087911 43.285094 -45.10738
11.638819 42.631632 -44.362217
10.933046 42.821297 -46.300312
11.087911 43.285094 -45.10738
11.450696 41.891869 -46.861176
10.79656 42.481831 -47.567147
10.933046 42.821297 -46.300312
12.642044 40.019035 -48.107574
11.955976 40.643528 -48.749276
12.00028 40.927909 -47.486309
13.272139 39.643667 -46.139066
12.698482 40.586141 -45.591829
13.284273 39.926391 -44.886288
13.298686 39.463619 -47.436844
13.272139 39.643667 -46.139066
12.642044 40.019035 -48.107574
13.298686 39.463619 -47.436844
9.45019 43.39629 -48.77966
10.114444 42.902388 -48.213215
9.45019 43.39629 -48.77966
9.207217 42.769776 -49.924606
8.249783 42.488315 -51.492397
8.82996 41.581171 -52.134712
8.249783 42.488315 -51.492397
7.504566 42.694637 -51.969166
5.649405 42.018757 -53.635131
6.168126 41.248734 -54.244482
3 8 7 3
3 0 9 10
3 0 11 13
3 11 5 12
3 11 12 13
3 0 6 5
3 15 14 4
3 1 16 18
3 18 17 2
3 16 17 18
3 1 19 20
3 1 21 22
3 23 0 24
3 26 25 0
3 27 2 28
3 29 2 30
3 31 1 32
3 33 32 2
3 31 32 33
3 35 34 1
3 3 36 38
3 36 4 37
3 36 37 38
3 39 4 40
3 41 40 3
3 39 40 41
3 43 42 4
3 5 44 45
3 5 46 47
3 5 48 50
3 48 3 49
3 48 49 50
3 6 3 5
3 6 51 53
3 53 52 3
3 51 52 53
3 54 6 55
3 56 55 0
3 54 55 56
3 57 6 58
3 60 59 6
3 4 61 62
3 64 63 4
3 2 65 66
3 68 67 2
3 70 69 1
