ply
format ascii 1.0
element vertex 134
property float x
property float y
property float z
element face 108
property list uchar int vertex_index
end_header
-13.316051 36.363949 -35.584911
-16.212175 22.463911 -23.036602
-16.180943 25.545992 -27.059589
-18.595924 23.715982 -31.446669
-16.009592 28.638962 -31.392138
-13.849681 33.982151 -31.40609
-14.432503 33.811165 -35.726913
-14.087134 34.980064 -37.828056
-16.102434 27.15029 -29.202421
-14.987549 29.965441 -29.308411
-14.826483 31.343603 -31.318218
-13.973822 32.790565 -29.121758
-17.295561 21.22258 -24.884769
-17.382967 22.796227 -27.066935
-16.221636 23.984699 -25.035986
-12.942736 37.409317 -37.630112
-17.315573 24.415728 -29.045631
-17.225269 26.036341 -31.201534
-17.097431 27.643225 -33.543755
-15.891695 29.970045 -33.542442
-14.70295 32.543152 -33.55238
-13.624011 35.2132 -33.606567
-14.571269 30.680327 -28.253683
-15.064255 29.170704 -28.253113
-14.064405 32.092889 -28.160356
-14.480685 31.378003 -29.215084
-14.571269 30.680327 -28.253683
-16.719313 21.018609 -22.913642
-16.18964 21.733021 -22.057691
-16.753868 21.843246 -23.960685
-17.261005 20.397944 -23.837725
-16.719313 21.018609 -22.913642
-13.250082 36.807459 -38.754465
-12.665375 37.972347 -38.653816
-19.271221 23.408771 -32.559329
-19.294536 22.54277 -31.382779
-18.548654 24.543526 -32.604384
-19.271221 23.408771 -32.559329
-14.851511 33.286652 -36.859497
-15.004114 32.641722 -35.707414
-14.678826 33.871101 -37.910068
-14.851511 33.286652 -36.859497
-14.259819 34.395615 -36.777484
-14.448652 34.511145 -39.047973
-14.678826 33.871101 -37.910068
-15.738799 23.271712 -22.126867
-16.18964 21.733021 -22.057691
-15.730337 23.938937 -23.054485
-15.738799 23.271712 -22.126867
-18.621789 22.839953 -30.313271
-19.294536 22.54277 -31.382779
-15.621697 27.763129 -28.200118
-16.141689 26.348141 -28.131005
-15.660952 26.96098 -27.128702
-15.544991 28.557865 -29.255416
-15.621697 27.763129 -28.200118
-15.064255 29.170704 -28.253113
-17.881676 19.910924 -24.840611
-17.261005 20.397944 -23.837725
-17.960276 20.738444 -25.952107
-17.881676 19.910924 -24.840611
-17.339264 22.009403 -25.975852
-18.003979 21.525268 -27.04319
-17.960276 20.738444 -25.952107
-15.735068 24.699331 -24.054177
-16.216905 23.224305 -24.036294
-15.730337 23.938937 -23.054485
-15.696279 25.473228 -25.035918
-15.735068 24.699331 -24.054177
-15.675932 26.253874 -26.047719
-16.20129 24.765345 -26.047787
-15.696279 25.473228 -25.035918
-15.660952 26.96098 -27.128702
-15.675932 26.253874 -26.047719
-12.630168 38.200914 -36.634823
-13.129393 36.886633 -36.607512
-12.816826 37.67823 -35.612223
-12.421625 38.682722 -37.579023
-12.630168 38.200914 -36.634823
-12.665375 37.972347 -38.653816
-12.421625 38.682722 -37.579023
-13.822281 35.592833 -38.853437
-13.514935 36.194691 -37.729084
-13.250082 36.807459 -38.754465
-14.448652 34.511145 -39.047973
-13.822281 35.592833 -38.853437
-18.015311 22.380075 -28.123404
-18.003979 21.525268 -27.04319
-17.981614 23.189826 -29.112752
-18.015311 22.380075 -28.123404
-17.34927 23.605978 -28.056283
-17.955748 24.065855 -30.24615
-18.621789 22.839953 -30.313271
-17.981614 23.189826 -29.112752
-17.863327 25.703705 -32.481817
-18.548654 24.543526 -32.604384
-17.910597 24.876162 -31.324101
-17.799408 26.507147 -33.652927
-17.863327 25.703705 -32.481817
-17.16135 26.839783 -32.372644
-17.707678 27.293663 -34.790691
-17.799408 26.507147 -33.652927
-16.982905 28.427796 -34.71986
-17.707678 27.293663 -34.790691
-16.380036 29.591206 -34.719204
-16.982905 28.427796 -34.71986
-16.494563 28.806635 -33.543098
-15.73371 30.721162 -34.615179
-16.380036 29.591206 -34.719204
-15.139337 32.007716 -34.620148
-15.73371 30.721162 -34.615179
-15.297322 31.256598 -33.547411
-14.567726 33.177159 -34.639646
-15.004114 32.641722 -35.707414
-15.139337 32.007716 -34.620148
-13.635108 33.670786 -28.223802
-14.064405 32.092889 -28.160356
-13.562057 34.217911 -29.230691
-13.635108 33.670786 -28.223802
-13.499986 34.813704 -30.372857
-13.911752 33.386358 -30.263924
-13.562057 34.217911 -29.230691
-13.385877 35.418171 -31.394534
-13.499986 34.813704 -30.372857
-13.273041 36.033696 -32.494772
-13.736846 34.597676 -32.506328
-13.385877 35.418171 -31.394534
-13.162876 36.516959 -33.585342
-13.273041 36.033696 -32.494772
-13.008896 37.092333 -34.574514
-13.470031 35.788574 -34.595739
-13.162876 36.516959 -33.585342
-12.816826 37.67823 -35.612223
-13.008896 37.092333 -34.574514
3 0 7 6
3 22 9 23
3 24 11 25
3 26 25 9
3 24 25 26
3 1 27 28
3 1 29 31
3 29 12 30
3 29 30 31
3 1 14 12
3 33 32 15
3 3 34 35
3 3 36 37
3 2 16 13
3 4 17 8
3 4 18 17
3 4 19 18
3 5 20 10
3 5 21 20
3 6 38 39
3 7 40 42
3 42 41 6
3 40 41 42
3 7 43 44
3 45 1 46
3 48 47 1
3 49 3 50
3 51 8 52
3 53 52 2
3 51 52 53
3 9 54 56
3 54 8 55
3 54 55 56
3 9 4 8
3 9 10 4
3 11 10 9
3 11 5 10
3 12 57 58
3 12 59 60
3 12 61 63
3 61 13 62
3 61 62 63
3 14 13 12
3 14 2 13
3 64 14 65
3 66 65 1
3 64 65 66
3 67 14 68
3 69 2 70
3 71 70 14
3 69 70 71
3 73 72 2
3 74 15 75
3 76 75 0
3 74 75 76
3 77 15 78
3 80 79 15
3 15 7 0
3 81 7 82
3 83 82 15
3 81 82 83
3 85 84 7
3 13 86 87
3 16 88 90
3 90 89 13
3 88 89 90
3 16 91 93
3 91 3 92
3 91 92 93
3 8 16 2
3 17 16 8
3 17 3 16
3 17 94 96
3 96 95 3
3 94 95 96
3 18 97 99
3 99 98 17
3 97 98 99
3 18 100 101
3 18 102 103
3 19 104 106
3 106 105 18
3 104 105 106
3 19 107 108
3 10 19 4
3 20 19 10
3 20 109 111
3 111 110 19
3 109 110 111
3 20 112 114
3 112 6 113
3 112 113 114
3 21 6 20
3 21 0 6
3 115 11 116
3 117 11 118
3 119 5 120
3 121 120 11
3 119 120 121
3 122 5 123
3 124 21 125
3 126 125 5
3 124 125 126
3 127 21 128
3 129 0 130
3 131 130 21
3 129 130 131
3 133 132 0
