ply
format ascii 1.0
element vertex 92
property float x
property float y
property float z
element face 71
property list uchar int vertex_index
end_header
5.280593 104.559265 -17.699146
-0.068096 101.372604 -17.994732
-1.883642 99.942245 -23.337965
3.362089 103.244049 -23.393318
6.984588 104.742287 -11.446501
2.521458 103.016357 -17.794071
1.767259 102.569687 -20.613472
4.430274 104.092789 -20.553782
-2.57043 99.612152 -18.156494
3.573378 103.404945 -14.928534
-0.999856 100.756645 -20.881685
0.710434 101.670441 -23.426765
6.078831 104.741547 -14.575558
6.138704 104.962349 -19.031662
5.713545 104.729111 -20.45898
4.855434 104.326027 -19.126464
2.738113 102.67617 -13.583605
2.257786 102.589932 -14.953636
-2.360494 99.369228 -24.571835
-3.255822 98.914119 -23.258021
-1.087052 100.256256 -24.627922
-2.360494 99.369228 -24.571835
2.899955 102.729816 -24.743053
1.574128 101.943013 -24.759776
2.036262 102.457245 -23.410041
4.341781 103.479317 -24.804972
3.879647 102.965084 -26.154707
2.899955 102.729816 -24.743053
5.760281 104.119141 -11.675821
6.070254 103.960507 -10.167492
6.531709 104.741917 -13.011029
5.307403 104.118771 -13.240349
5.760281 104.119141 -11.675821
-2.753097 99.399265 -22.062745
-3.255822 98.914119 -23.258021
5.240248 104.363239 -21.93746
4.706155 103.93887 -23.357228
3.896181 103.668419 -21.97355
5.240248 104.363239 -21.93746
5.713545 104.729111 -20.45898
7.249897 104.539631 -9.897693
6.070254 103.960507 -10.167492
-3.408829 98.826367 -16.725963
-3.868447 98.594867 -18.047649
-4.706847 97.809082 -16.617118
-2.147635 99.791816 -16.745337
-3.408829 98.826367 -16.725963
-0.896469 100.672043 -16.664455
-1.319263 100.492378 -18.075613
-2.147635 99.791816 -16.745337
0.437049 101.573761 -16.486735
-0.896469 100.672043 -16.664455
1.731826 102.395637 -16.386404
1.226681 102.19448 -17.894402
0.437049 101.573761 -16.486735
3.047418 103.210651 -16.361303
1.731826 102.395637 -16.386404
2.257786 102.589932 -14.953636
-3.096491 99.234218 -19.472009
-3.868447 98.594867 -18.047649
-2.311205 99.806465 -20.834605
-3.096491 99.234218 -19.472009
-1.785143 100.184399 -19.519089
-1.441749 100.349445 -22.109825
-2.753097 99.399265 -22.062745
-2.311205 99.806465 -20.834605
0.209985 101.120354 -24.672322
-1.087052 100.256256 -24.627922
-0.586604 100.806343 -23.382365
0.209985 101.120354 -24.672322
1.574128 101.943013 -24.759776
4.341781 103.479317 -24.804972
4.706155 103.93887 -23.357228
4.054676 103.45047 -13.416837
2.738113 102.67617 -13.583605
4.826104 104.073246 -14.752046
4.054676 103.45047 -13.416837
5.307403 104.118771 -13.240349
8.191306 105.234662 -11.045084
7.249897 104.539631 -9.897693
7.836809 105.330967 -12.748216
8.191306 105.234662 -11.045084
7.38393 105.330597 -14.312745
6.531709 104.741917 -13.011029
7.836809 105.330967 -12.748216
6.987043 105.270714 -15.933922
7.38393 105.330597 -14.312745
6.587924 105.179573 -17.495716
5.679712 104.650406 -16.137352
6.987043 105.270714 -15.933922
6.138704 104.962349 -19.031662
6.587924 105.179573 -17.495716
3 0 7 5
3 0 13 15
3 15 14 7
3 13 14 15
3 16 9 17
3 2 18 19
3 2 20 21
3 1 10 8
3 3 11 6
3 3 22 24
3 24 23 11
3 22 23 24
3 3 25 27
3 25 26 27
3 4 28 29
3 4 30 32
3 30 12 31
3 30 31 32
3 33 2 34
3 5 6 1
3 7 6 5
3 7 3 6
3 7 35 37
3 37 36 3
3 35 36 37
3 39 38 7
3 40 4 41
3 42 8 43
3 42 43 44
3 45 8 46
3 47 1 48
3 49 48 8
3 47 48 49
3 50 1 51
3 52 5 53
3 54 53 1
3 52 53 54
3 9 55 57
3 55 5 56
3 55 56 57
3 9 0 5
3 8 58 59
3 10 60 62
3 62 61 8
3 60 61 62
3 10 63 65
3 63 2 64
3 63 64 65
3 6 10 1
3 11 10 6
3 11 2 10
3 11 66 68
3 68 67 2
3 66 67 68
3 70 69 11
3 72 71 3
3 73 9 74
3 12 75 77
3 75 9 76
3 75 76 77
3 12 0 9
3 78 4 79
3 80 4 81
3 82 12 83
3 84 83 4
3 82 83 84
3 85 12 86
3 87 0 88
3 89 88 12
3 87 88 89
3 91 90 0
