ply
format ascii 1.0
element vertex 386
property float x
property float y
property float z
element face 374
property list uchar int vertex_index
end_header
-1.288523 30.260149 53.570263
-8.335062 28.877369 58.583012
3.04009 20.13328 54.270176
-13.433854 39.844814 57.509979
-6.436675 41.475033 52.191711
5.774394 30.873129 49.107857
-16.931795 38.087936 60.11076
-14.395636 33.162357 60.736118
-4.901721 29.822056 55.980774
-7.291891 35.137589 55.417126
-3.874609 35.774654 52.950863
-2.765766 41.644817 49.801121
-0.18109 36.045143 50.63409
3.306156 36.336552 48.521873
2.217687 30.846048 51.288765
6.448107 20.350037 51.871113
10.467188 36.233299 43.619461
-11.882342 27.93932 61.191849
-9.597676 22.87059 61.555588
-2.58442 24.635038 56.45322
1.047362 25.134327 54.009514
-10.8845 34.24427 58.1679
-9.857556 40.758076 54.792248
6.910278 36.361706 46.260399
4.555984 25.392708 51.715321
8.021297 25.562544 49.286308
-16.170313 32.305695 61.960651
-14.962242 29.568768 62.347603
-3.086132 30.114107 54.721069
-4.251835 32.713245 54.424129
-2.529289 33.033375 53.230003
-2.017225 35.894512 51.769825
-0.761123 33.229218 52.100395
1.078981 33.390003 50.975025
0.466789 30.34971 52.497681
-11.338085 22.188787 62.82835
-4.281374 24.515156 57.579773
-3.184853 21.839407 57.799046
-1.431888 22.153894 56.563175
-15.220685 39.135334 58.83868
-10.060398 28.387495 59.889301
-11.337687 30.933027 59.746136
-9.551201 31.503063 58.368988
-6.761565 38.149467 53.821281
-8.584855 38.109184 55.056641
-8.098793 41.126495 53.445553
-9.362038 44.051788 53.021599
-7.580682 44.430119 51.655064
-5.837838 44.536915 50.461128
-1.043934 41.755119 48.73101
4.623231 33.583103 48.827213
5.138613 36.198353 47.478867
6.441901 33.436329 47.730656
8.144506 33.617252 46.481953
7.619519 30.915119 47.847588
2.065128 22.661921 54.162971
2.807128 25.189001 52.895023
3.854556 22.610937 53.01836
7.260913 22.968525 50.582298
9.779223 25.537964 47.961353
-15.658883 35.794029 60.402336
-13.85398 36.273052 59.218025
-6.611969 29.389111 57.256557
-7.764667 32.047943 56.971237
-5.966563 32.326618 55.6782
-5.540099 35.428322 54.149372
-5.065662 38.688053 52.495148
-4.54774 41.789856 50.841797
-3.283696 38.718636 51.365707
-1.529684 38.777988 50.287312
0.321558 38.994133 49.126522
1.54898 36.165264 49.599243
2.933554 33.510651 49.859951
4.009546 30.700018 50.275337
5.77906 17.715494 53.020485
-13.770254 27.152412 62.55513
-10.712584 25.261702 61.427563
-9.02074 25.924116 60.130661
-7.155228 26.620998 58.667923
-5.366582 26.935488 57.388741
-3.637489 27.419941 56.100063
-1.841409 27.432341 54.973907
-0.149673 27.532938 53.904953
-0.785509 24.855049 55.244301
0.240474 22.496778 55.379841
1.270827 20.009336 55.473175
2.105186 17.485886 55.624798
-18.21344 40.830875 59.522324
-13.221837 30.435745 61.081146
-12.568788 33.685429 59.460293
-12.134514 37.19138 57.790886
-9.09409 34.821823 56.749779
-10.376077 37.50079 56.513069
-11.606582 40.428768 56.10128
5.688412 39.152855 45.894855
8.754783 36.131393 45.028294
10.005816 33.583794 45.070351
11.206761 30.746857 45.125923
1.607832 27.885952 52.721222
3.321573 27.938553 51.662224
5.155605 28.205122 50.421669
5.51517 22.891148 51.826546
6.269057 25.389326 50.576469
6.963823 28.122286 49.244255
-15.332603 27.840613 63.108355
-15.898998 29.172261 62.915537
-3.586606 20.550931 58.480053
-4.034639 21.730933 58.385933
-2.713442 20.758507 57.841671
-3.586606 20.550931 58.480053
-14.090789 41.235643 57.310693
-14.984205 40.880903 57.975044
-14.327269 39.490074 58.174329
-13.17858 41.558628 56.619659
-14.090789 41.235643 57.310693
-0.827015 43.276871 47.933746
-0.142781 41.960422 48.123308
5.250181 16.463782 53.701832
4.828939 17.582853 53.721522
10.672679 37.544243 42.866867
9.837859 37.572981 43.551136
-6.580893 25.310386 58.773201
-7.472079 25.120729 59.413956
-5.68657 25.46763 58.13361
-6.260905 26.778243 58.028332
-6.580893 25.310386 58.773201
-0.124604 21.063525 56.062067
-0.595707 22.325336 55.971508
-0.960786 20.892083 56.653734
0.390572 19.819804 56.108734
0.755651 21.253057 55.426508
-0.124604 21.063525 56.062067
1.671155 16.249818 56.244684
1.24339 17.392212 56.231659
2.506267 16.254044 55.665764
1.671155 16.249818 56.244684
-17.572617 39.459406 59.816542
-18.454685 39.05657 60.311989
-17.813862 37.685101 60.606207
-10.483201 42.2661 54.557318
-11.357715 42.101446 55.211834
-10.732069 40.593422 55.446764
-10.090069 45.663019 52.792281
-9.149634 45.681356 52.149233
-3.464054 43.207178 49.546948
-4.355041 43.279697 50.067285
-3.656753 41.717337 50.321459
3.609812 37.670569 47.789142
2.688296 37.695211 48.314379
7.210432 37.681272 45.491575
6.599499 39.076847 45.308803
6.299345 37.757281 46.077627
7.83253 36.24655 45.644346
8.132684 37.566116 44.875523
7.210432 37.681272 45.491575
9.707475 32.297032 45.782702
9.075161 33.600523 45.776152
8.77682 32.313761 46.488502
10.307948 30.878563 45.810488
10.606288 32.165325 45.098137
9.707475 32.297032 45.782702
5.981639 21.620593 51.84883
5.146315 21.489375 52.468578
5.612783 20.218819 52.490862
8.384189 26.868133 48.616251
7.855452 28.148004 48.595225
7.49256 26.842415 49.265282
10.146255 26.872872 47.260317
10.712777 25.56702 47.183361
-16.503034 30.540724 62.722061
-17.135217 31.659206 62.579361
-15.566277 30.937231 62.154127
-16.503034 30.540724 62.722061
-15.898998 29.172261 62.915537
11.337864 36.17617 42.866509
11.043681 34.881305 43.671655
-11.673838 20.701664 63.47938
-12.226297 21.794528 63.448251
-10.795082 21.135911 62.841542
-11.673838 20.701664 63.47938
-9.924878 21.476813 62.205161
-10.46788 22.529688 62.191969
-10.795082 21.135911 62.841542
-4.5829 23.068807 58.276297
-5.143966 24.257465 58.229126
-3.733113 23.177281 57.689409
-4.5829 23.068807 58.276297
-4.034639 21.730933 58.385933
-1.836959 20.915751 57.223736
-2.308371 21.996651 57.181111
-2.713442 20.758507 57.841671
-0.960786 20.892083 56.653734
-1.836959 20.915751 57.223736
-15.847234 40.500679 58.594761
-16.702789 39.97698 59.230801
-16.07624 38.611635 59.47472
-15.847234 40.500679 58.594761
-14.984205 40.880903 57.975044
-8.258956 45.870522 51.465966
-9.149634 45.681356 52.149233
-8.47136 44.240954 52.338332
-7.395491 46.020128 50.818432
-8.258956 45.870522 51.465966
-6.524069 46.073526 50.221464
-7.395491 46.020128 50.818432
-6.70926 44.483517 51.058096
-5.658988 46.193451 49.601591
-6.524069 46.073526 50.221464
-1.699771 43.213732 48.478672
-2.560687 43.15858 49.013728
-1.90485 41.699968 49.266065
-1.699771 43.213732 48.478672
-0.827015 43.276871 47.933746
8.514326 30.962694 47.17132
8.77682 32.313761 46.488502
7.882013 32.266185 47.164771
7.780323 21.710005 50.533161
6.85451 21.659281 51.226706
7.37392 20.400761 51.177568
8.194288 22.977018 49.88417
7.780323 21.710005 50.533161
8.57448 24.274027 49.236176
7.641105 24.265535 49.934303
8.194288 22.977018 49.88417
9.453443 24.261737 48.573698
8.90026 25.550254 48.62383
8.57448 24.274027 49.236176
10.346732 24.342272 47.835428
9.453443 24.261737 48.573698
10.712777 25.56702 47.183361
10.346732 24.342272 47.835428
-17.191597 36.358799 60.885425
-17.813862 37.685101 60.606207
-16.810856 33.467679 61.810371
-17.135217 31.659206 62.579361
-16.555141 35.211846 61.031213
-16.810856 33.467679 61.810371
-15.914598 34.049862 61.181494
-16.295339 36.940983 60.256548
-17.191597 36.358799 60.885425
-16.555141 35.211846 61.031213
0.539965 40.579929 48.321064
-0.142781 41.960422 48.123308
-0.361188 40.374626 48.928766
1.195997 39.024002 48.616703
0.539965 40.579929 48.321064
1.809708 37.609567 48.853064
1.195997 39.024002 48.616703
0.935269 37.579698 49.362882
2.427568 36.250908 49.060558
2.688296 37.695211 48.314379
1.809708 37.609567 48.853064
3.908775 20.11044 53.690393
3.459454 18.791745 54.346367
5.27826 18.901547 53.065548
4.828939 17.582853 53.721522
6.113584 19.032766 52.445799
5.612783 20.218819 52.490862
5.27826 18.901547 53.065548
6.1435 16.45535 53.055661
5.250181 16.463782 53.701832
6.618016 17.772498 52.393228
6.1435 16.45535 53.055661
6.95254 19.08977 51.818542
6.113584 19.032766 52.445799
6.618016 17.772498 52.393228
7.37392 20.400761 51.177568
6.95254 19.08977 51.818542
10.672679 37.544243 42.866867
11.337864 36.17617 42.866509
-14.071019 25.471339 63.264076
-14.736609 26.632435 63.212118
-13.135841 25.947895 62.609047
-14.071019 25.471339 63.264076
-12.191885 26.341349 61.927407
-12.826298 27.545866 61.873489
-13.135841 25.947895 62.609047
-11.919757 23.466082 62.745657
-12.226297 21.794528 63.448251
-11.607007 25.00254 62.045264
-11.919757 23.466082 62.745657
-11.025334 23.725245 62.127956
-11.297463 26.600511 61.309706
-12.191885 26.341349 61.927407
-11.607007 25.00254 62.045264
-9.050658 21.758879 61.582016
-9.924878 21.476813 62.205161
-8.693303 23.245525 60.857788
-9.050658 21.758879 61.582016
-8.404835 24.772289 60.145325
-9.309208 24.397353 60.843125
-8.693303 23.245525 60.857788
-8.087984 26.272557 59.399292
-8.404835 24.772289 60.145325
-7.472079 25.120729 59.413956
-4.823978 25.725322 57.484257
-5.68657 25.46763 58.13361
-5.143966 24.257465 58.229126
0.82621 18.653937 56.155848
0.390572 19.819804 56.108734
1.688006 18.747611 55.548986
0.82621 18.653937 56.155848
1.24339 17.392212 56.231659
2.992001 17.468049 55.023678
3.459454 18.791745 54.346367
2.572638 18.809583 54.947487
2.992001 17.468049 55.023678
2.506267 16.254044 55.665764
-19.136052 40.332572 59.990519
-18.454685 39.05657 60.311989
-18.862826 42.113845 59.18745
-19.136052 40.332572 59.990519
-17.343612 41.34845 58.936583
-17.572617 39.459406 59.816542
-16.702789 39.97698 59.230801
-17.98696 42.646873 58.661416
-17.343612 41.34845 58.936583
-18.862826 42.113845 59.18745
-17.98696 42.646873 58.661416
-14.366248 28.36059 62.451366
-15.332603 27.840613 63.108355
-14.736609 26.632435 63.212118
-12.264944 41.850605 55.91531
-13.17858 41.558628 56.619659
-12.520218 40.136791 56.80563
-12.264944 41.850605 55.91531
-11.357715 42.101446 55.211834
-10.235443 43.912956 53.671993
-10.483201 42.2661 54.557318
-9.609797 42.404932 53.906924
-10.235443 43.912956 53.671993
-10.090069 45.663019 52.792281
-5.00009 44.653227 49.876951
-5.192789 43.163386 50.651463
-4.355041 43.279697 50.067285
-5.658988 46.193451 49.601591
-5.00009 44.653227 49.876951
-3.464054 43.207178 49.546948
-2.560687 43.15858 49.013728
4.526041 37.601469 47.26764
3.609812 37.670569 47.789142
4.222385 36.267452 48.00037
4.80094 39.07872 46.475634
4.526041 37.601469 47.26764
5.413512 37.675604 46.686861
5.001157 40.521356 45.724918
4.80094 39.07872 46.475634
5.954004 40.490059 45.12561
5.001157 40.521356 45.724918
5.954004 40.490059 45.12561
6.599499 39.076847 45.308803
8.981656 37.522028 44.255553
8.132684 37.566116 44.875523
9.610985 36.182346 44.323878
9.837859 37.572981 43.551136
8.981656 37.522028 44.255553
10.812995 33.556553 44.397101
11.043681 34.881305 43.671655
10.236502 34.908546 44.344906
11.413467 32.138084 44.424886
10.812995 33.556553 44.397101
10.606288 32.165325 45.098137
12.041418 30.888649 44.320696
11.413467 32.138084 44.424886
4.316008 21.349269 53.064486
3.447323 21.372108 53.644268
3.908775 20.11044 53.690393
4.684863 22.751043 52.422453
4.316008 21.349269 53.064486
5.146315 21.489375 52.468578
8.1833 29.54442 47.896891
7.291671 29.518702 48.545922
7.855452 28.148004 48.595225
8.514326 30.962694 47.17132
8.1833 29.54442 47.896891
9.263152 26.855843 47.953773
8.384189 26.868133 48.616251
8.90026 25.550254 48.62383
9.263152 26.855843 47.953773
10.146255 26.872872 47.260317
10.860024 29.477319 45.842602
10.307948 30.878563 45.810488
11.752019 29.474941 45.078083
10.860024 29.477319 45.842602
12.041418 30.888649 44.320696
11.752019 29.474941 45.078083
3 104 27 105
3 0 30 28
3 0 32 30
3 0 34 32
3 106 37 107
3 109 108 37
3 3 110 112
3 112 111 39
3 110 111 112
3 3 113 114
3 1 42 40
3 4 45 43
3 4 47 45
3 4 48 47
3 116 115 49
3 5 52 50
3 5 54 52
3 2 57 55
3 7 60 26
3 7 61 60
3 8 64 62
3 10 65 29
3 10 66 65
3 10 68 66
3 12 69 31
3 12 70 69
3 12 71 70
3 14 72 33
3 14 73 72
3 117 74 118
3 16 119 120
3 18 76 35
3 18 77 76
3 121 78 122
3 123 79 124
3 125 124 78
3 123 124 125
3 19 80 36
3 19 81 80
3 19 83 81
3 126 84 127
3 128 127 38
3 126 127 128
3 129 85 130
3 131 130 84
3 129 130 131
3 132 86 133
3 135 134 86
3 6 136 138
3 136 87 137
3 136 137 138
3 17 88 75
3 21 89 41
3 21 90 89
3 9 91 63
3 22 92 44
3 22 93 92
3 22 139 141
3 141 140 93
3 139 140 141
3 143 142 46
3 11 144 146
3 146 145 67
3 144 145 146
3 13 147 148
3 23 94 51
3 23 149 151
3 151 150 94
3 149 150 151
3 23 152 154
3 152 95 153
3 152 153 154
3 155 96 156
3 157 156 53
3 155 156 157
3 158 97 159
3 160 159 96
3 158 159 160
3 20 98 82
3 24 99 56
3 24 100 99
3 15 161 163
3 161 101 162
3 161 162 163
3 25 102 58
3 25 103 102
3 25 164 166
3 166 165 103
3 164 165 166
3 168 167 59
3 169 26 170
3 27 171 173
3 171 26 172
3 171 172 173
3 27 7 26
3 28 29 8
3 30 29 28
3 30 10 29
3 30 31 10
3 32 31 30
3 32 12 31
3 32 33 12
3 34 33 32
3 34 14 33
3 175 174 16
3 176 35 177
3 178 35 179
3 180 18 181
3 182 181 35
3 180 181 182
3 183 36 184
3 37 185 187
3 185 36 186
3 185 186 187
3 37 19 36
3 37 38 19
3 188 38 189
3 190 189 37
3 188 189 190
3 192 191 38
3 39 193 195
3 195 194 6
3 193 194 195
3 197 196 39
3 40 41 17
3 42 41 40
3 42 21 41
3 43 44 9
3 45 44 43
3 45 22 44
3 45 46 22
3 47 46 45
3 47 198 200
3 200 199 46
3 198 199 200
3 47 201 202
3 48 203 205
3 205 204 47
3 203 204 205
3 48 206 207
3 49 208 210
3 210 209 11
3 208 209 210
3 212 211 49
3 50 51 13
3 52 51 50
3 52 23 51
3 52 53 23
3 54 53 52
3 54 213 215
3 215 214 53
3 213 214 215
3 55 56 20
3 57 56 55
3 57 24 56
3 216 58 217
3 218 217 15
3 216 217 218
3 219 58 220
3 221 25 222
3 223 222 58
3 221 222 223
3 224 59 225
3 226 225 25
3 224 225 226
3 227 59 228
3 230 229 59
3 231 6 232
3 26 233 234
3 60 235 237
3 237 236 26
3 235 236 237
3 60 238 240
3 238 6 239
3 238 239 240
3 60 39 6
3 61 39 60
3 61 3 39
3 62 63 1
3 64 63 62
3 64 9 63
3 29 64 8
3 65 64 29
3 65 9 64
3 65 43 9
3 66 43 65
3 66 4 43
3 66 67 4
3 68 67 66
3 68 11 67
3 31 68 10
3 69 68 31
3 69 11 68
3 69 49 11
3 70 49 69
3 70 241 243
3 243 242 49
3 241 242 243
3 70 244 245
3 71 246 248
3 248 247 70
3 246 247 248
3 71 249 251
3 249 13 250
3 249 250 251
3 33 71 12
3 72 71 33
3 72 13 71
3 72 50 13
3 73 50 72
3 73 5 50
3 253 252 2
3 74 254 255
3 74 256 258
3 256 15 257
3 256 257 258
3 259 74 260
3 261 74 262
3 263 15 264
3 265 264 74
3 263 264 265
3 267 266 15
3 269 268 16
3 270 75 271
3 272 75 273
3 274 17 275
3 276 275 75
3 274 275 276
3 35 277 278
3 76 279 281
3 281 280 35
3 279 280 281
3 76 282 284
3 282 17 283
3 282 283 284
3 76 40 17
3 77 40 76
3 77 1 40
3 285 18 286
3 287 18 288
3 289 77 290
3 291 290 18
3 289 290 291
3 78 292 294
3 292 77 293
3 292 293 294
3 78 1 77
3 78 62 1
3 79 62 78
3 79 8 62
3 36 295 297
3 295 79 296
3 295 296 297
3 80 79 36
3 80 8 79
3 80 28 8
3 81 28 80
3 81 0 28
3 81 82 0
3 83 82 81
3 83 20 82
3 38 83 19
3 84 83 38
3 84 20 83
3 84 55 20
3 85 55 84
3 85 2 55
3 298 85 299
3 86 300 302
3 300 85 301
3 300 301 302
3 86 2 85
3 86 303 305
3 305 304 2
3 303 304 305
3 307 306 86
3 87 308 309
3 87 310 311
3 312 87 313
3 314 313 6
3 312 313 314
3 315 87 316
3 318 317 87
3 75 319 321
3 319 27 320
3 319 320 321
3 88 27 75
3 88 7 27
3 41 88 17
3 89 88 41
3 89 7 88
3 89 61 7
3 90 61 89
3 90 3 61
3 63 42 1
3 91 42 63
3 91 21 42
3 44 91 9
3 92 91 44
3 92 21 91
3 92 90 21
3 93 90 92
3 93 3 90
3 93 322 324
3 324 323 3
3 322 323 324
3 326 325 93
3 46 327 329
3 329 328 22
3 327 328 329
3 331 330 46
3 67 48 4
3 332 48 333
3 334 333 67
3 332 333 334
3 336 335 48
3 338 337 11
3 51 339 341
3 341 340 13
3 339 340 341
3 94 342 344
3 344 343 51
3 342 343 344
3 94 345 346
3 94 347 348
3 350 349 94
3 95 351 352
3 95 353 355
3 353 16 354
3 353 354 355
3 53 95 23
3 96 95 53
3 96 16 95
3 96 356 358
3 358 357 16
3 356 357 358
3 97 359 361
3 361 360 96
3 359 360 361
3 97 362 363
3 82 34 0
3 98 34 82
3 98 14 34
3 56 98 20
3 99 98 56
3 99 14 98
3 99 73 14
3 100 73 99
3 100 5 73
3 364 57 365
3 366 365 2
3 364 365 366
3 101 367 369
3 367 57 368
3 367 368 369
3 101 24 57
3 58 101 15
3 102 101 58
3 102 24 101
3 102 100 24
3 103 100 102
3 103 5 100
3 103 54 5
3 370 54 371
3 372 371 103
3 370 371 372
3 374 373 54
3 59 375 377
3 377 376 25
3 375 376 377
3 379 378 59
3 380 97 381
3 382 97 383
3 385 384 97
