ply
format ascii 1.0
element vertex 122
property float x
property float y
property float z
element face 91
property list uchar int vertex_index
end_header
-10.644199 67.742203 22.725607
-14.596293 57.398819 25.856632
-13.648379 63.21854 22.259985
-11.562975 61.843426 26.707647
-9.349186 59.78133 31.124268
-14.986986 54.509731 27.702885
-13.125687 59.6394 26.30545
-12.180111 65.505211 22.544239
-13.315077 65.921486 20.327436
-15.933756 55.179516 25.393349
-14.080734 60.459194 24.022612
-12.581502 62.491566 24.649719
-10.894468 57.876099 30.80143
-14.768692 63.69236 19.812254
-10.507592 60.870888 28.908312
-11.277603 68.002872 21.552467
-12.045559 66.884377 21.461782
-11.412155 66.623707 22.634923
-10.452808 69.156593 21.646527
-11.277603 68.002872 21.552467
-15.006871 57.801619 24.749164
-15.675603 56.691967 24.517522
-15.265024 56.289168 25.624991
-14.338513 58.929006 24.939622
-14.749092 59.331806 23.832153
-15.006871 57.801619 24.749164
-11.334109 63.35354 25.706026
-11.843373 63.677611 24.677062
-12.072239 62.167496 25.678683
-14.208535 63.45545 21.036119
-14.93084 62.35667 20.743323
-14.370683 62.11976 21.967189
-13.832797 66.203663 19.142664
-13.161609 67.362419 19.211118
-14.528924 54.166641 28.725817
-15.278609 53.085229 28.423132
-14.273441 55.634367 27.895763
-14.528924 54.166641 28.725817
-14.078094 57.078911 26.972636
-14.791639 55.954275 26.779758
-14.273441 55.634367 27.895763
-13.342792 58.199202 27.197045
-13.86099 58.519109 26.081041
-14.078094 57.078911 26.972636
-12.579282 59.241924 27.434497
-13.342792 58.199202 27.197045
-11.797926 60.343937 27.635596
-12.344331 60.741413 26.506549
-12.579282 59.241924 27.434497
-12.613042 67.092514 20.353381
-12.747594 65.713348 21.435837
-12.045559 66.884377 21.461782
-13.161609 67.362419 19.211118
-12.613042 67.092514 20.353381
-9.124405 61.254291 30.22111
-8.444522 60.849405 31.255924
-15.718424 53.47679 27.283394
-15.278609 53.085229 28.423132
-16.191809 53.811682 26.128626
-15.718424 53.47679 27.283394
-15.460371 54.844623 26.548117
-16.582024 54.13167 25.036277
-16.191809 53.811682 26.128626
-16.345537 55.538008 24.22765
-16.582024 54.13167 25.036277
-16.345537 55.538008 24.22765
-15.675603 56.691967 24.517522
-14.586861 60.740088 22.848502
-14.749092 59.331806 23.832153
-13.864556 61.838867 23.141298
-14.370683 62.11976 21.967189
-14.586861 60.740088 22.848502
-11.642677 65.184433 23.624322
-12.380807 63.998389 23.596979
-11.843373 63.677611 24.677062
-10.874721 66.302929 23.715006
-11.412155 66.623707 22.634923
-11.642677 65.184433 23.624322
-11.155123 56.304034 31.679769
-11.69592 56.852323 30.582948
-10.329512 57.253844 31.904511
-11.155123 56.304034 31.679769
-9.556871 58.206459 32.065929
-10.121827 58.828715 30.962849
-10.329512 57.253844 31.904511
-8.714535 59.213428 32.19462
-9.556871 58.206459 32.065929
-8.444522 60.849405 31.255924
-8.714535 59.213428 32.19462
-15.403135 62.622803 19.558959
-14.93084 62.35667 20.743323
-15.252979 63.980866 18.587231
-15.403135 62.622803 19.558959
-14.559605 65.0891 18.885073
-14.041885 64.806923 20.069845
-13.832797 66.203663 19.142664
-15.252979 63.980866 18.587231
-14.559605 65.0891 18.885073
-11.463672 58.360274 29.682488
-11.69592 56.852323 30.582948
-11.270235 59.857668 28.735928
-11.463672 58.360274 29.682488
-10.70103 59.373494 29.854871
-11.035284 61.357157 27.80798
-11.797926 60.343937 27.635596
-11.270235 59.857668 28.735928
-9.703608 61.79907 29.113132
-9.928389 60.326109 30.01629
-9.124405 61.254291 30.22111
-10.278139 62.32338 27.986884
-9.703608 61.79907 29.113132
-10.80583 62.809649 26.886552
-11.035284 61.357157 27.80798
-10.278139 62.32338 27.986884
-11.334109 63.35354 25.706026
-10.80583 62.809649 26.886552
-10.099127 67.268853 23.890574
-10.874721 66.302929 23.715006
-9.868879 68.773102 22.797152
-10.099127 67.268853 23.890574
-10.452808 69.156593 21.646527
-9.868879 68.773102 22.797152
3 0 15 17
3 17 16 7
3 15 16 17
3 0 18 19
3 1 9 5
3 1 20 22
3 22 21 9
3 20 21 22
3 1 23 25
3 23 10 24
3 23 24 25
3 3 11 6
3 3 26 28
3 28 27 11
3 26 27 28
3 2 29 31
3 29 13 30
3 29 30 31
3 33 32 8
3 4 14 12
3 34 5 35
3 36 5 37
3 38 1 39
3 40 39 5
3 38 39 40
3 41 6 42
3 43 42 1
3 41 42 43
3 44 6 45
3 46 3 47
3 48 47 6
3 46 47 48
3 7 8 2
3 49 8 50
3 51 50 7
3 49 50 51
3 53 52 8
3 55 54 4
3 5 56 57
3 9 58 60
3 60 59 5
3 58 59 60
3 9 61 62
3 9 63 64
3 66 65 9
3 10 67 68
3 10 69 71
3 69 2 70
3 69 70 71
3 6 10 1
3 11 10 6
3 11 2 10
3 11 7 2
3 72 7 73
3 74 73 11
3 72 73 74
3 75 0 76
3 77 76 7
3 75 76 77
3 78 12 79
3 80 12 81
3 82 4 83
3 84 83 12
3 82 83 84
3 85 4 86
3 88 87 4
3 13 89 90
3 13 91 92
3 8 13 2
3 93 13 94
3 95 94 8
3 93 94 95
3 97 96 13
3 12 98 99
3 14 100 102
3 102 101 12
3 100 101 102
3 14 103 105
3 103 3 104
3 103 104 105
3 106 14 107
3 108 107 4
3 106 107 108
3 109 14 110
3 111 3 112
3 113 112 14
3 111 112 113
3 115 114 3
3 116 0 117
3 118 0 119
3 121 120 0
