ply
format ascii 1.0
element vertex 79
property float x
property float y
property float z
element face 61
property list uchar int vertex_index
end_header
37.606419 -40.244068 -38.296574
37.616055 -41.245693 -34.191025
38.788998 -33.248566 -41.484043
37.67157 -40.824638 -36.234497
38.313168 -38.066277 -35.727001
38.37151 -37.424889 -37.745716
38.936241 -33.967625 -39.420464
38.207458 -37.01524 -39.839569
39.411461 -30.325216 -41.036995
39.275185 -29.318251 -43.065926
37.285656 -39.937473 -40.295113
37.939438 -36.257698 -41.918343
37.891048 -39.849018 -33.969561
37.526047 -41.399383 -33.117457
38.538647 -36.730644 -35.457718
38.622866 -36.355946 -36.532234
37.060663 -39.572187 -41.370738
36.707434 -41.436723 -40.492657
37.387554 -37.7323 -42.182353
37.612547 -38.097585 -41.106728
37.060663 -39.572187 -41.370738
38.652037 -36.035252 -37.541591
38.622866 -36.355946 -36.532234
38.342339 -37.745583 -36.736359
38.653875 -35.696257 -38.58309
38.934403 -34.30662 -38.378965
38.652037 -36.035252 -37.541591
37.208403 -42.814375 -33.259289
37.526047 -41.399383 -33.117457
37.225659 -42.760004 -34.300348
37.208403 -42.814375 -33.259289
37.253416 -42.549476 -35.322085
37.643813 -41.035166 -35.212761
37.225659 -42.760004 -34.300348
37.243739 -42.27067 -36.430839
37.253416 -42.549476 -35.322085
37.211163 -41.980385 -37.461878
37.638995 -40.534353 -37.265535
37.243739 -42.27067 -36.430839
38.239605 -38.25931 -34.737549
37.891048 -39.849018 -33.969561
37.964612 -39.655985 -34.959013
38.239605 -38.25931 -34.737549
38.538647 -36.730644 -35.457718
39.201448 -32.465217 -39.17049
38.934403 -34.30662 -38.378965
39.439059 -30.644013 -39.978756
39.201448 -32.465217 -39.17049
39.173851 -32.14642 -40.22873
39.645658 -28.786494 -40.784064
39.439059 -30.644013 -39.978756
39.601319 -28.431285 -41.816374
39.645658 -28.786494 -40.784064
39.533181 -27.927802 -42.830839
39.601319 -28.431285 -41.816374
39.343323 -29.821734 -42.05146
39.427442 -27.465196 -43.867832
39.533181 -27.927802 -42.830839
37.086424 -41.836331 -38.431601
37.211163 -41.980385 -37.461878
36.926043 -41.683033 -39.43087
36.707434 -41.436723 -40.492657
37.446038 -40.09077 -39.295844
37.086424 -41.836331 -38.431601
36.926043 -41.683033 -39.43087
37.734268 -35.815132 -42.922716
37.387554 -37.7323 -42.182353
38.229715 -34.28034 -42.73016
37.734268 -35.815132 -42.922716
38.654495 -32.775774 -42.51301
38.364218 -34.753132 -41.701193
38.229715 -34.28034 -42.73016
38.897589 -30.810617 -43.303951
39.032091 -31.283409 -42.274985
38.654495 -32.775774 -42.51301
39.101873 -28.959978 -44.064587
38.897589 -30.810617 -43.303951
39.427442 -27.465196 -43.867832
39.101873 -28.959978 -44.064587
3 0 5 3
3 0 7 5
3 1 12 13
3 15 14 4
3 2 8 6
3 2 9 8
3 16 10 17
3 18 11 19
3 20 19 10
3 18 19 20
3 3 4 1
3 5 4 3
3 5 21 23
3 23 22 4
3 21 22 23
3 5 24 26
3 24 6 25
3 24 25 26
3 7 6 5
3 7 2 6
3 27 1 28
3 29 1 30
3 31 3 32
3 33 32 1
3 31 32 33
3 34 3 35
3 36 0 37
3 38 37 3
3 36 37 38
3 4 39 41
3 41 40 1
3 39 40 41
3 43 42 4
3 6 44 45
3 8 46 48
3 48 47 6
3 46 47 48
3 8 49 50
3 8 51 52
3 9 53 55
3 55 54 8
3 53 54 55
3 9 56 57
3 58 0 59
3 10 60 61
3 10 62 64
3 62 0 63
3 62 63 64
3 10 7 0
3 11 7 10
3 11 2 7
3 65 11 66
3 67 11 68
3 69 2 70
3 71 70 11
3 69 70 71
3 72 9 73
3 74 73 2
3 72 73 74
3 75 9 76
3 78 77 9
