ply
format ascii 1.0
element vertex 89
property float x
property float y
property float z
element face 67
property list uchar int vertex_index
end_header
6.071878 88.000343 -44.613766
1.092664 85.593727 -43.327217
4.63765 81.683571 -46.237087
3.534416 86.81102 -44.062176
2.880333 83.728889 -44.886951
5.417623 84.93959 -45.557938
4.896991 72.377853 -48.151958
0.412305 82.667572 -43.95816
2.197864 80.630165 -45.436699
3.963081 78.495941 -46.713665
5.6514 75.894768 -47.869003
4.238458 89.870667 -42.945858
7.056914 86.988231 -45.346025
6.729787 85.457855 -45.818112
5.744751 86.469966 -45.085852
4.114981 73.779106 -47.607069
3.716044 72.120082 -47.675427
0.752485 84.13065 -43.642688
-0.474831 83.458225 -43.172512
-0.134651 84.921302 -42.85704
5.54014 80.487336 -46.855209
5.202856 78.89352 -47.093498
4.300365 80.089756 -46.475376
3.235727 90.636848 -41.988949
2.946758 89.262554 -42.606832
6.431762 74.551437 -48.350245
6.844848 76.175145 -48.202385
6.350491 83.745365 -46.248547
5.960504 82.117356 -46.588121
5.027636 83.31158 -45.897513
6.350491 83.745365 -46.248547
6.729787 85.457855 -45.818112
4.409674 70.740905 -48.183357
3.716044 72.120082 -47.675427
5.521766 71.03157 -48.568626
4.409674 70.740905 -48.183357
-0.725423 81.991017 -43.459511
-0.474831 83.458225 -43.172512
0.185293 81.080612 -44.241055
-0.725423 81.991017 -43.459511
1.078073 80.061909 -44.980324
0.185293 81.080612 -44.241055
1.305084 81.648869 -44.697429
1.873058 79.046429 -45.620304
1.078073 80.061909 -44.980324
2.755666 77.979317 -46.258787
1.873058 79.046429 -45.620304
3.080472 79.563053 -46.075182
3.648026 76.83815 -46.887923
2.755666 77.979317 -46.258787
4.80724 77.195355 -47.291334
4.492185 75.537564 -47.465592
3.648026 76.83815 -46.887923
6.047016 77.592934 -47.671167
4.80724 77.195355 -47.291334
5.202856 78.89352 -47.093498
6.844848 76.175145 -48.202385
6.047016 77.592934 -47.671167
5.54014 80.487336 -46.855209
5.960504 82.117356 -46.588121
0.111293 86.322197 -42.437051
-0.134651 84.921302 -42.85704
1.373862 87.124085 -42.797512
0.111293 86.322197 -42.437051
2.594737 87.732731 -43.164991
2.31354 86.202373 -43.694696
1.373862 87.124085 -42.797512
3.886437 88.340844 -43.504017
2.594737 87.732731 -43.164991
2.946758 89.262554 -42.606832
5.274195 74.136311 -48.01048
4.114981 73.779106 -47.607069
4.492185 75.537564 -47.465592
6.054558 72.79298 -48.491722
5.274195 74.136311 -48.01048
6.431762 74.551437 -48.350245
5.521766 71.03157 -48.568626
6.054558 72.79298 -48.491722
4.580502 91.345208 -42.222407
3.235727 90.636848 -41.988949
5.457113 90.435753 -43.146828
4.580502 91.345208 -42.222407
6.373823 89.500591 -43.980781
5.155168 88.935505 -43.779812
5.457113 90.435753 -43.146828
7.337747 88.553524 -44.782022
6.373823 89.500591 -43.980781
7.056914 86.988231 -45.346025
7.337747 88.553524 -44.782022
3 0 5 3
3 0 12 14
3 14 13 5
3 12 13 14
3 15 6 16
3 1 17 19
3 17 7 18
3 17 18 19
3 2 8 4
3 2 9 8
3 2 20 22
3 22 21 9
3 20 21 22
3 23 11 24
3 26 25 10
3 3 4 1
3 5 4 3
3 5 2 4
3 5 27 29
3 29 28 2
3 27 28 29
3 31 30 5
3 6 32 33
3 6 34 35
3 7 36 37
3 7 38 39
3 4 7 1
3 8 7 4
3 8 40 42
3 42 41 7
3 40 41 42
3 8 43 44
3 9 45 47
3 47 46 8
3 45 46 47
3 9 48 49
3 9 50 52
3 50 10 51
3 50 51 52
3 53 10 54
3 55 54 9
3 53 54 55
3 57 56 10
3 59 58 2
3 60 1 61
3 62 1 63
3 64 3 65
3 66 65 1
3 64 65 66
3 11 67 69
3 67 3 68
3 67 68 69
3 11 0 3
3 10 70 72
3 70 6 71
3 70 71 72
3 73 6 74
3 75 74 10
3 73 74 75
3 77 76 6
3 78 11 79
3 80 11 81
3 82 0 83
3 84 83 11
3 82 83 84
3 85 0 86
3 88 87 0
