ply
format ascii 1.0
element vertex 84
property float x
property float y
property float z
element face 68
property list uchar int vertex_index
end_header
-8.926097 44.747826 -52.946301
-11.826715 51.072067 -52.550327
-8.055686 51.529736 -52.235268
-9.372482 54.745644 -52.085327
-10.317771 48.069504 -52.6726
-12.079716 47.917114 -52.669704
-10.663384 44.708912 -52.842239
-5.020429 48.700668 -52.323765
-11.283476 54.665516 -52.32531
-9.949242 51.505085 -52.413765
-8.644605 48.232346 -52.62648
-6.137774 51.605961 -51.96748
-6.773894 48.332733 -52.530323
-7.271711 45.035702 -52.990875
-9.090191 43.193602 -53.043295
-9.958835 43.174145 -52.991264
-9.79474 44.728369 -52.89427
-11.043226 56.397318 -52.181424
-11.993665 56.371223 -52.316769
-12.713317 51.122886 -52.575204
-12.473703 52.767054 -52.523953
-13.119105 46.106786 -52.666207
-12.97951 47.806779 -52.642713
-12.219311 46.217121 -52.693197
-5.27858 51.625383 -51.809594
-5.859535 53.162751 -51.668175
-5.000341 53.182173 -51.510289
-6.141615 46.881096 -52.748533
-5.897162 48.5167 -52.427044
-5.264883 47.065064 -52.645254
-6.390524 45.23258 -52.978809
-7.022803 46.684218 -52.760599
-6.141615 46.881096 -52.748533
-9.113267 56.330654 -51.893743
-10.08773 56.437382 -52.061432
-8.418387 54.70121 -51.933647
-9.113267 56.330654 -51.893743
-7.759989 53.093256 -52.008617
-8.714084 53.13769 -52.160297
-8.418387 54.70121 -51.933647
-11.511145 44.61302 -52.779465
-12.219311 46.217121 -52.693197
-11.37155 46.313013 -52.755972
-10.759965 43.039236 -52.886404
-11.511145 44.61302 -52.779465
-10.759965 43.039236 -52.886404
-9.958835 43.174145 -52.991264
-4.145986 48.712261 -52.208241
-4.719907 50.172737 -51.987736
-4.434257 47.246031 -52.598558
-4.145986 48.712261 -52.208241
-4.678711 45.610426 -52.920047
-5.264883 47.065064 -52.645254
-4.434257 47.246031 -52.598558
-12.202084 54.563778 -52.411444
-11.993665 56.371223 -52.316769
-11.555096 52.868792 -52.437819
-12.473703 52.767054 -52.523953
-12.202084 54.563778 -52.411444
-10.327979 54.70558 -52.205319
-11.043226 56.397318 -52.181424
-10.08773 56.437382 -52.061432
-12.839817 49.54541 -52.634893
-12.713317 51.122886 -52.575204
-11.953215 49.494591 -52.610016
-12.839817 49.54541 -52.634893
-12.97951 47.806779 -52.642713
-6.801033 53.131369 -51.874724
-5.859535 53.162751 -51.668175
-7.09673 51.567848 -52.101374
-7.759989 53.093256 -52.008617
-6.801033 53.131369 -51.874724
-5.579102 50.153315 -52.145623
-5.27858 51.625383 -51.809594
-4.719907 50.172737 -51.987736
-6.547717 43.649299 -53.248474
-6.390524 45.23258 -52.978809
-7.407058 43.430756 -53.170771
-6.547717 43.649299 -53.248474
-8.234251 43.286817 -53.148483
-8.098904 44.891764 -52.968588
-7.407058 43.430756 -53.170771
-9.090191 43.193602 -53.043295
-8.234251 43.286817 -53.148483
3 0 6 4
3 0 14 16
3 16 15 6
3 14 15 16
3 17 8 18
3 2 9 3
3 2 10 9
3 1 19 20
3 23 22 5
3 21 22 23
3 24 11 25
3 24 25 26
3 27 12 28
3 29 28 7
3 27 28 29
3 30 13 31
3 32 31 12
3 30 31 32
3 33 3 34
3 35 3 36
3 37 2 38
3 39 38 3
3 37 38 39
3 4 5 1
3 6 5 4
3 6 40 42
3 42 41 5
3 40 41 42
3 6 43 44
3 46 45 6
3 47 7 48
3 49 7 50
3 53 52 7
3 51 52 53
3 8 54 55
3 8 56 58
3 56 1 57
3 56 57 58
3 3 59 61
3 59 8 60
3 59 60 61
3 9 8 3
3 9 1 8
3 9 4 1
3 10 4 9
3 10 0 4
3 5 62 64
3 64 63 1
3 62 63 64
3 66 65 5
3 11 67 68
3 11 69 71
3 69 2 70
3 69 70 71
3 7 72 74
3 72 11 73
3 72 73 74
3 12 11 7
3 12 2 11
3 12 10 2
3 13 10 12
3 13 0 10
3 75 13 76
3 77 13 78
3 79 0 80
3 81 80 13
3 79 80 81
3 83 82 0
