ply
format ascii 1.0
element vertex 489
property float x
property float y
property float z
element face 452
property list uchar int vertex_index
end_header
16.068132 -40.252865 -53.615582
32.113571 -17.100584 -59.008057
36.448921 -5.256531 -58.734932
37.065498 -21.950941 -52.438225
18.9021 -22.793791 -60.080601
30.892057 -34.223248 -52.399582
24.8403 -29.120569 -57.009975
25.727671 -12.853556 -63.383682
12.412229 -23.045351 -59.037655
10.117143 -18.293949 -60.231071
31.950472 -44.540043 -46.210323
33.436302 -36.449947 -49.348881
29.502285 -42.636364 -49.250134
21.786877 -26.258224 -58.631618
34.668114 -11.356591 -59.116707
31.651331 -8.788216 -62.323772
28.288628 -7.03097 -64.677353
28.830105 -14.950172 -61.546738
37.040668 -13.404509 -55.751751
34.857605 -19.433697 -55.986134
14.957343 -27.261711 -57.975075
34.382202 -27.779234 -52.791004
31.740557 -25.922327 -55.593208
27.999498 -31.772766 -54.93578
28.707493 -23.474199 -58.148159
25.632677 -20.553526 -60.325909
39.455429 -20.599991 -48.132099
9.391181 -22.519838 -58.330372
8.420417 -20.092274 -58.878487
30.759689 -43.622879 -47.815693
28.563442 -47.008072 -47.655571
17.474382 -42.163548 -53.025089
33.450893 -14.005194 -59.239178
33.139454 -10.187976 -60.809769
31.909554 -12.976199 -60.70089
30.321888 -11.895532 -62.00779
30.490187 -16.137774 -60.317783
38.081738 -18.644064 -52.233353
38.076599 -14.467805 -53.767605
37.185268 -17.595953 -54.069225
36.131088 -16.393431 -55.862682
36.025879 -20.738588 -54.26413
12.915442 -18.960501 -60.768799
14.202544 -21.045616 -60.21114
35.992432 -34.008961 -47.744385
32.23307 -35.250206 -50.98349
33.975307 -32.134979 -51.063679
32.778732 -31.031019 -52.596134
33.123787 -27.048977 -54.16663
31.332939 -29.892118 -54.095356
24.23345 -33.621815 -55.348423
25.863834 -34.951981 -54.377789
26.374949 -30.526773 -56.027863
28.379372 -27.481709 -56.598316
26.784445 -26.289219 -57.654633
27.158607 -21.931217 -59.342041
25.405973 -24.779827 -58.650532
20.240353 -24.694677 -59.335796
27.116428 -9.888318 -64.104568
26.492752 -6.049039 -65.697884
25.306492 -9.116512 -64.932793
23.523939 -8.176571 -65.680847
23.929554 -11.928989 -64.143974
38.892719 -19.802931 -50.077648
11.196833 -20.739254 -59.606697
11.776877 -16.582741 -61.442326
32.99527 -45.163841 -44.604057
33.869907 -41.162849 -46.160355
34.52541 -37.139961 -47.81456
32.765583 -40.539299 -47.751808
31.615898 -39.444412 -49.350616
30.186077 -38.551544 -50.804634
21.971169 -36.479103 -54.676167
22.788231 -32.036945 -56.244526
23.328238 -27.984489 -57.757011
21.209846 -30.685802 -56.955624
19.799265 -29.040844 -57.651985
18.299976 -26.990986 -58.415894
35.626282 -8.191032 -59.07132
34.306477 -7.111215 -60.752548
31.186708 -5.005483 -63.808205
29.914116 -7.938358 -63.60688
28.669271 -11.076525 -63.078331
27.280945 -13.743756 -62.584877
37.861423 -10.712534 -55.261074
36.842754 -9.472034 -57.187603
35.953426 -12.198713 -57.512581
34.84108 -15.382644 -57.556198
33.515812 -18.572008 -57.452484
8.836547 -16.204605 -60.580193
14.77583 -38.104649 -54.203793
15.605727 -33.777695 -55.739498
16.272509 -29.468578 -57.336975
16.972197 -25.328871 -58.958233
15.570946 -23.24168 -59.58844
35.063446 -33.038177 -49.474491
35.518314 -28.922586 -51.078964
35.832661 -24.903648 -52.648933
34.667114 -23.722582 -54.364014
33.352913 -22.880184 -55.808857
31.946968 -21.492786 -57.343552
28.772173 -37.487926 -52.105415
27.385489 -36.101147 -53.348068
29.460598 -33.240383 -53.646049
29.870333 -28.858303 -55.350533
30.336588 -24.515476 -56.97345
30.498053 -20.357914 -58.623478
28.895578 -19.244892 -59.8134
27.292568 -17.769354 -60.991299
25.783278 -16.625029 -61.874847
23.7742 -23.605106 -59.45351
24.096712 -19.255665 -61.16785
24.212074 -15.46303 -62.67749
7.576853 -21.002759 -58.147892
8.045151 -22.201381 -57.933819
7.201586 -23.111866 -57.203224
28.156083 -48.921158 -46.926859
29.304104 -47.234656 -46.957638
28.896745 -49.147741 -46.228926
17.22011 -38.97032 -54.071962
17.923235 -39.925662 -53.776716
16.771257 -41.208207 -53.320335
16.478797 -38.049848 -54.372881
17.22011 -38.97032 -54.071962
13.834692 -17.976053 -61.359253
13.180072 -16.9421 -61.657643
35.770087 -35.924384 -46.877921
36.450453 -34.318838 -46.790394
19.763846 -21.641015 -60.548338
20.432973 -22.591458 -60.175936
19.571227 -23.744234 -59.708199
19.062818 -20.790948 -60.893124
19.763846 -21.641015 -60.548338
36.181207 -3.312769 -59.450544
36.759481 -3.771242 -58.501597
38.785069 -21.755313 -49.402744
39.174074 -20.201461 -49.104873
39.066423 -22.153843 -48.429969
38.431272 -21.197633 -50.397667
38.785069 -21.755313 -49.402744
32.472871 -44.851942 -45.40719
32.023717 -46.871389 -44.594645
31.501318 -46.55949 -45.397778
21.320957 -35.679369 -55.050427
20.860353 -37.920468 -54.2778
21.729487 -33.45829 -55.834606
22.3797 -34.258024 -55.460346
21.320957 -35.679369 -55.050427
20.940295 -32.782719 -56.190155
21.999038 -31.361373 -56.600075
21.729487 -33.45829 -55.834606
18.788149 -30.166289 -57.218146
19.45552 -31.285946 -56.822815
18.038505 -29.14136 -57.6001
19.04962 -28.015915 -58.03394
18.788149 -30.166289 -57.218146
32.266458 -7.496134 -62.289339
33.010519 -8.196013 -61.532337
32.395392 -9.488096 -61.566771
31.419019 -6.89685 -63.065989
32.034146 -5.604767 -63.031555
32.266458 -7.496134 -62.289339
8.30754 -14.974988 -60.830317
8.053085 -17.072655 -59.878098
14.070355 -37.228247 -54.390303
13.660098 -39.423483 -53.638859
14.485303 -35.06477 -55.158155
15.190779 -35.941172 -54.971645
14.070355 -37.228247 -54.390303
15.614926 -28.365144 -57.656025
15.291536 -30.67231 -56.781525
14.633954 -29.568876 -57.100574
13.052487 -24.103051 -58.782452
12.755276 -26.207216 -57.925936
12.115018 -25.149516 -58.181139
15.795752 -21.187053 -60.43511
14.886745 -22.143648 -59.89979
15.111551 -20.089022 -60.74646
16.491346 -22.259036 -60.087217
15.795752 -21.187053 -60.43511
27.685313 -38.986477 -51.950599
28.37034 -39.659982 -51.323864
23.282635 -18.631166 -61.534618
23.146021 -20.610461 -60.744009
23.340317 -16.734848 -62.289438
24.154393 -17.359347 -61.92267
23.282635 -18.631166 -61.534618
23.362737 -14.946742 -63.016316
23.340317 -16.734848 -62.289438
27.963549 -5.123995 -65.44289
28.888253 -5.49709 -64.891697
26.134249 -4.280719 -66.406811
25.602998 -5.732797 -66.069806
22.71029 -7.874223 -65.920204
22.908071 -9.521655 -65.25151
39.643913 -21.1602 -47.103252
39.708534 -19.19078 -47.8239
39.349079 -22.52851 -47.441391
39.643913 -21.1602 -47.103252
39.066423 -22.153843 -48.429969
39.349079 -22.52851 -47.441391
8.530532 -23.415163 -57.659762
9.084108 -24.675714 -57.431555
8.905799 -21.306056 -58.604429
8.530532 -23.415163 -57.659762
8.045151 -22.201381 -57.933819
30.997619 -46.000641 -46.235014
31.501318 -46.55949 -45.397778
30.402227 -45.542059 -47.037699
31.35508 -44.081461 -47.013008
30.997619 -46.000641 -46.235014
29.661566 -45.315475 -47.735632
30.402227 -45.542059 -47.037699
29.304104 -47.234656 -46.957638
18.611959 -40.76269 -53.452261
19.39264 -41.52918 -53.157128
18.255063 -42.930038 -52.729956
18.611959 -40.76269 -53.452261
17.923235 -39.925662 -53.776716
38.079169 -16.555934 -53.000479
38.454125 -15.187342 -52.759003
38.456694 -17.275472 -51.991877
13.964559 -28.496727 -57.348514
14.633954 -29.568876 -57.100574
14.478243 -19.018611 -61.080423
13.558993 -20.003059 -60.48997
13.834692 -17.976053 -61.359253
15.111551 -20.089022 -60.74646
14.478243 -19.018611 -61.080423
36.67743 -32.395054 -47.594826
36.450453 -34.318838 -46.790394
36.252861 -31.935823 -48.542488
36.67743 -32.395054 -47.594826
25.048642 -34.286898 -54.863106
24.724792 -36.441114 -54.094801
23.909599 -35.776032 -54.580118
21.217841 -23.329966 -59.827982
21.991104 -24.11174 -59.475893
21.013615 -25.47645 -58.983707
21.217841 -23.329966 -59.827982
20.432973 -22.591458 -60.175936
25.009868 -7.266533 -65.68726
25.602998 -5.732797 -66.069806
25.899622 -7.582776 -65.315338
24.415215 -8.646541 -65.30682
24.118592 -6.796563 -66.061287
25.009868 -7.266533 -65.68726
23.110878 -11.397863 -64.483074
22.908071 -9.521655 -65.25151
23.726746 -10.05278 -64.91241
39.471379 -18.657997 -48.917854
39.708534 -19.19078 -47.8239
39.190023 -18.259467 -49.890629
39.471379 -18.657997 -48.917854
39.174074 -20.201461 -49.104873
38.862184 -17.854905 -50.914024
39.190023 -18.259467 -49.890629
38.487229 -19.223498 -51.155501
38.456694 -17.275472 -51.991877
38.862184 -17.854905 -50.914024
38.025782 -20.618199 -51.47552
38.487229 -19.223498 -51.155501
38.431272 -21.197633 -50.397667
37.517662 -22.271638 -51.577956
37.573618 -20.297503 -52.335789
38.025782 -20.618199 -51.47552
11.53318 -23.905695 -58.470844
12.115018 -25.149516 -58.181139
10.022656 -23.642938 -58.117203
9.084108 -24.675714 -57.431555
10.925482 -22.752646 -58.755365
10.022656 -23.642938 -58.117203
10.294007 -21.629546 -58.968534
11.804531 -21.892302 -59.322176
11.53318 -23.905695 -58.470844
10.925482 -22.752646 -58.755365
12.610789 -15.75322 -61.994406
13.180072 -16.9421 -61.657643
12.34616 -17.771621 -61.105563
32.59434 -46.969432 -43.826366
32.023717 -46.871389 -44.594645
33.483849 -45.397043 -43.720516
32.59434 -46.969432 -43.826366
33.847071 -43.608141 -44.506342
33.483849 -45.397043 -43.720516
34.28439 -41.607645 -45.284491
33.847071 -43.608141 -44.506342
33.432588 -43.163345 -45.382206
34.708824 -39.501328 -46.085906
34.28439 -41.607645 -45.284491
34.197659 -39.151405 -46.987458
35.036575 -37.489884 -46.913008
34.708824 -39.501328 -46.085906
21.62771 -38.661722 -53.921303
20.516894 -40.103087 -53.522936
20.860353 -37.920468 -54.2778
22.778459 -37.204676 -54.24399
21.62771 -38.661722 -53.921303
23.10231 -35.050459 -55.012295
23.909599 -35.776032 -54.580118
22.778459 -37.204676 -54.24399
20.160811 -32.108425 -56.474635
20.940295 -32.782719 -56.190155
20.504555 -29.863323 -57.303804
20.160811 -32.108425 -56.474635
19.45552 -31.285946 -56.822815
35.385599 -6.08265 -59.867686
35.796919 -4.615399 -59.699492
36.037602 -6.723781 -58.903126
34.725697 -5.542741 -60.708299
35.385599 -6.08265 -59.867686
34.96638 -7.651123 -59.911934
34.00273 -5.114376 -61.557485
34.421949 -3.545902 -61.513237
34.725697 -5.542741 -60.708299
33.594031 -6.657633 -61.503727
33.722966 -8.649596 -60.781159
33.010519 -8.196013 -61.532337
34.00273 -5.114376 -61.557485
33.594031 -6.657633 -61.503727
31.655124 -3.542975 -63.877581
32.034146 -5.604767 -63.031555
30.838229 -3.039455 -64.575226
31.655124 -3.542975 -63.877581
30.337294 -4.484347 -64.457123
30.838229 -3.039455 -64.575226
29.700997 -5.950785 -64.35646
30.337294 -4.484347 -64.457123
30.550412 -6.47192 -63.707543
29.101372 -7.484664 -64.142117
28.888253 -5.49709 -64.891697
29.700997 -5.950785 -64.35646
16.989268 -44.343187 -52.333307
18.255063 -42.930038 -52.729956
17.769949 -45.109678 -52.038173
16.29356 -43.499422 -52.5788
16.989268 -44.343187 -52.333307
15.590435 -42.544081 -52.874047
16.771257 -41.208207 -53.320335
16.29356 -43.499422 -52.5788
37.009957 -5.905158 -57.730992
36.759481 -3.771242 -58.501597
38.418041 -13.089289 -53.486485
38.454125 -15.187342 -52.759003
38.310453 -11.211653 -54.233219
38.418041 -13.089289 -53.486485
37.969011 -12.59017 -54.51434
38.192634 -9.268673 -54.936335
38.310453 -11.211653 -54.233219
37.716207 -8.633159 -55.994062
38.192634 -9.268673 -54.936335
37.206873 -8.01291 -56.957327
37.716207 -8.633159 -55.994062
37.352089 -10.092284 -56.224339
36.645837 -7.364282 -57.961268
37.009957 -5.905158 -57.730992
37.206873 -8.01291 -56.957327
7.84502 -19.01649 -59.027245
7.576853 -21.002759 -58.147892
8.628482 -18.14844 -59.72934
7.84502 -19.01649 -59.027245
8.053085 -17.072655 -59.878098
9.112264 -14.15029 -61.531254
8.30754 -14.974988 -60.830317
9.666802 -15.275852 -61.271906
9.112264 -14.15029 -61.531254
10.3071 -16.320525 -61.097345
9.476845 -17.249277 -60.405632
9.666802 -15.275852 -61.271906
11.136967 -15.46492 -61.702973
10.94701 -17.438345 -60.836698
10.3071 -16.320525 -61.097345
11.950699 -14.653289 -62.29093
11.136967 -15.46492 -61.702973
12.610789 -15.75322 -61.994406
11.950699 -14.653289 -62.29093
14.933565 -41.446815 -53.148966
15.590435 -42.544081 -52.874047
14.287414 -40.372708 -53.443072
13.660098 -39.423483 -53.638859
15.421981 -39.178757 -53.909688
14.933565 -41.446815 -53.148966
14.287414 -40.372708 -53.443072
15.832646 -36.975741 -54.666987
16.478797 -38.049848 -54.372881
15.421981 -39.178757 -53.909688
16.247595 -34.812264 -55.434839
15.832646 -36.975741 -54.666987
15.190779 -35.941172 -54.971645
16.69138 -32.534715 -56.261902
16.247595 -34.812264 -55.434839
14.958146 -32.826868 -55.982786
14.485303 -35.06477 -55.158155
15.939118 -31.623137 -56.538236
14.958146 -32.826868 -55.982786
15.291536 -30.67231 -56.781525
17.024771 -30.380156 -57.060641
16.69138 -32.534715 -56.261902
15.939118 -31.623137 -56.538236
17.286243 -28.229782 -57.876435
18.038505 -29.14136 -57.6001
17.024771 -30.380156 -57.060641
14.325043 -26.211231 -58.251161
13.964559 -28.496727 -57.348514
13.947644 -23.103184 -59.369194
13.052487 -24.103051 -58.782452
13.307386 -22.045483 -59.624398
14.631845 -24.201215 -59.057844
13.947644 -23.103184 -59.369194
14.886745 -22.143648 -59.89979
15.264145 -25.251695 -58.781757
14.325043 -26.211231 -58.251161
14.631845 -24.201215 -59.057844
17.191972 -23.302632 -59.772114
16.271572 -24.285275 -59.273336
16.491346 -22.259036 -60.087217
18.156923 -22.035092 -60.333298
17.937148 -24.061331 -59.519417
17.191972 -23.302632 -59.772114
19.062818 -20.790948 -60.893124
18.156923 -22.035092 -60.333298
36.994026 -23.900148 -51.629959
37.517662 -22.271638 -51.577956
35.258921 -35.574461 -47.779472
35.770087 -35.924384 -46.877921
35.036575 -37.489884 -46.913008
35.788368 -31.45043 -49.407541
36.252861 -31.935823 -48.542488
35.527939 -33.523569 -48.609438
36.015802 -29.392635 -50.209778
35.788368 -31.45043 -49.407541
35.29088 -30.980382 -50.276727
36.220434 -27.38597 -50.950328
36.717922 -27.856019 -50.081142
36.015802 -29.392635 -50.209778
36.377607 -25.376501 -51.735313
36.220434 -27.38597 -50.950328
35.675488 -26.913117 -51.863948
36.449079 -23.427295 -52.543579
36.994026 -23.900148 -51.629959
36.377607 -25.376501 -51.735313
27.383513 -48.612976 -47.59651
28.156083 -48.921158 -46.926859
27.922832 -46.51339 -48.303507
27.383513 -48.612976 -47.59651
28.392254 -44.327535 -49.100789
29.032863 -44.822218 -48.452853
27.922832 -46.51339 -48.303507
28.735396 -42.234201 -49.896224
28.392254 -44.327535 -49.100789
29.077292 -40.191792 -50.673474
29.844181 -40.593954 -50.027384
28.735396 -42.234201 -49.896224
29.479125 -38.019735 -51.455025
29.077292 -40.191792 -50.673474
28.37034 -39.659982 -51.323864
25.492373 -37.200592 -53.578434
24.724792 -36.441114 -54.094801
26.253201 -37.775175 -53.063574
25.492373 -37.200592 -53.578434
26.624662 -35.526564 -53.862928
26.991971 -38.293087 -52.571926
25.859684 -39.967115 -52.287431
26.253201 -37.775175 -53.063574
28.078831 -36.794536 -52.726742
27.685313 -38.986477 -51.950599
26.991971 -38.293087 -52.571926
22.984765 -22.785181 -59.886839
22.780538 -24.931665 -59.042564
21.991104 -24.11174 -59.475893
23.935456 -21.430385 -60.31068
22.984765 -22.785181 -59.886839
23.146021 -20.610461 -60.744009
23.221477 -13.179721 -63.749558
24.070814 -13.696009 -63.410732
23.362737 -14.946742 -63.016316
23.110878 -11.397863 -64.483074
23.221477 -13.179721 -63.749558
36.181207 -3.312769 -59.450544
35.796919 -4.615399 -59.699492
27.065611 -4.633029 -65.953156
27.963549 -5.123995 -65.44289
27.39069 -6.540005 -65.187618
27.065611 -4.633029 -65.953156
26.134249 -4.280719 -66.406811
23.196952 -6.515083 -66.354343
24.118592 -6.796563 -66.061287
23.196952 -6.515083 -66.354343
22.71029 -7.874223 -65.920204
3 113 28 114
3 113 114 115
3 116 30 117
3 116 117 118
3 0 119 121
3 121 120 31
3 119 120 121
3 0 122 123
3 1 34 32
3 1 36 34
3 3 39 37
3 3 41 39
3 125 124 42
3 126 44 127
3 5 47 45
3 5 49 47
3 6 52 50
3 6 54 52
3 6 56 54
3 4 128 130
3 130 129 57
3 128 129 130
3 4 131 132
3 2 133 134
3 7 60 58
3 7 62 60
3 135 63 136
3 137 136 26
3 135 136 137
3 139 138 63
3 9 64 27
3 9 65 64
3 10 140 142
3 140 66 141
3 140 141 142
3 10 67 66
3 10 69 67
3 12 70 29
3 12 71 70
3 143 72 144
3 145 73 146
3 147 146 72
3 145 146 147
3 148 75 149
3 150 149 73
3 148 149 150
3 151 76 152
3 153 77 154
3 155 154 76
3 153 154 155
3 14 79 78
3 15 156 158
3 158 157 33
3 156 157 158
3 15 159 161
3 159 80 160
3 159 160 161
3 15 81 80
3 17 82 35
3 17 83 82
3 18 84 38
3 18 85 84
3 18 86 85
3 19 87 40
3 19 88 87
3 162 89 163
3 164 90 165
3 166 91 167
3 168 167 90
3 166 167 168
3 20 169 171
3 169 92 170
3 169 170 171
3 20 93 92
3 8 172 174
3 172 173 174
3 175 94 176
3 177 176 43
3 175 176 177
3 179 178 94
3 11 95 68
3 21 96 46
3 21 97 96
3 21 98 97
3 22 99 48
3 22 100 99
3 180 101 181
3 23 102 51
3 23 103 102
3 23 104 103
3 24 105 53
3 24 106 105
3 24 107 106
3 25 108 55
3 25 109 108
3 13 110 74
3 182 111 183
3 184 112 185
3 186 185 111
3 184 185 186
3 188 187 112
3 16 189 190
3 192 191 59
3 194 193 61
3 195 26 196
3 197 26 198
3 200 199 26
3 201 27 202
3 28 203 205
3 203 27 204
3 203 204 205
3 28 9 27
3 206 10 207
3 208 29 209
3 210 209 10
3 208 209 210
3 30 211 213
3 211 29 212
3 211 212 213
3 30 12 29
3 31 214 216
3 214 215 216
3 218 217 31
3 32 33 14
3 34 33 32
3 34 15 33
3 34 35 15
3 36 35 34
3 36 17 35
3 37 219 221
3 219 38 220
3 219 220 221
3 39 38 37
3 39 18 38
3 39 40 18
3 41 40 39
3 41 19 40
3 222 20 223
3 42 43 8
3 224 43 225
3 226 225 42
3 224 225 226
3 228 227 43
3 44 229 230
3 44 231 232
3 45 46 11
3 47 46 45
3 47 21 46
3 47 48 21
3 49 48 47
3 49 22 48
3 50 233 235
3 233 51 234
3 233 234 235
3 52 51 50
3 52 23 51
3 52 53 23
3 54 53 52
3 54 24 53
3 54 55 24
3 56 55 54
3 56 25 55
3 57 236 238
3 238 237 13
3 236 237 238
3 240 239 57
3 58 59 16
3 60 59 58
3 60 241 243
3 243 242 59
3 241 242 243
3 60 244 246
3 244 61 245
3 244 245 246
3 62 61 60
3 62 247 249
3 249 248 61
3 247 248 249
3 26 250 251
3 63 252 254
3 254 253 26
3 252 253 254
3 63 255 256
3 63 257 259
3 257 37 258
3 257 258 259
3 260 37 261
3 262 261 63
3 260 261 262
3 263 3 264
3 265 264 37
3 263 264 265
3 266 8 267
3 27 268 269
3 64 270 272
3 272 271 27
3 270 271 272
3 64 273 275
3 273 8 274
3 273 274 275
3 64 42 8
3 65 42 64
3 65 276 278
3 278 277 42
3 276 277 278
3 66 279 280
3 66 281 282
3 66 283 284
3 67 285 287
3 287 286 66
3 285 286 287
3 67 288 289
3 67 290 292
3 290 68 291
3 290 291 292
3 69 68 67
3 69 11 68
3 29 69 10
3 70 69 29
3 70 11 69
3 70 45 11
3 71 45 70
3 71 5 45
3 72 293 295
3 293 294 295
3 72 296 297
3 72 298 300
3 298 50 299
3 298 299 300
3 73 50 72
3 73 6 50
3 73 74 6
3 75 74 73
3 75 13 74
3 301 75 302
3 76 303 305
3 303 75 304
3 303 304 305
3 76 13 75
3 76 57 13
3 77 57 76
3 77 4 57
3 78 306 308
3 308 307 2
3 306 307 308
3 79 309 311
3 311 310 78
3 309 310 311
3 79 312 314
3 312 313 314
3 33 79 14
3 315 79 316
3 317 316 33
3 315 316 317
3 319 318 79
3 80 320 321
3 80 322 323
3 80 324 325
3 81 326 328
3 328 327 80
3 326 327 328
3 81 329 331
3 329 16 330
3 329 330 331
3 35 81 15
3 82 81 35
3 82 16 81
3 82 58 16
3 83 58 82
3 83 7 58
3 332 31 333
3 332 333 334
3 335 31 336
3 337 0 338
3 339 338 31
3 337 338 339
3 340 2 341
3 38 342 343
3 84 344 346
3 346 345 38
3 344 345 346
3 84 347 348
3 84 349 350
3 85 351 353
3 353 352 84
3 351 352 353
3 85 354 356
3 354 2 355
3 354 355 356
3 85 78 2
3 86 78 85
3 86 14 78
3 40 86 18
3 87 86 40
3 87 14 86
3 87 32 14
3 88 32 87
3 88 1 32
3 357 28 358
3 89 359 361
3 359 28 360
3 359 360 361
3 89 9 28
3 362 89 363
3 364 89 365
3 366 9 367
3 368 367 89
3 366 367 368
3 369 65 370
3 371 370 9
3 369 370 371
3 372 65 373
3 375 374 65
3 376 0 377
3 90 378 379
3 90 380 382
3 380 0 381
3 380 381 382
3 90 383 385
3 385 384 0
3 383 384 385
3 91 386 388
3 388 387 90
3 386 387 388
3 91 389 390
3 391 91 392
3 92 393 395
3 393 91 394
3 393 394 395
3 92 396 398
3 398 397 91
3 396 397 398
3 92 399 401
3 399 77 400
3 399 400 401
3 93 77 92
3 93 4 77
3 402 20 403
3 43 404 406
3 406 405 8
3 404 405 406
3 94 407 409
3 409 408 43
3 407 408 409
3 94 410 412
3 410 20 411
3 410 411 412
3 94 93 20
3 413 93 414
3 415 414 94
3 413 414 415
3 416 4 417
3 418 417 93
3 416 417 418
3 420 419 4
3 421 3 422
3 68 423 425
3 423 44 424
3 423 424 425
3 95 44 68
3 95 426 428
3 428 427 44
3 426 427 428
3 46 95 11
3 96 95 46
3 96 429 431
3 431 430 95
3 429 430 431
3 96 432 434
3 432 433 434
3 97 435 437
3 437 436 96
3 435 436 437
3 97 438 440
3 438 3 439
3 438 439 440
3 97 41 3
3 98 41 97
3 98 19 41
3 48 98 21
3 99 98 48
3 99 19 98
3 99 88 19
3 100 88 99
3 100 1 88
3 441 30 442
3 443 30 444
3 445 12 446
3 447 446 30
3 445 446 447
3 448 12 449
3 450 71 451
3 452 451 12
3 450 451 452
3 101 453 455
3 453 71 454
3 453 454 455
3 101 5 71
3 51 456 457
3 102 458 460
3 460 459 51
3 458 459 460
3 102 461 463
3 461 462 463
3 102 464 466
3 464 101 465
3 464 465 466
3 103 101 102
3 103 5 101
3 103 49 5
3 104 49 103
3 104 22 49
3 53 104 23
3 105 104 53
3 105 22 104
3 105 100 22
3 106 100 105
3 106 1 100
3 106 36 1
3 107 36 106
3 107 17 36
3 55 107 24
3 108 107 55
3 108 17 107
3 108 83 17
3 109 83 108
3 109 7 83
3 74 56 6
3 110 56 74
3 110 25 56
3 467 110 468
3 469 468 13
3 467 468 469
3 111 470 472
3 470 110 471
3 470 471 472
3 111 25 110
3 111 109 25
3 112 109 111
3 112 7 109
3 112 62 7
3 473 62 474
3 475 474 112
3 473 474 475
3 477 476 62
3 479 478 2
3 59 480 482
3 482 481 16
3 480 481 482
3 484 483 59
3 61 485 486
3 488 487 61
