ply
format ascii 1.0
element vertex 241
property float x
property float y
property float z
element face 191
property list uchar int vertex_index
end_header
2.087947 37.675297 -57.051666
20.39777 31.158201 -45.793301
8.721534 39.164883 -55.98106
12.59774 39.734653 -49.370541
9.624811 41.331745 -51.713696
12.026461 38.521164 -54.48978
15.036742 37.395069 -46.593624
17.287556 34.05043 -43.662697
17.862413 34.577801 -49.20908
5.351575 38.772797 -56.926365
1.047975 39.422447 -55.68964
13.874243 38.234241 -50.724979
12.310881 39.196274 -51.989182
13.622409 37.866772 -53.434055
19.673874 30.770187 -43.016453
18.255657 32.183098 -42.130978
18.746679 32.601986 -44.820572
17.642385 34.316444 -46.448692
19.180346 32.95718 -47.511467
-4.95987 36.889118 -54.630653
9.210777 40.273403 -53.904751
7.583994 40.459362 -54.631912
5.906688 40.485771 -55.13279
7.037131 39.107323 -56.521713
-1.896648 38.047337 -55.421791
11.093491 40.729912 -50.544327
10.784547 39.91531 -52.884331
10.400208 38.988537 -55.246399
1.639277 41.785622 -54.41877
2.628823 39.942478 -55.657734
13.911024 38.623821 -48.029079
15.231706 37.125206 -49.344135
16.911438 33.675224 -40.91074
16.313305 35.678055 -45.214493
16.396404 35.895073 -47.85957
16.595188 35.844021 -50.612274
4.869245 42.025818 -53.914089
4.238549 40.151749 -55.607819
3.681157 38.36602 -57.033447
3.176619 36.302006 -58.482548
1.317903 37.307735 -56.955951
0.797917 38.18131 -56.274938
1.567961 38.548872 -56.370653
1.871242 36.515622 -57.685295
1.317903 37.307735 -56.955951
14.389717 37.425316 -52.723402
13.748326 38.050506 -52.079517
14.515634 37.60905 -51.368864
20.612345 31.463307 -47.278652
20.003633 32.362797 -48.137736
19.789058 32.05769 -46.652384
-4.352227 35.708689 -55.110895
-4.211769 37.142729 -54.841858
-4.99702 35.326559 -54.857727
-4.352227 35.708689 -55.110895
-1.367836 37.114916 -55.98968
-1.175801 38.450215 -55.497551
-2.124678 36.669237 -55.765487
-1.367836 37.114916 -55.98968
11.845616 40.232282 -49.957434
11.203851 41.141157 -49.336168
11.955976 40.643528 -48.749276
2.462804 41.899254 -54.315901
1.912438 42.920136 -53.736379
2.957577 40.977682 -54.935383
2.13405 40.86405 -55.038252
2.462804 41.899254 -54.315901
14.473883 38.009445 -47.311352
13.884476 38.803869 -46.731302
14.447336 38.189493 -46.013575
16.625928 34.844914 -43.057957
16.437869 34.657311 -41.681978
17.099497 33.862827 -42.286718
16.80043 34.864243 -44.438595
16.138803 35.658726 -43.833855
16.625928 34.844914 -43.057957
17.956285 34.640417 -50.62488
17.322672 35.273527 -51.326477
17.2288 35.210911 -49.910677
9.044633 42.238889 -51.071381
9.787394 41.862631 -50.566921
5.649405 42.018757 -53.635131
5.137398 42.927328 -53.028476
3.756755 35.624872 -59.341811
3.965 36.596165 -58.562609
2.982 35.190958 -59.178787
3.756755 35.624872 -59.341811
0.296511 39.137769 -55.631475
0.51584 40.405834 -55.102951
0.296511 39.137769 -55.631475
0.797917 38.18131 -56.274938
15.00032 37.399258 -45.286367
14.447336 38.189493 -46.013575
18.964765 31.476643 -42.573715
18.662317 31.167237 -41.20875
19.371426 30.460782 -41.651488
19.350354 33.118132 -48.89736
18.691387 33.928442 -49.746167
18.52138 33.767491 -48.360274
19.350354 33.118132 -48.89736
20.003633 32.362797 -48.137736
-4.791605 38.278778 -54.414867
-4.211769 37.142729 -54.841858
-5.604338 38.093901 -54.261999
-4.791605 38.278778 -54.414867
-5.648552 36.524744 -54.445877
-5.604338 38.093901 -54.261999
-5.648552 36.524744 -54.445877
-4.99702 35.326559 -54.857727
8.622943 41.052 -53.23024
8.82996 41.581171 -52.134712
9.417794 40.802574 -52.809224
7.809552 41.144979 -53.59382
8.622943 41.052 -53.23024
8.397386 40.366383 -54.268332
7.006779 41.235529 -53.994043
7.809552 41.144979 -53.59382
6.745341 40.472566 -54.882351
6.168126 41.248734 -54.244482
7.006779 41.235529 -53.994043
20.157494 29.731697 -42.144897
19.371426 30.460782 -41.651488
20.523238 30.060543 -43.509533
20.157494 29.731697 -42.144897
20.885185 30.25455 -44.897957
20.035822 30.964194 -44.404877
20.523238 30.060543 -43.509533
21.175262 30.632681 -46.374825
20.885185 30.25455 -44.897957
-1.704683 39.445894 -54.97077
-1.175801 38.450215 -55.497551
-2.465885 39.144999 -54.917214
-1.704683 39.445894 -54.97077
-2.680159 37.721838 -55.237426
-2.465885 39.144999 -54.917214
-2.680159 37.721838 -55.237426
-2.124678 36.669237 -55.765487
10.521735 41.561715 -49.982237
11.203851 41.141157 -49.336168
10.359151 41.030828 -51.129012
9.787394 41.862631 -50.566921
10.521735 41.561715 -49.982237
1.095236 42.716106 -53.941895
1.912438 42.920136 -53.736379
0.811491 41.587421 -54.467516
1.095236 42.716106 -53.941895
1.343626 40.604034 -55.054205
0.51584 40.405834 -55.102951
0.811491 41.587421 -54.467516
12.642044 40.019035 -48.107574
11.955976 40.643528 -48.749276
13.298686 39.463619 -47.436844
13.884476 38.803869 -46.731302
13.254382 39.179237 -48.69981
12.642044 40.019035 -48.107574
13.298686 39.463619 -47.436844
15.194365 37.054533 -50.678442
14.515634 37.60905 -51.368864
14.552975 37.679723 -50.034557
17.96422 31.974003 -40.761074
18.662317 31.167237 -41.20875
17.29211 32.720066 -40.150955
17.96422 31.974003 -40.761074
17.583548 32.929161 -41.520859
16.63378 33.550912 -39.49351
17.29211 32.720066 -40.150955
16.264284 34.597403 -40.326366
16.63378 33.550912 -39.49351
16.264284 34.597403 -40.326366
16.437869 34.657311 -41.681978
15.638602 36.540751 -44.596802
16.138803 35.658726 -43.833855
15.675023 36.536562 -45.904058
15.00032 37.399258 -45.286367
15.638602 36.540751 -44.596802
15.876107 36.41394 -51.312511
15.194365 37.054533 -50.678442
15.913447 36.484613 -49.978205
16.575405 35.839958 -52.011291
15.876107 36.41394 -51.312511
16.575405 35.839958 -52.011291
17.322672 35.273527 -51.326477
17.956285 34.640417 -50.62488
18.691387 33.928442 -49.746167
20.612345 31.463307 -47.278652
21.175262 30.632681 -46.374825
9.044633 42.238889 -51.071381
8.82996 41.581171 -52.134712
4.322287 43.005188 -53.309333
5.137398 42.927328 -53.028476
4.077788 42.019352 -54.06356
4.322287 43.005188 -53.309333
5.387967 41.255795 -54.523439
5.649405 42.018757 -53.635131
6.168126 41.248734 -54.244482
3.76244 41.082318 -54.910426
4.077788 42.019352 -54.06356
4.553897 41.088784 -54.760954
3.433686 40.047114 -55.632776
2.957577 40.977682 -54.935383
3.76244 41.082318 -54.910426
14.329531 37.295929 -54.014076
14.389717 37.425316 -52.723402
13.522719 37.595247 -54.688659
14.329531 37.295929 -54.014076
12.724745 37.922443 -55.216522
12.824435 38.193968 -53.961917
13.522719 37.595247 -54.688659
11.831169 38.160562 -55.642532
12.724745 37.922443 -55.216522
11.018043 38.394249 -56.020842
11.213334 38.754851 -54.868089
11.831169 38.160562 -55.642532
10.131625 38.487589 -56.371071
11.018043 38.394249 -56.020842
9.292288 38.575762 -56.738401
9.560871 39.07671 -55.613729
10.131625 38.487589 -56.371071
8.449949 38.535162 -56.998282
9.292288 38.575762 -56.738401
7.607748 38.506382 -57.268608
7.879333 39.136103 -56.251386
8.449949 38.535162 -56.998282
6.752485 38.340668 -57.443678
7.607748 38.506382 -57.268608
5.909707 38.173405 -57.646004
6.194353 38.94006 -56.724039
6.752485 38.340668 -57.443678
5.052478 37.83156 -57.784517
5.909707 38.173405 -57.646004
4.217268 37.628172 -57.838059
4.516366 38.569408 -56.979906
5.052478 37.83156 -57.784517
3.428888 37.334013 -57.757998
4.217268 37.628172 -57.838059
3.965 36.596165 -58.562609
2.415578 35.828976 -58.400736
1.871242 36.515622 -57.685295
2.632283 36.988652 -57.767107
2.415578 35.828976 -58.400736
2.982 35.190958 -59.178787
3 0 40 42
3 42 41 10
3 40 41 42
3 0 43 44
3 45 13 46
3 47 46 11
3 45 46 47
3 1 16 14
3 1 18 16
3 1 48 50
3 50 49 18
3 48 49 50
3 51 19 52
3 54 53 19
3 2 21 20
3 2 23 21
3 55 24 56
3 58 57 24
3 3 59 61
3 59 25 60
3 59 60 61
3 5 26 12
3 5 27 26
3 62 28 63
3 64 29 65
3 66 65 28
3 64 65 66
3 6 67 69
3 67 30 68
3 67 68 69
3 6 31 30
3 7 32 15
3 7 70 72
3 72 71 32
3 70 71 72
3 7 73 75
3 73 33 74
3 73 74 75
3 8 34 17
3 8 35 34
3 8 76 78
3 78 77 35
3 76 77 78
3 4 79 80
3 81 36 82
3 9 37 22
3 9 38 37
3 83 39 84
3 86 85 39
3 10 87 88
3 90 89 10
3 11 12 3
3 13 12 11
3 13 5 12
3 91 6 92
3 14 93 95
3 93 15 94
3 93 94 95
3 16 15 14
3 16 7 15
3 16 17 7
3 18 17 16
3 18 8 17
3 18 96 98
3 98 97 8
3 96 97 98
3 100 99 18
3 19 101 102
3 19 103 104
3 19 105 106
3 108 107 19
3 20 109 111
3 111 110 4
3 109 110 111
3 21 112 114
3 114 113 20
3 112 113 114
3 21 115 116
3 21 117 119
3 117 22 118
3 117 118 119
3 23 22 21
3 23 9 22
3 120 14 121
3 122 14 123
3 124 1 125
3 126 125 14
3 124 125 126
3 128 127 1
3 24 129 130
3 24 131 132
3 24 133 134
3 136 135 24
3 25 137 138
3 25 139 141
3 139 4 140
3 139 140 141
3 12 25 3
3 26 25 12
3 26 4 25
3 26 20 4
3 27 20 26
3 27 2 20
3 28 142 143
3 28 144 145
3 28 146 148
3 146 10 147
3 146 147 148
3 29 10 28
3 29 0 10
3 149 3 150
3 30 151 152
3 30 153 155
3 153 3 154
3 153 154 155
3 30 11 3
3 31 11 30
3 31 156 158
3 158 157 11
3 156 157 158
3 15 159 160
3 32 161 163
3 163 162 15
3 161 162 163
3 32 164 165
3 32 166 167
3 169 168 32
3 33 170 171
3 33 172 174
3 172 6 173
3 172 173 174
3 17 33 7
3 34 33 17
3 34 6 33
3 34 31 6
3 35 31 34
3 35 175 177
3 177 176 31
3 175 176 177
3 35 178 179
3 181 180 35
3 183 182 8
3 185 184 1
3 187 186 4
3 36 188 189
3 36 190 191
3 22 192 194
3 192 36 193
3 192 193 194
3 37 36 22
3 37 195 197
3 197 196 36
3 195 196 197
3 37 198 200
3 198 29 199
3 198 199 200
3 38 29 37
3 38 0 29
3 201 13 202
3 203 13 204
3 205 5 206
3 207 206 13
3 205 206 207
3 208 5 209
3 210 27 211
3 212 211 5
3 210 211 212
3 213 27 214
3 215 2 216
3 217 216 27
3 215 216 217
3 218 2 219
3 220 23 221
3 222 221 2
3 220 221 222
3 223 23 224
3 225 9 226
3 227 226 23
3 225 226 227
3 228 9 229
3 230 38 231
3 232 231 9
3 230 231 232
3 39 233 235
3 233 38 234
3 233 234 235
3 39 0 38
3 39 236 238
3 238 237 0
3 236 237 238
3 240 239 39
