ply
format ascii 1.0
element vertex 554
property float x
property float y
property float z
element face 556
property list uchar int vertex_index
end_header
-5.021052 -33.927101 -44.134991
-14.461926 -37.684673 -31.60664
3.057129 -39.254333 -50.354649
0.38532 -28.850594 -50.804909
-9.805895 -36.817955 -37.712406
-10.55094 -27.327602 -36.876335
-5.337533 -24.225563 -43.484829
-1.063585 -19.281502 -50.507858
3.276666 -12.904658 -58.049446
10.959805 -31.836931 -55.518749
-7.698593 -41.340847 -41.149689
-4.828001 -39.383305 -44.439568
-1.714025 -37.096523 -47.613861
-2.378853 -31.628777 -47.489765
-12.124 -37.494144 -34.596733
-8.921474 -22.108322 -39.573311
-7.734025 -26.126661 -40.218906
-6.10212 -20.3703 -43.001514
1.010359 -16.184998 -54.27874
5.09691 -30.57962 -53.699284
7.097048 -35.729259 -53.045143
8.777035 -26.831591 -56.532738
-16.692936 -37.491707 -28.869761
1.570055 -34.047184 -50.684971
3.416296 -25.558735 -54.17783
-7.408796 -35.598553 -40.959377
-17.874165 -32.401768 -28.316063
-14.977753 -32.65683 -31.406055
-13.517999 -27.771023 -33.766842
-12.419728 -32.357655 -34.255943
-9.778469 -31.729252 -37.428913
-7.402918 -30.551376 -40.555077
-5.095305 -28.862911 -43.810589
-5.035266 -15.16153 -45.492462
-3.780631 -18.347557 -46.353893
-3.150345 -22.178856 -46.874313
-2.741199 -26.643578 -47.294666
-0.313185 -23.653267 -50.944824
9.055471 -40.765041 -52.2798
-6.363271 -37.759575 -42.57954
-6.305643 -40.581055 -42.797871
-4.982109 -36.600807 -44.26125
-3.586921 -35.580498 -45.891552
-3.727951 -32.854588 -45.798321
-13.224238 -40.284054 -33.331291
-13.271041 -37.643181 -33.109188
-7.479469 -21.476006 -41.219223
-6.844587 -18.767365 -42.541447
5.924092 -26.152817 -55.529606
6.920376 -28.525734 -55.208832
7.669884 -24.310488 -56.989151
-0.568431 -32.889679 -49.21014
-0.108983 -35.705635 -49.13435
0.971148 -31.293394 -50.835293
2.553969 -29.582937 -52.443626
1.894538 -27.229998 -52.526093
-11.082416 -39.891201 -36.307491
-9.95146 -39.502735 -37.862514
-8.608869 -36.270897 -39.339989
-16.463659 -32.561546 -29.816422
-15.778938 -30.377287 -30.95216
-11.968136 -27.460854 -35.381821
-12.851191 -30.024622 -34.044052
-11.461628 -29.90357 -35.552612
-11.090792 -32.299232 -35.805538
-10.086149 -29.43528 -37.148087
-6.506559 -25.276848 -41.836567
-7.478789 -28.212496 -40.424713
-6.295749 -27.279675 -42.038826
-6.297534 -29.814312 -42.087658
-5.201573 -26.502409 -43.607555
-3.180757 -2.451711 -51.895668
-2.482432 -9.556389 -50.341003
-3.352441 -8.20309 -49.659512
-3.453541 -10.889563 -48.64222
-4.553628 -12.398669 -46.874939
-3.838731 -13.852109 -47.27655
-4.281425 -16.791893 -45.977463
-3.208428 -15.245732 -47.76619
-1.477997 -17.583488 -50.072868
-2.454705 -19.042572 -48.278233
-2.140401 -20.919077 -48.58535
-2.90076 -24.261385 -47.154205
-1.784299 -22.756624 -48.974686
-1.544715 -25.140055 -49.096497
-0.687689 -21.315855 -50.789398
2.104189 -14.575431 -56.173569
1.487695 -18.462677 -54.328495
2.724533 -16.728132 -56.225857
1.626958 -44.079948 -48.608829
3.772247 -42.156319 -50.017494
8.989397 -33.63028 -54.349937
8.071516 -38.321777 -52.650246
10.039312 -36.126534 -53.899845
-4.734184 -42.61866 -44.441265
-3.085865 -41.418121 -45.978622
-3.351477 -38.434525 -45.984768
-2.123996 -34.419418 -47.523533
-1.040462 -30.320833 -49.117676
-12.135638 -40.041344 -34.828419
-10.946214 -37.21376 -36.165707
-9.672955 -24.672468 -38.258442
-9.110826 -26.863096 -38.523529
-8.237055 -24.189396 -39.883511
-6.913719 -23.302509 -41.545235
-5.703093 -22.284168 -43.184803
-2.274889 -3.830996 -52.570251
-0.047427 -17.916796 -52.328354
0.498485 -14.361269 -53.961105
1.474319 -12.67296 -55.895691
4.105123 -34.789661 -51.997036
4.989758 -37.714027 -51.639008
6.013562 -33.152027 -53.363853
7.829635 -31.351505 -54.661076
9.879539 -29.056679 -56.134983
11.817808 -27.253681 -57.324623
10.654131 -24.766039 -57.904034
-15.593947 -37.627205 -30.208632
1.036837 -41.121704 -48.876022
-1.313932 -39.925663 -47.551521
0.330239 -38.432556 -48.95723
2.220126 -36.747993 -50.483742
3.319237 -32.153351 -52.267712
4.274629 -27.901854 -54.049484
4.993495 -23.817327 -55.781727
-9.018455 -42.021435 -39.499084
-7.593148 -38.433243 -41.005962
-6.199083 -34.804794 -42.581364
-18.448402 -34.791843 -27.184626
-17.22798 -34.889217 -28.574413
-15.925651 -34.923943 -30.059273
-14.655306 -35.192177 -31.49086
-14.259787 -30.177059 -32.555565
-13.716691 -32.759987 -32.770737
-13.32722 -35.126633 -33.051865
-12.131828 -34.964134 -34.501732
-10.962366 -34.786701 -35.972473
-9.77703 -34.288868 -37.512875
-8.68283 -28.859293 -38.867172
-8.517778 -31.086393 -39.054737
-8.602911 -33.759052 -39.087196
-7.353154 -33.072819 -40.792984
-6.247518 -32.245003 -42.315331
-5.051833 -31.228228 -43.973289
-3.229933 -5.411667 -50.783005
-5.479628 -17.845926 -44.273777
-4.915319 -19.601425 -44.605843
-4.487835 -21.337162 -44.937225
-3.434168 -20.203009 -46.609863
-4.228986 -23.34951 -45.141541
-4.074644 -25.454817 -45.30817
-3.875439 -27.66745 -45.605007
-3.864786 -30.350607 -45.628448
-2.595378 -29.043751 -47.385132
-1.291693 -27.587633 -49.169716
0.023568 -26.220226 -50.917969
0.441343 -19.838053 -52.652508
0.874867 -22.144991 -52.70406
1.340593 -24.798794 -52.602962
2.711498 -23.288736 -54.272991
5.99103 -40.263908 -51.386536
6.947749 -42.643188 -51.129894
-14.364539 -38.996488 -31.756147
-14.930559 -38.949981 -30.994515
-13.866484 -37.663927 -32.357914
-13.769096 -38.975742 -32.507421
-14.364539 -38.996488 -31.756147
-7.273741 -17.826937 -42.397599
-7.519527 -19.169665 -41.749566
7.201586 -23.111866 -57.203224
6.796988 -25.231652 -56.259378
6.32869 -24.03303 -56.473451
8.045151 -22.201381 -57.933819
7.201586 -23.111866 -57.203224
-16.182059 -29.118623 -30.827371
-16.502121 -30.296703 -30.218668
-11.259538 -27.394228 -36.129078
-11.532287 -26.24916 -36.062048
-10.82369 -26.182534 -36.809305
-2.756862 -1.716925 -52.69727
-3.250259 -0.936188 -52.337128
-3.119619 -11.605848 -48.868819
-2.967987 -10.222976 -49.491612
-2.634064 -10.939261 -49.71821
-3.312214 -13.087121 -48.185983
-3.646136 -12.370836 -47.959385
-3.119619 -11.605848 -48.868819
-2.997062 -13.783932 -48.430803
-3.52358 -14.548921 -47.52137
-3.312214 -13.087121 -48.185983
3.635747 -14.045568 -58.006359
3.359681 -15.957304 -57.094565
3.000599 -14.816395 -57.137652
11.554272 -33.016234 -55.27975
11.094026 -35.161036 -54.470298
10.499558 -33.981732 -54.709297
11.96579 -30.784337 -56.120351
11.554272 -33.016234 -55.27975
-7.766386 -42.897957 -41.183605
-8.444639 -43.237852 -40.391913
-5.539 -41.408075 -43.682793
-6.27782 -42.006951 -42.861944
-5.566822 -39.98218 -43.618719
-4.781092 -41.000982 -44.440416
-5.492091 -43.025753 -43.683642
-5.539 -41.408075 -43.682793
-9.6546 -22.369511 -38.788576
-9.373209 -21.106932 -39.414934
-9.297214 -23.390395 -38.915876
-10.030341 -23.651584 -38.131141
-9.6546 -22.369511 -38.788576
0.25874 -13.383492 -53.803583
0.008761 -15.108419 -52.99666
1.648594 -10.959457 -56.67882
1.188772 -11.838646 -55.699772
1.974768 -11.77567 -56.851152
1.648594 -10.959457 -56.67882
-16.605731 -38.883299 -28.880249
-17.139111 -38.701683 -28.182005
-16.143442 -37.559456 -29.539197
-16.056237 -38.951048 -29.549685
-16.605731 -38.883299 -28.880249
0.063165 -41.973067 -48.133886
0.328808 -43.360106 -48.071037
-9.588188 -42.262125 -38.753454
-9.728001 -43.889725 -38.793909
-7.500972 -37.015898 -40.98267
-8.142346 -38.680151 -40.279672
-8.05017 -37.262806 -40.25638
-18.545319 -32.445085 -27.563932
-18.310281 -31.345828 -28.08933
-18.161284 -33.596806 -27.750345
-18.832438 -33.640123 -26.998214
-18.545319 -32.445085 -27.563932
-13.891036 -26.626798 -33.67169
-13.090148 -26.566517 -34.453522
-14.280358 -27.872498 -32.988237
-13.891036 -26.626798 -33.67169
-13.888893 -28.974041 -33.161203
-14.651252 -29.075516 -32.382599
-14.280358 -27.872498 -32.988237
-2.796895 -6.085645 -51.104542
-2.752411 -4.621332 -51.676628
-2.319373 -5.29531 -51.998165
-3.813832 -7.407273 -49.417168
-3.874853 -8.889947 -48.827776
-5.424058 -14.270056 -45.363747
-5.183239 -12.888625 -46.054985
-4.794447 -13.7801 -46.183701
-5.663584 -15.703909 -44.662312
-5.424058 -14.270056 -45.363747
-5.257447 -16.503728 -44.88312
-5.885765 -17.046107 -44.052969
-5.663584 -15.703909 -44.662312
1.492595 -21.401941 -53.572176
1.181281 -20.303834 -53.516278
1.799009 -19.560783 -54.384394
1.725458 -22.728842 -53.521627
1.10773 -23.471893 -52.653511
1.492595 -21.401941 -53.572176
2.410911 -21.973813 -54.356641
2.026045 -24.043765 -53.437976
1.725458 -22.728842 -53.521627
8.532174 -43.065084 -51.533609
7.478313 -44.004158 -50.958656
8.00161 -41.704115 -51.704847
9.714953 -41.816892 -52.158318
8.532174 -43.065084 -51.533609
12.755276 -26.207216 -57.925936
12.115018 -25.149516 -58.181139
-13.745694 -40.296179 -32.618473
-13.860867 -41.797317 -32.579911
-13.24764 -38.963617 -33.22024
-13.745694 -40.296179 -32.618473
-13.769096 -38.975742 -32.507421
-8.55797 -20.840143 -40.265497
-9.373209 -21.106932 -39.414934
-7.836968 -20.523985 -41.088453
-8.200471 -21.792164 -40.396267
-8.55797 -20.840143 -40.265497
-7.162028 -20.121686 -41.880335
-7.836968 -20.523985 -41.088453
-7.519527 -19.169665 -41.749566
8.530532 -23.415163 -57.659762
9.084108 -24.675714 -57.431555
8.22346 -25.571039 -56.760945
8.530532 -23.415163 -57.659762
8.045151 -22.201381 -57.933819
-17.272218 -37.384058 -28.169802
-17.139111 -38.701683 -28.182005
-11.179816 -41.430321 -36.403184
-11.721376 -41.507318 -35.630163
-10.614338 -41.236087 -37.180696
-11.179816 -41.430321 -36.403184
-10.516938 -39.696968 -37.085003
-10.05469 -41.002775 -37.935169
-10.614338 -41.236087 -37.180696
-9.321502 -39.214897 -38.707949
-10.05469 -41.002775 -37.935169
-8.650206 -37.598978 -39.446686
-9.321502 -39.214897 -38.707949
-9.280165 -37.886816 -38.601252
-8.008833 -35.934725 -40.149683
-8.05017 -37.262806 -40.25638
-8.650206 -37.598978 -39.446686
-17.549734 -31.308943 -28.900619
-18.310281 -31.345828 -28.08933
-16.844482 -31.388832 -29.650799
-17.168912 -32.481657 -29.066243
-17.549734 -31.308943 -28.900619
-16.121299 -31.469417 -30.384291
-16.844482 -31.388832 -29.650799
-16.502121 -30.296703 -30.218668
-12.315217 -26.411433 -35.261012
-11.532287 -26.24916 -36.062048
-12.743067 -27.615938 -34.574331
-13.090148 -26.566517 -34.453522
-12.315217 -26.411433 -35.261012
-3.730982 -1.728257 -51.525913
-3.250259 -0.936188 -52.337128
-3.706122 -3.147896 -51.054661
-3.730982 -1.728257 -51.525913
-2.917436 -8.879739 -50.000258
-2.858148 -7.481357 -50.542795
-2.423144 -8.158006 -50.883541
-3.925403 -10.233184 -48.31913
-3.874853 -8.889947 -48.827776
-3.402991 -9.546326 -49.150866
-4.003584 -11.644116 -47.758579
-4.475447 -10.987737 -47.43549
-3.925403 -10.233184 -48.31913
-1.966351 -18.31303 -49.17555
-2.142086 -17.388863 -49.033066
-1.653732 -16.659322 -49.930384
2.417428 -18.693511 -55.333074
1.799009 -19.560783 -54.384394
2.106114 -17.595405 -55.277176
3.081781 -17.942394 -56.188505
2.417428 -18.693511 -55.333074
3.081781 -17.942394 -56.188505
3.359681 -15.957304 -57.094565
2.097799 -45.280144 -48.592484
0.93744 -46.211383 -47.877096
3.170443 -44.318329 -49.296816
2.097799 -45.280144 -48.592484
2.699603 -43.118133 -49.313161
4.262669 -43.447969 -49.928777
3.170443 -44.318329 -49.296816
10.624586 -37.308604 -53.692587
10.132665 -39.627857 -52.882565
9.547391 -38.445787 -53.089822
10.624586 -37.308604 -53.692587
11.094026 -35.161036 -54.470298
-7.06991 -42.518061 -42.007697
-7.766386 -42.897957 -41.183605
-7.002118 -40.960951 -41.97378
-7.06991 -42.518061 -42.007697
-6.27782 -42.006951 -42.861944
-5.505769 -44.575175 -43.664057
-5.492091 -43.025753 -43.683642
-4.65667 -44.12231 -44.42415
-5.505769 -44.575175 -43.664057
-3.910025 -42.01839 -45.209944
-3.832511 -43.522041 -45.192829
-4.65667 -44.12231 -44.42415
-13.302651 -41.673418 -33.386637
-13.860867 -41.797317 -32.579911
-12.758351 -41.552063 -34.1352
-13.302651 -41.673418 -33.386637
-12.679938 -40.162699 -34.079855
-12.247987 -41.58239 -34.890627
-12.758351 -41.552063 -34.1352
-11.609027 -39.966273 -35.567955
-11.721376 -41.507318 -35.630163
-12.247987 -41.58239 -34.890627
-10.384697 -24.854967 -37.500359
-10.030341 -23.651584 -38.131141
-10.111947 -26.000035 -37.567388
-10.82369 -26.182534 -36.809305
-10.384697 -24.854967 -37.500359
-1.851347 -2.979981 -53.486345
-2.303928 -2.406567 -53.034561
-1.906287 -4.51941 -52.864418
-1.851347 -2.979981 -53.486345
-2.319373 -5.29531 -51.998165
-1.906287 -4.51941 -52.864418
-2.027929 -8.797035 -51.253304
-2.423144 -8.158006 -50.883541
-2.150125 -10.240827 -50.629663
-2.027929 -8.797035 -51.253304
-2.634064 -10.939261 -49.71821
-2.150125 -10.240827 -50.629663
-1.188792 -15.901547 -50.860062
-1.653732 -16.659322 -49.930384
-0.97948 -16.719528 -51.052542
-1.188792 -15.901547 -50.860062
-0.772274 -17.568535 -51.270037
-1.270791 -18.432495 -50.290363
-0.97948 -16.719528 -51.052542
-0.264195 -16.886183 -52.180284
-0.555506 -18.599149 -51.418106
-0.772274 -17.568535 -51.270037
0.225529 -16.139032 -53.144729
-0.264195 -16.886183 -52.180284
0.008761 -15.108419 -52.99666
0.700855 -12.682801 -54.732479
0.25874 -13.383492 -53.803583
0.986402 -13.517114 -54.928398
0.700855 -12.682801 -54.732479
1.188772 -11.838646 -55.699772
2.289703 -12.726906 -56.990092
1.789254 -13.624195 -56.03463
1.974768 -11.77567 -56.851152
2.875941 -11.891519 -57.92803
2.690428 -13.740044 -57.111508
2.289703 -12.726906 -56.990092
11.53318 -23.905695 -58.470844
12.115018 -25.149516 -58.181139
11.235969 -26.00986 -57.614328
10.022656 -23.642938 -58.117203
9.715583 -25.798815 -57.218386
9.084108 -24.675714 -57.431555
10.925482 -22.752646 -58.755365
10.022656 -23.642938 -58.117203
11.53318 -23.905695 -58.470844
10.925482 -22.752646 -58.755365
-15.496569 -38.921247 -30.29551
-16.056237 -38.951048 -29.549685
-15.027936 -37.655939 -30.907636
-14.930559 -38.949981 -30.994515
-15.496569 -38.921247 -30.29551
0.623868 -44.839227 -47.937441
0.93744 -46.211383 -47.877096
1.331897 -42.600826 -48.742425
0.623868 -44.839227 -47.937441
0.328808 -43.360106 -48.071037
-2.930999 -42.78877 -45.956436
-3.832511 -43.522041 -45.192829
-2.045033 -42.042541 -46.742885
-2.930999 -42.78877 -45.956436
-2.199899 -40.671892 -46.765072
-1.11222 -41.375046 -47.471636
-2.045033 -42.042541 -46.742885
-0.290134 -40.628493 -48.17449
-1.11222 -41.375046 -47.471636
-0.491847 -39.179109 -48.254376
0.683538 -39.77713 -48.916626
0.063165 -41.973067 -48.133886
-0.290134 -40.628493 -48.17449
5.863392 -22.865285 -56.599512
6.32869 -24.03303 -56.473451
5.458794 -24.985072 -55.655666
-9.10457 -43.578146 -39.56661
-9.728001 -43.889725 -38.793909
-8.358524 -41.681141 -40.324387
-8.444639 -43.237852 -40.391913
-9.10457 -43.578146 -39.56661
-8.854999 -40.474247 -39.526234
-9.588188 -42.262125 -38.753454
-8.305801 -40.227339 -40.252523
-8.854999 -40.474247 -39.526234
-8.142346 -38.680151 -40.279672
-19.085268 -34.714247 -26.455443
-18.832438 -33.640123 -26.998214
-18.73644 -35.8938 -26.62671
-19.085268 -34.714247 -26.455443
-18.149951 -36.034126 -27.327235
-18.73644 -35.8938 -26.62671
-17.53974 -36.082813 -28.022128
-18.149951 -36.034126 -27.327235
-17.838191 -34.84053 -27.87952
-16.960458 -36.190462 -28.722087
-17.272218 -37.384058 -28.169802
-17.53974 -36.082813 -28.022128
-15.410827 -29.175629 -31.580896
-16.182059 -29.118623 -30.827371
-15.019362 -30.277173 -31.753863
-15.410827 -29.175629 -31.580896
-14.651252 -29.075516 -32.382599
-2.727823 -3.141354 -52.232959
-2.756862 -1.716925 -52.69727
-2.303928 -2.406567 -53.034561
-3.73071 -4.627874 -50.498329
-3.706122 -3.147896 -51.054661
-3.205345 -3.931689 -51.339337
-3.291187 -6.807378 -50.221259
-2.796895 -6.085645 -51.104542
-2.858148 -7.481357 -50.542795
-3.752578 -6.011562 -49.978915
-3.291187 -6.807378 -50.221259
-3.813832 -7.407273 -49.417168
-3.73071 -4.627874 -50.498329
-3.752578 -6.011562 -49.978915
-5.066019 -11.557357 -46.631298
-4.475447 -10.987737 -47.43549
-5.066019 -11.557357 -46.631298
-5.183239 -12.888625 -46.054985
-6.568245 -17.506827 -43.186804
-7.273741 -17.826937 -42.397599
-6.162107 -18.306646 -43.407612
-6.568245 -17.506827 -43.186804
-5.885765 -17.046107 -44.052969
-2.730916 -14.564049 -48.625712
-2.997062 -13.783932 -48.430803
-2.971759 -16.074058 -47.953091
-2.730916 -14.564049 -48.625712
-3.257861 -17.62497 -47.246943
-3.49453 -16.796644 -47.060041
-2.971759 -16.074058 -47.953091
-2.594898 -17.972478 -48.209113
-2.142086 -17.388863 -49.033066
-3.084629 -18.552697 -47.374927
-2.594898 -17.972478 -48.209113
-2.944437 -19.622791 -47.444048
-3.6074 -19.275283 -46.481878
-3.257861 -17.62497 -47.246943
-3.084629 -18.552697 -47.374927
3.075264 -21.222696 -55.212072
2.410911 -21.973813 -54.356641
3.471999 -22.340535 -55.171183
3.075264 -21.222696 -55.212072
3.824399 -23.475535 -55.123602
3.063897 -24.423735 -54.22541
3.471999 -22.340535 -55.171183
4.612998 -22.60483 -55.92555
4.204896 -24.688031 -54.979778
3.824399 -23.475535 -55.123602
5.347929 -21.761351 -56.710509
4.612998 -22.60483 -55.92555
5.863392 -22.865285 -56.599512
5.347929 -21.761351 -56.710509
3.427435 -11.032069 -58.871092
2.875941 -11.891519 -57.92803
3.851572 -11.96825 -58.945915
3.427435 -11.032069 -58.871092
3.635747 -14.045568 -58.006359
3.851572 -11.96825 -58.945915
5.37206 -42.501764 -50.613298
4.262669 -43.447969 -49.928777
4.881639 -41.210114 -50.702015
5.85042 -43.691404 -50.484977
5.37206 -42.501764 -50.613298
6.46939 -41.453548 -51.258215
6.319157 -44.953947 -50.380645
5.85042 -43.691404 -50.484977
6.319157 -44.953947 -50.380645
7.478313 -44.004158 -50.958656
9.714953 -41.816892 -52.158318
10.132665 -39.627857 -52.882565
12.394792 -28.492712 -57.023288
11.96579 -30.784337 -56.120351
11.388806 -29.545306 -56.421686
12.394792 -28.492712 -57.023288
12.755276 -26.207216 -57.925936
3 0 41 39
3 0 43 41
3 1 162 163
3 1 164 166
3 164 45 165
3 164 165 166
3 167 47 168
3 169 50 170
3 171 170 48
3 169 170 171
3 173 172 50
3 3 53 51
3 3 55 53
3 4 57 56
3 4 58 57
3 174 60 175
3 5 176 178
3 176 61 177
3 176 177 178
3 5 63 61
3 5 65 63
3 6 68 66
3 6 70 68
3 179 71 180
3 181 74 182
3 183 182 72
3 181 182 183
3 184 76 185
3 186 185 74
3 184 185 186
3 187 78 188
3 189 188 76
3 187 188 189
3 7 81 79
3 7 83 81
3 7 85 83
3 8 88 86
3 8 190 192
3 192 191 88
3 190 191 192
3 2 90 89
3 9 93 91
3 9 193 195
3 195 194 93
3 193 194 195
3 9 196 197
3 10 198 199
3 11 200 202
3 202 201 40
3 200 201 202
3 11 203 205
3 203 94 204
3 203 204 205
3 11 96 94
3 13 97 42
3 13 98 97
3 14 99 44
3 14 100 99
3 15 206 207
3 15 208 210
3 208 101 209
3 208 209 210
3 15 103 101
3 17 104 46
3 17 105 104
3 211 108 212
3 213 109 214
3 216 215 109
3 19 112 110
3 21 113 49
3 21 114 113
3 21 116 114
3 22 217 218
3 22 219 221
3 219 117 220
3 219 220 221
3 222 118 223
3 12 119 95
3 23 120 52
3 23 121 120
3 23 122 121
3 24 123 54
3 24 124 123
3 224 125 225
3 25 226 228
3 226 126 227
3 226 227 228
3 25 127 126
3 26 229 230
3 26 231 233
3 231 128 232
3 231 232 233
3 26 129 128
3 27 130 59
3 27 131 130
3 28 234 235
3 28 236 237
3 28 238 240
3 238 132 239
3 238 239 240
3 29 133 62
3 29 134 133
3 29 135 134
3 30 136 64
3 30 137 136
3 16 138 102
3 31 139 67
3 31 140 139
3 31 141 140
3 32 142 69
3 32 143 142
3 241 144 242
3 243 242 106
3 241 242 243
3 245 244 73
3 33 246 248
3 248 247 75
3 246 247 248
3 33 249 250
3 33 251 253
3 251 145 252
3 251 252 253
3 34 146 77
3 34 147 146
3 35 148 80
3 35 149 148
3 35 150 149
3 36 151 82
3 36 152 151
3 36 153 152
3 37 154 84
3 37 155 154
3 18 156 107
3 254 157 255
3 256 255 87
3 254 255 256
3 257 158 258
3 259 258 157
3 257 258 259
3 260 159 261
3 262 261 158
3 260 261 262
3 20 160 111
3 38 161 92
3 38 263 265
3 265 264 161
3 263 264 265
3 38 266 267
3 269 268 115
3 39 40 10
3 41 40 39
3 41 11 40
3 41 42 11
3 43 42 41
3 43 13 42
3 270 44 271
3 45 272 274
3 272 44 273
3 272 273 274
3 45 14 44
3 275 15 276
3 277 46 278
3 279 278 15
3 277 278 279
3 47 280 282
3 280 46 281
3 280 281 282
3 47 17 46
3 48 49 19
3 50 49 48
3 50 21 49
3 50 283 285
3 285 284 21
3 283 284 285
3 287 286 50
3 288 22 289
3 51 52 12
3 53 52 51
3 53 23 52
3 53 54 23
3 55 54 53
3 55 24 54
3 56 290 291
3 57 292 294
3 294 293 56
3 292 293 294
3 57 295 296
3 57 297 298
3 58 299 301
3 301 300 57
3 299 300 301
3 58 302 304
3 302 25 303
3 302 303 304
3 305 26 306
3 307 59 308
3 309 308 26
3 307 308 309
3 60 310 312
3 310 59 311
3 310 311 312
3 60 27 59
3 61 313 314
3 61 315 317
3 315 28 316
3 315 316 317
3 61 62 28
3 63 62 61
3 63 29 62
3 63 64 29
3 65 64 63
3 65 30 64
3 66 67 16
3 68 67 66
3 68 31 67
3 68 69 31
3 70 69 68
3 70 32 69
3 71 318 319
3 71 320 321
3 72 322 324
3 322 73 323
3 322 323 324
3 74 73 72
3 74 325 327
3 327 326 73
3 325 326 327
3 74 328 330
3 328 75 329
3 328 329 330
3 76 75 74
3 76 33 75
3 76 77 33
3 78 77 76
3 78 34 77
3 79 331 333
3 331 80 332
3 331 332 333
3 81 80 79
3 81 35 80
3 81 82 35
3 83 82 81
3 83 36 82
3 83 84 36
3 85 84 83
3 85 37 84
3 86 87 18
3 88 87 86
3 88 334 336
3 336 335 87
3 334 335 336
3 88 337 338
3 340 339 88
3 89 341 342
3 90 343 345
3 345 344 89
3 343 344 345
3 90 346 347
3 91 92 20
3 93 92 91
3 93 38 92
3 93 348 350
3 350 349 38
3 348 349 350
3 352 351 93
3 40 353 355
3 355 354 10
3 353 354 355
3 357 356 40
3 94 358 359
3 94 360 361
3 94 362 364
3 362 95 363
3 362 363 364
3 96 95 94
3 96 12 95
3 42 96 11
3 97 96 42
3 97 12 96
3 97 51 12
3 98 51 97
3 98 3 51
3 44 365 366
3 99 367 369
3 369 368 44
3 367 368 369
3 99 370 371
3 99 372 374
3 372 56 373
3 372 373 374
3 100 56 99
3 100 4 56
3 101 375 376
3 101 377 379
3 377 5 378
3 377 378 379
3 101 102 5
3 103 102 101
3 103 16 102
3 46 103 15
3 104 103 46
3 104 16 103
3 104 66 16
3 105 66 104
3 105 6 66
3 380 106 381
3 382 106 383
3 385 384 106
3 386 72 387
3 388 72 389
3 391 390 72
3 392 79 393
3 394 79 395
3 396 7 397
3 398 397 79
3 396 397 398
3 399 107 400
3 401 400 7
3 399 400 401
3 108 402 404
3 402 107 403
3 402 403 404
3 108 18 107
3 405 108 406
3 109 407 409
3 407 108 408
3 407 408 409
3 109 18 108
3 109 86 18
3 410 86 411
3 412 411 109
3 410 411 412
3 413 8 414
3 415 414 86
3 413 414 415
3 110 111 2
3 112 111 110
3 112 20 111
3 49 112 19
3 113 112 49
3 113 20 112
3 113 91 20
3 114 91 113
3 114 9 91
3 114 115 9
3 116 115 114
3 116 416 418
3 418 417 115
3 416 417 418
3 419 116 420
3 421 420 21
3 419 420 421
3 422 116 423
3 425 424 116
3 117 426 427
3 117 428 430
3 428 1 429
3 428 429 430
3 431 89 432
3 118 433 435
3 433 89 434
3 433 434 435
3 118 2 89
3 95 436 437
3 119 438 440
3 440 439 95
3 438 439 440
3 119 441 442
3 52 119 12
3 120 119 52
3 120 443 445
3 445 444 119
3 443 444 445
3 120 446 448
3 446 118 447
3 446 447 448
3 121 118 120
3 121 2 118
3 121 110 2
3 122 110 121
3 122 19 110
3 54 122 23
3 123 122 54
3 123 19 122
3 123 48 19
3 124 48 123
3 124 449 451
3 451 450 48
3 449 450 451
3 125 452 453
3 125 454 456
3 454 10 455
3 454 455 456
3 457 125 458
3 126 459 461
3 459 125 460
3 459 460 461
3 126 10 125
3 126 39 10
3 127 39 126
3 127 0 39
3 128 462 463
3 128 464 465
3 128 466 467
3 129 468 470
3 470 469 128
3 468 469 470
3 129 471 473
3 471 22 472
3 471 472 473
3 59 129 26
3 130 129 59
3 130 22 129
3 130 117 22
3 131 117 130
3 131 1 117
3 474 60 475
3 132 476 478
3 476 60 477
3 476 477 478
3 132 27 60
3 62 132 28
3 133 132 62
3 133 27 132
3 133 131 27
3 134 131 133
3 134 1 131
3 134 45 1
3 135 45 134
3 135 14 45
3 64 135 29
3 136 135 64
3 136 14 135
3 136 100 14
3 137 100 136
3 137 4 100
3 102 65 5
3 138 65 102
3 138 30 65
3 67 138 16
3 139 138 67
3 139 30 138
3 139 137 30
3 140 137 139
3 140 4 137
3 140 58 4
3 141 58 140
3 141 25 58
3 69 141 31
3 142 141 69
3 142 25 141
3 142 127 25
3 143 127 142
3 143 0 127
3 106 479 481
3 479 71 480
3 479 480 481
3 144 71 106
3 144 482 484
3 484 483 71
3 482 483 484
3 73 485 487
3 485 144 486
3 485 486 487
3 488 144 489
3 490 489 73
3 488 489 490
3 492 491 144
3 75 493 494
3 496 495 75
3 497 47 498
3 145 499 501
3 499 47 500
3 499 500 501
3 145 17 47
3 77 145 33
3 146 145 77
3 146 17 145
3 146 105 17
3 147 105 146
3 147 6 105
3 502 78 503
3 504 78 505
3 506 34 507
3 508 507 78
3 506 507 508
3 80 509 510
3 148 511 513
3 513 512 80
3 511 512 513
3 148 514 516
3 514 34 515
3 514 515 516
3 148 147 34
3 149 147 148
3 149 6 147
3 149 70 6
3 150 70 149
3 150 32 70
3 82 150 35
3 151 150 82
3 151 32 150
3 151 143 32
3 152 143 151
3 152 0 143
3 152 43 0
3 153 43 152
3 153 13 43
3 84 153 36
3 154 153 84
3 154 13 153
3 154 98 13
3 155 98 154
3 155 3 98
3 107 85 7
3 156 85 107
3 156 37 85
3 87 156 18
3 157 156 87
3 157 37 156
3 157 155 37
3 158 155 157
3 158 3 155
3 158 55 3
3 159 55 158
3 159 24 55
3 517 159 518
3 519 159 520
3 521 24 522
3 523 522 159
3 521 522 523
3 524 124 525
3 526 525 24
3 524 525 526
3 527 124 528
3 530 529 124
3 531 8 532
3 533 8 534
3 536 535 8
3 111 90 2
3 160 90 111
3 160 537 539
3 539 538 90
3 537 538 539
3 92 160 20
3 161 160 92
3 161 540 542
3 542 541 160
3 540 541 542
3 161 543 544
3 546 545 161
3 548 547 38
3 115 549 551
3 551 550 9
3 549 550 551
3 553 552 115
