ply
format ascii 1.0
element vertex 108
property float x
property float y
property float z
element face 84
property list uchar int vertex_index
end_header
29.994617 69.269089 32.433414
29.052467 76.544792 29.915596
28.689432 70.431641 36.670193
28.132362 64.028877 42.967911
28.377851 67.412186 39.921215
29.555267 72.983734 31.264612
29.726202 75.820549 27.739059
30.129038 72.190956 29.137686
30.488699 68.516289 30.248528
28.881763 73.558182 33.355122
29.378805 70.193306 34.469402
29.808989 66.592789 35.513626
29.19121 67.056984 37.716175
28.71302 60.670959 43.860603
29.231726 79.077095 26.580297
27.869452 60.754978 45.732193
30.15298 67.459091 33.012083
30.400021 67.082692 31.91964
30.241658 68.892689 31.340971
28.785598 71.994912 35.012658
28.461581 73.68277 34.441552
28.365415 72.119499 36.099087
28.545333 63.976495 41.913162
28.668078 65.66815 40.389814
28.255107 65.720531 41.444563
28.422691 62.349918 43.414257
28.835662 62.297537 42.359509
28.545333 63.976495 41.913162
29.142097 77.810944 28.247947
28.83656 79.428737 27.636023
28.746931 78.162586 29.303672
29.812231 77.065757 25.996495
30.000155 75.382465 26.704829
29.996634 64.629146 35.994978
29.712045 65.0338 37.116736
27.761836 58.962013 47.060953
27.360371 60.682589 46.579757
28.177402 59.02903 46.179974
27.761836 58.962013 47.060953
28.238419 70.592823 37.658726
28.365415 72.119499 36.099087
28.082628 69.083096 39.284237
28.533642 68.921914 38.295704
28.238419 70.592823 37.658726
27.922413 67.498497 40.808534
28.082628 69.083096 39.284237
27.799668 65.806842 42.331882
28.255107 65.720531 41.444563
27.922413 67.498497 40.808534
30.201574 73.567669 27.404142
30.000155 75.382465 26.704829
29.92762 74.005752 28.438372
30.389507 71.6768 28.03178
30.201574 73.567669 27.404142
30.569337 69.839466 28.587201
30.389507 71.6768 28.03178
30.308869 70.353623 29.693107
30.720591 67.924065 29.206474
30.569337 69.839466 28.587201
30.633939 66.596447 30.813613
30.720591 67.924065 29.206474
30.633939 66.596447 30.813613
30.400021 67.082692 31.91964
28.672945 76.675483 31.020481
28.746931 78.162586 29.303672
28.587593 75.182178 32.740244
28.461581 73.68277 34.441552
28.967115 75.051487 31.635359
28.672945 76.675483 31.020481
28.587593 75.182178 32.740244
29.403156 65.265898 38.21801
29.712045 65.0338 37.116736
29.5001 66.824886 36.614901
29.074758 65.490549 39.287295
28.784531 67.234585 38.818695
28.668078 65.66815 40.389814
29.403156 65.265898 38.21801
29.074758 65.490549 39.287295
29.068571 60.454584 42.824855
28.835662 62.297537 42.359509
28.980694 58.882957 44.195158
29.068571 60.454584 42.824855
28.918761 80.751641 25.904593
28.83656 79.428737 27.636023
29.294451 80.388417 24.818998
28.918761 80.751641 25.904593
29.564993 78.69403 25.417114
29.478964 77.448822 27.159678
29.812231 77.065757 25.996495
29.294451 80.388417 24.818998
29.564993 78.69403 25.417114
30.060166 66.120942 34.552189
30.15298 67.459091 33.012083
29.901803 67.930939 33.97352
30.060166 66.120942 34.552189
29.996634 64.629146 35.994978
27.623154 64.111534 43.825602
27.799668 65.806842 42.331882
27.491699 62.474585 45.207743
27.360371 60.682589 46.579757
28.000907 62.391927 44.350052
27.623154 64.111534 43.825602
27.491699 62.474585 45.207743
28.599186 58.98702 45.244179
28.291236 60.712969 44.796398
28.177402 59.02903 46.179974
28.980694 58.882957 44.195158
28.599186 58.98702 45.244179
3 0 7 5
3 0 8 7
3 0 16 18
3 18 17 8
3 16 17 18
3 2 19 21
3 19 9 20
3 19 20 21
3 2 10 9
3 2 12 10
3 3 22 24
3 24 23 4
3 22 23 24
3 3 25 27
3 25 13 26
3 25 26 27
3 1 28 30
3 28 14 29
3 28 29 30
3 32 31 6
3 34 33 11
3 35 15 36
3 38 37 15
3 39 2 40
3 41 4 42
3 43 42 2
3 41 42 43
3 44 4 45
3 46 3 47
3 48 47 4
3 46 47 48
3 5 6 1
3 7 6 5
3 7 49 51
3 51 50 6
3 49 50 51
3 7 52 53
3 8 54 56
3 56 55 7
3 54 55 56
3 8 57 58
3 8 59 60
3 62 61 8
3 63 1 64
3 9 65 66
3 9 67 69
3 67 1 68
3 67 68 69
3 9 5 1
3 10 5 9
3 10 0 5
3 10 11 0
3 12 11 10
3 12 70 72
3 72 71 11
3 70 71 72
3 4 12 2
3 73 12 74
3 75 74 4
3 73 74 75
3 77 76 12
3 13 78 79
3 13 80 81
3 14 82 83
3 14 84 85
3 6 14 1
3 86 14 87
3 88 87 6
3 86 87 88
3 90 89 14
3 11 91 93
3 93 92 0
3 91 92 93
3 95 94 11
3 96 3 97
3 15 98 99
3 15 100 102
3 100 3 101
3 100 101 102
3 15 13 3
3 103 13 104
3 105 104 15
3 103 104 105
3 107 106 13
