ply
format ascii 1.0
element vertex 305
property float x
property float y
property float z
element face 289
property list uchar int vertex_index
end_header
27.88249 -51.488163 22.418795
17.105274 -49.003506 35.306839
27.991325 -43.630466 28.398256
32.313087 -43.818714 20.454342
23.212395 -51.254776 29.970528
28.139803 -47.829815 25.601604
30.036732 -47.723877 21.518885
20.309593 -50.405785 32.785358
20.770905 -54.844223 30.765022
17.80966 -53.871979 33.632565
19.410191 -45.763477 34.42141
22.664211 -46.688072 32.041569
14.115878 -47.756031 37.448372
14.840263 -52.384418 36.145401
25.806728 -51.576477 26.547266
23.345854 -55.58173 27.326441
15.306521 -56.973381 34.334251
24.903008 -43.086964 31.406792
25.533951 -47.577583 29.195492
28.736103 -51.106037 20.307314
28.395607 -52.712029 18.426554
27.6353 -53.113667 20.742941
28.022287 -49.738937 24.110643
29.158621 -47.864262 23.603479
28.931231 -49.606709 22.058039
29.785799 -49.210079 19.845434
18.683462 -49.870605 34.083794
19.11216 -52.112282 33.200581
17.536274 -51.466782 34.506546
17.740887 -45.011303 35.546665
18.246162 -47.372334 34.861591
19.760113 -48.143002 33.730675
27.676973 -41.627228 29.600935
29.095768 -41.897575 28.013504
24.573675 -51.517998 28.306849
24.586147 -53.523724 26.998264
23.334412 -53.486816 28.70915
19.478399 -56.761757 31.048695
13.704535 -54.001217 36.520424
15.185054 -54.721371 35.259453
13.867231 -56.278179 35.648289
23.272043 -42.582397 32.679588
22.831587 -49.057194 31.181965
24.115368 -47.141857 30.733076
24.328186 -49.4198 29.633873
25.716864 -49.590343 27.96027
28.112953 -45.715042 27.106838
29.325998 -43.837234 26.620304
29.335163 -45.865108 25.133512
31.215492 -45.691616 20.989859
30.878254 -47.233791 19.393894
21.771791 -50.874252 31.463568
22.017981 -53.131981 30.335102
20.610395 -52.647427 31.828341
19.28747 -54.408382 32.279411
18.039581 -56.272331 32.534748
12.413598 -57.762642 36.064178
22.085846 -44.47472 33.003376
21.000059 -46.238903 33.319157
21.374945 -48.415604 32.530956
15.56343 -48.424255 36.399433
15.974066 -50.653397 35.746216
14.517783 -50.033913 36.837872
30.485895 -41.918144 26.211342
26.951611 -51.568302 24.5194
25.787264 -53.541862 24.936985
24.583097 -55.511524 25.365265
22.114717 -55.373871 29.057556
16.307701 -53.096809 34.947166
16.616579 -55.550232 33.935825
13.912619 -58.456554 34.672138
26.202806 -41.267654 30.977552
26.529257 -43.475842 29.930645
23.767225 -44.815762 31.747849
25.367712 -45.282593 30.30135
26.724962 -45.623184 28.830517
26.981249 -47.681412 27.432142
26.90333 -49.831223 26.103701
17.675718 -48.18792 35.084215
17.449266 -47.074904 35.405731
16.878822 -47.89049 35.628355
32.386158 -43.025098 21.35409
31.868145 -43.916407 21.571731
32.818335 -42.908054 20.257969
32.386158 -43.025098 21.35409
32.677482 -43.639854 19.35031
32.818335 -42.908054 20.257969
19.520755 -57.869642 30.353212
18.802222 -57.692879 31.162039
13.159997 -55.850075 36.306421
13.785883 -55.139698 36.084356
13.07865 -54.711593 36.742489
22.476822 -42.382982 33.211984
23.067903 -41.440334 33.069969
28.212857 -53.467731 17.402341
27.842292 -53.766289 18.638061
30.164348 -46.839005 22.324792
29.725293 -46.909197 23.367089
29.597676 -47.794069 22.561182
30.626112 -46.707746 21.254372
30.753728 -45.822874 22.060279
30.164348 -46.839005 22.324792
30.139447 -48.990154 18.650829
29.59957 -49.998142 18.908018
19.163091 -44.562492 34.769179
18.328439 -44.186405 35.331806
18.575539 -45.38739 34.984037
19.948062 -44.798386 34.27429
19.163091 -44.562492 34.769179
20.205125 -46.00119 33.870283
20.742996 -45.036099 33.723164
19.948062 -44.798386 34.27429
14.668935 -46.916727 37.194389
13.968492 -46.585836 37.690597
14.839654 -48.090143 36.923902
15.392711 -47.250839 36.66992
14.668935 -46.916727 37.194389
30.468573 -42.949749 25.470486
29.905946 -42.877689 26.415823
29.888625 -43.909294 25.674968
23.365645 -56.525906 26.50815
23.984267 -56.490803 25.527562
23.964475 -55.546627 26.345853
15.996937 -57.437916 33.598511
16.651966 -56.726342 33.399298
15.96155 -56.261807 34.135038
13.239624 -59.209941 34.756881
13.163108 -58.109598 35.368158
12.490113 -58.862986 35.452901
25.552907 -42.177309 31.192172
25.362275 -40.986328 31.658558
24.712376 -41.895983 31.873179
28.565855 -51.909033 19.366934
28.904474 -51.749117 18.198578
29.074722 -50.946121 19.138958
27.462139 -53.967108 19.796255
27.842292 -53.766289 18.638061
28.015453 -52.912848 19.584747
29.074722 -50.946121 19.138958
29.59957 -49.998142 18.908018
29.260951 -50.158058 20.076374
17.196628 -45.894388 35.748268
16.965183 -44.7341 36.046827
17.993524 -46.191818 35.204128
17.196628 -45.894388 35.748268
17.449266 -47.074904 35.405731
13.614117 -48.56552 37.681766
13.411406 -47.352087 37.988709
13.411406 -47.352087 37.988709
13.968492 -46.585836 37.690597
28.272023 -40.671851 29.42543
27.514484 -40.493527 30.15307
28.98142 -40.807024 28.631715
28.272023 -40.671851 29.42543
28.38637 -41.762402 28.80722
29.678114 -40.98026 27.803607
28.98142 -40.807024 28.631715
20.146428 -56.924954 30.279035
20.792681 -55.966186 30.137198
20.124652 -55.80299 30.906858
20.146428 -56.924954 30.279035
19.520755 -57.869642 30.353212
23.896894 -41.643699 32.509577
23.067903 -41.440334 33.069969
24.087525 -42.834681 32.04319
24.712376 -41.895983 31.873179
23.896894 -41.643699 32.509577
28.702307 -52.503672 17.159084
28.904474 -51.749117 18.198578
28.702307 -52.503672 17.159084
28.212857 -53.467731 17.402341
29.893208 -44.923231 24.931572
29.888625 -43.909294 25.674968
29.33058 -44.851171 25.876908
29.813564 -45.90962 24.132106
29.246892 -46.864685 24.368496
29.725293 -46.909197 23.367089
29.893208 -44.923231 24.931572
29.813564 -45.90962 24.132106
31.319347 -44.852857 21.83949
30.753728 -45.822874 22.060279
31.76429 -44.755165 20.7221
31.868145 -43.916407 21.571731
31.319347 -44.852857 21.83949
31.590798 -45.534331 19.863513
32.139596 -44.59788 19.595754
31.76429 -44.755165 20.7221
31.422179 -46.305418 19.065531
31.590798 -45.534331 19.863513
31.046873 -46.462704 20.191876
31.178044 -47.09932 18.185295
31.422179 -46.305418 19.065531
30.685674 -48.00201 18.425058
30.332026 -48.221935 19.619664
30.139447 -48.990154 18.650829
31.178044 -47.09932 18.185295
30.685674 -48.00201 18.425058
18.082813 -57.448166 31.905065
18.802222 -57.692879 31.162039
18.75899 -56.517044 31.791722
11.74317 -57.278999 36.753067
12.433181 -56.592306 36.514366
11.748382 -58.404465 36.223873
11.74317 -57.278999 36.753067
12.490113 -58.862986 35.452901
11.748382 -58.404465 36.223873
17.520471 -43.861961 35.839567
16.965183 -44.7341 36.046827
17.520471 -43.861961 35.839567
18.328439 -44.186405 35.331806
21.285889 -44.154007 33.565274
21.883724 -43.329144 33.373879
21.542952 -45.356811 33.161266
21.285889 -44.154007 33.565274
20.742996 -45.036099 33.723164
13.815069 -49.70446 37.376516
14.316831 -48.894972 37.143122
13.614117 -48.56552 37.681766
14.003436 -50.817511 37.047483
13.815069 -49.70446 37.376516
14.164676 -51.992763 36.701248
14.679023 -51.209165 36.491636
14.003436 -50.817511 37.047483
13.596812 -52.801163 36.888759
14.272399 -53.192817 36.332912
14.164676 -51.992763 36.701248
12.995957 -53.505642 37.160028
13.596812 -52.801163 36.888759
13.07865 -54.711593 36.742489
12.995957 -53.505642 37.160028
16.1079 -47.600864 36.174652
15.392711 -47.250839 36.66992
16.334352 -48.713881 35.853136
16.878822 -47.89049 35.628355
16.1079 -47.600864 36.174652
30.373177 -40.990545 26.902526
29.678114 -40.98026 27.803607
29.790831 -41.90786 27.112423
31.018757 -41.994632 25.284767
30.468573 -42.949749 25.470486
31.052253 -41.00406 25.980302
31.018757 -41.994632 25.284767
30.373177 -40.990545 26.902526
31.052253 -41.00406 25.980302
32.677482 -43.639854 19.35031
32.139596 -44.59788 19.595754
26.860157 -52.462153 23.741543
27.325596 -52.422083 22.69124
27.417051 -51.528233 23.469098
26.277983 -53.448932 23.950336
26.860157 -52.462153 23.741543
26.369438 -52.555082 24.728192
25.687331 -54.510193 24.118804
26.277983 -53.448932 23.950336
25.085247 -55.495024 24.332944
25.687331 -54.510193 24.118804
25.185181 -54.526693 25.151125
24.483277 -56.52918 24.506872
25.085247 -55.495024 24.332944
24.483277 -56.52918 24.506872
23.984267 -56.490803 25.527562
21.464587 -56.23101 29.283465
21.442811 -55.109047 29.911289
20.792681 -55.966186 30.137198
22.117152 -56.457672 28.32148
21.464587 -56.23101 29.283465
22.73272 -56.561602 27.455922
22.730286 -55.477801 28.191999
22.117152 -56.457672 28.32148
23.365645 -56.525906 26.50815
22.73272 -56.561602 27.455922
17.363467 -57.087391 32.698759
17.32808 -55.911282 33.235287
16.651966 -56.726342 33.399298
18.082813 -57.448166 31.905065
17.363467 -57.087391 32.698759
13.140415 -57.02041 35.856234
13.159997 -55.850075 36.306421
12.433181 -56.592306 36.514366
13.943891 -59.66954 33.975706
13.239624 -59.209941 34.756881
14.610053 -58.894268 33.931791
13.943891 -59.66954 33.975706
15.307004 -58.152681 33.762847
14.60957 -57.714968 34.503194
14.610053 -58.894268 33.931791
15.996937 -57.437916 33.598511
15.307004 -58.152681 33.762847
25.976664 -40.105789 31.490725
25.362275 -40.986328 31.658558
26.7774 -40.313739 30.841379
25.976664 -40.105789 31.490725
26.939889 -41.447441 30.289243
27.514484 -40.493527 30.15307
26.7774 -40.313739 30.841379
22.678945 -43.528559 32.841482
22.476822 -42.382982 33.211984
21.883724 -43.329144 33.373879
27.202001 -53.234835 21.853313
27.758895 -52.300915 21.580868
27.325596 -52.422083 22.69124
27.071686 -54.124472 20.980098
27.202001 -53.234835 21.853313
27.462139 -53.967108 19.796255
27.071686 -54.124472 20.980098
3 0 21 19
3 0 24 22
3 0 19 24
3 1 28 26
3 1 78 80
3 78 30 79
3 78 79 80
3 1 26 30
3 2 33 32
3 3 81 82
3 3 83 84
3 3 85 86
3 4 36 34
3 88 87 37
3 89 40 90
3 91 90 38
3 89 90 91
3 92 41 93
3 4 44 42
3 4 34 44
3 95 94 20
3 5 48 46
3 6 96 98
3 98 97 23
3 96 97 98
3 6 99 101
3 99 49 100
3 99 100 101
3 6 50 49
3 103 102 25
3 7 53 51
3 9 54 27
3 9 55 54
3 10 104 106
3 106 105 29
3 104 105 106
3 10 107 108
3 10 109 111
3 109 58 110
3 109 110 111
3 7 59 31
3 7 51 59
3 12 62 60
3 12 112 113
3 12 114 116
3 114 60 115
3 114 115 116
3 117 63 118
3 119 118 47
3 117 118 119
3 14 65 64
3 15 66 35
3 15 120 122
3 122 121 66
3 120 121 122
3 8 67 52
3 13 68 61
3 16 69 39
3 16 123 125
3 125 124 69
3 123 124 125
3 126 70 127
3 128 127 56
3 126 127 128
3 17 129 131
3 129 71 130
3 129 130 131
3 17 72 71
3 11 73 57
3 18 74 43
3 18 75 74
3 18 76 75
3 14 77 45
3 14 64 77
3 19 132 134
3 132 20 133
3 132 133 134
3 21 20 19
3 21 135 137
3 137 136 20
3 135 136 137
3 22 23 5
3 24 23 22
3 24 6 23
3 24 25 6
3 19 25 24
3 19 138 140
3 140 139 25
3 138 139 140
3 26 27 7
3 28 27 26
3 28 9 27
3 141 29 142
3 30 143 145
3 143 29 144
3 143 144 145
3 30 10 29
3 30 31 10
3 26 31 30
3 26 7 31
3 147 146 12
3 148 12 149
3 32 150 151
3 33 152 154
3 154 153 32
3 152 153 154
3 33 155 156
3 34 35 14
3 36 35 34
3 36 15 35
3 37 157 159
3 159 158 8
3 157 158 159
3 161 160 37
3 38 39 13
3 40 39 38
3 40 16 39
3 41 162 163
3 41 164 166
3 164 17 165
3 164 165 166
3 42 43 11
3 44 43 42
3 44 18 43
3 44 45 18
3 34 45 44
3 34 14 45
3 20 167 168
3 170 169 20
3 46 47 2
3 48 47 46
3 48 171 173
3 173 172 47
3 171 172 173
3 23 48 5
3 174 48 175
3 176 175 23
3 174 175 176
3 178 177 48
3 49 179 180
3 49 181 183
3 181 3 182
3 181 182 183
3 49 184 186
3 186 185 3
3 184 185 186
3 50 187 189
3 189 188 49
3 187 188 189
3 50 190 191
3 25 50 6
3 192 50 193
3 194 193 25
3 192 193 194
3 196 195 50
3 51 52 4
3 53 52 51
3 53 8 52
3 27 53 7
3 54 53 27
3 54 8 53
3 54 37 8
3 55 37 54
3 55 197 199
3 199 198 37
3 197 198 199
3 200 56 201
3 202 56 203
3 205 204 56
3 29 206 207
3 209 208 29
3 210 57 211
3 58 212 214
3 212 57 213
3 212 213 214
3 58 11 57
3 31 58 10
3 59 58 31
3 59 11 58
3 59 42 11
3 51 42 59
3 51 4 42
3 60 61 1
3 62 61 60
3 62 13 61
3 215 62 216
3 217 216 12
3 215 216 217
3 218 62 219
3 220 13 221
3 222 221 62
3 220 221 222
3 223 38 224
3 225 224 13
3 223 224 225
3 226 38 227
3 229 228 38
3 60 230 231
3 60 232 234
3 232 1 233
3 232 233 234
3 47 33 2
3 63 33 47
3 63 235 237
3 237 236 33
3 235 236 237
3 238 63 239
3 240 63 241
3 243 242 63
3 245 244 3
3 64 246 248
3 248 247 0
3 246 247 248
3 65 249 251
3 251 250 64
3 249 250 251
3 65 252 253
3 35 65 14
3 66 65 35
3 66 254 256
3 256 255 65
3 254 255 256
3 66 257 258
3 260 259 66
3 52 36 4
3 67 36 52
3 67 15 36
3 261 67 262
3 263 262 8
3 261 262 263
3 264 67 265
3 266 15 267
3 268 267 67
3 266 267 268
3 270 269 15
3 61 28 1
3 68 28 61
3 68 9 28
3 39 68 13
3 69 68 39
3 69 9 68
3 69 55 9
3 271 55 272
3 273 272 69
3 271 272 273
3 275 274 55
3 56 276 278
3 276 40 277
3 276 277 278
3 70 40 56
3 70 16 40
3 279 70 280
3 281 70 282
3 283 16 284
3 285 284 70
3 283 284 285
3 287 286 16
3 71 288 289
3 71 290 291
3 71 292 294
3 292 32 293
3 292 293 294
3 72 32 71
3 72 2 32
3 57 295 297
3 295 41 296
3 295 296 297
3 73 41 57
3 73 17 41
3 43 73 11
3 74 73 43
3 74 17 73
3 74 72 17
3 75 72 74
3 75 2 72
3 75 46 2
3 76 46 75
3 76 5 46
3 45 76 18
3 77 76 45
3 77 5 76
3 77 22 5
3 64 22 77
3 64 0 22
3 298 21 299
3 300 299 0
3 298 299 300
3 301 21 302
3 304 303 21
