ply
format ascii 1.0
element vertex 229
property float x
property float y
property float z
element face 193
property list uchar int vertex_index
end_header
23.912971 41.333057 59.708942
28.528067 43.112137 54.152588
21.50547 46.917931 57.516838
27.021833 49.838367 53.440254
26.522596 42.786217 57.421917
26.194836 34.968636 60.987206
26.002436 63.920647 46.21191
27.654219 57.169048 48.389713
28.852419 50.323898 49.709888
29.727634 43.25272 50.186577
28.149256 36.0574 58.006821
29.519718 36.241673 54.135689
28.041399 73.807358 35.527981
27.787405 70.754005 38.647259
27.466974 67.584808 41.695854
22.632895 44.120937 58.765167
24.227844 44.998734 57.973442
25.611471 45.839302 56.816925
25.296021 41.849304 58.843903
26.85129 60.610199 47.427322
27.831722 46.569897 53.879097
27.997679 50.178318 51.739891
28.665092 46.919853 51.972179
29.321768 46.746326 50.109886
29.22546 43.132969 52.203281
27.267792 35.474579 59.64122
26.781363 46.351143 55.484398
27.641663 43.105534 55.848003
25.063761 38.023556 60.577934
30.27651 46.071793 45.716095
27.113947 64.194191 44.683292
27.346399 53.720444 50.89418
28.314774 53.624565 49.205151
29.874023 46.494892 47.921177
30.1618 42.618332 48.074772
26.375641 38.902668 59.250195
27.430746 39.355934 57.825897
28.355286 39.426018 56.192577
28.921576 36.180908 56.180981
29.040051 39.806496 54.307301
29.63509 39.664402 52.21233
30.048145 39.386372 50.19577
27.213644 70.712677 39.62426
27.415793 72.356827 38.004639
27.053429 69.128079 41.148557
27.62719 69.169407 40.171556
27.213644 70.712677 39.62426
23.272933 42.726997 59.237054
22.542012 42.092077 59.648533
23.18205 40.698137 60.12042
28.461581 73.68277 34.441552
28.365415 72.119499 36.099087
20.613404 46.307995 57.67626
21.254405 44.959372 58.390485
20.813582 48.273987 56.78018
20.613404 46.307995 57.67626
21.636904 48.948439 56.527206
20.813582 48.273987 56.78018
30.159689 47.910912 45.533383
30.351605 47.581381 44.456288
25.501624 65.368836 45.635182
25.295957 63.569512 46.986044
26.164803 65.659951 44.824463
25.501624 65.368836 45.635182
26.558191 64.057419 45.447601
26.720558 65.796723 44.060154
26.164803 65.659951 44.824463
27.761836 58.962013 47.060953
27.360371 60.682589 46.579757
27.252755 58.889623 47.908518
28.069786 57.236065 47.508734
27.761836 58.962013 47.060953
27.184116 51.779405 52.167217
26.789904 53.438064 51.728378
26.62762 51.497026 53.001415
28.964914 52.036092 48.42764
28.696092 53.686426 48.175272
28.583596 51.974232 49.45752
29.187573 50.174265 48.689668
28.964914 52.036092 48.42764
29.220647 36.211291 55.158335
29.161196 34.480772 56.067913
29.460267 34.511155 55.045267
30.168473 37.680084 49.982277
30.010586 37.621164 51.130137
30.210938 39.214773 49.060978
30.168473 37.680084 49.982277
27.542789 73.883503 36.445
27.69022 75.503579 34.752056
27.914402 72.280682 37.08762
27.542789 73.883503 36.445
27.415793 72.356827 38.004639
28.238419 70.592823 37.658726
28.365415 72.119499 36.099087
27.914402 72.280682 37.08762
28.082628 69.083096 39.284237
28.238419 70.592823 37.658726
27.922413 67.498497 40.808534
28.082628 69.083096 39.284237
27.62719 69.169407 40.171556
27.799668 65.806842 42.331882
27.922413 67.498497 40.808534
21.818117 43.560875 59.01465
22.542012 42.092077 59.648533
22.069183 45.519434 58.141002
21.254405 44.959372 58.390485
21.818117 43.560875 59.01465
22.85998 46.158817 57.780354
22.296267 47.557314 57.156189
22.069183 45.519434 58.141002
23.657455 46.597715 57.384491
22.85998 46.158817 57.780354
23.43037 44.559835 58.369304
24.415634 46.933777 56.970115
23.657455 46.597715 57.384491
24.919657 45.419018 57.395184
25.107447 47.354061 56.391857
24.415634 46.933777 56.970115
25.806453 62.01496 47.625991
25.295957 63.569512 46.986044
26.23088 60.359735 48.233697
26.426863 62.265423 46.819616
25.806453 62.01496 47.625991
26.693974 58.821293 48.727233
26.23088 60.359735 48.233697
27.095439 57.100718 49.208429
27.252755 58.889623 47.908518
26.693974 58.821293 48.727233
27.215314 33.582964 60.418026
26.731314 35.221607 60.314213
26.678836 33.329992 61.091019
27.661392 33.843031 59.655538
27.215314 33.582964 60.418026
28.102125 34.134442 58.838339
27.708524 35.76599 58.824021
27.661392 33.843031 59.655538
29.69352 34.366171 54.025253
29.460267 34.511155 55.045267
29.746372 36.048815 53.100096
29.69352 34.366171 54.025253
28.167411 75.306766 33.826673
27.69022 75.503579 34.752056
28.167411 75.306766 33.826673
28.461581 73.68277 34.441552
21.636904 48.948439 56.527206
22.296267 47.557314 57.156189
26.459708 49.671775 54.119408
26.62762 51.497026 53.001415
25.754527 47.672243 55.807743
25.107447 47.354061 56.391857
26.339473 47.928163 55.14148
25.754527 47.672243 55.807743
26.196417 46.095223 56.150661
26.901598 48.094755 54.462326
26.459708 49.671775 54.119408
26.339473 47.928163 55.14148
23.806408 39.340427 60.558685
23.18205 40.698137 60.12042
24.381804 37.685676 60.993181
24.488366 39.678306 60.143438
23.806408 39.340427 60.558685
24.984958 36.096648 61.364036
24.381804 37.685676 60.993181
25.550495 34.569187 61.568673
25.629298 36.496096 60.78257
24.984958 36.096648 61.364036
26.114075 32.935699 61.793713
25.550495 34.569187 61.568673
26.678836 33.329992 61.091019
26.114075 32.935699 61.793713
30.433343 45.723778 44.641253
30.351605 47.581381 44.456288
30.374558 44.217205 45.751554
30.433343 45.723778 44.641253
26.897072 67.492031 42.566435
27.053429 69.128079 41.148557
27.290461 65.889499 43.189573
26.897072 67.492031 42.566435
26.720558 65.796723 44.060154
27.623154 64.111534 43.825602
27.799668 65.806842 42.331882
27.290461 65.889499 43.189573
27.491699 62.474585 45.207743
26.982619 62.402195 46.055307
27.360371 60.682589 46.579757
27.623154 64.111534 43.825602
27.491699 62.474585 45.207743
26.941529 55.376416 50.460662
26.789904 53.438064 51.728378
27.500309 55.444746 49.641947
27.095439 57.100718 49.208429
26.941529 55.376416 50.460662
28.400063 55.463824 47.916453
28.069786 57.236065 47.508734
27.984496 55.396806 48.797432
28.400063 55.463824 47.916453
28.696092 53.686426 48.175272
29.422247 48.385479 48.889668
29.187573 50.174265 48.689668
29.087094 48.535112 49.909887
29.698374 48.259762 47.795313
29.422247 48.385479 48.889668
29.597895 46.620609 49.015532
29.958445 48.122462 46.635924
29.698374 48.259762 47.795313
30.075266 46.283343 46.818636
30.159689 47.910912 45.533383
29.958445 48.122462 46.635924
30.317203 42.490475 46.930893
30.374558 44.217205 45.751554
30.219155 44.345062 46.895434
28.484386 34.278222 57.947579
28.102125 34.134442 58.838339
28.870547 34.339976 57.034659
29.161196 34.480772 56.067913
28.535416 36.119154 57.093901
28.484386 34.278222 57.947579
28.870547 34.339976 57.034659
29.804058 37.760179 52.138417
29.577404 37.953038 53.174009
29.746372 36.048815 53.100096
29.841618 39.525387 51.20405
29.804058 37.760179 52.138417
30.010586 37.621164 51.130137
30.267765 40.830754 48.000479
30.104973 41.002352 49.135271
30.210938 39.214773 49.060978
30.317203 42.490475 46.930893
30.267765 40.830754 48.000479
3 42 13 43
3 44 14 45
3 46 45 13
3 44 45 46
3 0 47 49
3 47 15 48
3 47 48 49
3 0 16 15
3 0 18 16
3 1 22 20
3 1 24 22
3 51 50 12
3 2 52 53
3 2 54 55
3 2 56 57
3 4 26 17
3 4 27 26
3 58 29 59
3 6 60 61
3 6 62 63
3 6 64 66
3 64 30 65
3 64 65 66
3 7 67 69
3 69 68 19
3 67 68 69
3 7 70 71
3 3 72 74
3 72 31 73
3 72 73 74
3 8 32 21
3 8 75 77
3 77 76 32
3 75 76 77
3 8 78 79
3 9 33 23
3 9 34 33
3 5 35 28
3 10 36 25
3 10 37 36
3 11 80 82
3 80 38 81
3 80 81 82
3 11 39 38
3 11 40 39
3 83 41 84
3 86 85 41
3 87 12 88
3 13 89 91
3 89 12 90
3 89 90 91
3 13 92 94
3 94 93 12
3 92 93 94
3 13 95 96
3 14 97 99
3 99 98 13
3 97 98 99
3 14 100 101
3 15 102 103
3 15 104 106
3 104 2 105
3 104 105 106
3 15 107 109
3 109 108 2
3 107 108 109
3 16 110 112
3 112 111 15
3 110 111 112
3 16 113 114
3 16 115 117
3 115 17 116
3 115 116 117
3 18 17 16
3 18 4 17
3 118 6 119
3 120 19 121
3 122 121 6
3 120 121 122
3 123 19 124
3 125 7 126
3 127 126 19
3 125 126 127
3 20 21 3
3 22 21 20
3 22 8 21
3 22 23 8
3 24 23 22
3 24 9 23
3 128 25 129
3 130 129 5
3 128 129 130
3 131 25 132
3 133 10 134
3 135 134 25
3 133 134 135
3 136 11 137
3 139 138 11
3 12 140 141
3 143 142 12
3 145 144 2
3 146 3 147
3 17 148 149
3 26 150 152
3 152 151 17
3 150 151 152
3 26 153 155
3 153 3 154
3 153 154 155
3 26 20 3
3 27 20 26
3 27 1 20
3 156 0 157
3 158 28 159
3 160 159 0
3 158 159 160
3 161 28 162
3 163 5 164
3 165 164 28
3 163 164 165
3 166 5 167
3 169 168 5
3 29 170 171
3 29 172 173
3 174 14 175
3 30 176 178
3 176 14 177
3 176 177 178
3 30 179 181
3 181 180 14
3 179 180 181
3 19 30 6
3 182 30 183
3 184 183 19
3 182 183 184
3 186 185 30
3 31 187 188
3 31 189 191
3 189 7 190
3 189 190 191
3 21 31 3
3 32 31 21
3 32 7 31
3 32 192 194
3 194 193 7
3 192 193 194
3 196 195 32
3 23 197 199
3 199 198 8
3 197 198 199
3 33 200 202
3 202 201 23
3 200 201 202
3 33 203 204
3 33 205 207
3 205 29 206
3 205 206 207
3 34 29 33
3 34 208 210
3 210 209 29
3 208 209 210
3 28 18 0
3 35 18 28
3 35 4 18
3 25 35 5
3 36 35 25
3 36 4 35
3 36 27 4
3 37 27 36
3 37 1 27
3 211 10 212
3 38 213 214
3 38 215 217
3 215 10 216
3 215 216 217
3 38 37 10
3 39 37 38
3 39 1 37
3 39 24 1
3 40 24 39
3 40 9 24
3 218 40 219
3 220 219 11
3 218 219 220
3 41 221 223
3 221 40 222
3 221 222 223
3 41 9 40
3 41 34 9
3 224 34 225
3 226 225 41
3 224 225 226
3 228 227 34
