ply
format ascii 1.0
element vertex 174
property float x
property float y
property float z
element face 138
property list uchar int vertex_index
end_header
-20.432407 -62.292732 -45.57317
-20.290768 -68.04528 -42.717564
-24.459753 -47.493191 -50.316505
-19.36871 -78.088364 -35.99559
-24.603632 -54.302795 -47.051357
-20.528307 -55.74474 -48.374836
-21.872114 -72.139557 -38.23156
-21.541618 -74.41613 -36.455814
-19.62336 -75.951347 -37.784683
-20.45392 -65.017265 -44.231689
-18.276924 -68.963867 -43.602409
-18.264578 -66.098114 -44.965599
-18.385418 -62.720352 -46.366329
-22.357233 -48.172939 -50.804646
-22.475016 -51.540051 -49.374207
-20.33695 -52.337257 -49.776516
-22.135139 -69.681572 -39.941753
-20.021545 -71.015076 -41.135414
-22.331778 -67.049156 -41.599251
-22.552197 -61.458302 -44.69466
-24.652098 -57.444839 -45.385246
-24.561825 -50.897346 -48.719975
-22.653791 -54.869938 -47.838688
-20.533926 -59.068707 -46.975609
-19.81326 -74.705204 -38.605726
-20.747737 -74.045452 -38.008122
-20.937636 -72.799309 -38.829165
-18.621976 -76.597133 -38.433471
-19.81326 -74.705204 -38.605726
-20.352923 -50.495018 -50.457454
-21.347092 -50.255098 -50.290581
-21.363065 -48.412859 -50.971519
-19.357958 -52.460537 -49.954332
-20.352923 -50.495018 -50.457454
-23.173645 -67.960316 -40.066799
-23.045331 -69.150295 -39.235048
-23.271965 -66.644107 -40.895548
-22.233458 -68.365364 -40.770502
-23.173645 -67.960316 -40.066799
-23.502542 -61.035899 -44.217487
-22.43924 -62.967982 -43.942068
-20.288996 -77.278385 -35.281425
-21.37545 -75.442268 -35.511538
-20.455164 -76.252247 -36.225702
-19.204047 -79.020523 -35.150589
-20.288996 -77.278385 -35.281425
-18.212826 -79.841335 -35.891571
-19.204047 -79.020523 -35.150589
-19.129706 -69.971706 -42.487984
-18.995094 -71.456604 -41.696909
-20.156157 -69.530178 -41.926489
-17.042292 -70.874256 -43.385168
-17.157074 -69.419308 -43.992059
-24.627865 -55.873817 -46.218302
-25.595729 -55.516333 -45.761364
-25.571496 -53.945311 -46.59442
-23.600148 -56.315357 -46.650355
-23.624381 -57.886379 -45.817299
-24.627865 -55.873817 -46.218302
-24.510789 -49.195268 -49.51824
-25.504228 -49.023677 -49.118204
-25.453193 -47.3216 -49.916469
-19.402816 -57.709326 -47.996162
-19.405625 -59.37131 -47.296549
-20.531117 -57.406723 -47.675223
-21.706866 -73.277843 -37.343687
-22.547796 -72.718475 -36.603632
-22.713044 -71.580189 -37.491505
-18.536723 -77.698078 -37.597311
-18.409398 -78.766587 -36.702765
-19.496035 -77.019856 -36.890136
-18.536723 -77.698078 -37.597311
-18.621976 -76.597133 -38.433471
-17.150901 -67.986431 -44.673654
-17.157074 -69.419308 -43.992059
-18.270751 -67.530991 -44.284004
-17.176865 -66.491485 -45.280914
-17.150901 -67.986431 -44.673654
-17.237285 -64.802605 -45.981279
-17.176865 -66.491485 -45.280914
-18.324998 -64.409233 -45.665964
-17.193479 -63.248852 -46.581494
-17.237285 -64.802605 -45.981279
-25.598358 -52.276646 -47.466557
-25.571496 -53.945311 -46.59442
-19.307957 -54.297455 -49.325722
-19.403635 -56.001196 -48.624882
-20.432628 -54.040999 -49.075676
-19.307957 -54.297455 -49.325722
-19.357958 -52.460537 -49.954332
-22.913819 -70.379288 -38.379952
-22.713044 -71.580189 -37.491505
-22.003626 -70.910564 -39.086657
-22.913819 -70.379288 -38.379952
-23.045331 -69.150295 -39.235048
-21.069149 -71.570317 -39.684261
-20.937636 -72.799309 -38.829165
-22.003626 -70.910564 -39.086657
-21.078342 -70.348324 -40.538584
-20.012352 -72.237068 -40.281092
-21.069149 -71.570317 -39.684261
-23.409007 -65.188339 -41.797305
-23.271965 -66.644107 -40.895548
-22.329031 -65.763408 -42.394363
-23.409007 -65.188339 -41.797305
-21.308526 -66.261471 -42.95352
-21.311273 -67.547218 -42.158408
-22.329031 -65.763408 -42.394363
-21.390102 -64.747463 -43.710583
-20.372344 -66.531273 -43.474626
-21.308526 -66.261471 -42.95352
-21.503059 -63.237783 -44.463175
-21.390102 -64.747463 -43.710583
-22.43924 -62.967982 -43.942068
-25.41046 -45.594488 -50.747835
-25.453193 -47.3216 -49.916469
-24.371951 -45.807778 -51.075777
-25.41046 -45.594488 -50.747835
-23.320691 -46.147651 -51.319847
-23.408493 -47.833065 -50.560575
-24.371951 -45.807778 -51.075777
-22.296971 -46.338296 -51.542523
-23.320691 -46.147651 -51.319847
-21.363065 -48.412859 -50.971519
-22.296971 -46.338296 -51.542523
-22.357917 -73.825836 -35.612192
-22.547796 -72.718475 -36.603632
-22.357917 -73.825836 -35.612192
-21.37545 -75.442268 -35.511538
-18.212826 -79.841335 -35.891571
-18.409398 -78.766587 -36.702765
-18.956319 -72.802753 -40.917204
-20.012352 -72.237068 -40.281092
-18.956319 -72.802753 -40.917204
-18.995094 -71.456604 -41.696909
-18.122784 -70.430999 -42.930407
-19.129706 -69.971706 -42.487984
-19.283846 -68.504573 -43.159987
-18.122784 -70.430999 -42.930407
-17.042292 -70.874256 -43.385168
-25.650993 -57.024183 -44.842095
-25.595729 -55.516333 -45.761364
-24.552492 -59.029167 -44.56278
-25.650993 -57.024183 -44.842095
-23.602148 -59.451571 -45.039953
-23.502542 -61.035899 -44.217487
-24.552492 -59.029167 -44.56278
-22.57443 -59.893111 -45.472006
-23.602148 -59.451571 -45.039953
-23.624381 -57.886379 -45.817299
-21.514536 -60.310326 -45.911261
-21.492302 -61.875517 -45.133915
-22.57443 -59.893111 -45.472006
-25.577455 -50.573921 -48.300866
-25.504228 -49.023677 -49.118204
-24.582729 -52.600071 -47.885666
-25.598358 -52.276646 -47.466557
-25.577455 -50.573921 -48.300866
-22.625228 -56.598928 -47.04402
-23.600148 -56.315357 -46.650355
-23.628712 -54.586366 -47.445023
-21.565295 -58.698313 -46.612481
-22.625228 -56.598928 -47.04402
-21.593858 -56.969323 -47.407148
-20.483167 -60.68072 -46.274389
-21.514536 -60.310326 -45.911261
-21.565295 -58.698313 -46.612481
-18.331372 -61.197132 -46.991909
-19.459672 -60.89453 -46.670969
-19.405625 -59.37131 -47.296549
-17.193479 -63.248852 -46.581494
-18.331372 -61.197132 -46.991909
-19.402816 -57.709326 -47.996162
-19.403635 -56.001196 -48.624882
3 24 8 25
3 26 25 6
3 24 25 26
3 28 27 8
3 0 11 9
3 0 12 11
3 29 15 30
3 31 30 13
3 29 30 31
3 33 32 15
3 34 16 35
3 36 18 37
3 38 37 16
3 36 37 38
3 39 19 40
3 3 41 43
3 43 42 7
3 41 42 43
3 3 44 45
3 3 46 47
3 1 48 50
3 50 49 17
3 48 49 50
3 52 51 10
3 4 53 55
3 53 20 54
3 53 54 55
3 4 56 58
3 58 57 20
3 56 57 58
3 2 59 61
3 59 21 60
3 59 60 61
3 5 22 14
3 5 23 22
3 5 62 64
3 64 63 23
3 62 63 64
3 6 65 67
3 65 7 66
3 65 66 67
3 8 7 6
3 8 3 7
3 8 68 70
3 70 69 3
3 68 69 70
3 72 71 8
3 9 10 1
3 11 10 9
3 11 73 75
3 75 74 10
3 73 74 75
3 11 76 77
3 12 78 80
3 80 79 11
3 78 79 80
3 12 81 82
3 83 4 84
3 13 14 2
3 15 14 13
3 15 5 14
3 15 85 87
3 87 86 5
3 85 86 87
3 89 88 15
3 90 6 91
3 16 92 94
3 92 6 93
3 92 93 94
3 16 95 97
3 97 96 6
3 95 96 97
3 16 98 100
3 98 17 99
3 98 99 100
3 18 17 16
3 18 1 17
3 101 18 102
3 103 18 104
3 105 1 106
3 107 106 18
3 105 106 107
3 108 9 109
3 110 109 1
3 108 109 110
3 19 111 113
3 111 9 112
3 111 112 113
3 19 0 9
3 114 2 115
3 116 2 117
3 118 13 119
3 120 119 2
3 118 119 120
3 121 13 122
3 124 123 13
3 7 125 126
3 128 127 7
3 130 129 3
3 17 131 132
3 134 133 17
3 10 135 137
3 137 136 1
3 135 136 137
3 139 138 10
3 20 140 141
3 20 142 143
3 20 144 146
3 144 19 145
3 144 145 146
3 147 19 148
3 149 148 20
3 147 148 149
3 150 0 151
3 152 151 19
3 150 151 152
3 21 153 154
3 21 155 157
3 155 4 156
3 155 156 157
3 14 21 2
3 22 21 14
3 22 4 21
3 22 158 160
3 160 159 4
3 158 159 160
3 23 161 163
3 163 162 22
3 161 162 163
3 23 164 166
3 164 0 165
3 164 165 166
3 23 12 0
3 167 12 168
3 169 168 23
3 167 168 169
3 171 170 12
3 173 172 5
