ply
format ascii 1.0
element vertex 424
property float x
property float y
property float z
element face 450
property list uchar int vertex_index
end_header
-5.613364 29.445332 -65.26532
-33.328671 18.055944 -54.324146
-12.573693 32.623173 -62.722458
-20.395658 28.423046 -65.288147
-12.739565 26.946716 -70.018173
-6.081343 35.838528 -58.220505
-28.242828 21.245871 -64.30249
-9.004798 31.590166 -64.582909
-12.680813 30.251247 -66.763519
-8.919678 28.421505 -68.008133
-8.889956 24.448641 -70.466385
-5.532343 25.623814 -67.884689
-36.215275 13.037577 -52.347351
-20.777428 25.31465 -68.741577
-24.44957 25.215597 -65.214546
-24.86203 21.43977 -68.166527
-28.847717 16.65897 -66.45977
-24.942505 16.708841 -69.745407
-15.863613 32.509529 -59.865494
-19.703669 30.309891 -61.035988
-16.276468 30.807854 -64.501144
-16.513315 28.152 -68.402946
-16.713011 24.523634 -71.052628
-12.681582 22.662584 -72.072296
-12.458892 34.373253 -58.26487
-9.267519 34.117668 -60.625797
-5.706524 32.66906 -62.033184
-2.597654 30.445036 -62.140545
-2.496759 26.193531 -64.757339
-2.671069 21.888338 -66.625435
-23.640783 27.622568 -61.34885
-27.601126 24.130507 -60.793674
-31.315235 19.804424 -59.483944
-31.949991 16.096741 -62.474487
-32.286018 10.947341 -64.116905
-7.352966 30.672647 -65.084328
-8.943569 29.970074 -66.526947
-7.186428 29.008818 -66.648842
-7.218365 27.17724 -68.096611
-5.5672 27.562731 -66.713638
-34.85762 15.583912 -53.507957
-33.998215 16.588345 -56.015553
-20.831488 23.294777 -70.040291
-22.740875 23.56275 -68.607918
-22.989962 21.249847 -69.699112
-25.02536 19.170551 -69.048523
-22.850529 18.905573 -70.552299
-14.305949 32.703053 -61.365078
-16.169575 31.733356 -62.217945
-14.411837 31.782902 -63.637661
-12.583318 28.692995 -68.550491
-14.509259 29.236872 -67.777687
-14.554895 27.679468 -69.364845
-16.588095 26.495237 -69.866791
-14.664906 25.786995 -70.714844
-14.770402 23.609974 -71.770592
-12.762739 24.88903 -71.222557
-7.238864 23.039619 -70.159256
-9.054275 22.265598 -71.293602
-13.98726 34.11198 -56.655563
-12.241705 35.248821 -55.766846
-9.220572 35.221821 -58.588303
-7.5314 34.965149 -59.390568
-7.453078 33.576668 -61.430126
-5.860105 34.298153 -60.150463
-2.758374 32.393452 -60.719402
-2.599216 24.143456 -65.804916
-19.95941 29.574038 -63.234303
-21.681076 29.032627 -61.324738
-22.030729 28.145332 -63.526058
-26.357977 23.291567 -64.944374
-26.09791 24.82729 -63.032444
-27.88802 22.89959 -62.784714
-29.464836 22.044754 -60.429657
-29.883581 20.593426 -62.003124
-31.691265 18.048475 -61.213924
-30.118694 18.852757 -63.483826
-30.709639 13.811458 -65.313866
-10.902794 32.170929 -63.934532
-12.658879 31.53684 -64.807098
-10.763557 30.917862 -65.82135
-10.74777 29.439669 -67.591156
-10.875863 27.769714 -69.153633
-10.822744 25.840139 -70.425613
-9.025895 26.606947 -69.386292
-7.291544 25.264931 -69.272079
-5.583963 23.604103 -68.831749
-20.49354 27.056665 -67.222649
-22.371431 26.940001 -65.427238
-22.725697 25.414749 -67.030914
-24.613796 23.479828 -66.959877
-26.572578 21.423712 -66.431396
-28.553568 19.203978 -65.52993
-26.98864 19.125154 -67.351669
-27.013178 16.689646 -68.205818
-26.968262 14.075221 -68.732025
-24.968615 13.640576 -70.044861
-17.565969 31.96435 -58.008965
-19.390017 30.850161 -58.604221
-17.876892 31.420053 -60.425117
-17.992445 30.70216 -62.93919
-18.275803 29.677982 -65.117088
-14.553565 30.61414 -65.822937
-16.411142 29.593161 -66.607941
-18.365227 28.499937 -67.005722
-18.567389 26.958275 -68.649895
-18.786346 25.080633 -70.018089
-18.734224 22.911333 -71.175667
-16.817423 22.283651 -71.945541
-10.803935 23.755224 -71.386749
-15.752689 33.057411 -57.290756
-14.060684 33.48555 -59.088245
-12.59411 33.488411 -60.651485
-10.776276 35.353924 -57.327274
-10.947515 34.379139 -59.522717
-10.877607 33.371216 -61.723644
-9.188635 32.93042 -62.644218
-7.342142 32.189598 -63.275566
-5.643952 31.074911 -63.729546
-4.419457 35.200489 -58.789108
-4.330753 33.483559 -60.551334
-4.091657 31.703722 -62.163853
-3.984968 29.878252 -63.691528
-1.160645 28.832415 -61.933243
-2.62936 28.3508 -63.631386
-4.028709 27.951927 -65.179375
-3.932946 25.998453 -66.306038
-4.082232 23.895779 -67.427719
-4.097815 21.582096 -68.187332
-31.718367 20.261372 -55.257343
-21.199478 29.686329 -59.019997
-24.131124 26.555477 -63.361824
-25.564991 26.056959 -61.150555
-28.899616 23.30147 -58.400822
-30.649509 21.293655 -57.88089
-32.482513 18.888277 -56.975891
-32.924576 17.417109 -58.719822
-33.335495 15.475577 -60.120365
-33.568474 13.294873 -61.28854
-30.362516 16.625256 -64.631783
-32.20118 13.669215 -63.407391
-33.764858 10.699701 -62.090122
-34.093145 16.819928 -53.916051
-34.517889 16.199677 -52.628679
-33.753415 17.435693 -53.036773
-21.943832 21.232749 -70.30019
-21.910725 22.272312 -69.869701
-20.864595 22.255215 -70.470779
-21.874115 20.060612 -70.726784
-22.920246 20.07771 -70.125706
-21.943832 21.232749 -70.30019
-21.919092 18.662658 -71.048515
-21.874115 20.060612 -70.726784
-7.279724 21.860936 -70.487274
-6.431664 22.22009 -69.847347
-12.200146 35.641913 -54.487502
-12.991256 35.005434 -54.951407
-6.806372 35.401838 -58.805537
-7.64054 35.615474 -58.354885
-6.915511 36.052164 -57.769853
-36.510677 12.519846 -51.073923
-35.87994 13.769576 -51.501429
-36.807034 11.695438 -51.79232
-36.510677 12.519846 -51.073923
-36.485169 12.092357 -53.111366
-36.807034 11.695438 -51.79232
-13.677868 21.998278 -72.273087
-14.722278 22.471972 -72.122234
-13.725992 23.136279 -71.921444
-12.761191 21.394075 -72.36446
-13.677868 21.998278 -72.273087
-9.953592 21.77738 -71.703469
-9.030219 21.093392 -71.524277
-15.560175 33.347721 -55.955928
-16.444896 32.74674 -56.395933
-9.999845 35.887878 -56.797463
-10.750553 35.848532 -56.116602
-3.620413 34.756973 -58.959407
-3.746539 35.697696 -58.170583
-3.57606 33.898508 -59.84052
-4.375105 34.342024 -59.670221
-3.620413 34.756973 -58.959407
-0.503171 28.073813 -61.645033
-0.468202 29.214398 -61.090931
-2.56306 27.272165 -64.194362
-1.920267 27.560254 -63.356928
-1.853966 26.48162 -63.919905
-30.926532 21.217023 -55.489119
-31.369796 20.655779 -54.123924
-23.446359 27.953147 -60.140709
-22.466506 28.658177 -60.128653
-22.66093 28.327598 -61.336794
-24.438956 27.183365 -60.124003
-23.446359 27.953147 -60.140709
-27.300787 24.654671 -59.851589
-26.282719 25.617897 -60.030029
-26.583058 25.093733 -60.972115
-28.250371 23.715989 -59.597248
-27.950032 24.240153 -58.655163
-27.300787 24.654671 -59.851589
-33.062914 9.428202 -63.36727
-33.802334 9.304382 -62.353878
-33.025438 10.823521 -63.103514
-35.201112 15.042744 -52.081732
-34.517889 16.199677 -52.628679
-35.536447 14.310745 -52.927654
-35.87994 13.769576 -51.501429
-35.201112 15.042744 -52.081732
-35.158126 14.766004 -54.257493
-35.836954 13.492836 -53.677191
-35.536447 14.310745 -52.927654
-34.728424 15.26822 -55.511291
-35.158126 14.766004 -54.257493
-34.427917 16.086129 -54.761755
-34.183422 15.809051 -56.845057
-34.728424 15.26822 -55.511291
-22.946143 17.509479 -70.727867
-23.992131 16.411113 -70.324421
-23.896517 17.807207 -70.148853
-22.946143 17.509479 -70.727867
-21.919092 18.662658 -71.048515
-8.187429 21.473925 -71.054447
-8.14657 22.652608 -70.726429
-7.279724 21.860936 -70.487274
-9.030219 21.093392 -71.524277
-8.187429 21.473925 -71.054447
-13.864034 34.437014 -55.395765
-14.67746 33.875006 -55.638332
-13.114482 34.680401 -56.211205
-13.864034 34.437014 -55.395765
-12.991256 35.005434 -54.951407
-8.485126 35.74381 -57.953753
-9.221993 35.821827 -57.427977
-8.375986 35.093485 -58.989435
-8.485126 35.74381 -57.953753
-7.64054 35.615474 -58.354885
-2.0604 32.742472 -60.032742
-2.789871 33.353454 -59.924554
-1.983935 31.685847 -60.692452
-2.0604 32.742472 -60.032742
-1.903576 30.711638 -61.403023
-2.678014 31.419244 -61.429974
-1.983935 31.685847 -60.692452
-1.842999 25.392857 -64.381336
-1.853966 26.48162 -63.919905
-1.894228 24.36782 -64.905124
-2.547988 25.168494 -65.281127
-1.842999 25.392857 -64.381336
-1.941752 23.17686 -65.343422
-1.894228 24.36782 -64.905124
-1.977678 22.049301 -65.753681
-2.635143 23.015897 -66.215176
-1.941752 23.17686 -65.343422
-29.839085 13.894433 -66.204247
-29.778678 15.235214 -65.886818
-28.908124 15.318189 -66.777198
-30.700136 12.433273 -65.606648
-29.839085 13.894433 -66.204247
-31.488326 11.001214 -65.008167
-31.497828 12.379399 -64.715385
-30.700136 12.433273 -65.606648
-32.24361 9.449908 -64.365184
-31.488326 11.001214 -65.008167
-5.604213 22.502331 -69.183594
-6.431664 22.22009 -69.847347
-6.411414 23.321861 -69.495503
-6.125018 36.599987 -57.231282
-6.915511 36.052164 -57.769853
-36.485169 12.092357 -53.111366
-35.836954 13.492836 -53.677191
-27.990854 15.333527 -67.650222
-28.908124 15.318189 -66.777198
-27.930447 16.674308 -67.332794
-27.968396 14.026315 -67.913326
-27.990854 15.333527 -67.650222
-26.99072 15.382434 -68.468921
-27.867361 12.636648 -68.171001
-27.968396 14.026315 -67.913326
-26.924284 12.459325 -68.84264
-27.867361 12.636648 -68.171001
-25.924461 12.242002 -69.499058
-26.924284 12.459325 -68.84264
-25.968438 13.857899 -69.388443
-24.87546 12.123988 -70.066768
-25.924461 12.242002 -69.499058
-24.005185 14.876981 -70.474148
-24.95556 15.174708 -69.895134
-23.992131 16.411113 -70.324421
-23.933093 13.433859 -70.551712
-24.005185 14.876981 -70.474148
-24.87546 12.123988 -70.066768
-23.933093 13.433859 -70.551712
-33.002566 18.51953 -53.386922
-33.753415 17.435693 -53.036773
-18.477993 31.407255 -58.306593
-19.18446 31.042913 -57.284217
-18.272436 31.600008 -56.98659
-19.815963 22.063492 -71.038467
-20.864595 22.255215 -70.470779
-19.782856 23.103055 -70.607979
-18.853378 21.652934 -71.537403
-19.815963 22.063492 -71.038467
-17.894978 21.339093 -71.92234
-18.853378 21.652934 -71.537403
-17.775824 22.597492 -71.560604
-16.798991 21.058273 -72.242367
-17.894978 21.339093 -71.92234
-15.745788 21.808811 -72.209709
-15.793913 22.946813 -71.858067
-14.722278 22.471972 -72.122234
-16.798991 21.058273 -72.242367
-15.745788 21.808811 -72.209709
-10.828422 22.522193 -71.750042
-9.929105 23.010411 -71.340176
-9.953592 21.77738 -71.703469
-11.767246 21.975873 -72.092816
-11.742759 23.208904 -71.729523
-10.828422 22.522193 -71.750042
-12.761191 21.394075 -72.36446
-11.767246 21.975873 -72.092816
-17.351537 32.200209 -56.755038
-18.272436 31.600008 -56.98659
-16.659329 32.51088 -57.649861
-17.351537 32.200209 -56.755038
-16.444896 32.74674 -56.395933
-14.869974 33.584696 -56.97316
-15.560175 33.347721 -55.955928
-14.67746 33.875006 -55.638332
-11.483268 35.79598 -55.336388
-12.200146 35.641913 -54.487502
-11.50899 35.301372 -56.54706
-11.483268 35.79598 -55.336388
-10.750553 35.848532 -56.116602
-9.998424 35.287872 -57.957789
-9.999845 35.887878 -56.797463
-9.221993 35.821827 -57.427977
-5.324666 36.366947 -57.614279
-6.125018 36.599987 -57.231282
-4.493723 36.047928 -57.89858
-3.746539 35.697696 -58.170583
-5.2504 35.519509 -58.504807
-5.324666 36.366947 -57.614279
-4.493723 36.047928 -57.89858
-3.544563 32.938506 -60.635368
-3.57606 33.898508 -59.84052
-2.789871 33.353454 -59.924554
-1.185071 29.905328 -61.299372
-0.468202 29.214398 -61.090931
-1.87915 29.638725 -62.036894
-1.903576 30.711638 -61.403023
-1.185071 29.905328 -61.299372
-1.185909 27.801062 -62.507857
-0.503171 28.073813 -61.645033
-1.895002 28.591608 -62.782314
-1.185909 27.801062 -62.507857
-1.920267 27.560254 -63.356928
-4.861139 21.491328 -68.861385
-5.604213 22.502331 -69.183594
-4.840889 22.5931 -68.50954
-2.104776 20.856946 -66.153629
-1.977678 22.049301 -65.753681
-2.769121 20.743 -66.966862
-2.104776 20.856946 -66.153629
-3.482494 20.589879 -67.74781
-3.384442 21.735217 -67.406384
-2.769121 20.743 -66.966862
-4.189548 20.433246 -68.49231
-3.482494 20.589879 -67.74781
-4.861139 21.491328 -68.861385
-4.189548 20.433246 -68.49231
-32.197413 19.622244 -53.853521
-31.369796 20.655779 -54.123924
-32.523519 19.158658 -54.790745
-33.002566 18.51953 -53.386922
-32.197413 19.622244 -53.853521
-20.07153 30.460186 -57.551062
-19.18446 31.042913 -57.284217
-20.97626 29.87827 -57.758949
-20.07153 30.460186 -57.551062
-20.294747 30.268245 -58.812109
-21.909421 29.237203 -57.862065
-20.97626 29.87827 -57.758949
-22.225707 28.985028 -58.976282
-21.440277 29.359478 -60.172368
-22.466506 28.658177 -60.128653
-21.909421 29.237203 -57.862065
-22.225707 28.985028 -58.976282
-25.40106 26.40056 -60.024855
-24.438956 27.183365 -60.124003
-24.602887 26.839764 -61.249702
-25.40106 26.40056 -60.024855
-26.282719 25.617897 -60.030029
-28.587381 23.710952 -57.346525
-27.950032 24.240153 -58.655163
-29.517156 22.737072 -57.060858
-28.587381 23.710952 -57.346525
-30.392103 21.733165 -56.800892
-29.517156 22.737072 -57.060858
-29.774563 22.297562 -58.140856
-31.183938 20.777514 -56.569116
-30.926532 21.217023 -55.489119
-30.392103 21.733165 -56.800892
-33.646603 16.223433 -58.197192
-34.183422 15.809051 -56.845057
-33.461396 17.002727 -57.367688
-33.852062 15.252667 -58.897463
-33.646603 16.223433 -58.197192
-33.130036 16.446343 -59.420094
-34.071258 14.183519 -59.460527
-33.852062 15.252667 -58.897463
-34.187748 13.093167 -60.044615
-34.071258 14.183519 -59.460527
-33.451985 14.385225 -60.704453
-34.28802 11.895867 -60.598318
-34.187748 13.093167 -60.044615
-34.386212 10.598281 -60.999109
-34.28802 11.895867 -60.598318
-33.666666 11.997287 -61.689331
-34.481163 9.173789 -61.325827
-34.386212 10.598281 -60.999109
-34.481163 9.173789 -61.325827
-33.802334 9.304382 -62.353878
-33.062914 9.428202 -63.36727
-32.24361 9.449908 -64.365184
3 0 37 35
3 0 39 37
3 1 142 144
3 142 40 143
3 142 143 144
3 1 41 40
3 145 44 146
3 147 146 42
3 145 146 147
3 148 46 149
3 150 149 44
3 148 149 150
3 152 151 46
3 2 49 47
3 4 52 50
3 4 54 52
3 4 56 54
3 154 153 57
3 155 60 156
3 5 157 159
3 157 62 158
3 157 158 159
3 5 64 62
3 3 69 67
3 6 72 70
3 6 74 72
3 6 76 74
3 7 80 78
3 9 81 36
3 9 82 81
3 9 84 82
3 11 85 38
3 11 86 85
3 12 160 161
3 12 162 163
3 12 164 165
3 13 89 87
3 15 90 43
3 15 91 90
3 15 93 91
3 17 94 45
3 17 95 94
3 17 96 95
3 18 99 97
3 20 100 48
3 20 101 100
3 8 102 79
3 21 103 51
3 21 104 103
3 21 105 104
3 22 106 53
3 22 107 106
3 22 108 107
3 23 166 168
3 168 167 55
3 166 167 168
3 23 169 170
3 10 109 83
3 172 171 58
3 173 110 174
3 24 111 59
3 24 112 111
3 175 113 176
3 25 114 61
3 25 115 114
3 25 116 115
3 26 117 63
3 26 118 117
3 177 119 178
3 179 120 180
3 181 180 119
3 179 180 181
3 27 121 65
3 27 122 121
3 182 123 183
3 28 184 186
3 184 124 185
3 184 185 186
3 28 125 124
3 28 126 125
3 29 127 66
3 29 128 127
3 187 129 188
3 19 130 98
3 30 189 191
3 191 190 68
3 189 190 191
3 30 192 193
3 14 131 88
3 31 132 71
3 31 194 196
3 196 195 132
3 194 195 196
3 31 197 199
3 197 133 198
3 197 198 199
3 32 134 73
3 32 135 134
3 32 136 135
3 33 137 75
3 33 138 137
3 16 139 92
3 34 140 77
3 34 141 140
3 34 200 202
3 202 201 141
3 200 201 202
3 35 36 7
3 37 36 35
3 37 9 36
3 37 38 9
3 39 38 37
3 39 11 38
3 40 203 204
3 40 205 207
3 205 12 206
3 205 206 207
3 40 208 210
3 210 209 12
3 208 209 210
3 41 211 213
3 213 212 40
3 211 212 213
3 41 214 215
3 42 43 13
3 44 43 42
3 44 15 43
3 44 45 15
3 46 45 44
3 46 17 45
3 46 216 218
3 218 217 17
3 216 217 218
3 220 219 46
3 47 48 18
3 49 48 47
3 49 20 48
3 50 51 8
3 52 51 50
3 52 21 51
3 52 53 21
3 54 53 52
3 54 22 53
3 54 55 22
3 56 55 54
3 56 23 55
3 57 58 10
3 221 58 222
3 223 222 57
3 221 222 223
3 225 224 58
3 226 59 227
3 60 228 230
3 228 59 229
3 228 229 230
3 60 24 59
3 231 61 232
3 62 233 235
3 233 61 234
3 233 234 235
3 62 25 61
3 62 63 25
3 64 63 62
3 64 26 63
3 236 65 237
3 238 65 239
3 240 27 241
3 242 241 65
3 240 241 242
3 243 28 244
3 245 66 246
3 247 246 28
3 245 246 247
3 248 66 249
3 250 29 251
3 252 251 66
3 250 251 252
3 67 68 19
3 69 68 67
3 69 30 68
3 70 71 14
3 72 71 70
3 72 31 71
3 72 73 31
3 74 73 72
3 74 32 73
3 74 75 32
3 76 75 74
3 76 33 75
3 253 77 254
3 255 254 16
3 253 254 255
3 256 77 257
3 258 34 259
3 260 259 77
3 258 259 260
3 262 261 34
3 78 79 2
3 80 79 78
3 80 8 79
3 36 80 7
3 81 80 36
3 81 8 80
3 81 50 8
3 82 50 81
3 82 4 50
3 82 83 4
3 84 83 82
3 84 10 83
3 38 84 9
3 85 84 38
3 85 10 84
3 85 57 10
3 86 57 85
3 86 263 265
3 265 264 57
3 263 264 265
3 266 5 267
3 269 268 12
3 87 88 3
3 89 88 87
3 89 14 88
3 43 89 13
3 90 89 43
3 90 14 89
3 90 70 14
3 91 70 90
3 91 6 70
3 91 92 6
3 93 92 91
3 93 16 92
3 45 93 15
3 94 93 45
3 94 16 93
3 94 270 272
3 272 271 16
3 270 271 272
3 95 273 275
3 275 274 94
3 273 274 275
3 95 276 277
3 95 278 279
3 96 280 282
3 282 281 95
3 280 281 282
3 96 283 284
3 285 96 286
3 287 286 17
3 285 286 287
3 288 96 289
3 291 290 96
3 292 1 293
3 97 294 296
3 294 98 295
3 294 295 296
3 99 98 97
3 99 19 98
3 48 99 18
3 100 99 48
3 100 19 99
3 100 67 19
3 101 67 100
3 101 3 67
3 79 49 2
3 102 49 79
3 102 20 49
3 51 102 8
3 103 102 51
3 103 20 102
3 103 101 20
3 104 101 103
3 104 3 101
3 104 87 3
3 105 87 104
3 105 13 87
3 53 105 21
3 106 105 53
3 106 13 105
3 106 42 13
3 107 42 106
3 107 297 299
3 299 298 42
3 297 298 299
3 107 300 301
3 108 302 304
3 304 303 107
3 302 303 304
3 108 305 306
3 55 108 22
3 307 108 308
3 309 308 55
3 307 308 309
3 311 310 108
3 83 56 4
3 109 56 83
3 109 23 56
3 58 109 10
3 312 109 313
3 314 313 58
3 312 313 314
3 315 23 316
3 317 316 109
3 315 316 317
3 319 318 23
3 320 97 321
3 110 322 324
3 322 97 323
3 322 323 324
3 110 18 97
3 59 325 327
3 325 110 326
3 325 326 327
3 111 110 59
3 111 18 110
3 111 47 18
3 112 47 111
3 112 2 47
3 328 60 329
3 113 330 332
3 330 60 331
3 330 331 332
3 113 24 60
3 61 333 335
3 333 113 334
3 333 334 335
3 114 113 61
3 114 24 113
3 114 112 24
3 115 112 114
3 115 2 112
3 115 78 2
3 116 78 115
3 116 7 78
3 63 116 25
3 117 116 63
3 117 7 116
3 117 35 7
3 118 35 117
3 118 0 35
3 336 5 337
3 119 338 339
3 119 340 342
3 340 5 341
3 340 341 342
3 119 64 5
3 120 64 119
3 120 26 64
3 65 343 345
3 343 120 344
3 343 344 345
3 121 120 65
3 121 26 120
3 121 118 26
3 122 118 121
3 122 0 118
3 123 346 347
3 123 348 350
3 348 27 349
3 348 349 350
3 351 123 352
3 124 353 355
3 353 123 354
3 353 354 355
3 124 27 123
3 124 122 27
3 125 122 124
3 125 0 122
3 125 39 0
3 126 39 125
3 126 11 39
3 66 126 28
3 127 126 66
3 127 11 126
3 127 86 11
3 128 86 127
3 128 356 358
3 358 357 86
3 356 357 358
3 359 29 360
3 361 29 362
3 363 128 364
3 365 364 29
3 363 364 365
3 366 128 367
3 369 368 128
3 129 370 371
3 129 372 374
3 372 1 373
3 372 373 374
3 98 375 376
3 130 377 379
3 379 378 98
3 377 378 379
3 130 380 381
3 68 130 19
3 382 130 383
3 384 383 68
3 382 383 384
3 386 385 130
3 88 69 3
3 131 69 88
3 131 30 69
3 71 131 14
3 132 131 71
3 132 30 131
3 132 387 389
3 389 388 30
3 387 388 389
3 391 390 132
3 133 392 393
3 133 394 395
3 73 133 31
3 134 133 73
3 134 396 398
3 398 397 133
3 396 397 398
3 134 399 401
3 399 129 400
3 399 400 401
3 135 129 134
3 135 1 129
3 135 41 1
3 136 41 135
3 136 402 404
3 404 403 41
3 402 403 404
3 75 136 32
3 137 136 75
3 137 405 407
3 407 406 136
3 405 406 407
3 137 408 409
3 138 410 412
3 412 411 137
3 410 411 412
3 138 413 414
3 92 76 6
3 139 76 92
3 139 33 76
3 77 139 16
3 140 139 77
3 140 33 139
3 140 138 33
3 141 138 140
3 141 415 417
3 417 416 138
3 415 416 417
3 141 418 419
3 421 420 141
3 423 422 34
