ply
format ascii 1.0
element vertex 161
property float x
property float y
property float z
element face 134
property list uchar int vertex_index
end_header
14.366546 22.344215 -17.263119
14.723828 21.456038 -14.626406
15.551583 20.460873 -12.190374
16.806643 19.147751 -10.227717
18.472181 18.176514 -8.689671
20.740166 17.124336 -7.336986
14.379296 22.641563 -18.683058
15.078503 21.012962 -13.346863
15.17311 23.809757 -12.845312
16.414507 22.440378 -10.907844
17.251343 22.165356 -10.062655
17.563465 18.670429 -9.429261
18.160326 21.506798 -9.304261
20.396177 20.431572 -7.968085
14.857209 20.282162 -18.096081
14.903612 19.679321 -16.747414
14.517402 21.757034 -15.890824
15.051956 19.001766 -15.30711
15.240808 18.645809 -13.964992
15.570667 17.994093 -12.800394
16.035353 17.117704 -11.649257
15.767008 23.129362 -11.799821
16.122335 19.636623 -11.166677
16.569969 16.465635 -10.611567
17.226845 16.005323 -9.656914
17.998785 15.385346 -8.81402
18.91157 14.86362 -8.05164
19.196918 20.92815 -8.613367
19.543169 17.598213 -7.979899
15.042816 25.477832 -13.197716
14.935178 23.899237 -13.417185
17.622235 23.518189 -9.976714
17.149287 23.859799 -10.379143
18.076727 23.18891 -9.597517
17.705835 21.836077 -9.683458
17.622235 23.518189 -9.976714
14.620615 21.606536 -15.258615
14.416398 23.122584 -15.584152
14.519611 22.972086 -14.951942
16.000357 24.64859 -11.676683
15.642012 24.829974 -12.14287
19.696109 22.426831 -8.595136
19.118749 22.672675 -8.910956
20.320643 15.773568 -7.364779
19.722145 16.010507 -7.686236
20.141667 17.361275 -7.658442
20.908455 15.44145 -7.023321
20.320643 15.773568 -7.364779
14.186107 23.95004 -19.051786
14.429254 22.873838 -19.425062
14.18115 23.79002 -18.297332
14.186107 23.95004 -19.051786
14.174774 23.641346 -17.587362
14.372921 22.492889 -17.973088
14.18115 23.79002 -18.297332
14.710537 22.722378 -14.307731
14.519611 22.972086 -14.951942
14.887874 22.50084 -13.66796
14.901165 21.2345 -13.986635
14.710537 22.722378 -14.307731
15.125806 22.41136 -13.096087
14.887874 22.50084 -13.66796
14.935178 23.899237 -13.417185
16.73087 23.99731 -10.801738
16.324107 24.304098 -11.230695
16.832925 22.302867 -10.48525
16.73087 23.99731 -10.801738
17.149287 23.859799 -10.379143
20.94482 21.88585 -7.958706
20.295738 22.178542 -8.272495
21.049605 20.211786 -7.666881
20.94482 21.88585 -7.958706
21.221599 18.558169 -7.351331
20.568171 18.777954 -7.652535
21.049605 20.211786 -7.666881
21.389153 16.808294 -7.019543
21.221599 18.558169 -7.351331
14.672423 21.643074 -19.096515
14.429254 22.873838 -19.425062
14.911379 20.463373 -18.803027
14.672423 21.643074 -19.096515
14.618253 21.461863 -18.38957
15.208113 19.374688 -18.576036
14.911379 20.463373 -18.803027
15.171771 19.105638 -17.88554
15.208113 19.374688 -18.576036
15.194973 18.804217 -17.211206
15.171771 19.105638 -17.88554
14.88041 19.980742 -17.421748
15.240225 18.382478 -16.499643
15.194973 18.804217 -17.211206
14.234402 23.491091 -16.885779
14.174774 23.641346 -17.587362
14.30983 23.197501 -16.199632
14.416398 23.122584 -15.584152
14.441974 22.050624 -16.576971
14.234402 23.491091 -16.885779
14.30983 23.197501 -16.199632
15.314397 18.0437 -15.779491
15.240225 18.382478 -16.499643
14.977784 19.340544 -16.027262
15.387128 17.65276 -15.070019
15.314397 18.0437 -15.779491
15.481554 17.474781 -14.39896
15.387128 17.65276 -15.070019
15.146382 18.823788 -14.636051
15.570911 17.17582 -13.755795
15.481554 17.474781 -14.39896
15.73584 16.849962 -13.173496
15.570911 17.17582 -13.755795
15.405738 18.319951 -13.382693
15.89151 16.491078 -12.529817
15.73584 16.849962 -13.173496
16.123853 16.052884 -11.954248
15.89151 16.491078 -12.529817
15.80301 17.555898 -12.224826
16.336625 15.655674 -11.37088
16.123853 16.052884 -11.954248
15.345063 25.170172 -12.665616
15.042816 25.477832 -13.197716
15.470059 23.46956 -12.322567
15.345063 25.170172 -12.665616
15.642012 24.829974 -12.14287
16.090758 22.78487 -11.353832
16.000357 24.64859 -11.676683
16.324107 24.304098 -11.230695
16.603933 15.32964 -10.852035
16.336625 15.655674 -11.37088
16.302661 16.791669 -11.130412
16.866285 14.981264 -10.315558
16.603933 15.32964 -10.852035
17.194723 14.751109 -9.838231
16.866285 14.981264 -10.315558
16.898407 16.235479 -10.134241
17.508392 14.447423 -9.359964
17.194723 14.751109 -9.838231
17.894362 14.137435 -8.938517
17.508392 14.447423 -9.359964
17.612815 15.695335 -9.235467
18.260835 13.862977 -8.522415
17.894362 14.137435 -8.938517
18.717227 13.602114 -8.141225
18.260835 13.862977 -8.522415
18.455178 15.124483 -8.43283
19.157483 13.210791 -7.750081
18.717227 13.602114 -8.141225
18.600454 22.961999 -9.256403
18.076727 23.18891 -9.597517
18.678622 21.217474 -8.958814
18.600454 22.961999 -9.256403
19.118749 22.672675 -8.910956
19.796548 20.679861 -8.290726
19.696109 22.426831 -8.595136
20.295738 22.178542 -8.272495
19.406346 14.64321 -7.722107
19.22737 16.230916 -8.01577
19.722145 16.010507 -7.686236
19.157483 13.210791 -7.750081
19.406346 14.64321 -7.722107
20.908455 15.44145 -7.023321
21.389153 16.808294 -7.019543
3 29 8 30
3 31 10 32
3 33 12 34
3 35 34 10
3 33 34 35
3 0 14 6
3 0 15 14
3 1 36 38
3 36 16 37
3 36 37 38
3 1 17 16
3 1 18 17
3 2 19 7
3 2 20 19
3 39 21 40
3 3 22 9
3 3 23 22
3 3 24 23
3 4 25 11
3 4 26 25
3 41 27 42
3 5 28 13
3 5 43 45
3 45 44 28
3 43 44 45
3 5 46 47
3 48 6 49
3 50 6 51
3 52 0 53
3 54 53 6
3 52 53 54
3 55 1 56
3 57 7 58
3 59 58 1
3 57 58 59
3 8 60 62
3 60 7 61
3 60 61 62
3 8 2 7
3 63 9 64
3 10 65 67
3 65 9 66
3 65 66 67
3 10 3 9
3 10 11 3
3 12 11 10
3 12 4 11
3 68 13 69
3 70 13 71
3 72 5 73
3 74 73 13
3 72 73 74
3 76 75 5
3 6 77 78
3 14 79 81
3 81 80 6
3 79 80 81
3 14 82 83
3 14 84 85
3 15 86 88
3 88 87 14
3 86 87 88
3 15 89 90
3 91 0 92
3 16 93 94
3 16 95 97
3 95 0 96
3 95 96 97
3 16 15 0
3 17 15 16
3 17 98 100
3 100 99 15
3 98 99 100
3 17 101 102
3 18 103 105
3 105 104 17
3 103 104 105
3 18 106 107
3 7 18 1
3 19 18 7
3 19 108 110
3 110 109 18
3 108 109 110
3 19 111 112
3 20 113 115
3 115 114 19
3 113 114 115
3 20 116 117
3 118 8 119
3 21 120 122
3 120 8 121
3 120 121 122
3 21 2 8
3 9 123 125
3 123 21 124
3 123 124 125
3 22 21 9
3 22 2 21
3 22 20 2
3 23 20 22
3 23 126 128
3 128 127 20
3 126 127 128
3 23 129 130
3 24 131 133
3 133 132 23
3 131 132 133
3 24 134 135
3 11 24 3
3 25 24 11
3 25 136 138
3 138 137 24
3 136 137 138
3 25 139 140
3 26 141 143
3 143 142 25
3 141 142 143
3 26 144 145
3 146 12 147
3 27 148 150
3 148 12 149
3 148 149 150
3 27 4 12
3 13 151 153
3 151 27 152
3 151 152 153
3 28 27 13
3 28 4 27
3 28 26 4
3 154 26 155
3 156 155 28
3 154 155 156
3 158 157 26
3 160 159 5
