ply
format ascii 1.0
element vertex 61
property float x
property float y
property float z
element face 46
property list uchar int vertex_index
end_header
21.987591 -46.646782 -50.853413
19.035744 -43.696529 -52.434822
23.585749 -37.930248 -53.811813
23.248127 -48.191212 -49.844685
24.275347 -43.633789 -51.353214
20.384369 -45.476707 -51.637829
22.72595 -42.260281 -52.346973
21.284252 -40.844341 -53.166439
25.120913 -39.449203 -52.779079
19.39264 -41.52918 -53.157128
18.255063 -42.930038 -52.729956
24.471839 -46.542431 -50.054129
24.014354 -48.664598 -49.321939
24.985449 -44.26372 -50.808394
24.471839 -46.542431 -50.054129
23.761737 -45.912501 -50.59895
25.436901 -42.059408 -51.574499
24.985449 -44.26372 -50.808394
24.724792 -36.441114 -54.094801
23.909599 -35.776032 -54.580118
20.516894 -40.103087 -53.522936
20.159998 -42.270435 -52.80063
19.39264 -41.52918 -53.157128
21.62771 -38.661722 -53.921303
20.516894 -40.103087 -53.522936
22.778459 -37.204676 -54.24399
22.435001 -39.387294 -53.489126
21.62771 -38.661722 -53.921303
23.909599 -35.776032 -54.580118
22.778459 -37.204676 -54.24399
22.795428 -50.266007 -49.151506
24.014354 -48.664598 -49.321939
22.018612 -49.666345 -49.653046
22.795428 -50.266007 -49.151506
21.388344 -48.894131 -50.15741
22.617859 -47.418997 -50.349049
22.018612 -49.666345 -49.653046
20.649686 -48.315945 -50.541159
21.388344 -48.894131 -50.15741
19.848075 -47.730907 -50.933367
21.18598 -46.061745 -51.245621
20.649686 -48.315945 -50.541159
19.152319 -46.837514 -51.332947
19.848075 -47.730907 -50.933367
18.478006 -45.947425 -51.731443
19.710057 -44.586618 -52.036326
19.152319 -46.837514 -51.332947
17.769949 -45.109678 -52.038173
18.478006 -45.947425 -51.731443
18.255063 -42.930038 -52.729956
17.769949 -45.109678 -52.038173
25.859684 -39.967115 -52.287431
25.436901 -42.059408 -51.574499
24.69813 -41.541496 -52.066147
25.492373 -37.200592 -53.578434
24.353331 -38.689725 -53.295446
24.724792 -36.441114 -54.094801
26.253201 -37.775175 -53.063574
25.492373 -37.200592 -53.578434
25.859684 -39.967115 -52.287431
26.253201 -37.775175 -53.063574
3 0 4 3
3 1 7 5
3 2 8 6
3 10 9 1
3 3 11 12
3 4 13 15
3 15 14 3
3 13 14 15
3 4 16 17
3 19 18 2
3 5 6 0
3 7 6 5
3 7 2 6
3 20 7 21
3 22 21 1
3 20 21 22
3 23 7 24
3 25 2 26
3 27 26 7
3 25 26 27
3 29 28 2
3 30 3 31
3 32 3 33
3 34 0 35
3 36 35 3
3 34 35 36
3 37 0 38
3 39 5 40
3 41 40 0
3 39 40 41
3 42 5 43
3 44 1 45
3 46 45 5
3 44 45 46
3 47 1 48
3 50 49 1
3 6 4 0
3 8 4 6
3 8 51 53
3 53 52 4
3 51 52 53
3 54 8 55
3 56 55 2
3 54 55 56
3 57 8 58
3 60 59 8
