ply
format ascii 1.0
element vertex 447
property float x
property float y
property float z
element face 474
property list uchar int vertex_index
end_header
-39.887543 -9.875766 17.442411
-38.436253 -27.689528 12.107186
-38.687088 -17.925934 23.372663
-38.888065 -27.122202 20.65299
-39.089279 -19.2829 15.5522
-38.52737 -35.706154 16.404354
-38.312817 -34.029602 6.911961
-35.84803 -19.806217 7.61036
-39.469349 -13.722162 20.557068
-39.403805 -18.560732 19.41765
-39.522457 -14.608348 16.496391
-38.54417 -1.864094 7.710533
-39.033596 -27.726284 16.483807
-38.794327 -31.710592 18.778147
-38.859272 -31.604057 14.350604
-38.612087 -35.074757 11.718349
-38.361786 -31.118519 9.846937
-37.864346 -26.530298 24.575151
-38.844193 -22.633142 22.173441
-39.218647 -23.187757 18.161631
-38.668499 -23.611755 13.996209
-40.068359 -5.603367 14.570599
-39.317024 -10.597344 13.572127
-38.966648 -6.366356 10.667436
-38.327488 -13.280492 24.375765
-39.296646 -9.174217 21.479223
-38.058491 -31.188473 22.824379
-37.967056 -35.534634 20.753374
-37.494442 -39.451233 18.311321
-37.965866 -39.217937 13.488289
-38.148464 -38.227379 8.658536
-38.503643 -15.289291 12.627016
-37.837139 -19.796106 11.522815
-37.399246 -23.690491 9.939051
-37.295902 -27.15019 7.829859
-37.572598 -30.13863 5.42334
-39.718502 -11.837421 19.031565
-39.637115 -14.215826 18.606501
-39.730106 -12.209197 16.986084
-38.810333 -27.611383 14.270337
-38.94865 -29.659445 15.461941
-38.737331 -29.554924 13.292209
-38.672501 -31.493637 12.127586
-38.381756 -29.494892 11.019722
-38.140842 -19.951672 24.687527
-38.308403 -22.235041 24.050444
-38.79776 -20.291265 22.749598
-39.35944 -19.052141 17.500528
-39.309227 -21.020544 18.939812
-39.209419 -21.198494 16.887642
-39.04834 -23.56502 16.091923
-38.856182 -21.53237 14.804499
-40.055904 -3.556097 12.898801
-39.651741 -6.033584 12.552891
-39.571888 -3.849008 11.093891
-38.02216 -11.087657 24.898745
-38.85907 -11.292706 22.937923
-38.567795 -9.088853 23.520342
-38.480988 -27.037663 22.649084
-37.94487 -29.035078 23.840443
-38.526859 -29.260691 21.768925
-38.70549 -33.769276 17.503698
-38.464905 -33.507599 19.820192
-38.337036 -35.544151 18.654757
-37.761372 -37.560452 19.675318
-38.090542 -37.556763 17.475328
-38.293022 -37.481583 15.08565
-38.484467 -34.753174 9.23592
-38.413391 -36.756435 10.296845
-38.358009 -36.120754 7.743586
-38.178322 -37.406017 6.110194
-38.264214 -35.333164 5.276776
-38.641602 -10.721183 11.644296
-38.882057 -13.008667 13.056209
-38.102535 -13.186568 11.181181
-37.217979 -17.757687 10.149066
-36.908157 -19.880304 9.522492
-37.534077 -21.865908 10.667974
-36.655296 -21.841465 8.699372
-36.546833 -25.30401 6.851077
-36.601818 -26.6647 5.705684
-37.390049 -28.694649 6.620368
-36.843327 -28.0599 4.630004
-38.053257 -33.356209 0.631082
-39.141983 -15.910425 21.919804
-39.180862 -18.140242 21.420494
-39.463734 -16.183969 19.972607
-39.514156 -16.617331 18.027859
-39.313419 -17.033855 16.140057
-39.983829 0.912081 9.884554
-39.410198 -1.661795 9.493997
-39.287842 0.586465 8.081003
-39.066467 -27.432222 18.478931
-38.871777 -29.433189 19.659883
-38.989391 -29.787264 17.620953
-38.907505 -31.771839 16.578114
-38.801495 -33.591404 15.32487
-38.64061 -35.377132 14.138489
-38.756294 -33.379597 13.151299
-38.589291 -33.173965 10.766335
-38.357819 -32.726086 8.554228
-36.817551 -23.971249 26.954861
-37.720352 -24.333048 25.226372
-38.409298 -24.726877 23.396025
-38.876781 -24.81563 21.510685
-39.187435 -20.566414 20.809017
-39.155468 -22.962925 20.183773
-39.117088 -25.107819 19.48085
-39.121532 -25.490145 17.340338
-38.906857 -25.669554 15.152436
-38.501541 -25.622202 13.015118
-39.998508 -7.728629 15.984201
-39.747852 -10.168484 15.470473
-39.732769 -8.010128 14.031563
-39.156513 -8.434867 12.098418
-38.313 -8.690154 10.186785
-38.760002 -4.169766 9.199851
-38.021519 -6.464181 8.781143
-37.31469 -8.964628 8.52673
-38.5467 -15.458604 23.86264
-39.01186 -13.617016 22.522699
-39.411591 -11.579511 21.058716
-39.745064 -9.537573 19.430042
-39.98822 -7.414794 17.851547
-40.16692 -5.226734 16.38063
-38.525227 -31.410936 20.838598
-38.039783 -33.31868 21.942509
-37.276829 -37.456566 21.859495
-38.40387 -37.147011 12.740726
-38.11195 -38.684471 11.064146
-39.441463 -12.649778 15.002096
-39.124599 -15.109071 14.545974
-38.833981 -17.368103 14.075858
-37.648308 -15.616595 10.76101
-38.122288 -17.571466 12.066286
-38.562859 -19.613943 13.510547
-38.26804 -21.847353 12.656407
-38.109238 -23.834982 11.932865
-37.966583 -25.831114 10.919712
-35.734314 -21.6884 6.912224
-36.571487 -23.653303 7.89894
-37.255192 -25.428211 8.843122
-37.920906 -27.462191 10.000051
-37.89732 -29.053318 8.775524
-37.989586 -30.671623 7.689392
-38.06023 -32.06292 6.3248
-37.72694 -31.310951 3.966157
-38.113922 -33.314796 4.616249
-38.157425 -34.417007 2.928319
-39.80576 -2.574673 11.242233
-39.813896 -3.702552 11.996346
-40.047767 -2.428217 12.144689
-37.836285 -9.996816 25.145476
-37.542482 -11.0335 25.762797
-38.109102 -8.997414 24.456274
-38.294978 -10.088255 24.209544
-37.836285 -9.996816 25.145476
-37.913686 -12.108461 10.520547
-38.372068 -11.953875 11.412738
-38.18322 -10.875768 10.752105
-36.378094 -19.84326 8.566426
-36.530808 -18.86279 8.907189
-36.000744 -18.825747 7.951123
-36.263388 -26.380642 4.694215
-36.18683 -25.739234 5.347675
-36.384142 -27.078242 4.156375
-36.722572 -27.3623 5.167844
-36.263388 -26.380642 4.694215
-39.564211 1.827401 8.201911
-39.635835 0.749273 8.982779
-39.912205 1.990209 9.103687
-37.627215 -23.202016 25.529792
-37.268952 -24.152149 26.090617
-37.175814 -23.021116 26.394036
-37.44923 -6.661971 7.967291
-37.864439 -5.423708 8.093424
-37.095816 -7.912195 7.840084
-37.668104 -7.714404 8.653937
-37.44923 -6.661971 7.967291
-36.641785 -9.092477 7.628756
-37.095816 -7.912195 7.840084
-38.016836 -14.306882 25.053635
-37.856163 -13.247594 25.30828
-38.437094 -14.369548 24.119203
-38.126442 -15.395938 24.797073
-38.016836 -14.306882 25.053635
-39.977831 -6.219774 18.149354
-39.827108 -7.262187 18.912498
-40.067181 -5.125744 17.413896
-40.07757 -6.320764 17.116089
-39.977831 -6.219774 18.149354
-37.552813 -27.536654 25.088214
-37.406502 -26.468429 25.527014
-37.68355 -31.071108 23.869232
-37.626739 -29.994411 24.377264
-38.00168 -30.111776 23.332411
-37.739313 -32.138815 23.390514
-37.68355 -31.071108 23.869232
-37.68853 -35.44128 21.836717
-37.724894 -34.333303 22.431284
-38.003419 -34.426657 21.347942
-37.621943 -36.4956 21.306435
-37.343417 -36.402247 22.389777
-37.68853 -35.44128 21.836717
-37.257419 -39.499609 19.47403
-37.390884 -38.554218 20.156029
-37.627907 -38.505842 18.993319
-37.079786 -40.463386 18.796835
-37.257419 -39.499609 19.47403
-37.275723 -40.416719 17.618918
-37.079786 -40.463386 18.796835
-37.658491 -40.179628 13.99585
-37.868749 -39.329731 14.71585
-37.765485 -39.983253 12.76125
-37.658491 -40.179628 13.99585
-37.930521 -39.237224 9.073821
-37.912264 -39.465771 10.276626
-38.130207 -38.455925 9.861341
-38.005617 -38.817532 7.79775
-37.930521 -39.237224 9.073821
-38.058689 -38.027502 5.262484
-38.175196 -36.976173 4.874371
-37.107447 -15.619184 9.809374
-37.369505 -14.501275 10.061083
-35.687345 -22.491688 6.425397
-35.203802 -21.494361 5.999377
-36.105932 -23.474139 6.918755
-36.152901 -22.670852 7.405582
-35.687345 -22.491688 6.425397
-37.80858 -31.837437 3.12098
-37.558407 -30.836507 2.836985
-38.002071 -32.839359 3.446026
-37.920431 -32.312874 4.291203
-37.80858 -31.837437 3.12098
-38.023823 -33.390465 2.602062
-38.135674 -33.865901 3.772284
-38.002071 -32.839359 3.446026
-38.112099 -34.429811 0.946103
-38.116505 -33.804299 -0.228475
-38.224622 -21.093356 24.368986
-37.92124 -22.153012 24.941828
-37.83746 -21.011328 25.260369
-38.125765 -3.123664 7.558119
-38.016123 -1.981682 6.917887
-37.703499 -12.151177 25.56977
-37.542482 -11.0335 25.762797
-38.174824 -12.184075 24.637255
-37.856163 -13.247594 25.30828
-37.703499 -12.151177 25.56977
-37.931088 -38.499144 16.70937
-37.633038 -39.446379 17.127366
-37.792492 -38.503998 17.893324
-38.032328 -38.461554 15.51453
-37.931088 -38.499144 16.70937
-38.191782 -37.519173 16.280489
-38.129444 -38.34976 14.286969
-37.868749 -39.329731 14.71585
-38.032328 -38.461554 15.51453
-38.218142 -35.939746 4.457662
-38.175196 -36.976173 4.874371
-38.221268 -36.369591 5.693485
-36.685719 -17.801482 9.220476
-36.892283 -16.68973 9.503402
-37.063068 -18.818995 9.835779
-36.685719 -17.801482 9.220476
-36.530808 -18.86279 8.907189
-36.159338 -25.058889 5.920372
-36.093605 -24.299492 6.394824
-36.574326 -25.984355 6.27838
-36.159338 -25.058889 5.920372
-36.18683 -25.739234 5.347675
-37.868767 -32.326036 0.346416
-37.971739 -32.860066 1.453443
-38.009175 -32.756397 -0.491049
-37.868767 -32.326036 0.346416
-38.116505 -33.804299 -0.228475
-38.009175 -32.756397 -0.491049
-39.697013 -0.374857 9.689276
-39.724914 -1.481066 10.442286
-40.01173 -0.194128 10.637565
-39.188658 1.723815 7.328166
-39.564211 1.827401 8.201911
-38.784025 0.496181 7.155228
-39.188658 1.723815 7.328166
-38.684842 1.633531 6.402392
-38.412189 -0.729098 6.969993
-38.916006 -0.638814 7.895768
-38.784025 0.496181 7.155228
-38.016123 -1.981682 6.917887
-38.412189 -0.729098 6.969993
-35.387165 -18.817032 7.026033
-36.000744 -18.825747 7.951123
-36.883105 -25.188904 26.716869
-36.389626 -25.052183 27.496524
-37.334505 -25.369804 25.852624
-36.883105 -25.188904 26.716869
-37.268952 -24.152149 26.090617
-37.792349 -25.431673 24.900762
-37.406502 -26.468429 25.527014
-37.334505 -25.369804 25.852624
-38.014377 -23.284045 24.638408
-37.627215 -23.202016 25.529792
-37.92124 -22.153012 24.941828
-38.018919 -9.860254 10.02335
-38.18322 -10.875768 10.752105
-38.477301 -9.705668 10.915541
-39.491043 -2.755402 10.293944
-39.80576 -2.574673 11.242233
-39.724914 -1.481066 10.442286
-38.23368 -4.276501 8.302778
-38.652086 -3.01693 8.455192
-38.125765 -3.123664 7.558119
-38.39076 -5.316973 8.990497
-38.23368 -4.276501 8.302778
-37.864439 -5.423708 8.093424
-37.519764 -9.997491 9.193322
-38.018919 -9.860254 10.02335
-37.813845 -8.827391 9.356758
-36.932987 -10.161746 8.302027
-37.519764 -9.997491 9.193322
-36.932987 -10.161746 8.302027
-36.641785 -9.092477 7.628756
-36.21752 -23.934703 27.816125
-36.389626 -25.052183 27.496524
-36.669641 -22.846615 27.265297
-36.21752 -23.934703 27.816125
-37.175814 -23.021116 26.394036
-36.669641 -22.846615 27.265297
-37.733137 -19.817186 25.528714
-37.83746 -21.011328 25.260369
-38.072031 -18.79674 24.901342
-37.733137 -19.817186 25.528714
-38.345154 -17.783872 24.24391
-38.413965 -18.938803 24.030095
-38.072031 -18.79674 24.901342
-38.27496 -16.550206 24.488898
-38.126442 -15.395938 24.797073
-38.616894 -16.692269 23.617652
-38.345154 -17.783872 24.24391
-38.27496 -16.550206 24.488898
-38.417309 -7.956015 23.713735
-38.109102 -8.997414 24.456274
-38.814787 -7.987106 22.772806
-38.417309 -7.956015 23.713735
-39.179213 -8.029788 21.752246
-38.93222 -9.131535 22.499783
-38.814787 -7.987106 22.772806
-39.481321 -8.141898 20.726337
-39.179213 -8.029788 21.752246
-39.70553 -8.323576 19.701746
-39.520855 -9.355895 20.454633
-39.481321 -8.141898 20.726337
-39.866642 -8.476183 18.640794
-39.70553 -8.323576 19.701746
-39.827108 -7.262187 18.912498
-40.190863 -4.073405 16.615262
-40.067181 -5.125744 17.413896
-40.228229 -4.166422 15.609764
-40.190863 -4.073405 16.615262
-40.178949 -4.354738 14.704749
-40.117639 -5.415051 15.475614
-40.228229 -4.166422 15.609764
-40.172721 -3.331104 13.868849
-40.062131 -4.579732 13.7347
-40.178949 -4.354738 14.704749
-40.211244 -2.317162 13.176094
-40.172721 -3.331104 13.868849
-40.047767 -2.428217 12.144689
-40.211244 -2.317162 13.176094
-40.179244 0.959313 10.83899
-40.01173 -0.194128 10.637565
-40.166288 2.064612 10.082444
-40.179244 0.959313 10.83899
-39.912205 1.990209 9.103687
-40.166288 2.064612 10.082444
-37.593075 -28.789044 24.720859
-37.552813 -27.536654 25.088214
-37.904608 -27.782688 24.207797
-37.593075 -28.789044 24.720859
-37.626739 -29.994411 24.377264
-37.729959 -33.203919 22.949579
-37.739313 -32.138815 23.390514
-38.049137 -32.253577 22.383444
-37.729959 -33.203919 22.949579
-37.724894 -34.333303 22.431284
-36.964619 -37.428743 22.824134
-37.343417 -36.402247 22.389777
-36.845343 -38.497789 22.328666
-36.964619 -37.428743 22.824134
-37.148613 -38.502275 21.248117
-37.519101 -37.508509 20.767406
-37.390884 -38.554218 20.156029
-36.845343 -38.497789 22.328666
-37.148613 -38.502275 21.248117
-37.275723 -40.416719 17.618918
-37.633038 -39.446379 17.127366
-37.838527 -39.71652 11.549179
-37.765485 -39.983253 12.76125
-38.038908 -38.951204 12.276217
-37.838527 -39.71652 11.549179
-37.912264 -39.465771 10.276626
-38.020546 -38.406851 6.523579
-38.005617 -38.817532 7.79775
-38.163393 -37.816698 7.384365
-38.020546 -38.406851 6.523579
-38.058689 -38.027502 5.262484
-37.596619 -13.286261 10.271168
-37.913686 -12.108461 10.520547
-37.875422 -14.401581 10.971096
-37.596619 -13.286261 10.271168
-37.369505 -14.501275 10.061083
-37.433143 -16.687141 10.455038
-37.107447 -15.619184 9.809374
-36.892283 -16.68973 9.503402
-35.287911 -19.709989 6.71722
-35.387165 -18.817032 7.026033
-35.231053 -20.651081 6.368151
-35.203802 -21.494361 5.999377
-35.791172 -20.747309 7.261292
-35.287911 -19.709989 6.71722
-35.231053 -20.651081 6.368151
-36.55916 -24.478656 7.375008
-36.105932 -23.474139 6.918755
-36.093605 -24.299492 6.394824
-36.575854 -27.731334 3.549101
-36.384142 -27.078242 4.156375
-36.970358 -28.669524 3.907561
-36.575854 -27.731334 3.549101
-37.334993 -29.708889 4.304229
-37.207963 -29.099265 5.026672
-36.970358 -28.669524 3.907561
-37.412165 -30.295049 3.575638
-37.558407 -30.836507 2.836985
-37.649769 -30.72479 4.694748
-37.334993 -29.708889 4.304229
-37.412165 -30.295049 3.575638
-38.164748 -35.481668 3.283434
-38.218142 -35.939746 4.457662
-38.210819 -34.875085 4.102548
-38.105341 -33.886608 1.779701
-38.023823 -33.390465 2.602062
-37.971739 -32.860066 1.453443
-38.164183 -34.960211 2.094721
-38.105341 -33.886608 1.779701
-38.112099 -34.429811 0.946103
-38.164748 -35.481668 3.283434
-38.164183 -34.960211 2.094721
3 0 38 36
3 1 41 39
3 1 43 41
3 2 46 44
3 4 49 47
3 4 51 49
3 149 54 150
3 151 150 52
3 149 150 151
3 152 55 153
3 154 57 155
3 156 155 55
3 154 155 156
3 3 60 58
3 5 63 61
3 5 65 63
3 5 66 65
3 6 69 67
3 6 71 69
3 157 74 158
3 159 158 72
3 157 158 159
3 7 160 162
3 160 76 161
3 160 161 162
3 7 78 76
3 163 80 164
3 165 82 166
3 167 166 80
3 165 166 167
3 8 86 84
3 10 87 37
3 10 88 87
3 168 91 169
3 170 169 89
3 168 169 170
3 12 94 92
3 14 95 40
3 14 96 95
3 14 98 96
3 16 99 42
3 16 100 99
3 171 102 172
3 173 172 101
3 171 172 173
3 18 103 45
3 18 104 103
3 9 105 85
3 19 106 48
3 19 107 106
3 19 108 107
3 20 109 50
3 20 110 109
3 21 113 111
3 23 114 53
3 23 115 114
3 11 116 90
3 174 117 175
3 176 118 177
3 178 177 117
3 176 177 178
3 180 179 118
3 24 181 182
3 24 183 185
3 183 119 184
3 183 184 185
3 24 120 119
3 25 121 56
3 25 122 121
3 186 123 187
3 188 124 189
3 190 189 123
3 188 189 190
3 17 191 192
3 26 193 195
3 195 194 59
3 193 194 195
3 26 196 197
3 13 125 93
3 27 126 62
3 27 198 200
3 200 199 126
3 198 199 200
3 27 201 203
3 201 127 202
3 201 202 203
3 28 204 206
3 206 205 64
3 204 205 206
3 28 207 208
3 28 209 210
3 29 211 212
3 29 213 214
3 15 128 97
3 30 129 68
3 30 215 217
3 217 216 129
3 215 216 217
3 30 218 219
3 221 220 70
3 22 130 112
3 31 131 73
3 31 132 131
3 222 133 223
3 32 134 75
3 32 135 134
3 32 136 135
3 33 137 77
3 33 138 137
3 224 139 225
3 226 140 227
3 228 227 139
3 226 227 228
3 34 141 79
3 34 142 141
3 34 143 142
3 35 144 81
3 35 145 144
3 229 146 230
3 231 147 232
3 233 232 146
3 231 232 233
3 234 148 235
3 236 235 147
3 234 235 236
3 238 237 83
3 36 37 8
3 38 37 36
3 38 10 37
3 39 40 12
3 41 40 39
3 41 14 40
3 41 42 14
3 43 42 41
3 43 16 42
3 44 239 241
3 239 45 240
3 239 240 241
3 46 45 44
3 46 18 45
3 47 48 9
3 49 48 47
3 49 19 48
3 49 50 19
3 51 50 49
3 51 20 50
3 52 53 21
3 54 53 52
3 54 23 53
3 243 242 11
3 55 244 245
3 55 246 248
3 246 24 247
3 246 247 248
3 55 56 24
3 57 56 55
3 57 25 56
3 58 59 17
3 60 59 58
3 60 26 59
3 61 62 13
3 63 62 61
3 63 27 62
3 63 64 27
3 65 64 63
3 65 28 64
3 65 249 251
3 251 250 28
3 249 250 251
3 66 252 254
3 254 253 65
3 252 253 254
3 66 255 257
3 255 29 256
3 255 256 257
3 67 68 15
3 69 68 67
3 69 30 68
3 69 70 30
3 71 70 69
3 71 258 260
3 260 259 70
3 258 259 260
3 72 73 22
3 74 73 72
3 74 31 73
3 261 75 262
3 76 263 265
3 263 75 264
3 263 264 265
3 76 32 75
3 76 77 32
3 78 77 76
3 78 33 77
3 266 79 267
3 80 268 270
3 268 79 269
3 268 269 270
3 80 34 79
3 80 81 34
3 82 81 80
3 82 35 81
3 271 83 272
3 273 83 274
3 276 275 83
3 84 85 2
3 86 85 84
3 86 9 85
3 37 86 8
3 87 86 37
3 87 9 86
3 87 47 9
3 88 47 87
3 88 4 47
3 89 277 279
3 277 90 278
3 277 278 279
3 91 90 89
3 91 11 90
3 280 91 281
3 282 91 283
3 282 283 284
3 285 11 286
3 287 286 91
3 285 286 287
3 289 288 11
3 92 93 3
3 94 93 92
3 94 13 93
3 40 94 12
3 95 94 40
3 95 13 94
3 95 61 13
3 96 61 95
3 96 5 61
3 96 97 5
3 98 97 96
3 98 15 97
3 42 98 14
3 99 98 42
3 99 15 98
3 99 67 15
3 100 67 99
3 100 6 67
3 290 7 291
3 101 292 293
3 102 294 296
3 296 295 101
3 294 295 296
3 102 297 299
3 297 17 298
3 297 298 299
3 45 300 302
3 300 102 301
3 300 301 302
3 103 102 45
3 103 17 102
3 103 58 17
3 104 58 103
3 104 3 58
3 85 46 2
3 105 46 85
3 105 18 46
3 48 105 9
3 106 105 48
3 106 18 105
3 106 104 18
3 107 104 106
3 107 3 104
3 107 92 3
3 108 92 107
3 108 12 92
3 50 108 19
3 109 108 50
3 109 12 108
3 109 39 12
3 110 39 109
3 110 1 39
3 111 112 0
3 113 112 111
3 113 22 112
3 53 113 21
3 114 113 53
3 114 22 113
3 114 72 22
3 115 72 114
3 115 303 305
3 305 304 72
3 303 304 305
3 90 306 308
3 306 54 307
3 306 307 308
3 116 54 90
3 116 23 54
3 309 116 310
3 311 310 11
3 309 310 311
3 117 312 314
3 312 116 313
3 312 313 314
3 117 23 116
3 117 115 23
3 118 115 117
3 118 315 317
3 317 316 115
3 315 316 317
3 118 318 319
3 321 320 118
3 322 101 323
3 324 101 325
3 327 326 101
3 328 44 329
3 330 44 331
3 332 2 333
3 334 333 44
3 332 333 334
3 119 335 336
3 119 337 339
3 337 2 338
3 337 338 339
3 119 84 2
3 120 84 119
3 120 8 84
3 56 120 24
3 121 120 56
3 121 8 120
3 121 36 8
3 122 36 121
3 122 0 36
3 340 57 341
3 342 57 343
3 344 25 345
3 346 345 57
3 344 345 346
3 347 25 348
3 349 122 350
3 351 350 25
3 349 350 351
3 123 352 354
3 352 122 353
3 352 353 354
3 123 0 122
3 123 111 0
3 124 111 123
3 124 21 111
3 355 124 356
3 357 124 358
3 359 21 360
3 361 360 124
3 359 360 361
3 362 52 363
3 364 363 21
3 362 363 364
3 365 52 366
3 368 367 52
3 369 89 370
3 371 89 372
3 374 373 89
3 59 375 377
3 377 376 17
3 375 376 377
3 379 378 59
3 93 60 3
3 125 60 93
3 125 26 60
3 62 125 13
3 126 125 62
3 126 26 125
3 126 380 382
3 382 381 26
3 380 381 382
3 384 383 126
3 127 385 386
3 127 387 388
3 64 127 27
3 389 127 390
3 391 390 64
3 389 390 391
3 393 392 127
3 395 394 28
3 97 66 5
3 128 66 97
3 128 29 66
3 68 128 15
3 129 128 68
3 129 29 128
3 129 396 398
3 398 397 29
3 396 397 398
3 400 399 129
3 70 401 403
3 403 402 30
3 401 402 403
3 405 404 70
3 112 38 0
3 130 38 112
3 130 10 38
3 73 130 22
3 131 130 73
3 131 10 130
3 131 88 10
3 132 88 131
3 132 4 88
3 406 74 407
3 133 408 410
3 408 74 409
3 408 409 410
3 133 31 74
3 75 411 413
3 411 133 412
3 411 412 413
3 134 133 75
3 134 31 133
3 134 132 31
3 135 132 134
3 135 4 132
3 135 51 4
3 136 51 135
3 136 20 51
3 77 136 32
3 137 136 77
3 137 20 136
3 137 110 20
3 138 110 137
3 138 1 110
3 414 7 415
3 139 416 417
3 139 418 420
3 418 7 419
3 418 419 420
3 139 78 7
3 140 78 139
3 140 33 78
3 79 421 423
3 421 140 422
3 421 422 423
3 141 140 79
3 141 33 140
3 141 138 33
3 142 138 141
3 142 1 138
3 142 43 1
3 143 43 142
3 143 16 43
3 81 143 34
3 144 143 81
3 144 16 143
3 144 100 16
3 145 100 144
3 145 6 100
3 424 82 425
3 426 82 427
3 428 35 429
3 430 429 82
3 428 429 430
3 146 431 432
3 146 433 435
3 433 35 434
3 433 434 435
3 146 145 35
3 147 145 146
3 147 6 145
3 147 71 6
3 148 71 147
3 148 436 438
3 438 437 71
3 436 437 438
3 83 439 441
3 439 148 440
3 439 440 441
3 442 148 443
3 444 443 83
3 442 443 444
3 446 445 148
