ply
format ascii 1.0
element vertex 107
property float x
property float y
property float z
element face 88
property list uchar int vertex_index
end_header
11.230453 48.556496 -52.163887
10.150247 56.249138 -51.45237
14.147142 55.742004 -51.677143
11.307005 40.779366 -52.67683
10.875859 52.734257 -51.822826
9.011549 52.889877 -51.684776
9.463299 49.489925 -52.094902
9.63097 45.6231 -52.513123
12.868988 39.783485 -52.372967
9.819255 38.184532 -53.17836
12.188331 56.050789 -51.620441
12.679976 51.901436 -51.89986
14.605371 51.600723 -51.834366
12.978714 47.968597 -52.094391
14.540187 42.93829 -52.004429
12.934725 43.802963 -52.264648
11.303583 44.704418 -52.43927
9.806533 41.73098 -52.885117
8.253175 39.116982 -53.475948
13.167737 55.896397 -51.648792
12.958626 57.815459 -51.535007
13.938032 57.661066 -51.563358
9.198001 56.282111 -51.318439
9.789244 57.983509 -51.230433
7.312022 51.434095 -51.686514
8.037447 52.986677 -51.546801
8.286124 51.337295 -51.824489
14.624208 49.386415 -51.889376
15.425118 51.197853 -51.767819
13.81088 47.570352 -52.019389
13.792043 49.78466 -51.964379
14.624208 49.386415 -51.889376
14.434981 40.69667 -52.006449
15.316153 42.31606 -51.833063
8.267744 37.408181 -53.668624
9.036215 38.650757 -53.327154
9.050784 36.941955 -53.51983
7.56794 38.065072 -53.812775
8.267744 37.408181 -53.668624
14.950169 57.538694 -51.577185
13.938032 57.661066 -51.563358
8.511999 49.63732 -52.029552
8.286124 51.337295 -51.824489
9.237424 51.189901 -51.889839
8.73211 47.992729 -52.282061
8.511999 49.63732 -52.029552
8.815945 46.059317 -52.491171
8.73211 47.992729 -52.282061
9.547134 47.556512 -52.304012
8.969344 44.21616 -52.743359
8.815945 46.059317 -52.491171
12.745717 37.70314 -52.406405
13.599381 39.119268 -52.190718
12.054077 38.330656 -52.612498
12.745717 37.70314 -52.406405
11.273086 38.828597 -52.764429
12.087996 40.281425 -52.524899
12.054077 38.330656 -52.612498
10.529211 37.53118 -53.015194
10.56313 39.481949 -52.927595
11.273086 38.828597 -52.764429
9.748828 36.340964 -53.31152
10.529211 37.53118 -53.015194
9.050784 36.941955 -53.51983
9.748828 36.340964 -53.31152
10.83819 58.039774 -51.364907
9.789244 57.983509 -51.230433
11.857232 57.9406 -51.448942
12.958626 57.815459 -51.535007
11.169289 56.149963 -51.536406
10.83819 58.039774 -51.364907
11.857232 57.9406 -51.448942
8.628652 54.60248 -51.434642
9.198001 56.282111 -51.318439
9.580898 54.569508 -51.568573
8.628652 54.60248 -51.434642
8.037447 52.986677 -51.546801
15.132338 55.525467 -51.648298
14.950169 57.538694 -51.577185
15.361452 53.454826 -51.72691
15.425118 51.197853 -51.767819
14.376257 53.671363 -51.755755
15.132338 55.525467 -51.648298
15.361452 53.454826 -51.72691
15.457862 44.645239 -51.846836
15.316153 42.31606 -51.833063
14.591616 45.055199 -51.974407
15.457862 44.645239 -51.846836
13.704587 41.360888 -52.188698
14.434981 40.69667 -52.006449
13.599381 39.119268 -52.190718
13.788885 45.487535 -52.104517
14.591616 45.055199 -51.974407
13.737456 43.370627 -52.134539
12.95672 45.88578 -52.179519
13.81088 47.570352 -52.019389
13.788885 45.487535 -52.104517
9.057125 42.2701 -52.929356
8.969344 44.21616 -52.743359
9.718751 43.67704 -52.69912
8.280447 40.9631 -53.224772
9.057125 42.2701 -52.929356
9.029854 40.423981 -53.180532
7.536207 39.747023 -53.529341
8.280447 40.9631 -53.224772
7.536207 39.747023 -53.529341
7.56794 38.065072 -53.812775
3 0 6 4
3 0 7 6
3 2 19 21
3 19 10 20
3 19 20 21
3 2 11 10
3 1 22 23
3 26 25 5
3 24 25 26
3 27 12 28
3 29 13 30
3 31 30 12
3 29 30 31
3 32 14 33
3 3 15 8
3 3 16 15
3 3 17 16
3 34 18 35
3 36 35 9
3 34 35 36
3 38 37 18
3 39 2 40
3 4 5 1
3 6 5 4
3 6 41 43
3 43 42 5
3 41 42 43
3 6 44 45
3 7 46 48
3 48 47 6
3 46 47 48
3 7 49 50
3 51 8 52
3 53 8 54
3 55 3 56
3 57 56 8
3 55 56 57
3 58 9 59
3 60 59 3
3 58 59 60
3 61 9 62
3 64 63 9
3 65 1 66
3 10 67 68
3 10 69 71
3 69 1 70
3 69 70 71
3 10 4 1
3 11 4 10
3 11 0 4
3 5 72 74
3 74 73 1
3 72 73 74
3 76 75 5
3 77 2 78
3 12 79 80
3 12 81 83
3 81 2 82
3 81 82 83
3 12 11 2
3 13 11 12
3 13 0 11
3 14 84 85
3 14 86 87
3 8 88 90
3 88 14 89
3 88 89 90
3 15 14 8
3 15 91 93
3 93 92 14
3 91 92 93
3 15 94 96
3 94 13 95
3 94 95 96
3 16 13 15
3 16 0 13
3 16 7 0
3 17 7 16
3 17 97 99
3 99 98 7
3 97 98 99
3 9 17 3
3 18 17 9
3 18 100 102
3 102 101 17
3 100 101 102
3 18 103 104
3 106 105 18
