ply
format ascii 1.0
element vertex 544
property float x
property float y
property float z
element face 581
property list uchar int vertex_index
end_header
-6.843683 -10.74527 -62.383541
-6.289782 11.187957 -70.022224
-20.897701 21.215652 -70.901268
-19.28055 -4.713273 -67.623161
-12.750035 17.574854 -72.861137
-5.624463 21.40056 -69.535439
-0.987009 12.81214 -64.922813
-6.76012 -0.361538 -66.780869
-28.766459 11.198074 -67.609978
-20.565809 9.297992 -71.403191
-12.801277 5.704574 -70.912178
-11.925368 -7.628088 -65.659599
-16.433535 -19.774059 -61.522663
-0.463821 17.815088 -64.416985
-24.782305 10.607401 -70.088676
-20.953468 15.600555 -71.806412
-9.186964 14.850807 -71.942596
-12.944426 11.835321 -72.415161
-9.500757 9.080718 -71.096199
-9.549664 2.792621 -69.19696
-6.547618 5.488169 -68.749542
-18.115826 -12.154461 -64.759903
-14.323195 -13.193902 -63.818836
-15.345226 -6.105977 -66.933212
-16.780558 19.832895 -72.539192
-9.006163 19.921186 -71.754951
-5.983762 16.48016 -70.338943
-23.558575 -3.571368 -67.490562
-3.087924 17.303749 -67.769585
-3.384457 12.300944 -67.818115
0.390806 8.129424 -61.821903
-1.609417 7.86278 -64.809166
-3.849951 7.092825 -67.180244
-4.326312 1.641484 -65.827858
-5.003318 -9.456858 -61.766895
-28.325191 4.519611 -67.584152
-24.343576 3.714571 -69.235764
-20.147524 2.560199 -69.922379
-16.663124 14.06714 -72.714348
-16.402689 7.817577 -71.662331
-16.116163 0.972732 -69.633064
-12.505415 -0.959878 -68.54464
-9.40145 -3.326544 -66.758804
-8.864308 -9.341716 -63.934467
-10.916285 -14.121056 -62.532845
-5.532864 -14.918756 -59.731121
-23.041756 16.113386 -70.903435
-20.987654 18.419744 -71.544731
-7.720047 12.925487 -71.105476
-9.328588 11.915546 -71.626671
-7.84172 10.107585 -70.668625
-7.947641 7.299314 -70.019516
-6.479364 8.455018 -69.549652
-18.814537 -8.283052 -66.303543
-16.879663 -8.884597 -65.9729
-17.268307 -5.378385 -67.369377
-7.320583 20.682253 -70.815292
-7.423162 18.23859 -71.174164
-5.83343 18.957813 -70.106903
-1.284287 22.210264 -64.881927
-0.799357 15.395554 -64.88855
-1.700467 17.558823 -66.106667
-1.955868 15.301744 -66.439163
-3.24408 14.878356 -67.922302
-2.173439 12.766239 -66.501411
-2.774404 7.61376 -66.20031
-4.12534 4.507435 -66.653198
-28.968531 13.977408 -67.094627
-30.690634 11.055087 -65.899429
-32.201202 7.952474 -64.613464
-30.433409 8.14599 -66.32444
-30.292589 4.719998 -66.287941
-28.569187 8.017735 -67.764694
-22.688829 10.030943 -70.889206
-24.7034 7.211983 -69.747269
-22.533005 6.690963 -70.411728
-22.28476 2.998682 -69.646858
-20.475546 5.874117 -70.726677
-14.757195 18.781399 -72.869324
-16.772387 16.937103 -72.79451
-14.760119 15.918777 -72.938942
-12.932677 8.744529 -71.765381
-14.753386 10.001472 -72.177872
-14.639701 6.671329 -71.360023
-16.474913 4.475962 -70.755508
-14.480613 3.253332 -70.313347
-14.220756 -0.07944 -69.129059
-12.628029 2.313453 -69.775253
-8.030794 1.473084 -68.123993
-9.461782 -0.169651 -68.05896
-8.077904 -1.498571 -66.986488
-8.072165 -4.611405 -65.690643
-18.368309 -19.190048 -61.985489
-14.506966 -20.124405 -61.016026
-13.207275 -10.257468 -64.829948
-12.573621 -13.600041 -63.237255
-11.443507 -10.864321 -64.116325
-9.879335 -11.402729 -63.385937
-10.312817 -8.479524 -64.827156
-4.38977 -14.511329 -59.103313
0.371874 15.557762 -63.157627
0.031372 13.174026 -63.44976
-26.880306 10.843429 -68.953255
-22.89757 13.227142 -71.058563
-20.799547 12.735209 -71.771904
-10.96317 16.166597 -72.554253
-12.776244 14.85146 -72.782883
-10.964426 13.311333 -72.31134
-11.168496 10.484849 -71.871552
-11.118714 7.582562 -71.153954
-11.081817 4.42388 -70.18895
-9.447683 6.055997 -70.244644
-8.077204 4.386619 -69.179787
-6.749812 2.59266 -67.890617
-21.362452 -15.036819 -63.668415
-19.437899 -15.444736 -63.522804
-17.294174 -15.708885 -63.261028
-15.353804 -16.356434 -62.709679
-16.104992 -12.574626 -64.382065
-14.95495 -9.628344 -65.432465
-13.579924 -6.851366 -66.35582
-18.972532 20.394535 -71.899139
-14.674154 21.333971 -72.473877
-12.8408 20.125566 -72.656624
-10.85291 21.289162 -72.113335
-10.904679 18.936874 -72.469185
-9.256043 17.528887 -72.042122
-7.584242 15.804073 -71.287956
-6.083777 13.911029 -70.266907
-21.472439 -4.083535 -67.673813
-1.538482 19.825554 -65.681824
-2.867174 19.597662 -67.308289
-4.281282 19.284397 -68.797287
-4.440201 16.881516 -69.11898
-4.61153 14.455147 -69.199745
-4.791679 11.933802 -69.060951
0.722674 10.724097 -61.910442
-0.268046 10.53866 -63.4622
-0.540332 8.111807 -63.317223
-1.367032 10.378379 -65.057365
-2.46372 10.138514 -66.427834
-3.707163 9.821133 -67.704483
-4.981862 9.24739 -68.698387
-5.156879 6.664701 -68.169632
-5.337302 3.764224 -67.390007
-5.567104 0.854044 -66.502876
-4.51328 -1.251544 -64.87175
-5.706857 -2.09557 -65.432915
-5.857636 -7.635052 -63.170193
-6.86904 -8.702463 -63.309917
-5.995003 -10.341696 -62.063797
-30.040985 1.259541 -66.023506
-28.079994 0.886048 -67.087692
-26.568693 7.664855 -68.941177
-26.361372 4.235392 -68.549263
-26.095385 0.441742 -67.862755
-24.065407 -0.088794 -68.386856
-21.853281 -0.516764 -68.753357
-19.836895 -1.124864 -68.825241
-18.840471 17.771967 -72.339432
-18.72513 14.848913 -72.430794
-18.705328 11.901537 -72.183708
-14.736757 12.949386 -72.68779
-16.595766 11.076011 -72.330154
-18.50239 8.740787 -71.681595
-18.356634 5.296368 -70.881439
-18.137667 1.63257 -69.828629
-17.813162 -1.834502 -68.678841
-15.910514 -2.5868 -68.347954
-14.004537 -3.368125 -67.847572
-12.307514 -4.269605 -67.175636
-10.994002 1.043265 -68.978058
-10.907389 -2.14277 -67.711525
-10.639251 -5.376387 -66.281097
-9.194623 -6.529078 -65.30925
-7.931568 -7.52239 -64.358017
-7.703669 -10.111396 -63.095947
-13.522465 -16.667446 -62.186558
-9.39581 -14.555834 -61.80608
-8.528319 -12.065496 -62.57098
-7.328245 -12.475909 -61.840508
-6.677036 -15.049882 -60.344715
-6.232346 -12.478829 -61.247086
-5.194695 -12.20616 -60.696598
-21.943832 21.232749 -70.30019
-20.864595 22.255215 -70.470779
-21.874115 20.060612 -70.726784
-21.943832 21.232749 -70.30019
-20.942678 19.817698 -71.223
-21.919092 18.662658 -71.048515
-21.874115 20.060612 -70.726784
-19.047544 -6.498162 -66.963352
-19.832438 -8.011868 -66.378597
-20.065444 -6.226978 -67.038406
-6.472523 21.041407 -70.175365
-7.279724 21.860936 -70.487274
-6.431664 22.22009 -69.847347
-0.665095 22.382988 -64.036158
-1.236763 23.401224 -64.44363
-6.809219 -1.828918 -66.21143
-7.468111 -2.397435 -66.314239
-7.419012 -0.930055 -66.883679
-16.883505 -21.390757 -60.952913
-17.850892 -21.098751 -61.184326
-17.400922 -19.482053 -61.754076
-15.892449 -21.668139 -60.686599
-16.883505 -21.390757 -60.952913
-15.47025 -19.949232 -61.269345
-14.929164 -21.843311 -60.433281
-15.892449 -21.668139 -60.686599
0.727726 14.397113 -62.472585
0.933254 15.745838 -62.305479
0.557474 13.205246 -62.618652
0.201623 14.365894 -63.303693
0.727726 14.397113 -62.472585
-21.784422 -13.109199 -64.373155
-22.396916 -14.722582 -63.695848
-18.776863 -13.799599 -64.141353
-19.783552 -13.442463 -64.307308
-19.122516 -11.797325 -64.925858
-13.677868 21.998278 -72.273087
-14.722278 22.471972 -72.122234
-12.761191 21.394075 -72.36446
-13.757477 20.729768 -72.56525
-13.677868 21.998278 -72.273087
-9.929537 20.605174 -71.934143
-9.953592 21.77738 -71.703469
-9.030219 21.093392 -71.524277
-23.209944 -5.420894 -66.944576
-24.289377 -5.12965 -66.824874
-22.515507 -3.827452 -67.582188
-22.166876 -5.676977 -67.036202
-23.209944 -5.420894 -66.944576
-1.001151 18.820321 -65.049405
-0.90406 20.009218 -64.812258
-0.366729 19.003985 -64.179839
0.55674 9.426761 -61.866173
1.025461 9.562973 -61.111576
0.859527 8.265636 -61.067307
-1.074874 7.987293 -64.063195
-0.69339 6.805865 -63.176914
-1.227933 6.681351 -63.922886
-4.580535 -2.64747 -64.351281
-4.030622 -2.335396 -63.990246
-5.177324 -3.069483 -64.631863
-5.110069 -1.673557 -65.152332
-4.580535 -2.64747 -64.351281
-5.728883 -3.485626 -64.865223
-5.177324 -3.069483 -64.631863
-5.430477 -8.545955 -62.468544
-5.328193 -7.158728 -62.995048
-4.901034 -8.069631 -62.293399
-32.93528 6.377147 -63.850204
-32.148174 6.285147 -64.682643
-7.39127 -6.72975 -64.435791
-8.001867 -6.066897 -65.02433
-7.461569 -5.274257 -65.102104
-6.860006 -7.319786 -63.911741
-7.400304 -8.112426 -63.833967
-7.39127 -6.72975 -64.435791
-11.360017 -15.636335 -62.022315
-12.188685 -15.375827 -62.374519
-11.744953 -13.860549 -62.88505
-10.554893 -15.848453 -61.665165
-11.360017 -15.636335 -62.022315
-10.156047 -14.338445 -62.169463
-9.794656 -16.065843 -61.301783
-10.554893 -15.848453 -61.665165
-7.321031 -15.042545 -60.667349
-6.931669 -16.441208 -59.871282
-7.646636 -13.755559 -61.415245
-7.002641 -13.762895 -61.092612
-7.321031 -15.042545 -60.667349
-22.946143 17.509479 -70.727867
-23.992131 16.411113 -70.324421
-22.014705 17.266565 -71.224083
-22.946143 17.509479 -70.727867
-21.919092 18.662658 -71.048515
-19.471871 -9.861621 -65.697677
-19.832438 -8.011868 -66.378597
-18.465181 -10.218756 -65.531723
-19.122516 -11.797325 -64.925858
-19.471871 -9.861621 -65.697677
-8.187429 21.473925 -71.054447
-7.279724 21.860936 -70.487274
-8.163373 20.301719 -71.285122
-9.030219 21.093392 -71.524277
-8.187429 21.473925 -71.054447
-24.600243 -3.353947 -67.282455
-24.289377 -5.12965 -66.824874
-1.941752 23.17686 -65.343422
-1.236763 23.401224 -64.44363
-1.977678 22.049301 -65.753681
-1.941752 23.17686 -65.343422
0.679464 6.964463 -60.978828
0.859527 8.265636 -61.067307
-1.754313 6.602996 -64.643627
-1.227933 6.681351 -63.922886
-2.336806 6.478487 -65.339199
-2.191911 7.73827 -65.504738
-1.754313 6.602996 -64.643627
-2.861471 6.256111 -65.902515
-2.336806 6.478487 -65.339199
-3.399244 5.995643 -66.392482
-3.312177 7.353293 -66.690277
-2.861471 6.256111 -65.902515
-3.536938 4.702948 -66.12896
-3.987645 5.80013 -66.916721
-3.399244 5.995643 -66.392482
-3.64104 3.439286 -65.812714
-3.536938 4.702948 -66.12896
-3.741526 2.006311 -65.400044
-4.225826 3.07446 -66.240528
-3.64104 3.439286 -65.812714
-4.48005 -9.099891 -61.49377
-4.901034 -8.069631 -62.293399
-29.839085 13.894433 -66.204247
-28.908124 15.318189 -66.777198
-30.700136 12.433273 -65.606648
-29.839085 13.894433 -66.204247
-29.829583 12.516248 -66.497028
-31.488326 11.001214 -65.008167
-30.700136 12.433273 -65.606648
-31.445918 9.50378 -65.256446
-32.24361 9.449908 -64.365184
-31.488326 11.001214 -65.008167
-31.264277 6.381905 -65.538131
-32.148174 6.285147 -64.682643
-31.317306 8.049232 -65.468952
-30.362999 6.432994 -66.30619
-31.193867 4.668909 -65.519882
-31.264277 6.381905 -65.538131
-7.465241 -3.953852 -65.666317
-8.075035 -3.054988 -66.338565
-7.468111 -2.397435 -66.314239
-7.461569 -5.274257 -65.102104
-7.465241 -3.953852 -65.666317
-18.783857 -21.069448 -61.277265
-19.319295 -19.125407 -62.052099
-18.783857 -21.069448 -61.277265
-17.850892 -21.098751 -61.184326
-13.943582 -21.973278 -60.156141
-14.929164 -21.843311 -60.433281
-13.580486 -20.124229 -60.779581
-13.943582 -21.973278 -60.156141
-3.938644 -15.883342 -58.182533
-3.83916 -14.331073 -58.721327
-4.534009 -16.07098 -58.556555
-3.938644 -15.883342 -58.182533
-5.105557 -16.274694 -58.870458
-4.961317 -14.715042 -59.417217
-4.534009 -16.07098 -58.556555
-5.604213 22.502331 -69.183594
-6.431664 22.22009 -69.847347
0.088668 17.95216 -63.610241
-0.366729 19.003985 -64.179839
0.506516 16.823498 -62.980562
0.933254 15.745838 -62.305479
-0.045974 16.686425 -63.787306
0.088668 17.95216 -63.610241
0.506516 16.823498 -62.980562
-27.990854 15.333527 -67.650222
-28.908124 15.318189 -66.777198
-27.968396 14.026315 -67.913326
-27.990854 15.333527 -67.650222
-27.867361 12.636648 -68.171001
-28.867495 12.587741 -67.352303
-27.968396 14.026315 -67.913326
-26.924284 12.459325 -68.84264
-27.823383 11.020751 -68.281616
-27.867361 12.636648 -68.171001
-25.924461 12.242002 -69.499058
-26.924284 12.459325 -68.84264
-24.87546 12.123988 -70.066768
-25.831305 10.725415 -69.520966
-25.924461 12.242002 -69.499058
-24.005185 14.876981 -70.474148
-23.992131 16.411113 -70.324421
-23.933093 13.433859 -70.551712
-24.005185 14.876981 -70.474148
-22.969663 14.670264 -70.980999
-23.839938 11.917272 -70.57362
-24.87546 12.123988 -70.066768
-23.933093 13.433859 -70.551712
-21.885567 -16.83973 -62.934406
-22.396916 -14.722582 -63.695848
-20.816367 -17.048793 -62.893563
-21.885567 -16.83973 -62.934406
-20.745829 -13.238504 -64.380114
-21.784422 -13.109199 -64.373155
-20.400176 -15.240778 -63.59561
-20.745829 -13.238504 -64.380114
-19.783552 -13.442463 -64.307308
-19.85409 -17.252751 -62.820757
-20.816367 -17.048793 -62.893563
-20.400176 -15.240778 -63.59561
-18.903104 -17.317392 -62.754147
-19.319295 -19.125407 -62.052099
-19.85409 -17.252751 -62.820757
-19.815963 22.063492 -71.038467
-20.864595 22.255215 -70.470779
-18.853378 21.652934 -71.537403
-19.935116 20.805093 -71.400204
-19.815963 22.063492 -71.038467
-17.894978 21.339093 -71.92234
-18.853378 21.652934 -71.537403
-16.798991 21.058273 -72.242367
-17.876545 20.113715 -72.219166
-17.894978 21.339093 -71.92234
-15.745788 21.808811 -72.209709
-14.722278 22.471972 -72.122234
-15.727356 20.583433 -72.506535
-16.798991 21.058273 -72.242367
-15.745788 21.808811 -72.209709
-10.828422 22.522193 -71.750042
-9.953592 21.77738 -71.703469
-11.767246 21.975873 -72.092816
-10.828422 22.522193 -71.750042
-11.846855 20.707364 -72.38498
-12.761191 21.394075 -72.36446
-11.767246 21.975873 -72.092816
-21.161389 -5.912109 -67.063732
-22.166876 -5.676977 -67.036202
-20.376494 -4.398404 -67.648487
-20.065444 -6.226978 -67.038406
-21.161389 -5.912109 -67.063732
-4.861139 21.491328 -68.861385
-5.604213 22.502331 -69.183594
-0.776963 21.201573 -64.41231
-0.665095 22.382988 -64.036158
-1.411385 21.017909 -65.281876
-0.776963 21.201573 -64.41231
-0.90406 20.009218 -64.812258
-2.104776 20.856946 -66.153629
-1.977678 22.049301 -65.753681
-1.411385 21.017909 -65.281876
-2.769121 20.743 -66.966862
-2.104776 20.856946 -66.153629
-2.202828 19.711608 -66.495057
-3.482494 20.589879 -67.74781
-2.769121 20.743 -66.966862
-4.189548 20.433246 -68.49231
-3.482494 20.589879 -67.74781
-3.574228 19.441029 -68.052788
-4.952872 20.342478 -69.166363
-4.861139 21.491328 -68.861385
-4.189548 20.433246 -68.49231
1.266536 10.812964 -61.03281
1.025461 9.562973 -61.111576
0.903126 11.980281 -61.848993
1.266536 10.812964 -61.03281
0.377023 11.949061 -62.680101
0.557474 13.205246 -62.618652
0.903126 11.980281 -61.848993
0.235217 6.842406 -61.698753
0.679464 6.964463 -60.978828
-0.230352 6.833597 -62.446413
-0.69339 6.805865 -63.176914
-0.074763 8.120615 -62.569563
0.235217 6.842406 -61.698753
-0.230352 6.833597 -62.446413
-3.849701 0.587059 -64.976677
-3.741526 2.006311 -65.400044
-3.943185 -0.859455 -64.498623
-4.030622 -2.335396 -63.990246
-4.419796 0.19497 -65.349804
-3.849701 0.587059 -64.976677
-3.943185 -0.859455 -64.498623
-6.282587 -2.695934 -65.537453
-6.809219 -1.828918 -66.21143
-6.233488 -1.228554 -66.106892
-6.282587 -2.695934 -65.537453
-5.728883 -3.485626 -64.865223
-5.804272 -6.255367 -63.733862
-5.328193 -7.158728 -62.995048
-6.354304 -6.786081 -63.841879
-5.804272 -6.255367 -63.733862
-6.363338 -8.168757 -63.240055
-6.860006 -7.319786 -63.911741
-6.354304 -6.786081 -63.841879
-33.020505 7.930769 -63.615549
-32.24361 9.449908 -64.365184
-33.020505 7.930769 -63.615549
-32.93528 6.377147 -63.850204
-31.095907 3.013383 -65.466751
-31.193867 4.668909 -65.519882
-30.970105 1.283154 -65.334533
-31.095907 3.013383 -65.466751
-30.166787 2.98977 -66.155723
-30.778937 -0.503189 -65.192631
-30.970105 1.283154 -65.334533
-29.87932 -0.60637 -65.750084
-30.778937 -0.503189 -65.192631
-28.898824 -0.793117 -66.282177
-29.87932 -0.60637 -65.750084
-29.060489 1.072795 -66.555599
-27.911751 -0.9391 -66.739666
-28.898824 -0.793117 -66.282177
-26.919446 -1.161253 -67.127197
-27.911751 -0.9391 -66.739666
-27.087689 0.663895 -67.475223
-25.868648 -1.347392 -67.468552
-26.919446 -1.161253 -67.127197
-24.853659 -1.61266 -67.730602
-25.868648 -1.347392 -67.468552
-25.080396 0.176474 -68.124806
-23.811991 -1.830081 -67.938709
-24.600243 -3.353947 -67.282455
-24.853659 -1.61266 -67.730602
-13.088236 -18.395749 -61.364847
-13.580486 -20.124229 -60.779581
-14.014716 -18.395926 -61.601292
-12.663107 -16.90953 -61.849171
-13.048043 -15.133744 -62.711906
-12.188685 -15.375827 -62.374519
-13.088236 -18.395749 -61.364847
-12.663107 -16.90953 -61.849171
-9.00278 -16.055968 -60.990744
-9.794656 -16.065843 -61.301783
-8.680418 -14.795521 -61.398032
-9.00278 -16.055968 -60.990744
-8.246672 -13.550352 -61.780482
-8.680418 -14.795521 -61.398032
-8.962065 -13.310665 -62.18853
-7.928282 -12.270702 -62.205744
-7.646636 -13.755559 -61.415245
-8.246672 -13.550352 -61.780482
-5.70599 -16.390554 -59.204729
-5.105557 -16.274694 -58.870458
-6.278076 -16.456117 -59.511526
-6.931669 -16.441208 -59.871282
-6.10495 -14.984319 -60.037918
-5.70599 -16.390554 -59.204729
-6.278076 -16.456117 -59.511526
-4.58111 -10.555847 -60.953856
-4.48005 -9.099891 -61.49377
-4.274336 -13.083082 -59.622065
-3.83916 -14.331073 -58.721327
-4.676798 -11.930498 -60.418707
-4.274336 -13.083082 -59.622065
-4.792233 -13.358745 -59.899956
-5.099006 -10.831509 -61.231746
-4.58111 -10.555847 -60.953856
-4.676798 -11.930498 -60.418707
3 2 184 185
3 2 186 187
3 2 188 190
3 188 47 189
3 188 189 190
3 1 50 48
3 1 52 50
3 3 191 193
3 191 53 192
3 191 192 193
3 3 55 53
3 5 194 196
3 194 56 195
3 194 195 196
3 5 58 56
3 197 59 198
3 6 62 60
3 6 64 62
3 8 68 67
3 8 70 68
3 8 72 70
3 9 75 73
3 9 77 75
3 4 80 78
3 10 83 81
3 10 85 83
3 10 87 85
3 7 90 88
3 7 199 201
3 201 200 90
3 199 200 201
3 12 202 204
3 204 203 92
3 202 203 204
3 12 205 206
3 12 207 209
3 207 93 208
3 207 208 209
3 11 96 94
3 11 98 96
3 210 100 211
3 212 101 213
3 214 213 100
3 212 213 214
3 15 103 46
3 15 104 103
3 16 107 105
3 18 108 49
3 18 109 108
3 18 111 109
3 20 112 51
3 20 113 112
3 215 114 216
3 21 217 219
3 217 115 218
3 217 218 219
3 21 116 115
3 21 118 116
3 23 119 54
3 23 120 119
3 220 122 221
3 222 123 223
3 224 223 122
3 222 223 224
3 25 225 227
3 225 124 226
3 225 226 227
3 25 125 124
3 25 126 125
3 26 127 57
3 26 128 127
3 27 228 229
3 27 230 232
3 230 129 231
3 230 231 232
3 13 233 235
3 233 130 234
3 233 234 235
3 28 131 61
3 28 132 131
3 28 133 132
3 29 134 63
3 29 135 134
3 30 236 238
3 236 136 237
3 236 237 238
3 30 137 136
3 31 239 241
3 239 138 240
3 239 240 241
3 31 139 138
3 31 140 139
3 32 141 65
3 32 142 141
3 32 143 142
3 33 144 66
3 33 145 144
3 242 146 243
3 244 147 245
3 246 245 146
3 244 245 246
3 248 247 147
3 34 249 251
3 249 148 250
3 249 250 251
3 34 150 148
3 253 252 69
3 35 151 71
3 35 152 151
3 14 153 102
3 36 154 74
3 36 155 154
3 36 156 155
3 37 157 76
3 37 158 157
3 24 159 121
3 38 160 79
3 38 161 160
3 17 162 106
3 39 163 82
3 39 164 163
3 39 165 164
3 40 166 84
3 40 167 166
3 40 168 167
3 41 169 86
3 41 170 169
3 19 171 110
3 42 172 89
3 42 173 172
3 42 174 173
3 254 175 255
3 256 255 91
3 254 255 256
3 257 149 258
3 259 258 175
3 257 258 259
3 22 177 117
3 44 260 262
3 262 261 95
3 260 261 262
3 44 263 264
3 44 265 267
3 265 178 266
3 265 266 267
3 43 179 97
3 43 176 179
3 268 181 269
3 270 180 271
3 272 271 181
3 270 271 272
3 45 183 99
3 45 182 183
3 273 46 274
3 47 275 277
3 275 46 276
3 275 276 277
3 47 15 46
3 48 49 16
3 50 49 48
3 50 18 49
3 50 51 18
3 52 51 50
3 52 20 51
3 53 278 279
3 53 280 282
3 280 21 281
3 280 281 282
3 53 54 21
3 55 54 53
3 55 23 54
3 56 283 284
3 56 285 287
3 285 25 286
3 285 286 287
3 56 57 25
3 58 57 56
3 58 26 57
3 288 27 289
3 59 290 291
3 59 292 293
3 60 61 13
3 62 61 60
3 62 28 61
3 62 63 28
3 64 63 62
3 64 29 63
3 294 30 295
3 296 31 297
3 298 65 299
3 300 299 31
3 298 299 300
3 301 65 302
3 303 32 304
3 305 304 65
3 303 304 305
3 306 66 307
3 308 307 32
3 306 307 308
3 309 66 310
3 311 33 312
3 313 312 66
3 311 312 313
3 314 34 315
3 67 316 317
3 68 318 320
3 320 319 67
3 318 319 320
3 68 321 322
3 68 323 325
3 323 69 324
3 323 324 325
3 70 69 68
3 70 326 328
3 328 327 69
3 326 327 328
3 70 329 331
3 329 71 330
3 329 330 331
3 72 71 70
3 72 35 71
3 73 74 14
3 75 74 73
3 75 36 74
3 75 76 36
3 77 76 75
3 77 37 76
3 78 79 24
3 80 79 78
3 80 38 79
3 81 82 17
3 83 82 81
3 83 39 82
3 83 84 39
3 85 84 83
3 85 40 84
3 85 86 40
3 87 86 85
3 87 41 86
3 88 89 19
3 90 89 88
3 90 42 89
3 90 91 42
3 332 91 333
3 334 333 90
3 332 333 334
3 336 335 91
3 92 337 338
3 340 339 92
3 93 341 342
3 93 343 344
3 94 95 22
3 96 95 94
3 96 44 95
3 96 97 44
3 98 97 96
3 98 43 97
3 345 99 346
3 347 99 348
3 349 45 350
3 351 350 99
3 349 350 351
3 352 5 353
3 354 13 355
3 100 356 357
3 100 358 360
3 358 13 359
3 358 359 360
3 100 60 13
3 101 60 100
3 101 6 60
3 361 67 362
3 363 67 364
3 365 8 366
3 367 366 67
3 365 366 367
3 368 102 369
3 370 369 8
3 368 369 370
3 371 102 372
3 373 14 374
3 375 374 102
3 373 374 375
3 46 376 377
3 103 378 380
3 380 379 46
3 378 379 380
3 103 381 383
3 381 14 382
3 381 382 383
3 103 73 14
3 104 73 103
3 104 9 73
3 105 106 4
3 107 106 105
3 107 17 106
3 49 107 16
3 108 107 49
3 108 17 107
3 108 81 17
3 109 81 108
3 109 10 81
3 109 110 10
3 111 110 109
3 111 19 110
3 51 111 18
3 112 111 51
3 112 19 111
3 112 88 19
3 113 88 112
3 113 7 88
3 114 384 385
3 114 386 387
3 388 114 389
3 115 390 392
3 390 114 391
3 390 391 392
3 115 393 395
3 395 394 114
3 393 394 395
3 115 396 398
3 396 92 397
3 396 397 398
3 116 92 115
3 116 12 92
3 116 117 12
3 118 117 116
3 118 22 117
3 54 118 21
3 119 118 54
3 119 22 118
3 119 94 22
3 120 94 119
3 120 11 94
3 399 2 400
3 401 121 402
3 403 402 2
3 401 402 403
3 404 121 405
3 406 24 407
3 408 407 121
3 406 407 408
3 122 409 410
3 122 411 413
3 411 24 412
3 411 412 413
3 122 78 24
3 123 78 122
3 123 4 78
3 124 414 415
3 124 416 417
3 124 418 420
3 418 123 419
3 418 419 420
3 125 123 124
3 125 4 123
3 125 105 4
3 126 105 125
3 126 16 105
3 57 126 25
3 127 126 57
3 127 16 126
3 127 48 16
3 128 48 127
3 128 1 48
3 129 421 422
3 129 423 425
3 423 3 424
3 423 424 425
3 426 5 427
3 428 59 429
3 130 430 432
3 430 59 431
3 430 431 432
3 130 433 435
3 435 434 59
3 433 434 435
3 61 130 13
3 131 130 61
3 131 436 438
3 438 437 130
3 436 437 438
3 131 439 440
3 132 441 443
3 443 442 131
3 441 442 443
3 132 444 446
3 444 5 445
3 444 445 446
3 132 58 5
3 133 58 132
3 133 26 58
3 63 133 28
3 134 133 63
3 134 26 133
3 134 128 26
3 135 128 134
3 135 1 128
3 136 447 448
3 136 449 450
3 136 451 453
3 451 101 452
3 451 452 453
3 137 101 136
3 137 6 101
3 454 30 455
3 138 456 457
3 138 458 460
3 458 30 459
3 458 459 460
3 138 137 30
3 139 137 138
3 139 6 137
3 139 64 6
3 140 64 139
3 140 29 64
3 65 140 31
3 141 140 65
3 141 29 140
3 141 135 29
3 142 135 141
3 142 1 135
3 142 52 1
3 143 52 142
3 143 20 52
3 66 143 32
3 144 143 66
3 144 20 143
3 144 113 20
3 145 113 144
3 145 7 113
3 461 33 462
3 146 463 464
3 146 465 467
3 465 33 466
3 465 466 467
3 146 145 33
3 147 145 146
3 147 7 145
3 147 468 470
3 470 469 7
3 468 469 470
3 472 471 147
3 148 473 474
3 148 475 476
3 148 477 479
3 477 149 478
3 477 478 479
3 150 149 148
3 150 0 149
3 69 480 481
3 483 482 69
3 71 484 485
3 151 486 488
3 488 487 71
3 486 487 488
3 151 489 490
3 151 491 492
3 152 493 495
3 495 494 151
3 493 494 495
3 152 496 497
3 102 72 8
3 153 72 102
3 153 35 72
3 74 153 14
3 154 153 74
3 154 35 153
3 154 152 35
3 155 152 154
3 155 498 500
3 500 499 152
3 498 499 500
3 155 501 502
3 156 503 505
3 505 504 155
3 503 504 505
3 156 506 508
3 506 27 507
3 506 507 508
3 76 156 36
3 157 156 76
3 157 27 156
3 157 129 27
3 158 129 157
3 158 3 129
3 121 47 2
3 159 47 121
3 159 15 47
3 79 159 24
3 160 159 79
3 160 15 159
3 160 104 15
3 161 104 160
3 161 9 104
3 106 80 4
3 162 80 106
3 162 38 80
3 82 162 17
3 163 162 82
3 163 38 162
3 163 161 38
3 164 161 163
3 164 9 161
3 164 77 9
3 165 77 164
3 165 37 77
3 84 165 39
3 166 165 84
3 166 37 165
3 166 158 37
3 167 158 166
3 167 3 158
3 167 55 3
3 168 55 167
3 168 23 55
3 86 168 40
3 169 168 86
3 169 23 168
3 169 120 23
3 170 120 169
3 170 11 120
3 110 87 10
3 171 87 110
3 171 41 87
3 89 171 19
3 172 171 89
3 172 41 171
3 172 170 41
3 173 170 172
3 173 11 170
3 173 98 11
3 174 98 173
3 174 43 98
3 91 174 42
3 175 174 91
3 175 43 174
3 175 176 43
3 149 176 175
3 149 0 176
3 117 93 12
3 177 93 117
3 177 509 511
3 511 510 93
3 509 510 511
3 95 177 22
3 512 177 513
3 514 513 95
3 512 513 514
3 516 515 177
3 178 517 518
3 178 519 520
3 97 178 44
3 179 178 97
3 179 521 523
3 523 522 178
3 521 522 523
3 179 524 526
3 524 180 525
3 524 525 526
3 176 180 179
3 176 0 180
3 527 45 528
3 181 529 530
3 181 531 533
3 531 45 532
3 531 532 533
3 181 182 45
3 180 182 181
3 180 0 182
3 534 34 535
3 99 536 537
3 183 538 540
3 540 539 99
3 538 539 540
3 183 541 543
3 541 34 542
3 541 542 543
3 183 150 34
3 182 150 183
3 182 0 150
