ply
format ascii 1.0
element vertex 424
property float x
property float y
property float z
element face 429
property list uchar int vertex_index
end_header
-24.425484 19.416185 -36.260479
-11.051484 40.14505 -43.728619
-29.845926 20.081015 -45.774113
-18.317924 26.944101 -36.037628
-22.979025 26.330202 -46.457176
-16.351032 32.634373 -45.223782
-23.938404 11.645998 -26.532045
-18.624992 20.254309 -27.019445
-27.546265 16.098049 -35.92382
-27.221373 19.790758 -40.895985
-15.575725 31.472279 -35.687916
-17.646385 29.92767 -40.735001
-14.810169 34.042225 -40.267891
-9.174723 41.433815 -47.086212
-11.662385 37.875607 -48.197468
-26.023905 4.306423 -21.936174
-26.716408 8.267111 -26.28141
-23.333546 7.994767 -22.308441
-18.339746 16.929882 -22.7379
-21.283123 29.123161 -51.259705
-24.901787 26.412086 -51.858982
-12.388013 38.535378 -39.677521
-21.314262 22.980598 -36.299301
-23.959885 23.05402 -41.311092
-20.802202 26.273697 -41.237179
-19.582142 29.372225 -46.121399
-17.705412 31.926714 -50.551952
-13.58235 36.124573 -44.329529
-14.527227 34.722736 -49.632317
-27.273848 12.163469 -30.886374
-24.377254 15.430379 -31.144133
-21.097425 15.70366 -26.687
-21.372009 19.282064 -31.227205
-26.389599 23.446167 -46.585667
-28.542383 23.231081 -51.411133
-25.924059 17.694485 -35.978653
-27.396086 18.050871 -38.438393
-25.832991 19.581657 -38.544678
-15.270519 32.762138 -37.992081
-8.031091 41.745293 -48.788715
-9.16335 40.095531 -49.378063
-24.522564 6.178432 -22.034777
-20.237146 30.276564 -53.75568
-21.963499 29.052063 -54.040504
-30.181252 18.418833 -43.061447
-19.836557 24.808512 -36.152061
-20.991999 24.725302 -38.595474
-19.501728 26.630157 -38.708839
-17.035488 31.376993 -42.960323
-18.659056 29.580902 -43.520718
-17.906435 31.005362 -45.76339
-18.795174 30.693476 -48.562763
-17.106144 32.194191 -47.972828
-11.751978 39.464539 -41.733471
-12.988426 37.199242 -41.910824
-12.313851 38.0256 -44.003769
-13.090317 36.186699 -49.04068
-25.358337 9.983651 -26.530239
-27.060852 10.059612 -28.423307
-25.52759 11.859482 -28.626558
-25.797937 13.766964 -31.010178
-24.08884 13.627537 -28.772869
-19.697002 16.089666 -24.651888
-19.823999 17.91457 -26.830278
-21.35988 17.402937 -28.969261
-19.994446 19.657692 -29.157709
-19.993147 21.369558 -31.318888
-18.647655 21.963923 -29.179874
-23.622566 24.673241 -43.893658
-25.286346 23.243479 -44.04443
-24.671541 24.942541 -46.663124
-26.700317 24.914463 -51.749317
-29.01569 14.553132 -35.665142
-28.857216 18.229164 -40.716686
-28.606438 20.044893 -43.481243
-16.868378 29.212368 -35.895966
-18.031023 28.454054 -38.31374
-16.580814 30.560791 -38.049179
-16.182898 31.903732 -40.397114
-15.521549 33.326523 -42.682533
-10.149753 40.910599 -45.420994
-11.384958 38.885056 -45.963177
-10.302217 39.628517 -47.728668
-27.675831 4.556897 -23.762186
-28.156164 6.50323 -26.007055
-26.307713 6.282232 -23.99987
-25.027374 8.041862 -24.29862
-22.235195 27.778261 -48.901733
-23.992796 26.434523 -49.266933
-23.155521 27.735691 -51.623295
-22.784513 21.143209 -36.167389
-24.191883 21.314264 -38.739407
-22.630331 22.953129 -38.748615
-22.331062 24.571241 -41.106846
-21.901876 26.235067 -43.722687
-19.164497 28.100416 -41.052757
-20.174253 27.915201 -43.519901
-21.240883 27.792826 -46.144302
-20.483887 29.204264 -48.647346
-19.499706 30.512426 -51.083267
-18.436855 31.550161 -53.33345
-13.557428 36.205601 -39.878819
-14.224134 35.185528 -42.27549
-14.936294 34.322075 -44.814251
-12.722005 37.019463 -46.477886
-14.05138 35.385147 -46.908142
-15.561421 33.72551 -47.571583
-16.042601 33.334057 -50.194923
-28.501406 8.493479 -28.281359
-28.673197 10.473407 -30.509802
-27.43959 14.137739 -33.331936
-25.942135 15.835823 -33.613201
-24.433548 17.409573 -33.600044
-22.507639 13.634503 -26.66333
-22.716722 15.449417 -28.889547
-22.915365 17.329021 -31.327824
-22.929695 19.193888 -33.684647
-21.387362 21.147697 -33.714916
-19.946518 23.101559 -33.671989
-18.501385 25.371069 -33.7621
-25.647238 21.422688 -41.238075
-26.92244 21.648134 -43.735085
-28.065968 21.849871 -46.215202
-25.762539 24.970205 -49.233505
-27.560192 23.405191 -49.079578
-29.276018 21.705935 -48.534332
-30.231335 21.523579 -50.92799
-8.002721 40.992205 -49.882183
-7.377131 41.868696 -49.511021
-20.495094 30.173388 -55.126791
-19.608024 30.756115 -54.859947
-30.660001 19.2305 -45.592554
-30.827665 18.399409 -44.236221
-30.013589 19.249924 -44.41778
-30.387571 20.037102 -46.935451
-30.660001 19.2305 -45.592554
-19.224495 19.08444 -26.924861
-19.145895 18.256919 -25.813365
-18.546391 19.426789 -25.907949
-28.270634 16.255554 -37.041957
-29.005347 15.483096 -36.912619
-28.280977 15.325591 -35.794481
-9.849573 39.266849 -49.663488
-9.242749 39.411947 -50.503122
-26.705945 3.431362 -21.831898
-25.820583 3.417095 -20.955243
-26.849868 4.43166 -22.84918
-27.531908 3.556599 -22.744903
-26.705945 3.431362 -21.831898
-23.465469 8.928933 -23.339981
-24.312383 8.95248 -24.335071
-24.18046 8.018315 -23.303531
-22.86042 28.396543 -54.121977
-22.291432 28.92007 -55.372318
-12.972721 37.37049 -39.77817
-13.250082 36.807459 -38.754465
-12.665375 37.972347 -38.653816
-28.122425 12.350631 -32.014287
-28.822099 11.5056 -31.826001
-27.973523 11.318438 -30.698088
-27.356719 13.150604 -32.109155
-28.205295 13.337767 -33.237068
-28.122425 12.350631 -32.014287
-18.899123 15.654223 -22.613617
-18.291525 16.089844 -21.780534
-20.990386 14.801438 -25.590721
-20.290174 14.994442 -24.573165
-20.397213 15.896663 -25.669444
-21.802532 14.669082 -26.675165
-21.695493 13.76686 -25.578886
-20.990386 14.801438 -25.590721
-19.271221 23.408771 -32.559329
-19.969833 22.235559 -32.495439
-19.294536 22.54277 -31.382779
-18.548654 24.543526 -32.604384
-19.223951 24.236314 -33.717045
-19.271221 23.408771 -32.559329
-14.851511 33.286652 -36.859497
-15.423122 32.117209 -36.839999
-15.004114 32.641722 -35.707414
-14.678826 33.871101 -37.910068
-14.851511 33.286652 -36.859497
-14.448652 34.511145 -39.047973
-15.040344 33.402181 -39.129986
-14.678826 33.871101 -37.910068
-8.56885 40.167324 -50.176857
-8.59722 40.920412 -49.083389
-8.002721 40.992205 -49.882183
-9.242749 39.411947 -50.503122
-8.56885 40.167324 -50.176857
-25.174087 4.284701 -21.025108
-25.820583 3.417095 -20.955243
-24.423417 5.220706 -21.07441
-25.273235 5.242427 -21.985475
-25.174087 4.284701 -21.025108
-23.716452 6.171876 -21.083565
-24.423417 5.220706 -21.07441
-23.121944 7.080044 -21.220397
-23.928055 7.0866 -22.171609
-23.716452 6.171876 -21.083565
-21.35827 29.561137 -55.269203
-21.100322 29.664313 -53.898092
-20.495094 30.173388 -55.126791
-22.291432 28.92007 -55.372318
-21.35827 29.561137 -55.269203
-30.954335 17.57752 -42.851486
-30.325094 17.487702 -41.708471
-30.954335 17.57752 -42.851486
-30.827665 18.399409 -44.236221
-12.49211 36.560681 -49.873362
-12.376351 37.031153 -48.619074
-11.778144 37.405135 -49.451756
-13.267364 35.813643 -50.313654
-12.49211 36.560681 -49.873362
-13.985819 35.081661 -50.609472
-13.808772 35.454718 -49.336499
-13.267364 35.813643 -50.313654
-14.76609 34.425176 -50.907053
-13.985819 35.081661 -50.609472
-19.082397 17.344467 -24.72417
-19.018374 16.509774 -23.694894
-18.403768 17.764575 -23.767176
-19.7605 17.002118 -25.741083
-19.082397 17.344467 -24.72417
-19.145895 18.256919 -25.813365
-18.621789 22.839953 -30.313271
-19.294536 22.54277 -31.382779
-19.320401 21.666741 -30.249381
-26.1771 25.595093 -53.055239
-25.801052 25.663274 -51.804149
-25.277835 26.343905 -53.110071
-27.090021 24.801697 -52.888195
-26.1771 25.595093 -53.055239
-28.011054 23.960006 -52.719103
-27.62135 24.072772 -51.580225
-27.090021 24.801697 -52.888195
-28.900026 23.111688 -52.541912
-28.011054 23.960006 -52.719103
-29.763704 14.708254 -36.786803
-29.753968 13.716096 -35.460823
-29.763704 14.708254 -36.786803
-29.005347 15.483096 -36.912619
-28.195545 17.231965 -38.299244
-28.270634 16.255554 -37.041957
-27.471176 17.07446 -37.181106
-28.92611 17.321112 -39.43839
-28.195545 17.231965 -38.299244
-28.126651 18.140017 -39.57754
-29.663075 17.392868 -40.536091
-28.92611 17.321112 -39.43839
-29.519234 18.323999 -41.889066
-30.325094 17.487702 -41.708471
-29.663075 17.392868 -40.536091
-10.419006 39.033343 -48.838791
-9.732784 39.862024 -48.553365
-9.849573 39.266849 -49.663488
-11.09909 38.156887 -49.073191
-10.982301 38.752062 -47.963068
-10.419006 39.033343 -48.838791
-11.778144 37.405135 -49.451756
-11.09909 38.156887 -49.073191
-28.369953 3.747307 -23.686531
-27.531908 3.556599 -22.744903
-28.590086 4.74781 -24.787863
-28.369953 3.747307 -23.686531
-27.915997 5.530064 -24.884621
-28.830253 5.720977 -25.910297
-28.590086 4.74781 -24.787863
-24.477865 9.923375 -25.45088
-25.192856 9.012757 -25.41443
-24.312383 8.95248 -24.335071
-23.767899 10.754548 -25.451783
-24.64837 10.814825 -26.531142
-24.477865 9.923375 -25.45088
-17.760016 17.418862 -21.795308
-18.291525 16.089844 -21.780534
-17.783098 18.251594 -22.764291
-17.760016 17.418862 -21.795308
-18.403768 17.764575 -23.767176
-17.783098 18.251594 -22.764291
-17.960276 20.738444 -25.952107
-18.546391 19.426789 -25.907949
-18.003979 21.525268 -27.04319
-17.960276 20.738444 -25.952107
-23.456431 27.738357 -52.913372
-22.55951 28.393877 -52.831899
-22.86042 28.396543 -54.121977
-24.329564 27.076555 -53.031216
-24.028654 27.073888 -51.741138
-23.456431 27.738357 -52.913372
-25.277835 26.343905 -53.110071
-24.329564 27.076555 -53.031216
-12.144263 39.245753 -38.602728
-12.665375 37.972347 -38.653816
-11.886688 39.672625 -39.596367
-12.144263 39.245753 -38.602728
-11.56867 40.137206 -40.624342
-12.069996 38.999959 -40.705496
-11.886688 39.672625 -39.596367
-11.236496 40.556487 -41.585178
-11.56867 40.137206 -40.624342
-10.886249 40.896742 -42.582752
-11.401731 39.804794 -42.731045
-11.236496 40.556487 -41.585178
-10.503554 41.249571 -43.500382
-10.886249 40.896742 -42.582752
-10.052689 41.632345 -44.346569
-10.600618 40.527824 -44.574807
-10.503554 41.249571 -43.500382
-9.639244 41.883617 -45.198317
-10.052689 41.632345 -44.346569
-9.151729 42.145226 -46.030926
-9.662238 41.172207 -46.253603
-9.639244 41.883617 -45.198317
-8.608271 42.420927 -46.872942
-9.151729 42.145226 -46.030926
-8.036455 42.576666 -47.724193
-8.602907 41.589554 -47.937464
-8.608271 42.420927 -46.872942
-7.469356 42.644028 -48.566952
-8.036455 42.576666 -47.724193
-7.377131 41.868696 -49.511021
-7.469356 42.644028 -48.566952
-18.707879 31.392913 -54.648832
-19.608024 30.756115 -54.859947
-19.337001 30.913362 -53.544565
-13.822281 35.592833 -38.853437
-13.250082 36.807459 -38.754465
-14.183798 35.123913 -40.073355
-14.448652 34.511145 -39.047973
-13.822281 35.592833 -38.853437
-15.523777 33.730837 -51.188356
-15.284914 34.028396 -49.91362
-14.76609 34.425176 -50.907053
-16.368826 33.077511 -51.466339
-15.523777 33.730837 -51.188356
-17.200232 32.37384 -51.644853
-16.874007 32.630386 -50.373438
-16.368826 33.077511 -51.466339
-17.565953 32.185563 -53.035602
-18.071134 31.738437 -51.942701
-17.200232 32.37384 -51.644853
-17.78698 31.993115 -54.41728
-17.565953 32.185563 -53.035602
-18.707879 31.392913 -54.648832
-17.78698 31.993115 -54.41728
-29.017238 6.783222 -27.10038
-28.830253 5.720977 -25.910297
-29.189858 7.778347 -28.237532
-29.017238 6.783222 -27.10038
-28.328785 7.498355 -27.144207
-29.356101 8.721709 -29.362673
-29.189858 7.778347 -28.237532
-29.441996 9.711673 -30.476895
-29.356101 8.721709 -29.362673
-28.587301 9.483443 -29.395581
-29.517739 10.669314 -31.606229
-29.441996 9.711673 -30.476895
-29.517739 10.669314 -31.606229
-28.822099 11.5056 -31.826001
-28.993346 13.545463 -34.403671
-29.753968 13.716096 -35.460823
-28.22764 14.345436 -34.498539
-28.993346 13.545463 -34.403671
-28.205295 13.337767 -33.237068
-22.529029 8.066701 -21.320495
-23.121944 7.080044 -21.220397
-22.651232 8.994836 -22.343674
-22.529029 8.066701 -21.320495
-23.465469 8.928933 -23.339981
-22.651232 8.994836 -22.343674
-23.096042 11.737659 -25.523448
-23.767899 10.754548 -25.451783
-19.577751 15.234115 -23.570611
-18.899123 15.654223 -22.613617
-19.018374 16.509774 -23.694894
-19.577751 15.234115 -23.570611
-20.290174 14.994442 -24.573165
-22.38066 12.731911 -25.58909
-21.695493 13.76686 -25.578886
-23.223022 12.640251 -26.597687
-23.096042 11.737659 -25.523448
-22.38066 12.731911 -25.58909
-18.015311 22.380075 -28.123404
-18.636323 21.109116 -28.09966
-18.003979 21.525268 -27.04319
-17.981614 23.189826 -29.112752
-18.015311 22.380075 -28.123404
-18.621789 22.839953 -30.313271
-17.981614 23.189826 -29.112752
-17.863327 25.703705 -32.481817
-18.548654 24.543526 -32.604384
-17.799408 26.507147 -33.652927
-17.863327 25.703705 -32.481817
-17.707678 27.293663 -34.790691
-18.409655 26.157585 -34.899864
-17.799408 26.507147 -33.652927
-16.982905 28.427796 -34.71986
-17.593151 28.078235 -35.966797
-17.707678 27.293663 -34.790691
-16.380036 29.591206 -34.719204
-16.982905 28.427796 -34.71986
-15.73371 30.721162 -34.615179
-16.222051 30.342323 -35.791941
-16.380036 29.591206 -34.719204
-15.139337 32.007716 -34.620148
-15.73371 30.721162 -34.615179
-15.004114 32.641722 -35.707414
-15.139337 32.007716 -34.620148
-30.102617 20.849562 -48.315561
-30.387571 20.037102 -46.935451
-29.560972 20.893475 -47.154223
-30.580275 20.758384 -49.51239
-30.102617 20.849562 -48.315561
-29.753677 21.614757 -49.731161
-31.058422 20.571437 -50.603609
-30.580275 20.758384 -49.51239
-29.744502 22.257938 -52.300341
-29.386859 22.37733 -51.169562
-28.900026 23.111688 -52.541912
-30.62628 21.286883 -51.959248
-29.744502 22.257938 -52.300341
-31.058422 20.571437 -50.603609
-30.62628 21.286883 -51.959248
3 0 37 35
3 128 127 39
3 130 129 42
3 2 131 133
3 133 132 44
3 131 132 133
3 2 134 135
3 3 47 45
3 5 50 48
3 5 52 50
3 1 55 53
3 6 59 57
3 6 61 59
3 7 136 138
3 136 63 137
3 136 137 138
3 7 65 63
3 7 67 65
3 4 70 68
3 8 139 141
3 141 140 72
3 139 140 141
3 9 73 36
3 9 74 73
3 10 77 75
3 12 78 38
3 12 79 78
3 13 82 80
3 143 142 40
3 15 144 145
3 15 146 148
3 146 83 147
3 146 147 148
3 15 85 83
3 17 86 41
3 17 149 151
3 151 150 86
3 149 150 151
3 19 89 87
3 153 152 43
3 22 92 90
3 24 93 46
3 24 94 93
3 11 95 76
3 25 96 49
3 25 97 96
3 25 98 97
3 26 99 51
3 26 100 99
3 21 154 156
3 154 101 155
3 154 155 156
3 27 102 54
3 27 103 102
3 14 104 81
3 28 105 56
3 28 106 105
3 28 107 106
3 16 108 84
3 29 109 58
3 29 157 159
3 159 158 109
3 157 158 159
3 29 160 162
3 160 110 161
3 160 161 162
3 30 111 60
3 30 112 111
3 18 163 164
3 31 165 167
3 167 166 62
3 165 166 167
3 31 168 170
3 168 113 169
3 168 169 170
3 31 114 113
3 32 115 64
3 32 116 115
3 32 117 116
3 171 118 172
3 173 172 66
3 171 172 173
3 174 119 175
3 176 175 118
3 174 175 176
3 23 120 91
3 33 121 69
3 33 122 121
3 20 123 88
3 34 124 71
3 34 125 124
3 34 126 125
3 35 36 8
3 37 36 35
3 37 9 36
3 177 38 178
3 179 178 10
3 177 178 179
3 180 38 181
3 182 12 183
3 184 183 38
3 182 183 184
3 39 40 13
3 185 40 186
3 187 186 39
3 185 186 187
3 189 188 40
3 190 15 191
3 192 41 193
3 194 193 15
3 192 193 194
3 195 41 196
3 197 17 198
3 199 198 41
3 197 198 199
3 42 43 19
3 200 43 201
3 202 201 42
3 200 201 202
3 204 203 43
3 44 205 206
3 208 207 44
3 45 46 22
3 47 46 45
3 47 24 46
3 48 49 11
3 50 49 48
3 50 25 49
3 50 51 25
3 52 51 50
3 52 26 51
3 53 54 21
3 55 54 53
3 55 27 54
3 209 56 210
3 211 210 14
3 209 210 211
3 212 56 213
3 214 28 215
3 216 215 56
3 214 215 216
3 218 217 28
3 57 58 16
3 59 58 57
3 59 29 58
3 59 60 29
3 61 60 59
3 61 30 60
3 219 62 220
3 221 220 18
3 219 220 221
3 63 222 224
3 222 62 223
3 222 223 224
3 63 31 62
3 63 64 31
3 65 64 63
3 65 32 64
3 65 66 32
3 67 66 65
3 67 225 227
3 227 226 66
3 225 226 227
3 68 69 23
3 70 69 68
3 70 33 69
3 228 71 229
3 230 229 20
3 228 229 230
3 231 71 232
3 233 34 234
3 235 234 71
3 233 234 235
3 237 236 34
3 72 238 239
3 241 240 72
3 36 242 244
3 244 243 8
3 242 243 244
3 73 245 247
3 247 246 36
3 245 246 247
3 73 248 249
3 73 250 252
3 250 44 251
3 250 251 252
3 74 44 73
3 74 2 44
3 75 76 3
3 77 76 75
3 77 11 76
3 38 77 10
3 78 77 38
3 78 11 77
3 78 48 11
3 79 48 78
3 79 5 48
3 80 81 1
3 82 81 80
3 82 14 81
3 40 82 13
3 253 82 254
3 255 254 40
3 253 254 255
3 256 14 257
3 258 257 82
3 256 257 258
3 260 259 14
3 83 261 262
3 83 263 264
3 83 265 267
3 265 84 266
3 265 266 267
3 85 84 83
3 85 16 84
3 41 85 15
3 86 85 41
3 86 16 85
3 86 57 16
3 268 57 269
3 270 269 86
3 268 269 270
3 271 6 272
3 273 272 57
3 271 272 273
3 274 18 275
3 276 18 277
3 279 278 18
3 280 7 281
3 283 282 7
3 87 88 4
3 89 88 87
3 89 20 88
3 43 89 19
3 284 89 285
3 286 285 43
3 284 285 286
3 287 20 288
3 289 288 89
3 287 288 289
3 291 290 20
3 292 21 293
3 294 21 295
3 296 53 297
3 298 297 21
3 296 297 298
3 299 53 300
3 301 1 302
3 303 302 53
3 301 302 303
3 304 1 305
3 306 80 307
3 308 307 1
3 306 307 308
3 309 80 310
3 311 13 312
3 313 312 80
3 311 312 313
3 314 13 315
3 316 39 317
3 318 317 13
3 316 317 318
3 319 39 320
3 322 321 39
3 90 91 0
3 92 91 90
3 92 23 91
3 46 92 22
3 93 92 46
3 93 23 92
3 93 68 23
3 94 68 93
3 94 4 68
3 76 47 3
3 95 47 76
3 95 24 47
3 49 95 11
3 96 95 49
3 96 24 95
3 96 94 24
3 97 94 96
3 97 4 94
3 97 87 4
3 98 87 97
3 98 19 87
3 51 98 25
3 99 98 51
3 99 19 98
3 99 42 19
3 100 42 99
3 100 323 325
3 325 324 42
3 323 324 325
3 101 326 327
3 101 328 330
3 328 12 329
3 328 329 330
3 54 101 21
3 102 101 54
3 102 12 101
3 102 79 12
3 103 79 102
3 103 5 79
3 81 55 1
3 104 55 81
3 104 27 55
3 56 104 14
3 105 104 56
3 105 27 104
3 105 103 27
3 106 103 105
3 106 5 103
3 106 52 5
3 107 52 106
3 107 26 52
3 331 107 332
3 333 332 28
3 331 332 333
3 334 107 335
3 336 26 337
3 338 337 107
3 336 337 338
3 339 100 340
3 341 340 26
3 339 340 341
3 342 100 343
3 345 344 100
3 84 346 347
3 108 348 350
3 350 349 84
3 348 349 350
3 108 351 352
3 58 108 16
3 109 108 58
3 109 353 355
3 355 354 108
3 353 354 355
3 109 356 357
3 359 358 109
3 360 72 361
3 110 362 364
3 362 72 363
3 362 363 364
3 110 8 72
3 60 110 29
3 111 110 60
3 111 8 110
3 111 35 8
3 112 35 111
3 112 0 35
3 365 17 366
3 367 17 368
3 370 369 17
3 371 6 372
3 62 373 375
3 375 374 18
3 373 374 375
3 377 376 62
3 113 378 379
3 113 380 382
3 380 6 381
3 380 381 382
3 113 61 6
3 114 61 113
3 114 30 61
3 64 114 31
3 115 114 64
3 115 30 114
3 115 112 30
3 116 112 115
3 116 0 112
3 116 90 0
3 117 90 116
3 117 22 90
3 66 117 32
3 118 117 66
3 118 22 117
3 118 45 22
3 119 45 118
3 119 3 45
3 383 67 384
3 385 384 7
3 383 384 385
3 386 67 387
3 389 388 67
3 390 119 391
3 392 119 393
3 394 3 395
3 396 395 119
3 394 395 396
3 397 75 398
3 399 398 3
3 397 398 399
3 400 75 401
3 402 10 403
3 404 403 75
3 402 403 404
3 405 10 406
3 408 407 10
3 91 37 0
3 120 37 91
3 120 9 37
3 69 120 23
3 121 120 69
3 121 9 120
3 121 74 9
3 122 74 121
3 122 2 74
3 88 70 4
3 123 70 88
3 123 33 70
3 71 123 20
3 124 123 71
3 124 33 123
3 124 122 33
3 125 122 124
3 125 2 122
3 125 409 411
3 411 410 2
3 409 410 411
3 126 412 414
3 414 413 125
3 412 413 414
3 126 415 416
3 417 126 418
3 419 418 34
3 417 418 419
3 420 126 421
3 423 422 126
