ply
format ascii 1.0
element vertex 852
property float x
property float y
property float z
element face 878
property list uchar int vertex_index
end_header
34.795044 -36.857624 -13.649459
40.073246 -8.05216 -37.091099
37.902103 -32.411079 -27.921299
35.68412 13.021398 -40.643482
36.822697 -30.017202 -17.420744
38.071762 -25.470959 -25.247976
35.876553 -35.113304 -20.041637
39.06052 -4.407369 -30.761827
39.358784 -14.646382 -28.838461
39.600952 -20.553537 -33.065708
39.614655 -29.006926 -36.329639
33.449738 -41.561481 -6.668163
33.373386 -42.90332 -13.601711
36.060295 -34.462444 -9.149208
38.27319 -26.724535 -12.04682
35.058037 -42.929989 -21.266586
35.709129 -33.89146 -15.439358
36.25494 -32.307251 -18.899992
35.18853 -36.0439 -16.566572
38.987022 -17.896172 -24.853689
37.984051 -28.551113 -26.680132
38.845093 -22.955181 -29.055315
38.937973 -26.42009 -30.739578
39.750416 -24.398846 -34.886631
38.877636 -30.865978 -32.059418
32.756821 -44.025486 -2.000645
32.130287 -45.416927 -5.6668
34.241039 -40.388474 -3.139416
38.142704 -29.332451 -7.420906
37.274574 -30.738085 -10.672098
34.040043 -43.068382 -17.2066
34.809586 16.952263 -45.351124
39.689362 -5.626554 -34.194141
39.166794 -0.439111 -35.024719
37.868092 -25.734804 -19.164539
38.325089 -22.942066 -23.246016
37.375072 -27.781973 -21.241798
37.036289 -30.51329 -22.662651
36.87178 -33.734352 -23.932892
36.223347 8.682455 -35.931675
40.392723 -11.104461 -39.528481
37.891689 -3.79317 -26.985806
39.473629 -9.246971 -30.162949
39.733501 -11.464527 -32.766491
38.862869 -20.04495 -27.236816
39.449059 -17.191706 -31.242443
39.998653 -14.239048 -35.312897
40.259399 -17.84259 -37.474403
40.273842 -22.326719 -39.102909
34.140701 -39.095764 -10.584177
34.109482 -39.504513 -13.61298
33.100403 -42.560341 -10.006482
32.082386 -46.348438 -9.447665
35.708157 -36.740723 -4.620338
34.745777 -38.045643 -7.748218
35.257767 -35.756935 -11.700275
38.772884 -22.542479 -13.309687
38.424934 -23.9746 -16.601873
37.535172 -28.265974 -15.061727
36.390568 -32.237465 -13.449734
34.617058 -39.241421 -16.973299
35.477142 -38.756298 -20.649376
36.593346 -38.031059 -24.812756
37.698925 -36.770782 -28.98834
38.032433 0.354752 -31.305647
37.068424 12.683347 -44.991104
35.203365 -35.537598 -14.429897
35.418777 -34.93618 -16.034906
34.939312 -36.511223 -14.916026
39.015438 -17.069101 -23.441835
38.803974 -19.61915 -22.797113
37.933983 -30.532434 -27.30513
38.446148 -27.598207 -28.631744
38.465782 -29.497738 -29.425781
38.940868 -28.606226 -31.484118
38.122395 -30.433121 -4.987778
37.658791 -31.153475 -6.801412
34.873283 12.644075 -38.348499
34.027916 16.761116 -42.916431
35.286999 15.029488 -42.971657
39.889389 -6.72265 -35.639751
39.772346 -3.799506 -36.357098
37.367466 -27.927017 -18.249331
37.624691 -26.599373 -20.255714
37.09026 -28.874237 -19.35195
36.037521 -33.661015 -19.474178
36.621544 -31.409046 -20.743166
36.46199 -32.839878 -21.309097
36.938889 -32.050423 -23.290968
36.360657 -34.443771 -21.985744
40.51992 -13.138939 -40.586903
39.305946 -13.665163 -27.421621
39.34132 -11.107085 -28.092665
39.466919 -11.886971 -29.487829
39.628674 -10.184104 -31.598103
39.55019 -12.954573 -30.792892
38.155174 -24.218174 -24.248474
38.580772 -21.511299 -25.200821
38.502285 -22.720503 -26.261049
39.247101 -21.622242 -31.104263
39.188473 -20.093527 -30.249655
39.530563 -18.737577 -32.261539
39.737747 -15.768976 -33.293259
39.839252 -17.409052 -34.236614
40.132675 -15.986711 -36.373497
39.962532 -19.054478 -35.262077
40.069687 -23.28297 -37.052227
33.814663 -40.266315 -8.721615
33.61623 -40.784306 -10.296497
33.210838 -42.091011 -8.274493
32.043388 -45.913734 -7.599627
36.144768 -37.05088 -0.184023
33.835949 -40.902573 -4.96288
34.542767 -39.097637 -5.572425
34.130558 -39.699703 -7.176671
34.408234 -38.549168 -9.239786
38.566353 -25.949528 -10.518477
38.765919 -23.907677 -11.171582
38.597328 -24.572464 -12.883604
38.631142 -23.290468 -15.084424
38.321812 -25.481667 -14.314978
38.031174 -26.115572 -15.882854
37.917114 -27.474802 -13.631995
36.676838 -32.62624 -9.966542
36.830078 -31.411486 -12.22933
36.250137 -33.266335 -11.327658
35.825935 -34.060223 -12.433542
35.58342 -35.239361 -10.440148
33.726524 -41.185062 -13.572376
34.323765 -39.399567 -15.319323
33.998981 -41.149937 -15.398705
34.549812 -42.952297 -19.265934
34.761391 -41.073116 -19.008463
35.319946 -40.655113 -21.045349
36.074314 -38.174141 -22.78797
35.828705 -40.487423 -22.969141
36.93922 -39.81842 -27.2253
32.711151 20.826969 -47.965885
31.887993 22.646435 -50.486523
38.571499 -4.105939 -28.91596
37.963009 -1.703144 -29.136063
38.605675 -2.010624 -30.950518
38.659149 2.193056 -35.41048
38.563271 4.292141 -37.520283
38.455853 6.255133 -39.792427
36.526844 14.670394 -47.416
36.263973 -32.019909 -16.387096
36.526966 -31.061703 -18.298977
35.978252 -33.031269 -17.140909
35.707726 -34.251732 -17.685534
35.463791 -35.684399 -18.156181
40.540104 -17.531734 -42.545219
39.152298 -15.451954 -25.394253
39.168949 -16.248566 -26.807207
38.002483 -26.91572 -25.905462
38.461452 -24.186743 -27.163952
38.441395 -25.822847 -27.894987
38.892147 -24.56588 -29.917152
39.301636 -23.519949 -31.90489
39.701309 -22.337303 -34.031418
39.360001 -25.541264 -32.776188
39.278648 -30.052481 -34.146748
33.09943 -42.809177 -4.449766
32.757164 -43.544811 -6.117002
34.801083 -39.600906 -1.398527
33.505157 -42.150826 -2.681058
38.79533 -26.514103 -6.418101
38.543472 -27.234217 -8.210271
38.223141 -28.007998 -9.713978
37.821873 -28.757908 -11.375665
37.7635 -29.844587 -9.241343
37.185005 -31.836205 -8.473094
36.578617 -33.699203 -7.667722
33.661594 -43.051765 -15.408386
34.201775 -45.326469 -19.358442
34.104614 18.980986 -47.839012
39.416431 -5.006894 -32.378754
39.120331 -2.47509 -32.785381
39.501888 -3.062325 -34.635574
39.526165 -1.126144 -36.718086
38.298359 -23.489765 -20.050932
38.508873 -21.873497 -22.107817
38.099689 -24.274487 -21.295282
37.860794 -25.488867 -22.2701
37.698925 -26.667019 -23.226835
36.836147 -30.063553 -20.116169
37.173988 -29.088446 -21.972216
37.564995 -28.056934 -23.910715
37.532295 -29.371637 -24.722137
37.433105 -31.251705 -25.265486
37.395191 -33.107697 -25.958776
35.080387 10.547648 -36.014198
35.994194 10.819489 -38.185658
38.456417 -5.997899 -26.805813
38.974255 -6.348927 -28.706306
39.227375 -8.816063 -28.346569
39.319401 -6.840602 -30.329134
39.590675 -7.554633 -32.113312
39.769859 -8.52382 -33.60651
39.923439 -9.634252 -35.009007
38.720242 -20.289082 -24.252766
38.937119 -18.775337 -26.243244
39.158726 -17.341446 -28.185211
38.852261 -21.295588 -28.264751
39.1623 -18.597694 -29.313904
39.409534 -15.68781 -30.211329
39.639648 -14.311999 -32.155441
39.869686 -12.600834 -34.179588
40.065716 -11.054496 -36.186119
40.213413 -12.742361 -37.295944
40.356014 -14.475475 -38.415123
40.456757 -16.630407 -39.456928
40.05241 -21.096682 -36.228603
40.307892 -20.002537 -38.306389
40.385612 -21.163685 -41.207535
34.514442 -37.803661 -12.320129
34.495388 -37.951038 -13.650172
34.087154 -39.26313 -12.117823
33.60141 -41.046379 -11.848516
33.135853 -42.89138 -11.677826
32.630596 -43.946789 -7.961556
32.605293 -44.3512 -9.710897
32.696949 -44.722195 -11.491427
36.419319 -34.951241 -5.137424
35.915268 -35.541737 -6.928796
34.978313 -38.559555 -3.922264
35.228966 -37.324131 -6.283697
35.391304 -36.291389 -8.468713
34.984364 -36.935394 -9.759226
34.705364 -37.381546 -11.111433
34.970646 -36.355473 -12.860964
38.791271 -21.965832 -11.579908
38.791397 -21.232306 -15.551147
38.715446 -21.67263 -17.253586
38.53072 -22.578989 -18.67268
38.152603 -24.816299 -17.992172
37.689419 -27.004026 -17.164463
37.15218 -29.136955 -16.314533
37.394699 -29.52298 -12.895824
36.975624 -30.286966 -14.315654
36.594162 -31.123703 -15.45218
36.026207 -33.028038 -14.495897
35.481094 -34.772797 -13.564829
34.648949 -37.799778 -15.182579
34.890781 -37.580521 -16.762087
35.247875 -37.25861 -18.556471
34.361252 -41.017754 -17.183666
35.026573 -38.991577 -18.824459
35.721539 -36.70295 -20.473467
36.185459 -36.318611 -22.300154
36.74234 -35.716465 -24.346094
37.287708 -35.142746 -26.383141
34.781052 -45.191364 -21.580708
35.304779 -45.272381 -23.802423
35.648449 -42.693424 -23.475861
36.419437 -40.162556 -25.177
37.182198 -37.264591 -26.899345
37.16066 -1.762079 -27.041119
37.226337 0.374337 -29.223364
37.232185 2.406663 -31.238033
38.66357 0.13867 -33.247948
38.024361 2.519563 -33.472557
37.194698 4.598034 -33.430904
36.726265 11.040267 -40.449669
37.445396 10.731502 -42.626221
36.45153 12.931658 -42.768494
36.00407 14.971145 -45.288967
38.732183 -20.352661 -21.780584
38.851461 -19.122953 -22.103353
38.157907 -31.963607 -28.932499
38.439747 -30.506936 -29.68474
38.183943 -30.954408 -28.67354
38.124865 -30.907359 -3.754554
38.32991 -30.015062 -4.122452
37.865826 -31.342296 -4.643
38.124865 -30.907359 -3.754554
35.098906 13.853962 -40.612026
34.693487 13.665301 -39.464534
35.278701 12.832736 -39.49599
35.48556 14.025443 -41.807569
34.900345 14.858007 -41.776114
35.098906 13.853962 -40.612026
40.032989 -6.562701 -37.438936
39.941061 -5.897946 -36.713262
39.981318 -7.387405 -36.365425
40.554857 -12.455389 -41.635551
40.549835 -14.235057 -41.094755
39.791822 -27.426851 -36.968773
39.659021 -27.869498 -35.912143
39.695932 -28.724815 -37.344296
39.791822 -27.426851 -36.968773
35.755539 -37.966014 0.167132
36.083151 -37.482322 1.046466
35.693922 -38.397457 1.397622
35.471531 -38.312677 -0.818278
35.86076 -37.397543 -1.169434
35.755539 -37.966014 0.167132
32.572502 21.78345 -50.442343
32.299572 21.736702 -49.226204
32.984081 20.873717 -49.182024
32.104414 22.641099 -51.671109
32.572502 21.78345 -50.442343
38.810036 3.973254 -38.458361
38.845641 2.973306 -37.338406
38.756327 4.95475 -39.594433
38.509562 5.273637 -38.656355
38.810036 3.973254 -38.458361
40.510699 -17.015664 -43.572422
40.454867 -18.853467 -42.923513
39.115906 -29.291154 -32.775851
39.147522 -28.161278 -32.4882
38.909252 -29.736102 -31.771768
39.078142 -30.459229 -33.103083
39.316412 -28.884405 -33.819516
39.115906 -29.291154 -32.775851
32.579578 -44.362261 -2.921461
32.750883 -43.754106 -4.146021
32.928126 -43.417332 -3.225206
33.130989 -43.088156 -2.340852
33.356977 -42.708799 -1.485094
32.982809 -43.64613 -1.144888
38.817852 -27.059499 -5.188105
38.869915 -26.158724 -5.517198
38.343088 -28.283334 -7.815589
38.538239 -27.8584 -6.980385
38.337855 -28.907516 -6.585703
37.126218 -32.440109 -7.271631
37.421898 -31.49484 -7.637253
37.363112 -32.098744 -6.43579
36.823025 -33.371608 -6.868945
36.881811 -32.767704 -8.070408
37.126218 -32.440109 -7.271631
33.767006 -46.428422 -18.384459
33.965828 -45.26331 -18.354088
34.147738 17.847783 -45.356832
33.756902 17.752209 -44.139486
34.418751 16.85669 -44.133778
34.4571 17.966625 -46.595068
33.795251 18.862144 -46.600776
34.147738 17.847783 -45.356832
39.664102 -1.548827 -37.552092
39.649255 -2.462825 -36.537592
39.787193 -2.885508 -37.371598
39.51404 -0.110093 -37.823799
39.664102 -1.548827 -37.552092
35.651867 9.615051 -35.972937
35.152317 9.464021 -34.863945
35.723797 8.531424 -34.822683
40.37136 -9.442773 -40.058199
40.314604 -10.309383 -38.934178
38.662431 -7.098705 -26.737923
38.425213 -6.97435 -25.806971
38.921351 -7.274218 -27.68817
38.715336 -6.173413 -27.756059
38.662431 -7.098705 -26.737923
40.377316 -20.512352 -39.784916
40.39434 -19.350261 -39.386656
40.290867 -21.164628 -38.704649
40.329727 -21.745202 -40.155222
40.4332 -19.930835 -40.837229
40.377316 -20.512352 -39.784916
32.154838 -46.579786 -10.409436
32.46212 -45.766665 -11.431317
32.389668 -45.535317 -10.469546
36.063738 -35.845982 -4.878881
36.354359 -35.474013 -3.954136
35.998778 -36.368753 -3.695593
38.773481 -21.562891 -13.532091
38.782674 -21.274567 -12.667202
38.782077 -22.254155 -12.444797
38.78214 -21.887393 -14.430417
38.782738 -20.907805 -14.652821
38.773481 -21.562891 -13.532091
34.576563 -46.406637 -21.67472
34.296305 -46.474403 -20.570415
35.719736 -43.964693 -24.642802
35.551623 -45.22403 -24.888818
35.891571 -42.675214 -24.479521
35.476614 -43.982903 -23.639142
35.719736 -43.964693 -24.642802
36.277065 -41.40978 -25.33009
36.033943 -41.42799 -24.326431
35.891571 -42.675214 -24.479521
37.770561 -35.595998 -28.741978
37.512197 -35.842903 -27.69748
37.440562 -37.017686 -27.943843
38.009113 -35.322345 -29.758819
37.770561 -35.595998 -28.741978
37.526174 -2.777624 -27.013462
37.118817 -2.833689 -25.935671
37.484331 -3.849234 -25.908015
37.992562 3.568998 -34.540823
38.341755 2.35631 -34.441519
38.309956 3.405744 -35.509784
37.57773 4.608233 -34.519996
37.60953 3.558798 -33.45173
37.992562 3.568998 -34.540823
37.164757 5.697021 -34.614632
37.57773 4.608233 -34.519996
37.207603 9.862359 -40.283846
36.87681 9.957353 -39.310646
37.25691 11.707425 -43.808662
37.694683 10.502765 -43.61777
37.506197 11.478687 -44.800211
35.96822 15.8018 -47.605524
36.149313 15.710922 -48.766916
38.957194 -17.847928 -22.425714
38.997301 -16.75477 -22.625567
38.909706 -18.344126 -23.119474
38.957194 -17.847928 -22.425714
38.851461 -19.122953 -22.103353
38.67729 -30.06118 -30.713908
38.703325 -29.051982 -30.454949
38.439747 -30.506936 -29.68474
38.645674 -31.191056 -31.001559
38.909252 -29.736102 -31.771768
38.67729 -30.06118 -30.713908
32.362109 -45.025168 -1.799529
32.573321 -44.617529 -0.849805
32.573321 -44.617529 -0.849805
32.982809 -43.64613 -1.144888
38.3277 -29.457852 -5.369139
38.32991 -30.015062 -4.122452
38.132549 -29.882786 -6.204342
38.337855 -28.907516 -6.585703
38.3277 -29.457852 -5.369139
37.634024 -31.702473 -5.549817
37.890593 -30.793298 -5.894595
37.865826 -31.342296 -4.643
37.363112 -32.098744 -6.43579
37.634024 -31.702473 -5.549817
34.242055 13.41991 -38.326031
34.319017 12.350472 -37.081897
34.242055 13.41991 -38.326031
34.693487 13.665301 -39.464534
34.270803 15.723821 -41.748501
33.607382 16.559229 -41.796144
34.657457 15.895302 -42.944044
34.270803 15.723821 -41.748501
34.900345 14.858007 -41.776114
39.88254 -4.436374 -37.071936
39.830867 -5.261078 -35.998424
39.941061 -5.897946 -36.713262
39.787193 -2.885508 -37.371598
39.88254 -4.436374 -37.071936
36.237414 7.592423 -34.69327
35.723797 8.531424 -34.822683
40.508991 -11.365765 -41.198341
40.445392 -10.348526 -40.669131
40.456322 -12.1217 -40.057692
40.508991 -11.365765 -41.198341
40.554857 -12.455389 -41.635551
39.323633 -12.386124 -27.757143
39.271116 -12.022358 -27.027282
39.253429 -13.301397 -26.69176
39.886538 -25.00752 -36.273438
39.910052 -23.840908 -35.969429
39.726902 -25.565458 -35.19064
40.019339 -24.564872 -37.330067
39.886538 -25.00752 -36.273438
40.121416 -24.086747 -38.355407
40.171765 -22.804845 -38.077568
40.019339 -24.564872 -37.330067
40.195734 -23.657992 -39.383444
40.121416 -24.086747 -38.355407
31.778557 -46.627817 -6.493174
32.086838 -45.66533 -6.633214
31.822007 -46.379413 -5.52676
31.760936 -46.91393 -7.471958
31.778557 -46.627817 -6.493174
31.780435 -47.131282 -8.395978
32.062887 -46.131086 -8.523646
31.760936 -46.91393 -7.471958
31.834642 -47.353132 -9.394718
31.780435 -47.131282 -8.395978
36.465858 -36.567445 0.693335
36.083151 -37.482322 1.046466
36.520122 -36.104248 -0.557975
36.841213 -35.620813 0.319383
36.465858 -36.567445 0.693335
36.217083 -36.523832 -1.477435
36.520122 -36.104248 -0.557975
36.217083 -36.523832 -1.477435
35.86076 -37.397543 -1.169434
35.642454 -37.242464 -3.387591
35.998778 -36.368753 -3.695593
38.666136 -24.928603 -10.84503
38.773647 -24.578775 -9.937172
38.673865 -25.5997 -9.61062
36.773202 -41.154179 -27.399438
36.536957 -41.237713 -26.35424
37.186859 -39.580099 -28.279774
36.773202 -41.154179 -27.399438
37.566711 -38.05628 -29.161294
37.319073 -38.294601 -28.10682
37.186859 -39.580099 -28.279774
37.937371 -36.514966 -30.087992
37.566711 -38.05628 -29.161294
31.989161 21.620907 -47.967594
31.674513 21.448324 -46.800899
32.396504 20.654385 -46.799191
31.577582 22.53064 -49.227913
31.989161 21.620907 -47.967594
32.299572 21.736702 -49.226204
31.098948 23.453307 -50.403021
31.577582 22.53064 -49.227913
31.349441 23.527499 -51.642332
31.098948 23.453307 -50.403021
31.349441 23.527499 -51.642332
32.104414 22.641099 -51.671109
38.89358 1.923763 -36.283504
38.912971 0.876972 -35.217599
39.147402 0.60768 -36.090623
38.61121 3.242598 -36.465381
38.89358 1.923763 -36.283504
38.845641 2.973306 -37.338406
38.262017 4.455287 -36.564686
38.309956 3.405744 -35.509784
38.61121 3.242598 -36.465381
38.206208 5.483469 -37.663452
38.262017 4.455287 -36.564686
38.152499 6.464965 -38.799525
38.206208 5.483469 -37.663452
38.509562 5.273637 -38.656355
38.072397 7.469792 -39.955225
38.152499 6.464965 -38.799525
37.292736 12.440822 -46.068435
37.506197 11.478687 -44.800211
37.021946 13.434346 -47.280884
36.797634 13.67687 -46.203552
37.292736 12.440822 -46.068435
36.717188 14.396402 -48.477939
37.021946 13.434346 -47.280884
36.149313 15.710922 -48.766916
36.717188 14.396402 -48.477939
40.568404 -15.746718 -43.146332
40.559927 -16.431455 -42.073914
40.568404 -15.746718 -43.146332
40.510699 -17.015664 -43.572422
39.047304 -15.867002 -23.661776
38.997301 -16.75477 -22.625567
39.115734 -15.058428 -24.637985
39.047304 -15.867002 -23.661776
39.083868 -16.260528 -24.418044
39.176605 -14.194793 -25.678076
39.115734 -15.058428 -24.637985
39.229122 -14.558559 -26.407937
39.253429 -13.301397 -26.69176
39.176605 -14.194793 -25.678076
39.357089 -26.628797 -33.134236
39.150435 -27.073745 -32.130153
39.147522 -28.161278 -32.4882
39.552296 -26.057588 -34.189457
39.555208 -24.970055 -33.831409
39.357089 -26.628797 -33.134236
39.726902 -25.565458 -35.19064
39.552296 -26.057588 -34.189457
39.491018 -28.392275 -34.820698
39.316412 -28.884405 -33.819516
39.446652 -29.529704 -35.238194
39.659021 -27.869498 -35.912143
39.491018 -28.392275 -34.820698
32.57975 -44.121924 -4.97964
32.928297 -43.176994 -5.283384
32.750883 -43.754106 -4.146021
32.266312 -45.057981 -4.754539
32.443725 -44.480869 -5.891901
32.57975 -44.121924 -4.97964
32.579578 -44.362261 -2.921461
32.362109 -45.025168 -1.799529
31.91354 -46.04228 -4.602383
32.266312 -45.057981 -4.754539
31.822007 -46.379413 -5.52676
31.91354 -46.04228 -4.602383
34.677425 -40.157209 -0.103164
35.083697 -39.241028 -0.44012
34.390416 -40.561369 -1.024018
34.677425 -40.157209 -0.103164
34.110394 -40.955153 -1.894462
34.521061 -39.99469 -2.268972
34.390416 -40.561369 -1.024018
33.742452 -41.836329 -1.665283
33.356977 -42.708799 -1.485094
33.873098 -41.26965 -2.910237
34.110394 -40.955153 -1.894462
33.742452 -41.836329 -1.665283
38.837272 -25.528984 -6.7069
38.869915 -26.158724 -5.517198
38.788353 -25.881988 -7.560431
38.837272 -25.528984 -6.7069
38.664168 -27.498342 -6.0843
38.817852 -27.059499 -5.188105
38.669401 -26.87416 -7.314186
38.664168 -27.498342 -6.0843
38.538239 -27.8584 -6.980385
38.662424 -26.242044 -8.456516
38.788353 -25.881988 -7.560431
38.669401 -26.87416 -7.314186
38.554913 -26.591873 -9.364374
38.673865 -25.5997 -9.61062
38.662424 -26.242044 -8.456516
33.303649 -43.981348 -14.398814
33.51749 -42.977542 -14.505049
33.159546 -43.907125 -13.495476
33.471199 -44.066044 -15.339638
33.303649 -43.981348 -14.398814
33.660424 -44.074352 -16.238745
33.850819 -43.060074 -16.307493
33.471199 -44.066044 -15.339638
33.884962 -44.134266 -17.278168
33.660424 -44.074352 -16.238745
34.139847 -44.076223 -18.307834
34.294928 -43.01034 -18.236267
33.884962 -44.134266 -17.278168
34.375794 -44.139383 -19.312188
34.139847 -44.076223 -18.307834
33.965828 -45.26331 -18.354088
33.353775 17.596283 -42.993668
33.607382 16.559229 -41.796144
33.082762 18.587377 -44.216723
33.353775 17.596283 -42.993668
33.756902 17.752209 -44.139486
33.09852 19.785136 -46.664213
32.396504 20.654385 -46.799191
33.407882 19.903977 -47.902448
33.09852 19.785136 -46.664213
33.795251 18.862144 -46.600776
33.680813 19.950726 -49.118587
32.984081 20.873717 -49.182024
33.407882 19.903977 -47.902448
39.327088 0.264163 -36.937307
39.147402 0.60768 -36.090623
39.34648 -0.782628 -35.871403
39.327088 0.264163 -36.937307
39.51404 -0.110093 -37.823799
38.403616 -22.681631 -21.079375
38.584633 -21.479835 -21.435936
38.479376 -22.287968 -20.407494
34.559204 10.253376 -34.875837
35.152317 9.464021 -34.863945
34.422569 11.302258 -35.914747
34.559204 10.253376 -34.875837
34.976835 11.595862 -37.181348
34.319017 12.350472 -37.081897
34.422569 11.302258 -35.914747
40.12237 -7.133039 -38.15053
40.154865 -8.783233 -37.715486
40.37136 -9.442773 -40.058199
40.445392 -10.348526 -40.669131
37.86409 -4.820448 -25.952177
37.484331 -3.849234 -25.908015
38.146454 -5.922813 -25.86218
38.425213 -6.97435 -25.806971
38.174053 -4.895535 -26.895809
37.86409 -4.820448 -25.952177
38.146454 -5.922813 -25.86218
39.227322 -10.826712 -27.240983
39.271116 -12.022358 -27.027282
39.170349 -9.681202 -27.367935
39.227322 -10.826712 -27.240983
39.284348 -9.961574 -28.219617
39.047911 -8.507786 -27.508301
39.170349 -9.681202 -27.367935
39.100815 -7.582495 -28.526438
38.921351 -7.274218 -27.68817
39.047911 -8.507786 -27.508301
38.656424 -20.746324 -22.452465
38.732183 -20.352661 -21.780584
38.584633 -21.479835 -21.435936
40.1511 -10.284401 -37.262996
40.154865 -8.783233 -37.715486
40.069481 -9.553328 -36.638609
40.224949 -11.128333 -37.817909
40.1511 -10.284401 -37.262996
40.139565 -11.898429 -36.741031
40.303068 -11.923411 -38.412212
40.314604 -10.309383 -38.934178
40.224949 -11.128333 -37.817909
40.518254 -15.980792 -40.529768
40.549835 -14.235057 -41.094755
40.488338 -14.884673 -40.021915
40.468773 -17.664196 -39.961925
40.382325 -18.316472 -38.881659
40.39434 -19.350261 -39.386656
40.518254 -15.980792 -40.529768
40.468773 -17.664196 -39.961925
40.510447 -18.11486 -41.506071
40.559927 -16.431455 -42.073914
40.462858 -19.34771 -41.876377
40.510447 -18.11486 -41.506071
40.4332 -19.930835 -40.837229
40.377621 -20.669443 -42.254671
40.454867 -18.853467 -42.923513
40.462858 -19.34771 -41.876377
40.251619 -23.076474 -40.435757
40.329727 -21.745202 -40.155222
40.195734 -23.657992 -39.383444
40.277962 -22.467389 -41.540472
40.251619 -23.076474 -40.435757
40.377621 -20.669443 -42.254671
40.277962 -22.467389 -41.540472
32.821327 -44.816563 -12.440334
33.159546 -43.907125 -13.495476
33.035168 -43.812758 -12.546569
32.821327 -44.816563 -12.440334
32.46212 -45.766665 -11.431317
32.154838 -46.579786 -10.409436
31.834642 -47.353132 -9.394718
36.691728 -34.563408 -4.344202
36.354359 -35.474013 -3.954136
36.743375 -33.997628 -5.603796
36.691728 -34.563408 -4.344202
36.498968 -34.325222 -6.402573
36.823025 -33.371608 -6.868945
36.743375 -33.997628 -5.603796
35.188918 -38.672556 -1.776686
35.471531 -38.312677 -0.818278
35.083697 -39.241028 -0.44012
35.277532 -38.15188 -3.038554
35.188918 -38.672556 -1.776686
34.889698 -39.08023 -2.660395
35.343235 -37.650139 -4.271301
35.642454 -37.242464 -3.387591
35.277532 -38.15188 -3.038554
38.796127 -23.599753 -10.257722
38.773647 -24.578775 -9.937172
38.808803 -22.628831 -10.461886
38.796127 -23.599753 -10.257722
38.778595 -22.936754 -11.375745
38.74638 -21.745337 -10.632305
38.808803 -22.628831 -10.461886
38.70628 -20.98278 -11.746664
38.74638 -21.745337 -10.632305
38.70628 -20.98278 -11.746664
38.782674 -21.274567 -12.667202
38.786361 -20.181368 -15.741035
38.782738 -20.907805 -14.652821
38.815767 -20.381509 -16.678801
38.786361 -20.181368 -15.741035
38.777791 -20.601671 -17.53002
38.815767 -20.381509 -16.678801
38.753422 -21.452468 -16.402366
38.746391 -21.030503 -18.318382
38.777791 -20.601671 -17.53002
38.654028 -21.483683 -19.027929
38.746391 -21.030503 -18.318382
38.623083 -22.12581 -17.963133
38.595557 -21.83258 -19.718367
38.654028 -21.483683 -19.027929
38.41454 -23.034377 -19.361806
38.479376 -22.287968 -20.407494
38.595557 -21.83258 -19.718367
34.006666 -46.541956 -19.459282
33.767006 -46.428422 -18.384459
34.491414 -45.258916 -20.469575
34.006666 -46.541956 -19.459282
34.296305 -46.474403 -20.570415
35.096079 -46.46705 -23.948912
35.551623 -45.22403 -24.888818
34.838426 -46.447146 -22.785578
35.096079 -46.46705 -23.948912
35.042916 -45.231873 -22.691566
34.576563 -46.406637 -21.67472
34.838426 -46.447146 -22.785578
36.679328 -39.990488 -26.20115
36.277065 -41.40978 -25.33009
36.536957 -41.237713 -26.35424
37.564953 -34.781981 -27.439378
37.234953 -36.203669 -26.641243
37.512197 -35.842903 -27.69748
37.87215 -33.416147 -28.208457
37.594905 -33.776913 -27.15222
37.564953 -34.781981 -27.439378
38.157907 -31.963607 -28.932499
37.87215 -33.416147 -28.208457
38.598469 -32.369943 -31.294358
38.645674 -31.191056 -31.001559
38.009113 -35.322345 -29.758819
37.937371 -36.514966 -30.087992
38.821432 -32.05237 -32.381273
38.598469 -32.369943 -31.294358
39.021938 -31.645622 -33.424938
39.078142 -30.459229 -33.103083
38.821432 -32.05237 -32.381273
39.190918 -31.30128 -34.44328
39.021938 -31.645622 -33.424938
39.358922 -30.778502 -35.534725
39.446652 -29.529704 -35.238194
39.190918 -31.30128 -34.44328
39.468985 -30.470945 -36.531515
39.358922 -30.778502 -35.534725
39.695932 -28.724815 -37.344296
39.468985 -30.470945 -36.531515
36.658592 -1.865523 -25.930566
37.118817 -2.833689 -25.935671
36.716556 -0.808661 -27.043819
36.658592 -1.865523 -25.930566
36.749395 0.259547 -28.134942
36.716556 -0.808661 -27.043819
37.193499 -0.693871 -28.132241
36.747777 1.364285 -29.205926
36.749395 0.259547 -28.134942
36.750702 2.380448 -30.213261
36.747777 1.364285 -29.205926
37.229261 1.3905 -30.230699
36.773336 3.421463 -31.303612
36.750702 2.380448 -30.213261
36.754593 4.517149 -32.400047
36.773336 3.421463 -31.303612
37.213442 3.502349 -32.334468
36.723089 5.550213 -33.442884
36.754593 4.517149 -32.400047
36.723089 5.550213 -33.442884
37.164757 5.697021 -34.614632
36.679081 7.739231 -35.865017
36.237414 7.592423 -34.69327
36.625351 8.778447 -37.051649
36.679081 7.739231 -35.865017
36.510774 9.846965 -38.178641
36.10877 9.750972 -37.058667
36.625351 8.778447 -37.051649
36.36023 10.929878 -39.317663
36.510774 9.846965 -38.178641
36.87681 9.957353 -39.310646
40.032989 -6.562701 -37.438936
40.12237 -7.133039 -38.15053
38.673105 6.029006 -40.795192
38.756327 4.95475 -39.594433
38.341461 7.282759 -40.929388
38.673105 6.029006 -40.795192
38.072397 7.469792 -39.955225
38.341461 7.282759 -40.929388
37.836233 9.520944 -42.346285
37.694683 10.502765 -43.61777
37.567169 9.707977 -41.372122
37.836233 9.520944 -42.346285
37.085831 10.885884 -41.537945
37.207603 9.862359 -40.283846
37.567169 9.707977 -41.372122
35.706833 15.952176 -46.542007
36.265457 14.82077 -46.352483
35.96822 15.8018 -47.605524
35.109591 16.942735 -46.573086
35.406828 15.961704 -45.320045
35.706833 15.952176 -46.542007
34.757104 17.957096 -47.81703
34.4571 17.966625 -46.595068
35.109591 16.942735 -46.573086
34.356556 18.916942 -48.963922
34.757104 17.957096 -47.81703
33.680813 19.950726 -49.118587
34.356556 18.916942 -48.963922
3 0 68 66
3 267 70 268
3 2 73 71
3 2 269 271
3 271 270 73
3 269 270 271
3 272 75 273
3 275 274 75
3 3 276 278
3 278 277 77
3 276 277 278
3 3 279 281
3 279 79 280
3 279 280 281
3 1 282 284
3 284 283 80
3 282 283 284
3 4 84 82
3 6 87 85
3 6 89 87
3 286 285 90
3 8 93 91
3 8 95 93
3 5 98 96
3 9 101 99
3 9 103 101
3 9 105 103
3 10 287 288
3 10 289 290
3 11 109 107
3 291 111 292
3 291 292 293
3 296 295 111
3 294 295 296
3 11 114 112
3 11 107 114
3 14 118 116
3 14 120 118
3 14 122 120
3 13 125 123
3 13 127 125
3 12 130 128
3 15 133 131
3 15 135 133
3 297 138 298
3 299 298 137
3 297 298 299
3 301 300 138
3 7 141 139
3 302 143 303
3 304 144 305
3 306 305 143
3 304 305 306
3 16 148 146
3 18 149 67
3 18 150 149
3 308 307 151
3 19 152 69
3 19 153 152
3 20 156 154
3 22 157 72
3 22 158 157
3 22 160 158
3 24 309 311
3 311 310 74
3 309 310 311
3 24 312 314
3 312 161 313
3 312 313 314
3 25 315 317
3 317 316 162
3 315 316 317
3 25 318 320
3 318 165 319
3 318 319 320
3 25 162 165
3 321 166 322
3 28 323 325
3 323 167 324
3 323 324 325
3 28 168 167
3 28 170 168
3 326 171 327
3 328 327 76
3 326 327 328
3 329 172 330
3 331 330 171
3 329 330 331
3 332 174 333
3 31 334 336
3 336 335 78
3 334 335 336
3 31 337 339
3 337 175 338
3 337 338 339
3 32 178 176
3 340 179 341
3 342 341 81
3 340 341 342
3 344 343 179
3 34 182 180
3 36 183 83
3 36 184 183
3 17 185 147
3 37 186 86
3 37 187 186
3 37 188 187
3 38 189 88
3 38 190 189
3 39 345 347
3 345 191 346
3 345 346 347
3 39 192 191
3 40 348 349
3 350 193 351
3 352 194 353
3 354 353 193
3 352 353 354
3 42 195 92
3 42 196 195
3 42 197 196
3 43 198 94
3 43 199 198
3 35 200 181
3 44 201 97
3 44 202 201
3 21 203 155
3 45 204 100
3 45 205 204
3 45 206 205
3 46 207 102
3 46 208 207
3 46 209 208
3 47 210 104
3 47 211 210
3 23 212 159
3 48 213 106
3 48 355 357
3 357 356 213
3 355 356 357
3 48 358 360
3 358 214 359
3 358 359 360
3 49 217 215
3 51 218 108
3 51 219 218
3 26 220 163
3 52 221 110
3 52 222 221
3 52 361 363
3 363 362 222
3 361 362 363
3 53 364 366
3 364 223 365
3 364 365 366
3 53 224 223
3 27 225 164
3 54 226 113
3 54 227 226
3 54 228 227
3 49 229 115
3 49 215 229
3 56 231 117
3 56 367 369
3 369 368 231
3 367 368 369
3 56 370 372
3 370 232 371
3 370 371 372
3 57 233 119
3 57 234 233
3 57 235 234
3 58 236 121
3 58 237 236
3 29 238 169
3 59 239 124
3 59 240 239
3 59 241 240
3 55 242 126
3 55 230 242
3 50 243 216
3 60 244 129
3 60 245 244
3 30 246 173
3 61 247 132
3 61 248 247
3 61 249 248
3 62 250 134
3 62 251 250
3 373 252 374
3 375 253 376
3 377 254 378
3 379 378 253
3 377 378 379
3 380 255 381
3 382 381 254
3 380 381 382
3 63 256 136
3 63 383 385
3 385 384 256
3 383 384 385
3 63 386 387
3 41 388 390
3 388 257 389
3 388 389 390
3 64 258 140
3 64 259 258
3 33 260 177
3 391 261 392
3 393 392 142
3 391 392 393
3 394 262 395
3 396 395 261
3 394 395 396
3 398 397 262
3 399 263 400
3 65 401 403
3 401 264 402
3 401 402 403
3 65 265 264
3 65 266 265
3 405 404 145
3 66 67 16
3 68 67 66
3 68 18 67
3 406 69 407
3 70 408 410
3 408 69 409
3 408 409 410
3 70 19 69
3 71 72 20
3 73 72 71
3 73 22 72
3 73 74 22
3 411 74 412
3 413 412 73
3 411 412 413
3 414 24 415
3 416 415 74
3 414 415 416
3 418 417 25
3 419 25 420
3 75 421 422
3 75 423 425
3 423 28 424
3 423 424 425
3 75 76 28
3 426 76 427
3 428 427 75
3 426 427 428
3 430 429 76
3 77 431 432
3 434 433 77
3 435 78 436
3 79 437 439
3 437 78 438
3 437 438 439
3 79 31 78
3 80 81 32
3 440 81 441
3 442 441 80
3 440 441 442
3 444 443 81
3 82 83 34
3 84 83 82
3 84 36 83
3 85 86 17
3 87 86 85
3 87 37 86
3 87 88 37
3 89 88 87
3 89 38 88
3 445 39 446
3 90 447 449
3 449 448 40
3 447 448 449
3 451 450 90
3 91 452 454
3 452 92 453
3 452 453 454
3 93 92 91
3 93 42 92
3 93 94 42
3 95 94 93
3 95 43 94
3 96 97 35
3 98 97 96
3 98 44 97
3 99 100 21
3 101 100 99
3 101 45 100
3 101 102 45
3 103 102 101
3 103 46 102
3 103 104 46
3 105 104 103
3 105 47 104
3 455 106 456
3 457 456 23
3 455 456 457
3 458 106 459
3 460 48 461
3 462 461 106
3 460 461 462
3 464 463 48
3 107 108 49
3 109 108 107
3 109 51 108
3 465 110 466
3 467 466 26
3 465 466 467
3 468 110 469
3 470 52 471
3 472 471 110
3 470 471 472
3 474 473 52
3 111 475 476
3 111 477 479
3 477 478 479
3 111 480 481
3 483 482 111
3 484 53 485
3 112 113 27
3 114 113 112
3 114 54 113
3 114 115 54
3 107 115 114
3 107 49 115
3 116 486 488
3 486 117 487
3 486 487 488
3 118 117 116
3 118 56 117
3 118 119 56
3 120 119 118
3 120 57 119
3 120 121 57
3 122 121 120
3 122 58 121
3 123 124 29
3 125 124 123
3 125 59 124
3 125 126 59
3 127 126 125
3 127 55 126
3 128 129 50
3 130 129 128
3 130 60 129
3 131 132 30
3 133 132 131
3 133 61 132
3 133 134 61
3 135 134 133
3 135 62 134
3 489 136 490
3 491 136 492
3 493 63 494
3 495 494 136
3 493 494 495
3 497 496 63
3 137 498 500
3 498 499 500
3 138 501 503
3 503 502 137
3 501 502 503
3 138 504 505
3 138 506 507
3 509 508 138
3 139 140 41
3 141 140 139
3 141 64 140
3 510 142 511
3 512 511 33
3 510 511 512
3 143 513 515
3 513 142 514
3 513 514 515
3 143 516 518
3 518 517 142
3 516 517 518
3 143 519 520
3 144 521 523
3 523 522 143
3 521 522 523
3 144 524 525
3 526 65 527
3 528 145 529
3 530 529 65
3 528 529 530
3 531 145 532
3 534 533 145
3 146 147 4
3 148 147 146
3 148 17 147
3 67 148 16
3 149 148 67
3 149 17 148
3 149 85 17
3 150 85 149
3 150 6 85
3 151 535 536
3 538 537 151
3 69 539 540
3 152 541 543
3 543 542 69
3 541 542 543
3 152 544 545
3 152 546 548
3 546 91 547
3 546 547 548
3 153 91 152
3 153 8 91
3 154 155 5
3 156 155 154
3 156 21 155
3 72 156 20
3 157 156 72
3 157 21 156
3 157 99 21
3 158 99 157
3 158 9 99
3 158 159 9
3 160 159 158
3 160 23 159
3 74 160 22
3 549 160 550
3 551 550 74
3 549 550 551
3 552 23 553
3 554 553 160
3 552 553 554
3 556 555 23
3 161 557 558
3 161 559 561
3 559 10 560
3 559 560 561
3 162 163 11
3 562 163 563
3 564 563 162
3 562 563 564
3 565 26 566
3 567 566 163
3 565 566 567
3 569 568 25
3 570 26 571
3 573 572 26
3 574 164 575
3 576 164 577
3 578 27 579
3 580 579 164
3 578 579 580
3 165 581 582
3 165 583 585
3 583 27 584
3 583 584 585
3 165 112 27
3 162 112 165
3 162 11 112
3 166 586 587
3 166 588 589
3 590 166 591
3 167 592 594
3 592 166 593
3 592 593 594
3 167 595 597
3 597 596 166
3 595 596 597
3 167 598 600
3 598 116 599
3 598 599 600
3 168 116 167
3 168 14 116
3 168 169 14
3 170 169 168
3 170 29 169
3 76 170 28
3 171 170 76
3 171 29 170
3 171 123 29
3 172 123 171
3 172 13 123
3 601 173 602
3 603 602 12
3 601 602 603
3 604 173 605
3 606 30 607
3 608 607 173
3 606 607 608
3 609 30 610
3 611 131 612
3 613 612 30
3 611 612 613
3 174 614 616
3 614 131 615
3 614 615 616
3 174 15 131
3 78 617 618
3 621 620 78
3 619 620 621
3 622 137 623
3 175 624 626
3 624 137 625
3 624 625 626
3 175 627 629
3 629 628 137
3 627 628 629
3 176 177 7
3 178 177 176
3 178 33 177
3 81 178 32
3 179 178 81
3 179 33 178
3 179 630 632
3 632 631 33
3 630 631 632
3 634 633 179
3 180 635 637
3 635 181 636
3 635 636 637
3 182 181 180
3 182 35 181
3 83 182 34
3 183 182 83
3 183 35 182
3 183 96 35
3 184 96 183
3 184 5 96
3 147 84 4
3 185 84 147
3 185 36 84
3 86 185 17
3 186 185 86
3 186 36 185
3 186 184 36
3 187 184 186
3 187 5 184
3 187 154 5
3 188 154 187
3 188 20 154
3 88 188 37
3 189 188 88
3 189 20 188
3 189 71 20
3 190 71 189
3 190 2 71
3 191 638 639
3 191 640 641
3 191 642 644
3 642 77 643
3 642 643 644
3 192 77 191
3 192 3 77
3 646 645 1
3 648 647 40
3 649 41 650
3 193 651 652
3 193 653 655
3 653 41 654
3 653 654 655
3 193 139 41
3 194 139 193
3 194 7 139
3 92 656 657
3 195 658 660
3 660 659 92
3 658 659 660
3 195 661 662
3 195 663 665
3 663 194 664
3 663 664 665
3 196 194 195
3 196 7 194
3 196 176 7
3 197 176 196
3 197 32 176
3 94 197 42
3 198 197 94
3 198 32 197
3 198 80 32
3 199 80 198
3 199 1 80
3 181 666 668
3 666 70 667
3 666 667 668
3 200 70 181
3 200 19 70
3 97 200 35
3 201 200 97
3 201 19 200
3 201 153 19
3 202 153 201
3 202 8 153
3 155 98 5
3 203 98 155
3 203 44 98
3 100 203 21
3 204 203 100
3 204 44 203
3 204 202 44
3 205 202 204
3 205 8 202
3 205 95 8
3 206 95 205
3 206 43 95
3 102 206 45
3 207 206 102
3 207 43 206
3 207 199 43
3 208 199 207
3 208 1 199
3 208 669 671
3 671 670 1
3 669 670 671
3 209 672 674
3 674 673 208
3 672 673 674
3 209 675 677
3 675 40 676
3 675 676 677
3 104 209 46
3 210 209 104
3 210 40 209
3 210 90 40
3 211 90 210
3 211 678 680
3 680 679 90
3 678 679 680
3 159 105 9
3 212 105 159
3 212 47 105
3 106 212 23
3 213 212 106
3 213 47 212
3 213 211 47
3 681 211 682
3 683 682 213
3 681 682 683
3 685 684 211
3 686 151 687
3 214 688 690
3 688 151 689
3 688 689 690
3 214 691 693
3 693 692 151
3 691 692 693
3 694 214 695
3 696 695 48
3 694 695 696
3 697 214 698
3 700 699 214
3 215 216 0
3 217 216 215
3 217 50 216
3 108 217 49
3 218 217 108
3 218 50 217
3 218 128 50
3 219 128 218
3 219 12 128
3 163 109 11
3 220 109 163
3 220 51 109
3 110 220 26
3 221 220 110
3 221 51 220
3 221 219 51
3 222 219 221
3 222 12 219
3 222 701 703
3 703 702 12
3 701 702 703
3 705 704 222
3 707 706 52
3 223 708 709
3 223 710 711
3 223 712 714
3 712 172 713
3 712 713 714
3 224 172 223
3 224 13 172
3 164 715 717
3 715 716 717
3 225 718 720
3 720 719 164
3 718 719 720
3 225 721 723
3 721 53 722
3 721 722 723
3 113 225 27
3 226 225 113
3 226 53 225
3 226 224 53
3 227 224 226
3 227 13 224
3 227 127 13
3 228 127 227
3 228 55 127
3 115 228 54
3 229 228 115
3 229 55 228
3 229 230 55
3 215 230 229
3 215 0 230
3 117 724 725
3 231 726 728
3 728 727 117
3 726 727 728
3 231 729 730
3 231 731 732
3 734 733 231
3 232 735 736
3 232 737 738
3 119 232 56
3 233 232 119
3 233 739 741
3 741 740 232
3 739 740 741
3 233 742 743
3 234 744 746
3 746 745 233
3 744 745 746
3 234 747 748
3 234 749 751
3 749 180 750
3 749 750 751
3 235 180 234
3 235 34 180
3 121 235 57
3 236 235 121
3 236 34 235
3 236 82 34
3 237 82 236
3 237 4 82
3 169 122 14
3 238 122 169
3 238 58 122
3 124 238 29
3 239 238 124
3 239 58 238
3 239 237 58
3 240 237 239
3 240 4 237
3 240 146 4
3 241 146 240
3 241 16 146
3 126 241 59
3 242 241 126
3 242 16 241
3 242 66 16
3 230 66 242
3 230 0 66
3 216 68 0
3 243 68 216
3 243 18 68
3 129 243 50
3 244 243 129
3 244 18 243
3 244 150 18
3 245 150 244
3 245 6 150
3 173 130 12
3 246 130 173
3 246 60 130
3 132 246 30
3 247 246 132
3 247 60 246
3 247 245 60
3 248 245 247
3 248 6 245
3 248 89 6
3 249 89 248
3 249 38 89
3 134 249 61
3 250 249 134
3 250 38 249
3 250 190 38
3 251 190 250
3 251 2 190
3 752 174 753
3 252 754 756
3 754 174 755
3 754 755 756
3 252 15 174
3 253 757 758
3 253 759 760
3 253 761 763
3 761 252 762
3 761 762 763
3 254 252 253
3 254 15 252
3 254 135 15
3 255 135 254
3 255 62 135
3 136 764 766
3 764 255 765
3 764 765 766
3 256 255 136
3 256 62 255
3 256 251 62
3 767 251 768
3 769 768 256
3 767 768 769
3 770 2 771
3 772 771 251
3 770 771 772
3 774 773 2
3 775 24 776
3 778 777 63
3 779 24 780
3 781 161 782
3 783 782 24
3 781 782 783
3 784 161 785
3 786 10 787
3 788 787 161
3 786 787 788
3 789 10 790
3 792 791 10
3 257 793 794
3 257 795 796
3 140 257 41
3 258 257 140
3 258 797 799
3 799 798 257
3 797 798 799
3 258 800 801
3 259 802 804
3 804 803 258
3 802 803 804
3 259 805 806
3 177 141 7
3 260 141 177
3 260 64 141
3 142 260 33
3 261 260 142
3 261 64 260
3 261 259 64
3 262 259 261
3 262 807 809
3 809 808 259
3 807 808 809
3 262 810 811
3 813 812 262
3 814 39 815
3 816 39 817
3 818 192 819
3 820 819 39
3 818 819 820
3 263 821 823
3 821 192 822
3 821 822 823
3 263 3 192
3 825 824 1
3 826 144 827
3 828 144 829
3 831 830 144
3 264 832 833
3 264 834 835
3 264 836 838
3 836 263 837
3 836 837 838
3 265 263 264
3 265 3 263
3 265 79 3
3 266 79 265
3 266 31 79
3 145 266 65
3 839 266 840
3 841 840 145
3 839 840 841
3 842 31 843
3 844 843 266
3 842 843 844
3 845 175 846
3 847 846 31
3 845 846 847
3 848 175 849
3 851 850 175
