ply
format ascii 1.0
element vertex 354
property float x
property float y
property float z
element face 317
property list uchar int vertex_index
end_header
-18.85857 -77.224236 3.743697
-23.434107 -68.189117 2.256902
-27.804794 -59.345737 -0.554578
-31.47887 -54.424015 -11.121252
-21.167767 -72.875641 3.310316
-31.862354 -52.531033 -7.57927
-33.499035 -51.362915 -15.948343
-17.995033 -80.628281 -1.194451
-20.604429 -75.891136 -1.407728
-25.041176 -66.465782 -3.106242
-16.18434 -81.516594 3.589798
-24.116106 -65.417435 6.377168
-25.523722 -63.850594 0.951156
-27.224144 -61.765274 -4.371099
-30.166882 -55.013664 -2.323419
-29.549377 -57.050438 -5.947886
-29.250834 -59.189922 -9.70512
-31.318205 -56.413811 -14.626274
-33.379097 -53.253422 -19.32214
-18.439632 -78.941025 1.26365
-19.360601 -78.345985 -1.518396
-19.648674 -76.840691 1.024181
-22.292559 -70.593559 2.820699
-22.039837 -72.002251 0.664657
-24.156891 -67.475502 -0.369687
-17.549658 -79.396095 3.813675
-17.112434 -81.10865 1.246755
-25.982422 -62.377029 2.786768
-26.651953 -61.633167 0.027815
-26.343327 -62.820045 -1.650876
-27.469418 -60.544846 -2.435566
-31.856071 -51.86573 -1.359267
-30.604237 -54.043766 -0.606759
-31.45109 -52.710964 -3.227919
-31.72308 -53.292042 -9.432466
-30.714506 -54.773899 -6.808947
-30.498817 -55.755482 -8.501895
-29.268639 -58.28627 -7.685504
-30.336708 -56.810436 -10.266831
-30.293507 -57.760975 -12.108358
-31.433958 -55.294388 -12.920373
-33.441826 -52.253677 -17.567581
-20.033356 -75.11702 3.520921
-20.433777 -73.403183 5.845697
-21.579556 -71.124039 5.596
-22.674105 -68.971252 4.933665
-28.213959 -58.211967 1.277575
-32.209038 -51.548763 -5.876814
-32.86216 -50.922955 -10.074214
-32.576855 -52.701698 -13.52943
-18.780102 -80.245781 -3.859435
-20.898453 -74.385269 0.905352
-21.766212 -73.589355 -1.781114
-24.845863 -67.858307 -5.179274
-25.958611 -65.366013 -5.667358
-32.43903 -50.836559 0.267221
-15.165697 -81.816093 5.967841
-15.580495 -83.423569 0.944062
-23.761057 -66.742531 4.370765
-24.87199 -64.540718 3.5732
-24.435722 -66.085373 1.665049
-25.267893 -65.114494 -1.084869
-26.112339 -64.086197 -3.595548
-26.999849 -63.088367 -6.25663
-29.380152 -56.168785 0.275497
-28.968538 -57.189857 -1.460869
-30.962704 -53.863853 -4.906942
-29.803232 -56.032501 -4.097448
-28.608139 -58.344563 -3.369593
-28.35718 -59.437767 -5.130463
-28.185335 -60.604271 -7.107281
-30.170952 -58.98251 -13.921995
-31.240749 -57.52845 -16.436089
-32.425392 -53.816139 -15.16246
-32.39452 -54.798153 -17.017008
-32.283913 -55.955547 -18.79664
-33.373547 -54.095325 -21.153658
-23.265242 -68.968296 1.246854
-22.694468 -70.170517 1.528752
-22.863333 -69.391338 2.5388
-23.795499 -67.83231 0.943608
-23.626634 -68.611489 -0.066441
-23.265242 -68.968296 1.246854
-18.204114 -78.310166 3.778686
-17.751959 -78.547775 5.061764
-18.406415 -77.461846 5.026775
-27.228374 -60.489452 -0.263381
-26.858455 -60.97711 1.040661
-27.434876 -59.833395 0.749465
-32.042501 -51.63999 -3.599006
-31.653581 -52.288347 -2.293593
-32.244991 -51.217373 -2.66468
-20.05892 -73.603695 7.14267
-19.848691 -74.453659 6.018249
-21.744165 -70.387916 6.673236
-21.161314 -71.497273 6.895408
-22.291439 -69.311523 6.342068
-22.126831 -70.047646 5.264833
-21.744165 -70.387916 6.673236
-28.496347 -57.607662 2.040722
-27.885991 -58.657097 2.533283
-33.347187 -50.121935 -11.341365
-33.404824 -49.795828 -10.495123
-32.750565 -51.403716 -10.890746
-33.347187 -50.121935 -11.341365
-18.387567 -80.437031 -2.526943
-18.099328 -81.382355 -3.854405
-17.706793 -81.573605 -2.521914
-20.39371 -76.773315 -2.650405
-19.771796 -78.00074 -2.705738
-19.982515 -77.118561 -1.463062
-20.988185 -75.61425 -2.758896
-20.39371 -76.773315 -2.650405
-22.29598 -72.458869 -1.93741
-21.903025 -72.795803 -0.558229
-22.432792 -71.665318 -0.714524
-22.176544 -73.212154 -3.107807
-22.29598 -72.458869 -1.93741
-24.94352 -67.162045 -4.142758
-24.390935 -68.350158 -3.798558
-24.488591 -67.653896 -2.762042
-33.012415 -49.835456 -0.049428
-32.695429 -50.419857 1.199191
-32.761421 -50.270113 -0.992829
-33.012415 -49.835456 -0.049428
-15.675019 -81.666343 4.778819
-15.879133 -80.789455 6.139674
-16.388455 -80.639705 4.950653
-15.37755 -82.583493 3.538877
-14.868229 -82.733242 4.727899
-15.675019 -81.666343 4.778819
-15.882417 -82.470081 2.26693
-15.075628 -83.53698 2.21601
-15.37755 -82.583493 3.538877
-17.286936 -81.768574 -1.278641
-16.845637 -82.008758 -0.058038
-17.553733 -80.868465 0.026152
-17.706793 -81.573605 -2.521914
-17.286936 -81.768574 -1.278641
-23.575664 -66.447853 6.75835
-23.757516 -65.788456 7.771846
-23.938581 -66.079983 5.373966
-23.39814 -67.110401 5.755148
-23.575664 -66.447853 6.75835
-28.633131 -60.483759 -9.24702
-28.100381 -61.190933 -7.9481
-28.718084 -59.897097 -8.406201
-29.176403 -59.802046 -10.590566
-28.633131 -60.483759 -9.24702
-22.568106 -70.874863 0.450731
-22.166198 -71.297905 1.742678
-22.694468 -70.170517 1.528752
-22.432792 -71.665318 -0.714524
-22.568106 -70.874863 0.450731
-24.046449 -68.158756 -1.393764
-23.626634 -68.611489 -0.066441
-24.599034 -66.970642 -1.737964
-24.488591 -67.653896 -2.762042
-24.046449 -68.158756 -1.393764
-17.071114 -79.579456 5.062591
-17.751959 -78.547775 5.061764
-16.866999 -80.456345 3.701736
-16.388455 -80.639705 4.950653
-17.071114 -79.579456 5.062591
-24.328325 -64.761089 7.346856
-23.757516 -65.788456 7.771846
-26.523689 -61.349041 2.420138
-26.172897 -61.798416 3.774863
-26.317187 -62.005098 1.407291
-26.523689 -61.349041 2.420138
-26.858455 -60.97711 1.040661
-31.230154 -52.954748 -0.983013
-30.909441 -53.474991 0.254166
-31.535358 -52.385973 -0.122088
-33.997755 -50.895584 -17.960991
-33.47043 -51.808296 -16.757962
-34.026359 -50.450203 -17.151372
-33.972158 -51.338406 -18.794837
-33.997755 -50.895584 -17.960991
-33.940794 -51.838278 -19.672117
-33.410461 -52.75355 -18.444861
-33.972158 -51.338406 -18.794837
-33.911728 -52.294936 -20.521217
-33.940794 -51.838278 -19.672117
-19.64848 -75.310577 4.855861
-19.445963 -76.170628 3.632309
-19.061087 -76.364186 4.967249
-20.233567 -74.260101 4.683309
-19.64848 -75.310577 4.855861
-19.848691 -74.453659 6.018249
-20.588425 -72.636844 7.020257
-20.05892 -73.603695 7.14267
-21.006667 -72.263611 5.720849
-20.588425 -72.636844 7.020257
-21.161314 -71.497273 6.895408
-19.061087 -76.364186 4.967249
-18.406415 -77.461846 5.026775
-27.639458 -59.26651 1.665541
-27.885991 -58.657097 2.533283
-28.009377 -58.778852 0.361498
-27.434876 -59.833395 0.749465
-27.639458 -59.26651 1.665541
-32.790398 -50.434279 -6.209188
-32.421475 -51.058889 -4.923453
-32.659548 -50.804054 -7.121239
-32.790398 -50.434279 -6.209188
-32.486206 -51.295189 -7.972466
-32.035696 -52.039898 -6.728042
-32.659548 -50.804054 -7.121239
-32.986109 -50.49115 -9.219938
-33.404824 -49.795828 -10.495123
-32.362257 -51.726994 -8.826742
-32.486206 -51.295189 -7.972466
-32.986109 -50.49115 -9.219938
-32.181024 -52.588259 -10.569872
-32.29262 -52.107499 -9.75334
-32.750565 -51.403716 -10.890746
-32.05892 -53.154246 -11.414265
-31.600975 -53.858029 -10.276859
-32.181024 -52.588259 -10.569872
-32.607912 -52.293087 -12.618354
-32.027862 -53.562856 -12.325341
-32.05892 -53.154246 -11.414265
-33.11672 -51.481798 -13.876389
-32.607912 -52.293087 -12.618354
-33.57781 -50.812407 -15.085845
-33.037945 -52.032307 -14.738886
-33.11672 -51.481798 -13.876389
-34.057562 -50.01338 -16.302448
-33.57781 -50.812407 -15.085845
-34.026359 -50.450203 -17.151372
-34.057562 -50.01338 -16.302448
-18.586698 -81.024067 -5.157992
-18.099328 -81.382355 -3.854405
-19.257165 -79.802075 -5.063036
-18.586698 -81.024067 -5.157992
-19.481547 -78.950638 -3.876258
-19.070352 -79.295883 -2.688916
-19.771796 -78.00074 -2.705738
-19.257165 -79.802075 -5.063036
-19.481547 -78.950638 -3.876258
-21.569077 -74.463359 -2.945589
-20.988185 -75.61425 -2.758896
-21.18532 -74.740246 -1.594421
-21.569077 -74.463359 -2.945589
-22.176544 -73.212154 -3.107807
-24.302105 -69.074234 -4.987024
-24.390935 -68.350158 -3.798558
-24.766641 -68.534229 -6.247881
-24.302105 -69.074234 -4.987024
-25.335191 -67.275043 -6.480727
-24.766641 -68.534229 -6.247881
-25.891565 -66.028897 -6.724769
-25.335191 -67.275043 -6.480727
-25.402237 -66.61216 -5.423316
-26.434593 -64.835633 -7.01999
-25.891565 -66.028897 -6.724769
-32.097701 -51.415819 1.579549
-32.695429 -50.419857 1.199191
-31.826838 -51.871387 0.691156
-32.097701 -51.415819 1.579549
-32.147551 -51.351145 -0.546023
-31.535358 -52.385973 -0.122088
-31.826838 -51.871387 0.691156
-32.469942 -50.784699 -1.806072
-32.147551 -51.351145 -0.546023
-32.761421 -50.270113 -0.992829
-32.244991 -51.217373 -2.66468
-32.469942 -50.784699 -1.806072
-15.383277 -80.874485 7.378474
-15.879133 -80.789455 6.139674
-14.632609 -81.800125 7.270806
-15.383277 -80.874485 7.378474
-14.361481 -82.749584 5.95094
-14.632609 -81.800125 7.270806
-14.361481 -82.749584 5.95094
-14.868229 -82.733242 4.727899
-14.740634 -84.493019 0.905219
-15.075628 -83.53698 2.21601
-15.255218 -84.357239 -0.35232
-14.740634 -84.493019 0.905219
-16.079667 -83.166218 -0.209384
-16.346464 -82.266109 1.095409
-16.845637 -82.008758 -0.058038
-15.255218 -84.357239 -0.35232
-16.079667 -83.166218 -0.209384
-22.854664 -68.224761 6.036599
-22.291439 -69.311523 6.342068
-23.217581 -67.856892 4.652215
-22.854664 -68.224761 6.036599
-23.39814 -67.110401 5.755148
-24.674057 -64.375608 5.916092
-24.328325 -64.761089 7.346856
-25.607215 -62.855406 4.120891
-26.172897 -61.798416 3.774863
-25.051999 -63.93725 4.514107
-25.607215 -62.855406 4.120891
-25.427206 -63.458873 3.179984
-24.494048 -64.979076 4.975184
-24.674057 -64.375608 5.916092
-25.051999 -63.93725 4.514107
-26.955213 -63.69681 -7.314626
-26.434593 -64.835633 -7.01999
-26.47923 -64.22719 -5.961994
-30.289142 -54.513729 0.69761
-30.909441 -53.474991 0.254166
-29.677099 -55.576239 1.138738
-30.289142 -54.513729 0.69761
-29.992195 -55.106275 -0.165631
-29.079444 -56.586071 1.539683
-29.677099 -55.576239 1.138738
-28.797055 -57.190376 0.776536
-28.496347 -57.607662 2.040722
-29.079444 -56.586071 1.539683
-31.830064 -52.129863 -4.552366
-32.042501 -51.63999 -3.599006
-32.421475 -51.058889 -4.923453
-27.507638 -62.432981 -7.522775
-27.592592 -61.846319 -6.681956
-28.100381 -61.190933 -7.9481
-26.955213 -63.69681 -7.314626
-27.507638 -62.432981 -7.522775
-29.697739 -59.087572 -11.792185
-29.176403 -59.802046 -10.590566
-29.772171 -58.475448 -10.906739
-29.636461 -59.69834 -12.699003
-29.697739 -59.087572 -11.792185
-30.23223 -58.371742 -13.015177
-29.604363 -60.286471 -13.688108
-29.636461 -59.69834 -12.699003
-30.125101 -59.594477 -14.885959
-29.604363 -60.286471 -13.688108
-30.659999 -58.867447 -16.143006
-30.125101 -59.594477 -14.885959
-30.705851 -58.25548 -15.179042
-31.2147 -58.07123 -17.402551
-30.659999 -58.867447 -16.143006
-31.736281 -57.284779 -18.582826
-31.2147 -58.07123 -17.402551
-31.762331 -56.741999 -17.616364
-32.252527 -56.474518 -19.751708
-31.736281 -57.284779 -18.582826
-32.797345 -55.544407 -20.930217
-32.252527 -56.474518 -19.751708
-32.82873 -55.025436 -19.975149
-33.285637 -54.686682 -22.011968
-32.797345 -55.544407 -20.930217
-33.908953 -52.715887 -21.436976
-33.376322 -53.674374 -20.237899
-33.911728 -52.294936 -20.521217
-33.881196 -53.168655 -22.364744
-33.908953 -52.715887 -21.436976
-33.285637 -54.686682 -22.011968
-33.881196 -53.168655 -22.364744
3 0 21 19
3 1 77 79
3 79 78 22
3 77 78 79
3 1 80 82
3 80 24 81
3 80 81 82
3 0 83 85
3 83 25 84
3 83 84 85
3 0 19 25
3 2 86 88
3 86 28 87
3 86 87 88
3 2 30 28
3 89 33 90
3 91 90 31
3 89 90 91
3 3 36 34
3 3 38 36
3 3 40 38
3 92 43 93
3 94 44 95
3 96 45 97
3 98 97 44
3 96 97 98
3 99 46 100
3 101 48 102
3 104 103 48
3 7 105 107
3 105 50 106
3 105 106 107
3 8 108 110
3 110 109 20
3 108 109 110
3 8 111 112
3 4 51 42
3 113 52 114
3 115 114 23
3 113 114 115
3 117 116 52
3 9 118 120
3 118 53 119
3 118 119 120
3 9 54 53
3 121 55 122
3 124 123 55
3 10 125 127
3 125 56 126
3 125 126 127
3 10 128 130
3 130 129 56
3 128 129 130
3 10 131 133
3 131 57 132
3 131 132 133
3 7 134 136
3 136 135 26
3 134 135 136
3 7 137 138
3 11 139 140
3 11 141 143
3 141 58 142
3 141 142 143
3 12 59 27
3 12 60 59
3 12 61 60
3 13 62 29
3 13 63 62
3 14 64 32
3 14 65 64
3 5 66 47
3 15 67 35
3 15 68 67
3 15 69 68
3 16 70 37
3 16 144 146
3 146 145 70
3 144 145 146
3 16 147 148
3 17 71 39
3 17 72 71
3 6 73 49
3 18 74 41
3 18 75 74
3 18 76 75
3 19 20 7
3 21 20 19
3 21 8 20
3 22 23 4
3 149 23 150
3 151 150 22
3 149 150 151
3 153 152 23
3 24 154 155
3 24 156 158
3 156 9 157
3 156 157 158
3 25 159 160
3 25 161 163
3 161 10 162
3 161 162 163
3 25 26 10
3 19 26 25
3 19 7 26
3 164 11 165
3 166 27 167
3 28 168 170
3 168 27 169
3 168 169 170
3 28 12 27
3 28 29 12
3 30 29 28
3 30 13 29
3 31 171 173
3 171 32 172
3 171 172 173
3 33 32 31
3 33 14 32
3 34 35 5
3 36 35 34
3 36 15 35
3 36 37 15
3 38 37 36
3 38 16 37
3 38 39 16
3 40 39 38
3 40 17 39
3 174 41 175
3 176 175 6
3 174 175 176
3 177 41 178
3 179 18 180
3 181 180 41
3 179 180 181
3 183 182 18
3 184 42 185
3 186 185 0
3 184 185 186
3 43 187 189
3 187 42 188
3 187 188 189
3 43 4 42
3 190 43 191
3 44 192 194
3 192 43 193
3 192 193 194
3 44 4 43
3 44 22 4
3 45 22 44
3 45 1 22
3 195 0 196
3 46 197 198
3 46 199 201
3 199 2 200
3 199 200 201
3 202 47 203
3 204 47 205
3 206 5 207
3 208 207 47
3 206 207 208
3 48 209 210
3 48 211 213
3 211 5 212
3 211 212 213
3 48 34 5
3 214 34 215
3 216 215 48
3 214 215 216
3 217 3 218
3 219 218 34
3 217 218 219
3 220 49 221
3 222 221 3
3 220 221 222
3 223 49 224
3 225 6 226
3 227 226 49
3 225 226 227
3 228 6 229
3 231 230 6
3 50 232 233
3 50 234 235
3 20 50 7
3 236 50 237
3 238 237 20
3 236 237 238
3 240 239 50
3 42 21 0
3 51 21 42
3 51 8 21
3 23 51 4
3 52 51 23
3 52 8 51
3 52 241 243
3 243 242 8
3 241 242 243
3 245 244 52
3 53 246 247
3 53 248 249
3 53 250 251
3 54 252 254
3 254 253 53
3 252 253 254
3 54 255 256
3 55 257 258
3 55 259 260
3 55 261 263
3 261 31 262
3 261 262 263
3 264 31 265
3 266 265 55
3 264 265 266
3 268 267 31
3 56 269 270
3 56 271 272
3 56 273 274
3 276 275 56
3 57 277 278
3 57 279 280
3 26 57 10
3 281 57 282
3 283 282 26
3 281 282 283
3 285 284 57
3 286 45 287
3 58 288 290
3 288 45 289
3 288 289 290
3 58 1 45
3 291 11 292
3 27 293 294
3 59 295 297
3 297 296 27
3 295 296 297
3 59 298 300
3 298 11 299
3 298 299 300
3 59 58 11
3 60 58 59
3 60 1 58
3 60 24 1
3 61 24 60
3 61 9 24
3 29 61 12
3 62 61 29
3 62 9 61
3 62 54 9
3 63 54 62
3 63 301 303
3 303 302 54
3 301 302 303
3 32 304 305
3 64 306 308
3 308 307 32
3 306 307 308
3 64 309 310
3 64 311 313
3 311 46 312
3 311 312 313
3 65 46 64
3 65 2 46
3 47 314 316
3 314 33 315
3 314 315 316
3 66 33 47
3 66 14 33
3 35 66 5
3 67 66 35
3 67 14 66
3 67 65 14
3 68 65 67
3 68 2 65
3 68 30 2
3 69 30 68
3 69 13 30
3 37 69 15
3 70 69 37
3 70 13 69
3 70 63 13
3 317 63 318
3 319 318 70
3 317 318 319
3 321 320 63
3 39 322 324
3 324 323 16
3 322 323 324
3 71 325 327
3 327 326 39
3 325 326 327
3 71 328 329
3 71 330 331
3 72 332 334
3 334 333 71
3 332 333 334
3 72 335 336
3 49 40 3
3 73 40 49
3 73 17 40
3 41 73 6
3 74 73 41
3 74 17 73
3 74 72 17
3 75 72 74
3 75 337 339
3 339 338 72
3 337 338 339
3 75 340 341
3 76 342 344
3 344 343 75
3 342 343 344
3 76 345 346
3 347 76 348
3 349 348 18
3 347 348 349
3 350 76 351
3 353 352 76
