ply
format ascii 1.0
element vertex 91
property float x
property float y
property float z
element face 71
property list uchar int vertex_index
end_header
-35.786701 -43.277035 20.051643
-37.121796 -42.093597 10.197
-36.586639 -43.036373 15.150571
-35.265038 -45.003941 18.606007
-35.638165 -44.931793 16.085316
-36.244583 -43.209984 17.636999
-37.292652 -41.511436 7.635438
-37.771633 -39.441525 15.943411
-36.847095 -42.723145 12.678541
-36.665131 -41.47554 19.282349
-37.057003 -41.382206 16.926514
-37.351116 -41.141319 14.503412
-37.565105 -40.748569 12.034211
-37.712578 -40.24707 9.489106
-35.525869 -44.140488 19.328825
-35.009029 -45.025289 19.767153
-35.269861 -44.161836 20.489971
-36.816918 -42.846129 9.366557
-36.696341 -43.120731 10.599702
-37.207224 -41.802517 8.916219
-36.902345 -42.555048 8.085776
-36.816918 -42.846129 9.366557
-36.286821 -43.815569 14.368813
-35.812584 -44.763279 14.836186
-36.112402 -43.984083 15.617943
-36.716867 -42.879759 13.914556
-36.417049 -43.658955 13.132798
-36.286821 -43.815569 14.368813
-37.079786 -40.463386 18.796835
-36.842764 -40.511763 19.959544
-37.275723 -40.416719 17.618918
-36.861067 -41.428873 18.104432
-37.079786 -40.463386 18.796835
-37.658491 -40.179628 13.99585
-37.561374 -40.291422 15.223412
-37.868749 -39.329731 14.71585
-37.765485 -39.983253 12.76125
-37.458111 -40.944944 13.268812
-37.658491 -40.179628 13.99585
-37.930521 -39.237224 9.073821
-37.912264 -39.465771 10.276626
-37.787674 -39.827377 8.213034
-37.930521 -39.237224 9.073821
-34.719444 -45.911372 18.978836
-35.009029 -45.025289 19.767153
-34.937866 -45.866366 17.75011
-34.719444 -45.911372 18.978836
-35.451601 -44.967867 17.345661
-35.12443 -45.830292 16.489764
-34.937866 -45.866366 17.75011
-37.051296 -42.122231 6.79483
-36.902345 -42.555048 8.085776
-37.40884 -41.025453 6.408389
-37.051296 -42.122231 6.79483
-37.931088 -38.499144 16.70937
-37.633038 -39.446379 17.127366
-38.032328 -38.461554 15.51453
-37.931088 -38.499144 16.70937
-37.868749 -39.329731 14.71585
-38.032328 -38.461554 15.51453
-35.301564 -45.713738 15.292375
-35.12443 -45.830292 16.489764
-35.301564 -45.713738 15.292375
-35.812584 -44.763279 14.836186
-36.55899 -43.435505 11.840473
-36.417049 -43.658955 13.132798
-36.984446 -42.408371 11.43777
-36.696341 -43.120731 10.599702
-36.55899 -43.435505 11.840473
-35.488638 -43.273255 21.182433
-35.269861 -44.161836 20.489971
-35.965114 -42.389719 20.77722
-35.488638 -43.273255 21.182433
-36.40433 -41.488972 20.392573
-36.842764 -40.511763 19.959544
-36.225916 -42.376288 19.666996
-35.965114 -42.389719 20.77722
-36.40433 -41.488972 20.392573
-37.414318 -40.411865 16.434963
-37.275723 -40.416719 17.618918
-37.633038 -39.446379 17.127366
-37.838527 -39.71652 11.549179
-37.765485 -39.983253 12.76125
-37.638841 -40.49782 10.761658
-37.838527 -39.71652 11.549179
-37.912264 -39.465771 10.276626
-37.577711 -40.45956 7.2862
-37.502615 -40.879253 8.562272
-37.787674 -39.827377 8.213034
-37.40884 -41.025453 6.408389
-37.577711 -40.45956 7.2862
3 0 14 16
3 14 3 15
3 14 15 16
3 0 5 3
3 1 17 18
3 1 19 21
3 19 6 20
3 19 20 21
3 2 22 24
3 24 23 4
3 22 23 24
3 2 25 27
3 25 8 26
3 25 26 27
3 28 9 29
3 30 10 31
3 32 31 9
3 30 31 32
3 33 11 34
3 35 34 7
3 33 34 35
3 36 12 37
3 38 37 11
3 36 37 38
3 39 13 40
3 42 41 13
3 3 43 44
3 3 45 46
3 3 47 49
3 47 4 48
3 47 48 49
3 5 4 3
3 5 2 4
3 6 50 51
3 6 52 53
3 54 7 55
3 56 7 57
3 59 58 7
3 4 60 61
3 63 62 4
3 8 64 65
3 8 66 68
3 66 1 67
3 66 67 68
3 69 0 70
3 71 0 72
3 9 73 74
3 9 75 77
3 75 0 76
3 75 76 77
3 9 5 0
3 10 5 9
3 10 2 5
3 7 78 80
3 78 10 79
3 78 79 80
3 11 10 7
3 11 2 10
3 11 8 2
3 12 8 11
3 12 1 8
3 81 12 82
3 13 83 85
3 83 12 84
3 83 84 85
3 13 1 12
3 13 6 1
3 86 6 87
3 88 87 13
3 86 87 88
3 90 89 6
