ply
format ascii 1.0
element vertex 109
property float x
property float y
property float z
element face 77
property list uchar int vertex_index
end_header
-18.978903 31.235666 -55.964214
-22.619364 28.788076 -56.704132
-15.367661 33.638031 -54.621101
-20.753042 30.070211 -56.497902
-13.740808 34.762047 -54.135967
-25.653883 26.275723 -54.36116
-27.479725 24.688931 -54.027073
-23.757341 27.741024 -54.203449
-16.695051 32.820965 -52.737755
-17.137104 32.436069 -55.50111
-19.865972 30.652938 -56.231058
-20.495094 30.173388 -55.126791
-19.608024 30.756115 -54.859947
-12.949697 35.398526 -53.672062
-13.59261 35.101317 -52.861297
-12.200146 35.641913 -54.487502
-12.991256 35.005434 -54.951407
-12.949697 35.398526 -53.672062
-26.958536 25.248045 -55.310043
-26.566804 25.482327 -54.194116
-26.045615 26.041441 -55.477087
-27.877435 24.404682 -55.159651
-26.958536 25.248045 -55.310043
-23.188353 28.26455 -55.45379
-22.86042 28.396543 -54.121977
-22.291432 28.92007 -55.372318
-23.548048 28.098163 -56.663698
-24.117036 27.574638 -55.413356
-23.188353 28.26455 -55.45379
-16.031356 33.229498 -53.679428
-15.850002 33.474291 -52.459772
-15.186307 33.882824 -53.401445
-15.560175 33.347721 -55.955928
-16.444896 32.74674 -56.395933
-16.252382 33.03705 -55.061105
-21.35827 29.561137 -55.269203
-20.495094 30.173388 -55.126791
-21.686203 29.429144 -56.601017
-22.291432 28.92007 -55.372318
-21.35827 29.561137 -55.269203
-14.372881 34.444832 -53.158878
-13.59261 35.101317 -52.861297
-14.554234 34.200039 -54.378534
-15.186307 33.882824 -53.401445
-14.372881 34.444832 -53.158878
-13.864034 34.437014 -55.395765
-14.67746 33.875006 -55.638332
-14.554234 34.200039 -54.378534
-13.864034 34.437014 -55.395765
-12.991256 35.005434 -54.951407
-26.1771 25.595093 -53.055239
-25.277835 26.343905 -53.110071
-27.090021 24.801697 -52.888195
-26.1771 25.595093 -53.055239
-26.566804 25.482327 -54.194116
-28.011054 23.960006 -52.719103
-27.090021 24.801697 -52.888195
-28.368697 23.840613 -53.849882
-28.011054 23.960006 -52.719103
-28.368697 23.840613 -53.849882
-27.877435 24.404682 -55.159651
-23.456431 27.738357 -52.913372
-22.86042 28.396543 -54.121977
-24.329564 27.076555 -53.031216
-23.456431 27.738357 -52.913372
-24.705612 27.008373 -54.282304
-25.277835 26.343905 -53.110071
-24.329564 27.076555 -53.031216
-25.065307 26.841987 -55.492212
-24.705612 27.008373 -54.282304
-24.117036 27.574638 -55.413356
-26.045615 26.041441 -55.477087
-25.065307 26.841987 -55.492212
-19.18446 31.042913 -57.284217
-18.272436 31.600008 -56.98659
-18.707879 31.392913 -54.648832
-19.608024 30.756115 -54.859947
-16.368826 33.077511 -51.466339
-15.523777 33.730837 -51.188356
-15.850002 33.474291 -52.459772
-17.200232 32.37384 -51.644853
-16.368826 33.077511 -51.466339
-17.565953 32.185563 -53.035602
-17.200232 32.37384 -51.644853
-17.78698 31.993115 -54.41728
-17.565953 32.185563 -53.035602
-16.916078 32.628517 -54.119433
-18.058003 31.835867 -55.732662
-18.707879 31.392913 -54.648832
-17.78698 31.993115 -54.41728
-17.351537 32.200209 -56.755038
-18.272436 31.600008 -56.98659
-18.058003 31.835867 -55.732662
-17.351537 32.200209 -56.755038
-16.444896 32.74674 -56.395933
-15.560175 33.347721 -55.955928
-14.67746 33.875006 -55.638332
-20.07153 30.460186 -57.551062
-19.865972 30.652938 -56.231058
-19.18446 31.042913 -57.284217
-20.97626 29.87827 -57.758949
-20.07153 30.460186 -57.551062
-21.909421 29.237203 -57.862065
-21.686203 29.429144 -56.601017
-20.97626 29.87827 -57.758949
-22.93565 28.535901 -57.81835
-21.909421 29.237203 -57.862065
-23.548048 28.098163 -56.663698
-22.93565 28.535901 -57.81835
3 0 10 12
3 10 3 11
3 10 11 12
3 13 4 14
3 17 16 4
3 15 16 17
3 18 6 19
3 20 19 5
3 18 19 20
3 22 21 6
3 1 23 25
3 23 7 24
3 23 24 25
3 1 26 28
3 28 27 7
3 26 27 28
3 2 29 31
3 29 8 30
3 29 30 31
3 2 9 8
3 2 32 34
3 34 33 9
3 32 33 34
3 3 35 36
3 3 37 39
3 37 1 38
3 37 38 39
3 4 40 41
3 4 42 44
3 42 2 43
3 42 43 44
3 4 45 47
3 47 46 2
3 45 46 47
3 49 48 4
3 5 50 51
3 6 52 54
3 54 53 5
3 52 53 54
3 6 55 56
3 6 57 58
3 60 59 6
3 7 61 62
3 7 63 64
3 7 65 67
3 65 5 66
3 65 66 67
3 68 5 69
3 70 69 7
3 68 69 70
3 72 71 5
3 74 73 0
3 75 0 76
3 8 77 79
3 77 78 79
3 8 80 81
3 8 82 83
3 9 84 86
3 86 85 8
3 84 85 86
3 9 87 89
3 87 0 88
3 87 88 89
3 9 90 92
3 92 91 0
3 90 91 92
3 94 93 9
3 96 95 2
3 97 3 98
3 99 98 0
3 97 98 99
3 100 3 101
3 102 1 103
3 104 103 3
3 102 103 104
3 105 1 106
3 108 107 1
