ply
format ascii 1.0
element vertex 185
property float x
property float y
property float z
element face 161
property list uchar int vertex_index
end_header
0.5548 -5.926605 -56.475021
-2.332967 -0.982139 -53.498871
0.692506 6.22479 -60.777744
-2.785696 -12.322133 -49.095417
-0.708675 -3.489205 -55.087608
-2.363856 -6.759623 -51.426079
-0.993494 -9.481371 -52.675064
-1.829467 -15.735155 -49.787899
-2.551526 4.943588 -55.184654
-0.692715 2.551516 -57.214432
0.772224 0.269692 -58.9641
-0.015407 -4.694543 -55.878014
-0.787547 -6.344474 -53.994648
-0.187276 -7.91672 -54.538074
-0.496717 -10.981037 -53.115528
-0.113117 7.395361 -59.737381
-0.800292 5.47125 -57.994781
0.005394 4.44487 -59.029335
0.057973 1.479851 -58.127918
0.785864 3.281712 -60.006958
-3.31976 0.579334 -52.778587
-2.011291 9.450718 -57.270916
0.626379 9.057108 -61.456264
-1.427804 -2.128966 -54.402439
-1.537685 -5.207825 -53.158585
-1.573426 -8.037682 -52.165604
-1.817818 -10.925265 -50.918324
-2.253404 -13.882366 -49.485233
-1.377998 -12.684284 -51.175453
-0.899588 -14.219607 -51.647255
-2.361038 1.986389 -54.479626
-1.756344 6.486912 -56.800442
-1.547976 3.686551 -56.228573
-1.4711 0.902399 -55.400879
-0.692816 -0.332175 -56.21563
0.013434 -1.643433 -56.97023
0.746679 -2.78056 -57.868763
-2.73509 -16.902384 -48.139992
0.486598 -7.538231 -55.852363
0.11556 -8.533288 -54.88389
0.183762 -6.921663 -55.506547
0.877625 -6.768983 -56.750919
0.486598 -7.538231 -55.852363
1.115191 5.685437 -61.329555
1.161871 4.213898 -60.944162
0.739185 4.753251 -60.392351
-2.756862 -1.716925 -52.69727
-3.250259 -0.936188 -52.337128
-2.826364 -0.201402 -53.138729
-3.119619 -11.605848 -48.868819
-2.634064 -10.939261 -49.71821
-3.312214 -13.087121 -48.185983
-3.119619 -11.605848 -48.868819
-2.997062 -13.783932 -48.430803
-3.312214 -13.087121 -48.185983
0.6 10.572191 -61.749916
0.202161 9.623409 -60.876996
1.035736 10.037097 -62.366035
0.6 10.572191 -61.749916
-0.440297 -13.312662 -52.646658
-0.698153 -12.600322 -52.381391
-0.238862 -11.693376 -53.380795
-0.690276 -15.037588 -51.839735
-0.440297 -13.312662 -52.646658
-2.983681 4.177848 -54.390309
-3.120575 5.597715 -54.669668
-2.456282 3.464989 -54.83214
-2.888437 2.699249 -54.037795
-2.983681 4.177848 -54.390309
-1.399808 7.403214 -57.62619
-1.883817 7.968815 -57.035679
-1.527281 8.885117 -57.861428
1.124693 -0.381329 -59.341389
1.11192 -1.906455 -58.79372
0.759451 -1.255434 -58.416432
-2.796895 -6.085645 -51.104542
-2.319373 -5.29531 -51.998165
-0.039161 -10.065447 -54.172617
-0.341997 -9.448878 -53.826801
0.11556 -8.533288 -54.88389
-0.238862 -11.693376 -53.380795
-0.039161 -10.065447 -54.172617
-2.68581 6.393812 -55.443808
-3.120575 5.597715 -54.669668
-0.456705 6.433306 -58.866081
-0.921782 6.895383 -58.22336
-0.578194 7.857439 -59.09466
1.175607 2.654095 -60.462029
1.168788 1.148084 -59.9406
0.779044 1.775702 -59.485529
1.175607 2.654095 -60.462029
1.161871 4.213898 -60.944162
-3.800484 -0.212734 -51.967372
-3.875573 1.252309 -52.378115
-3.800484 -0.212734 -51.967372
-3.250259 -0.936188 -52.337128
-2.858148 -7.481357 -50.542795
-2.423144 -8.158006 -50.883541
-2.142086 -17.388863 -49.033066
-1.653732 -16.659322 -49.930384
-2.073907 10.81566 -57.505795
-2.532328 10.114152 -56.720575
-1.578152 10.33329 -58.147602
-2.073907 10.81566 -57.505795
-1.527281 8.885117 -57.861428
-1.578152 10.33329 -58.147602
-0.167587 8.792535 -60.017555
-0.578194 7.857439 -59.09466
0.256631 8.226235 -60.596823
-0.167587 8.792535 -60.017555
0.202161 9.623409 -60.876996
1.068358 8.605853 -62.07904
1.101422 7.189694 -61.73978
0.659442 7.640949 -61.117004
1.068358 8.605853 -62.07904
1.035736 10.037097 -62.366035
-1.851347 -2.979981 -53.486345
-2.303928 -2.406567 -53.034561
-1.880386 -1.555553 -53.950655
-1.906287 -4.51941 -52.864418
-1.851347 -2.979981 -53.486345
-1.482744 -3.668395 -53.780512
-1.95077 -5.983724 -52.292332
-2.319373 -5.29531 -51.998165
-1.906287 -4.51941 -52.864418
-2.027929 -8.797035 -51.253304
-2.423144 -8.158006 -50.883541
-1.968641 -7.398653 -51.795842
-2.150125 -10.240827 -50.629663
-2.027929 -8.797035 -51.253304
-1.695622 -9.481473 -51.541964
-2.301757 -11.623699 -50.00687
-2.634064 -10.939261 -49.71821
-2.150125 -10.240827 -50.629663
-1.188792 -15.901547 -50.860062
-1.653732 -16.659322 -49.930384
-1.364527 -14.977381 -50.717577
-1.188792 -15.901547 -50.860062
-0.690276 -15.037588 -51.839735
-3.367798 1.995722 -53.187275
-3.875573 1.252309 -52.378115
-2.840399 1.282862 -53.629107
-3.367798 1.995722 -53.187275
-2.888437 2.699249 -54.037795
-2.415693 8.647377 -56.486939
-2.532328 10.114152 -56.720575
-2.288219 7.165474 -56.251701
-2.415693 8.647377 -56.486939
-1.883817 7.968815 -57.035679
-2.153935 5.71525 -55.992548
-2.68581 6.393812 -55.443808
-2.288219 7.165474 -56.251701
-1.278318 5.979081 -57.397611
-1.399808 7.403214 -57.62619
-0.921782 6.895383 -58.22336
1.066922 -3.59279 -58.13558
0.970983 -5.165813 -57.438709
0.65074 -4.353582 -57.171892
1.066922 -3.59279 -58.13558
1.11192 -1.906455 -58.79372
1.124693 -0.381329 -59.341389
1.168788 1.148084 -59.9406
1.115191 5.685437 -61.329555
1.101422 7.189694 -61.73978
-2.756862 -1.716925 -52.69727
-2.303928 -2.406567 -53.034561
-2.796895 -6.085645 -51.104542
-2.858148 -7.481357 -50.542795
-2.730916 -14.564049 -48.625712
-2.997062 -13.783932 -48.430803
-2.51955 -13.102249 -49.290325
-2.971759 -16.074058 -47.953091
-2.730916 -14.564049 -48.625712
-2.494247 -15.392375 -48.812613
-3.257861 -17.62497 -47.246943
-2.971759 -16.074058 -47.953091
-2.594898 -17.972478 -48.209113
-2.282278 -16.31877 -48.963946
-2.142086 -17.388863 -49.033066
-3.084629 -18.552697 -47.374927
-2.594898 -17.972478 -48.209113
-3.257861 -17.62497 -47.246943
-3.084629 -18.552697 -47.374927
0.877625 -6.768983 -56.750919
0.970983 -5.165813 -57.438709
3 0 13 11
3 0 38 40
3 40 39 13
3 38 39 40
3 0 41 42
3 2 17 15
3 2 19 17
3 2 43 45
3 45 44 19
3 43 44 45
3 1 46 48
3 48 47 20
3 46 47 48
3 3 49 50
3 3 51 52
3 3 53 54
3 55 22 56
3 58 57 22
3 4 24 23
3 6 25 12
3 6 26 25
3 6 28 26
3 59 29 60
3 61 60 14
3 59 60 61
3 63 62 29
3 8 64 65
3 8 66 68
3 66 30 67
3 66 67 68
3 69 31 70
3 71 70 21
3 69 70 71
3 9 32 16
3 9 33 32
3 9 34 33
3 10 35 18
3 10 36 35
3 10 72 74
3 74 73 36
3 72 73 74
3 5 75 76
3 7 37 27
3 11 12 4
3 13 12 11
3 13 6 12
3 13 14 6
3 77 14 78
3 79 78 13
3 77 78 79
3 81 80 14
3 82 8 83
3 15 84 86
3 84 16 85
3 84 85 86
3 17 16 15
3 17 9 16
3 17 18 9
3 19 18 17
3 19 10 18
3 19 87 89
3 89 88 10
3 87 88 89
3 91 90 19
3 20 92 93
3 95 94 20
3 97 96 5
3 99 98 7
3 100 21 101
3 102 21 103
3 105 104 21
3 106 15 107
3 22 108 110
3 108 15 109
3 108 109 110
3 22 2 15
3 22 111 113
3 113 112 2
3 111 112 113
3 115 114 22
3 23 116 118
3 118 117 1
3 116 117 118
3 24 119 121
3 121 120 23
3 119 120 121
3 24 122 124
3 122 5 123
3 122 123 124
3 12 24 4
3 25 24 12
3 25 5 24
3 25 125 127
3 127 126 5
3 125 126 127
3 26 128 130
3 130 129 25
3 128 129 130
3 26 131 133
3 131 3 132
3 131 132 133
3 26 27 3
3 28 27 26
3 28 7 27
3 14 28 6
3 29 28 14
3 29 7 28
3 29 134 136
3 136 135 7
3 134 135 136
3 138 137 29
3 139 20 140
3 30 141 143
3 141 20 142
3 141 142 143
3 30 1 20
3 21 144 145
3 31 146 148
3 148 147 21
3 146 147 148
3 31 149 151
3 149 8 150
3 149 150 151
3 16 152 154
3 152 31 153
3 152 153 154
3 32 31 16
3 32 8 31
3 32 30 8
3 33 30 32
3 33 1 30
3 33 23 1
3 34 23 33
3 34 4 23
3 18 34 9
3 35 34 18
3 35 4 34
3 35 11 4
3 36 11 35
3 36 0 11
3 36 155 157
3 157 156 0
3 155 156 157
3 159 158 36
3 161 160 10
3 163 162 2
3 165 164 1
3 167 166 5
3 27 168 170
3 170 169 3
3 168 169 170
3 37 171 173
3 173 172 27
3 171 172 173
3 37 174 175
3 176 37 177
3 178 177 7
3 176 177 178
3 179 37 180
3 182 181 37
3 184 183 0
