ply
format ascii 1.0
element vertex 484
property float x
property float y
property float z
element face 483
property list uchar int vertex_index
end_header
-20.597038 56.571087 -52.50872
-16.595654 83.526215 -49.506371
-6.765751 57.933113 -51.214153
-22.337431 46.181484 -51.025429
-21.332802 93.462311 -44.220913
-20.012562 69.454704 -52.144062
-14.560674 57.515198 -52.515133
-11.762963 71.395676 -51.023964
-2.588588 69.591805 -47.832043
-25.055664 79.681992 -49.069157
-21.577196 52.104603 -51.983803
-18.617989 50.932861 -52.412769
-18.638378 76.660782 -51.205383
-15.996691 70.912514 -51.843071
-14.241638 77.431602 -50.645477
1.459051 67.766273 -45.625999
4.116498 72.26107 -42.846466
-19.110708 88.902191 -47.415741
-23.522257 86.866959 -47.134373
-21.012814 82.302345 -49.673672
-22.671362 74.920593 -51.055756
-10.802977 58.12912 -52.037537
-14.247037 89.571785 -46.991291
-11.767893 83.697906 -48.662773
-16.452955 94.610764 -44.293018
-20.68285 62.491962 -52.508183
-18.054266 57.040169 -52.658085
-17.41732 63.821037 -52.496895
-13.417173 64.719086 -52.013199
-9.249566 64.486679 -51.137939
-9.468635 77.632179 -49.4104
-7.233221 70.844696 -49.713158
-4.837725 63.73138 -49.765312
-30.016071 78.717819 -44.45285
-25.562683 90.640617 -43.494026
-23.283575 67.167809 -51.824818
-23.079561 59.685081 -52.059589
-15.302791 51.102924 -52.604153
-21.11426 54.738537 -52.313644
-20.133144 51.60804 -52.252316
-19.71702 54.120792 -52.486156
-17.703928 80.101288 -50.471878
-16.419544 77.287651 -50.970776
-15.440136 80.587608 -50.176067
2.172731 73.369881 -44.231239
-17.890198 86.257317 -48.620796
-20.09494 85.710426 -48.649761
-18.944002 82.881767 -49.726387
-19.79674 79.563545 -50.563419
-8.854052 57.915665 -51.70216
-7.464293 54.656776 -51.781967
-12.603254 92.252396 -45.335529
-15.225194 92.284286 -45.708687
-20.51082 65.98732 -52.372585
-19.204786 63.52113 -52.547768
-18.746387 66.951729 -52.365822
-13.913664 71.373062 -51.481392
-14.792461 67.752106 -51.988842
-12.589473 67.984802 -51.583038
-11.233508 64.362076 -51.627773
-10.473772 67.957306 -51.093121
-9.198647 83.295815 -48.014793
-10.562094 80.665657 -49.114197
-8.026448 80.185326 -48.384502
-4.952454 70.354095 -48.856533
-6.001964 67.312637 -49.726002
-3.85927 66.930542 -48.866806
-2.902917 63.516415 -48.951756
-1.675629 66.032867 -47.906422
-22.311386 95.365593 -42.255848
-23.506897 92.304016 -43.93277
-24.209164 83.406372 -48.273109
-25.608418 75.594452 -49.787273
-21.256119 72.265289 -51.724701
-23.052486 70.927223 -51.534691
-21.791897 68.428589 -52.051323
-22.002832 64.836464 -52.242771
-16.463722 57.499294 -52.629559
-16.736147 54.21265 -52.63261
-15.060726 54.326794 -52.605286
-22.036623 49.441422 -51.560146
-20.414408 48.658459 -51.917789
-18.854639 48.045109 -52.165565
-19.454309 73.165588 -51.749004
-18.007521 70.331665 -52.066078
-17.39435 73.825668 -51.613766
-15.109642 74.331345 -51.293175
-12.894659 74.575089 -50.851902
-1.370771 72.234001 -46.742443
-0.511213 68.755745 -46.783844
0.777063 71.206596 -45.557487
-20.265886 91.250801 -45.978428
-22.430431 90.285347 -45.815041
-21.435217 88.13504 -47.318184
-22.24263 84.809906 -48.5163
-23.097467 81.217133 -49.474411
-23.885691 77.43206 -50.179352
-21.931053 78.844131 -50.428631
-20.797884 76.183769 -51.175865
-12.703854 58.076931 -52.308228
-13.120691 54.46204 -52.497578
-15.497743 86.701103 -48.348122
-14.216624 83.63652 -49.19973
-12.940061 86.681808 -47.95298
-17.876764 91.734528 -46.05962
-16.618853 89.411392 -47.282467
-4.744949 57.6731 -50.659588
-5.581295 54.71954 -51.36887
-20.693769 59.257397 -52.546005
-19.528019 56.859062 -52.608227
-19.387884 59.997948 -52.63105
-17.786699 60.42408 -52.627686
-15.93224 60.771633 -52.522594
-16.816013 67.202805 -52.257717
-15.50826 64.194756 -52.328018
-14.092633 61.208294 -52.322781
-12.106563 61.350842 -52.031597
-10.08689 61.230938 -51.656273
-7.971127 61.218315 -51.144226
-13.016424 80.621109 -49.753033
-11.855907 77.53775 -50.11554
-10.538908 74.371239 -50.290375
-8.288783 74.223595 -49.602375
-9.409351 71.038704 -50.423927
-8.212267 67.651649 -50.467121
-7.001198 64.352554 -50.476158
-5.831938 60.820461 -50.5476
-3.739344 60.518024 -49.819103
0.347067 65.481926 -46.778484
-27.189426 88.999664 -42.853165
-26.350424 87.074554 -45.037495
-27.971298 85.25827 -44.24707
-24.320526 73.254951 -50.812355
-24.655886 69.056564 -51.210629
-23.394396 63.319344 -51.967876
-21.971491 61.288757 -52.345383
-21.735699 57.949486 -52.357056
-22.482819 55.892414 -52.056259
-18.354422 54.032494 -52.586632
-17.035984 51.080112 -52.544601
-13.599918 51.173706 -52.600082
-13.879304 47.696445 -52.615723
-21.619493 44.026673 -50.964733
-22.520927 44.536631 -50.697005
-11.24168 92.055252 -45.085188
-11.886775 93.411648 -44.450235
-11.886775 93.411648 -44.450235
-13.25425 93.553799 -44.636105
-7.364489 81.582031 -47.778379
-8.612547 81.740571 -48.199647
-7.950588 83.137276 -47.593525
-3.770521 69.97295 -48.344288
-4.311144 71.698535 -48.351536
-3.129211 71.31739 -47.839291
-25.610963 80.669041 -48.390591
-25.187713 82.531231 -47.992567
-24.632414 81.544182 -48.671133
-25.893707 78.745983 -48.798045
-25.610963 80.669041 -48.390591
-25.332041 77.638222 -49.428215
-26.170084 76.702213 -49.157103
-25.893707 78.745983 -48.798045
-17.886497 49.347323 -52.393198
-18.004822 47.903447 -52.269596
-18.736314 49.488985 -52.289167
-0.703002 73.415031 -46.144956
-1.824307 73.888401 -46.724697
0.370915 72.901329 -45.552478
-0.296854 71.720299 -46.149965
-0.703002 73.415031 -46.144956
3.4546 71.147915 -43.551327
2.482716 71.702321 -44.243713
3.144615 72.815476 -43.538853
4.364361 70.597492 -42.849622
3.4546 71.147915 -43.551327
-11.043226 56.397318 -52.181424
-11.993665 56.371223 -52.316769
-11.753415 58.103026 -52.172883
-17.102047 95.652359 -43.460831
-15.736168 95.871193 -43.296812
-17.684497 94.366051 -44.361033
-17.102047 95.652359 -43.460831
-17.164859 93.172646 -45.176319
-18.396402 92.927933 -45.244333
-17.684497 94.366051 -44.361033
-4.193473 56.094639 -50.766644
-3.759189 57.590466 -50.312264
-7.761002 72.534145 -49.657767
-7.155432 73.895699 -49.218746
-6.627651 72.206249 -49.274137
-2.353027 61.865416 -48.975861
-1.899633 63.23167 -48.474501
-30.635662 77.275463 -43.882679
-30.385908 79.364361 -43.429867
-30.226121 76.523941 -44.8927
-30.635662 77.275463 -43.882679
-25.962353 91.435108 -42.414129
-25.059024 92.253971 -42.690242
-26.376055 89.820141 -43.173595
-26.775725 90.614632 -42.093699
-25.962353 91.435108 -42.414129
-24.034308 87.885468 -46.29208
-23.488394 89.594662 -45.632414
-22.976344 88.576153 -46.474707
-26.778258 85.187671 -45.584225
-25.893472 86.115688 -45.915977
-27.588696 84.279529 -45.189013
-27.160861 86.166412 -44.642283
-26.778258 85.187671 -45.584225
-28.336596 83.292046 -44.768145
-27.588696 84.279529 -45.189013
-23.948371 66.214409 -51.654881
-24.634526 67.158786 -51.347786
-23.96973 68.112187 -51.517724
-23.338985 65.243577 -51.896347
-24.003782 64.290177 -51.72641
-23.948371 66.214409 -51.654881
-22.78119 57.788747 -52.057924
-23.245604 56.628466 -51.842315
-23.543976 58.524799 -51.843981
-15.444641 49.440195 -52.560477
-16.311238 49.428789 -52.530701
-16.169387 51.091518 -52.574377
-12.713317 51.122886 -52.575204
-13.360305 52.817873 -52.54883
-12.473703 52.767054 -52.523953
-13.119105 46.106786 -52.666207
-12.97951 47.806779 -52.642713
-13.974283 46.00975 -52.58285
-13.119105 46.106786 -52.666207
-5.859535 53.162751 -51.668175
-5.000341 53.182173 -51.510289
1.830035 75.092647 -44.19375
1.068749 73.982972 -44.889354
2.90472 74.493374 -43.494858
1.830035 75.092647 -44.19375
3.876604 73.938969 -42.802471
3.144615 72.815476 -43.538853
2.90472 74.493374 -43.494858
-9.113267 56.330654 -51.893743
-10.08773 56.437382 -52.061432
-9.828515 58.022392 -51.869849
-8.418387 54.70121 -51.933647
-9.113267 56.330654 -51.893743
-8.159173 56.28622 -51.742064
-7.759989 53.093256 -52.008617
-8.418387 54.70121 -51.933647
-12.09916 90.817127 -45.940439
-12.921052 89.476822 -46.76832
-13.425145 90.912091 -46.16341
-12.09916 90.817127 -45.940439
-11.24168 92.055252 -45.085188
-15.1791 94.732983 -44.114849
-15.736168 95.871193 -43.296812
-14.56522 93.569744 -44.822683
-15.839074 93.447525 -45.000853
-15.1791 94.732983 -44.114849
-13.914224 92.268341 -45.522108
-14.56522 93.569744 -44.822683
-13.25425 93.553799 -44.636105
-5.487267 71.960949 -48.845825
-4.311144 71.698535 -48.351536
-6.092837 70.599395 -49.284846
-6.627651 72.206249 -49.274137
-5.487267 71.960949 -48.845825
-1.285989 64.489897 -47.951834
-1.899633 63.23167 -48.474501
-2.289273 64.774641 -48.429089
1.860283 66.128108 -45.605164
2.368572 67.269489 -44.992266
-29.734443 80.82531 -43.894718
-30.385908 79.364361 -43.429867
-23.433375 94.616459 -42.071154
-22.780582 96.144593 -41.18298
-24.031131 93.08567 -42.909615
-23.433375 94.616459 -42.071154
-22.909141 93.834805 -43.094309
-24.53479 91.472317 -43.713398
-25.059024 92.253971 -42.690242
-24.031131 93.08567 -42.909615
-24.822842 84.281597 -47.533784
-24.479388 86.01189 -46.964416
-23.86571 85.136665 -47.703741
-24.822842 84.281597 -47.533784
-25.187713 82.531231 -47.992567
-26.385368 74.586827 -49.483175
-26.170084 76.702213 -49.157103
-25.735976 73.541088 -50.072973
-26.385368 74.586827 -49.483175
-23.789793 60.522127 -51.822111
-23.543976 58.524799 -51.843981
-21.369627 47.376154 -51.5045
-21.520031 45.746185 -51.237141
-22.187027 47.811453 -51.292788
-20.55852 46.984673 -51.683321
-21.369627 47.376154 -51.5045
-21.225516 49.049941 -51.738968
-19.76174 46.814196 -51.867722
-20.55852 46.984673 -51.683321
-18.981856 46.507521 -51.991609
-19.76174 46.814196 -51.867722
-19.634524 48.351784 -52.041677
-18.092251 46.312521 -52.145185
-18.981856 46.507521 -51.991609
-18.092251 46.312521 -52.145185
-18.004822 47.903447 -52.269596
-2.520302 72.638488 -47.294491
-1.824307 73.888401 -46.724697
-1.97968 70.912903 -47.287243
-3.129211 71.31739 -47.839291
-2.520302 72.638488 -47.294491
1.474897 72.288239 -44.894363
0.370915 72.901329 -45.552478
1.068749 73.982972 -44.889354
1.784882 70.620678 -44.906837
1.474897 72.288239 -44.894363
2.482716 71.702321 -44.243713
2.125876 68.900517 -44.941093
1.118057 69.486435 -45.591743
1.784882 70.620678 -44.906837
2.368572 67.269489 -44.992266
2.125876 68.900517 -44.941093
-12.202084 54.563778 -52.411444
-12.912273 56.269486 -52.402903
-11.993665 56.371223 -52.316769
-12.473703 52.767054 -52.523953
-12.202084 54.563778 -52.411444
-11.043226 56.397318 -52.181424
-10.08773 56.437382 -52.061432
-21.619493 44.026673 -50.964733
-21.520031 45.746185 -51.237141
-12.267563 88.031834 -47.249164
-13.593549 88.126797 -47.472135
-12.921052 89.476822 -46.76832
-11.574358 86.565807 -47.645437
-12.267563 88.031834 -47.249164
-10.988274 85.073856 -48.000333
-12.353977 85.189857 -48.307876
-11.574358 86.565807 -47.645437
-9.703651 84.87281 -47.676344
-10.48327 83.49686 -48.338783
-10.988274 85.073856 -48.000333
-8.413733 84.678696 -47.29985
-9.703651 84.87281 -47.676344
-7.950588 83.137276 -47.593525
-8.413733 84.678696 -47.29985
-21.65533 96.73888 -41.306455
-22.780582 96.144593 -41.18298
-21.228603 95.780384 -42.389418
-21.65533 96.73888 -41.306455
-20.739311 94.828743 -43.37195
-21.822094 94.413952 -43.238381
-21.228603 95.780384 -42.389418
-20.124421 93.791824 -44.32498
-20.739311 94.828743 -43.37195
-19.590963 92.68607 -45.203738
-20.799344 92.356556 -45.099671
-20.124421 93.791824 -44.32498
-19.071325 91.492664 -46.019024
-19.590963 92.68607 -45.203738
-18.396402 92.927933 -45.244333
-4.611645 54.617859 -51.121285
-5.163122 56.19632 -51.014229
-4.193473 56.094639 -50.766644
-5.000341 53.182173 -51.510289
-4.611645 54.617859 -51.121285
-6.800892 79.957088 -47.94309
-7.364489 81.582031 -47.778379
-7.480931 78.550236 -48.511278
-6.800892 79.957088 -47.94309
-8.202025 77.273663 -49.024227
-8.747542 78.908752 -48.897451
-7.480931 78.550236 -48.511278
-7.612099 75.56937 -49.120215
-7.155432 73.895699 -49.218746
-8.878709 75.927887 -49.506388
-8.202025 77.273663 -49.024227
-7.612099 75.56937 -49.120215
-3.256387 59.012928 -49.892021
-3.759189 57.590466 -50.312264
-4.242147 59.095562 -50.239345
-2.771241 60.36622 -49.409534
-3.32113 62.017219 -49.38543
-2.353027 61.865416 -48.975861
-3.256387 59.012928 -49.892021
-2.771241 60.36622 -49.409534
-0.274641 64.214426 -47.387865
-1.285989 64.489897 -47.951834
-0.664281 65.757396 -47.342453
1.304291 64.985935 -46.181406
0.903059 66.624099 -46.202241
1.860283 66.128108 -45.605164
0.686073 63.952743 -46.83601
1.304291 64.985935 -46.181406
-0.274641 64.214426 -47.387865
0.686073 63.952743 -46.83601
4.813941 73.222363 -42.101087
3.876604 73.938969 -42.802471
5.055928 71.582211 -42.059038
4.813941 73.222363 -42.101087
4.364361 70.597492 -42.849622
5.055928 71.582211 -42.059038
-27.611838 89.627445 -41.695499
-26.775725 90.614632 -42.093699
-27.948003 87.944073 -42.473276
-27.611838 89.627445 -41.695499
-24.026628 90.603996 -44.691278
-22.968664 91.294681 -44.873905
-23.488394 89.594662 -45.632414
-25.054521 89.772297 -44.471907
-24.53479 91.472317 -43.713398
-24.026628 90.603996 -44.691278
-24.034308 87.885468 -46.29208
-24.479388 86.01189 -46.964416
-25.448391 87.989265 -45.243641
-25.893472 86.115688 -45.915977
-25.956553 88.857585 -44.26576
-25.054521 89.772297 -44.471907
-25.448391 87.989265 -45.243641
-28.33894 86.073375 -43.170229
-27.948003 87.944073 -42.473276
-27.580362 87.128967 -43.550117
-28.712057 84.095535 -43.791828
-28.33894 86.073375 -43.170229
-28.712057 84.095535 -43.791828
-28.336596 83.292046 -44.768145
-29.358982 80.02182 -44.871035
-29.734443 80.82531 -43.894718
-29.595928 77.857086 -45.388662
-29.358982 80.02182 -44.871035
-30.226121 76.523941 -44.8927
-29.595928 77.857086 -45.388662
-25.09203 72.371338 -50.585514
-25.735976 73.541088 -50.072973
-24.964472 74.424701 -50.299814
-25.259709 70.272144 -50.784651
-25.09203 72.371338 -50.585514
-24.488206 71.155757 -51.011492
-25.33219 68.08625 -50.96611
-25.259709 70.272144 -50.784651
-25.33219 68.08625 -50.96611
-24.634526 67.158786 -51.347786
-23.947211 62.339258 -51.776254
-24.003782 64.290177 -51.72641
-23.236978 61.502212 -52.013733
-23.789793 60.522127 -51.822111
-23.947211 62.339258 -51.776254
-23.209287 46.68392 -50.730265
-22.520927 44.536631 -50.697005
-22.97654 48.259966 -51.05871
-23.209287 46.68392 -50.730265
-22.826135 49.889935 -51.326069
-22.187027 47.811453 -51.292788
-22.97654 48.259966 -51.05871
-22.595735 51.465919 -51.596036
-22.826135 49.889935 -51.326069
-22.366022 52.79751 -51.807865
-21.806909 50.773013 -51.771974
-22.595735 51.465919 -51.596036
-22.818834 54.691416 -51.844093
-23.245604 56.628466 -51.842315
-22.030007 53.998508 -52.020031
-22.366022 52.79751 -51.807865
-22.818834 54.691416 -51.844093
-17.095495 49.420948 -52.459114
-17.886497 49.347323 -52.393198
-17.826987 51.006487 -52.478685
-17.095495 49.420948 -52.459114
-16.311238 49.428789 -52.530701
-12.839817 49.54541 -52.634893
-12.713317 51.122886 -52.575204
-13.739611 49.435075 -52.607903
-12.839817 49.54541 -52.634893
-12.97951 47.806779 -52.642713
-14.732898 47.736955 -52.566262
-15.444641 49.440195 -52.560477
-14.591047 49.399684 -52.609938
-14.732898 47.736955 -52.566262
-13.974283 46.00975 -52.58285
-6.801033 53.131369 -51.874724
-6.522794 54.688158 -51.575418
-5.859535 53.162751 -51.668175
-7.759989 53.093256 -52.008617
-6.801033 53.131369 -51.874724
3 0 40 38
3 1 43 41
3 1 47 45
3 1 41 47
3 2 50 49
3 3 142 143
3 145 144 51
3 146 51 147
3 5 55 53
3 7 58 56
3 7 60 58
3 148 63 149
3 150 149 61
3 148 149 150
3 8 151 153
3 151 64 152
3 151 152 153
3 8 66 64
3 8 68 66
3 4 70 69
3 9 154 156
3 156 155 71
3 154 155 156
3 9 157 158
3 9 159 161
3 159 72 160
3 159 160 161
3 5 75 73
3 5 53 75
3 6 79 77
3 10 81 80
3 11 82 39
3 11 162 164
3 164 163 82
3 162 163 164
3 12 85 83
3 14 86 42
3 14 87 86
3 165 88 166
3 167 90 168
3 169 168 88
3 167 168 169
3 16 170 172
3 172 171 44
3 170 171 172
3 16 173 174
3 17 93 91
3 19 94 46
3 19 95 94
3 19 97 95
3 12 98 48
3 12 83 98
3 21 175 177
3 177 176 99
3 175 176 177
3 22 103 101
3 24 178 179
3 24 180 181
3 24 182 184
3 182 104 183
3 182 183 184
3 22 105 52
3 22 101 105
3 186 185 106
3 25 110 108
3 27 111 54
3 27 112 111
3 13 113 84
3 28 114 57
3 28 115 114
3 28 116 115
3 29 117 59
3 29 118 117
3 23 119 102
3 30 120 62
3 30 121 120
3 31 187 189
3 187 122 188
3 187 188 189
3 31 123 122
3 31 124 123
3 32 125 65
3 32 126 125
3 32 127 126
3 191 190 67
3 15 128 89
3 33 192 193
3 33 194 195
3 34 196 197
3 34 198 200
3 198 129 199
3 198 199 200
3 18 201 203
3 203 202 92
3 201 202 203
3 204 130 205
3 206 131 207
3 208 207 130
3 206 207 208
3 210 209 131
3 20 132 96
3 35 133 74
3 35 211 213
3 213 212 133
3 211 212 213
3 35 214 216
3 214 134 215
3 214 215 216
3 25 135 76
3 25 108 135
3 36 217 219
3 217 137 218
3 217 218 219
3 36 136 137
3 26 138 109
3 37 139 78
3 37 220 222
3 222 221 139
3 220 221 222
3 223 140 224
3 225 224 100
3 223 224 225
3 226 141 227
3 229 228 141
3 231 230 107
3 38 39 10
3 40 39 38
3 40 11 39
3 41 42 12
3 43 42 41
3 43 14 42
3 232 44 233
3 234 44 235
3 236 16 237
3 238 237 44
3 236 237 238
3 45 46 17
3 47 46 45
3 47 19 46
3 47 48 19
3 41 48 47
3 41 12 48
3 49 239 241
3 241 240 21
3 239 240 241
3 50 242 244
3 244 243 49
3 242 243 244
3 50 245 246
3 51 247 249
3 249 248 22
3 247 248 249
3 251 250 51
3 252 24 253
3 254 52 255
3 256 255 24
3 254 255 256
3 51 257 259
3 257 52 258
3 257 258 259
3 51 22 52
3 53 54 25
3 55 54 53
3 55 27 54
3 56 57 13
3 58 57 56
3 58 28 57
3 58 59 28
3 60 59 58
3 60 29 59
3 61 62 23
3 63 62 61
3 63 30 62
3 64 260 261
3 64 262 264
3 262 31 263
3 262 263 264
3 64 65 31
3 66 65 64
3 66 32 65
3 66 67 32
3 68 67 66
3 68 265 267
3 267 266 67
3 265 266 267
3 269 268 15
3 270 33 271
3 69 272 273
3 70 274 276
3 276 275 69
3 274 275 276
3 70 277 279
3 277 34 278
3 277 278 279
3 71 280 282
3 282 281 18
3 280 281 282
3 284 283 71
3 72 285 286
3 72 287 288
3 73 74 20
3 75 74 73
3 75 35 74
3 75 76 35
3 53 76 75
3 53 25 76
3 289 36 290
3 77 78 26
3 79 78 77
3 79 37 78
3 80 291 293
3 293 292 3
3 291 292 293
3 81 294 296
3 296 295 80
3 294 295 296
3 81 297 298
3 39 81 10
3 82 81 39
3 82 299 301
3 301 300 81
3 299 300 301
3 82 302 303
3 305 304 82
3 83 84 5
3 85 84 83
3 85 13 84
3 42 85 12
3 86 85 42
3 86 13 85
3 86 56 13
3 87 56 86
3 87 7 56
3 88 306 307
3 88 308 310
3 308 8 309
3 308 309 310
3 88 89 8
3 90 89 88
3 90 15 89
3 44 311 313
3 311 90 312
3 311 312 313
3 314 90 315
3 316 315 44
3 314 315 316
3 317 15 318
3 319 318 90
3 317 318 319
3 321 320 15
3 91 92 4
3 93 92 91
3 93 18 92
3 46 93 17
3 94 93 46
3 94 18 93
3 94 71 18
3 95 71 94
3 95 9 71
3 95 96 9
3 97 96 95
3 97 20 96
3 48 97 19
3 98 97 48
3 98 20 97
3 98 73 20
3 83 73 98
3 83 5 73
3 99 100 6
3 322 100 323
3 324 323 99
3 322 323 324
3 326 325 100
3 328 327 21
3 330 329 3
3 101 102 1
3 103 102 101
3 103 23 102
3 331 103 332
3 333 332 22
3 331 332 333
3 334 103 335
3 336 23 337
3 338 337 103
3 336 337 338
3 339 61 340
3 341 340 23
3 339 340 341
3 342 61 343
3 345 344 61
3 346 69 347
3 348 69 349
3 350 4 351
3 352 351 69
3 350 351 352
3 353 4 354
3 355 91 356
3 357 356 4
3 355 356 357
3 104 358 360
3 358 91 359
3 358 359 360
3 104 17 91
3 52 104 24
3 105 104 52
3 105 17 104
3 105 45 17
3 101 45 105
3 101 1 45
3 106 107 2
3 361 107 362
3 363 362 106
3 361 362 363
3 365 364 107
3 108 109 0
3 110 109 108
3 110 26 109
3 54 110 25
3 111 110 54
3 111 26 110
3 111 77 26
3 112 77 111
3 112 6 77
3 84 55 5
3 113 55 84
3 113 27 55
3 57 113 13
3 114 113 57
3 114 27 113
3 114 112 27
3 115 112 114
3 115 6 112
3 115 99 6
3 116 99 115
3 116 21 99
3 59 116 28
3 117 116 59
3 117 21 116
3 117 49 21
3 118 49 117
3 118 2 49
3 102 43 1
3 119 43 102
3 119 14 43
3 62 119 23
3 120 119 62
3 120 14 119
3 120 87 14
3 121 87 120
3 121 7 87
3 366 63 367
3 368 63 369
3 370 30 371
3 372 371 63
3 370 371 372
3 122 373 374
3 122 375 377
3 375 30 376
3 375 376 377
3 122 121 30
3 123 121 122
3 123 7 121
3 123 60 7
3 124 60 123
3 124 29 60
3 65 124 31
3 125 124 65
3 125 29 124
3 125 118 29
3 126 118 125
3 126 2 118
3 126 106 2
3 127 106 126
3 127 378 380
3 380 379 106
3 378 379 380
3 67 127 32
3 381 127 382
3 383 382 67
3 381 382 383
3 385 384 127
3 89 68 8
3 128 68 89
3 128 386 388
3 388 387 68
3 386 387 388
3 389 128 390
3 391 390 15
3 389 390 391
3 392 128 393
3 395 394 128
3 396 16 397
3 398 16 399
3 401 400 16
3 129 402 403
3 129 404 405
3 92 70 4
3 406 70 407
3 408 407 92
3 406 407 408
3 409 34 410
3 411 410 70
3 409 410 411
3 413 412 18
3 130 414 415
3 130 416 418
3 416 34 417
3 416 417 418
3 130 129 34
3 131 129 130
3 131 419 421
3 421 420 129
3 419 420 421
3 131 422 423
3 425 424 131
3 426 33 427
3 428 33 429
3 431 430 33
3 96 72 9
3 132 72 96
3 132 432 434
3 434 433 72
3 432 433 434
3 74 132 20
3 133 132 74
3 133 435 437
3 437 436 132
3 435 436 437
3 133 438 439
3 441 440 133
3 134 442 443
3 134 444 446
3 444 36 445
3 444 445 446
3 76 134 35
3 135 134 76
3 135 36 134
3 135 136 36
3 108 136 135
3 108 0 136
3 447 3 448
3 449 3 450
3 451 80 452
3 453 452 3
3 451 452 453
3 454 80 455
3 456 10 457
3 458 457 80
3 456 457 458
3 137 459 460
3 137 461 463
3 461 10 462
3 461 462 463
3 137 38 10
3 136 38 137
3 136 0 38
3 109 40 0
3 138 40 109
3 138 11 40
3 78 138 26
3 139 138 78
3 139 11 138
3 139 464 466
3 466 465 11
3 464 465 466
3 468 467 139
3 100 79 6
3 140 79 100
3 140 37 79
3 469 140 470
3 141 471 473
3 471 140 472
3 471 472 473
3 141 37 140
3 141 474 476
3 476 475 37
3 474 475 476
3 478 477 141
3 107 50 2
3 479 50 480
3 481 480 107
3 479 480 481
3 483 482 50
