ply
format ascii 1.0
element vertex 433
property float x
property float y
property float z
element face 427
property list uchar int vertex_index
end_header
-34.803654 -2.069832 -61.390511
-27.448805 -32.771614 -55.511185
-34.606979 -31.209181 -51.778278
-32.318569 -17.13336 -59.521881
-24.41132 -18.04439 -62.186375
-27.743507 -2.764247 -66.39164
-19.038015 -34.023529 -56.430283
-9.220489 -20.672253 -59.134983
-36.782867 -9.115779 -57.746185
-35.585186 -16.464455 -57.098129
-33.813293 -9.224426 -60.943027
-30.212141 -9.875698 -63.182724
-31.51689 -2.265918 -64.361755
-31.276833 -31.632622 -54.14249
-23.296955 -33.438408 -56.34388
-22.206392 -11.181579 -65.077896
-20.270281 -19.060766 -62.11871
-33.836628 -24.018566 -55.75729
-30.159275 -24.903063 -57.690308
-26.252541 -25.218819 -58.987484
-28.516043 -17.599463 -61.26619
-26.329346 -10.377151 -64.576042
-37.309132 -2.181242 -57.827549
-32.095146 4.61782 -64.751823
-15.008171 -34.774292 -55.77737
-22.002359 -26.064127 -59.332886
-18.035213 -26.700003 -59.047825
-14.14992 -27.223017 -58.221031
-12.654007 -20.124052 -60.543137
-7.965026 -15.035209 -60.989983
-35.910645 -5.696893 -59.54026
-35.369129 -9.311517 -59.424595
-34.428814 -5.537462 -61.233139
-32.794743 -5.770606 -62.643429
-33.252125 -2.127849 -62.975212
-29.431684 -31.895855 -55.037121
-29.751591 -35.674637 -53.160583
-27.83736 -35.983395 -53.964512
-25.749887 -36.548092 -54.509483
-25.469246 -32.694847 -56.175087
-20.850338 -7.740684 -66.453651
-20.129206 -11.440189 -65.091812
-37.480316 -19.778179 -53.615128
-34.093899 -16.668741 -58.394855
-34.838184 -20.10709 -56.486641
-33.226978 -20.470778 -57.652061
-32.093544 -24.323294 -56.857124
-31.375917 -20.991484 -58.63615
-29.42889 -21.068325 -59.568817
-30.478306 -17.181093 -60.562317
-29.036316 -6.227584 -64.856422
-28.316509 -10.170425 -63.959351
-27.0546 -6.429511 -65.622925
-25.020178 -6.687931 -66.159187
-25.641911 -3.136526 -67.074348
-34.82375 -34.489235 -49.808205
-15.524817 -38.269047 -54.722
-17.038942 -34.176601 -56.257977
-25.454462 -21.839111 -60.513168
-24.058987 -25.591228 -59.288456
-23.366238 -22.091843 -60.754662
-19.199406 -22.948847 -60.569042
-17.333475 -23.007454 -60.383163
-16.086992 -26.858742 -58.740253
-15.351362 -23.562218 -59.850536
-13.380198 -23.822151 -59.296257
-7.186303 -17.832533 -59.39785
-8.60975 -17.556103 -60.175407
-37.559052 -12.741993 -55.765774
-36.949673 -16.283846 -55.577034
-36.302456 -12.857765 -57.4319
-34.743309 -12.915552 -59.060596
-33.113445 -13.336528 -60.278015
-31.328016 -13.567881 -61.372128
-32.11882 -9.624359 -62.120701
-30.995699 -6.084503 -63.830608
-29.717655 -2.472282 -65.476662
-32.958878 -31.383078 -53.110611
-33.318539 -34.799263 -51.107063
-31.587328 -35.124146 -52.285595
-21.557281 -37.356579 -55.103298
-21.181763 -33.683743 -56.500252
-23.431381 -14.408346 -63.723282
-22.408682 -18.642641 -62.200397
-36.240108 -19.987324 -55.118862
-35.299042 -23.9744 -54.485298
-34.281826 -27.771481 -53.738461
-32.721737 -27.728456 -54.973885
-30.851978 -28.207884 -55.921478
-28.750517 -28.606497 -56.76799
-26.916248 -28.832409 -57.34029
-28.270746 -24.859789 -58.510128
-27.459614 -21.389191 -60.172451
-26.497824 -17.80958 -61.830261
-29.3932 -13.737508 -62.304523
-27.584814 -13.895411 -62.954777
-25.499245 -14.247893 -63.412498
-24.261589 -10.543338 -65.013672
-22.861313 -7.270419 -66.39859
-38.583424 -12.80237 -54.007183
-37.988182 -9.08217 -55.884346
-37.152542 -5.579572 -57.810719
-36.105968 -2.086677 -59.729275
-33.595612 1.27291 -63.051601
-31.899225 1.306768 -64.645561
-13.110537 -34.467857 -55.482433
-24.797409 -29.225233 -57.721542
-22.71332 -29.5769 -57.914185
-20.63158 -29.917707 -57.92823
-21.197311 -22.581553 -60.728931
-19.984327 -26.262249 -59.315311
-18.547195 -30.458036 -57.693859
-16.494661 -30.525164 -57.469593
-14.590939 -30.857952 -57.025776
-12.691176 -30.773354 -56.596489
-12.194607 -27.286283 -57.670605
-11.64592 -23.797041 -58.792408
-10.89261 -20.702879 -59.752899
-11.803748 -17.151613 -61.511784
-10.193501 -17.575851 -60.797485
-19.832438 -8.011868 -66.378597
-20.065444 -6.226978 -67.038406
-37.799925 -18.074038 -53.719183
-38.044302 -19.785713 -52.681044
-34.715364 -32.849208 -50.793242
-35.466578 -32.542107 -50.127541
-35.358193 -30.902079 -51.112578
-18.242278 -36.020792 -55.709261
-19.302159 -35.733593 -55.824465
-18.038479 -34.100065 -56.34413
-17.242742 -36.097328 -55.623108
-18.242278 -36.020792 -55.709261
-16.883505 -21.390757 -60.952913
-17.850892 -21.098751 -61.184326
-15.892449 -21.668139 -60.686599
-16.342419 -23.284836 -60.11685
-16.883505 -21.390757 -60.952913
-14.929164 -21.843311 -60.433281
-15.892449 -21.668139 -60.686599
-8.494142 -20.668964 -58.817901
-8.751594 -22.339773 -58.280634
-8.915119 -19.114178 -59.655195
-8.188772 -19.110889 -59.338113
-8.494142 -20.668964 -58.817901
-29.981918 -37.383114 -52.204059
-28.991499 -37.573915 -52.684052
-22.427118 -35.397494 -55.723589
-22.676924 -37.148419 -54.990925
-23.54676 -35.189333 -55.611216
-21.784422 -13.109199 -64.373155
-22.396916 -14.722582 -63.695848
-22.818886 -12.794963 -64.400589
-19.783552 -13.442463 -64.307308
-19.122516 -11.797325 -64.925858
-23.209944 -5.420894 -66.944576
-23.940745 -6.979175 -66.278888
-24.289377 -5.12965 -66.824874
-22.166876 -5.676977 -67.036202
-23.209944 -5.420894 -66.944576
-38.744591 -10.953812 -54.04721
-39.006331 -12.67306 -53.127981
-38.44697 -9.093712 -54.985792
-38.285803 -10.94227 -54.945764
-38.744591 -10.953812 -54.04721
-37.230837 -3.880407 -57.819134
-37.649479 -5.551766 -56.943981
-37.727774 -3.8526 -56.952396
-32.882251 4.709821 -63.919384
-32.93528 6.377147 -63.850204
-32.148174 6.285147 -64.682643
-32.845379 2.945365 -63.901712
-33.632485 3.037365 -63.069273
-32.882251 4.709821 -63.919384
-33.457013 -36.516617 -50.034347
-32.629264 -36.709467 -50.67303
-14.227733 -36.622803 -55.039535
-14.486056 -38.37018 -54.511851
-15.266494 -36.52167 -55.249685
-14.059354 -34.621075 -55.629902
-13.278916 -36.469585 -54.892067
-14.227733 -36.622803 -55.039535
-11.360017 -15.636335 -62.022315
-12.188685 -15.375827 -62.374519
-10.554893 -15.848453 -61.665165
-10.998625 -17.363732 -61.154635
-11.360017 -15.636335 -62.022315
-9.794656 -16.065843 -61.301783
-10.554893 -15.848453 -61.665165
-7.321031 -15.042545 -60.667349
-6.931669 -16.441208 -59.871282
-7.575665 -16.433871 -60.193917
-7.646636 -13.755559 -61.415245
-7.321031 -15.042545 -60.667349
-28.034384 -37.728295 -53.086016
-28.991499 -37.573915 -52.684052
-28.794476 -35.829016 -53.562548
-27.027718 -38.027418 -53.405683
-27.224742 -39.772318 -52.527187
-28.034384 -37.728295 -53.086016
-25.983982 -38.309767 -53.678169
-27.027718 -38.027418 -53.405683
-26.793624 -36.265743 -54.236998
-24.9195 -38.550163 -53.93552
-25.983982 -38.309767 -53.678169
-24.773226 -36.744175 -54.694017
-24.9195 -38.550163 -53.93552
-24.632906 -34.817553 -55.526819
-24.773226 -36.744175 -54.694017
-25.609566 -34.62147 -55.342285
-24.3831 -33.066628 -56.259484
-23.54676 -35.189333 -55.611216
-24.632906 -34.817553 -55.526819
-19.471871 -9.861621 -65.697677
-20.489772 -9.590436 -65.772731
-19.832438 -8.011868 -66.378597
-19.122516 -11.797325 -64.925858
-19.471871 -9.861621 -65.697677
-37.701763 -21.430526 -52.602974
-38.044302 -19.785713 -52.681044
-37.096449 -21.624869 -53.377099
-37.701763 -21.430526 -52.602974
-24.600243 -3.353947 -67.282455
-24.289377 -5.12965 -66.824874
-25.331045 -4.912228 -66.616768
-37.822382 -2.272331 -56.800277
-37.727774 -3.8526 -56.952396
-31.264277 6.381905 -65.538131
-32.148174 6.285147 -64.682643
-31.193867 4.668909 -65.519882
-31.264277 6.381905 -65.538131
-35.540682 -34.100933 -49.148388
-35.466578 -32.542107 -50.127541
-34.936369 -36.060597 -48.7442
-35.540682 -34.100933 -49.148388
-16.485679 -38.143551 -54.85512
-15.560562 -40.155333 -54.133207
-16.281879 -36.222824 -55.489988
-16.485679 -38.143551 -54.85512
-17.242742 -36.097328 -55.623108
-18.783857 -21.069448 -61.277265
-19.734844 -21.004807 -61.343876
-19.319295 -19.125407 -62.052099
-18.266441 -22.97815 -60.476103
-18.783857 -21.069448 -61.277265
-17.850892 -21.098751 -61.184326
-13.943582 -21.973278 -60.156141
-14.36578 -23.692185 -59.573397
-14.929164 -21.843311 -60.433281
-13.580486 -20.124229 -60.779581
-13.017103 -21.973101 -59.919697
-13.943582 -21.973278 -60.156141
-7.477049 -19.249104 -58.949335
-6.720932 -19.279556 -58.55653
-7.898027 -17.694318 -59.786628
-7.477049 -19.249104 -58.949335
-8.188772 -19.110889 -59.338113
-37.254362 -14.51292 -55.671404
-37.534604 -16.326871 -54.700136
-37.839293 -14.555945 -54.794506
-31.763658 -36.871909 -51.262297
-32.629264 -36.709467 -50.67303
-32.452934 -34.961705 -51.696329
-30.899787 -37.107869 -51.766565
-30.66946 -35.399392 -52.723089
-29.981918 -37.383114 -52.204059
-31.763658 -36.871909 -51.262297
-30.899787 -37.107869 -51.766565
-21.792384 -39.046019 -54.434853
-22.676924 -37.148419 -54.990925
-20.6772 -39.375903 -54.456032
-21.792384 -39.046019 -54.434853
-20.561792 -37.400118 -55.160972
-19.681711 -39.419442 -54.513706
-20.6772 -39.375903 -54.456032
-20.374033 -35.5637 -55.859449
-20.561792 -37.400118 -55.160972
-21.369522 -35.520161 -55.801775
-20.109889 -33.853636 -56.465268
-19.302159 -35.733593 -55.824465
-20.374033 -35.5637 -55.859449
-21.885567 -16.83973 -62.934406
-22.920032 -16.525493 -62.961839
-22.396916 -14.722582 -63.695848
-20.816367 -17.048793 -62.893563
-21.339481 -18.851703 -62.159554
-21.885567 -16.83973 -62.934406
-20.745829 -13.238504 -64.380114
-21.784422 -13.109199 -64.373155
-21.167799 -11.310884 -65.084854
-20.745829 -13.238504 -64.380114
-19.783552 -13.442463 -64.307308
-19.85409 -17.252751 -62.820757
-20.816367 -17.048793 -62.893563
-19.319295 -19.125407 -62.052099
-19.85409 -17.252751 -62.820757
-9.562625 -22.256595 -58.646681
-8.751594 -22.339773 -58.280634
-35.176521 -29.321699 -52.121527
-35.358193 -30.902079 -51.112578
-37.214995 -18.031013 -54.596081
-37.799925 -18.074038 -53.719183
-37.534604 -16.326871 -54.700136
-36.476345 -21.729441 -54.128965
-37.096449 -21.624869 -53.377099
-36.860212 -19.882752 -54.366995
-36.005812 -23.722979 -53.812184
-36.476345 -21.729441 -54.128965
-35.769575 -21.980862 -54.80208
-35.522553 -25.704308 -53.475037
-36.229322 -25.452887 -52.801922
-36.005812 -23.722979 -53.812184
-35.013945 -27.602849 -53.101618
-35.522553 -25.704308 -53.475037
-34.790434 -25.87294 -54.11188
-34.444403 -29.490331 -52.75837
-35.176521 -29.321699 -52.121527
-35.013945 -27.602849 -53.101618
-21.161389 -5.912109 -67.063732
-21.855826 -7.505552 -66.42612
-22.166876 -5.676977 -67.036202
-20.065444 -6.226978 -67.038406
-21.161389 -5.912109 -67.063732
-38.820934 -14.412743 -53.082159
-39.006331 -12.67306 -53.127981
-38.351479 -14.586133 -53.915211
-38.820934 -14.412743 -53.082159
-38.071238 -12.772182 -54.886478
-37.839293 -14.555945 -54.794506
-38.351479 -14.586133 -53.915211
-38.067299 -7.303064 -55.980795
-38.44697 -9.093712 -54.985792
-37.570362 -7.330871 -56.847532
-38.067299 -7.303064 -55.980795
-37.649479 -5.551766 -56.943981
-37.367042 -0.631457 -57.674293
-37.822382 -2.272331 -56.800277
-36.840479 -0.478575 -58.627935
-37.367042 -0.631457 -57.674293
-36.238897 -0.431292 -59.578799
-36.70755 -2.13396 -58.778412
-36.840479 -0.478575 -58.627935
-35.585459 -0.313999 -60.535747
-36.238897 -0.431292 -59.578799
-34.934302 -0.305576 -61.366366
-35.454811 -2.078254 -60.559893
-35.585459 -0.313999 -60.535747
-34.330281 1.365795 -62.196911
-33.632485 3.037365 -63.069273
-34.199633 -0.398461 -62.221056
-34.934302 -0.305576 -61.366366
-34.330281 1.365795 -62.196911
-31.095907 3.013383 -65.466751
-31.997186 2.962294 -64.698692
-31.193867 4.668909 -65.519882
-30.970105 1.283154 -65.334533
-31.095907 3.013383 -65.466751
-30.778937 -0.503189 -65.192631
-31.708058 -0.479575 -64.503658
-30.970105 1.283154 -65.334533
-29.87932 -0.60637 -65.750084
-30.617272 -2.3691 -64.919208
-30.778937 -0.503189 -65.192631
-28.898824 -0.793117 -66.282177
-29.87932 -0.60637 -65.750084
-27.911751 -0.9391 -66.739666
-28.730581 -2.618264 -65.934151
-28.898824 -0.793117 -66.282177
-26.919446 -1.161253 -67.127197
-27.911751 -0.9391 -66.739666
-25.868648 -1.347392 -67.468552
-26.692709 -2.950387 -66.732994
-26.919446 -1.161253 -67.127197
-24.853659 -1.61266 -67.730602
-25.868648 -1.347392 -67.468552
-24.600243 -3.353947 -67.282455
-24.853659 -1.61266 -67.730602
-34.209618 -36.361603 -49.384918
-34.071145 -34.644249 -50.457634
-33.457013 -36.516617 -50.034347
-34.936369 -36.060597 -48.7442
-34.209618 -36.361603 -49.384918
-14.564478 -40.201313 -53.980909
-15.560562 -40.155333 -54.133207
-14.564478 -40.201313 -53.980909
-14.486056 -38.37018 -54.511851
-12.26121 -36.52519 -54.626991
-13.278916 -36.469585 -54.892067
-12.155795 -34.577145 -55.180389
-11.306468 -36.634478 -54.324947
-12.26121 -36.52519 -54.626991
-11.946115 -32.729893 -55.737417
-12.155795 -34.577145 -55.180389
-12.900856 -32.620606 -56.039461
-11.793138 -30.884211 -56.28107
-11.946115 -32.729893 -55.737417
-11.544853 -29.140676 -56.818129
-11.793138 -30.884211 -56.28107
-12.442891 -29.029819 -57.133547
-11.270936 -27.348746 -57.33757
-11.544853 -29.140676 -56.818129
-10.996593 -25.604125 -57.898472
-11.270936 -27.348746 -57.33757
-11.920264 -25.541662 -58.231507
-10.77534 -23.818989 -58.475393
-10.996593 -25.604125 -57.898472
-10.398685 -22.271908 -58.955639
-10.77534 -23.818989 -58.475393
-11.269265 -22.24996 -59.272654
-10.056549 -20.687566 -59.443941
-9.562625 -22.256595 -58.646681
-10.398685 -22.271908 -58.955639
-13.088236 -18.395749 -61.364847
-13.580486 -20.124229 -60.779581
-12.663107 -16.90953 -61.849171
-12.188685 -15.375827 -62.374519
-12.228877 -18.637833 -61.027461
-13.088236 -18.395749 -61.364847
-12.663107 -16.90953 -61.849171
-9.00278 -16.055968 -60.990744
-9.401625 -17.565977 -60.486446
-9.794656 -16.065843 -61.301783
-8.680418 -14.795521 -61.398032
-8.287388 -16.295656 -60.582695
-9.00278 -16.055968 -60.990744
-8.246672 -13.550352 -61.780482
-8.680418 -14.795521 -61.398032
-7.646636 -13.755559 -61.415245
-8.246672 -13.550352 -61.780482
-6.532709 -17.847442 -59.038094
-6.720932 -19.279556 -58.55653
-6.278076 -16.456117 -59.511526
-6.532709 -17.847442 -59.038094
-6.931669 -16.441208 -59.871282
3 0 32 30
3 0 34 32
3 1 37 35
3 1 38 37
3 1 39 38
3 121 120 40
3 122 42 123
3 3 45 43
3 3 47 45
3 3 49 47
3 5 52 50
3 5 54 52
3 2 124 126
3 124 55 125
3 124 125 126
3 6 127 128
3 6 129 131
3 129 57 130
3 129 130 131
3 4 60 58
3 132 62 133
3 134 64 135
3 136 135 62
3 134 135 136
3 138 137 64
3 7 139 140
3 7 141 143
3 141 67 142
3 141 142 143
3 8 70 68
3 10 71 31
3 10 72 71
3 10 74 72
3 12 75 33
3 12 76 75
3 13 79 77
3 145 144 36
3 14 146 148
3 146 80 147
3 146 147 148
3 14 81 80
3 15 149 151
3 151 150 82
3 149 150 151
3 153 152 41
3 9 84 69
3 17 85 44
3 17 86 85
3 17 87 86
3 18 88 46
3 18 89 88
3 18 91 89
3 20 92 48
3 20 93 92
3 11 94 73
3 21 95 51
3 21 96 95
3 21 97 96
3 154 98 155
3 156 155 53
3 154 155 156
3 158 157 98
3 159 99 160
3 161 100 162
3 163 162 99
3 161 162 163
3 22 164 166
3 164 101 165
3 164 165 166
3 22 102 101
3 23 167 169
3 167 168 169
3 23 170 172
3 170 103 171
3 170 171 172
3 23 104 103
3 174 173 78
3 24 175 177
3 177 176 56
3 175 176 177
3 24 178 180
3 178 105 179
3 178 179 180
3 19 106 90
3 25 107 59
3 25 108 107
3 16 109 83
3 26 110 61
3 26 111 110
3 26 112 111
3 27 113 63
3 27 114 113
3 27 115 114
3 28 116 65
3 28 117 116
3 181 118 182
3 183 119 184
3 185 184 118
3 183 184 185
3 187 186 119
3 29 188 190
3 190 189 66
3 188 189 190
3 29 191 192
3 30 31 8
3 32 31 30
3 32 10 31
3 32 33 10
3 34 33 32
3 34 12 33
3 35 36 13
3 37 36 35
3 37 193 195
3 195 194 36
3 193 194 195
3 37 196 198
3 196 197 198
3 38 199 201
3 201 200 37
3 199 200 201
3 38 202 203
3 38 204 205
3 39 206 208
3 208 207 38
3 206 207 208
3 39 209 211
3 209 14 210
3 209 210 211
3 40 41 15
3 212 41 213
3 214 213 40
3 212 213 214
3 216 215 41
3 42 217 218
3 42 219 220
3 43 44 9
3 45 44 43
3 45 17 44
3 45 46 17
3 47 46 45
3 47 18 46
3 47 48 18
3 49 48 47
3 49 20 48
3 50 51 11
3 52 51 50
3 52 21 51
3 52 53 21
3 54 53 52
3 54 221 223
3 223 222 53
3 221 222 223
3 224 22 225
3 226 23 227
3 229 228 23
3 55 230 231
3 55 232 233
3 234 56 235
3 57 236 238
3 236 56 237
3 236 237 238
3 57 24 56
3 58 59 19
3 60 59 58
3 60 25 59
3 239 61 240
3 241 240 16
3 239 240 241
3 62 242 244
3 242 61 243
3 242 243 244
3 62 26 61
3 62 63 26
3 64 63 62
3 64 27 63
3 64 65 27
3 245 65 246
3 247 246 64
3 245 246 247
3 248 28 249
3 250 249 65
3 248 249 250
3 251 66 252
3 67 253 255
3 253 66 254
3 253 254 255
3 67 29 66
3 68 256 258
3 256 69 257
3 256 257 258
3 70 69 68
3 70 9 69
3 31 70 8
3 71 70 31
3 71 9 70
3 71 43 9
3 72 43 71
3 72 3 43
3 72 73 3
3 74 73 72
3 74 11 73
3 33 74 10
3 75 74 33
3 75 11 74
3 75 50 11
3 76 50 75
3 76 5 50
3 77 78 2
3 79 78 77
3 79 259 261
3 261 260 78
3 259 260 261
3 36 79 13
3 262 79 263
3 264 263 36
3 262 263 264
3 266 265 79
3 80 267 268
3 80 269 270
3 80 271 273
3 271 272 273
3 81 274 276
3 276 275 80
3 274 275 276
3 81 277 279
3 277 6 278
3 277 278 279
3 82 83 4
3 280 83 281
3 282 281 82
3 280 281 282
3 283 16 284
3 285 284 83
3 283 284 285
3 41 286 288
3 288 287 15
3 286 287 288
3 290 289 41
3 291 16 292
3 294 293 16
3 295 7 296
3 297 2 298
3 69 299 301
3 299 42 300
3 299 300 301
3 84 42 69
3 84 302 304
3 304 303 42
3 302 303 304
3 44 84 9
3 85 84 44
3 85 305 307
3 307 306 84
3 305 306 307
3 85 308 310
3 308 309 310
3 86 311 313
3 313 312 85
3 311 312 313
3 86 314 316
3 314 2 315
3 314 315 316
3 86 77 2
3 87 77 86
3 87 13 77
3 46 87 17
3 88 87 46
3 88 13 87
3 88 35 13
3 89 35 88
3 89 1 35
3 89 90 1
3 91 90 89
3 91 19 90
3 48 91 18
3 92 91 48
3 92 19 91
3 92 58 19
3 93 58 92
3 93 4 58
3 73 49 3
3 94 49 73
3 94 20 49
3 51 94 11
3 95 94 51
3 95 20 94
3 95 93 20
3 96 93 95
3 96 4 93
3 96 82 4
3 97 82 96
3 97 15 82
3 53 97 21
3 98 97 53
3 98 15 97
3 98 40 15
3 317 40 318
3 319 318 98
3 317 318 319
3 321 320 40
3 99 322 323
3 99 324 325
3 99 326 328
3 326 68 327
3 326 327 328
3 100 68 99
3 100 8 68
3 329 100 330
3 101 331 333
3 331 100 332
3 331 332 333
3 101 8 100
3 101 30 8
3 102 30 101
3 102 0 30
3 334 22 335
3 336 22 337
3 338 102 339
3 340 339 22
3 338 339 340
3 341 102 342
3 343 0 344
3 345 344 102
3 343 344 345
3 103 346 347
3 103 348 350
3 348 0 349
3 348 349 350
3 103 34 0
3 104 34 103
3 104 12 34
3 351 104 352
3 353 352 23
3 351 352 353
3 354 104 355
3 356 12 357
3 358 357 104
3 356 357 358
3 359 76 360
3 361 360 12
3 359 360 361
3 362 76 363
3 364 5 365
3 366 365 76
3 364 365 366
3 367 5 368
3 369 54 370
3 371 370 5
3 369 370 371
3 372 54 373
3 375 374 54
3 78 55 2
3 376 55 377
3 378 377 78
3 376 377 378
3 380 379 55
3 56 381 382
3 384 383 56
3 105 385 386
3 105 387 389
3 387 388 389
3 90 39 1
3 106 39 90
3 106 14 39
3 59 106 19
3 107 106 59
3 107 14 106
3 107 81 14
3 108 81 107
3 108 6 81
3 83 60 4
3 109 60 83
3 109 25 60
3 61 109 16
3 110 109 61
3 110 25 109
3 110 108 25
3 111 108 110
3 111 6 108
3 111 57 6
3 112 57 111
3 112 24 57
3 63 112 26
3 113 112 63
3 113 24 112
3 113 105 24
3 114 105 113
3 114 390 392
3 392 391 105
3 390 391 392
3 114 393 394
3 115 395 397
3 397 396 114
3 395 396 397
3 115 398 399
3 65 115 27
3 116 115 65
3 116 400 402
3 402 401 115
3 400 401 402
3 116 403 404
3 117 405 407
3 407 406 116
3 405 406 407
3 117 408 410
3 408 7 409
3 408 409 410
3 411 28 412
3 118 413 414
3 118 415 417
3 415 28 416
3 415 416 417
3 118 117 28
3 119 117 118
3 119 7 117
3 119 67 7
3 418 67 419
3 420 419 119
3 418 419 420
3 421 29 422
3 423 422 67
3 421 422 423
3 424 29 425
3 427 426 29
3 66 428 429
3 432 431 66
3 430 431 432
