ply
format ascii 1.0
element vertex 371
property float x
property float y
property float z
element face 358
property list uchar int vertex_index
end_header
-3.452244 93.456955 9.530544
0.553652 97.086395 -1.984386
-0.616333 75.333694 28.217207
-12.165771 96.98317 12.049584
-8.896947 102.263573 -0.979315
-6.305811 86.78952 21.062933
-7.915334 95.599503 10.620188
-10.633781 100.062721 5.46731
-6.204497 98.078629 4.732738
2.998762 97.405975 -7.049831
-1.788754 100.818565 -7.56439
0.762241 100.637291 -12.829229
-10.559891 88.034248 22.910446
3.064672 73.832497 26.388384
0.557608 79.485023 23.221088
0.839647 91.035126 8.539913
-1.572343 95.620453 3.829599
4.842122 93.831238 -1.818658
-4.045904 99.911873 -1.638051
-6.788849 103.487556 -7.16234
-13.675173 93.40937 18.352169
-9.475116 92.212051 16.873486
-5.011624 90.478188 15.327094
-3.541291 81.029999 25.091055
-2.212769 85.006035 19.639391
-5.669964 94.525024 10.135188
-7.145299 96.924911 7.738959
-4.841628 95.8041 7.243711
4.290121 97.328453 -9.70747
1.853644 99.145378 -9.879713
3.203295 98.869141 -12.464159
4.916491 72.769989 25.533154
3.683187 75.801208 23.946602
5.414763 74.938408 22.991135
7.174154 73.817123 22.100567
2.812233 89.783691 8.143847
6.161147 93.852974 -4.227333
-9.815529 101.195312 2.428046
-12.07534 102.044968 2.697087
-0.590106 96.495262 0.902868
-2.892811 97.868103 1.206901
-1.822066 98.554924 -1.704334
-3.145847 102.407333 -10.181986
-4.344572 102.232368 -7.27825
-8.43644 87.476044 21.963139
-10.037007 90.096764 20.04591
-7.991077 89.623886 19.016716
-7.190258 91.349472 16.105892
-5.7109 88.724495 18.225868
-4.12505 78.844208 27.718306
-2.033124 78.178596 26.713396
1.185716 81.208328 20.802431
-0.906036 82.196053 21.642979
-10.102638 96.276627 11.507116
-11.49296 98.714058 8.642106
-9.330024 97.908043 8.162204
-8.328163 99.162636 4.961709
-7.459674 100.318283 1.737917
1.631386 97.475784 -4.653481
-0.740985 99.055695 -4.556604
0.597768 99.166367 -7.246492
-0.602256 100.871452 -10.199875
-1.821407 102.277092 -12.926523
-11.149156 85.929008 25.694098
-8.996323 85.16021 24.988531
-6.962847 84.820869 23.810541
1.183114 74.64106 27.347393
-0.082894 77.570435 25.693584
1.773126 76.689972 24.912241
2.469775 78.578369 22.367807
-1.187114 92.143326 9.117673
-2.573023 94.672615 6.639364
-0.347087 93.30706 6.333482
0.484347 94.228683 3.744597
1.566431 95.04332 0.765487
3.812587 93.374107 0.737813
2.736655 95.539291 -2.028476
3.865214 95.765678 -4.47852
5.189482 95.708412 -6.94359
-3.920547 97.023315 4.089413
-5.188413 99.148323 1.485453
-6.406403 101.156212 -1.393279
-3.010367 100.507744 -4.596641
-5.324234 101.723465 -4.269065
-7.752947 102.951042 -4.164104
-12.820015 95.128838 15.355774
-11.508295 92.709183 17.791393
-10.740107 94.612251 14.547102
-8.565787 93.905495 13.750864
-6.460823 93.025856 13.12436
-4.266675 92.051147 12.436203
-4.916452 83.935883 23.143642
-1.462436 80.204498 24.231943
-2.933303 83.07666 22.434431
-4.263173 85.97094 20.308167
-3.640879 87.88858 17.438261
-3.028234 89.527245 14.736745
-2.147366 90.899696 11.963951
-0.092427 89.817741 11.361245
4.393201 97.943207 -12.339474
3.746708 98.098797 -11.085815
4.936614 97.172863 -10.961129
3.93895 98.58928 -13.793368
4.393201 97.943207 -12.339474
6.017764 73.50338 23.669277
5.165627 73.854198 24.262144
5.768628 72.419171 24.940286
6.89746 72.942737 23.223993
6.294458 74.377765 22.545851
6.017764 73.50338 23.669277
7.746733 72.494045 22.632134
6.89746 72.942737 23.223993
3.28304 90.208416 6.898156
3.788601 89.023811 8.101364
-12.87436 98.035362 10.796471
-13.244024 97.249237 12.358434
-10.02051 102.664677 -0.753483
-10.479801 102.130547 0.950198
-9.356238 101.729443 0.724365
-9.537027 103.102829 -2.433521
-10.02051 102.664677 -0.753483
-4.374135 103.087086 -10.238048
-3.726327 103.070152 -11.707175
-1.324728 76.756145 27.465301
-2.289219 77.058643 27.951226
-1.580823 75.636192 28.703131
0.548319 82.568985 19.869656
1.506079 82.075634 19.511004
0.084339 101.326565 -14.299629
-1.207485 102.146466 -14.348275
-0.529583 101.457191 -12.877876
-11.447214 84.68666 27.203269
-12.124395 86.026318 26.239297
-8.274176 83.857258 25.82281
-9.342646 84.135182 26.314535
-7.257438 83.687588 25.233815
-7.979585 84.99054 24.399536
-8.274176 83.857258 25.82281
3.421773 78.102333 21.897382
3.076481 77.189788 23.157204
4.028479 76.713752 22.68678
2.798221 79.465878 21.096058
3.421773 78.102333 21.897382
1.580321 93.570053 3.475719
1.105785 93.131641 4.832295
2.121363 93.977372 1.986163
1.025389 94.636001 2.255042
1.580321 93.570053 3.475719
4.327355 93.602672 -0.540423
4.835135 92.524929 0.803477
5.349902 92.753495 -0.474759
6.304733 94.730759 -6.761801
5.675314 94.780693 -5.585462
6.790565 93.80304 -5.403672
5.872429 95.567444 -8.123249
6.304733 94.730759 -6.761801
-11.751701 100.420749 5.693366
-12.18129 99.746418 7.280765
-11.063371 99.388389 7.054708
-13.182164 102.270832 3.006447
-12.709384 102.831486 1.352041
-7.954767 103.997951 -7.082849
-8.436816 103.729694 -5.58373
-7.270898 103.219299 -5.663222
-14.320344 94.555831 17.109629
-14.634897 93.493888 18.794344
-13.247594 94.269104 16.853972
-13.892765 95.415565 15.611432
-14.320344 94.555831 17.109629
-11.393369 89.427841 21.829796
-11.641012 88.348835 23.298124
-4.55375 81.42979 25.484493
-4.845629 80.336895 26.798118
-3.833171 79.937104 26.40468
-4.228872 82.482941 24.117348
-5.241331 82.882733 24.510786
-4.55375 81.42979 25.484493
-1.94828 88.969788 14.420601
-2.285051 88.136677 15.825918
-1.507846 89.656014 13.034204
-2.5878 90.21347 13.350348
-1.94828 88.969788 14.420601
-0.480377 89.115036 12.732851
-1.119896 90.358719 11.662598
-1.507846 89.656014 13.034204
2.666916 99.532558 -13.956734
1.446389 100.416634 -14.13927
1.982768 99.753216 -12.646694
2.666916 99.532558 -13.956734
3.93895 98.58928 -13.793368
4.894267 76.282353 22.209046
4.028479 76.713752 22.68678
4.548975 75.369808 23.468868
5.772917 75.813027 21.737623
4.894267 76.282353 22.209046
6.652613 75.252384 21.29234
5.772917 75.813027 21.737623
6.294458 74.377765 22.545851
7.453772 74.741088 20.876343
6.652613 75.252384 21.29234
7.995163 73.487522 21.406743
7.453772 74.741088 20.876343
7.995163 73.487522 21.406743
7.746733 72.494045 22.632134
2.269728 90.909145 7.031921
1.283435 91.534863 7.229954
1.82594 90.409409 8.34188
2.269728 90.909145 7.031921
3.28304 90.208416 6.898156
5.854512 92.960712 -1.722701
5.349902 92.753495 -0.474759
6.514024 92.971581 -2.927038
5.501634 93.842106 -3.022995
5.854512 92.960712 -1.722701
7.202946 92.912792 -4.103864
6.514024 92.971581 -2.927038
6.790565 93.80304 -5.403672
7.202946 92.912792 -4.103864
-11.609707 102.555374 1.084718
-10.945435 101.62014 2.562566
-10.479801 102.130547 0.950198
-12.709384 102.831486 1.352041
-11.609707 102.555374 1.084718
-4.973498 102.999603 -8.786181
-3.74521 102.319851 -8.730118
-4.374135 103.087086 -10.238048
-6.195636 103.627197 -8.728226
-5.566711 102.859962 -7.220295
-4.973498 102.999603 -8.786181
-7.433822 104.202846 -8.697004
-6.195636 103.627197 -8.728226
-13.937409 92.331054 19.924305
-14.634897 93.493888 18.794344
-3.335182 77.391449 28.453681
-4.387218 77.725654 28.950073
-3.079087 78.511402 27.215851
-3.335182 77.391449 28.453681
-2.289219 77.058643 27.951226
-0.497557 83.062848 20.289929
0.13984 81.702191 21.222705
0.548319 82.568985 19.869656
-1.150924 84.467838 19.288135
-1.559403 83.601044 20.641185
-0.497557 83.062848 20.289929
-1.877318 85.876072 18.277241
-1.150924 84.467838 19.288135
-3.064107 103.005032 -13.079444
-3.726327 103.070152 -11.707175
-2.483627 102.342212 -11.554254
-2.49726 102.915718 -14.500732
-3.064107 103.005032 -13.079444
-2.49726 102.915718 -14.500732
-1.207485 102.146466 -14.348275
0.084339 101.326565 -14.299629
1.446389 100.416634 -14.13927
-11.935644 87.296215 24.68995
-12.124395 86.026318 26.239297
-10.854523 86.981628 24.302272
-11.641012 88.348835 23.298124
-11.935644 87.296215 24.68995
-10.419062 84.51958 26.667319
-11.447214 84.68666 27.203269
-10.07274 85.544609 25.341314
-10.419062 84.51958 26.667319
-9.342646 84.135182 26.314535
2.156191 80.780857 20.31337
1.827745 79.893349 21.585119
2.798221 79.465878 21.096058
1.506079 82.075634 19.511004
2.156191 80.780857 20.31337
0.690068 92.670829 6.126738
0.24628 92.171093 7.436698
1.283435 91.534863 7.229954
0.06863 93.767872 5.03904
0.690068 92.670829 6.126738
1.105785 93.131641 4.832295
4.315329 92.289306 2.001238
4.835135 92.524929 0.803477
3.244441 93.142765 1.972327
4.315329 92.289306 2.001238
2.689509 94.208713 0.75165
2.121363 93.977372 1.986163
3.244441 93.142765 1.972327
5.422749 96.377465 -9.505189
4.739802 96.518432 -8.32553
5.872429 95.567444 -8.123249
4.936614 97.172863 -10.961129
5.422749 96.377465 -9.505189
-0.934817 74.174224 29.468787
-1.580823 75.636192 28.703131
0.026573 73.8414 28.989746
-0.934817 74.174224 29.468787
0.926297 73.495083 28.554839
0.28339 74.987377 27.7823
0.026573 73.8414 28.989746
1.864539 73.137638 28.063218
0.926297 73.495083 28.554839
2.805318 72.733356 27.583714
2.123893 74.236778 26.867888
1.864539 73.137638 28.063218
3.715212 72.394409 27.031802
2.805318 72.733356 27.583714
4.641121 71.863156 26.604186
3.990581 73.301243 25.960769
3.715212 72.394409 27.031802
5.533162 71.413444 26.081169
4.641121 71.863156 26.604186
5.768628 72.419171 24.940286
5.533162 71.413444 26.081169
-12.537954 98.900806 9.092733
-12.87436 98.035362 10.796471
-11.829365 97.848614 10.345845
-12.537954 98.900806 9.092733
-12.18129 99.746418 7.280765
-12.47248 101.411873 4.308255
-11.751701 100.420749 5.693366
-11.354561 101.053844 4.082199
-12.47248 101.411873 4.308255
-13.182164 102.270832 3.006447
-8.965027 103.446563 -4.025915
-9.537027 103.102829 -2.433521
-8.324947 102.607307 -2.571709
-8.965027 103.446563 -4.025915
-8.436816 103.729694 -5.58373
-7.954767 103.997951 -7.082849
-7.433822 104.202846 -8.697004
-13.571146 96.322071 14.011529
-13.892765 95.415565 15.611432
-12.492893 96.056004 13.702679
-13.244024 97.249237 12.358434
-13.571146 96.322071 14.011529
-12.95101 92.115402 19.550657
-13.937409 92.331054 19.924305
-11.131927 90.459099 20.397528
-11.393369 89.427841 21.829796
-10.298449 89.065506 21.478178
-11.867571 91.765309 19.270269
-11.131927 90.459099 20.397528
-10.772651 91.402974 18.918651
-12.591734 93.059276 18.071781
-12.95101 92.115402 19.550657
-11.867571 91.765309 19.270269
-5.12269 79.250011 28.088355
-4.387218 77.725654 28.950073
-5.12269 79.250011 28.088355
-4.845629 80.336895 26.798118
-6.264528 83.325226 24.844235
-7.257438 83.687588 25.233815
-5.939649 84.378376 23.477092
-6.264528 83.325226 24.844235
-5.241331 82.882733 24.510786
-2.591373 87.317345 17.176676
-2.926824 86.447307 18.538826
-1.877318 85.876072 18.277241
-3.334556 88.707912 16.087503
-2.591373 87.317345 17.176676
-2.285051 88.136677 15.825918
0.552261 88.567093 12.398896
-0.480377 89.115036 12.732851
0.929167 89.208858 11.11095
0.552261 88.567093 12.398896
1.395204 89.817551 9.700284
0.37361 90.426434 9.950579
0.929167 89.208858 11.11095
2.381496 89.191834 9.502251
1.82594 90.409409 8.34188
1.395204 89.817551 9.700284
3.347994 88.561504 9.294082
2.381496 89.191834 9.502251
3.788601 89.023811 8.101364
3.347994 88.561504 9.294082
3 0 27 25
3 99 30 100
3 101 100 28
3 99 100 101
3 103 102 30
3 104 33 105
3 106 105 31
3 104 105 106
3 107 34 108
3 109 108 33
3 107 108 109
3 111 110 34
3 113 112 35
3 3 114 115
3 4 116 118
3 118 117 37
3 116 117 118
3 4 119 120
3 1 41 39
3 122 121 42
3 5 46 44
3 5 48 46
3 2 123 125
3 123 50 124
3 123 124 125
3 127 126 51
3 6 55 53
3 8 56 26
3 8 57 56
3 9 60 58
3 11 61 29
3 11 62 61
3 11 128 130
3 130 129 62
3 128 129 130
3 131 63 132
3 133 64 134
3 135 65 136
3 137 136 64
3 135 136 137
3 13 68 66
3 138 69 139
3 140 139 32
3 138 139 140
3 142 141 69
3 15 72 70
3 143 73 144
3 145 74 146
3 147 146 73
3 145 146 147
3 17 148 150
3 148 75 149
3 148 149 150
3 17 76 75
3 17 77 76
3 151 78 152
3 153 152 36
3 151 152 153
3 155 154 78
3 7 156 158
3 158 157 54
3 156 157 158
3 160 159 38
3 16 79 71
3 18 80 40
3 18 81 80
3 10 82 59
3 19 83 43
3 19 84 83
3 19 161 163
3 163 162 84
3 161 162 163
3 20 164 165
3 20 166 168
3 166 85 167
3 166 167 168
3 12 169 170
3 21 86 45
3 21 87 86
3 21 88 87
3 22 89 47
3 22 90 89
3 23 171 173
3 173 172 49
3 171 172 173
3 23 174 176
3 174 91 175
3 174 175 176
3 14 92 67
3 24 93 52
3 24 94 93
3 24 95 94
3 177 96 178
3 179 97 180
3 181 180 96
3 179 180 181
3 182 98 183
3 184 183 97
3 182 183 184
3 25 26 6
3 27 26 25
3 27 8 26
3 28 29 9
3 30 29 28
3 30 11 29
3 30 185 187
3 187 186 11
3 185 186 187
3 189 188 30
3 31 32 13
3 33 32 31
3 33 190 192
3 192 191 32
3 190 191 192
3 33 193 194
3 34 195 197
3 197 196 33
3 195 196 197
3 34 198 199
3 34 200 201
3 203 202 34
3 35 204 206
3 206 205 15
3 204 205 206
3 208 207 35
3 209 17 210
3 211 36 212
3 213 212 17
3 211 212 213
3 214 36 215
3 217 216 36
3 37 38 7
3 218 38 219
3 220 219 37
3 218 219 220
3 222 221 38
3 39 40 16
3 41 40 39
3 41 18 40
3 42 43 10
3 223 43 224
3 225 224 42
3 223 224 225
3 226 19 227
3 228 227 43
3 226 227 228
3 230 229 19
3 231 20 232
3 44 45 12
3 46 45 44
3 46 21 45
3 46 47 21
3 48 47 46
3 48 22 47
3 233 49 234
3 50 235 237
3 235 49 236
3 235 236 237
3 50 23 49
3 51 52 14
3 238 52 239
3 240 239 51
3 238 239 240
3 241 24 242
3 243 242 52
3 241 242 243
3 245 244 24
3 53 54 3
3 55 54 53
3 55 7 54
3 26 55 6
3 56 55 26
3 56 7 55
3 56 37 7
3 57 37 56
3 57 4 37
3 58 59 1
3 60 59 58
3 60 10 59
3 29 60 9
3 61 60 29
3 61 10 60
3 61 42 10
3 62 42 61
3 62 246 248
3 248 247 42
3 246 247 248
3 62 249 250
3 252 251 62
3 254 253 11
3 63 255 256
3 63 257 259
3 257 12 258
3 257 258 259
3 260 63 261
3 64 262 264
3 262 63 263
3 262 263 264
3 64 12 63
3 64 44 12
3 65 44 64
3 65 5 44
3 66 67 2
3 68 67 66
3 68 14 67
3 32 68 13
3 69 68 32
3 69 14 68
3 69 51 14
3 265 51 266
3 267 266 69
3 265 266 267
3 269 268 51
3 70 71 0
3 72 71 70
3 72 16 71
3 270 72 271
3 272 271 15
3 270 271 272
3 73 273 275
3 273 72 274
3 273 274 275
3 73 16 72
3 73 39 16
3 74 39 73
3 74 1 39
3 75 276 277
3 75 278 279
3 75 280 282
3 280 74 281
3 280 281 282
3 76 74 75
3 76 1 74
3 76 58 1
3 77 58 76
3 77 9 58
3 36 77 17
3 78 77 36
3 78 9 77
3 78 28 9
3 283 28 284
3 285 284 78
3 283 284 285
3 287 286 28
3 288 2 289
3 290 2 291
3 292 66 293
3 294 293 2
3 292 293 294
3 295 66 296
3 297 13 298
3 299 298 66
3 297 298 299
3 300 13 301
3 302 31 303
3 304 303 13
3 302 303 304
3 305 31 306
3 308 307 31
3 54 309 311
3 311 310 3
3 309 310 311
3 313 312 54
3 38 314 316
3 316 315 7
3 314 315 316
3 318 317 38
3 71 27 0
3 79 27 71
3 79 8 27
3 40 79 16
3 80 79 40
3 80 8 79
3 80 57 8
3 81 57 80
3 81 4 57
3 59 41 1
3 82 41 59
3 82 18 41
3 43 82 10
3 83 82 43
3 83 18 82
3 83 81 18
3 84 81 83
3 84 4 81
3 84 319 321
3 321 320 4
3 319 320 321
3 323 322 84
3 325 324 19
3 85 326 327
3 85 328 330
3 328 3 329
3 328 329 330
3 331 20 332
3 45 333 335
3 335 334 12
3 333 334 335
3 86 336 338
3 338 337 45
3 336 337 338
3 86 339 341
3 339 20 340
3 339 340 341
3 86 85 20
3 87 85 86
3 87 3 85
3 87 53 3
3 88 53 87
3 88 6 53
3 47 88 21
3 89 88 47
3 89 6 88
3 89 25 6
3 90 25 89
3 90 0 25
3 49 342 343
3 345 344 49
3 346 65 347
3 91 348 350
3 348 65 349
3 348 349 350
3 91 5 65
3 67 50 2
3 92 50 67
3 92 23 50
3 52 92 14
3 93 92 52
3 93 23 92
3 93 91 23
3 94 91 93
3 94 5 91
3 94 48 5
3 95 48 94
3 95 22 48
3 351 95 352
3 353 352 24
3 351 352 353
3 96 354 356
3 354 95 355
3 354 355 356
3 96 22 95
3 96 90 22
3 97 90 96
3 97 0 90
3 97 70 0
3 98 70 97
3 98 15 70
3 357 98 358
3 359 98 360
3 361 15 362
3 363 362 98
3 361 362 363
3 364 35 365
3 366 365 15
3 364 365 366
3 367 35 368
3 370 369 35
