ply
format ascii 1.0
element vertex 347
property float x
property float y
property float z
element face 295
property list uchar int vertex_index
end_header
30.994955 54.374344 -45.654152
25.632113 89.413521 -42.811924
24.82262 60.057564 -49.763691
24.343889 40.110817 -48.778278
29.439291 73.700485 -45.47966
12.955297 63.173347 -51.139145
28.110184 57.738396 -48.044163
24.915897 49.992142 -49.442528
28.023546 47.360214 -47.536873
22.829159 95.744423 -40.258305
21.477091 90.56929 -44.494705
24.075443 83.840958 -46.441017
26.109947 75.874786 -47.629223
27.91448 81.965805 -44.419552
15.383924 70.827072 -50.568146
27.460667 66.965721 -48.12368
30.610626 64.266983 -45.756851
29.563812 56.010357 -46.95565
28.142725 52.577671 -47.85471
29.599045 51.182896 -46.717831
22.199924 93.332428 -42.478287
23.632814 90.317558 -43.675503
24.786673 86.938141 -44.758392
25.997536 83.190941 -45.542343
26.741947 85.835358 -43.793594
24.681082 45.261635 -49.176758
22.737225 41.496101 -49.638958
29.076736 40.882362 -46.034321
13.085855 70.794601 -50.398693
14.254725 74.301788 -50.044601
27.890471 74.709412 -46.661285
26.971066 71.59964 -47.885418
28.599699 70.30751 -46.901653
29.128727 65.877716 -46.993347
30.116743 69.338753 -45.632694
26.467558 58.791035 -49.01778
25.02733 55.202999 -49.635536
26.644598 53.911701 -48.810814
26.53229 48.700047 -48.551121
26.196281 43.808392 -48.264935
20.720018 96.258957 -40.888069
19.911621 93.578156 -43.147858
19.037836 90.897644 -44.94384
20.551247 87.84404 -46.120361
25.146719 79.89183 -47.165707
27.003448 79.201065 -46.179169
28.680634 78.055885 -45.06205
27.528822 41.895893 -47.244884
14.090514 67.166206 -50.880527
17.237043 84.722961 -47.757648
16.353613 81.368675 -48.748978
15.23005 77.769081 -49.517792
16.633537 74.475143 -50.110813
17.606625 70.833992 -50.566978
24.478035 64.582169 -49.761036
25.132185 72.711441 -48.702583
25.786932 68.408546 -48.925125
26.193184 63.576321 -49.061352
27.853582 62.367455 -48.153023
29.4877 60.898407 -46.995319
30.873806 59.22863 -45.782345
30.230057 76.618881 -43.717335
30.921377 72.157349 -44.098663
31.411654 67.45533 -44.429688
31.900808 62.687412 -44.42625
32.1292 57.796497 -44.444763
24.632464 89.86554 -43.243713
24.02693 91.529811 -42.613558
25.02658 91.077793 -42.181769
24.024149 58.0135 -50.043104
23.940511 60.339231 -50.06502
23.270634 38.32465 -49.036512
22.467301 39.017292 -49.466852
23.540557 40.803459 -49.208618
13.547712 75.856037 -49.704098
13.126934 74.135647 -49.933373
12.240714 61.501879 -51.208294
11.846946 63.31282 -50.994641
21.774589 96.00169 -40.573187
21.024986 97.377499 -39.703501
22.079557 97.120231 -39.388618
23.015217 84.194912 -46.734646
23.442614 85.727249 -45.962277
23.591485 82.265064 -47.140957
23.015217 84.194912 -46.734646
24.611081 81.866394 -46.803362
24.127123 80.290501 -47.503302
23.591485 82.265064 -47.140957
24.105961 50.77363 -49.806176
24.161678 53.379059 -49.90268
24.971614 52.597571 -49.539032
27.395375 39.478342 -46.977758
28.302779 41.389128 -46.639602
28.169331 38.971576 -46.372476
26.643462 40.196078 -47.538887
27.395375 39.478342 -46.977758
15.916626 68.863533 -50.772637
15.269921 67.0331 -50.928827
14.737219 68.996639 -50.724336
18.451088 84.618336 -47.669485
17.778607 86.317013 -47.11392
17.011979 79.708435 -49.108849
17.51281 81.386913 -48.690142
16.450198 77.908638 -49.493256
15.791832 79.568878 -49.133385
17.011979 79.708435 -49.108849
17.151941 76.261669 -49.789766
15.931794 76.122112 -49.814302
16.450198 77.908638 -49.493256
18.695191 70.563835 -50.506301
18.292943 72.582783 -50.292315
18.092616 68.776043 -50.732023
18.695191 70.563835 -50.506301
24.169151 66.838761 -49.702433
23.565644 64.997551 -50.026943
25.621066 74.293114 -48.165903
24.683613 74.637806 -48.552106
25.172494 76.219479 -48.015427
30.523138 77.97966 -42.73057
29.832422 78.786895 -43.410063
31.532965 71.29565 -43.415203
31.257454 73.504032 -43.186354
31.778104 68.944641 -43.580715
31.166515 69.80634 -44.264176
31.532965 71.29565 -43.415203
32.512389 61.7255 -43.675523
32.302386 64.185564 -43.656075
32.626585 59.280043 -43.68478
32.015004 60.241955 -44.435507
32.512389 61.7255 -43.675523
32.740686 57.042994 -43.667545
32.626585 59.280043 -43.68478
13.342109 61.376738 -51.294359
14.012244 63.32593 -51.18537
23.310485 93.037246 -42.01495
22.514541 94.538425 -41.368296
23.625103 94.243244 -40.904959
22.916369 91.824993 -43.076895
23.310485 93.037246 -42.01495
24.02693 91.529811 -42.613558
23.221299 88.96555 -44.57952
22.143438 89.091415 -44.98912
22.554952 90.443424 -44.085104
23.798229 87.275841 -45.120964
23.221299 88.96555 -44.57952
24.209744 88.627849 -44.216948
24.431058 85.38955 -45.599705
23.442614 85.727249 -45.962277
23.798229 87.275841 -45.120964
23.899443 45.949728 -49.560329
24.016851 48.314982 -49.693214
24.79849 47.626888 -49.309643
22.927515 44.066961 -49.791429
23.899443 45.949728 -49.560329
23.709153 43.378868 -49.407858
21.941266 42.130161 -49.988707
22.927515 44.066961 -49.791429
21.734797 39.748638 -49.841566
21.941266 42.130161 -49.988707
21.734797 39.748638 -49.841566
22.467301 39.017292 -49.466852
29.769445 40.063547 -45.350876
29.945866 42.636974 -45.553564
28.828609 38.135622 -45.770861
29.769445 40.063547 -45.350876
28.169331 38.971576 -46.372476
28.828609 38.135622 -45.770861
12.542499 72.382053 -50.110419
11.932465 70.585472 -50.251724
13.67029 72.548194 -50.221647
12.542499 72.382053 -50.110419
13.126934 74.135647 -49.933373
12.240714 61.501879 -51.208294
13.342109 61.376738 -51.294359
19.965792 97.425495 -40.075105
20.27076 98.544037 -38.890537
21.024986 97.377499 -39.703501
19.545606 96.251458 -41.218586
19.965792 97.425495 -40.075105
19.141407 94.911057 -42.348481
19.545606 96.251458 -41.218586
20.315819 94.918556 -42.017964
18.718744 93.517525 -43.40515
19.141407 94.911057 -42.348481
18.281852 92.177269 -44.30314
18.718744 93.517525 -43.40515
19.474728 92.2379 -44.045849
17.7864 90.790168 -45.123345
17.030416 92.069794 -44.482645
18.281852 92.177269 -44.30314
18.679004 89.404354 -45.707016
17.7864 90.790168 -45.123345
19.435709 87.877552 -46.295276
18.679004 89.404354 -45.707016
19.794542 89.370842 -45.5321
20.10819 86.178875 -46.850842
19.435709 87.877552 -46.295276
21.680515 87.728791 -45.801949
21.014169 89.206665 -45.307533
22.143438 89.091415 -44.98912
21.25312 86.196453 -46.574318
21.680515 87.728791 -45.801949
20.10819 86.178875 -46.850842
21.25312 86.196453 -46.574318
24.69088 78.228001 -47.783668
24.127123 80.290501 -47.503302
25.628333 77.883308 -47.397465
25.172494 76.219479 -48.015427
24.69088 78.228001 -47.783668
30.975715 51.810242 -45.535397
31.655421 53.508911 -44.932528
23.14332 96.831692 -38.973408
22.079557 97.120231 -39.388618
23.85579 95.472736 -39.687314
23.14332 96.831692 -38.973408
23.625103 94.243244 -40.904959
23.85579 95.472736 -39.687314
25.895499 90.724483 -41.659436
25.02658 91.077793 -42.181769
26.509483 88.955681 -42.222938
25.895499 90.724483 -41.659436
24.126503 55.586218 -49.979027
24.024149 58.0135 -50.043104
24.924975 57.630281 -49.699613
24.126503 55.586218 -49.979027
24.161678 53.379059 -49.90268
24.105961 50.77363 -49.806176
24.016851 48.314982 -49.693214
30.27776 50.214518 -46.067236
30.297 52.77862 -46.185992
30.975715 51.810242 -45.535397
29.50063 48.442213 -46.555199
30.27776 50.214518 -46.067236
28.71288 46.530872 -46.96472
28.811295 49.271555 -47.127352
29.50063 48.442213 -46.555199
29.239475 43.291946 -46.213444
29.945866 42.636974 -45.553564
28.465518 43.798711 -46.818725
29.239475 43.291946 -46.213444
28.302779 41.389128 -46.639602
27.776184 44.628054 -47.390878
28.71288 46.530872 -46.96472
28.465518 43.798711 -46.818725
25.977191 41.152327 -48.048913
26.862552 42.852142 -47.754909
26.643462 40.196078 -47.538887
25.050995 39.303539 -48.305584
25.270085 41.959604 -48.521607
25.977191 41.152327 -48.048913
23.995545 37.565922 -48.599243
25.050995 39.303539 -48.305584
23.270634 38.32465 -49.036512
23.995545 37.565922 -48.599243
12.451776 65.110176 -50.905247
11.846946 63.31282 -50.994641
12.517055 68.920803 -50.535021
11.932465 70.585472 -50.251724
13.019384 67.106606 -50.775938
12.517055 68.920803 -50.535021
13.588185 68.980403 -50.63961
13.522906 65.169776 -51.009836
12.451776 65.110176 -50.905247
13.019384 67.106606 -50.775938
14.579852 65.322359 -51.056061
14.012244 63.32593 -51.18537
13.522906 65.169776 -51.009836
14.579852 65.322359 -51.056061
15.269921 67.0331 -50.928827
16.549711 86.139118 -47.243567
17.778607 86.317013 -47.11392
16.05017 84.508167 -47.810194
16.549711 86.139118 -47.243567
17.954525 83.064056 -48.194477
18.451088 84.618336 -47.669485
16.795328 83.045818 -48.253313
17.954525 83.064056 -48.194477
17.51281 81.386913 -48.690142
15.608455 82.831024 -48.305859
16.05017 84.508167 -47.810194
16.795328 83.045818 -48.253313
15.065614 81.183876 -48.723141
15.608455 82.831024 -48.305859
14.503833 79.384079 -49.107548
15.065614 81.183876 -48.723141
15.791832 79.568878 -49.133385
14.035375 77.589684 -49.440693
14.503833 79.384079 -49.107548
14.742387 76.035435 -49.781197
13.547712 75.856037 -49.704098
14.035375 77.589684 -49.440693
17.806399 74.403358 -50.064232
17.151941 76.261669 -49.789766
17.120081 72.654567 -50.338895
17.806399 74.403358 -50.064232
18.292943 72.582783 -50.292315
17.027976 68.866993 -50.772053
15.916626 68.863533 -50.772637
16.495275 70.830532 -50.567562
17.027976 68.866993 -50.772053
18.092616 68.776043 -50.732023
23.768218 62.601534 -50.063692
23.565644 64.997551 -50.026943
24.650327 62.319866 -49.762363
23.940511 60.339231 -50.06502
23.768218 62.601534 -50.063692
24.125839 73.110668 -49.020189
24.683613 74.637806 -48.552106
24.496226 70.903396 -49.173206
24.125839 73.110668 -49.020189
24.8236 68.751949 -49.284477
24.496226 70.903396 -49.173206
25.459558 70.559993 -48.813854
25.132483 66.495357 -49.34308
24.169151 66.838761 -49.702433
24.8236 68.751949 -49.284477
27.0644 87.166599 -42.713774
26.18703 87.624439 -43.302759
26.509483 88.955681 -42.222938
27.610654 85.245213 -43.166441
27.0644 87.166599 -42.713774
28.196921 83.310436 -43.47942
27.328214 83.900582 -44.106573
27.610654 85.245213 -43.166441
28.674634 81.460358 -43.761172
28.196921 83.310436 -43.47942
29.057711 79.505398 -44.08242
28.297557 80.010845 -44.740801
28.674634 81.460358 -43.761172
29.455345 77.337383 -44.389692
29.057711 79.505398 -44.08242
29.832422 78.786895 -43.410063
30.911794 75.734799 -42.995689
30.523138 77.97966 -42.73057
30.575717 74.388115 -43.907999
30.911794 75.734799 -42.995689
31.257454 73.504032 -43.186354
32.057809 66.569523 -43.657793
31.778104 68.944641 -43.580715
31.656231 65.071371 -44.427969
32.057809 66.569523 -43.657793
32.302386 64.185564 -43.656075
32.222544 55.219988 -44.327833
31.655421 53.508911 -44.932528
31.562078 56.08542 -45.049458
32.222544 55.219988 -44.327833
32.740686 57.042994 -43.667545
3 0 19 17
3 1 66 68
3 66 21 67
3 66 67 68
3 1 22 21
3 1 24 22
3 2 69 70
3 3 26 25
3 3 71 73
3 73 72 26
3 71 72 73
3 74 29 75
3 4 32 30
3 4 34 32
3 5 76 77
3 6 37 35
3 8 38 18
3 8 39 38
3 9 78 80
3 78 40 79
3 78 79 80
3 10 41 20
3 10 42 41
3 10 43 42
3 11 81 82
3 11 83 84
3 11 85 87
3 85 44 86
3 85 86 87
3 13 45 23
3 13 46 45
3 7 88 90
3 90 89 36
3 88 89 90
3 91 47 92
3 93 92 27
3 91 92 93
3 95 94 47
3 14 48 28
3 14 96 98
3 98 97 48
3 96 97 98
3 99 49 100
3 101 50 102
3 103 51 104
3 105 104 50
3 103 104 105
3 106 52 107
3 108 107 51
3 106 107 108
3 109 53 110
3 112 111 53
3 113 54 114
3 12 115 117
3 115 55 116
3 115 116 117
3 15 56 31
3 15 57 56
3 15 58 57
3 16 59 33
3 16 60 59
3 118 61 119
3 120 62 121
3 122 63 123
3 124 123 62
3 122 123 124
3 125 64 126
3 127 65 128
3 129 128 64
3 127 128 129
3 131 130 65
3 133 132 5
3 17 18 6
3 19 18 17
3 19 8 18
3 134 20 135
3 136 135 9
3 134 135 136
3 21 137 139
3 137 20 138
3 137 138 139
3 21 10 20
3 21 140 142
3 142 141 10
3 140 141 142
3 22 143 145
3 145 144 21
3 143 144 145
3 22 146 148
3 146 11 147
3 146 147 148
3 22 23 11
3 24 23 22
3 24 13 23
3 25 149 151
3 151 150 7
3 149 150 151
3 26 152 154
3 154 153 25
3 152 153 154
3 26 155 156
3 26 157 158
3 160 159 26
3 161 27 162
3 163 27 164
3 166 165 27
3 167 28 168
3 29 169 171
3 169 28 170
3 169 170 171
3 29 14 28
3 30 31 12
3 32 31 30
3 32 15 31
3 32 33 15
3 34 33 32
3 34 16 33
3 173 172 5
3 35 36 2
3 37 36 35
3 37 7 36
3 18 37 6
3 38 37 18
3 38 7 37
3 38 25 7
3 39 25 38
3 39 3 25
3 40 174 176
3 174 175 176
3 40 177 178
3 20 40 9
3 41 40 20
3 41 179 181
3 181 180 40
3 179 180 181
3 41 182 183
3 42 184 186
3 186 185 41
3 184 185 186
3 42 187 189
3 187 188 189
3 42 190 191
3 43 192 194
3 194 193 42
3 192 193 194
3 43 195 196
3 197 43 198
3 199 198 10
3 197 198 199
3 200 43 201
3 203 202 43
3 44 204 205
3 44 206 208
3 206 12 207
3 206 207 208
3 23 44 11
3 45 44 23
3 45 12 44
3 45 30 12
3 46 30 45
3 46 4 30
3 210 209 0
3 211 9 212
3 213 9 214
3 216 215 9
3 217 1 218
3 220 219 1
3 36 221 223
3 223 222 2
3 221 222 223
3 225 224 36
3 227 226 7
3 228 19 229
3 230 229 0
3 228 229 230
3 231 19 232
3 233 8 234
3 235 234 19
3 233 234 235
3 27 236 237
3 47 238 240
3 240 239 27
3 238 239 240
3 47 241 243
3 241 8 242
3 241 242 243
3 47 39 8
3 244 39 245
3 246 245 47
3 244 245 246
3 247 3 248
3 249 248 39
3 247 248 249
3 250 3 251
3 253 252 3
3 254 5 255
3 28 256 257
3 48 258 260
3 260 259 28
3 258 259 260
3 48 261 263
3 261 5 262
3 261 262 263
3 48 264 266
3 266 265 5
3 264 265 266
3 268 267 48
3 49 269 270
3 49 271 272
3 273 49 274
3 50 275 277
3 275 49 276
3 275 276 277
3 50 278 280
3 280 279 49
3 278 279 280
3 50 281 282
3 51 283 285
3 285 284 50
3 283 284 285
3 51 286 287
3 51 288 290
3 288 29 289
3 288 289 290
3 52 29 51
3 52 14 29
3 291 52 292
3 53 293 295
3 293 52 294
3 293 294 295
3 53 14 52
3 53 296 298
3 298 297 14
3 296 297 298
3 300 299 53
3 54 301 302
3 54 303 305
3 303 2 304
3 303 304 305
3 55 306 307
3 55 308 309
3 31 55 12
3 56 55 31
3 56 310 312
3 312 311 55
3 310 311 312
3 56 313 315
3 313 54 314
3 313 314 315
3 57 54 56
3 57 2 54
3 57 35 2
3 58 35 57
3 58 6 35
3 33 58 15
3 59 58 33
3 59 6 58
3 59 17 6
3 60 17 59
3 60 0 17
3 316 24 317
3 318 317 1
3 316 317 318
3 319 24 320
3 321 13 322
3 323 322 24
3 321 322 323
3 324 13 325
3 326 46 327
3 328 327 13
3 326 327 328
3 61 329 331
3 329 46 330
3 329 330 331
3 61 4 46
3 332 61 333
3 62 334 336
3 334 61 335
3 334 335 336
3 62 4 61
3 62 34 4
3 63 34 62
3 63 16 34
3 337 63 338
3 64 339 341
3 339 63 340
3 339 340 341
3 64 16 63
3 64 60 16
3 65 60 64
3 65 0 60
3 65 342 344
3 344 343 0
3 342 343 344
3 346 345 65
