ply
format ascii 1.0
element vertex 175
property float x
property float y
property float z
element face 162
property list uchar int vertex_index
end_header
-8.816068 78.96788 13.594213
-1.356327 86.498276 13.510772
-5.845136 89.410683 3.454483
-11.219787 79.803566 8.980708
-5.136065 83.063683 13.382799
-7.492592 84.265625 8.705955
-3.648046 88.138855 8.493389
-9.794367 85.288223 3.641474
-6.451282 77.502815 18.296204
-2.625168 81.436203 18.206879
-10.543666 76.75531 13.688595
-11.771672 77.12442 11.354138
-10.037725 79.383888 11.344782
-3.295361 84.898491 13.294837
-4.426321 85.598259 11.003052
-2.486033 87.403915 10.982794
-6.75682 86.838791 6.096199
-8.727987 84.715866 6.234512
-7.93691 87.244423 3.651928
-6.943255 74.671799 20.71924
-5.091351 76.834778 20.57946
-4.610355 79.566841 18.137978
-3.359385 78.697838 20.451443
-7.095622 89.640976 1.027769
-5.968351 92.065132 -1.545491
-6.924756 81.056648 13.606935
-8.217258 81.646675 11.14152
-6.303894 83.655212 11.145347
-5.670479 86.013107 8.814453
-4.801167 88.712227 6.087492
-1.537338 89.840431 8.742799
-9.450929 82.142036 8.704691
-10.582528 82.582207 6.307483
-11.649879 83.06958 3.745895
-9.048421 87.701782 1.001194
-10.918272 85.498833 1.289219
-9.346306 76.220726 16.000473
-8.260613 75.390625 18.344248
-7.632069 78.2118 16.042938
-5.867499 80.24575 15.890703
-4.005965 82.185776 15.79767
-2.140708 83.986473 15.747905
-1.485879 80.644913 20.265039
-4.456506 76.332645 21.763054
-5.343633 75.358467 21.807606
-3.590523 77.264175 21.699046
-4.225368 77.766308 20.515452
-4.456506 76.332645 21.763054
-11.999829 78.800998 8.911974
-12.275772 77.461425 10.098689
-11.495729 78.463993 10.167423
-11.763193 80.117203 7.640731
-11.999829 78.800998 8.911974
-4.843942 93.027374 -1.491758
-5.456772 91.882652 -0.311584
-0.54893 90.65208 8.786839
-1.064456 89.407059 9.935016
-8.570229 88.931072 -0.374994
-8.072021 88.671379 1.014482
-7.59383 89.900669 -0.361707
-11.533798 85.51022 0.031531
-10.571324 86.642491 -0.05174
-11.848438 84.365593 1.308643
-11.533798 85.51022 0.031531
-9.582345 74.827008 17.160303
-10.174649 75.102909 16.020054
-0.782434 80.269463 21.335377
-1.731607 79.289597 21.447991
-11.157669 76.939865 12.521366
-11.97759 75.846001 12.460207
-11.363587 75.661445 13.627436
-6.269584 74.276977 21.877496
-7.189502 73.237827 21.856051
-6.017303 75.753288 20.64935
-6.269584 74.276977 21.877496
-5.343633 75.358467 21.807606
-0.973951 87.735981 12.319003
-0.384075 87.429505 13.409319
-12.541421 76.035908 11.288609
-11.97759 75.846001 12.460207
-12.541421 76.035908 11.288609
-12.275772 77.461425 10.098689
-6.020407 90.670574 0.975046
-6.470379 89.52583 2.241126
-5.395164 90.555428 2.188403
-6.531987 90.853054 -0.258861
-6.020407 90.670574 0.975046
-5.456772 91.882652 -0.311584
-7.030195 91.112747 -1.648337
-7.59383 89.900669 -0.361707
-6.531987 90.853054 -0.258861
-5.413782 93.165676 -2.849976
-4.843942 93.027374 -1.491758
-6.534277 92.189953 -2.917204
-5.413782 93.165676 -2.849976
-7.030195 91.112747 -1.648337
-6.534277 92.189953 -2.917204
-1.538803 88.1888 11.055014
-1.92118 86.951096 12.246783
-0.973951 87.735981 12.319003
-2.011686 88.622173 9.862796
-1.538803 88.1888 11.055014
-1.064456 89.407059 9.935016
-1.065953 91.002807 7.594515
-0.54893 90.65208 8.786839
-2.09711 90.206199 7.464875
-1.065953 91.002807 7.594515
-3.152463 89.355412 7.340171
-2.592692 88.989643 8.618094
-2.09711 90.206199 7.464875
-3.729024 89.642098 6.137222
-4.224607 88.425541 7.290441
-3.152463 89.355412 7.340171
-4.305703 89.983711 4.774455
-3.729024 89.642098 6.137222
-4.827687 90.33294 3.45795
-5.323151 89.061455 4.770988
-4.305703 89.983711 4.774455
-5.395164 90.555428 2.188403
-4.827687 90.33294 3.45795
-11.444564 81.506524 6.304119
-11.763193 80.117203 7.640731
-10.901158 81.192887 7.644096
-11.97824 81.75021 5.023325
-11.444564 81.506524 6.304119
-11.116204 82.825894 5.026689
-12.564436 81.819133 3.826342
-11.97824 81.75021 5.023325
-9.636398 87.743965 -0.195752
-8.570229 88.931072 -0.374994
-9.983346 86.600307 1.145207
-9.636398 87.743965 -0.195752
-10.571324 86.642491 -0.05174
-12.214241 83.150967 2.536981
-11.284076 84.284207 2.517557
-11.848438 84.365593 1.308643
-12.564436 81.819133 3.826342
-12.214241 83.150967 2.536981
-10.773329 75.370201 14.864115
-11.363587 75.661445 13.627436
-9.944986 76.488018 14.844534
-10.773329 75.370201 14.864115
-10.174649 75.102909 16.020054
-7.808342 73.697541 20.643159
-7.189502 73.237827 21.856051
-8.467021 74.056953 19.455663
-7.808342 73.697541 20.643159
-7.601934 75.031212 19.531744
-9.039499 74.411957 18.33219
-8.467021 74.056953 19.455663
-8.803459 75.805676 17.17236
-9.582345 74.827008 17.160303
-9.039499 74.411957 18.33219
-2.66836 78.316059 21.541193
-3.590523 77.264175 21.699046
-2.422632 79.671376 20.358241
-2.66836 78.316059 21.541193
-1.731607 79.289597 21.447991
-0.489382 81.618275 20.1773
-0.782434 80.269463 21.335377
-1.155674 82.006527 19.077123
-0.489382 81.618275 20.1773
-1.725318 82.402172 18.048043
-2.055524 81.040558 19.235959
-1.155674 82.006527 19.077123
-1.483089 83.677307 16.818556
-2.382938 82.711338 16.977392
-1.725318 82.402172 18.048043
-1.135187 84.949241 15.675402
-1.483089 83.677307 16.818556
-0.742997 86.205143 14.556836
-1.748518 85.242375 14.629338
-1.135187 84.949241 15.675402
-0.384075 87.429505 13.409319
-0.742997 86.205143 14.556836
3 0 12 10
3 1 15 13
3 2 18 16
3 43 20 44
3 45 22 46
3 47 46 20
3 45 46 47
3 3 48 50
3 50 49 11
3 48 49 50
3 3 51 52
3 53 24 54
3 4 27 25
3 6 28 14
3 6 29 28
3 55 30 56
3 5 31 26
3 7 32 17
3 7 33 32
3 57 34 58
3 59 58 23
3 57 58 59
3 60 35 61
3 63 62 35
3 64 36 65
3 8 37 19
3 8 38 37
3 8 39 38
3 9 40 21
3 9 41 40
3 66 42 67
3 10 68 70
3 68 11 69
3 68 69 70
3 12 11 10
3 12 3 11
3 13 14 4
3 15 14 13
3 15 6 14
3 16 17 5
3 18 17 16
3 18 7 17
3 71 19 72
3 20 73 75
3 73 19 74
3 73 74 75
3 20 8 19
3 20 21 8
3 22 21 20
3 22 9 21
3 77 76 1
3 11 78 79
3 81 80 11
3 82 23 83
3 84 83 2
3 82 83 84
3 24 85 87
3 85 23 86
3 85 86 87
3 24 88 90
3 90 89 23
3 88 89 90
3 91 24 92
3 93 24 94
3 96 95 24
3 25 26 0
3 27 26 25
3 27 5 26
3 14 27 4
3 28 27 14
3 28 5 27
3 28 16 5
3 29 16 28
3 29 2 16
3 97 15 98
3 99 98 1
3 97 98 99
3 30 100 102
3 100 15 101
3 100 101 102
3 30 6 15
3 103 30 104
3 105 30 106
3 107 6 108
3 109 108 30
3 107 108 109
3 110 29 111
3 112 111 6
3 110 111 112
3 113 29 114
3 115 2 116
3 117 116 29
3 115 116 117
3 119 118 2
3 26 12 0
3 31 12 26
3 31 3 12
3 17 31 5
3 32 31 17
3 32 3 31
3 32 120 122
3 122 121 3
3 120 121 122
3 33 123 125
3 125 124 32
3 123 124 125
3 33 126 127
3 23 18 2
3 34 18 23
3 34 7 18
3 128 34 129
3 35 130 132
3 130 34 131
3 130 131 132
3 35 7 34
3 35 33 7
3 133 33 134
3 135 134 35
3 133 134 135
3 137 136 33
3 138 10 139
3 36 140 142
3 140 10 141
3 140 141 142
3 36 0 10
3 19 143 144
3 37 145 147
3 147 146 19
3 145 146 147
3 37 148 149
3 37 150 152
3 150 36 151
3 150 151 152
3 38 36 37
3 38 0 36
3 38 25 0
3 39 25 38
3 39 4 25
3 21 39 8
3 40 39 21
3 40 4 39
3 40 13 4
3 41 13 40
3 41 1 13
3 153 22 154
3 42 155 157
3 155 22 156
3 155 156 157
3 42 9 22
3 158 42 159
3 160 42 161
3 162 9 163
3 164 163 42
3 162 163 164
3 165 41 166
3 167 166 9
3 165 166 167
3 168 41 169
3 170 1 171
3 172 171 41
3 170 171 172
3 174 173 1
