ply
format ascii 1.0
element vertex 65
property float x
property float y
property float z
element face 47
property list uchar int vertex_index
end_header
-35.602772 -20.777082 16.563877
-35.37492 -14.186156 20.383707
-36.095798 -13.570411 18.345694
-35.520538 -17.522486 18.630461
-34.856617 -18.194395 20.51557
-35.003426 -21.184126 18.679302
-35.405663 -24.292044 14.653295
-35.83765 -10.104767 20.270731
-35.561655 -19.149784 17.597169
-35.842167 -17.29956 17.562869
-35.883284 -18.926858 16.529577
-35.263452 -22.623556 16.746533
-34.96378 -22.827078 17.804246
-35.303099 -20.980604 17.621589
-35.213457 -12.598032 21.294258
-35.444822 -10.557337 21.23777
-35.606285 -12.145461 20.327219
-34.986668 -14.569495 21.37088
-35.213457 -12.598032 21.294258
-34.505968 -18.311446 21.519174
-34.590914 -19.971356 20.631811
-35.06123 -26.021498 14.771701
-35.239497 -25.867513 13.698294
-36.129796 -15.323522 17.420486
-36.428488 -13.275524 17.289488
-35.808168 -15.546449 18.488078
-36.129796 -15.323522 17.420486
-35.842167 -17.29956 17.562869
-34.664319 -21.466222 19.713677
-34.590914 -19.971356 20.631811
-34.930021 -19.68926 19.597436
-34.69327 -23.099129 18.768671
-34.664319 -21.466222 19.713677
-34.69327 -23.099129 18.768671
-34.96378 -22.827078 17.804246
-35.850269 -20.642533 15.508778
-35.883284 -18.926858 16.529577
-35.751715 -22.400014 14.553486
-35.504217 -22.534563 15.608586
-35.850269 -20.642533 15.508778
-35.627663 -23.954462 13.635568
-35.751715 -22.400014 14.553486
-35.239497 -25.867513 13.698294
-35.627663 -23.954462 13.635568
-36.362995 -11.494091 18.202544
-36.428488 -13.275524 17.289488
-36.233921 -9.761268 19.165062
-36.362995 -11.494091 18.202544
-35.966724 -11.837589 19.308213
-36.088741 -8.109509 20.056945
-36.233921 -9.761268 19.165062
-35.685575 -8.42006 21.100158
-36.088741 -8.109509 20.056945
-35.685575 -8.42006 21.100158
-35.444822 -10.557337 21.23777
-34.727516 -16.573614 21.436812
-34.986668 -14.569495 21.37088
-35.115769 -16.190275 20.449638
-34.727516 -16.573614 21.436812
-34.505968 -18.311446 21.519174
-35.164898 -24.381037 15.791242
-35.263452 -22.623556 16.746533
-35.504217 -22.534563 15.608586
-35.164898 -24.381037 15.791242
-35.06123 -26.021498 14.771701
3 0 8 10
3 8 3 9
3 8 9 10
3 0 5 3
3 0 11 13
3 13 12 5
3 11 12 13
3 1 7 2
3 1 14 16
3 16 15 7
3 14 15 16
3 1 17 18
3 20 19 4
3 22 21 6
3 23 2 24
3 3 25 27
3 25 2 26
3 25 26 27
3 3 1 2
3 3 4 1
3 5 4 3
3 5 28 30
3 30 29 4
3 28 29 30
3 5 31 32
3 34 33 5
3 35 0 36
3 37 6 38
3 39 38 0
3 37 38 39
3 40 6 41
3 43 42 6
3 2 44 45
3 7 46 48
3 48 47 2
3 46 47 48
3 7 49 50
3 7 51 52
3 54 53 7
3 4 55 57
3 57 56 1
3 55 56 57
3 59 58 4
3 6 60 62
3 62 61 0
3 60 61 62
3 64 63 6
