ply
format ascii 1.0
element vertex 477
property float x
property float y
property float z
element face 521
property list uchar int vertex_index
end_header
28.26264 27.20348 -59.803776
12.40216 29.470182 -69.584229
25.885391 12.901059 -70.331955
14.160055 34.945221 -62.1563
20.862814 30.432262 -66.592545
19.218931 23.310106 -72.269218
27.592367 22.52809 -67.409126
6.652677 33.162342 -63.365078
5.193264 24.683403 -67.696266
34.278999 17.908381 -58.964634
24.819929 30.307535 -58.82198
21.27195 32.068111 -62.404282
24.841261 29.23443 -63.631645
24.309872 26.913759 -67.612785
28.169298 25.463573 -64.078575
13.170174 32.682095 -66.374016
10.324112 34.595055 -63.22625
9.363743 31.342848 -66.810081
5.876871 29.188263 -66.081619
8.503469 27.561768 -69.146927
7.805839 22.812798 -70.49559
22.542471 18.77574 -71.88781
36.390953 14.951215 -53.972595
33.974552 14.739419 -62.05098
36.045441 7.987721 -60.01115
17.871748 34.290966 -60.122261
17.311832 32.951874 -64.818291
16.473003 30.520536 -68.696678
15.732861 26.872883 -71.493164
20.002258 27.557709 -70.059341
23.614697 23.210972 -70.383331
26.940033 18.080448 -69.445061
7.717324 36.479256 -59.964401
4.33689 34.947739 -60.201073
3.503626 30.835701 -62.701019
2.84094 26.296265 -64.370979
31.108263 24.364326 -55.254452
34.063869 20.01952 -54.883167
31.532309 23.085693 -59.599281
31.221857 20.666122 -63.584019
30.748594 16.637402 -66.169365
29.768728 12.012524 -67.697067
28.552561 6.129224 -68.059029
26.644581 28.814739 -59.327736
24.930401 29.908401 -61.259338
26.590982 28.381725 -61.695366
26.612595 27.476673 -63.82317
28.368721 26.414793 -61.979412
12.819632 31.105801 -68.210014
11.228525 32.109867 -66.763069
10.771897 30.406878 -68.312378
8.933672 29.466097 -68.180473
10.468771 28.553232 -69.601471
9.853015 26.487207 -70.457901
11.846415 27.431023 -70.758453
24.217447 15.891437 -71.25914
36.336811 10.136719 -58.785507
19.690882 33.605919 -58.493752
21.069075 31.384092 -64.652138
19.264261 32.647991 -63.756256
18.905462 31.819551 -65.875343
16.874022 31.852654 -66.924843
18.68676 30.612694 -67.796036
18.232042 29.184244 -69.486504
20.444698 29.082575 -68.550247
26.055609 24.890894 -67.530785
23.965036 25.253073 -69.149048
25.630735 23.021351 -69.017525
25.255157 20.827904 -70.074203
27.287302 20.44384 -68.595917
14.374416 35.766014 -59.811626
12.612229 35.82621 -60.842857
8.468931 33.829262 -63.63483
8.966242 35.450104 -61.667107
7.280224 34.849251 -61.865929
6.070855 35.849709 -60.202492
5.471135 33.989834 -61.774342
3.887911 32.903316 -61.568604
5.090261 31.990429 -63.27515
5.53549 27.073992 -67.008179
4.27 27.703016 -65.368317
3.967481 25.464836 -66.051239
3.755447 23.107164 -66.562958
9.221377 21.485275 -71.599068
17.401596 25.209332 -72.052246
15.163807 24.641239 -72.421852
35.376198 16.554075 -56.651966
35.298714 17.552578 -54.625507
34.21077 19.186487 -57.026764
32.836929 21.714661 -57.268963
32.935894 20.669828 -59.417801
31.485939 21.974819 -61.701477
32.871983 19.360552 -61.306713
33.681496 12.536137 -63.240288
32.385315 15.853809 -64.266541
32.059975 13.599341 -65.253853
30.389215 14.340158 -66.98735
31.626343 11.014199 -65.988663
23.022448 31.584591 -58.010227
21.33886 32.537861 -59.713516
23.084446 31.337952 -60.619652
23.088844 30.774553 -63.002312
22.898943 29.957058 -65.220886
22.481474 28.788553 -67.371223
24.589342 28.294838 -65.711327
26.314247 26.347883 -65.898613
28.029886 24.004044 -65.861229
13.635941 33.973907 -64.328018
12.138146 34.898861 -62.840172
11.663157 33.612778 -64.915573
9.751546 33.069759 -65.113197
7.942637 32.1633 -65.198753
6.309108 31.190796 -64.934319
7.536217 30.260632 -66.641418
7.115584 28.384626 -67.659943
6.807665 26.2131 -68.581329
6.444367 23.733667 -69.198982
8.060308 25.124588 -69.980171
20.931973 20.99007 -72.235733
36.502754 13.62056 -55.757469
35.475624 15.001388 -58.216251
34.218517 16.407833 -60.573395
35.384357 13.236418 -59.736996
35.0527 11.380279 -61.183815
34.823158 8.801751 -62.072746
15.954402 34.798359 -61.178581
19.550989 33.254902 -61.233509
17.565735 33.771809 -62.558285
15.705811 33.961227 -63.605129
15.318619 32.929985 -65.763153
14.741143 31.732271 -67.576225
14.519094 30.069538 -69.330322
13.894685 28.234507 -70.684509
16.103783 28.797726 -70.270462
17.925014 27.342192 -70.909714
19.677979 25.5063 -71.343193
22.206472 27.277985 -69.023392
21.82028 25.535286 -70.382034
21.445377 23.458736 -71.435089
23.047222 21.228451 -71.287651
24.667879 18.631979 -70.854576
26.321981 15.765289 -70.104721
26.424349 29.062464 -56.939674
28.154449 27.557304 -57.399586
10.75631 35.847855 -61.213875
9.431326 36.819286 -59.613049
8.178365 37.905441 -58.015503
6.467839 37.574013 -58.365643
4.75338 36.890324 -58.64267
2.787381 34.07991 -59.875027
4.640653 29.881056 -64.444366
3.054019 28.526157 -63.589901
13.564878 26.313061 -71.6707
29.58095 26.042662 -55.046715
29.719604 25.937794 -57.551781
34.984837 18.440208 -52.485786
32.585804 22.397745 -55.141075
31.236412 24.066765 -57.584816
29.937199 25.286951 -59.772915
29.993853 24.360083 -61.82251
29.803097 23.275856 -63.741028
29.585808 21.555431 -65.528748
32.737717 17.741945 -62.833057
31.150503 18.72913 -64.895729
29.29332 19.730604 -66.832802
28.962889 17.553076 -67.833138
28.411558 15.165916 -68.65892
27.933945 12.350042 -69.080772
29.105152 9.121027 -68.089653
27.224487 9.583654 -69.312004
24.764555 13.066735 -70.861999
23.930583 14.561924 -71.325592
25.051419 14.396248 -70.795547
25.497013 11.501537 -70.375572
24.764555 13.066735 -70.861999
20.576181 33.102213 -57.76367
19.731126 33.631937 -57.2093
5.096385 23.477191 -67.93996
4.377477 22.689072 -67.373306
4.474355 23.895283 -67.129612
9.05209 20.203617 -71.615204
10.042756 20.885174 -72.023258
18.081449 23.103214 -72.535618
17.172781 24.052827 -72.427132
18.310264 24.259719 -72.160732
32.680004 11.823846 -64.687588
32.870736 13.067739 -64.247071
33.490765 11.292243 -63.680806
32.463189 10.531274 -65.054993
31.843159 12.30677 -65.621258
32.680004 11.823846 -64.687588
9.71254 25.285796 -70.836796
10.670134 25.832404 -71.052727
21.456457 18.64074 -72.273411
20.651208 19.747906 -72.447373
21.737222 19.882905 -72.061771
36.48336 12.856171 -56.57118
36.97421 12.00646 -55.370192
35.969795 13.546585 -57.800572
35.989189 14.310974 -56.98686
36.48336 12.856171 -56.57118
35.924161 12.6641 -58.560944
35.429991 14.118903 -58.976624
35.969795 13.546585 -57.800572
17.053539 34.797235 -59.481772
17.932472 34.465929 -58.802366
16.913075 34.544663 -60.650421
16.094866 35.050932 -60.009932
17.053539 34.797235 -59.481772
27.220582 28.281183 -55.873498
26.343061 28.957593 -55.558757
28.085632 27.528603 -56.103454
27.289399 28.309884 -57.16963
27.220582 28.281183 -55.873498
3.756755 35.624872 -59.341811
3.965 36.596165 -58.562609
4.545135 35.919032 -59.421872
3.562136 34.513824 -60.03805
2.982 35.190958 -59.178787
3.756755 35.624872 -59.341811
2.932993 31.357111 -61.833793
3.125135 32.390918 -61.267586
3.695768 31.869508 -62.134811
2.781668 30.27047 -62.294101
2.932993 31.357111 -61.833793
2.321152 26.769005 -63.541769
2.427691 27.883951 -63.15123
2.94748 27.411211 -63.98044
2.243874 25.471315 -63.88014
2.321152 26.769005 -63.541769
7.040348 21.978507 -70.057148
6.359612 22.438942 -69.408844
7.125103 23.273232 -69.847286
14.133436 24.214883 -72.448986
15.003459 23.409174 -72.714935
30.344607 25.203494 -55.150583
30.195919 25.225613 -53.922428
30.959575 24.386445 -54.026297
36.293829 15.412166 -52.978517
36.785799 14.09976 -52.78976
33.88695 20.331713 -53.779325
34.347434 19.542057 -52.580635
34.524353 19.229864 -53.684477
33.324837 21.208633 -55.012121
33.147917 21.520826 -53.908279
33.88695 20.331713 -53.779325
28.828857 7.625125 -68.074341
29.735234 7.479857 -67.44878
29.458939 5.983956 -67.433468
27.522728 6.425503 -68.650925
26.858691 8.152718 -69.277412
27.888524 7.856439 -68.685517
11.666835 26.304312 -71.203002
10.670134 25.832404 -71.052727
10.849715 26.959115 -70.608177
23.166852 15.965715 -71.690838
22.329364 17.407866 -72.005173
23.379959 17.333588 -71.573475
23.166852 15.965715 -71.690838
23.930583 14.561924 -71.325592
36.853996 9.429384 -57.60943
36.400388 11.114251 -58.0852
36.766624 8.329643 -58.259134
36.853996 9.429384 -57.60943
36.620939 7.255143 -58.871955
36.191126 9.06222 -59.398329
36.766624 8.329643 -58.259134
18.842039 34.123406 -57.988112
19.731126 33.631937 -57.2093
18.781315 33.948442 -59.308007
17.932472 34.465929 -58.802366
18.842039 34.123406 -57.988112
13.652976 36.245458 -59.112302
14.53886 36.054749 -58.57175
12.771882 36.275557 -59.627918
13.652976 36.245458 -59.112302
13.493322 35.796112 -60.327241
11.913663 36.35585 -59.977661
12.771882 36.275557 -59.627918
3.306526 24.613619 -65.509716
2.743255 25.029334 -64.669586
3.40421 25.88055 -65.211109
3.200509 23.434784 -65.765575
3.306526 24.613619 -65.509716
3.861464 24.286 -66.307098
3.187776 22.206235 -66.014301
3.200509 23.434784 -65.765575
3.706949 21.761035 -66.758457
3.187776 22.206235 -66.014301
3.706949 21.761035 -66.758457
4.377477 22.689072 -67.373306
8.395497 20.831183 -71.174164
7.687728 21.494944 -70.622425
8.513608 22.149037 -71.047329
8.395497 20.831183 -71.174164
9.05209 20.203617 -71.615204
16.053887 23.76878 -72.611935
16.282702 24.925286 -72.237049
17.172781 24.052827 -72.427132
15.003459 23.409174 -72.714935
16.053887 23.76878 -72.611935
31.714549 23.500045 -54.055073
30.959575 24.386445 -54.026297
29.066598 4.424349 -67.426701
29.458939 5.983956 -67.433468
28.082754 4.684127 -68.023961
29.066598 4.424349 -67.426701
22.180654 32.061226 -58.861871
21.400171 32.568184 -58.373552
22.241965 32.091549 -57.521907
8.816187 24.604487 -70.597931
8.956661 25.805898 -70.219036
9.71254 25.285796 -70.836796
8.688952 23.448591 -70.855641
7.933073 23.968693 -70.237881
8.816187 24.604487 -70.597931
9.396721 22.78483 -71.40738
8.513608 22.149037 -71.047329
8.688952 23.448591 -70.855641
10.130312 22.133757 -71.883793
9.396721 22.78483 -71.40738
10.042756 20.885174 -72.023258
10.130312 22.133757 -71.883793
19.812131 20.978144 -72.549804
18.95561 22.138162 -72.566547
20.075452 22.150088 -72.252476
19.812131 20.978144 -72.549804
20.651208 19.747906 -72.447373
21.456457 18.64074 -72.273411
22.329364 17.407866 -72.005173
36.876217 13.450997 -53.717384
36.785799 14.09976 -52.78976
36.932118 12.78567 -54.609821
36.97421 12.00646 -55.370192
36.446854 14.285887 -54.865032
36.876217 13.450997 -53.717384
36.932118 12.78567 -54.609821
35.860584 11.686568 -59.261252
35.924161 12.6641 -58.560944
36.400388 11.114251 -58.0852
34.061596 9.42505 -63.097035
33.490765 11.292243 -63.680806
34.252327 10.668944 -62.656517
15.304873 35.534759 -59.326454
14.53886 36.054749 -58.57175
15.164409 35.282186 -60.495103
15.304873 35.534759 -59.326454
16.094866 35.050932 -60.009932
20.514871 33.07189 -59.103634
20.576181 33.102213 -57.76367
21.400171 32.568184 -58.373552
23.011502 31.513973 -56.600752
22.241965 32.091549 -57.521907
23.857669 30.961636 -57.103558
23.011502 31.513973 -56.600752
24.756409 30.323109 -57.509434
23.921188 30.946063 -58.416104
23.857669 30.961636 -57.103558
25.558619 29.700573 -56.568281
26.343061 28.957593 -55.558757
25.622139 29.684999 -57.880827
24.756409 30.323109 -57.509434
25.558619 29.700573 -56.568281
10.985703 36.366672 -60.16317
11.913663 36.35585 -59.977661
11.684269 35.837033 -61.028366
10.323211 36.852388 -59.362757
10.985703 36.366672 -60.16317
10.093818 36.333571 -60.413462
9.647184 37.402963 -58.554396
10.323211 36.852388 -59.362757
9.020703 37.946041 -57.755623
9.647184 37.402963 -58.554396
8.804845 37.362364 -58.814276
8.449949 38.535162 -56.998282
9.020703 37.946041 -57.755623
7.607748 38.506382 -57.268608
8.449949 38.535162 -56.998282
6.752485 38.340668 -57.443678
7.607748 38.506382 -57.268608
7.323102 37.739727 -58.190573
5.909707 38.173405 -57.646004
6.752485 38.340668 -57.443678
5.052478 37.83156 -57.784517
5.909707 38.173405 -57.646004
5.610609 37.232169 -58.504157
4.217268 37.628172 -57.838059
5.052478 37.83156 -57.784517
4.217268 37.628172 -57.838059
3.965 36.596165 -58.562609
2.220959 34.717928 -59.096975
2.982 35.190958 -59.178787
2.042314 33.522869 -59.657347
2.220959 34.717928 -59.096975
2.57487 32.979215 -60.420798
3.337646 33.491613 -60.721816
3.125135 32.390918 -61.267586
2.042314 33.522869 -59.657347
2.57487 32.979215 -60.420798
2.556864 29.115698 -62.738542
2.781668 30.27047 -62.294101
3.278822 29.680929 -63.14546
2.556864 29.115698 -62.738542
2.427691 27.883951 -63.15123
2.243874 25.471315 -63.88014
2.743255 25.029334 -64.669586
5.721936 23.002323 -68.691318
5.096385 23.477191 -67.93996
5.818815 24.208535 -68.447624
5.721936 23.002323 -68.691318
6.359612 22.438942 -69.408844
7.040348 21.978507 -70.057148
7.687728 21.494944 -70.622425
12.526066 25.745331 -71.659126
11.666835 26.304312 -71.203002
12.705647 26.872042 -71.214576
13.333971 25.050795 -72.07341
14.364342 25.47715 -72.046276
14.133436 24.214883 -72.448986
12.526066 25.745331 -71.659126
13.333971 25.050795 -72.07341
18.081449 23.103214 -72.535618
18.95561 22.138162 -72.566547
29.350298 26.034943 -53.755104
30.195919 25.225613 -53.922428
28.798883 26.771282 -54.927019
29.350298 26.034943 -53.755104
28.8677 26.799983 -56.223151
28.085632 27.528603 -56.103454
28.798883 26.771282 -54.927019
35.747709 16.712847 -53.304974
36.293829 15.412166 -52.978517
35.844834 16.251897 -54.299051
35.590771 17.156662 -52.235113
35.747709 16.712847 -53.304974
35.141775 17.996393 -53.555646
35.37831 17.59583 -51.301809
35.590771 17.156662 -52.235113
34.796667 18.646553 -51.287309
35.37831 17.59583 -51.301809
34.796667 18.646553 -51.287309
34.347434 19.542057 -52.580635
32.45332 22.516754 -53.998385
33.147917 21.520826 -53.908279
31.847034 23.381035 -55.197764
31.714549 23.500045 -54.055073
32.45332 22.516754 -53.998385
36.483603 6.019497 -59.367183
36.620939 7.255143 -58.871955
35.865303 6.669156 -60.465768
36.483603 6.019497 -59.367183
35.254161 7.076171 -61.496567
35.434299 8.394736 -61.041948
35.865303 6.669156 -60.465768
34.559507 7.657846 -62.513076
35.254161 7.076171 -61.496567
34.061596 9.42505 -63.097035
34.559507 7.657846 -62.513076
32.215601 9.159148 -65.367051
32.463189 10.531274 -65.054993
31.343247 9.718839 -66.243496
32.215601 9.159148 -65.367051
30.41444 10.218001 -67.097698
30.697536 11.513362 -66.842865
31.343247 9.718839 -66.243496
30.082652 8.772253 -67.293991
29.735234 7.479857 -67.44878
29.43694 10.566776 -67.89336
30.41444 10.218001 -67.097698
30.082652 8.772253 -67.293991
26.166561 9.842834 -69.865597
25.497013 11.501537 -70.375572
26.554939 11.242356 -69.821979
26.166561 9.842834 -69.865597
26.858691 8.152718 -69.277412
27.522728 6.425503 -68.650925
28.082754 4.684127 -68.023961
3 0 45 43
3 0 47 45
3 1 50 48
3 1 52 50
3 1 54 52
3 2 170 172
3 172 171 55
3 170 171 172
3 2 173 174
3 175 57 176
3 4 60 58
3 4 62 60
3 4 64 62
3 6 67 65
3 6 69 67
3 3 71 70
3 7 74 72
3 7 76 74
3 7 78 76
3 8 81 79
3 8 82 81
3 8 177 179
3 179 178 82
3 177 178 179
3 181 180 83
3 5 182 184
3 184 183 84
3 182 183 184
3 9 88 86
3 9 90 88
3 9 92 90
3 185 95 186
3 187 186 93
3 185 186 187
3 188 97 189
3 190 189 95
3 188 189 190
3 10 100 98
3 12 101 44
3 12 102 101
3 12 104 102
3 14 105 46
3 14 106 105
3 15 109 107
3 17 110 49
3 17 111 110
3 17 113 111
3 19 114 51
3 19 115 114
3 19 117 115
3 192 191 53
3 21 193 195
3 195 194 118
3 193 194 195
3 196 119 197
3 198 120 199
3 200 199 119
3 198 199 200
3 201 122 202
3 203 202 120
3 201 202 203
3 24 123 56
3 24 124 123
3 25 204 205
3 25 206 208
3 206 125 207
3 206 207 208
3 11 126 99
3 26 127 59
3 26 128 127
3 26 129 128
3 27 130 61
3 27 131 130
3 27 133 131
3 29 134 63
3 29 135 134
3 13 136 103
3 30 137 66
3 30 138 137
3 30 139 138
3 31 140 68
3 31 141 140
3 209 142 210
3 211 143 212
3 213 212 142
3 211 212 213
3 16 144 108
3 32 145 73
3 32 146 145
3 32 147 146
3 33 148 75
3 33 214 216
3 216 215 148
3 214 215 216
3 33 217 219
3 217 149 218
3 217 218 219
3 34 220 222
3 222 221 77
3 220 221 222
3 34 223 224
3 18 150 112
3 35 151 80
3 35 225 227
3 227 226 151
3 225 226 227
3 35 228 229
3 20 230 232
3 232 231 116
3 230 231 232
3 28 152 132
3 234 233 85
3 36 235 237
3 235 153 236
3 235 236 237
3 36 154 153
3 22 238 239
3 37 155 87
3 37 240 242
3 242 241 155
3 240 241 242
3 37 243 245
3 243 156 244
3 243 244 245
3 38 157 89
3 38 158 157
3 38 159 158
3 39 160 91
3 39 161 160
3 23 162 121
3 40 163 94
3 40 164 163
3 40 165 164
3 41 166 96
3 41 167 166
3 42 246 248
3 246 168 247
3 246 247 248
3 42 169 168
3 42 249 251
3 251 250 169
3 249 250 251
3 43 44 10
3 45 44 43
3 45 12 44
3 45 46 12
3 47 46 45
3 47 14 46
3 48 49 15
3 50 49 48
3 50 17 49
3 50 51 17
3 52 51 50
3 52 19 51
3 52 53 19
3 54 53 52
3 54 252 254
3 254 253 53
3 252 253 254
3 55 255 257
3 257 256 21
3 255 256 257
3 259 258 55
3 260 56 261
3 262 56 263
3 264 24 265
3 266 265 56
3 264 265 266
3 57 267 268
3 57 269 271
3 269 25 270
3 269 270 271
3 58 59 11
3 60 59 58
3 60 26 59
3 60 61 26
3 62 61 60
3 62 27 61
3 62 63 27
3 64 63 62
3 64 29 63
3 65 66 13
3 67 66 65
3 67 30 66
3 67 68 30
3 69 68 67
3 69 31 68
3 70 272 273
3 71 274 276
3 276 275 70
3 274 275 276
3 71 277 278
3 72 73 16
3 74 73 72
3 74 32 73
3 74 75 32
3 76 75 74
3 76 33 75
3 76 77 33
3 78 77 76
3 78 34 77
3 79 80 18
3 81 80 79
3 81 35 80
3 81 279 281
3 281 280 35
3 279 280 281
3 82 282 284
3 284 283 81
3 282 283 284
3 82 285 286
3 82 287 288
3 290 289 82
3 83 291 293
3 293 292 20
3 291 292 293
3 295 294 83
3 84 85 28
3 296 85 297
3 298 297 84
3 296 297 298
3 300 299 85
3 301 36 302
3 86 87 22
3 88 87 86
3 88 37 87
3 88 89 37
3 90 89 88
3 90 38 89
3 90 91 38
3 92 91 90
3 92 39 91
3 93 94 23
3 95 94 93
3 95 40 94
3 95 96 40
3 97 96 95
3 97 41 96
3 303 42 304
3 306 305 42
3 98 307 309
3 307 99 308
3 307 308 309
3 100 99 98
3 100 11 99
3 44 100 10
3 101 100 44
3 101 11 100
3 101 58 11
3 102 58 101
3 102 4 58
3 102 103 4
3 104 103 102
3 104 13 103
3 46 104 12
3 105 104 46
3 105 13 104
3 105 65 13
3 106 65 105
3 106 6 65
3 107 108 3
3 109 108 107
3 109 16 108
3 49 109 15
3 110 109 49
3 110 16 109
3 110 72 16
3 111 72 110
3 111 7 72
3 111 112 7
3 113 112 111
3 113 18 112
3 51 113 17
3 114 113 51
3 114 18 113
3 114 79 18
3 115 79 114
3 115 8 79
3 115 116 8
3 117 116 115
3 117 20 116
3 53 117 19
3 310 117 311
3 312 311 53
3 310 311 312
3 313 20 314
3 315 314 117
3 313 314 315
3 316 83 317
3 318 317 20
3 316 317 318
3 319 83 320
3 322 321 83
3 118 323 325
3 325 324 5
3 323 324 325
3 327 326 118
3 329 328 21
3 330 22 331
3 119 332 333
3 119 334 336
3 334 22 335
3 334 335 336
3 119 86 22
3 120 86 119
3 120 9 86
3 120 121 9
3 122 121 120
3 122 23 121
3 56 337 339
3 337 122 338
3 337 338 339
3 123 122 56
3 123 23 122
3 123 93 23
3 124 93 123
3 124 340 342
3 342 341 93
3 340 341 342
3 343 70 344
3 125 345 347
3 345 70 346
3 345 346 347
3 125 3 70
3 99 348 350
3 348 57 349
3 348 349 350
3 126 57 99
3 126 25 57
3 59 126 11
3 127 126 59
3 127 25 126
3 127 125 25
3 128 125 127
3 128 3 125
3 128 107 3
3 129 107 128
3 129 15 107
3 61 129 26
3 130 129 61
3 130 15 129
3 130 48 15
3 131 48 130
3 131 1 48
3 131 132 1
3 133 132 131
3 133 28 132
3 63 133 27
3 134 133 63
3 134 28 133
3 134 84 28
3 135 84 134
3 135 5 84
3 103 64 4
3 136 64 103
3 136 29 64
3 66 136 13
3 137 136 66
3 137 29 136
3 137 135 29
3 138 135 137
3 138 5 135
3 138 118 5
3 139 118 138
3 139 21 118
3 68 139 30
3 140 139 68
3 140 21 139
3 140 55 21
3 141 55 140
3 141 2 55
3 351 98 352
3 353 98 354
3 355 10 356
3 357 356 98
3 355 356 357
3 142 358 359
3 142 360 362
3 360 10 361
3 360 361 362
3 142 43 10
3 143 43 142
3 143 0 43
3 108 71 3
3 144 71 108
3 144 363 365
3 365 364 71
3 363 364 365
3 73 144 16
3 145 144 73
3 145 366 368
3 368 367 144
3 366 367 368
3 145 369 370
3 146 371 373
3 373 372 145
3 371 372 373
3 146 374 375
3 146 376 377
3 147 378 380
3 380 379 146
3 378 379 380
3 147 381 382
3 75 147 32
3 148 147 75
3 148 383 385
3 385 384 147
3 383 384 385
3 148 386 387
3 389 388 148
3 149 390 391
3 149 392 393
3 77 149 33
3 394 149 395
3 396 395 77
3 394 395 396
3 398 397 149
3 112 78 7
3 150 78 112
3 150 34 78
3 80 150 18
3 151 150 80
3 151 34 150
3 151 399 401
3 401 400 34
3 399 400 401
3 403 402 151
3 405 404 35
3 116 406 408
3 408 407 8
3 406 407 408
3 410 409 116
3 412 411 20
3 132 54 1
3 152 54 132
3 152 413 415
3 415 414 54
3 413 414 415
3 85 152 28
3 416 152 417
3 418 417 85
3 416 417 418
3 420 419 152
3 422 421 5
3 153 423 424
3 153 425 426
3 153 427 429
3 427 143 428
3 427 428 429
3 154 143 153
3 154 0 143
3 87 430 432
3 432 431 22
3 430 431 432
3 155 433 435
3 435 434 87
3 433 434 435
3 155 436 437
3 155 438 439
3 441 440 155
3 156 442 443
3 156 444 446
3 444 36 445
3 444 445 446
3 89 156 37
3 157 156 89
3 157 36 156
3 157 154 36
3 158 154 157
3 158 0 154
3 158 47 0
3 159 47 158
3 159 14 47
3 91 159 38
3 160 159 91
3 160 14 159
3 160 106 14
3 161 106 160
3 161 6 106
3 121 92 9
3 162 92 121
3 162 39 92
3 94 162 23
3 163 162 94
3 163 39 162
3 163 161 39
3 164 161 163
3 164 6 161
3 164 69 6
3 165 69 164
3 165 31 69
3 96 165 40
3 166 165 96
3 166 31 165
3 166 141 31
3 167 141 166
3 167 2 141
3 447 24 448
3 449 24 450
3 451 124 452
3 453 452 24
3 451 452 453
3 454 124 455
3 457 456 124
3 458 97 459
3 460 97 461
3 462 41 463
3 464 463 97
3 462 463 464
3 168 465 466
3 168 467 469
3 467 41 468
3 467 468 469
3 168 167 41
3 169 167 168
3 169 2 167
3 169 470 472
3 472 471 2
3 470 471 472
3 474 473 169
3 476 475 42
