ply
format ascii 1.0
element vertex 93
property float x
property float y
property float z
element face 68
property list uchar int vertex_index
end_header
10.028214 59.508213 -36.381958
7.898922 63.009655 -39.753983
8.444037 56.622944 -40.077496
8.904675 64.59153 -38.128277
8.221128 59.709839 -39.742191
9.297739 57.983368 -38.091148
5.017063 57.427269 -44.725395
6.521947 56.192669 -43.293571
6.948599 61.206802 -41.370113
7.276873 58.207897 -41.574951
7.778971 55.030754 -41.817986
9.544069 60.400921 -37.237135
9.98379 61.088114 -36.419534
9.662976 58.74579 -37.236553
9.178832 59.638498 -38.09173
9.544069 60.400921 -37.237135
10.085796 57.959961 -36.442669
9.720558 57.197539 -37.297264
9.662976 58.74579 -37.236553
5.48979 58.400272 -43.895458
4.747901 58.963183 -44.586729
6.242232 57.782972 -43.179546
5.769505 56.809969 -44.009483
5.48979 58.400272 -43.895458
7.793249 64.590693 -39.751194
8.296125 65.38163 -38.938341
8.401798 63.800593 -38.94113
7.201121 63.68846 -40.601349
7.793249 64.590693 -39.751194
7.423761 62.108229 -40.562048
6.725959 62.787033 -41.409414
7.201121 63.68846 -40.601349
8.675038 55.039966 -40.220465
8.342506 54.243871 -41.09071
8.111504 55.826849 -40.947741
9.42202 63.629773 -37.292694
9.428156 65.255364 -37.306494
8.9823 62.94258 -38.110294
9.42202 63.629773 -37.292694
8.479423 62.151642 -38.923147
8.401798 63.800593 -38.94113
8.9823 62.94258 -38.110294
8.640526 60.501734 -38.917251
8.060025 61.359747 -39.748087
8.479423 62.151642 -38.923147
8.759434 58.846604 -38.916669
8.640526 60.501734 -38.917251
9.178832 59.638498 -38.09173
9.386388 56.496115 -38.276342
8.959537 55.815903 -39.269516
8.870888 57.303156 -39.084322
9.386388 56.496115 -38.276342
9.720558 57.197539 -37.297264
10.424705 60.173813 -35.543066
9.98379 61.088114 -36.419534
10.418647 58.456724 -35.549031
10.424705 60.173813 -35.543066
4.275014 57.833161 -45.335932
4.747901 58.963183 -44.586729
4.641221 56.247546 -45.521097
4.275014 57.833161 -45.335932
5.36249 55.973393 -44.862201
4.641221 56.247546 -45.521097
6.114931 55.356093 -44.14629
5.36249 55.973393 -44.862201
5.769505 56.809969 -44.009483
6.800649 54.705944 -43.523037
6.114931 55.356093 -44.14629
8.853786 66.230408 -38.150152
9.428156 65.255364 -37.306494
8.853786 66.230408 -38.150152
8.296125 65.38163 -38.938341
6.231049 61.827362 -42.146933
6.725959 62.787033 -41.409414
6.455558 60.290039 -42.217817
6.231049 61.827362 -42.146933
6.619695 58.790587 -42.320236
6.455558 60.290039 -42.217817
7.112736 59.70735 -41.472532
6.89941 57.200283 -42.434261
6.242232 57.782972 -43.179546
6.619695 58.790587 -42.320236
7.429161 54.124987 -42.785244
6.800649 54.705944 -43.523037
7.150459 55.611711 -42.555779
8.0582 53.52817 -42.046383
7.429161 54.124987 -42.785244
8.0582 53.52817 -42.046383
8.342506 54.243871 -41.09071
8.675038 55.039966 -40.220465
8.959537 55.815903 -39.269516
10.085796 57.959961 -36.442669
10.418647 58.456724 -35.549031
3 0 11 12
3 0 13 15
3 13 5 14
3 13 14 15
3 0 16 18
3 18 17 5
3 16 17 18
3 19 6 20
3 21 7 22
3 23 22 6
3 21 22 23
3 1 24 26
3 26 25 3
3 24 25 26
3 1 27 28
3 1 29 31
3 29 8 30
3 29 30 31
3 2 9 4
3 2 10 9
3 2 32 34
3 34 33 10
3 32 33 34
3 35 3 36
3 37 3 38
3 39 1 40
3 41 40 3
3 39 40 41
3 42 4 43
3 44 43 1
3 42 43 44
3 5 45 47
3 45 4 46
3 45 46 47
3 5 2 4
3 5 48 50
3 50 49 2
3 48 49 50
3 52 51 5
3 53 0 54
3 56 55 0
3 6 57 58
3 6 59 60
3 6 61 62
3 7 63 65
3 65 64 6
3 63 64 65
3 7 66 67
3 3 68 69
3 71 70 3
3 8 72 73
3 8 74 75
3 4 8 1
3 9 8 4
3 9 76 78
3 78 77 8
3 76 77 78
3 9 79 81
3 79 7 80
3 79 80 81
3 10 7 9
3 10 82 84
3 84 83 7
3 82 83 84
3 10 85 86
3 88 87 10
3 90 89 2
3 92 91 0
