ply
format ascii 1.0
element vertex 113
property float x
property float y
property float z
element face 87
property list uchar int vertex_index
end_header
-28.580629 -46.380283 -48.593632
-20.368896 -48.652779 -51.138393
-24.089113 -40.552235 -53.361557
-19.797119 -41.395226 -53.808765
-26.218077 -40.071442 -52.846855
-23.796566 -36.940258 -54.878551
-26.593084 -50.250496 -47.881756
-18.196682 -49.007175 -51.347927
-17.738365 -41.501339 -53.841896
-26.446632 -47.150009 -49.516434
-26.361168 -43.695786 -51.179165
-24.284149 -44.122364 -51.835049
-22.236708 -44.503654 -52.280399
-20.173035 -44.924473 -52.51709
-22.027487 -40.735458 -53.766407
-17.983139 -45.441158 -52.535282
-29.435899 -46.097311 -48.099575
-29.427214 -44.442438 -49.0215
-28.513627 -48.1382 -47.677863
-29.435899 -46.097311 -48.099575
-27.586856 -48.315389 -48.237694
-27.519855 -50.073307 -47.321925
-28.513627 -48.1382 -47.677863
-20.352923 -50.495018 -50.457454
-21.363065 -48.412859 -50.971519
-19.373931 -50.618298 -50.635271
-20.352923 -50.495018 -50.457454
-19.282789 -48.829977 -51.24316
-18.287824 -50.795496 -50.740038
-19.373931 -50.618298 -50.635271
-27.296287 -41.58449 -51.693342
-27.352566 -43.376705 -50.809544
-22.676924 -37.148419 -54.990925
-23.54676 -35.189333 -55.611216
-25.504228 -49.023677 -49.118204
-25.453193 -47.3216 -49.916469
-16.826529 -43.524624 -53.167021
-16.667337 -41.771479 -53.693156
-27.027718 -38.027418 -53.405683
-27.224742 -39.772318 -52.527187
-25.983982 -38.309767 -53.678169
-27.027718 -38.027418 -53.405683
-24.9195 -38.550163 -53.93552
-25.153595 -40.311839 -53.104206
-25.983982 -38.309767 -53.678169
-24.773226 -36.744175 -54.694017
-23.942839 -38.746246 -54.120054
-24.9195 -38.550163 -53.93552
-24.632906 -34.817553 -55.526819
-24.773226 -36.744175 -54.694017
-23.54676 -35.189333 -55.611216
-24.632906 -34.817553 -55.526819
-26.566222 -51.919161 -47.009619
-27.519855 -50.073307 -47.321925
-25.598358 -52.276646 -47.466557
-26.566222 -51.919161 -47.009619
-17.185679 -51.032944 -50.792454
-18.287824 -50.795496 -50.740038
-17.05255 -49.200117 -51.340812
-17.185679 -51.032944 -50.792454
-18.652334 -39.472498 -54.530271
-18.767742 -41.448283 -53.82533
-19.681711 -39.419442 -54.513706
-17.592453 -39.759697 -54.415067
-18.652334 -39.472498 -54.530271
-16.667337 -41.771479 -53.693156
-17.592453 -39.759697 -54.415067
-28.462297 -44.718954 -49.516777
-29.427214 -44.442438 -49.0215
-27.395298 -45.103817 -49.978178
-27.51363 -46.765146 -49.055033
-28.462297 -44.718954 -49.516777
-26.4039 -45.422897 -50.347799
-27.395298 -45.103817 -49.978178
-27.352566 -43.376705 -50.809544
-25.41046 -45.594488 -50.747835
-25.453193 -47.3216 -49.916469
-26.4039 -45.422897 -50.347799
-26.289623 -41.883614 -52.01301
-27.296287 -41.58449 -51.693342
-27.224742 -39.772318 -52.527187
-24.371951 -45.807778 -51.075777
-25.41046 -45.594488 -50.747835
-25.322658 -43.909075 -51.507107
-23.320691 -46.147651 -51.319847
-24.371951 -45.807778 -51.075777
-22.296971 -46.338296 -51.542523
-23.320691 -46.147651 -51.319847
-23.260428 -44.313009 -52.057724
-21.302802 -46.578216 -51.709396
-21.363065 -48.412859 -50.971519
-22.296971 -46.338296 -51.542523
-21.792384 -39.046019 -54.434853
-22.912026 -38.837858 -54.322479
-22.676924 -37.148419 -54.990925
-20.6772 -39.375903 -54.456032
-20.912303 -41.065342 -53.787586
-21.792384 -39.046019 -54.434853
-19.681711 -39.419442 -54.513706
-20.6772 -39.375903 -54.456032
-25.577455 -50.573921 -48.300866
-26.519858 -48.700252 -48.699095
-25.504228 -49.023677 -49.118204
-25.598358 -52.276646 -47.466557
-25.577455 -50.573921 -48.300866
-16.945779 -47.417108 -51.93449
-17.05255 -49.200117 -51.340812
-18.089911 -47.224166 -51.941604
-16.948916 -45.494534 -52.513714
-17.860752 -43.471249 -53.188589
-16.826529 -43.524624 -53.167021
-16.945779 -47.417108 -51.93449
-16.948916 -45.494534 -52.513714
3 0 16 17
3 0 18 19
3 0 20 22
3 20 6 21
3 20 21 22
3 1 23 24
3 1 25 26
3 1 27 29
3 27 7 28
3 27 28 29
3 30 10 31
3 2 11 4
3 2 12 11
3 2 14 12
3 33 32 5
3 35 34 9
3 3 15 13
3 37 36 8
3 38 4 39
3 40 4 41
3 42 2 43
3 44 43 4
3 42 43 44
3 45 5 46
3 47 46 2
3 45 46 47
3 48 5 49
3 51 50 5
3 6 52 53
3 6 54 55
3 7 56 57
3 7 58 59
3 60 8 61
3 62 61 3
3 60 61 62
3 63 8 64
3 66 65 8
3 67 0 68
3 69 9 70
3 71 70 0
3 69 70 71
3 10 72 74
3 72 9 73
3 72 73 74
3 10 75 77
3 77 76 9
3 75 76 77
3 4 78 80
3 78 10 79
3 78 79 80
3 11 10 4
3 11 81 83
3 83 82 10
3 81 82 83
3 11 84 85
3 12 86 88
3 88 87 11
3 86 87 88
3 12 89 91
3 89 1 90
3 89 90 91
3 12 13 1
3 14 13 12
3 14 3 13
3 5 14 2
3 92 14 93
3 94 93 5
3 92 93 94
3 95 3 96
3 97 96 14
3 95 96 97
3 99 98 3
3 9 6 0
3 100 6 101
3 102 101 9
3 100 101 102
3 104 103 6
3 13 7 1
3 15 7 13
3 15 105 107
3 107 106 7
3 105 106 107
3 8 15 3
3 108 15 109
3 110 109 8
3 108 109 110
3 112 111 15
