ply
format ascii 1.0
element vertex 59
property float x
property float y
property float z
element face 42
property list uchar int vertex_index
end_header
-15.249997 52.62014 52.779823
-18.125736 58.136578 51.231003
-19.508785 60.849068 50.117191
-17.067295 51.852139 54.059898
-18.368988 54.672264 53.164406
-16.631323 55.374012 52.080235
-16.37664 58.775345 50.137188
-15.452692 59.113644 49.467747
-15.635685 57.491713 50.447365
-16.216072 60.614939 48.994982
-15.452692 59.113644 49.467747
-18.9417 57.630898 51.752589
-19.063326 55.898741 52.71929
-18.247362 56.404421 52.197705
-20.372568 60.270598 50.591154
-20.224025 62.062685 49.505388
-15.072364 54.41411 51.768682
-14.40105 52.772255 52.213718
-18.675142 61.22269 49.631414
-18.81726 59.492823 50.674097
-17.983618 59.866445 50.188321
-19.403014 62.683132 48.965381
-18.675142 61.22269 49.631414
-20.224025 62.062685 49.505388
-19.403014 62.683132 48.965381
-17.718142 53.262202 53.612152
-18.619276 52.794107 54.18976
-17.968429 51.384045 54.637507
-15.763027 55.791046 51.418889
-15.94066 53.997076 52.430029
-15.072364 54.41411 51.768682
-16.503981 57.074679 51.108711
-15.763027 55.791046 51.418889
-15.635685 57.491713 50.447365
-17.109069 60.185829 49.641413
-17.983618 59.866445 50.188321
-17.251188 58.455962 50.684095
-17.109069 60.185829 49.641413
-16.216072 60.614939 48.994982
-17.233797 50.012215 55.013223
-17.968429 51.384045 54.637507
-16.367628 50.516367 54.360906
-17.233797 50.012215 55.013223
-15.458979 50.900368 53.720869
-16.158646 52.23614 53.41986
-16.367628 50.516367 54.360906
-14.557109 51.105034 53.112797
-15.458979 50.900368 53.720869
-14.40105 52.772255 52.213718
-14.557109 51.105034 53.112797
-19.239045 54.032736 53.738245
-18.619276 52.794107 54.18976
-19.239045 54.032736 53.738245
-19.063326 55.898741 52.71929
-19.633224 58.987143 51.195683
-18.9417 57.630898 51.752589
-18.81726 59.492823 50.674097
-19.633224 58.987143 51.195683
-20.372568 60.270598 50.591154
3 0 5 3
3 7 6 8
3 10 9 6
3 1 11 13
3 13 12 4
3 11 12 13
3 15 14 2
3 17 16 0
3 18 2 19
3 20 19 1
3 18 19 20
3 21 2 22
3 24 23 2
3 3 25 27
3 25 4 26
3 25 26 27
3 5 4 3
3 5 1 4
3 28 5 29
3 30 29 0
3 28 29 30
3 6 31 33
3 31 5 32
3 31 32 33
3 6 1 5
3 6 34 36
3 36 35 1
3 34 35 36
3 38 37 6
3 39 3 40
3 41 3 42
3 43 0 44
3 45 44 3
3 43 44 45
3 46 0 47
3 49 48 0
3 4 50 51
3 53 52 4
3 2 54 56
3 56 55 1
3 54 55 56
3 58 57 2
