ply
format ascii 1.0
element vertex 642
property float x
property float y
property float z
element face 568
property list uchar int vertex_index
end_header
-30.25631 -47.579952 43.311703
-28.602507 -65.920486 36.229939
-29.181307 -27.797338 39.302681
-28.787457 -61.92807 45.882385
-30.513762 -25.0196 31.954317
-25.805563 -75.150398 30.607677
-25.530487 -71.182884 40.819328
-29.843697 -41.794971 49.206223
-29.609426 -39.194122 41.523518
-29.219492 -30.772476 47.589344
-30.304245 -49.540039 45.868557
-27.254704 -70.736298 33.502243
-27.186232 -71.533005 28.54269
-28.794918 -64.116425 41.209087
-27.365702 -66.726562 43.638107
-27.450619 -68.836082 38.652119
-25.669622 -73.511909 35.689827
-29.314665 -33.885502 40.290981
-29.611273 -32.627914 36.429089
-26.733471 -72.109802 18.019768
-29.709036 -56.876617 47.733742
-26.005247 -76.137749 25.402536
-27.011244 -72.024323 23.33754
-25.262922 -68.29998 45.836895
-23.352295 -75.392448 37.391472
-30.046663 -44.9575 45.943802
-29.979677 -43.939426 42.580624
-29.674246 -40.41692 45.23476
-29.285299 -35.064003 44.325485
-29.04705 -29.211967 43.262245
-29.925571 -48.785744 52.870377
-30.120882 -46.823128 49.367805
-27.867884 -68.901192 32.527355
-28.15036 -66.5504 40.027294
-28.10721 -67.402405 37.564877
-27.380623 -69.78875 36.160297
-29.219557 -30.974016 39.845196
-29.421467 -33.23727 38.381706
-29.379889 -30.247162 37.831554
-29.985214 -54.358036 48.40509
-31.25605 -14.465955 31.354948
-25.164316 -77.242729 28.814245
-25.961351 -75.578758 27.928917
-27.670776 -69.536629 27.495474
-27.127031 -71.757034 26.03393
-27.532621 -69.739754 24.867619
-27.337755 -69.985413 22.210352
-27.839197 -67.747047 23.763311
-26.537905 -68.934959 42.28474
-26.443089 -67.481247 44.938541
-24.291119 -71.900208 41.812126
-23.191874 -73.878952 40.033314
-24.493496 -73.293114 39.18861
-25.713755 -74.439308 33.170269
-24.766788 -75.597748 34.140316
-24.973513 -76.488029 31.461447
-29.945307 -43.562263 47.48959
-29.874851 -42.810604 45.597618
-29.760921 -41.144623 47.220753
-29.367495 -35.844116 46.312138
-29.214903 -32.96402 45.934856
-29.148682 -32.307873 43.83342
-29.101866 -30.103661 45.388626
-29.28577 -45.950462 58.611668
-28.930758 -48.765701 58.385632
-29.455669 -47.982487 56.636444
-29.637136 -49.682877 54.6353
-29.792673 -46.987293 54.852161
-29.907804 -42.519764 51.090694
-30.018545 -45.212341 51.202271
-30.000925 -44.342651 49.385609
-30.103762 -45.906937 47.612614
-29.797785 -41.680805 42.015568
-30.061857 -25.877007 33.684944
-29.938995 -29.128216 34.099121
-30.358683 -28.479147 32.176743
-30.262135 -50.659782 47.408707
-30.197443 -53.161434 46.964973
-26.534666 -72.959213 32.146915
-26.556456 -73.493111 29.477661
-27.213539 -71.239037 31.006371
-27.80196 -69.164452 29.982622
-28.209944 -67.223579 28.685516
-28.136206 -64.297234 44.93417
-28.156054 -65.537857 42.47316
-27.416162 -67.920746 41.093758
-26.552547 -70.223785 39.706352
-25.620424 -72.398727 38.279945
-26.570711 -71.24482 37.243465
-26.553862 -72.147499 34.811256
-29.777618 -39.916378 50.904858
-29.667645 -39.274017 48.71698
-29.451815 -36.653717 40.828156
-29.524313 -36.100918 38.916233
-26.4706 -74.491005 19.142654
-26.372902 -74.545952 16.516396
-29.307812 -59.367317 46.984295
-30.034285 -55.562275 46.252338
-29.736725 -58.10981 45.527504
-29.330214 -60.617458 44.633774
-29.195717 -24.408371 38.864079
-29.367214 -27.179495 37.516987
-30.187084 -22.253435 33.52813
-30.710302 -21.595123 31.752584
-26.113455 -76.304993 22.822184
-26.572725 -73.854897 26.939716
-26.562105 -74.144814 24.441723
-26.547974 -74.27076 21.709572
-26.874857 -72.177559 20.597673
-27.282763 -65.26255 46.273514
-21.713186 -74.34481 40.461906
-22.043541 -75.89325 37.946022
-24.613525 -74.575928 36.6008
-23.608389 -76.581779 34.919628
-30.16828 -46.456112 44.445995
-30.143206 -45.989388 42.939182
-30.010063 -44.453358 44.260212
-29.816442 -42.147861 43.815514
-29.613148 -39.70005 43.401485
-29.557243 -38.545647 46.765751
-29.465492 -37.780785 44.82074
-29.421541 -37.089523 42.888443
-29.266308 -34.365482 42.19775
-29.141117 -31.438042 41.786777
-29.069838 -28.397903 41.241211
-29.029934 -26.904034 44.758141
-28.998661 -25.868069 42.866589
-29.049969 -25.440962 40.823196
-30.042192 -50.27224 51.01025
-29.955311 -46.242455 53.130249
-30.070663 -47.704647 51.15448
-30.171989 -49.212856 49.350105
-30.215942 -48.195698 47.668877
-30.201982 -47.217491 46.004543
-29.617123 -29.3908 35.942303
-30.260061 -47.648777 42.638827
-30.294806 -48.411096 43.045429
-30.294806 -48.411096 43.045429
-30.273473 -47.997219 43.853766
-28.538685 -66.236069 34.990338
-28.277443 -67.146805 35.617621
-28.354858 -66.661445 36.897408
-28.408418 -66.25679 38.179266
-28.656067 -65.515831 37.511797
-28.277443 -67.146805 35.617621
-28.029795 -67.887764 36.285089
-28.354858 -66.661445 36.897408
-30.065075 -53.006372 48.701237
-29.947969 -53.63134 49.449938
-31.415195 -12.635743 31.26395
-31.107762 -13.097729 32.070272
-31.604539 -14.132077 30.455011
-31.415195 -12.635743 31.26395
-27.785646 -68.620121 25.540481
-27.601698 -69.638192 26.181547
-27.854723 -68.518559 26.854408
-27.938933 -67.623767 24.988327
-27.685909 -68.743401 24.315465
-27.785646 -68.620121 25.540481
-28.426965 -62.40365 46.659881
-28.782151 -61.133541 47.115521
-25.509954 -70.475323 42.051597
-26.013662 -69.35136 42.784304
-26.034196 -70.058921 41.552034
-24.910803 -71.541546 41.315727
-24.890269 -70.833984 42.547996
-25.509954 -70.475323 42.051597
-29.217197 -31.868248 46.7621
-29.275236 -33.380347 46.924028
-29.27753 -32.284574 47.751272
-29.466418 -45.602436 57.705818
-29.399707 -44.57917 58.684732
-29.551367 -46.618448 56.718206
-29.370719 -46.966475 57.624056
-29.466418 -45.602436 57.705818
-29.71987 -46.120852 55.826065
-29.624171 -47.48489 55.744303
-29.551367 -46.618448 56.718206
-29.715196 -40.250053 40.845662
-29.809376 -41.493395 41.091687
-29.703606 -40.437463 41.769543
-30.310989 -50.704701 45.643944
-30.289934 -51.264572 46.414019
-30.28319 -50.099911 46.638632
-28.080159 -68.034615 30.586194
-27.834922 -69.032822 31.254988
-28.113121 -67.902985 31.85856
-28.284151 -67.064178 29.937641
-28.005952 -68.194016 29.334069
-28.080159 -68.034615 30.586194
-28.475486 -64.827141 41.841123
-28.488555 -64.333964 42.944815
-28.807987 -63.623248 42.312778
-29.705365 -38.615528 50.674156
-29.769376 -38.959942 51.741125
-29.769376 -38.959942 51.741125
-29.818571 -40.396361 51.863977
-29.638274 -34.083303 36.686434
-29.543371 -34.387981 37.662743
-29.51637 -32.932592 37.405397
-29.747609 -33.957811 35.697294
-29.638274 -34.083303 36.686434
-29.484105 -57.409521 48.492555
-29.665618 -56.201252 48.876058
-29.508424 -58.121967 47.359019
-29.283493 -58.654871 48.117832
-29.484105 -57.409521 48.492555
-30.129614 -54.897312 45.579641
-30.115864 -54.361854 46.608655
-30.211193 -53.696891 45.935958
-29.727135 -58.700947 44.361315
-29.886959 -57.381878 44.817405
-29.523879 -59.954771 43.91445
-29.53347 -59.363634 45.080639
-29.727135 -58.700947 44.361315
-29.328218 -61.127375 43.463278
-29.523879 -59.954771 43.91445
-29.316397 -24.093076 37.932095
-29.234518 -22.838131 38.656098
-30.056849 -20.960329 34.23362
-29.981918 -22.725129 34.352173
-30.84441 -19.85689 31.62072
-30.561291 -20.263762 32.468186
-31.016799 -21.363582 30.816871
-30.84441 -19.85689 31.62072
-25.776585 -77.20377 24.51596
-25.691127 -76.950108 25.845959
-26.059351 -76.221371 24.11236
-25.830689 -77.287392 23.225784
-25.776585 -77.20377 24.51596
-27.251403 -69.951298 20.987119
-27.489046 -68.841671 21.734282
-25.791633 -67.152153 46.589455
-26.381717 -66.742786 46.140277
-25.853006 -67.890614 45.387718
-25.164374 -67.479756 47.062248
-25.791633 -67.152153 46.589455
-24.60353 -68.564026 46.219219
-25.164374 -67.479756 47.062248
-22.29813 -73.386028 41.473073
-21.585823 -73.458576 41.765142
-22.808562 -76.387943 36.389283
-22.154184 -76.638344 36.666557
-22.697918 -75.642849 37.668747
-23.785113 -77.043273 33.690012
-24.187588 -76.089764 34.529972
-24.364312 -76.551258 33.300356
-23.156009 -77.547661 33.942751
-23.785113 -77.043273 33.690012
-29.524855 -37.566069 47.571944
-29.612444 -38.909832 47.741366
-29.580056 -37.930254 48.547558
-29.070481 -25.723727 45.581934
-29.079815 -27.291227 45.828745
-29.006759 -24.342368 42.598748
-29.014941 -24.687616 43.649651
-29.032412 -24.128814 41.577051
-29.024315 -25.654515 41.844893
-29.006759 -24.342368 42.598748
-29.070694 -23.713121 40.605114
-29.032412 -24.128814 41.577051
-28.73179 -49.974655 58.185183
-29.053148 -49.687576 57.345703
-29.860784 -50.098883 52.691633
-29.716566 -50.547449 53.574095
-29.781354 -49.23431 53.752838
-29.983882 -49.528992 51.940314
-29.919094 -50.842131 51.76157
-29.860784 -50.098883 52.691633
-29.943677 -44.92997 53.063744
-29.90564 -45.287591 54.02161
-30.062546 -44.893341 41.909171
-30.144311 -45.918322 42.08845
-30.061442 -44.964407 42.759903
-29.640628 -27.8137 35.773083
-29.492168 -28.285148 36.729645
-29.515673 -26.708048 36.560425
-29.905597 -30.637743 34.332627
-30.088299 -30.333978 33.316007
-30.328915 -49.990565 44.923369
-30.297441 -48.977262 45.132193
-27.910131 -68.637158 33.766329
-27.561294 -69.818745 33.014799
-27.603541 -69.55471 34.253772
-28.171374 -67.726422 33.139046
-27.910131 -68.637158 33.766329
-28.113121 -67.902985 31.85856
-28.171374 -67.726422 33.139046
-28.429994 -65.830788 39.410474
-28.472639 -65.333413 40.61819
-28.752273 -64.6138 40.001371
-28.128785 -66.976403 38.796086
-28.429994 -65.830788 39.410474
-28.408418 -66.25679 38.179266
-27.666501 -69.080937 35.5828
-27.743916 -68.595577 36.862587
-28.029795 -67.887764 36.285089
-27.603541 -69.55471 34.253772
-27.317664 -70.262524 34.83127
-27.666501 -69.080937 35.5828
-26.634563 -72.10448 16.714859
-26.836886 -70.914863 17.544103
-29.803707 -54.941961 49.211732
-29.947969 -53.63134 49.449938
-29.847125 -55.617327 48.069416
-29.665618 -56.201252 48.876058
-29.803707 -54.941961 49.211732
-30.952103 -14.958212 32.191365
-31.107762 -13.097729 32.070272
-31.117284 -16.292306 31.421903
-30.952103 -14.958212 32.191365
-31.44001 -16.040542 30.521237
-31.117284 -16.292306 31.421903
-31.44001 -16.040542 30.521237
-31.604539 -14.132077 30.455011
-25.270661 -77.502598 27.551814
-24.840459 -78.295345 27.973343
-25.669179 -76.670612 27.10915
-25.270661 -77.502598 27.551814
-25.562833 -76.410743 28.371581
-25.983299 -75.858253 26.665726
-25.691127 -76.950108 25.845959
-25.669179 -76.670612 27.10915
-27.739767 -67.722488 22.510761
-27.489046 -68.841671 21.734282
-27.588476 -68.86623 22.986832
-25.966254 -68.624504 44.111204
-26.490497 -68.208103 43.611641
-26.013662 -69.35136 42.784304
-25.376171 -69.033871 44.560381
-25.853006 -67.890614 45.387718
-25.966254 -68.624504 44.111204
-24.727818 -69.348004 45.014853
-25.376171 -69.033871 44.560381
-24.241917 -71.148118 43.002468
-24.890269 -70.833984 42.547996
-23.587097 -72.163727 42.148184
-24.241917 -71.148118 43.002468
-23.741496 -72.88958 40.92272
-23.037474 -73.153099 41.258777
-23.587097 -72.163727 42.148184
-24.467675 -76.996398 31.960922
-24.364312 -76.551258 33.300356
-24.870151 -76.042889 32.800882
-24.596104 -77.493313 30.647555
-24.467675 -76.996398 31.960922
-24.691505 -77.870663 29.323954
-24.596104 -77.493313 30.647555
-25.068914 -76.865379 30.137846
-24.840459 -78.295345 27.973343
-24.691505 -77.870663 29.323954
-29.351532 -34.820394 47.112669
-29.42998 -36.215304 47.345137
-29.291199 -34.404068 46.123497
-29.351532 -34.820394 47.112669
-29.275236 -33.380347 46.924028
-29.174924 -44.957251 59.638642
-29.399707 -44.57917 58.684732
-29.015645 -46.324041 59.426501
-29.174924 -44.957251 59.638642
-29.108264 -47.358081 58.49865
-28.838139 -47.731661 59.313482
-29.015645 -46.324041 59.426501
-29.315603 -49.295969 56.471109
-29.053148 -49.687576 57.345703
-29.193213 -48.374094 57.511038
-29.546402 -48.832682 55.635872
-29.406337 -50.146164 55.470537
-29.315603 -49.295969 56.471109
-29.963175 -43.866053 51.146483
-29.975294 -44.414913 52.099755
-29.919923 -43.068624 52.043966
-29.8944 -42.685554 41.365296
-29.985346 -43.814865 41.647824
-29.888731 -42.810115 42.298096
-29.8944 -42.685554 41.365296
-29.809376 -41.493395 41.091687
-30.000426 -27.502612 33.892032
-29.801564 -27.682409 34.851492
-29.862995 -26.056804 34.644403
-30.298142 -30.009443 32.354819
-30.088299 -30.333978 33.316007
-30.148839 -28.803681 33.137932
-30.229789 -51.910608 47.18684
-30.17119 -52.408071 47.981178
-30.203536 -51.157246 48.203045
-30.257587 -52.515398 46.192152
-30.229789 -51.910608 47.18684
-30.289934 -51.264572 46.414019
-30.211193 -53.696891 45.935958
-30.257587 -52.515398 46.192152
-30.310989 -50.704701 45.643944
-30.328915 -49.990565 44.923369
-28.124307 -67.362033 27.44943
-27.854723 -68.518559 26.854408
-27.94036 -68.380104 28.090495
-28.478631 -63.713652 44.17532
-28.461832 -63.112652 45.408277
-28.804257 -62.52907 44.649428
-28.14613 -64.917546 43.703665
-28.478631 -63.713652 44.17532
-28.488555 -64.333964 42.944815
-29.650379 -38.294348 49.580218
-29.722631 -39.595197 49.810919
-29.705365 -38.615528 50.674156
-29.580056 -37.930254 48.547558
-29.650379 -38.294348 49.580218
-29.295173 -31.201591 48.56358
-29.27753 -32.284574 47.751272
-29.883664 -41.698054 51.956896
-29.919923 -43.068624 52.043966
-29.842711 -41.218071 50.997776
-29.883664 -41.698054 51.956896
-29.818571 -40.396361 51.863977
-29.557911 -37.736 40.185727
-29.636716 -39.006203 40.533408
-29.53062 -37.923919 41.175837
-29.59416 -37.459601 39.229765
-29.557911 -37.736 40.185727
-29.488064 -36.377318 39.872194
-29.645194 -37.24849 38.218588
-29.59416 -37.459601 39.229765
-29.594794 -35.819805 37.930006
-29.47289 -34.669094 38.648969
-29.543371 -34.387981 37.662743
-29.645194 -37.24849 38.218588
-29.594794 -35.819805 37.930006
-30.674356 -26.441564 31.140751
-30.793805 -24.761145 31.00369
-26.304561 -75.634068 18.377937
-26.315441 -75.485092 19.708869
-26.255713 -75.661541 17.064808
-26.304561 -75.634068 18.377937
-26.421751 -74.518479 17.829525
-26.253501 -75.551655 15.7222
-26.255713 -75.661541 17.064808
-26.454278 -73.322555 15.963173
-26.553187 -73.327877 17.268082
-26.634563 -72.10448 16.714859
-26.314898 -74.394047 15.173636
-26.454278 -73.322555 15.963173
-26.253501 -75.551655 15.7222
-26.314898 -74.394047 15.173636
-28.824458 -64.957561 35.602902
-28.883147 -64.660612 36.83774
-29.042329 -59.853164 47.666476
-29.283493 -58.654871 48.117832
-29.047635 -60.647694 46.43334
-28.782151 -61.133541 47.115521
-29.042329 -59.853164 47.666476
-30.091328 -53.759735 47.685032
-30.065075 -53.006372 48.701237
-30.17119 -52.408071 47.981178
-30.035739 -56.10811 45.179823
-30.129614 -54.897312 45.579641
-29.885505 -56.836043 45.889921
-30.035739 -56.10811 45.179823
-29.886959 -57.381878 44.817405
-29.075635 -61.873764 44.025122
-28.804257 -62.52907 44.649428
-29.058836 -61.272764 45.25808
-29.075635 -61.873764 44.025122
-29.328218 -61.127375 43.463278
-29.06057 -62.876858 41.750934
-28.807987 -63.623248 42.312778
-29.023001 -63.381203 40.560041
-29.06057 -62.876858 41.750934
-28.752273 -64.6138 40.001371
-29.023001 -63.381203 40.560041
-28.883147 -64.660612 36.83774
-28.656067 -65.515831 37.511797
-29.402145 -25.478638 37.258549
-29.281465 -25.793933 38.190533
-29.316397 -24.093076 37.932095
-29.515673 -26.708048 36.560425
-29.402145 -25.478638 37.258549
-29.919304 -24.536915 34.43058
-29.862995 -26.056804 34.644403
-30.124471 -24.065221 33.606537
-29.919304 -24.536915 34.43058
-29.981918 -22.725129 34.352173
-30.299682 -20.592918 33.355959
-30.056849 -20.960329 34.23362
-30.448693 -21.924279 32.640357
-30.299682 -20.592918 33.355959
-30.561291 -20.263762 32.468186
-30.892075 -23.048907 30.902824
-30.793805 -24.761145 31.00369
-30.612032 -23.307361 31.853451
-30.892075 -23.048907 30.902824
-31.016799 -21.363582 30.816871
-25.910634 -77.40017 22.021133
-25.830689 -77.287392 23.225784
-26.136868 -76.392086 21.548634
-25.910634 -77.40017 22.021133
-26.354128 -75.374969 20.992328
-26.136868 -76.392086 21.548634
-26.330714 -75.287876 22.265878
-26.509287 -74.380882 20.426113
-26.315441 -75.485092 19.708869
-26.354128 -75.374969 20.992328
-27.019954 -71.047371 20.18078
-27.106306 -71.081486 21.404013
-27.251403 -69.951298 20.987119
-26.949261 -71.013492 18.891827
-26.804164 -72.143681 19.30872
-27.019954 -71.047371 20.18078
-26.836886 -70.914863 17.544103
-26.949261 -71.013492 18.891827
-28.538685 -66.236069 34.990338
-28.824458 -64.957561 35.602902
-28.483103 -65.994968 29.399428
-28.284151 -67.064178 29.937641
-28.378923 -66.214443 28.174841
-28.483103 -65.994968 29.399428
-28.124307 -67.362033 27.44943
-28.378923 -66.214443 28.174841
-28.100663 -66.50785 24.417467
-27.938933 -67.623767 24.988327
-27.994733 -66.49126 23.154584
-28.100663 -66.50785 24.417467
-27.739767 -67.722488 22.510761
-27.994733 -66.49126 23.154584
-28.10134 -63.588232 46.185774
-28.426965 -62.40365 46.659881
-28.461832 -63.112652 45.408277
-27.674618 -64.07089 46.855446
-28.10134 -63.588232 46.185774
-27.709485 -64.779892 45.603842
-27.219661 -64.506796 47.490204
-27.674618 -64.07089 46.855446
-26.801554 -65.633438 46.807764
-26.862926 -66.371899 45.606027
-26.381717 -66.742786 46.140277
-27.219661 -64.506796 47.490204
-26.801554 -65.633438 46.807764
-24.60353 -68.564026 46.219219
-24.727818 -69.348004 45.014853
-20.91415 -74.3707 40.691873
-21.585823 -73.458576 41.765142
-21.133272 -75.219997 39.446985
-20.91415 -74.3707 40.691873
-22.45253 -74.111881 40.24761
-22.29813 -73.386028 41.473073
-23.037474 -73.153099 41.258777
-21.29845 -75.994217 38.189043
-21.133272 -75.219997 39.446985
-21.878363 -75.11903 39.203964
-21.423572 -76.797791 36.955187
-21.29845 -75.994217 38.189043
-21.423572 -76.797791 36.955187
-22.154184 -76.638344 36.666557
-22.936608 -76.982608 35.153361
-22.808562 -76.387943 36.389283
-23.480342 -75.987113 36.15555
-22.936608 -76.982608 35.153361
-23.156009 -77.547661 33.942751
-29.462369 -37.194882 46.538944
-29.524855 -37.566069 47.571944
-29.42998 -36.215304 47.345137
-29.256035 -29.669174 48.345764
-29.295173 -31.201591 48.56358
-29.174594 -29.225448 47.244346
-29.256035 -29.669174 48.345764
-29.115781 -28.891041 46.143988
-29.160679 -30.438068 46.488985
-29.174594 -29.225448 47.244346
-29.0659 -28.503847 45.073384
-29.115781 -28.891041 46.143988
-29.079815 -27.291227 45.828745
-29.030577 -25.205599 44.595427
-29.070481 -25.723727 45.581934
-29.014297 -26.386052 43.812365
-29.030577 -25.205599 44.595427
-29.014941 -24.687616 43.649651
-29.143568 -23.196826 39.625555
-29.122843 -24.924667 39.843637
-29.070694 -23.713121 40.605114
-29.234518 -22.838131 38.656098
-29.143568 -23.196826 39.625555
-28.581376 -48.943728 59.249828
-28.838139 -47.731661 59.313482
-28.581376 -48.943728 59.249828
-28.73179 -49.974655 58.185183
-29.517634 -50.966206 54.410002
-29.406337 -50.146164 55.470537
-29.517634 -50.966206 54.410002
-29.716566 -50.547449 53.574095
-29.976458 -51.588442 50.752517
-29.919094 -50.842131 51.76157
-30.093564 -50.963474 50.003816
-29.976458 -51.588442 50.752517
-29.824321 -45.66001 54.882566
-29.71987 -46.120852 55.826065
-29.873992 -46.614874 53.991205
-29.824321 -45.66001 54.882566
-29.90564 -45.287591 54.02161
-29.986928 -45.727398 52.16626
-29.943677 -44.92997 53.063744
-29.975294 -44.414913 52.099755
-30.158462 -50.433782 49.173744
-30.093564 -50.963474 50.003816
-30.10709 -49.742548 50.180177
-30.217062 -49.936319 48.379406
-30.203536 -51.157246 48.203045
-30.158462 -50.433782 49.173744
-30.246309 -47.815989 45.200186
-30.297441 -48.977262 45.132193
-30.253114 -48.378765 45.93655
-30.229458 -47.435299 44.420912
-30.246309 -47.815989 45.200186
-30.185131 -46.836801 45.225269
-30.212295 -47.018032 43.878849
-30.273473 -47.997219 43.853766
-30.229458 -47.435299 44.420912
-30.203509 -46.853495 42.452566
-30.260061 -47.648777 42.638827
-30.199758 -46.78467 43.125443
-30.203509 -46.853495 42.452566
-30.144311 -45.918322 42.08845
-30.062546 -44.893341 41.909171
-29.985346 -43.814865 41.647824
-29.715196 -40.250053 40.845662
-29.636716 -39.006203 40.533408
-29.778059 -29.259508 35.020712
-29.640628 -27.8137 35.773083
-29.801564 -27.682409 34.851492
-29.744661 -30.769035 35.254218
-29.778059 -29.259508 35.020712
-29.905597 -30.637743 34.332627
-29.741737 -32.387592 35.497611
-29.614198 -31.009357 36.185696
-29.744661 -30.769035 35.254218
-29.747609 -33.957811 35.697294
-29.741737 -32.387592 35.497611
-30.596816 -28.171337 31.251964
-30.436222 -26.749374 32.06553
-30.674356 -26.441564 31.140751
-30.493191 -29.783613 31.444806
-30.596816 -28.171337 31.251964
-30.298142 -30.009443 32.354819
-30.493191 -29.783613 31.444806
3 0 135 136
3 0 137 138
3 1 139 140
3 1 141 143
3 141 34 142
3 141 142 143
3 1 144 146
3 146 145 34
3 144 145 146
3 2 38 36
3 147 39 148
3 149 40 150
3 152 151 40
3 5 42 41
3 153 45 154
3 155 154 43
3 153 154 155
3 156 47 157
3 158 157 45
3 156 157 158
3 3 159 160
3 6 161 163
3 163 162 48
3 161 162 163
3 6 164 166
3 164 50 165
3 164 165 166
3 6 52 50
3 5 55 53
3 5 41 55
3 7 58 56
3 9 167 169
3 167 60 168
3 167 168 169
3 9 62 60
3 170 63 171
3 172 65 173
3 174 173 63
3 172 173 174
3 175 67 176
3 177 176 65
3 175 176 177
3 7 70 68
3 7 56 70
3 8 178 180
3 180 179 72
3 178 179 180
3 4 75 73
3 10 181 183
3 183 182 76
3 181 182 183
3 11 80 78
3 184 81 185
3 186 185 32
3 184 185 186
3 187 82 188
3 189 188 81
3 187 188 189
3 13 190 192
3 190 84 191
3 190 191 192
3 15 85 33
3 15 86 85
3 15 88 86
3 11 89 35
3 11 78 89
3 194 193 90
3 195 90 196
3 17 93 92
3 18 197 199
3 199 198 37
3 197 198 199
3 18 200 201
3 19 95 94
3 20 202 203
3 20 204 206
3 204 96 205
3 204 205 206
3 207 97 208
3 209 208 77
3 207 208 209
3 210 98 211
3 212 99 213
3 214 213 98
3 212 213 214
3 216 215 99
3 218 217 100
3 219 102 220
3 221 103 222
3 224 223 103
3 21 225 226
3 21 227 229
3 227 104 228
3 227 228 229
3 12 105 79
3 22 106 44
3 22 107 106
3 22 108 107
3 231 230 46
3 14 109 83
3 23 232 234
3 234 233 49
3 232 233 234
3 23 235 236
3 23 237 238
3 239 110 240
3 24 111 51
3 24 241 243
3 243 242 111
3 241 242 243
3 16 112 87
3 244 113 245
3 246 245 54
3 244 245 246
3 248 247 113
3 25 116 114
3 27 117 57
3 27 118 117
3 249 119 250
3 251 250 91
3 249 250 251
3 28 120 59
3 28 121 120
3 28 122 121
3 29 123 61
3 29 124 123
3 252 125 253
3 254 126 255
3 256 127 257
3 258 257 126
3 256 257 258
3 260 259 127
3 262 261 64
3 30 263 265
3 265 264 66
3 263 264 265
3 30 266 268
3 266 128 267
3 266 267 268
3 269 129 270
3 31 130 69
3 31 131 130
3 31 132 131
3 25 133 71
3 25 114 133
3 26 271 273
3 273 272 115
3 271 272 273
3 274 134 275
3 276 275 101
3 274 275 276
3 278 277 74
3 280 279 10
3 281 32 282
3 283 282 11
3 281 282 283
3 284 32 285
3 287 286 32
3 288 33 289
3 290 289 13
3 288 289 290
3 34 291 293
3 291 33 292
3 291 292 293
3 34 15 33
3 34 35 15
3 294 35 295
3 296 295 34
3 294 295 296
3 297 11 298
3 299 298 35
3 297 298 299
3 36 37 17
3 38 37 36
3 38 18 37
3 301 300 19
3 39 302 303
3 39 304 306
3 304 20 305
3 304 305 306
3 40 307 308
3 40 309 310
3 40 311 312
3 314 313 40
3 41 315 316
3 42 317 319
3 319 318 41
3 317 318 319
3 42 320 322
3 320 21 321
3 320 321 322
3 43 44 12
3 45 44 43
3 45 22 44
3 45 46 22
3 47 46 45
3 47 323 325
3 325 324 46
3 323 324 325
3 48 49 14
3 326 49 327
3 328 327 48
3 326 327 328
3 329 23 330
3 331 330 49
3 329 330 331
3 333 332 23
3 50 334 335
3 50 336 337
3 50 338 340
3 338 51 339
3 338 339 340
3 52 51 50
3 52 24 51
3 53 54 16
3 55 54 53
3 55 341 343
3 343 342 54
3 341 342 343
3 55 344 345
3 41 346 348
3 348 347 55
3 346 347 348
3 41 349 350
3 56 57 25
3 58 57 56
3 58 27 57
3 351 59 352
3 60 353 355
3 353 59 354
3 353 354 355
3 60 28 59
3 60 61 28
3 62 61 60
3 62 29 61
3 63 356 357
3 63 358 359
3 63 360 362
3 360 64 361
3 360 361 362
3 65 64 63
3 65 363 365
3 365 364 64
3 363 364 365
3 65 366 368
3 366 66 367
3 366 367 368
3 67 66 65
3 67 30 66
3 68 369 371
3 369 69 370
3 369 370 371
3 70 69 68
3 70 31 69
3 70 71 31
3 56 71 70
3 56 25 71
3 72 372 374
3 374 373 26
3 372 373 374
3 376 375 72
3 73 377 379
3 377 74 378
3 377 378 379
3 75 74 73
3 75 380 382
3 382 381 74
3 380 381 382
3 76 383 385
3 383 77 384
3 383 384 385
3 386 77 387
3 388 387 76
3 386 387 388
3 390 389 77
3 392 391 10
3 78 79 5
3 80 79 78
3 80 12 79
3 32 80 11
3 81 80 32
3 81 12 80
3 81 43 12
3 82 43 81
3 82 393 395
3 395 394 43
3 393 394 395
3 396 83 397
3 398 397 3
3 396 397 398
3 84 399 401
3 399 83 400
3 399 400 401
3 84 14 83
3 33 84 13
3 85 84 33
3 85 14 84
3 85 48 14
3 86 48 85
3 86 6 48
3 86 87 6
3 88 87 86
3 88 16 87
3 35 88 15
3 89 88 35
3 89 16 88
3 89 53 16
3 78 53 89
3 78 5 53
3 90 91 7
3 402 91 403
3 404 403 90
3 402 403 404
3 406 405 91
3 407 9 408
3 409 68 410
3 90 411 413
3 411 68 412
3 411 412 413
3 90 7 68
3 92 414 416
3 416 415 8
3 414 415 416
3 93 417 419
3 419 418 92
3 417 418 419
3 93 420 421
3 37 93 17
3 422 93 423
3 424 423 37
3 422 423 424
3 426 425 93
3 428 427 4
3 94 429 430
3 95 431 433
3 433 432 94
3 431 432 433
3 95 434 435
3 436 95 437
3 438 437 19
3 436 437 438
3 439 95 440
3 442 441 95
3 444 443 1
3 96 445 446
3 96 447 449
3 447 3 448
3 447 448 449
3 77 450 452
3 450 39 451
3 450 451 452
3 97 39 77
3 97 20 39
3 453 97 454
3 98 455 457
3 455 97 456
3 455 456 457
3 98 20 97
3 98 96 20
3 99 96 98
3 99 3 96
3 99 458 460
3 460 459 3
3 458 459 460
3 462 461 99
3 463 13 464
3 465 13 466
3 468 467 13
3 469 1 470
3 100 101 2
3 471 101 472
3 473 472 100
3 471 472 473
3 475 474 101
3 476 73 477
3 102 478 480
3 478 73 479
3 478 479 480
3 102 4 73
3 481 102 482
3 103 483 485
3 483 102 484
3 483 484 485
3 103 4 102
3 103 486 488
3 488 487 4
3 486 487 488
3 490 489 103
3 104 491 492
3 104 493 494
3 79 42 5
3 105 42 79
3 105 21 42
3 44 105 12
3 106 105 44
3 106 21 105
3 106 104 21
3 107 104 106
3 107 495 497
3 497 496 104
3 495 496 497
3 107 498 500
3 498 94 499
3 498 499 500
3 108 94 107
3 108 19 94
3 46 108 22
3 501 108 502
3 503 502 46
3 501 502 503
3 504 19 505
3 506 505 108
3 504 505 506
3 508 507 19
3 510 509 1
3 511 82 512
3 513 82 514
3 516 515 82
3 517 47 518
3 519 47 520
3 522 521 47
3 83 523 525
3 525 524 3
3 523 524 525
3 109 526 528
3 528 527 83
3 526 527 528
3 109 529 530
3 49 109 14
3 531 109 532
3 533 532 49
3 531 532 533
3 535 534 109
3 537 536 23
3 110 538 539
3 110 540 541
3 51 542 544
3 542 110 543
3 542 543 544
3 111 110 51
3 111 545 547
3 547 546 110
3 545 546 547
3 111 548 549
3 551 550 111
3 87 52 6
3 112 52 87
3 112 24 52
3 54 112 16
3 113 112 54
3 113 24 112
3 113 552 554
3 554 553 24
3 552 553 554
3 556 555 113
3 114 115 0
3 116 115 114
3 116 26 115
3 57 116 25
3 117 116 57
3 117 26 116
3 117 72 26
3 118 72 117
3 118 8 72
3 91 58 7
3 119 58 91
3 119 27 58
3 59 557 559
3 557 119 558
3 557 558 559
3 120 119 59
3 120 27 119
3 120 118 27
3 121 118 120
3 121 8 118
3 121 92 8
3 122 92 121
3 122 17 92
3 61 122 28
3 123 122 61
3 123 17 122
3 123 36 17
3 124 36 123
3 124 2 36
3 560 9 561
3 562 9 563
3 564 62 565
3 566 565 9
3 564 565 566
3 125 567 569
3 567 62 568
3 567 568 569
3 125 29 62
3 570 125 571
3 126 572 574
3 572 125 573
3 572 573 574
3 126 29 125
3 126 124 29
3 127 124 126
3 127 2 124
3 127 100 2
3 575 100 576
3 577 576 127
3 575 576 577
3 579 578 100
3 64 580 581
3 583 582 64
3 66 584 585
3 587 586 66
3 128 588 589
3 128 590 591
3 592 67 593
3 129 594 596
3 594 67 595
3 594 595 596
3 129 30 67
3 69 597 599
3 597 129 598
3 597 598 599
3 130 129 69
3 130 30 129
3 130 128 30
3 131 128 130
3 131 600 602
3 602 601 128
3 600 601 602
3 131 603 605
3 603 76 604
3 603 604 605
3 132 76 131
3 132 10 76
3 71 132 31
3 133 132 71
3 133 10 132
3 133 606 608
3 608 607 10
3 606 607 608
3 114 609 611
3 611 610 133
3 609 610 611
3 114 612 614
3 612 0 613
3 612 613 614
3 115 615 617
3 617 616 0
3 615 616 617
3 619 618 115
3 621 620 26
3 623 622 8
3 101 38 2
3 134 38 101
3 134 18 38
3 74 624 626
3 624 134 625
3 624 625 626
3 627 134 628
3 629 628 74
3 627 628 629
3 630 18 631
3 632 631 134
3 630 631 632
3 634 633 18
3 635 75 636
3 637 636 4
3 635 636 637
3 638 75 639
3 641 640 75
