ply
format ascii 1.0
element vertex 751
property float x
property float y
property float z
element face 796
property list uchar int vertex_index
end_header
-28.66691 -40.43227 32.491753
-6.165545 -51.718369 41.303448
-16.961929 -45.775288 35.702457
-0.431999 -71.285469 30.577602
-23.17733 -42.731667 34.121193
-3.286701 -61.529068 37.423981
-11.319777 -48.851643 37.986652
-8.931402 -58.904259 35.456985
-26.020565 -34.168747 34.553848
-32.090153 -34.016129 31.186029
-14.094923 -38.822979 39.281193
-19.727766 -36.093372 36.652546
-36.693016 -35.222507 24.837915
-6.386343 -68.748871 30.077887
-26.182564 -41.504459 33.336746
-3.625432 -53.200935 43.278324
-2.084158 -58.167946 41.223392
-4.728964 -56.80302 39.593399
-14.033059 -47.435257 36.708378
-12.924501 -52.296238 35.933598
-15.939365 -50.7673 34.92934
-28.037134 -30.010967 34.150043
-8.012403 -38.671959 47.052971
-10.593751 -37.019432 44.232479
-11.455201 -40.284847 41.230034
-13.02893 -35.650875 41.868652
-21.454647 -31.402658 37.00238
-22.835339 -35.064312 35.616741
-34.111988 -30.241373 29.79229
-34.692616 -34.605007 28.39769
-36.447426 -30.660276 26.655968
0.934862 -67.769302 35.197144
3.744562 -69.108902 36.384705
2.422131 -72.458885 31.362099
-7.653258 -63.786068 33.252838
-20.038641 -44.424889 34.817749
-0.614758 -62.902882 38.594528
-1.921071 -66.432114 34.297108
-8.774441 -50.172424 39.51421
-7.373525 -55.312492 38.261101
-10.100848 -53.862808 37.012077
-27.495718 -37.57476 33.50983
-30.182961 -37.583218 32.08012
-29.22224 -33.951698 33.104973
-31.221188 -29.853634 32.279186
-7.505561 -46.866123 42.517818
-10.000593 -45.29475 40.466114
-12.621981 -43.673046 38.724892
-15.321208 -42.306442 37.309299
-16.836489 -37.384098 37.80555
-18.198572 -40.980877 36.213779
-21.306719 -39.606831 35.335072
-24.446066 -38.443264 34.503426
-32.690239 -38.19949 29.835768
-34.890442 -38.908554 26.624008
-36.413857 -39.539013 22.797838
-6.068408 -60.361588 36.291599
-4.751873 -65.075455 33.74334
-3.40556 -69.967209 30.256083
-2.075928 -74.902924 26.071005
-28.512203 -41.965977 32.153328
-29.551363 -42.691601 31.206131
-29.550619 -40.884499 31.817438
-27.623661 -40.877384 32.890831
-27.261431 -42.697975 32.576801
-4.861064 -52.698792 42.146603
-4.090697 -55.110725 41.373875
-5.489491 -54.239494 40.50069
-15.449823 -46.550545 36.204365
-14.982301 -49.027317 35.820751
-16.434183 -48.188068 35.372478
-11.843371 -36.271397 42.984024
-23.182064 -30.850504 36.293194
-35.010761 -28.216078 29.0287
-35.34708 -30.422169 28.32653
-36.233891 -28.438181 27.369995
0.23215 -69.493523 32.850807
1.685925 -70.070389 33.378048
1.003218 -71.83416 30.96384
0.250813 -73.710663 28.499346
-21.632652 -43.611324 34.446133
-20.992117 -46.030678 34.120323
-22.640551 -45.209213 33.729767
-2.765731 -59.795334 39.222961
-1.425658 -60.524986 39.922115
-1.929514 -62.220634 37.988316
-1.283086 -64.598 36.441463
-2.640275 -64.001007 35.918751
-10.058316 -49.36129 38.75687
-9.433372 -52.018085 38.19743
-10.736893 -51.304855 37.550655
-26.75721 -36.038414 34.016193
-28.332888 -35.853252 33.34985
-27.614107 -34.06012 33.891571
-29.110815 -27.895746 33.808681
-29.663582 -29.919924 33.270191
-30.667704 -27.752348 32.854675
-32.229877 -27.857357 31.71796
-9.518452 -43.50124 41.866871
-12.740063 -39.555275 40.216892
-11.97713 -42.105133 39.866787
-13.27046 -41.338299 39.022968
-13.974816 -42.969006 37.960171
-14.600561 -40.593525 38.26545
-19.100258 -34.217297 37.451351
-18.252516 -36.656387 37.219662
-17.383148 -39.241764 36.990528
-18.911438 -38.548588 36.444855
-19.739916 -40.225376 35.765953
-20.494455 -37.785439 35.971275
-24.4846 -34.424358 35.107681
-23.610178 -36.724182 35.060337
-25.164507 -36.304935 34.58215
-26.000889 -38.008812 34.032017
-31.149107 -35.887165 31.659674
-31.494761 -37.887096 31.036245
-32.451077 -36.114876 30.545197
-35.778927 -34.919861 26.710941
-34.840565 -36.803482 27.577749
-35.861469 -37.064003 25.74671
-35.790569 -39.068115 24.778715
-36.652409 -37.400921 23.788774
-8.224401 -57.047626 36.796413
-6.81746 -57.826206 37.312096
-7.499338 -59.601803 35.880905
-7.133131 -66.330872 31.687731
-6.166759 -64.592056 33.393055
-5.616109 -66.861443 31.929186
-4.175564 -67.617767 31.970106
-4.948628 -69.363945 30.124567
-3.655777 -74.368179 25.947613
-24.681227 -42.152477 33.737423
-24.138798 -44.408466 33.388691
-25.726215 -43.60017 32.989567
-2.279285 -54.169495 44.255051
-2.843528 -55.789146 42.267876
-3.402325 -57.54533 40.336868
-4.039645 -59.190372 38.556229
-12.635789 -48.052132 37.356018
-12.059283 -50.585541 36.946938
-13.457898 -49.834114 36.376038
-14.430919 -51.629784 35.380306
-25.36574 -32.241386 35.086811
-27.06559 -32.144924 34.363865
-26.419554 -30.169327 34.921722
-8.814516 -36.484165 47.358212
-9.269132 -37.94862 45.579201
-9.702264 -39.535034 43.884369
-10.26314 -41.100212 42.221241
-11.009354 -38.622204 42.659611
-12.246647 -37.901264 41.54248
-13.531774 -37.122864 40.540741
-20.016268 -31.944496 37.623322
-20.62635 -33.796261 36.795315
-21.304905 -35.442501 36.132767
-22.2267 -33.062382 36.248302
-23.777397 -32.734161 35.661491
-33.14333 -32.20948 30.499617
-33.437035 -34.321434 29.906834
-34.430595 -32.403721 29.144529
-35.61599 -32.623672 27.558664
-36.57827 -33.064228 25.841284
1.543501 -66.141716 37.482212
3.001542 -66.879715 38.178204
2.354689 -68.448639 35.755836
3.136237 -70.863419 33.763569
-8.267233 -61.299637 34.500771
-9.203177 -63.262222 32.890102
-8.57452 -65.675545 31.565491
-18.517654 -45.005085 35.248569
1.307463 -62.014061 41.552662
-0.722458 -59.141491 41.924492
-0.057124 -61.35656 40.627605
0.738224 -63.701683 39.190033
0.124632 -65.366852 36.923115
-0.54111 -67.005966 34.757637
-1.224255 -68.902596 32.44083
-7.467286 -50.999237 40.348377
-6.775369 -53.57526 39.663754
-8.085009 -52.703808 38.962456
-8.725378 -54.59153 37.619583
-9.516199 -56.469402 36.280544
-11.540985 -53.232735 36.384037
-28.169903 -39.200916 32.969662
-29.382029 -39.189522 32.319241
-28.8575 -37.564793 32.86956
-29.781456 -35.768562 32.582504
-30.693499 -33.868919 32.232376
-28.634464 -32.000896 33.62368
-30.194443 -31.893974 32.753441
-31.691046 -31.904329 31.743084
-32.803215 -29.968494 31.053144
-33.746616 -27.867846 30.404148
-5.596795 -50.160336 42.907856
-6.70557 -39.624416 48.493446
-6.92078 -49.26379 41.86216
-8.129706 -48.443729 40.952831
-9.354121 -47.705875 40.052124
-10.655499 -46.878078 39.202908
-10.755681 -42.838203 40.781944
-11.289554 -44.583286 39.519566
-11.97762 -46.30529 38.342945
-13.309558 -45.550293 37.64772
-14.639857 -44.846836 37.035221
-16.042904 -44.175747 36.471836
-14.414406 -34.651562 40.869289
-14.846794 -36.367081 39.638412
-16.230978 -35.565605 38.835293
-15.423029 -38.035671 38.530487
-15.959911 -39.678596 37.657246
-16.721684 -41.537746 36.758842
-17.548172 -43.292835 35.993454
-19.144258 -42.618996 35.507027
-20.677168 -42.007469 35.090698
-22.165131 -41.186016 34.759903
-21.935019 -37.329586 35.535351
-22.883675 -38.89986 34.939964
-23.722992 -40.526821 34.380932
-25.277214 -39.965786 33.967037
-26.802185 -39.483566 33.498814
-30.574135 -39.51527 31.416849
-31.763634 -39.974598 30.245968
-32.874542 -40.253483 28.927032
-33.692806 -36.409054 29.199005
-33.852825 -38.48991 28.369801
-33.83519 -40.678631 27.419706
-34.778965 -40.954025 25.613325
-35.520947 -41.271748 23.662544
-37.24128 -28.543011 25.601276
-37.308609 -30.953743 24.914085
-37.420135 -33.089157 23.956648
-37.410004 -35.347927 22.920059
-37.020397 -39.547985 20.63674
4.461299 -67.553093 39.012798
-6.035155 -56.164131 38.85857
-5.412854 -58.546814 37.897911
-4.638093 -60.928101 36.862614
-6.811429 -62.11808 34.748039
-5.422227 -62.760532 35.083344
-3.939171 -63.379372 35.530163
-3.406176 -65.818741 33.895504
-2.639589 -68.219299 32.23457
-1.851084 -70.821693 30.220415
-7.417346 -70.35936 28.304815
-5.860899 -71.142303 28.189568
-4.203575 -71.850159 28.169161
-2.711999 -72.474968 28.201368
-1.129136 -73.199806 28.249325
-36.097796 -27.285649 27.704091
-35.622326 -28.327129 28.199348
-35.486231 -27.174597 28.533444
-30.405686 -26.694554 33.138052
-29.88926 -27.824047 33.331678
-29.627241 -26.766253 33.615055
-31.214801 -26.739224 32.561477
-30.405686 -26.694554 33.138052
-9.243503 -42.693151 42.671452
-8.894882 -43.963032 42.397967
-30.043597 -43.068027 30.62293
-30.129295 -42.061898 30.968632
-27.0042 -43.749001 32.360022
-27.735396 -43.288353 32.120792
-15.66986 -52.108029 34.656456
-14.915636 -52.539271 34.881939
-15.185142 -51.198542 35.154823
-25.604497 -30.267404 35.283802
-25.892647 -31.205357 35.004266
-25.07759 -31.303434 35.366346
-9.215125 -35.26515 47.63229
-8.56341 -35.744984 48.325619
-9.931442 -37.484026 44.90584
-9.672827 -36.741951 45.815121
-10.335137 -36.277357 45.14176
-20.735458 -31.673577 37.312851
-20.570185 -30.741965 37.679045
-21.289375 -30.471045 37.368574
-24.283418 -31.549822 35.653686
-23.479731 -31.792333 35.977342
-23.985752 -30.607993 35.969538
-25.07759 -31.303434 35.366346
-24.571568 -32.487774 35.374151
-24.283418 -31.549822 35.653686
3.171338 -72.813309 31.593799
3.528391 -72.015575 32.794534
2.779184 -71.661152 32.562834
2.844167 -73.685264 30.324089
3.171338 -72.813309 31.593799
-9.960279 -62.828069 32.806659
-9.468547 -61.965812 33.510647
-9.084269 -66.443093 30.793104
-9.367698 -65.33141 31.465549
-8.273872 -66.891876 30.773512
-9.084269 -66.443093 30.793104
-19.743782 -45.643248 34.652879
-18.983289 -45.933346 34.86829
-19.278147 -44.714987 35.033159
-20.773913 -47.173647 33.907613
-21.566862 -46.780788 33.704719
-23.944932 -45.507597 33.150802
-24.684419 -45.059867 32.973437
0.962944 -60.91589 42.235424
1.650734 -61.328619 42.695721
-1.403308 -58.654719 41.573942
-1.116194 -57.838909 42.594324
-1.797044 -57.352137 42.243774
-33.544228 -26.795341 30.683341
-32.988247 -27.862602 31.061054
-32.785858 -26.790097 31.340247
-34.251998 -26.849003 29.975124
-33.544228 -26.795341 30.683341
-5.287154 -49.364918 43.849623
-4.973249 -50.524954 43.463026
-7.358987 -39.148187 47.773208
-7.112122 -38.428237 48.70989
-7.765538 -37.952009 47.989652
-6.877139 -47.334192 43.042421
-7.221347 -46.056986 43.380335
-7.213171 -48.064957 42.189989
-6.584748 -48.533026 42.714592
-6.877139 -47.334192 43.042421
-9.677357 -46.500312 40.259119
-9.073705 -46.87648 40.736075
-9.396942 -45.670918 40.94307
-15.045932 -34.326639 40.413059
-14.837345 -33.522885 41.039947
-15.262126 -35.184399 39.797621
-14.6306 -35.509321 40.25385
-15.045932 -34.326639 40.413059
-16.533734 -36.474851 38.320421
-16.891855 -35.240894 38.491715
-17.19461 -36.15014 37.976843
-36.278693 -40.520708 22.150318
-35.832238 -41.387076 22.582671
-35.967402 -40.40538 23.230191
-37.552813 -27.536654 25.088214
-37.094969 -27.474785 26.040076
-37.406502 -26.468429 25.527014
-37.68355 -31.071108 23.869232
-37.626739 -29.994411 24.377264
-37.739313 -32.138815 23.390514
-37.364372 -32.02145 24.435367
-37.68355 -31.071108 23.869232
-37.68853 -35.44128 21.836717
-37.724894 -34.333303 22.431284
-37.343417 -36.402247 22.389777
-37.68853 -35.44128 21.836717
-37.257419 -39.499609 19.47403
-37.390884 -38.554218 20.156029
-37.079786 -40.463386 18.796835
-36.842764 -40.511763 19.959544
-37.257419 -39.499609 19.47403
-7.961113 -71.215793 27.310868
-8.209836 -70.018803 28.287021
-5.549437 -72.342929 27.173913
-6.355013 -71.976947 27.228887
-4.720775 -72.696857 27.163709
-5.032237 -71.496231 28.179364
-5.549437 -72.342929 27.173913
-1.307359 -75.29057 26.037813
-0.833962 -74.43901 27.126973
-1.602532 -74.051365 27.160165
-29.031783 -42.328789 31.67973
-28.880361 -43.285166 31.435457
-28.360782 -42.922354 31.909055
-30.128923 -41.158347 31.274286
-30.129295 -42.061898 30.968632
-29.550991 -41.78805 31.511784
-28.360782 -42.922354 31.909055
-27.735396 -43.288353 32.120792
-27.886817 -42.331976 32.365065
-11.017385 -35.835068 44.429617
-10.335137 -36.277357 45.14176
-11.642195 -35.46105 43.80539
-11.218561 -36.645415 43.608251
-11.017385 -35.835068 44.429617
-12.279297 -35.087772 43.16955
-11.642195 -35.46105 43.80539
-12.872077 -34.777512 42.611864
-12.436151 -35.961136 42.426338
-12.279297 -35.087772 43.16955
-22.046515 -30.237004 37.002699
-21.289375 -30.471045 37.368574
-22.910223 -29.960927 36.648105
-22.318356 -31.126581 36.647787
-22.046515 -30.237004 37.002699
-23.678378 -29.698117 36.303776
-22.910223 -29.960927 36.648105
-23.985752 -30.607993 35.969538
-23.678378 -29.698117 36.303776
1.365422 -73.115269 29.842802
2.074879 -73.427631 30.041932
1.712674 -72.146523 31.16297
0.98922 -74.05352 28.610555
1.365422 -73.115269 29.842802
0.627015 -72.772412 29.731593
0.639311 -74.977161 27.383173
0.98922 -74.05352 28.610555
-22.391079 -46.370056 33.509442
-21.566862 -46.780788 33.704719
-21.816334 -45.619946 33.925045
-12.693137 -53.581486 35.626196
-13.412278 -53.163162 35.415486
-31.995888 -26.791729 31.99312
-31.448791 -27.804853 32.286318
-31.214801 -26.739224 32.561477
-32.785858 -26.790097 31.340247
-31.995888 -26.791729 31.99312
-7.599767 -39.922214 46.823196
-8.236851 -39.45909 46.150617
-7.888436 -45.645474 42.72344
-7.221347 -46.056986 43.380335
-8.149425 -46.456604 41.968922
-7.888436 -45.645474 42.72344
-9.155871 -44.774163 41.643448
-8.894882 -43.963032 42.397967
-9.759522 -44.397995 41.166493
-9.396942 -45.670918 40.94307
-9.155871 -44.774163 41.643448
-18.326495 -34.56674 37.799744
-18.800238 -33.43746 37.884495
-17.902624 -35.786285 37.683899
-18.326495 -34.56674 37.799744
-18.676387 -35.436842 37.335507
-17.544503 -37.020243 37.512606
-17.19461 -36.15014 37.976843
-17.902624 -35.786285 37.683899
4.476211 -69.460468 36.739841
4.172125 -70.315655 35.386589
-4.145891 -75.119411 25.000943
-4.446876 -73.955867 26.052935
-3.35538 -75.569686 24.842771
-4.145891 -75.119411 25.000943
-2.565456 -75.837059 24.904466
-2.865852 -74.635551 26.009309
-3.35538 -75.569686 24.842771
-1.718013 -76.161041 24.924338
-2.565456 -75.837059 24.904466
-29.4294 -43.664881 30.87773
-28.880361 -43.285166 31.435457
-29.4294 -43.664881 30.87773
-30.043597 -43.068027 30.62293
-25.478127 -44.65572 32.773875
-24.684419 -45.059867 32.973437
-24.932507 -44.004318 33.189129
-26.236592 -44.200098 32.566405
-26.493823 -43.149073 32.783184
-27.0042 -43.749001 32.360022
-25.478127 -44.65572 32.773875
-26.236592 -44.200098 32.566405
-1.894607 -55.352911 43.759603
-1.611691 -54.565134 44.817131
-2.176729 -56.162737 42.766016
-1.894607 -55.352911 43.759603
-2.561406 -54.979321 43.261464
-2.463843 -56.978546 41.745634
-1.797044 -57.352137 42.243774
-2.176729 -56.162737 42.766016
-14.165487 -52.829936 35.13884
-13.412278 -53.163162 35.415486
-13.67771 -51.963011 35.656952
-14.165487 -52.829936 35.13884
-14.915636 -52.539271 34.881939
-26.13116 -29.222293 35.215841
-25.604497 -30.267404 35.283802
-26.990606 -29.017528 34.800444
-26.13116 -29.222293 35.215841
-27.799396 -28.938349 34.414604
-27.228344 -30.090147 34.535882
-26.990606 -29.017528 34.800444
-28.336236 -27.880738 34.243923
-28.573974 -28.953356 33.979362
-27.799396 -28.938349 34.414604
-28.869606 -26.869643 34.081741
-28.336236 -27.880738 34.243923
-29.627241 -26.766253 33.615055
-28.869606 -26.869643 34.081741
-8.166595 -36.858112 48.142273
-8.56341 -35.744984 48.325619
-8.41346 -37.578062 47.205591
-7.765538 -37.952009 47.989652
-8.166595 -36.858112 48.142273
-9.445519 -36.009723 46.704627
-9.215125 -35.26515 47.63229
-9.041824 -37.216392 46.468706
-9.445519 -36.009723 46.704627
-9.672827 -36.741951 45.815121
-8.865216 -39.09742 45.413732
-8.236851 -39.45909 46.150617
-8.640768 -38.310289 46.316086
-9.081781 -39.890627 44.566316
-8.865216 -39.09742 45.413732
-9.485698 -38.741827 44.731785
-9.335409 -40.710048 43.6802
-9.081781 -39.890627 44.566316
-9.982702 -40.317623 43.052805
-9.615847 -41.492638 42.848636
-9.335409 -40.710048 43.6802
-19.780743 -31.120461 38.056429
-20.570185 -30.741965 37.679045
-19.258243 -32.30106 37.97048
-19.780743 -31.120461 38.056429
-19.558263 -33.080897 37.537337
-18.800238 -33.43746 37.884495
-19.258243 -32.30106 37.97048
2.272521 -66.510716 37.830208
2.556117 -65.688916 39.015887
1.827096 -65.319916 38.66789
3.867962 -71.192914 34.076021
4.172125 -70.315655 35.386589
3.440399 -69.98616 35.074137
3.867962 -71.192914 34.076021
3.528391 -72.015575 32.794534
2.844167 -73.685264 30.324089
2.074879 -73.427631 30.041932
-9.000575 -60.98452 34.315981
-8.599317 -60.101948 34.978878
-9.33266 -59.786831 34.794088
-8.735205 -62.280929 33.695436
-9.000575 -60.98452 34.315981
-9.468547 -61.965812 33.510647
-9.682027 -64.124748 32.127854
-9.960279 -62.828069 32.806659
-8.888848 -64.468884 32.227796
-9.682027 -64.124748 32.127854
-9.367698 -65.33141 31.465549
-7.553178 -67.21954 30.834632
-7.853825 -66.003208 31.626611
-8.273872 -66.891876 30.773512
-7.179784 -68.428539 30.02971
-6.759737 -67.539872 30.882809
-7.553178 -67.21954 30.834632
-18.199913 -46.262528 35.092041
-17.422051 -46.647629 35.318985
-17.739792 -45.390186 35.475513
-18.199913 -46.262528 35.092041
-18.983289 -45.933346 34.86829
-20.22052 -46.446143 34.304167
-19.743782 -45.643248 34.652879
-20.515379 -45.227784 34.469036
-20.22052 -46.446143 34.304167
-20.773913 -47.173647 33.907613
-23.195808 -45.90797 33.321341
-23.389674 -44.808839 33.559229
-23.944932 -45.507597 33.150802
-22.391079 -46.370056 33.509442
-23.195808 -45.90797 33.321341
2.039492 -62.518624 41.906259
1.650734 -61.328619 42.695721
1.709077 -63.256088 40.703115
2.039492 -62.518624 41.906259
-0.468088 -58.298209 43.015287
-1.116194 -57.838909 42.594324
-0.052017 -59.479605 42.421339
-0.468088 -58.298209 43.015287
0.280651 -60.587139 41.772896
-0.052017 -59.479605 42.421339
-0.389791 -60.249026 41.276049
0.62517 -61.68531 41.090134
0.962944 -60.91589 42.235424
0.280651 -60.587139 41.772896
1.424458 -64.099899 39.521801
1.709077 -63.256088 40.703115
1.022844 -62.857872 40.371347
1.140862 -64.9217 38.336123
1.827096 -65.319916 38.66789
1.424458 -64.099899 39.521801
-12.001379 -54.049734 35.851416
-12.232743 -52.764487 36.158817
-12.693137 -53.581486 35.626196
-11.26508 -54.468161 36.079754
-12.001379 -54.049734 35.851416
-10.545012 -54.783197 36.393774
-10.820916 -53.547771 36.698057
-11.26508 -54.468161 36.079754
-10.252688 -56.086495 36.028008
-9.808523 -55.166105 36.64631
-10.545012 -54.783197 36.393774
-9.945781 -57.253798 35.694401
-10.252688 -56.086495 36.028008
-9.653382 -58.471226 35.282621
-9.2238 -57.68683 35.868764
-9.945781 -57.253798 35.694401
-9.33266 -59.786831 34.794088
-9.653382 -58.471226 35.282621
-17.158178 -47.854019 35.153996
-16.698056 -46.981678 35.537468
-17.422051 -46.647629 35.318985
-16.925027 -49.085301 34.941059
-17.158178 -47.854019 35.153996
-16.677618 -50.374916 34.71949
-16.186774 -49.477684 35.150909
-16.925027 -49.085301 34.941059
-16.383592 -51.607986 34.49216
-16.677618 -50.374916 34.71949
-15.66986 -52.108029 34.656456
-16.383592 -51.607986 34.49216
-34.884071 -27.023119 29.287399
-34.378689 -28.041962 29.716424
-34.251998 -26.849003 29.975124
-35.486231 -27.174597 28.533444
-34.884071 -27.023119 29.287399
-1.98163 -53.336536 45.35874
-1.611691 -54.565134 44.817131
-2.640518 -52.995392 44.701563
-1.98163 -53.336536 45.35874
-3.313592 -52.511112 44.2132
-2.952358 -53.685215 43.766688
-2.640518 -52.995392 44.701563
-3.987567 -52.045254 43.64826
-3.313592 -52.511112 44.2132
-4.605383 -51.794182 43.0824
-4.243248 -52.949863 42.712463
-3.987567 -52.045254 43.64826
-5.228929 -51.429564 42.52723
-4.605383 -51.794182 43.0824
-4.973249 -50.524954 43.463026
-6.450645 -38.866222 49.479391
-7.112122 -38.428237 48.70989
-6.044142 -40.044086 49.277012
-6.450645 -38.866222 49.479391
-6.94635 -40.398443 47.543434
-7.358987 -39.148187 47.773208
-7.599767 -39.922214 46.823196
-6.321377 -40.793903 48.265518
-6.94635 -40.398443 47.543434
-6.044142 -40.044086 49.277012
-6.321377 -40.793903 48.265518
-5.922756 -48.981299 43.23744
-5.287154 -49.364918 43.849623
-6.258788 -49.712063 42.385008
-5.922756 -48.981299 43.23744
-6.584748 -48.533026 42.714592
-8.461498 -47.245407 41.186428
-7.817634 -47.654926 41.735325
-8.149425 -46.456604 41.968922
-8.741913 -48.074802 40.502477
-8.461498 -47.245407 41.186428
-9.073705 -46.87648 40.736075
-9.890796 -42.300726 42.044056
-9.243503 -42.693151 42.671452
-9.615847 -41.492638 42.848636
-13.474998 -34.467596 42.0419
-12.872077 -34.777512 42.611864
-14.167735 -33.967939 41.542219
-14.837345 -33.522885 41.039947
-13.721668 -35.151218 41.368971
-13.474998 -34.467596 42.0419
-14.167735 -33.967939 41.542219
-16.635452 -34.396864 38.992044
-16.891855 -35.240894 38.491715
-15.954218 -34.783661 39.396061
-16.635452 -34.396864 38.992044
-15.538886 -35.966343 39.236852
-15.262126 -35.184399 39.797621
-15.954218 -34.783661 39.396061
-30.64068 -40.473732 31.073991
-30.128923 -41.158347 31.274286
-30.062377 -40.199884 31.617143
-31.23543 -40.703396 30.488551
-30.64068 -40.473732 31.073991
-31.168884 -39.744934 30.831409
-31.726235 -41.001992 29.885159
-31.23543 -40.703396 30.488551
-32.281689 -41.141434 29.22569
-31.726235 -41.001992 29.885159
-32.319088 -40.114041 29.5865
-32.81626 -41.314509 28.478109
-32.281689 -41.141434 29.22569
-33.296583 -41.527083 27.724446
-32.81626 -41.314509 28.478109
-33.354866 -40.466057 28.173369
-33.78124 -41.698237 26.855813
-33.296583 -41.527083 27.724446
-34.253128 -41.835933 25.952623
-33.78124 -41.698237 26.855813
-34.307077 -40.816328 26.516516
-34.630945 -42.010782 25.035616
-34.253128 -41.835933 25.952623
-35.001936 -42.169643 24.060226
-34.630945 -42.010782 25.035616
-35.149956 -41.112887 24.637935
-35.355761 -42.270611 22.987884
-35.001936 -42.169643 24.060226
-35.355761 -42.270611 22.987884
-35.832238 -41.387076 22.582671
-36.591274 -27.42237 26.924436
-36.097796 -27.285649 27.704091
-36.737586 -28.490596 26.485636
-36.591274 -27.42237 26.924436
-37.094969 -27.474785 26.040076
-37.593075 -28.789044 24.720859
-37.552813 -27.536654 25.088214
-37.274945 -29.748377 25.25768
-37.593075 -28.789044 24.720859
-37.626739 -29.994411 24.377264
-37.729959 -33.203919 22.949579
-37.739313 -32.138815 23.390514
-37.41507 -34.218542 23.438353
-37.729959 -33.203919 22.949579
-37.724894 -34.333303 22.431284
-36.964619 -37.428743 22.824134
-37.031206 -36.374424 23.354416
-37.343417 -36.402247 22.389777
-36.845343 -38.497789 22.328666
-36.533133 -38.469967 23.293306
-36.964619 -37.428743 22.824134
-37.148613 -38.502275 21.248117
-37.390884 -38.554218 20.156029
-36.717127 -39.543499 21.717289
-36.845343 -38.497789 22.328666
-37.148613 -38.502275 21.248117
-36.581963 -40.525194 21.069769
-36.278693 -40.520708 22.150318
-36.717127 -39.543499 21.717289
-36.40433 -41.488972 20.392573
-36.581963 -40.525194 21.069769
-36.842764 -40.511763 19.959544
3.31688 -66.125233 39.405495
2.556117 -65.688916 39.015887
4.046759 -66.461922 39.822792
3.31688 -66.125233 39.405495
3.731421 -67.216404 38.595501
4.773221 -66.84977 40.236494
4.046759 -66.461922 39.822792
4.83458 -68.682564 38.053888
4.102931 -68.330997 37.698752
4.476211 -69.460468 36.739841
5.173635 -67.96896 39.325645
4.83458 -68.682564 38.053888
4.773221 -66.84977 40.236494
5.173635 -67.96896 39.325645
-7.695286 -69.233784 29.143174
-8.209836 -70.018803 28.287021
-6.901845 -69.554115 29.191351
-7.179784 -68.428539 30.02971
-7.695286 -69.233784 29.143174
-7.133237 -71.585476 27.28651
-7.961113 -71.215793 27.310868
-6.639123 -70.750832 28.247191
-7.133237 -71.585476 27.28651
-6.355013 -71.976947 27.228887
-3.929676 -73.109169 27.058387
-4.720775 -72.696857 27.163709
-4.446876 -73.955867 26.052935
-0.143988 -74.694439 27.251984
-0.439161 -73.455234 28.374336
-0.833962 -74.43901 27.126973
0.639311 -74.977161 27.383173
-0.143988 -74.694439 27.251984
-1.307359 -75.29057 26.037813
-1.718013 -76.161041 24.924338
3 0 62 60
3 0 60 63
3 1 67 65
3 2 70 68
3 248 75 249
3 250 249 73
3 248 249 250
3 3 78 76
3 3 79 78
3 4 82 80
3 5 85 83
3 5 87 85
3 6 90 88
3 8 93 91
3 251 96 252
3 253 252 94
3 251 252 253
3 255 254 96
3 256 98 257
3 10 101 99
3 10 103 101
3 11 105 104
3 11 107 105
3 11 109 107
3 8 112 110
3 8 91 112
3 9 116 114
3 12 119 117
3 12 121 119
3 7 124 122
3 13 127 125
3 13 129 127
3 259 258 61
3 14 133 131
3 261 260 64
3 15 135 134
3 17 136 66
3 17 137 136
3 18 140 138
3 20 141 69
3 20 262 264
3 264 263 141
3 262 263 264
3 265 144 266
3 267 266 142
3 265 266 267
3 268 145 269
3 23 270 272
3 270 146 271
3 270 271 272
3 23 147 146
3 23 149 147
3 25 150 71
3 25 151 150
3 26 273 275
3 273 152 274
3 273 274 275
3 26 153 152
3 26 155 153
3 276 156 277
3 278 277 72
3 276 277 278
3 279 142 280
3 281 280 156
3 279 280 281
3 28 159 157
3 30 160 74
3 30 161 160
3 31 164 162
3 33 165 77
3 33 282 284
3 284 283 165
3 282 283 284
3 33 285 286
3 287 167 288
3 289 168 290
3 292 291 168
3 35 293 295
3 295 294 169
3 293 294 295
3 297 296 81
3 299 298 132
3 300 170 301
3 16 302 304
3 302 171 303
3 302 303 304
3 36 172 84
3 36 173 172
3 36 174 173
3 37 175 86
3 37 176 175
3 38 179 177
3 40 180 89
3 40 181 180
3 19 182 139
3 41 185 183
3 43 186 92
3 43 187 186
3 21 188 143
3 44 189 95
3 44 190 189
3 44 191 190
3 305 192 306
3 307 306 97
3 305 306 307
3 309 308 192
3 310 193 311
3 22 312 314
3 312 194 313
3 312 313 314
3 45 315 316
3 45 317 319
3 317 195 318
3 317 318 319
3 45 196 195
3 46 320 322
3 320 197 321
3 320 321 322
3 46 198 197
3 24 199 148
3 47 200 100
3 47 201 200
3 47 202 201
3 48 203 102
3 48 204 203
3 323 205 324
3 325 206 326
3 327 326 205
3 325 326 327
3 49 328 330
3 328 207 329
3 328 329 330
3 49 208 207
3 49 209 208
3 50 210 106
3 50 211 210
3 50 212 211
3 51 213 108
3 51 214 213
3 27 215 154
3 52 216 111
3 52 217 216
3 52 218 217
3 41 219 113
3 41 183 219
3 42 220 184
3 53 221 115
3 53 222 221
3 29 223 158
3 54 224 118
3 54 225 224
3 54 226 225
3 55 227 120
3 55 331 333
3 333 332 227
3 331 332 333
3 334 228 335
3 334 335 336
3 337 229 338
3 339 230 340
3 341 340 229
3 339 340 341
3 342 231 343
3 345 344 231
3 346 232 347
3 350 349 232
3 348 349 350
3 32 233 163
3 39 234 178
3 56 235 123
3 56 236 235
3 34 237 166
3 57 238 126
3 57 239 238
3 57 240 239
3 58 241 128
3 58 242 241
3 351 243 352
3 353 244 354
3 355 245 356
3 357 356 244
3 355 356 357
3 59 246 130
3 59 247 246
3 59 358 360
3 360 359 247
3 358 359 360
3 60 361 363
3 361 61 362
3 361 362 363
3 62 61 60
3 62 364 366
3 366 365 61
3 364 365 366
3 63 64 14
3 60 64 63
3 60 367 369
3 369 368 64
3 367 368 369
3 65 66 15
3 67 66 65
3 67 17 66
3 68 69 18
3 70 69 68
3 70 20 69
3 370 23 371
3 372 71 373
3 374 373 23
3 372 373 374
3 375 71 376
3 377 25 378
3 379 378 71
3 377 378 379
3 380 26 381
3 382 72 383
3 384 383 26
3 382 383 384
3 385 72 386
3 388 387 72
3 73 74 28
3 75 74 73
3 75 30 74
3 76 77 31
3 78 77 76
3 78 33 77
3 78 389 391
3 391 390 33
3 389 390 391
3 79 392 394
3 394 393 78
3 392 393 394
3 79 395 396
3 80 81 35
3 82 81 80
3 82 397 399
3 399 398 81
3 397 398 399
3 83 84 16
3 85 84 83
3 85 36 84
3 85 86 36
3 87 86 85
3 87 37 86
3 88 89 38
3 90 89 88
3 90 40 89
3 401 400 19
3 91 92 41
3 93 92 91
3 93 43 92
3 94 95 21
3 96 95 94
3 96 44 95
3 96 97 44
3 402 97 403
3 404 403 96
3 402 403 404
3 406 405 97
3 408 407 22
3 409 45 410
3 412 411 45
3 98 413 414
3 98 415 417
3 415 46 416
3 415 416 417
3 99 100 24
3 101 100 99
3 101 47 100
3 101 102 47
3 103 102 101
3 103 48 102
3 104 418 419
3 105 420 422
3 422 421 104
3 420 421 422
3 105 423 425
3 423 49 424
3 423 424 425
3 105 106 49
3 107 106 105
3 107 50 106
3 107 108 50
3 109 108 107
3 109 51 108
3 110 111 27
3 112 111 110
3 112 52 111
3 112 113 52
3 91 113 112
3 91 41 113
3 114 115 42
3 116 115 114
3 116 53 115
3 117 118 29
3 119 118 117
3 119 54 118
3 119 120 54
3 121 120 119
3 121 55 120
3 427 426 32
3 122 123 39
3 124 123 122
3 124 56 123
3 125 126 34
3 127 126 125
3 127 57 126
3 127 128 57
3 129 128 127
3 129 58 128
3 428 130 429
3 430 130 431
3 432 59 433
3 434 433 130
3 432 433 434
3 436 435 59
3 61 437 438
3 440 439 61
3 131 132 4
3 133 132 131
3 133 441 443
3 443 442 132
3 441 442 443
3 64 133 14
3 444 133 445
3 446 445 64
3 444 445 446
3 448 447 133
3 134 449 450
3 135 451 453
3 453 452 134
3 451 452 453
3 135 454 456
3 454 16 455
3 454 455 456
3 66 135 15
3 136 135 66
3 136 16 135
3 136 83 16
3 137 83 136
3 137 5 83
3 138 139 6
3 140 139 138
3 140 19 139
3 69 140 18
3 141 140 69
3 141 19 140
3 141 457 459
3 459 458 19
3 457 458 459
3 461 460 141
3 142 143 8
3 144 143 142
3 144 21 143
3 462 144 463
3 464 144 465
3 466 21 467
3 468 467 144
3 466 467 468
3 469 94 470
3 471 470 21
3 469 470 471
3 472 94 473
3 475 474 94
3 145 476 477
3 145 478 480
3 478 22 479
3 478 479 480
3 481 145 482
3 146 483 485
3 483 145 484
3 483 484 485
3 146 22 145
3 146 486 488
3 488 487 22
3 486 487 488
3 147 489 491
3 491 490 146
3 489 490 491
3 147 492 493
3 147 494 496
3 494 148 495
3 494 495 496
3 149 148 147
3 149 24 148
3 71 149 23
3 150 149 71
3 150 24 149
3 150 99 24
3 151 99 150
3 151 10 99
3 152 497 498
3 152 499 500
3 152 501 503
3 501 104 502
3 501 502 503
3 153 104 152
3 153 11 104
3 153 154 11
3 155 154 153
3 155 27 154
3 72 155 26
3 156 155 72
3 156 27 155
3 156 110 27
3 142 110 156
3 142 8 110
3 157 158 9
3 159 158 157
3 159 29 158
3 74 159 28
3 160 159 74
3 160 29 159
3 160 117 29
3 161 117 160
3 161 12 117
3 162 504 506
3 504 163 505
3 504 505 506
3 164 163 162
3 164 32 163
3 77 164 31
3 165 164 77
3 165 32 164
3 165 507 509
3 509 508 32
3 507 508 509
3 511 510 165
3 513 512 33
3 514 166 515
3 516 515 7
3 514 515 516
3 167 517 519
3 517 166 518
3 517 518 519
3 167 34 166
3 520 167 521
3 168 522 524
3 522 167 523
3 522 523 524
3 168 34 167
3 168 125 34
3 525 125 526
3 527 526 168
3 525 526 527
3 528 13 529
3 530 529 125
3 528 529 530
3 169 531 533
3 533 532 2
3 531 532 533
3 535 534 169
3 81 536 538
3 538 537 35
3 536 537 538
3 540 539 81
3 132 82 4
3 541 82 542
3 543 542 132
3 541 542 543
3 545 544 82
3 170 546 547
3 170 548 549
3 171 550 551
3 171 552 553
3 84 171 16
3 172 171 84
3 172 554 556
3 556 555 171
3 554 555 556
3 172 557 559
3 557 170 558
3 557 558 559
3 173 170 172
3 173 560 562
3 562 561 170
3 560 561 562
3 173 563 565
3 563 162 564
3 563 564 565
3 174 162 173
3 174 31 162
3 86 174 36
3 175 174 86
3 175 31 174
3 175 76 31
3 176 76 175
3 176 3 76
3 177 178 1
3 179 178 177
3 179 39 178
3 89 179 38
3 180 179 89
3 180 39 179
3 180 122 39
3 181 122 180
3 181 7 122
3 139 90 6
3 182 90 139
3 182 40 90
3 566 182 567
3 568 567 19
3 566 567 568
3 569 182 570
3 571 40 572
3 573 572 182
3 571 572 573
3 574 181 575
3 576 575 40
3 574 575 576
3 577 181 578
3 579 7 580
3 581 580 181
3 579 580 581
3 583 582 7
3 584 70 585
3 586 585 2
3 584 585 586
3 587 70 588
3 589 20 590
3 591 590 70
3 589 590 591
3 592 20 593
3 595 594 20
3 183 184 0
3 185 184 183
3 185 42 184
3 92 185 41
3 186 185 92
3 186 42 185
3 186 114 42
3 187 114 186
3 187 9 114
3 143 93 8
3 188 93 143
3 188 43 93
3 95 188 21
3 189 188 95
3 189 43 188
3 189 187 43
3 190 187 189
3 190 9 187
3 190 157 9
3 191 157 190
3 191 28 157
3 97 191 44
3 192 191 97
3 192 28 191
3 192 73 28
3 596 73 597
3 598 597 192
3 596 597 598
3 600 599 73
3 601 134 602
3 603 134 604
3 605 15 606
3 607 606 134
3 605 606 607
3 608 15 609
3 610 65 611
3 612 611 15
3 610 611 612
3 193 613 615
3 613 65 614
3 613 614 615
3 193 1 65
3 194 616 617
3 194 618 619
3 620 194 621
3 622 621 22
3 620 621 622
3 623 194 624
3 626 625 194
3 627 193 628
3 195 629 631
3 629 193 630
3 629 630 631
3 195 1 193
3 195 177 1
3 196 177 195
3 196 38 177
3 632 196 633
3 634 633 45
3 632 633 634
3 197 635 637
3 635 196 636
3 635 636 637
3 197 38 196
3 197 88 38
3 198 88 197
3 198 6 88
3 148 638 640
3 638 98 639
3 638 639 640
3 199 98 148
3 199 46 98
3 100 199 24
3 200 199 100
3 200 46 199
3 200 198 46
3 201 198 200
3 201 6 198
3 201 138 6
3 202 138 201
3 202 18 138
3 102 202 47
3 203 202 102
3 203 18 202
3 203 68 18
3 204 68 203
3 204 2 68
3 641 25 642
3 205 643 644
3 205 645 647
3 645 25 646
3 645 646 647
3 205 151 25
3 206 151 205
3 206 10 151
3 207 648 649
3 207 650 651
3 207 652 654
3 652 206 653
3 652 653 654
3 208 206 207
3 208 10 206
3 208 103 10
3 209 103 208
3 209 48 103
3 106 209 49
3 210 209 106
3 210 48 209
3 210 204 48
3 211 204 210
3 211 2 204
3 211 169 2
3 212 169 211
3 212 35 169
3 108 212 50
3 213 212 108
3 213 35 212
3 213 80 35
3 214 80 213
3 214 4 80
3 154 109 11
3 215 109 154
3 215 51 109
3 111 215 27
3 216 215 111
3 216 51 215
3 216 214 51
3 217 214 216
3 217 4 214
3 217 131 4
3 218 131 217
3 218 14 131
3 113 218 52
3 219 218 113
3 219 14 218
3 219 63 14
3 183 63 219
3 183 0 63
3 184 62 0
3 220 62 184
3 220 655 657
3 657 656 62
3 655 656 657
3 115 220 42
3 221 220 115
3 221 658 660
3 660 659 220
3 658 659 660
3 221 661 662
3 222 663 665
3 665 664 221
3 663 664 665
3 222 666 667
3 158 116 9
3 223 116 158
3 223 53 116
3 118 223 29
3 224 223 118
3 224 53 223
3 224 222 53
3 225 222 224
3 225 668 670
3 670 669 222
3 668 669 670
3 225 671 672
3 226 673 675
3 675 674 225
3 673 674 675
3 226 676 677
3 120 226 54
3 227 226 120
3 227 678 680
3 680 679 226
3 678 679 680
3 227 681 682
3 684 683 227
3 685 75 686
3 228 687 689
3 687 75 688
3 687 688 689
3 228 30 75
3 690 228 691
3 229 692 694
3 692 228 693
3 692 693 694
3 229 30 228
3 229 161 30
3 230 161 229
3 230 12 161
3 695 230 696
3 231 697 699
3 697 230 698
3 697 698 699
3 231 12 230
3 231 121 12
3 700 121 701
3 702 701 231
3 700 701 702
3 703 55 704
3 705 704 121
3 703 704 705
3 232 706 707
3 232 708 710
3 708 55 709
3 708 709 710
3 232 711 713
3 713 712 55
3 711 712 713
3 716 715 232
3 714 715 716
3 163 717 718
3 233 719 721
3 721 720 163
3 719 720 721
3 233 722 723
3 724 233 725
3 726 725 32
3 724 725 726
3 727 233 728
3 730 729 233
3 178 67 1
3 234 67 178
3 234 17 67
3 123 234 39
3 235 234 123
3 235 17 234
3 235 137 17
3 236 137 235
3 236 5 137
3 166 124 7
3 237 124 166
3 237 56 124
3 126 237 34
3 238 237 126
3 238 56 237
3 238 236 56
3 239 236 238
3 239 5 236
3 239 87 5
3 240 87 239
3 240 37 87
3 128 240 57
3 241 240 128
3 241 37 240
3 241 176 37
3 242 176 241
3 242 3 176
3 243 731 732
3 243 733 735
3 733 13 734
3 733 734 735
3 736 243 737
3 244 738 740
3 738 243 739
3 738 739 740
3 244 13 243
3 244 129 13
3 245 129 244
3 245 58 129
3 130 741 743
3 741 245 742
3 741 742 743
3 246 245 130
3 246 58 245
3 246 242 58
3 247 242 246
3 247 3 242
3 247 79 3
3 744 79 745
3 746 745 247
3 744 745 746
3 748 747 79
3 750 749 59
