ply
format ascii 1.0
element vertex 288
property float x
property float y
property float z
element face 262
property list uchar int vertex_index
end_header
0.444677 -7.06246 -56.196083
1.486815 3.298111 -58.359138
3.498672 -5.94065 -51.574284
4.322035 -0.842785 -52.47348
0.847984 -1.627748 -57.587101
-0.225295 3.019233 -61.22147
4.737638 -15.444679 -46.724922
5.061106 -20.626492 -45.148285
2.321537 8.442308 -58.663044
3.361741 3.880721 -55.516941
2.391335 -1.539483 -54.949501
1.868291 -6.625204 -53.827038
3.064616 -11.210961 -50.279907
1.669844 -11.687292 -52.442436
0.583619 -4.28968 -57.012108
0.082975 -1.91109 -58.832207
-0.147483 -4.460351 -58.221821
-0.336235 -7.159232 -57.480095
5.924337 -20.036648 -44.159332
6.195126 -22.736368 -43.366997
3.910854 6.605722 -55.677715
4.378932 4.198435 -54.243969
3.915229 -3.491765 -51.977757
3.3059 -1.219112 -53.679577
2.925104 -3.731172 -53.253841
2.082649 -4.004349 -54.474178
2.632779 -6.290269 -52.698559
1.86627 5.928952 -58.627403
1.328248 8.401849 -60.31271
0.968123 5.799503 -60.135754
-1.181093 2.916857 -62.677231
-0.846448 5.499922 -63.036606
2.366283 -11.577311 -51.276314
2.357833 -14.149429 -50.561108
4.693485 -24.333055 -45.265633
4.873053 1.999254 -52.865902
1.09589 0.751093 -58.081787
0.657796 3.271454 -59.807003
0.30153 0.726419 -59.478928
5.736299 -17.62347 -44.94173
4.786521 -17.989012 -46.022114
4.052882 -18.779758 -46.87883
3.868828 11.441757 -57.123566
2.755128 11.241678 -58.723625
3.330173 8.82606 -57.203709
2.861082 6.08009 -57.046253
2.368567 3.453084 -56.91013
3.780259 1.438421 -54.028229
2.834346 1.138373 -55.291668
1.966281 0.872763 -56.610287
1.622929 -1.508627 -56.255184
1.335933 -3.997656 -55.772614
1.154584 -6.643305 -55.083561
6.658536 -25.812624 -42.471973
1.810398 10.901831 -60.155178
0.079628 5.555388 -61.575603
3.252825 -8.648046 -50.890614
2.477091 -8.979344 -51.954472
1.72868 -9.123783 -53.172222
1.023195 -9.522343 -54.289791
5.43125 -23.603191 -44.272083
4.310408 -21.395643 -46.103458
3.330577 -19.141735 -47.923927
2.46703 -17.009069 -49.716976
1.695849 -14.509713 -51.605099
0.932048 -12.001531 -53.636917
6.81823 -23.727974 -42.487697
6.64685 -22.32866 -42.895767
5.012453 4.500666 -53.603023
4.709675 5.639702 -54.308712
-1.54015 4.130035 -63.577659
-1.670253 2.767604 -63.292422
2.75644 -15.30265 -49.635807
2.709344 -13.92275 -50.04896
-0.23076 -0.703383 -59.824707
-0.341725 -1.929248 -59.525317
6.307931 -18.473399 -44.089883
6.253334 -17.293024 -44.480539
4.165663 10.4297 -56.453869
4.477799 11.939653 -56.437071
3.896336 9.121852 -56.493941
3.5995 10.133909 -57.163638
4.165663 10.4297 -56.453869
1.025461 9.562973 -61.111576
0.859527 8.265636 -61.067307
-0.69339 6.805865 -63.176914
-1.227933 6.681351 -63.922886
4.749239 -14.211638 -47.087356
5.218529 -15.254573 -46.225116
3.503691 -11.077616 -49.708763
3.440657 -12.239649 -49.416906
3.158721 -9.929503 -50.585261
3.597796 -9.796159 -50.014117
3.503691 -11.077616 -49.708763
5.680177 -25.17413 -43.833937
6.044893 -24.707907 -43.372028
6.29382 -26.278847 -42.933881
3.958131 -21.744042 -46.600685
4.501946 -22.864349 -45.684545
4.14967 -23.212747 -46.181773
3.468216 -20.617088 -47.510919
3.820492 -20.268689 -47.013693
3.958131 -21.744042 -46.600685
2.107857 -17.155169 -50.282213
2.559737 -18.361181 -49.318016
1.722266 -15.905492 -51.226275
2.08144 -15.759391 -50.661038
2.107857 -17.155169 -50.282213
0.594186 -12.294778 -54.104812
0.975691 -13.395879 -53.152715
0.610664 -10.858049 -54.567299
0.594186 -12.294778 -54.104812
-0.456954 -3.203878 -59.220123
-0.341725 -1.929248 -59.525317
-0.032254 -3.18572 -58.527014
-0.557698 -4.550227 -58.838223
-0.456954 -3.203878 -59.220123
-0.652075 -5.899667 -58.46736
-0.557698 -4.550227 -58.838223
-0.241859 -5.809792 -57.850958
-0.753758 -7.320881 -58.047753
-0.652075 -5.899667 -58.46736
6.511455 -20.9788 -43.291935
6.40195 -19.679988 -43.698684
6.059731 -21.386508 -43.763165
6.511455 -20.9788 -43.291935
6.64685 -22.32866 -42.895767
4.475637 6.843345 -55.025585
4.186676 8.011682 -55.730943
4.144893 5.402079 -54.960842
4.475637 6.843345 -55.025585
4.709675 5.639702 -54.308712
0.679464 6.964463 -60.978828
0.859527 8.265636 -61.067307
1.148186 7.100676 -60.224232
-1.372828 5.421568 -63.757347
-1.01377 4.20839 -62.856918
-1.54015 4.130035 -63.577659
-1.227933 6.681351 -63.922886
-1.372828 5.421568 -63.757347
4.277168 -14.356508 -47.639414
4.312629 -15.689789 -47.226376
3.062736 -12.453516 -49.90836
3.440657 -12.239649 -49.416906
2.713569 -12.636691 -50.406563
2.71545 -11.394136 -50.77811
3.062736 -12.453516 -49.90836
2.362058 -12.86337 -50.918711
2.713569 -12.636691 -50.406563
2.709344 -13.92275 -50.04896
4.921176 -25.816561 -44.865555
5.311294 -25.539062 -44.330711
4.354798 -24.778936 -45.732636
4.921176 -25.816561 -44.865555
4.14967 -23.212747 -46.181773
4.354798 -24.778936 -45.732636
5.558844 2.306449 -52.243269
5.259514 3.401076 -52.91399
5.211392 0.87882 -52.088787
5.558844 2.306449 -52.243269
4.935883 -0.542199 -51.892576
4.597544 0.578234 -52.669691
5.211392 0.87882 -52.088787
4.646966 -1.93942 -51.683639
4.935883 -0.542199 -51.892576
4.443563 -3.26391 -51.435778
4.118632 -2.167275 -52.225618
4.646966 -1.93942 -51.683639
4.189096 -4.651797 -51.197758
4.443563 -3.26391 -51.435778
3.980818 -5.87624 -50.996021
3.706951 -4.716207 -51.776021
4.189096 -4.651797 -51.197758
-0.121482 0.615371 -60.148068
0.192252 -0.592335 -59.155568
-0.23076 -0.703383 -59.824707
-0.384895 1.761778 -61.019339
0.038118 1.872826 -60.350199
-0.121482 0.615371 -60.148068
-0.862794 1.71059 -61.747219
-0.703194 2.968045 -61.94935
-0.384895 1.761778 -61.019339
-1.317239 1.638481 -62.405622
-0.862794 1.71059 -61.747219
-1.670253 2.767604 -63.292422
-1.317239 1.638481 -62.405622
5.71786 -16.343968 -45.33352
6.253334 -17.293024 -44.480539
5.236968 -16.534075 -45.833326
5.218529 -15.254573 -46.225116
5.71786 -16.343968 -45.33352
5.830318 -18.830059 -44.550531
6.307931 -18.473399 -44.089883
6.40195 -19.679988 -43.698684
4.337071 -16.961955 -46.874972
4.312629 -15.689789 -47.226376
4.762079 -16.716845 -46.373518
3.970252 -17.357329 -47.30333
4.337071 -16.961955 -46.874972
4.419702 -18.384385 -46.450472
3.603965 -17.617814 -47.794668
3.970252 -17.357329 -47.30333
4.10969 12.885191 -57.097805
4.477799 11.939653 -56.437071
3.571229 12.615512 -57.79793
4.10969 12.885191 -57.097805
3.311978 11.341718 -57.923595
3.014379 12.515472 -58.59796
3.571229 12.615512 -57.79793
3.620513 7.715891 -56.440712
3.896336 9.121852 -56.493941
4.186676 8.011682 -55.730943
4.625992 3.098845 -53.554935
5.012453 4.500666 -53.603023
5.259514 3.401076 -52.91399
7.322216 -26.759761 -41.591835
7.049934 -25.266102 -42.040185
6.939874 -27.281977 -42.053064
7.322216 -26.759761 -41.591835
6.29382 -26.278847 -42.933881
6.939874 -27.281977 -42.053064
2.450805 12.398188 -59.435993
3.014379 12.515472 -58.59796
1.97844 12.228265 -60.15177
2.450805 12.398188 -59.435993
2.282763 11.071755 -59.439402
1.446988 12.069148 -60.971361
1.97844 12.228265 -60.15177
1.266536 10.812964 -61.03281
1.569323 9.65184 -60.233944
1.025461 9.562973 -61.111576
1.446988 12.069148 -60.971361
1.266536 10.812964 -61.03281
0.235217 6.842406 -61.698753
0.679464 6.964463 -60.978828
0.523875 5.677445 -60.855678
-0.230352 6.833597 -62.446413
-0.38341 5.527655 -62.306105
-0.69339 6.805865 -63.176914
0.235217 6.842406 -61.698753
-0.230352 6.833597 -62.446413
3.816147 -7.13428 -50.711764
3.980818 -5.87624 -50.996021
4.749239 -14.211638 -47.087356
4.277168 -14.356508 -47.639414
3.693224 -8.487978 -50.369929
3.597796 -9.796159 -50.014117
3.375749 -7.294348 -51.232449
3.816147 -7.13428 -50.711764
3.693224 -8.487978 -50.369929
6.426831 -24.274496 -42.919485
6.81823 -23.727974 -42.487697
7.049934 -25.266102 -42.040185
5.062368 -23.968123 -44.768858
5.680177 -25.17413 -43.833937
5.311294 -25.539062 -44.330711
3.242812 -17.798803 -48.317217
3.603965 -17.617814 -47.794668
3.69173 -18.960746 -47.401378
2.991511 -19.427514 -48.421492
3.468216 -20.617088 -47.510919
2.898803 -18.075402 -48.820452
2.991511 -19.427514 -48.421492
2.559737 -18.361181 -49.318016
2.811038 -16.73247 -49.213741
3.242812 -17.798803 -48.317217
2.898803 -18.075402 -48.820452
2.412431 -15.579249 -50.139042
2.75644 -15.30265 -49.635807
2.811038 -16.73247 -49.213741
1.357591 -14.649971 -52.136807
1.722266 -15.905492 -51.226275
1.313948 -13.255622 -52.621008
1.357591 -14.649971 -52.136807
0.975691 -13.395879 -53.152715
0.656238 -9.618455 -54.893736
0.977622 -10.761937 -53.963354
0.610664 -10.858049 -54.567299
0.366979 -8.388514 -55.846882
0.733936 -8.292402 -55.242937
0.656238 -9.618455 -54.893736
-0.023477 -8.4369 -56.488888
0.054221 -7.110846 -56.838089
0.366979 -8.388514 -55.846882
-0.400046 -8.587864 -57.039526
-0.023477 -8.4369 -56.488888
-0.753758 -7.320881 -58.047753
-0.400046 -8.587864 -57.039526
3 0 16 14
3 0 17 16
3 66 19 67
3 68 21 69
3 2 24 22
3 2 26 24
3 1 29 27
3 71 70 30
3 72 33 73
3 4 38 36
3 75 74 15
3 76 39 77
3 7 40 18
3 7 41 40
3 78 42 79
3 80 44 81
3 82 81 42
3 80 81 82
3 9 45 20
3 9 46 45
3 3 47 35
3 10 48 23
3 10 49 48
3 10 50 49
3 11 51 25
3 11 52 51
3 8 54 43
3 84 83 28
3 5 55 37
3 86 85 31
3 6 87 88
3 12 89 90
3 12 91 93
3 91 56 92
3 91 92 93
3 12 57 56
3 13 58 32
3 13 59 58
3 94 60 95
3 96 95 53
3 94 95 96
3 97 61 98
3 99 98 34
3 97 98 99
3 100 62 101
3 102 101 61
3 100 101 102
3 103 63 104
3 105 64 106
3 107 106 63
3 105 106 107
3 108 65 109
3 111 110 65
3 14 15 4
3 16 15 14
3 16 112 114
3 114 113 15
3 112 113 114
3 16 115 116
3 17 117 119
3 119 118 16
3 117 118 119
3 17 120 121
3 122 18 123
3 19 124 126
3 124 18 125
3 124 125 126
3 19 7 18
3 127 20 128
3 21 129 131
3 129 20 130
3 129 130 131
3 21 9 20
3 22 23 3
3 24 23 22
3 24 10 23
3 24 25 10
3 26 25 24
3 26 11 25
3 27 28 8
3 29 28 27
3 29 132 134
3 134 133 28
3 132 133 134
3 30 31 5
3 135 31 136
3 137 136 30
3 135 136 137
3 139 138 31
3 141 140 6
3 142 12 143
3 144 32 145
3 146 145 12
3 144 145 146
3 33 147 149
3 147 32 148
3 147 148 149
3 33 13 32
3 150 34 151
3 152 34 153
3 155 154 34
3 156 35 157
3 158 35 159
3 160 3 161
3 162 161 35
3 160 161 162
3 163 3 164
3 165 22 166
3 167 166 3
3 165 166 167
3 168 22 169
3 170 2 171
3 172 171 22
3 170 171 172
3 36 37 1
3 38 37 36
3 38 5 37
3 15 38 4
3 173 38 174
3 175 174 15
3 173 174 175
3 176 5 177
3 178 177 38
3 176 177 178
3 179 30 180
3 181 180 5
3 179 180 181
3 182 30 183
3 185 184 30
3 39 186 187
3 39 188 190
3 188 6 189
3 188 189 190
3 18 191 193
3 191 39 192
3 191 192 193
3 40 39 18
3 40 6 39
3 40 194 196
3 196 195 6
3 194 195 196
3 41 197 199
3 199 198 40
3 197 198 199
3 41 200 201
3 42 202 203
3 42 204 205
3 42 206 208
3 206 43 207
3 206 207 208
3 44 43 42
3 44 8 43
3 20 209 211
3 209 44 210
3 209 210 211
3 45 44 20
3 45 8 44
3 45 27 8
3 46 27 45
3 46 1 27
3 35 212 214
3 212 21 213
3 212 213 214
3 47 21 35
3 47 9 21
3 23 47 3
3 48 47 23
3 48 9 47
3 48 46 9
3 49 46 48
3 49 1 46
3 49 36 1
3 50 36 49
3 50 4 36
3 25 50 10
3 51 50 25
3 51 4 50
3 51 14 4
3 52 14 51
3 52 0 14
3 215 53 216
3 217 53 218
3 220 219 53
3 43 221 222
3 54 223 225
3 225 224 43
3 223 224 225
3 54 226 227
3 28 54 8
3 228 54 229
3 230 229 28
3 228 229 230
3 232 231 54
3 37 29 1
3 55 29 37
3 55 233 235
3 235 234 29
3 233 234 235
3 31 55 5
3 236 55 237
3 238 237 31
3 236 237 238
3 240 239 55
3 241 2 242
3 244 243 6
3 56 245 246
3 56 247 249
3 247 2 248
3 247 248 249
3 56 26 2
3 57 26 56
3 57 11 26
3 32 57 12
3 58 57 32
3 58 11 57
3 58 52 11
3 59 52 58
3 59 0 52
3 53 250 252
3 250 19 251
3 250 251 252
3 60 19 53
3 60 7 19
3 34 253 255
3 253 60 254
3 253 254 255
3 61 60 34
3 61 7 60
3 61 41 7
3 62 41 61
3 62 256 258
3 258 257 41
3 256 257 258
3 259 62 260
3 63 261 263
3 261 62 262
3 261 262 263
3 63 264 266
3 266 265 62
3 264 265 266
3 63 267 269
3 267 33 268
3 267 268 269
3 64 33 63
3 64 13 33
3 270 64 271
3 65 272 274
3 272 64 273
3 272 273 274
3 65 13 64
3 65 59 13
3 275 59 276
3 277 276 65
3 275 276 277
3 278 0 279
3 280 279 59
3 278 279 280
3 281 17 282
3 283 282 0
3 281 282 283
3 284 17 285
3 287 286 17
