ply
format ascii 1.0
element vertex 479
property float x
property float y
property float z
element face 512
property list uchar int vertex_index
end_header
17.830399 -66.875183 24.293221
30.473499 -49.771957 13.076292
26.557398 -57.894836 14.693075
16.645842 -74.304939 14.295378
23.197321 -59.401428 24.048048
18.126045 -58.624001 31.275383
12.398397 -64.601761 31.713089
22.161306 -66.345245 15.38036
20.574669 -72.51284 4.569932
29.41334 -50.786205 17.970602
28.592932 -53.67477 13.790315
27.288977 -54.820549 18.849569
31.477835 -46.964848 16.976696
12.566628 -59.963329 34.841625
24.662785 -65.631401 0.201448
20.689924 -63.274128 24.279385
22.732786 -63.150143 19.943859
20.288153 -66.966393 19.8615
15.774867 -77.841156 8.559192
18.786829 -73.720909 9.426918
31.328461 -48.207134 8.065269
29.533957 -52.160542 8.983748
27.672958 -56.398506 9.775071
25.846378 -60.577957 10.193383
14.716892 -70.278709 23.753273
17.436449 -70.695755 19.4037
14.086444 -74.201881 18.804699
32.485699 -45.825512 11.820914
25.587397 -55.478523 23.300623
20.845013 -59.351677 27.882378
18.073109 -62.834614 28.273588
15.458179 -61.620457 31.6537
15.133111 -66.137115 28.118155
11.941851 -68.98336 27.797329
25.053951 -59.045673 19.555435
24.471151 -62.148918 15.150663
23.717495 -65.165901 10.276885
19.646767 -70.402939 14.828549
21.462564 -69.389992 10.112025
23.079533 -67.797401 5.055546
22.40696 -70.498367 -0.337894
24.841087 -64.551201 2.850424
19.274406 -65.165268 24.303982
20.529753 -65.163689 22.121494
19.14595 -67.024895 22.058895
32.563919 -45.396576 4.816173
30.919678 -49.050636 10.546816
30.408516 -50.207996 8.381431
29.97526 -51.040546 11.071548
27.623068 -55.663651 14.324915
28.087557 -55.12635 11.867941
27.123903 -57.208885 12.366598
26.791348 -58.420429 10.056858
26.1453 -59.378345 12.505647
13.038787 -71.823532 23.431623
14.487852 -72.275658 21.245779
12.805054 -73.792435 20.925533
31.066553 -48.256462 15.010644
32.048107 -46.407333 14.484375
31.496387 -47.734596 12.587518
31.891314 -47.061523 9.990712
20.814457 -57.08815 29.509375
19.56311 -58.977528 29.657728
19.54817 -61.248802 27.952229
18.297436 -60.671711 29.782911
12.46465 -62.313614 33.4226
13.975164 -60.882526 33.279274
13.926895 -63.215778 31.692713
15.398598 -63.840836 29.999628
13.766388 -65.480072 29.915852
13.542972 -67.692696 27.917631
12.24445 -66.743912 29.891018
24.383457 -57.546837 23.648479
25.388813 -57.158466 21.572193
24.202528 -59.302673 21.81023
22.520903 -64.714142 17.674274
23.66449 -62.702179 17.61812
23.337185 -64.372803 15.086377
24.084679 -63.70142 12.802189
22.976078 -65.821831 12.893865
17.033602 -72.463951 17.063234
18.547251 -70.711517 17.134916
18.149811 -72.400398 14.67508
19.739878 -73.127228 7.026736
20.160234 -71.594513 9.767733
21.04719 -70.952339 7.24958
22.25292 -68.731567 7.586898
21.846624 -70.173531 4.972294
22.696543 -69.189064 2.528476
21.562107 -71.407028 2.258693
30.032433 -50.229916 15.60285
29.55986 -51.634472 13.560315
29.009008 -52.295315 15.891614
28.030106 -54.223434 16.378128
26.928076 -56.419529 16.792324
31.966105 -45.377045 18.737167
30.493095 -48.770229 17.456223
22.065151 -61.2995 24.105967
23.074295 -61.303257 21.899658
21.843153 -63.23048 22.091276
21.562073 -65.079437 19.912224
21.20142 -66.81813 17.720352
16.281033 -75.985771 11.564218
17.801491 -74.123764 11.735315
17.310932 -75.760956 9.185135
18.25819 -75.442413 6.604081
19.323603 -74.641647 4.211111
31.65896 -47.36808 5.39098
30.859177 -49.16642 5.7988
29.9849 -51.200169 6.35598
29.048916 -53.039577 11.453352
28.618608 -54.229828 9.405051
26.41507 -59.737766 7.748748
16.257782 -68.668236 24.060764
17.63813 -68.821747 21.96464
16.083405 -70.643021 21.581017
15.79212 -72.499069 19.142231
15.41383 -74.358978 16.569731
15.082728 -76.254753 13.609574
14.607987 -78.009796 10.975779
32.542068 -45.059948 16.339397
33.068329 -44.535549 13.692926
32.872761 -45.092854 9.176329
32.21941 -46.317177 7.309988
26.768702 -53.356003 22.963686
23.385437 -57.470081 25.689859
22.119587 -57.541473 27.585403
22.063883 -59.532684 25.971697
20.861414 -61.360992 26.079279
19.424639 -63.174946 26.310221
17.957607 -64.915245 26.383902
16.687353 -57.902451 32.86277
15.307487 -59.331982 33.191444
16.798092 -60.215324 31.472479
16.835888 -62.311337 29.955875
16.651669 -64.506119 28.240284
16.501259 -66.59507 26.256781
14.894826 -68.225288 26.097801
13.430239 -69.767906 25.668571
11.699898 -71.101517 25.522205
10.641683 -67.950714 29.826059
26.508072 -55.135277 21.217255
26.155546 -56.940891 19.312677
25.830467 -58.581028 17.201342
23.942516 -61.105534 19.725735
24.766827 -60.70528 17.321779
25.59054 -59.924557 14.878469
25.160204 -61.505356 12.627895
24.792213 -62.87495 10.401901
24.523935 -64.093559 7.792337
18.871689 -68.876892 19.71299
19.884388 -68.849098 17.438011
20.96492 -68.343376 15.185879
19.226166 -72.016983 12.329682
20.577124 -69.989502 12.528157
21.890675 -67.807037 12.720992
22.650238 -67.213715 10.370509
23.397835 -66.47834 7.74351
24.15626 -65.485542 5.336138
23.834297 -66.788391 2.822332
23.563042 -68.031914 0.163398
25.011535 -63.87492 4.035544
25.349953 -63.354672 2.78393
32.736075 -44.862816 3.508237
32.30012 -45.855261 3.832199
12.090113 -73.478535 22.037846
12.92192 -72.807984 22.178578
12.206979 -72.494084 23.29089
18.844577 -58.800764 30.466555
19.520755 -57.869642 30.353212
18.802222 -57.692879 31.162039
27.659541 -54.521991 17.613848
28.212857 -53.467731 17.402341
27.842292 -53.766289 18.638061
29.953218 -49.778217 17.713413
30.139447 -48.990154 18.650829
29.59957 -49.998142 18.908018
25.07866 -65.015259 -1.059285
25.151134 -64.459423 0.29003
24.545805 -66.251644 -1.102925
25.07866 -65.015259 -1.059285
18.065158 -76.197319 5.15757
17.53329 -76.486019 6.385355
18.597865 -75.796936 3.961085
18.790896 -75.04203 5.407596
18.065158 -76.197319 5.15757
19.137186 -75.342884 2.859348
18.597865 -75.796936 3.961085
29.325783 -52.707442 7.883152
29.551254 -52.227255 6.569268
29.759428 -51.680356 7.669864
27.958037 -55.877887 8.464002
28.430862 -54.793548 8.278992
28.145783 -55.314167 9.590061
27.505899 -56.977609 8.57468
27.958037 -55.877887 8.464002
25.645184 -61.295002 9.008358
25.92953 -60.874907 7.786041
26.130724 -60.157861 8.971065
14.281187 -77.048053 13.504983
14.4347 -76.157394 14.866788
14.043816 -77.925575 12.188086
14.845357 -77.132274 12.292676
14.281187 -77.048053 13.504983
32.964168 -44.90695 11.489497
33.255483 -44.261969 12.425503
32.777014 -45.180531 12.75692
32.67923 -45.459183 10.498622
33.157699 -44.540621 10.167205
32.964168 -44.90695 11.489497
23.365645 -56.525906 26.50815
23.984267 -56.490803 25.527562
15.996937 -57.437916 33.598511
16.651966 -56.726342 33.399298
13.239624 -59.209941 34.756881
12.490113 -58.862986 35.452901
9.918258 -67.500118 30.748401
10.693384 -66.890186 30.809679
22.868645 -69.902386 -1.537074
23.446686 -68.669159 -1.286428
22.985001 -69.265141 -0.087248
28.904474 -51.749117 18.198578
29.074722 -50.946121 19.138958
27.462139 -53.967108 19.796255
27.842292 -53.766289 18.638061
29.074722 -50.946121 19.138958
29.59957 -49.998142 18.908018
25.240285 -63.919323 1.614518
25.349953 -63.354672 2.78393
24.751936 -65.091301 1.525936
25.151134 -64.459423 0.29003
25.240285 -63.919323 1.614518
16.291629 -77.68539 7.36291
15.454515 -78.778835 7.145644
32.991793 -44.475493 4.486689
32.884002 -44.84309 5.781097
32.991793 -44.475493 4.486689
32.736075 -44.862816 3.508237
20.146428 -56.924954 30.279035
20.792681 -55.966186 30.137198
20.188783 -58.032839 29.583551
20.146428 -56.924954 30.279035
19.520755 -57.869642 30.353212
28.702307 -52.503672 17.159084
29.211174 -51.54076 16.931108
28.904474 -51.749117 18.198578
28.519557 -53.259374 16.134871
28.702307 -52.503672 17.159084
28.212857 -53.467731 17.402341
31.590798 -45.534331 19.863513
32.139596 -44.59788 19.595754
31.422179 -46.305418 19.065531
31.590798 -45.534331 19.863513
31.178044 -47.09932 18.185295
31.72197 -46.170946 17.856932
31.422179 -46.305418 19.065531
30.685674 -48.00201 18.425058
30.139447 -48.990154 18.650829
30.985465 -47.867539 17.216459
31.178044 -47.09932 18.185295
30.685674 -48.00201 18.425058
18.082813 -57.448166 31.905065
18.802222 -57.692879 31.162039
11.824897 -59.504808 35.612596
12.490113 -58.862986 35.452901
11.748382 -58.404465 36.223873
11.864184 -60.603363 34.944734
11.824897 -59.504808 35.612596
11.813195 -61.778506 34.235222
12.515639 -61.138472 34.132113
11.864184 -60.603363 34.944734
11.734597 -62.940701 33.467488
11.813195 -61.778506 34.235222
11.701471 -64.084774 32.612732
12.431524 -63.457687 32.567844
11.734597 -62.940701 33.467488
11.571741 -65.21571 31.753194
11.701471 -64.084774 32.612732
17.059661 -76.64529 7.675882
16.5429 -76.801056 8.872163
16.291629 -77.68539 7.36291
17.784561 -75.601685 7.894608
17.059661 -76.64529 7.675882
17.53329 -76.486019 6.385355
19.809897 -74.210945 2.97663
20.435431 -73.146541 3.15604
19.949136 -73.577244 4.390522
19.809897 -74.210945 2.97663
19.137186 -75.342884 2.859348
31.444223 -47.777937 4.295421
31.84764 -46.841013 4.119603
31.044331 -48.677107 4.499332
31.444223 -47.777937 4.295421
31.259068 -48.26725 5.59489
30.65495 -49.621565 4.761592
31.044331 -48.677107 4.499332
30.217811 -50.63844 5.040182
30.65495 -49.621565 4.761592
30.422038 -50.183295 6.07739
29.792131 -51.694741 5.334071
30.217811 -50.63844 5.040182
29.792131 -51.694741 5.334071
29.551254 -52.227255 6.569268
28.868108 -53.742084 8.093803
29.325783 -52.707442 7.883152
29.076282 -53.195185 9.194399
28.868108 -53.742084 8.093803
28.430862 -54.793548 8.278992
27.065093 -57.988571 8.715573
27.505899 -56.977609 8.57468
27.232153 -57.409467 9.915965
26.876955 -58.647239 7.561518
27.065093 -57.988571 8.715573
26.603209 -59.079098 8.902803
26.698807 -59.274532 6.458264
26.876955 -58.647239 7.561518
26.267463 -60.344675 6.490728
26.698807 -59.274532 6.458264
26.267463 -60.344675 6.490728
25.92953 -60.874907 7.786041
11.990838 -74.460743 20.760258
12.090113 -73.478535 22.037846
11.275897 -74.146843 21.87257
12.663965 -74.76271 19.613575
11.990838 -74.460743 20.760258
13.304659 -74.967433 18.553158
13.445749 -73.997158 19.865116
12.663965 -74.76271 19.613575
13.936558 -75.130958 17.46435
13.304659 -74.967433 18.553158
14.600251 -75.209507 16.346866
14.750137 -74.280429 17.687215
13.936558 -75.130958 17.46435
15.248279 -75.306865 15.089652
14.600251 -75.209507 16.346866
14.4347 -76.157394 14.866788
13.744557 -78.951767 10.717826
14.043816 -77.925575 12.188086
14.367002 -78.884258 9.603993
13.744557 -78.951767 10.717826
13.503573 -79.826229 9.34604
14.950443 -78.799938 8.395699
15.191427 -77.925476 9.767485
14.367002 -78.884258 9.603993
15.454515 -78.778835 7.145644
14.950443 -78.799938 8.395699
32.503991 -44.41902 18.491723
32.677482 -43.639854 19.35031
32.139596 -44.59788 19.595754
32.791973 -44.260471 17.292838
32.503991 -44.41902 18.491723
32.254086 -45.218497 17.538282
33.068984 -44.10512 16.044374
32.791973 -44.260471 17.292838
33.332115 -43.84292 14.721139
33.068984 -44.10512 16.044374
32.805199 -44.797748 15.016162
33.557199 -43.616644 13.433658
33.332115 -43.84292 14.721139
33.744354 -43.343063 12.166236
33.557199 -43.616644 13.433658
33.255483 -44.261969 12.425503
33.34835 -44.151719 8.943901
33.157699 -44.540621 10.167205
33.038423 -44.691229 7.961175
33.34835 -44.151719 8.943901
32.711748 -45.30339 7.028004
33.038423 -44.691229 7.961175
32.546086 -45.705016 8.243158
32.391665 -45.856876 6.06308
32.884002 -44.84309 5.781097
32.711748 -45.30339 7.028004
31.84764 -46.841013 4.119603
32.30012 -45.855261 3.832199
32.11144 -46.382328 5.103576
26.860157 -52.462153 23.741543
27.325596 -52.422083 22.69124
26.277983 -53.448932 23.950336
26.860157 -52.462153 23.741543
25.687331 -54.510193 24.118804
26.17805 -54.417263 23.132154
26.277983 -53.448932 23.950336
25.085247 -55.495024 24.332944
25.687331 -54.510193 24.118804
24.483277 -56.52918 24.506872
24.985427 -56.51268 23.474551
25.085247 -55.495024 24.332944
23.884447 -57.508459 24.669169
24.483277 -56.52918 24.506872
23.984267 -56.490803 25.527562
21.464587 -56.23101 29.283465
20.792681 -55.966186 30.137198
22.117152 -56.457672 28.32148
21.464587 -56.23101 29.283465
21.467022 -57.314812 28.547389
22.73272 -56.561602 27.455922
22.117152 -56.457672 28.32148
22.752512 -57.505777 26.637631
23.365645 -56.525906 26.50815
22.73272 -56.561602 27.455922
17.363467 -57.087391 32.698759
16.651966 -56.726342 33.399298
17.406699 -58.263226 32.069077
18.082813 -57.448166 31.905065
17.363467 -57.087391 32.698759
13.943891 -59.66954 33.975706
13.239624 -59.209941 34.756881
13.270896 -60.422928 34.06045
14.610053 -58.894268 33.931791
13.943891 -59.66954 33.975706
14.641326 -60.107254 33.235359
15.307004 -58.152681 33.762847
14.610053 -58.894268 33.931791
15.99742 -58.617216 33.027107
15.996937 -57.437916 33.598511
15.307004 -58.152681 33.762847
11.537535 -72.133076 24.336182
12.206979 -72.494084 23.29089
12.369342 -71.462525 24.476914
11.494768 -66.286786 30.842159
12.321423 -65.672836 30.802053
11.571741 -65.21571 31.753194
11.443067 -67.347313 29.858539
11.494768 -66.286786 30.842159
10.693384 -66.890186 30.809679
9.812736 -68.646347 29.641748
9.918258 -67.500118 30.748401
10.491919 -69.088825 28.69721
9.812736 -68.646347 29.641748
11.142003 -69.605148 27.682845
11.291767 -68.467037 28.811694
10.491919 -69.088825 28.69721
11.021026 -70.664226 26.545283
11.820874 -70.042439 26.659767
11.142003 -69.605148 27.682845
10.863747 -71.714184 25.404115
11.021026 -70.664226 26.545283
11.537535 -72.133076 24.336182
10.863747 -71.714184 25.404115
27.202001 -53.234835 21.853313
27.325596 -52.422083 22.69124
27.071686 -54.124472 20.980098
27.202001 -53.234835 21.853313
26.638387 -54.24564 22.090471
26.898525 -54.977913 20.033412
27.462139 -53.967108 19.796255
27.071686 -54.124472 20.980098
25.118102 -62.443499 9.112617
25.645184 -61.295002 9.008358
25.319296 -61.726453 10.297642
24.983963 -63.052803 7.807835
25.118102 -62.443499 9.112617
24.658074 -63.484254 9.097119
24.852958 -63.646099 6.5065
24.983963 -63.052803 7.807835
24.669121 -64.34209 5.278401
24.852958 -63.646099 6.5065
24.340097 -64.78955 6.564237
24.498674 -65.018372 4.093281
25.011535 -63.87492 4.035544
24.669121 -64.34209 5.278401
23.995933 -67.4519 -1.12195
24.545805 -66.251644 -1.102925
24.112913 -66.831658 0.182423
23.879577 -68.089146 -2.571776
23.995933 -67.4519 -1.12195
23.446686 -68.669159 -1.286428
20.92915 -72.593636 2.000421
21.068388 -71.959934 3.414312
20.435431 -73.146541 3.15604
21.348096 -72.172149 0.869702
20.92915 -72.593636 2.000421
21.770522 -71.717819 -0.428592
21.984534 -70.952697 0.9604
21.348096 -72.172149 0.869702
22.252795 -71.150482 -1.619314
21.770522 -71.717819 -0.428592
22.868645 -69.902386 -1.537074
22.252795 -71.150482 -1.619314
3 161 41 162
3 0 44 42
3 164 163 45
3 1 48 46
3 2 51 49
3 2 53 51
3 165 56 166
3 167 166 54
3 165 166 167
3 1 59 57
3 1 46 59
3 5 168 170
3 168 62 169
3 168 169 170
3 5 64 62
3 6 67 65
3 6 69 67
3 6 71 69
3 4 74 72
3 7 77 75
3 7 79 77
3 3 82 80
3 8 85 83
3 8 87 85
3 8 89 87
3 9 92 90
3 11 171 173
3 171 93 172
3 171 172 173
3 11 94 93
3 9 174 176
3 174 96 175
3 174 175 176
3 9 90 96
3 14 177 178
3 14 179 180
3 15 99 97
3 17 100 43
3 17 101 100
3 18 104 102
3 181 105 182
3 183 106 184
3 185 184 105
3 183 184 185
3 187 186 106
3 20 108 107
3 21 109 47
3 21 188 190
3 190 189 109
3 188 189 190
3 10 110 91
3 22 111 50
3 22 191 193
3 193 192 111
3 191 192 193
3 22 194 195
3 23 112 52
3 23 196 198
3 198 197 112
3 196 197 198
3 24 115 113
3 26 116 55
3 26 117 116
3 199 118 200
3 201 119 202
3 203 202 118
3 201 202 203
3 12 120 95
3 27 121 58
3 27 204 206
3 206 205 121
3 204 205 206
3 27 207 209
3 207 122 208
3 207 208 209
3 20 123 60
3 20 107 123
3 210 125 211
3 29 126 61
3 29 127 126
3 29 128 127
3 30 129 63
3 30 130 129
3 212 131 213
3 13 214 215
3 31 132 66
3 31 133 132
3 31 134 133
3 32 135 68
3 32 136 135
3 32 137 136
3 33 138 70
3 33 139 138
3 216 140 217
3 28 141 124
3 34 142 73
3 34 143 142
3 16 144 98
3 35 145 76
3 35 146 145
3 35 147 146
3 36 148 78
3 36 149 148
3 25 150 114
3 37 151 81
3 37 152 151
3 19 153 103
3 38 154 84
3 38 155 154
3 38 156 155
3 39 157 86
3 39 158 157
3 39 159 158
3 40 160 88
3 40 218 220
3 220 219 160
3 218 219 220
3 222 221 9
3 223 11 224
3 225 9 226
3 41 227 228
3 41 229 231
3 229 14 230
3 229 230 231
3 42 43 15
3 44 43 42
3 44 17 43
3 233 232 18
3 45 234 235
3 237 236 45
3 46 47 20
3 48 47 46
3 48 21 47
3 49 50 10
3 51 50 49
3 51 22 50
3 51 52 22
3 53 52 51
3 53 23 52
3 54 55 24
3 56 55 54
3 56 26 55
3 57 58 12
3 59 58 57
3 59 27 58
3 59 60 27
3 46 60 59
3 46 20 60
3 238 61 239
3 62 240 242
3 240 61 241
3 240 241 242
3 62 29 61
3 62 63 29
3 64 63 62
3 64 30 63
3 65 66 13
3 67 66 65
3 67 31 66
3 67 68 31
3 69 68 67
3 69 32 68
3 69 70 32
3 71 70 69
3 71 33 70
3 72 73 28
3 74 73 72
3 74 34 73
3 75 76 16
3 77 76 75
3 77 35 76
3 77 78 35
3 79 78 77
3 79 36 78
3 80 81 25
3 82 81 80
3 82 37 81
3 83 84 19
3 85 84 83
3 85 38 84
3 85 86 38
3 87 86 85
3 87 39 86
3 87 88 39
3 89 88 87
3 89 40 88
3 90 91 1
3 92 91 90
3 92 10 91
3 243 92 244
3 245 244 9
3 243 244 245
3 93 246 248
3 246 92 247
3 246 247 248
3 93 10 92
3 93 49 10
3 94 49 93
3 94 2 49
3 249 95 250
3 251 95 252
3 253 12 254
3 255 254 95
3 253 254 255
3 96 256 257
3 96 258 260
3 258 12 259
3 258 259 260
3 96 57 12
3 90 57 96
3 90 1 57
3 261 5 262
3 263 13 264
3 263 264 265
3 266 13 267
3 268 65 269
3 270 269 13
3 268 269 270
3 271 65 272
3 273 6 274
3 275 274 65
3 273 274 275
3 277 276 6
3 97 98 4
3 99 98 97
3 99 16 98
3 43 99 15
3 100 99 43
3 100 16 99
3 100 75 16
3 101 75 100
3 101 7 75
3 102 103 3
3 104 103 102
3 104 19 103
3 278 104 279
3 280 279 18
3 278 279 280
3 105 281 283
3 281 104 282
3 281 282 283
3 105 19 104
3 105 83 19
3 106 83 105
3 106 8 83
3 106 284 286
3 286 285 8
3 284 285 286
3 288 287 106
3 107 289 290
3 108 291 293
3 293 292 107
3 291 292 293
3 108 294 295
3 47 108 20
3 109 108 47
3 109 296 298
3 298 297 108
3 296 297 298
3 109 299 300
3 302 301 109
3 91 48 1
3 110 48 91
3 110 21 48
3 50 110 10
3 111 110 50
3 111 21 110
3 111 303 305
3 305 304 21
3 303 304 305
3 307 306 111
3 52 308 310
3 310 309 22
3 308 309 310
3 112 311 313
3 313 312 52
3 311 312 313
3 112 314 315
3 112 316 317
3 319 318 112
3 113 114 0
3 115 114 113
3 115 25 114
3 55 115 24
3 116 115 55
3 116 25 115
3 116 80 25
3 117 80 116
3 117 3 80
3 320 56 321
3 320 321 322
3 323 56 324
3 325 26 326
3 327 326 56
3 325 326 327
3 328 26 329
3 330 117 331
3 332 331 26
3 330 331 332
3 118 333 335
3 333 117 334
3 333 334 335
3 118 3 117
3 118 102 3
3 119 102 118
3 119 18 102
3 336 119 337
3 338 119 339
3 338 339 340
3 341 18 342
3 343 342 119
3 341 342 343
3 345 344 18
3 95 346 348
3 346 347 348
3 120 349 351
3 351 350 95
3 349 350 351
3 120 352 353
3 58 120 12
3 121 120 58
3 121 354 356
3 356 355 120
3 354 355 356
3 121 357 358
3 361 360 121
3 359 360 361
3 122 362 363
3 122 364 365
3 60 122 27
3 123 122 60
3 123 366 368
3 368 367 122
3 366 367 368
3 123 369 371
3 369 45 370
3 369 370 371
3 107 45 123
3 107 372 374
3 374 373 45
3 372 373 374
3 375 124 376
3 377 124 378
3 379 28 380
3 381 380 124
3 379 380 381
3 382 28 383
3 384 72 385
3 386 385 28
3 384 385 386
3 125 387 389
3 387 72 388
3 387 388 389
3 125 4 72
3 61 390 391
3 126 392 394
3 394 393 61
3 392 393 394
3 126 395 396
3 126 397 399
3 397 125 398
3 397 398 399
3 127 125 126
3 127 4 125
3 127 97 4
3 128 97 127
3 128 15 97
3 63 128 29
3 129 128 63
3 129 15 128
3 129 42 15
3 130 42 129
3 130 0 42
3 131 400 401
3 131 402 404
3 402 5 403
3 402 403 404
3 66 405 407
3 407 406 13
3 405 406 407
3 132 408 410
3 410 409 66
3 408 409 410
3 132 411 412
3 132 413 415
3 413 131 414
3 413 414 415
3 133 131 132
3 133 5 131
3 133 64 5
3 134 64 133
3 134 30 64
3 68 134 31
3 135 134 68
3 135 30 134
3 135 130 30
3 136 130 135
3 136 0 130
3 136 113 0
3 137 113 136
3 137 24 113
3 70 137 32
3 138 137 70
3 138 24 137
3 138 54 24
3 139 54 138
3 139 416 418
3 418 417 54
3 416 417 418
3 419 71 420
3 421 420 6
3 419 420 421
3 140 422 424
3 422 71 423
3 422 423 424
3 140 33 71
3 425 140 426
3 427 140 428
3 429 33 430
3 431 430 140
3 429 430 431
3 432 139 433
3 434 433 33
3 432 433 434
3 435 139 436
3 438 437 139
3 124 439 440
3 141 441 443
3 443 442 124
3 441 442 443
3 141 444 446
3 444 11 445
3 444 445 446
3 73 141 28
3 142 141 73
3 142 11 141
3 142 94 11
3 143 94 142
3 143 2 94
3 98 74 4
3 144 74 98
3 144 34 74
3 76 144 16
3 145 144 76
3 145 34 144
3 145 143 34
3 146 143 145
3 146 2 143
3 146 53 2
3 147 53 146
3 147 23 53
3 78 147 35
3 148 147 78
3 148 23 147
3 148 447 449
3 449 448 23
3 447 448 449
3 149 450 452
3 452 451 148
3 450 451 452
3 149 453 454
3 114 44 0
3 150 44 114
3 150 17 44
3 81 150 25
3 151 150 81
3 151 17 150
3 151 101 17
3 152 101 151
3 152 7 101
3 103 82 3
3 153 82 103
3 153 37 82
3 84 153 19
3 154 153 84
3 154 37 153
3 154 152 37
3 155 152 154
3 155 7 152
3 155 79 7
3 156 79 155
3 156 36 79
3 86 156 38
3 157 156 86
3 157 36 156
3 157 149 36
3 158 149 157
3 158 455 457
3 457 456 149
3 455 456 457
3 158 458 460
3 458 41 459
3 458 459 460
3 159 41 158
3 159 14 41
3 88 159 39
3 160 159 88
3 160 14 159
3 160 461 463
3 463 462 14
3 461 462 463
3 466 465 160
3 464 465 466
3 467 89 468
3 469 468 8
3 467 468 469
3 470 89 471
3 472 40 473
3 474 473 89
3 472 473 474
3 475 40 476
3 478 477 40
