ply
format ascii 1.0
element vertex 69
property float x
property float y
property float z
element face 48
property list uchar int vertex_index
end_header
-34.725185 -46.925648 3.07241
-36.642517 -42.768669 1.646453
-34.130997 -47.915207 1.243762
-35.716518 -44.942123 2.490939
-36.297367 -43.812225 4.075676
-37.086922 -41.763248 3.453292
-37.677151 -39.656036 2.647775
-34.428091 -47.420428 2.158086
-33.896546 -48.386268 2.574378
-34.19364 -47.891489 3.488702
-36.416199 -43.240002 0.798146
-35.953199 -44.326729 1.22039
-36.179518 -43.855396 2.068696
-36.117706 -44.295879 5.374305
-35.80252 -44.87524 4.505702
-37.305975 -41.151359 4.317316
-36.948431 -42.248137 4.703758
-37.60109 -40.097753 3.914557
-37.382036 -40.709642 3.050534
-37.305975 -41.151359 4.317316
-36.825524 -42.182188 0.459035
-37.000953 -41.726059 1.36398
-33.541412 -48.959181 1.687461
-33.896546 -48.386268 2.574378
-33.858398 -48.37478 0.438843
-33.541412 -48.959181 1.687461
-35.449131 -45.420795 1.566796
-34.953465 -46.412558 1.857532
-35.220852 -45.933886 2.781675
-35.449131 -45.420795 1.566796
-35.953199 -44.326729 1.22039
-36.416199 -43.240002 0.798146
-36.825524 -42.182188 0.459035
-34.656371 -46.907337 0.943208
-34.428091 -47.420428 2.158086
-34.953465 -46.412558 1.857532
-34.420986 -47.317114 -0.018478
-34.656371 -46.907337 0.943208
-33.858398 -48.37478 0.438843
-34.420986 -47.317114 -0.018478
-34.500013 -47.399216 4.384003
-34.19364 -47.891489 3.488702
-35.01643 -46.431951 4.004069
-34.500013 -47.399216 4.384003
-35.512096 -45.440189 3.713334
-35.220852 -45.933886 2.781675
-35.01643 -46.431951 4.004069
-36.006943 -44.377174 3.283307
-35.512096 -45.440189 3.713334
-35.80252 -44.87524 4.505702
-36.553653 -43.272625 5.01495
-36.117706 -44.295879 5.374305
-36.692144 -42.787736 3.764484
-36.553653 -43.272625 5.01495
-36.948431 -42.248137 4.703758
-37.223156 -41.223349 2.267399
-37.000953 -41.726059 1.36398
-36.864719 -42.265958 2.549872
-37.51827 -40.169742 1.864641
-37.223156 -41.223349 2.267399
-37.382036 -40.709642 3.050534
-37.772228 -39.090999 1.417822
-37.51827 -40.169742 1.864641
-37.808104 -39.152512 3.531275
-37.60109 -40.097753 3.914557
-37.857253 -38.641758 2.312092
-37.808104 -39.152512 3.531275
-37.772228 -39.090999 1.417822
-37.857253 -38.641758 2.312092
3 0 7 9
3 7 2 8
3 7 8 9
3 1 10 12
3 12 11 3
3 10 11 12
3 13 4 14
3 15 5 16
3 17 6 18
3 19 18 5
3 17 18 19
3 21 20 1
3 2 22 23
3 2 24 25
3 3 26 28
3 28 27 0
3 26 27 28
3 30 29 3
3 32 31 1
3 33 2 34
3 35 34 0
3 33 34 35
3 36 2 37
3 39 38 2
3 40 0 41
3 42 0 43
3 44 3 45
3 46 45 0
3 44 45 46
3 4 47 49
3 47 3 48
3 47 48 49
3 4 1 3
3 50 4 51
3 5 52 54
3 52 4 53
3 52 53 54
3 5 1 4
3 5 55 57
3 57 56 1
3 55 56 57
3 6 58 60
3 60 59 5
3 58 59 60
3 6 61 62
3 63 6 64
3 65 6 66
3 68 67 6
