ply
format ascii 1.0
element vertex 74
property float x
property float y
property float z
element face 57
property list uchar int vertex_index
end_header
-26.681585 56.775021 50.605042
-28.484896 55.910938 48.323505
-25.530048 58.814377 50.44511
-26.498707 60.652107 48.512817
-25.25893 62.500114 48.385906
-27.758364 54.557911 50.413399
-26.911528 52.664066 52.56543
-25.671234 54.946949 52.510784
-24.306122 56.935173 52.185036
-27.573107 58.551838 48.436993
-27.402557 62.095745 46.501163
-28.554538 53.806614 49.297903
-28.850908 54.629452 48.097398
-24.698102 61.472025 49.307941
-25.394489 60.657246 49.415508
-24.833661 59.629156 50.337543
-24.584328 63.347919 48.179723
-24.698102 61.472025 49.307941
-27.006464 50.578083 53.479603
-27.394753 51.581796 52.445276
-25.116394 53.947992 53.354624
-25.770035 52.953193 53.460543
-24.433838 54.942104 53.19175
-24.988678 55.941061 52.34791
-25.116394 53.947992 53.354624
-26.851374 63.172788 46.451969
-26.950632 61.373926 47.50699
-26.399448 62.450969 47.457796
-27.35049 63.948256 45.335157
-26.851374 63.172788 46.451969
-28.792499 56.574079 47.182417
-28.850908 54.629452 48.097398
-28.406773 57.959631 47.278173
-28.792499 56.574079 47.182417
-25.77956 63.374973 47.39434
-26.399448 62.450969 47.457796
-25.878819 61.57611 48.449361
-25.180868 64.459038 47.142231
-25.77956 63.374973 47.39434
-25.180868 64.459038 47.142231
-24.584328 63.347919 48.179723
-27.818171 52.528719 51.369261
-28.191272 53.1301 50.34285
-27.334946 53.610988 51.489414
-27.818171 52.528719 51.369261
-27.394753 51.581796 52.445276
-26.390183 51.811752 53.487865
-27.006464 50.578083 53.479603
-26.485118 49.725769 54.402039
-26.291381 53.805507 52.538107
-26.390183 51.811752 53.487865
-25.770035 52.953193 53.460543
-24.221698 58.689554 51.207506
-24.833661 59.629156 50.337543
-24.918085 57.874775 51.315073
-28.12163 55.234425 49.368452
-28.554538 53.806614 49.297903
-28.191272 53.1301 50.34285
-27.950879 59.280081 47.334917
-28.406773 57.959631 47.278173
-28.029001 57.231388 48.380249
-27.865603 61.052035 46.367002
-27.950879 59.280081 47.334917
-27.487832 60.323791 47.469078
-27.821341 62.851807 45.291492
-27.865603 61.052035 46.367002
-27.821341 62.851807 45.291492
-27.35049 63.948256 45.335157
-23.697416 55.787723 52.975279
-24.433838 54.942104 53.19175
-23.564713 57.687504 51.959167
-23.697416 55.787723 52.975279
-24.221698 58.689554 51.207506
-23.564713 57.687504 51.959167
3 11 1 12
3 13 4 14
3 15 14 2
3 13 14 15
3 17 16 4
3 18 6 19
3 20 7 21
3 22 8 23
3 24 23 7
3 22 23 24
3 0 9 5
3 25 10 26
3 27 26 3
3 25 26 27
3 29 28 10
3 1 30 31
3 1 32 33
3 2 3 0
3 4 3 2
3 4 34 36
3 36 35 3
3 34 35 36
3 4 37 38
3 40 39 4
3 41 5 42
3 6 43 45
3 43 5 44
3 43 44 45
3 6 0 5
3 46 6 47
3 46 47 48
3 7 49 51
3 49 6 50
3 49 50 51
3 7 0 6
3 7 2 0
3 8 2 7
3 8 52 54
3 54 53 2
3 52 53 54
3 5 55 57
3 55 1 56
3 55 56 57
3 9 1 5
3 9 58 60
3 60 59 1
3 58 59 60
3 3 9 0
3 10 9 3
3 10 61 63
3 63 62 9
3 61 62 63
3 10 64 65
3 67 66 10
3 68 8 69
3 70 8 71
3 73 72 8
