ply
format ascii 1.0
element vertex 324
property float x
property float y
property float z
element face 320
property list uchar int vertex_index
end_header
-4.84901 20.338627 53.584236
10.067377 30.895485 59.100849
17.190144 36.660641 60.863956
-3.694092 32.370285 50.033188
4.077915 38.456913 52.145973
2.514397 25.194952 56.47451
-8.139748 23.450336 50.398663
-7.407825 29.216814 48.941814
-4.299783 26.105581 52.034351
-0.634149 28.781446 53.23756
-1.2367 22.917229 55.013878
7.005913 34.673969 55.622032
7.723667 41.629936 53.114834
10.773339 37.818066 56.781925
-1.60626 17.100113 56.608215
13.129683 26.534208 62.48241
13.686233 33.484062 60.324448
16.819893 28.965656 63.497456
-6.765344 35.325352 46.970512
0.105205 35.04467 51.168327
3.179906 31.598673 54.430809
6.345139 27.960848 57.829613
2.063878 19.193094 58.223732
14.429952 41.210674 57.595078
-6.692063 19.189861 52.693718
-6.473364 21.985044 52.005795
-6.222353 24.760918 51.275684
-4.645636 23.242298 52.796516
-2.723981 24.538723 53.55146
-3.018609 21.429667 54.408543
8.456666 32.664135 57.379272
8.925774 36.306503 56.203167
10.356116 34.121422 58.028389
-7.001916 13.954224 53.897278
-5.591647 30.604479 49.582253
-7.113036 32.193527 48.012016
-5.267342 33.714653 48.560066
-4.742188 36.960464 47.522144
-3.252731 35.471275 49.033482
-1.215314 37.012188 49.571491
-1.73673 33.693947 50.643253
0.995665 27.062311 54.86824
1.314111 30.010387 53.920979
2.930827 28.227852 55.60004
4.719132 29.736618 56.129658
4.459897 26.520491 57.182194
0.246944 18.063341 57.467945
9.560267 43.580814 53.464615
15.384819 34.985981 60.674305
13.945792 37.178848 59.015976
15.766531 38.850292 59.319027
-7.768991 26.325403 49.714233
-5.93175 27.601414 50.478905
-3.982207 29.115671 51.122269
-2.128729 30.453552 51.705112
-2.478567 27.385332 52.672256
-0.779496 25.847166 54.256134
0.672829 23.884741 55.831581
5.494751 36.468529 53.892765
5.850236 40.023136 52.595844
7.329755 38.149105 54.3727
9.218007 39.943199 54.848919
11.062984 41.55048 55.363552
-6.860767 16.643291 53.28759
-5.019484 17.600389 54.275173
-3.267278 18.58996 55.124386
-3.486056 15.93237 55.746822
11.484853 28.464895 60.86935
11.922412 31.941486 59.862724
13.470432 29.976007 61.494442
15.326862 31.288258 62.018532
16.957396 32.893909 62.194046
18.421053 30.335381 63.623581
-9.00474 30.858402 47.244423
-8.599343 33.74041 46.407124
2.140039 36.722668 51.685184
-0.169845 31.829023 52.31041
1.705021 33.446857 52.777569
3.656868 34.921234 53.372196
5.165376 32.955929 55.134693
6.709293 31.268299 56.800236
8.296515 29.118692 58.640232
-1.469747 19.864492 55.861492
0.33388 20.879339 56.641369
2.232853 22.209249 57.346588
3.87967 20.144201 59.01722
4.159291 23.251785 58.156475
6.038833 24.480921 58.885025
6.266258 43.499073 51.316196
12.150188 35.751419 58.510559
12.673644 39.632179 57.226124
12.951509 43.32011 55.783695
4.231368 40.200991 51.476795
3.352581 39.313254 51.323433
9.795122 45.37224 52.796948
10.571744 44.501865 53.712446
-8.968397 22.776982 50.002999
-8.173255 22.061906 50.798941
-8.868555 24.265926 49.611699
-8.968397 22.776982 50.002999
-7.95437 24.88787 50.056448
-8.683177 25.70346 49.269483
-8.868555 24.265926 49.611699
-6.085857 15.75207 54.059109
-6.931342 15.298758 53.592434
-6.156431 14.407536 54.363952
-5.165215 16.230618 54.5529
-5.940126 17.12184 53.781382
-6.085857 15.75207 54.059109
-4.398501 15.396609 55.288725
-4.25277 16.766379 55.010998
-5.165215 16.230618 54.5529
16.073377 30.126957 62.757994
15.178788 29.481628 62.562517
15.925303 28.320327 63.30198
19.299208 30.832689 63.669533
19.229655 28.939499 64.273953
18.54086 32.246136 62.987009
19.299208 30.832689 63.669533
-8.206283 30.037608 48.093119
-9.135748 29.446085 47.660443
-8.33729 28.625291 48.509138
-7.517724 36.16853 46.114597
-8.434723 35.376058 45.832903
-7.682343 34.532881 46.688818
-6.529347 36.916621 46.432008
-7.517724 36.16853 46.114597
-4.578428 38.610996 46.891632
-3.796909 37.769691 47.729461
0.398111 36.776924 50.610149
-0.262149 37.760683 49.811731
-0.555055 36.028429 50.369909
1.122622 35.883669 51.426755
1.415528 37.615923 50.868578
0.398111 36.776924 50.610149
4.79332 20.744209 59.376497
4.643019 19.230331 59.761158
4.93313 22.298001 58.946125
4.019481 21.697993 58.586848
4.79332 20.744209 59.376497
5.872902 22.912569 59.3104
5.099062 23.866353 58.52075
4.93313 22.298001 58.946125
-7.449412 19.931669 51.946468
-7.590955 18.561513 52.233103
-7.340063 21.32926 51.602507
-7.449412 19.931669 51.946468
-6.582714 20.587452 52.349756
-7.306556 22.71769 51.202229
-8.173255 22.061906 50.798941
-7.340063 21.32926 51.602507
-7.00183 12.670323 54.224537
-7.788787 13.362062 53.475653
-6.182799 13.116729 54.682958
-7.00183 12.670323 54.224537
-6.156431 14.407536 54.363952
-6.182799 13.116729 54.682958
14.080198 27.104603 62.794456
13.958039 25.392585 63.275446
16.746813 27.133779 64.046381
15.925303 28.320327 63.30198
-3.052181 37.025097 48.48513
-3.796909 37.769691 47.729461
-3.997459 36.215869 48.277813
-2.234023 36.241732 49.302487
-2.033472 37.795553 48.754135
-3.052181 37.025097 48.48513
0.096756 16.730289 57.765171
-0.679658 17.581727 57.03808
-0.829846 16.248674 57.335306
1.052663 17.143155 58.231388
0.096756 16.730289 57.765171
1.961129 17.708031 58.609281
1.155411 18.628217 57.845838
1.052663 17.143155 58.231388
8.852442 44.436183 52.601214
7.934143 43.460745 52.426323
8.641967 42.605375 53.289725
8.852442 44.436183 52.601214
9.795122 45.37224 52.796948
-8.517873 27.179586 48.895347
-8.683177 25.70346 49.269483
-7.588408 27.771109 49.328024
-8.33729 28.625291 48.509138
-8.517873 27.179586 48.895347
11.323102 43.486698 54.661915
10.571744 44.501865 53.712446
10.311625 42.565647 54.414084
17.345816 38.536775 60.159596
18.111698 37.261989 60.948225
-7.751287 14.663502 53.171429
-7.788787 13.362062 53.475653
-7.680713 16.008036 52.866585
-7.751287 14.663502 53.171429
-6.931342 15.298758 53.592434
-7.675308 17.288228 52.530039
-7.680713 16.008036 52.866585
-6.776415 17.916576 52.990654
-7.590955 18.561513 52.233103
-7.675308 17.288228 52.530039
-3.558805 14.626468 56.052868
-4.398501 15.396609 55.288725
-2.718252 15.159253 56.452253
-3.558805 14.626468 56.052868
-1.778354 15.743125 56.88295
-2.546158 16.516241 56.177519
-2.718252 15.159253 56.452253
-0.829846 16.248674 57.335306
-1.778354 15.743125 56.88295
14.250573 28.825503 62.300472
13.300058 28.255108 61.988426
14.080198 27.104603 62.794456
14.398647 30.632132 61.756487
14.250573 28.825503 62.300472
15.178788 29.481628 62.562517
17.61952 27.666061 64.195498
16.746813 27.133779 64.046381
18.420099 28.350923 64.25856
19.229655 28.939499 64.273953
17.620473 29.650519 63.560519
17.61952 27.666061 64.195498
18.420099 28.350923 64.25856
17.809031 33.5254 62.272241
17.689225 31.614645 62.908814
18.54086 32.246136 62.987009
17.925406 35.408766 61.607197
17.07377 34.777275 61.529001
17.809031 33.5254 62.272241
18.111698 37.261989 60.948225
17.925406 35.408766 61.607197
-9.854886 30.120141 46.887914
-9.135748 29.446085 47.660443
-9.72753 31.656408 46.409899
-9.854886 30.120141 46.887914
-9.524831 33.097412 45.99125
-9.72753 31.656408 46.409899
-8.802041 32.299406 46.825773
-9.308431 34.589346 45.546724
-9.524831 33.097412 45.99125
-9.308431 34.589346 45.546724
-8.434723 35.376058 45.832903
-5.517769 37.734177 46.707825
-6.529347 36.916621 46.432008
-5.753766 36.142908 47.246328
-5.517769 37.734177 46.707825
-4.578428 38.610996 46.891632
-1.037562 38.632297 48.968653
-2.033472 37.795553 48.754135
-1.037562 38.632297 48.968653
-0.262149 37.760683 49.811731
2.383643 38.446131 51.093038
1.415528 37.615923 50.868578
3.108977 37.58979 51.915578
3.352581 39.313254 51.323433
2.383643 38.446131 51.093038
2.814294 18.25836 58.961939
1.961129 17.708031 58.609281
3.72219 18.733914 59.358683
4.643019 19.230331 59.761158
2.971774 19.668647 58.620476
2.814294 18.25836 58.961939
3.72219 18.733914 59.358683
6.808127 23.447834 59.705191
5.872902 22.912569 59.3104
6.971993 25.122405 59.242042
6.808127 23.447834 59.705191
7.125146 26.862368 58.714337
6.191986 26.220884 58.357319
6.971993 25.122405 59.242042
8.100834 27.441291 59.119646
7.320827 28.53977 58.234922
7.125146 26.862368 58.714337
9.05482 28.120266 59.478117
8.100834 27.441291 59.119646
9.940251 29.008662 59.708425
9.181946 30.007089 58.87054
9.05482 28.120266 59.478117
10.648989 27.793367 60.592676
10.776115 29.68019 59.985099
9.940251 29.008662 59.708425
11.44377 26.721868 61.436237
10.648989 27.793367 60.592676
12.266185 25.756525 62.242767
12.307268 27.499551 61.67588
11.44377 26.721868 61.436237
13.044455 24.679237 63.020027
12.266185 25.756525 62.242767
13.958039 25.392585 63.275446
13.044455 24.679237 63.020027
5.117528 40.984102 51.70173
4.231368 40.200991 51.476795
4.964075 39.240025 52.370908
5.325539 42.722071 51.061906
5.117528 40.984102 51.70173
6.058247 41.761105 51.95602
5.603353 44.556145 50.401262
5.325539 42.722071 51.061906
7.205438 44.395313 51.527004
6.994962 42.564504 52.215515
7.934143 43.460745 52.426323
6.538015 45.367804 50.629688
7.205438 44.395313 51.527004
5.603353 44.556145 50.401262
6.538015 45.367804 50.629688
12.267364 44.371513 54.871987
11.323102 43.486698 54.661915
12.007247 42.435295 55.573623
16.634009 39.631601 59.387131
16.478338 37.755466 60.091492
17.345816 38.536775 60.159596
16.012786 40.898291 58.560612
16.634009 39.631601 59.387131
15.344496 42.078481 57.698638
15.098242 40.030483 58.457053
16.012786 40.898291 58.560612
14.630077 43.14098 56.847807
15.344496 42.078481 57.698638
13.890856 44.195698 55.942115
13.690731 42.265392 56.689386
14.630077 43.14098 56.847807
13.130262 45.211198 55.029426
13.890856 44.195698 55.942115
12.267364 44.371513 54.871987
13.130262 45.211198 55.029426
3 0 25 24
3 0 27 25
3 0 29 27
3 1 32 30
3 3 36 34
3 3 38 36
3 3 40 38
3 5 43 41
3 5 45 43
3 4 92 93
3 95 94 47
3 2 50 48
3 6 96 97
3 6 98 99
3 6 100 102
3 100 51 101
3 100 101 102
3 8 52 26
3 8 53 52
3 8 55 53
3 10 56 28
3 10 57 56
3 11 60 58
3 13 61 31
3 13 62 61
3 103 63 104
3 105 104 33
3 103 104 105
3 106 64 107
3 108 107 63
3 106 107 108
3 109 66 110
3 111 110 64
3 109 110 111
3 15 69 67
3 17 112 114
3 112 70 113
3 112 113 114
3 17 71 70
3 115 72 116
3 118 117 72
3 7 119 121
3 119 73 120
3 119 120 121
3 18 74 35
3 18 122 124
3 124 123 74
3 122 123 124
3 18 125 126
3 128 127 37
3 19 129 131
3 131 130 39
3 129 130 131
3 19 132 134
3 132 75 133
3 132 133 134
3 9 76 54
3 20 77 42
3 20 78 77
3 20 79 78
3 21 80 44
3 21 81 80
3 14 82 65
3 22 83 46
3 22 84 83
3 135 85 136
3 137 86 138
3 139 138 85
3 137 138 139
3 140 87 141
3 142 141 86
3 140 141 142
3 12 88 59
3 16 89 68
3 23 90 49
3 23 91 90
3 24 143 144
3 25 145 147
3 147 146 24
3 145 146 147
3 25 148 150
3 148 6 149
3 148 149 150
3 25 26 6
3 27 26 25
3 27 8 26
3 27 28 8
3 29 28 27
3 29 10 28
3 30 31 11
3 32 31 30
3 32 13 31
3 151 33 152
3 153 33 154
3 156 155 33
3 158 157 15
3 159 17 160
3 34 35 7
3 36 35 34
3 36 18 35
3 36 37 18
3 38 37 36
3 38 161 163
3 163 162 37
3 161 162 163
3 38 164 166
3 164 39 165
3 164 165 166
3 40 39 38
3 40 19 39
3 41 42 9
3 43 42 41
3 43 20 42
3 43 44 20
3 45 44 43
3 45 21 44
3 167 46 168
3 169 168 14
3 167 168 169
3 170 46 171
3 172 22 173
3 174 173 46
3 172 173 174
3 47 175 177
3 177 176 12
3 175 176 177
3 179 178 47
3 48 49 16
3 50 49 48
3 50 23 49
3 51 180 181
3 51 182 184
3 182 7 183
3 182 183 184
3 26 51 6
3 52 51 26
3 52 7 51
3 52 34 7
3 53 34 52
3 53 3 34
3 53 54 3
3 55 54 53
3 55 9 54
3 28 55 8
3 56 55 28
3 56 9 55
3 56 41 9
3 57 41 56
3 57 5 41
3 58 59 4
3 60 59 58
3 60 12 59
3 31 60 11
3 61 60 31
3 61 12 60
3 61 47 12
3 62 47 61
3 62 185 187
3 187 186 47
3 185 186 187
3 189 188 2
3 33 190 191
3 63 192 194
3 194 193 33
3 192 193 194
3 63 195 196
3 63 197 199
3 197 24 198
3 197 198 199
3 64 24 63
3 64 0 24
3 64 65 0
3 66 65 64
3 66 14 65
3 200 66 201
3 202 66 203
3 204 14 205
3 206 205 66
3 204 205 206
3 208 207 14
3 67 68 1
3 69 68 67
3 69 16 68
3 209 69 210
3 211 210 15
3 209 210 211
3 70 212 214
3 212 69 213
3 212 213 214
3 70 16 69
3 70 48 16
3 71 48 70
3 71 2 48
3 215 17 216
3 72 217 218
3 72 219 221
3 219 17 220
3 219 220 221
3 72 71 17
3 222 71 223
3 224 223 72
3 222 223 224
3 225 2 226
3 227 226 71
3 225 226 227
3 229 228 2
3 73 230 231
3 73 232 233
3 35 73 7
3 74 73 35
3 74 234 236
3 236 235 73
3 234 235 236
3 74 237 238
3 240 239 74
3 37 241 243
3 243 242 18
3 241 242 243
3 245 244 37
3 39 246 247
3 249 248 39
3 75 250 251
3 75 252 254
3 252 4 253
3 252 253 254
3 54 40 3
3 76 40 54
3 76 19 40
3 42 76 9
3 77 76 42
3 77 19 76
3 77 75 19
3 78 75 77
3 78 4 75
3 78 58 4
3 79 58 78
3 79 11 58
3 44 79 20
3 80 79 44
3 80 11 79
3 80 30 11
3 81 30 80
3 81 1 30
3 65 29 0
3 82 29 65
3 82 10 29
3 46 82 14
3 83 82 46
3 83 10 82
3 83 57 10
3 84 57 83
3 84 5 57
3 255 22 256
3 85 257 258
3 85 259 261
3 259 22 260
3 259 260 261
3 85 84 22
3 86 84 85
3 86 5 84
3 86 45 5
3 87 45 86
3 87 21 45
3 262 87 263
3 264 87 265
3 266 21 267
3 268 267 87
3 266 267 268
3 269 81 270
3 271 270 21
3 269 270 271
3 272 81 273
3 274 1 275
3 276 275 81
3 274 275 276
3 277 67 278
3 279 278 1
3 277 278 279
3 280 67 281
3 282 15 283
3 284 283 67
3 282 283 284
3 285 15 286
3 288 287 15
3 59 289 291
3 291 290 4
3 289 290 291
3 88 292 294
3 294 293 59
3 292 293 294
3 88 295 296
3 297 88 298
3 299 298 12
3 297 298 299
3 300 88 301
3 303 302 88
3 68 32 1
3 89 32 68
3 89 13 32
3 49 89 16
3 90 89 49
3 90 13 89
3 90 62 13
3 91 62 90
3 91 304 306
3 306 305 62
3 304 305 306
3 307 50 308
3 309 308 2
3 307 308 309
3 310 50 311
3 312 23 313
3 314 313 50
3 312 313 314
3 315 23 316
3 317 91 318
3 319 318 23
3 317 318 319
3 320 91 321
3 323 322 91
