ply
format ascii 1.0
element vertex 139
property float x
property float y
property float z
element face 104
property list uchar int vertex_index
end_header
-28.803818 25.975107 23.832312
-26.881182 24.32011 28.382261
-30.544224 27.418818 19.195669
-32.634159 23.30471 18.969339
-32.063694 25.567303 17.954548
-31.189913 24.969246 20.227827
-27.462757 27.58983 25.071375
-24.603308 24.830154 31.880199
-23.206198 26.423315 33.309799
-29.297951 23.475182 24.809587
-27.858595 25.182697 26.128887
-26.466944 26.876129 27.446764
-33.79039 26.431965 13.170094
-32.979866 26.0676 15.494598
-31.454489 27.76638 16.934298
-29.698555 26.776861 21.472754
-25.537012 25.908606 29.714712
-31.442854 23.744179 20.789969
-31.912036 24.136978 19.598583
-32.164977 22.911911 20.160725
-27.161544 28.789946 24.669713
-26.761881 28.369718 25.805661
-32.164977 22.911911 20.160725
-32.885267 22.160892 19.471767
-22.745991 25.905333 34.270731
-23.389928 25.112656 33.653902
-29.456938 22.246521 25.356445
-29.953082 22.738359 24.21405
-27.369889 24.751404 27.255574
-28.029556 23.960107 26.635663
-27.540849 23.528813 27.76235
-33.258206 24.971195 16.06619
-33.717022 25.157583 14.858802
-30.256404 28.50658 18.676544
-30.711537 28.680362 17.545859
-30.999356 27.592599 18.064983
-29.251186 26.375984 22.652533
-29.979445 25.573113 21.962352
-29.532077 25.172235 23.142131
-33.434187 27.525733 12.621694
-33.058191 27.332487 13.804603
-24.84207 26.64809 30.466668
-25.07016 25.36938 30.797455
-24.375217 26.108864 31.549411
-25.324973 27.175462 29.274905
-24.84207 26.64809 30.466668
-27.060416 23.033905 28.826321
-27.540849 23.528813 27.76235
-32.348926 24.436006 18.461944
-32.800119 24.721046 17.296166
-33.085352 23.58975 17.803561
-27.864472 27.986441 23.962389
-28.535002 27.17908 23.342858
-28.133288 26.782469 24.451844
-27.864472 27.986441 23.962389
-27.161544 28.789946 24.669713
-33.335138 22.471023 18.369264
-32.885267 22.160892 19.471767
-33.085352 23.58975 17.803561
-33.335138 22.471023 18.369264
-24.088483 24.316076 32.939102
-24.720619 23.535296 32.328547
-23.904753 25.626734 32.594999
-24.088483 24.316076 32.939102
-23.389928 25.112656 33.653902
-23.676662 26.905445 32.264212
-24.375217 26.108864 31.549411
-23.904753 25.626734 32.594999
-29.779143 23.922273 23.630769
-29.953082 22.738359 24.21405
-29.050885 24.725144 24.32095
-29.532077 25.172235 23.142131
-29.779143 23.922273 23.630769
-28.749234 23.106349 25.976013
-29.456938 22.246521 25.356445
-28.578273 24.32894 25.469237
-28.749234 23.106349 25.976013
-28.029556 23.960107 26.635663
-26.263975 28.012868 26.993356
-26.761881 28.369718 25.805661
-26.964851 27.232979 26.25907
-34.122284 25.339765 13.696549
-34.45273 25.591245 12.567235
-33.385128 26.249783 14.332346
-34.122284 25.339765 13.696549
-33.717022 25.157583 14.858802
-32.652929 27.150304 14.966855
-33.058191 27.332487 13.804603
-33.385128 26.249783 14.332346
-32.52178 25.817451 16.724573
-33.258206 24.971195 16.06619
-32.800119 24.721046 17.296166
-31.890241 27.999695 15.686705
-32.652929 27.150304 14.966855
-32.217177 26.91699 16.214448
-31.144855 28.925938 16.29672
-31.890241 27.999695 15.686705
-31.144855 28.925938 16.29672
-30.711537 28.680362 17.545859
-30.725124 24.669305 21.339889
-31.442854 23.744179 20.789969
-30.444234 25.873053 20.85029
-30.725124 24.669305 21.339889
-29.979445 25.573113 21.962352
-28.982371 27.579957 22.163078
-29.251186 26.375984 22.652533
-28.535002 27.17908 23.342858
-29.403911 27.868945 21.044604
-28.982371 27.579957 22.163078
-29.826745 28.189923 19.906061
-30.121389 27.097839 20.334211
-29.403911 27.868945 21.044604
-30.256404 28.50658 18.676544
-29.826745 28.189923 19.906061
-34.126755 26.649345 11.986944
-34.45273 25.591245 12.567235
-34.126755 26.649345 11.986944
-33.434187 27.525733 12.621694
-26.401886 23.796522 29.473225
-27.060416 23.033905 28.826321
-25.262949 24.051544 31.222195
-24.720619 23.535296 32.328547
-25.729801 24.59077 30.139451
-25.262949 24.051544 31.222195
-25.07016 25.36938 30.797455
-26.209097 25.114358 29.048486
-26.401886 23.796522 29.473225
-25.729801 24.59077 30.139451
-25.789939 27.659223 28.140931
-26.001978 26.392367 28.580738
-25.324973 27.175462 29.274905
-26.263975 28.012868 26.993356
-25.789939 27.659223 28.140931
-22.525419 27.322966 33.937528
-22.745991 25.905333 34.270731
-23.00196 27.769157 32.915472
-22.525419 27.322966 33.937528
-23.676662 26.905445 32.264212
-23.00196 27.769157 32.915472
3 17 5 18
3 19 18 3
3 17 18 19
3 21 20 6
3 22 3 23
3 24 8 25
3 26 9 27
3 1 28 30
3 28 10 29
3 28 29 30
3 1 11 10
3 31 13 32
3 2 14 4
3 2 33 35
3 35 34 14
3 33 34 35
3 0 36 38
3 36 15 37
3 36 37 38
3 40 39 12
3 41 16 42
3 43 42 7
3 41 42 43
3 45 44 16
3 46 1 47
3 3 48 50
3 48 4 49
3 48 49 50
3 5 4 3
3 5 2 4
3 6 51 53
3 53 52 0
3 51 52 53
3 55 54 6
3 3 56 57
3 3 58 59
3 60 7 61
3 8 62 64
3 62 7 63
3 62 63 64
3 8 65 67
3 67 66 7
3 65 66 67
3 9 68 69
3 9 70 72
3 70 0 71
3 70 71 72
3 73 9 74
3 10 75 77
3 75 9 76
3 75 76 77
3 10 0 9
3 10 6 0
3 11 6 10
3 11 78 80
3 80 79 6
3 78 79 80
3 81 12 82
3 13 83 85
3 83 12 84
3 83 84 85
3 13 86 88
3 88 87 12
3 86 87 88
3 4 89 91
3 89 13 90
3 89 90 91
3 14 13 4
3 14 92 94
3 94 93 13
3 92 93 94
3 14 95 96
3 98 97 14
3 99 5 100
3 15 101 103
3 101 5 102
3 101 102 103
3 15 2 5
3 104 15 105
3 106 105 0
3 104 105 106
3 107 15 108
3 109 2 110
3 111 110 15
3 109 110 111
3 113 112 2
3 12 114 115
3 117 116 12
3 118 1 119
3 7 120 121
3 16 122 124
3 124 123 7
3 122 123 124
3 16 125 127
3 125 1 126
3 125 126 127
3 16 11 1
3 128 11 129
3 130 129 16
3 128 129 130
3 132 131 11
3 133 8 134
3 135 8 136
3 138 137 8
