ply
format ascii 1.0
element vertex 132
property float x
property float y
property float z
element face 98
property list uchar int vertex_index
end_header
-36.23748 9.134612 22.224791
-34.725315 -7.571092 23.840374
-35.50106 0.74876 23.321304
-36.339832 -6.114251 19.843159
-34.325211 -21.748318 20.748053
-35.402538 7.960333 24.353237
-35.959099 4.940047 22.644814
-36.800365 -1.935486 19.392408
-35.174362 -3.455963 23.494326
-36.695507 5.698514 20.723604
-35.675121 12.315855 23.801481
-36.45636 13.346634 21.68523
-37.269493 14.388973 19.31628
-36.341282 1.222127 21.183586
-35.985363 -2.566291 21.548225
-35.533501 -6.735352 21.929586
-35.051994 -11.009907 22.204809
-34.598415 -14.952834 22.358053
-34.308628 -8.011918 24.786788
-34.518175 -5.932894 24.663191
-34.512346 -9.630543 23.923114
-34.308628 -8.011918 24.786788
-35.117186 0.30186 24.220143
-35.297661 2.446737 24.054144
-35.337711 -1.353602 23.407815
-34.953837 -1.800501 24.306654
-35.117186 0.30186 24.220143
-35.415869 14.097365 24.4585
-35.29936 11.852999 24.77476
-36.56995 15.499142 21.247661
-36.181513 15.023581 22.369287
-36.976517 16.020311 20.063185
-36.862927 13.867804 20.500755
-36.56995 15.499142 21.247661
-36.744942 1.678665 20.100465
-36.518394 3.46032 20.953595
-36.922055 3.916859 19.870475
-35.213457 -12.598032 21.294258
-35.444822 -10.557337 21.23777
-34.986668 -14.569495 21.37088
-34.825204 -12.981371 22.281431
-35.213457 -12.598032 21.294258
-34.240265 -20.088408 21.635416
-34.590914 -19.971356 20.631811
-33.974921 -22.015165 21.757515
-34.240265 -20.088408 21.635416
-34.061523 -23.513047 20.833174
-33.974921 -22.015165 21.757515
-35.2484 6.052524 24.57011
-34.992042 7.59939 25.373639
-35.52668 4.542381 23.715899
-35.2484 6.052524 24.57011
-35.680819 6.45019 23.499026
-35.73008 2.844403 22.983059
-35.297661 2.446737 24.054144
-35.52668 4.542381 23.715899
-37.159509 -1.727202 18.319918
-36.974483 0.099859 19.204876
-36.941055 -3.632264 18.584907
-37.159509 -1.727202 18.319918
-36.710788 -5.721646 18.810282
-36.570099 -4.024869 19.617784
-36.941055 -3.632264 18.584907
-34.664319 -21.466222 19.713677
-34.590914 -19.971356 20.631811
-34.354163 -23.381225 19.803047
-34.664319 -21.466222 19.713677
-34.742699 -3.87533 24.490167
-34.953837 -1.800501 24.306654
-34.949838 -5.513528 23.66735
-34.518175 -5.932894 24.663191
-34.742699 -3.87533 24.490167
-36.865536 7.847336 20.375136
-36.466493 7.416563 21.474198
-36.636522 9.565385 21.12573
-37.088646 5.971554 19.596633
-36.865536 7.847336 20.375136
-36.922055 3.916859 19.870475
-37.088646 5.971554 19.596633
-35.163069 9.675238 25.050638
-34.992042 7.59939 25.373639
-35.538829 10.138094 24.077359
-35.163069 9.675238 25.050638
-35.29936 11.852999 24.77476
-35.790893 14.508192 23.427413
-35.415869 14.097365 24.4585
-36.06574 12.831245 22.743355
-35.790893 14.508192 23.427413
-36.181513 15.023581 22.369287
-36.745962 11.671396 20.85595
-36.636522 9.565385 21.12573
-36.34692 11.240623 21.955011
-37.152529 12.192566 19.671474
-36.745962 11.671396 20.85595
-36.862927 13.867804 20.500755
-37.522621 12.580896 18.557485
-37.152529 12.192566 19.671474
-37.345146 16.454149 18.920364
-36.976517 16.020311 20.063185
-37.647888 14.739451 18.103746
-37.345146 16.454149 18.920364
-37.522621 12.580896 18.557485
-37.647888 14.739451 18.103746
-36.570824 -0.35668 20.287997
-36.744942 1.678665 20.100465
-36.974483 0.099859 19.204876
-36.485012 -7.766011 18.951276
-36.710788 -5.721646 18.810282
-36.088741 -8.109509 20.056945
-36.485012 -7.766011 18.951276
-35.685575 -8.42006 21.100158
-35.936667 -6.424802 20.886373
-36.088741 -8.109509 20.056945
-35.292748 -8.87263 22.067197
-35.685575 -8.42006 21.100158
-35.444822 -10.557337 21.23777
-34.675686 -11.349951 23.105331
-34.512346 -9.630543 23.923114
-34.888655 -9.290499 23.022592
-34.448896 -13.321414 23.181953
-34.675686 -11.349951 23.105331
-34.825204 -12.981371 22.281431
-34.201622 -15.176521 23.361232
-34.448896 -13.321414 23.181953
-34.727516 -16.573614 21.436812
-34.986668 -14.569495 21.37088
-34.376867 -16.690666 22.440416
-34.727516 -16.573614 21.436812
-34.201622 -15.176521 23.361232
-34.376867 -16.690666 22.440416
-34.061523 -23.513047 20.833174
-34.354163 -23.381225 19.803047
3 0 6 5
3 1 18 19
3 1 20 21
3 2 22 23
3 2 24 26
3 24 8 25
3 24 25 26
3 27 10 28
3 29 11 30
3 31 12 32
3 33 32 11
3 31 32 33
3 34 13 35
3 36 35 9
3 34 35 36
3 3 14 7
3 3 15 14
3 37 16 38
3 39 17 40
3 41 40 16
3 39 40 41
3 4 42 43
3 4 44 45
3 4 46 47
3 5 48 49
3 6 50 52
3 52 51 5
3 50 51 52
3 6 53 55
3 53 2 54
3 53 54 55
3 56 7 57
3 58 7 59
3 60 3 61
3 62 61 7
3 60 61 62
3 63 4 64
3 66 65 4
3 8 67 68
3 8 69 71
3 69 1 70
3 69 70 71
3 72 9 73
3 74 73 0
3 72 73 74
3 75 9 76
3 78 77 9
3 79 5 80
3 10 81 83
3 81 5 82
3 81 82 83
3 10 0 5
3 84 10 85
3 11 86 88
3 86 10 87
3 86 87 88
3 11 0 10
3 11 89 91
3 91 90 0
3 89 90 91
3 12 92 94
3 94 93 11
3 92 93 94
3 12 95 96
3 97 12 98
3 99 12 100
3 102 101 12
3 9 6 0
3 13 6 9
3 13 2 6
3 7 103 105
3 103 13 104
3 103 104 105
3 14 13 7
3 14 2 13
3 14 8 2
3 15 8 14
3 15 1 8
3 106 3 107
3 108 3 109
3 110 15 111
3 112 111 3
3 110 111 112
3 16 113 115
3 113 15 114
3 113 114 115
3 16 1 15
3 16 116 118
3 118 117 1
3 116 117 118
3 17 119 121
3 121 120 16
3 119 120 121
3 17 122 123
3 124 17 125
3 126 17 127
3 129 128 17
3 131 130 4
