ply
format ascii 1.0
element vertex 95
property float x
property float y
property float z
element face 71
property list uchar int vertex_index
end_header
30.172199 18.961533 -40.243797
32.081856 20.481802 -45.632496
28.991682 23.039219 -44.991119
30.682852 16.92709 -38.10511
28.649492 20.049568 -39.948441
29.681162 21.013882 -42.633266
31.727131 17.739569 -40.512348
31.274662 19.729752 -42.881111
33.485889 18.743303 -45.362541
27.3039 24.197001 -44.512939
30.59458 21.821684 -45.383121
29.767454 23.754198 -47.734127
29.663815 18.451346 -38.990007
29.919141 17.434124 -37.920664
30.427526 17.944311 -39.174453
29.410846 19.50555 -40.096119
28.902461 18.995363 -38.842329
29.663815 18.451346 -38.990007
32.456989 17.048455 -40.594103
31.944275 16.733642 -39.415491
32.203383 18.08551 -41.791626
32.456989 17.048455 -40.594103
34.147738 17.847783 -45.356832
33.756902 17.752209 -44.139486
33.795251 18.862144 -46.600776
34.147738 17.847783 -45.356832
28.147791 23.61811 -44.752029
27.682272 23.197492 -43.417881
28.526163 22.618601 -43.656971
28.534391 23.981727 -46.035474
27.6905 24.560619 -45.796385
28.147791 23.61811 -44.752029
30.038678 24.007188 -49.026823
30.517312 23.084522 -47.851715
29.223078 24.676089 -48.786518
30.038678 24.007188 -49.026823
30.076561 16.450922 -36.871113
30.843324 15.870814 -36.960665
30.076561 16.450922 -36.871113
29.919141 17.434124 -37.920664
28.109985 19.528495 -38.683234
28.362954 18.47429 -37.577122
28.902461 18.995363 -38.842329
27.883331 20.584949 -39.799237
28.109985 19.528495 -38.683234
28.355068 21.123776 -41.135632
27.883331 20.584949 -39.799237
28.870903 21.605933 -42.478044
28.355068 21.123776 -41.135632
29.165327 20.531725 -41.290853
29.336422 22.02655 -43.812192
28.526163 22.618601 -43.656971
28.870903 21.605933 -42.478044
31.674513 21.448324 -46.800899
32.396504 20.654385 -46.799191
31.422136 16.327403 -38.211872
30.843324 15.870814 -36.960665
31.204991 17.333329 -39.308729
31.422136 16.327403 -38.211872
31.944275 16.733642 -39.415491
31.977148 19.080601 -42.976007
31.500896 18.734661 -41.69673
32.203383 18.08551 -41.791626
32.380745 19.456626 -44.3517
31.678259 20.105777 -44.256804
31.977148 19.080601 -42.976007
33.082762 18.587377 -44.216723
33.756902 17.752209 -44.139486
32.783873 19.612552 -45.497518
32.380745 19.456626 -44.3517
33.082762 18.587377 -44.216723
33.09852 19.785136 -46.664213
32.396504 20.654385 -46.799191
32.783873 19.612552 -45.497518
33.09852 19.785136 -46.664213
33.795251 18.862144 -46.600776
26.873641 23.744613 -43.207598
27.682272 23.197492 -43.417881
26.466328 24.730946 -44.209041
26.873641 23.744613 -43.207598
26.850209 25.158213 -45.584772
26.466328 24.730946 -44.209041
26.850209 25.158213 -45.584772
27.6905 24.560619 -45.796385
30.930875 22.118265 -46.676212
31.338218 21.151743 -45.507809
31.674513 21.448324 -46.800899
30.181017 22.787941 -46.558624
30.930875 22.118265 -46.676212
30.517312 23.084522 -47.851715
28.922277 24.339217 -47.406979
28.534391 23.981727 -46.035474
29.379568 23.396708 -46.362623
28.922277 24.339217 -47.406979
29.223078 24.676089 -48.786518
3 0 12 14
3 14 13 3
3 12 13 14
3 0 15 17
3 15 4 16
3 15 16 17
3 0 5 4
3 18 6 19
3 21 20 6
3 22 8 23
3 25 24 8
3 2 26 28
3 26 9 27
3 26 27 28
3 2 29 31
3 31 30 9
3 29 30 31
3 1 10 7
3 32 11 33
3 35 34 11
3 3 36 37
3 39 38 3
3 4 40 42
3 40 41 42
3 4 43 44
3 4 45 46
3 5 47 49
3 49 48 4
3 47 48 49
3 5 50 52
3 50 2 51
3 50 51 52
3 54 53 1
3 55 3 56
3 6 57 59
3 57 3 58
3 57 58 59
3 6 0 3
3 6 7 0
3 60 7 61
3 62 61 6
3 60 61 62
3 63 1 64
3 65 64 7
3 63 64 65
3 8 66 67
3 8 68 70
3 68 1 69
3 68 69 70
3 8 71 73
3 73 72 1
3 71 72 73
3 75 74 8
3 9 76 77
3 9 78 79
3 9 80 81
3 83 82 9
3 7 5 0
3 10 5 7
3 10 2 5
3 84 10 85
3 86 85 1
3 84 85 86
3 11 87 89
3 87 10 88
3 87 88 89
3 11 2 10
3 11 90 92
3 92 91 2
3 90 91 92
3 94 93 11
