ply
format ascii 1.0
element vertex 138
property float x
property float y
property float z
element face 109
property list uchar int vertex_index
end_header
-28.181475 67.190765 41.694912
-25.961615 71.790695 41.25528
-27.80814 74.561569 36.433292
-26.30019 64.249832 46.402775
-29.377394 69.702316 36.439724
-29.146587 76.332321 30.960665
-28.815687 68.789177 39.005859
-27.665737 77.875107 33.590511
-28.547823 75.454994 33.878208
-28.399479 78.790794 30.888126
-28.912161 79.552109 28.270863
-28.163227 82.127731 27.738882
-30.255447 67.681755 33.497597
-27.175282 69.635773 41.538788
-27.965183 71.041565 39.141525
-26.237862 68.006371 43.858063
-29.916014 66.905106 36.361675
-29.816671 70.296638 33.90057
-28.646626 72.171593 36.640785
-29.220272 73.108398 33.942715
-29.550526 77.176758 28.080429
-28.498581 67.989971 40.350386
-28.891215 66.820713 40.266954
-28.574109 66.021507 41.61148
-27.958889 79.94566 30.710974
-28.032608 78.332951 32.239318
-27.592018 79.487816 32.062166
-27.840763 81.614128 29.136351
-28.281353 80.459262 29.313504
-27.958889 79.94566 30.710974
-27.688665 83.236011 27.56342
-27.840763 81.614128 29.136351
-30.276719 65.994835 34.797022
-30.408479 66.155536 33.482653
-26.456236 72.519073 40.106613
-27.063069 71.441612 40.248368
-26.568448 70.713234 41.397034
-26.851374 63.172788 46.451969
-26.399448 62.450969 47.457796
-26.799307 65.025299 45.285963
-26.851374 63.172788 46.451969
-26.269026 66.128101 45.130419
-26.768143 66.903569 44.013607
-26.799307 65.025299 45.285963
-29.646704 68.303711 36.4007
-29.70663 66.461185 37.654901
-29.43732 67.859791 37.693926
-29.426654 75.010269 31.037619
-29.463497 73.398307 32.528644
-29.18343 74.72036 32.45169
-29.348557 76.754539 29.520547
-29.628624 75.432488 29.597501
-29.426654 75.010269 31.037619
-29.159844 79.801216 26.775257
-28.83905 81.098854 26.604378
-25.884391 73.574512 39.854385
-25.35239 72.636688 41.041737
-25.77956 63.374973 47.39434
-26.399448 62.450969 47.457796
-25.701498 65.333897 46.150666
-25.77956 63.374973 47.39434
-29.156467 67.403221 38.976993
-28.891215 66.820713 40.266954
-29.09654 69.245746 37.722791
-29.43732 67.859791 37.693926
-29.156467 67.403221 38.976993
-28.464583 82.386665 26.338387
-28.83905 81.098854 26.604378
-28.537694 80.83992 28.004872
-28.064762 83.539234 26.217821
-28.464583 82.386665 26.338387
-28.064762 83.539234 26.217821
-27.688665 83.236011 27.56342
-30.372166 67.890961 32.232212
-30.408479 66.155536 33.482653
-30.203826 69.35757 32.252975
-30.372166 67.890961 32.232212
-27.45802 72.144509 39.049736
-27.570232 70.338669 40.340156
-27.063069 71.441612 40.248368
-27.379499 73.904511 37.695619
-27.886662 72.801567 37.787408
-27.45802 72.144509 39.049736
-26.456236 72.519073 40.106613
-25.884391 73.574512 39.854385
-27.313152 75.544697 36.352108
-27.379499 73.904511 37.695619
-27.24195 77.201465 34.930718
-27.736939 76.218338 35.011902
-27.313152 75.544697 36.352108
-27.139325 78.92125 33.425911
-27.24195 77.201465 34.930718
-27.592018 79.487816 32.062166
-27.139325 78.92125 33.425911
-28.2108 65.399316 42.888367
-28.574109 66.021507 41.61148
-27.73995 66.495766 42.932032
-28.2108 65.399316 42.888367
-27.236853 67.718269 42.853969
-27.678379 68.413269 41.61685
-27.73995 66.495766 42.932032
-26.706572 68.821072 42.698425
-27.236853 67.718269 42.853969
-26.768143 66.903569 44.013607
-25.670334 67.212166 44.87831
-26.269026 66.128101 45.130419
-25.701498 65.333897 46.150666
-25.542865 68.96423 43.695771
-25.670334 67.212166 44.87831
-25.404742 70.856392 42.394379
-26.099739 69.898533 42.556672
-25.542865 68.96423 43.695771
-25.35239 72.636688 41.041737
-25.404742 70.856392 42.394379
-29.96672 64.991287 37.578022
-29.70663 66.461185 37.654901
-30.107003 65.60651 36.229061
-29.96672 64.991287 37.578022
-30.085731 67.29343 34.929636
-30.276719 65.994835 34.797022
-30.107003 65.60651 36.229061
-29.984438 70.665012 32.454462
-30.203826 69.35757 32.252975
-30.036059 68.989196 33.699084
-29.761696 71.992427 32.507571
-29.518472 71.702518 33.921643
-29.463497 73.398307 32.528644
-29.984438 70.665012 32.454462
-29.761696 71.992427 32.507571
-29.797679 75.763333 28.136025
-29.628624 75.432488 29.597501
-29.740316 77.303417 26.685693
-29.797679 75.763333 28.136025
-29.479026 78.61354 26.68004
-29.231344 78.364434 28.175646
-29.159844 79.801216 26.775257
-29.740316 77.303417 26.685693
-29.479026 78.61354 26.68004
3 0 21 23
3 21 6 22
3 21 22 23
3 24 9 25
3 26 25 7
3 24 25 26
3 27 11 28
3 29 28 9
3 27 28 29
3 31 30 11
3 32 12 33
3 1 34 36
3 36 35 13
3 34 35 36
3 3 37 38
3 3 39 40
3 3 41 43
3 41 15 42
3 41 42 43
3 4 44 46
3 44 16 45
3 44 45 46
3 4 17 16
3 2 18 14
3 5 19 8
3 5 47 49
3 49 48 19
3 47 48 49
3 5 50 52
3 50 20 51
3 50 51 52
3 54 53 10
3 56 55 1
3 57 3 58
3 60 59 3
3 6 61 62
3 6 63 65
3 63 4 64
3 63 64 65
3 7 8 2
3 9 8 7
3 9 5 8
3 9 10 5
3 11 10 9
3 11 66 68
3 68 67 10
3 66 67 68
3 11 69 70
3 72 71 11
3 12 73 74
3 12 75 76
3 13 14 0
3 77 14 78
3 79 78 13
3 77 78 79
3 80 2 81
3 82 81 14
3 80 81 82
3 84 83 1
3 85 2 86
3 87 7 88
3 89 88 2
3 87 88 89
3 90 7 91
3 93 92 7
3 94 0 95
3 96 0 97
3 98 13 99
3 100 99 0
3 98 99 100
3 15 101 103
3 101 13 102
3 101 102 103
3 15 1 13
3 104 15 105
3 106 105 3
3 104 105 106
3 107 15 108
3 109 1 110
3 111 110 15
3 109 110 111
3 113 112 1
3 16 114 115
3 16 116 117
3 16 118 120
3 118 12 119
3 118 119 120
3 17 12 16
3 17 121 123
3 123 122 12
3 121 122 123
3 14 6 0
3 18 6 14
3 18 4 6
3 8 18 2
3 19 18 8
3 19 4 18
3 19 17 4
3 124 17 125
3 126 125 19
3 124 125 126
3 128 127 17
3 20 129 130
3 20 131 132
3 10 20 5
3 133 20 134
3 135 134 10
3 133 134 135
3 137 136 20
