ply
format ascii 1.0
element vertex 185
property float x
property float y
property float z
element face 168
property list uchar int vertex_index
end_header
4.764969 88.263931 8.058882
1.826442 82.94294 18.219578
8.259385 85.666 7.341908
6.732028 89.677719 3.153274
4.373772 77.626297 21.426958
5.526759 81.022331 16.526861
7.73339 75.665054 19.652119
2.676294 92.911423 3.20684
-0.868327 88.412331 14.104456
3.28132 85.930092 13.025321
6.779299 83.847816 11.695386
9.708656 84.534256 6.950962
9.100993 86.337059 5.135484
6.131071 76.687645 20.484112
1.727223 92.034599 5.919994
3.753846 90.633141 5.652465
5.857683 91.675751 0.86914
-0.089078 83.929642 18.93688
-1.541867 86.746109 16.915091
0.568092 85.716293 16.140884
1.19695 87.316444 13.436546
2.423549 84.701073 15.502277
7.292968 79.932961 15.719049
6.202913 82.426689 14.128376
7.859835 81.453804 13.300328
8.467397 82.725288 11.003293
6.636407 87.004822 7.544157
5.626786 89.166649 5.558418
7.483928 87.704926 5.326361
8.512897 88.229614 2.929996
3.126667 80.353386 19.824308
3.708586 82.054733 17.312267
4.911148 79.415123 18.97781
6.64254 78.380112 18.158232
8.270149 77.310715 17.329321
4.818071 91.204506 3.264663
1.95076 88.599976 10.860655
3.883756 87.339317 10.444316
4.316193 83.61731 14.811766
5.075334 84.939316 12.300048
5.847999 86.037994 9.919147
7.506027 84.886627 9.425334
9.105663 83.693428 8.932027
10.090439 84.753086 6.042891
10.241805 84.064403 6.825206
4.259408 89.448536 6.855673
3.28304 90.208416 6.898156
3.788601 89.023811 8.101364
0.868682 83.436291 18.578229
0.548319 82.568985 19.869656
1.506079 82.075634 19.511004
8.353613 80.19321 14.095652
7.576402 80.693383 14.509688
8.07018 79.432789 15.305013
8.610931 80.953163 12.921923
8.353613 80.19321 14.095652
9.295527 87.413692 3.044253
8.806945 87.283336 4.03274
9.589575 86.467415 4.146997
9.058366 88.278244 1.927784
9.295527 87.413692 3.044253
3.421773 78.102333 21.897382
4.028479 76.713752 22.68678
3.75022 78.989841 20.625633
2.798221 79.465878 21.096058
3.421773 78.102333 21.897382
8.565448 75.213729 19.038021
8.833828 76.03656 17.876622
8.001769 76.487885 18.49072
1.580321 93.570053 3.475719
1.105785 93.131641 4.832295
2.201758 92.473011 4.563417
2.121363 93.977372 1.986163
1.580321 93.570053 3.475719
4.835135 92.524929 0.803477
5.349902 92.753495 -0.474759
-1.94828 88.969788 14.420601
-2.285051 88.136677 15.825918
-1.205097 87.57922 15.509774
-1.507846 89.656014 13.034204
-1.94828 88.969788 14.420601
-0.480377 89.115036 12.732851
-1.507846 89.656014 13.034204
9.556313 82.63176 9.652529
8.78653 83.209358 9.96766
9.237179 82.14769 10.688162
9.744886 83.243759 8.634209
9.556313 82.63176 9.652529
9.786608 85.654487 5.135153
9.404825 85.435657 6.043223
10.090439 84.753086 6.042891
9.589575 86.467415 4.146997
9.786608 85.654487 5.135153
4.894267 76.282353 22.209046
4.028479 76.713752 22.68678
5.772917 75.813027 21.737623
5.252422 77.156971 20.955535
4.894267 76.282353 22.209046
6.652613 75.252384 21.29234
5.772917 75.813027 21.737623
7.453772 74.741088 20.876343
6.932231 76.17635 20.068115
6.652613 75.252384 21.29234
8.274781 74.411487 20.182519
7.453772 74.741088 20.876343
2.269728 90.909145 7.031921
1.283435 91.534863 7.229954
2.740534 91.33387 5.78623
2.269728 90.909145 7.031921
3.28304 90.208416 6.898156
6.819589 90.903515 0.780296
6.294855 90.676735 2.011207
7.256761 89.904499 1.922363
6.362292 91.882969 -0.378802
6.819589 90.903515 0.780296
5.349902 92.753495 -0.474759
6.362292 91.882969 -0.378802
-0.497557 83.062848 20.289929
0.548319 82.568985 19.869656
-1.150924 84.467838 19.288135
-0.497557 83.062848 20.289929
-0.815473 85.337875 17.925985
-1.877318 85.876072 18.277241
-1.150924 84.467838 19.288135
8.914712 81.588905 11.773405
8.163616 82.089546 12.15181
8.610931 80.953163 12.921923
9.237179 82.14769 10.688162
8.914712 81.588905 11.773405
8.147196 89.180447 1.810723
7.256761 89.904499 1.922363
7.622463 88.953666 3.041635
8.147196 89.180447 1.810723
9.058366 88.278244 1.927784
2.156191 80.780857 20.31337
2.798221 79.465878 21.096058
2.476554 81.648163 19.021943
1.506079 82.075634 19.511004
2.156191 80.780857 20.31337
8.55877 78.121666 16.110149
8.07018 79.432789 15.305013
7.781559 78.621838 16.524185
9.088668 76.8442 16.737447
8.55877 78.121666 16.110149
9.088668 76.8442 16.737447
8.833828 76.03656 17.876622
8.565448 75.213729 19.038021
8.274781 74.411487 20.182519
0.690068 92.670829 6.126738
1.283435 91.534863 7.229954
0.690068 92.670829 6.126738
1.105785 93.131641 4.832295
4.315329 92.289306 2.001238
5.337877 91.440129 2.066902
4.835135 92.524929 0.803477
3.244441 93.142765 1.972327
3.747183 92.057964 3.235752
4.315329 92.289306 2.001238
2.121363 93.977372 1.986163
3.244441 93.142765 1.972327
-2.591373 87.317345 17.176676
-1.877318 85.876072 18.277241
-2.591373 87.317345 17.176676
-2.285051 88.136677 15.825918
0.552261 88.567093 12.398896
-0.480377 89.115036 12.732851
0.164311 87.864387 13.770501
0.929167 89.208858 11.11095
0.552261 88.567093 12.398896
1.573855 87.95821 12.148601
1.395204 89.817551 9.700284
0.929167 89.208858 11.11095
2.381496 89.191834 9.502251
1.395204 89.817551 9.700284
3.347994 88.561504 9.294082
2.381496 89.191834 9.502251
2.917258 87.969646 10.652486
4.324362 87.801624 9.251599
3.788601 89.023811 8.101364
3.347994 88.561504 9.294082
10.046383 83.664173 7.643676
9.407159 84.113842 7.941494
9.744886 83.243759 8.634209
10.241805 84.064403 6.825206
10.046383 83.664173 7.643676
3 44 43 11
3 0 45 47
3 45 15 46
3 45 46 47
3 1 48 50
3 48 17 49
3 48 49 50
3 1 19 17
3 1 21 19
3 51 24 52
3 53 52 22
3 51 52 53
3 55 54 24
3 2 28 26
3 56 29 57
3 58 57 12
3 56 57 58
3 60 59 29
3 4 61 62
3 4 63 65
3 63 30 64
3 63 64 65
3 4 32 30
3 6 33 13
3 6 34 33
3 6 66 68
3 68 67 34
3 66 67 68
3 7 69 71
3 71 70 14
3 69 70 71
3 7 72 73
3 3 35 27
3 75 74 16
3 8 76 78
3 78 77 18
3 76 77 78
3 8 79 80
3 8 81 82
3 9 36 20
3 9 37 36
3 5 38 31
3 10 39 23
3 10 40 39
3 10 41 40
3 83 42 84
3 85 84 25
3 83 84 85
3 87 86 42
3 11 12 2
3 88 12 89
3 90 89 11
3 88 89 90
3 92 91 12
3 93 4 94
3 95 13 96
3 97 96 4
3 95 96 97
3 98 13 99
3 100 6 101
3 102 101 13
3 100 101 102
3 104 103 6
3 105 14 106
3 15 107 109
3 107 14 108
3 107 108 109
3 15 7 14
3 110 16 111
3 112 111 3
3 110 111 112
3 113 16 114
3 116 115 16
3 17 117 118
3 17 119 120
3 17 121 123
3 121 18 122
3 121 122 123
3 19 18 17
3 19 8 18
3 19 20 8
3 21 20 19
3 21 9 20
3 22 23 5
3 24 23 22
3 24 10 23
3 24 25 10
3 124 25 125
3 126 125 24
3 124 125 126
3 128 127 25
3 26 27 0
3 28 27 26
3 28 3 27
3 12 28 2
3 29 28 12
3 29 3 28
3 29 129 131
3 131 130 3
3 129 130 131
3 133 132 29
3 30 134 135
3 30 136 138
3 136 1 137
3 136 137 138
3 30 31 1
3 32 31 30
3 32 5 31
3 13 32 4
3 33 32 13
3 33 5 32
3 33 22 5
3 34 22 33
3 34 139 141
3 141 140 22
3 139 140 141
3 34 142 143
3 145 144 34
3 147 146 6
3 14 148 149
3 151 150 14
3 27 15 0
3 35 15 27
3 35 7 15
3 16 35 3
3 152 35 153
3 154 153 16
3 152 153 154
3 155 7 156
3 157 156 35
3 155 156 157
3 159 158 7
3 18 160 161
3 163 162 18
3 20 164 166
3 166 165 8
3 164 165 166
3 36 167 169
3 169 168 20
3 167 168 169
3 36 170 171
3 36 172 173
3 37 174 176
3 176 175 36
3 174 175 176
3 37 177 179
3 177 0 178
3 177 178 179
3 31 21 1
3 38 21 31
3 38 9 21
3 23 38 5
3 39 38 23
3 39 9 38
3 39 37 9
3 40 37 39
3 40 0 37
3 40 26 0
3 41 26 40
3 41 2 26
3 25 41 10
3 42 41 25
3 42 2 41
3 42 11 2
3 180 11 181
3 182 181 42
3 180 181 182
3 184 183 11
