ply
format ascii 1.0
element vertex 218
property float x
property float y
property float z
element face 172
property list uchar int vertex_index
end_header
32.941936 72.365532 10.272032
34.975819 70.017479 0.173495
31.322397 72.039345 21.430927
32.336483 68.95459 17.239071
33.6036 64.767365 13.428356
30.952482 67.331841 28.164421
30.293638 55.967052 40.258217
33.461067 75.197563 3.536027
34.353146 67.700417 6.714783
31.6078 68.452057 22.537807
31.786015 70.769287 19.314226
32.093548 66.768097 20.578653
30.649975 71.162643 26.925875
30.779179 64.676605 31.378698
30.181055 52.830696 42.835403
33.906593 71.448586 5.263692
33.601963 70.149796 8.529138
35.494114 65.947479 2.056111
31.518454 74.304588 17.861752
32.052788 72.600029 15.810389
32.632568 70.848091 13.696326
33.242649 68.567703 12.145799
32.957657 66.808472 15.299694
30.836662 73.514023 23.468794
31.135826 69.808472 24.772621
31.408892 66.19046 25.782341
31.632082 62.177799 27.046124
31.215698 63.800949 28.945726
30.862011 58.045933 35.092854
30.459419 58.946365 37.316589
34.171696 72.804245 1.848241
34.645592 69.061966 3.506626
35.079632 65.143478 5.31889
33.960979 66.508125 10.029053
31.971312 65.670761 22.226911
31.850674 67.610077 21.55823
31.728439 66.512741 23.206488
32.223301 64.81584 21.191434
31.971312 65.670761 22.226911
32.742987 74.219475 9.52503
32.601123 73.49915 11.313332
33.072783 73.177903 8.529885
32.742987 74.219475 9.52503
33.271949 71.257664 9.400585
33.402796 72.070034 7.658438
33.072783 73.177903 8.529885
35.387595 68.489952 -0.521337
35.152153 70.28194 -1.499282
35.234966 67.982479 1.114803
35.646742 66.454952 0.419971
35.387595 68.489952 -0.521337
31.420426 73.171966 19.646339
31.261905 75.10429 18.865477
31.163877 73.971668 20.650064
30.555385 74.229202 24.569696
30.66066 75.274319 22.836736
30.906559 62.849754 31.725768
30.69281 63.333912 32.878598
30.734226 60.018576 34.735676
30.947975 59.534418 33.582846
30.376528 57.456709 38.787403
30.233109 59.410212 38.33857
30.150218 57.920555 39.809384
30.481638 55.654404 39.162884
30.564529 57.14406 37.69207
30.376528 57.456709 38.787403
30.420583 54.138107 40.458845
30.481638 55.654404 39.162884
30.303878 50.960833 43.015941
30.111961 51.290363 44.093036
33.229056 77.030853 2.640786
33.096962 76.51213 4.366362
33.591135 75.82156 1.711247
33.229056 77.030853 2.640786
33.816381 74.000904 2.692134
33.946449 74.624901 0.867354
33.591135 75.82156 1.711247
31.726635 60.286661 27.505516
31.53228 60.897419 28.533718
34.739262 71.860435 -0.825482
35.152153 70.28194 -1.499282
32.36869 65.990009 19.472707
32.490158 67.083256 17.802915
32.215015 67.861344 18.908862
32.36869 65.990009 19.472707
32.223301 64.81584 21.191434
30.389507 71.6768 28.03178
30.462042 73.053513 26.298237
30.569337 69.839466 28.587201
30.389507 71.6768 28.03178
30.720591 67.924065 29.206474
30.801229 69.247242 27.545148
30.569337 69.839466 28.587201
30.633939 66.596447 30.813613
30.865831 66.004223 29.77156
30.720591 67.924065 29.206474
30.54526 65.162849 32.484725
30.633939 66.596447 30.813613
30.69281 63.333912 32.878598
30.54526 65.162849 32.484725
30.069194 56.317335 41.285235
30.150218 57.920555 39.809384
30.012902 54.749157 42.573828
30.237347 54.398874 41.54681
30.069194 56.317335 41.285235
29.940542 53.030707 43.980131
30.012902 54.749157 42.573828
30.111961 51.290363 44.093036
29.940542 53.030707 43.980131
33.332348 74.593918 5.161883
33.096962 76.51213 4.366362
33.555111 72.71943 6.025716
33.68383 73.323075 4.399859
33.332348 74.593918 5.161883
33.754278 70.799191 6.896415
33.555111 72.71943 6.025716
33.402796 72.070034 7.658438
33.958935 63.643789 12.541396
33.760292 62.8445 14.119178
35.900944 64.506502 1.316741
35.646742 66.454952 0.419971
35.706795 64.090647 2.920702
35.900944 64.506502 1.316741
31.33041 76.139778 17.23115
31.261905 75.10429 18.865477
31.596184 75.45372 16.087344
31.33041 76.139778 17.23115
31.863351 74.60144 15.061663
31.596184 75.45372 16.087344
31.785621 73.452309 16.83607
32.156549 73.616398 14.082511
31.863351 74.60144 15.061663
32.446439 72.740429 13.025479
32.156549 73.616398 14.082511
32.342678 71.72406 14.753357
32.787252 71.606811 11.984179
32.601123 73.49915 11.313332
32.446439 72.740429 13.025479
32.800745 66.010197 16.833227
32.64707 67.881531 16.269382
32.490158 67.083256 17.802915
33.099632 64.876814 16.020338
32.800745 66.010197 16.833227
33.422604 63.85626 15.084669
33.280628 65.787918 14.364025
33.099632 64.876814 16.020338
33.760292 62.8445 14.119178
33.422604 63.85626 15.084669
30.921009 74.709007 21.668998
30.66066 75.274319 22.836736
31.079529 72.776684 22.44986
31.163877 73.971668 20.650064
30.921009 74.709007 21.668998
30.743319 72.338333 25.197335
30.555385 74.229202 24.569696
30.462042 73.053513 26.298237
31.628985 65.381943 24.828755
31.728439 66.512741 23.206488
31.508346 67.321258 24.160074
31.520487 64.184129 26.414232
31.74058 63.375612 25.460647
31.628985 65.381943 24.828755
31.324088 61.708994 29.483519
31.53228 60.897419 28.533718
31.42389 62.989374 27.995925
31.124818 62.411926 30.509282
30.997439 64.238777 30.162212
30.906559 62.849754 31.725768
31.324088 61.708994 29.483519
31.124818 62.411926 30.509282
31.051497 57.599486 33.938826
30.947975 59.534418 33.582846
30.956247 56.182579 35.405642
31.051497 57.599486 33.938826
30.321849 60.805934 36.896459
30.233109 59.410212 38.33857
30.53293 60.468792 35.847544
30.321849 60.805934 36.896459
30.660715 58.496149 36.204722
30.734226 60.018576 34.735676
30.53293 60.468792 35.847544
30.765825 56.693844 36.580202
30.660715 58.496149 36.204722
30.564529 57.14406 37.69207
30.956247 56.182579 35.405642
30.765825 56.693844 36.580202
30.364291 52.569929 41.747438
30.420583 54.138107 40.458845
30.237347 54.398874 41.54681
30.364291 52.569929 41.747438
30.303878 50.960833 43.015941
34.3372 73.253818 0.011891
33.946449 74.624901 0.867354
34.573757 71.410862 1.010868
34.739262 71.860435 -0.825482
34.3372 73.253818 0.011891
35.499554 63.688646 4.552092
35.706795 64.090647 2.920702
35.286873 65.545479 3.6875
34.137625 64.51417 10.841745
33.78229 65.637745 11.728704
33.958935 63.643789 12.541396
34.340055 65.167986 9.264274
34.137625 64.51417 10.841745
34.536138 65.764132 7.607139
34.157063 67.104271 8.371918
34.340055 65.167986 9.264274
34.899381 64.485663 6.909192
34.716389 66.421948 6.016837
34.536138 65.764132 7.607139
35.308115 63.187111 6.045572
34.899381 64.485663 6.909192
35.499554 63.688646 4.552092
35.308115 63.187111 6.045572
31.857515 61.359284 26.029074
31.74058 63.375612 25.460647
31.857515 61.359284 26.029074
31.726635 60.286661 27.505516
3 34 11 35
3 36 35 9
3 34 35 36
3 38 37 11
3 0 39 40
3 0 41 42
3 0 43 45
3 43 16 44
3 43 44 45
3 1 46 47
3 1 48 50
3 48 17 49
3 48 49 50
3 2 51 53
3 51 18 52
3 51 52 53
3 3 19 10
3 3 20 19
3 3 22 20
3 54 23 55
3 5 24 12
3 5 25 24
3 5 27 25
3 57 56 13
3 58 28 59
3 6 60 62
3 60 29 61
3 60 61 62
3 6 63 65
3 65 64 29
3 63 64 65
3 6 66 67
3 69 68 14
3 7 70 71
3 7 72 73
3 7 74 76
3 74 30 75
3 74 75 76
3 8 31 15
3 8 32 31
3 4 33 21
3 78 77 26
3 79 1 80
3 9 10 2
3 11 10 9
3 11 3 10
3 11 81 83
3 83 82 3
3 81 82 83
3 85 84 11
3 86 12 87
3 88 12 89
3 90 5 91
3 92 91 12
3 90 91 92
3 93 13 94
3 95 94 5
3 93 94 95
3 96 13 97
3 99 98 13
3 100 6 101
3 102 14 103
3 104 103 6
3 102 103 104
3 105 14 106
3 108 107 14
3 109 7 110
3 111 15 112
3 113 112 7
3 111 112 113
3 16 114 116
3 114 15 115
3 114 115 116
3 16 8 15
3 118 117 4
3 17 119 120
3 17 121 122
3 18 123 124
3 18 125 126
3 10 18 2
3 19 18 10
3 19 127 129
3 129 128 18
3 127 128 129
3 19 130 131
3 20 132 134
3 134 133 19
3 132 133 134
3 20 135 137
3 135 0 136
3 135 136 137
3 20 21 0
3 22 21 20
3 22 4 21
3 138 22 139
3 140 139 3
3 138 139 140
3 141 22 142
3 143 4 144
3 145 144 22
3 143 144 145
3 147 146 4
3 23 148 149
3 23 150 152
3 150 2 151
3 150 151 152
3 12 153 155
3 153 23 154
3 153 154 155
3 24 23 12
3 24 2 23
3 24 9 2
3 25 9 24
3 25 156 158
3 158 157 9
3 156 157 158
3 25 159 161
3 159 26 160
3 159 160 161
3 27 26 25
3 27 162 164
3 164 163 26
3 162 163 164
3 13 27 5
3 165 27 166
3 167 166 13
3 165 166 167
3 169 168 27
3 28 170 171
3 28 172 173
3 29 174 175
3 29 176 177
3 29 178 180
3 178 28 179
3 178 179 180
3 181 28 182
3 183 182 29
3 181 182 183
3 185 184 28
3 14 186 188
3 188 187 6
3 186 187 188
3 190 189 14
3 30 191 192
3 30 193 195
3 193 1 194
3 193 194 195
3 15 30 7
3 31 30 15
3 31 1 30
3 31 17 1
3 32 17 31
3 32 196 198
3 198 197 17
3 196 197 198
3 21 16 0
3 33 16 21
3 33 8 16
3 199 33 200
3 201 200 4
3 199 200 201
3 202 33 203
3 204 8 205
3 206 205 33
3 204 205 206
3 207 32 208
3 209 208 8
3 207 208 209
3 210 32 211
3 213 212 32
3 26 214 215
3 217 216 26
