ply
format ascii 1.0
element vertex 80
property float x
property float y
property float z
element face 63
property list uchar int vertex_index
end_header
-20.310457 8.561144 -18.545399
-20.656376 12.235103 -22.515949
-22.910341 6.16532 -20.132353
-19.099089 11.037191 -18.608725
-20.484564 10.297009 -20.415476
-19.350479 12.591399 -20.554586
-23.597393 9.863098 -24.371521
-21.409838 6.408063 -18.332033
-21.724512 8.138635 -20.33255
-21.968918 9.994904 -22.378906
-22.253681 11.829319 -24.514851
-19.4585 14.378564 -22.489334
-20.883347 13.899217 -24.494442
-22.805083 5.269673 -19.210151
-23.617306 5.21415 -20.123197
-18.577644 12.419894 -18.785972
-18.560324 11.547111 -17.899974
-18.703339 13.196998 -19.758902
-19.224784 11.814295 -19.581656
-18.577644 12.419894 -18.785972
-23.465469 8.928933 -23.339981
-24.312383 8.95248 -24.335071
-20.176592 7.838301 -17.668947
-19.651449 8.977818 -17.711428
-20.860148 7.484604 -18.438716
-20.726282 6.76176 -17.562264
-20.176592 7.838301 -17.668947
-18.899123 15.654223 -22.613617
-18.850901 14.814186 -21.656251
-20.990386 14.801438 -25.590721
-20.290174 14.994442 -24.573165
-21.695493 13.76686 -25.578886
-20.990386 14.801438 -25.590721
-23.716452 6.171876 -21.083565
-23.617306 5.21415 -20.123197
-23.121944 7.080044 -21.220397
-23.716452 6.171876 -21.083565
-19.045765 10.215841 -17.743091
-18.560324 11.547111 -17.899974
-19.704773 9.799167 -18.577062
-19.651449 8.977818 -17.711428
-19.045765 10.215841 -17.743091
-24.477865 9.923375 -25.45088
-24.312383 8.95248 -24.335071
-23.767899 10.754548 -25.451783
-24.477865 9.923375 -25.45088
-21.311908 5.560072 -17.438862
-20.726282 6.76176 -17.562264
-22.054831 5.391044 -18.309991
-21.311908 5.560072 -17.438862
-22.160089 6.286691 -19.232193
-22.805083 5.269673 -19.210151
-22.054831 5.391044 -18.309991
-22.529029 8.066701 -21.320495
-23.121944 7.080044 -21.220397
-22.317426 7.151978 -20.232451
-22.651232 8.994836 -22.343674
-22.529029 8.066701 -21.320495
-21.846715 9.066769 -21.355728
-22.783155 9.929001 -23.375214
-23.465469 8.928933 -23.339981
-22.651232 8.994836 -22.343674
-23.096042 11.737659 -25.523448
-23.767899 10.754548 -25.451783
-22.925537 10.846208 -24.443186
-18.796891 13.920603 -20.688877
-18.703339 13.196998 -19.758902
-19.40449 13.484981 -21.52196
-18.796891 13.920603 -20.688877
-18.850901 14.814186 -21.656251
-19.577751 15.234115 -23.570611
-18.899123 15.654223 -22.613617
-20.170924 14.138891 -23.491888
-19.577751 15.234115 -23.570611
-20.290174 14.994442 -24.573165
-22.38066 12.731911 -25.58909
-21.568514 12.864268 -24.504646
-21.695493 13.76686 -25.578886
-23.096042 11.737659 -25.523448
-22.38066 12.731911 -25.58909
3 13 2 14
3 15 3 16
3 17 5 18
3 19 18 3
3 17 18 19
3 20 6 21
3 0 22 23
3 0 24 26
3 24 7 25
3 24 25 26
3 0 8 7
3 1 9 4
3 1 10 9
3 27 11 28
3 29 12 30
3 32 31 12
3 2 33 34
3 2 35 36
3 3 37 38
3 3 39 41
3 39 0 40
3 39 40 41
3 3 4 0
3 5 4 3
3 5 1 4
3 6 42 43
3 6 44 45
3 7 46 47
3 7 48 49
3 7 50 52
3 50 2 51
3 50 51 52
3 8 2 7
3 8 53 55
3 55 54 2
3 53 54 55
3 4 8 0
3 9 8 4
3 9 56 58
3 58 57 8
3 56 57 58
3 9 59 61
3 59 6 60
3 59 60 61
3 10 6 9
3 10 62 64
3 64 63 6
3 62 63 64
3 65 5 66
3 11 67 69
3 67 5 68
3 67 68 69
3 11 1 5
3 70 11 71
3 12 72 74
3 72 11 73
3 72 73 74
3 12 1 11
3 12 10 1
3 75 10 76
3 77 76 12
3 75 76 77
3 79 78 10
