ply
format ascii 1.0
element vertex 97
property float x
property float y
property float z
element face 75
property list uchar int vertex_index
end_header
35.085522 22.957891 24.228546
35.155422 31.607134 22.757944
36.26889 43.148281 15.66022
36.628368 34.670036 17.694038
36.639591 25.99419 19.743813
35.685932 41.517422 18.245043
36.504539 38.990982 16.592344
35.843369 37.308414 19.240726
35.11837 27.411501 23.611044
35.860329 29.046059 21.317299
35.843483 24.493118 22.105255
36.587288 21.537012 20.524124
35.169037 35.891838 21.695677
35.905819 33.238556 20.237305
35.443076 38.820966 19.993024
35.764651 39.412918 18.742884
35.364357 40.925471 19.495183
35.418732 21.501107 23.515014
35.797713 22.268721 22.453369
35.464502 23.725504 23.166901
36.697916 41.589207 14.899138
36.597805 43.679564 14.278773
36.953524 35.182299 16.510849
36.891609 37.342771 15.960002
36.566454 36.830509 17.143191
36.998075 33.077158 17.040739
36.953524 35.182299 16.510849
36.641852 28.176844 19.286164
36.25222 29.702778 20.072907
36.24996 27.520125 20.530556
37.02753 26.494277 18.544374
36.641852 28.176844 19.286164
37.007351 24.285987 18.99595
37.02753 26.494277 18.544374
36.915239 19.994109 19.804907
36.497481 19.444844 20.93422
36.169615 20.790667 21.662804
36.215385 23.015065 21.31469
35.797713 22.268721 22.453369
36.497481 19.444844 20.93422
36.169615 20.790667 21.662804
34.803114 37.069775 22.50936
35.10591 38.112679 21.2205
34.831511 35.022957 22.915912
34.803114 37.069775 22.50936
34.824703 32.880605 23.447046
35.16223 33.749486 22.22681
34.831511 35.022957 22.915912
34.805819 30.780361 23.892711
34.824703 32.880605 23.447046
34.787292 28.682544 24.319261
35.136896 29.509318 23.184494
34.805819 30.780361 23.892711
34.772222 26.461413 24.648845
34.787292 28.682544 24.319261
34.755798 24.234609 24.957596
35.101946 25.184696 23.919795
34.772222 26.461413 24.648845
36.815741 39.510557 15.3652
36.697916 41.589207 14.899138
36.386714 41.069631 16.126282
36.815741 39.510557 15.3652
36.891609 37.342771 15.960002
35.506203 36.600126 20.468201
35.443076 38.820966 19.993024
35.10591 38.112679 21.2205
36.274966 31.799027 19.53291
35.883074 31.142308 20.777302
36.25222 29.702778 20.072907
36.63624 32.514767 18.261277
36.267094 33.954296 18.965671
36.274966 31.799027 19.53291
36.998075 33.077158 17.040739
36.63624 32.514767 18.261277
36.9812 22.057398 19.386105
37.007351 24.285987 18.99595
36.613439 23.765601 20.133969
36.9812 22.057398 19.386105
36.915239 19.994109 19.804907
34.689325 22.163491 25.28707
34.755798 24.234609 24.957596
35.026804 20.833167 24.518212
34.689325 22.163491 25.28707
34.630607 20.038767 25.576736
35.418732 21.501107 23.515014
35.026804 20.833167 24.518212
36.186503 45.173212 14.980526
36.597805 43.679564 14.278773
35.870824 44.562721 16.378875
36.186503 45.173212 14.980526
35.579346 43.747292 17.671287
35.977411 42.332852 16.952631
35.870824 44.562721 16.378875
35.306807 42.92899 18.954547
35.579346 43.747292 17.671287
35.364357 40.925471 19.495183
35.306807 42.92899 18.954547
3 14 7 15
3 16 15 5
3 14 15 16
3 0 10 8
3 0 17 19
3 19 18 10
3 17 18 19
3 2 20 21
3 3 22 24
3 24 23 6
3 22 23 24
3 3 25 26
3 1 13 12
3 4 27 29
3 29 28 9
3 27 28 29
3 4 30 31
3 4 32 33
3 35 34 11
3 5 6 2
3 7 6 5
3 7 3 6
3 8 9 1
3 10 9 8
3 10 4 9
3 10 11 4
3 36 11 37
3 38 37 10
3 36 37 38
3 40 39 11
3 41 12 42
3 43 12 44
3 45 1 46
3 47 46 12
3 45 46 47
3 48 1 49
3 50 8 51
3 52 51 1
3 50 51 52
3 53 8 54
3 55 0 56
3 57 56 8
3 55 56 57
3 6 58 60
3 60 59 2
3 58 59 60
3 62 61 6
3 12 63 65
3 63 7 64
3 63 64 65
3 13 7 12
3 13 3 7
3 9 13 1
3 66 13 67
3 68 67 9
3 66 67 68
3 69 3 70
3 71 70 13
3 69 70 71
3 73 72 3
3 11 74 76
3 76 75 4
3 74 75 76
3 78 77 11
3 79 0 80
3 81 0 82
3 81 82 83
3 85 84 0
3 86 2 87
3 88 2 89
3 90 5 91
3 92 91 2
3 90 91 92
3 93 5 94
3 96 95 5
