ply
format ascii 1.0
element vertex 160
property float x
property float y
property float z
element face 143
property list uchar int vertex_index
end_header
-16.513491 31.919823 40.171638
-22.285784 25.38735 35.231663
-11.159225 26.421392 47.196793
-19.45927 28.735476 37.837536
-19.991554 23.261507 39.244797
-17.13463 26.161623 41.68644
-13.851847 29.29833 43.920803
-10.45032 32.454414 45.575375
-18.057674 30.167896 39.05999
-19.084162 31.636562 37.031822
-17.599657 33.046658 38.353344
-18.638159 24.645802 40.454201
-17.290615 23.422943 42.417408
-14.138806 26.40336 44.662701
-12.436603 27.995838 45.627068
-12.175183 30.876917 44.806248
-10.705033 29.38188 46.531406
-9.266755 28.033768 48.076462
-20.898329 27.026131 36.552166
-21.844641 28.222618 34.565258
-20.487595 29.802042 35.876518
-14.917303 33.47612 41.239449
-16.031225 34.861897 39.404922
-22.364805 22.783754 36.208855
-21.255651 21.612379 38.165108
-21.124275 24.290159 37.359932
-19.786594 25.980738 38.516582
-18.320898 27.44956 39.825531
-16.754095 29.1273 41.033749
-15.735012 24.971273 43.577305
-15.613187 27.860338 42.726292
-15.165618 30.733646 42.110786
-13.523326 32.469231 43.009708
-11.754478 33.914539 43.958572
-10.01752 35.438282 44.686325
-17.37481 22.052236 42.737949
-18.025534 22.661963 41.813553
-11.965805 25.703442 46.767144
-11.206956 24.966282 47.623814
-11.797914 27.208615 46.41193
-12.604494 26.490665 45.982281
-11.965805 25.703442 46.767144
-22.745991 25.905333 34.270731
-23.389928 25.112656 33.653902
-22.929721 24.594674 34.614834
-19.612268 32.045848 36.038381
-18.863967 33.002983 36.652763
-14.685731 34.986243 40.797419
-14.07968 34.416016 41.645643
-22.45398 21.470892 36.570032
-23.048254 22.033212 35.521759
-20.623603 22.436943 38.704952
-20.665924 21.054203 39.107338
-20.033876 21.878767 39.647182
-15.073411 24.241236 44.451414
-15.844777 23.563917 43.898844
-9.135748 29.446085 47.660443
-8.33729 28.625291 48.509138
-22.321182 28.668808 33.543201
-21.67912 29.508524 34.151446
-16.595772 35.458225 38.41925
-15.835614 36.315159 38.91485
-18.121714 33.708031 37.313524
-18.863967 33.002983 36.652763
-18.341909 32.34161 37.692583
-19.376004 22.581246 40.227248
-20.033876 21.878767 39.647182
-18.699306 23.273393 40.83195
-19.314857 23.953654 39.849499
-19.376004 22.581246 40.227248
-17.964387 24.034372 41.435805
-18.699306 23.273393 40.83195
-18.025534 22.661963 41.813553
-13.455596 25.694426 45.500097
-14.275309 24.957279 44.994112
-13.287705 27.199599 45.144885
-13.455596 25.694426 45.500097
-12.604494 26.490665 45.982281
-10.378294 25.751454 48.010763
-11.206956 24.966282 47.623814
-9.432059 26.557642 48.450598
-10.21299 27.22758 47.636628
-10.378294 25.751454 48.010763
-8.517873 27.179586 48.895347
-9.432059 26.557642 48.450598
-8.683177 25.70346 49.269483
-8.33729 28.625291 48.509138
-8.517873 27.179586 48.895347
-21.000597 30.298236 34.807075
-21.67912 29.508524 34.151446
-21.166118 29.01233 35.220888
-20.313985 31.128588 35.460729
-19.785878 30.719302 36.45417
-19.612268 32.045848 36.038381
-21.000597 30.298236 34.807075
-20.313985 31.128588 35.460729
-15.242691 35.679131 39.880156
-15.474264 34.169009 40.322186
-14.685731 34.986243 40.797419
-15.835614 36.315159 38.91485
-15.242691 35.679131 39.880156
-22.969231 23.292876 35.10343
-23.048254 22.033212 35.521759
-22.325294 24.085552 35.720259
-22.929721 24.594674 34.614834
-22.969231 23.292876 35.10343
-21.296908 20.326614 38.53347
-20.707181 19.768438 39.475701
-20.665924 21.054203 39.107338
-21.899403 20.885205 37.548159
-21.296908 20.326614 38.53347
-21.810228 22.198066 37.186982
-22.45398 21.470892 36.570032
-21.899403 20.885205 37.548159
-16.622578 22.789752 43.318895
-17.37481 22.052236 42.737949
-16.512814 24.197108 42.997357
-16.622578 22.789752 43.318895
-15.844777 23.563917 43.898844
-14.936909 25.687317 44.120003
-15.073411 24.241236 44.451414
-14.275309 24.957279 44.994112
-13.382691 33.912571 42.530773
-14.07968 34.416016 41.645643
-14.220315 32.972676 42.124578
-12.498268 34.635225 43.005205
-13.382691 33.912571 42.530773
-12.638902 33.191885 43.48414
-11.627037 35.402549 43.424381
-12.498268 34.635225 43.005205
-10.758558 36.164421 43.788258
-11.627037 35.402549 43.424381
-10.885999 34.676411 44.322448
-9.828819 36.997535 44.140232
-10.758558 36.164421 43.788258
-9.854886 30.120141 46.887914
-9.985894 28.707824 47.303934
-9.135748 29.446085 47.660443
-9.72753 31.656408 46.409899
-10.577676 30.918147 46.05339
-9.854886 30.120141 46.887914
-9.524831 33.097412 45.99125
-9.72753 31.656408 46.409899
-9.308431 34.589346 45.546724
-10.23392 33.946348 45.13085
-9.524831 33.097412 45.99125
-9.143811 36.224995 44.972504
-9.308431 34.589346 45.546724
-9.828819 36.997535 44.140232
-9.143811 36.224995 44.972504
-22.525419 27.322966 33.937528
-22.745991 25.905333 34.270731
-22.065213 26.804984 34.89846
-22.525419 27.322966 33.937528
-22.321182 28.668808 33.543201
-17.379988 34.550606 37.893461
-16.815441 33.954278 38.879133
-16.595772 35.458225 38.41925
-18.121714 33.708031 37.313524
-17.379988 34.550606 37.893461
3 0 10 8
3 35 12 36
3 2 37 38
3 2 39 41
3 39 14 40
3 39 40 41
3 2 16 14
3 1 42 44
3 42 43 44
3 3 20 18
3 46 45 9
3 48 47 21
3 49 23 50
3 4 51 53
3 51 24 52
3 51 52 53
3 4 25 24
3 4 26 25
3 5 27 11
3 5 28 27
3 54 29 55
3 6 30 13
3 6 31 30
3 6 32 31
3 7 33 15
3 7 34 33
3 57 56 17
3 59 58 19
3 61 60 22
3 8 9 3
3 10 9 8
3 10 62 64
3 64 63 9
3 62 63 64
3 65 4 66
3 67 11 68
3 69 68 4
3 67 68 69
3 12 70 72
3 70 11 71
3 70 71 72
3 12 5 11
3 73 13 74
3 14 75 77
3 75 13 76
3 75 76 77
3 14 6 13
3 14 15 6
3 16 15 14
3 16 7 15
3 78 2 79
3 80 17 81
3 82 81 2
3 80 81 82
3 83 17 84
3 83 84 85
3 87 86 17
3 18 19 1
3 20 19 18
3 20 88 90
3 90 89 19
3 88 89 90
3 9 20 3
3 91 20 92
3 93 92 9
3 91 92 93
3 95 94 20
3 21 22 0
3 96 22 97
3 98 97 21
3 96 97 98
3 100 99 22
3 23 101 102
3 23 103 105
3 103 1 104
3 103 104 105
3 24 106 108
3 106 107 108
3 24 109 110
3 24 111 113
3 111 23 112
3 111 112 113
3 25 23 24
3 25 1 23
3 25 18 1
3 26 18 25
3 26 3 18
3 11 26 4
3 27 26 11
3 27 3 26
3 27 8 3
3 28 8 27
3 28 0 8
3 114 12 115
3 29 116 118
3 116 12 117
3 116 117 118
3 29 5 12
3 13 119 121
3 119 29 120
3 119 120 121
3 30 29 13
3 30 5 29
3 30 28 5
3 31 28 30
3 31 0 28
3 31 21 0
3 32 21 31
3 32 122 124
3 124 123 21
3 122 123 124
3 15 32 6
3 33 32 15
3 33 125 127
3 127 126 32
3 125 126 127
3 33 128 129
3 34 130 132
3 132 131 33
3 130 131 132
3 34 133 134
3 17 16 2
3 135 16 136
3 137 136 17
3 135 136 137
3 138 7 139
3 140 139 16
3 138 139 140
3 141 7 142
3 143 34 144
3 145 144 7
3 143 144 145
3 146 34 147
3 149 148 34
3 19 150 152
3 152 151 1
3 150 151 152
3 154 153 19
3 22 10 0
3 155 10 156
3 157 156 22
3 155 156 157
3 159 158 10
