ply
format ascii 1.0
element vertex 156
property float x
property float y
property float z
element face 124
property list uchar int vertex_index
end_header
-15.656381 44.229809 -52.352444
-19.109072 44.969933 -51.817654
-12.44435 37.510582 -52.59116
-12.358906 44.517128 -52.71669
-9.409166 38.334316 -53.26984
-5.509336 45.429459 -52.966743
-6.248806 39.298683 -53.893345
-17.329863 44.579933 -52.124805
-17.542717 41.377914 -51.783585
-15.798517 40.951012 -52.109165
-14.018003 40.713737 -52.422291
-10.856547 41.36956 -52.930569
-9.254285 41.639378 -53.140289
-4.623341 39.668438 -54.199081
-20.702631 45.310886 -51.448853
-17.155005 47.761784 -52.373627
-19.205109 41.638191 -51.397293
-15.586492 47.777466 -52.5168
-14.069263 44.323055 -52.549976
-12.453017 41.038631 -52.69096
-4.205596 42.682953 -53.6012
-5.823723 42.262897 -53.506073
-7.542405 41.825809 -53.350666
-7.791706 38.78508 -53.603386
-9.090191 43.193602 -53.043295
-9.958835 43.174145 -52.991264
-17.886497 49.347323 -52.393198
-18.004822 47.903447 -52.269596
-17.537843 39.654485 -51.586058
-16.710021 39.565259 -51.794052
-12.482421 35.948995 -52.495128
-13.319088 37.502915 -52.389721
-11.616174 35.905758 -52.746075
-12.482421 35.948995 -52.495128
-15.444641 49.440195 -52.560477
-16.311238 49.428789 -52.530701
-13.119105 46.106786 -52.666207
-12.219311 46.217121 -52.693197
-13.214084 44.420091 -52.633333
-13.974283 46.00975 -52.58285
-13.119105 46.106786 -52.666207
-10.195422 38.14996 -53.098162
-10.919113 39.667581 -52.928526
-10.132857 39.851938 -53.100205
-9.358493 36.680965 -53.316752
-10.195422 38.14996 -53.098162
-6.141615 46.881096 -52.748533
-5.264883 47.065064 -52.645254
-6.390524 45.23258 -52.978809
-6.141615 46.881096 -52.748533
-3.620359 41.462807 -54.006918
-3.436463 42.916176 -53.604669
-15.837921 39.351809 -51.956842
-16.710021 39.565259 -51.794052
-16.670617 41.164463 -51.946375
-14.996171 39.223129 -52.148724
-15.837921 39.351809 -51.956842
-14.105915 39.104492 -52.305287
-14.996171 39.223129 -52.148724
-14.90826 40.832375 -52.265728
-13.231177 39.11216 -52.506726
-13.319088 37.502915 -52.389721
-14.105915 39.104492 -52.305287
-11.511145 44.61302 -52.779465
-12.219311 46.217121 -52.693197
-10.759965 43.039236 -52.886404
-11.607727 42.943344 -52.823629
-11.511145 44.61302 -52.779465
-10.055416 41.504469 -53.035429
-10.759965 43.039236 -52.886404
-9.958835 43.174145 -52.991264
-4.678711 45.610426 -52.920047
-5.264883 47.065064 -52.645254
-4.043505 38.532388 -54.626071
-3.829231 39.95555 -54.305858
-4.791605 38.278778 -54.414867
-4.043505 38.532388 -54.626071
-5.604338 38.093901 -54.261999
-5.436074 39.48356 -54.046213
-4.791605 38.278778 -54.414867
-6.29302 37.729526 -54.077223
-5.604338 38.093901 -54.261999
-21.369627 47.376154 -51.5045
-21.520031 45.746185 -51.237141
-20.55852 46.984673 -51.683321
-21.369627 47.376154 -51.5045
-19.76174 46.814196 -51.867722
-19.905852 45.14041 -51.633253
-20.55852 46.984673 -51.683321
-18.981856 46.507521 -51.991609
-19.76174 46.814196 -51.867722
-18.092251 46.312521 -52.145185
-18.219468 44.774933 -51.971229
-18.981856 46.507521 -51.991609
-17.242434 46.170858 -52.249216
-18.092251 46.312521 -52.145185
-18.004822 47.903447 -52.269596
-20.802093 43.591374 -51.176445
-21.520031 45.746185 -51.237141
-20.053332 41.755026 -51.150665
-20.802093 43.591374 -51.176445
-19.95387 43.474539 -51.423073
-19.245706 39.922506 -51.146918
-20.053332 41.755026 -51.150665
-18.369039 39.784624 -51.392912
-18.373913 41.508052 -51.590439
-17.537843 39.654485 -51.586058
-19.245706 39.922506 -51.146918
-18.369039 39.784624 -51.392912
-17.095495 49.420948 -52.459114
-17.886497 49.347323 -52.393198
-16.370748 47.769625 -52.445214
-17.095495 49.420948 -52.459114
-16.311238 49.428789 -52.530701
-14.732898 47.736955 -52.566262
-15.444641 49.440195 -52.560477
-14.827877 46.05026 -52.533388
-14.732898 47.736955 -52.566262
-13.974283 46.00975 -52.58285
-11.717347 39.502117 -52.808721
-11.654782 41.204096 -52.810764
-10.919113 39.667581 -52.928526
-11.713014 37.738093 -52.758821
-12.448683 39.274607 -52.64106
-11.717347 39.502117 -52.808721
-11.616174 35.905758 -52.746075
-11.713014 37.738093 -52.758821
-4.026841 44.237173 -53.237276
-3.436463 42.916176 -53.604669
-4.857466 44.056206 -53.283971
-4.678711 45.610426 -52.920047
-4.026841 44.237173 -53.237276
-4.414468 41.175696 -53.90014
-3.620359 41.462807 -54.006918
-3.829231 39.95555 -54.305858
-6.547717 43.649299 -53.248474
-6.390524 45.23258 -52.978809
-5.66653 43.846178 -53.236408
-7.407058 43.430756 -53.170771
-6.547717 43.649299 -53.248474
-6.683064 42.044353 -53.42837
-8.234251 43.286817 -53.148483
-7.407058 43.430756 -53.170771
-8.398345 41.732594 -53.245477
-9.090191 43.193602 -53.043295
-8.234251 43.286817 -53.148483
-7.06447 37.472725 -53.932243
-7.020256 39.041882 -53.748365
-6.29302 37.729526 -54.077223
-7.821702 37.160475 -53.704775
-7.06447 37.472725 -53.932243
-8.630433 36.935093 -53.538002
-8.600436 38.559698 -53.436613
-7.821702 37.160475 -53.704775
-9.358493 36.680965 -53.316752
-8.630433 36.935093 -53.538002
3 0 9 7
3 0 10 9
3 24 12 25
3 26 15 27
3 1 16 14
3 29 28 8
3 2 30 31
3 2 32 33
3 34 17 35
3 3 36 37
3 3 38 40
3 38 18 39
3 38 39 40
3 3 19 18
3 4 41 43
3 43 42 11
3 41 42 43
3 4 44 45
3 5 46 47
3 5 48 49
3 50 20 51
3 6 21 13
3 6 22 21
3 6 23 22
3 7 8 1
3 9 8 7
3 9 52 54
3 54 53 8
3 52 53 54
3 9 55 56
3 10 57 59
3 59 58 9
3 57 58 59
3 10 60 62
3 60 2 61
3 60 61 62
3 63 3 64
3 65 11 66
3 67 66 3
3 65 66 67
3 12 68 70
3 68 11 69
3 68 69 70
3 12 4 11
3 71 5 72
3 73 13 74
3 75 13 76
3 77 6 78
3 79 78 13
3 77 78 79
3 81 80 6
3 82 14 83
3 84 14 85
3 86 1 87
3 88 87 14
3 86 87 88
3 89 1 90
3 91 7 92
3 93 92 1
3 91 92 93
3 15 94 96
3 94 7 95
3 94 95 96
3 15 0 7
3 14 97 98
3 16 99 101
3 101 100 14
3 99 100 101
3 16 102 103
3 8 16 1
3 104 16 105
3 106 105 8
3 104 105 106
3 108 107 16
3 109 15 110
3 17 111 113
3 111 15 112
3 111 112 113
3 17 0 15
3 114 17 115
3 18 116 118
3 116 17 117
3 116 117 118
3 18 0 17
3 18 10 0
3 19 10 18
3 19 2 10
3 11 19 3
3 119 19 120
3 121 120 11
3 119 120 121
3 122 2 123
3 124 123 19
3 122 123 124
3 126 125 2
3 20 127 128
3 20 129 131
3 129 5 130
3 129 130 131
3 13 132 134
3 132 20 133
3 132 133 134
3 21 20 13
3 21 5 20
3 21 135 137
3 137 136 5
3 135 136 137
3 22 138 140
3 140 139 21
3 138 139 140
3 22 141 142
3 22 143 145
3 143 12 144
3 143 144 145
3 23 12 22
3 23 4 12
3 146 23 147
3 148 147 6
3 146 147 148
3 149 23 150
3 151 4 152
3 153 152 23
3 151 152 153
3 155 154 4
