ply
format ascii 1.0
element vertex 86
property float x
property float y
property float z
element face 67
property list uchar int vertex_index
end_header
-35.57563 -47.552517 -20.673944
-35.681534 -45.983227 -17.415184
-35.463818 -49.272774 -24.088095
-37.349274 -43.529549 -25.258387
-34.502491 -50.423134 -20.022093
-34.444359 -51.336449 -21.720293
-35.460522 -48.580826 -22.295874
-36.429035 -46.440403 -24.646891
-36.447803 -45.722897 -22.897539
-35.584335 -46.84227 -19.007212
-36.543446 -44.836372 -21.408543
-37.415241 -42.688148 -23.517778
-38.158897 -40.657578 -25.682926
-35.03906 -48.987825 -20.348019
-34.528087 -49.980312 -19.188247
-35.064657 -48.545004 -19.514173
-35.148812 -47.323536 -17.035868
-35.21299 -46.862694 -16.201943
-35.632935 -46.412748 -18.211198
-35.100212 -47.753057 -17.831882
-35.148812 -47.323536 -17.035868
-36.133927 -45.032774 -18.57446
-36.085327 -45.462295 -19.370474
-35.632935 -46.412748 -18.211198
-34.926331 -50.757379 -23.831962
-34.416601 -51.789217 -22.648062
-34.954088 -50.304612 -22.904194
-35.395316 -49.772671 -24.971193
-34.926331 -50.757379 -23.831962
-35.90513 -48.293161 -25.300234
-35.395316 -49.772671 -24.971193
-37.320609 -43.903134 -26.126629
-36.860489 -45.358561 -25.820881
-36.889155 -44.984976 -24.952639
-37.759104 -42.367541 -26.42203
-37.320609 -43.903134 -26.126629
-37.414269 -42.407961 -22.724932
-36.979343 -43.76226 -22.463161
-36.978371 -43.482073 -21.670314
-38.547279 -39.144305 -26.03395
-38.193728 -40.265496 -24.906428
-38.528399 -39.469168 -26.820988
-38.547279 -39.144305 -26.03395
-35.70323 -45.655752 -16.500803
-35.21299 -46.862694 -16.201943
-36.124516 -44.773013 -17.654336
-35.70323 -45.655752 -16.500803
-33.972158 -51.338406 -18.794837
-33.997755 -50.895584 -17.960991
-34.528087 -49.980312 -19.188247
-33.940794 -51.838278 -19.672117
-33.972158 -51.338406 -18.794837
-34.473425 -50.879791 -20.871193
-33.911728 -52.294936 -20.521217
-33.940794 -51.838278 -19.672117
-35.069009 -48.189881 -18.680806
-35.100212 -47.753057 -17.831882
-35.579982 -47.197394 -19.840578
-35.064657 -48.545004 -19.514173
-35.069009 -48.189881 -18.680806
-36.564883 -44.459346 -20.57114
-36.06389 -45.839321 -20.207878
-36.085327 -45.462295 -19.370474
-36.978371 -43.482073 -21.670314
-36.564883 -44.459346 -20.57114
-36.133927 -45.032774 -18.57446
-36.124516 -44.773013 -17.654336
-33.908953 -52.715887 -21.436976
-33.911728 -52.294936 -20.521217
-33.908953 -52.715887 -21.436976
-34.416601 -51.789217 -22.648062
-36.387739 -46.876976 -25.579632
-35.90513 -48.293161 -25.300234
-35.946427 -47.856589 -24.367493
-36.387739 -46.876976 -25.579632
-36.860489 -45.358561 -25.820881
-37.8219 -41.28078 -23.823854
-37.414269 -42.407961 -22.724932
-37.787069 -41.672863 -24.600352
-37.8219 -41.28078 -23.823854
-38.193728 -40.265496 -24.906428
-38.163916 -40.931555 -26.6343
-37.759104 -42.367541 -26.42203
-37.754086 -42.093564 -25.470656
-38.163916 -40.931555 -26.6343
-38.528399 -39.469168 -26.820988
3 0 13 15
3 13 4 14
3 13 14 15
3 0 6 4
3 0 8 6
3 1 16 17
3 1 18 20
3 18 9 19
3 18 19 20
3 1 21 23
3 23 22 9
3 21 22 23
3 2 24 26
3 26 25 5
3 24 25 26
3 2 27 28
3 2 29 30
3 3 31 33
3 33 32 7
3 31 32 33
3 3 34 35
3 36 11 37
3 38 37 10
3 36 37 38
3 39 12 40
3 42 41 12
3 43 1 44
3 46 45 1
3 4 47 49
3 47 48 49
3 4 50 51
3 4 52 54
3 52 5 53
3 52 53 54
3 6 5 4
3 6 2 5
3 6 7 2
3 8 7 6
3 8 3 7
3 9 55 56
3 9 57 59
3 57 0 58
3 57 58 59
3 9 10 0
3 60 10 61
3 62 61 9
3 60 61 62
3 64 63 10
3 66 65 1
3 5 67 68
3 70 69 5
3 7 71 73
3 73 72 2
3 71 72 73
3 75 74 7
3 10 8 0
3 11 8 10
3 11 3 8
3 76 11 77
3 12 78 80
3 78 11 79
3 78 79 80
3 12 3 11
3 12 81 83
3 83 82 3
3 81 82 83
3 85 84 12
