ply
format ascii 1.0
element vertex 169
property float x
property float y
property float z
element face 133
property list uchar int vertex_index
end_header
-30.152206 71.033386 31.008354
-30.297991 64.307915 36.096447
-29.588106 62.100285 41.401508
-28.32865 60.008324 46.232841
-30.632446 71.626816 25.63863
-29.930105 77.430077 25.290958
-30.667253 57.640324 37.846004
-30.396362 60.428474 38.288837
-29.100101 57.237221 46.041328
-30.488886 68.100166 30.966827
-30.667578 68.76416 28.24222
-30.413706 71.331909 28.375963
-30.328094 74.503304 25.553288
-30.044832 74.349907 28.191622
-28.966743 64.852249 41.528049
-29.497246 66.017265 38.948128
-30.561512 64.629318 33.467709
-30.08436 59.353691 40.973858
-29.659992 58.415359 43.475319
-29.006102 60.957405 44.035786
-28.240124 63.607868 44.081821
-27.298424 65.800766 44.169151
-30.017426 63.077469 38.794369
-29.706722 73.688217 31.114573
-30.417978 58.600603 39.321898
-30.531807 59.034399 38.06742
-30.553424 57.206528 39.100481
-30.553424 57.206528 39.100481
-30.686709 55.87612 38.737775
-28.891215 66.820713 40.266954
-28.574109 66.021507 41.61148
-30.429752 64.468616 34.782078
-30.593856 62.925636 34.560753
-30.462096 62.764934 35.875122
-30.276719 65.994835 34.797022
-30.408479 66.155536 33.482653
-30.429752 64.468616 34.782078
-29.688563 56.51429 44.46162
-29.904806 56.997736 43.182747
-26.799307 65.025299 45.285963
-27.35049 63.948256 45.335157
-26.851374 63.172788 46.451969
-26.768143 66.903569 44.013607
-26.799307 65.025299 45.285963
-30.749544 70.138562 25.742396
-30.76711 68.707234 27.04419
-30.650012 70.195488 26.940425
-30.732515 71.616314 24.454839
-30.749544 70.138562 25.742396
-30.609941 73.071499 24.225251
-30.732515 71.616314 24.454839
-30.091817 77.377022 23.974829
-30.290812 75.913635 24.105993
-30.1291 75.96669 25.422123
-29.861375 78.840118 23.883112
-30.091817 77.377022 23.974829
-29.70663 66.461185 37.654901
-29.43732 67.859791 37.693926
-29.426654 75.010269 31.037619
-29.463497 73.398307 32.528644
-29.628624 75.432488 29.597501
-29.426654 75.010269 31.037619
-30.646726 59.431139 36.7499
-30.760326 57.986531 36.532114
-30.511281 60.825214 36.971317
-30.646726 59.431139 36.7499
-30.531807 59.034399 38.06742
-30.347176 62.368195 37.192642
-30.462096 62.764934 35.875122
-30.511281 60.825214 36.971317
-30.784419 56.232508 37.431746
-30.686709 55.87612 38.737775
-30.760326 57.986531 36.532114
-30.784419 56.232508 37.431746
-29.158511 55.292593 46.95631
-29.408617 55.92522 45.744625
-28.792499 56.574079 47.182417
-29.158511 55.292593 46.95631
-28.850908 54.629452 48.097398
-28.406773 57.959631 47.278173
-28.714375 58.622772 46.137085
-28.792499 56.574079 47.182417
-30.578232 68.432163 29.604523
-30.703034 67.106819 29.430754
-30.613688 66.774822 30.793057
-29.156467 67.403221 38.976993
-29.231994 65.434757 40.238089
-28.891215 66.820713 40.266954
-29.43732 67.859791 37.693926
-29.156467 67.403221 38.976993
-30.68106 63.305378 33.214621
-30.593856 62.925636 34.560753
-30.650001 65.039398 32.043498
-30.769548 63.715458 31.79041
-30.68106 63.305378 33.214621
-30.525199 66.364742 32.217268
-30.613688 66.774822 30.793057
-30.650001 65.039398 32.043498
-30.372166 67.890961 32.232212
-30.525199 66.364742 32.217268
-30.408479 66.155536 33.482653
-30.203826 69.35757 32.252975
-30.320546 69.566776 30.98759
-30.372166 67.890961 32.232212
-30.11699 57.466901 41.932017
-30.261977 58.063211 40.664408
-29.872176 58.884525 42.224588
-30.11699 57.466901 41.932017
-29.904806 56.997736 43.182747
-29.380046 57.82629 44.758324
-29.688563 56.51429 44.46162
-29.408617 55.92522 45.744625
-28.2108 65.399316 42.888367
-28.574109 66.021507 41.61148
-28.603434 64.230058 42.804935
-27.950879 59.280081 47.334917
-28.406773 57.959631 47.278173
-27.865603 61.052035 46.367002
-27.950879 59.280081 47.334917
-27.821341 62.851807 45.291492
-28.284387 61.808096 45.157331
-27.865603 61.052035 46.367002
-27.769274 64.704317 44.125486
-27.821341 62.851807 45.291492
-27.35049 63.948256 45.335157
-27.73995 66.495766 42.932032
-28.2108 65.399316 42.888367
-27.769274 64.704317 44.125486
-27.236853 67.718269 42.853969
-27.73995 66.495766 42.932032
-27.236853 67.718269 42.853969
-26.768143 66.903569 44.013607
-30.784421 67.233242 28.223584
-30.703034 67.106819 29.430754
-30.784421 67.233242 28.223584
-30.76711 68.707234 27.04419
-30.457764 74.509743 24.182579
-30.609941 73.071499 24.225251
-30.48027 73.06506 25.595959
-30.457764 74.509743 24.182579
-30.290812 75.913635 24.105993
-30.240361 59.891082 39.631348
-30.417978 58.600603 39.321898
-30.261977 58.063211 40.664408
-29.96672 64.991287 37.578022
-29.757336 64.547367 38.871249
-29.70663 66.461185 37.654901
-30.107003 65.60651 36.229061
-30.157708 63.692692 37.445408
-29.96672 64.991287 37.578022
-30.276719 65.994835 34.797022
-30.107003 65.60651 36.229061
-29.984438 70.665012 32.454462
-30.203826 69.35757 32.252975
-29.761696 71.992427 32.507571
-29.463497 73.398307 32.528644
-29.929464 72.360801 31.061464
-29.984438 70.665012 32.454462
-29.761696 71.992427 32.507571
-29.797679 75.763333 28.136025
-29.875777 74.019062 29.653098
-29.628624 75.432488 29.597501
-29.740316 77.303417 26.685693
-29.987468 75.889992 26.74129
-29.797679 75.763333 28.136025
-29.668816 78.7402 25.285305
-29.740316 77.303417 26.685693
-29.861375 78.840118 23.883112
-29.668816 78.7402 25.285305
3 24 7 25
3 26 25 6
3 24 25 26
3 27 6 28
3 0 11 9
3 0 13 11
3 30 29 14
3 1 31 33
3 31 16 32
3 31 32 33
3 1 34 36
3 36 35 16
3 34 35 36
3 37 18 38
3 3 19 8
3 3 20 19
3 39 21 40
3 39 40 41
3 43 42 21
3 4 44 46
3 46 45 10
3 44 45 46
3 4 47 48
3 4 49 50
3 5 51 53
3 53 52 12
3 51 52 53
3 5 54 55
3 2 22 17
3 57 56 15
3 58 23 59
3 61 60 23
3 6 62 63
3 7 64 66
3 66 65 6
3 64 65 66
3 7 67 69
3 67 1 68
3 67 68 69
3 6 70 71
3 6 72 73
3 74 8 75
3 76 8 77
3 76 77 78
3 79 3 80
3 81 80 8
3 79 80 81
3 9 82 84
3 82 10 83
3 82 83 84
3 11 10 9
3 11 4 10
3 11 12 4
3 13 12 11
3 13 5 12
3 14 15 2
3 85 15 86
3 87 86 14
3 85 86 87
3 89 88 15
3 16 90 91
3 16 92 94
3 92 93 94
3 16 95 97
3 95 9 96
3 95 96 97
3 98 9 99
3 100 99 16
3 98 99 100
3 101 0 102
3 103 102 9
3 101 102 103
3 104 17 105
3 18 106 108
3 106 17 107
3 106 107 108
3 18 2 17
3 8 109 111
3 109 18 110
3 109 110 111
3 19 18 8
3 19 2 18
3 19 14 2
3 20 14 19
3 20 112 114
3 114 113 14
3 112 113 114
3 115 3 116
3 117 3 118
3 119 20 120
3 121 120 3
3 119 120 121
3 21 122 124
3 122 20 123
3 122 123 124
3 21 125 127
3 127 126 20
3 125 126 127
3 21 128 129
3 131 130 21
3 10 132 133
3 135 134 10
3 12 136 138
3 138 137 4
3 136 137 138
3 140 139 12
3 17 141 143
3 141 7 142
3 141 142 143
3 22 7 17
3 22 1 7
3 15 22 2
3 144 22 145
3 146 145 15
3 144 145 146
3 147 1 148
3 149 148 22
3 147 148 149
3 151 150 1
3 152 0 153
3 23 154 155
3 23 156 158
3 156 0 157
3 156 157 158
3 23 13 0
3 159 13 160
3 161 160 23
3 159 160 161
3 162 5 163
3 164 163 13
3 162 163 164
3 165 5 166
3 168 167 5
