ply
format ascii 1.0
element vertex 668
property float x
property float y
property float z
element face 815
property list uchar int vertex_index
end_header
40.655075 8.710883 15.501492
19.849127 12.642424 41.263847
36.641014 8.518458 3.185251
32.180099 13.522241 26.477575
24.74509 29.723717 27.637377
35.715122 24.628529 10.689259
40.303638 8.885671 9.317939
40.348381 1.189379 15.894937
25.919222 13.59818 33.838985
28.135628 6.579226 34.027905
21.810205 5.548728 40.891373
22.996117 21.442839 34.727409
29.044535 21.139059 26.407442
37.620655 11.782402 20.172951
38.735832 3.83157 21.969328
34.050816 5.806372 27.990456
34.859829 19.846241 18.602417
39.374695 15.777584 12.507691
38.353561 17.856066 5.136202
40.869465 8.787722 12.716676
40.571171 4.811531 12.371601
40.733307 5.508382 15.518954
22.820293 13.175031 37.669136
23.96962 9.666069 37.376129
20.932266 9.068628 40.917347
20.002111 21.151148 38.775917
21.614717 16.977177 38.033085
24.589615 17.30575 34.169796
33.766495 8.313269 0.670713
35.011791 12.890176 23.267584
36.054867 8.890241 24.051184
33.132675 9.78984 27.240597
25.834152 2.76808 37.637169
28.808155 2.772061 34.730026
27.546375 29.142345 23.115299
30.736271 17.376837 26.219358
32.030979 20.748652 22.330256
33.593971 16.795958 22.775997
36.537464 15.778339 19.132441
37.525612 21.748247 7.494498
39.259712 16.97678 8.620244
37.83844 20.065977 11.325344
37.123421 0.806706 25.730013
38.888012 -0.616054 22.629601
38.94191 8.641575 6.243279
29.048443 13.749343 30.081121
30.243853 10.0481 30.374304
27.012207 10.042154 33.893505
24.86805 6.277596 37.486397
22.600655 2.188484 40.98761
21.120462 25.686068 35.611652
23.994514 25.705189 31.340246
27.007992 25.292892 26.887321
25.906731 21.295849 30.759251
27.566795 17.467093 30.265463
39.632809 10.24356 17.425463
39.974537 6.548774 18.375612
38.396996 7.827852 21.048834
36.718647 5.029549 24.866568
34.764698 1.760077 28.689371
31.198622 6.370347 30.93722
31.910122 2.526363 31.660109
18.686041 4.940249 44.289268
19.480726 1.623837 44.240585
33.194679 26.780291 14.496835
29.841433 24.90353 22.649263
32.844326 23.885817 18.435104
35.616108 22.363123 14.530934
37.478729 18.062624 15.281532
38.845718 14.024404 16.234385
40.319271 11.869226 14.004839
38.001537 13.48786 3.795793
39.574043 13.127286 6.955619
40.371372 12.674108 10.559235
40.017666 2.603572 18.952267
40.837219 8.653033 14.321334
40.881977 7.023566 13.986848
40.761684 7.359546 15.415837
21.300669 12.911549 39.53017
21.9606 11.132167 39.233715
20.43626 10.756422 41.056717
20.019526 16.836351 40.011192
20.804052 14.882208 39.598244
22.302345 15.044436 37.753933
35.205048 8.411438 1.816845
35.76506 5.882321 3.172767
33.646076 13.254998 24.818609
34.211685 11.236676 25.21018
32.722202 11.706654 26.767351
24.602613 0.885098 39.363281
26.225416 0.931722 37.791096
26.140554 29.302877 25.496548
31.33634 15.379067 26.533663
32.18721 16.988773 24.547197
32.953354 15.119183 24.642256
34.464272 14.912031 22.781305
36.451904 24.211031 7.114697
36.69521 23.369459 8.989029
37.719036 21.075163 9.308796
36.827374 22.333782 10.996354
36.160046 -0.735868 27.629631
39.711094 8.702167 7.750458
39.197086 6.28582 7.552872
39.986229 6.613249 9.182186
40.519398 3.008048 14.026739
40.213913 2.652378 12.386121
27.450386 13.712362 31.979658
28.065136 12.034418 31.945797
26.535313 11.868447 33.748734
22.90246 7.553801 39.173584
24.411661 7.936379 37.434975
23.335781 5.968876 39.175423
23.820539 4.280842 39.177429
22.292339 3.888329 40.844131
21.515133 21.233072 36.796707
20.630144 23.428986 37.187466
22.070946 23.445435 35.207695
22.599012 25.559298 33.516342
23.615004 23.579861 32.955944
25.047516 23.421677 30.946447
24.442547 21.349201 32.778297
25.301983 15.371654 33.958382
26.023222 17.478609 32.259769
26.820295 15.488737 32.035297
28.323029 15.466757 30.192444
38.77549 11.018592 18.668819
39.101471 9.199796 19.108885
38.082069 9.857946 20.553003
35.097527 7.439917 25.990871
36.466309 7.056085 24.358355
35.435848 5.49936 26.411337
35.776516 3.36587 26.813869
34.472801 3.828369 28.287275
29.208035 8.386812 32.197124
30.743269 8.22715 30.63092
29.629028 6.412326 32.562126
29.288834 1.052956 34.80233
30.367296 2.731998 33.187084
30.717278 0.768998 33.471348
32.269241 0.552687 31.93359
18.18248 6.602326 44.434826
28.041208 23.218369 26.620659
28.433296 25.078291 24.782841
29.455662 23.080395 24.578438
33.487041 20.27401 20.473635
32.392159 22.434404 20.484482
33.889709 21.725994 18.594809
34.307655 23.049641 16.531269
35.343327 21.10425 16.538914
36.615669 20.233486 14.799624
36.223743 19.014879 16.915203
37.13953 13.710794 19.669008
37.762783 14.876745 17.71513
38.319092 12.916172 18.211321
39.315796 11.998301 16.892113
37.528019 20.49111 4.512877
37.610821 18.431486 3.562331
37.427723 16.051382 2.857065
38.301151 15.6707 4.331423
38.892254 13.270468 5.3536
39.015087 15.498898 5.958756
39.41391 16.452065 10.516756
39.898827 14.757511 9.587754
40.001225 14.322165 11.442293
40.442619 12.292892 12.330823
39.926449 13.71503 13.287246
39.41888 5.307137 20.088066
40.044506 4.682498 18.645746
39.483093 3.243106 20.471823
40.694817 8.785225 11.024148
40.504761 6.718512 10.826216
40.801186 6.835083 12.458958
40.76054 5.072699 13.980565
40.591286 3.408828 15.635812
24.35219 13.409813 35.771637
24.999886 11.692884 35.568928
23.373524 11.453943 37.517715
22.527927 9.403725 39.058983
21.432514 7.317049 40.820351
22.396809 19.208447 36.337147
23.827532 19.393833 34.395557
23.177105 17.160759 36.018314
23.691189 15.171882 36.014992
32.185516 8.377358 -0.446914
36.370213 12.395561 21.692293
36.892139 10.43741 22.071922
35.642265 10.879211 23.567268
34.684502 9.386571 25.573992
33.752251 7.913882 27.407473
26.973335 4.659873 35.897598
28.447496 4.66397 34.428631
27.338823 2.873296 36.137806
27.726336 0.981255 36.338299
27.757915 30.790161 21.229279
29.060081 28.648096 20.795425
29.915092 19.18767 26.305815
30.499741 21.116968 24.328094
31.425591 19.088272 24.301588
32.884773 18.779787 22.455362
34.403698 18.218773 20.62895
35.760193 17.752987 18.853052
35.155865 16.347582 20.85634
35.891891 14.353545 21.139109
37.166775 22.388481 5.790702
38.096012 19.9062 6.221335
38.82793 17.734013 6.834398
38.447937 19.397167 8.01763
38.639324 18.756636 9.777163
38.715355 17.829386 11.794136
38.012604 2.312611 23.784576
38.840622 1.613489 22.335985
38.070541 -0.017912 24.297375
37.871464 8.641675 4.622924
37.114998 6.075465 4.559154
38.285854 6.147512 6.084343
40.15118 4.580669 10.731474
30.598675 13.69078 28.28233
31.098629 11.903388 28.560471
29.590677 11.980919 30.242712
28.627974 10.22901 32.059696
27.615479 8.28665 33.912342
25.423588 9.818369 35.716537
25.91692 8.139351 35.759789
26.507357 6.517914 35.715561
25.395424 4.613304 37.488026
24.266407 2.632846 39.215057
23.106689 0.621101 40.879665
23.006765 27.725897 31.775824
24.485497 27.639751 29.455103
25.860256 27.393917 27.355734
25.538952 25.393175 29.131512
26.5354 23.231735 28.855194
27.476776 21.207249 28.593082
25.276352 19.343868 32.488663
26.735073 19.387157 30.507359
28.378426 19.357443 28.298918
29.131672 17.328875 28.313931
29.841173 15.502716 28.312883
18.282232 12.346998 43.067879
18.876719 10.54535 42.82399
40.27116 9.438008 16.339273
40.419041 7.793043 16.702471
39.875675 8.435189 17.871088
39.281406 7.23893 19.678061
38.545399 5.741583 21.667519
37.301697 8.518085 22.467073
37.573486 6.456353 22.997978
37.737198 4.365922 23.566948
36.963448 2.874968 25.316425
36.009033 1.398601 27.194443
31.734457 10.11361 28.688044
32.219597 8.077451 29.084507
32.675957 6.23227 29.386467
29.988178 4.634559 32.885166
31.465256 4.435524 31.429386
32.996819 4.343891 29.800705
33.41328 2.367683 30.07091
19.294487 8.640429 42.803822
19.871277 6.960163 42.579494
20.268991 5.321519 42.559635
19.118042 3.285 44.227787
20.65613 3.646386 42.578899
21.095795 2.05522 42.526318
21.479025 0.375277 42.533253
34.569027 25.656631 12.591704
27.363726 27.242218 24.951536
28.776726 26.928774 22.803534
30.272945 26.397703 20.673859
30.947502 22.775278 22.507015
31.348289 24.436226 20.53615
31.640278 26.027943 18.553425
33.135429 25.289465 16.432346
34.44437 24.472116 14.584446
35.744198 23.462873 12.667699
36.811012 21.264696 12.920585
37.751667 19.136806 13.225969
38.461407 17.163076 13.797648
37.111107 16.872108 17.223616
38.205379 16.06027 15.730075
39.144371 15.118092 14.315808
39.685421 12.9955 15.069182
40.070057 11.091269 15.710295
40.570179 10.050116 14.829625
36.196381 11.077176 2.020424
37.424633 11.129517 3.384004
38.454811 11.08395 4.837113
39.344952 10.975943 6.457502
40.019257 10.993119 8.131495
39.545502 15.242943 7.710538
40.084522 12.970192 8.74171
40.449383 10.888995 9.773938
40.689064 10.667967 11.473401
40.728523 10.377865 13.230712
40.486679 5.995924 16.912321
40.43375 3.921005 17.1849
40.297375 1.807937 17.459362
39.499657 1.076882 20.762091
39.91481 0.348941 19.239618
20.326589 13.762316 40.431045
20.020834 14.692018 40.554401
19.543372 13.572126 41.387203
24.780822 -0.000511 39.402065
24.012238 -0.150206 40.164703
24.139093 30.828698 27.911221
24.074787 29.73601 28.776625
24.867917 30.631093 26.726689
24.139093 30.828698 27.911221
25.442822 29.513297 26.566963
25.565649 30.420673 25.656275
24.867917 30.631093 26.726689
36.205166 23.998994 9.839144
36.146628 24.485312 8.909978
35.656583 25.114847 9.760093
36.225605 -1.899762 27.824915
35.66191 -1.577924 28.530101
40.263277 0.985263 15.039099
40.348786 1.894598 14.104999
40.43389 2.098714 14.960838
40.195854 0.11516 15.921501
40.263277 0.985263 15.039099
30.187077 -0.08009 34.229555
30.003056 0.910977 34.136839
29.472855 0.061889 34.895046
30.937044 -0.185759 33.519537
30.187077 -0.08009 34.229555
21.251478 18.027174 38.170732
20.453882 17.956761 39.159786
20.817121 16.906764 39.022138
22.005763 18.092812 37.185116
21.642524 19.142809 37.322764
21.251478 18.027174 38.170732
33.229622 7.042872 0.667293
32.439132 7.074917 0.108479
32.976005 8.345313 0.1119
27.112434 0.002713 37.170777
26.975876 0.956489 37.064698
26.361973 -0.022054 37.897175
27.920575 0.026356 36.400476
27.112434 0.002713 37.170777
27.652145 29.966253 22.172289
27.076609 31.001157 22.340632
26.97084 30.177248 23.283642
38.881411 5.056492 7.550235
39.341117 5.287705 8.325226
39.944515 2.460662 11.586729
39.979301 1.471454 12.450049
19.594302 22.239242 38.935295
19.25731 21.105594 39.699997
20.372468 25.773567 36.613153
20.127309 24.645025 37.40106
20.875303 24.557527 36.399559
20.609462 26.924417 35.800439
20.372468 25.773567 36.613153
21.347836 26.730542 34.79389
20.609462 26.924417 35.800439
17.767975 11.248477 43.850414
17.471677 12.198838 43.958945
17.471677 12.198838 43.958945
17.960695 13.325408 43.197719
36.684386 4.813386 4.56389
37.306547 4.86521 5.292616
34.877402 0.774377 28.866917
35.499569 0.593639 28.119453
35.386865 1.579339 27.941907
32.948948 0.406798 31.231938
32.370817 -0.506937 32.130871
18.50837 8.514513 43.662897
19.085603 9.592889 42.813906
18.299487 9.466974 43.672982
19.299384 2.454419 44.234186
18.480348 2.200545 45.097727
18.66169 1.369963 45.104126
20.914649 -0.622795 43.274916
20.682692 0.230363 43.34766
21.700674 -0.43897 42.47859
20.914649 -0.622795 43.274916
33.237302 27.39088 13.510387
32.558604 27.853962 14.572419
33.881853 26.218461 13.54427
33.924476 26.82905 12.557821
33.237302 27.39088 13.510387
35.922049 12.450377 1.471821
35.49865 11.14341 1.363026
37.475229 13.549065 3.077674
37.188322 14.830825 2.60831
37.71463 14.769621 3.326429
37.713085 12.308688 3.589899
37.186777 12.369893 2.871779
37.475229 13.549065 3.077674
39.832487 -0.816797 19.343273
39.66404 -0.463763 20.187672
40.007008 0.008256 18.456935
39.832487 -0.816797 19.343273
19.628571 15.66909 40.760875
19.236127 16.66948 40.961775
20.411789 15.859279 39.804718
19.628571 15.66909 40.760875
20.020834 14.692018 40.554401
34.74598 7.148004 1.831029
34.026703 7.09892 1.257963
34.485771 8.362354 1.243779
35.025986 5.883446 2.50899
34.74598 7.148004 1.831029
35.485054 7.14688 2.494806
35.258829 4.640778 3.151555
35.025986 5.883446 2.50899
25.592223 0.022801 38.615972
25.414015 0.90841 38.577189
24.780822 -0.000511 39.402065
26.361973 -0.022054 37.897175
25.592223 0.022801 38.615972
26.267929 30.257514 24.474266
25.565649 30.420673 25.656275
26.843465 29.222611 24.305923
26.97084 30.177248 23.283642
26.267929 30.257514 24.474266
36.024974 24.906098 7.972812
35.877825 25.419269 7.007271
36.573557 23.790245 8.051863
36.024974 24.906098 7.972812
36.146628 24.485312 8.909978
36.683527 -1.137771 26.921328
37.165215 -0.366484 25.971519
36.641734 0.035419 26.679822
36.683527 -1.137771 26.921328
36.225605 -1.899762 27.824915
39.735689 5.45142 9.139883
39.341117 5.287705 8.325226
39.591657 6.449535 8.367529
40.196043 1.716763 13.28469
40.366656 2.830213 13.20643
40.348786 1.894598 14.104999
39.979301 1.471454 12.450049
40.196043 1.716763 13.28469
31.713025 -0.293915 32.750658
31.49326 0.660842 32.702469
30.937044 -0.185759 33.519537
32.370817 -0.506937 32.130871
31.713025 -0.293915 32.750658
17.363023 6.344416 45.32288
17.952367 7.495462 44.4784
17.658908 5.575159 45.191269
17.363023 6.344416 45.32288
17.910688 4.744121 45.11849
18.434261 5.771287 44.362047
17.658908 5.575159 45.191269
18.853434 0.549458 45.071657
18.66169 1.369963 45.104126
19.683542 0.854644 44.201326
18.853434 0.549458 45.071657
32.575724 27.079277 15.492752
32.558604 27.853962 14.572419
37.138069 20.808549 3.676039
37.067961 21.755021 4.258816
37.17947 19.778737 3.200766
37.138069 20.808549 3.676039
37.56942 19.461298 4.037604
37.148457 18.531573 2.765444
37.17947 19.778737 3.200766
37.519272 17.241434 3.209698
37.056908 17.341521 2.412811
37.148457 18.531573 2.765444
39.150641 -0.94626 21.882664
38.835335 -1.770239 22.887032
19.620821 20.004629 39.581125
19.25731 21.105594 39.699997
19.629528 17.847231 40.198763
19.236127 16.66948 40.961775
19.629528 17.847231 40.198763
20.453882 17.956761 39.159786
20.445175 20.114159 38.542148
19.620821 20.004629 39.581125
21.201686 20.155121 37.552543
20.758622 21.19211 37.786312
20.445175 20.114159 38.542148
21.955971 20.220759 36.566927
21.201686 20.155121 37.552543
21.642524 19.142809 37.322764
31.607687 7.097955 -0.447431
31.346221 8.549041 -0.995358
31.607687 7.097955 -0.447431
32.439132 7.074917 0.108479
33.229622 7.042872 0.667293
34.026703 7.09892 1.257963
28.701825 0.062206 35.632492
28.507585 1.017105 35.570314
27.920575 0.026356 36.400476
29.472855 0.061889 34.895046
28.701825 0.062206 35.632492
27.142971 31.867598 21.404986
27.076609 31.001157 22.340632
27.811236 31.58721 20.31668
27.142971 31.867598 21.404986
28.485671 30.497299 20.091378
27.811236 31.58721 20.31668
29.136754 29.426266 19.874451
28.485671 30.497299 20.091378
28.408998 29.719129 21.012352
29.794235 28.335237 19.717948
29.136754 29.426266 19.874451
36.290676 24.516547 6.223376
35.877825 25.419269 7.007271
36.648111 23.605272 5.561379
36.290676 24.516547 6.223376
36.80934 23.299756 6.452699
36.887339 22.703706 4.897728
36.648111 23.605272 5.561379
37.347397 21.439795 5.151789
37.067961 21.755021 4.258816
36.887339 22.703706 4.897728
37.638774 -0.778792 25.255199
37.596981 0.394397 25.013694
37.165215 -0.366484 25.971519
38.098541 -1.065365 24.455204
37.638774 -0.778792 25.255199
38.507277 -1.364437 23.621317
38.479276 -0.316983 23.463488
38.098541 -1.065365 24.455204
38.835335 -1.770239 22.887032
38.507277 -1.364437 23.621317
37.891975 4.901233 6.05521
37.306547 4.86521 5.292616
37.700426 6.111489 5.321748
38.425794 4.987338 6.81597
38.74147 6.216666 6.818607
38.881411 5.056492 7.550235
37.891975 4.901233 6.05521
38.425794 4.987338 6.81597
39.818164 4.43513 9.914528
39.735689 5.45142 9.139883
40.068704 5.596959 9.95683
39.913148 3.424808 10.759405
40.182547 3.616524 11.558798
39.944515 2.460662 11.586729
39.818164 4.43513 9.914528
39.913148 3.424808 10.759405
23.264276 -0.282205 40.922895
24.012238 -0.150206 40.164703
23.854651 0.7531 40.121473
19.908319 23.378161 38.14107
19.594302 22.239242 38.935295
20.316128 22.290067 37.981691
19.908319 23.378161 38.14107
20.127309 24.645025 37.40106
22.087111 26.667156 33.746235
21.347836 26.730542 34.79389
21.859737 25.622683 34.563997
22.290987 27.750456 32.875976
22.087111 26.667156 33.746235
22.802889 26.642598 32.646083
22.511037 28.87076 31.920505
22.290987 27.750456 32.875976
23.205624 28.737099 30.845849
22.511037 28.87076 31.920505
23.94499 28.694026 29.685488
23.205624 28.737099 30.845849
23.746131 27.682824 30.615464
24.615293 28.681734 28.54624
24.074787 29.73601 28.776625
23.94499 28.694026 29.685488
35.109099 25.772078 10.632553
35.656583 25.114847 9.760093
18.065219 10.347653 43.72847
18.579476 11.446174 42.945934
17.767975 11.248477 43.850414
18.299487 9.466974 43.672982
18.065219 10.347653 43.72847
18.759925 13.424413 42.289219
17.960695 13.325408 43.197719
19.06568 12.494711 42.165863
19.543372 13.572126 41.387203
18.759925 13.424413 42.289219
36.009417 4.716814 3.870697
36.440029 5.978893 3.86596
36.684386 4.813386 4.56389
35.258829 4.640778 3.151555
36.009417 4.716814 3.870697
35.575075 -0.473595 28.337048
36.08454 0.331367 27.412037
35.499569 0.593639 28.119453
35.66191 -1.577924 28.530101
35.575075 -0.473595 28.337048
33.520967 1.314296 30.300598
32.841261 1.460185 31.00225
32.948948 0.406798 31.231938
34.196676 1.010493 29.609829
34.088989 2.06388 29.380141
33.520967 1.314296 30.300598
34.877402 0.774377 28.866917
34.196676 1.010493 29.609829
18.738484 7.621377 43.619324
18.50837 8.514513 43.662897
17.952367 7.495462 44.4784
18.138635 3.948288 45.061144
17.910688 4.744121 45.11849
18.354636 3.120664 45.030403
18.480348 2.200545 45.097727
18.902041 4.112624 44.258527
18.138635 3.948288 45.061144
18.354636 3.120664 45.030403
20.491076 1.070335 43.344193
20.28826 1.839528 43.383452
19.683542 0.854644 44.201326
21.28741 1.215248 42.529786
20.491076 1.070335 43.344193
20.682692 0.230363 43.34766
22.514506 -0.316058 41.651796
22.292857 0.498189 41.706459
21.700674 -0.43897 42.47859
23.264276 -0.282205 40.922895
22.514506 -0.316058 41.651796
34.536051 26.28613 11.583775
33.924476 26.82905 12.557821
35.142074 25.14258 11.640481
35.109099 25.772078 10.632553
34.536051 26.28613 11.583775
30.400667 27.210041 19.657165
29.794235 28.335237 19.717948
29.666513 27.5229 20.734642
31.084333 27.025161 18.596948
30.400667 27.210041 19.657165
30.956612 26.212823 19.613642
31.798523 26.703103 17.521048
31.084333 27.025161 18.596948
32.546098 26.333864 16.460508
31.798523 26.703103 17.521048
32.387853 25.658704 17.492885
33.165054 26.034878 15.46459
32.575724 27.079277 15.492752
32.546098 26.333864 16.460508
31.944574 9.81097 -0.964959
31.346221 8.549041 -0.995358
32.758497 9.753298 -0.423922
31.944574 9.81097 -0.964959
33.548986 9.721254 0.134891
32.976005 8.345313 0.1119
32.758497 9.753298 -0.423922
34.283707 9.761457 0.688171
33.548986 9.721254 0.134891
35.002983 9.810541 1.261237
34.485771 8.362354 1.243779
34.283707 9.761457 0.688171
35.700715 9.744307 1.918635
35.002983 9.810541 1.261237
35.49865 11.14341 1.363026
36.868845 16.165111 2.108183
37.056908 17.341521 2.412811
36.868845 16.165111 2.108183
37.188322 14.830825 2.60831
36.572651 12.343723 2.18999
35.922049 12.450377 1.471821
36.810507 11.103347 2.702214
36.572651 12.343723 2.18999
37.186777 12.369893 2.871779
39.456463 -0.099793 20.948909
39.193835 0.230414 21.695846
39.150641 -0.94626 21.882664
39.707234 0.712911 20.000855
39.456463 -0.099793 20.948909
39.66404 -0.463763 20.187672
40.19829 0.737754 17.566807
40.106093 1.078439 18.34949
40.007008 0.008256 18.456935
40.223793 0.428476 16.784595
40.322878 1.498658 16.677149
40.19829 0.737754 17.566807
40.195854 0.11516 15.921501
40.223793 0.428476 16.784595
3 0 77 75
3 1 80 78
3 1 298 300
3 298 82 299
3 298 299 300
3 1 78 82
3 2 85 84
3 3 88 86
3 302 301 89
3 4 303 304
3 4 305 306
3 4 307 309
3 307 91 308
3 307 308 309
3 3 94 92
3 3 86 94
3 5 310 312
3 310 97 311
3 310 311 312
3 5 99 97
3 314 313 100
3 6 103 101
3 7 315 317
3 317 316 104
3 315 316 317
3 7 318 319
3 8 108 106
3 10 111 109
3 10 113 111
3 11 116 114
3 11 118 116
3 11 120 118
3 8 123 121
3 8 106 123
3 13 127 125
3 15 130 128
3 15 132 130
3 9 135 133
3 320 138 321
3 322 321 136
3 320 321 322
3 324 323 138
3 12 143 141
3 16 146 144
3 16 148 146
3 16 150 148
3 13 153 151
3 13 125 153
3 18 156 155
3 18 158 156
3 18 160 158
3 17 163 161
3 17 165 163
3 14 168 166
3 19 171 169
3 21 172 76
3 21 173 172
3 22 176 174
3 24 177 79
3 24 178 177
3 26 325 327
3 327 326 81
3 325 326 327
3 26 328 330
3 328 179 329
3 328 329 330
3 26 181 179
3 22 182 83
3 22 174 182
3 28 331 333
3 333 332 183
3 331 332 333
3 29 186 184
3 31 187 87
3 31 188 187
3 32 191 189
3 334 192 335
3 336 335 90
3 334 335 336
3 338 337 192
3 34 339 341
3 339 193 340
3 339 340 341
3 34 194 193
3 35 197 195
3 37 198 93
3 37 199 198
3 37 201 199
3 29 202 95
3 29 184 202
3 39 203 96
3 39 204 203
3 39 206 204
3 41 207 98
3 41 208 207
3 42 211 209
3 44 214 212
3 343 342 102
3 20 215 170
3 345 344 105
3 45 218 216
3 47 219 107
3 47 220 219
3 23 221 175
3 48 222 110
3 48 223 222
3 48 224 223
3 49 225 112
3 49 226 225
3 25 346 347
3 50 348 350
3 350 349 115
3 348 349 350
3 50 351 352
3 50 353 354
3 51 227 117
3 51 228 227
3 51 230 228
3 53 231 119
3 53 232 231
3 27 233 180
3 54 234 122
3 54 235 234
3 54 236 235
3 45 237 124
3 45 216 237
3 356 355 238
3 357 238 358
3 360 359 213
3 55 242 240
3 57 243 126
3 57 244 243
3 30 245 185
3 58 246 129
3 58 247 246
3 58 248 247
3 59 249 131
3 59 361 363
3 363 362 249
3 361 362 363
3 46 250 217
3 60 251 134
3 60 252 251
3 33 253 190
3 61 254 137
3 61 255 254
3 61 256 255
3 365 364 139
3 366 257 367
3 368 367 239
3 366 367 368
3 62 258 140
3 62 259 258
3 63 369 371
3 369 260 370
3 369 370 371
3 63 261 260
3 63 262 261
3 372 263 373
3 375 374 263
3 64 376 377
3 64 378 380
3 378 264 379
3 378 379 380
3 52 265 229
3 65 266 142
3 65 267 266
3 36 268 196
3 66 269 145
3 66 270 269
3 66 271 270
3 67 272 147
3 67 273 272
3 67 274 273
3 68 275 149
3 68 276 275
3 38 277 200
3 69 278 152
3 69 279 278
3 69 280 279
3 55 281 154
3 55 240 281
3 381 283 382
3 71 383 385
3 385 384 157
3 383 384 385
3 71 386 388
3 386 284 387
3 386 387 388
3 71 285 284
3 72 286 159
3 72 287 286
3 40 288 205
3 73 289 162
3 73 290 289
3 73 291 290
3 70 292 164
3 70 282 292
3 56 293 241
3 74 294 167
3 74 295 294
3 43 296 210
3 389 297 390
3 392 391 297
3 75 76 19
3 77 76 75
3 77 21 76
3 78 79 22
3 80 79 78
3 80 24 79
3 393 81 394
3 82 395 397
3 395 81 396
3 395 396 397
3 82 26 81
3 82 83 26
3 78 83 82
3 78 22 83
3 84 398 400
3 400 399 28
3 398 399 400
3 85 401 403
3 403 402 84
3 401 402 403
3 85 404 405
3 86 87 29
3 88 87 86
3 88 31 87
3 89 90 32
3 406 90 407
3 408 407 89
3 406 407 408
3 410 409 90
3 91 411 412
3 91 413 415
3 413 34 414
3 413 414 415
3 92 93 35
3 94 93 92
3 94 37 93
3 94 95 37
3 86 95 94
3 86 29 95
3 416 96 417
3 97 418 420
3 418 96 419
3 418 419 420
3 97 39 96
3 97 98 39
3 99 98 97
3 99 41 98
3 100 421 423
3 423 422 42
3 421 422 423
3 425 424 100
3 101 102 44
3 103 102 101
3 103 426 428
3 428 427 102
3 426 427 428
3 104 105 20
3 429 105 430
3 431 430 104
3 429 430 431
3 433 432 105
3 106 107 45
3 108 107 106
3 108 47 107
3 109 110 23
3 111 110 109
3 111 48 110
3 111 112 48
3 113 112 111
3 113 49 112
3 114 115 25
3 116 115 114
3 116 50 115
3 116 117 50
3 118 117 116
3 118 51 117
3 118 119 51
3 120 119 118
3 120 53 119
3 121 122 27
3 123 122 121
3 123 54 122
3 123 124 54
3 106 124 123
3 106 45 124
3 125 126 55
3 127 126 125
3 127 57 126
3 128 129 30
3 130 129 128
3 130 58 129
3 130 131 58
3 132 131 130
3 132 59 131
3 133 134 46
3 135 134 133
3 135 60 134
3 136 137 33
3 138 137 136
3 138 61 137
3 138 139 61
3 434 139 435
3 436 435 138
3 434 435 436
3 438 437 139
3 439 140 440
3 441 140 442
3 443 62 444
3 445 444 140
3 443 444 445
3 446 63 447
3 449 448 63
3 450 64 451
3 141 142 52
3 143 142 141
3 143 65 142
3 144 145 36
3 146 145 144
3 146 66 145
3 146 147 66
3 148 147 146
3 148 67 147
3 148 149 67
3 150 149 148
3 150 68 149
3 151 152 38
3 153 152 151
3 153 69 152
3 153 154 69
3 125 154 153
3 125 55 154
3 155 452 453
3 156 454 456
3 456 455 155
3 454 455 456
3 156 457 458
3 156 459 461
3 459 157 460
3 459 460 461
3 158 157 156
3 158 71 157
3 158 159 71
3 160 159 158
3 160 72 159
3 161 162 40
3 163 162 161
3 163 73 162
3 163 164 73
3 165 164 163
3 165 70 164
3 166 167 56
3 168 167 166
3 168 74 167
3 463 462 43
3 169 170 6
3 171 170 169
3 171 20 170
3 76 171 19
3 172 171 76
3 172 20 171
3 172 104 20
3 173 104 172
3 173 7 104
3 174 175 8
3 176 175 174
3 176 23 175
3 79 176 22
3 177 176 79
3 177 23 176
3 177 109 23
3 178 109 177
3 178 10 109
3 464 25 465
3 81 466 467
3 469 468 81
3 470 25 471
3 472 114 473
3 474 473 25
3 472 473 474
3 179 475 477
3 475 114 476
3 475 476 477
3 179 11 114
3 179 180 11
3 181 180 179
3 181 27 180
3 83 181 26
3 182 181 83
3 182 27 181
3 182 121 27
3 174 121 182
3 174 8 121
3 183 478 479
3 481 480 183
3 483 482 28
3 184 185 13
3 186 185 184
3 186 30 185
3 87 186 29
3 187 186 87
3 187 30 186
3 187 128 30
3 188 128 187
3 188 15 128
3 189 190 9
3 191 190 189
3 191 33 190
3 90 191 32
3 192 191 90
3 192 33 191
3 192 136 33
3 484 136 485
3 486 485 192
3 484 485 486
3 488 487 136
3 193 489 490
3 193 491 492
3 193 493 494
3 194 495 497
3 497 496 193
3 495 496 497
3 194 498 499
3 195 196 12
3 197 196 195
3 197 36 196
3 93 197 35
3 198 197 93
3 198 36 197
3 198 144 36
3 199 144 198
3 199 16 144
3 199 200 16
3 201 200 199
3 201 38 200
3 95 201 37
3 202 201 95
3 202 38 201
3 202 151 38
3 184 151 202
3 184 13 151
3 96 500 501
3 203 502 504
3 504 503 96
3 502 503 504
3 203 505 506
3 203 507 509
3 507 155 508
3 507 508 509
3 204 155 203
3 204 18 155
3 204 205 18
3 206 205 204
3 206 40 205
3 98 206 39
3 207 206 98
3 207 40 206
3 207 161 40
3 208 161 207
3 208 17 161
3 209 210 14
3 211 210 209
3 211 43 210
3 510 211 511
3 512 511 42
3 510 511 512
3 513 211 514
3 515 43 516
3 517 516 211
3 515 516 517
3 519 518 43
3 212 213 2
3 214 213 212
3 214 520 522
3 522 521 213
3 520 521 522
3 102 214 44
3 523 214 524
3 525 524 102
3 523 524 525
3 527 526 214
3 170 103 6
3 215 103 170
3 215 528 530
3 530 529 103
3 528 529 530
3 105 215 20
3 531 215 532
3 533 532 105
3 531 532 533
3 535 534 215
3 216 217 3
3 218 217 216
3 218 46 217
3 107 218 45
3 219 218 107
3 219 46 218
3 219 133 46
3 220 133 219
3 220 9 133
3 175 108 8
3 221 108 175
3 221 47 108
3 110 221 23
3 222 221 110
3 222 47 221
3 222 220 47
3 223 220 222
3 223 9 220
3 223 189 9
3 224 189 223
3 224 32 189
3 112 224 48
3 225 224 112
3 225 32 224
3 225 89 32
3 226 89 225
3 226 536 538
3 538 537 89
3 536 537 538
3 115 539 541
3 541 540 25
3 539 540 541
3 543 542 115
3 117 544 546
3 546 545 50
3 544 545 546
3 227 547 549
3 549 548 117
3 547 548 549
3 227 550 551
3 227 552 553
3 228 554 556
3 556 555 227
3 554 555 556
3 228 557 559
3 557 4 558
3 557 558 559
3 228 229 4
3 230 229 228
3 230 52 229
3 119 230 51
3 231 230 119
3 231 52 230
3 231 141 52
3 232 141 231
3 232 12 141
3 180 120 11
3 233 120 180
3 233 53 120
3 122 233 27
3 234 233 122
3 234 53 233
3 234 232 53
3 235 232 234
3 235 12 232
3 235 195 12
3 236 195 235
3 236 35 195
3 124 236 54
3 237 236 124
3 237 35 236
3 237 92 35
3 216 92 237
3 216 3 92
3 560 5 561
3 238 239 1
3 562 239 563
3 564 563 238
3 562 563 564
3 566 565 239
3 238 567 568
3 238 569 571
3 569 1 570
3 569 570 571
3 213 85 2
3 572 85 573
3 574 573 213
3 572 573 574
3 576 575 85
3 240 241 0
3 242 241 240
3 242 56 241
3 126 242 55
3 243 242 126
3 243 56 242
3 243 166 56
3 244 166 243
3 244 14 166
3 185 127 13
3 245 127 185
3 245 57 127
3 129 245 30
3 246 245 129
3 246 57 245
3 246 244 57
3 247 244 246
3 247 14 244
3 247 209 14
3 248 209 247
3 248 42 209
3 131 248 58
3 249 248 131
3 249 42 248
3 249 100 42
3 577 100 578
3 579 578 249
3 577 578 579
3 581 580 100
3 217 88 3
3 250 88 217
3 250 31 88
3 134 250 46
3 251 250 134
3 251 31 250
3 251 188 31
3 252 188 251
3 252 15 188
3 190 135 9
3 253 135 190
3 253 60 135
3 137 253 33
3 254 253 137
3 254 60 253
3 254 252 60
3 255 252 254
3 255 15 252
3 255 132 15
3 256 132 255
3 256 59 132
3 139 256 61
3 582 256 583
3 584 583 139
3 582 583 584
3 585 59 586
3 587 586 256
3 585 586 587
3 589 588 59
3 239 80 1
3 257 80 239
3 257 24 80
3 140 590 592
3 590 257 591
3 590 591 592
3 258 257 140
3 258 24 257
3 258 178 24
3 259 178 258
3 259 10 178
3 593 62 594
3 260 595 596
3 260 597 599
3 597 62 598
3 597 598 599
3 260 259 62
3 261 259 260
3 261 10 259
3 261 113 10
3 262 113 261
3 262 49 113
3 600 262 601
3 602 601 63
3 600 601 602
3 263 603 605
3 603 262 604
3 603 604 605
3 263 49 262
3 263 226 49
3 606 226 607
3 608 607 263
3 606 607 608
3 610 609 226
3 264 611 612
3 264 613 615
3 613 5 614
3 613 614 615
3 229 91 4
3 265 91 229
3 265 34 91
3 142 265 52
3 266 265 142
3 266 34 265
3 266 194 34
3 267 194 266
3 267 616 618
3 618 617 194
3 616 617 618
3 196 143 12
3 268 143 196
3 268 65 143
3 145 268 36
3 269 268 145
3 269 65 268
3 269 267 65
3 270 267 269
3 270 619 621
3 621 620 267
3 619 620 621
3 270 622 623
3 271 624 626
3 626 625 270
3 624 625 626
3 271 627 629
3 627 64 628
3 627 628 629
3 147 271 66
3 272 271 147
3 272 64 271
3 272 264 64
3 273 264 272
3 273 5 264
3 273 99 5
3 274 99 273
3 274 41 99
3 149 274 67
3 275 274 149
3 275 41 274
3 275 208 41
3 276 208 275
3 276 17 208
3 200 150 16
3 277 150 200
3 277 68 150
3 152 277 38
3 278 277 152
3 278 68 277
3 278 276 68
3 279 276 278
3 279 17 276
3 279 165 17
3 280 165 279
3 280 70 165
3 154 280 69
3 281 280 154
3 281 70 280
3 281 282 70
3 240 282 281
3 240 0 282
3 630 183 631
3 632 183 633
3 634 28 635
3 636 635 183
3 634 635 636
3 637 28 638
3 639 84 640
3 641 640 28
3 639 640 641
3 283 642 644
3 642 84 643
3 642 643 644
3 283 2 84
3 157 645 646
3 648 647 157
3 649 283 650
3 284 651 653
3 651 283 652
3 651 652 653
3 284 2 283
3 284 212 2
3 285 212 284
3 285 44 212
3 159 285 71
3 286 285 159
3 286 44 285
3 286 101 44
3 287 101 286
3 287 6 101
3 205 160 18
3 288 160 205
3 288 72 160
3 162 288 40
3 289 288 162
3 289 72 288
3 289 287 72
3 290 287 289
3 290 6 287
3 290 169 6
3 291 169 290
3 291 19 169
3 164 291 73
3 292 291 164
3 292 19 291
3 292 75 19
3 282 75 292
3 282 0 75
3 241 77 0
3 293 77 241
3 293 21 77
3 167 293 56
3 294 293 167
3 294 21 293
3 294 173 21
3 295 173 294
3 295 7 173
3 210 168 14
3 296 168 210
3 296 74 168
3 654 296 655
3 656 655 43
3 654 655 656
3 297 657 659
3 657 296 658
3 657 658 659
3 297 74 296
3 297 295 74
3 660 295 661
3 662 661 297
3 660 661 662
3 663 7 664
3 665 664 295
3 663 664 665
3 667 666 7
