ply
format ascii 1.0
element vertex 395
property float x
property float y
property float z
element face 336
property list uchar int vertex_index
end_header
-4.812918 100.537796 -34.648285
-6.702529 82.978737 -47.172256
-0.069029 90.939568 -40.453804
-4.306807 103.732971 -13.232364
-5.611251 93.150742 -42.355576
-2.397522 96.266075 -38.038204
-7.368177 103.862915 -30.361727
-1.705058 102.951408 -18.854324
-4.536226 76.291481 -47.717735
-8.854021 89.14267 -45.823246
-3.438832 87.516159 -44.149368
1.554945 85.231987 -42.016834
-1.953897 101.583389 -29.390995
0.901946 97.88591 -33.10598
-4.509726 104.152023 -24.537779
3.156641 93.284851 -36.154034
4.94303 88.032715 -38.164284
-5.20122 97.385757 -38.785698
-6.073048 102.305885 -32.635136
-7.754945 101.548775 -35.194767
2.130537 100.195976 -15.44931
-11.595066 89.381859 -46.545349
-9.880106 91.858109 -44.834846
-2.876049 92.14872 -41.51115
-4.553672 90.471786 -43.365757
-1.862305 89.58345 -42.343525
-1.012326 86.521942 -43.194019
0.56773 88.185745 -41.481819
-0.388195 101.460205 -26.676207
0.957488 99.945847 -28.814053
-5.602423 103.766838 -10.294111
-8.078795 104.918137 -10.231667
-0.450736 102.217918 -21.361708
-3.158997 103.746643 -21.718027
-1.71022 102.688194 -24.39225
-3.296084 103.022484 -27.115334
-3.669834 73.042976 -47.846539
-6.022081 73.567802 -48.835117
1.989529 95.768272 -34.76622
-6.616509 95.764893 -40.978249
-3.97139 94.800453 -40.315868
-1.180624 93.662453 -39.393692
-3.173112 103.554344 -16.07494
-0.593562 102.015839 -15.770028
1.018442 101.249886 -18.343803
-4.056903 82.121529 -46.228901
-5.575337 79.728851 -47.501678
-2.277843 75.542801 -46.706951
7.00878 92.205574 -32.897308
9.35943 90.146751 -31.782835
-10.208656 86.449806 -47.337894
-7.62882 86.061577 -46.584908
-7.176699 91.272682 -44.152035
-6.125373 88.320877 -45.102158
-5.116493 85.204361 -45.817356
-2.553651 84.332214 -44.827305
0.011444 83.368294 -43.630444
-3.134941 101.092484 -32.098366
-1.876697 99.262398 -33.985088
-9.120686 104.508347 -7.003357
-4.453127 104.439682 -18.943151
-5.951679 104.226471 -27.417257
-4.642682 102.817795 -29.964161
-6.935414 76.915146 -48.638054
-0.736078 97.288574 -35.605427
0.397974 94.947678 -37.114521
1.438593 92.442902 -38.344898
5.564444 91.604057 -35.182186
3.97909 90.757851 -37.378864
2.400241 89.655861 -39.389313
3.11901 86.818909 -40.248634
-4.199165 99.538006 -35.545002
-5.689272 100.064789 -35.906506
-5.689272 100.064789 -35.906506
-7.160285 100.570279 -36.179747
-6.283931 101.043285 -34.921526
-10.525201 93.214505 -44.199894
-11.24168 92.055252 -45.085188
-11.886775 93.411648 -44.450235
0.99394 100.598884 -26.419995
0.335028 101.260815 -25.253963
-4.954615 103.749905 -11.763237
-4.374135 103.087086 -10.238048
-3.726327 103.070152 -11.707175
-5.637206 104.379658 -13.20512
-6.285014 104.396591 -11.735993
-4.954615 103.749905 -11.763237
-5.003856 104.28719 -14.626114
-5.637206 104.379658 -13.20512
-0.325984 101.874809 -24.111984
-1.080478 102.453056 -22.876979
0.303758 101.639671 -22.596713
0.335028 101.260815 -25.253963
-1.049208 102.074199 -25.534229
-0.325984 101.874809 -24.111984
-7.364489 81.582031 -47.778379
-7.950588 83.137276 -47.593525
-4.311144 71.698535 -48.351536
-3.129211 71.31739 -47.839291
-7.350594 96.924976 -40.292671
-8.095638 96.131367 -41.306238
-8.785585 104.25439 -30.555977
-8.06769 104.532768 -29.083348
0.084339 101.326565 -14.299629
-1.207485 102.146466 -14.348275
2.334131 100.330224 -18.166431
1.574489 100.722931 -16.896557
2.890179 99.803269 -16.719184
1.639337 100.860142 -19.664842
2.334131 100.330224 -18.166431
-3.597494 80.542866 -46.369312
-2.815317 81.61105 -45.705013
-1.156538 75.069432 -46.12721
-1.540407 76.686668 -46.075407
-0.419102 76.213299 -45.495666
-0.703002 73.415031 -46.144956
-1.824307 73.888401 -46.724697
-1.156538 75.069432 -46.12721
10.034164 90.254879 -30.569958
8.861579 91.341251 -31.149518
-6.393975 92.211712 -43.253805
-7.782559 92.703549 -43.544583
-6.999835 93.642578 -42.646353
1.943526 83.633137 -42.231896
1.171775 82.70129 -43.0387
0.783195 84.30014 -42.823639
-1.252247 100.715408 -30.414773
-1.842769 100.469955 -31.768459
-2.544419 101.337936 -30.744681
1.664122 99.045613 -29.73989
2.374049 99.047673 -28.413575
-7.954767 103.997951 -7.082849
-8.436816 103.729694 -5.58373
-9.294484 105.352249 -10.059955
-8.79335 105.476601 -11.640968
-5.148846 104.587257 -23.262456
-4.473482 104.384567 -21.85258
-3.834361 103.949333 -23.127903
-5.885153 104.734436 -24.684454
-5.148846 104.587257 -23.262456
-5.230702 104.189247 -25.977518
-6.606129 104.77166 -26.124193
-5.885153 104.734436 -24.684454
-7.155432 73.895699 -49.218746
-6.627651 72.206249 -49.274137
6.700314 90.747315 -34.598547
6.286612 91.904815 -34.039747
7.422482 91.048073 -33.456108
4.46106 89.395283 -37.771574
5.177914 89.937893 -36.775553
5.659885 88.575325 -37.168262
-5.883422 98.488769 -37.975212
-6.64295 97.735409 -39.196396
-4.393315 97.961986 -37.613709
-5.883422 98.488769 -37.975212
-2.991467 97.402146 -37.239961
-3.799371 96.825916 -38.411951
-4.393315 97.961986 -37.613709
-7.507333 102.737198 -32.895457
-8.154898 103.515713 -31.758752
-6.720612 103.0844 -31.498432
-8.348282 102.358643 -34.175272
-7.507333 102.737198 -32.895457
-6.913996 101.92733 -33.914952
-9.162444 101.845032 -35.468418
-8.348282 102.358643 -34.175272
-8.439817 100.924297 -36.414191
-9.162444 101.845032 -35.468418
-8.439817 100.924297 -36.414191
-7.160285 100.570279 -36.179747
2.666916 99.532558 -13.956734
1.446389 100.416634 -14.13927
3.402571 99.252697 -15.285944
2.666916 99.532558 -13.956734
3.93895 98.58928 -13.793368
2.890179 99.803269 -16.719184
3.402571 99.252697 -15.285944
-12.09916 90.817127 -45.940439
-12.921052 89.476822 -46.76832
-10.737586 90.619984 -45.690098
-12.09916 90.817127 -45.940439
-11.24168 92.055252 -45.085188
1.666782 99.841706 -27.488919
0.284647 100.703026 -27.74513
0.99394 100.598884 -26.419995
2.374049 99.047673 -28.413575
1.666782 99.841706 -27.488919
-4.973498 102.999603 -8.786181
-4.374135 103.087086 -10.238048
-6.195636 103.627197 -8.728226
-4.973498 102.999603 -8.786181
-6.840609 104.342488 -10.262889
-7.433822 104.202846 -8.697004
-6.195636 103.627197 -8.728226
-7.5232 104.97224 -11.704771
-6.840609 104.342488 -10.262889
-6.285014 104.396591 -11.735993
-8.79335 105.476601 -11.640968
-7.5232 104.97224 -11.704771
-5.487267 71.960949 -48.845825
-4.845957 73.305389 -48.340828
-4.311144 71.698535 -48.351536
-6.627651 72.206249 -49.274137
-5.487267 71.960949 -48.845825
2.773018 95.993084 -33.550577
1.445738 96.827091 -33.9361
2.229226 97.051903 -32.720457
3.316587 94.890083 -34.306745
2.773018 95.993084 -33.550577
3.900143 93.648372 -35.000653
2.573085 94.526561 -35.460127
3.316587 94.890083 -34.306745
6.006418 87.115871 -37.621099
5.659885 88.575325 -37.168262
6.291019 85.698689 -38.006746
5.227632 86.615532 -38.549931
6.006418 87.115871 -37.621099
-7.502464 94.949654 -41.95769
-8.095638 96.131367 -41.306238
-6.11388 94.457818 -41.666912
-6.999835 93.642578 -42.646353
-7.502464 94.949654 -41.95769
-5.908864 96.575325 -39.881974
-7.350594 96.924976 -40.292671
-6.64295 97.735409 -39.196396
-8.785585 104.25439 -30.555977
-8.154898 103.515713 -31.758752
-3.064107 103.005032 -13.079444
-3.726327 103.070152 -11.707175
-2.49726 102.915718 -14.500732
-3.73996 103.643658 -14.653652
-3.064107 103.005032 -13.079444
-1.883337 102.785091 -15.922484
-2.49726 102.915718 -14.500732
-1.207485 102.146466 -14.348275
0.768487 101.105908 -15.609669
0.084339 101.326565 -14.299629
1.446389 100.416634 -14.13927
0.904748 101.344158 -21.173795
0.283853 101.733902 -19.852756
1.639337 100.860142 -19.664842
0.303758 101.639671 -22.596713
0.904748 101.344158 -21.173795
-4.356711 79.346527 -47.005701
-4.81612 80.92519 -46.86529
-3.597494 80.542866 -46.369312
-3.837155 77.627842 -47.113729
-5.055782 78.010166 -47.609707
-4.356711 79.346527 -47.005701
-2.707963 77.253502 -46.608337
-1.540407 76.686668 -46.075407
-3.407034 75.917141 -47.212343
-3.837155 77.627842 -47.113729
-2.707963 77.253502 -46.608337
-2.520302 72.638488 -47.294491
-2.973838 74.292889 -47.276745
-1.824307 73.888401 -46.724697
-3.129211 71.31739 -47.839291
-2.520302 72.638488 -47.294491
7.686254 92.370663 -31.706755
6.484669 93.36158 -32.182014
8.184105 91.176163 -32.340072
7.686254 92.370663 -31.706755
8.861579 91.341251 -31.149518
8.597807 90.018662 -32.898871
7.422482 91.048073 -33.456108
8.184105 91.176163 -32.340072
10.430601 89.083545 -31.155717
10.034164 90.254879 -30.569958
11.105336 89.191674 -29.942839
9.747383 88.941261 -32.262431
10.430601 89.083545 -31.155717
8.597807 90.018662 -32.898871
9.747383 88.941261 -32.262431
-12.267563 88.031834 -47.249164
-12.921052 89.476822 -46.76832
-11.574358 86.565807 -47.645437
-12.267563 88.031834 -47.249164
-10.901861 87.915832 -46.941621
-10.988274 85.073856 -48.000333
-11.574358 86.565807 -47.645437
-9.703651 84.87281 -47.676344
-10.988274 85.073856 -48.000333
-8.413733 84.678696 -47.29985
-9.703651 84.87281 -47.676344
-8.918738 86.255691 -46.961401
-7.165674 84.520157 -46.878582
-7.950588 83.137276 -47.593525
-8.413733 84.678696 -47.29985
-9.134263 92.996262 -43.885988
-10.525201 93.214505 -44.199894
-8.528403 91.565395 -44.49344
-9.134263 92.996262 -43.885988
-7.782559 92.703549 -43.544583
-2.063692 82.716392 -45.004216
-2.815317 81.61105 -45.705013
-3.305277 83.226871 -45.528103
-0.781144 82.234432 -44.405785
-2.063692 82.716392 -45.004216
-1.271103 83.850254 -44.228875
0.362794 81.694348 -43.83453
-0.781144 82.234432 -44.405785
0.362794 81.694348 -43.83453
1.171775 82.70129 -43.0387
-1.213647 99.554913 -32.711819
-2.505819 100.177441 -33.041727
-1.842769 100.469955 -31.768459
0.175674 98.866669 -32.272266
-0.487376 98.574154 -33.545534
-1.213647 99.554913 -32.711819
0.203445 99.896637 -30.126302
-1.252247 100.715408 -30.414773
-0.498204 100.764618 -29.102524
0.203445 99.896637 -30.126302
1.664122 99.045613 -29.73989
1.636351 98.015644 -31.885853
0.175674 98.866669 -32.272266
2.229226 97.051903 -32.720457
1.636351 98.015644 -31.885853
-9.648896 104.225216 -5.445542
-8.436816 103.729694 -5.58373
-10.306728 104.918435 -6.884167
-9.648896 104.225216 -5.445542
-8.59974 104.713242 -8.617512
-7.954767 103.997951 -7.082849
-7.433822 104.202846 -8.697004
-9.81543 105.147355 -8.4458
-8.59974 104.713242 -8.617512
-9.294484 105.352249 -10.059955
-10.306728 104.918435 -6.884167
-9.81543 105.147355 -8.4458
-4.437009 104.197876 -16.047401
-5.003856 104.28719 -14.626114
-3.73996 103.643658 -14.653652
-5.077017 104.640545 -17.481507
-4.437009 104.197876 -16.047401
-3.813119 103.997013 -17.509045
-5.798122 105.056114 -19.075239
-5.077017 104.640545 -17.481507
-5.120547 104.731087 -20.465142
-3.806062 104.093163 -20.330589
-4.473482 104.384567 -21.85258
-5.798122 105.056114 -19.075239
-5.120547 104.731087 -20.465142
-7.35944 104.714546 -27.611114
-8.01389 105.259735 -26.31805
-6.606129 104.77166 -26.124193
-6.659928 104.044693 -28.889492
-8.06769 104.532768 -29.083348
-7.35944 104.714546 -27.611114
-6.800892 79.957088 -47.94309
-7.364489 81.582031 -47.778379
-6.138933 81.353794 -47.336967
-7.480931 78.550236 -48.511278
-6.800892 79.957088 -47.94309
-6.255375 78.321999 -48.069866
-8.202025 77.273663 -49.024227
-7.480931 78.550236 -48.511278
-7.612099 75.56937 -49.120215
-6.478747 75.241474 -48.736585
-7.155432 73.895699 -49.218746
-8.202025 77.273663 -49.024227
-7.612099 75.56937 -49.120215
-2.731054 98.900307 -35.213403
-4.199165 99.538006 -35.545002
-3.344807 99.900097 -34.316687
-2.160744 97.913395 -36.023573
-2.731054 98.900307 -35.213403
-1.306388 98.275486 -34.795257
-1.5668 96.777324 -36.821815
-2.991467 97.402146 -37.239961
-2.160744 97.913395 -36.023573
5.826213 93.108734 -33.37229
6.484669 93.36158 -32.182014
5.104045 92.807975 -34.514729
5.826213 93.108734 -33.37229
6.286612 91.904815 -34.039747
4.360543 92.444454 -35.66811
3.900143 93.648372 -35.000653
5.104045 92.807975 -34.514729
5.970591 90.360996 -35.677214
6.700314 90.747315 -34.598547
4.771767 91.180954 -36.280525
5.970591 90.360996 -35.677214
5.177914 89.937893 -36.775553
4.315621 86.008629 -39.592106
4.03102 87.425812 -39.206459
5.227632 86.615532 -38.549931
3.542821 85.33714 -40.472629
4.315621 86.008629 -39.592106
2.760789 84.543678 -41.35673
2.336977 86.025448 -41.132734
3.542821 85.33714 -40.472629
1.943526 83.633137 -42.231896
2.760789 84.543678 -41.35673
3 0 71 72
3 0 19 18
3 0 73 75
3 75 74 19
3 73 74 75
3 76 22 77
3 76 77 78
3 2 25 23
3 2 27 25
3 80 79 28
3 3 81 83
3 81 30 82
3 81 82 83
3 3 84 86
3 86 85 30
3 84 85 86
3 3 87 88
3 89 34 90
3 91 90 32
3 89 90 91
3 92 28 93
3 94 93 34
3 92 93 94
3 1 95 96
3 98 97 36
3 99 39 100
3 5 40 17
3 5 41 40
3 6 101 102
3 103 43 104
3 105 44 106
3 107 106 20
3 105 106 107
3 109 108 44
3 111 110 45
3 112 47 113
3 112 113 114
3 117 116 47
3 115 116 117
3 118 49 119
3 9 50 21
3 9 51 50
3 4 120 122
3 120 52 121
3 120 121 122
3 10 53 24
3 10 54 53
3 10 55 54
3 11 56 26
3 11 123 125
3 125 124 56
3 123 124 125
3 12 126 128
3 128 127 57
3 126 127 128
3 130 129 29
3 131 59 132
3 134 133 31
3 7 60 42
3 14 135 137
3 137 136 33
3 135 136 137
3 14 138 139
3 14 140 142
3 140 61 141
3 140 141 142
3 12 62 35
3 12 57 62
3 8 63 46
3 144 143 37
3 13 64 58
3 15 65 38
3 15 66 65
3 145 67 146
3 147 146 48
3 145 146 147
3 16 148 150
3 148 68 149
3 148 149 150
3 16 69 68
3 16 70 69
3 151 17 152
3 153 17 154
3 155 5 156
3 157 156 17
3 155 156 157
3 18 158 160
3 160 159 6
3 158 159 160
3 19 161 163
3 163 162 18
3 161 162 163
3 19 164 165
3 19 166 167
3 169 168 19
3 170 20 171
3 172 20 173
3 172 173 174
3 176 175 20
3 177 21 178
3 22 179 181
3 179 21 180
3 179 180 181
3 22 9 21
3 23 24 4
3 25 24 23
3 25 10 24
3 25 26 10
3 27 26 25
3 27 11 26
3 28 29 12
3 182 29 183
3 184 183 28
3 182 183 184
3 186 185 29
3 30 187 188
3 30 189 190
3 30 191 193
3 191 31 192
3 191 192 193
3 194 31 195
3 196 195 30
3 194 195 196
3 198 197 31
3 32 33 7
3 34 33 32
3 34 14 33
3 34 35 14
3 28 35 34
3 28 12 35
3 36 37 8
3 199 37 200
3 201 200 36
3 199 200 201
3 203 202 37
3 204 38 205
3 206 205 13
3 204 205 206
3 207 38 208
3 209 15 210
3 211 210 38
3 209 210 211
3 212 16 213
3 216 215 16
3 214 215 216
3 39 217 218
3 39 219 221
3 219 4 220
3 219 220 221
3 17 222 224
3 222 39 223
3 222 223 224
3 40 39 17
3 40 4 39
3 40 23 4
3 41 23 40
3 41 2 23
3 226 225 6
3 227 3 228
3 229 42 230
3 231 230 3
3 229 230 231
3 43 232 234
3 232 42 233
3 232 233 234
3 43 7 42
3 20 235 237
3 235 43 236
3 235 236 237
3 44 43 20
3 44 7 43
3 44 32 7
3 238 32 239
3 240 239 44
3 238 239 240
3 242 241 32
3 45 46 1
3 243 46 244
3 245 244 45
3 243 244 245
3 246 8 247
3 248 247 46
3 246 247 248
3 47 249 250
3 47 251 253
3 251 8 252
3 251 252 253
3 47 36 8
3 254 36 255
3 256 255 47
3 254 255 256
3 258 257 36
3 259 48 260
3 49 261 263
3 261 48 262
3 261 262 263
3 49 264 266
3 266 265 48
3 264 265 266
3 267 49 268
3 267 268 269
3 270 49 271
3 273 272 49
3 21 274 275
3 50 276 278
3 278 277 21
3 276 277 278
3 50 279 280
3 50 281 282
3 51 283 285
3 285 284 50
3 283 284 285
3 51 286 288
3 286 1 287
3 286 287 288
3 289 22 290
3 52 291 293
3 291 22 292
3 291 292 293
3 52 9 22
3 24 52 4
3 53 52 24
3 53 9 52
3 53 51 9
3 54 51 53
3 54 1 51
3 54 45 1
3 55 45 54
3 55 294 296
3 296 295 45
3 294 295 296
3 26 55 10
3 56 55 26
3 56 297 299
3 299 298 55
3 297 298 299
3 56 300 301
3 303 302 56
3 57 58 0
3 304 58 305
3 306 305 57
3 304 305 306
3 307 13 308
3 309 308 58
3 307 308 309
3 29 310 312
3 312 311 12
3 310 311 312
3 314 313 29
3 315 13 316
3 318 317 13
3 59 319 320
3 59 321 322
3 31 323 325
3 323 59 324
3 323 324 325
3 326 59 327
3 328 327 31
3 326 327 328
3 330 329 59
3 42 331 333
3 333 332 3
3 331 332 333
3 60 334 336
3 336 335 42
3 334 335 336
3 60 337 338
3 33 60 7
3 339 60 340
3 341 340 33
3 339 340 341
3 343 342 60
3 61 344 346
3 344 345 346
3 61 347 349
3 347 6 348
3 347 348 349
3 35 61 14
3 62 61 35
3 62 6 61
3 62 18 6
3 57 18 62
3 57 0 18
3 46 350 352
3 352 351 1
3 350 351 352
3 63 353 355
3 355 354 46
3 353 354 355
3 63 356 357
3 37 63 8
3 358 63 359
3 360 359 37
3 358 359 360
3 362 361 63
3 58 363 365
3 365 364 0
3 363 364 365
3 64 366 368
3 368 367 58
3 366 367 368
3 64 369 371
3 369 5 370
3 369 370 371
3 38 64 13
3 65 64 38
3 65 5 64
3 65 41 5
3 66 41 65
3 66 2 41
3 48 372 373
3 67 374 376
3 376 375 48
3 374 375 376
3 67 377 379
3 377 15 378
3 377 378 379
3 380 67 381
3 68 382 384
3 382 67 383
3 382 383 384
3 68 15 67
3 68 66 15
3 69 66 68
3 69 2 66
3 69 27 2
3 70 27 69
3 70 11 27
3 385 70 386
3 387 386 16
3 385 386 387
3 388 70 389
3 390 11 391
3 392 391 70
3 390 391 392
3 394 393 11
