ply
format ascii 1.0
element vertex 323
property float x
property float y
property float z
element face 314
property list uchar int vertex_index
end_header
-35.148685 -51.245071 -27.766279
-28.260529 -58.536919 -41.27541
-33.208988 -54.978943 -34.929504
-34.852016 -43.93642 -43.533367
-32.758831 -57.428562 -26.790991
-31.847189 -59.418964 -30.559431
-34.465233 -53.197868 -31.339155
-36.880672 -42.486382 -40.381924
-37.38649 -36.54451 -44.620354
-31.939989 -38.619671 -50.238998
-28.231407 -39.473194 -52.20752
-30.081873 -61.68261 -34.16243
-31.134493 -56.880272 -38.177956
-37.388069 -30.105192 -48.902508
-36.772202 -46.657646 -32.181549
-33.197727 -55.278038 -22.870277
-35.847733 -48.232029 -35.98349
-34.229084 -49.676491 -39.404057
-31.716991 -51.307247 -42.422573
-35.048988 -37.631958 -47.680195
-31.97913 -45.287155 -46.336136
-28.456953 -52.818729 -45.022194
-33.942715 -54.462208 -27.123306
-33.631279 -55.437778 -29.039963
-34.820553 -52.351643 -29.500898
-32.563168 -57.328106 -32.664536
-30.997068 -60.74876 -32.237816
-31.699495 -58.411064 -34.380016
-30.67576 -59.337101 -36.144382
-32.294254 -55.883842 -36.598038
-32.221142 -56.993488 -20.706776
-36.415443 -47.394623 -34.104343
-36.993164 -44.885002 -36.338501
-35.909031 -43.435524 -41.941029
-35.601044 -46.139885 -39.905243
-34.537998 -46.94743 -41.514828
-33.017536 -50.741711 -40.841393
-33.320534 -47.823219 -42.863804
-36.109406 -30.594978 -50.446877
-36.257614 -33.712631 -48.488571
-30.2738 -42.504593 -49.449368
-32.063446 -41.941368 -48.28775
-30.291168 -45.814339 -47.605518
-30.280439 -48.996399 -45.698265
-28.446625 -49.896118 -46.762093
-26.53936 -53.587826 -46.137482
-31.48805 -60.379627 -26.314247
-30.906553 -61.709938 -28.332386
-32.283028 -58.659229 -28.523071
-33.189003 -56.380711 -30.763264
-33.986195 -53.947552 -33.171257
-37.569645 -41.91806 -38.54282
-37.934109 -39.058224 -40.80225
-37.102375 -39.857059 -42.469372
-36.172279 -40.287891 -44.108173
-30.212246 -39.091591 -51.247536
-28.343964 -43.057625 -50.439922
-29.451536 -63.838959 -32.085968
-29.367493 -60.368397 -37.83234
-29.808474 -57.623482 -39.846882
-37.096519 -26.667862 -51.162971
-35.746063 -27.434216 -52.464775
-36.191879 -48.197758 -28.16534
-35.98563 -49.058937 -29.952686
-33.02095 -56.367771 -24.794743
-34.227577 -53.277561 -25.314302
-34.388844 -52.241985 -23.57583
-35.326813 -50.272568 -25.85429
-35.699848 -49.848137 -31.8309
-35.250118 -50.665455 -33.760445
-34.564217 -51.636967 -35.503128
-36.448055 -45.323601 -38.23719
-35.158257 -48.910191 -37.720066
-33.766811 -52.381454 -37.24509
-32.799812 -53.16436 -38.791431
-31.441904 -54.230297 -40.327305
-29.998646 -54.906998 -41.900837
-37.362061 -33.506596 -46.85302
-36.279675 -37.155098 -46.241333
-34.989246 -40.847752 -45.633568
-33.595486 -38.233971 -48.961632
-33.589516 -41.60598 -46.919796
-33.621834 -44.524479 -44.917267
-31.984224 -48.361988 -44.274193
-30.126839 -52.085003 -43.82616
-28.408316 -55.693676 -43.200932
-26.649887 -56.603527 -44.298943
-27.260939 -60.410645 -41.044758
-28.108258 -59.901325 -40.320694
-27.392895 -58.997003 -41.925206
-27.260939 -60.410645 -41.044758
-31.704896 -57.803749 -19.537895
-31.62475 -58.412523 -20.442163
-37.532299 -43.077621 -36.555769
-37.239569 -44.432823 -35.465496
-35.466578 -32.542107 -50.127541
-35.358193 -30.902079 -51.112578
-29.435899 -46.097311 -48.099575
-30.282484 -44.159466 -48.527443
-29.427214 -44.442438 -49.0215
-28.513627 -48.1382 -47.677863
-29.368896 -47.855228 -47.183806
-29.435899 -46.097311 -48.099575
-27.519855 -50.073307 -47.321925
-28.513627 -48.1382 -47.677863
-38.39873 -37.305492 -40.995487
-38.227251 -38.771832 -39.899506
-37.244433 -38.200784 -43.544863
-37.642696 -38.053648 -42.664183
-37.784754 -36.397374 -43.739674
-29.221826 -39.282393 -51.727528
-29.981918 -37.383114 -52.204059
-28.991499 -37.573915 -52.684052
-27.296287 -41.58449 -51.693342
-27.352566 -43.376705 -50.809544
-28.287686 -41.26541 -51.323721
-31.071607 -61.078361 -30.36833
-30.60129 -62.223849 -29.254807
-31.376871 -60.564451 -29.445909
-29.196873 -63.422672 -33.974224
-28.881704 -64.500847 -32.935993
-29.766705 -62.760784 -33.124199
-29.506156 -62.182805 -35.047606
-29.196873 -63.422672 -33.974224
-36.90455 -25.06971 -52.15102
-37.509864 -24.875367 -51.376896
-36.229322 -25.452887 -52.801922
-36.421291 -27.051039 -51.813873
-36.90455 -25.06971 -52.15102
-36.597915 -47.057654 -29.341949
-36.706375 -46.58466 -28.498241
-33.109338 -55.822904 -23.83251
-32.53293 -57.250177 -23.611238
-32.621319 -56.705311 -22.649006
-34.926331 -50.757379 -23.831962
-34.416601 -51.789217 -22.648062
-35.395316 -49.772671 -24.971193
-34.857828 -51.257277 -24.71506
-34.926331 -50.757379 -23.831962
-35.836628 -48.793059 -26.183332
-35.395316 -49.772671 -24.971193
-37.375065 -31.805894 -47.877764
-37.87178 -31.57137 -47.088763
-37.884785 -29.870667 -48.113506
-32.767738 -38.426821 -49.600315
-33.457013 -36.516617 -50.034347
-32.629264 -36.709467 -50.67303
-25.595729 -55.516333 -45.761364
-25.571496 -53.945311 -46.59442
-37.836893 -34.812638 -44.908869
-37.784754 -36.397374 -43.739674
-28.034384 -37.728295 -53.086016
-28.991499 -37.573915 -52.684052
-27.224742 -39.772318 -52.527187
-28.034384 -37.728295 -53.086016
-32.133026 -57.563036 -21.567255
-31.62475 -58.412523 -20.442163
-32.709435 -56.135763 -21.788527
-32.621319 -56.705311 -22.649006
-32.133026 -57.563036 -21.567255
-36.950708 -45.687634 -34.348417
-36.593823 -47.026134 -33.142946
-37.129087 -45.319145 -33.38702
-36.704304 -46.139813 -35.221422
-36.950708 -45.687634 -34.348417
-37.239569 -44.432823 -35.465496
-35.540682 -34.100933 -49.148388
-36.18351 -32.153804 -49.467724
-35.466578 -32.542107 -50.127541
-34.936369 -36.060597 -48.7442
-35.653301 -35.672294 -48.084383
-35.540682 -34.100933 -49.148388
-26.566222 -51.919161 -47.009619
-27.492992 -51.741972 -46.449787
-27.519855 -50.073307 -47.321925
-25.598358 -52.276646 -47.466557
-25.571496 -53.945311 -46.59442
-26.566222 -51.919161 -47.009619
-31.197302 -61.044782 -27.323317
-30.475431 -62.626381 -27.126502
-30.766179 -61.961225 -26.117432
-38.045019 -40.201749 -38.76979
-37.82054 -41.59415 -37.657928
-37.751877 -40.488142 -39.672535
-38.045019 -40.201749 -38.76979
-38.227251 -38.771832 -39.899506
-38.058563 -37.65423 -41.830622
-38.39873 -37.305492 -40.995487
-37.518242 -39.457642 -41.635811
-38.058563 -37.65423 -41.830622
-37.642696 -38.053648 -42.664183
-31.763658 -36.871909 -51.262297
-32.629264 -36.709467 -50.67303
-30.899787 -37.107869 -51.766565
-29.981918 -37.383114 -52.204059
-31.076118 -38.855631 -50.743267
-31.763658 -36.871909 -51.262297
-30.899787 -37.107869 -51.766565
-28.462297 -44.718954 -49.516777
-29.427214 -44.442438 -49.0215
-29.308882 -42.781109 -49.944645
-27.395298 -45.103817 -49.978178
-28.462297 -44.718954 -49.516777
-27.395298 -45.103817 -49.978178
-27.352566 -43.376705 -50.809544
-27.296287 -41.58449 -51.693342
-27.224742 -39.772318 -52.527187
-30.189307 -63.225266 -28.065531
-30.475431 -62.626381 -27.126502
-30.189307 -63.225266 -28.065531
-30.60129 -62.223849 -29.254807
-30.646547 -61.743259 -31.207523
-31.071607 -61.078361 -30.36833
-31.422128 -60.083862 -31.398623
-29.873781 -63.288359 -31.131599
-30.646547 -61.743259 -31.207523
-30.224302 -62.293859 -32.161892
-29.088406 -64.885373 -30.931497
-29.873781 -63.288359 -31.131599
-28.573113 -65.582493 -31.82451
-29.088406 -64.885373 -30.931497
-28.573113 -65.582493 -31.82451
-28.881704 -64.500847 -32.935993
-29.8031 -61.01005 -36.038581
-29.506156 -62.182805 -35.047606
-30.378816 -60.509856 -35.153406
-29.148966 -61.525698 -36.88256
-29.8031 -61.01005 -36.038581
-30.021626 -59.852749 -36.988361
-28.411578 -62.239874 -37.585544
-29.148966 -61.525698 -36.88256
-28.661741 -60.817065 -38.599159
-28.411578 -62.239874 -37.585544
-28.882231 -59.444607 -39.60643
-28.661741 -60.817065 -38.599159
-29.587983 -58.99594 -38.839611
-29.034501 -58.080201 -40.561146
-28.108258 -59.901325 -40.320694
-28.882231 -59.444607 -39.60643
-37.793138 -28.28592 -49.195931
-37.884785 -29.870667 -48.113506
-37.647363 -26.567255 -50.326162
-37.509864 -24.875367 -51.376896
-37.242294 -28.386527 -50.032739
-37.793138 -28.28592 -49.195931
-37.647363 -26.567255 -50.326162
-35.176521 -29.321699 -52.121527
-35.358193 -30.902079 -51.112578
-35.927734 -29.014597 -51.455826
-35.522553 -25.704308 -53.475037
-36.229322 -25.452887 -52.801922
-35.013945 -27.602849 -53.101618
-35.522553 -25.704308 -53.475037
-35.176521 -29.321699 -52.121527
-35.013945 -27.602849 -53.101618
-36.494791 -47.488243 -30.235622
-36.088755 -48.628348 -29.059013
-36.597915 -47.057654 -29.341949
-36.888077 -46.287598 -31.350054
-36.378916 -47.858291 -31.067117
-36.494791 -47.488243 -30.235622
-37.269845 -45.002836 -32.463962
-36.888077 -46.287598 -31.350054
-37.129087 -45.319145 -33.38702
-37.269845 -45.002836 -32.463962
-30.980466 -61.362364 -25.167615
-30.766179 -61.961225 -26.117432
-31.650528 -59.826988 -25.316287
-30.980466 -61.362364 -25.167615
-32.285918 -58.351456 -25.554659
-32.123441 -58.904094 -26.552619
-31.650528 -59.826988 -25.316287
-32.416978 -57.82106 -24.556535
-32.53293 -57.250177 -23.611238
-32.88989 -56.898167 -25.792867
-32.285918 -58.351456 -25.554659
-32.416978 -57.82106 -24.556535
-32.252527 -56.474518 -19.751708
-31.704896 -57.803749 -19.537895
-31.736281 -57.284779 -18.582826
-32.797345 -55.544407 -20.930217
-32.252527 -56.474518 -19.751708
-33.285637 -54.686682 -22.011968
-32.709435 -56.135763 -21.788527
-32.797345 -55.544407 -20.930217
-33.881196 -53.168655 -22.364744
-33.908953 -52.715887 -21.436976
-34.416601 -51.789217 -22.648062
-33.793285 -53.760012 -23.223053
-33.285637 -54.686682 -22.011968
-33.881196 -53.168655 -22.364744
-36.269161 -47.755654 -27.338856
-35.759346 -49.235163 -27.009815
-35.836628 -48.793059 -26.183332
-36.706375 -46.58466 -28.498241
-36.269161 -47.755654 -27.338856
-37.281405 -43.401531 -37.44066
-37.532299 -43.077621 -36.555769
-37.82054 -41.59415 -37.657928
-37.824678 -33.293681 -46.025202
-37.87178 -31.57137 -47.088763
-37.374275 -35.025553 -45.736687
-37.836893 -34.812638 -44.908869
-37.824678 -33.293681 -46.025202
-34.209618 -36.361603 -49.384918
-33.457013 -36.516617 -50.034347
-34.322237 -37.932964 -48.320914
-34.936369 -36.060597 -48.7442
-34.209618 -36.361603 -49.384918
-27.466788 -57.575382 -42.887967
-27.392895 -58.997003 -41.925206
-28.334422 -57.115297 -42.238171
-26.587574 -58.030307 -43.436972
-27.466788 -57.575382 -42.887967
-27.529101 -56.148601 -43.749938
-25.551387 -58.608511 -44.019628
-26.587574 -58.030307 -43.436972
-25.650993 -57.024183 -44.842095
-26.594623 -55.095676 -45.218212
-25.595729 -55.516333 -45.761364
-24.552492 -59.029167 -44.56278
-25.551387 -58.608511 -44.019628
-25.650993 -57.024183 -44.842095
3 0 24 22
3 1 87 88
3 1 89 90
3 2 27 25
3 2 29 27
3 91 30 92
3 93 32 94
3 3 35 33
3 3 37 35
3 96 95 38
3 97 42 98
3 99 98 40
3 97 98 99
3 100 44 101
3 102 101 42
3 100 101 102
3 104 103 44
3 4 48 46
3 6 49 23
3 6 50 49
3 105 52 106
3 8 107 109
3 107 53 108
3 107 108 109
3 8 54 53
3 10 110 112
3 110 55 111
3 110 111 112
3 10 56 55
3 10 113 115
3 115 114 56
3 113 114 115
3 5 116 118
3 118 117 47
3 116 117 118
3 11 57 26
3 11 119 121
3 121 120 57
3 119 120 121
3 11 122 123
3 12 58 28
3 12 59 58
3 124 60 125
3 126 61 127
3 128 127 60
3 126 127 128
3 130 129 62
3 15 131 133
3 131 64 132
3 131 132 133
3 15 65 64
3 134 66 135
3 136 67 137
3 138 137 66
3 136 137 138
3 140 139 67
3 14 68 63
3 16 69 31
3 16 70 69
3 7 71 51
3 17 72 34
3 17 73 72
3 17 74 73
3 18 75 36
3 18 76 75
3 13 141 143
3 141 77 142
3 141 142 143
3 19 78 39
3 19 79 78
3 9 144 146
3 144 80 145
3 144 145 146
3 20 81 41
3 20 82 81
3 20 83 82
3 21 84 43
3 21 85 84
3 21 86 85
3 148 147 45
3 22 23 4
3 24 23 22
3 24 6 23
3 149 8 150
3 151 10 152
3 154 153 10
3 25 26 5
3 27 26 25
3 27 11 26
3 27 28 11
3 29 28 27
3 29 12 28
3 30 155 156
3 30 157 159
3 157 15 158
3 157 158 159
3 160 31 161
3 162 161 14
3 160 161 162
3 32 163 165
3 163 31 164
3 163 164 165
3 32 16 31
3 33 34 7
3 35 34 33
3 35 17 34
3 35 36 17
3 37 36 35
3 37 18 36
3 38 39 13
3 166 39 167
3 168 167 38
3 166 167 168
3 169 19 170
3 171 170 39
3 169 170 171
3 40 41 9
3 42 41 40
3 42 20 41
3 42 43 20
3 44 43 42
3 44 21 43
3 44 45 21
3 172 45 173
3 174 173 44
3 172 173 174
3 177 176 45
3 175 176 177
3 46 178 180
3 178 47 179
3 178 179 180
3 48 47 46
3 48 5 47
3 23 48 4
3 49 48 23
3 49 5 48
3 49 25 5
3 50 25 49
3 50 2 25
3 181 51 182
3 52 183 185
3 183 51 184
3 183 184 185
3 52 7 51
3 186 52 187
3 53 188 190
3 188 52 189
3 188 189 190
3 53 7 52
3 53 33 7
3 54 33 53
3 54 3 33
3 191 9 192
3 55 193 194
3 55 195 197
3 195 9 196
3 195 196 197
3 55 40 9
3 56 40 55
3 56 198 200
3 200 199 40
3 198 199 200
3 56 201 202
3 204 203 56
3 206 205 10
3 47 207 208
3 210 209 47
3 26 211 213
3 213 212 5
3 211 212 213
3 57 214 216
3 216 215 26
3 214 215 216
3 57 217 218
3 57 219 220
3 222 221 57
3 28 223 225
3 225 224 11
3 223 224 225
3 58 226 228
3 228 227 28
3 226 227 228
3 58 229 230
3 58 231 232
3 59 233 235
3 235 234 58
3 233 234 235
3 59 236 238
3 236 1 237
3 236 237 238
3 239 13 240
3 60 241 242
3 60 243 245
3 243 13 244
3 243 244 245
3 60 38 13
3 61 38 60
3 61 246 248
3 248 247 38
3 246 247 248
3 249 61 250
3 251 61 252
3 254 253 61
3 62 63 0
3 255 63 256
3 257 256 62
3 255 256 257
3 258 14 259
3 260 259 63
3 258 259 260
3 261 14 262
3 264 263 14
3 265 46 266
3 267 46 268
3 269 4 270
3 271 270 46
3 269 270 271
3 64 272 273
3 64 274 276
3 274 4 275
3 274 275 276
3 64 22 4
3 65 22 64
3 65 0 22
3 277 30 278
3 277 278 279
3 280 30 281
3 282 15 283
3 284 283 30
3 282 283 284
3 66 285 287
3 285 286 287
3 66 288 290
3 288 15 289
3 288 289 290
3 66 65 15
3 67 65 66
3 67 0 65
3 67 62 0
3 291 62 292
3 293 292 67
3 291 292 293
3 295 294 62
3 63 24 0
3 68 24 63
3 68 6 24
3 31 68 14
3 69 68 31
3 69 6 68
3 69 50 6
3 70 50 69
3 70 2 50
3 51 296 298
3 296 32 297
3 296 297 298
3 71 32 51
3 71 16 32
3 34 71 7
3 72 71 34
3 72 16 71
3 72 70 16
3 73 70 72
3 73 2 70
3 73 29 2
3 74 29 73
3 74 12 29
3 36 74 17
3 75 74 36
3 75 12 74
3 75 59 12
3 76 59 75
3 76 1 59
3 77 299 300
3 77 301 303
3 301 8 302
3 301 302 303
3 39 77 13
3 78 77 39
3 78 8 77
3 78 54 8
3 79 54 78
3 79 3 54
3 80 304 305
3 80 306 308
3 306 19 307
3 306 307 308
3 41 80 9
3 81 80 41
3 81 19 80
3 81 79 19
3 82 79 81
3 82 3 79
3 82 37 3
3 83 37 82
3 83 18 37
3 43 83 20
3 84 83 43
3 84 18 83
3 84 76 18
3 85 76 84
3 85 1 76
3 85 309 311
3 311 310 1
3 309 310 311
3 86 312 314
3 314 313 85
3 312 313 314
3 86 315 316
3 45 86 21
3 317 86 318
3 319 318 45
3 317 318 319
3 322 321 86
3 320 321 322
