ply
format ascii 1.0
element vertex 476
property float x
property float y
property float z
element face 419
property list uchar int vertex_index
end_header
17.165039 62.778118 -51.248756
0.428223 62.079052 -47.410851
8.540997 63.255203 -50.456841
17.9678 45.193554 -51.349934
12.8407 77.410286 -49.363594
16.534964 90.682693 -45.302849
22.192945 77.413986 -48.906933
19.665134 84.51371 -47.581322
4.374492 62.968815 -49.228149
6.403233 56.612938 -50.766125
21.214096 61.589405 -50.79995
17.949324 54.369869 -51.459755
21.533321 52.553974 -50.746738
21.145306 42.764221 -50.338455
-1.131218 73.218102 -44.922554
1.968162 68.288681 -47.405254
10.779076 70.376343 -50.104755
11.458139 89.683609 -45.356598
14.863297 84.293373 -47.86274
17.670345 78.048195 -49.468719
19.783756 70.293678 -50.445625
23.860268 69.095352 -49.643829
14.643045 47.172108 -51.944386
15.06919 63.478512 -51.231594
13.728921 59.580128 -51.449574
15.753196 59.335384 -51.477226
22.809784 87.613541 -45.483536
6.499353 62.96479 -49.959423
5.317925 59.803925 -50.007427
7.389494 59.807594 -50.587509
23.058401 60.620899 -50.366348
21.421886 57.076668 -50.831066
23.225677 55.969437 -50.322517
23.117804 46.637821 -49.943901
10.39942 77.000694 -49.016449
9.621163 73.604095 -49.418224
11.999143 73.969505 -49.822144
12.161475 92.686913 -43.87851
14.131002 90.339096 -45.409489
13.359569 87.361961 -46.644241
15.862379 87.555275 -46.729485
20.985474 80.997055 -48.367168
18.672007 81.405151 -48.631306
20.009626 77.785126 -49.287769
18.979261 74.331573 -50.017651
21.207558 73.874168 -49.759262
21.873627 69.796425 -50.129803
23.119493 73.509895 -49.337795
18.161507 49.967972 -51.420113
16.244865 50.794983 -51.701271
16.375538 46.352188 -51.689243
10.738596 63.452293 -50.850136
9.428241 59.71788 -51.008495
11.526132 59.83041 -51.277443
8.987713 79.934113 -48.079395
11.443811 80.602898 -48.455406
18.320171 87.911064 -46.470192
21.954992 84.548866 -47.028275
23.107527 80.689171 -47.840897
24.235041 76.564171 -48.40163
17.697323 40.734245 -51.220325
16.092119 41.693829 -51.661697
2.34351 62.481956 -48.409122
1.471908 59.395813 -48.454041
3.398034 59.614597 -49.331532
4.330126 56.595242 -50.172081
8.245755 56.315083 -51.184509
7.063345 53.083477 -51.408825
19.240147 62.381611 -51.093239
17.809189 58.658913 -51.387508
19.619259 57.868408 -51.179447
19.825928 53.502277 -51.156521
19.828234 48.715607 -51.051674
23.296026 51.555119 -50.169823
21.546947 47.821487 -50.549229
19.684755 44.102001 -50.875591
-2.89034 72.054436 -43.798397
-1.451218 69.993248 -45.104664
-0.074422 67.779205 -46.302536
1.221365 65.096603 -47.43853
3.284893 65.675865 -48.397457
7.508834 66.73381 -49.789162
8.421195 70.351181 -49.58078
9.672305 66.790909 -50.309887
11.948254 67.047005 -50.671349
16.449327 66.899994 -50.977127
9.530905 91.943611 -43.728783
8.603617 89.106705 -44.950279
10.639567 86.651993 -46.476181
12.465988 84.109276 -47.665737
13.777616 80.999077 -48.697304
18.578606 66.718094 -50.897068
20.623388 65.982803 -50.692924
22.653254 65.412933 -50.29285
16.117533 55.308929 -51.619453
0.072367 60.492153 -47.459345
-0.481522 61.723297 -46.846724
24.024149 58.0135 -50.043104
23.142039 58.295168 -50.344432
23.940511 60.339231 -50.06502
13.547712 75.856037 -49.704098
13.126934 74.135647 -49.933373
12.419922 75.689896 -49.592869
15.7558 91.977081 -44.570364
17.030416 92.069794 -44.482645
15.332983 90.510895 -45.356169
14.553819 91.805283 -44.623684
15.7558 91.977081 -44.570364
12.240714 61.501879 -51.208294
11.132364 61.641351 -51.063789
11.846946 63.31282 -50.994641
12.958626 57.815459 -51.535007
13.938032 57.661066 -51.563358
9.387794 81.663296 -47.726785
8.135536 81.242627 -47.509276
10.615843 81.997688 -47.914791
10.215762 80.268506 -48.267401
9.387794 81.663296 -47.726785
23.015217 84.194912 -46.734646
22.382388 86.081204 -46.255905
23.442614 85.727249 -45.962277
23.591485 82.265064 -47.140957
22.53126 82.619019 -47.434586
23.015217 84.194912 -46.734646
24.127123 80.290501 -47.503302
23.591485 82.265064 -47.140957
16.773349 39.082971 -51.385864
17.500104 38.321228 -51.112232
5.816855 55.087559 -50.86121
4.780302 55.078711 -50.564188
5.36668 56.60409 -50.469103
9.198001 56.282111 -51.318439
8.836998 58.016481 -51.096502
9.789244 57.983509 -51.230433
7.312022 51.434095 -51.686514
8.037447 52.986677 -51.546801
6.390642 51.66675 -51.535263
7.312022 51.434095 -51.686514
24.105961 50.77363 -49.806176
24.161678 53.379059 -49.90268
20.188883 41.005093 -50.503414
19.458607 41.673983 -50.771982
20.415031 43.433111 -50.607023
-1.883426 74.224449 -44.262665
-0.893388 74.729233 -44.852078
-2.010779 72.636269 -44.360475
-2.762987 73.642617 -43.700587
-1.883426 74.224449 -44.262665
0.94687 68.033943 -46.853895
0.202219 69.356636 -46.266527
1.223511 69.611374 -46.817886
6.827687 68.209549 -49.387228
6.430362 66.492714 -49.473751
15.916626 68.863533 -50.772637
15.269921 67.0331 -50.928827
18.451088 84.618336 -47.669485
17.778607 86.317013 -47.11392
18.992652 86.212387 -47.025757
17.011979 79.708435 -49.108849
17.51281 81.386913 -48.690142
18.171176 79.726673 -49.050013
16.450198 77.908638 -49.493256
17.011979 79.708435 -49.108849
17.151941 76.261669 -49.789766
16.450198 77.908638 -49.493256
18.695191 70.563835 -50.506301
18.292943 72.582783 -50.292315
19.381509 72.312625 -50.231638
19.181181 68.505886 -50.671346
18.092616 68.776043 -50.732023
18.695191 70.563835 -50.506301
24.169151 66.838761 -49.702433
23.565644 64.997551 -50.026943
23.256761 67.254143 -49.968339
24.683613 74.637806 -48.552106
25.172494 76.219479 -48.015427
1.099604 57.884337 -48.545805
1.939781 57.989576 -48.942425
14.624208 49.386415 -51.889376
15.425118 51.197853 -51.767819
15.443955 48.983546 -51.822828
13.81088 47.570352 -52.019389
14.624208 49.386415 -51.889376
15.316153 42.31606 -51.833063
15.210947 40.07444 -51.835083
14.399055 61.52932 -51.340584
13.342109 61.376738 -51.294359
14.012244 63.32593 -51.18537
14.950169 57.538694 -51.577185
13.938032 57.661066 -51.563358
14.741059 59.457756 -51.4634
23.221299 88.96555 -44.57952
22.143438 89.091415 -44.98912
23.798229 87.275841 -45.120964
23.221299 88.96555 -44.57952
23.442614 85.727249 -45.962277
23.798229 87.275841 -45.120964
23.899443 45.949728 -49.560329
24.016851 48.314982 -49.693214
22.927515 44.066961 -49.791429
23.899443 45.949728 -49.560329
21.941266 42.130161 -49.988707
22.131555 44.701021 -50.141178
22.927515 44.066961 -49.791429
20.938837 40.382698 -50.191315
21.941266 42.130161 -49.988707
-0.097968 73.738255 -45.472309
-0.893388 74.729233 -44.852078
-0.326179 72.076085 -45.576536
-0.097968 73.738255 -45.472309
2.251629 70.075496 -47.302075
1.223511 69.611374 -46.817886
2.945259 68.69632 -47.810005
2.251629 70.075496 -47.302075
10.010291 75.302394 -49.217337
8.82973 75.029808 -48.976996
9.218858 76.728107 -48.776108
12.542499 72.382053 -50.110419
11.932465 70.585472 -50.251724
11.389109 72.172924 -49.963449
12.542499 72.382053 -50.110419
13.126934 74.135647 -49.933373
13.569056 92.979191 -43.858194
12.667454 94.078434 -43.026896
13.146238 91.513004 -44.643999
13.569056 92.979191 -43.858194
14.553819 91.805283 -44.623684
10.83819 58.039774 -51.364907
9.789244 57.983509 -51.230433
10.477187 59.774145 -51.142969
12.627527 59.705269 -51.363508
12.240714 61.501879 -51.208294
13.342109 61.376738 -51.294359
11.857232 57.9406 -51.448942
12.627527 59.705269 -51.363508
12.958626 57.815459 -51.535007
10.83819 58.039774 -51.364907
11.857232 57.9406 -51.448942
7.715172 79.612606 -47.776363
8.135536 81.242627 -47.509276
8.513005 78.194817 -48.307581
7.715172 79.612606 -47.776363
9.693566 78.467403 -48.547922
9.218858 76.728107 -48.776108
8.513005 78.194817 -48.307581
17.7864 90.790168 -45.123345
17.030416 92.069794 -44.482645
18.679004 89.404354 -45.707016
17.427567 89.296878 -45.886521
17.7864 90.790168 -45.123345
19.435709 87.877552 -46.295276
18.679004 89.404354 -45.707016
20.10819 86.178875 -46.850842
18.992652 86.212387 -47.025757
19.435709 87.877552 -46.295276
21.680515 87.728791 -45.801949
22.143438 89.091415 -44.98912
21.25312 86.196453 -46.574318
21.680515 87.728791 -45.801949
22.382388 86.081204 -46.255905
20.810063 84.531288 -47.304799
20.10819 86.178875 -46.850842
21.25312 86.196453 -46.574318
24.69088 78.228001 -47.783668
23.671284 78.626671 -48.121263
24.127123 80.290501 -47.503302
25.172494 76.219479 -48.015427
24.69088 78.228001 -47.783668
15.970747 39.562764 -51.60655
16.894721 41.214037 -51.441011
16.773349 39.082971 -51.385864
15.210947 40.07444 -51.835083
15.970747 39.562764 -51.60655
2.902844 58.098968 -49.381171
1.939781 57.989576 -48.942425
2.434971 59.505205 -48.892786
3.36889 56.589291 -49.801445
2.902844 58.098968 -49.381171
3.86408 58.10492 -49.751807
3.785884 55.112469 -50.263633
3.36889 56.589291 -49.801445
3.785884 55.112469 -50.263633
4.780302 55.078711 -50.564188
8.628652 54.60248 -51.434642
9.198001 56.282111 -51.318439
7.65455 54.69928 -51.296667
8.628652 54.60248 -51.434642
8.037447 52.986677 -51.546801
6.146911 53.322828 -51.18256
5.816855 55.087559 -50.86121
6.733289 54.848208 -51.087475
6.146911 53.322828 -51.18256
6.390642 51.66675 -51.535263
24.126503 55.586218 -49.979027
24.024149 58.0135 -50.043104
23.260852 53.762278 -50.24617
24.126503 55.586218 -49.979027
24.161678 53.379059 -49.90268
23.206915 49.09647 -50.056862
24.105961 50.77363 -49.806176
24.016851 48.314982 -49.693214
18.464892 39.990105 -50.944349
18.691039 42.418123 -51.047958
19.458607 41.673983 -50.771982
17.500104 38.321228 -51.112232
18.464892 39.990105 -50.944349
20.188883 41.005093 -50.503414
20.938837 40.382698 -50.191315
-0.140291 63.331335 -46.856173
-0.481522 61.723297 -46.846724
-3.608538 72.972767 -43.109369
-2.762987 73.642617 -43.700587
-3.769024 71.495991 -43.09737
-3.608538 72.972767 -43.109369
-3.068246 70.536358 -43.808757
-3.769024 71.495991 -43.09737
-2.348686 69.505764 -44.461891
-3.068246 70.536358 -43.808757
-2.170779 71.023842 -44.451531
-1.706226 68.402657 -45.103026
-2.348686 69.505764 -44.461891
-0.486178 70.463657 -45.667591
-1.291218 71.605675 -45.013609
-0.326179 72.076085 -45.576536
-0.76282 68.886226 -45.7036
-0.486178 70.463657 -45.667591
0.202219 69.356636 -46.266527
-1.017828 67.295635 -45.701962
-1.706226 68.402657 -45.103026
-0.76282 68.886226 -45.7036
-0.391614 66.181411 -46.302016
-1.017828 67.295635 -45.701962
0.25628 64.840111 -46.870013
-0.391614 66.181411 -46.302016
0.573472 66.437904 -46.870533
0.824794 63.587828 -47.42469
-0.140291 63.331335 -46.856173
0.25628 64.840111 -46.870013
3.603625 67.389912 -48.306106
2.626527 66.982273 -47.901356
2.945259 68.69632 -47.810005
4.318391 65.963741 -48.777899
3.603625 67.389912 -48.306106
4.86319 64.610216 -49.193245
3.829693 64.32234 -48.812803
4.318391 65.963741 -48.777899
5.925621 64.608204 -49.558881
5.436922 62.966803 -49.593786
4.86319 64.610216 -49.193245
7.004093 64.8493 -49.874292
5.925621 64.608204 -49.558881
6.430362 66.492714 -49.473751
8.416644 73.406101 -49.124855
8.82973 75.029808 -48.976996
7.81666 71.779644 -49.206133
8.416644 73.406101 -49.124855
9.021179 71.977638 -49.499502
7.283868 70.018234 -49.283037
7.81666 71.779644 -49.206133
7.965015 68.542496 -49.684971
6.827687 68.209549 -49.387228
7.283868 70.018234 -49.283037
12.451776 65.110176 -50.905247
11.846946 63.31282 -50.994641
11.343425 65.249649 -50.760742
12.517055 68.920803 -50.535021
11.363665 68.711674 -50.388052
11.932465 70.585472 -50.251724
13.019384 67.106606 -50.775938
12.517055 68.920803 -50.535021
12.451776 65.110176 -50.905247
13.019384 67.106606 -50.775938
14.579852 65.322359 -51.056061
14.012244 63.32593 -51.18537
15.759259 65.189253 -51.10436
14.579852 65.322359 -51.056061
15.269921 67.0331 -50.928827
11.283219 93.789792 -42.95908
12.667454 94.078434 -43.026896
9.967934 93.41814 -42.884217
11.283219 93.789792 -42.95908
10.84619 92.315262 -43.803646
8.603027 92.878795 -42.841164
9.967934 93.41814 -42.884217
8.103337 91.472225 -43.53829
8.603027 92.878795 -42.841164
7.639692 90.053772 -44.149038
8.103337 91.472225 -43.53829
9.067261 90.525158 -44.339531
7.337747 88.553524 -44.782022
6.373823 89.500591 -43.980781
7.639692 90.053772 -44.149038
8.322784 87.541413 -45.514282
7.337747 88.553524 -44.782022
9.340759 86.314056 -46.277233
8.322784 87.541413 -45.514282
9.621592 87.879349 -45.71323
10.213721 85.022236 -46.925179
9.340759 86.314056 -46.277233
11.126931 83.750878 -47.519956
10.213721 85.022236 -46.925179
11.552777 85.380634 -47.070959
11.954899 82.356087 -48.060572
10.615843 81.997688 -47.914791
11.126931 83.750878 -47.519956
16.549711 86.139118 -47.243567
17.091275 87.73317 -46.599838
17.778607 86.317013 -47.11392
16.05017 84.508167 -47.810194
15.362838 85.924324 -47.296112
16.549711 86.139118 -47.243567
17.954525 83.064056 -48.194477
18.451088 84.618336 -47.669485
19.168571 82.95943 -48.106314
17.954525 83.064056 -48.194477
17.51281 81.386913 -48.690142
15.608455 82.831024 -48.305859
16.05017 84.508167 -47.810194
15.065614 81.183876 -48.723141
14.320456 82.646225 -48.280022
15.608455 82.831024 -48.305859
14.503833 79.384079 -49.107548
15.065614 81.183876 -48.723141
14.035375 77.589684 -49.440693
13.309158 79.204681 -49.030449
14.503833 79.384079 -49.107548
13.547712 75.856037 -49.704098
14.035375 77.589684 -49.440693
17.806399 74.403358 -50.064232
17.151941 76.261669 -49.789766
18.324803 76.189884 -49.743185
17.806399 74.403358 -50.064232
18.292943 72.582783 -50.292315
17.027976 68.866993 -50.772053
15.916626 68.863533 -50.772637
17.513967 66.809044 -50.937098
17.027976 68.866993 -50.772053
18.092616 68.776043 -50.732023
23.768218 62.601534 -50.063692
22.855828 63.016916 -50.329599
23.565644 64.997551 -50.026943
23.940511 60.339231 -50.06502
23.768218 62.601534 -50.063692
24.125839 73.110668 -49.020189
23.677267 75.037033 -48.869712
24.683613 74.637806 -48.552106
24.496226 70.903396 -49.173206
23.48988 71.302624 -49.490812
24.125839 73.110668 -49.020189
24.8236 68.751949 -49.284477
24.496226 70.903396 -49.173206
24.169151 66.838761 -49.702433
24.8236 68.751949 -49.284477
0.59421 59.150533 -47.98094
0.072367 60.492153 -47.459345
0.950066 60.737432 -47.932446
0.59421 59.150533 -47.98094
1.099604 57.884337 -48.545805
15.132338 55.525467 -51.648298
14.950169 57.538694 -51.577185
15.935365 57.322156 -51.548339
15.361452 53.454826 -51.72691
16.181199 53.051956 -51.660362
15.425118 51.197853 -51.767819
15.132338 55.525467 -51.648298
15.361452 53.454826 -51.72691
15.457862 44.645239 -51.846836
16.233829 44.023009 -51.67547
15.316153 42.31606 -51.833063
14.591616 45.055199 -51.974407
15.509291 46.762148 -51.816814
15.457862 44.645239 -51.846836
13.788885 45.487535 -52.104517
14.591616 45.055199 -51.974407
13.81088 47.570352 -52.019389
13.788885 45.487535 -52.104517
3 0 25 23
3 1 95 96
3 2 29 27
3 97 32 98
3 99 98 30
3 97 98 99
3 4 36 34
3 4 100 102
3 102 101 36
3 100 101 102
3 5 103 104
3 5 105 107
3 105 38 106
3 105 106 107
3 5 40 38
3 6 43 41
3 6 45 43
3 6 47 45
3 3 50 48
3 108 53 109
3 110 109 51
3 108 109 110
3 112 111 24
3 113 54 114
3 115 55 116
3 117 116 54
3 115 116 117
3 118 57 119
3 120 119 26
3 118 119 120
3 121 58 122
3 123 122 57
3 121 122 123
3 125 124 58
3 127 126 60
3 8 64 62
3 9 65 28
3 9 128 130
3 130 129 65
3 128 129 130
3 131 66 132
3 133 132 52
3 131 132 133
3 134 67 135
3 137 136 67
3 10 70 68
3 12 71 31
3 12 72 71
3 138 73 139
3 13 74 33
3 13 75 74
3 13 140 142
3 142 141 75
3 140 141 142
3 14 143 144
3 14 145 147
3 145 76 146
3 145 146 147
3 14 77 76
3 15 148 150
3 148 78 149
3 148 149 150
3 15 79 78
3 15 80 79
3 151 81 152
3 16 82 35
3 16 83 82
3 16 84 83
3 153 85 154
3 17 86 37
3 17 87 86
3 17 88 87
3 18 89 39
3 18 90 89
3 7 155 157
3 157 156 56
3 155 156 157
3 19 158 160
3 160 159 42
3 158 159 160
3 19 161 162
3 19 163 164
3 20 165 167
3 167 166 44
3 165 166 167
3 20 168 170
3 168 91 169
3 168 169 170
3 20 92 91
3 21 93 46
3 21 171 173
3 173 172 93
3 171 172 173
3 175 174 59
3 177 176 63
3 11 94 69
3 22 178 180
3 180 179 49
3 178 179 180
3 22 181 182
3 184 183 61
3 23 185 187
3 185 24 186
3 185 186 187
3 25 24 23
3 25 188 190
3 190 189 24
3 188 189 190
3 191 26 192
3 193 26 194
3 196 195 26
3 27 28 8
3 29 28 27
3 29 9 28
3 30 31 10
3 32 31 30
3 32 12 31
3 197 33 198
3 199 33 200
3 201 13 202
3 203 202 33
3 201 202 203
3 205 204 13
3 206 14 207
3 209 208 14
3 210 15 211
3 213 212 15
3 34 214 216
3 214 35 215
3 214 215 216
3 36 35 34
3 36 16 35
3 36 217 219
3 219 218 16
3 217 218 219
3 221 220 36
3 222 37 223
3 38 224 226
3 224 37 225
3 224 225 226
3 38 17 37
3 38 39 17
3 40 39 38
3 40 18 39
3 41 42 7
3 43 42 41
3 43 19 42
3 43 44 19
3 45 44 43
3 45 20 44
3 45 46 20
3 47 46 45
3 47 21 46
3 48 49 11
3 50 49 48
3 50 22 49
3 51 52 2
3 53 52 51
3 53 227 229
3 229 228 52
3 227 228 229
3 24 230 232
3 230 53 231
3 230 231 232
3 233 53 234
3 235 234 24
3 233 234 235
3 237 236 53
3 54 238 239
3 54 240 241
3 54 242 244
3 242 34 243
3 242 243 244
3 55 34 54
3 55 4 34
3 245 5 246
3 247 56 248
3 249 248 5
3 247 248 249
3 250 56 251
3 252 7 253
3 254 253 56
3 252 253 254
3 26 255 256
3 57 257 259
3 259 258 26
3 257 258 259
3 57 260 262
3 260 7 261
3 260 261 262
3 57 41 7
3 58 41 57
3 58 6 41
3 58 59 6
3 263 59 264
3 265 264 58
3 263 264 265
3 267 266 59
3 60 61 3
3 268 61 269
3 270 269 60
3 268 269 270
3 272 271 61
3 62 63 1
3 64 63 62
3 64 273 275
3 275 274 63
3 273 274 275
3 28 64 8
3 65 64 28
3 65 276 278
3 278 277 64
3 276 277 278
3 65 279 280
3 282 281 65
3 52 29 2
3 66 29 52
3 66 9 29
3 283 66 284
3 67 285 287
3 285 66 286
3 285 286 287
3 67 9 66
3 67 288 290
3 290 289 9
3 288 289 290
3 292 291 67
3 68 69 0
3 70 69 68
3 70 11 69
3 31 70 10
3 71 70 31
3 71 11 70
3 71 48 11
3 72 48 71
3 72 3 48
3 293 32 294
3 73 295 297
3 295 32 296
3 295 296 297
3 73 12 32
3 33 298 300
3 298 73 299
3 298 299 300
3 74 73 33
3 74 12 73
3 74 72 12
3 75 72 74
3 75 3 72
3 75 60 3
3 301 60 302
3 303 302 75
3 301 302 303
3 305 304 60
3 307 306 13
3 308 1 309
3 76 310 311
3 76 312 313
3 76 314 315
3 77 316 318
3 318 317 76
3 316 317 318
3 77 319 320
3 321 77 322
3 323 322 14
3 321 322 323
3 78 324 326
3 324 77 325
3 324 325 326
3 78 327 329
3 329 328 77
3 327 328 329
3 78 330 331
3 79 332 334
3 334 333 78
3 332 333 334
3 79 335 337
3 335 1 336
3 335 336 337
3 79 62 1
3 80 62 79
3 80 8 62
3 338 80 339
3 340 339 15
3 338 339 340
3 341 80 342
3 343 8 344
3 345 344 80
3 343 344 345
3 346 27 347
3 348 347 8
3 346 347 348
3 81 349 351
3 349 27 350
3 349 350 351
3 81 2 27
3 35 352 353
3 82 354 356
3 356 355 35
3 354 355 356
3 82 357 358
3 82 359 361
3 359 81 360
3 359 360 361
3 83 81 82
3 83 2 81
3 83 51 2
3 84 51 83
3 84 362 364
3 364 363 51
3 362 363 364
3 365 84 366
3 367 366 16
3 365 366 367
3 368 84 369
3 371 370 84
3 372 23 373
3 85 374 376
3 374 23 375
3 374 375 376
3 85 0 23
3 37 377 378
3 86 379 381
3 381 380 37
3 379 380 381
3 86 382 383
3 86 384 385
3 87 386 388
3 388 387 86
3 386 387 388
3 87 389 391
3 389 390 391
3 87 392 393
3 88 394 396
3 396 395 87
3 394 395 396
3 88 397 398
3 39 88 17
3 89 88 39
3 89 399 401
3 401 400 88
3 399 400 401
3 89 402 404
3 402 55 403
3 402 403 404
3 90 55 89
3 90 4 55
3 56 40 5
3 405 40 406
3 407 406 56
3 405 406 407
3 408 18 409
3 410 409 40
3 408 409 410
3 42 411 413
3 413 412 7
3 411 412 413
3 415 414 42
3 416 18 417
3 418 90 419
3 420 419 18
3 418 419 420
3 421 90 422
3 423 4 424
3 425 424 90
3 423 424 425
3 427 426 4
3 44 428 430
3 430 429 19
3 428 429 430
3 432 431 44
3 433 85 434
3 91 435 437
3 435 85 436
3 435 436 437
3 91 0 85
3 91 68 0
3 92 68 91
3 92 10 68
3 46 92 20
3 93 92 46
3 93 10 92
3 93 30 10
3 438 30 439
3 440 439 93
3 438 439 440
3 442 441 30
3 59 47 6
3 443 47 444
3 445 444 59
3 443 444 445
3 446 21 447
3 448 447 47
3 446 447 448
3 449 21 450
3 452 451 21
3 63 453 455
3 455 454 1
3 453 454 455
3 457 456 63
3 69 25 0
3 94 25 69
3 94 458 460
3 460 459 25
3 458 459 460
3 49 94 11
3 461 94 462
3 463 462 49
3 461 462 463
3 465 464 94
3 61 50 3
3 466 50 467
3 468 467 61
3 466 467 468
3 469 22 470
3 471 470 50
3 469 470 471
3 472 22 473
3 475 474 22
