ply
format ascii 1.0
element vertex 48
property float x
property float y
property float z
element face 28
property list uchar int vertex_index
end_header
16.698603 23.728895 -27.252743
16.356121 33.426601 -38.076279
15.719032 33.477089 -35.578976
15.617129 35.519581 -39.741993
16.568314 24.848819 -27.973461
16.197039 24.781385 -26.948895
15.773134 34.496172 -37.71883
15.45459 34.521416 -36.470179
16.037577 33.451845 -36.827627
15.986625 34.473091 -38.909136
15.403638 35.542662 -38.551687
15.773134 34.496172 -37.71883
17.144936 23.892039 -28.358018
17.286566 22.825336 -27.626511
16.002672 32.285376 -34.776457
15.443652 33.405227 -34.309019
16.380064 32.372808 -36.08016
16.002672 32.285376 -34.776457
16.698608 32.347564 -37.328812
16.037577 33.451845 -36.827627
16.380064 32.372808 -36.08016
16.328069 23.63344 -26.299053
16.197039 24.781385 -26.948895
16.822405 22.655293 -26.563448
16.328069 23.63344 -26.299053
17.286566 22.825336 -27.626511
16.822405 22.655293 -26.563448
16.568314 24.848819 -27.973461
17.144936 23.892039 -28.358018
15.213683 34.545122 -35.135052
15.443652 33.405227 -34.309019
15.213683 34.545122 -35.135052
15.45459 34.521416 -36.470179
15.012686 36.632471 -39.22798
15.403638 35.542662 -38.551687
15.185383 36.495907 -40.476852
15.012686 36.632471 -39.22798
17.014452 32.595754 -38.733725
16.698608 32.347564 -37.328812
16.63378 33.550912 -39.49351
17.014452 32.595754 -38.733725
16.264284 34.597403 -40.326366
15.986625 34.473091 -38.909136
16.63378 33.550912 -39.49351
15.790714 35.579489 -41.097605
16.264284 34.597403 -40.326366
15.185383 36.495907 -40.476852
15.790714 35.579489 -41.097605
3 0 4 5
3 1 6 8
3 8 7 2
3 6 7 8
3 1 9 11
3 9 3 10
3 9 10 11
3 13 12 0
3 14 2 15
3 16 2 17
3 18 1 19
3 20 19 2
3 18 19 20
3 21 0 22
3 23 0 24
3 26 25 0
3 28 27 0
3 2 29 30
3 32 31 2
3 3 33 34
3 3 35 36
3 37 1 38
3 39 1 40
3 41 3 42
3 43 42 1
3 41 42 43
3 44 3 45
3 47 46 3
