ply
format ascii 1.0
element vertex 83
property float x
property float y
property float z
element face 62
property list uchar int vertex_index
end_header
36.076595 -20.651478 28.332035
34.166634 -24.04501 30.001387
37.008064 -21.260544 26.479818
35.455025 -26.813988 27.337948
37.209911 -25.466599 24.588924
33.986542 -21.831013 30.805513
35.17971 -22.442478 29.199425
34.319271 -26.365843 29.064978
35.238682 -24.645977 28.452801
36.217484 -22.893373 27.501551
37.083801 -23.5455 25.62788
36.49452 -19.817355 27.765556
36.021038 -19.512048 28.649968
36.542329 -20.956011 27.405926
36.960254 -20.121887 26.839447
36.49452 -19.817355 27.765556
34.076588 -22.938012 30.40345
33.426721 -22.718849 31.147519
33.516768 -23.825847 30.745456
34.341694 -27.513861 28.594392
33.742964 -27.208707 29.419826
35.768976 -24.880007 27.53212
35.346853 -25.729982 27.895375
35.877148 -25.964013 26.974694
36.258377 -24.003706 27.056495
35.728083 -23.769675 27.977176
35.768976 -24.880007 27.53212
36.691536 -24.329769 26.11966
36.650643 -23.219437 26.564715
36.258377 -24.003706 27.056495
37.513645 -24.608751 24.127885
37.552 -25.650126 23.564985
37.332224 -20.458745 25.903067
36.960254 -20.121887 26.839447
37.362394 -21.522938 25.543298
37.332224 -20.458745 25.903067
33.604444 -25.000678 30.309849
33.516768 -23.825847 30.745456
35.480598 -27.900386 26.816558
34.909571 -27.737933 27.730877
35.938423 -27.06431 26.392862
35.480598 -27.900386 26.816558
35.877148 -25.964013 26.974694
35.938423 -27.06431 26.392862
36.815866 -26.390615 25.018349
36.754591 -25.290318 25.600181
37.232256 -26.45046 24.061625
36.815866 -26.390615 25.018349
37.552 -25.650126 23.564985
37.232256 -26.45046 24.061625
35.549423 -20.437692 29.135988
36.021038 -19.512048 28.649968
33.31467 -21.585618 31.542754
33.426721 -22.718849 31.147519
33.899769 -20.669246 31.156271
33.31467 -21.585618 31.542754
34.504396 -21.027459 30.372727
33.899769 -20.669246 31.156271
35.10098 -21.333192 29.569683
34.504396 -21.027459 30.372727
34.583126 -22.136745 30.002469
35.628152 -21.546978 28.76573
35.549423 -20.437692 29.135988
35.10098 -21.333192 29.569683
33.680763 -26.161094 29.841645
33.742964 -27.208707 29.419826
34.242953 -25.205427 29.533183
33.604444 -25.000678 30.309849
33.680763 -26.161094 29.841645
34.887148 -26.589916 28.201463
34.341694 -27.513861 28.594392
34.909571 -27.737933 27.730877
37.400262 -22.665416 25.11733
37.362394 -21.522938 25.543298
37.045932 -22.403022 26.053849
37.146856 -24.506049 25.108402
36.691536 -24.329769 26.11966
36.754591 -25.290318 25.600181
37.45059 -23.648202 24.647362
37.146856 -24.506049 25.108402
37.513645 -24.608751 24.127885
37.400262 -22.665416 25.11733
37.45059 -23.648202 24.647362
3 0 11 12
3 0 13 15
3 13 2 14
3 13 14 15
3 1 16 18
3 16 5 17
3 16 17 18
3 1 6 5
3 19 7 20
3 21 8 22
3 23 22 3
3 21 22 23
3 24 9 25
3 26 25 8
3 24 25 26
3 27 10 28
3 29 28 9
3 27 28 29
3 31 30 4
3 2 32 33
3 2 34 35
3 36 1 37
3 38 3 39
3 40 3 41
3 43 42 3
3 44 4 45
3 46 4 47
3 49 48 4
3 50 0 51
3 5 52 53
3 5 54 55
3 5 56 57
3 6 58 60
3 60 59 5
3 58 59 60
3 6 61 63
3 61 0 62
3 61 62 63
3 7 64 65
3 7 66 68
3 66 1 67
3 66 67 68
3 3 69 71
3 69 7 70
3 69 70 71
3 8 7 3
3 8 1 7
3 8 6 1
3 9 6 8
3 9 0 6
3 9 2 0
3 10 2 9
3 10 72 74
3 74 73 2
3 72 73 74
3 4 75 77
3 75 10 76
3 75 76 77
3 78 10 79
3 80 79 4
3 78 79 80
3 82 81 10
