ply
format ascii 1.0
element vertex 175
property float x
property float y
property float z
element face 155
property list uchar int vertex_index
end_header
-8.736671 93.161316 -27.075119
-5.166464 97.577583 -17.938803
-9.898586 89.508171 -30.724237
-11.625905 91.296135 -21.892733
-12.888869 88.368561 -25.769384
-7.972806 94.286812 -12.374844
-7.272789 95.689697 -22.750813
-3.750025 97.448509 -27.959652
-10.015993 93.122688 -17.214546
-9.512152 91.356277 -28.906168
-7.774937 91.817268 -31.359959
-7.143313 93.667824 -29.568913
-10.221039 92.374077 -24.534462
-12.314219 89.958305 -23.974653
-10.992281 90.791183 -26.385466
-11.364575 89.269501 -28.195992
-6.216718 96.772263 -20.459303
-4.628001 97.885994 -23.178078
-3.622553 98.856285 -20.787525
-6.742817 95.921799 -15.074112
-9.080788 93.735703 -14.842319
-7.642972 95.438034 -17.782761
-8.752362 94.484741 -20.031054
-1.110627 99.300171 -28.346409
-2.042501 97.695381 -30.528759
-13.005133 89.847382 -19.110861
-14.156043 87.475716 -23.24012
-7.845289 94.711861 -25.117792
-6.262741 95.400459 -27.662449
-5.598841 96.671387 -25.448278
-2.837345 98.796211 -25.805704
-0.290463 100.570267 -25.917879
2.437822 102.215584 -26.092787
-10.285757 91.943306 -11.97864
-12.174157 90.764694 -16.807575
-10.907909 92.284859 -19.553406
-9.512635 93.565521 -22.413719
-4.658158 95.781204 -30.064217
-0.191877 99.381256 -29.631191
0.166801 100.103863 -28.444295
-8.987696 89.705501 -31.896214
-10.060829 88.548435 -31.401728
-6.846606 91.824562 -32.631342
-6.593718 92.852154 -31.707495
-12.624827 90.052315 -21.615309
-13.314442 89.327938 -20.224373
-12.315519 90.571759 -20.501797
-13.725136 87.139072 -25.332964
-14.358722 86.69265 -24.068333
-13.522456 87.922139 -24.504752
-13.079929 87.535923 -26.522002
-13.725136 87.139072 -25.332964
-10.862958 88.408528 -30.185776
-11.595952 88.289193 -28.921654
-10.631581 89.388836 -29.460114
-10.060829 88.548435 -31.401728
-10.862958 88.408528 -30.185776
-2.360494 99.369228 -24.571835
-3.732673 98.341103 -24.491891
-3.255822 98.914119 -23.258021
-1.087052 100.256256 -24.627922
-1.563904 99.683239 -25.861791
-2.360494 99.369228 -24.571835
2.899955 102.729816 -24.743053
1.574128 101.943013 -24.759776
3.879647 102.965084 -26.154707
2.899955 102.729816 -24.743053
-9.129282 93.115059 -12.176742
-9.795765 92.082905 -10.744119
-8.63929 93.254658 -10.942221
-10.6189 92.316848 -15.875991
-10.151298 92.623356 -14.689878
-9.548391 93.429195 -16.028433
-11.095075 91.943691 -17.01106
-11.697982 91.137852 -15.672506
-10.6189 92.316848 -15.875991
-2.446298 96.786773 -31.55304
-1.047172 97.70068 -31.814993
-6.277906 93.777432 -30.811972
-6.593718 92.852154 -31.707495
-7.459125 92.742546 -30.464436
-2.753097 99.399265 -22.062745
-3.255822 98.914119 -23.258021
-4.125277 98.371139 -21.982802
-0.657814 98.578861 -30.722366
-1.576564 98.497776 -29.437584
-0.191877 99.381256 -29.631191
-1.047172 97.70068 -31.814993
-0.657814 98.578861 -30.722366
-7.925871 90.86005 -32.214075
-8.987696 89.705501 -31.896214
-8.836761 90.66272 -31.042098
-7.925871 90.86005 -32.214075
-6.846606 91.824562 -32.631342
-13.908317 88.637352 -18.917006
-13.61728 89.024998 -17.753946
-13.908317 88.637352 -18.917006
-13.314442 89.327938 -20.224373
-12.968984 89.3834 -22.656269
-12.624827 90.052315 -21.615309
-11.970062 90.62722 -22.933693
-13.889896 88.142105 -22.289003
-12.968984 89.3834 -22.656269
-13.235131 88.717011 -23.607387
-14.801766 86.812649 -21.911248
-13.889896 88.142105 -22.289003
-14.968166 86.170856 -22.822508
-14.801766 86.812649 -21.911248
-14.968166 86.170856 -22.822508
-14.358722 86.69265 -24.068333
-12.317782 87.986393 -27.735306
-13.079929 87.535923 -26.522002
-12.126722 88.819031 -26.982688
-12.317782 87.986393 -27.735306
-11.595952 88.289193 -28.921654
-3.868447 98.594867 -18.047649
-4.706847 97.809082 -16.617118
-7.529026 94.312473 -10.979295
-8.63929 93.254658 -10.942221
-6.763165 95.354931 -12.36773
-7.529026 94.312473 -10.979295
-6.14817 96.172425 -13.717364
-7.357812 95.104305 -13.724478
-6.763165 95.354931 -12.36773
-5.495023 96.98119 -15.184772
-6.14817 96.172425 -13.717364
-4.706847 97.809082 -16.617118
-5.954641 96.749691 -16.506457
-5.495023 96.98119 -15.184772
0.576883 100.738911 -27.23003
0.166801 100.103863 -28.444295
-0.700545 99.935219 -27.132144
-3.096491 99.234218 -19.472009
-4.394509 98.216934 -19.363164
-3.868447 98.594867 -18.047649
-2.311205 99.806465 -20.834605
-3.096491 99.234218 -19.472009
-2.753097 99.399265 -22.062745
-2.311205 99.806465 -20.834605
0.209985 101.120354 -24.672322
-1.087052 100.256256 -24.627922
1.07368 101.392926 -26.005333
0.209985 101.120354 -24.672322
1.574128 101.943013 -24.759776
1.941026 101.56157 -27.317484
0.576883 100.738911 -27.23003
1.07368 101.392926 -26.005333
3.32323 102.314778 -27.396031
1.941026 101.56157 -27.317484
3.32323 102.314778 -27.396031
3.879647 102.965084 -26.154707
-10.826071 90.951229 -10.547383
-9.795765 92.082905 -10.744119
-11.34607 90.768463 -11.868325
-10.826071 90.951229 -10.547383
-10.753782 91.727158 -13.258039
-9.683273 92.839505 -13.41048
-10.151298 92.623356 -14.689878
-11.34607 90.768463 -11.868325
-10.753782 91.727158 -13.258039
-12.722644 89.95549 -15.565927
-11.697982 91.137852 -15.672506
-13.201791 89.483654 -16.602303
-12.722644 89.95549 -15.565927
-12.589645 90.306038 -17.959218
-13.61728 89.024998 -17.753946
-13.201791 89.483654 -16.602303
-5.035329 94.834122 -31.059624
-6.277906 93.777432 -30.811972
-5.900735 94.724514 -29.816565
-3.754126 95.829685 -31.320768
-3.350329 96.738293 -30.296488
-2.446298 96.786773 -31.55304
-5.035329 94.834122 -31.059624
-3.754126 95.829685 -31.320768
3 0 11 9
3 0 14 12
3 0 9 14
3 1 18 16
3 1 21 19
3 1 16 21
3 39 38 23
3 2 40 41
3 43 42 10
3 3 44 46
3 46 45 25
3 44 45 46
3 4 26 13
3 4 47 49
3 49 48 26
3 47 48 49
3 4 50 51
3 2 52 54
3 54 53 15
3 52 53 54
3 2 55 56
3 6 29 27
3 57 30 58
3 59 58 17
3 57 58 59
3 60 31 61
3 62 61 30
3 60 61 62
3 63 32 64
3 66 65 32
3 5 67 69
3 67 33 68
3 67 68 69
3 8 70 72
3 72 71 20
3 70 71 72
3 8 73 75
3 73 34 74
3 73 74 75
3 8 35 34
3 6 36 22
3 6 27 36
3 7 37 28
3 77 76 24
3 9 10 2
3 11 10 9
3 11 78 80
3 80 79 10
3 78 79 80
3 12 13 3
3 14 13 12
3 14 4 13
3 14 15 4
3 9 15 14
3 9 2 15
3 16 17 6
3 18 17 16
3 18 81 83
3 83 82 17
3 81 82 83
3 19 20 5
3 21 20 19
3 21 8 20
3 21 22 8
3 16 22 21
3 16 6 22
3 23 24 7
3 84 24 85
3 86 85 23
3 84 85 86
3 88 87 24
3 10 89 91
3 91 90 2
3 89 90 91
3 93 92 10
3 25 94 95
3 97 96 25
3 13 98 100
3 100 99 3
3 98 99 100
3 26 101 103
3 103 102 13
3 101 102 103
3 26 104 105
3 26 106 107
3 109 108 26
3 15 110 112
3 112 111 4
3 110 111 112
3 114 113 15
3 116 115 1
3 117 5 118
3 119 5 120
3 121 19 122
3 123 122 5
3 121 122 123
3 124 19 125
3 126 1 127
3 128 127 19
3 126 127 128
3 27 28 0
3 29 28 27
3 29 7 28
3 17 29 6
3 30 29 17
3 30 7 29
3 30 23 7
3 31 23 30
3 31 129 131
3 131 130 23
3 129 130 131
3 132 18 133
3 134 133 1
3 132 133 134
3 135 18 136
3 138 137 18
3 139 31 140
3 32 141 143
3 141 31 142
3 141 142 143
3 32 144 146
3 146 145 31
3 144 145 146
3 32 147 148
3 150 149 32
3 33 151 152
3 33 153 154
3 20 33 5
3 155 33 156
3 157 156 20
3 155 156 157
3 159 158 33
3 34 160 161
3 34 162 163
3 34 164 166
3 164 25 165
3 164 165 166
3 35 25 34
3 35 3 25
3 22 35 8
3 36 35 22
3 36 3 35
3 36 12 3
3 27 12 36
3 27 0 12
3 28 11 0
3 37 11 28
3 37 167 169
3 169 168 11
3 167 168 169
3 24 37 7
3 170 37 171
3 172 171 24
3 170 171 172
3 174 173 37
