ply
format ascii 1.0
element vertex 129
property float x
property float y
property float z
element face 105
property list uchar int vertex_index
end_header
-25.757992 -66.42749 5.78307
-24.965277 -65.926804 0.646303
-25.205795 -71.016357 2.373727
-25.816595 -71.512871 7.653046
-24.580334 -65.412254 -1.786505
-24.657997 -68.096275 -1.0421
-26.115307 -66.791336 8.350996
-26.061766 -69.389748 9.226228
-25.748426 -68.902863 6.629049
-25.425175 -73.470406 3.221106
-25.372591 -66.24662 3.247336
-25.394836 -68.788879 4.002036
-25.041233 -68.297462 1.505628
-24.856821 -70.413864 -0.152948
-26.210567 -64.28933 7.36253
-25.42577 -63.644749 2.313702
-25.035368 -63.428429 0.019277
-24.622513 -62.849072 -2.518426
-24.830635 -60.282894 -3.040659
-25.100449 -57.743019 -3.799956
-25.53348 -71.294823 5.06992
-25.690176 -73.710556 5.973733
-24.438524 -66.450271 -2.565385
-24.383311 -65.182259 -2.98388
-24.671923 -70.183975 -1.42358
-24.757409 -69.25507 -0.597524
-24.57251 -69.025181 -1.868156
-24.836889 -71.490109 -0.957812
-24.671923 -70.183975 -1.42358
-26.508592 -63.172371 8.221782
-26.392536 -64.409733 8.586001
-25.710036 -62.589687 3.155637
-25.606599 -63.844679 3.482858
-25.11828 -62.13512 -0.380053
-25.312431 -62.297081 0.759845
-24.911853 -61.845442 -1.648905
-24.828941 -63.138751 -1.249574
-25.11828 -62.13512 -0.380053
-25.015914 -60.562353 -1.910021
-24.726574 -61.565983 -2.779542
-24.911853 -61.845442 -1.648905
-25.553762 -56.594583 -2.895182
-25.311729 -57.982107 -2.607619
-25.344064 -56.33497 -4.063723
-25.553762 -56.594583 -2.895182
-25.944704 -71.676987 8.942871
-26.06729 -70.615426 9.729463
-25.93918 -70.45131 8.439637
-25.864398 -72.740917 8.138939
-25.944704 -71.676987 8.942871
-25.682905 -74.814731 5.063223
-25.557676 -73.590481 4.597419
-25.550404 -74.694657 3.686909
-25.772551 -75.015808 6.381808
-25.682905 -74.814731 5.063223
-24.477355 -67.792282 -2.193182
-24.619166 -66.754265 -1.414303
-24.438524 -66.450271 -2.565385
-24.57251 -69.025181 -1.868156
-24.477355 -67.792282 -2.193182
-26.088537 -68.090542 8.788612
-26.252237 -68.199128 9.995912
-26.279008 -66.899922 9.558295
-25.271262 -73.245357 1.883563
-25.315485 -72.243381 2.797416
-25.161572 -72.018333 1.459874
-25.437846 -74.534409 2.37781
-25.271262 -73.245357 1.883563
-25.550404 -74.694657 3.686909
-25.437846 -74.534409 2.37781
-24.987085 -71.717086 0.196536
-25.161572 -72.018333 1.459874
-25.031308 -70.715111 1.11039
-24.987085 -71.717086 0.196536
-24.836889 -71.490109 -0.957812
-26.344906 -65.660736 9.080234
-26.279008 -66.899922 9.558295
-26.162937 -65.540333 7.856763
-26.344906 -65.660736 9.080234
-26.392536 -64.409733 8.586001
-26.301792 -63.108883 6.957276
-26.508592 -63.172371 8.221782
-25.998998 -64.166969 6.007271
-26.301792 -63.108883 6.957276
-25.77271 -65.23605 5.217542
-25.984279 -65.35841 6.5728
-25.998998 -64.166969 6.007271
-25.580009 -65.145614 3.949674
-25.565292 -66.337055 4.515203
-25.77271 -65.23605 5.217542
-25.39918 -64.945684 2.780519
-25.580009 -65.145614 3.949674
-25.606599 -63.844679 3.482858
-25.507632 -62.405241 1.907057
-25.710036 -62.589687 3.155637
-25.230569 -63.536589 1.16649
-25.507632 -62.405241 1.907057
-25.312431 -62.297081 0.759845
-24.404401 -63.900667 -3.34984
-24.383311 -65.182259 -2.98388
-24.601424 -64.130663 -2.152465
-24.423777 -62.561537 -3.698688
-24.404401 -63.900667 -3.34984
-24.527839 -61.278448 -3.959804
-24.423777 -62.561537 -3.698688
-24.726574 -61.565983 -2.779542
-24.631051 -59.980185 -4.192268
-24.527839 -61.278448 -3.959804
-25.176823 -59.252044 -2.22797
-25.015914 -60.562353 -1.910021
-24.965542 -59.012957 -3.420307
-25.176823 -59.252044 -2.22797
-25.311729 -57.982107 -2.607619
-24.765958 -58.710247 -4.571917
-24.631051 -59.980185 -4.192268
-24.965542 -59.012957 -3.420307
-24.924976 -57.351633 -4.87756
-24.765958 -58.710247 -4.571917
-24.924976 -57.351633 -4.87756
-25.344064 -56.33497 -4.063723
-26.214319 -69.433243 10.501171
-26.252237 -68.199128 9.995912
-26.214319 -69.433243 10.501171
-26.06729 -70.615426 9.729463
-25.801189 -73.83976 7.299283
-25.864398 -72.740917 8.138939
-25.753386 -72.611714 6.813389
-25.801189 -73.83976 7.299283
-25.772551 -75.015808 6.381808
3 23 22 4
3 0 8 6
3 1 12 10
3 24 13 25
3 26 25 5
3 24 25 26
3 28 27 13
3 29 14 30
3 31 15 32
3 33 16 34
3 35 17 36
3 37 36 16
3 35 36 37
3 38 18 39
3 40 39 17
3 38 39 40
3 41 19 42
3 44 43 19
3 3 45 47
3 47 46 7
3 45 46 47
3 3 48 49
3 2 20 11
3 50 21 51
3 52 51 9
3 50 51 52
3 54 53 21
3 4 5 1
3 55 5 56
3 57 56 4
3 55 56 57
3 59 58 5
3 6 60 62
3 60 7 61
3 60 61 62
3 8 7 6
3 8 3 7
3 63 9 64
3 65 64 2
3 63 64 65
3 66 9 67
3 69 68 9
3 10 11 0
3 12 11 10
3 12 2 11
3 5 12 1
3 13 12 5
3 13 2 12
3 13 70 72
3 72 71 2
3 70 71 72
3 74 73 13
3 75 6 76
3 14 77 79
3 77 6 78
3 77 78 79
3 14 0 6
3 80 14 81
3 82 14 83
3 84 0 85
3 86 85 14
3 84 85 86
3 87 10 88
3 89 88 0
3 87 88 89
3 15 90 92
3 90 10 91
3 90 91 92
3 15 1 10
3 93 15 94
3 16 95 97
3 95 15 96
3 95 96 97
3 16 1 15
3 16 4 1
3 17 4 16
3 17 98 100
3 100 99 4
3 98 99 100
3 17 101 102
3 18 103 105
3 105 104 17
3 103 104 105
3 18 106 107
3 108 18 109
3 19 110 112
3 110 18 111
3 110 111 112
3 19 113 115
3 115 114 18
3 113 114 115
3 19 116 117
3 119 118 19
3 7 120 121
3 123 122 7
3 11 8 0
3 20 8 11
3 20 3 8
3 9 20 2
3 21 20 9
3 21 3 20
3 21 124 126
3 126 125 3
3 124 125 126
3 128 127 21
