ply
format ascii 1.0
element vertex 103
property float x
property float y
property float z
element face 84
property list uchar int vertex_index
end_header
-2.927421 60.862816 -45.078583
-1.020056 56.043278 -47.622066
-4.956594 64.97168 -42.47662
-1.961234 66.812065 -45.101387
-1.391268 61.367542 -46.282597
-1.900685 58.499916 -46.405704
-0.283489 58.905254 -47.507839
-6.037975 69.639206 -41.035397
-6.074955 66.514 -41.063141
-4.732956 67.893539 -42.516548
-3.450895 65.761894 -43.951942
-3.246153 69.01828 -43.819118
-6.153462 63.539082 -41.067589
-5.188911 61.97543 -42.473549
-3.909804 62.949299 -43.817589
-2.426652 63.714867 -45.101532
-0.708805 64.583618 -46.301495
0.072367 60.492153 -47.459345
-0.837379 60.136398 -46.895218
-0.481522 61.723297 -46.846724
-4.690332 69.415543 -42.456446
-5.385466 68.766373 -41.775973
-5.342842 70.288376 -41.71587
-3.94693 69.977913 -43.107731
-3.989554 68.45591 -43.167833
-4.690332 69.415543 -42.456446
-3.153052 59.384029 -45.141172
-3.599708 60.493059 -44.452736
-1.804807 55.869011 -47.051203
-2.245121 57.09733 -46.443022
-1.460371 57.271597 -47.013885
-1.465267 54.636374 -47.694637
-1.804807 55.869011 -47.051203
-6.056465 68.076603 -41.049269
-6.611763 67.286911 -40.364979
-6.593273 68.849514 -40.351107
-6.633813 70.296303 -40.328932
-6.593273 68.849514 -40.351107
-5.994814 71.091865 -41.024022
-6.633813 70.296303 -40.328932
-5.342842 70.288376 -41.71587
-5.994814 71.091865 -41.024022
-2.639684 58.202579 -45.804733
-3.153052 59.384029 -45.141172
-2.414053 59.681366 -45.742143
-2.639684 58.202579 -45.804733
-2.245121 57.09733 -46.443022
-6.586239 65.756698 -40.363165
-6.611763 67.286911 -40.364979
-6.625493 64.269239 -40.365389
-6.586239 65.756698 -40.363165
-6.114209 65.026541 -41.065365
-6.627972 62.916668 -40.360864
-6.625493 64.269239 -40.365389
-6.184114 62.183615 -41.119453
-6.627972 62.916668 -40.360864
-5.701838 61.401789 -41.822434
-6.184114 62.183615 -41.119453
-5.671187 62.757256 -41.770569
-5.308984 60.480929 -42.516611
-5.821911 59.907287 -41.865495
-5.701838 61.401789 -41.822434
-4.730453 61.049366 -43.150219
-5.308984 60.480929 -42.516611
-4.0909 61.536301 -43.822239
-4.730453 61.049366 -43.150219
-4.549358 62.462365 -43.145569
-3.418613 61.906058 -44.448086
-3.599708 60.493059 -44.452736
-4.0909 61.536301 -43.822239
-0.140291 63.331335 -46.856173
-0.481522 61.723297 -46.846724
-1.050037 62.97558 -46.292046
-3.068246 70.536358 -43.808757
-3.94693 69.977913 -43.107731
-3.769024 71.495991 -43.09737
-2.348686 69.505764 -44.461891
-3.068246 70.536358 -43.808757
-1.706226 68.402657 -45.103026
-2.603693 67.915173 -44.460253
-2.348686 69.505764 -44.461891
-1.017828 67.295635 -45.701962
-1.706226 68.402657 -45.103026
-0.391614 66.181411 -46.302016
-1.33502 65.697842 -45.701441
-1.017828 67.295635 -45.701962
0.25628 64.840111 -46.870013
-0.391614 66.181411 -46.302016
-0.140291 63.331335 -46.856173
0.25628 64.840111 -46.870013
0.59421 59.150533 -47.98094
0.072367 60.492153 -47.459345
0.221905 57.639057 -48.072704
0.59421 59.150533 -47.98094
1.099604 57.884337 -48.545805
-0.146378 56.208069 -48.129818
-0.651773 57.474266 -47.564952
0.221905 57.639057 -48.072704
-0.634317 54.716807 -48.222608
-0.146378 56.208069 -48.129818
-1.079529 53.309902 -48.29518
-1.465267 54.636374 -47.694637
-0.634317 54.716807 -48.222608
3 17 6 18
3 19 18 4
3 17 18 19
3 20 9 21
3 22 21 7
3 20 21 22
3 23 11 24
3 25 24 9
3 23 24 25
3 0 26 27
3 1 28 30
3 30 29 5
3 28 29 30
3 1 31 32
3 2 12 8
3 2 13 12
3 2 14 13
3 3 15 10
3 3 16 15
3 4 5 0
3 6 5 4
3 6 1 5
3 7 33 35
3 33 8 34
3 33 34 35
3 9 8 7
3 9 2 8
3 9 10 2
3 11 10 9
3 11 3 10
3 36 7 37
3 38 7 39
3 41 40 7
3 5 42 44
3 44 43 0
3 42 43 44
3 46 45 5
3 8 47 48
3 12 49 51
3 51 50 8
3 49 50 51
3 12 52 53
3 12 54 55
3 13 56 58
3 58 57 12
3 56 57 58
3 13 59 61
3 59 60 61
3 13 62 63
3 14 64 66
3 66 65 13
3 64 65 66
3 14 67 69
3 67 0 68
3 67 68 69
3 10 14 2
3 15 14 10
3 15 0 14
3 15 4 0
3 16 4 15
3 16 70 72
3 72 71 4
3 70 71 72
3 73 11 74
3 73 74 75
3 76 11 77
3 78 3 79
3 80 79 11
3 78 79 80
3 81 3 82
3 83 16 84
3 85 84 3
3 83 84 85
3 86 16 87
3 89 88 16
3 90 6 91
3 92 6 93
3 92 93 94
3 95 1 96
3 97 96 6
3 95 96 97
3 98 1 99
3 102 101 1
3 100 101 102
