ply
format ascii 1.0
element vertex 302
property float x
property float y
property float z
element face 274
property list uchar int vertex_index
end_header
33.814747 -53.44556 -31.289806
33.183807 -52.805302 -22.322746
32.113583 -52.85273 -39.548855
35.547741 -37.839806 -46.011456
33.652588 -53.451992 -26.78924
35.262997 -47.817394 -26.242903
35.800137 -47.716244 -30.580038
35.92836 -47.055702 -34.905865
30.091444 -52.281441 -43.113457
33.972427 -45.630245 -42.836975
34.372074 -47.62191 -21.768732
33.204552 -53.543365 -35.559166
35.270535 -46.513367 -39.087589
36.83567 -39.206902 -42.446362
38.031841 -31.474669 -45.590549
36.51329 -29.862684 -49.340591
33.875134 -53.294289 -29.137644
34.762749 -50.665962 -28.673958
34.937756 -50.459248 -30.915874
35.920895 -47.460602 -32.799686
34.867279 -50.468887 -33.101627
28.972239 -51.470539 -44.816891
31.052164 -48.578938 -44.585232
30.044765 -47.461239 -46.259705
32.751274 -52.694912 -20.068754
33.420067 -50.082481 -20.037844
33.864891 -50.170601 -22.109339
36.210957 -45.016472 -28.075075
35.798466 -45.175678 -25.975214
30.093027 -56.348267 -39.716576
30.925734 -56.414246 -38.01152
31.53533 -56.73315 -35.927208
32.668713 -53.413391 -37.57449
34.277332 -50.089268 -37.394257
33.75457 -49.838402 -39.248631
34.698872 -42.052441 -44.408627
35.478233 -42.485828 -42.677288
36.236477 -38.587696 -44.297421
37.529099 -35.372566 -43.92709
36.908474 -34.628716 -45.836403
37.362427 -30.781147 -47.445267
33.493698 -53.11409 -24.656767
34.256916 -50.38591 -24.345158
34.627213 -50.378166 -26.628357
35.597969 -47.762669 -28.443401
36.800751 -44.383057 -32.327553
36.835262 -44.274315 -34.409672
36.815907 -43.716702 -36.627182
29.065042 -56.003696 -41.545025
31.159212 -52.723843 -41.343784
33.086769 -49.243927 -41.248978
32.193409 -48.775024 -43.048676
31.72328 -54.749752 -18.082777
32.556084 -55.923359 -24.979122
32.703835 -56.079403 -27.243996
32.717377 -56.196228 -29.55125
33.811558 -47.757442 -19.560122
34.887379 -47.66172 -24.0954
32.465481 -56.49876 -31.785063
32.181725 -56.450386 -33.902142
33.646889 -53.437988 -33.377525
34.692402 -50.218502 -35.32933
35.637718 -46.967823 -37.01186
36.566429 -43.428593 -38.566628
34.667152 -46.217312 -40.98391
36.129211 -42.935974 -40.690201
38.519993 -32.302982 -43.541977
37.737972 -26.781799 -49.036591
28.360481 -51.152392 -45.507519
27.810118 -53.181286 -44.783964
28.896745 -49.147741 -46.228926
29.508502 -49.465889 -45.538298
28.360481 -51.152392 -45.507519
29.304104 -47.234656 -46.957638
28.896745 -49.147741 -46.228926
36.409071 -43.753204 -27.824326
36.661032 -43.428665 -28.943795
35.770087 -35.924384 -46.877921
36.450453 -34.318838 -46.790394
36.228108 -36.234261 -45.923929
36.177893 -46.222096 -30.379928
36.076809 -46.245308 -29.31161
35.699053 -47.739457 -29.511719
36.300444 -46.04965 -31.453795
36.6782 -44.555502 -31.253686
36.177893 -46.222096 -30.379928
29.578243 -54.142568 -42.329241
28.500904 -55.732812 -42.390295
29.014105 -53.871685 -43.174511
32.023717 -46.871389 -44.594645
31.501318 -46.55949 -45.397778
31.321407 -56.073637 -18.234451
31.154443 -55.823583 -17.006321
31.864072 -55.037706 -19.2025
31.321407 -56.073637 -18.234451
31.949022 -57.171251 -24.024392
32.447411 -55.76691 -23.834536
32.09513 -57.525034 -27.449169
32.087988 -57.402874 -26.312134
32.101901 -57.583446 -28.602797
32.710606 -56.137816 -28.397623
32.09513 -57.525034 -27.449169
34.576563 -46.406637 -21.67472
34.296305 -46.474403 -20.570415
34.091816 -47.689676 -20.664427
35.551623 -45.22403 -24.888818
35.966579 -43.916342 -25.729197
31.689813 -58.051904 -31.943488
31.851611 -57.954729 -30.851468
37.060663 -39.572187 -41.370738
36.707434 -41.436723 -40.492657
36.48244 -41.071438 -41.568281
37.387554 -37.7323 -42.182353
37.060663 -39.572187 -41.370738
38.480201 -30.038187 -45.326898
38.724277 -30.452344 -44.302613
38.275917 -31.888825 -44.566263
38.252571 -29.492708 -46.337856
38.480201 -30.038187 -45.326898
36.717922 -27.856019 -50.081142
37.330263 -26.315576 -49.929142
37.125631 -28.322242 -49.188591
28.454502 -53.466234 -44.026228
27.810118 -53.181286 -44.783964
29.531841 -51.87599 -43.965174
29.014105 -53.871685 -43.174511
28.454502 -53.466234 -44.026228
30.997619 -46.000641 -46.235014
31.501318 -46.55949 -45.397778
30.548465 -48.020088 -45.422468
30.402227 -45.542059 -47.037699
30.997619 -46.000641 -46.235014
30.402227 -45.542059 -47.037699
29.304104 -47.234656 -46.957638
33.085671 -51.388697 -20.053299
32.890538 -51.18184 -18.929628
32.556141 -52.488056 -18.945082
36.202826 -43.832808 -26.774395
36.004711 -45.096075 -27.025144
36.409071 -43.753204 -27.824326
35.966579 -43.916342 -25.729197
36.202826 -43.832808 -26.774395
29.538201 -58.080876 -38.868536
29.088354 -57.942017 -39.786663
29.954555 -58.113865 -38.016008
29.538201 -58.080876 -38.868536
30.50938 -56.381256 -38.864048
30.347148 -58.134878 -37.078705
29.954555 -58.113865 -38.016008
31.230532 -56.573698 -36.969364
30.651946 -58.294331 -36.036548
30.347148 -58.134878 -37.078705
36.67743 -32.395054 -47.594826
37.13545 -32.704932 -46.640835
36.450453 -34.318838 -46.790394
36.252861 -31.935823 -48.542488
36.937858 -30.321916 -48.392929
36.67743 -32.395054 -47.594826
36.383303 -44.872209 -29.127447
35.904463 -46.389571 -28.259238
36.076809 -46.245308 -29.31161
36.661032 -43.428665 -28.943795
36.383303 -44.872209 -29.127447
37.118395 -42.968066 -32.185721
36.6782 -44.555502 -31.253686
37.208403 -42.814375 -33.259289
37.118395 -42.968066 -32.185721
37.225659 -42.760004 -34.300348
37.208403 -42.814375 -33.259289
36.818006 -44.328686 -33.368612
37.253416 -42.549476 -35.322085
37.225659 -42.760004 -34.300348
37.243739 -42.27067 -36.430839
37.253416 -42.549476 -35.322085
36.825585 -43.995508 -35.518427
37.211163 -41.980385 -37.461878
37.243739 -42.27067 -36.430839
27.961497 -57.672552 -41.580635
28.500904 -55.732812 -42.390295
28.574361 -57.769731 -40.700888
27.961497 -57.672552 -41.580635
29.579034 -56.175981 -40.630801
29.088354 -57.942017 -39.786663
28.574361 -57.769731 -40.700888
32.59434 -46.969432 -43.826366
31.622787 -48.676981 -43.816954
32.023717 -46.871389 -44.594645
33.483849 -45.397043 -43.720516
33.082918 -47.202635 -42.942825
32.59434 -46.969432 -43.826366
33.847071 -43.608141 -44.506342
34.33565 -43.841343 -43.622801
33.483849 -45.397043 -43.720516
34.28439 -41.607645 -45.284491
33.847071 -43.608141 -44.506342
34.708824 -39.501328 -46.085906
35.123306 -39.946123 -45.210042
34.28439 -41.607645 -45.284491
35.036575 -37.489884 -46.913008
34.708824 -39.501328 -46.085906
31.511581 -54.597864 -16.907726
30.942744 -55.671695 -15.831271
31.154443 -55.823583 -17.006321
32.042144 -53.515476 -17.952094
31.511581 -54.597864 -16.907726
32.237277 -53.722332 -19.075765
32.556141 -52.488056 -18.945082
32.042144 -53.515476 -17.952094
32.378069 -54.010286 -20.195488
32.237277 -53.722332 -19.075765
31.864072 -55.037706 -19.2025
32.594335 -54.065481 -21.322484
32.96754 -52.750107 -21.19575
32.378069 -54.010286 -20.195488
32.761272 -54.207882 -22.506347
32.594335 -54.065481 -21.322484
32.916218 -54.362276 -23.673358
33.338752 -52.959696 -23.489756
32.761272 -54.207882 -22.506347
33.024891 -54.518724 -24.817944
32.916218 -54.362276 -23.673358
32.447411 -55.76691 -23.834536
32.014112 -57.324852 -25.179697
31.949022 -57.171251 -24.024392
32.629959 -56.001381 -26.111559
32.014112 -57.324852 -25.179697
32.087988 -57.402874 -26.312134
33.173977 -49.957287 -18.870962
32.890538 -51.18184 -18.929628
33.369722 -48.794767 -18.632101
33.173977 -49.957287 -18.870962
33.615813 -48.919961 -19.798983
33.571897 -47.643909 -18.485298
33.369722 -48.794767 -18.632101
34.006666 -46.541956 -19.459282
33.767006 -46.428422 -18.384459
33.571897 -47.643909 -18.485298
34.006666 -46.541956 -19.459282
34.296305 -46.474403 -20.570415
35.096079 -46.46705 -23.948912
35.342923 -46.418699 -25.035307
35.551623 -45.22403 -24.888818
34.838426 -46.447146 -22.785578
34.629727 -47.641815 -22.932066
35.096079 -46.46705 -23.948912
34.576563 -46.406637 -21.67472
34.838426 -46.447146 -22.785578
31.977559 -57.803463 -29.734561
32.101901 -57.583446 -28.602797
32.591429 -56.347494 -30.668157
31.977559 -57.803463 -29.734561
31.851611 -57.954729 -30.851468
30.972116 -58.277073 -35.015517
30.651946 -58.294331 -36.036548
31.295313 -58.135691 -34.002983
30.972116 -58.277073 -35.015517
31.858528 -56.591768 -34.914675
31.547935 -58.027718 -33.002027
31.295313 -58.135691 -34.002983
32.323603 -56.474573 -32.843603
31.689813 -58.051904 -31.943488
31.547935 -58.027718 -33.002027
37.086424 -41.836331 -38.431601
37.211163 -41.980385 -37.461878
36.691168 -43.572648 -37.596905
36.926043 -41.683033 -39.43087
36.34782 -43.182283 -39.628415
36.707434 -41.436723 -40.492657
37.086424 -41.836331 -38.431601
36.926043 -41.683033 -39.43087
37.734268 -35.815132 -42.922716
37.387554 -37.7323 -42.182353
37.182384 -37.289734 -43.186726
38.229715 -34.28034 -42.73016
37.734268 -35.815132 -42.922716
38.024546 -33.837774 -43.734533
38.654495 -32.775774 -42.51301
38.229715 -34.28034 -42.73016
38.897589 -30.810617 -43.303951
38.654495 -32.775774 -42.51301
38.897589 -30.810617 -43.303951
38.724277 -30.452344 -44.302613
37.917864 -29.145947 -47.265215
38.252571 -29.492708 -46.337856
37.697134 -31.127908 -46.517908
38.105637 -27.146273 -48.060877
37.917864 -29.145947 -47.265215
37.550199 -28.781473 -48.240929
38.207695 -25.244747 -48.882216
38.105637 -27.146273 -48.060877
37.853899 -24.687067 -49.877139
38.207695 -25.244747 -48.882216
37.853899 -24.687067 -49.877139
37.330263 -26.315576 -49.929142
35.770087 -35.924384 -46.877921
35.036575 -37.489884 -46.913008
35.788368 -31.45043 -49.407541
36.252861 -31.935823 -48.542488
36.015802 -29.392635 -50.209778
35.788368 -31.45043 -49.407541
36.717922 -27.856019 -50.081142
36.015802 -29.392635 -50.209778
3 0 18 16
3 0 20 18
3 68 21 69
3 70 23 71
3 72 71 21
3 70 71 72
3 74 73 23
3 1 26 24
3 76 75 27
3 2 30 29
3 2 32 30
3 2 34 32
3 3 37 35
3 3 39 37
3 3 77 79
3 79 78 39
3 77 78 79
3 4 43 41
3 6 44 17
3 6 80 82
3 82 81 44
3 80 81 82
3 6 83 85
3 83 45 84
3 83 84 85
3 7 46 19
3 7 47 46
3 8 86 88
3 86 48 87
3 86 87 88
3 8 49 48
3 8 51 49
3 90 89 22
3 91 52 92
3 94 93 52
3 95 53 96
3 97 54 98
3 99 55 100
3 101 100 54
3 99 100 101
3 10 56 25
3 10 102 104
3 104 103 56
3 102 103 104
3 5 57 42
3 106 105 28
3 107 58 108
3 11 59 31
3 11 60 59
3 11 61 60
3 12 62 33
3 12 63 62
3 9 64 50
3 13 65 36
3 13 109 111
3 111 110 65
3 109 110 111
3 13 112 113
3 14 66 38
3 14 114 116
3 116 115 66
3 114 115 116
3 14 117 118
3 15 67 40
3 15 119 121
3 121 120 67
3 119 120 121
3 16 17 4
3 18 17 16
3 18 6 17
3 18 19 6
3 20 19 18
3 20 7 19
3 21 122 123
3 21 124 126
3 124 8 125
3 124 125 126
3 21 22 8
3 23 22 21
3 23 127 129
3 129 128 22
3 127 128 129
3 23 130 131
3 133 132 23
3 24 134 136
3 134 25 135
3 134 135 136
3 26 25 24
3 26 10 25
3 27 28 5
3 137 28 138
3 139 138 27
3 137 138 139
3 141 140 28
3 29 142 143
3 30 144 146
3 146 145 29
3 144 145 146
3 30 147 148
3 30 149 151
3 149 31 150
3 149 150 151
3 32 31 30
3 32 11 31
3 32 33 11
3 34 33 32
3 34 12 33
3 35 36 9
3 37 36 35
3 37 13 36
3 37 38 13
3 39 38 37
3 39 14 38
3 39 40 14
3 152 40 153
3 154 153 39
3 152 153 154
3 155 15 156
3 157 156 40
3 155 156 157
3 41 42 1
3 43 42 41
3 43 5 42
3 17 43 4
3 44 43 17
3 44 5 43
3 44 27 5
3 158 27 159
3 160 159 44
3 158 159 160
3 162 161 27
3 45 163 164
3 45 165 166
3 19 45 6
3 46 45 19
3 46 167 169
3 169 168 45
3 167 168 169
3 46 170 171
3 47 172 174
3 174 173 46
3 172 173 174
3 47 175 176
3 48 177 178
3 48 179 180
3 48 181 183
3 181 29 182
3 181 182 183
3 49 29 48
3 49 2 29
3 49 50 2
3 51 50 49
3 51 9 50
3 22 51 8
3 184 51 185
3 186 185 22
3 184 185 186
3 187 9 188
3 189 188 51
3 187 188 189
3 190 35 191
3 192 191 9
3 190 191 192
3 193 35 194
3 195 3 196
3 197 196 35
3 195 196 197
3 199 198 3
3 52 200 202
3 200 201 202
3 52 203 204
3 52 205 207
3 205 24 206
3 205 206 207
3 208 24 209
3 210 209 52
3 208 209 210
3 211 1 212
3 213 212 24
3 211 212 213
3 214 1 215
3 216 41 217
3 218 217 1
3 216 217 218
3 53 219 221
3 219 41 220
3 219 220 221
3 53 4 41
3 222 53 223
3 54 224 226
3 224 53 225
3 224 225 226
3 54 4 53
3 54 16 4
3 55 16 54
3 55 0 16
3 25 227 228
3 56 229 231
3 231 230 25
3 229 230 231
3 56 232 233
3 56 234 236
3 234 235 236
3 238 237 56
3 42 26 1
3 57 26 42
3 57 10 26
3 28 57 5
3 239 57 240
3 241 240 28
3 239 240 241
3 242 10 243
3 244 243 57
3 242 243 244
3 246 245 10
3 247 55 248
3 58 249 251
3 249 55 250
3 249 250 251
3 58 0 55
3 31 252 253
3 59 254 256
3 256 255 31
3 254 255 256
3 59 257 258
3 59 259 261
3 259 58 260
3 259 260 261
3 60 58 59
3 60 0 58
3 60 20 0
3 61 20 60
3 61 7 20
3 33 61 11
3 62 61 33
3 62 7 61
3 62 47 7
3 63 47 62
3 63 262 264
3 264 263 47
3 262 263 264
3 50 34 2
3 64 34 50
3 64 12 34
3 36 64 9
3 65 64 36
3 65 12 64
3 65 63 12
3 265 63 266
3 267 266 65
3 265 266 267
3 269 268 63
3 38 270 272
3 272 271 13
3 270 271 272
3 66 273 275
3 275 274 38
3 273 274 275
3 66 276 277
3 66 278 279
3 281 280 66
3 40 282 284
3 284 283 14
3 282 283 284
3 67 285 287
3 287 286 40
3 285 286 287
3 67 288 289
3 67 290 291
3 293 292 67
3 295 294 3
3 296 15 297
3 298 15 299
3 301 300 15
