ply
format ascii 1.0
element vertex 111
property float x
property float y
property float z
element face 90
property list uchar int vertex_index
end_header
-7.411442 48.961353 -42.78886
-8.93571 47.995613 -39.415958
-7.887032 52.45731 -39.655338
-10.439343 43.210075 -39.474957
-8.99013 44.558102 -43.012707
-7.0645 45.324532 -46.380054
-8.456818 52.171177 -38.188198
-8.195582 48.569675 -41.183437
-8.936642 46.276489 -41.133022
-8.159945 46.693619 -42.878742
-8.138738 44.941982 -44.707764
-7.223319 47.072838 -44.588829
-8.340654 50.296677 -39.55389
-7.596584 50.856209 -41.176811
-9.621359 45.615093 -39.436447
-9.749341 43.958996 -41.310238
-7.134723 53.262539 -41.090168
-6.790332 51.456131 -42.59586
-5.939326 45.754436 -47.639462
-10.912353 42.009974 -39.495085
-10.747782 42.756962 -38.497406
-10.580179 42.429254 -40.455922
-10.912353 42.009974 -39.495085
-9.278534 46.805353 -39.426203
-9.580778 46.472248 -38.616243
-9.237953 47.662508 -38.605999
-9.472877 43.456097 -43.142426
-9.852483 43.156544 -42.291191
-9.369736 44.258549 -42.161473
-9.059432 43.707369 -43.994173
-9.472877 43.456097 -43.142426
-7.553159 44.366286 -46.519863
-8.090279 44.17501 -45.683718
-7.601619 45.133257 -45.543909
-6.986061 44.433647 -47.362621
-7.553159 44.366286 -46.519863
-6.67758 53.60478 -41.835316
-6.930827 54.462 -41.112679
-6.505384 52.701576 -42.588161
-6.962528 52.359335 -41.843014
-6.67758 53.60478 -41.835316
-5.291676 45.857904 -48.267966
-5.454656 46.87397 -47.448901
-5.752096 44.834736 -48.605143
-5.291676 45.857904 -48.267966
-8.529937 53.012417 -37.654307
-8.7209 51.916635 -37.465908
-8.271038 53.183088 -38.3354
-8.529937 53.012417 -37.654307
-7.986146 53.326155 -39.06897
-8.171925 52.314244 -38.921768
-8.271038 53.183088 -38.3354
-10.347787 43.986965 -38.575829
-10.747782 42.756962 -38.497406
-8.924476 48.945327 -38.708679
-9.237953 47.662508 -38.605999
-8.68503 51.033109 -38.094799
-8.7209 51.916635 -37.465908
-8.626948 50.09586 -38.777645
-8.68503 51.033109 -38.094799
-8.398736 51.233927 -38.871044
-8.638182 49.146145 -39.484924
-8.924476 48.945327 -38.708679
-8.626948 50.09586 -38.777645
-9.938796 45.189474 -38.556574
-9.580778 46.472248 -38.616243
-10.030351 44.412584 -39.455702
-10.347787 43.986965 -38.575829
-9.938796 45.189474 -38.556574
-10.235178 42.803715 -41.373562
-10.580179 42.429254 -40.455922
-10.094342 43.584536 -40.392598
-10.235178 42.803715 -41.373562
-9.852483 43.156544 -42.291191
-8.633737 43.899309 -44.841701
-9.059432 43.707369 -43.994173
-8.564434 44.750042 -43.860236
-8.633737 43.899309 -44.841701
-8.090279 44.17501 -45.683718
-7.699218 53.632337 -39.695438
-7.986146 53.326155 -39.06897
-7.323064 54.034952 -40.412853
-6.930827 54.462 -41.112679
-7.510877 52.859924 -40.372753
-7.699218 53.632337 -39.695438
-7.323064 54.034952 -40.412853
-6.299785 51.691077 -43.326605
-6.505384 52.701576 -42.588161
-6.643118 50.475003 -43.404515
-6.299785 51.691077 -43.326605
-6.953673 49.227614 -43.501014
-7.100887 50.208742 -42.69236
-6.643118 50.475003 -43.404515
-6.859611 48.283356 -44.400999
-7.317381 48.017095 -43.688845
-6.953673 49.227614 -43.501014
-6.695406 47.336496 -45.275801
-6.859611 48.283356 -44.400999
-6.615996 46.462344 -46.171413
-7.143909 46.198685 -45.484442
-6.695406 47.336496 -45.275801
-6.05341 46.677295 -46.801117
-5.454656 46.87397 -47.448901
-6.501913 45.539484 -47.009758
-6.615996 46.462344 -46.171413
-6.05341 46.677295 -46.801117
-6.423474 44.6486 -47.992325
-6.986061 44.433647 -47.362621
-6.501913 45.539484 -47.009758
-6.423474 44.6486 -47.992325
-5.752096 44.834736 -48.605143
3 0 9 7
3 0 11 9
3 2 12 6
3 2 13 12
3 3 19 20
3 3 21 22
3 1 23 25
3 23 14 24
3 23 24 25
3 4 15 8
3 4 26 28
3 28 27 15
3 26 27 28
3 4 29 30
3 5 31 33
3 33 32 10
3 31 32 33
3 5 34 35
3 36 16 37
3 38 17 39
3 40 39 16
3 38 39 40
3 41 18 42
3 44 43 18
3 45 6 46
3 47 6 48
3 49 2 50
3 51 50 6
3 49 50 51
3 52 3 53
3 7 8 1
3 9 8 7
3 9 4 8
3 9 10 4
3 11 10 9
3 11 5 10
3 54 1 55
3 6 56 57
3 12 58 60
3 60 59 6
3 58 59 60
3 12 61 63
3 61 1 62
3 61 62 63
3 12 7 1
3 13 7 12
3 13 0 7
3 14 64 65
3 14 66 68
3 66 3 67
3 66 67 68
3 8 14 1
3 15 14 8
3 15 3 14
3 15 69 71
3 71 70 3
3 69 70 71
3 73 72 15
3 10 74 76
3 76 75 4
3 74 75 76
3 78 77 10
3 79 2 80
3 16 81 82
3 16 83 85
3 83 2 84
3 83 84 85
3 16 13 2
3 17 13 16
3 17 0 13
3 86 17 87
3 88 17 89
3 90 0 91
3 92 91 17
3 90 91 92
3 93 11 94
3 95 94 0
3 93 94 95
3 96 11 97
3 98 5 99
3 100 99 11
3 98 99 100
3 18 101 102
3 18 103 105
3 103 5 104
3 103 104 105
3 18 106 108
3 108 107 5
3 106 107 108
3 110 109 18
