ply
format ascii 1.0
element vertex 230
property float x
property float y
property float z
element face 193
property list uchar int vertex_index
end_header
-1.929541 45.242123 45.438396
-9.640119 38.556789 43.594139
11.58322 45.422916 53.960278
-5.926403 41.623585 44.707417
1.899612 48.904453 45.998989
18.020927 44.327724 57.94212
-2.851631 38.578918 47.936779
1.014585 41.88649 48.752083
4.940448 45.613216 49.486328
8.595276 49.129765 50.233746
-3.884628 43.420078 45.125164
-5.308304 44.920055 43.523788
-3.531424 46.817989 43.703037
-1.55773 48.465431 44.094528
0.408483 50.525097 44.266365
0.069624 47.078587 45.763798
2.627248 40.169594 50.500893
2.941888 43.63324 49.139252
4.38482 41.945068 50.807617
8.144618 45.291553 51.737812
10.029976 47.163666 52.12928
10.424411 51.005096 50.545856
11.872036 49.322258 52.319
16.606318 46.909149 56.161499
-7.77784 40.296764 44.114891
3.915337 50.599277 46.433369
17.501488 40.41291 59.455235
-8.270103 37.011707 45.258682
-6.29335 38.507889 45.893505
-4.414669 40.261528 46.26112
-2.38323 41.810608 46.7635
-0.471351 43.679413 47.039501
-0.85981 40.252407 48.365814
0.691017 38.509178 50.051971
1.41974 45.104652 47.521084
3.377638 47.141907 47.775352
5.380119 49.211979 48.061966
6.809772 47.236534 49.94318
16.259041 42.946289 57.802197
14.830202 45.071285 56.100536
13.309015 47.102287 54.275158
-10.357582 39.252645 42.705394
-10.569858 37.723675 43.242165
4.231368 40.200991 51.476795
3.506034 41.057331 50.654255
3.352581 39.313254 51.323433
10.806598 46.293291 53.044779
9.795122 45.37224 52.796948
10.571744 44.501865 53.712446
-6.580793 42.49185 43.863592
-7.506512 41.82844 43.567329
-6.852121 40.960175 44.411154
-6.074185 45.666404 42.635475
-5.11433 46.645889 42.773304
2.179163 50.673847 45.282103
1.433598 51.484169 44.41579
1.154048 49.714775 45.132677
2.907475 49.751865 46.216179
3.187025 51.521259 45.499292
2.179163 50.673847 45.282103
-7.517724 36.16853 46.114597
-8.434723 35.376058 45.832903
-6.529347 36.916621 46.432008
-7.281727 37.759798 45.576093
-7.517724 36.16853 46.114597
-3.63315 39.420223 47.09895
-4.578428 38.610996 46.891632
-3.796909 37.769691 47.729461
0.398111 36.776924 50.610149
-0.262149 37.760683 49.811731
1.415528 37.615923 50.868578
0.398111 36.776924 50.610149
7.910131 50.102992 49.299276
7.017379 49.156376 49.153993
7.702524 48.183149 50.088463
8.854893 51.037977 49.461683
7.910131 50.102992 49.299276
10.746517 52.998879 49.733429
11.386854 51.995565 50.677864
14.993596 47.023611 55.277552
15.71826 45.990217 56.131017
15.881654 47.942543 55.308033
14.233003 48.039112 54.364863
14.069609 46.086786 55.187847
14.993596 47.023611 55.277552
13.53183 49.047781 53.477903
14.233003 48.039112 54.364863
-4.22589 47.594856 42.862929
-5.11433 46.645889 42.773304
-4.419864 45.869022 43.613413
-3.297291 48.477851 42.998644
-4.22589 47.594856 42.862929
-2.310444 49.301573 43.194389
-3.297291 48.477851 42.998644
-2.544577 47.64171 43.898782
-1.362964 50.123352 43.359633
-2.310444 49.301573 43.194389
-0.574624 49.495264 44.180447
-0.379858 51.153185 43.445551
-1.362964 50.123352 43.359633
-3.052181 37.025097 48.48513
-3.796909 37.769691 47.729461
-2.033472 37.795553 48.754135
-3.052181 37.025097 48.48513
8.852442 44.436183 52.601214
7.934143 43.460745 52.426323
9.087297 46.227609 51.933546
8.852442 44.436183 52.601214
9.795122 45.37224 52.796948
12.110667 51.154146 51.564436
11.386854 51.995565 50.677864
11.148224 50.163677 51.432428
17.48733 47.562151 56.211342
17.313623 45.618437 57.05181
18.194635 46.271439 57.101653
16.86339 48.801105 55.366566
17.48733 47.562151 56.211342
15.881654 47.942543 55.308033
16.86339 48.801105 55.366566
-8.459566 41.011204 43.291029
-9.390705 40.141216 43.030653
-8.708979 39.426777 43.854515
-8.459566 41.011204 43.291029
-7.506512 41.82844 43.567329
-6.271743 44.140085 43.271778
-6.580793 42.49185 43.863592
-5.617354 43.27182 44.115603
-6.271743 44.140085 43.271778
-6.074185 45.666404 42.635475
0.630769 52.20456 43.521366
-0.379858 51.153185 43.445551
0.630769 52.20456 43.521366
1.433598 51.484169 44.41579
4.129621 52.479648 45.60136
3.187025 51.521259 45.499292
4.84214 51.693107 46.483705
4.129621 52.479648 45.60136
11.323102 43.486698 54.661915
10.571744 44.501865 53.712446
18.26737 39.138124 60.243865
17.345816 38.536775 60.159596
18.111698 37.261989 60.948225
18.418873 40.969732 59.526705
18.26737 39.138124 60.243865
18.678593 42.927139 58.770148
17.761207 42.370317 58.698678
18.418873 40.969732 59.526705
18.871133 45.012892 57.888901
18.678593 42.927139 58.770148
18.194635 46.271439 57.101653
18.871133 45.012892 57.888901
-10.357582 39.252645 42.705394
-9.390705 40.141216 43.030653
-9.828819 36.997535 44.140232
-10.569858 37.723675 43.242165
-9.143811 36.224995 44.972504
-9.308431 34.589346 45.546724
-8.434723 35.376058 45.832903
-8.955111 37.784248 44.426411
-9.828819 36.997535 44.140232
-9.143811 36.224995 44.972504
-5.517769 37.734177 46.707825
-6.529347 36.916621 46.432008
-5.35401 39.384709 46.077312
-5.517769 37.734177 46.707825
-4.578428 38.610996 46.891632
-1.037562 38.632297 48.968653
-1.85572 39.415662 48.151297
-2.033472 37.795553 48.754135
-0.084396 39.380792 49.208893
-1.037562 38.632297 48.968653
-0.262149 37.760683 49.811731
2.383643 38.446131 51.093038
1.659132 39.339386 50.276432
1.415528 37.615923 50.868578
3.352581 39.313254 51.323433
2.383643 38.446131 51.093038
5.57453 50.999459 47.298004
4.84214 51.693107 46.483705
4.647728 49.905628 47.247667
5.117528 40.984102 51.70173
4.231368 40.200991 51.476795
5.325539 42.722071 51.061906
5.117528 40.984102 51.70173
5.603353 44.556145 50.401262
4.662634 43.779142 50.146973
5.325539 42.722071 51.061906
7.205438 44.395313 51.527004
7.934143 43.460745 52.426323
6.538015 45.367804 50.629688
7.205438 44.395313 51.527004
7.477195 46.264043 50.840496
5.87511 46.424875 49.714754
5.603353 44.556145 50.401262
6.538015 45.367804 50.629688
6.302553 50.144098 48.213386
6.094945 48.224256 49.002573
7.017379 49.156376 49.153993
5.57453 50.999459 47.298004
6.302553 50.144098 48.213386
9.76946 51.975643 49.617739
8.854893 51.037977 49.461683
9.509843 50.067431 50.389801
9.76946 51.975643 49.617739
10.746517 52.998879 49.733429
12.267364 44.371513 54.871987
11.323102 43.486698 54.661915
16.634009 39.631601 59.387131
17.345816 38.536775 60.159596
16.012786 40.898291 58.560612
16.634009 39.631601 59.387131
16.880264 41.679599 58.628716
15.344496 42.078481 57.698638
16.012786 40.898291 58.560612
14.630077 43.14098 56.847807
15.344496 42.078481 57.698638
15.544621 44.008787 56.951366
13.890856 44.195698 55.942115
14.630077 43.14098 56.847807
13.130262 45.211198 55.029426
13.890856 44.195698 55.942115
14.069609 46.086786 55.187847
12.446117 46.262602 54.117718
12.267364 44.371513 54.871987
13.130262 45.211198 55.029426
12.81334 50.157766 52.499825
12.590526 48.212272 53.297079
13.53183 49.047781 53.477903
12.110667 51.154146 51.564436
12.81334 50.157766 52.499825
3 0 12 10
3 0 13 12
3 0 15 13
3 1 41 42
3 43 18 44
3 45 44 16
3 43 44 45
3 2 46 48
3 46 20 47
3 46 47 48
3 2 22 20
3 3 49 51
3 51 50 24
3 49 50 51
3 53 52 11
3 4 54 56
3 56 55 14
3 54 55 56
3 4 57 59
3 57 25 58
3 57 58 59
3 60 27 61
3 62 28 63
3 64 63 27
3 62 63 64
3 6 65 67
3 65 29 66
3 65 66 67
3 6 30 29
3 6 32 30
3 68 33 69
3 71 70 33
3 7 34 31
3 8 35 17
3 8 36 35
3 9 37 19
3 9 72 74
3 74 73 37
3 72 73 74
3 9 75 76
3 78 77 21
3 5 38 26
3 79 39 80
3 81 80 23
3 79 80 81
3 82 40 83
3 84 83 39
3 82 83 84
3 86 85 40
3 10 11 3
3 12 11 10
3 12 87 89
3 89 88 11
3 87 88 89
3 12 90 91
3 13 92 94
3 94 93 12
3 92 93 94
3 13 95 96
3 13 97 99
3 97 14 98
3 97 98 99
3 15 14 13
3 15 4 14
3 100 6 101
3 103 102 6
3 16 17 7
3 18 17 16
3 18 8 17
3 104 19 105
3 20 106 108
3 106 19 107
3 106 107 108
3 20 9 19
3 20 21 9
3 22 21 20
3 22 109 111
3 111 110 21
3 109 110 111
3 112 23 113
3 114 113 5
3 112 113 114
3 115 23 116
3 118 117 23
3 24 119 121
3 121 120 1
3 119 120 121
3 123 122 24
3 11 124 126
3 126 125 3
3 124 125 126
3 128 127 11
3 14 129 130
3 132 131 14
3 25 133 134
3 25 135 136
3 137 2 138
3 139 26 140
3 139 140 141
3 142 26 143
3 144 5 145
3 146 145 26
3 144 145 146
3 147 5 148
3 150 149 5
3 152 151 1
3 153 1 154
3 27 155 157
3 155 156 157
3 27 158 160
3 158 1 159
3 158 159 160
3 27 24 1
3 28 24 27
3 28 3 24
3 161 28 162
3 29 163 165
3 163 28 164
3 163 164 165
3 29 3 28
3 29 10 3
3 30 10 29
3 30 0 10
3 30 31 0
3 32 31 30
3 32 7 31
3 166 32 167
3 168 167 6
3 166 167 168
3 33 169 171
3 169 32 170
3 169 170 171
3 33 7 32
3 33 16 7
3 172 16 173
3 174 173 33
3 172 173 174
3 176 175 16
3 31 15 0
3 34 15 31
3 34 4 15
3 17 34 7
3 35 34 17
3 35 4 34
3 35 25 4
3 36 25 35
3 36 177 179
3 179 178 25
3 177 178 179
3 180 18 181
3 182 18 183
3 184 8 185
3 186 185 18
3 184 185 186
3 19 187 188
3 37 189 191
3 191 190 19
3 189 190 191
3 37 192 194
3 192 8 193
3 192 193 194
3 37 36 8
3 195 36 196
3 197 196 37
3 195 196 197
3 199 198 36
3 21 200 202
3 202 201 9
3 200 201 202
3 204 203 21
3 205 2 206
3 26 207 208
3 38 209 211
3 211 210 26
3 209 210 211
3 38 212 213
3 23 38 5
3 39 38 23
3 39 214 216
3 216 215 38
3 214 215 216
3 39 217 218
3 40 219 221
3 221 220 39
3 219 220 221
3 40 222 224
3 222 2 223
3 222 223 224
3 40 22 2
3 225 22 226
3 227 226 40
3 225 226 227
3 229 228 22
