ply
format ascii 1.0
element vertex 802
property float x
property float y
property float z
element face 911
property list uchar int vertex_index
end_header
-19.85149 60.060127 11.610872
-17.404055 80.443306 -5.76663
-23.578011 39.386906 22.603563
-29.365253 31.786678 17.046043
-26.061005 29.149607 26.539948
-24.155535 50.482342 8.094124
-26.425591 49.674435 -0.658565
-23.033861 60.031513 2.167185
-14.229426 88.202614 -16.397032
-19.792305 77.683273 -14.415194
-15.000102 69.898941 13.396518
-18.926823 70.604568 3.840284
-13.478993 80.568687 3.90679
-10.268914 90.251869 -6.762197
-32.090881 33.221424 7.582677
-26.3965 41.0312 12.811983
-21.216518 49.666595 17.918818
-20.608797 36.295681 31.915516
-16.412539 58.567551 21.310192
-21.89492 69.595612 -5.315943
-22.045267 55.076435 10.067436
-23.496517 55.272133 5.358971
-21.499311 60.367989 6.798752
-15.447488 86.149582 -20.582376
-12.183507 74.567581 13.566277
-14.350509 75.378815 8.80468
-8.092038 90.160362 -1.751182
-26.274677 35.669662 19.926529
-27.739038 36.557186 15.110717
-24.901638 40.544479 17.743597
-23.660219 45.265499 15.582672
-22.366194 44.364166 20.420612
-17.230291 53.083824 24.679205
-18.380177 75.601257 -0.814751
-20.668051 70.224541 -0.83631
-19.976002 75.00563 -5.379596
-32.325993 28.233009 14.439112
-27.658155 30.682455 21.98563
-24.885511 34.216049 24.657089
-26.452698 45.914391 5.859587
-27.631802 45.342228 1.517394
-25.50458 50.243484 3.611285
-24.079044 59.335617 -2.069497
-16.042833 84.701599 -11.064426
-18.947313 79.363457 -10.289655
-17.477592 83.075348 -15.45489
-17.574995 64.880112 12.762913
-19.37941 65.467125 7.841538
-17.036226 70.457016 8.570286
-16.426048 75.67144 4.099341
-15.516346 80.815224 -0.942544
-12.149324 85.521606 -1.226156
-14.263101 85.347298 -6.130548
-12.406383 89.59362 -11.75801
-30.449192 37.334061 5.51725
-30.733528 32.828381 12.298356
-29.261091 37.030102 10.125546
-27.73843 41.407642 8.072361
-25.11393 45.642551 10.668223
-22.646637 50.299992 12.98011
-20.399378 54.953178 14.927234
-24.147127 27.387575 31.218624
-23.248837 32.653839 29.39975
-22.0868 38.164299 27.425068
-19.465733 42.030052 29.861626
-20.934267 43.386276 25.314398
-19.818083 48.673485 22.842939
-18.840611 54.17387 19.834064
-18.089542 59.762161 16.375959
-15.737265 64.269371 17.362207
-13.008141 68.803352 18.094801
-9.818384 73.433289 18.320133
-8.427734 65.762634 27.330189
-21.134003 65.403389 3.053472
-22.513515 64.84481 -1.261748
-23.368347 63.756958 -5.420521
-21.057508 73.776772 -9.677334
-22.478725 67.981865 -9.298411
-20.970552 57.597786 10.832828
-21.758017 57.680012 8.508609
-20.726587 60.261856 9.073582
-24.947672 37.45219 21.22443
-25.592556 38.118294 18.817381
-24.296034 39.853184 20.21093
-23.644421 42.347988 19.100946
-22.976398 41.791706 21.58036
-17.989077 78.022072 -3.317284
-19.238352 75.366272 -3.165451
-18.726467 77.9496 -5.747951
-28.266186 28.383053 22.853403
-26.860332 29.990061 24.268051
-26.252117 32.571785 23.194817
-25.493702 31.679733 25.616064
-25.26631 48.150692 7.095661
-25.937151 48.067276 4.798837
-24.843994 50.448486 5.832579
-23.262793 57.704231 3.744201
-24.216759 55.03495 2.998191
-23.903307 57.321667 1.691683
-23.596136 59.826248 0.045217
-15.059965 86.722534 -13.672577
-16.757576 84.113327 -13.311398
-15.899633 85.7901 -15.988153
-16.332861 67.498375 13.030393
-17.314692 67.766129 10.619112
-16.03356 70.14019 11.066213
-13.960202 77.878494 6.553362
-15.464056 75.539444 6.372009
-15.016711 78.169014 4.021979
-16.053892 78.252274 1.573659
-14.510001 80.793091 1.438338
-9.292903 90.098412 -4.08612
-10.224376 87.786148 -1.392698
-11.291151 87.947632 -4.019037
-13.192331 85.623749 -3.823788
-12.376511 87.809937 -6.44909
-13.346812 87.592995 -8.863025
-11.366384 89.959152 -9.116126
-33.49585 31.226406 6.381044
-32.668793 33.210686 5.364064
-31.807413 35.228062 4.348314
-31.253508 35.310627 6.534569
-30.83522 30.085495 15.659143
-31.549429 30.576517 13.315189
-29.985176 32.51125 14.663674
-27.043924 38.788425 14.008268
-28.520218 36.768711 12.677235
-27.788425 39.002575 11.542744
-28.389111 39.236202 9.347001
-27.010284 41.366043 10.468181
-26.427624 43.458801 9.355641
-25.659437 43.465202 11.763641
-22.479349 47.383091 16.677761
-23.166224 47.745907 14.193177
-21.971304 49.911903 15.431138
-21.552689 52.537239 13.972322
-20.823156 52.28371 16.349052
-22.379307 31.830736 31.609312
-21.909054 34.592663 30.632204
-22.663532 35.37912 28.503769
-21.325523 37.388939 29.722715
-18.883419 44.91795 28.652472
-20.226538 42.811153 27.563253
-19.693636 45.489162 26.324953
-20.399063 46.112186 23.952032
-19.11972 48.123642 25.144903
-16.757318 55.8965 23.061951
-18.030899 53.671181 22.307909
-17.66353 56.379192 20.589684
-18.50535 56.911953 18.061516
-17.25396 59.131397 18.939047
-16.927547 61.978344 16.986025
-16.037577 61.553246 19.305664
-11.911006 68.263542 20.379326
-11.419845 71.166847 18.298239
-10.261418 70.570984 20.567446
-8.899623 62.727253 29.317951
-7.117313 64.937714 29.438747
-26.998974 47.550243 0.350378
-27.903643 45.115089 -0.379935
-27.282681 47.016796 -1.520557
-19.212296 67.999542 5.816834
-20.300423 65.405754 5.454865
-20.0445 68.04705 3.524442
-21.406223 69.811111 -3.099631
-21.636675 67.664482 -1.142353
-22.295786 67.104195 -3.343911
-23.025717 64.478355 -3.515241
-22.684589 66.759514 -5.421165
-19.503975 78.535561 -12.486132
-20.097431 76.639847 -10.106323
-20.504131 75.72982 -11.886512
-23.093098 52.645287 9.22637
-23.814709 52.795536 6.779675
-22.816294 55.18512 7.641168
-22.507328 57.81765 6.129217
-22.381754 60.05228 4.407883
-14.8115 87.427322 -18.72315
-13.62375 88.808495 -21.337885
-13.663547 72.093994 13.661237
-14.742029 72.673141 11.039263
-13.31117 74.947395 11.22308
-12.779871 77.798431 8.84324
-12.3066 80.43084 6.300754
-8.184419 92.319946 -6.741756
-9.305774 92.222504 -9.509598
-7.085246 94.338135 -9.583746
-32.92255 31.17012 8.5424
-27.812487 33.715836 18.450722
-28.493093 34.254356 16.146729
-27.017885 36.12746 17.541477
-26.365219 38.347836 16.477255
-25.637564 40.782318 15.364763
-24.979012 43.151688 14.240162
-24.284817 42.825825 16.691759
-23.009825 44.853249 18.004848
-21.71291 47.148453 19.208242
-15.41745 58.204418 23.641695
-15.092987 61.020981 21.674393
-11.105243 64.863655 24.704405
-18.720509 73.087997 1.530401
-19.805124 70.604294 1.414076
-19.657835 72.836617 -0.902528
-20.440155 72.542633 -3.200483
-21.048994 72.20459 -5.339927
-29.968584 29.594343 18.157419
-29.109266 28.961029 20.616453
-28.507977 31.266634 19.560728
-27.091114 33.088486 20.81131
-25.553356 35.003441 22.362997
-24.182413 36.89603 23.679859
-27.660791 43.598831 4.819582
-27.130276 45.592297 3.660641
-26.568998 47.805862 2.498044
-26.07976 49.911335 1.412946
-24.521191 52.764248 4.369358
-25.160248 52.407192 2.220769
-16.827204 82.567375 -8.34859
-18.161274 80.177429 -8.173092
-17.615314 82.080345 -10.7848
-18.23192 81.389519 -12.86313
-18.725861 80.464859 -14.731366
-16.46632 84.826553 -17.974806
-17.829313 82.198723 -17.43203
-18.745298 62.689205 12.010348
-19.648514 62.690746 9.725365
-18.454214 65.419121 10.182817
-18.271191 68.019882 8.142931
-18.094088 70.410156 6.152202
-15.79103 72.959892 8.619195
-16.836473 72.961288 6.344156
-17.711185 73.206223 4.005167
-17.461275 75.620483 1.661041
-17.055504 78.129333 -0.772265
-16.541508 80.628731 -3.382732
-12.778604 83.232353 1.328067
-13.879245 83.254913 -1.07785
-14.934045 83.131546 -3.455997
-15.906651 82.933846 -5.89324
-15.218306 85.109543 -8.712429
-14.229665 87.305679 -11.434115
-13.271132 89.146286 -14.324279
-11.221808 91.511009 -14.537437
-29.676773 39.284874 4.628934
-33.077984 28.619501 12.073294
-32.238815 30.913389 11.013028
-31.469955 32.977577 9.998768
-29.194538 34.657612 13.815763
-29.909897 34.975117 11.400312
-30.684624 35.090366 8.894938
-29.803003 37.366459 7.838513
-29.08663 39.322784 6.875657
-28.322136 41.54987 5.774459
-27.046551 43.659672 7.012438
-25.829002 45.789551 8.185566
-24.618593 48.048027 9.341578
-24.36463 45.621613 13.018488
-23.851524 48.015896 11.781384
-23.420366 50.282192 10.628726
-22.285923 52.706581 11.618886
-21.229401 55.003696 12.518824
-20.186964 57.351616 13.233629
-25.112934 28.442318 28.835098
-22.797722 29.114998 32.521145
-23.77146 30.043585 30.221676
-24.683611 30.975441 27.822014
-24.031651 33.570709 27.08147
-23.455763 36.102264 26.142515
-22.901264 38.781448 24.920216
-19.157974 38.323917 33.135468
-18.659649 41.19593 32.019234
-19.985907 39.091743 31.103298
-20.738852 40.100838 28.773323
-21.566948 40.62722 26.407824
-22.213827 41.340885 24.084423
-21.616917 43.978474 22.920649
-21.061977 46.632187 21.621941
-20.486423 49.24461 20.443571
-18.544508 50.930195 23.760773
-19.257769 51.530872 21.385586
-20.056347 51.920414 18.862295
-19.578426 54.722042 17.390099
-19.280441 57.409939 15.60899
-19.017481 59.925705 13.904263
-17.863993 62.252277 14.556855
-16.606937 64.824615 14.990619
-15.277021 67.101784 15.586143
-14.350518 66.48584 17.957893
-13.950298 69.461227 15.803266
-12.496518 71.837471 15.927655
-11.002992 73.985092 16.039635
-10.048685 63.775871 27.065456
-9.554054 66.795502 25.055542
-6.664702 67.872574 27.444187
-20.480145 62.999729 7.23628
-21.387058 62.734417 4.913757
-22.113611 62.680321 2.685164
-20.931101 67.824745 1.122192
-21.870922 65.22113 0.835355
-22.756554 62.452831 0.573774
-23.341967 62.134686 -1.776065
-23.726336 61.650562 -3.839346
-19.490252 77.321014 -7.840934
-20.556442 74.631485 -7.637829
-21.540514 71.646935 -7.466649
-21.306416 72.873886 -11.701124
-21.84729 70.908112 -9.436472
-22.311697 68.806465 -7.284722
-22.938154 65.994064 -7.316799
-26.460669 29.569834 25.403999
-27.161544 28.789946 24.669713
-26.761881 28.369718 25.805661
-21.258926 35.444172 31.27386
-21.49323 34.035963 31.766008
-20.843101 34.887472 32.407663
-18.631173 46.237366 28.011703
-18.221519 45.899174 29.134363
-19.036282 46.522972 26.847944
-19.288528 45.203556 27.488712
-18.631173 46.237366 28.011703
-18.749324 47.840212 26.257919
-19.406678 46.806402 25.734928
-19.036282 46.522972 26.847944
-11.277603 68.002872 21.552467
-12.045559 66.884377 21.461782
-10.452808 69.156593 21.646527
-11.086212 69.417263 20.473386
-11.277603 68.002872 21.552467
-6.4563 64.452997 30.452493
-7.328586 63.427597 30.413164
-12.624827 90.052315 -21.615309
-13.314442 89.327938 -20.224373
-11.999829 78.800998 8.911974
-12.275772 77.461425 10.098689
-11.763193 80.117203 7.640731
-12.543235 79.114635 7.571997
-11.999829 78.800998 8.911974
-7.037088 93.404469 -6.832276
-7.642311 92.31736 -5.515336
-6.487502 94.413563 -8.253272
-7.634832 93.32904 -8.162751
-7.037088 93.404469 -6.832276
-33.255198 30.171559 9.18296
-33.623737 30.154796 8.00238
-15.006871 57.801619 24.749164
-15.675603 56.691967 24.517522
-14.749092 59.331806 23.832153
-15.006871 57.801619 24.749164
-11.334109 63.35354 25.706026
-11.843373 63.677611 24.677062
-30.256404 28.50658 18.676544
-30.711537 28.680362 17.545859
-24.956518 53.594318 1.586007
-24.688503 53.721071 2.60948
-24.484773 54.908197 1.974717
-25.387481 52.261768 1.220222
-24.956518 53.594318 1.586007
-24.416978 57.991348 -2.334468
-24.240795 58.204493 -1.25861
-24.19898 59.135664 -3.082059
-24.416978 57.991348 -2.334468
-17.93658 81.631622 -18.337578
-17.354273 82.917816 -18.644526
-18.404337 80.824627 -17.116579
-17.93658 81.631622 -18.337578
-8.570229 88.931072 -0.374994
-7.59383 89.900669 -0.361707
-11.533798 85.51022 0.031531
-10.571324 86.642491 -0.05174
-11.18685 86.653877 -1.309427
-12.463964 84.37698 0.050956
-11.848438 84.365593 1.308643
-11.533798 85.51022 0.031531
-9.795765 92.082905 -10.744119
-8.63929 93.254658 -10.942221
-10.6189 92.316848 -15.875991
-10.151298 92.623356 -14.689878
-11.697982 91.137852 -15.672506
-10.6189 92.316848 -15.875991
-30.73825 37.214505 4.420646
-31.417361 36.161505 3.836177
-31.128303 36.281061 4.932782
-30.062983 38.309467 5.073092
-30.352041 38.189911 3.976488
-30.73825 37.214505 4.420646
-32.701988 28.426255 13.256203
-33.434187 27.525733 12.621694
-33.058191 27.332487 13.804603
-24.84207 26.64809 30.466668
-24.375217 26.108864 31.549411
-24.630031 27.914946 30.026861
-25.324973 27.175462 29.274905
-24.84207 26.64809 30.466668
-22.15566 29.954714 33.129389
-22.321182 28.668808 33.543201
-18.475046 39.24068 33.648827
-18.672817 37.787292 34.238392
-19.062691 41.612991 30.94043
-18.386943 42.619253 31.447364
-18.789985 43.036314 30.36856
-17.8874 52.007009 24.219989
-18.180784 50.579849 24.928747
-17.523675 51.656664 25.387963
-14.93084 62.35667 20.743323
-14.370683 62.11976 21.967189
-13.679329 67.644596 18.026347
-13.832797 66.203663 19.142664
-13.161609 67.362419 19.211118
-9.582345 74.827008 17.160303
-10.174649 75.102909 16.020054
-10.410688 73.709191 17.179884
-5.75537 68.989689 27.376494
-6.015629 67.486439 28.409239
-28.13815 44.188434 1.025995
-27.948646 44.313312 2.079077
-28.383336 43.837078 -0.867344
-27.983052 44.83355 -1.327025
-23.645893 62.342411 -5.56599
-23.824887 61.289213 -4.775403
-23.547342 62.70376 -4.629933
-21.327545 72.336681 -12.506395
-20.977801 73.854836 -12.809905
-22.163007 69.444988 -9.367441
-21.892125 70.442193 -10.370165
-22.207842 68.979069 -10.301134
-11.97759 75.846001 12.460207
-11.363587 75.661445 13.627436
-27.864472 27.986441 23.962389
-28.535002 27.17908 23.342858
-27.563259 29.186557 23.560727
-27.864472 27.986441 23.962389
-27.161544 28.789946 24.669713
-24.328047 56.051556 1.321464
-24.484773 54.908197 1.974717
-24.060033 56.178308 2.344937
-24.152926 57.197518 0.62198
-24.328047 56.051556 1.321464
-23.999341 58.449808 -0.201253
-24.152926 57.197518 0.62198
-23.749721 58.573957 0.86845
-23.83759 59.580933 -1.01214
-24.240795 58.204493 -1.25861
-23.999341 58.449808 -0.201253
-16.163361 84.893246 -20.219698
-15.613888 85.50779 -21.493636
-33.671673 31.331221 5.314319
-34.115229 30.316388 5.774917
-33.258145 32.323362 4.805829
-33.671673 31.331221 5.314319
-33.082321 32.218546 5.872554
-32.875292 33.2069 4.273931
-33.258145 32.323362 4.805829
-32.238103 34.219374 4.856189
-32.444602 34.215588 3.766056
-32.875292 33.2069 4.273931
-23.676662 26.905445 32.264212
-24.375217 26.108864 31.549411
-21.728357 32.655 32.254562
-21.946453 31.312583 32.673473
-22.144181 33.2117 31.120758
-21.728357 32.655 32.254562
-21.49323 34.035963 31.766008
-18.498828 44.480263 29.763983
-18.221519 45.899174 29.134363
-19.174576 43.474001 29.257049
-18.789985 43.036314 30.36856
-18.498828 44.480263 29.763983
-12.613042 67.092514 20.353381
-12.045559 66.884377 21.461782
-12.459574 68.533447 19.237063
-13.161609 67.362419 19.211118
-12.613042 67.092514 20.353381
-8.219741 62.322367 30.352766
-9.124405 61.254291 30.22111
-8.008468 63.832483 29.378349
-8.219741 62.322367 30.352766
-7.328586 63.427597 30.413164
-27.672572 45.784403 -1.897336
-27.983052 44.83355 -1.327025
-27.593162 46.065942 -0.950246
-22.450817 67.448387 -10.151769
-22.207842 68.979069 -10.301134
-22.715663 66.533493 -9.262533
-22.450817 67.448387 -10.151769
-26.263975 28.012868 26.993356
-26.761881 28.369718 25.805661
-13.908317 88.637352 -18.917006
-14.520463 87.814968 -17.560091
-13.61728 89.024998 -17.753946
-14.217625 88.117908 -20.030518
-13.908317 88.637352 -18.917006
-13.314442 89.327938 -20.224373
-12.968984 89.3834 -22.656269
-12.624827 90.052315 -21.615309
-13.889896 88.142105 -22.289003
-12.968984 89.3834 -22.656269
-14.801766 86.812649 -21.911248
-14.535619 87.479039 -20.96013
-13.889896 88.142105 -22.289003
-14.968166 86.170856 -22.822508
-15.613888 85.50779 -21.493636
-14.801766 86.812649 -21.911248
-12.541421 76.035908 11.288609
-12.747339 74.757488 12.394678
-11.97759 75.846001 12.460207
-13.045521 76.372913 10.03316
-12.541421 76.035908 11.288609
-12.275772 77.461425 10.098689
-7.030195 91.112747 -1.648337
-7.59383 89.900669 -0.361707
-7.59612 91.237568 -3.020049
-7.030195 91.112747 -1.648337
-6.534277 92.189953 -2.917204
-8.196553 91.206593 -4.187518
-8.692471 90.129387 -2.918651
-7.59612 91.237568 -3.020049
-8.738661 91.209179 -5.413938
-8.196553 91.206593 -4.187518
-7.642311 92.31736 -5.515336
-7.529026 94.312473 -10.979295
-8.63929 93.254658 -10.942221
-8.19551 93.280319 -9.546672
-5.839987 95.425648 -9.622598
-6.487502 94.413563 -8.253272
-6.319385 95.380593 -10.972181
-5.839987 95.425648 -9.622598
-6.763165 95.354931 -12.36773
-7.529026 94.312473 -10.979295
-6.319385 95.380593 -10.972181
-33.910387 30.182939 6.921702
-34.115229 30.316388 5.774917
-33.2092 31.198263 7.461722
-33.910387 30.182939 6.921702
-33.623737 30.154796 8.00238
-20.132869 35.877009 33.009703
-20.843101 34.887472 32.407663
-16.840077 52.763836 25.771554
-17.523675 51.656664 25.387963
-16.582024 54.13167 25.036277
-16.840077 52.763836 25.771554
-16.345537 55.538008 24.22765
-16.993805 54.490162 23.870578
-16.582024 54.13167 25.036277
-16.087384 57.050459 23.351823
-16.345537 55.538008 24.22765
-15.675603 56.691967 24.517522
-14.586861 60.740088 22.848502
-15.255219 59.612699 22.658044
-14.749092 59.331806 23.832153
-14.370683 62.11976 21.967189
-14.586861 60.740088 22.848502
-11.642677 65.184433 23.624322
-11.843373 63.677611 24.677062
-10.874721 66.302929 23.715006
-11.642677 65.184433 23.624322
-26.536506 49.35211 -1.632957
-26.163685 50.725134 -1.262247
-20.220745 76.259529 -14.16694
-19.857292 77.100597 -15.320415
-32.652929 27.150304 14.966855
-33.058191 27.332487 13.804603
-31.890241 27.999695 15.686705
-32.652929 27.150304 14.966855
-31.144855 28.925938 16.29672
-31.580606 29.159252 15.049128
-31.890241 27.999695 15.686705
-30.401902 29.839919 16.908281
-31.144855 28.925938 16.29672
-30.711537 28.680362 17.545859
-28.982371 27.579957 22.163078
-28.535002 27.17908 23.342858
-29.403911 27.868945 21.044604
-28.982371 27.579957 22.163078
-28.687726 28.672041 21.734928
-29.826745 28.189923 19.906061
-29.403911 27.868945 21.044604
-29.538925 29.277686 19.386936
-30.256404 28.50658 18.676544
-29.826745 28.189923 19.906061
-27.963141 43.441614 3.730171
-28.298403 42.456453 4.222834
-27.697883 44.438347 3.150701
-27.963141 43.441614 3.730171
-27.395533 44.595564 4.240111
-27.381039 45.467263 2.589017
-27.948646 44.313312 2.079077
-27.697883 44.438347 3.150701
-25.847237 51.01384 0.81631
-25.620004 51.159264 1.816858
-25.387481 52.261768 1.220222
-26.020153 50.89539 -0.219445
-26.252676 49.792885 0.377191
-25.847237 51.01384 0.81631
-26.163685 50.725134 -1.262247
-26.020153 50.89539 -0.219445
-16.672777 84.231731 -18.915914
-15.956904 85.488067 -19.278591
-16.163361 84.893246 -20.219698
-17.147816 83.512638 -17.703418
-16.672777 84.231731 -18.915914
-17.354273 82.917816 -18.644526
-18.852611 79.957695 -15.766247
-18.277587 81.331791 -16.081698
-18.404337 80.824627 -17.116579
-19.385833 78.566902 -15.608161
-19.259083 79.074066 -14.57328
-18.852611 79.957695 -15.766247
-19.857292 77.100597 -15.320415
-19.385833 78.566902 -15.608161
-11.444564 81.506524 6.304119
-11.763193 80.117203 7.640731
-11.97824 81.75021 5.023325
-11.444564 81.506524 6.304119
-12.564436 81.819133 3.826342
-12.892796 80.499764 5.103772
-11.97824 81.75021 5.023325
-9.636398 87.743965 -0.195752
-8.570229 88.931072 -0.374994
-9.158207 88.973255 -1.57194
-9.636398 87.743965 -0.195752
-10.571324 86.642491 -0.05174
-12.214241 83.150967 2.536981
-11.848438 84.365593 1.308643
-13.128798 81.90052 2.617428
-12.564436 81.819133 3.826342
-12.214241 83.150967 2.536981
-10.826071 90.951229 -10.547383
-10.336079 91.090828 -9.312862
-9.795765 92.082905 -10.744119
-11.34607 90.768463 -11.868325
-11.886384 89.776386 -10.437068
-10.826071 90.951229 -10.547383
-10.753782 91.727158 -13.258039
-10.151298 92.623356 -14.689878
-11.814096 90.552314 -13.147724
-11.34607 90.768463 -11.868325
-10.753782 91.727158 -13.258039
-12.722644 89.95549 -15.565927
-12.24647 90.328648 -14.430858
-11.697982 91.137852 -15.672506
-13.201791 89.483654 -16.602303
-13.750279 88.67445 -15.360656
-12.722644 89.95549 -15.565927
-13.61728 89.024998 -17.753946
-13.201791 89.483654 -16.602303
-32.019976 35.142382 3.255005
-32.444602 34.215588 3.766056
-32.019976 35.142382 3.255005
-31.417361 36.161505 3.836177
-29.938077 39.167828 3.536168
-30.352041 38.189911 3.976488
-29.306393 40.299475 4.12751
-29.938077 39.167828 3.536168
-33.770552 27.743113 11.438544
-34.126755 26.649345 11.986944
-33.434187 27.525733 12.621694
-33.332915 28.896249 10.948407
-33.770552 27.743113 11.438544
-32.91333 30.043194 10.418274
-33.332915 28.896249 10.948407
-32.6584 29.766445 11.543161
-32.580683 31.041754 9.777714
-33.255198 30.171559 9.18296
-32.91333 30.043194 10.418274
-28.629075 41.431973 4.700273
-29.306393 40.299475 4.12751
-28.999454 40.417372 5.201697
-27.991464 42.57435 5.297021
-28.298403 42.456453 4.222834
-28.629075 41.431973 4.700273
-25.789939 27.659223 28.140931
-25.324973 27.175462 29.274905
-25.58697 28.795963 27.687523
-26.263975 28.012868 26.993356
-25.789939 27.659223 28.140931
-23.00196 27.769157 32.915472
-22.525419 27.322966 33.937528
-22.321182 28.668808 33.543201
-23.472425 28.251286 31.869884
-23.676662 26.905445 32.264212
-23.00196 27.769157 32.915472
-22.588515 30.472867 32.065228
-22.15566 29.954714 33.129389
-21.946453 31.312583 32.673473
-19.407458 36.891126 33.619679
-18.672817 37.787292 34.238392
-19.883385 37.309799 32.525492
-20.132869 35.877009 33.009703
-19.407458 36.891126 33.619679
-17.948025 42.105396 32.569434
-18.386943 42.619253 31.447364
-18.225884 40.676687 33.09071
-17.948025 42.105396 32.569434
-18.908811 39.759923 32.577351
-18.475046 39.24068 33.648827
-18.225884 40.676687 33.09071
-18.46839 49.176573 25.620812
-18.749324 47.840212 26.257919
-18.832114 49.526918 24.452838
-18.46839 49.176573 25.620812
-18.180784 50.579849 24.928747
-15.403135 62.622803 19.558959
-15.565282 61.287114 20.490029
-14.93084 62.35667 20.743323
-15.252979 63.980866 18.587231
-15.887421 62.911309 18.333936
-15.403135 62.622803 19.558959
-14.559605 65.0891 18.885073
-13.832797 66.203663 19.142664
-15.043892 65.377606 17.66005
-15.252979 63.980866 18.587231
-14.559605 65.0891 18.885073
-10.773329 75.370201 14.864115
-11.363587 75.661445 13.627436
-11.59325 74.276336 14.802956
-10.773329 75.370201 14.864115
-10.174649 75.102909 16.020054
-9.703608 61.79907 29.113132
-9.124405 61.254291 30.22111
-10.278139 62.32338 27.986884
-9.703608 61.79907 29.113132
-9.474154 63.251562 28.191704
-10.80583 62.809649 26.886552
-10.278139 62.32338 27.986884
-10.576964 64.319763 25.884931
-11.334109 63.35354 25.706026
-10.80583 62.809649 26.886552
-10.099127 67.268853 23.890574
-10.874721 66.302929 23.715006
-10.329649 65.829578 24.879973
-6.241934 66.019009 29.40652
-6.4563 64.452997 30.452493
-6.891008 66.405144 28.441467
-6.241934 66.019009 29.40652
-6.015629 67.486439 28.409239
-6.453822 69.331608 26.363357
-5.75537 68.989689 27.376494
-7.316393 68.303757 26.343724
-6.453822 69.331608 26.363357
-8.197909 67.248787 26.286725
-7.546218 66.817604 27.387188
-7.316393 68.303757 26.343724
-8.761069 67.765221 25.149401
-8.990894 66.279068 26.192865
-8.197909 67.248787 26.286725
-9.323806 68.299751 23.96212
-8.761069 67.765221 25.149401
-9.868879 68.773102 22.797152
-10.099127 67.268853 23.890574
-9.323806 68.299751 23.96212
-9.677488 70.187492 21.718072
-10.452808 69.156593 21.646527
-9.868879 68.773102 22.797152
-9.467424 71.647133 20.567262
-9.677488 70.187492 21.718072
-9.245907 73.078285 19.443605
-10.039901 72.002137 19.44379
-9.467424 71.647133 20.567262
-9.039499 74.411957 18.33219
-9.245907 73.078285 19.443605
-8.467021 74.056953 19.455663
-9.582345 74.827008 17.160303
-9.039499 74.411957 18.33219
-28.27407 44.074865 0.07733
-28.13815 44.188434 1.025995
-27.767722 45.228658 0.568729
-28.27407 44.074865 0.07733
-28.383336 43.837078 -0.867344
-26.965051 48.023291 -2.063953
-26.854136 48.345616 -1.089561
-26.536506 49.35211 -1.632957
-27.32723 46.655294 -2.414972
-26.965051 48.023291 -2.063953
-27.71712 45.422902 -2.791751
-27.672572 45.784403 -1.897336
-27.32723 46.655294 -2.414972
-24.022626 60.293137 -3.966983
-24.19898 59.135664 -3.082059
-23.90269 60.493089 -2.954422
-24.022626 60.293137 -3.966983
-23.824887 61.289213 -4.775403
-20.576658 75.282803 -12.902599
-20.148218 76.706547 -13.150853
-20.220745 76.259529 -14.16694
-20.905273 74.301853 -11.793818
-20.576658 75.282803 -12.902599
-20.977801 73.854836 -12.809905
-21.621688 71.42508 -11.502491
-21.327545 72.336681 -12.506395
-21.576853 71.890999 -10.568798
-21.621688 71.42508 -11.502491
-21.892125 70.442193 -10.370165
-22.945378 65.539592 -8.271727
-22.70844 66.987965 -8.307605
-22.715663 66.533493 -9.262533
-23.19988 64.536226 -7.33157
-22.945378 65.539592 -8.271727
-23.414976 63.417673 -6.383432
-23.15325 64.875511 -6.36866
-23.19988 64.536226 -7.33157
-23.645893 62.342411 -5.56599
-23.414976 63.417673 -6.383432
3 0 80 78
3 2 83 81
3 2 85 83
3 1 88 86
3 4 309 311
3 309 90 310
3 309 310 311
3 4 92 90
3 5 95 93
3 7 98 96
3 7 99 98
3 8 102 100
3 10 105 103
3 12 108 106
3 12 110 108
3 13 113 111
3 13 115 113
3 13 117 115
3 14 119 118
3 14 121 119
3 3 124 122
3 15 127 125
3 15 129 127
3 15 131 129
3 16 134 132
3 16 136 134
3 17 312 314
3 312 138 313
3 312 313 314
3 17 140 138
3 315 141 316
3 317 143 318
3 319 318 141
3 317 318 319
3 320 145 321
3 322 321 143
3 320 321 322
3 18 148 146
3 18 150 148
3 18 152 150
3 323 153 324
3 325 155 326
3 327 326 153
3 325 326 327
3 328 157 329
3 6 160 158
3 11 163 161
3 19 166 164
3 19 168 166
3 9 171 169
3 20 174 172
3 22 175 79
3 22 176 175
3 330 178 331
3 24 181 179
3 332 182 333
3 334 183 335
3 336 335 182
3 334 335 336
3 337 184 338
3 339 186 340
3 341 340 184
3 339 340 341
3 342 187 343
3 27 190 188
3 29 191 82
3 29 192 191
3 29 194 192
3 31 195 84
3 31 196 195
3 344 197 345
3 347 346 197
3 348 199 349
3 33 202 200
3 35 203 87
3 35 204 203
3 350 205 351
3 37 206 89
3 37 207 206
3 37 208 207
3 38 209 91
3 38 210 209
3 39 212 211
3 41 213 94
3 41 214 213
3 21 215 173
3 352 216 353
3 354 353 97
3 352 353 354
3 356 355 216
3 42 357 358
3 42 359 360
3 43 219 217
3 45 220 101
3 45 221 220
3 23 222 177
3 361 223 362
3 364 363 223
3 46 226 224
3 48 227 104
3 48 228 227
3 25 229 180
3 49 230 107
3 49 231 230
3 49 232 231
3 50 233 109
3 50 234 233
3 26 365 366
3 51 367 369
3 369 368 112
3 367 368 369
3 51 370 372
3 370 235 371
3 370 371 372
3 51 236 235
3 52 237 114
3 52 238 237
3 52 239 238
3 53 240 116
3 53 241 240
3 374 373 185
3 375 242 376
3 378 377 242
3 54 379 381
3 381 380 120
3 379 380 381
3 54 382 384
3 382 243 383
3 382 383 384
3 36 385 387
3 385 244 386
3 385 386 387
3 55 245 123
3 55 246 245
3 28 247 189
3 56 248 126
3 56 249 248
3 56 250 249
3 57 251 128
3 57 252 251
3 57 253 252
3 58 254 130
3 58 255 254
3 30 256 193
3 59 257 133
3 59 258 257
3 59 259 258
3 60 260 135
3 60 261 260
3 61 388 389
3 61 390 392
3 390 262 391
3 390 391 392
3 393 263 394
3 62 264 137
3 62 265 264
3 62 266 265
3 63 267 139
3 63 268 267
3 395 269 396
3 64 397 399
3 397 270 398
3 397 398 399
3 64 271 270
3 64 272 271
3 65 273 142
3 65 274 273
3 65 275 274
3 66 276 144
3 66 277 276
3 32 400 402
3 400 278 401
3 400 401 402
3 67 279 147
3 67 280 279
3 67 281 280
3 68 282 149
3 68 283 282
3 68 284 283
3 69 285 151
3 69 286 285
3 404 403 198
3 70 405 407
3 405 287 406
3 405 406 407
3 70 288 287
3 70 289 288
3 71 290 154
3 71 408 410
3 410 409 290
3 408 409 410
3 72 291 156
3 72 292 291
3 411 293 412
3 40 413 414
3 416 415 159
3 47 294 225
3 73 295 162
3 73 296 295
3 34 297 201
3 74 298 165
3 74 299 298
3 74 300 299
3 75 301 167
3 75 417 419
3 419 418 301
3 417 418 419
3 44 302 218
3 76 303 170
3 76 304 303
3 420 305 421
3 77 422 424
3 422 306 423
3 422 423 424
3 77 307 306
3 77 308 307
3 78 79 20
3 80 79 78
3 80 22 79
3 426 425 24
3 81 82 27
3 83 82 81
3 83 29 82
3 83 84 29
3 85 84 83
3 85 31 84
3 86 87 33
3 88 87 86
3 88 35 87
3 427 89 428
3 90 429 431
3 429 89 430
3 429 430 431
3 90 37 89
3 90 91 37
3 92 91 90
3 92 38 91
3 93 94 39
3 95 94 93
3 95 41 94
3 96 97 21
3 98 97 96
3 98 432 434
3 434 433 97
3 432 433 434
3 98 435 436
3 99 437 439
3 439 438 98
3 437 438 439
3 99 440 442
3 440 42 441
3 440 441 442
3 100 101 43
3 102 101 100
3 102 45 101
3 444 443 23
3 103 104 46
3 105 104 103
3 105 48 104
3 106 107 25
3 108 107 106
3 108 49 107
3 108 109 49
3 110 109 108
3 110 50 109
3 111 112 26
3 113 112 111
3 113 51 112
3 113 114 51
3 115 114 113
3 115 52 114
3 115 116 52
3 117 116 115
3 117 53 116
3 118 445 446
3 119 447 449
3 449 448 118
3 447 448 449
3 119 450 451
3 119 452 454
3 452 120 453
3 452 453 454
3 121 120 119
3 121 54 120
3 122 123 36
3 124 123 122
3 124 55 123
3 125 126 28
3 127 126 125
3 127 56 126
3 127 128 56
3 129 128 127
3 129 57 128
3 129 130 57
3 131 130 129
3 131 58 130
3 132 133 30
3 134 133 132
3 134 59 133
3 134 135 59
3 136 135 134
3 136 60 135
3 455 61 456
3 457 137 458
3 138 459 461
3 459 137 460
3 459 460 461
3 138 62 137
3 138 139 62
3 140 139 138
3 140 63 139
3 141 462 463
3 141 464 466
3 464 64 465
3 464 465 466
3 141 142 64
3 143 142 141
3 143 65 142
3 143 144 65
3 145 144 143
3 145 66 144
3 146 147 32
3 148 147 146
3 148 67 147
3 148 149 67
3 150 149 148
3 150 68 149
3 150 151 68
3 152 151 150
3 152 69 151
3 153 467 468
3 153 469 471
3 469 70 470
3 469 470 471
3 153 154 70
3 155 154 153
3 155 71 154
3 472 156 473
3 157 474 476
3 474 156 475
3 474 475 476
3 157 72 156
3 158 159 40
3 160 159 158
3 160 477 479
3 479 478 159
3 477 478 479
3 161 162 47
3 163 162 161
3 163 73 162
3 164 165 34
3 166 165 164
3 166 74 165
3 166 167 74
3 168 167 166
3 168 75 167
3 169 170 44
3 171 170 169
3 171 76 170
3 480 77 481
3 483 482 77
3 484 4 485
3 172 173 5
3 174 173 172
3 174 21 173
3 79 174 20
3 175 174 79
3 175 21 174
3 175 96 21
3 176 96 175
3 176 7 96
3 486 177 487
3 488 487 8
3 486 487 488
3 178 489 491
3 489 177 490
3 489 490 491
3 178 23 177
3 492 178 493
3 494 178 495
3 496 23 497
3 498 497 178
3 496 497 498
3 501 500 23
3 499 500 501
3 179 180 10
3 181 180 179
3 181 25 180
3 502 181 503
3 504 503 24
3 502 503 504
3 182 505 507
3 505 181 506
3 505 506 507
3 182 25 181
3 182 106 25
3 183 106 182
3 183 12 106
3 508 26 509
3 510 26 511
3 510 511 512
3 513 111 514
3 515 514 26
3 513 514 515
3 184 516 518
3 516 111 517
3 516 517 518
3 184 13 111
3 184 185 13
3 186 185 184
3 186 519 521
3 521 520 185
3 519 520 521
3 522 186 523
3 524 186 525
3 528 527 186
3 526 527 528
3 529 118 530
3 187 531 533
3 531 118 532
3 531 532 533
3 187 14 118
3 188 189 3
3 190 189 188
3 190 28 189
3 82 190 27
3 191 190 82
3 191 28 190
3 191 125 28
3 192 125 191
3 192 15 125
3 192 193 15
3 194 193 192
3 194 30 193
3 84 194 29
3 195 194 84
3 195 30 194
3 195 132 30
3 196 132 195
3 196 16 132
3 534 17 535
3 536 32 537
3 538 32 539
3 540 146 541
3 542 541 32
3 540 541 542
3 197 543 545
3 543 146 544
3 543 544 545
3 197 18 146
3 197 198 18
3 546 198 547
3 548 547 197
3 546 547 548
3 550 549 198
3 199 551 552
3 199 553 554
3 556 555 6
3 200 201 11
3 202 201 200
3 202 34 201
3 87 202 33
3 203 202 87
3 203 34 202
3 203 164 34
3 204 164 203
3 204 19 164
3 558 557 9
3 559 36 560
3 561 36 562
3 563 122 564
3 565 564 36
3 563 564 565
3 205 566 568
3 566 122 567
3 566 567 568
3 205 3 122
3 89 569 570
3 206 571 573
3 573 572 89
3 571 572 573
3 206 574 575
3 206 576 578
3 576 205 577
3 576 577 578
3 207 205 206
3 207 3 205
3 207 188 3
3 208 188 207
3 208 27 188
3 91 208 37
3 209 208 91
3 209 27 208
3 209 81 27
3 210 81 209
3 210 2 81
3 211 579 580
3 212 581 583
3 583 582 211
3 581 582 583
3 212 584 586
3 584 40 585
3 584 585 586
3 94 212 39
3 213 212 94
3 213 40 212
3 213 158 40
3 214 158 213
3 214 6 158
3 173 95 5
3 215 95 173
3 215 41 95
3 97 215 21
3 216 215 97
3 216 41 215
3 216 214 41
3 587 214 588
3 589 588 216
3 587 588 589
3 590 6 591
3 592 591 214
3 590 591 592
3 594 593 6
3 217 218 1
3 219 218 217
3 219 44 218
3 101 219 43
3 220 219 101
3 220 44 219
3 220 169 44
3 221 169 220
3 221 9 169
3 177 102 8
3 222 102 177
3 222 45 102
3 595 222 596
3 597 596 23
3 595 596 597
3 223 598 600
3 598 222 599
3 598 599 600
3 223 45 222
3 223 221 45
3 601 221 602
3 603 602 223
3 601 602 603
3 604 9 605
3 606 605 221
3 604 605 606
3 608 607 9
3 224 225 0
3 226 225 224
3 226 47 225
3 104 226 46
3 227 226 104
3 227 47 226
3 227 161 47
3 228 161 227
3 228 11 161
3 180 105 10
3 229 105 180
3 229 48 105
3 107 229 25
3 230 229 107
3 230 48 229
3 230 228 48
3 231 228 230
3 231 11 228
3 231 200 11
3 232 200 231
3 232 33 200
3 109 232 49
3 233 232 109
3 233 33 232
3 233 86 33
3 234 86 233
3 234 1 86
3 609 183 610
3 611 183 612
3 613 12 614
3 615 614 183
3 613 614 615
3 112 616 618
3 618 617 26
3 616 617 618
3 620 619 112
3 235 621 622
3 235 623 625
3 623 12 624
3 623 624 625
3 235 110 12
3 236 110 235
3 236 50 110
3 114 236 51
3 237 236 114
3 237 50 236
3 237 234 50
3 238 234 237
3 238 1 234
3 238 217 1
3 239 217 238
3 239 43 217
3 116 239 52
3 240 239 116
3 240 43 239
3 240 100 43
3 241 100 240
3 241 8 100
3 185 117 13
3 626 117 627
3 628 627 185
3 626 627 628
3 629 53 630
3 631 630 117
3 629 630 631
3 242 632 633
3 242 634 636
3 634 53 635
3 634 635 636
3 242 241 53
3 637 241 638
3 639 638 242
3 637 638 639
3 640 8 641
3 642 641 241
3 640 641 642
3 644 643 8
3 120 645 646
3 648 647 120
3 243 649 650
3 243 651 652
3 244 653 655
3 653 654 655
3 244 656 657
3 123 244 36
3 245 244 123
3 245 658 660
3 660 659 244
3 658 659 660
3 245 661 663
3 661 187 662
3 661 662 663
3 246 187 245
3 246 14 187
3 189 124 3
3 247 124 189
3 247 55 124
3 126 247 28
3 248 247 126
3 248 55 247
3 248 246 55
3 249 246 248
3 249 14 246
3 249 121 14
3 250 121 249
3 250 54 121
3 128 250 56
3 251 250 128
3 251 54 250
3 251 243 54
3 252 243 251
3 252 664 666
3 666 665 243
3 664 665 666
3 252 667 669
3 667 211 668
3 667 668 669
3 253 211 252
3 253 39 211
3 130 253 57
3 254 253 130
3 254 39 253
3 254 93 39
3 255 93 254
3 255 5 93
3 193 131 15
3 256 131 193
3 256 58 131
3 133 256 30
3 257 256 133
3 257 58 256
3 257 255 58
3 258 255 257
3 258 5 255
3 258 172 5
3 259 172 258
3 259 20 172
3 135 259 59
3 260 259 135
3 260 20 259
3 260 78 20
3 261 78 260
3 261 0 78
3 262 670 671
3 262 672 674
3 672 4 673
3 672 673 674
3 263 675 677
3 675 676 677
3 263 678 680
3 678 61 679
3 678 679 680
3 137 681 683
3 681 263 682
3 681 682 683
3 264 263 137
3 264 61 263
3 264 262 61
3 265 262 264
3 265 4 262
3 265 92 4
3 266 92 265
3 266 38 92
3 139 266 62
3 267 266 139
3 267 38 266
3 267 210 38
3 268 210 267
3 268 2 210
3 269 684 685
3 269 686 688
3 686 17 687
3 686 687 688
3 270 689 690
3 270 691 692
3 270 693 695
3 693 269 694
3 693 694 695
3 271 269 270
3 271 17 269
3 271 140 17
3 272 140 271
3 272 63 140
3 142 272 64
3 273 272 142
3 273 63 272
3 273 268 63
3 274 268 273
3 274 2 268
3 274 85 2
3 275 85 274
3 275 31 85
3 144 275 65
3 276 275 144
3 276 31 275
3 276 196 31
3 277 196 276
3 277 16 196
3 696 145 697
3 278 698 700
3 698 145 699
3 698 699 700
3 278 66 145
3 147 278 32
3 279 278 147
3 279 66 278
3 279 277 66
3 280 277 279
3 280 16 277
3 280 136 16
3 281 136 280
3 281 60 136
3 149 281 67
3 282 281 149
3 282 60 281
3 282 261 60
3 283 261 282
3 283 0 261
3 283 224 0
3 284 224 283
3 284 46 224
3 151 284 68
3 285 284 151
3 285 46 284
3 285 103 46
3 286 103 285
3 286 10 103
3 198 152 18
3 701 152 702
3 703 702 198
3 701 702 703
3 704 69 705
3 706 705 152
3 704 705 706
3 287 707 708
3 287 709 711
3 709 69 710
3 709 710 711
3 287 286 69
3 288 286 287
3 288 10 286
3 288 179 10
3 289 179 288
3 289 24 179
3 154 289 70
3 290 289 154
3 290 24 289
3 290 712 714
3 714 713 24
3 712 713 714
3 716 715 290
3 156 717 718
3 291 719 721
3 721 720 156
3 719 720 721
3 291 722 723
3 291 724 726
3 724 199 725
3 724 725 726
3 292 199 291
3 292 727 729
3 729 728 199
3 727 728 729
3 730 157 731
3 293 732 734
3 732 157 733
3 732 733 734
3 293 72 157
3 735 293 736
3 737 293 738
3 739 72 740
3 741 740 293
3 739 740 741
3 742 292 743
3 744 743 72
3 742 743 744
3 745 292 746
3 749 748 292
3 747 748 749
3 750 155 751
3 750 751 752
3 753 155 754
3 755 71 756
3 757 756 155
3 755 756 757
3 758 71 759
3 758 759 760
3 762 761 71
3 159 763 765
3 765 764 40
3 763 764 765
3 767 766 159
3 768 160 769
3 770 769 6
3 768 769 770
3 771 160 772
3 775 774 160
3 773 774 775
3 225 80 0
3 294 80 225
3 294 22 80
3 162 294 47
3 295 294 162
3 295 22 294
3 295 176 22
3 296 176 295
3 296 7 176
3 201 163 11
3 297 163 201
3 297 73 163
3 165 297 34
3 298 297 165
3 298 73 297
3 298 296 73
3 299 296 298
3 299 7 296
3 299 99 7
3 300 99 299
3 300 42 99
3 167 300 74
3 301 300 167
3 301 42 300
3 301 776 778
3 778 777 42
3 776 777 778
3 780 779 301
3 218 88 1
3 302 88 218
3 302 35 88
3 170 302 44
3 303 302 170
3 303 35 302
3 303 204 35
3 304 204 303
3 304 19 204
3 781 171 782
3 783 782 9
3 781 782 783
3 305 784 786
3 784 171 785
3 784 785 786
3 305 76 171
3 787 305 788
3 306 789 791
3 789 305 790
3 789 790 791
3 306 76 305
3 306 304 76
3 307 304 306
3 307 19 304
3 307 168 19
3 308 168 307
3 308 75 168
3 792 308 793
3 794 793 77
3 792 793 794
3 795 308 796
3 797 75 798
3 799 798 308
3 797 798 799
3 801 800 75
