ply
format ascii 1.0
element vertex 128
property float x
property float y
property float z
element face 108
property list uchar int vertex_index
end_header
-5.429057 58.986427 -42.559673
-2.717985 50.479538 -48.14571
-4.033813 54.952518 -45.266331
-6.220437 53.947021 -42.580463
-5.363359 50.002552 -45.636826
-4.644026 45.961372 -48.896469
-6.467909 58.190048 -41.086422
-3.28116 52.929668 -46.708748
-4.594753 52.520145 -45.457058
-4.107501 50.37516 -46.933315
-4.969986 47.993504 -47.258339
-3.659826 48.19965 -48.44323
-4.271996 60.123302 -43.826889
-4.648946 57.182957 -43.947453
-3.378683 57.905243 -45.203762
-2.589557 55.694744 -46.480339
-1.910479 53.229469 -47.767208
-5.208245 54.556831 -43.938324
-5.809237 51.926022 -44.05735
-6.495904 49.493874 -44.213169
-6.167493 47.600155 -45.962772
-1.244548 50.633373 -49.123318
-2.16398 48.163864 -49.574581
-3.172145 46.031532 -50.03083
-5.629736 57.698656 -42.527488
-6.149162 57.300466 -41.790863
-5.948483 58.588237 -41.823048
-3.153052 59.384029 -45.141172
-3.82534 59.014273 -44.515326
-3.599708 60.493059 -44.452736
-1.804807 55.869011 -47.051203
-2.245121 57.09733 -46.443022
-1.465267 54.636374 -47.694637
-2.250018 54.462107 -47.123773
-1.804807 55.869011 -47.051203
-6.67758 53.60478 -41.835316
-6.473685 54.804241 -41.857826
-6.505384 52.701576 -42.588161
-6.67758 53.60478 -41.835316
-5.291676 45.857904 -48.267966
-5.454656 46.87397 -47.448901
-4.807006 46.977438 -48.077404
-5.104446 44.938204 -49.233647
-5.752096 44.834736 -48.605143
-5.291676 45.857904 -48.267966
-0.391072 50.693764 -49.559072
-0.746563 52.011854 -48.973235
-1.908458 47.072817 -50.256495
-1.334128 48.1509 -50.035001
-2.41254 46.006651 -50.484619
-2.668063 47.097698 -49.802706
-1.908458 47.072817 -50.256495
-6.597421 56.925754 -41.110805
-6.856194 57.658709 -40.441948
-6.597421 56.925754 -41.110805
-6.149162 57.300466 -41.790863
-6.025426 55.178953 -42.537883
-6.473685 54.804241 -41.857826
-2.639684 58.202579 -45.804733
-3.153052 59.384029 -45.141172
-2.98412 56.799993 -45.84205
-2.639684 58.202579 -45.804733
-2.245121 57.09733 -46.443022
-6.795064 58.942104 -40.408087
-6.856194 57.658709 -40.441948
-6.341337 59.509098 -41.12887
-6.795064 58.942104 -40.408087
-5.821911 59.907287 -41.865495
-5.948483 58.588237 -41.823048
-6.341337 59.509098 -41.12887
-5.308984 60.480929 -42.516611
-5.821911 59.907287 -41.865495
-4.730453 61.049366 -43.150219
-4.850526 59.554865 -43.193281
-5.308984 60.480929 -42.516611
-4.0909 61.536301 -43.822239
-4.730453 61.049366 -43.150219
-3.599708 60.493059 -44.452736
-4.0909 61.536301 -43.822239
-5.239681 56.796921 -43.221379
-5.629736 57.698656 -42.527488
-5.039001 58.084692 -43.253563
-5.51933 55.483858 -43.216814
-5.239681 56.796921 -43.221379
-4.928596 55.869894 -43.942889
-5.714341 54.251926 -43.259394
-6.025426 55.178953 -42.537883
-5.51933 55.483858 -43.216814
-6.299785 51.691077 -43.326605
-6.505384 52.701576 -42.588161
-6.014837 52.936521 -43.318906
-6.643118 50.475003 -43.404515
-6.299785 51.691077 -43.326605
-6.152571 50.709948 -44.13526
-6.953673 49.227614 -43.501014
-6.643118 50.475003 -43.404515
-6.859611 48.283356 -44.400999
-6.953673 49.227614 -43.501014
-6.695406 47.336496 -45.275801
-6.859611 48.283356 -44.400999
-6.331698 48.547015 -45.08797
-6.615996 46.462344 -46.171413
-6.695406 47.336496 -45.275801
-6.05341 46.677295 -46.801117
-5.568739 47.79683 -46.610556
-5.454656 46.87397 -47.448901
-6.615996 46.462344 -46.171413
-6.05341 46.677295 -46.801117
-1.079529 53.309902 -48.29518
-1.465267 54.636374 -47.694637
-1.577514 51.931421 -48.445263
-1.079529 53.309902 -48.29518
-0.746563 52.011854 -48.973235
-0.874412 49.385655 -49.80937
-0.391072 50.693764 -49.559072
-1.704264 49.398618 -49.34895
-0.874412 49.385655 -49.80937
-1.334128 48.1509 -50.035001
-2.922961 44.946776 -50.845197
-2.41254 46.006651 -50.484619
-2.163356 44.921894 -51.298986
-3.691039 44.998661 -50.356131
-2.922961 44.946776 -50.845197
-4.426979 44.963581 -49.78895
-3.908086 45.996452 -49.46365
-3.691039 44.998661 -50.356131
-5.104446 44.938204 -49.233647
-4.426979 44.963581 -49.78895
3 0 24 26
3 26 25 6
3 24 25 26
3 1 9 7
3 1 11 9
3 27 14 28
3 29 28 12
3 27 28 29
3 30 15 31
3 32 16 33
3 34 33 15
3 32 33 34
3 3 35 36
3 3 37 38
3 2 17 13
3 4 18 8
3 4 19 18
3 4 20 19
3 5 39 41
3 41 40 10
3 39 40 41
3 5 42 44
3 42 43 44
3 45 21 46
3 47 22 48
3 49 23 50
3 51 50 22
3 49 50 51
3 6 52 53
3 55 54 6
3 56 3 57
3 7 8 2
3 9 8 7
3 9 4 8
3 9 10 4
3 11 10 9
3 11 5 10
3 12 13 0
3 14 13 12
3 14 2 13
3 58 14 59
3 15 60 62
3 60 14 61
3 60 61 62
3 15 2 14
3 15 7 2
3 16 7 15
3 16 1 7
3 63 6 64
3 65 6 66
3 67 0 68
3 69 68 6
3 67 68 69
3 70 0 71
3 72 12 73
3 74 73 0
3 72 73 74
3 75 12 76
3 78 77 12
3 13 79 81
3 81 80 0
3 79 80 81
3 17 82 84
3 84 83 13
3 82 83 84
3 17 85 87
3 85 3 86
3 85 86 87
3 8 17 2
3 18 17 8
3 18 3 17
3 18 88 90
3 90 89 3
3 88 89 90
3 19 91 93
3 93 92 18
3 91 92 93
3 19 94 95
3 19 96 97
3 20 98 100
3 100 99 19
3 98 99 100
3 20 101 102
3 10 20 4
3 103 20 104
3 105 104 10
3 103 104 105
3 107 106 20
3 108 16 109
3 21 110 112
3 110 16 111
3 110 111 112
3 21 1 16
3 113 21 114
3 22 115 117
3 115 21 116
3 115 116 117
3 22 1 21
3 22 11 1
3 23 11 22
3 23 5 11
3 118 23 119
3 118 119 120
3 121 23 122
3 123 5 124
3 125 124 23
3 123 124 125
3 127 126 5
