ply
format ascii 1.0
element vertex 308
property float x
property float y
property float z
element face 288
property list uchar int vertex_index
end_header
15.545517 49.600792 29.705029
11.13856 60.794109 27.928234
9.640492 51.981979 36.104591
12.715467 68.488533 19.161516
9.907735 70.402336 21.76927
13.288664 55.283989 28.989338
13.818754 59.17453 24.915638
15.866565 53.824894 25.49358
11.28931 41.332458 40.54697
8.972822 66.391785 26.423014
7.969782 62.232349 30.847391
10.345449 56.417439 32.306252
12.647458 50.984779 33.203598
13.65187 72.085953 14.476553
15.388117 66.703796 15.835566
11.901978 64.852631 23.516342
14.640801 62.874943 20.349319
12.049823 46.320259 37.007191
15.046732 45.4566 33.668957
14.377128 52.338749 29.535007
14.651973 54.405891 27.349312
15.72296 51.636135 27.663019
6.808168 65.169563 29.882969
10.026667 54.071087 34.319233
11.446793 53.790157 32.794846
11.224832 51.502258 34.657021
11.809834 71.334511 18.1448
13.202243 70.38752 16.723618
14.568734 69.374229 15.192149
14.044523 67.697006 17.528881
9.984353 63.749069 27.213377
10.465732 65.714195 24.971588
11.448722 62.919182 25.77997
15.14249 58.24839 23.187777
14.201027 61.118164 22.612343
15.511042 60.143635 20.872066
12.887854 41.260262 38.961357
11.678641 43.82394 38.848984
13.273825 43.508499 37.268364
13.547051 45.922371 35.448135
14.763262 43.361774 35.457031
5.864047 60.633701 34.092121
11.334292 69.536621 20.459448
12.161753 57.876724 28.707989
12.496318 59.90617 26.566629
13.55574 57.181293 27.015272
14.791891 56.509033 25.329725
9.620565 41.62191 41.893131
10.87817 38.855186 42.114273
14.151381 38.459232 38.991692
8.536771 64.179085 28.712107
9.59185 61.50301 29.469809
7.558249 59.827915 33.026428
9.132602 59.296848 31.68132
10.640636 58.76812 30.187794
11.843157 55.789501 30.786556
13.041798 53.041462 31.122534
14.193273 50.222996 31.49765
12.743223 74.689827 13.593894
14.140377 73.564171 12.293097
15.070229 70.964607 12.928622
15.865228 68.421341 13.538893
9.329759 68.565308 24.153357
10.826189 67.695328 22.803965
12.305777 66.623505 21.403866
12.851006 61.875103 24.38674
13.277419 63.751167 22.126251
13.72681 65.593605 19.827503
15.017192 64.788162 18.085503
16.246204 63.865547 16.379568
10.037165 44.112137 40.273758
10.529931 46.587906 38.451008
10.876238 49.154583 36.56461
12.429284 48.637321 35.095684
13.955415 48.126827 33.401493
15.308945 47.526524 31.754154
16.188223 49.276331 28.750222
16.276944 50.294003 27.729217
15.634239 50.618464 28.684024
9.833579 53.026533 35.211912
9.234769 54.404489 34.94047
9.041682 53.359936 35.833149
15.958132 58.820643 21.044113
15.326766 59.196013 22.029922
15.773856 57.87302 22.201968
16.082549 59.78991 19.972382
15.958132 58.820643 21.044113
13.92724 42.181579 37.2304
13.080839 42.38438 38.11486
13.734255 41.057461 38.076897
14.671959 42.108217 36.324734
14.018543 43.435136 36.362697
13.92724 42.181579 37.2304
10.171278 71.269665 20.617615
9.361953 71.780129 21.241094
10.621014 69.969479 21.114359
10.884556 70.836807 19.962705
10.171278 71.269665 20.617615
15.996248 54.701006 24.469625
15.458911 56.043076 24.387697
15.329228 55.166964 25.411653
16.49158 53.298765 24.632358
15.996248 54.701006 24.469625
10.672679 37.544243 42.866867
10.04335 38.883925 42.798542
13.996945 37.170171 39.779112
13.355587 38.606399 39.780909
7.403149 58.676525 33.965942
6.711148 60.230808 33.559275
6.556048 59.079418 34.498789
9.739026 57.857143 31.993786
9.00873 58.137769 32.643667
9.615153 56.698065 32.956133
13.197547 73.38789 14.035224
12.495147 73.890667 14.734496
12.949471 72.58873 15.175825
16.04258 66.138183 14.981197
16.281136 66.996956 13.83286
15.626672 67.562568 14.68723
9.15129 67.478546 25.288185
8.564262 68.867836 24.848581
8.385793 67.781075 25.983409
16.638193 62.477531 16.65525
16.045623 62.96607 17.504816
16.869051 63.310085 15.506911
16.638193 62.477531 16.65525
9.113524 70.786652 22.466485
9.361953 71.780129 21.241094
16.335682 51.313976 26.699091
16.407484 52.408355 25.614372
15.794763 52.730514 26.578299
16.335682 51.313976 26.699091
16.276944 50.294003 27.729217
5.927809 65.527107 30.482958
6.21184 66.646076 29.336008
6.615865 64.009107 30.945399
5.927809 65.527107 30.482958
7.196672 62.540501 31.42761
7.388975 63.700956 30.36518
6.615865 64.009107 30.945399
9.455762 55.524889 33.962623
9.234769 54.404489 34.94047
10.186058 55.244263 33.312742
9.615153 56.698065 32.956133
9.455762 55.524889 33.962623
12.028453 72.213009 17.009949
11.34733 72.625332 17.656408
12.724657 71.739513 16.299358
12.028453 72.213009 17.009949
12.506038 70.861016 17.434209
13.427056 71.236737 15.600085
12.949471 72.58873 15.175825
12.724657 71.739513 16.299358
15.678042 61.105114 19.751065
15.242921 62.470768 19.489691
15.075921 61.509289 20.610692
15.678042 61.105114 19.751065
16.082549 59.78991 19.972382
4.976356 60.860224 34.690447
5.251853 62.053673 33.647051
5.64901 59.382225 35.104608
4.976356 60.860224 34.690447
6.556048 59.079418 34.498789
5.64901 59.382225 35.104608
8.849538 52.065494 36.821943
9.041682 53.359936 35.833149
11.122327 71.735752 18.80538
11.34733 72.625332 17.656408
11.572063 70.435566 19.302124
11.122327 71.735752 18.80538
10.884556 70.836807 19.962705
15.634211 56.912754 23.316723
14.967191 57.378712 24.258751
15.458911 56.043076 24.387697
15.773856 57.87302 22.201968
15.634211 56.912754 23.316723
16.49158 53.298765 24.632358
16.407484 52.408355 25.614372
9.414547 40.267286 42.687971
8.816839 41.698946 42.496145
10.249367 40.238548 42.003702
9.414547 40.267286 42.687971
10.04335 38.883925 42.798542
11.543355 37.487114 42.113914
10.672679 37.544243 42.866867
11.718981 38.804377 41.342199
11.543355 37.487114 42.113914
11.924551 40.043013 40.558548
11.08374 40.093822 41.330621
11.718981 38.804377 41.342199
12.723823 40.006914 39.765742
12.088582 41.29636 39.754164
11.924551 40.043013 40.558548
13.519618 39.859747 38.976524
12.723823 40.006914 39.765742
13.355587 38.606399 39.780909
14.366018 39.656946 38.092064
13.734255 41.057461 38.076897
13.519618 39.859747 38.976524
8.198651 66.777897 27.032253
8.385793 67.781075 25.983409
7.116324 66.166786 28.762231
6.21184 66.646076 29.336008
7.980626 65.671547 28.1768
7.116324 66.166786 28.762231
7.67247 64.674324 29.297538
8.754797 65.285435 27.56756
8.198651 66.777897 27.032253
7.980626 65.671547 28.1768
6.143804 61.741177 33.049975
5.251853 62.053673 33.647051
6.990905 61.338284 32.517128
6.143804 61.741177 33.049975
6.711148 60.230808 33.559275
7.764016 61.030132 31.936909
7.196672 62.540501 31.42761
6.990905 61.338284 32.517128
8.221553 58.403303 33.316221
7.403149 58.676525 33.965942
8.345426 59.562382 32.353874
8.221553 58.403303 33.316221
9.00873 58.137769 32.643667
12.045087 75.175697 14.204065
12.495147 73.890667 14.734496
12.2951 75.927532 13.07799
12.045087 75.175697 14.204065
12.967576 75.437671 12.497974
12.2951 75.927532 13.07799
13.666153 74.874843 11.847575
12.967576 75.437671 12.497974
13.4418 74.126999 12.943496
14.293092 74.495743 11.131038
13.666153 74.874843 11.847575
14.787064 73.180382 11.460483
14.293092 74.495743 11.131038
15.25199 71.8806 11.778246
14.787064 73.180382 11.460483
14.605303 72.264389 12.61086
15.720682 70.513301 12.06301
15.25199 71.8806 11.778246
16.118182 69.241669 12.368146
15.720682 70.513301 12.06301
15.467728 69.692974 13.233757
16.464172 67.920071 12.742558
16.118182 69.241669 12.368146
16.464172 67.920071 12.742558
16.281136 66.996956 13.83286
8.824536 69.868138 23.658528
8.564262 68.867836 24.848581
9.618747 69.483822 22.961313
9.113524 70.786652 22.466485
8.824536 69.868138 23.658528
15.431117 63.427377 18.357784
14.828996 63.831553 19.217411
15.242921 62.470768 19.489691
15.631698 64.326854 17.232535
15.431117 63.427377 18.357784
16.045623 62.96607 17.504816
16.471624 64.719059 15.253198
16.04258 66.138183 14.981197
15.81716 65.284672 16.107567
16.471624 64.719059 15.253198
16.869051 63.310085 15.506911
9.473271 50.765869 37.01333
8.849538 52.065494 36.821943
8.991915 43.063221 41.69585
8.816839 41.698946 42.496145
9.200215 44.308335 40.886164
8.991915 43.063221 41.69585
9.828865 42.867024 41.083444
9.468777 45.584728 39.990021
9.200215 44.308335 40.886164
9.71516 46.822613 39.078646
9.468777 45.584728 39.990021
10.283548 45.350021 39.362383
9.917991 48.068832 38.186539
9.71516 46.822613 39.078646
10.091144 49.352171 37.24334
9.917991 48.068832 38.186539
10.703084 47.871245 37.507809
10.258365 50.568281 36.334601
9.473271 50.765869 37.01333
10.091144 49.352171 37.24334
14.813534 37.11125 38.863141
13.996945 37.170171 39.779112
14.937736 38.321962 38.086472
14.813534 37.11125 38.863141
14.366018 39.656946 38.092064
14.937736 38.321962 38.086472
15.36644 41.947719 35.479714
14.671959 42.108217 36.324734
15.495231 43.07488 34.567221
15.36644 41.947719 35.479714
15.636966 44.122293 33.673184
14.904997 44.409187 34.562994
15.495231 43.07488 34.567221
15.718704 45.21537 32.765367
15.636966 44.122293 33.673184
15.849811 46.250332 31.807966
15.177839 46.491562 32.711556
15.718704 45.21537 32.765367
15.954936 47.255679 30.833293
15.849811 46.250332 31.807966
16.073222 48.292812 29.80873
15.427231 48.563658 30.729591
15.954936 47.255679 30.833293
16.188223 49.276331 28.750222
16.073222 48.292812 29.80873
3 0 21 19
3 0 76 78
3 78 77 21
3 76 77 78
3 2 79 81
3 79 23 80
3 79 80 81
3 2 25 23
3 3 27 26
3 3 29 27
3 1 32 30
3 82 35 83
3 84 83 33
3 82 83 84
3 86 85 35
3 87 38 88
3 89 88 36
3 87 88 89
3 90 40 91
3 92 91 38
3 90 91 92
3 4 93 94
3 4 95 97
3 95 42 96
3 95 96 97
3 5 45 43
3 7 46 20
3 7 98 100
3 100 99 46
3 98 99 100
3 7 101 102
3 103 48 104
3 105 49 106
3 10 50 22
3 10 51 50
3 107 52 108
3 109 108 41
3 107 108 109
3 11 110 112
3 110 53 111
3 110 111 112
3 11 54 53
3 11 55 54
3 12 56 24
3 12 57 56
3 13 113 115
3 113 58 114
3 113 114 115
3 13 59 58
3 13 60 59
3 14 61 28
3 14 116 118
3 118 117 61
3 116 117 118
3 9 119 121
3 119 62 120
3 119 120 121
3 15 63 31
3 15 64 63
3 6 65 44
3 16 66 34
3 16 67 66
3 16 68 67
3 122 69 123
3 125 124 69
3 8 70 47
3 17 71 37
3 17 72 71
3 17 73 72
3 18 74 39
3 18 75 74
3 126 4 127
3 19 20 5
3 21 20 19
3 21 7 20
3 21 128 130
3 130 129 7
3 128 129 130
3 132 131 21
3 133 22 134
3 135 22 136
3 137 10 138
3 139 138 22
3 137 138 139
3 23 140 141
3 23 142 144
3 142 11 143
3 142 143 144
3 23 24 11
3 25 24 23
3 25 12 24
3 26 145 146
3 27 147 149
3 149 148 26
3 147 148 149
3 27 150 152
3 150 13 151
3 150 151 152
3 27 28 13
3 29 28 27
3 29 14 28
3 30 31 9
3 32 31 30
3 32 15 31
3 33 34 6
3 35 34 33
3 35 16 34
3 35 153 155
3 155 154 16
3 153 154 155
3 157 156 35
3 36 37 8
3 38 37 36
3 38 17 37
3 38 39 17
3 40 39 38
3 40 18 39
3 158 41 159
3 160 41 161
3 163 162 41
3 164 2 165
3 166 26 167
3 42 168 170
3 168 26 169
3 168 169 170
3 42 3 26
3 43 44 1
3 45 44 43
3 45 6 44
3 20 45 5
3 46 45 20
3 46 6 45
3 46 33 6
3 171 33 172
3 173 172 46
3 171 172 173
3 175 174 33
3 177 176 7
3 178 47 179
3 48 180 182
3 180 47 181
3 180 181 182
3 48 8 47
3 183 48 184
3 185 48 186
3 187 8 188
3 189 188 48
3 187 188 189
3 190 36 191
3 192 191 8
3 190 191 192
3 49 193 195
3 193 36 194
3 193 194 195
3 49 196 198
3 198 197 36
3 196 197 198
3 199 9 200
3 22 201 202
3 50 203 205
3 205 204 22
3 203 204 205
3 50 206 208
3 206 9 207
3 206 207 208
3 50 30 9
3 51 30 50
3 51 1 30
3 41 209 210
3 52 211 213
3 213 212 41
3 211 212 213
3 52 214 216
3 214 10 215
3 214 215 216
3 217 52 218
3 53 219 221
3 219 52 220
3 219 220 221
3 53 10 52
3 53 51 10
3 54 51 53
3 54 1 51
3 54 43 1
3 55 43 54
3 55 5 43
3 24 55 11
3 56 55 24
3 56 5 55
3 56 19 5
3 57 19 56
3 57 0 19
3 58 222 223
3 58 224 225
3 58 226 227
3 59 228 230
3 230 229 58
3 228 229 230
3 59 231 232
3 59 233 234
3 60 235 237
3 237 236 59
3 235 236 237
3 60 238 239
3 28 60 13
3 61 60 28
3 61 240 242
3 242 241 60
3 240 241 242
3 61 243 244
3 246 245 61
3 62 247 248
3 62 249 251
3 249 4 250
3 249 250 251
3 31 62 9
3 63 62 31
3 63 4 62
3 63 42 4
3 64 42 63
3 64 3 42
3 44 32 1
3 65 32 44
3 65 15 32
3 34 65 6
3 66 65 34
3 66 15 65
3 66 64 15
3 67 64 66
3 67 3 64
3 67 29 3
3 68 29 67
3 68 14 29
3 252 68 253
3 254 253 16
3 252 253 254
3 69 255 257
3 255 68 256
3 255 256 257
3 69 14 68
3 69 258 260
3 260 259 14
3 258 259 260
3 262 261 69
3 263 2 264
3 47 265 266
3 70 267 269
3 269 268 47
3 267 268 269
3 70 270 271
3 37 70 8
3 71 70 37
3 71 272 274
3 274 273 70
3 272 273 274
3 71 275 276
3 72 277 279
3 279 278 71
3 277 278 279
3 72 280 282
3 280 2 281
3 280 281 282
3 72 25 2
3 73 25 72
3 73 12 25
3 39 73 17
3 74 73 39
3 74 12 73
3 74 57 12
3 75 57 74
3 75 0 57
3 283 49 284
3 285 49 286
3 288 287 49
3 289 40 290
3 291 40 292
3 293 18 294
3 295 294 40
3 293 294 295
3 296 18 297
3 298 75 299
3 300 299 18
3 298 299 300
3 301 75 302
3 303 0 304
3 305 304 75
3 303 304 305
3 307 306 0
