ply
format ascii 1.0
element vertex 315
property float x
property float y
property float z
element face 302
property list uchar int vertex_index
end_header
-27.498064 -47.885513 30.29166
-30.96493 -50.367477 23.137405
-32.757977 -42.375534 28.029186
-21.196325 -52.287697 32.073872
-14.825514 -55.848644 33.822205
-28.20936 -43.878731 31.664782
-30.291883 -45.397324 29.220285
-30.707226 -41.432194 30.731134
-25.23004 -45.711269 32.558182
-23.308544 -54.558453 29.548283
-20.126123 -56.923706 30.483059
-26.513111 -52.16663 28.325857
-29.420673 -49.510765 27.131546
-32.107094 -46.42466 25.912924
-34.482925 -43.067539 24.457907
-18.98872 -49.074036 34.110909
-22.141607 -47.530899 33.289116
-24.334984 -50.248634 31.220142
-11.831042 -57.370716 34.664604
-17.890717 -54.048119 33.031868
-16.974771 -58.923752 31.387299
-24.241158 -55.521526 27.958008
-22.725975 -56.73867 28.520321
-27.03356 -49.989273 29.407742
-28.005367 -50.767578 27.816273
-28.591608 -48.704792 28.79409
-31.536337 -43.92926 28.693848
-31.307096 -45.878563 27.65309
-32.557396 -44.376144 26.975971
-33.340916 -44.921761 25.066978
-33.727291 -42.717842 26.29192
-26.411894 -46.923309 31.492367
-24.835108 -47.893116 31.958988
-25.871124 -49.148529 30.79014
-25.509115 -51.27594 29.864683
-29.586998 -51.942795 23.874224
-13.900056 -54.030087 34.897373
-12.461774 -54.866734 35.318794
-13.346302 -56.518372 34.270966
-12.785734 -59.180256 33.409298
-14.314528 -58.346203 33.05088
-20.125067 -50.628571 33.180809
-18.445591 -51.570343 33.615547
-19.489279 -53.124996 32.602512
-18.536673 -57.80389 31.037886
-27.931589 -45.814461 31.02319
-29.018129 -46.645287 29.724621
-29.307438 -44.638161 30.549328
-30.535831 -43.444454 30.03973
-31.688835 -42.029385 29.524349
-26.746969 -44.800026 32.143242
-15.400354 -53.448757 34.383572
-22.351713 -53.551758 30.825649
-20.622156 -54.558571 31.392689
-21.692345 -55.779167 30.035757
-21.216099 -58.013325 28.9611
-27.415785 -52.770145 26.675549
-28.824266 -51.546597 25.892311
-30.297014 -49.952011 25.234255
-30.001656 -47.347626 28.213957
-30.792917 -47.973888 26.582865
-31.658291 -48.338352 24.566601
-32.881954 -46.809315 23.819277
-34.057716 -45.097519 23.131559
-35.190575 -43.269474 22.313223
-17.882172 -47.51997 34.935513
-19.448923 -46.861607 34.48801
-20.555708 -48.316616 33.694904
-21.615477 -49.846867 32.780281
-23.751066 -46.606728 32.912914
-23.2271 -48.916718 32.366318
-22.739782 -51.215931 31.699047
-23.853319 -52.34296 30.465805
-24.852428 -53.401371 29.010521
-10.989176 -55.703587 35.775471
-10.375362 -58.038193 35.108257
-17.415871 -49.982533 34.50964
-16.82782 -52.448673 34.054981
-16.415596 -54.962234 33.398216
-18.974909 -55.524914 31.884245
-17.496641 -56.421791 32.283669
-15.913081 -57.434673 32.657425
-36.143528 -41.502403 21.502798
-23.963583 -56.505016 27.381177
-24.704939 -55.887312 27.016673
-30.593857 -51.262237 22.443722
-29.904891 -52.049897 22.812132
-30.275964 -51.155136 23.505814
-30.621529 -42.438324 30.385432
-30.043597 -43.068027 30.62293
-30.129295 -42.061898 30.968632
-27.478164 -44.339379 31.904012
-27.0042 -43.749001 32.360022
-27.735396 -43.288353 32.120792
-15.66986 -52.108029 34.656456
-14.915636 -52.539271 34.881939
-21.725728 -58.401354 28.146748
-21.971037 -57.375997 28.74071
-22.480666 -57.764026 27.926358
-20.935596 -59.107359 28.388894
-21.725728 -58.401354 28.146748
-26.964448 -52.468387 27.500703
-26.63222 -53.474197 26.997203
-26.180884 -53.172439 27.822357
-19.743782 -45.643248 34.652879
-18.983289 -45.933346 34.86829
-21.348658 -47.923758 33.49201
-20.773913 -47.173647 33.907613
-21.566862 -46.780788 33.704719
-24.490553 -46.158998 32.735548
-23.944932 -45.507597 33.150802
-24.684419 -45.059867 32.973437
-26.180884 -53.172439 27.822357
-25.350542 -53.78981 28.164689
-25.682769 -52.784 28.668189
-11.539862 -58.606436 34.246936
-10.812023 -58.940174 34.468763
-11.103202 -57.704454 34.886431
-12.514774 -60.426561 32.913418
-13.348471 -59.932202 32.768867
-16.208544 -59.431698 31.552546
-15.677698 -58.687158 32.187609
-16.443926 -58.179212 32.022362
-36.278693 -40.520708 22.150318
-35.832238 -41.387076 22.582671
-28.880361 -43.285166 31.435457
-28.360782 -42.922354 31.909055
-30.128923 -41.158347 31.274286
-30.129295 -42.061898 30.968632
-28.360782 -42.922354 31.909055
-27.735396 -43.288353 32.120792
-23.205991 -57.113588 27.662333
-23.483566 -56.130098 28.239165
-23.963583 -56.505016 27.381177
-22.480666 -57.764026 27.926358
-23.205991 -57.113588 27.662333
-22.391079 -46.370056 33.509442
-21.566862 -46.780788 33.704719
-29.230212 -52.821964 23.183853
-28.880769 -52.66979 24.255654
-29.230212 -52.821964 23.183853
-29.904891 -52.049897 22.812132
-13.180915 -54.448411 35.108083
-12.693137 -53.581486 35.626196
-13.412278 -53.163162 35.415486
-14.112868 -59.515175 32.589658
-13.348471 -59.932202 32.768867
-13.550131 -58.76323 33.230089
-19.098087 -58.455028 30.2688
-19.331398 -57.363798 30.760472
-19.892812 -58.014937 29.991387
-18.336674 -58.994249 30.488902
-19.098087 -58.455028 30.2688
-17.555723 -59.55418 30.663608
-17.755722 -58.363821 31.212592
-18.336674 -58.994249 30.488902
-16.744718 -60.099663 30.868223
-17.555723 -59.55418 30.663608
-29.4294 -43.664881 30.87773
-28.758399 -44.258446 31.107055
-28.880361 -43.285166 31.435457
-29.921635 -44.041308 30.294529
-29.4294 -43.664881 30.87773
-30.043597 -43.068027 30.62293
-25.478127 -44.65572 32.773875
-24.684419 -45.059867 32.973437
-26.236592 -44.200098 32.566405
-27.0042 -43.749001 32.360022
-25.988504 -45.255648 32.350712
-25.478127 -44.65572 32.773875
-26.236592 -44.200098 32.566405
-31.308554 -50.380022 22.030394
-31.620235 -49.549458 22.760339
-14.165487 -52.829936 35.13884
-13.412278 -53.163162 35.415486
-14.650205 -53.739422 34.640473
-14.165487 -52.829936 35.13884
-14.915636 -52.539271 34.881939
-20.4378 -58.559746 29.230407
-19.892812 -58.014937 29.991387
-20.671111 -57.468516 29.722079
-20.4378 -58.559746 29.230407
-20.935596 -59.107359 28.388894
-27.077588 -53.756012 26.047289
-26.63222 -53.474197 26.997203
-27.795162 -53.083466 25.656317
-27.077588 -53.756012 26.047289
-28.499403 -52.471691 25.264698
-27.795162 -53.083466 25.656317
-28.120026 -52.158371 26.28393
-29.205632 -51.744696 24.883268
-28.880769 -52.66979 24.255654
-28.499403 -52.471691 25.264698
-31.966915 -48.534895 23.474936
-31.620235 -49.549458 22.760339
-31.311611 -49.352914 23.852003
-32.578747 -47.770376 23.101275
-31.966915 -48.534895 23.474936
-32.270122 -47.573833 24.192939
-33.216801 -46.891001 22.707422
-32.578747 -47.770376 23.101275
-33.804682 -46.035103 22.363563
-33.216801 -46.891001 22.707422
-33.469835 -45.953417 23.475418
-34.405368 -45.072079 22.029929
-33.804682 -46.035103 22.363563
-34.971798 -44.158056 21.620761
-34.405368 -45.072079 22.029929
-34.624145 -44.183497 22.722391
-35.488638 -43.273255 21.182433
-34.971798 -44.158056 21.620761
-18.199913 -46.262528 35.092041
-17.422051 -46.647629 35.318985
-18.665548 -47.190788 34.711762
-18.199913 -46.262528 35.092041
-18.983289 -45.933346 34.86829
-20.22052 -46.446143 34.304167
-19.743782 -45.643248 34.652879
-20.002316 -47.589112 34.091457
-20.22052 -46.446143 34.304167
-20.773913 -47.173647 33.907613
-23.195808 -45.90797 33.321341
-23.944932 -45.507597 33.150802
-22.946337 -47.068813 33.101015
-22.391079 -46.370056 33.509442
-23.195808 -45.90797 33.321341
-25.044907 -54.849888 27.638433
-24.546793 -54.461449 28.484265
-25.350542 -53.78981 28.164689
-24.704939 -55.887312 27.016673
-25.044907 -54.849888 27.638433
-30.593857 -51.262237 22.443722
-31.308554 -50.380022 22.030394
-12.001379 -54.049734 35.851416
-12.693137 -53.581486 35.626196
-11.26508 -54.468161 36.079754
-12.001379 -54.049734 35.851416
-11.725475 -55.285161 35.547133
-10.545012 -54.783197 36.393774
-11.26508 -54.468161 36.079754
-10.252688 -56.086495 36.028008
-10.545012 -54.783197 36.393774
-9.945781 -57.253798 35.694401
-10.252688 -56.086495 36.028008
-10.682269 -56.87089 35.441864
-9.653382 -58.471226 35.282621
-9.945781 -57.253798 35.694401
-10.05464 -59.353798 34.619724
-9.653382 -58.471226 35.282621
-10.05464 -59.353798 34.619724
-10.812023 -58.940174 34.468763
-12.017208 -59.511206 33.619283
-11.539862 -58.606436 34.246936
-12.308388 -58.275486 34.036951
-12.017208 -59.511206 33.619283
-12.514774 -60.426561 32.913418
-17.158178 -47.854019 35.153996
-17.422051 -46.647629 35.318985
-16.925027 -49.085301 34.941059
-17.158178 -47.854019 35.153996
-17.649021 -48.751251 34.722577
-16.677618 -50.374916 34.71949
-16.925027 -49.085301 34.941059
-16.383592 -51.607986 34.49216
-16.677618 -50.374916 34.71949
-17.121845 -51.215603 34.28231
-16.114087 -52.948715 34.219276
-15.66986 -52.108029 34.656456
-16.383592 -51.607986 34.49216
-14.878422 -59.142924 32.384337
-15.113805 -57.890438 32.854152
-15.677698 -58.687158 32.187609
-14.112868 -59.515175 32.589658
-14.878422 -59.142924 32.384337
-16.208544 -59.431698 31.552546
-16.744718 -60.099663 30.868223
-30.64068 -40.473732 31.073991
-30.128923 -41.158347 31.274286
-31.23543 -40.703396 30.488551
-30.64068 -40.473732 31.073991
-31.726235 -41.001992 29.885159
-31.198031 -41.73079 30.127741
-31.23543 -40.703396 30.488551
-32.281689 -41.141434 29.22569
-31.726235 -41.001992 29.885159
-32.81626 -41.314509 28.478109
-32.223406 -42.20246 28.776767
-32.281689 -41.141434 29.22569
-33.296583 -41.527083 27.724446
-32.81626 -41.314509 28.478109
-33.78124 -41.698237 26.855813
-33.242634 -42.546688 27.160553
-33.296583 -41.527083 27.724446
-34.253128 -41.835933 25.952623
-33.78124 -41.698237 26.855813
-34.630945 -42.010782 25.035616
-34.105108 -42.892691 25.374913
-34.253128 -41.835933 25.952623
-35.001936 -42.169643 24.060226
-34.630945 -42.010782 25.035616
-35.355761 -42.270611 22.987884
-34.83675 -43.168506 23.385565
-35.001936 -42.169643 24.060226
-35.667051 -42.385939 21.90801
-35.355761 -42.270611 22.987884
-35.832238 -41.387076 22.582671
-35.965114 -42.389719 20.77722
-35.488638 -43.273255 21.182433
-35.667051 -42.385939 21.90801
-36.581963 -40.525194 21.069769
-36.278693 -40.520708 22.150318
-36.40433 -41.488972 20.392573
-36.581963 -40.525194 21.069769
-35.965114 -42.389719 20.77722
-36.40433 -41.488972 20.392573
3 84 83 21
3 0 25 23
3 2 28 26
3 2 30 28
3 0 33 31
3 0 23 33
3 1 85 87
3 87 86 35
3 85 86 87
3 4 38 36
3 4 40 38
3 3 43 41
3 5 47 45
3 7 88 90
3 88 48 89
3 88 89 90
3 7 49 48
3 5 91 93
3 91 50 92
3 91 92 93
3 5 45 50
3 94 51 95
3 9 54 52
3 96 55 97
3 98 97 22
3 96 97 98
3 100 99 55
3 11 101 103
3 101 56 102
3 101 102 103
3 12 57 24
3 12 58 57
3 6 59 46
3 13 60 27
3 13 61 60
3 13 62 61
3 14 63 29
3 14 64 63
3 104 66 105
3 16 106 108
3 106 67 107
3 106 107 108
3 16 68 67
3 8 109 111
3 109 69 110
3 109 110 111
3 17 70 32
3 17 71 70
3 17 72 71
3 11 73 34
3 11 112 114
3 114 113 73
3 112 113 114
3 18 74 37
3 18 75 74
3 18 115 117
3 117 116 75
3 115 116 117
3 119 118 39
3 15 76 65
3 19 77 42
3 19 78 77
3 10 79 53
3 20 80 44
3 20 81 80
3 20 120 122
3 122 121 81
3 120 121 122
3 123 82 124
3 126 125 5
3 127 7 128
3 129 5 130
3 21 22 9
3 131 22 132
3 133 132 21
3 131 132 133
3 135 134 22
3 23 24 11
3 25 24 23
3 25 12 24
3 26 27 6
3 28 27 26
3 28 13 27
3 28 29 13
3 30 29 28
3 30 14 29
3 136 16 137
3 31 32 8
3 33 32 31
3 33 17 32
3 33 34 17
3 23 34 33
3 23 11 34
3 35 138 139
3 141 140 35
3 36 142 144
3 142 37 143
3 142 143 144
3 38 37 36
3 38 18 37
3 38 39 18
3 40 39 38
3 40 145 147
3 147 146 39
3 145 146 147
3 41 42 15
3 43 42 41
3 43 19 42
3 148 44 149
3 150 149 10
3 148 149 150
3 151 44 152
3 153 20 154
3 155 154 44
3 153 154 155
3 157 156 20
3 45 46 0
3 47 46 45
3 47 6 46
3 158 47 159
3 160 159 5
3 158 159 160
3 48 161 163
3 161 47 162
3 161 162 163
3 48 6 47
3 48 26 6
3 49 26 48
3 49 2 26
3 164 8 165
3 50 166 167
3 50 168 170
3 168 8 169
3 168 169 170
3 50 31 8
3 45 31 50
3 45 0 31
3 172 171 1
3 173 36 174
3 51 175 177
3 175 36 176
3 175 176 177
3 51 4 36
3 52 53 3
3 54 53 52
3 54 10 53
3 22 54 9
3 55 54 22
3 55 10 54
3 55 178 180
3 180 179 10
3 178 179 180
3 182 181 55
3 56 183 184
3 56 185 186
3 24 56 11
3 57 56 24
3 57 187 189
3 189 188 56
3 187 188 189
3 57 190 192
3 190 35 191
3 190 191 192
3 58 35 57
3 58 1 35
3 46 25 0
3 59 25 46
3 59 12 25
3 27 59 6
3 60 59 27
3 60 12 59
3 60 58 12
3 61 58 60
3 61 1 58
3 61 193 195
3 195 194 1
3 193 194 195
3 62 196 198
3 198 197 61
3 196 197 198
3 62 199 200
3 29 62 13
3 63 62 29
3 63 201 203
3 203 202 62
3 201 202 203
3 63 204 205
3 64 206 208
3 208 207 63
3 206 207 208
3 64 209 210
3 211 65 212
3 66 213 215
3 213 65 214
3 213 214 215
3 66 15 65
3 216 66 217
3 67 218 220
3 218 66 219
3 218 219 220
3 67 15 66
3 67 41 15
3 68 41 67
3 68 3 41
3 69 221 222
3 69 223 225
3 223 16 224
3 223 224 225
3 32 69 8
3 70 69 32
3 70 16 69
3 70 68 16
3 71 68 70
3 71 3 68
3 71 52 3
3 72 52 71
3 72 9 52
3 34 72 17
3 73 72 34
3 73 9 72
3 73 21 9
3 226 21 227
3 228 227 73
3 226 227 228
3 230 229 21
3 232 231 1
3 37 233 234
3 74 235 237
3 237 236 37
3 235 236 237
3 74 238 239
3 74 240 241
3 75 242 244
3 244 243 74
3 242 243 244
3 75 245 246
3 75 247 248
3 250 249 75
3 39 251 253
3 253 252 18
3 251 252 253
3 255 254 39
3 65 256 257
3 76 258 260
3 260 259 65
3 258 259 260
3 76 261 262
3 42 76 15
3 77 76 42
3 77 263 265
3 265 264 76
3 263 264 265
3 77 266 268
3 266 51 267
3 266 267 268
3 78 51 77
3 78 4 51
3 53 43 3
3 79 43 53
3 79 19 43
3 44 79 10
3 80 79 44
3 80 19 79
3 80 78 19
3 81 78 80
3 81 4 78
3 81 40 4
3 269 40 270
3 271 270 81
3 269 270 271
3 273 272 40
3 275 274 20
3 276 7 277
3 278 7 279
3 280 49 281
3 282 281 7
3 280 281 282
3 283 49 284
3 285 2 286
3 287 286 49
3 285 286 287
3 288 2 289
3 290 30 291
3 292 291 2
3 290 291 292
3 293 30 294
3 295 14 296
3 297 296 30
3 295 296 297
3 298 14 299
3 300 64 301
3 302 301 14
3 300 301 302
3 82 303 305
3 303 64 304
3 303 304 305
3 82 306 308
3 308 307 64
3 306 307 308
3 309 82 310
3 311 82 312
3 314 313 82
