ply
format ascii 1.0
element vertex 633
property float x
property float y
property float z
element face 711
property list uchar int vertex_index
end_header
-20.491482 -70.482437 12.900571
-25.16872 -56.253098 26.075338
-29.928886 -54.889572 6.584838
-12.766424 -65.522766 29.761169
-16.963409 -69.923317 22.262154
-10.727991 -74.966682 22.277903
-15.18876 -77.921196 13.478166
-22.52566 -63.81876 20.230902
-25.109913 -62.664818 10.161342
-27.884697 -56.969296 17.029402
-33.102451 -49.748081 13.573205
-19.077785 -61.389969 28.371344
-19.684063 -73.804207 8.439642
-21.908773 -69.651794 7.750471
-18.903002 -70.663979 17.689867
-16.038322 -74.007416 18.181486
-17.983549 -74.311752 13.506019
-17.042963 -78.0084 8.755372
-23.833128 -60.194496 23.247107
-25.264084 -60.346825 18.771765
-26.754641 -56.944942 21.809433
-33.551647 -46.972687 21.595568
-32.145267 -50.410793 18.576178
-34.610695 -46.72879 16.894213
-35.289314 -46.100449 11.973898
-22.235357 -58.789383 27.332396
-20.962685 -63.065495 24.604332
-27.523331 -58.704865 8.215512
-26.363373 -61.219803 4.762958
-28.778736 -57.003357 2.803868
-10.71738 -62.393917 32.723217
-9.594017 -67.21064 30.020718
-9.736647 -79.295883 17.786531
-28.17454 -53.396786 24.637085
-32.400726 -50.975357 4.77749
-31.214645 -52.906216 1.115092
-14.971702 -68.144516 26.214178
-11.645136 -70.294083 26.473492
-13.953752 -72.548782 22.551977
-12.946303 -76.937111 18.122652
-12.020826 -81.035355 13.240738
-10.72578 -85.30603 7.878253
-14.099521 -81.784157 8.573771
-21.458265 -67.181198 16.689079
-22.731258 -66.723831 11.761
-23.879786 -63.641113 15.283465
-26.406662 -59.870857 13.627431
-28.839619 -56.289505 11.958484
-29.509544 -53.756241 20.24544
-30.495937 -53.494175 15.241746
-31.42565 -52.492249 10.147347
-33.840145 -48.696014 8.406509
-35.938046 -44.779533 6.672934
-37.525028 -40.539471 5.181339
-13.911208 -60.684147 32.128437
-15.850789 -63.71133 29.183262
-17.948921 -65.823151 25.600191
-19.899439 -66.785309 21.580553
-8.504879 -72.072227 26.316921
-5.237975 -73.543556 26.158257
-20.102331 -72.079643 10.752866
-20.743073 -71.870506 8.194816
-21.182184 -70.203293 10.324494
-19.767414 -70.650368 15.251424
-18.479481 -72.497597 15.546447
-19.331064 -72.378777 13.139159
-18.882761 -74.074371 11.067651
-24.450005 -58.264996 24.783661
-25.237003 -58.590904 22.687149
-25.962767 -56.752083 24.051783
-34.753021 -45.046638 20.928299
-34.173851 -46.818802 19.351665
-23.686008 -57.488506 26.804346
-23.081999 -59.535831 25.455631
-28.75481 -56.730389 7.434288
-28.084639 -57.98156 5.545244
-29.270298 -56.033943 4.64732
-11.646009 -64.155281 31.235577
-10.160877 -64.987274 31.365606
-11.192869 -66.518967 29.828888
-33.662094 -48.85733 3.904994
-15.927352 -69.186211 24.31303
-14.39698 -70.350517 24.529099
-15.575109 -71.140953 22.522932
-15.627682 -75.938263 15.944575
-14.537652 -75.463501 18.286001
-14.135033 -77.391647 16.039101
-12.569847 -78.881439 15.816228
-13.721192 -79.384262 13.528535
-13.109643 -81.426582 11.065588
-14.620116 -79.85746 11.147508
-17.95426 -77.699455 6.309853
-16.592569 -79.762817 6.311508
-22.033566 -65.472351 18.413639
-22.730072 -65.337967 16.003857
-23.335644 -63.693043 17.748606
-26.571136 -58.643784 18.024744
-25.870579 -60.154411 16.338676
-27.131756 -58.422729 15.415279
-27.599237 -58.124233 12.695867
-28.314064 -56.789154 14.530756
-28.873425 -53.701134 22.493481
-30.222784 -52.156998 21.75004
-32.635799 -50.163574 16.151094
-31.36215 -51.945942 16.982344
-31.790623 -51.68499 14.395267
-30.950613 -53.086422 12.6458
-32.282478 -51.131004 11.822105
-32.6726 -50.590252 9.067323
-33.463322 -49.304409 11.005792
-36.270885 -44.147865 11.002405
-35.627369 -45.496559 9.313959
-36.512039 -43.59866 8.536114
-36.80994 -42.733025 5.954223
-19.6595 -59.106167 29.499714
-18.136675 -60.184608 29.939917
-16.514666 -61.275574 30.349148
-17.44417 -62.547665 28.86231
-16.962069 -64.755112 27.540197
-18.542589 -63.581551 27.079575
-21.75536 -63.588314 22.501944
-20.362671 -65.021835 23.148285
-21.263882 -65.341911 20.835489
-20.704163 -67.101982 19.229513
-23.952093 -64.636238 10.970345
-23.398926 -66.159477 9.166524
-24.540545 -64.104744 8.316545
-27.064957 -60.321053 2.053508
-11.19171 -72.672401 24.432011
-10.133987 -71.288925 26.330309
-9.661907 -73.500916 24.40712
-6.320217 -75.286232 24.016361
-11.933471 -85.395096 5.75528
-19.263605 -75.504135 6.1908
-17.982233 -70.384621 20.064583
-16.491257 -72.005241 20.271893
-17.492882 -72.436333 17.936544
-17.133175 -74.236816 15.774312
-16.5748 -76.180504 13.642829
-16.201828 -77.944153 11.229148
-17.580059 -76.067558 11.182757
-18.434731 -75.921783 8.597299
-23.157217 -62.023731 21.823572
-23.917021 -62.123257 19.402962
-24.577847 -60.3974 21.05311
-26.015266 -58.617622 20.405827
-27.377655 -57.020191 19.463083
-32.275539 -48.731438 22.383272
-31.652178 -50.392567 20.923384
-32.923763 -48.687984 20.127474
-33.453213 -48.494339 17.914227
-33.808044 -48.401329 15.350636
-34.22308 -47.960693 12.854019
-34.964962 -46.495682 14.499435
-35.987003 -44.594765 13.587056
-20.655094 -60.201393 27.816689
-20.065685 -62.312122 26.599506
-21.571001 -60.981438 26.039742
-22.36912 -61.591652 24.10778
-26.247675 -60.789207 9.16764
-25.626581 -62.179394 7.458509
-26.817041 -60.119099 6.497345
-27.558023 -59.102226 3.788991
-9.733917 -60.669403 34.131191
-7.973225 -68.108208 29.981533
-10.168532 -77.238441 20.022713
-9.114195 -75.872253 22.185541
-25.848656 -54.178249 27.318857
-26.739391 -54.741879 25.419029
-31.164848 -52.95285 5.779592
-30.515694 -54.010674 3.892932
-31.756371 -51.995079 2.891877
-13.79548 -67.040131 28.015516
-12.313542 -67.893112 28.194624
-13.320715 -69.359253 26.311665
-12.786846 -71.564713 24.535429
-12.279982 -73.68187 22.656324
-14.973601 -73.364159 20.522171
-13.475327 -74.757904 20.394152
-11.902051 -75.972343 20.296206
-11.374712 -78.129875 18.026047
-10.896426 -80.257706 15.578413
-10.263785 -82.515793 12.941604
-9.60905 -84.732674 10.231458
-11.393857 -83.16468 10.630816
-12.437106 -83.487488 8.49643
-15.600857 -79.932877 8.789106
-20.998333 -68.803864 14.747504
-21.601284 -68.672592 12.313879
-22.153877 -66.999069 14.160406
-23.354422 -65.102303 13.377618
-24.535555 -63.170605 12.725153
-24.567989 -62.007313 16.98765
-25.131296 -61.758873 14.522038
-25.753756 -61.251286 11.78094
-26.945223 -59.392864 10.839304
-28.128504 -57.54401 10.193412
-29.3421 -55.698845 9.30774
-27.394007 -55.235683 23.393894
-28.168886 -55.282738 21.141991
-28.638203 -55.447994 18.756069
-30.830784 -52.083961 19.585985
-30.065969 -53.642914 17.866129
-29.207956 -55.217426 16.161709
-29.726957 -54.813553 13.559959
-30.097689 -54.461044 10.92654
-30.649267 -53.720127 8.373816
-31.945644 -51.727551 7.47494
-33.11657 -49.853909 6.504859
-34.274841 -47.872784 5.695596
-34.593689 -47.415291 10.276077
-34.949623 -46.741035 7.597623
-35.307674 -45.938255 4.935729
-11.248683 -59.842155 33.829269
-12.243814 -61.672867 32.417538
-13.249756 -63.14064 31.07889
-15.442316 -59.939644 31.717793
-14.874017 -62.18961 30.776848
-14.334961 -64.634422 29.501068
-15.417838 -65.998817 27.744415
-16.513659 -67.019897 25.917078
-17.46365 -67.948463 23.917458
-19.490694 -64.45887 25.144949
-18.916811 -66.480522 23.648117
-18.504299 -68.378616 21.90797
-19.442459 -68.696434 19.652126
-20.247036 -68.886238 17.221035
-37.86277 -39.407684 6.936963
-22.284153 -68.191727 9.838132
-23.035223 -67.478271 7.139532
-25.232008 -63.333782 5.455015
-29.974047 -54.983692 2.001979
-10.613407 -68.851868 28.261885
-9.002326 -69.678246 28.269226
-7.950288 -74.4189 24.251728
-6.849127 -72.811592 26.268206
-35.009029 -45.025289 19.767153
-35.269861 -44.161836 20.489971
-24.427364 -56.870802 26.439842
-23.963583 -56.505016 27.381177
-24.704939 -55.887312 27.016673
-33.896546 -48.386268 2.574378
-34.19364 -47.891489 3.488702
-17.751959 -78.547775 5.061764
-18.406415 -77.461846 5.026775
-30.593857 -51.262237 22.443722
-29.904891 -52.049897 22.812132
-36.816918 -42.846129 9.366557
-36.391462 -43.873263 9.76926
-36.696341 -43.120731 10.599702
-36.902345 -42.555048 8.085776
-36.816918 -42.846129 9.366557
-26.858455 -60.97711 1.040661
-27.434876 -59.833395 0.749465
-11.513963 -86.465053 4.374645
-12.373446 -85.550465 4.529489
-20.05892 -73.603695 7.14267
-19.848691 -74.453659 6.018249
-19.473834 -74.654171 7.315221
-21.744165 -70.387916 6.673236
-21.161314 -71.497273 6.895408
-21.325923 -70.76115 7.972644
-22.291439 -69.311523 6.342068
-21.744165 -70.387916 6.673236
-36.286821 -43.815569 14.368813
-35.812584 -44.763279 14.836186
-36.417049 -43.658955 13.132798
-36.286821 -43.815569 14.368813
-21.725728 -58.401354 28.146748
-22.480666 -57.764026 27.926358
-21.445225 -59.495388 27.574542
-20.935596 -59.107359 28.388894
-21.725728 -58.401354 28.146748
-28.496347 -57.607662 2.040722
-27.885991 -58.657097 2.533283
-28.16838 -58.052791 3.29643
-9.960279 -62.828069 32.806659
-9.468547 -61.965812 33.510647
-10.225649 -61.53166 33.427204
-9.084269 -66.443093 30.793104
-9.367698 -65.33141 31.465549
-9.877447 -66.098957 30.693162
-8.783621 -67.659424 30.001126
-8.273872 -66.891876 30.773512
-9.084269 -66.443093 30.793104
-9.088261 -78.740395 18.854191
-9.304203 -77.711673 19.972282
-9.95259 -78.267162 18.904622
-26.63222 -53.474197 26.997203
-26.180884 -53.172439 27.822357
-26.180884 -53.172439 27.822357
-25.350542 -53.78981 28.164689
-13.828393 -82.733616 7.253905
-12.997186 -83.585282 7.215234
-13.268313 -82.635822 8.535101
-15.879133 -80.789455 6.139674
-16.388455 -80.639705 4.950653
-36.117706 -44.295879 5.374305
-35.80252 -44.87524 4.505702
-35.62286 -45.358894 5.804331
-37.305975 -41.151359 4.317316
-36.948431 -42.248137 4.703758
-37.167484 -41.636248 5.567781
-37.60109 -40.097753 3.914557
-37.305975 -41.151359 4.317316
-11.539862 -58.606436 34.246936
-10.812023 -58.940174 34.468763
-13.077511 -61.178507 32.272987
-12.514774 -60.426561 32.913418
-13.348471 -59.932202 32.768867
-16.208544 -59.431698 31.552546
-15.677698 -58.687158 32.187609
-38.005617 -38.817532 7.79775
-37.787674 -39.827377 8.213034
-37.930521 -39.237224 9.073821
-23.575664 -66.447853 6.75835
-23.217074 -66.818874 8.153028
-23.757516 -65.788456 7.771846
-23.39814 -67.110401 5.755148
-23.575664 -66.447853 6.75835
-7.961113 -71.215793 27.310868
-8.209836 -70.018803 28.287021
-8.753602 -70.875236 27.293073
-7.682104 -75.548394 23.180728
-8.532241 -75.145577 23.218635
-8.264057 -76.27507 22.147635
-5.549437 -72.342929 27.173913
-6.355013 -71.976947 27.228887
-6.043551 -73.177574 26.213231
-4.720775 -72.696857 27.163709
-5.549437 -72.342929 27.173913
-9.821051 -86.059445 7.74862
-9.262685 -85.772767 8.925223
-10.167415 -85.019352 9.054856
-34.719444 -45.911372 18.978836
-34.463436 -45.93272 20.139982
-35.009029 -45.025289 19.767153
-34.937866 -45.866366 17.75011
-34.392273 -46.773796 18.122939
-34.719444 -45.911372 18.978836
-35.12443 -45.830292 16.489764
-34.937866 -45.866366 17.75011
-23.205991 -57.113588 27.662333
-23.963583 -56.505016 27.381177
-22.960683 -58.138945 27.068371
-22.480666 -57.764026 27.926358
-23.205991 -57.113588 27.662333
-8.857696 -79.85662 17.642128
-9.453031 -80.41061 16.53687
-33.306961 -49.430242 3.018077
-32.676277 -50.489256 3.454326
-33.03141 -49.916343 4.341242
-33.541412 -48.959181 1.687461
-33.306961 -49.430242 3.018077
-33.896546 -48.386268 2.574378
-17.071114 -79.579456 5.062591
-17.273415 -78.731136 6.310681
-17.751959 -78.547775 5.061764
-16.388455 -80.639705 4.950653
-17.071114 -79.579456 5.062591
-29.230212 -52.821964 23.183853
-28.523983 -53.54896 23.565283
-28.880769 -52.66979 24.255654
-29.548105 -52.929066 22.121761
-29.230212 -52.821964 23.183853
-29.904891 -52.049897 22.812132
-37.051296 -42.122231 6.79483
-36.660989 -43.165842 7.245169
-36.902345 -42.555048 8.085776
-37.40884 -41.025453 6.408389
-37.167484 -41.636248 5.567781
-37.051296 -42.122231 6.79483
-14.112868 -59.515175 32.589658
-13.348471 -59.932202 32.768867
-19.098087 -58.455028 30.2688
-19.892812 -58.014937 29.991387
-18.336674 -58.994249 30.488902
-19.098087 -58.455028 30.2688
-18.898088 -59.645387 29.719816
-17.555723 -59.55418 30.663608
-18.336674 -58.994249 30.488902
-17.325671 -60.730091 30.144533
-16.744718 -60.099663 30.868223
-17.555723 -59.55418 30.663608
-24.328325 -64.761089 7.346856
-23.757516 -65.788456 7.771846
-23.969735 -65.13211 8.741535
-26.523689 -61.349041 2.420138
-26.172897 -61.798416 3.774863
-26.714165 -60.770428 3.408233
-26.523689 -61.349041 2.420138
-26.858455 -60.97711 1.040661
-30.909441 -53.474991 0.254166
-31.535358 -52.385973 -0.122088
-5.999293 -76.483143 22.880799
-6.867069 -75.982059 23.063045
-5.47811 -75.578438 24.035317
-5.999293 -76.483143 22.880799
-4.936989 -74.7071 25.106265
-5.779096 -74.414894 25.087309
-5.47811 -75.578438 24.035317
-4.145891 -75.119411 25.000943
-4.446876 -73.955867 26.052935
-4.936989 -74.7071 25.106265
-11.023379 -86.295551 5.546755
-10.419534 -86.251019 6.608241
-11.329626 -85.350563 6.816766
-11.023379 -86.295551 5.546755
-11.513963 -86.465053 4.374645
-19.64848 -75.310577 4.855861
-19.061087 -76.364186 4.967249
-19.64848 -75.310577 4.855861
-19.848691 -74.453659 6.018249
-20.588425 -72.636844 7.020257
-20.05892 -73.603695 7.14267
-20.213568 -72.837356 8.317229
-20.588425 -72.636844 7.020257
-21.161314 -71.497273 6.895408
-19.061087 -76.364186 4.967249
-18.406415 -77.461846 5.026775
-18.608933 -76.601795 6.250326
-31.963859 -49.562002 21.653328
-31.308554 -50.380022 22.030394
-31.620235 -49.549458 22.760339
-35.301564 -45.713738 15.292375
-34.787829 -46.612236 15.696824
-35.12443 -45.830292 16.489764
-35.475983 -45.545224 14.043246
-35.301564 -45.713738 15.292375
-35.812584 -44.763279 14.836186
-36.55899 -43.435505 11.840473
-36.128944 -44.371315 12.294731
-36.417049 -43.658955 13.132798
-36.696341 -43.120731 10.599702
-36.55899 -43.435505 11.840473
-20.4378 -58.559746 29.230407
-19.892812 -58.014937 29.991387
-20.157297 -59.65378 28.658202
-20.4378 -58.559746 29.230407
-20.935596 -59.107359 28.388894
-27.639458 -59.26651 1.665541
-27.31149 -59.71164 2.92125
-27.885991 -58.657097 2.533283
-27.434876 -59.833395 0.749465
-27.639458 -59.26651 1.665541
-9.000575 -60.98452 34.315981
-9.33266 -59.786831 34.794088
-9.000575 -60.98452 34.315981
-9.468547 -61.965812 33.510647
-9.682027 -64.124748 32.127854
-9.960279 -62.828069 32.806659
-10.439128 -63.690596 32.044411
-9.682027 -64.124748 32.127854
-9.367698 -65.33141 31.465549
-7.553178 -67.21954 30.834632
-8.273872 -66.891876 30.773512
-7.179784 -68.428539 30.02971
-7.553178 -67.21954 30.834632
-8.777035 -77.02858 21.053697
-9.641364 -76.555347 21.104127
-9.304203 -77.711673 19.972282
-8.264057 -76.27507 22.147635
-8.777035 -77.02858 21.053697
-9.088261 -78.740395 18.854191
-8.857696 -79.85662 17.642128
-27.077588 -53.756012 26.047289
-26.294024 -54.460064 26.368943
-26.63222 -53.474197 26.997203
-27.795162 -53.083466 25.656317
-27.456966 -54.069333 25.028057
-27.077588 -53.756012 26.047289
-28.499403 -52.471691 25.264698
-27.795162 -53.083466 25.656317
-28.880769 -52.66979 24.255654
-28.499403 -52.471691 25.264698
-31.966915 -48.534895 23.474936
-31.620235 -49.549458 22.760339
-32.578747 -47.770376 23.101275
-31.966915 -48.534895 23.474936
-33.216801 -46.891001 22.707422
-32.913593 -47.852063 21.98942
-32.578747 -47.770376 23.101275
-33.804682 -46.035103 22.363563
-33.216801 -46.891001 22.707422
-34.405368 -45.072079 22.029929
-34.152334 -46.009663 21.261933
-33.804682 -46.035103 22.363563
-34.971798 -44.158056 21.620761
-34.405368 -45.072079 22.029929
-35.488638 -43.273255 21.182433
-35.269861 -44.161836 20.489971
-34.971798 -44.158056 21.620761
-25.044907 -54.849888 27.638433
-25.350542 -53.78981 28.164689
-25.508688 -55.215674 26.697097
-24.704939 -55.887312 27.016673
-25.044907 -54.849888 27.638433
-32.3541 -50.999117 2.511519
-32.078548 -51.485218 3.834684
-32.676277 -50.489256 3.454326
-32.097701 -51.415819 1.579549
-32.3541 -50.999117 2.511519
-32.695429 -50.419857 1.199191
-31.826838 -51.871387 0.691156
-31.485508 -52.450648 2.003484
-32.097701 -51.415819 1.579549
-31.535358 -52.385973 -0.122088
-31.826838 -51.871387 0.691156
-10.032921 -80.891521 15.432811
-9.453031 -80.41061 16.53687
-10.316536 -79.776794 16.682472
-9.716601 -82.020565 14.114407
-10.032921 -80.891521 15.432811
-10.580106 -81.38675 14.260008
-9.388727 -83.194347 12.749924
-9.716601 -82.020565 14.114407
-9.936418 -83.624234 11.586531
-9.061359 -84.302788 11.394851
-9.388727 -83.194347 12.749924
-12.745368 -84.539085 5.844659
-12.185289 -84.441292 7.125855
-12.997186 -83.585282 7.215234
-12.373446 -85.550465 4.529489
-12.745368 -84.539085 5.844659
-15.383277 -80.874485 7.378474
-16.096713 -79.847847 7.550307
-15.879133 -80.789455 6.139674
-14.632609 -81.800125 7.270806
-14.850189 -80.858517 8.681439
-15.383277 -80.874485 7.378474
-14.361481 -82.749584 5.95094
-13.828393 -82.733616 7.253905
-14.632609 -81.800125 7.270806
-30.937481 -51.274783 21.336712
-30.593857 -51.262237 22.443722
-31.308554 -50.380022 22.030394
-34.500013 -47.399216 4.384003
-34.19364 -47.891489 3.488702
-33.968468 -48.365057 4.800295
-35.01643 -46.431951 4.004069
-34.500013 -47.399216 4.384003
-34.791258 -46.905519 5.315663
-35.512096 -45.440189 3.713334
-35.01643 -46.431951 4.004069
-35.512096 -45.440189 3.713334
-35.80252 -44.87524 4.505702
-36.553653 -43.272625 5.01495
-36.117706 -44.295879 5.374305
-36.373993 -43.756279 6.313579
-36.553653 -43.272625 5.01495
-36.948431 -42.248137 4.703758
-10.05464 -59.353798 34.619724
-9.33266 -59.786831 34.794088
-9.653382 -58.471226 35.282621
-10.4913 -60.255779 33.98023
-10.05464 -59.353798 34.619724
-10.812023 -58.940174 34.468763
-12.017208 -59.511206 33.619283
-11.539862 -58.606436 34.246936
-11.746249 -60.757511 33.123403
-12.017208 -59.511206 33.619283
-12.514774 -60.426561 32.913418
-14.878422 -59.142924 32.384337
-15.677698 -58.687158 32.187609
-14.676762 -60.311896 31.923115
-14.112868 -59.515175 32.589658
-14.878422 -59.142924 32.384337
-15.978491 -60.607609 31.03347
-16.208544 -59.431698 31.552546
-16.744718 -60.099663 30.868223
-37.577711 -40.45956 7.2862
-37.787674 -39.827377 8.213034
-37.693899 -39.973578 6.059151
-37.40884 -41.025453 6.408389
-37.577711 -40.45956 7.2862
-38.020546 -38.406851 6.523579
-38.005617 -38.817532 7.79775
-37.900913 -39.028335 5.675868
-38.020546 -38.406851 6.523579
-38.058689 -38.027502 5.262484
-37.732042 -39.594229 4.798057
-37.693899 -39.973578 6.059151
-37.900913 -39.028335 5.675868
-37.808104 -39.152512 3.531275
-37.60109 -40.097753 3.914557
-37.732042 -39.594229 4.798057
-22.854664 -68.224761 6.036599
-22.291439 -69.311523 6.342068
-22.471998 -68.565033 7.445002
-22.854664 -68.224761 6.036599
-23.39814 -67.110401 5.755148
-24.674057 -64.375608 5.916092
-24.328325 -64.761089 7.346856
-24.886277 -63.719263 6.88578
-25.607215 -62.855406 4.120891
-25.797691 -62.276792 5.108987
-26.172897 -61.798416 3.774863
-25.051999 -63.93725 4.514107
-25.607215 -62.855406 4.120891
-24.674057 -64.375608 5.916092
-25.051999 -63.93725 4.514107
-30.289142 -54.513729 0.69761
-30.594346 -53.944954 1.558536
-30.909441 -53.474991 0.254166
-29.677099 -55.576239 1.138738
-30.289142 -54.513729 0.69761
-29.079444 -56.586071 1.539683
-29.376391 -55.993524 2.402923
-29.677099 -55.576239 1.138738
-28.496347 -57.607662 2.040722
-29.079444 -56.586071 1.539683
-7.695286 -69.233784 29.143174
-8.487775 -68.893227 29.12538
-8.209836 -70.018803 28.287021
-7.179784 -68.428539 30.02971
-7.695286 -69.233784 29.143174
-7.135252 -74.852566 24.134045
-7.682104 -75.548394 23.180728
-6.867069 -75.982059 23.063045
-7.133237 -71.585476 27.28651
-7.961113 -71.215793 27.310868
-7.677003 -72.44191 26.292563
-7.133237 -71.585476 27.28651
-6.355013 -71.976947 27.228887
-4.720775 -72.696857 27.163709
-4.446876 -73.955867 26.052935
-8.696554 -85.399353 10.101282
-9.061359 -84.302788 11.394851
-8.350189 -86.439446 8.795046
-8.696554 -85.399353 10.101282
-9.262685 -85.772767 8.925223
-9.821051 -86.059445 7.74862
-10.419534 -86.251019 6.608241
3 0 62 60
3 0 65 63
3 0 60 65
3 1 69 67
3 237 236 70
3 1 238 240
3 238 72 239
3 238 239 240
3 1 67 72
3 2 76 74
3 3 79 77
3 242 241 80
3 4 83 81
3 6 86 84
3 6 88 86
3 6 90 88
3 244 243 91
3 7 95 93
3 9 98 96
3 9 100 98
3 245 102 246
3 10 105 103
3 10 107 105
3 10 109 107
3 247 112 248
3 249 248 110
3 247 248 249
3 251 250 112
3 11 115 114
3 11 117 115
3 11 119 117
3 7 122 120
3 7 93 122
3 8 126 124
3 253 252 127
3 5 130 128
3 255 254 132
3 12 256 258
3 258 257 133
3 256 257 258
3 13 259 261
3 261 260 61
3 259 260 261
3 13 262 263
3 14 136 134
3 16 137 64
3 16 138 137
3 16 140 138
3 12 141 66
3 12 133 141
3 18 144 142
3 20 145 68
3 20 146 145
3 21 149 147
3 23 150 71
3 23 151 150
3 23 153 151
3 264 154 265
3 267 266 154
3 25 268 269
3 25 270 272
3 270 155 271
3 270 271 272
3 25 157 155
3 18 158 73
3 18 142 158
3 27 161 159
3 29 162 75
3 29 273 275
3 275 274 162
3 273 274 275
3 30 276 278
3 278 277 163
3 276 277 278
3 31 279 281
3 281 280 78
3 279 280 281
3 31 282 284
3 282 164 283
3 282 283 284
3 32 285 287
3 287 286 165
3 285 286 287
3 289 288 167
3 290 167 291
3 34 171 169
3 36 174 172
3 38 175 82
3 38 176 175
3 15 177 135
3 39 178 85
3 39 179 178
3 39 180 179
3 40 181 87
3 40 182 181
3 40 184 182
3 42 185 89
3 42 292 294
3 294 293 185
3 292 293 294
3 17 186 139
3 296 295 92
3 43 189 187
3 45 190 94
3 45 191 190
3 19 192 143
3 46 193 97
3 46 194 193
3 46 195 194
3 47 196 99
3 47 197 196
3 33 198 168
3 48 199 101
3 48 200 199
3 22 201 148
3 49 202 104
3 49 203 202
3 49 204 203
3 50 205 106
3 50 206 205
3 50 207 206
3 51 208 108
3 51 209 208
3 24 210 152
3 52 211 111
3 52 212 211
3 52 297 299
3 299 298 212
3 297 298 299
3 53 300 302
3 302 301 113
3 300 301 302
3 53 303 304
3 305 213 306
3 54 307 309
3 307 214 308
3 307 308 309
3 54 215 214
3 310 216 311
3 55 217 116
3 55 218 217
3 55 219 218
3 56 220 118
3 56 221 220
3 26 222 156
3 57 223 121
3 57 224 223
3 57 225 224
3 43 226 123
3 43 187 226
3 312 227 313
3 312 313 314
3 44 228 188
3 315 229 316
3 317 316 125
3 315 316 317
3 319 318 229
3 28 230 160
3 35 231 170
3 37 232 173
3 58 233 129
3 58 320 322
3 322 321 233
3 320 321 322
3 323 234 324
3 325 324 166
3 323 324 325
3 59 235 131
3 59 326 328
3 328 327 235
3 326 327 328
3 59 329 330
3 41 331 333
3 333 332 183
3 331 332 333
3 60 61 12
3 62 61 60
3 62 13 61
3 63 64 14
3 65 64 63
3 65 16 64
3 65 66 16
3 60 66 65
3 60 12 66
3 67 68 18
3 69 68 67
3 69 20 68
3 70 71 21
3 334 71 335
3 336 335 70
3 334 335 336
3 337 23 338
3 339 338 71
3 337 338 339
3 341 340 23
3 72 342 343
3 72 344 346
3 344 25 345
3 344 345 346
3 72 73 25
3 67 73 72
3 67 18 73
3 74 75 27
3 76 75 74
3 76 29 75
3 77 78 30
3 79 78 77
3 79 31 78
3 348 347 32
3 80 349 351
3 351 350 34
3 349 350 351
3 354 353 80
3 352 353 354
3 81 82 36
3 83 82 81
3 83 38 82
3 84 85 15
3 86 85 84
3 86 39 85
3 86 87 39
3 88 87 86
3 88 40 87
3 88 89 40
3 90 89 88
3 90 42 89
3 91 92 17
3 355 92 356
3 357 356 91
3 355 356 357
3 359 358 92
3 93 94 43
3 95 94 93
3 95 45 94
3 96 97 19
3 98 97 96
3 98 46 97
3 98 99 46
3 100 99 98
3 100 47 99
3 360 101 361
3 362 361 33
3 360 361 362
3 102 363 365
3 363 101 364
3 363 364 365
3 102 48 101
3 103 104 22
3 105 104 103
3 105 49 104
3 105 106 49
3 107 106 105
3 107 50 106
3 107 108 50
3 109 108 107
3 109 51 108
3 110 111 24
3 112 111 110
3 112 52 111
3 112 113 52
3 366 113 367
3 368 367 112
3 366 367 368
3 369 53 370
3 371 370 113
3 369 370 371
3 372 54 373
3 114 374 375
3 115 376 378
3 378 377 114
3 376 377 378
3 115 379 380
3 115 381 383
3 381 116 382
3 381 382 383
3 117 116 115
3 117 55 116
3 117 118 55
3 119 118 117
3 119 56 118
3 120 121 26
3 122 121 120
3 122 57 121
3 122 123 57
3 93 123 122
3 93 43 123
3 124 125 44
3 126 125 124
3 126 384 386
3 386 385 125
3 384 385 386
3 127 387 389
3 389 388 28
3 387 388 389
3 391 390 127
3 393 392 35
3 128 129 37
3 130 129 128
3 130 58 129
3 394 131 395
3 396 131 397
3 398 59 399
3 400 399 131
3 398 399 400
3 403 402 59
3 401 402 403
3 132 404 406
3 406 405 41
3 404 405 406
3 408 407 132
3 133 409 410
3 412 411 133
3 61 413 415
3 415 414 12
3 413 414 415
3 417 416 61
3 134 135 4
3 136 135 134
3 136 15 135
3 64 136 14
3 137 136 64
3 137 15 136
3 137 84 15
3 138 84 137
3 138 6 84
3 138 139 6
3 140 139 138
3 140 17 139
3 66 140 16
3 141 140 66
3 141 17 140
3 141 91 17
3 133 91 141
3 133 418 420
3 420 419 91
3 418 419 420
3 142 143 7
3 144 143 142
3 144 19 143
3 68 144 18
3 145 144 68
3 145 19 144
3 145 96 19
3 146 96 145
3 146 9 96
3 147 421 423
3 421 148 422
3 421 422 423
3 149 148 147
3 149 22 148
3 71 149 21
3 150 149 71
3 150 22 149
3 150 103 22
3 151 103 150
3 151 10 103
3 151 152 10
3 153 152 151
3 153 24 152
3 424 153 425
3 426 425 23
3 424 425 426
3 154 427 429
3 427 153 428
3 427 428 429
3 154 24 153
3 154 110 24
3 430 110 431
3 432 431 154
3 430 431 432
3 434 433 110
3 435 114 436
3 155 437 439
3 437 114 438
3 437 438 439
3 155 11 114
3 155 156 11
3 157 156 155
3 157 26 156
3 73 157 25
3 158 157 73
3 158 26 157
3 158 120 26
3 142 120 158
3 142 7 120
3 159 160 8
3 161 160 159
3 161 28 160
3 75 161 27
3 162 161 75
3 162 28 161
3 162 127 28
3 440 127 441
3 442 441 162
3 440 441 442
3 444 443 127
3 163 445 446
3 448 447 163
3 78 449 451
3 451 450 30
3 449 450 451
3 453 452 78
3 164 454 455
3 164 456 457
3 165 166 5
3 458 166 459
3 460 459 165
3 458 459 460
3 462 461 166
3 464 463 32
3 167 168 1
3 465 168 466
3 467 466 167
3 465 466 467
3 468 33 469
3 470 469 168
3 468 469 470
3 471 33 472
3 474 473 33
3 475 147 476
3 477 147 478
3 479 21 480
3 481 480 147
3 479 480 481
3 482 21 483
3 484 70 485
3 486 485 21
3 484 485 486
3 487 70 488
3 491 490 70
3 489 490 491
3 167 492 493
3 167 494 496
3 494 1 495
3 494 495 496
3 169 170 2
3 171 170 169
3 171 35 170
3 497 171 498
3 499 498 34
3 497 498 499
3 500 171 501
3 500 501 502
3 503 35 504
3 505 504 171
3 503 504 505
3 507 506 35
3 172 173 3
3 174 173 172
3 174 37 173
3 82 174 36
3 175 174 82
3 175 37 174
3 175 128 37
3 176 128 175
3 176 5 128
3 135 83 4
3 177 83 135
3 177 38 83
3 85 177 15
3 178 177 85
3 178 38 177
3 178 176 38
3 179 176 178
3 179 5 176
3 179 165 5
3 180 165 179
3 180 32 165
3 87 180 39
3 181 180 87
3 181 32 180
3 181 508 510
3 510 509 32
3 508 509 510
3 182 511 513
3 513 512 181
3 511 512 513
3 182 514 515
3 182 516 518
3 516 183 517
3 516 517 518
3 184 183 182
3 184 41 183
3 89 184 40
3 185 184 89
3 185 41 184
3 185 132 41
3 519 132 520
3 521 520 185
3 519 520 521
3 523 522 132
3 139 90 6
3 186 90 139
3 186 42 90
3 92 186 17
3 524 186 525
3 526 525 92
3 524 525 526
3 527 42 528
3 529 528 186
3 527 528 529
3 532 531 42
3 530 531 532
3 187 188 0
3 189 188 187
3 189 44 188
3 94 189 43
3 190 189 94
3 190 44 189
3 190 124 44
3 191 124 190
3 191 8 124
3 143 95 7
3 192 95 143
3 192 45 95
3 97 192 19
3 193 192 97
3 193 45 192
3 193 191 45
3 194 191 193
3 194 8 191
3 194 159 8
3 195 159 194
3 195 27 159
3 99 195 46
3 196 195 99
3 196 27 195
3 196 74 27
3 197 74 196
3 197 2 74
3 168 69 1
3 198 69 168
3 198 20 69
3 101 198 33
3 199 198 101
3 199 20 198
3 199 146 20
3 200 146 199
3 200 9 146
3 148 533 535
3 533 102 534
3 533 534 535
3 201 102 148
3 201 48 102
3 104 201 22
3 202 201 104
3 202 48 201
3 202 200 48
3 203 200 202
3 203 9 200
3 203 100 9
3 204 100 203
3 204 47 100
3 106 204 49
3 205 204 106
3 205 47 204
3 205 197 47
3 206 197 205
3 206 2 197
3 206 169 2
3 207 169 206
3 207 34 169
3 108 207 50
3 208 207 108
3 208 34 207
3 208 80 34
3 209 80 208
3 209 536 538
3 538 537 80
3 536 537 538
3 152 109 10
3 210 109 152
3 210 51 109
3 111 210 24
3 211 210 111
3 211 51 210
3 211 209 51
3 212 209 211
3 212 539 541
3 541 540 209
3 539 540 541
3 212 542 543
3 545 544 212
3 113 546 548
3 548 547 52
3 546 547 548
3 550 549 113
3 551 163 552
3 551 552 553
3 213 554 556
3 554 163 555
3 554 555 556
3 213 30 163
3 557 213 558
3 214 559 561
3 559 213 560
3 559 560 561
3 214 30 213
3 214 77 30
3 215 77 214
3 215 3 77
3 216 562 563
3 216 564 566
3 564 54 565
3 564 565 566
3 116 567 569
3 567 216 568
3 567 568 569
3 217 216 116
3 217 54 216
3 217 215 54
3 218 215 217
3 218 3 215
3 218 172 3
3 219 172 218
3 219 36 172
3 118 219 55
3 220 219 118
3 220 36 219
3 220 81 36
3 221 81 220
3 221 4 81
3 156 119 11
3 222 119 156
3 222 56 119
3 121 222 26
3 223 222 121
3 223 56 222
3 223 221 56
3 224 221 223
3 224 4 221
3 224 134 4
3 225 134 224
3 225 14 134
3 123 225 57
3 226 225 123
3 226 14 225
3 226 63 14
3 187 63 226
3 187 0 63
3 227 570 571
3 227 572 574
3 572 53 573
3 572 573 574
3 575 227 576
3 577 227 578
3 577 578 579
3 580 53 581
3 582 581 227
3 580 581 582
3 585 584 53
3 583 584 585
3 188 62 0
3 228 62 188
3 228 13 62
3 125 228 44
3 229 228 125
3 229 13 228
3 229 586 588
3 588 587 13
3 586 587 588
3 590 589 229
3 160 126 8
3 230 126 160
3 230 591 593
3 593 592 126
3 591 592 593
3 594 230 595
3 596 595 28
3 594 595 596
3 597 230 598
3 600 599 230
3 170 76 2
3 231 76 170
3 231 29 76
3 601 231 602
3 603 602 35
3 601 602 603
3 604 231 605
3 606 29 607
3 608 607 231
3 606 607 608
3 610 609 29
3 173 79 3
3 232 79 173
3 232 31 79
3 129 232 37
3 233 232 129
3 233 31 232
3 233 164 31
3 611 164 612
3 613 612 233
3 611 612 613
3 615 614 164
3 166 130 5
3 234 130 166
3 234 58 130
3 131 616 618
3 616 234 617
3 616 617 618
3 235 234 131
3 235 58 234
3 235 619 621
3 621 620 58
3 619 620 621
3 623 622 235
3 625 624 59
3 183 626 627
3 630 629 183
3 628 629 630
3 632 631 41
