ply
format ascii 1.0
element vertex 65
property float x
property float y
property float z
element face 47
property list uchar int vertex_index
end_header
6.620765 72.068352 24.347418
5.615512 68.122589 28.789047
8.319313 71.170967 23.1637
2.545964 71.634216 28.779043
4.365752 70.956322 27.675219
6.149832 70.0569 26.629183
7.798764 69.170364 25.543804
7.42448 67.164009 27.641493
6.017764 73.50338 23.669277
5.768628 72.419171 24.940286
6.89746 72.942737 23.223993
6.017764 73.50338 23.669277
7.470039 71.61966 23.755559
7.746733 72.494045 22.632134
6.89746 72.942737 23.223993
2.244822 70.526089 29.933757
1.607722 71.991661 29.270664
4.990632 69.539456 28.232133
4.077951 69.880382 28.829327
4.702831 68.463516 29.386241
8.564262 68.867836 24.848581
8.385793 67.781075 25.983409
8.567742 72.164444 21.938309
7.746733 72.494045 22.632134
9.113524 70.786652 22.466485
8.567742 72.164444 21.938309
5.33148 67.00362 29.935997
4.702831 68.463516 29.386241
6.21184 66.646076 29.336008
5.33148 67.00362 29.935997
1.864539 73.137638 28.063218
1.607722 71.991661 29.270664
2.805318 72.733356 27.583714
1.864539 73.137638 28.063218
3.168057 70.21933 29.381239
2.244822 70.526089 29.933757
3.455858 71.295269 28.227131
3.168057 70.21933 29.381239
4.077951 69.880382 28.829327
3.715212 72.394409 27.031802
2.805318 72.733356 27.583714
3.455858 71.295269 28.227131
4.641121 71.863156 26.604186
3.715212 72.394409 27.031802
5.533162 71.413444 26.081169
4.641121 71.863156 26.604186
5.257792 70.506611 27.152201
6.385298 71.062626 25.488301
5.768628 72.419171 24.940286
5.533162 71.413444 26.081169
8.198651 66.777897 27.032253
8.385793 67.781075 25.983409
7.611622 68.167186 26.592649
7.116324 66.166786 28.762231
6.519996 67.643299 28.21527
6.21184 66.646076 29.336008
7.980626 65.671547 28.1768
7.116324 66.166786 28.762231
8.198651 66.777897 27.032253
7.980626 65.671547 28.1768
8.824536 69.868138 23.658528
8.059038 70.170666 24.353752
8.564262 68.867836 24.848581
9.113524 70.786652 22.466485
8.824536 69.868138 23.658528
3 0 8 9
3 0 10 11
3 0 12 14
3 12 2 13
3 12 13 14
3 15 3 16
3 1 17 19
3 17 4 18
3 17 18 19
3 1 5 4
3 1 7 5
3 21 20 6
3 2 22 23
3 2 24 25
3 26 1 27
3 29 28 1
3 3 30 31
3 3 32 33
3 34 3 35
3 4 36 38
3 36 3 37
3 36 37 38
3 4 39 41
3 41 40 3
3 39 40 41
3 4 42 43
3 5 44 46
3 46 45 4
3 44 45 46
3 5 47 49
3 47 0 48
3 47 48 49
3 5 6 0
3 7 6 5
3 7 50 52
3 52 51 6
3 50 51 52
3 53 7 54
3 55 54 1
3 53 54 55
3 56 7 57
3 59 58 7
3 6 2 0
3 60 2 61
3 62 61 6
3 60 61 62
3 64 63 2
