ply
format ascii 1.0
element vertex 901
property float x
property float y
property float z
element face 1017
property list uchar int vertex_index
end_header
-30.491217 -46.420429 9.835872
-27.10483 -67.478142 16.068674
-30.386616 -47.858967 27.739241
-32.943993 -22.93224 24.612963
-28.231169 -42.448837 -7.817873
-30.183189 -55.922695 40.520325
-29.774479 -57.993149 31.315214
-30.276159 -47.993801 36.287872
-28.126276 -57.573799 12.193204
-26.737314 -56.42067 2.631751
-29.665609 -45.022064 0.893556
-28.03867 -67.500488 26.213343
-29.183393 -57.954983 21.899961
-30.635908 -47.285416 18.872149
-30.132353 -37.680279 33.467941
-31.356112 -36.445007 25.68078
-32.956169 -34.974724 17.389816
-33.866611 -33.575588 8.662981
-30.362463 -51.368496 42.145111
-30.319075 -52.294109 38.163376
-30.267128 -47.834332 40.105358
-30.224943 -54.232349 44.906944
-29.148973 -52.14209 10.88497
-27.506269 -56.934261 7.429695
-28.682524 -51.433903 6.227519
-28.027819 -50.727699 1.476557
-30.165236 -45.762459 5.272201
-28.358358 -66.904778 31.189766
-30.079599 -53.171291 29.280075
-29.500776 -58.169167 26.656122
-29.960217 -52.998615 24.748381
-29.784655 -52.946308 20.254616
-30.509933 -47.707867 23.257046
-29.766075 -38.396061 37.520943
-31.628489 -24.175354 28.310228
-31.064917 -30.862476 28.859095
-32.097111 -29.785362 25.104902
-32.176178 -35.558521 21.661152
-33.21207 -28.946411 21.177011
-34.581547 7.238447 26.394041
-33.881847 -0.840453 27.112886
-35.07333 -27.442982 12.743294
-26.526525 -48.546951 -7.228508
-27.139229 -40.754791 -11.920429
-29.602507 -60.966717 38.415878
-29.338963 -62.195393 33.672211
-30.020645 -57.241795 35.973682
-30.223713 -52.850487 33.920994
-30.302925 -48.042149 32.147114
-29.717545 -59.292084 43.195126
-32.317379 -16.71244 27.966585
-27.495924 -62.643124 14.008441
-26.442709 -67.008507 10.765595
-26.806616 -62.055412 9.081034
-25.994301 -61.534626 3.997572
-25.201193 -60.841812 -0.779384
-26.007074 -55.446148 -1.990409
-27.363962 -49.751171 -2.853372
-29.122988 -43.636818 -3.538475
-35.156616 15.878875 25.115519
-36.68354 17.651649 20.810091
-27.640337 -67.697929 21.258211
-29.034275 -62.748367 28.869493
-28.623516 -63.022011 23.921667
-28.141218 -62.854691 19.084496
-28.710236 -57.900925 17.149403
-29.49917 -52.713528 15.486745
-30.679102 -46.768402 14.420677
-30.0249 -43.461861 38.873859
-30.167894 -43.077381 34.789783
-30.411425 -42.904785 30.736109
-30.237602 -31.53974 32.532894
-30.674793 -36.872692 29.562943
-30.799004 -42.204433 26.575027
-31.236755 -42.032249 22.291868
-31.670443 -41.552063 18.071678
-31.98892 -40.977417 13.571249
-33.06601 -9.267693 27.609165
-33.804829 -15.400208 24.36441
-34.236252 -28.302549 17.057055
-33.542397 -34.348831 13.058416
-32.103783 -40.247459 9.113073
-31.976341 -39.533031 4.897191
-31.59189 -38.552734 0.196476
-30.333302 -49.242241 42.779156
-30.335917 -49.628315 41.022503
-30.263813 -47.717602 41.96595
-30.290636 -48.414486 44.395828
-30.353584 -50.44109 43.97818
-29.81595 -49.258118 10.487147
-28.942884 -51.813686 8.667343
-29.615316 -48.98634 8.086806
-29.421925 -48.555153 5.77656
-30.403902 -45.936172 7.601927
-27.952379 -68.373123 35.005302
-28.474863 -66.551651 33.750736
-30.235735 -50.42305 28.5399
-30.032715 -52.955845 27.067362
-30.230976 -50.356098 26.32477
-30.210363 -50.440346 23.997688
-30.449162 -47.762844 25.501717
-28.709627 -65.111176 38.793655
-32.279133 -23.29682 26.514225
-31.901575 -26.879765 26.742411
-32.50341 -26.281773 24.918062
-32.637669 -29.472332 23.16316
-33.141235 -25.980898 22.893354
-35.094261 4.144715 24.786983
-26.940302 -69.719925 17.068439
-26.535654 -72.099159 15.409951
-26.642878 -69.809082 14.371812
-27.35634 -45.478973 -7.568209
-27.69615 -41.721016 -9.89005
-29.952072 -58.386257 39.558891
-29.863108 -59.047108 37.250355
-30.12254 -56.531944 38.196186
-30.314716 -50.212364 37.236263
-30.280941 -52.483871 36.034592
-30.293415 -50.321072 35.040688
-30.262503 -50.666271 32.835613
-30.285158 -47.957752 34.184811
-30.217972 -55.188141 42.665703
-30.037193 -56.653946 44.107307
-29.993259 -57.745651 41.890869
-29.687147 -60.161186 40.777538
-31.62397 -17.615129 29.687527
-31.953028 -13.798199 29.555073
-27.796902 -59.985283 13.052801
-27.138342 -62.447247 11.485378
-27.416929 -59.919292 10.536277
-27.146355 -56.630806 5.028566
-26.681656 -59.375092 5.693918
-26.295324 -59.046486 3.286115
-25.589495 -61.165733 1.500412
-25.923128 -58.583584 0.892518
-25.52301 -58.221195 -1.415281
-26.407217 -55.862247 0.34034
-28.856169 -47.863987 1.298712
-27.679983 -50.365341 -0.690929
-28.51902 -47.341007 -1.08619
-28.168922 -46.760807 -3.344713
-29.44873 -44.238781 -1.357478
-29.577793 -60.194817 32.444962
-29.185572 -62.575993 31.25708
-29.431812 -60.464771 30.14222
-29.353325 -58.096703 24.320105
-29.107189 -60.535385 25.339033
-28.889631 -60.596878 22.876955
-28.384274 -63.009075 21.450785
-28.676815 -60.399147 20.454853
-28.374746 -60.446899 17.898106
-28.961426 -57.953453 19.538214
-30.165369 -50.241531 19.427572
-29.6658 -52.810631 17.867956
-30.09849 -50.175407 17.228275
-30.035139 -49.872124 14.922357
-30.633883 -47.24295 16.592897
-29.991016 -43.690304 40.715023
-29.820967 -41.305984 40.167805
-29.923029 -38.02906 35.498386
-29.995195 -40.760483 36.157059
-30.135374 -40.402721 34.07312
-30.272791 -42.730141 32.779762
-30.314287 -40.23259 32.025707
-31.282045 -33.626175 27.166016
-30.847628 -33.749233 29.242624
-31.000599 -36.465061 27.701996
-30.769859 -39.570644 28.159216
-31.04574 -39.33374 26.191507
-31.011803 -42.168171 24.450638
-31.353497 -39.173161 24.081451
-32.56155 -35.495132 19.4387
-31.983608 -38.639599 19.914385
-32.298904 -38.327686 17.66518
-31.873751 -41.183186 15.821004
-32.563076 -38.006104 15.449482
-34.311035 -4.294697 25.486008
-33.491322 -5.130487 27.339708
-33.891941 -8.452744 25.733202
-33.499241 -12.400336 25.872349
-34.299377 -11.689994 24.005854
-34.383114 -25.014132 18.85804
-34.924133 -24.47003 16.92919
-34.547058 -30.605764 10.756207
-34.319214 -30.903509 12.927932
-33.740959 -33.97316 10.878396
-32.903915 -37.33844 11.091843
-32.976528 -36.975956 8.874529
-32.097927 -39.793953 7.000101
-32.983574 -36.608402 6.775462
-30.316832 -53.533024 41.33992
-30.280542 -54.096565 39.200172
-30.347885 -51.804626 40.182812
-30.329823 -50.065395 39.161098
-30.275316 -48.068306 38.295181
-30.317732 -51.869362 45.419331
-30.329931 -52.821808 43.505791
-28.596312 -54.951279 11.621951
-27.824711 -57.347683 9.902024
-28.349817 -54.554131 9.242258
-28.060974 -54.191154 6.848154
-27.681166 -54.028515 4.449567
-27.368944 -53.489162 2.086105
-28.357233 -51.157097 3.851241
-29.100971 -48.363663 3.432726
-30.015837 -45.184879 3.124067
-29.932507 -55.676193 30.264874
-29.652269 -58.015366 28.983232
-29.835043 -55.613552 27.966753
-29.748341 -55.47213 25.809195
-29.598648 -55.657608 23.409246
-29.46841 -55.496616 21.106749
-29.883635 -52.993202 22.540712
-30.201477 -50.31797 21.73934
-30.559633 -47.643017 21.05372
-28.821056 -63.13007 43.41647
-29.664007 -38.818283 39.543297
-29.665274 -35.538692 36.943779
-29.883945 -35.287708 34.9655
-31.073849 -24.502691 30.053064
-30.834949 -27.863527 30.327185
-31.338087 -27.67362 28.505127
-31.559782 -30.409834 26.971987
-31.728361 -33.061836 25.321177
-31.757275 -35.869675 23.760973
-32.188328 -32.63118 23.46032
-32.673912 -32.449375 21.348959
-33.130039 -32.09296 19.384472
-34.312912 3.144311 26.624941
-34.733311 -0.145039 25.118982
-29.163788 -63.400738 37.445541
-29.046408 -63.994637 34.975864
-29.50528 -61.517818 36.147663
-29.714577 -59.804523 34.806263
-29.916178 -57.568901 33.64603
-30.226477 -54.57914 37.030453
-30.150579 -55.067974 34.952785
-30.057905 -55.281075 32.594154
-30.151346 -53.091888 31.587477
-30.239628 -50.648235 30.756084
-30.334015 -48.013992 29.931549
-29.326223 -61.637291 42.292782
-29.251083 -62.645981 39.910995
-31.323296 -21.13204 29.881159
-31.992298 -20.478748 28.037792
-32.68848 -19.647682 26.270332
-27.300743 -65.053291 15.115637
-26.78689 -67.312317 13.467674
-26.917917 -64.911522 12.349843
-26.574505 -64.530136 9.809471
-27.072807 -59.590294 8.116837
-26.393017 -61.928436 6.552022
-25.787428 -64.044609 4.652013
-25.587679 -54.926922 -4.32749
-26.988255 -53.105354 -0.256154
-26.594152 -52.66378 -2.557842
-26.198383 -52.150509 -4.727746
-26.94754 -49.314831 -4.988434
-27.745502 -46.292774 -5.47237
-28.718391 -43.120125 -5.615512
-34.923599 11.390144 25.748039
-35.906666 16.700529 23.053345
-27.165051 -69.917183 19.763887
-27.386251 -67.665489 18.70187
-28.877802 -64.615341 32.615101
-28.756262 -64.766357 30.11334
-28.547903 -65.205307 27.664165
-29.299442 -60.460529 27.902658
-28.860239 -62.824394 26.460106
-28.362129 -65.268654 25.071623
-28.150269 -65.235474 22.545858
-27.863617 -65.430779 20.047216
-27.609507 -65.189278 17.596529
-27.851858 -62.656292 16.556379
-28.087679 -60.316784 15.503299
-28.429142 -57.756611 14.642009
-29.302137 -55.378773 18.76502
-29.085026 -55.301586 16.332142
-28.827875 -55.227039 13.889509
-29.333282 -52.429737 13.12332
-29.935953 -49.58049 12.663248
-30.588783 -46.69524 12.111073
-30.145416 -45.847256 41.237717
-30.165064 -45.818546 39.348103
-30.182003 -45.60516 37.489235
-29.88401 -40.981415 38.230385
-30.078224 -43.18602 36.90226
-30.22035 -45.60955 35.570644
-30.274158 -45.449593 33.487556
-30.346823 -45.449844 31.409485
-30.441898 -45.438625 29.255987
-29.8722 -32.14727 34.566132
-30.141809 -34.53545 33.084301
-30.627699 -31.088079 30.71287
-30.470179 -34.114651 31.162432
-30.370674 -37.202377 31.58396
-30.514158 -39.822083 30.176548
-30.584259 -42.559952 28.684519
-30.563721 -45.215839 27.17293
-30.698893 -45.06546 25.03688
-30.845306 -44.892605 22.889452
-30.991978 -44.696461 20.723072
-31.673717 -38.829308 22.057241
-31.486727 -41.621368 20.2006
-31.10754 -44.571426 18.478754
-31.251373 -44.145069 16.241928
-31.271137 -44.085789 13.96193
-31.283676 -43.799919 11.731889
-33.077763 -2.083049 28.907782
-32.70652 -5.990943 29.131945
-32.300385 -10.070514 29.383553
-32.734581 -13.222408 27.632624
-33.055962 -16.268673 26.111597
-33.404144 -19.460886 24.329313
-34.155319 -18.428497 22.522778
-33.62463 -22.282011 22.766977
-33.797836 -25.277775 20.918295
-33.741425 -28.533949 19.220119
-33.581722 -31.609491 17.370806
-34.716797 -27.750952 14.890108
-33.979107 -31.31171 15.137114
-33.265751 -34.721581 15.271471
-32.764774 -37.678776 13.28133
-32.063736 -40.670712 11.358313
-31.297733 -43.296104 9.458395
-31.21649 -42.962482 7.27678
-31.056915 -42.722347 5.16644
-30.931459 -42.103222 2.890738
-31.822947 -39.077507 2.585059
-30.667322 -41.731903 0.648234
-30.379299 -41.177322 -1.630559
-29.996037 -40.676765 -3.879376
-29.627003 -39.930859 -6.029637
-29.112274 -39.308964 -8.171144
-28.590982 -38.465965 -10.208059
-28.015779 -37.714199 -12.046179
-27.232885 -37.052235 -14.035019
-26.532913 -36.180721 -15.782736
-25.766338 -35.429729 -17.416981
-26.366873 -69.476738 11.776113
-30.260061 -47.648777 42.638827
-30.298558 -48.479922 42.372553
-30.294806 -48.411096 43.045429
-30.294806 -48.411096 43.045429
-30.311969 -48.828363 43.587492
-30.273473 -47.997219 43.853766
-28.538685 -66.236069 34.990338
-28.213621 -67.462387 34.378019
-28.277443 -67.146805 35.617621
-28.408418 -66.25679 38.179266
-28.656067 -65.515831 37.511797
-28.277443 -67.146805 35.617621
-28.029795 -67.887764 36.285089
-27.545996 -43.609903 -8.70911
-27.108581 -45.124971 -8.584278
-27.793754 -43.963905 -7.693041
-27.963659 -42.084926 -8.853962
-27.278486 -43.245992 -9.745199
-27.545996 -43.609903 -8.70911
-31.763685 -12.301865 30.364013
-31.604539 -14.132077 30.455011
-31.415195 -12.635743 31.26395
-27.785646 -68.620121 25.540481
-27.854723 -68.518559 26.854408
-27.938933 -67.623767 24.988327
-27.785646 -68.620121 25.540481
-29.715196 -40.250053 40.845662
-29.809376 -41.493395 41.091687
-34.308628 -8.011918 24.786788
-34.101488 -6.37372 25.609605
-34.518175 -5.932894 24.663191
-34.512346 -9.630543 23.923114
-34.095659 -10.071369 24.869528
-34.308628 -8.011918 24.786788
-35.263452 -22.623556 16.746533
-34.96378 -22.827078 17.804246
-30.310989 -50.704701 45.643944
-30.289934 -51.264572 46.414019
-28.080159 -68.034615 30.586194
-28.113121 -67.902985 31.85856
-28.284151 -67.064178 29.937641
-28.080159 -68.034615 30.586194
-28.488555 -64.333964 42.944815
-28.807987 -63.623248 42.312778
-29.638274 -34.083303 36.686434
-29.543371 -34.387981 37.662743
-29.747609 -33.957811 35.697294
-29.77461 -35.4132 35.954639
-29.638274 -34.083303 36.686434
-34.447229 5.191379 26.509491
-34.057716 4.760862 27.458854
-34.192034 6.80793 27.343404
-35.117186 0.30186 24.220143
-34.913786 1.999838 24.952982
-35.297661 2.446737 24.054144
-34.953837 -1.800501 24.306654
-35.117186 0.30186 24.220143
-26.396273 -73.17065 14.620413
-26.422779 -71.985233 14.061931
-25.973916 -49.554125 -8.071897
-26.206124 -49.877063 -7.025526
-26.488677 -41.801592 -12.653261
-26.756996 -42.324714 -11.706295
-26.849765 -40.332979 -12.800342
-26.488677 -41.801592 -12.653261
-30.129614 -54.897312 45.579641
-30.211193 -53.696891 45.935958
-29.727135 -58.700947 44.361315
-29.886959 -57.381878 44.817405
-29.877369 -57.973015 43.651217
-29.523879 -59.954771 43.91445
-29.727135 -58.700947 44.361315
-29.521884 -60.464687 42.743954
-29.328218 -61.127375 43.463278
-29.523879 -59.954771 43.91445
-31.150907 -19.625349 30.685008
-31.016799 -21.363582 30.816871
-30.84441 -19.85689 31.62072
-26.508592 -63.172371 8.221782
-26.392536 -64.409733 8.586001
-26.69056 -63.292774 9.445253
-25.710036 -62.589687 3.155637
-25.606599 -63.844679 3.482858
-25.890864 -62.789617 4.324793
-25.11828 -62.13512 -0.380053
-25.312431 -62.297081 0.759845
-25.395344 -61.003772 0.360514
-24.911853 -61.845442 -1.648905
-25.11828 -62.13512 -0.380053
-25.015914 -60.562353 -1.910021
-24.911853 -61.845442 -1.648905
-25.553762 -56.594583 -2.895182
-25.311729 -57.982107 -2.607619
-25.765042 -56.833672 -1.702845
-25.797376 -55.186535 -3.15895
-25.344064 -56.33497 -4.063723
-25.553762 -56.594583 -2.895182
-35.040108 13.63451 25.431779
-34.653254 13.035839 26.476631
-34.769762 15.280205 26.160371
-35.415869 14.097365 24.4585
-35.29936 11.852999 24.77476
-35.040108 13.63451 25.431779
-36.295103 17.176089 21.931718
-36.001129 18.907471 22.574722
-36.389566 19.383032 21.453094
-36.56995 15.499142 21.247661
-36.181513 15.023581 22.369287
-36.295103 17.176089 21.931718
-36.976517 16.020311 20.063185
-36.56995 15.499142 21.247661
-27.402694 -68.807556 20.511049
-27.251403 -69.951298 20.987119
-27.489046 -68.841671 21.734282
-30.062546 -44.893341 41.909171
-30.144311 -45.918322 42.08845
-30.054901 -31.843505 33.549513
-29.905597 -30.637743 34.332627
-30.088299 -30.333978 33.316007
-33.479805 -1.461751 28.010334
-33.271204 0.132854 28.778084
-33.673246 0.754152 27.880636
-34.240265 -20.088408 21.635416
-34.505968 -18.311446 21.519174
-34.590914 -19.971356 20.631811
-33.974921 -22.015165 21.757515
-33.889975 -20.355254 22.644877
-34.240265 -20.088408 21.635416
-34.061523 -23.513047 20.833174
-33.711233 -23.779893 21.842636
-33.974921 -22.015165 21.757515
-34.895063 -27.596967 13.816701
-35.06123 -26.021498 14.771701
-35.239497 -25.867513 13.698294
-31.707418 -38.81512 1.390768
-32.274581 -37.491672 2.364574
-32.159053 -37.229286 1.170283
-30.485976 -39.072371 -3.985436
-30.65126 -39.344406 -2.95771
-30.301459 -38.699417 -5.060567
-29.81152 -40.303812 -4.954506
-30.485976 -39.072371 -3.985436
-29.583818 -37.680855 -8.297213
-29.817197 -38.057436 -7.272832
-29.323172 -37.259355 -9.31567
-28.851628 -38.887465 -9.189602
-29.583818 -37.680855 -8.297213
-28.351365 -36.279305 -12.263442
-28.75134 -36.514385 -11.230809
-27.959918 -35.948323 -13.257862
-27.624332 -37.383217 -13.040599
-28.351365 -36.279305 -12.263442
-26.826745 -34.805011 -15.968695
-27.222707 -35.170902 -15.084761
-26.443458 -34.429516 -16.785818
-26.149625 -35.805225 -16.599858
-26.826745 -34.805011 -15.968695
-30.32211 -49.427788 44.187004
-30.328915 -49.990565 44.923369
-30.297441 -48.977262 45.132193
-27.910131 -68.637158 33.766329
-27.603541 -69.55471 34.253772
-28.171374 -67.726422 33.139046
-27.910131 -68.637158 33.766329
-28.213621 -67.462387 34.378019
-28.41661 -66.728215 32.470251
-28.113121 -67.902985 31.85856
-28.171374 -67.726422 33.139046
-28.429994 -65.830788 39.410474
-28.752273 -64.6138 40.001371
-28.429994 -65.830788 39.410474
-28.408418 -66.25679 38.179266
-27.666501 -69.080937 35.5828
-28.029795 -67.887764 36.285089
-27.603541 -69.55471 34.253772
-27.666501 -69.080937 35.5828
-35.2484 6.052524 24.57011
-34.837904 5.691581 25.590512
-34.992042 7.59939 25.373639
-35.52668 4.542381 23.715899
-35.2484 6.052524 24.57011
-35.297661 2.446737 24.054144
-35.52668 4.542381 23.715899
-26.737978 -70.909542 16.239195
-26.634563 -72.10448 16.714859
-26.836886 -70.914863 17.544103
-26.476391 -70.840194 13.542862
-26.422779 -71.985233 14.061931
-26.589266 -70.954121 14.890881
-26.730306 -46.546881 -8.45324
-26.315398 -48.080869 -8.28339
-26.941432 -47.012962 -7.398359
-26.730306 -46.546881 -8.45324
-27.108581 -45.124971 -8.584278
-27.035457 -42.807827 -10.691105
-27.278486 -43.245992 -9.745199
-27.41769 -41.237904 -10.90524
-26.756996 -42.324714 -11.706295
-27.035457 -42.807827 -10.691105
-31.44001 -16.040542 30.521237
-31.301244 -17.866893 30.588192
-31.117284 -16.292306 31.421903
-31.788499 -15.706664 29.6213
-31.44001 -16.040542 30.521237
-31.604539 -14.132077 30.455011
-34.877769 17.281937 25.79909
-34.769762 15.280205 26.160371
-36.763903 19.728693 20.315084
-36.389566 19.383032 21.453094
-37.05217 18.085487 19.667269
-36.763903 19.728693 20.315084
-27.739767 -67.722488 22.510761
-27.489046 -68.841671 21.734282
-29.8944 -42.685554 41.365296
-29.985346 -43.814865 41.647824
-29.905991 -42.498144 40.441414
-29.8944 -42.685554 41.365296
-29.809376 -41.493395 41.091687
-30.298142 -30.009443 32.354819
-30.088299 -30.333978 33.316007
-34.69327 -23.099129 18.768671
-34.354163 -23.381225 19.803047
-34.664319 -21.466222 19.713677
-34.653623 -24.742081 17.893615
-34.69327 -23.099129 18.768671
-34.96378 -22.827078 17.804246
-32.066851 -36.930955 0.036865
-32.159053 -37.229286 1.170283
-31.449186 -38.282391 -0.919784
-32.066851 -36.930955 0.036865
-26.252237 -68.199128 9.995912
-26.279008 -66.899922 9.558295
-30.257587 -52.515398 46.192152
-30.289934 -51.264572 46.414019
-30.271338 -53.050855 45.163138
-30.211193 -53.696891 45.935958
-30.257587 -52.515398 46.192152
-30.335658 -51.155226 44.698756
-30.310989 -50.704701 45.643944
-30.328915 -49.990565 44.923369
-28.124307 -67.362033 27.44943
-27.854723 -68.518559 26.854408
-28.478631 -63.713652 44.17532
-28.804257 -62.52907 44.649428
-28.478631 -63.713652 44.17532
-28.488555 -64.333964 42.944815
-29.557911 -37.736 40.185727
-29.636716 -39.006203 40.533408
-29.59416 -37.459601 39.229765
-29.557911 -37.736 40.185727
-29.645194 -37.24849 38.218588
-29.715041 -38.607172 38.53212
-29.59416 -37.459601 39.229765
-29.594794 -35.819805 37.930006
-29.543371 -34.387981 37.662743
-29.715674 -36.967377 37.232361
-29.645194 -37.24849 38.218588
-29.594794 -35.819805 37.930006
-30.954399 -26.183109 30.190124
-30.674356 -26.441564 31.140751
-30.793805 -24.761145 31.00369
-33.888779 2.746534 27.636663
-34.057716 4.760862 27.458854
-34.09738 1.151929 26.868913
-33.673246 0.754152 27.880636
-33.888779 2.746534 27.636663
-34.742699 -3.87533 24.490167
-34.522173 -2.219868 25.302495
-34.953837 -1.800501 24.306654
-34.518175 -5.932894 24.663191
-34.742699 -3.87533 24.490167
-35.461496 -25.52993 12.680568
-35.239497 -25.867513 13.698294
-35.237066 -27.12283 11.745817
-35.461496 -25.52993 12.680568
-34.973931 -28.704222 10.752274
-34.810194 -29.024373 11.749751
-35.237066 -27.12283 11.745817
-34.659315 -30.285105 9.675554
-34.973931 -28.704222 10.752274
-34.319091 -31.770017 8.628941
-34.206834 -32.090676 9.709594
-34.659315 -30.285105 9.675554
-33.904703 -33.331524 7.645751
-34.319091 -31.770017 8.628941
-26.454278 -73.322555 15.963173
-26.634563 -72.10448 16.714859
-26.314898 -74.394047 15.173636
-26.454278 -73.322555 15.963173
-26.396273 -73.17065 14.620413
-25.973916 -49.554125 -8.071897
-26.315398 -48.080869 -8.28339
-29.105098 -63.697688 36.210702
-28.824458 -64.957561 35.602902
-28.883147 -64.660612 36.83774
-30.035739 -56.10811 45.179823
-30.129614 -54.897312 45.579641
-30.131068 -55.443147 44.507126
-30.035739 -56.10811 45.179823
-29.886959 -57.381878 44.817405
-29.075635 -61.873764 44.025122
-28.804257 -62.52907 44.649428
-29.073639 -62.38368 42.854626
-29.075635 -61.873764 44.025122
-29.328218 -61.127375 43.463278
-29.06057 -62.876858 41.750934
-28.807987 -63.623248 42.312778
-29.073639 -62.38368 42.854626
-29.023001 -63.381203 40.560041
-29.06057 -62.876858 41.750934
-29.288653 -62.141636 41.101889
-28.980355 -63.878579 39.352325
-28.752273 -64.6138 40.001371
-29.023001 -63.381203 40.560041
-28.883147 -64.660612 36.83774
-28.656067 -65.515831 37.511797
-28.936708 -64.255957 38.119598
-30.892075 -23.048907 30.902824
-30.793805 -24.761145 31.00369
-31.198572 -22.817366 29.967112
-30.892075 -23.048907 30.902824
-31.016799 -21.363582 30.816871
-31.473633 -19.373584 29.784343
-31.150907 -19.625349 30.685008
-31.301244 -17.866893 30.588192
-26.344906 -65.660736 9.080234
-26.279008 -66.899922 9.558295
-26.508607 -65.769321 10.287533
-26.344906 -65.660736 9.080234
-26.392536 -64.409733 8.586001
-26.301792 -63.108883 6.957276
-26.508592 -63.172371 8.221782
-26.599816 -61.991924 7.816528
-25.998998 -64.166969 6.007271
-26.301792 -63.108883 6.957276
-26.090222 -62.986522 5.602018
-25.77271 -65.23605 5.217542
-25.998998 -64.166969 6.007271
-25.580009 -65.145614 3.949674
-25.77271 -65.23605 5.217542
-25.580009 -65.145614 3.949674
-25.606599 -63.844679 3.482858
-25.507632 -62.405241 1.907057
-25.710036 -62.589687 3.155637
-25.791898 -61.35018 2.748992
-25.507632 -62.405241 1.907057
-25.312431 -62.297081 0.759845
-25.176823 -59.252044 -2.22797
-25.015914 -60.562353 -1.910021
-25.362102 -59.531503 -1.097333
-25.176823 -59.252044 -2.22797
-25.311729 -57.982107 -2.607619
-25.168591 -55.943585 -5.141326
-24.924976 -57.351633 -4.87756
-25.344064 -56.33497 -4.063723
-25.415197 -54.513048 -5.390194
-25.168591 -55.943585 -5.141326
-25.720548 -53.124842 -5.590323
-25.415197 -54.513048 -5.390194
-25.893031 -53.538715 -4.527618
-26.042053 -51.678843 -5.775145
-25.720548 -53.124842 -5.590323
-26.416632 -50.261004 -5.905489
-26.042053 -51.678843 -5.775145
-26.572961 -50.73267 -4.85809
-26.737032 -48.930891 -6.108471
-26.206124 -49.877063 -7.025526
-26.416632 -50.261004 -5.905489
-34.356779 8.913083 27.082349
-34.192034 6.80793 27.343404
-34.527805 10.988932 26.759348
-34.653254 13.035839 26.476631
-34.752573 9.314296 26.07104
-34.356779 8.913083 27.082349
-34.527805 10.988932 26.759348
-35.163069 9.675238 25.050638
-34.992042 7.59939 25.373639
-34.752573 9.314296 26.07104
-35.163069 9.675238 25.050638
-35.29936 11.852999 24.77476
-35.260334 18.011042 24.686136
-34.877769 17.281937 25.79909
-35.635359 18.421869 23.65505
-36.001129 18.907471 22.574722
-35.531641 16.289702 24.084432
-35.260334 18.011042 24.686136
-35.635359 18.421869 23.65505
-35.790893 14.508192 23.427413
-35.415869 14.097365 24.4585
-35.531641 16.289702 24.084432
-35.790893 14.508192 23.427413
-36.181513 15.023581 22.369287
-36.976517 16.020311 20.063185
-37.05217 18.085487 19.667269
-27.019954 -71.047371 20.18078
-27.251403 -69.951298 20.987119
-26.949261 -71.013492 18.891827
-27.019954 -71.047371 20.18078
-27.052676 -69.818554 18.416163
-26.836886 -70.914863 17.544103
-26.949261 -71.013492 18.891827
-28.760635 -65.273144 34.3633
-28.538685 -66.236069 34.990338
-28.824458 -64.957561 35.602902
-28.483103 -65.994968 29.399428
-28.284151 -67.064178 29.937641
-28.55731 -65.835567 30.651553
-28.378923 -66.214443 28.174841
-28.483103 -65.994968 29.399428
-28.652082 -64.985832 28.888753
-28.293287 -66.352898 26.938754
-28.124307 -67.362033 27.44943
-28.378923 -66.214443 28.174841
-28.100663 -66.50785 24.417467
-27.938933 -67.623767 24.988327
-28.200399 -66.384571 25.642483
-27.994733 -66.49126 23.154584
-28.100663 -66.50785 24.417467
-28.256199 -65.252064 23.80874
-27.895303 -66.466701 21.902034
-27.739767 -67.722488 22.510761
-27.994733 -66.49126 23.154584
-30.246309 -47.815989 45.200186
-30.297441 -48.977262 45.132193
-30.229458 -47.435299 44.420912
-30.246309 -47.815989 45.200186
-30.273473 -47.997219 43.853766
-30.229458 -47.435299 44.420912
-30.203509 -46.853495 42.452566
-30.260061 -47.648777 42.638827
-30.204614 -46.782429 41.601833
-30.203509 -46.853495 42.452566
-30.144311 -45.918322 42.08845
-30.068216 -44.76878 40.97637
-30.062546 -44.893341 41.909171
-29.985346 -43.814865 41.647824
-29.742487 -40.062134 39.855551
-29.715196 -40.250053 40.845662
-29.636716 -39.006203 40.533408
-29.744661 -30.769035 35.254218
-29.905597 -30.637743 34.332627
-29.741737 -32.387592 35.497611
-29.744661 -30.769035 35.254218
-29.878073 -33.717489 34.765816
-29.747609 -33.957811 35.697294
-29.741737 -32.387592 35.497611
-30.596816 -28.171337 31.251964
-30.674356 -26.441564 31.140751
-30.493191 -29.783613 31.444806
-30.596816 -28.171337 31.251964
-30.731324 -29.475803 30.520027
-30.432651 -31.31391 31.622882
-30.298142 -30.009443 32.354819
-30.493191 -29.783613 31.444806
-32.89854 -0.400148 29.660231
-33.271204 0.132854 28.778084
-32.708775 -2.489087 29.78971
-32.89854 -0.400148 29.660231
-32.523153 -4.443034 29.901791
-32.708775 -2.489087 29.78971
-32.892141 -4.036996 29.019863
-32.332964 -6.491848 30.008672
-32.523153 -4.443034 29.901791
-32.129897 -8.531633 30.134476
-32.332964 -6.491848 30.008672
-32.503452 -8.030728 29.257749
-31.937363 -10.438022 30.278253
-32.129897 -8.531633 30.134476
-32.126706 -11.934356 29.469313
-31.763685 -12.301865 30.364013
-31.937363 -10.438022 30.278253
-34.675686 -11.349951 23.105331
-34.512346 -9.630543 23.923114
-34.448896 -13.321414 23.181953
-34.675686 -11.349951 23.105331
-34.201622 -15.176521 23.361232
-34.052103 -13.545101 24.185132
-34.448896 -13.321414 23.181953
-34.376867 -16.690666 22.440416
-34.727516 -16.573614 21.436812
-34.505968 -18.311446 21.519174
-33.980074 -16.914352 23.443594
-34.201622 -15.176521 23.361232
-34.376867 -16.690666 22.440416
-34.090475 -25.145953 19.888168
-34.061523 -23.513047 20.833174
-34.354163 -23.381225 19.803047
-35.164898 -24.381037 15.791242
-35.263452 -22.623556 16.746533
-34.820465 -26.110491 15.909649
-35.164898 -24.381037 15.791242
-35.06123 -26.021498 14.771701
-33.463184 -34.847931 6.701992
-33.425092 -35.091995 7.719221
-33.904703 -33.331524 7.645751
-32.941067 -36.442043 5.653458
-33.463184 -34.847931 6.701992
-32.437451 -37.904358 4.714322
-32.479957 -38.070717 5.836327
-32.941067 -36.442043 5.653458
-32.360754 -37.676595 3.558257
-32.274581 -37.491672 2.364574
-31.899644 -39.305269 3.741125
-32.437451 -37.904358 4.714322
-32.360754 -37.676595 3.558257
-30.84289 -39.594684 -1.833302
-30.985594 -39.865028 -0.717041
-31.449186 -38.282391 -0.919784
-30.187668 -40.927043 -2.754968
-30.84289 -39.594684 -1.833302
-30.65126 -39.344406 -2.95771
-30.074562 -38.368384 -6.202078
-30.301459 -38.699417 -5.060567
-29.369639 -39.619912 -7.10039
-30.074562 -38.368384 -6.202078
-29.817197 -38.057436 -7.272832
-29.038942 -36.890268 -10.311749
-29.323172 -37.259355 -9.31567
-28.30338 -38.090082 -11.127119
-29.038942 -36.890268 -10.311749
-28.75134 -36.514385 -11.230809
-27.28804 -38.812683 -12.863218
-26.849765 -40.332979 -12.800342
-27.577504 -39.234495 -11.983304
-26.896593 -38.481701 -13.857637
-27.28804 -38.812683 -12.863218
-27.624332 -37.383217 -13.040599
-26.543226 -38.105362 -14.742667
-26.896593 -38.481701 -13.857637
-27.572693 -35.606659 -14.210902
-27.959918 -35.948323 -13.257862
-26.882899 -36.616478 -14.908877
-27.572693 -35.606659 -14.210902
-27.222707 -35.170902 -15.084761
-26.19324 -37.669605 -15.616526
-26.543226 -38.105362 -14.742667
-26.882899 -36.616478 -14.908877
-25.873261 -37.123005 -16.443086
-26.19324 -37.669605 -15.616526
-25.489974 -36.747509 -17.260209
-25.873261 -37.123005 -16.443086
-26.149625 -35.805225 -16.599858
-25.12021 -36.26638 -18.059559
-25.489974 -36.747509 -17.260209
-26.004538 -34.144887 -17.618139
-26.443458 -34.429516 -16.785818
-25.369917 -35.053039 -18.183778
-26.004538 -34.144887 -17.618139
-25.12021 -36.26638 -18.059559
-25.369917 -35.053039 -18.183778
-26.338389 -70.674023 12.245012
-26.476391 -70.840194 13.542862
-26.504875 -69.64291 13.073963
-26.214319 -69.433243 10.501171
-26.404791 -68.242622 11.270854
-26.252237 -68.199128 9.995912
-26.219843 -70.65892 11.004405
-26.214319 -69.433243 10.501171
-26.06729 -70.615426 9.729463
-26.338389 -70.674023 12.245012
-26.219843 -70.65892 11.004405
3 340 86 341
3 342 341 84
3 340 341 342
3 343 84 344
3 345 344 87
3 343 344 345
3 0 91 89
3 0 93 91
3 346 95 347
3 348 347 94
3 346 347 348
3 2 98 96
3 2 100 98
3 350 349 101
3 351 94 352
3 3 104 102
3 3 106 104
3 1 110 108
3 4 353 355
3 355 354 111
3 353 354 355
3 4 356 358
3 356 112 357
3 356 357 358
3 5 115 113
3 7 118 116
3 7 120 118
3 5 123 121
3 5 113 123
3 359 126 360
3 359 360 361
3 8 129 127
3 9 132 130
3 9 134 132
3 9 136 134
3 10 139 137
3 10 141 139
3 11 362 363
3 11 364 365
3 6 144 142
3 12 147 145
3 12 149 147
3 12 151 149
3 13 154 152
3 13 156 154
3 366 158 367
3 14 161 159
3 14 163 161
3 15 166 164
3 15 168 166
3 15 170 168
3 16 173 171
3 16 175 173
3 368 178 369
3 370 369 176
3 368 369 370
3 371 180 372
3 373 372 178
3 371 372 373
3 374 182 375
3 17 185 183
3 17 187 185
3 17 189 187
3 18 192 190
3 20 193 85
3 20 194 193
3 376 195 377
3 18 196 88
3 18 190 196
3 22 199 197
3 24 200 90
3 24 201 200
3 24 203 201
3 26 204 92
3 26 205 204
3 27 378 379
3 27 380 381
3 28 208 206
3 30 209 97
3 30 210 209
3 30 212 210
3 32 213 99
3 32 214 213
3 383 382 215
3 384 217 385
3 386 218 387
3 388 387 217
3 386 387 388
3 34 221 219
3 36 222 103
3 36 223 222
3 36 225 223
3 38 226 105
3 38 227 226
3 39 389 391
3 389 228 390
3 389 390 391
3 392 229 393
3 394 393 107
3 392 393 394
3 396 395 229
3 398 397 109
3 42 399 400
3 43 401 402
3 43 403 404
3 44 232 230
3 46 233 114
3 46 234 233
3 19 235 191
3 47 236 117
3 47 237 236
3 47 238 237
3 48 239 119
3 48 240 239
3 21 405 406
3 49 407 409
3 409 408 122
3 407 408 409
3 49 410 411
3 49 412 414
3 412 241 413
3 412 413 414
3 44 242 124
3 44 230 242
3 415 243 416
3 415 416 417
3 50 244 125
3 50 245 244
3 51 248 246
3 53 249 128
3 53 418 420
3 420 419 249
3 418 419 420
3 23 250 198
3 54 251 131
3 54 252 251
3 54 421 423
3 423 422 252
3 421 422 423
3 55 424 426
3 426 425 133
3 424 425 426
3 55 427 428
3 55 429 430
3 56 431 433
3 433 432 135
3 431 432 433
3 56 434 436
3 434 253 435
3 434 435 436
3 25 254 202
3 57 255 138
3 57 256 255
3 57 257 256
3 58 258 140
3 58 259 258
3 59 437 439
3 437 260 438
3 437 438 439
3 59 440 442
3 442 441 260
3 440 441 442
3 60 443 445
3 443 261 444
3 443 444 445
3 60 446 448
3 448 447 261
3 446 447 448
3 60 449 450
3 61 451 453
3 451 262 452
3 451 452 453
3 61 263 262
3 45 264 231
3 62 265 143
3 62 266 265
3 29 267 207
3 63 268 146
3 63 269 268
3 63 270 269
3 64 271 148
3 64 272 271
3 64 273 272
3 65 274 150
3 65 275 274
3 31 276 211
3 66 277 153
3 66 278 277
3 66 279 278
3 67 280 155
3 67 281 280
3 454 282 455
3 68 283 157
3 68 284 283
3 33 285 216
3 69 286 160
3 69 287 286
3 69 288 287
3 70 289 162
3 70 290 289
3 71 456 458
3 456 291 457
3 456 457 458
3 71 292 291
3 35 293 220
3 72 294 165
3 72 295 294
3 72 296 295
3 73 297 167
3 73 298 297
3 73 299 298
3 74 300 169
3 74 301 300
3 37 302 224
3 75 303 172
3 75 304 303
3 75 305 304
3 76 306 174
3 76 307 306
3 40 459 461
3 459 308 460
3 459 460 461
3 77 309 177
3 77 310 309
3 77 311 310
3 78 312 179
3 78 313 312
3 462 314 463
3 462 463 464
3 465 315 466
3 467 466 314
3 465 466 467
3 468 316 469
3 470 469 315
3 468 469 470
3 79 317 181
3 79 318 317
3 41 471 473
3 471 319 472
3 471 472 473
3 80 320 184
3 80 321 320
3 80 322 321
3 81 323 186
3 81 324 323
3 81 325 324
3 82 326 188
3 82 327 326
3 83 474 476
3 474 328 475
3 474 475 476
3 83 329 328
3 83 330 329
3 477 331 478
3 479 332 480
3 481 480 331
3 479 480 481
3 482 333 483
3 484 334 485
3 486 485 333
3 484 485 486
3 487 335 488
3 489 336 490
3 491 490 335
3 489 490 491
3 492 337 493
3 494 338 495
3 496 495 337
3 494 495 496
3 52 339 247
3 84 85 18
3 86 85 84
3 86 20 85
3 87 497 499
3 497 88 498
3 497 498 499
3 84 88 87
3 84 18 88
3 89 90 22
3 91 90 89
3 91 24 90
3 91 92 24
3 93 92 91
3 93 26 92
3 94 500 501
3 95 502 504
3 504 503 94
3 502 503 504
3 95 505 507
3 505 27 506
3 505 506 507
3 96 97 28
3 98 97 96
3 98 30 97
3 98 99 30
3 100 99 98
3 100 32 99
3 101 508 509
3 511 510 101
3 94 512 513
3 94 514 515
3 102 103 34
3 104 103 102
3 104 36 103
3 104 105 36
3 106 105 104
3 106 38 105
3 516 107 517
3 518 517 39
3 516 517 518
3 519 107 520
3 522 521 107
3 108 523 525
3 523 109 524
3 523 524 525
3 110 109 108
3 110 526 528
3 528 527 109
3 526 527 528
3 111 529 531
3 531 530 42
3 529 530 531
3 533 532 111
3 112 534 535
3 112 536 538
3 536 43 537
3 536 537 538
3 113 114 44
3 115 114 113
3 115 46 114
3 116 117 19
3 118 117 116
3 118 47 117
3 118 119 47
3 120 119 118
3 120 48 119
3 121 122 21
3 123 122 121
3 123 49 122
3 123 124 49
3 113 124 123
3 113 44 124
3 539 125 540
3 539 540 541
3 126 542 544
3 542 125 543
3 542 543 544
3 126 50 125
3 127 128 51
3 129 128 127
3 129 53 128
3 130 131 23
3 132 131 130
3 132 54 131
3 132 133 54
3 134 133 132
3 134 55 133
3 134 135 55
3 136 135 134
3 136 56 135
3 137 138 25
3 139 138 137
3 139 57 138
3 139 140 57
3 141 140 139
3 141 58 140
3 545 59 546
3 547 60 548
3 550 549 60
3 551 61 552
3 142 143 45
3 144 143 142
3 144 62 143
3 145 146 29
3 147 146 145
3 147 63 146
3 147 148 63
3 149 148 147
3 149 64 148
3 149 150 64
3 151 150 149
3 151 65 150
3 152 153 31
3 154 153 152
3 154 66 153
3 154 155 66
3 156 155 154
3 156 67 155
3 553 157 554
3 158 555 557
3 555 157 556
3 555 556 557
3 158 68 157
3 159 160 33
3 161 160 159
3 161 69 160
3 161 162 69
3 163 162 161
3 163 70 162
3 558 71 559
3 164 165 35
3 166 165 164
3 166 72 165
3 166 167 72
3 168 167 166
3 168 73 167
3 168 169 73
3 170 169 168
3 170 74 169
3 171 172 37
3 173 172 171
3 173 75 172
3 173 174 75
3 175 174 173
3 175 76 174
3 176 177 40
3 178 177 176
3 178 77 177
3 178 179 77
3 180 179 178
3 180 78 179
3 560 181 561
3 560 561 562
3 182 563 565
3 563 181 564
3 563 564 565
3 182 79 181
3 183 184 41
3 185 184 183
3 185 80 184
3 185 186 80
3 187 186 185
3 187 81 186
3 187 188 81
3 189 188 187
3 189 82 188
3 566 83 567
3 569 568 83
3 571 570 52
3 190 191 5
3 192 191 190
3 192 19 191
3 85 192 18
3 193 192 85
3 193 19 192
3 193 116 19
3 194 116 193
3 194 7 116
3 195 572 573
3 195 574 576
3 574 21 575
3 574 575 576
3 88 577 579
3 577 195 578
3 577 578 579
3 196 195 88
3 196 21 195
3 196 121 21
3 190 121 196
3 190 5 121
3 197 198 8
3 199 198 197
3 199 23 198
3 90 199 22
3 200 199 90
3 200 23 199
3 200 130 23
3 201 130 200
3 201 9 130
3 201 202 9
3 203 202 201
3 203 25 202
3 92 203 24
3 204 203 92
3 204 25 203
3 204 137 25
3 205 137 204
3 205 10 137
3 580 11 581
3 206 207 6
3 208 207 206
3 208 29 207
3 97 208 28
3 209 208 97
3 209 29 208
3 209 145 29
3 210 145 209
3 210 12 145
3 210 211 12
3 212 211 210
3 212 31 211
3 99 212 30
3 213 212 99
3 213 31 212
3 213 152 31
3 214 152 213
3 214 13 152
3 215 582 583
3 585 584 215
3 586 216 587
3 588 216 589
3 590 33 591
3 592 591 216
3 590 591 592
3 217 593 594
3 217 595 597
3 595 33 596
3 595 596 597
3 217 159 33
3 218 159 217
3 218 14 159
3 219 598 600
3 598 220 599
3 598 599 600
3 221 220 219
3 221 35 220
3 103 221 34
3 222 221 103
3 222 35 221
3 222 164 35
3 223 164 222
3 223 15 164
3 223 224 15
3 225 224 223
3 225 37 224
3 105 225 36
3 226 225 105
3 226 37 225
3 226 171 37
3 227 171 226
3 227 16 171
3 228 601 602
3 228 603 605
3 603 40 604
3 603 604 605
3 107 228 39
3 229 228 107
3 229 40 228
3 229 176 40
3 606 176 607
3 608 607 229
3 606 607 608
3 610 609 176
3 611 41 612
3 613 41 614
3 615 183 616
3 617 616 41
3 615 616 617
3 618 183 619
3 620 17 621
3 622 621 183
3 620 621 622
3 624 623 17
3 109 625 626
3 629 628 109
3 627 628 629
3 631 630 42
3 230 632 634
3 632 231 633
3 632 633 634
3 232 231 230
3 232 45 231
3 114 232 44
3 233 232 114
3 233 45 232
3 233 142 45
3 234 142 233
3 234 6 142
3 191 115 5
3 235 115 191
3 235 46 115
3 117 235 19
3 236 235 117
3 236 46 235
3 236 234 46
3 237 234 236
3 237 6 234
3 237 206 6
3 238 206 237
3 238 28 206
3 119 238 47
3 239 238 119
3 239 28 238
3 239 96 28
3 240 96 239
3 240 2 96
3 122 635 637
3 637 636 21
3 635 636 637
3 639 638 122
3 640 215 641
3 241 642 644
3 642 215 643
3 642 643 644
3 241 645 647
3 647 646 215
3 645 646 647
3 124 241 49
3 242 241 124
3 242 648 650
3 650 649 241
3 648 649 650
3 242 651 653
3 651 101 652
3 651 652 653
3 230 101 242
3 230 654 656
3 656 655 101
3 654 655 656
3 657 219 658
3 243 659 661
3 659 219 660
3 659 660 661
3 243 34 219
3 125 662 664
3 662 243 663
3 662 663 664
3 244 243 125
3 244 34 243
3 244 102 34
3 245 102 244
3 245 3 102
3 246 247 1
3 248 247 246
3 248 52 247
3 128 248 51
3 249 248 128
3 249 52 248
3 249 665 667
3 667 666 52
3 665 666 667
3 669 668 249
3 198 129 8
3 250 129 198
3 250 53 129
3 131 250 23
3 251 250 131
3 251 53 250
3 251 670 672
3 672 671 53
3 670 671 672
3 252 673 675
3 675 674 251
3 673 674 675
3 252 676 677
3 252 678 679
3 681 680 252
3 133 682 684
3 684 683 54
3 682 683 684
3 686 685 133
3 135 687 689
3 689 688 55
3 687 688 689
3 691 690 135
3 253 692 694
3 692 693 694
3 253 695 696
3 202 136 9
3 254 136 202
3 254 56 136
3 138 254 25
3 255 254 138
3 255 56 254
3 255 253 56
3 256 253 255
3 256 697 699
3 699 698 253
3 697 698 699
3 256 700 701
3 257 702 704
3 704 703 256
3 702 703 704
3 257 705 707
3 705 42 706
3 705 706 707
3 140 257 57
3 258 257 140
3 258 42 257
3 258 111 42
3 259 111 258
3 259 4 111
3 708 39 709
3 260 710 711
3 260 712 714
3 712 39 713
3 712 713 714
3 260 715 717
3 717 716 39
3 715 716 717
3 719 718 260
3 720 59 721
3 261 722 723
3 261 724 726
3 724 59 725
3 724 725 726
3 261 727 729
3 729 728 59
3 727 728 729
3 731 730 261
3 733 732 60
3 262 734 735
3 262 736 737
3 262 738 740
3 738 108 739
3 738 739 740
3 263 108 262
3 263 1 108
3 231 741 743
3 741 95 742
3 741 742 743
3 264 95 231
3 264 27 95
3 143 264 45
3 265 264 143
3 265 27 264
3 265 744 746
3 746 745 27
3 744 745 746
3 266 747 749
3 749 748 265
3 747 748 749
3 266 750 752
3 750 11 751
3 750 751 752
3 207 144 6
3 267 144 207
3 267 62 144
3 146 267 29
3 268 267 146
3 268 62 267
3 268 266 62
3 269 266 268
3 269 11 266
3 269 753 755
3 755 754 11
3 753 754 755
3 270 756 758
3 758 757 269
3 756 757 758
3 270 759 761
3 759 61 760
3 759 760 761
3 148 270 63
3 271 270 148
3 271 61 270
3 271 263 61
3 272 263 271
3 272 1 263
3 272 246 1
3 273 246 272
3 273 51 246
3 150 273 64
3 274 273 150
3 274 51 273
3 274 127 51
3 275 127 274
3 275 8 127
3 211 151 12
3 276 151 211
3 276 65 151
3 153 276 31
3 277 276 153
3 277 65 276
3 277 275 65
3 278 275 277
3 278 8 275
3 278 197 8
3 279 197 278
3 279 22 197
3 155 279 66
3 280 279 155
3 280 22 279
3 280 89 22
3 281 89 280
3 281 0 89
3 762 87 763
3 764 87 765
3 767 766 87
3 768 86 769
3 282 770 772
3 770 86 771
3 770 771 772
3 282 20 86
3 157 773 775
3 773 282 774
3 773 774 775
3 283 282 157
3 283 20 282
3 283 194 20
3 284 194 283
3 284 7 194
3 216 776 778
3 776 158 777
3 776 777 778
3 285 158 216
3 285 68 158
3 160 285 33
3 286 285 160
3 286 68 285
3 286 284 68
3 287 284 286
3 287 7 284
3 287 120 7
3 288 120 287
3 288 48 120
3 162 288 69
3 289 288 162
3 289 48 288
3 289 240 48
3 290 240 289
3 290 2 240
3 291 779 780
3 291 781 782
3 291 783 785
3 783 218 784
3 783 784 785
3 292 218 291
3 292 14 218
3 220 786 787
3 293 788 790
3 790 789 220
3 788 789 790
3 293 791 793
3 791 71 792
3 791 792 793
3 165 293 35
3 294 293 165
3 294 71 293
3 294 292 71
3 295 292 294
3 295 14 292
3 295 163 14
3 296 163 295
3 296 70 163
3 167 296 72
3 297 296 167
3 297 70 296
3 297 290 70
3 298 290 297
3 298 2 290
3 298 100 2
3 299 100 298
3 299 32 100
3 169 299 73
3 300 299 169
3 300 32 299
3 300 214 32
3 301 214 300
3 301 13 214
3 224 170 15
3 302 170 224
3 302 74 170
3 172 302 37
3 303 302 172
3 303 74 302
3 303 301 74
3 304 301 303
3 304 13 301
3 304 156 13
3 305 156 304
3 305 67 156
3 174 305 75
3 306 305 174
3 306 67 305
3 306 281 67
3 307 281 306
3 307 0 281
3 308 794 795
3 308 796 797
3 177 308 40
3 309 308 177
3 309 798 800
3 800 799 308
3 798 799 800
3 309 801 802
3 310 803 805
3 805 804 309
3 803 804 805
3 310 806 807
3 310 808 810
3 808 126 809
3 808 809 810
3 311 126 310
3 311 50 126
3 179 311 77
3 312 311 179
3 312 50 311
3 312 245 50
3 313 245 312
3 313 3 245
3 811 180 812
3 813 180 814
3 815 78 816
3 817 816 180
3 815 816 817
3 314 818 820
3 818 819 820
3 314 821 823
3 821 78 822
3 821 822 823
3 314 313 78
3 315 313 314
3 315 3 313
3 315 106 3
3 316 106 315
3 316 38 106
3 181 824 826
3 824 316 825
3 824 825 826
3 317 316 181
3 317 38 316
3 317 227 38
3 318 227 317
3 318 16 227
3 827 182 828
3 319 829 831
3 829 182 830
3 829 830 831
3 319 79 182
3 184 319 41
3 320 319 184
3 320 79 319
3 320 318 79
3 321 318 320
3 321 16 318
3 321 175 16
3 322 175 321
3 322 76 175
3 186 322 80
3 323 322 186
3 323 76 322
3 323 307 76
3 324 307 323
3 324 0 307
3 324 93 0
3 325 93 324
3 325 26 93
3 188 325 81
3 326 325 188
3 326 26 325
3 326 205 26
3 327 205 326
3 327 10 205
3 832 189 833
3 834 833 17
3 832 833 834
3 835 189 836
3 837 82 838
3 839 838 189
3 837 838 839
3 328 840 841
3 328 842 844
3 842 82 843
3 842 843 844
3 328 327 82
3 329 327 328
3 329 10 327
3 329 141 10
3 330 141 329
3 330 58 141
3 845 330 846
3 847 846 83
3 845 846 847
3 331 848 850
3 848 330 849
3 848 849 850
3 331 58 330
3 331 259 58
3 332 259 331
3 332 4 259
3 851 332 852
3 333 853 855
3 853 332 854
3 853 854 855
3 333 4 332
3 333 112 4
3 334 112 333
3 334 43 112
3 856 334 857
3 335 858 860
3 858 334 859
3 858 859 860
3 335 43 334
3 335 861 863
3 863 862 43
3 861 862 863
3 336 864 866
3 866 865 335
3 864 865 866
3 336 867 868
3 869 336 870
3 337 871 873
3 871 336 872
3 871 872 873
3 337 874 876
3 876 875 336
3 874 875 876
3 337 877 878
3 338 879 881
3 881 880 337
3 879 880 881
3 338 882 883
3 884 338 885
3 886 338 887
3 889 888 338
3 247 110 1
3 339 110 247
3 339 890 892
3 892 891 110
3 890 891 892
3 893 339 894
3 895 894 52
3 893 894 895
3 896 339 897
3 896 897 898
3 900 899 339
