ply
format ascii 1.0
element vertex 780
property float x
property float y
property float z
element face 792
property list uchar int vertex_index
end_header
-40.820976 -9.411622 -30.364738
-37.867306 -38.525963 0.187868
-35.71254 5.955745 -33.671429
-39.779053 -25.106714 -17.441034
-35.921806 -44.491837 -14.046764
-41.312664 -16.522045 -31.491121
-32.633911 -50.569016 -3.970092
-36.837421 -41.816082 -6.944328
-39.099323 -34.481323 -16.320889
-38.772934 -32.823277 -8.968333
-35.62368 12.578288 -43.489056
-38.858257 -38.903675 -29.740751
-39.240383 -2.015003 -32.002193
-40.527443 -16.775082 -24.837408
-38.937374 -36.599796 -22.968935
-40.655594 -25.933966 -24.456884
-41.174511 -12.364612 -31.03838
-35.757294 -44.558929 -1.951735
-37.423813 -40.172501 -3.309194
-38.25045 -37.085232 -8.223651
-38.298588 -35.848331 -4.579336
-34.211594 -47.832447 -9.159435
-33.832214 -49.320915 -12.608516
-37.413296 -42.127773 -21.932085
-37.543755 -40.719856 -18.61953
-39.779675 -29.787827 -17.048817
-39.980728 -30.398254 -20.523865
-40.396767 -25.486475 -21.122086
-40.813183 -21.144676 -24.750761
-40.201416 -20.77276 -21.400639
-37.71714 2.026229 -32.794827
-37.850533 5.252274 -37.116966
-41.228054 -21.500549 -31.502493
-33.5858 -48.834354 -0.366076
-34.907173 -46.225273 -5.611024
-36.298855 -43.207577 -10.48603
-37.732578 -39.569622 -15.190671
-38.003696 -38.410576 -11.715071
-39.029964 -33.680386 -12.625997
-39.279537 -28.988869 -13.305013
-35.81068 9.522044 -38.487129
-32.952892 16.664684 -45.039085
-40.015949 -8.907515 -27.957867
-40.271809 -6.003226 -31.156153
-38.908882 -5.160671 -28.373888
-37.252541 -1.478537 -28.588411
-38.17207 -36.546329 3.638548
-38.179752 -34.252388 -1.088033
-38.25008 -31.6614 -5.29475
-38.43895 -28.256704 -9.744741
-39.7216 -12.54559 -24.757908
-40.730236 -12.592896 -27.970728
-38.935661 -37.631031 -26.384974
-39.037483 -35.415951 -19.683119
-40.044807 -31.139103 -23.938705
-40.770954 -26.527296 -27.83823
-41.081215 -21.365959 -28.067022
-41.08601 -16.555708 -28.264498
-40.433952 -3.765021 -34.538658
-41.007378 -10.615383 -30.674248
-41.120228 -10.233159 -32.086143
-40.922916 -8.832008 -31.568371
-37.35939 -40.683449 1.081506
-37.00853 -41.595707 -0.728382
-37.649948 -39.423054 -1.482701
-37.970013 -37.983379 -3.912624
-38.085239 -37.162586 -2.185062
-35.083755 -46.177391 -11.608525
-33.947487 -48.668701 -10.916031
-34.85994 -46.992928 -13.231608
-34.744446 -47.742161 -14.988701
-35.724926 -45.328278 -15.586422
-36.567497 -43.562798 -17.893488
-36.752281 -42.669315 -16.397671
-39.876022 -27.361605 -17.312048
-40.119289 -27.571556 -19.183876
-40.146278 -25.346004 -19.325855
-40.369179 -23.270765 -21.196177
-40.006676 -23.033178 -19.443058
-36.80022 4.049635 -33.293846
-37.852345 3.643771 -34.963711
-36.9188 5.703595 -35.494644
-41.294315 -18.936306 -31.471123
-32.951828 -50.003155 2.131161
-36.303894 -43.209198 -4.454928
-35.282276 -45.485676 -3.798261
-35.912544 -44.067715 -6.287361
-35.635113 -44.69384 -8.159985
-36.588806 -42.449215 -8.749285
-37.210102 -40.849243 -11.118021
-37.444736 -40.120644 -9.313884
-38.598507 -34.990582 -8.486881
-38.631302 -35.510231 -10.434476
-38.948002 -33.141628 -10.880483
-39.277145 -31.243759 -13.130168
-39.030315 -30.861397 -11.183345
-31.474077 18.379986 -45.410995
-32.485943 18.194319 -47.61813
-30.929216 19.993189 -48.09679
-39.292267 -8.756786 -26.373749
-39.468349 -7.03804 -28.043955
-38.621994 -6.817647 -26.51235
-38.565926 -26.461493 -11.808835
-39.135464 -10.608086 -24.744057
-39.870163 -10.705076 -26.336912
-34.553684 -49.537491 -18.354401
-38.247631 -39.262615 -22.457726
-38.228558 -39.873413 -24.12993
-38.919601 -37.183895 -24.735695
-38.490231 -37.031258 -15.819268
-38.386166 -37.639942 -17.496233
-39.054104 -35.009518 -17.925163
-40.354725 -28.22187 -22.657505
-39.99921 -30.928967 -22.254335
-40.411339 -28.515963 -24.288286
-40.727318 -26.183292 -26.185152
-40.97039 -23.898647 -28.045895
-40.886749 -23.861727 -26.321857
-40.736206 -18.844652 -24.905783
-40.972786 -18.848156 -26.589046
-40.858849 -16.750599 -26.521662
-40.946201 -14.62976 -28.027925
-40.630192 -14.628054 -26.417492
-39.838665 -4.087892 -31.607931
-40.380497 -4.879296 -32.820217
-39.881004 -2.57876 -33.388493
-40.041492 -0.385984 -37.239525
-35.817028 10.984971 -40.881687
-36.886391 8.948271 -40.239307
-36.708614 10.580544 -42.867329
-41.183926 -9.684094 -33.676533
-35.181744 -45.899467 0.642654
-36.18988 -43.711334 -0.05016
-36.672794 -42.378674 -2.577644
-37.120266 -41.068733 -5.081028
-37.657276 -39.397552 -7.534966
-37.819023 -38.737278 -5.780557
-38.276016 -36.579334 -6.31727
-38.531639 -34.267433 -6.761098
-33.371758 -49.319794 -6.541561
-33.110058 -50.059345 -8.365663
-32.638969 -51.884476 -11.707279
-33.656586 -50.261898 -14.223347
-34.616089 -48.663845 -16.656553
-36.586319 -44.082321 -19.733736
-37.43219 -41.502953 -20.193161
-38.239151 -38.813126 -20.709389
-39.52507 -32.032898 -16.673525
-39.543465 -32.590382 -18.405993
-39.910553 -30.05533 -18.836763
-40.271141 -27.850731 -20.950897
-40.550198 -25.701841 -22.750759
-40.783512 -23.534643 -24.587158
-40.627037 -23.288458 -22.973886
-40.565262 -21.026518 -23.064417
-40.360996 -18.766733 -23.10384
-38.528267 -0.05176 -32.306358
-39.32312 -0.430967 -33.991886
-38.638462 1.549098 -34.373512
-38.687191 3.059661 -36.505051
-35.240433 14.158099 -46.117165
-36.531174 11.853601 -45.417568
-33.083813 -49.703667 -2.252878
-34.710976 -46.719021 -1.280718
-34.176121 -47.690128 -2.989429
-33.830898 -48.349693 -5.027009
-34.572868 -46.947254 -7.397263
-35.251614 -45.609264 -9.723648
-36.118298 -43.768158 -12.300981
-36.915844 -41.932598 -14.728037
-37.019772 -41.462837 -12.802624
-37.858475 -39.026073 -13.578707
-38.562504 -36.531918 -14.122203
-38.147678 -37.744129 -9.94874
-38.623959 -35.984604 -12.306733
-39.071243 -34.177593 -14.524824
-39.393406 -31.923349 -14.781062
-39.582939 -29.441599 -15.240396
-39.52401 -27.177286 -15.315208
-35.895779 7.668418 -36.067261
-34.641201 9.613635 -36.521893
-34.330482 14.684947 -44.262466
-33.898998 16.290949 -46.987915
-40.539391 -9.257705 -29.304991
-40.622204 -7.94486 -30.70755
-40.158463 -7.430519 -29.498936
-39.697853 -5.507413 -29.868782
-39.09882 -3.548468 -30.177135
-37.900776 -5.017299 -26.6768
-38.17041 -3.314109 -28.531826
-38.322792 -1.60382 -30.343061
-37.437901 0.400145 -30.614351
-37.939056 -38.648987 4.414774
-38.037354 -37.62748 1.976408
-38.17094 -35.503414 1.261124
-38.148598 -36.331856 -0.465143
-38.257637 -35.07354 -2.729342
-38.384407 -33.812096 -4.858406
-38.534039 -32.125648 -7.114637
-38.330078 -30.052082 -7.50838
-38.707951 -30.524525 -9.279259
-38.899025 -28.69298 -11.454278
-39.110508 -26.829546 -13.585605
-39.293777 -24.808441 -15.608929
-39.505417 -22.798731 -17.623236
-39.680096 -20.666029 -19.529444
-39.844807 -18.693981 -21.255749
-40.047607 -16.603752 -23.15229
-40.177887 -14.54721 -24.79561
-40.305733 -12.633281 -26.354979
-40.407566 -10.783236 -27.830948
-40.786682 -10.746344 -29.303556
-38.8979 -38.280758 -27.959051
-37.607506 -40.201641 -16.986078
-38.343235 -38.079079 -19.145021
-38.946274 -36.135803 -21.254572
-39.583752 -32.870499 -20.252985
-39.569202 -33.356373 -21.870478
-39.54174 -33.871662 -23.398979
-41.018707 -24.231546 -29.650208
-41.15152 -21.627409 -29.722044
-41.221493 -18.997854 -29.815321
-40.980839 -21.265554 -26.499134
-41.128559 -18.813101 -28.263247
-41.226852 -16.525692 -29.894974
-41.153229 -14.373395 -29.746855
-41.000385 -12.49432 -29.465664
-40.710163 -6.985559 -32.162888
-40.787731 -6.120586 -33.806702
-40.489208 -2.762019 -36.488548
-36.960201 7.395923 -37.922604
-37.926498 6.641074 -39.562843
-37.547523 9.646242 -44.612942
-41.34474 -16.552044 -32.331978
-41.335566 -17.759175 -32.321979
-41.303489 -17.729175 -31.481122
-30.660001 19.2305 -45.592554
-30.827665 18.399409 -44.236221
-30.387571 20.037102 -46.935451
-31.201647 19.186588 -46.753892
-30.660001 19.2305 -45.592554
-38.814468 -39.222158 -30.648735
-38.466217 -40.445879 -29.531328
-38.503475 -7.709229 -25.63946
-38.957131 -7.787216 -26.44305
-38.838611 -8.678798 -25.57016
-38.76021 -9.604449 -24.755314
-38.68005 -10.592088 -23.909359
-38.838611 -8.678798 -25.57016
-39.213865 -9.682436 -25.558903
-38.76021 -9.604449 -24.755314
-32.042501 -51.63999 -3.599006
-32.244991 -51.217373 -2.66468
-34.528087 -49.980312 -19.188247
-35.064657 -48.545004 -19.514173
-39.22789 -35.505733 -23.982064
-39.219003 -35.797783 -24.865444
-38.928488 -36.891846 -23.852315
-41.218878 -12.194288 -31.818339
-41.22344 -13.299995 -31.190517
-41.091334 -8.926146 -33.360426
-41.152077 -9.958627 -32.881338
-41.059484 -9.200679 -32.565231
-41.11528 -8.585767 -34.175384
-41.091334 -8.926146 -33.360426
-36.416199 -43.240002 0.798146
-35.953199 -44.326729 1.22039
-33.347187 -50.121935 -11.341365
-33.404824 -49.795828 -10.495123
-33.889851 -48.994808 -11.762273
-33.235591 -50.602695 -12.157898
-32.750565 -51.403716 -10.890746
-33.347187 -50.121935 -11.341365
-35.148812 -47.323536 -17.035868
-34.680267 -48.203003 -15.822627
-35.21299 -46.862694 -16.201943
-35.100212 -47.753057 -17.831882
-35.148812 -47.323536 -17.035868
-36.133927 -45.032774 -18.57446
-36.085327 -45.462295 -19.370474
-38.275904 4.862747 -37.932926
-38.694233 3.76644 -37.626969
-38.268862 4.155968 -36.811008
-35.655404 13.727266 -47.08371
-34.979233 14.909737 -47.522147
-41.257464 -21.536371 -32.352263
-41.158972 -22.841979 -31.472496
-33.012415 -49.835456 -0.049428
-32.695429 -50.419857 1.199191
-33.268814 -49.418754 0.882543
-33.334806 -49.269011 -1.309477
-32.761421 -50.270113 -0.992829
-33.012415 -49.835456 -0.049428
-33.955435 9.519502 -35.43618
-34.591043 8.698684 -35.309042
-33.083068 15.860439 -43.703642
-32.340154 16.700446 -43.840305
-33.641687 15.674816 -44.650776
-33.771864 14.87057 -43.315332
-33.083068 15.860439 -43.703642
-32.927049 17.937544 -48.628519
-32.185726 18.906807 -48.948679
-37.3046 -5.064802 -25.752382
-37.767078 -5.907489 -25.777047
-37.711475 -2.396323 -28.560119
-37.584192 -3.248836 -27.649415
-37.125258 -2.331049 -27.677708
-38.055563 -37.597658 4.026661
-38.058689 -38.027502 5.262484
-38.175196 -36.976173 4.874371
-38.175346 -34.877901 0.086545
-38.112099 -34.429811 0.946103
-38.116505 -33.804299 -0.228475
-38.317244 -32.736748 -5.076578
-38.290789 -33.376528 -4.045849
-38.223625 -32.30118 -4.264021
-38.384514 -29.154393 -8.626561
-38.121885 -28.977031 -7.750929
-38.176321 -28.079342 -8.869109
-38.906498 -25.765982 -13.640201
-38.838217 -26.645519 -12.69722
-38.634207 -25.581955 -12.751817
-38.998132 -24.755429 -14.651864
-39.202143 -25.818993 -14.597267
-38.906498 -25.765982 -13.640201
-39.262014 -21.706549 -17.630655
-39.188769 -22.716745 -16.702166
-39.349354 -20.640198 -18.583759
-39.592757 -21.73238 -18.57634
-39.262014 -21.706549 -17.630655
-39.627772 -17.638447 -21.310714
-39.511042 -18.637048 -20.351184
-39.729171 -16.593332 -22.258985
-39.946207 -17.648867 -22.20402
-39.627772 -17.638447 -21.310714
-39.653069 -13.542055 -23.941277
-39.349417 -12.549555 -23.924703
-39.949743 -13.5464 -24.776759
-39.881213 -14.542865 -23.960127
-39.653069 -13.542055 -23.941277
-37.414269 -42.407961 -22.724932
-36.978371 -43.482073 -21.670314
-38.547279 -39.144305 -26.03395
-38.193728 -40.265496 -24.906428
-38.58211 -38.752222 -25.257452
-38.916781 -37.955894 -27.172013
-38.528399 -39.469168 -26.820988
-38.547279 -39.144305 -26.03395
-39.24831 -36.431801 -27.403357
-39.229429 -36.756664 -28.190396
-38.916781 -37.955894 -27.172013
-40.051191 -31.33099 -24.740882
-39.799657 -32.69727 -24.47102
-39.793273 -32.505382 -23.668842
-40.613932 -27.924166 -27.689126
-40.616118 -27.643377 -26.926306
-40.787813 -26.700468 -28.666345
-40.613932 -27.924166 -27.689126
-40.89483 -25.379421 -28.744219
-40.911689 -25.552593 -29.572333
-40.787813 -26.700468 -28.666345
-40.626785 -4.460698 -35.084831
-40.803674 -5.63848 -34.718853
-40.610841 -4.942804 -34.17268
-39.655678 -0.945723 -34.639717
-39.379404 0.159384 -34.965961
-40.475329 -2.172731 -37.48321
-40.26535 -1.574002 -36.864036
-40.25147 -0.984714 -37.858698
-40.661184 -3.496134 -37.03124
-40.475329 -2.172731 -37.48321
-37.838915 7.439854 -40.785669
-37.406445 7.794672 -39.901075
-37.318861 8.593452 -41.123901
-38.309044 6.216208 -40.421818
-37.838915 7.439854 -40.785669
-37.371011 10.316072 -45.923001
-37.039349 10.749921 -45.015255
-36.862837 11.419752 -46.325314
-40.960829 -8.500103 -32.306345
-41.059484 -9.200679 -32.565231
-41.021572 -9.532584 -31.827257
-37.18396 -41.139578 0.176562
-36.825524 -42.182188 0.459035
-37.000953 -41.726059 1.36398
-35.70323 -45.655752 -16.500803
-35.21299 -46.862694 -16.201943
-35.234686 -46.535219 -15.287562
-36.146212 -44.445538 -16.739955
-36.124516 -44.773013 -17.654336
-35.70323 -45.655752 -16.500803
-41.325512 -18.973901 -32.31043
-41.292382 -20.256023 -32.326116
-41.261184 -20.218427 -31.486808
-41.325512 -18.973901 -32.31043
-41.335566 -17.759175 -32.321979
-33.306961 -49.430242 3.018077
-32.676277 -50.489256 3.454326
-33.541412 -48.959181 1.687461
-33.306961 -49.430242 3.018077
-33.858398 -48.37478 0.438843
-33.268814 -49.418754 0.882543
-33.541412 -48.959181 1.687461
-31.600747 17.558097 -44.02626
-30.954335 17.57752 -42.851486
-30.827665 18.399409 -44.236221
-32.213484 17.522335 -45.22504
-32.340154 16.700446 -43.840305
-31.600747 17.558097 -44.02626
-31.407362 19.806242 -49.188009
-32.185726 18.906807 -48.948679
-31.70758 19.093754 -47.85746
-36.610003 -1.380128 -27.766618
-37.125258 -2.331049 -27.677708
-36.788296 -0.503544 -28.773524
-36.610003 -1.380128 -27.766618
-38.218142 -35.939746 4.457662
-38.175196 -36.976173 4.874371
-38.072422 -33.204487 -1.350607
-38.116505 -33.804299 -0.228475
-38.009175 -32.756397 -0.491049
-38.188461 -33.596674 -2.160662
-38.072422 -33.204487 -1.350607
-38.078035 -31.285453 -4.48192
-38.223625 -32.30118 -4.264021
-38.191561 -27.198638 -9.893791
-38.176321 -28.079342 -8.869109
-38.255049 -26.301032 -10.925839
-38.502438 -27.359099 -10.776788
-38.191561 -27.198638 -9.893791
-38.259611 -25.367811 -11.864726
-38.255049 -26.301032 -10.925839
-38.634207 -25.581955 -12.751817
-38.259611 -25.367811 -11.864726
-39.056349 -11.580803 -23.917777
-38.68005 -10.592088 -23.909359
-39.428532 -11.576838 -24.750982
-39.349417 -12.549555 -23.924703
-39.056349 -11.580803 -23.917777
-33.997755 -50.895584 -17.960991
-34.026359 -50.450203 -17.151372
-33.997755 -50.895584 -17.960991
-34.528087 -49.980312 -19.188247
-39.228113 -36.014473 -25.755643
-39.236143 -36.238041 -26.580282
-38.927631 -37.407463 -25.560334
-39.228113 -36.014473 -25.755643
-39.219003 -35.797783 -24.865444
-40.43631 -28.637711 -25.151334
-40.253044 -29.949281 -24.976544
-40.228073 -29.827533 -24.113495
-40.594299 -27.471376 -26.099767
-40.43631 -28.637711 -25.151334
-40.569328 -27.349628 -25.236719
-40.749136 -26.355294 -27.011691
-40.616118 -27.643377 -26.926306
-40.594299 -27.471376 -26.099767
-39.742542 0.870632 -37.680132
-39.73859 0.181876 -36.589781
-40.022588 0.259626 -38.339012
-39.742542 0.870632 -37.680132
-40.25147 -0.984714 -37.858698
-40.022588 0.259626 -38.339012
-37.229973 9.409589 -42.437912
-37.318861 8.593452 -41.123901
-36.797503 9.764408 -41.553318
-41.330475 -15.422847 -32.202027
-41.292516 -15.378712 -31.416887
-41.191736 -11.128561 -32.34222
-41.218878 -12.194288 -31.818339
-41.147369 -11.298886 -31.562261
-41.223585 -10.854029 -33.137415
-41.191736 -11.128561 -32.34222
-41.152077 -9.958627 -32.881338
-41.252198 -10.720226 -33.926329
-41.223585 -10.854029 -33.137415
-41.207497 -9.450567 -34.545969
-41.252198 -10.720226 -33.926329
-41.207497 -9.450567 -34.545969
-41.11528 -8.585767 -34.175384
-35.449131 -45.420795 1.566796
-34.953465 -46.412558 1.857532
-35.685812 -44.805401 0.296247
-35.449131 -45.420795 1.566796
-35.953199 -44.326729 1.22039
-36.599205 -42.65352 -0.389271
-36.416199 -43.240002 0.798146
-36.825524 -42.182188 0.459035
-39.170209 -37.643541 -30.810372
-39.213446 -37.289451 -29.973745
-32.790398 -50.434279 -6.209188
-32.421475 -51.058889 -4.923453
-33.002834 -49.944405 -5.255826
-32.659548 -50.804054 -7.121239
-32.790398 -50.434279 -6.209188
-33.240908 -49.68957 -7.453612
-32.486206 -51.295189 -7.972466
-32.659548 -50.804054 -7.121239
-32.986109 -50.49115 -9.219938
-33.528773 -49.364023 -9.640847
-33.404824 -49.795828 -10.495123
-32.486206 -51.295189 -7.972466
-32.986109 -50.49115 -9.219938
-32.181024 -52.588259 -10.569872
-32.750565 -51.403716 -10.890746
-32.05892 -53.154246 -11.414265
-32.181024 -52.588259 -10.569872
-32.607912 -52.293087 -12.618354
-32.05892 -53.154246 -11.414265
-33.11672 -51.481798 -13.876389
-32.607912 -52.293087 -12.618354
-33.147778 -51.073187 -12.965313
-33.57781 -50.812407 -15.085845
-33.11672 -51.481798 -13.876389
-34.057562 -50.01338 -16.302448
-33.57781 -50.812407 -15.085845
-34.136337 -49.462872 -15.43995
-34.584886 -49.100668 -17.505477
-34.026359 -50.450203 -17.151372
-34.057562 -50.01338 -16.302448
-35.069009 -48.189881 -18.680806
-34.584886 -49.100668 -17.505477
-35.100212 -47.753057 -17.831882
-35.064657 -48.545004 -19.514173
-35.069009 -48.189881 -18.680806
-36.564883 -44.459346 -20.57114
-36.085327 -45.462295 -19.370474
-36.999808 -43.105047 -20.832911
-36.978371 -43.482073 -21.670314
-36.564883 -44.459346 -20.57114
-36.576908 -43.822559 -18.813612
-36.133927 -45.032774 -18.57446
-36.124516 -44.773013 -17.654336
-39.037075 1.149417 -35.156774
-39.379404 0.159384 -34.965961
-38.980791 0.559065 -34.182699
-39.061439 1.904698 -36.222544
-39.037075 1.149417 -35.156774
-38.662826 2.30438 -35.439281
-39.065392 2.593455 -37.312895
-39.061439 1.904698 -36.222544
-39.065392 2.593455 -37.312895
-38.694233 3.76644 -37.626969
-36.300774 12.575017 -46.733912
-35.885804 13.00585 -45.767367
-35.655404 13.727266 -47.08371
-36.862837 11.419752 -46.325314
-36.300774 12.575017 -46.733912
-41.257464 -21.536371 -32.352263
-41.292382 -20.256023 -32.326116
-41.34474 -16.552044 -32.331978
-41.330475 -15.422847 -32.202027
-32.3541 -50.999117 2.511519
-32.676277 -50.489256 3.454326
-32.3541 -50.999117 2.511519
-32.695429 -50.419857 1.199191
-32.469942 -50.784699 -1.806072
-32.761421 -50.270113 -0.992829
-32.858862 -50.136342 -3.111485
-32.244991 -51.217373 -2.66468
-32.469942 -50.784699 -1.806072
-34.656371 -46.907337 0.943208
-34.953465 -46.412558 1.857532
-34.420986 -47.317114 -0.018478
-34.656371 -46.907337 0.943208
-34.94636 -46.309244 -0.319032
-34.148388 -47.776687 -0.823397
-33.858398 -48.37478 0.438843
-34.420986 -47.317114 -0.018478
-35.218333 7.726076 -35.081726
-35.804159 6.812081 -34.869345
-35.126713 6.869739 -33.88381
-35.26849 8.641027 -36.294577
-35.218333 7.726076 -35.081726
-34.591043 8.698684 -35.309042
-34.021435 10.486877 -36.749496
-33.955435 9.519502 -35.43618
-34.641812 10.529879 -37.816975
-34.021435 10.486877 -36.749496
-35.226551 10.484084 -38.799593
-35.225941 9.567839 -37.504511
-34.641812 10.529879 -37.816975
-35.229725 11.215547 -39.996872
-35.813854 10.253507 -39.684408
-35.226551 10.484084 -38.799593
-35.157212 12.051494 -41.222014
-35.229725 11.215547 -39.996872
-35.060537 12.848153 -42.525698
-35.720354 11.78163 -42.185372
-35.157212 12.051494 -41.222014
-34.413939 13.901482 -42.912403
-33.771864 14.87057 -43.315332
-34.977081 13.631618 -43.875761
-35.060537 12.848153 -42.525698
-34.413939 13.901482 -42.912403
-34.308515 15.976162 -47.957521
-34.979233 14.909737 -47.522147
-34.569716 15.224524 -46.55254
-33.633577 16.985859 -48.313412
-33.19247 17.242634 -47.303022
-32.927049 17.937544 -48.628519
-34.308515 15.976162 -47.957521
-33.633577 16.985859 -48.313412
-37.223156 -41.223349 2.267399
-37.000953 -41.726059 1.36398
-37.51827 -40.169742 1.864641
-37.223156 -41.223349 2.267399
-37.772228 -39.090999 1.417822
-37.613348 -39.604706 0.634687
-37.51827 -40.169742 1.864641
-38.814468 -39.222158 -30.648735
-39.170209 -37.643541 -30.810372
-38.127688 -6.807663 -25.694822
-38.503475 -7.709229 -25.63946
-38.261385 -5.917473 -26.594575
-38.127688 -6.807663 -25.694822
-37.767078 -5.907489 -25.777047
-37.449375 -4.10043 -26.721902
-37.3046 -5.064802 -25.752382
-38.035593 -4.165704 -27.604313
-37.449375 -4.10043 -26.721902
-37.584192 -3.248836 -27.649415
-36.880976 0.435797 -29.786494
-37.345221 -0.539196 -29.601381
-36.788296 -0.503544 -28.773524
-36.973278 1.372666 -30.814534
-36.880976 0.435797 -29.786494
-37.112898 2.185707 -31.904772
-37.57752 1.213187 -31.704589
-36.973278 1.372666 -30.814534
-36.654438 3.197411 -32.154282
-37.25868 3.037932 -33.044337
-37.112898 2.185707 -31.904772
-36.140631 4.116779 -32.353878
-36.654438 3.197411 -32.154282
-35.59679 5.069835 -32.54267
-36.25638 5.00269 -33.482638
-36.140631 4.116779 -32.353878
-35.058293 5.934559 -32.747931
-35.59679 5.069835 -32.54267
-35.126713 6.869739 -33.88381
-35.058293 5.934559 -32.747931
-37.900913 -39.028335 5.675868
-38.058689 -38.027502 5.262484
-37.732042 -39.594229 4.798057
-37.900913 -39.028335 5.675868
-37.808104 -39.152512 3.531275
-37.732042 -39.594229 4.798057
-37.857253 -38.641758 2.312092
-37.808104 -39.152512 3.531275
-37.988205 -38.138233 3.195591
-37.95233 -38.076721 1.082138
-37.772228 -39.090999 1.417822
-37.857253 -38.641758 2.312092
-38.164748 -35.481668 3.283434
-38.218142 -35.939746 4.457662
-38.164183 -34.960211 2.094721
-38.112099 -34.429811 0.946103
-38.171505 -36.024872 2.449836
-38.164748 -35.481668 3.283434
-38.164183 -34.960211 2.094721
-38.227404 -34.00725 -2.981317
-38.218694 -34.662964 -1.908688
-38.188461 -33.596674 -2.160662
-38.321022 -34.442818 -3.793874
-38.227404 -34.00725 -2.981317
-38.290789 -33.376528 -4.045849
-38.068815 -30.585356 -5.54463
-38.078035 -31.285453 -4.48192
-38.108814 -29.780697 -6.651445
-38.121885 -28.977031 -7.750929
-38.290079 -30.856741 -6.401565
-38.068815 -30.585356 -5.54463
-38.108814 -29.780697 -6.651445
-39.082949 -23.721599 -15.695013
-38.998132 -24.755429 -14.651864
-39.399597 -23.803586 -16.616082
-39.082949 -23.721599 -15.695013
-39.188769 -22.716745 -16.702166
-39.428686 -19.623072 -19.488031
-39.349354 -20.640198 -18.583759
-39.762451 -19.680005 -20.392597
-39.428686 -19.623072 -19.488031
-39.511042 -18.637048 -20.351184
-39.816073 -15.571136 -23.138468
-39.729171 -16.593332 -22.258985
-40.112747 -15.575481 -23.97395
-39.816073 -15.571136 -23.138468
-39.881213 -14.542865 -23.960127
-32.042501 -51.63999 -3.599006
-32.421475 -51.058889 -4.923453
-38.513596 -40.054603 -28.663213
-38.466217 -40.445879 -29.531328
-37.8219 -41.28078 -23.823854
-37.414269 -42.407961 -22.724932
-37.820927 -41.000593 -23.031008
-37.8219 -41.28078 -23.823854
-38.193728 -40.265496 -24.906428
-38.533417 -39.743145 -27.772362
-38.528399 -39.469168 -26.820988
-38.878079 -38.592216 -28.849901
-38.513596 -40.054603 -28.663213
-38.533417 -39.743145 -27.772362
-39.233267 -36.977993 -29.082895
-39.213446 -37.289451 -29.973745
-38.878079 -38.592216 -28.849901
-39.233267 -36.977993 -29.082895
-39.229429 -36.756664 -28.190396
-39.24831 -36.431801 -27.403357
-39.236143 -36.238041 -26.580282
-39.530073 -34.141666 -24.197086
-39.22789 -35.505733 -23.982064
-39.239557 -35.235729 -23.183957
-39.530073 -34.141666 -24.197086
-39.799657 -32.69727 -24.47102
-40.051191 -31.33099 -24.740882
-40.253044 -29.949281 -24.976544
-41.054299 -24.207478 -30.546354
-40.911689 -25.552593 -29.572333
-41.12338 -22.866048 -30.576351
-41.158972 -22.841979 -31.472496
-41.054299 -24.207478 -30.546354
-41.249611 -15.380536 -30.618814
-41.292516 -15.378712 -31.416887
-41.269758 -16.523868 -30.693047
-41.212799 -14.304387 -30.544754
-41.249611 -15.380536 -30.618814
-41.190041 -15.449544 -29.820915
-41.16387 -13.369003 -30.392618
-41.22344 -13.299995 -31.190517
-41.212799 -14.304387 -30.544754
-40.854452 -7.576879 -32.603604
-40.960829 -8.500103 -32.306345
-40.81654 -7.908784 -31.86563
-40.893236 -7.144392 -33.425511
-40.854452 -7.576879 -32.603604
-40.748947 -6.553073 -32.984795
-40.917183 -6.804013 -34.240469
-40.893236 -7.144392 -33.425511
-40.917183 -6.804013 -34.240469
-40.803674 -5.63848 -34.718853
-39.934619 -2.01962 -34.33802
-39.602062 -1.504863 -33.69019
-39.655678 -0.945723 -34.639717
-40.211094 -2.61275 -34.913103
-40.157478 -3.17189 -33.963575
-39.934619 -2.01962 -34.33802
-40.014864 -0.923232 -36.263537
-39.73859 0.181876 -36.589781
-40.238721 -2.11125 -35.888048
-40.014864 -0.923232 -36.263537
-40.26535 -1.574002 -36.864036
-40.46158 -3.26352 -35.513603
-40.211094 -2.61275 -34.913103
-40.238721 -2.11125 -35.888048
-40.654413 -3.959197 -36.059776
-40.626785 -4.460698 -35.084831
-40.46158 -3.26352 -35.513603
-40.654413 -3.959197 -36.059776
-40.661184 -3.496134 -37.03124
-38.313887 5.557146 -39.155864
-38.275904 4.862747 -37.932926
-37.888515 5.946674 -38.339905
-38.313887 5.557146 -39.155864
-38.309044 6.216208 -40.421818
-37.649427 8.942438 -43.310719
-37.229973 9.409589 -42.437912
-37.128068 10.113393 -43.740135
-37.898435 9.000397 -45.411598
-37.371011 10.316072 -45.923001
-38.009659 8.447741 -44.17076
-37.898435 9.000397 -45.411598
-37.649427 8.942438 -43.310719
-38.009659 8.447741 -44.17076
-30.102617 20.849562 -48.315561
-30.387571 20.037102 -46.935451
-30.580275 20.758384 -49.51239
-30.102617 20.849562 -48.315561
-31.407362 19.806242 -49.188009
-30.580275 20.758384 -49.51239
3 0 61 59
3 1 64 62
3 1 66 64
3 4 69 67
3 4 71 69
3 4 73 71
3 3 76 74
3 3 78 76
3 2 81 79
3 5 233 235
3 235 234 82
3 233 234 235
3 7 86 84
3 7 88 86
3 7 90 88
3 9 93 91
3 9 95 93
3 236 96 237
3 238 98 239
3 240 239 96
3 238 239 240
3 11 241 242
3 243 101 244
3 245 244 99
3 243 244 245
3 246 103 247
3 248 99 249
3 250 249 103
3 248 249 250
3 6 251 252
3 254 253 105
3 14 108 106
3 14 255 257
3 257 256 108
3 255 256 257
3 8 111 109
3 15 114 112
3 15 115 114
3 15 117 115
3 13 120 118
3 13 122 120
3 12 125 123
3 10 129 127
3 16 258 259
3 260 130 261
3 262 261 60
3 260 261 262
3 264 263 130
3 265 132 266
3 18 133 63
3 18 134 133
3 18 136 134
3 20 137 65
3 20 138 137
3 21 140 139
3 22 267 269
3 269 268 68
3 267 268 269
3 22 270 272
3 270 141 271
3 270 271 272
3 22 142 141
3 273 143 274
3 275 274 70
3 273 274 275
3 277 276 143
3 278 144 279
3 24 145 72
3 24 146 145
3 25 149 147
3 27 150 75
3 27 151 150
3 27 153 151
3 29 154 77
3 29 155 154
3 30 158 156
3 31 159 80
3 31 280 282
3 282 281 159
3 280 281 282
3 284 283 160
3 32 285 286
3 33 287 289
3 289 288 83
3 287 288 289
3 33 290 292
3 290 162 291
3 290 291 292
3 17 163 131
3 34 164 85
3 34 165 164
3 34 166 165
3 35 167 87
3 35 168 167
3 35 170 168
3 37 171 89
3 37 172 171
3 19 173 135
3 38 174 92
3 38 175 174
3 38 176 175
3 39 177 94
3 39 178 177
3 293 180 294
3 41 295 296
3 41 297 299
3 297 181 298
3 297 298 299
3 41 182 181
3 301 300 97
3 42 185 183
3 44 186 100
3 44 187 186
3 302 188 303
3 45 304 306
3 304 189 305
3 304 305 306
3 45 190 189
3 45 191 190
3 46 307 309
3 307 192 308
3 307 308 309
3 46 193 192
3 47 310 312
3 310 194 311
3 310 311 312
3 47 195 194
3 47 196 195
3 48 313 315
3 313 197 314
3 313 314 315
3 48 198 197
3 49 316 318
3 316 199 317
3 316 317 318
3 49 200 199
3 49 201 200
3 319 202 320
3 321 320 102
3 319 320 321
3 322 203 323
3 324 323 202
3 322 323 324
3 325 204 326
3 327 205 328
3 329 328 204
3 327 328 329
3 330 206 331
3 332 207 333
3 334 333 206
3 332 333 334
3 50 335 336
3 50 337 339
3 337 208 338
3 337 338 339
3 50 209 208
3 42 210 104
3 42 183 210
3 23 340 341
3 52 342 344
3 344 343 107
3 342 343 344
3 52 345 347
3 345 212 346
3 345 346 347
3 52 348 350
3 350 349 212
3 348 349 350
3 36 213 169
3 53 214 110
3 53 215 214
3 26 216 148
3 54 217 113
3 54 218 217
3 54 351 353
3 353 352 218
3 351 352 353
3 55 354 355
3 55 356 357
3 55 358 360
3 358 219 359
3 358 359 360
3 56 220 116
3 56 221 220
3 28 222 152
3 57 223 119
3 57 224 223
3 57 225 224
3 51 226 121
3 51 211 226
3 43 227 184
3 58 228 124
3 58 361 363
3 363 362 228
3 361 362 363
3 365 364 157
3 366 229 367
3 368 367 126
3 366 367 368
3 370 369 229
3 40 230 179
3 371 231 372
3 373 372 128
3 371 372 373
3 375 374 231
3 376 232 377
3 378 377 161
3 376 377 378
3 59 60 16
3 61 60 59
3 61 379 381
3 381 380 60
3 379 380 381
3 62 382 384
3 382 63 383
3 382 383 384
3 64 63 62
3 64 18 63
3 64 65 18
3 66 65 64
3 66 20 65
3 67 68 21
3 69 68 67
3 69 22 68
3 69 70 22
3 71 70 69
3 71 385 387
3 387 386 70
3 385 386 387
3 71 388 390
3 388 72 389
3 388 389 390
3 73 72 71
3 73 24 72
3 74 75 25
3 76 75 74
3 76 27 75
3 76 77 27
3 78 77 76
3 78 29 77
3 79 80 30
3 81 80 79
3 81 31 80
3 82 391 393
3 393 392 32
3 391 392 393
3 395 394 82
3 396 83 397
3 398 83 399
3 400 33 401
3 402 401 83
3 400 401 402
3 84 85 17
3 86 85 84
3 86 34 85
3 86 87 34
3 88 87 86
3 88 35 87
3 88 89 35
3 90 89 88
3 90 37 89
3 91 92 19
3 93 92 91
3 93 38 92
3 93 94 38
3 95 94 93
3 95 39 94
3 96 403 405
3 403 404 405
3 96 406 408
3 406 41 407
3 406 407 408
3 96 97 41
3 98 97 96
3 98 409 411
3 411 410 97
3 409 410 411
3 99 100 42
3 101 100 99
3 101 44 100
3 412 45 413
3 415 414 45
3 416 46 417
3 418 47 419
3 418 419 420
3 422 421 47
3 423 48 424
3 425 49 426
3 427 102 428
3 429 428 49
3 427 428 429
3 430 102 431
3 433 432 102
3 103 434 435
3 103 436 438
3 436 50 437
3 436 437 438
3 103 104 50
3 99 104 103
3 99 42 104
3 105 439 440
3 442 441 105
3 106 107 23
3 108 107 106
3 108 52 107
3 108 443 445
3 445 444 52
3 443 444 445
3 447 446 108
3 109 110 36
3 111 110 109
3 111 53 110
3 112 113 26
3 114 113 112
3 114 54 113
3 114 448 450
3 450 449 54
3 448 449 450
3 115 451 453
3 453 452 114
3 451 452 453
3 115 454 456
3 454 55 455
3 454 455 456
3 115 116 55
3 117 116 115
3 117 56 116
3 118 119 28
3 120 119 118
3 120 57 119
3 120 121 57
3 122 121 120
3 122 51 121
3 123 124 43
3 125 124 123
3 125 58 124
3 457 126 458
3 459 126 460
3 462 461 126
3 127 128 40
3 129 128 127
3 129 463 465
3 465 464 128
3 463 464 465
3 467 466 5
3 60 468 470
3 470 469 16
3 468 469 470
3 130 471 473
3 473 472 60
3 471 472 473
3 130 474 475
3 130 476 477
3 479 478 130
3 480 131 481
3 132 482 484
3 482 131 483
3 482 483 484
3 132 17 131
3 63 485 487
3 485 132 486
3 485 486 487
3 133 132 63
3 133 17 132
3 133 84 17
3 134 84 133
3 134 7 84
3 134 135 7
3 136 135 134
3 136 19 135
3 65 136 18
3 137 136 65
3 137 19 136
3 137 91 19
3 138 91 137
3 138 9 91
3 489 488 11
3 139 490 492
3 492 491 6
3 490 491 492
3 140 493 495
3 495 494 139
3 493 494 495
3 140 496 497
3 68 140 21
3 498 140 499
3 500 499 68
3 498 499 500
3 502 501 140
3 141 503 504
3 141 505 506
3 141 507 508
3 142 509 511
3 511 510 141
3 509 510 511
3 142 512 513
3 70 142 22
3 143 142 70
3 143 514 516
3 516 515 142
3 514 515 516
3 143 517 519
3 517 105 518
3 517 518 519
3 520 105 521
3 522 521 143
3 520 521 522
3 524 523 105
3 144 525 526
3 144 527 529
3 527 23 528
3 527 528 529
3 72 530 532
3 530 144 531
3 530 531 532
3 145 144 72
3 145 23 144
3 145 106 23
3 146 106 145
3 146 14 106
3 147 148 8
3 149 148 147
3 149 26 148
3 75 149 25
3 150 149 75
3 150 26 149
3 150 112 26
3 151 112 150
3 151 15 112
3 151 152 15
3 153 152 151
3 153 28 152
3 77 153 27
3 154 153 77
3 154 28 153
3 154 118 28
3 155 118 154
3 155 13 118
3 156 157 12
3 158 157 156
3 158 533 535
3 535 534 157
3 533 534 535
3 80 158 30
3 159 158 80
3 159 536 538
3 538 537 158
3 536 537 538
3 159 539 540
3 542 541 159
3 160 161 10
3 543 161 544
3 545 544 160
3 543 544 545
3 547 546 161
3 549 548 32
3 551 550 5
3 83 552 553
3 555 554 83
3 162 556 557
3 162 558 560
3 558 6 559
3 558 559 560
3 131 561 562
3 163 563 565
3 565 564 131
3 563 564 565
3 163 566 568
3 566 33 567
3 566 567 568
3 85 163 17
3 164 163 85
3 164 33 163
3 164 162 33
3 165 162 164
3 165 6 162
3 165 139 6
3 166 139 165
3 166 21 139
3 87 166 34
3 167 166 87
3 167 21 166
3 167 67 21
3 168 67 167
3 168 4 67
3 168 169 4
3 170 169 168
3 170 36 169
3 89 170 35
3 171 170 89
3 171 36 170
3 171 109 36
3 172 109 171
3 172 8 109
3 135 90 7
3 173 90 135
3 173 37 90
3 92 173 19
3 174 173 92
3 174 37 173
3 174 172 37
3 175 172 174
3 175 8 172
3 175 147 8
3 176 147 175
3 176 25 147
3 94 176 38
3 177 176 94
3 177 25 176
3 177 74 25
3 178 74 177
3 178 3 74
3 569 179 570
3 571 570 2
3 569 570 571
3 180 572 574
3 572 179 573
3 572 573 574
3 180 40 179
3 575 180 576
3 577 180 578
3 579 40 580
3 581 580 180
3 579 580 581
3 582 127 583
3 584 583 40
3 582 583 584
3 585 127 586
3 587 10 588
3 589 588 127
3 587 588 589
3 181 590 591
3 181 592 594
3 592 10 593
3 592 593 594
3 181 160 10
3 182 160 181
3 182 595 597
3 597 596 160
3 595 596 597
3 97 182 41
3 598 182 599
3 600 599 97
3 598 599 600
3 602 601 182
3 603 62 604
3 605 62 606
3 607 1 608
3 609 608 62
3 607 608 609
3 611 610 11
3 183 184 0
3 185 184 183
3 185 43 184
3 100 185 42
3 186 185 100
3 186 43 185
3 186 123 43
3 187 123 186
3 187 12 123
3 612 101 613
3 188 614 616
3 614 101 615
3 614 615 616
3 188 44 101
3 617 188 618
3 189 619 621
3 619 188 620
3 619 620 621
3 189 44 188
3 189 187 44
3 190 187 189
3 190 12 187
3 190 156 12
3 191 156 190
3 191 30 156
3 622 191 623
3 624 623 45
3 622 623 624
3 625 191 626
3 627 30 628
3 629 628 191
3 627 628 629
3 630 79 631
3 632 631 30
3 630 631 632
3 633 79 634
3 635 2 636
3 637 636 79
3 635 636 637
3 638 2 639
3 641 640 2
3 192 642 643
3 192 644 645
3 192 646 647
3 193 648 650
3 650 649 192
3 648 649 650
3 193 651 653
3 651 1 652
3 651 652 653
3 654 46 655
3 194 656 657
3 194 658 660
3 658 46 659
3 658 659 660
3 194 193 46
3 195 193 194
3 195 1 193
3 195 66 1
3 196 66 195
3 196 20 66
3 661 196 662
3 663 662 47
3 661 662 663
3 197 664 666
3 664 196 665
3 664 665 666
3 197 20 196
3 197 138 20
3 198 138 197
3 198 9 138
3 667 48 668
3 199 669 670
3 199 671 673
3 671 48 672
3 671 672 673
3 199 198 48
3 200 198 199
3 200 9 198
3 200 95 9
3 201 95 200
3 201 39 95
3 102 201 49
3 202 201 102
3 202 39 201
3 202 178 39
3 203 178 202
3 203 3 178
3 674 203 675
3 204 676 678
3 676 203 677
3 676 677 678
3 204 3 203
3 204 78 3
3 205 78 204
3 205 29 78
3 679 205 680
3 206 681 683
3 681 205 682
3 681 682 683
3 206 29 205
3 206 155 29
3 207 155 206
3 207 13 155
3 684 207 685
3 208 686 688
3 686 207 687
3 686 687 688
3 208 13 207
3 208 122 13
3 209 122 208
3 209 51 122
3 104 209 50
3 210 209 104
3 210 51 209
3 210 211 51
3 183 211 210
3 183 0 211
3 690 689 6
3 691 11 692
3 107 693 695
3 695 694 23
3 693 694 695
3 697 696 107
3 212 698 699
3 212 700 702
3 700 11 701
3 700 701 702
3 212 703 705
3 705 704 11
3 703 704 705
3 707 706 212
3 709 708 52
3 169 73 4
3 213 73 169
3 213 24 73
3 110 213 36
3 214 213 110
3 214 24 213
3 214 146 24
3 215 146 214
3 215 14 146
3 148 111 8
3 216 111 148
3 216 53 111
3 113 216 26
3 217 216 113
3 217 53 216
3 217 215 53
3 218 215 217
3 218 14 215
3 218 710 712
3 712 711 14
3 710 711 712
3 714 713 218
3 716 715 54
3 219 717 718
3 219 719 721
3 719 32 720
3 719 720 721
3 116 219 55
3 220 219 116
3 220 32 219
3 220 82 32
3 221 82 220
3 221 5 82
3 152 117 15
3 222 117 152
3 222 56 117
3 119 222 28
3 223 222 119
3 223 56 222
3 223 221 56
3 224 221 223
3 224 5 221
3 224 722 724
3 724 723 5
3 722 723 724
3 225 725 727
3 727 726 224
3 725 726 727
3 225 728 730
3 728 16 729
3 728 729 730
3 121 225 57
3 226 225 121
3 226 16 225
3 226 59 16
3 211 59 226
3 211 0 59
3 184 61 0
3 227 61 184
3 227 731 733
3 733 732 61
3 731 732 733
3 124 227 43
3 228 227 124
3 228 734 736
3 736 735 227
3 734 735 736
3 228 737 738
3 740 739 228
3 157 125 12
3 741 125 742
3 743 742 157
3 741 742 743
3 744 58 745
3 746 745 125
3 744 745 746
3 126 747 748
3 229 749 751
3 751 750 126
3 749 750 751
3 229 752 754
3 752 58 753
3 752 753 754
3 229 755 757
3 757 756 58
3 755 756 757
3 759 758 229
3 179 81 2
3 230 81 179
3 230 31 81
3 128 230 40
3 231 230 128
3 231 31 230
3 231 760 762
3 762 761 31
3 760 761 762
3 764 763 231
3 161 129 10
3 232 129 161
3 232 765 767
3 767 766 129
3 765 766 767
3 768 232 769
3 770 232 771
3 773 772 232
3 774 98 775
3 776 98 777
3 779 778 98
