ply
format ascii 1.0
element vertex 1027
property float x
property float y
property float z
element face 1168
property list uchar int vertex_index
end_header
-36.140617 24.743269 -2.762159
-17.923731 45.438148 -13.953789
-26.590322 33.875092 -8.250269
-35.11507 24.750526 11.964375
-28.936014 41.314075 3.626086
-12.425122 54.121861 -24.873646
-31.960606 28.605862 -5.78777
-10.017678 46.865871 -36.082592
-17.242313 30.304398 -11.91748
-14.465016 35.458904 -15.865112
-12.704807 40.438828 -21.537243
-14.900738 50.609085 -18.703987
-21.398729 25.25255 -9.351578
-21.764774 39.745575 -10.673367
-36.884892 25.444469 3.244007
-33.538582 32.55286 -0.541717
-29.55978 39.275188 -4.04625
-22.320774 53.267517 -11.412629
-19.004997 59.587944 -16.720751
-15.85246 64.37944 -23.019209
-12.48711 66.273621 -29.889446
-10.309491 55.793217 -31.664524
-18.0562 13.802598 -18.963219
-14.154989 31.395214 -27.198954
-11.489249 44.129005 -28.53546
-32.727123 23.309883 -5.585141
-34.346104 26.497383 -4.32702
-8.984982 51.662094 -36.743618
-17.490927 38.197914 -12.931623
-15.704782 32.956635 -13.680019
-15.91251 40.720615 -14.79933
-14.559677 43.410576 -17.164331
-16.285452 48.088737 -16.163521
-26.81629 27.396423 -8.042606
-24.088573 22.967949 -8.322462
-24.071461 29.712093 -9.037519
-21.580307 32.411098 -10.102205
-24.010702 36.718414 -9.429921
-36.317749 25.182802 7.45475
-34.734608 29.40637 5.168791
-33.587845 29.172998 9.82352
-31.333277 36.978939 1.258767
-31.543783 35.944756 -2.372104
-29.697054 40.595901 -0.44292
-20.866219 63.287777 -15.079028
-17.45681 62.258091 -19.724245
-17.604107 68.542824 -22.009205
-14.313872 28.910019 -23.300066
-12.452987 47.555382 -22.91923
-12.071302 42.363285 -24.894495
-11.580011 49.105259 -26.374393
-10.789449 50.360813 -29.872423
-11.38198 55.44355 -28.254183
-29.768789 25.192122 -6.940632
-29.222195 31.045712 -7.119814
-11.487615 41.542786 -35.49815
-17.225344 22.597589 -10.97902
-15.851169 25.287655 -12.684733
-14.758267 28.065895 -14.86841
-13.977738 30.601898 -17.48362
-13.420637 33.027588 -20.512766
-13.481248 38.18961 -18.552414
-13.420305 45.363052 -19.803753
-13.653937 52.631321 -21.55051
-19.103659 27.632502 -10.508416
-19.298061 35.260773 -11.402924
-19.688702 42.520374 -12.161512
-36.86116 25.122297 -0.281719
-35.185947 28.415365 -2.005435
-35.311867 29.162107 1.219398
-33.081791 33.203114 3.183797
-38.120697 21.376661 1.483129
-33.158684 31.258951 -3.653566
-30.840555 34.114994 -5.229895
-28.585329 37.027256 -6.569234
-28.062462 44.55201 -2.274116
-27.637907 42.755775 -5.620966
-26.318758 39.945995 -7.93748
-24.083126 43.37822 -9.401538
-22.149315 46.471802 -10.962933
-20.173452 49.689896 -12.975215
-20.654762 56.744801 -13.944818
-18.484352 52.733833 -15.215091
-16.901487 55.529472 -17.816648
-15.353825 57.491364 -20.660889
-13.958344 59.415379 -23.849436
-14.122559 65.401917 -26.403276
-12.566044 60.563324 -27.199631
-11.176456 61.094589 -30.650217
-9.769308 60.7901 -33.986305
-9.247067 56.001606 -34.891094
-12.987142 35.406891 -23.904795
-12.598077 37.648617 -27.662374
-12.160514 39.632729 -31.681627
-10.87678 45.556858 -32.174492
-9.941852 51.027637 -33.450451
-35.858509 23.587074 -3.324842
-34.849121 24.098719 -4.236974
-35.38884 25.480682 -3.522968
-36.632481 23.24271 -2.276652
-8.603057 53.853657 -37.120415
-17.659845 41.897511 -13.459181
-16.683155 39.506409 -13.811818
-16.854191 43.215263 -14.403956
-16.092882 44.685192 -15.49412
-17.084568 46.709709 -14.987539
-26.773832 30.536877 -8.194415
-25.48037 28.740551 -8.538354
-25.374027 31.980612 -8.740412
-24.113163 33.388447 -9.2644
-25.312166 35.391354 -8.816738
-35.741947 25.039967 9.743575
-35.078304 27.118294 8.510171
-34.46312 26.866724 10.803795
-30.199381 39.050781 2.443402
-30.44828 38.906101 0.384937
-29.352171 41.14138 1.548129
-18.490591 67.390282 -20.155788
-16.167105 21.002132 -21.078781
-15.265424 24.079512 -21.217133
-15.2485 25.413963 -23.072367
-12.41248 50.859859 -23.85203
-11.985545 48.271912 -24.674063
-11.9248 51.694824 -25.55138
-11.474218 52.196907 -27.179245
-11.900061 54.910618 -26.570856
-32.373207 25.798111 -5.796213
-31.308832 24.00956 -6.275502
-30.985126 26.826368 -6.473747
-29.591263 28.087238 -7.078037
-30.640194 29.800699 -6.460022
-10.702951 44.231075 -35.751167
-11.056221 42.303848 -37.519855
-10.256232 44.763855 -37.676701
-17.165035 26.580164 -11.487574
-16.465195 24.191166 -11.844658
-16.405926 28.075508 -12.31564
-15.055541 34.152512 -14.696052
-15.108044 30.213139 -14.185631
-14.557589 31.872013 -15.358909
-14.336168 29.296797 -16.126179
-14.089011 33.171097 -16.597887
-13.69401 34.360935 -17.905735
-13.9672 36.915478 -17.111568
-14.684041 47.096119 -17.935284
-13.94795 44.398041 -18.466822
-14.043346 48.258385 -19.336161
-13.439619 48.981102 -20.741711
-14.252924 51.683689 -20.107439
-22.738897 24.253649 -8.838995
-20.165432 23.051607 -9.478798
-19.025919 24.066252 -10.078717
-20.236942 26.432995 -9.893031
-21.586914 36.015961 -10.441039
-20.35763 33.745182 -10.726745
-20.503605 37.280502 -11.057575
-19.473169 38.744396 -11.768594
-20.653734 40.965454 -11.389849
-36.939674 25.376001 1.29336
-36.187599 27.147417 0.370522
-36.112991 27.374401 2.220273
-33.847496 31.436037 4.247594
-37.63076 23.362352 4.162491
-37.628632 23.489517 2.271924
-37.510494 23.323927 0.497151
-34.404263 30.525883 -1.357182
-34.207214 29.817688 -2.881764
-33.393749 32.131889 -2.246023
-30.556141 37.649563 -3.14258
-31.331951 35.149422 -3.886758
-30.255711 36.72308 -4.647499
-29.748228 35.514904 -5.883706
-29.168932 38.162266 -5.493463
-26.359308 47.180099 -5.973026
-27.19458 45.48658 -4.917053
-26.742472 44.368301 -6.445006
-27.067295 41.475533 -6.927835
-26.042387 43.150867 -7.686616
-25.180475 41.707436 -8.648646
-25.074263 44.887184 -8.455791
-23.149094 48.395073 -10.220917
-22.212532 49.746075 -11.19237
-21.114014 47.955341 -11.929013
-21.321411 51.603271 -12.266465
-20.068932 61.410843 -15.863936
-20.827814 60.02454 -14.44767
-19.845474 58.194256 -15.2747
-19.543245 54.635159 -14.658357
-18.802691 56.339611 -15.927645
-17.665735 54.014778 -16.437744
-17.977751 57.480202 -17.237047
-16.635056 63.257915 -21.320906
-16.346647 59.945427 -20.277931
-15.631886 60.996468 -21.792269
-14.638823 58.533211 -22.24951
-14.89107 61.934082 -23.414854
-13.329105 65.981529 -28.137232
-13.352017 62.997948 -26.705345
-12.60647 63.544796 -28.460585
-11.91768 60.868813 -28.798819
-11.798856 63.627026 -30.206062
-10.161243 63.302505 -33.690353
-9.094725 60.237484 -35.512299
-17.022732 14.99946 -17.32328
-18.467791 18.599268 -24.796453
-15.140961 28.375967 -27.197815
-12.99744 36.742798 -21.007111
-13.169099 34.40115 -22.106884
-12.721889 37.845955 -22.613056
-11.7729 43.236679 -26.778606
-12.242721 39.791214 -26.202906
-11.991109 40.859646 -28.036385
-12.383564 38.709053 -29.627024
-11.729009 41.802876 -30.012817
-11.444731 42.641838 -31.962002
-11.181571 44.964134 -30.371693
-10.539385 53.083946 -30.709732
-10.361786 50.750168 -31.731165
-10.062067 53.429501 -32.453697
-9.599533 53.652729 -34.033096
-9.79201 56.000435 -33.276203
-34.032143 22.58169 -4.808507
-33.676582 24.943001 -5.045726
-33.213776 27.431387 -5.084584
-9.453408 49.429028 -36.335682
-9.540197 47.329403 -37.79604
-8.913242 49.895042 -38.0014
-17.326473 34.137619 -12.40717
-16.431013 31.751501 -12.769647
-16.535057 35.682106 -13.27213
-15.780096 36.771187 -14.192282
-15.063786 38.049023 -15.301553
-14.460845 39.53228 -16.50481
-15.213411 41.902962 -15.878244
-15.341282 45.762302 -16.650867
-15.591695 49.429035 -17.373459
-26.888041 24.215544 -7.750427
-25.447855 25.272709 -8.244267
-24.159718 26.312708 -8.696445
-22.722803 27.476351 -9.222357
-21.541624 28.88372 -9.740617
-22.850473 31.028906 -9.533398
-22.795238 34.661854 -9.840927
-22.879477 38.247314 -10.019423
-36.674309 25.360483 5.322797
-35.949509 27.306625 4.225369
-35.560482 27.330395 6.249264
-34.324924 29.139473 7.46236
-37.393791 23.29179 6.307987
-32.480419 34.740105 0.254423
-32.524837 34.292244 -1.533969
-31.500658 36.649311 -0.580706
-30.652462 38.283203 -1.453516
-29.800026 39.932575 -2.316808
-20.123369 64.566666 -16.617033
-19.246082 62.691372 -17.414698
-18.269958 61.066505 -18.169508
-18.478825 64.159836 -19.0319
-17.679077 65.507431 -20.735655
-16.795576 66.273018 -22.40317
-11.604223 66.272835 -31.636324
-17.05678 16.529177 -19.037724
-18.243303 15.249807 -20.823168
-17.180286 17.907843 -20.852716
-17.22645 19.573307 -22.790682
-15.170922 26.961756 -25.035849
-14.266035 30.064302 -25.205132
-12.510109 43.87429 -22.249516
-12.387616 41.246075 -23.143606
-12.146056 44.878746 -23.823683
-11.784695 45.678055 -25.576559
-11.446898 46.704472 -27.250359
-11.111233 47.228924 -29.075972
-11.18947 49.643135 -28.10586
-11.029347 52.671524 -28.855457
-10.837894 55.692764 -29.99136
-28.234915 26.29303 -7.528934
-28.180967 29.277239 -7.650536
-27.944113 32.466057 -7.66715
-12.317601 38.992512 -35.639534
-11.900513 39.956127 -37.527935
-11.385362 40.809872 -39.515213
-10.721015 41.648434 -41.436886
-9.955624 42.354092 -43.272144
-9.128735 42.856636 -44.975639
-8.041819 43.408039 -46.659672
-28.26549 43.284397 2.64076
-15.696145 29.066067 -13.213643
-15.273086 26.399645 -13.702236
-14.694542 25.637678 -15.617998
-14.382858 26.967554 -16.972878
-14.138363 28.22607 -18.481714
-13.93973 29.476204 -20.112247
-13.671797 31.883804 -18.950274
-13.317772 35.478882 -19.463528
-13.058972 39.278133 -20.050997
-13.925947 40.594639 -17.715031
-13.390189 41.711315 -19.158764
-12.927786 43.048447 -20.683096
-12.904797 46.531006 -21.36405
-12.942358 50.311569 -22.288612
-13.04883 53.629486 -23.192368
-18.136496 21.637844 -10.235709
-18.016527 25.108927 -10.737794
-18.074059 28.824739 -11.187551
-20.351076 30.062857 -10.297591
-19.197153 31.473398 -10.961879
-18.20051 32.704082 -11.642625
-18.28299 36.457561 -12.13089
-18.509975 40.276424 -12.572555
-18.731424 43.855881 -13.021114
-36.543167 24.931116 -1.757406
-35.810387 26.319923 -2.500782
-36.091797 26.80546 -1.155714
-35.346527 28.870981 -0.436004
-34.425079 30.933638 0.395592
-35.104435 29.319714 3.168843
-34.279182 31.132429 2.214201
-33.365955 32.998016 1.300441
-32.23254 35.056702 2.161696
-31.027308 37.094948 3.324041
-37.159275 23.332996 -0.986117
-34.928329 27.466858 -3.299495
-33.82119 28.884066 -4.077179
-32.663857 30.03064 -4.888502
-32.417427 33.524883 -3.11821
-32.062054 32.588345 -4.453963
-31.409657 31.490988 -5.594223
-30.162405 32.619831 -6.317781
-28.944378 34.189194 -6.896219
-27.699579 35.64563 -7.512733
-28.644497 43.034641 0.534596
-28.863029 42.559067 -1.354752
-28.847145 41.95771 -3.118279
-28.605776 41.045723 -4.763103
-28.120365 39.946949 -6.130484
-27.433802 38.57399 -7.242309
-26.52244 36.968224 -8.113524
-25.290123 38.417347 -8.758816
-24.140589 40.154114 -9.402534
-22.969656 41.7262 -10.129949
-24.068827 46.636803 -9.333776
-23.086899 45.057831 -10.164412
-21.899641 43.048851 -10.861853
-20.955971 44.621494 -11.626888
-19.908154 46.009136 -12.544272
-18.996605 47.529789 -13.517964
-21.613262 61.524765 -13.474925
-21.623964 58.394073 -12.989436
-21.46876 55.108601 -12.66229
-20.400572 53.311069 -13.478413
-19.253963 51.145145 -14.083226
-18.126448 48.959507 -14.575479
-17.372152 50.39817 -15.667619
-16.551231 51.795357 -16.964273
-15.870951 53.159771 -18.248013
-17.232428 59.004185 -18.710884
-16.161358 56.657784 -19.17783
-15.152761 54.169891 -19.610638
-14.459661 55.075455 -21.057835
-13.801051 55.978157 -22.603994
-13.142571 56.788914 -24.271809
-15.923971 67.337746 -24.243851
-14.941196 67.892677 -26.115395
-14.989541 65.061096 -24.737007
-14.12359 62.551716 -25.041231
-13.236779 59.996063 -25.520069
-12.478397 57.336563 -25.993746
-11.906801 57.967453 -27.65444
-11.330428 58.436722 -29.33025
-10.674875 58.336212 -31.077101
-10.960257 63.580563 -32.02412
-10.451955 60.804565 -32.325623
-10.047321 58.47126 -32.820919
-9.492382 58.213482 -34.283951
-8.878113 57.885883 -35.881119
-8.735191 55.741337 -36.353699
-13.724003 31.004671 -21.839811
-13.57262 32.240467 -23.577852
-13.448875 33.382374 -25.448629
-12.456399 38.970131 -24.406326
-12.780246 36.62899 -25.876959
-13.296394 34.551006 -27.325846
-13.150291 35.645256 -29.339624
-12.922072 36.854191 -31.382977
-12.701741 37.820717 -33.564117
-11.857535 40.618622 -33.568779
-11.092814 43.566322 -33.79401
-10.468621 46.25811 -34.202938
-10.73413 47.95631 -30.97842
-10.359898 48.356289 -32.8629
-9.925537 48.920334 -34.65696
-9.472488 51.556232 -35.077194
-9.078972 53.773941 -35.700096
-8.344158 54.024328 -37.801508
-8.460383 54.663505 -37.327864
-35.735941 23.88323 11.392603
-35.407247 23.654347 12.581792
-35.428509 24.895246 10.853975
-36.04938 24.027951 10.282203
-35.735941 23.88323 11.392603
-14.907813 25.124336 -20.529898
-15.271746 23.438888 -20.319077
-14.848757 25.808464 -21.396235
-14.907813 25.124336 -20.529898
-21.389473 23.465965 -9.119508
-22.059557 22.966514 -8.863217
-22.068813 24.753099 -9.095287
-20.78208 24.152079 -9.415188
-20.772824 22.365493 -9.183118
-21.389473 23.465965 -9.119508
-26.279771 45.29792 -6.877045
-26.55089 45.7742 -6.209016
-26.088189 46.703819 -6.641056
-25.929729 44.689203 -7.497851
-26.392429 43.759584 -7.065811
-26.279771 45.29792 -6.877045
-25.445667 45.557361 -7.882438
-25.558325 44.019025 -8.071203
-25.929729 44.689203 -7.497851
-22.266653 51.506796 -11.302499
-22.664181 50.693933 -10.772498
-22.718302 52.454655 -10.882627
-12.908107 66.127575 -29.013339
-13.2292 67.429378 -28.936943
-12.808203 67.575424 -29.81305
-18.03888 12.929815 -18.077221
-17.522146 13.528246 -17.257252
-17.539466 14.401029 -18.143249
-18.577644 12.419894 -18.785972
-18.560324 11.547111 -17.899974
-18.03888 12.929815 -18.077221
-18.703339 13.196998 -19.758902
-18.577644 12.419894 -18.785972
-19.145895 18.256919 -25.813365
-18.546391 19.426789 -25.907949
-14.571269 30.680327 -28.253683
-15.064255 29.170704 -28.253113
-14.647975 29.88559 -27.198384
-14.064405 32.092889 -28.160356
-14.571269 30.680327 -28.253683
-34.640964 22.214382 -4.349383
-34.220695 21.37644 -4.56319
-33.255198 30.171559 9.18296
-33.623737 30.154796 8.00238
-33.956384 29.156236 8.64294
-36.85577 24.237296 6.881368
-37.189062 23.216511 7.404875
-36.651041 24.162017 7.978257
-19.718681 65.296844 -17.492582
-20.113117 66.13638 -17.00584
-19.280037 64.359197 -17.891415
-19.684725 63.629019 -17.015866
-19.718681 65.296844 -17.492582
-18.896409 65.093429 -18.700016
-18.862454 63.425604 -18.223299
-19.280037 64.359197 -17.891415
-16.623398 17.987429 -19.18544
-16.583668 17.396333 -18.306711
-16.685151 18.676762 -20.092936
-17.118533 17.21851 -19.94522
-16.623398 17.987429 -19.18544
-16.719313 21.018609 -22.913642
-16.696777 20.28772 -21.934731
-16.18964 21.733021 -22.057691
-17.261005 20.397944 -23.837725
-16.719313 21.018609 -22.913642
-32.185738 22.287619 -5.733279
-32.918467 22.012787 -5.362323
-29.935788 23.733656 -6.760314
-30.70581 23.142375 -6.42775
-30.538811 24.600841 -6.608067
-29.121372 24.134799 -7.061597
-29.935788 23.733656 -6.760314
-29.001852 25.742576 -7.234783
-28.354435 24.685254 -7.355748
-29.121372 24.134799 -7.061597
-10.912353 42.009974 -39.495085
-11.220792 41.55686 -38.517534
-10.747782 42.756962 -38.497406
-10.580179 42.429254 -40.455922
-11.053189 41.229153 -40.47605
-10.912353 42.009974 -39.495085
-9.580778 46.472248 -38.616243
-9.237953 47.662508 -38.605999
-9.472877 43.456097 -43.142426
-9.852483 43.156544 -42.291191
-9.059432 43.707369 -43.994173
-9.542179 42.605364 -44.123891
-9.472877 43.456097 -43.142426
-7.553159 44.366286 -46.519863
-8.090279 44.17501 -45.683718
-6.986061 44.433647 -47.362621
-7.474721 43.475401 -47.50243
-7.553159 44.366286 -46.519863
-16.93234 21.432519 -11.164127
-17.314241 20.78004 -10.725853
-15.94183 23.443914 -12.470446
-16.248843 22.895669 -12.050409
-16.158182 24.73941 -12.264696
-15.687754 24.074454 -12.965406
-15.94183 23.443914 -12.470446
-14.90052 26.185201 -14.674621
-15.157929 25.352075 -14.091534
-15.015676 27.23277 -14.285323
-14.726405 26.851787 -15.243204
-14.868658 24.971092 -15.049415
-14.90052 26.185201 -14.674621
-24.154595 21.34635 -8.07711
-24.799224 22.51671 -8.085639
-18.624133 21.090224 -9.908741
-18.183864 19.878529 -10.000816
-30.73825 37.214505 4.420646
-31.417361 36.161505 3.836177
-30.352041 38.189911 3.976488
-30.73825 37.214505 4.420646
-38.409075 20.320043 2.056575
-38.494025 20.321381 2.974946
-38.205647 21.377998 2.4015
-38.216428 20.32844 1.203197
-38.409075 20.320043 2.056575
-37.940012 21.348901 0.685494
-38.216428 20.32844 1.203197
-28.13815 44.188434 1.025995
-28.454994 43.159519 1.587678
-27.948646 44.313312 2.079077
-28.462746 43.555538 -1.814434
-28.383336 43.837078 -0.867344
-27.983052 44.83355 -1.327025
-27.81322 43.275177 -4.810769
-27.591556 44.64058 -4.458813
-27.416244 44.121178 -5.26901
-28.121841 41.900749 -5.192035
-28.297154 42.420151 -4.381837
-27.81322 43.275177 -4.810769
-24.037026 48.276471 -9.294299
-24.492807 47.317841 -8.786489
-21.23974 62.406271 -14.276976
-21.593432 63.05619 -13.698632
-21.21991 63.937697 -14.500683
-15.879453 68.682702 -24.86708
-16.344396 68.33361 -23.962187
-14.531878 66.647297 -26.259335
-14.487896 68.089214 -26.990052
-14.078577 66.843834 -27.133993
-10.82455 64.767851 -32.688845
-11.28224 64.926699 -31.830222
-11.146533 66.113987 -32.494946
-8.657612 58.713329 -36.440363
-8.986419 59.061684 -35.696709
-8.765918 59.889129 -36.255953
-8.609113 57.59477 -36.572689
-8.657612 58.713329 -36.440363
-18.899123 15.654223 -22.613617
-18.850901 14.814186 -21.656251
-18.291525 16.089844 -21.780534
-35.353815 23.842897 -3.780908
-35.049453 22.972897 -4.063617
-35.554147 22.717075 -3.60755
-36.47332 22.377772 -2.549701
-36.906591 22.340333 -1.894255
-36.086334 22.549954 -3.073796
-36.47332 22.377772 -2.549701
-36.245495 23.414892 -2.800747
-35.554147 22.717075 -3.60755
-36.086334 22.549954 -3.073796
-8.529937 53.012417 -37.654307
-8.7209 51.916635 -37.465908
-8.79402 52.757875 -36.932017
-8.529937 53.012417 -37.654307
-8.344158 54.024328 -37.801508
-36.36314 24.090599 9.122669
-36.04938 24.027951 10.282203
-36.029848 25.111384 8.599163
-36.651041 24.162017 7.978257
-36.36314 24.090599 9.122669
-18.880505 68.302177 -19.735537
-18.902292 66.708652 -19.26196
-18.439178 68.931873 -20.707127
-18.880505 68.302177 -19.735537
-17.995936 69.508145 -21.633835
-18.047349 67.966553 -21.082497
-18.439178 68.931873 -20.707127
-15.722587 21.900198 -20.249901
-16.17856 20.223906 -20.205968
-15.716264 22.540822 -21.147957
-15.722587 21.900198 -20.249901
-15.271746 23.438888 -20.319077
-15.738799 23.271712 -22.126867
-16.18964 21.733021 -22.057691
-15.716264 22.540822 -21.147957
-15.256962 24.746738 -22.14475
-15.730337 23.938937 -23.054485
-15.738799 23.271712 -22.126867
-14.840295 26.47569 -22.323853
-15.256962 24.746738 -22.14475
-14.848757 25.808464 -21.396235
-14.372981 28.223717 -22.437702
-14.781186 27.161991 -23.186217
-14.840295 26.47569 -22.323853
-10.347787 43.986965 -38.575829
-10.747782 42.756962 -38.497406
-10.656227 43.533851 -37.598278
-22.741048 22.409215 -8.588809
-23.415886 21.766365 -8.330542
-23.413735 23.610799 -8.580728
-22.741048 22.409215 -8.588809
-22.059557 22.966514 -8.863217
-20.17554 21.089246 -9.208393
-20.772824 22.365493 -9.183118
-19.638602 21.797105 -9.530285
-20.17554 21.089246 -9.208393
-19.595675 23.558929 -9.778757
-19.068845 22.304427 -9.830245
-19.638602 21.797105 -9.530285
-33.671673 31.331221 5.314319
-34.291052 30.421203 4.708193
-34.115229 30.316388 5.774917
-33.258145 32.323362 4.805829
-33.671673 31.331221 5.314319
-32.875292 33.2069 4.273931
-33.464644 32.319575 3.715696
-33.258145 32.323362 4.805829
-32.444602 34.215588 3.766056
-32.875292 33.2069 4.273931
-37.960678 22.370843 3.741181
-37.937905 22.346503 4.746698
-37.959614 22.434426 2.795897
-37.960678 22.370843 3.741181
-37.629696 23.425935 3.217207
-37.874665 22.433089 1.877526
-38.205647 21.377998 2.4015
-37.959614 22.434426 2.795897
-27.672572 45.784403 -1.897336
-27.983052 44.83355 -1.327025
-26.776944 46.333339 -5.44504
-26.903736 46.88897 -4.642347
-26.4861 47.735729 -5.170334
-23.132462 50.018433 -10.286771
-23.57716 49.155605 -9.737869
-22.680813 49.070574 -10.706644
-23.132462 50.018433 -10.286771
-22.664181 50.693933 -10.772498
-13.68185 67.13364 -28.000971
-13.2292 67.429378 -28.936943
-13.725832 65.691723 -27.270254
-14.078577 66.843834 -27.133993
-13.68185 67.13364 -28.000971
-9.935873 64.395874 -34.422985
-10.425043 64.628822 -33.521961
-9.767388 63.008556 -34.480375
-9.935873 64.395874 -34.422985
-9.57142 61.752353 -34.628351
-9.965276 62.046302 -33.838329
-9.767388 63.008556 -34.480375
-9.234129 61.476045 -35.391348
-9.432016 60.513792 -34.749302
-9.57142 61.752353 -34.628351
-8.856905 61.117489 -36.141825
-9.234129 61.476045 -35.391348
-8.765918 59.889129 -36.255953
-8.856905 61.117489 -36.141825
-17.025683 14.278434 -16.549062
-16.626399 15.803846 -16.660773
-17.025683 14.278434 -16.549062
-17.522146 13.528246 -17.257252
-19.082397 17.344467 -24.72417
-18.403768 17.764575 -23.767176
-19.082397 17.344467 -24.72417
-19.145895 18.256919 -25.813365
-15.621697 27.763129 -28.200118
-15.660952 26.96098 -27.128702
-15.621697 27.763129 -28.200118
-15.064255 29.170704 -28.253113
-33.570977 21.648691 -4.974006
-34.220695 21.37644 -4.56319
-33.379633 22.945786 -5.196824
-32.918467 22.012787 -5.362323
-33.570977 21.648691 -4.974006
-34.440632 23.340204 -4.52274
-34.640964 22.214382 -4.349383
-35.049453 22.972897 -4.063617
-8.924476 48.945327 -38.708679
-9.237953 47.662508 -38.605999
-9.226719 48.612223 -37.89872
-8.68503 51.033109 -38.094799
-8.949112 50.778568 -37.372509
-8.7209 51.916635 -37.465908
-8.626948 50.09586 -38.777645
-8.68503 51.033109 -38.094799
-8.924476 48.945327 -38.708679
-8.626948 50.09586 -38.777645
-26.198957 23.140507 -7.799622
-26.947262 22.609642 -7.536748
-25.478865 23.669089 -8.046542
-26.198957 23.140507 -7.799622
-26.167948 24.744127 -7.997347
-24.768214 24.120329 -8.283365
-24.799224 22.51671 -8.085639
-25.478865 23.669089 -8.046542
-33.910387 30.182939 6.921702
-34.115229 30.316388 5.774917
-34.529766 29.272921 6.315575
-33.910387 30.182939 6.921702
-33.623737 30.154796 8.00238
-37.72242 22.165872 6.930939
-37.189062 23.216511 7.404875
-37.81942 22.311222 5.819446
-37.72242 22.165872 6.930939
-37.512276 23.327071 5.235239
-37.937905 22.346503 4.746698
-37.81942 22.311222 5.819446
-26.134493 48.660642 -5.719972
-26.4861 47.735729 -5.170334
-25.942037 48.256113 -6.437104
-26.134493 48.660642 -5.719972
-26.088189 46.703819 -6.641056
-25.942037 48.256113 -6.437104
-22.731372 54.058817 -10.894113
-22.718302 52.454655 -10.882627
-20.865163 64.781515 -15.351602
-21.21991 63.937697 -14.500683
-20.493738 65.42096 -16.120605
-20.113117 66.13638 -17.00584
-20.494794 63.927222 -15.848031
-20.865163 64.781515 -15.351602
-20.493738 65.42096 -16.120605
-18.484708 65.775059 -19.593844
-18.896409 65.093429 -18.700016
-18.902292 66.708652 -19.26196
-12.338035 67.602913 -30.681034
-12.808203 67.575424 -29.81305
-11.896591 67.60252 -31.554473
-12.045666 66.273228 -30.762885
-12.338035 67.602913 -30.681034
-11.413369 67.502831 -32.40519
-11.896591 67.60252 -31.554473
-11.146533 66.113987 -32.494946
-11.413369 67.502831 -32.40519
-16.566644 16.631474 -17.449489
-16.626399 15.803846 -16.660773
-17.039756 15.764318 -18.180502
-16.566644 16.631474 -17.449489
-16.583668 17.396333 -18.306711
-17.760016 17.418862 -21.795308
-18.291525 16.089844 -21.780534
-17.711794 16.578825 -20.837942
-16.673696 19.454988 -20.965749
-16.685151 18.676762 -20.092936
-16.17856 20.223906 -20.205968
-17.783098 18.251594 -22.764291
-17.760016 17.418862 -21.795308
-17.203368 18.740575 -21.821699
-17.84712 19.086287 -23.793568
-18.403768 17.764575 -23.767176
-17.783098 18.251594 -22.764291
-17.881676 19.910924 -24.840611
-17.84712 19.086287 -23.793568
-17.261005 20.397944 -23.837725
-17.960276 20.738444 -25.952107
-18.546391 19.426789 -25.907949
-17.881676 19.910924 -24.840611
-15.735068 24.699331 -24.054177
-15.730337 23.938937 -23.054485
-15.696279 25.473228 -25.035918
-15.735068 24.699331 -24.054177
-15.209711 26.18786 -24.054108
-15.675932 26.253874 -26.047719
-15.696279 25.473228 -25.035918
-15.155942 27.668861 -26.116832
-15.660952 26.96098 -27.128702
-15.675932 26.253874 -26.047719
-31.476592 22.637458 -6.07846
-32.185738 22.287619 -5.733279
-32.017978 23.659721 -5.930321
-31.476592 22.637458 -6.07846
-30.70581 23.142375 -6.42775
-27.680998 23.64651 -7.466494
-26.947262 22.609642 -7.536748
-27.561478 25.254287 -7.63968
-27.680998 23.64651 -7.466494
-28.354435 24.685254 -7.355748
-12.630168 38.200914 -36.634823
-12.816826 37.67823 -35.612223
-12.421625 38.682722 -37.579023
-12.630168 38.200914 -36.634823
-12.109057 39.47432 -36.583734
-12.144263 39.245753 -38.602728
-12.665375 37.972347 -38.653816
-12.421625 38.682722 -37.579023
-11.886688 39.672625 -39.596367
-12.144263 39.245753 -38.602728
-11.642938 40.382999 -38.521574
-11.56867 40.137206 -40.624342
-11.886688 39.672625 -39.596367
-11.236496 40.556487 -41.585178
-11.56867 40.137206 -40.624342
-11.053189 41.229153 -40.47605
-10.886249 40.896742 -42.582752
-11.236496 40.556487 -41.585178
-9.938796 45.189474 -38.556574
-9.898214 46.046629 -37.73637
-9.580778 46.472248 -38.616243
-10.347787 43.986965 -38.575829
-9.938796 45.189474 -38.556574
-10.235178 42.803715 -41.373562
-10.580179 42.429254 -40.455922
-10.33832 42.001263 -42.354515
-10.235178 42.803715 -41.373562
-9.852483 43.156544 -42.291191
-10.503554 41.249571 -43.500382
-10.886249 40.896742 -42.582752
-10.33832 42.001263 -42.354515
-10.052689 41.632345 -44.346569
-10.503554 41.249571 -43.500382
-9.639244 41.883617 -45.198317
-10.052689 41.632345 -44.346569
-9.542179 42.605364 -44.123891
-9.151729 42.145226 -46.030926
-9.639244 41.883617 -45.198317
-8.633737 43.899309 -44.841701
-9.059432 43.707369 -43.994173
-8.585277 43.132338 -45.817656
-8.633737 43.899309 -44.841701
-8.090279 44.17501 -45.683718
-8.608271 42.420927 -46.872942
-9.151729 42.145226 -46.030926
-8.585277 43.132338 -45.817656
-8.036455 42.576666 -47.724193
-8.608271 42.420927 -46.872942
-7.469356 42.644028 -48.566952
-8.036455 42.576666 -47.724193
-7.474721 43.475401 -47.50243
-34.122284 25.339765 13.696549
-34.45273 25.591245 12.567235
-34.784624 24.499046 13.09369
-34.784624 24.499046 13.09369
-35.407247 23.654347 12.581792
-27.963141 43.441614 3.730171
-28.600752 42.299236 3.133423
-28.298403 42.456453 4.222834
-27.697883 44.438347 3.150701
-27.963141 43.441614 3.730171
-27.948646 44.313312 2.079077
-27.697883 44.438347 3.150701
-16.552266 22.229307 -11.596947
-16.93234 21.432519 -11.164127
-16.84527 23.394377 -11.411839
-16.552266 22.229307 -11.596947
-16.248843 22.895669 -12.050409
-15.398712 24.630448 -13.474158
-15.687754 24.074454 -12.965406
-15.562127 25.84365 -13.193485
-15.398712 24.630448 -13.474158
-15.157929 25.352075 -14.091534
-14.916939 23.838093 -15.417278
-14.868658 24.971092 -15.049415
-14.789331 24.535548 -16.128031
-14.916939 23.838093 -15.417278
-14.633489 25.200486 -16.80547
-14.789331 24.535548 -16.128031
-14.5387 26.302616 -16.295438
-14.525386 25.946875 -17.558625
-14.633489 25.200486 -16.80547
-14.403138 26.576133 -18.313043
-14.525386 25.946875 -17.558625
-14.260611 27.596812 -17.727296
-14.344283 27.197615 -19.162188
-14.403138 26.576133 -18.313043
-14.039047 28.851137 -19.296981
-14.244966 27.822682 -19.977455
-14.344283 27.197615 -19.162188
-24.154595 21.34635 -8.07711
-23.415886 21.766365 -8.330542
-17.769817 20.300168 -10.354197
-18.183864 19.878529 -10.000816
-17.68092 22.117717 -10.607364
-17.314241 20.78004 -10.725853
-17.769817 20.300168 -10.354197
-18.581207 22.852048 -10.157213
-18.624133 21.090224 -9.908741
-19.068845 22.304427 -9.830245
-32.019976 35.142382 3.255005
-32.657166 34.129908 2.672747
-32.444602 34.215588 3.766056
-31.629924 36.075825 2.742869
-32.019976 35.142382 3.255005
-31.417361 36.161505 3.836177
-29.938077 39.167828 3.536168
-30.613345 38.072865 2.883722
-30.352041 38.189911 3.976488
-29.306393 40.299475 4.12751
-29.567698 40.182428 3.034744
-29.938077 39.167828 3.536168
-34.126755 26.649345 11.986944
-34.789095 25.808625 11.384085
-34.45273 25.591245 12.567235
-33.770552 27.743113 11.438544
-34.126755 26.649345 11.986944
-33.332915 28.896249 10.948407
-34.025483 28.019861 10.313657
-33.770552 27.743113 11.438544
-32.91333 30.043194 10.418274
-33.332915 28.896249 10.948407
-33.255198 30.171559 9.18296
-32.91333 30.043194 10.418274
-28.629075 41.431973 4.700273
-29.306393 40.299475 4.12751
-28.298403 42.456453 4.222834
-28.629075 41.431973 4.700273
-37.634911 22.322534 0.192505
-37.940012 21.348901 0.685494
-37.815596 22.350294 0.99014
-37.459301 22.327069 -0.549129
-37.634911 22.322534 0.192505
-37.334885 23.328462 -0.244483
-37.169989 22.385476 -1.248987
-37.459301 22.327069 -0.549129
-36.895878 23.287853 -1.631385
-36.906591 22.340333 -1.894255
-37.169989 22.385476 -1.248987
-28.27407 44.074865 0.07733
-28.13815 44.188434 1.025995
-28.753763 42.796854 -0.410078
-28.27407 44.074865 0.07733
-28.383336 43.837078 -0.867344
-27.71712 45.422902 -2.791751
-27.672572 45.784403 -1.897336
-27.283179 45.890186 -4.113219
-26.903736 46.88897 -4.642347
-27.283179 45.890186 -4.113219
-27.591556 44.64058 -4.458813
-28.025498 44.173294 -3.137344
-27.71712 45.422902 -2.791751
-28.417839 42.876144 -3.559425
-28.454804 43.25486 -2.696197
-28.025498 44.173294 -3.137344
-28.726461 41.501717 -3.940691
-28.417839 42.876144 -3.559425
-28.297154 42.420151 -4.381837
-24.995525 46.443031 -8.347497
-25.445667 45.557361 -7.882438
-24.571545 45.761994 -8.894783
-24.995525 46.443031 -8.347497
-24.492807 47.317841 -8.786489
-23.608961 47.515938 -9.777347
-24.037026 48.276471 -9.294299
-23.57716 49.155605 -9.737869
-22.357808 54.811922 -11.50662
-22.731372 54.058817 -10.894113
-21.968978 62.236176 -12.802967
-21.593432 63.05619 -13.698632
-21.990258 60.623026 -12.697924
-21.968978 62.236176 -12.802967
-21.995609 59.05768 -12.455179
-21.990258 60.623026 -12.697924
-21.618613 59.959419 -13.232181
-22.009403 57.3752 -12.295023
-21.995609 59.05768 -12.455179
-21.931801 55.732464 -12.13145
-22.009403 57.3752 -12.295023
-21.546362 56.751337 -12.825863
-21.894767 54.188059 -12.03746
-22.357808 54.811922 -11.50662
-21.931801 55.732464 -12.13145
-17.555194 70.017956 -22.562261
-17.995936 69.508145 -21.633835
-17.184464 68.936149 -22.844864
-17.555194 70.017956 -22.562261
-16.780199 67.801246 -23.041846
-17.199841 67.407921 -22.206187
-17.184464 68.936149 -22.844864
-16.359773 66.805382 -23.32351
-16.780199 67.801246 -23.041846
-16.344396 68.33361 -23.962187
-14.900792 69.297428 -26.753887
-14.487896 68.089214 -26.990052
-15.388065 68.960167 -25.802852
-14.900792 69.297428 -26.753887
-15.432583 67.615212 -25.179623
-15.879453 68.682702 -24.86708
-15.388065 68.960167 -25.802852
-10.56075 63.441534 -32.857236
-10.82455 64.767851 -32.688845
-10.425043 64.628822 -33.521961
-8.537651 56.522498 -36.808979
-8.806652 56.81361 -36.117409
-8.609113 57.59477 -36.572689
-8.52645 55.607346 -36.944506
-8.537651 56.522498 -36.808979
-18.796891 13.920603 -20.688877
-18.703339 13.196998 -19.758902
-18.149752 14.526203 -19.893193
-18.796891 13.920603 -20.688877
-18.850901 14.814186 -21.656251
-14.18591 28.50681 -20.843792
-14.244966 27.822682 -19.977455
-14.078046 29.271043 -21.707574
-14.18591 28.50681 -20.843792
-13.831867 30.240437 -20.976029
-14.018937 29.957345 -22.569938
-14.372981 28.223717 -22.437702
-14.078046 29.271043 -21.707574
-13.635108 33.670786 -28.223802
-14.064405 32.092889 -28.160356
-13.725691 32.97311 -27.2624
-13.562057 34.217911 -29.230691
-13.635108 33.670786 -28.223802
-13.223342 35.098131 -28.332735
-13.499986 34.813704 -30.372857
-13.562057 34.217911 -29.230691
-13.385877 35.418171 -31.394534
-13.499986 34.813704 -30.372857
-13.036181 36.249724 -30.3613
-13.273041 36.033696 -32.494772
-13.385877 35.418171 -31.394534
-13.162876 36.516959 -33.585342
-13.273041 36.033696 -32.494772
-12.811906 37.337454 -32.473547
-13.008896 37.092333 -34.574514
-13.162876 36.516959 -33.585342
-12.509671 38.406615 -34.601826
-12.816826 37.67823 -35.612223
-13.008896 37.092333 -34.574514
-8.52645 55.607346 -36.944506
-8.460383 54.663505 -37.327864
-8.669124 54.797497 -36.737057
3 0 98 96
3 0 96 99
3 395 394 100
3 1 103 101
3 1 105 103
3 2 108 106
3 2 110 108
3 3 113 111
3 3 396 397
3 3 398 400
3 398 111 399
3 398 399 400
3 4 116 114
3 401 119 402
3 404 403 119
3 5 123 121
3 5 125 123
3 6 128 126
3 6 130 128
3 7 133 131
3 8 136 134
3 9 139 137
3 9 141 139
3 9 143 141
3 11 146 144
3 11 148 146
3 12 405 407
3 407 406 149
3 405 406 407
3 12 408 410
3 408 150 409
3 408 409 410
3 12 152 150
3 13 155 153
3 13 157 155
3 14 160 158
3 14 163 162
3 14 158 163
3 15 167 165
3 16 170 168
3 16 172 170
3 411 175 412
3 413 412 173
3 411 412 413
3 414 177 415
3 416 415 175
3 414 415 416
3 417 179 418
3 419 418 177
3 417 418 419
3 17 420 422
3 420 181 421
3 420 421 422
3 17 183 181
3 18 186 184
3 18 188 186
3 18 190 188
3 19 193 191
3 19 195 193
3 20 423 425
3 423 196 424
3 423 424 425
3 20 198 196
3 20 200 198
3 22 426 428
3 428 427 203
3 426 427 428
3 22 429 431
3 429 430 431
3 22 432 433
3 435 434 204
3 23 436 438
3 438 437 205
3 436 437 438
3 23 439 440
3 10 208 206
3 24 211 209
3 24 213 211
3 24 215 213
3 21 218 216
3 21 220 218
3 441 221 442
3 26 222 97
3 26 223 222
3 27 226 224
3 28 229 227
3 30 230 102
3 30 231 230
3 30 233 231
3 32 234 104
3 32 235 234
3 33 237 236
3 35 238 107
3 35 239 238
3 35 241 239
3 37 242 109
3 37 243 242
3 38 246 244
3 40 247 112
3 40 443 445
3 445 444 247
3 443 444 445
3 38 446 448
3 446 248 447
3 446 447 448
3 38 244 248
3 41 251 249
3 43 252 115
3 43 253 252
3 449 254 450
3 451 255 452
3 453 452 254
3 451 452 453
3 454 257 455
3 456 455 255
3 454 455 456
3 46 258 117
3 46 259 258
3 457 261 458
3 459 263 460
3 461 460 261
3 459 460 461
3 462 264 463
3 464 463 118
3 462 463 464
3 466 465 264
3 47 265 120
3 47 266 265
3 48 269 267
3 50 270 122
3 50 271 270
3 50 273 271
3 52 274 124
3 52 275 274
3 25 467 468
3 53 469 471
3 471 470 127
3 469 470 471
3 53 472 473
3 53 474 476
3 474 276 475
3 474 475 476
3 54 277 129
3 54 278 277
3 55 280 279
3 477 281 478
3 479 478 132
3 477 478 479
3 480 282 481
3 482 481 281
3 480 481 482
3 484 483 225
3 485 283 486
3 487 284 488
3 489 488 283
3 487 488 489
3 490 285 491
3 494 493 285
3 492 493 494
3 56 495 496
3 57 497 499
3 499 498 135
3 497 498 499
3 57 500 501
3 29 287 228
3 58 288 138
3 58 502 504
3 504 503 288
3 502 503 504
3 58 505 507
3 505 289 506
3 505 506 507
3 59 290 140
3 59 291 290
3 59 293 291
3 61 294 142
3 61 295 294
3 31 296 232
3 62 297 145
3 62 298 297
3 62 299 298
3 63 300 147
3 63 301 300
3 34 508 509
3 510 302 511
3 64 303 151
3 64 304 303
3 36 305 240
3 65 306 154
3 65 307 306
3 65 308 307
3 66 309 156
3 66 310 309
3 67 313 311
3 69 314 159
3 69 315 314
3 39 316 245
3 70 317 161
3 70 318 317
3 70 319 318
3 512 320 513
3 515 514 320
3 71 516 518
3 516 517 518
3 71 519 520
3 71 521 522
3 67 321 164
3 67 311 321
3 68 322 312
3 72 323 166
3 72 324 323
3 42 325 250
3 73 326 169
3 73 327 326
3 73 328 327
3 74 329 171
3 74 330 329
3 523 331 524
3 525 524 286
3 523 524 525
3 75 526 528
3 526 332 527
3 526 527 528
3 75 333 332
3 76 529 531
3 531 530 174
3 529 530 531
3 76 532 534
3 532 334 533
3 532 533 534
3 76 335 334
3 77 336 176
3 77 337 336
3 77 338 337
3 78 339 178
3 78 340 339
3 535 341 536
3 79 342 180
3 79 343 342
3 79 344 343
3 80 345 182
3 80 346 345
3 44 537 539
3 537 347 538
3 537 538 539
3 81 348 185
3 81 349 348
3 81 350 349
3 82 351 187
3 82 352 351
3 82 353 352
3 83 354 189
3 83 355 354
3 45 356 256
3 84 357 192
3 84 358 357
3 84 359 358
3 85 360 194
3 85 361 360
3 540 362 541
3 86 542 544
3 542 363 543
3 542 543 544
3 86 364 363
3 86 365 364
3 87 366 197
3 87 367 366
3 87 368 367
3 88 369 199
3 88 370 369
3 545 371 546
3 547 546 260
3 545 546 547
3 89 372 201
3 89 373 372
3 89 374 373
3 548 375 549
3 550 549 202
3 548 549 550
3 552 551 375
3 555 554 262
3 553 554 555
3 60 377 292
3 91 378 207
3 91 379 378
3 49 380 268
3 92 381 210
3 92 382 381
3 92 383 382
3 93 384 212
3 93 385 384
3 93 386 385
3 94 387 214
3 94 388 387
3 51 389 272
3 95 390 217
3 95 391 390
3 95 392 391
3 90 393 219
3 90 376 393
3 96 556 558
3 556 97 557
3 556 557 558
3 98 97 96
3 98 26 97
3 99 559 560
3 96 561 563
3 563 562 99
3 561 562 563
3 96 564 565
3 100 566 568
3 568 567 27
3 566 567 568
3 570 569 100
3 101 102 28
3 103 102 101
3 103 30 102
3 103 104 30
3 105 104 103
3 105 32 104
3 106 107 33
3 108 107 106
3 108 35 107
3 108 109 35
3 110 109 108
3 110 37 109
3 111 112 38
3 113 112 111
3 113 40 112
3 111 571 572
3 111 573 575
3 573 38 574
3 573 574 575
3 114 115 41
3 116 115 114
3 116 43 115
3 576 117 577
3 578 117 579
3 580 46 581
3 582 581 117
3 580 581 582
3 583 118 584
3 119 585 587
3 585 118 586
3 585 586 587
3 119 588 590
3 590 589 118
3 588 589 590
3 119 591 593
3 591 120 592
3 591 592 593
3 594 120 595
3 596 595 119
3 594 595 596
3 597 47 598
3 599 598 120
3 597 598 599
3 121 122 48
3 123 122 121
3 123 50 122
3 123 124 50
3 125 124 123
3 125 52 124
3 126 127 25
3 128 127 126
3 128 53 127
3 128 129 53
3 130 129 128
3 130 54 129
3 131 132 55
3 133 132 131
3 133 600 602
3 602 601 132
3 600 601 602
3 134 135 56
3 136 135 134
3 136 57 135
3 137 138 29
3 139 138 137
3 139 58 138
3 139 140 58
3 141 140 139
3 141 59 140
3 141 142 59
3 143 142 141
3 143 61 142
3 144 145 31
3 146 145 144
3 146 62 145
3 146 147 62
3 148 147 146
3 148 63 147
3 149 603 605
3 605 604 34
3 603 604 605
3 607 606 149
3 150 608 609
3 150 610 611
3 150 612 614
3 612 151 613
3 612 613 614
3 152 151 150
3 152 64 151
3 153 154 36
3 155 154 153
3 155 65 154
3 155 156 65
3 157 156 155
3 157 66 156
3 158 159 67
3 160 159 158
3 160 69 159
3 615 161 616
3 617 616 39
3 615 616 617
3 618 161 619
3 620 70 621
3 622 621 161
3 620 621 622
3 624 623 70
3 162 625 626
3 163 627 629
3 629 628 162
3 627 628 629
3 163 630 632
3 630 71 631
3 630 631 632
3 163 164 71
3 158 164 163
3 158 67 164
3 165 166 68
3 167 166 165
3 167 72 166
3 168 169 42
3 170 169 168
3 170 73 169
3 170 171 73
3 172 171 170
3 172 74 171
3 633 75 634
3 173 635 637
3 635 174 636
3 635 636 637
3 175 174 173
3 175 76 174
3 175 176 76
3 177 176 175
3 177 77 176
3 177 178 77
3 179 178 177
3 179 78 178
3 638 180 639
3 181 640 642
3 640 180 641
3 640 641 642
3 181 79 180
3 181 182 79
3 183 182 181
3 183 80 182
3 184 185 44
3 186 185 184
3 186 81 185
3 186 187 81
3 188 187 186
3 188 82 187
3 188 189 82
3 190 189 188
3 190 83 189
3 191 192 45
3 193 192 191
3 193 84 192
3 193 194 84
3 195 194 193
3 195 85 194
3 196 643 644
3 196 645 647
3 645 86 646
3 645 646 647
3 196 197 86
3 198 197 196
3 198 87 197
3 198 199 87
3 200 199 198
3 200 88 199
3 648 201 649
3 650 201 651
3 652 89 653
3 654 653 201
3 652 653 654
3 655 202 656
3 657 656 89
3 655 656 657
3 658 202 659
3 661 660 202
3 203 662 663
3 665 664 203
3 204 666 667
3 669 668 204
3 205 670 671
3 673 672 205
3 206 207 60
3 208 207 206
3 208 91 207
3 209 210 49
3 211 210 209
3 211 92 210
3 211 212 92
3 213 212 211
3 213 93 212
3 213 214 93
3 215 214 213
3 215 94 214
3 216 217 51
3 218 217 216
3 218 95 217
3 218 219 95
3 220 219 218
3 220 90 219
3 221 674 675
3 221 676 678
3 676 25 677
3 676 677 678
3 97 679 681
3 679 221 680
3 679 680 681
3 222 221 97
3 222 25 221
3 222 126 25
3 223 126 222
3 223 6 126
3 224 225 7
3 226 225 224
3 226 682 684
3 684 683 225
3 682 683 684
3 685 226 686
3 687 686 27
3 685 686 687
3 688 226 689
3 691 690 226
3 227 228 8
3 229 228 227
3 229 29 228
3 102 229 28
3 230 229 102
3 230 29 229
3 230 137 29
3 231 137 230
3 231 9 137
3 231 232 9
3 233 232 231
3 233 31 232
3 104 233 30
3 234 233 104
3 234 31 233
3 234 144 31
3 235 144 234
3 235 11 144
3 236 692 693
3 237 694 696
3 696 695 236
3 694 695 696
3 237 697 699
3 697 34 698
3 697 698 699
3 107 237 33
3 238 237 107
3 238 34 237
3 238 149 34
3 239 149 238
3 239 12 149
3 239 240 12
3 241 240 239
3 241 36 240
3 109 241 35
3 242 241 109
3 242 36 241
3 242 153 36
3 243 153 242
3 243 13 153
3 244 245 14
3 246 245 244
3 246 39 245
3 112 246 38
3 247 246 112
3 247 39 246
3 247 700 702
3 702 701 39
3 700 701 702
3 704 703 247
3 248 705 706
3 248 707 708
3 248 709 711
3 709 162 710
3 709 710 711
3 244 162 248
3 244 14 162
3 249 250 15
3 251 250 249
3 251 42 250
3 115 251 41
3 252 251 115
3 252 42 251
3 252 168 42
3 253 168 252
3 253 16 168
3 712 173 713
3 714 173 715
3 717 716 173
3 718 17 719
3 720 44 721
3 254 722 723
3 254 724 726
3 724 44 725
3 724 725 726
3 254 184 44
3 255 184 254
3 255 18 184
3 255 256 18
3 257 256 255
3 257 45 256
3 117 727 729
3 727 257 728
3 727 728 729
3 258 257 117
3 258 45 257
3 258 191 45
3 259 191 258
3 259 19 191
3 730 20 731
3 732 260 733
3 734 733 20
3 732 733 734
3 735 260 736
3 738 737 260
3 739 203 740
3 261 741 743
3 741 203 742
3 741 742 743
3 261 22 203
3 261 262 22
3 263 262 261
3 263 744 746
3 746 745 262
3 744 745 746
3 118 747 749
3 747 263 748
3 747 748 749
3 264 263 118
3 264 750 752
3 752 751 263
3 750 751 752
3 264 753 755
3 753 204 754
3 753 754 755
3 756 204 757
3 758 757 264
3 756 757 758
3 761 760 204
3 759 760 761
3 120 762 763
3 265 764 766
3 766 765 120
3 764 765 766
3 265 767 768
3 265 769 771
3 769 205 770
3 769 770 771
3 266 205 265
3 266 23 205
3 267 268 10
3 269 268 267
3 269 49 268
3 122 269 48
3 270 269 122
3 270 49 269
3 270 209 49
3 271 209 270
3 271 24 209
3 271 272 24
3 273 272 271
3 273 51 272
3 124 273 50
3 274 273 124
3 274 51 273
3 274 216 51
3 275 216 274
3 275 21 216
3 127 772 774
3 774 773 25
3 772 773 774
3 776 775 127
3 777 236 778
3 276 779 781
3 779 236 780
3 779 780 781
3 276 33 236
3 129 276 53
3 277 276 129
3 277 33 276
3 277 106 33
3 278 106 277
3 278 2 106
3 279 782 783
3 280 784 786
3 786 785 279
3 784 785 786
3 280 787 789
3 787 788 789
3 132 280 55
3 281 280 132
3 281 790 792
3 792 791 280
3 790 791 792
3 281 793 794
3 282 795 797
3 797 796 281
3 795 796 797
3 282 798 799
3 225 133 7
3 800 133 801
3 802 801 225
3 800 801 802
3 804 803 133
3 805 282 806
3 283 807 809
3 807 282 808
3 807 808 809
3 283 810 812
3 812 811 282
3 810 811 812
3 283 813 814
3 284 815 817
3 817 816 283
3 815 816 817
3 284 818 819
3 820 284 821
3 285 822 824
3 822 284 823
3 822 823 824
3 285 825 827
3 827 826 284
3 825 826 827
3 285 828 829
3 832 831 285
3 830 831 832
3 835 834 3
3 833 834 835
3 836 3 837
3 838 286 839
3 840 839 4
3 838 839 840
3 841 286 842
3 844 843 286
3 135 845 847
3 847 846 56
3 845 846 847
3 849 848 135
3 228 136 8
3 287 136 228
3 287 57 136
3 138 287 29
3 288 287 138
3 288 57 287
3 288 850 852
3 852 851 57
3 850 851 852
3 854 853 288
3 289 855 856
3 289 857 858
3 140 289 58
3 290 289 140
3 290 859 861
3 861 860 289
3 859 860 861
3 290 862 863
3 291 864 866
3 866 865 290
3 864 865 866
3 291 867 868
3 291 869 871
3 869 292 870
3 869 870 871
3 293 292 291
3 293 60 292
3 142 293 59
3 294 293 142
3 294 60 293
3 294 206 60
3 295 206 294
3 295 10 206
3 232 143 9
3 296 143 232
3 296 61 143
3 145 296 31
3 297 296 145
3 297 61 296
3 297 295 61
3 298 295 297
3 298 10 295
3 298 267 10
3 299 267 298
3 299 48 267
3 147 299 62
3 300 299 147
3 300 48 299
3 300 121 48
3 301 121 300
3 301 5 121
3 873 872 34
3 302 874 875
3 302 876 878
3 876 56 877
3 876 877 878
3 151 879 881
3 879 302 880
3 879 880 881
3 303 302 151
3 303 56 302
3 303 134 56
3 304 134 303
3 304 8 134
3 240 152 12
3 305 152 240
3 305 64 152
3 154 305 36
3 306 305 154
3 306 64 305
3 306 304 64
3 307 304 306
3 307 8 304
3 307 227 8
3 308 227 307
3 308 28 227
3 156 308 65
3 309 308 156
3 309 28 308
3 309 101 28
3 310 101 309
3 310 1 101
3 311 312 0
3 313 312 311
3 313 68 312
3 159 313 67
3 314 313 159
3 314 68 313
3 314 165 68
3 315 165 314
3 315 15 165
3 245 160 14
3 316 160 245
3 316 69 160
3 161 316 39
3 317 316 161
3 317 69 316
3 317 315 69
3 318 315 317
3 318 15 315
3 318 249 15
3 319 249 318
3 319 41 249
3 882 319 883
3 884 883 70
3 882 883 884
3 320 885 887
3 885 319 886
3 885 886 887
3 320 41 319
3 320 114 41
3 888 114 889
3 890 889 320
3 888 889 890
3 891 4 892
3 893 892 114
3 891 892 893
3 894 113 895
3 896 895 3
3 894 895 896
3 897 113 898
3 899 40 900
3 901 900 113
3 899 900 901
3 902 40 903
3 905 904 40
3 906 4 907
3 909 908 4
3 164 910 912
3 912 911 71
3 910 911 912
3 321 913 915
3 915 914 164
3 913 914 915
3 321 916 917
3 321 918 920
3 918 99 919
3 918 919 920
3 311 99 321
3 311 0 99
3 312 98 0
3 322 98 312
3 322 26 98
3 166 322 68
3 323 322 166
3 323 26 322
3 323 223 26
3 324 223 323
3 324 6 223
3 250 167 15
3 325 167 250
3 325 72 167
3 169 325 42
3 326 325 169
3 326 72 325
3 326 324 72
3 327 324 326
3 327 6 324
3 327 130 6
3 328 130 327
3 328 54 130
3 171 328 73
3 329 328 171
3 329 54 328
3 329 278 54
3 330 278 329
3 330 2 278
3 286 116 4
3 331 116 286
3 331 43 116
3 921 331 922
3 332 923 925
3 923 331 924
3 923 924 925
3 332 43 331
3 332 253 43
3 333 253 332
3 333 16 253
3 926 75 927
3 174 928 929
3 931 930 174
3 932 75 933
3 934 333 935
3 936 935 75
3 934 935 936
3 334 937 939
3 937 333 938
3 937 938 939
3 334 16 333
3 334 172 16
3 335 172 334
3 335 74 172
3 176 335 76
3 336 335 176
3 336 74 335
3 336 330 74
3 337 330 336
3 337 2 330
3 337 110 2
3 338 110 337
3 338 37 110
3 178 338 77
3 339 338 178
3 339 37 338
3 339 243 37
3 340 243 339
3 340 13 243
3 940 179 941
3 341 942 944
3 942 179 943
3 942 943 944
3 341 78 179
3 180 945 947
3 945 341 946
3 945 946 947
3 342 341 180
3 342 78 341
3 342 340 78
3 343 340 342
3 343 13 340
3 343 157 13
3 344 157 343
3 344 66 157
3 182 344 79
3 345 344 182
3 345 66 344
3 345 310 66
3 346 310 345
3 346 1 310
3 948 17 949
3 347 950 951
3 347 952 953
3 185 347 44
3 348 347 185
3 348 954 956
3 956 955 347
3 954 955 956
3 348 957 958
3 349 959 961
3 961 960 348
3 959 960 961
3 349 962 964
3 962 17 963
3 962 963 964
3 349 183 17
3 350 183 349
3 350 80 183
3 187 350 81
3 351 350 187
3 351 80 350
3 351 346 80
3 352 346 351
3 352 1 346
3 352 105 1
3 353 105 352
3 353 32 105
3 189 353 82
3 354 353 189
3 354 32 353
3 354 235 32
3 355 235 354
3 355 11 235
3 256 190 18
3 356 190 256
3 356 83 190
3 192 356 45
3 357 356 192
3 357 83 356
3 357 355 83
3 358 355 357
3 358 11 355
3 358 148 11
3 359 148 358
3 359 63 148
3 194 359 84
3 360 359 194
3 360 63 359
3 360 301 63
3 361 301 360
3 361 5 301
3 965 46 966
3 967 46 968
3 969 259 970
3 971 970 46
3 969 970 971
3 362 972 974
3 972 259 973
3 972 973 974
3 362 19 259
3 363 975 976
3 363 977 978
3 363 979 981
3 979 362 980
3 979 980 981
3 364 362 363
3 364 19 362
3 364 195 19
3 365 195 364
3 365 85 195
3 197 365 86
3 366 365 197
3 366 85 365
3 366 361 85
3 367 361 366
3 367 5 361
3 367 125 5
3 368 125 367
3 368 52 125
3 199 368 87
3 369 368 199
3 369 52 368
3 369 275 52
3 370 275 369
3 370 21 275
3 260 200 20
3 371 200 260
3 371 88 200
3 201 982 984
3 982 371 983
3 982 983 984
3 372 371 201
3 372 88 371
3 372 370 88
3 373 370 372
3 373 21 370
3 373 220 21
3 374 220 373
3 374 90 220
3 202 374 89
3 375 374 202
3 375 90 374
3 375 376 90
3 985 376 986
3 987 986 375
3 985 986 987
3 989 988 376
3 262 990 992
3 992 991 22
3 990 991 992
3 994 993 262
3 292 995 996
3 377 997 999
3 999 998 292
3 997 998 999
3 377 1000 1002
3 1000 47 1001
3 1000 1001 1002
3 207 377 60
3 378 377 207
3 378 47 377
3 378 266 47
3 379 266 378
3 379 23 266
3 268 208 10
3 380 208 268
3 380 91 208
3 210 380 49
3 381 380 210
3 381 91 380
3 381 379 91
3 382 379 381
3 382 23 379
3 382 1003 1005
3 1005 1004 23
3 1003 1004 1005
3 383 1006 1008
3 1008 1007 382
3 1006 1007 1008
3 383 1009 1010
3 212 383 92
3 384 383 212
3 384 1011 1013
3 1013 1012 383
3 1011 1012 1013
3 384 1014 1015
3 385 1016 1018
3 1018 1017 384
3 1016 1017 1018
3 385 1019 1020
3 385 1021 1023
3 1021 279 1022
3 1021 1022 1023
3 386 279 385
3 386 55 279
3 214 386 93
3 387 386 214
3 387 55 386
3 387 131 55
3 388 131 387
3 388 7 131
3 272 215 24
3 389 215 272
3 389 94 215
3 217 389 51
3 390 389 217
3 390 94 389
3 390 388 94
3 391 388 390
3 391 7 388
3 391 224 7
3 392 224 391
3 392 27 224
3 219 392 95
3 393 392 219
3 393 27 392
3 393 100 27
3 376 100 393
3 376 1024 1026
3 1026 1025 100
3 1024 1025 1026
