ply
format ascii 1.0
element vertex 230
property float x
property float y
property float z
element face 189
property list uchar int vertex_index
end_header
-6.723172 41.9921 -50.233326
-12.158587 36.035004 -53.208157
-0.807585 41.300247 -53.782513
-9.322148 38.728363 -51.628181
-9.223415 36.421833 -56.267651
-6.396709 38.932495 -54.140163
-3.835075 41.994678 -52.429771
-3.224992 38.066063 -55.908623
-2.821368 34.313457 -59.129707
-7.974351 40.239117 -50.975651
-7.991905 38.897263 -52.979141
-6.601257 40.393776 -52.200508
3.869395 39.023388 -54.477489
2.579848 36.979401 -55.521023
4.032921 35.965118 -55.36977
-11.893902 36.934662 -50.706043
-13.444411 35.440586 -51.586628
-15.004953 34.127617 -52.181789
-7.749679 36.2658 -57.319202
-2.673777 43.862019 -51.659565
-2.282872 41.716785 -53.22506
-3.559211 40.005867 -54.176983
-1.987483 39.525524 -54.810139
-1.209497 30.978241 -60.665501
-10.535795 38.438168 -49.948914
-10.628271 37.401691 -52.369743
-10.724831 36.34314 -54.90593
-9.384053 37.478176 -54.012856
-7.769883 37.597733 -55.191444
-6.168692 37.361446 -56.242058
0.750208 40.639877 -54.209366
-0.410728 38.868141 -55.220867
1.105009 37.999638 -55.467045
-6.907622 43.542763 -48.345188
-5.564865 43.915035 -49.570824
-4.209932 43.96579 -50.681431
-5.369144 41.944572 -51.52702
-5.091911 40.360626 -53.25835
-4.810484 38.609291 -55.163998
-4.567989 36.895367 -57.008053
-3.073621 36.194904 -57.552059
-7.348762 41.115609 -50.604489
-8.002721 40.992205 -49.882183
-7.377131 41.868696 -49.511021
4.626537 38.524324 -54.431655
4.558376 40.137197 -54.0557
4.7083 36.995189 -54.877796
3.951158 37.494253 -54.92363
4.626537 38.524324 -54.431655
-12.949697 35.398526 -53.672062
-13.59261 35.101317 -52.861297
-12.801499 35.737795 -52.397392
-12.200146 35.641913 -54.487502
-12.949697 35.398526 -53.672062
-7.64054 35.615474 -58.354885
-6.915511 36.052164 -57.769853
-0.986663 42.502764 -53.062195
-0.196365 42.22776 -53.378781
-1.545228 41.508516 -53.503787
-1.724306 42.711033 -52.783468
-0.986663 42.502764 -53.062195
-0.517215 31.385143 -59.910983
-1.285961 32.034866 -60.005791
-9.928971 38.583265 -50.788547
-9.849573 39.266849 -49.663488
-9.242749 39.411947 -50.503122
1.583843 40.241993 -54.319546
1.426191 41.571298 -53.807906
1.761243 38.921874 -54.948386
0.927608 39.319757 -54.838206
1.583843 40.241993 -54.319546
1.921326 36.273032 -56.061933
2.648707 35.603319 -56.020048
-6.986061 44.433647 -47.362621
-7.474721 43.475401 -47.50243
-15.850002 33.474291 -52.459772
-15.186307 33.882824 -53.401445
-9.999845 35.887878 -56.797463
-10.750553 35.848532 -56.116602
-9.974123 36.382486 -55.58679
-5.104446 44.938204 -49.233647
-5.752096 44.834736 -48.605143
-1.074019 38.114925 -55.802614
-0.321986 37.690184 -55.914669
-2.947495 35.254181 -58.340883
-2.289938 35.749949 -57.690942
-2.163812 34.809225 -58.479766
-3.620413 34.756973 -58.959407
-3.746539 35.697696 -58.170583
-2.947495 35.254181 -58.340883
-3.57606 33.898508 -59.84052
-3.620413 34.756973 -58.959407
-8.56885 40.167324 -50.176857
-8.002721 40.992205 -49.882183
-8.64825 39.48374 -51.301916
-9.242749 39.411947 -50.503122
-8.56885 40.167324 -50.176857
3.784876 40.52568 -54.016559
4.558376 40.137197 -54.0557
3.143436 39.433749 -54.453608
3.784876 40.52568 -54.016559
3.224622 38.001395 -54.999256
2.498663 38.411755 -54.975375
3.143436 39.433749 -54.453608
3.375243 35.096178 -55.944422
2.648707 35.603319 -56.020048
3.306385 36.472259 -55.445397
-12.49211 36.560681 -49.873362
-11.778144 37.405135 -49.451756
-13.267364 35.813643 -50.313654
-12.49211 36.560681 -49.873362
-12.669156 36.187624 -51.146335
-13.985819 35.081661 -50.609472
-13.267364 35.813643 -50.313654
-14.224682 34.784102 -51.884208
-14.76609 34.425176 -50.907053
-13.985819 35.081661 -50.609472
-14.372881 34.444832 -53.158878
-14.224682 34.784102 -51.884208
-13.59261 35.101317 -52.861297
-15.186307 33.882824 -53.401445
-14.372881 34.444832 -53.158878
-8.485126 35.74381 -57.953753
-9.221993 35.821827 -57.427977
-8.486547 36.343817 -56.793426
-8.485126 35.74381 -57.953753
-7.64054 35.615474 -58.354885
-1.919759 43.783649 -52.000721
-2.163356 44.921894 -51.298986
-2.478324 42.789402 -52.442312
-1.919759 43.783649 -52.000721
-1.724306 42.711033 -52.783468
-2.091897 33.702475 -59.237894
-2.163812 34.809225 -58.479766
-2.789871 33.353454 -59.924554
-2.091897 33.702475 -59.237894
-1.983935 31.685847 -60.692452
-1.285961 32.034866 -60.005791
-1.903576 30.711638 -61.403023
-1.983935 31.685847 -60.692452
-10.419006 39.033343 -48.838791
-9.849573 39.266849 -49.663488
-11.09909 38.156887 -49.073191
-10.419006 39.033343 -48.838791
-11.214849 37.686415 -50.327478
-11.778144 37.405135 -49.451756
-11.09909 38.156887 -49.073191
-6.125018 36.599987 -57.231282
-6.915511 36.052164 -57.769853
-6.959186 36.813623 -56.78063
0.582531 41.897575 -53.592207
1.426191 41.571298 -53.807906
-0.028689 40.970062 -53.99594
-0.196365 42.22776 -53.378781
0.582531 41.897575 -53.592207
0.435882 37.255932 -56.037758
-0.321986 37.690184 -55.914669
0.34714 38.433889 -55.343956
1.842429 37.48952 -55.494034
1.761243 38.921874 -54.948386
2.498663 38.411755 -54.975375
1.183906 36.78315 -56.034944
1.842429 37.48952 -55.494034
1.921326 36.273032 -56.061933
0.435882 37.255932 -56.037758
1.183906 36.78315 -56.034944
-7.469356 42.644028 -48.566952
-7.474721 43.475401 -47.50243
-6.815397 42.767432 -49.289257
-7.377131 41.868696 -49.511021
-7.469356 42.644028 -48.566952
-15.523777 33.730837 -51.188356
-14.76609 34.425176 -50.907053
-15.523777 33.730837 -51.188356
-15.850002 33.474291 -52.459772
-11.483268 35.79598 -55.336388
-12.200146 35.641913 -54.487502
-11.441709 36.189072 -54.057043
-11.483268 35.79598 -55.336388
-10.750553 35.848532 -56.116602
-9.999845 35.887878 -56.797463
-9.221993 35.821827 -57.427977
-6.423474 44.6486 -47.992325
-6.986061 44.433647 -47.362621
-6.236244 43.728899 -48.958006
-6.423474 44.6486 -47.992325
-5.752096 44.834736 -48.605143
-2.922961 44.946776 -50.845197
-2.163356 44.921894 -51.298986
-3.691039 44.998661 -50.356131
-2.922961 44.946776 -50.845197
-3.441854 43.913905 -51.170498
-4.426979 44.963581 -49.78895
-3.691039 44.998661 -50.356131
-4.887398 43.940413 -50.126128
-5.104446 44.938204 -49.233647
-4.426979 44.963581 -49.78895
-5.324666 36.366947 -57.614279
-6.125018 36.599987 -57.231282
-5.368341 37.128406 -56.625056
-1.862397 38.443617 -55.59725
-1.199105 39.196832 -55.015503
-1.074019 38.114925 -55.802614
-2.481151 37.713887 -56.146492
-2.606237 38.795794 -55.359381
-1.862397 38.443617 -55.59725
-2.405466 36.778307 -56.96821
-2.289938 35.749949 -57.690942
-3.149306 37.130483 -56.730341
-2.481151 37.713887 -56.146492
-2.405466 36.778307 -56.96821
-4.493723 36.047928 -57.89858
-3.820805 36.545136 -57.280056
-3.746539 35.697696 -58.170583
-5.324666 36.366947 -57.614279
-4.493723 36.047928 -57.89858
-3.57606 33.898508 -59.84052
-2.789871 33.353454 -59.924554
4.752667 35.437246 -55.213043
4.7083 36.995189 -54.877796
4.073799 34.464963 -55.777695
4.752667 35.437246 -55.213043
3.375243 35.096178 -55.944422
4.073799 34.464963 -55.777695
-0.492628 30.287311 -60.45706
-0.517215 31.385143 -59.910983
-1.185071 29.905328 -61.299372
-0.492628 30.287311 -60.45706
-1.903576 30.711638 -61.403023
-1.185071 29.905328 -61.299372
3 0 41 43
3 41 9 42
3 41 42 43
3 0 11 9
3 44 12 45
3 46 14 47
3 48 47 12
3 46 47 48
3 1 16 15
3 1 49 51
3 51 50 16
3 49 50 51
3 1 52 53
3 55 54 18
3 2 56 57
3 2 58 60
3 58 20 59
3 58 59 60
3 2 22 20
3 61 23 62
3 3 63 65
3 63 24 64
3 63 64 65
3 3 25 24
3 3 27 25
3 5 28 10
3 5 29 28
3 66 30 67
3 68 32 69
3 70 69 30
3 68 69 70
3 72 71 13
3 73 33 74
3 76 75 17
3 4 77 79
3 79 78 26
3 77 78 79
3 80 34 81
3 6 35 19
3 6 36 35
3 6 37 36
3 7 38 21
3 7 39 38
3 83 82 31
3 8 84 86
3 84 40 85
3 84 85 86
3 8 87 89
3 89 88 40
3 87 88 89
3 8 90 91
3 9 92 93
3 9 94 96
3 94 3 95
3 94 95 96
3 9 10 3
3 11 10 9
3 11 5 10
3 12 97 98
3 12 99 100
3 12 101 103
3 101 13 102
3 101 102 103
3 14 13 12
3 14 104 106
3 106 105 13
3 104 105 106
3 15 107 108
3 16 109 111
3 111 110 15
3 109 110 111
3 16 112 113
3 16 114 116
3 114 17 115
3 114 115 116
3 117 17 118
3 119 118 16
3 117 118 119
3 121 120 17
3 18 122 124
3 124 123 4
3 122 123 124
3 126 125 18
3 127 19 128
3 20 129 131
3 129 19 130
3 129 130 131
3 20 6 19
3 20 21 6
3 22 21 20
3 22 7 21
3 132 8 133
3 135 134 8
3 23 136 137
3 23 138 139
3 24 140 141
3 24 142 143
3 24 144 146
3 144 15 145
3 144 145 146
3 25 15 24
3 25 1 15
3 25 26 1
3 27 26 25
3 27 4 26
3 10 27 3
3 28 27 10
3 28 4 27
3 28 18 4
3 29 18 28
3 29 147 149
3 149 148 18
3 147 148 149
3 30 150 151
3 30 152 154
3 152 2 153
3 152 153 154
3 30 31 2
3 32 31 30
3 32 155 157
3 157 156 31
3 155 156 157
3 13 158 160
3 158 32 159
3 158 159 160
3 161 32 162
3 163 162 13
3 161 162 163
3 165 164 32
3 33 166 167
3 33 168 170
3 168 0 169
3 168 169 170
3 17 171 172
3 174 173 17
3 26 175 177
3 177 176 1
3 175 176 177
3 179 178 26
3 181 180 4
3 182 33 183
3 34 184 186
3 184 33 185
3 184 185 186
3 34 0 33
3 19 187 188
3 35 189 191
3 191 190 19
3 189 190 191
3 35 192 193
3 35 194 196
3 194 34 195
3 194 195 196
3 36 34 35
3 36 0 34
3 36 11 0
3 37 11 36
3 37 5 11
3 21 37 6
3 38 37 21
3 38 5 37
3 38 29 5
3 39 29 38
3 39 197 199
3 199 198 29
3 197 198 199
3 31 22 2
3 200 22 201
3 202 201 31
3 200 201 202
3 203 7 204
3 205 204 22
3 203 204 205
3 40 206 207
3 40 208 210
3 208 7 209
3 208 209 210
3 40 39 7
3 211 39 212
3 213 212 40
3 211 212 213
3 215 214 39
3 217 216 8
3 218 14 219
3 220 14 221
3 223 222 14
3 224 23 225
3 226 23 227
3 229 228 23
