ply
format ascii 1.0
element vertex 107
property float x
property float y
property float z
element face 83
property list uchar int vertex_index
end_header
29.248367 57.094955 44.529713
29.615101 63.474812 38.719845
30.606441 61.991219 34.378498
30.042868 49.750031 45.35067
30.311342 65.649094 33.590752
29.424122 60.238209 41.789108
30.006798 59.874058 39.36055
29.844749 56.667618 42.312252
29.700029 53.230717 45.124859
28.958305 63.924114 40.858414
30.184278 62.665504 36.47633
28.485352 57.303082 46.627754
29.07741 53.748287 47.145393
29.522726 50.024632 47.669449
30.15298 67.459091 33.012083
30.400021 67.082692 31.91964
28.545333 63.976495 41.913162
28.668078 65.66815 40.389814
28.835662 62.297537 42.359509
28.545333 63.976495 41.913162
30.82019 61.507061 33.225668
30.906559 62.849754 31.725768
30.69281 63.333912 32.878598
30.734226 60.018576 34.735676
30.947975 59.534418 33.582846
30.82019 61.507061 33.225668
29.89969 63.070158 37.598087
29.996634 64.629146 35.994978
29.712045 65.0338 37.116736
30.233109 59.410212 38.33857
30.150218 57.920555 39.809384
30.234784 49.4205 44.273575
30.303878 50.960833 43.015941
30.111961 51.290363 44.093036
30.159689 47.910912 45.533383
30.351605 47.581381 44.456288
30.234784 49.4205 44.273575
28.069786 57.236065 47.508734
28.177402 59.02903 46.179974
27.761836 58.962013 47.060953
28.964914 52.036092 48.42764
28.696092 53.686426 48.175272
29.187573 50.174265 48.689668
29.300068 51.88646 47.407421
28.964914 52.036092 48.42764
30.54526 65.162849 32.484725
30.633939 66.596447 30.813613
30.400021 67.082692 31.91964
30.458892 63.820157 33.984625
30.69281 63.333912 32.878598
30.54526 65.162849 32.484725
30.069194 56.317335 41.285235
30.150218 57.920555 39.809384
29.925773 58.270838 40.836401
30.012902 54.749157 42.573828
30.069194 56.317335 41.285235
29.940542 53.030707 43.980131
30.012902 54.749157 42.573828
29.772389 54.949168 43.718556
29.871448 51.490374 45.237764
30.111961 51.290363 44.093036
29.940542 53.030707 43.980131
29.403156 65.265898 38.21801
29.712045 65.0338 37.116736
29.074758 65.490549 39.287295
28.668078 65.66815 40.389814
29.286703 63.699463 39.78913
29.403156 65.265898 38.21801
29.074758 65.490549 39.287295
29.068571 60.454584 42.824855
29.191213 62.081162 41.323761
28.835662 62.297537 42.359509
28.980694 58.882957 44.195158
29.336244 58.666582 43.15941
29.068571 60.454584 42.824855
30.060166 66.120942 34.552189
30.15298 67.459091 33.012083
30.24781 64.157299 35.033541
30.060166 66.120942 34.552189
29.996634 64.629146 35.994978
30.321849 60.805934 36.896459
30.095538 61.269781 37.91844
30.233109 59.410212 38.33857
30.53293 60.468792 35.847544
30.395359 62.328361 35.427414
30.321849 60.805934 36.896459
30.734226 60.018576 34.735676
30.53293 60.468792 35.847544
28.599186 58.98702 45.244179
28.177402 59.02903 46.179974
28.866859 57.199019 45.578733
28.980694 58.882957 44.195158
28.599186 58.98702 45.244179
28.400063 55.463824 47.916453
28.069786 57.236065 47.508734
28.781381 55.525684 46.886573
28.400063 55.463824 47.916453
28.696092 53.686426 48.175272
29.422247 48.385479 48.889668
29.187573 50.174265 48.689668
29.698374 48.259762 47.795313
29.422247 48.385479 48.889668
29.958445 48.122462 46.635924
29.782797 49.887332 46.510059
29.698374 48.259762 47.795313
30.159689 47.910912 45.533383
29.958445 48.122462 46.635924
3 14 4 15
3 0 7 5
3 0 8 7
3 16 9 17
3 19 18 9
3 2 20 22
3 20 21 22
3 2 23 25
3 23 24 25
3 1 26 28
3 26 10 27
3 26 27 28
3 30 29 6
3 3 31 33
3 31 32 33
3 3 34 36
3 34 35 36
3 37 11 38
3 37 38 39
3 40 12 41
3 42 13 43
3 44 43 12
3 42 43 44
3 4 45 47
3 45 46 47
3 4 48 50
3 48 2 49
3 48 49 50
3 5 6 1
3 7 6 5
3 7 51 53
3 53 52 6
3 51 52 53
3 7 54 55
3 8 56 58
3 58 57 7
3 56 57 58
3 8 59 61
3 59 3 60
3 59 60 61
3 62 1 63
3 9 64 65
3 9 66 68
3 66 1 67
3 66 67 68
3 9 5 1
3 69 5 70
3 71 70 9
3 69 70 71
3 72 0 73
3 74 73 5
3 72 73 74
3 75 4 76
3 10 77 79
3 77 4 78
3 77 78 79
3 10 2 4
3 6 10 1
3 80 10 81
3 82 81 6
3 80 81 82
3 83 2 84
3 85 84 10
3 83 84 85
3 87 86 2
3 11 88 89
3 11 90 92
3 90 0 91
3 90 91 92
3 93 11 94
3 12 95 97
3 95 11 96
3 95 96 97
3 12 0 11
3 12 8 0
3 13 8 12
3 13 3 8
3 98 13 99
3 100 13 101
3 102 3 103
3 104 103 13
3 102 103 104
3 106 105 3
