ply
format ascii 1.0
element vertex 258
property float x
property float y
property float z
element face 240
property list uchar int vertex_index
end_header
0.875525 56.505856 -48.405788
-2.205631 46.025127 -52.721394
4.524652 45.870422 -51.033966
4.989321 65.589211 -42.956364
4.265379 55.067822 -46.316799
2.547865 50.815121 -49.416855
-0.016295 41.389221 -54.516262
-3.035122 40.242661 -54.412636
-2.77343 57.507832 -49.964939
-4.419386 51.644806 -51.651707
-0.663879 51.397968 -50.684605
1.197873 46.1502 -52.164555
3.286331 42.012886 -54.213032
-0.89635 62.946926 -47.997246
2.83093 61.306297 -45.772587
5.962517 59.373276 -43.065521
7.43912 69.308304 -39.837875
-0.454954 38.853092 -55.573311
-0.850833 56.864525 -49.247398
-1.838057 54.337364 -50.298935
-0.002713 53.951817 -49.62112
3.552162 48.393097 -50.027988
1.98478 48.49073 -50.779663
2.878182 46.250477 -51.574654
2.185599 44.054649 -53.053989
3.775328 43.984558 -52.704578
3.278093 66.772705 -44.358532
2.261515 64.489944 -45.584328
4.005712 63.462837 -44.282703
4.478739 60.499096 -44.448063
5.5135 62.447922 -42.923752
-3.271542 48.723854 -52.092716
-3.848085 45.791393 -52.873352
2.617516 55.982441 -47.386379
1.7049 53.487949 -48.858639
3.355834 53.122074 -47.871307
4.180923 50.422276 -48.486404
5.107872 47.787689 -49.309052
2.792701 70.03476 -44.256187
4.612225 68.933914 -42.852779
-1.108314 43.656319 -53.496468
-2.667331 43.149399 -53.608139
-1.512718 40.844452 -54.519749
-3.641996 54.516178 -50.873699
-2.55652 51.512772 -51.238144
-1.411326 48.80175 -51.725319
0.962275 51.032234 -50.157211
0.283063 48.538754 -51.37915
-0.499456 46.1339 -52.50248
0.551196 43.646591 -53.465019
-1.803137 60.214417 -48.999966
0.073874 59.767139 -48.069016
1.025079 62.423561 -46.893536
1.821054 58.957714 -47.12318
3.532964 58.239052 -45.946468
5.995358 70.903351 -41.27161
6.151231 67.663025 -41.453907
7.687576 66.17173 -39.748405
6.503319 64.367264 -41.448715
6.618838 47.388573 -48.193325
6.055964 45.597881 -50.203308
5.405552 43.828838 -52.142864
4.929504 50.141118 -47.965035
4.590994 51.405567 -47.6154
5.392978 48.823824 -48.376359
4.644398 49.104982 -48.897728
4.929504 50.141118 -47.965035
3.4546 71.147915 -43.551327
2.482716 71.702321 -44.243713
4.364361 70.597492 -42.849622
3.702463 69.484337 -43.554483
3.4546 71.147915 -43.551327
-1.175801 38.450215 -55.497551
-0.646989 37.517793 -56.065439
-3.207713 56.012005 -50.419319
-4.193473 56.094639 -50.766644
-3.759189 57.590466 -50.312264
2.462804 41.899254 -54.315901
1.912438 42.920136 -53.736379
2.735965 43.033767 -53.63351
2.957577 40.977682 -54.935383
2.462804 41.899254 -54.315901
-1.349743 61.580671 -48.498606
-2.353027 61.865416 -48.975861
-1.899633 63.23167 -48.474501
5.48979 58.400272 -43.895458
4.747901 58.963183 -44.586729
5.220628 59.936186 -43.756792
6.242232 57.782972 -43.179546
5.48979 58.400272 -43.895458
6.717239 70.105828 -40.554743
6.662577 71.779785 -40.49271
7.384457 70.982261 -39.775842
7.793249 64.590693 -39.751194
8.296125 65.38163 -38.938341
7.201121 63.68846 -40.601349
7.095448 65.269497 -40.59856
7.793249 64.590693 -39.751194
6.725959 62.787033 -41.409414
7.201121 63.68846 -40.601349
-5.27858 51.625383 -51.809594
-5.000341 53.182173 -51.510289
-3.620359 41.462807 -54.006918
-3.436463 42.916176 -53.604669
-2.851227 41.69603 -54.010388
7.063909 46.235718 -48.739221
7.274976 47.003738 -47.704205
6.782472 45.340372 -49.744213
6.337401 46.493227 -49.198317
7.063909 46.235718 -48.739221
5.917558 42.920267 -52.749519
6.189787 43.693758 -51.762734
6.701793 42.785187 -52.369388
5.649405 42.018757 -53.635131
5.137398 42.927328 -53.028476
5.917558 42.920267 -52.749519
4.633223 53.728341 -46.530597
4.986648 54.793669 -45.657904
0.296511 39.137769 -55.631475
-0.235625 40.121156 -55.044787
0.51584 40.405834 -55.102951
0.046452 37.896633 -56.216774
0.296511 39.137769 -55.631475
-0.646989 37.517793 -56.065439
0.046452 37.896633 -56.216774
-1.285989 64.489897 -47.951834
-1.899633 63.23167 -48.474501
2.769804 65.631325 -44.97143
1.860283 66.128108 -45.605164
2.368572 67.269489 -44.992266
8.097055 70.092087 -39.002327
7.384457 70.982261 -39.775842
-4.145986 48.712261 -52.208241
-4.719907 50.172737 -51.987736
-3.845464 50.18433 -51.872212
-4.434257 47.246031 -52.598558
-4.145986 48.712261 -52.208241
-3.559814 47.257624 -52.483034
-4.678711 45.610426 -52.920047
-4.434257 47.246031 -52.598558
-3.829231 39.95555 -54.305858
-3.249395 38.8195 -54.732849
4.17845 52.755466 -47.307851
3.810607 54.094948 -47.094053
4.633223 53.728341 -46.530597
3.768378 51.772175 -48.178855
4.17845 52.755466 -47.307851
4.590994 51.405567 -47.6154
1.784882 70.620678 -44.906837
2.482716 71.702321 -44.243713
2.125876 68.900517 -44.941093
1.784882 70.620678 -44.906837
3.035397 68.403733 -44.307359
2.368572 67.269489 -44.992266
2.125876 68.900517 -44.941093
-1.704683 39.445894 -54.97077
-0.983836 39.848772 -55.04653
-1.175801 38.450215 -55.497551
-2.465885 39.144999 -54.917214
-2.27392 40.543556 -54.466192
-1.704683 39.445894 -54.97077
-3.249395 38.8195 -54.732849
-2.465885 39.144999 -54.917214
-4.611645 54.617859 -51.121285
-4.193473 56.094639 -50.766644
-4.030691 53.080492 -51.262703
-5.000341 53.182173 -51.510289
-4.611645 54.617859 -51.121285
1.095236 42.716106 -53.941895
1.368397 43.85062 -53.259504
1.912438 42.920136 -53.736379
0.811491 41.587421 -54.467516
0.267451 42.517906 -53.99064
1.095236 42.716106 -53.941895
0.51584 40.405834 -55.102951
0.811491 41.587421 -54.467516
-3.256387 59.012928 -49.892021
-3.759189 57.590466 -50.312264
-2.771241 60.36622 -49.409534
-2.353027 61.865416 -48.975861
-2.288283 58.861125 -49.482453
-3.256387 59.012928 -49.892021
-2.771241 60.36622 -49.409534
-0.274641 64.214426 -47.387865
-1.285989 64.489897 -47.951834
1.304291 64.985935 -46.181406
1.860283 66.128108 -45.605164
0.686073 63.952743 -46.83601
1.304291 64.985935 -46.181406
1.643297 63.456752 -46.238932
0.064365 62.685243 -47.445391
-0.274641 64.214426 -47.387865
0.686073 63.952743 -46.83601
4.275014 57.833161 -45.335932
4.005852 59.369074 -45.197266
4.747901 58.963183 -44.586729
4.641221 56.247546 -45.521097
3.899172 56.653437 -46.131634
4.275014 57.833161 -45.335932
5.36249 55.973393 -44.862201
4.986648 54.793669 -45.657904
4.641221 56.247546 -45.521097
5.753371 72.543503 -41.313659
6.662577 71.779785 -40.49271
5.055928 71.582211 -42.059038
5.753371 72.543503 -41.313659
5.303791 69.918633 -42.062195
4.364361 70.597492 -42.849622
5.055928 71.582211 -42.059038
8.121008 68.588795 -39.004951
8.097055 70.092087 -39.002327
8.245236 67.020508 -38.960217
8.296125 65.38163 -38.938341
7.563348 67.740017 -39.79314
8.121008 68.588795 -39.004951
8.245236 67.020508 -38.960217
6.231049 61.827362 -42.146933
6.008409 63.407593 -42.186234
6.725959 62.787033 -41.409414
6.455558 60.290039 -42.217817
5.738008 60.910599 -42.994636
6.231049 61.827362 -42.146933
6.619695 58.790587 -42.320236
6.455558 60.290039 -42.217817
6.242232 57.782972 -43.179546
6.619695 58.790587 -42.320236
-5.27858 51.625383 -51.809594
-4.719907 50.172737 -51.987736
-4.026841 44.237173 -53.237276
-3.257708 44.470396 -53.240746
-3.436463 42.916176 -53.604669
-4.678711 45.610426 -52.920047
-4.026841 44.237173 -53.237276
-3.620359 41.462807 -54.006918
-3.829231 39.95555 -54.305858
6.866857 48.250214 -47.216698
7.274976 47.003738 -47.704205
6.148461 48.624266 -47.818495
6.866857 48.250214 -47.216698
5.863355 47.588131 -48.751188
5.392978 48.823824 -48.376359
6.148461 48.624266 -47.818495
6.514993 44.57828 -50.792956
6.782472 45.340372 -49.744213
7.241501 44.320771 -50.333861
5.730758 44.713359 -51.173086
6.514993 44.57828 -50.792956
6.189787 43.693758 -51.762734
4.322287 43.005188 -53.309333
4.59044 43.906698 -52.423721
5.137398 42.927328 -53.028476
4.077788 42.019352 -54.06356
3.53083 42.998722 -53.458805
4.322287 43.005188 -53.309333
3.76244 41.082318 -54.910426
4.077788 42.019352 -54.06356
2.957577 40.977682 -54.935383
3.76244 41.082318 -54.910426
3 0 20 18
3 2 23 21
3 2 25 23
3 3 28 26
3 3 30 28
3 1 32 31
3 4 35 33
3 62 36 63
3 64 37 65
3 66 65 36
3 64 65 66
3 67 38 68
3 69 39 70
3 71 70 38
3 69 70 71
3 6 42 40
3 73 72 17
3 8 74 76
3 74 43 75
3 74 75 76
3 10 44 19
3 10 45 44
3 5 46 34
3 11 47 22
3 11 48 47
3 11 49 48
3 12 77 79
3 79 78 24
3 77 78 79
3 12 80 81
3 13 82 84
3 82 50 83
3 82 83 84
3 13 51 50
3 14 52 27
3 14 53 52
3 14 54 53
3 15 85 87
3 87 86 29
3 85 86 87
3 15 88 89
3 16 90 92
3 90 55 91
3 90 91 92
3 16 56 55
3 93 57 94
3 95 58 96
3 97 96 57
3 95 96 97
3 99 98 58
3 9 100 101
3 7 102 104
3 104 103 41
3 102 103 104
3 105 59 106
3 107 60 108
3 109 108 59
3 107 108 109
3 110 61 111
3 110 111 112
3 115 114 61
3 113 114 115
3 117 116 4
3 118 17 119
3 120 119 6
3 118 119 120
3 121 17 122
3 124 123 17
3 18 19 8
3 20 19 18
3 20 10 19
3 21 22 5
3 23 22 21
3 23 11 22
3 23 24 11
3 25 24 23
3 25 12 24
3 125 13 126
3 26 127 129
3 127 27 128
3 127 128 129
3 28 27 26
3 28 14 27
3 28 29 14
3 30 29 28
3 30 15 29
3 130 16 131
3 31 132 134
3 134 133 9
3 132 133 134
3 32 135 137
3 137 136 31
3 135 136 137
3 32 138 139
3 141 140 7
3 33 34 0
3 35 34 33
3 35 5 34
3 142 35 143
3 144 143 4
3 142 143 144
3 36 145 147
3 145 35 146
3 145 146 147
3 36 5 35
3 36 21 5
3 37 21 36
3 37 2 21
3 38 148 149
3 38 150 151
3 38 152 154
3 152 26 153
3 152 153 154
3 39 26 38
3 39 3 26
3 40 41 1
3 42 41 40
3 42 7 41
3 17 42 6
3 155 42 156
3 157 156 17
3 155 156 157
3 158 7 159
3 160 159 42
3 158 159 160
3 162 161 7
3 43 163 164
3 43 165 167
3 165 9 166
3 165 166 167
3 19 43 8
3 44 43 19
3 44 9 43
3 44 31 9
3 45 31 44
3 45 1 31
3 34 20 0
3 46 20 34
3 46 10 20
3 22 46 5
3 47 46 22
3 47 10 46
3 47 45 10
3 48 45 47
3 48 1 45
3 48 40 1
3 49 40 48
3 49 6 40
3 24 49 11
3 168 49 169
3 170 169 24
3 168 169 170
3 171 6 172
3 173 172 49
3 171 172 173
3 175 174 6
3 176 8 177
3 50 178 179
3 50 180 182
3 180 8 181
3 180 181 182
3 50 18 8
3 51 18 50
3 51 0 18
3 183 13 184
3 27 185 186
3 52 187 189
3 189 188 27
3 187 188 189
3 52 190 192
3 190 13 191
3 190 191 192
3 52 51 13
3 53 51 52
3 53 0 51
3 53 33 0
3 54 33 53
3 54 4 33
3 29 54 14
3 193 54 194
3 195 194 29
3 193 194 195
3 196 4 197
3 198 197 54
3 196 197 198
3 201 200 4
3 199 200 201
3 55 202 203
3 55 204 205
3 55 206 208
3 206 39 207
3 206 207 208
3 56 39 55
3 56 3 39
3 209 16 210
3 57 211 212
3 57 213 215
3 213 16 214
3 213 214 215
3 57 56 16
3 58 56 57
3 58 3 56
3 58 30 3
3 216 30 217
3 218 217 58
3 216 217 218
3 219 15 220
3 221 220 30
3 219 220 221
3 222 15 223
3 225 224 15
3 227 226 9
3 41 32 1
3 228 32 229
3 230 229 41
3 228 229 230
3 232 231 32
3 234 233 7
3 59 235 236
3 59 237 238
3 59 239 241
3 239 37 240
3 239 240 241
3 60 37 59
3 60 2 37
3 242 60 243
3 242 243 244
3 61 245 247
3 245 60 246
3 245 246 247
3 61 2 60
3 61 25 2
3 248 25 249
3 250 249 61
3 248 249 250
3 251 12 252
3 253 252 25
3 251 252 253
3 254 12 255
3 257 256 12
