ply
format ascii 1.0
element vertex 109
property float x
property float y
property float z
element face 86
property list uchar int vertex_index
end_header
7.079351 53.219219 -43.752502
5.678085 49.859959 -47.443665
9.456373 50.518021 -40.802959
8.445346 47.990509 -45.073193
10.353768 53.217663 -36.809429
7.50898 45.082863 -49.285118
5.707916 54.519516 -44.999008
5.001066 52.388859 -46.744396
6.41874 51.620022 -45.534763
9.475037 55.008862 -38.461536
7.931114 46.618904 -47.215084
8.337428 52.025585 -42.27478
7.8072 50.463821 -44.219887
8.971174 49.22678 -42.94849
8.90604 53.456989 -40.363434
9.912557 51.878822 -38.724007
7.114876 49.111855 -46.24007
4.929504 50.141118 -47.965035
4.590994 51.405567 -47.6154
5.339576 51.124409 -47.094031
5.392978 48.823824 -48.376359
4.929504 50.141118 -47.965035
8.675038 55.039966 -40.220465
8.342506 54.243871 -41.09071
10.538731 51.68318 -36.989586
10.318126 51.013759 -37.946875
10.133163 52.548243 -37.766718
7.063909 46.235718 -48.739221
7.274976 47.003738 -47.704205
7.720047 45.850884 -48.250101
6.782472 45.340372 -49.744213
7.063909 46.235718 -48.739221
5.354491 53.454188 -45.871702
4.633223 53.728341 -46.530597
4.986648 54.793669 -45.657904
9.74085 49.194813 -41.173908
9.933194 49.691572 -40.068106
9.386388 56.496115 -38.276342
8.959537 55.815903 -39.269516
9.809207 55.710285 -37.482458
9.386388 56.496115 -38.276342
10.248573 54.814686 -36.656405
9.914403 54.113263 -37.635483
9.809207 55.710285 -37.482458
8.639512 46.121364 -46.533071
8.18823 47.304707 -46.144138
8.896628 46.807167 -45.462126
8.440758 45.508983 -47.677128
8.639512 46.121364 -46.533071
8.229691 44.740963 -48.712145
7.720047 45.850884 -48.250101
8.440758 45.508983 -47.677128
4.17845 52.755466 -47.307851
4.633223 53.728341 -46.530597
4.17845 52.755466 -47.307851
4.590994 51.405567 -47.6154
9.498251 48.549193 -42.246673
9.213773 49.8724 -41.875725
9.74085 49.194813 -41.173908
9.333243 47.993299 -43.315614
9.498251 48.549193 -42.246673
9.070329 47.375164 -44.377966
8.70826 48.608644 -44.010841
9.333243 47.993299 -43.315614
8.896628 46.807167 -45.462126
9.070329 47.375164 -44.377966
5.36249 55.973393 -44.862201
4.986648 54.793669 -45.657904
6.114931 55.356093 -44.14629
5.36249 55.973393 -44.862201
6.800649 54.705944 -43.523037
6.393633 53.869368 -44.375755
6.114931 55.356093 -44.14629
7.429161 54.124987 -42.785244
6.800649 54.705944 -43.523037
8.0582 53.52817 -42.046383
7.708389 52.622402 -43.013641
7.429161 54.124987 -42.785244
8.621734 52.741287 -41.319107
8.0582 53.52817 -42.046383
8.342506 54.243871 -41.09071
9.190539 54.232926 -39.412485
8.675038 55.039966 -40.220465
8.959537 55.815903 -39.269516
10.161286 50.371973 -39.02863
9.933194 49.691572 -40.068106
9.684465 51.198421 -39.763483
10.161286 50.371973 -39.02863
10.318126 51.013759 -37.946875
10.632656 53.795618 -35.779043
10.248573 54.814686 -36.656405
10.723703 52.27713 -35.923001
10.632656 53.795618 -35.779043
10.538731 51.68318 -36.989586
10.723703 52.27713 -35.923001
6.866857 48.250214 -47.216698
7.522995 47.86538 -46.727577
7.274976 47.003738 -47.704205
6.148461 48.624266 -47.818495
6.396481 49.485907 -46.841868
6.866857 48.250214 -47.216698
5.392978 48.823824 -48.376359
6.148461 48.624266 -47.818495
7.986718 44.114449 -49.857092
8.229691 44.740963 -48.712145
7.241501 44.320771 -50.333861
7.986718 44.114449 -49.857092
6.782472 45.340372 -49.744213
7.241501 44.320771 -50.333861
3 0 8 6
3 1 17 19
3 19 18 7
3 17 18 19
3 1 20 21
3 2 13 11
3 22 14 23
3 4 15 9
3 4 24 26
3 26 25 15
3 24 25 26
3 3 16 12
3 5 27 29
3 29 28 10
3 27 28 29
3 5 30 31
3 6 32 34
3 32 7 33
3 32 33 34
3 8 7 6
3 8 1 7
3 36 35 2
3 37 9 38
3 39 9 40
3 41 4 42
3 43 42 9
3 41 42 43
3 44 10 45
3 46 45 3
3 44 45 46
3 47 10 48
3 49 5 50
3 51 50 10
3 49 50 51
3 7 52 53
3 55 54 7
3 11 12 0
3 13 12 11
3 13 3 12
3 56 13 57
3 58 57 2
3 56 57 58
3 59 13 60
3 61 3 62
3 63 62 13
3 61 62 63
3 65 64 3
3 66 6 67
3 68 6 69
3 70 0 71
3 72 71 6
3 70 71 72
3 73 0 74
3 75 11 76
3 77 76 0
3 75 76 77
3 14 78 80
3 78 11 79
3 78 79 80
3 14 2 11
3 9 81 83
3 81 14 82
3 81 82 83
3 15 14 9
3 15 2 14
3 15 84 86
3 86 85 2
3 84 85 86
3 88 87 15
3 89 4 90
3 91 4 92
3 94 93 4
3 12 8 0
3 16 8 12
3 16 1 8
3 10 16 3
3 95 16 96
3 97 96 10
3 95 96 97
3 98 1 99
3 100 99 16
3 98 99 100
3 102 101 1
3 103 5 104
3 105 5 106
3 108 107 5
