ply
format ascii 1.0
element vertex 190
property float x
property float y
property float z
element face 171
property list uchar int vertex_index
end_header
-11.170296 94.5709 -43.564941
-15.78131 102.652748 -36.086388
-8.08468 98.08506 -39.607094
-13.043454 105.180893 -30.8752
-10.569942 102.141289 -35.742069
-13.638537 99.088394 -40.331062
-17.907278 105.147476 -30.911139
-20.71277 101.779076 -35.843704
-23.249777 96.923592 -40.110111
-18.676067 98.734833 -40.557354
-6.565625 99.591782 -37.164726
-3.585411 98.538216 -36.441719
-8.941618 103.16851 -33.155777
-9.124689 100.29982 -37.633614
-12.627364 106.754204 -25.308369
-14.470529 104.100708 -33.549335
-15.539567 105.367554 -30.869761
-16.923794 104.087448 -33.514896
-19.380089 103.700714 -33.331123
-18.270729 102.446083 -36.008266
-19.793867 100.508171 -38.156315
-17.27553 100.8964 -38.37886
-12.318698 97.043877 -41.974586
-15.01938 97.131622 -42.300606
-13.905245 94.855202 -43.93668
-9.574767 96.497841 -41.634228
-8.388419 94.134415 -42.93713
-8.767202 105.202621 -27.80497
-11.428704 105.827972 -28.185436
-10.202994 104.645866 -30.750227
-11.727486 103.776726 -33.437042
-13.297431 102.573509 -35.952209
-14.703261 100.962479 -38.360954
-12.096566 100.834015 -38.044739
-10.821947 98.83873 -39.909782
-14.062482 106.258865 -28.092289
-16.556877 106.271347 -28.155016
-21.983004 99.486519 -38.165245
-20.999273 98.112167 -40.357063
-20.145819 96.195175 -42.522987
-16.212727 99.074623 -40.524075
-17.751139 96.693954 -42.628643
-18.91604 94.121338 -44.429047
-4.199165 99.538006 -35.545002
-5.075518 99.064999 -36.803223
-5.689272 100.064789 -35.906506
-5.689272 100.064789 -35.906506
-7.160285 100.570279 -36.179747
-10.525201 93.214505 -44.199894
-11.886775 93.411648 -44.450235
-11.364375 106.488705 -25.219038
-11.806552 106.804851 -23.746007
-11.886775 93.411648 -44.450235
-13.25425 93.553799 -44.636105
-12.537771 94.713051 -43.750811
-7.350594 96.924976 -40.292671
-8.095638 96.131367 -41.306238
-8.829724 97.29145 -40.620661
-8.785585 104.25439 -30.555977
-9.485098 104.924243 -29.277598
-8.06769 104.532768 -29.083348
-7.782559 92.703549 -43.544583
-6.999835 93.642578 -42.646353
-18.424701 105.537117 -29.458695
-17.7495 106.099052 -28.080634
-17.232078 105.709412 -29.533077
-19.126669 104.863002 -30.765887
-18.424701 105.537117 -29.458695
-21.178813 102.330365 -34.465546
-20.512473 103.291184 -33.209255
-20.04643 102.739895 -34.587413
-21.793389 101.245365 -35.722061
-21.178813 102.330365 -34.465546
-21.347887 100.632798 -37.004475
-22.428506 100.099087 -36.882831
-21.793389 101.245365 -35.722061
-17.102047 95.652359 -43.460831
-16.38526 96.912788 -42.464624
-15.736168 95.871193 -43.296812
-17.684497 94.366051 -44.361033
-18.333589 95.407646 -43.528845
-17.102047 95.652359 -43.460831
-18.396402 92.927933 -45.244333
-17.684497 94.366051 -44.361033
-24.25293 96.146744 -39.900978
-23.693905 97.556923 -38.930592
-5.883422 98.488769 -37.975212
-6.64295 97.735409 -39.196396
-7.325152 98.838421 -38.38591
-4.393315 97.961986 -37.613709
-5.883422 98.488769 -37.975212
-5.075518 99.064999 -36.803223
-2.991467 97.402146 -37.239961
-4.393315 97.961986 -37.613709
-7.507333 102.737198 -32.895457
-8.154898 103.515713 -31.758752
-8.348282 102.358643 -34.175272
-7.507333 102.737198 -32.895457
-9.162444 101.845032 -35.468418
-9.75578 102.654899 -34.448923
-8.348282 102.358643 -34.175272
-8.439817 100.924297 -36.414191
-9.847316 101.220554 -36.687842
-9.162444 101.845032 -35.468418
-7.845157 99.945801 -37.39917
-8.439817 100.924297 -36.414191
-7.160285 100.570279 -36.179747
-13.122529 107.048126 -23.798613
-11.806552 106.804851 -23.746007
-13.949115 106.882847 -25.312627
-13.122529 107.048126 -23.798613
-15.1791 94.732983 -44.114849
-15.736168 95.871193 -43.296812
-14.462312 95.993412 -43.118643
-14.56522 93.569744 -44.822683
-15.1791 94.732983 -44.114849
-14.56522 93.569744 -44.822683
-13.25425 93.553799 -44.636105
-23.902571 95.395458 -40.998285
-22.780582 96.144593 -41.18298
-7.502464 94.949654 -41.95769
-8.981593 95.316128 -42.285679
-8.095638 96.131367 -41.306238
-6.999835 93.642578 -42.646353
-7.502464 94.949654 -41.95769
-7.350594 96.924976 -40.292671
-6.64295 97.735409 -39.196396
-10.097953 105.515297 -27.995203
-10.765045 106.025589 -26.657571
-9.434293 105.712913 -26.467339
-9.572306 103.907188 -31.953002
-8.785585 104.25439 -30.555977
-8.154898 103.515713 -31.758752
-9.134263 92.996262 -43.885988
-10.525201 93.214505 -44.199894
-9.779357 94.352657 -43.251036
-9.134263 92.996262 -43.885988
-7.782559 92.703549 -43.544583
-12.028034 106.291088 -26.746902
-11.364375 106.488705 -25.219038
-10.765045 106.025589 -26.657571
-14.666673 106.635177 -26.704587
-13.949115 106.882847 -25.312627
-13.344923 106.506535 -26.700329
-15.913871 106.641419 -26.735951
-14.666673 106.635177 -26.704587
-15.309679 106.265106 -28.123652
-17.053878 106.61937 -26.531098
-15.913871 106.641419 -26.735951
-17.053878 106.61937 -26.531098
-17.7495 106.099052 -28.080634
-19.863075 104.139622 -31.975879
-19.126669 104.863002 -30.765887
-18.643684 104.424095 -32.121131
-19.863075 104.139622 -31.975879
-20.512473 103.291184 -33.209255
-23.060519 98.838386 -37.958158
-22.428506 100.099087 -36.882831
-22.616391 98.205056 -39.137678
-23.693905 97.556923 -38.930592
-23.060519 98.838386 -37.958158
-21.65533 96.73888 -41.306455
-22.780582 96.144593 -41.18298
-22.124525 97.517879 -40.233587
-21.228603 95.780384 -42.389418
-21.65533 96.73888 -41.306455
-20.572546 97.153671 -41.440025
-20.739311 94.828743 -43.37195
-21.228603 95.780384 -42.389418
-20.124421 93.791824 -44.32498
-20.739311 94.828743 -43.37195
-19.530929 95.158256 -43.476017
-19.590963 92.68607 -45.203738
-20.124421 93.791824 -44.32498
-19.590963 92.68607 -45.203738
-18.396402 92.927933 -45.244333
-8.01389 105.259735 -26.31805
-9.434293 105.712913 -26.467339
-7.35944 104.714546 -27.611114
-8.01389 105.259735 -26.31805
-8.06769 104.532768 -29.083348
-7.35944 104.714546 -27.611114
-2.731054 98.900307 -35.213403
-4.199165 99.538006 -35.545002
-2.160744 97.913395 -36.023573
-2.731054 98.900307 -35.213403
-2.991467 97.402146 -37.239961
-2.160744 97.913395 -36.023573
-24.25293 96.146744 -39.900978
-23.902571 95.395458 -40.998285
3 43 11 44
3 45 44 10
3 43 44 45
3 46 10 47
3 0 48 49
3 50 14 51
3 1 17 15
3 1 19 17
3 1 21 19
3 0 24 22
3 0 52 54
3 54 53 24
3 52 53 54
3 2 55 57
3 57 56 25
3 55 56 57
3 58 29 59
3 60 59 27
3 58 59 60
3 4 30 12
3 4 31 30
3 4 33 31
3 2 34 13
3 2 25 34
3 62 61 26
3 3 35 28
3 6 36 16
3 6 63 65
3 65 64 36
3 63 64 65
3 6 66 67
3 7 68 70
3 70 69 18
3 68 69 70
3 7 71 72
3 7 73 75
3 73 37 74
3 73 74 75
3 9 38 20
3 9 39 38
3 5 40 32
3 76 41 77
3 78 77 23
3 76 77 78
3 79 42 80
3 81 80 41
3 79 80 81
3 83 82 42
3 8 84 85
3 10 86 88
3 88 87 2
3 86 87 88
3 11 89 91
3 91 90 10
3 89 90 91
3 11 92 93
3 94 12 95
3 96 12 97
3 98 4 99
3 100 99 12
3 98 99 100
3 101 13 102
3 103 102 4
3 101 102 103
3 10 104 106
3 104 13 105
3 104 105 106
3 10 2 13
3 14 107 108
3 14 109 110
3 15 16 3
3 17 16 15
3 17 6 16
3 17 18 6
3 19 18 17
3 19 7 18
3 19 20 7
3 21 20 19
3 21 9 20
3 22 23 5
3 24 23 22
3 24 111 113
3 113 112 23
3 111 112 113
3 24 114 115
3 117 116 24
3 119 118 8
3 25 26 0
3 120 26 121
3 122 121 25
3 120 121 122
3 124 123 26
3 126 125 2
3 27 127 129
3 127 28 128
3 127 128 129
3 29 28 27
3 29 3 28
3 12 130 132
3 130 29 131
3 130 131 132
3 30 29 12
3 30 3 29
3 30 15 3
3 31 15 30
3 31 1 15
3 31 32 1
3 33 32 31
3 33 5 32
3 13 33 4
3 34 33 13
3 34 5 33
3 34 22 5
3 25 22 34
3 25 0 22
3 26 133 135
3 135 134 0
3 133 134 135
3 137 136 26
3 28 138 140
3 138 14 139
3 138 139 140
3 35 14 28
3 35 141 143
3 143 142 14
3 141 142 143
3 16 35 3
3 36 35 16
3 36 144 146
3 146 145 35
3 144 145 146
3 36 147 148
3 150 149 36
3 18 151 153
3 153 152 6
3 151 152 153
3 155 154 18
3 37 156 157
3 37 158 160
3 158 8 159
3 158 159 160
3 20 37 7
3 38 37 20
3 38 8 37
3 38 161 163
3 163 162 8
3 161 162 163
3 39 164 166
3 166 165 38
3 164 165 166
3 39 167 168
3 32 21 1
3 40 21 32
3 40 9 21
3 23 40 5
3 41 40 23
3 41 9 40
3 41 39 9
3 42 39 41
3 42 169 171
3 171 170 39
3 169 170 171
3 42 172 173
3 175 174 42
3 176 27 177
3 178 27 179
3 181 180 27
3 182 11 183
3 184 11 185
3 187 186 11
3 189 188 8
