ply
format ascii 1.0
element vertex 411
property float x
property float y
property float z
element face 340
property list uchar int vertex_index
end_header
24.940538 -52.997837 59.136059
28.205482 -18.7806 41.847904
28.179535 -31.650135 44.656727
28.407644 -43.19997 47.939796
27.834448 -53.673588 50.338791
29.604414 -14.397416 34.468029
27.56798 -48.878056 54.170975
26.675606 -53.468975 55.069038
28.695898 -16.547228 37.959099
23.130701 -56.867283 58.88142
25.266077 -57.632584 55.438908
28.097252 -25.463209 43.260933
28.418884 -30.278038 40.344433
28.004032 -43.875046 52.833569
28.305798 -48.627792 49.285706
26.859201 -58.316387 51.048435
30.213106 -7.152472 33.838291
30.941992 -12.383764 30.981758
28.33551 -37.792732 46.222034
25.706936 -50.839294 59.001602
26.529091 -51.052658 56.913658
25.85898 -53.222546 57.293301
28.665306 -26.157694 37.681774
28.225679 -27.831861 41.840538
28.276085 -31.095049 42.476536
27.689384 -44.020058 55.251198
27.691601 -51.300526 52.415611
27.98625 -48.833172 51.765785
25.290047 -60.084316 53.397079
26.130737 -58.063416 53.280041
26.147215 -60.467514 51.206535
29.111229 -15.560193 36.11393
28.884506 -13.036872 37.620094
29.344366 -12.052407 35.790955
30.552004 -9.936952 32.401005
30.199993 -13.544256 32.781555
28.253233 -40.86224 49.579796
28.238934 -38.074478 48.606323
28.388472 -40.568913 47.068855
27.431614 -46.549454 55.797222
27.058731 -48.77354 56.397602
27.183386 -51.332848 54.635117
27.340254 -53.767235 52.594093
28.285484 -21.319361 40.397385
28.394527 -17.868427 39.837112
28.539106 -20.153276 38.464104
28.884487 -19.307274 36.650948
28.582672 -45.71854 46.125069
28.562073 -42.928059 45.414673
24.008158 -54.960102 59.213253
25.139433 -55.258514 57.361847
28.232481 -24.694777 41.078548
28.418005 -27.277382 39.639145
28.236185 -43.563126 50.362915
27.865543 -46.493271 53.336388
28.173002 -46.269787 50.949505
28.391289 -45.913567 48.664898
26.053839 -55.729103 55.20673
26.820015 -55.906693 53.004513
27.420404 -56.132057 50.681976
25.512445 -48.51173 60.636776
24.75124 -50.542702 60.851288
22.829082 -54.565102 60.703091
28.554245 -14.206172 39.400536
30.578007 -3.20159 33.514999
28.508135 -40.033371 44.608753
28.438694 -37.264427 43.833488
28.346588 -34.193577 43.210648
28.478846 -33.530991 40.944912
28.849645 -25.703804 36.664248
28.805425 -27.42026 36.925837
28.148563 -30.119284 44.351457
28.124815 -30.531073 45.406525
28.22781 -31.372592 43.566631
28.196838 -29.841741 43.261362
28.148563 -30.119284 44.351457
27.484192 -44.046914 56.389244
27.638826 -42.779922 56.02442
27.975387 -52.395021 50.144625
27.903964 -51.20849 51.183035
27.763025 -52.487057 51.377201
28.032344 -53.662484 49.112102
27.975387 -52.395021 50.144625
25.705277 -61.488245 51.211584
25.718631 -60.275915 52.301807
25.276693 -61.296646 52.306856
28.272866 -17.045766 41.519048
28.21133 -17.575795 42.495741
29.762518 -12.527036 34.275391
29.632494 -11.354532 34.936853
29.47439 -13.224912 35.129492
29.902203 -13.970836 33.624792
30.060308 -12.100456 33.432153
29.762518 -12.527036 34.275391
26.712257 -48.789413 57.472765
26.960663 -47.649858 57.271939
28.490979 -21.895387 38.764519
28.412295 -20.736319 39.430745
28.364168 -22.47843 39.73116
29.030222 -20.570462 35.913658
28.812178 -21.077314 36.916522
29.118274 -18.738972 35.743128
29.030222 -20.570462 35.913658
28.664203 -45.543073 44.849272
28.657732 -46.914372 45.241604
23.706815 -57.085123 58.057468
24.145543 -56.131532 58.223385
23.569429 -55.913692 59.047337
28.076613 -24.172926 43.93638
28.068705 -25.768642 44.281912
28.112454 -23.75572 42.867907
28.076613 -24.172926 43.93638
28.164867 -25.078993 42.169741
28.180069 -23.371504 41.776714
28.112454 -23.75572 42.867907
28.538288 -29.961498 39.234616
28.537849 -28.46117 38.881971
28.418444 -28.77771 39.991789
28.055423 -42.556681 52.368437
27.949107 -42.672092 53.588053
28.120109 -43.719086 51.598242
28.1715 -42.400721 51.13311
28.055423 -42.556681 52.368437
28.423471 -48.496584 48.06786
28.466217 -47.139471 47.757456
28.348543 -47.270679 48.975302
24.984708 -48.34889 61.580359
25.424981 -47.305458 61.405558
24.604106 -49.364376 61.687614
25.131842 -49.527216 60.744032
24.984708 -48.34889 61.580359
22.674296 -53.394989 61.536955
23.3413 -53.585732 60.779154
28.821346 -11.959564 38.284979
29.023843 -11.245672 37.365034
30.083707 -5.791205 34.508793
29.92407 -7.71094 34.655924
30.395556 -5.177031 33.676645
30.266157 -3.815764 34.347147
30.083707 -5.791205 34.508793
30.552132 -6.52812 33.016745
30.734583 -4.552679 32.855098
30.395556 -5.177031 33.676645
31.112653 -10.373152 30.890508
30.917659 -9.149746 31.600132
30.746998 -11.160358 31.691381
31.322717 -11.800506 30.148203
31.112653 -10.373152 30.890508
28.262862 -36.547241 47.005085
28.214574 -36.688114 48.19723
28.287222 -37.933605 47.414179
28.295868 -36.285521 45.847876
28.262862 -36.547241 47.005085
28.60389 -41.268595 43.794017
28.535104 -41.480715 45.011713
28.630859 -42.715939 44.196978
28.497089 -36.995474 42.741979
28.540156 -38.436752 42.994247
28.451035 -35.460049 42.43056
28.392641 -35.729002 43.522068
28.497089 -36.995474 42.741979
28.517164 -35.128756 41.297691
28.412717 -33.862284 42.07778
28.451035 -35.460049 42.43056
26.118013 -50.945976 57.95763
26.447437 -49.928972 57.730793
26.036359 -49.82229 58.774765
28.702587 -24.502524 37.431934
28.554079 -24.897596 38.373354
28.702587 -24.502524 37.431934
28.849645 -25.703804 36.664248
23.174175 -58.045012 57.95254
22.548742 -57.704712 58.753842
28.107421 -27.025821 43.65356
28.068705 -25.768642 44.281912
28.171634 -28.210147 42.943363
28.161465 -26.647535 42.550736
28.107421 -27.025821 43.65356
28.250882 -29.463455 42.158537
28.171634 -28.210147 42.943363
28.196838 -29.841741 43.261362
27.791783 -42.744598 54.796868
27.638826 -42.779922 56.02442
27.846708 -43.947552 54.042383
27.949107 -42.672092 53.588053
27.791783 -42.744598 54.796868
28.051288 -49.974813 50.858122
27.838925 -50.066849 52.090698
27.903964 -51.20849 51.183035
28.211062 -49.872124 49.618082
28.146024 -48.730482 50.525745
28.051288 -49.974813 50.858122
28.371409 -49.859827 48.310839
28.211062 -49.872124 49.618082
29.253774 -10.753439 36.450464
29.023843 -11.245672 37.365034
29.114436 -12.54464 36.705524
29.4897 -10.160908 35.632256
29.253774 -10.753439 36.450464
29.4897 -10.160908 35.632256
29.632494 -11.354532 34.936853
30.066864 -8.904564 33.960521
29.92407 -7.71094 34.655924
30.236313 -10.296804 33.241878
30.382555 -8.544712 33.119648
30.066864 -8.904564 33.960521
30.375999 -11.740604 32.59128
30.236313 -10.296804 33.241878
30.060308 -12.100456 33.432153
28.246084 -39.468359 49.09306
28.191484 -38.348005 49.811487
28.198633 -39.741886 50.298224
28.15368 -32.053117 45.81559
28.124815 -30.531073 45.406525
27.147104 -46.537815 56.971749
27.355306 -45.311611 56.662256
27.245173 -47.661497 56.097412
27.147104 -46.537815 56.971749
26.960663 -47.649858 57.271939
26.793911 -49.913099 56.65563
26.712257 -48.789413 57.472765
26.447437 -49.928972 57.730793
28.639487 -21.500315 37.823099
28.490979 -21.895387 38.764519
28.711796 -19.730275 37.557526
28.639487 -21.500315 37.823099
28.812178 -21.077314 36.916522
29.231645 -16.865432 35.474619
28.997858 -17.433733 36.382439
29.118274 -18.738972 35.743128
29.478238 -16.284043 34.651668
29.357822 -14.978804 35.29098
29.231645 -16.865432 35.474619
29.753052 -15.788483 33.796184
29.478238 -16.284043 34.651668
28.653903 -44.147833 44.494074
28.572373 -44.323299 45.769871
28.664203 -45.543073 44.849272
28.630859 -42.715939 44.196978
28.653903 -44.147833 44.494074
24.71118 -56.280738 57.297682
24.573796 -55.109308 58.28755
24.145543 -56.131532 58.223385
24.774502 -57.467773 56.336213
25.202755 -56.445549 56.400377
24.71118 -56.280738 57.297682
23.706815 -57.085123 58.057468
23.174175 -58.045012 57.95254
24.79301 -58.622363 55.408161
24.774502 -57.467773 56.336213
24.804994 -59.848229 54.387247
25.278062 -58.85845 54.417993
24.79301 -58.622363 55.408161
24.811551 -61.081034 53.286207
24.804994 -59.848229 54.387247
25.276693 -61.296646 52.306856
24.811551 -61.081034 53.286207
28.158679 -19.266455 42.947904
28.21133 -17.575795 42.495741
28.16657 -20.414416 42.161392
28.158679 -19.266455 42.947904
28.20657 -21.683796 41.436132
28.245483 -20.049981 41.122644
28.16657 -20.414416 42.161392
28.258983 -23.007069 40.737966
28.20657 -21.683796 41.436132
28.180069 -23.371504 41.776714
28.337666 -24.166138 40.071741
28.364168 -22.47843 39.73116
28.258983 -23.007069 40.737966
28.430428 -25.45744 39.35204
28.337666 -24.166138 40.071741
28.325243 -25.986079 40.358846
28.541656 -26.717538 38.66046
28.554079 -24.897596 38.373354
28.430428 -25.45744 39.35204
28.661499 -27.901326 37.903286
28.541656 -26.717538 38.66046
28.537849 -28.46117 38.881971
28.805425 -27.42026 36.925837
28.661499 -27.901326 37.903286
28.180024 -41.050278 50.741551
28.198633 -39.741886 50.298224
28.244709 -42.212683 49.971356
28.180024 -41.050278 50.741551
28.1715 -42.400721 51.13311
27.560499 -45.284756 55.52421
27.484192 -44.046914 56.389244
27.355306 -45.311611 56.662256
28.561909 -47.041958 46.487542
28.486981 -45.816053 47.394984
28.466217 -47.139471 47.757456
28.657732 -46.914372 45.241604
28.561909 -47.041958 46.487542
28.423471 -48.496584 48.06786
28.371409 -49.859827 48.310839
26.095908 -61.65253 50.192533
25.705277 -61.488245 51.211584
26.498785 -60.567314 50.111847
26.095908 -61.65253 50.192533
26.854778 -59.49175 50.032797
26.503208 -59.391951 51.127485
26.498785 -60.567314 50.111847
27.137358 -58.402805 49.95771
26.854778 -59.49175 50.032797
27.417959 -57.31064 49.77448
27.139803 -57.224222 50.865206
27.137358 -58.402805 49.95771
27.657333 -56.168619 49.521795
27.417959 -57.31064 49.77448
27.864355 -54.939385 49.350203
27.627426 -54.902822 50.510384
27.657333 -56.168619 49.521795
28.032344 -53.662484 49.112102
27.864355 -54.939385 49.350203
25.860024 -47.452566 60.39642
25.424981 -47.305458 61.405558
25.939113 -48.658508 59.592352
25.860024 -47.452566 60.39642
25.60969 -49.675512 59.819189
26.036359 -49.82229 58.774765
25.939113 -48.658508 59.592352
24.162445 -50.411147 61.669569
24.604106 -49.364376 61.687614
24.30238 -51.574531 60.853252
24.162445 -50.411147 61.669569
24.397028 -52.802099 59.995638
24.845889 -51.770269 59.993673
24.30238 -51.574531 60.853252
23.930839 -53.783231 60.034235
24.474348 -53.978969 59.174656
24.397028 -52.802099 59.995638
23.41862 -54.762602 59.958172
23.930839 -53.783231 60.034235
23.3413 -53.585732 60.779154
22.140816 -54.273159 61.381496
22.674296 -53.394989 61.536955
22.318718 -55.390358 60.5535
22.140816 -54.273159 61.381496
22.469528 -56.541449 59.642664
22.979892 -55.716193 59.792255
22.318718 -55.390358 60.5535
22.548742 -57.704712 58.753842
22.469528 -56.541449 59.642664
28.367389 -16.589679 40.513652
28.272866 -17.045766 41.519048
28.300005 -18.324514 40.842508
28.447248 -14.758551 40.295365
28.367389 -16.589679 40.513652
28.474386 -16.037299 39.618824
28.533997 -12.984868 40.073441
28.447248 -14.758551 40.295365
28.656216 -12.544214 39.1752
28.719375 -13.621522 38.510315
28.821346 -11.959564 38.284979
28.533997 -12.984868 40.073441
28.656216 -12.544214 39.1752
30.432557 -2.010638 34.175739
30.266157 -3.815764 34.347147
30.760928 -1.291729 33.344103
30.432557 -2.010638 34.175739
30.948693 -2.59591 32.639549
30.760928 -1.291729 33.344103
30.948693 -2.59591 32.639549
30.734583 -4.552679 32.855098
30.721581 -7.92036 32.298102
30.552132 -6.52812 33.016745
30.382555 -8.544712 33.119648
30.721581 -7.92036 32.298102
30.917659 -9.149746 31.600132
30.050842 -15.361903 32.952947
29.902203 -13.970836 33.624792
29.753052 -15.788483 33.796184
30.387575 -14.827471 32.063564
30.050842 -15.361903 32.952947
30.758575 -14.247224 31.163665
30.570992 -12.96401 31.881656
30.387575 -14.827471 32.063564
31.132167 -13.7865 30.270916
30.758575 -14.247224 31.163665
31.322717 -11.800506 30.148203
31.132167 -13.7865 30.270916
28.1848 -36.885372 49.435097
28.191484 -38.348005 49.811487
28.1848 -36.885372 49.435097
28.214574 -36.688114 48.19723
28.21788 -33.214222 45.065222
28.15368 -32.053117 45.81559
28.574876 -39.821224 43.381879
28.60389 -41.268595 43.794017
28.473415 -38.648899 44.22112
28.574876 -39.821224 43.381879
28.540156 -38.436752 42.994247
28.34746 -36.021368 44.653603
28.295868 -36.285521 45.847876
28.387102 -37.528579 45.027761
28.301407 -34.485943 44.342182
28.34746 -36.021368 44.653603
28.392641 -35.729002 43.522068
28.263061 -32.921856 43.933687
28.21788 -33.214222 45.065222
28.301407 -34.485943 44.342182
28.599485 -34.708285 40.106346
28.517164 -35.128756 41.297691
28.573318 -33.127685 39.838822
28.599485 -34.708285 40.106346
28.543336 -31.501209 39.538582
28.448865 -31.904514 40.644672
28.573318 -33.127685 39.838822
28.538288 -29.961498 39.234616
28.543336 -31.501209 39.538582
3 0 21 19
3 70 69 22
3 2 71 72
3 2 73 75
3 73 24 74
3 73 74 75
3 76 25 77
3 4 78 80
3 80 79 26
3 78 79 80
3 4 81 82
3 83 30 84
3 85 84 28
3 83 84 85
3 1 86 87
3 5 33 31
3 5 88 90
3 90 89 33
3 88 89 90
3 5 91 93
3 91 35 92
3 91 92 93
3 3 38 36
3 94 40 95
3 7 41 20
3 7 42 41
3 96 45 97
3 98 97 43
3 96 97 98
3 99 46 100
3 102 101 46
3 104 103 47
3 9 105 107
3 107 106 49
3 105 106 107
3 11 108 109
3 11 110 111
3 11 112 114
3 112 51 113
3 112 113 114
3 12 52 23
3 12 115 117
3 117 116 52
3 115 116 117
3 13 118 119
3 13 120 122
3 120 53 121
3 120 121 122
3 6 54 39
3 14 55 27
3 14 56 55
3 14 123 125
3 125 124 56
3 123 124 125
3 10 57 50
3 15 58 29
3 15 59 58
3 126 60 127
3 128 61 129
3 130 129 60
3 128 129 130
3 131 62 132
3 8 63 44
3 134 133 32
3 16 135 136
3 16 137 139
3 137 64 138
3 137 138 139
3 16 140 142
3 142 141 64
3 140 141 142
3 17 143 145
3 145 144 34
3 143 144 145
3 17 146 147
3 18 148 150
3 150 149 37
3 148 149 150
3 18 151 152
3 153 65 154
3 155 154 48
3 153 154 155
3 156 66 157
3 158 67 159
3 160 159 66
3 158 159 160
3 161 68 162
3 163 162 67
3 161 162 163
3 19 164 166
3 164 20 165
3 164 165 166
3 21 20 19
3 21 7 20
3 22 167 168
3 170 169 22
3 172 171 9
3 173 11 174
3 175 23 176
3 177 176 11
3 175 176 177
3 24 178 180
3 178 23 179
3 178 179 180
3 24 12 23
3 25 181 182
3 25 183 185
3 183 13 184
3 183 184 185
3 26 27 6
3 186 27 187
3 188 187 26
3 186 187 188
3 189 14 190
3 191 190 27
3 189 190 191
3 193 192 14
3 28 29 10
3 30 29 28
3 30 15 29
3 31 32 8
3 33 32 31
3 33 194 196
3 196 195 32
3 194 195 196
3 33 197 198
3 200 199 33
3 201 16 202
3 203 34 204
3 205 204 16
3 203 204 205
3 35 206 208
3 206 34 207
3 206 207 208
3 35 17 34
3 36 209 211
3 209 37 210
3 209 210 211
3 38 37 36
3 38 18 37
3 212 2 213
3 214 39 215
3 40 216 218
3 216 39 217
3 216 217 218
3 40 6 39
3 20 219 221
3 219 40 220
3 219 220 221
3 41 40 20
3 41 6 40
3 41 26 6
3 42 26 41
3 42 4 26
3 43 44 1
3 45 44 43
3 45 8 44
3 222 45 223
3 46 224 226
3 224 45 225
3 224 225 226
3 46 8 45
3 46 31 8
3 227 31 228
3 229 228 46
3 227 228 229
3 230 5 231
3 232 231 31
3 230 231 232
3 234 233 5
3 47 48 3
3 235 48 236
3 237 236 47
3 235 236 237
3 239 238 48
3 49 50 0
3 240 50 241
3 242 241 49
3 240 241 242
3 243 10 244
3 245 244 50
3 243 244 245
3 247 246 9
3 248 10 249
3 250 28 251
3 252 251 10
3 250 251 252
3 253 28 254
3 256 255 28
3 257 1 258
3 259 1 260
3 261 43 262
3 263 262 1
3 261 262 263
3 51 264 266
3 264 43 265
3 264 265 266
3 51 267 269
3 269 268 43
3 267 268 269
3 23 51 11
3 52 51 23
3 52 270 272
3 272 271 51
3 270 271 272
3 52 273 275
3 273 22 274
3 273 274 275
3 276 22 277
3 278 277 52
3 276 277 278
3 280 279 22
3 281 36 282
3 53 283 285
3 283 36 284
3 283 284 285
3 53 3 36
3 39 286 288
3 286 25 287
3 286 287 288
3 54 25 39
3 54 13 25
3 27 54 6
3 55 54 27
3 55 13 54
3 55 53 13
3 56 53 55
3 56 3 53
3 56 47 3
3 289 47 290
3 291 290 56
3 289 290 291
3 293 292 47
3 295 294 14
3 50 21 0
3 57 21 50
3 57 7 21
3 29 57 10
3 58 57 29
3 58 7 57
3 58 42 7
3 59 42 58
3 59 4 42
3 296 30 297
3 298 30 299
3 300 15 301
3 302 301 30
3 300 301 302
3 303 15 304
3 305 59 306
3 307 306 15
3 305 306 307
3 308 59 309
3 310 4 311
3 312 311 59
3 310 311 312
3 314 313 4
3 60 315 316
3 60 317 318
3 60 319 321
3 319 19 320
3 319 320 321
3 61 19 60
3 61 0 19
3 322 61 323
3 324 61 325
3 326 0 327
3 328 327 61
3 326 327 328
3 329 49 330
3 331 330 0
3 329 330 331
3 62 332 334
3 332 49 333
3 332 333 334
3 62 9 49
3 335 62 336
3 337 62 338
3 339 9 340
3 341 340 62
3 339 340 341
3 343 342 9
3 44 344 346
3 346 345 1
3 344 345 346
3 63 347 349
3 349 348 44
3 347 348 349
3 63 350 351
3 32 63 8
3 352 63 353
3 354 353 32
3 352 353 354
3 356 355 63
3 64 357 358
3 64 359 360
3 64 361 362
3 364 363 64
3 34 365 367
3 367 366 16
3 365 366 367
3 369 368 34
3 370 35 371
3 372 371 5
3 370 371 372
3 373 35 374
3 375 17 376
3 377 376 35
3 375 376 377
3 378 17 379
3 381 380 17
3 37 382 383
3 385 384 37
3 386 2 387
3 48 38 3
3 65 38 48
3 65 18 38
3 388 65 389
3 66 390 392
3 390 65 391
3 390 391 392
3 66 18 65
3 66 393 395
3 395 394 18
3 393 394 395
3 67 396 398
3 398 397 66
3 396 397 398
3 67 399 401
3 399 2 400
3 399 400 401
3 67 24 2
3 68 24 67
3 68 12 24
3 402 68 403
3 404 68 405
3 406 12 407
3 408 407 68
3 406 407 408
3 410 409 12
