ply
format ascii 1.0
element vertex 595
property float x
property float y
property float z
element face 597
property list uchar int vertex_index
end_header
-8.31771 55.473354 -37.535313
-10.057684 75.500885 -36.069984
-24.416458 57.992569 -5.871986
-19.035164 72.169449 -20.290688
-10.481638 85.392593 -33.229332
-15.894688 83.499794 -24.074327
-15.100258 75.685143 -28.206007
-8.804253 64.58567 -36.722088
-4.647708 70.937546 -42.396343
-25.81707 46.227539 -7.309085
-22.066885 65.975075 -12.66338
-13.47189 84.828743 -28.69005
-9.439204 70.031128 -36.483856
-7.148571 68.059822 -39.666817
-7.347888 73.580124 -39.45919
-25.453453 53.646847 -3.141323
-26.612892 48.291359 -4.367642
-25.160198 52.354977 -6.581172
-24.005226 49.916138 -9.254821
-23.781534 55.920677 -9.117818
-19.889597 75.147667 -17.594931
-21.348673 71.799477 -13.311667
-20.707226 69.244545 -16.264057
-19.313993 66.027023 -18.368132
-12.712161 76.065399 -32.195244
-13.857501 71.04628 -29.240585
-11.691688 71.301956 -33.050335
-10.688843 65.955139 -33.353569
-10.54792 80.51181 -34.97044
-7.383429 79.283424 -38.865128
-24.752787 54.781445 0.951244
-18.043848 81.064522 -19.243126
-18.006306 78.039391 -22.133999
-17.197039 74.412445 -24.261696
-15.81554 79.889969 -26.579479
-13.309158 80.754715 -30.896868
-8.43711 59.540775 -36.999607
-7.24448 57.127369 -39.797474
-7.102482 62.294254 -39.65414
-4.278085 76.959099 -42.077862
-23.325575 62.245419 -9.051966
-22.367254 59.721287 -11.920923
-15.834935 70.027657 -25.490309
-8.085259 54.195 -38.482601
-9.761084 72.735992 -36.335934
-8.514183 71.983841 -38.013641
-8.733464 74.69207 -37.790123
-24.907253 55.970806 -4.408037
-25.437902 53.047173 -4.887107
-24.818073 55.137455 -6.223133
-24.457478 54.157471 -7.861814
-24.195772 57.218124 -7.641479
-19.539656 73.771912 -19.087435
-20.376101 72.277168 -16.960701
-19.926653 70.751328 -18.202469
-20.102865 67.706093 -17.394646
-19.27042 69.214073 -19.315285
-18.387766 70.473465 -21.258465
-11.407918 75.885155 -34.179047
-12.217752 73.75795 -32.703129
-10.990214 73.304268 -34.569389
-10.55768 70.834579 -34.834972
-10.507637 83.142448 -34.255684
-8.98012 82.595497 -36.327492
-8.749706 85.267235 -35.498844
-24.402546 57.073368 -0.447723
-15.780288 84.865997 -22.404896
-16.879234 83.636909 -19.857021
-17.064867 82.335747 -21.575705
-18.172026 79.57122 -20.67626
-17.073925 80.878639 -23.104769
-17.031721 79.02137 -24.219194
-15.966636 81.755737 -25.396528
-12.027311 85.355888 -30.924883
-13.482472 82.954926 -29.825516
-12.11084 83.121323 -32.001137
-11.923061 80.913383 -32.987633
-8.619085 61.997494 -36.771351
-7.887463 61.117905 -38.211536
-7.972935 63.720787 -38.165058
-5.787256 78.26725 -40.57375
-23.115829 51.641792 -10.352625
-21.78817 68.861893 -12.985924
-21.93696 69.976273 -11.303857
-22.422909 66.914909 -11.005127
-22.952602 65.085121 -9.226655
-22.716724 64.153267 -10.85032
-22.950268 61.109642 -10.615059
-22.324694 62.947586 -12.131008
-16.185335 75.188866 -26.230818
-16.596291 72.157242 -24.902761
-15.597353 72.993469 -26.860346
-13.129295 68.877228 -29.736654
-14.034595 68.285751 -27.86471
-9.710503 65.489243 -35.155617
-9.373532 62.714607 -35.270397
-6.726932 55.661461 -41.135189
-5.830415 56.410885 -42.495304
-8.608879 87.626839 -34.254837
-14.561402 85.909584 -24.896545
-14.70355 84.298325 -26.449383
-13.270989 86.703285 -27.27462
-9.13873 67.315514 -36.552589
-8.054045 66.435173 -38.240547
-8.323514 69.127014 -38.069057
-7.22965 70.9534 -39.622467
-5.951653 72.544525 -41.012646
-25.901779 51.775833 -1.86593
-26.647421 49.029785 -2.607349
-26.026447 51.026672 -3.817936
-25.909678 50.141186 -5.466919
-25.524765 49.332127 -6.901182
-24.916788 47.998878 -8.239202
-24.736029 51.109875 -7.977771
-23.904388 52.87207 -9.203392
-23.14197 54.850117 -10.375597
-19.922279 76.517921 -16.225636
-20.649185 74.835785 -13.918686
-20.643553 73.647041 -15.44956
-21.094313 70.837112 -14.960418
-21.380365 67.823425 -14.510477
-21.573601 64.587616 -13.922339
-20.864107 66.275253 -15.624177
-13.930139 75.958214 -30.218752
-14.500572 73.472946 -28.846483
-13.448523 73.615318 -30.652956
-12.807647 71.415421 -31.171829
-12.18896 68.932205 -31.472622
-11.222514 68.732826 -33.174057
-10.239335 68.154869 -34.791508
-10.35761 78.054276 -35.581688
-8.823518 77.389091 -37.54858
-8.942876 80.084793 -37.020748
-7.203148 82.117836 -38.389534
-25.614714 52.116344 0.219674
-25.167356 54.438286 -1.185157
-24.754911 56.647079 -2.59944
-24.318916 58.935711 -4.094621
-18.979362 79.450531 -16.801128
-19.095219 78.149376 -18.410395
-18.984482 76.753433 -19.848265
-18.622671 75.226868 -21.243061
-18.145788 73.387741 -22.273649
-17.650948 76.341919 -23.383801
-16.643517 77.278847 -25.406734
-15.545347 77.727608 -27.468924
-14.767299 82.417023 -27.663015
-14.641724 80.258514 -28.730673
-14.280143 78.287498 -29.660641
-13.028385 78.348747 -31.703077
-11.715031 78.448624 -33.678337
-8.340112 57.303658 -37.264259
-7.889067 56.257618 -38.504299
-7.823612 58.561676 -38.395931
-7.122219 59.69416 -39.729752
-6.214765 60.828148 -41.171318
-7.097524 64.999397 -39.663189
-7.344409 76.471634 -39.279064
-5.887982 75.267906 -40.863308
-4.326736 73.891098 -42.420341
-2.635634 75.230797 -43.602776
-27.371778 46.293793 -3.309386
-27.988533 43.794579 -4.000572
-23.923439 60.927864 -5.711459
-23.461605 63.078388 -7.346342
-23.901878 59.953682 -7.447454
-23.57366 59.154572 -9.138976
-23.094467 57.933842 -10.441552
-22.394842 56.356327 -11.600611
-17.506281 71.493088 -23.115316
-16.764822 69.329475 -23.680523
-14.860387 70.702179 -27.392378
-7.511405 54.807365 -39.735538
-8.201484 54.834177 -38.008957
-8.344158 54.024328 -37.801508
-8.460383 54.663505 -37.327864
-4.690332 69.415543 -42.456446
-5.342842 70.288376 -41.71587
-3.94693 69.977913 -43.107731
-4.690332 69.415543 -42.456446
-26.279771 45.29792 -6.877045
-26.088189 46.703819 -6.641056
-25.929729 44.689203 -7.497851
-26.279771 45.29792 -6.877045
-25.445667 45.557361 -7.882438
-25.929729 44.689203 -7.497851
-22.664181 50.693933 -10.772498
-22.718302 52.454655 -10.882627
-13.2292 67.429378 -28.936943
-12.808203 67.575424 -29.81305
-5.629736 57.698656 -42.527488
-6.149162 57.300466 -41.790863
-13.725136 87.139072 -25.332964
-14.358722 86.69265 -24.068333
-13.079929 87.535923 -26.522002
-13.916196 86.306434 -26.085583
-13.725136 87.139072 -25.332964
-19.718681 65.296844 -17.492582
-20.113117 66.13638 -17.00584
-19.708429 66.866558 -17.881389
-19.280037 64.359197 -17.891415
-19.718681 65.296844 -17.492582
-18.896409 65.093429 -18.700016
-19.280037 64.359197 -17.891415
-7.188988 83.421776 -37.931614
-8.091634 82.356666 -37.358513
-8.077474 83.660607 -36.900593
-6.271427 83.038105 -38.952663
-7.188988 83.421776 -37.931614
-7.694548 87.452316 -35.412804
-7.505922 88.610516 -34.816942
-24.956518 53.594318 1.586007
-24.484773 54.908197 1.974717
-25.183751 53.448894 0.585459
-25.387481 52.261768 1.220222
-24.956518 53.594318 1.586007
-24.416978 57.991348 -2.334468
-24.578729 56.860224 -1.523581
-24.240795 58.204493 -1.25861
-24.19898 59.135664 -3.082059
-24.536914 57.791395 -3.34703
-24.416978 57.991348 -2.334468
-17.93658 81.631622 -18.337578
-17.354273 82.917816 -18.644526
-17.461541 82.350716 -19.550073
-18.511605 80.257526 -18.022127
-18.404337 80.824627 -17.116579
-17.93658 81.631622 -18.337578
-1.883426 74.224449 -44.262665
-1.645596 75.73558 -44.192189
-2.762987 73.642617 -43.700587
-1.883426 74.224449 -44.262665
-27.81322 43.275177 -4.810769
-27.591556 44.64058 -4.458813
-28.297154 42.420151 -4.381837
-27.81322 43.275177 -4.810769
-24.037026 48.276471 -9.294299
-24.492807 47.317841 -8.786489
-24.461007 48.957508 -8.747011
-23.645893 62.342411 -5.56599
-23.824887 61.289213 -4.775403
-21.327545 72.336681 -12.506395
-20.977801 73.854836 -12.809905
-20.998929 73.317631 -13.615177
-21.892125 70.442193 -10.370165
-22.207842 68.979069 -10.301134
-21.593432 63.05619 -13.698632
-21.21991 63.937697 -14.500683
-15.879453 68.682702 -24.86708
-16.344396 68.33361 -23.962187
-16.299878 69.678566 -24.585416
-14.487896 68.089214 -26.990052
-14.078577 66.843834 -27.133993
-10.82455 64.767851 -32.688845
-11.146533 66.113987 -32.494946
-8.657612 58.713329 -36.440363
-8.765918 59.889129 -36.255953
-8.388611 58.422216 -37.131933
-8.609113 57.59477 -36.572689
-8.657612 58.713329 -36.440363
-6.67758 53.60478 -41.835316
-6.930827 54.462 -41.112679
-6.473685 54.804241 -41.857826
-8.271038 53.183088 -38.3354
-8.529937 53.012417 -37.654307
-8.344158 54.024328 -37.801508
-7.986146 53.326155 -39.06897
-8.271038 53.183088 -38.3354
-18.880505 68.302177 -19.735537
-18.902292 66.708652 -19.26196
-19.292206 67.620548 -18.841708
-18.439178 68.931873 -20.707127
-18.880505 68.302177 -19.735537
-18.829093 69.843769 -20.286875
-17.995936 69.508145 -21.633835
-18.439178 68.931873 -20.707127
-7.962267 84.996476 -36.486269
-8.077474 83.660607 -36.900593
-8.864913 83.931366 -35.913168
-24.328047 56.051556 1.321464
-24.484773 54.908197 1.974717
-24.152926 57.197518 0.62198
-24.577666 55.927407 0.25176
-24.328047 56.051556 1.321464
-23.999341 58.449808 -0.201253
-24.152926 57.197518 0.62198
-24.240795 58.204493 -1.25861
-23.999341 58.449808 -0.201253
-16.329761 84.251453 -21.130958
-16.163361 84.893246 -20.219698
-15.613888 85.50779 -21.493636
-6.611763 67.286911 -40.364979
-6.593273 68.849514 -40.351107
-5.688786 79.631005 -40.390919
-6.585342 78.775337 -39.719439
-6.486873 80.139092 -39.536608
-4.834633 79.0313 -41.229776
-5.688786 79.631005 -40.390919
-4.080048 78.377224 -41.981833
-5.032671 77.613174 -41.325806
-4.834633 79.0313 -41.229776
-26.903736 46.88897 -4.642347
-26.4861 47.735729 -5.170334
-23.132462 50.018433 -10.286771
-23.57716 49.155605 -9.737869
-23.560527 50.778965 -9.803723
-23.132462 50.018433 -10.286771
-22.664181 50.693933 -10.772498
-22.450817 67.448387 -10.151769
-22.207842 68.979069 -10.301134
-22.179935 68.445591 -11.154492
-22.687756 66.000015 -10.115891
-22.715663 66.533493 -9.262533
-22.450817 67.448387 -10.151769
-13.68185 67.13364 -28.000971
-13.581945 68.58149 -28.800682
-13.2292 67.429378 -28.936943
-14.078577 66.843834 -27.133993
-13.68185 67.13364 -28.000971
-9.935873 64.395874 -34.422985
-10.425043 64.628822 -33.521961
-10.199673 65.722191 -34.254593
-9.767388 63.008556 -34.480375
-9.935873 64.395874 -34.422985
-9.542018 64.101925 -35.213007
-9.57142 61.752353 -34.628351
-9.767388 63.008556 -34.480375
-9.234129 61.476045 -35.391348
-9.57142 61.752353 -34.628351
-8.856905 61.117489 -36.141825
-9.234129 61.476045 -35.391348
-8.996309 62.356051 -36.020874
-8.528098 60.769134 -36.885479
-8.765918 59.889129 -36.255953
-8.856905 61.117489 -36.141825
-6.597421 56.925754 -41.110805
-6.985706 56.394415 -40.466331
-6.856194 57.658709 -40.441948
-6.278674 56.036173 -41.815247
-6.597421 56.925754 -41.110805
-6.149162 57.300466 -41.790863
-6.025426 55.178953 -42.537883
-6.473685 54.804241 -41.857826
-6.278674 56.036173 -41.815247
-9.415976 87.607769 -33.167029
-9.545258 86.509716 -33.742085
-10.352355 86.490646 -32.654276
-8.342842 88.764836 -33.661515
-9.415976 87.607769 -33.167029
-7.505922 88.610516 -34.816942
-8.342842 88.764836 -33.661515
-14.968166 86.170856 -22.822508
-15.613888 85.50779 -21.493636
-15.170845 85.38779 -23.65072
-14.968166 86.170856 -22.822508
-14.358722 86.69265 -24.068333
-12.317782 87.986393 -27.735306
-13.079929 87.535923 -26.522002
-12.54916 87.006085 -28.460968
-12.317782 87.986393 -27.735306
-12.64961 86.068814 -29.168683
-13.37144 85.766014 -27.982335
-12.54916 87.006085 -28.460968
-11.927321 86.332386 -30.286099
-12.7496 85.092315 -29.807467
-12.64961 86.068814 -29.168683
-11.125191 86.472294 -31.502052
-11.927321 86.332386 -30.286099
-10.352355 86.490646 -32.654276
-11.254475 85.37424 -32.077107
-11.125191 86.472294 -31.502052
-6.633813 70.296303 -40.328932
-6.593273 68.849514 -40.351107
-7.18911 69.506611 -39.644642
-5.994814 71.091865 -41.024022
-6.633813 70.296303 -40.328932
-6.590651 71.748963 -40.317556
-5.299681 71.741035 -41.704494
-5.342842 70.288376 -41.71587
-5.994814 71.091865 -41.024022
-26.2746 50.402809 -2.236639
-26.536506 49.35211 -1.632957
-26.163685 50.725134 -1.262247
-26.134493 48.660642 -5.719972
-26.4861 47.735729 -5.170334
-26.261285 49.216273 -4.917281
-25.942037 48.256113 -6.437104
-26.134493 48.660642 -5.719972
-25.717222 49.736656 -6.18405
-25.670918 47.779833 -7.105133
-26.088189 46.703819 -6.641056
-25.942037 48.256113 -6.437104
-22.731372 54.058817 -10.894113
-22.718302 52.454655 -10.882627
-23.1289 53.245954 -10.364111
-20.285732 75.676853 -15.072161
-20.220745 76.259529 -14.16694
-19.857292 77.100597 -15.320415
-20.865163 64.781515 -15.351602
-21.21991 63.937697 -14.500683
-21.218854 65.431434 -14.773258
-20.493738 65.42096 -16.120605
-20.483486 66.990673 -16.509411
-20.113117 66.13638 -17.00584
-20.865163 64.781515 -15.351602
-20.493738 65.42096 -16.120605
-18.896409 65.093429 -18.700016
-18.902292 66.708652 -19.26196
-12.338035 67.602913 -30.681034
-12.808203 67.575424 -29.81305
-12.659128 68.904717 -30.604638
-11.896591 67.60252 -31.554473
-12.338035 67.602913 -30.681034
-11.413369 67.502831 -32.40519
-11.896591 67.60252 -31.554473
-11.705737 68.832515 -32.32334
-10.955679 67.343983 -33.263813
-11.146533 66.113987 -32.494946
-11.413369 67.502831 -32.40519
-6.396732 81.556297 -39.298811
-6.486873 80.139092 -39.536608
-7.293288 80.70063 -38.627331
-6.396732 81.556297 -39.298811
-6.271427 83.038105 -38.952663
-7.764962 86.272514 -36.034807
-8.679292 86.447037 -34.876841
-7.694548 87.452316 -35.412804
-7.962267 84.996476 -36.486269
-7.764962 86.272514 -36.034807
-25.847237 51.01384 0.81631
-25.387481 52.261768 1.220222
-26.020153 50.89539 -0.219445
-25.847237 51.01384 0.81631
-25.758246 51.946089 -0.823128
-26.163685 50.725134 -1.262247
-26.020153 50.89539 -0.219445
-16.672777 84.231731 -18.915914
-16.163361 84.893246 -20.219698
-16.672777 84.231731 -18.915914
-17.354273 82.917816 -18.644526
-18.852611 79.957695 -15.766247
-18.404337 80.824627 -17.116579
-19.385833 78.566902 -15.608161
-18.852611 79.957695 -15.766247
-19.45082 77.984226 -16.513382
-19.857292 77.100597 -15.320415
-19.385833 78.566902 -15.608161
-6.795064 58.942104 -40.408087
-6.856194 57.658709 -40.441948
-7.18335 58.410764 -39.763613
-6.341337 59.509098 -41.12887
-6.795064 58.942104 -40.408087
-6.668492 60.261154 -40.450535
-5.821911 59.907287 -41.865495
-6.341337 59.509098 -41.12887
-6.586239 65.756698 -40.363165
-7.123048 66.529609 -39.665003
-6.611763 67.286911 -40.364979
-6.625493 64.269239 -40.365389
-6.586239 65.756698 -40.363165
-6.627972 62.916668 -40.360864
-7.100003 63.646826 -39.658665
-6.625493 64.269239 -40.365389
-6.184114 62.183615 -41.119453
-6.658624 61.561201 -40.412729
-6.627972 62.916668 -40.360864
-5.701838 61.401789 -41.822434
-6.184114 62.183615 -41.119453
-5.821911 59.907287 -41.865495
-5.701838 61.401789 -41.822434
-3.236294 77.586476 -42.753012
-4.080048 78.377224 -41.981833
-2.415069 76.722324 -43.515469
-1.645596 75.73558 -44.192189
-3.45686 76.094948 -42.840319
-3.236294 77.586476 -42.753012
-2.415069 76.722324 -43.515469
-3.608538 72.972767 -43.109369
-3.481185 74.560947 -43.011558
-2.762987 73.642617 -43.700587
-3.769024 71.495991 -43.09737
-4.487222 72.414322 -42.408342
-3.608538 72.972767 -43.109369
-3.94693 69.977913 -43.107731
-3.769024 71.495991 -43.09737
-26.965051 48.023291 -2.063953
-26.536506 49.35211 -1.632957
-27.32723 46.655294 -2.414972
-26.965051 48.023291 -2.063953
-27.0096 47.661789 -2.958368
-27.71712 45.422902 -2.791751
-27.32723 46.655294 -2.414972
-27.283179 45.890186 -4.113219
-26.992335 47.292576 -3.838514
-26.903736 46.88897 -4.642347
-27.680155 45.044186 -3.654979
-27.283179 45.890186 -4.113219
-27.591556 44.64058 -4.458813
-28.025498 44.173294 -3.137344
-27.71712 45.422902 -2.791751
-27.680155 45.044186 -3.654979
-28.417839 42.876144 -3.559425
-28.025498 44.173294 -3.137344
-28.417839 42.876144 -3.559425
-28.297154 42.420151 -4.381837
-24.995525 46.443031 -8.347497
-25.445667 45.557361 -7.882438
-25.366929 47.113208 -7.774144
-24.995525 46.443031 -8.347497
-24.492807 47.317841 -8.786489
-24.037026 48.276471 -9.294299
-23.57716 49.155605 -9.737869
-24.022626 60.293137 -3.966983
-24.19898 59.135664 -3.082059
-24.121178 59.931787 -4.90304
-24.022626 60.293137 -3.966983
-23.824887 61.289213 -4.775403
-20.576658 75.282803 -12.902599
-20.220745 76.259529 -14.16694
-20.576658 75.282803 -12.902599
-20.977801 73.854836 -12.809905
-21.621688 71.42508 -11.502491
-21.327545 72.336681 -12.506395
-21.642817 70.887875 -12.307762
-21.621688 71.42508 -11.502491
-21.892125 70.442193 -10.370165
-22.945378 65.539592 -8.271727
-22.715663 66.533493 -9.262533
-23.19988 64.536226 -7.33157
-22.945378 65.539592 -8.271727
-23.207103 64.081755 -8.286499
-23.414976 63.417673 -6.383432
-23.19988 64.536226 -7.33157
-23.692522 62.003126 -6.5289
-23.645893 62.342411 -5.56599
-23.414976 63.417673 -6.383432
-22.357808 54.811922 -11.50662
-22.731372 54.058817 -10.894113
-22.768406 55.603222 -10.988104
-21.968978 62.236176 -12.802967
-21.949148 63.767601 -13.026673
-21.593432 63.05619 -13.698632
-21.990258 60.623026 -12.697924
-22.345974 61.334436 -12.025965
-21.968978 62.236176 -12.802967
-21.995609 59.05768 -12.455179
-21.990258 60.623026 -12.697924
-22.009403 57.3752 -12.295023
-22.381048 58.038807 -11.760767
-21.995609 59.05768 -12.455179
-21.931801 55.732464 -12.13145
-22.009403 57.3752 -12.295023
-22.357808 54.811922 -11.50662
-21.931801 55.732464 -12.13145
-17.555194 70.017956 -22.562261
-17.995936 69.508145 -21.633835
-17.947024 70.983277 -22.186891
-17.184464 68.936149 -22.844864
-17.555194 70.017956 -22.562261
-17.135551 70.411282 -23.39792
-16.780199 67.801246 -23.041846
-17.184464 68.936149 -22.844864
-16.780199 67.801246 -23.041846
-16.344396 68.33361 -23.962187
-14.900792 69.297428 -26.753887
-14.447491 69.493965 -27.628544
-14.487896 68.089214 -26.990052
-15.388065 68.960167 -25.802852
-15.347661 70.364918 -26.441344
-14.900792 69.297428 -26.753887
-15.879453 68.682702 -24.86708
-15.388065 68.960167 -25.802852
-10.82455 64.767851 -32.688845
-10.425043 64.628822 -33.521961
-8.537651 56.522498 -36.808979
-8.609113 57.59477 -36.572689
-8.328911 56.388506 -37.399786
-8.52645 55.607346 -36.944506
-8.537651 56.522498 -36.808979
-8.52645 55.607346 -36.944506
-8.460383 54.663505 -37.327864
-7.699218 53.632337 -39.695438
-7.986146 53.326155 -39.06897
-7.798332 54.501182 -39.10907
-7.323064 54.034952 -40.412853
-7.119168 55.234413 -40.435363
-6.930827 54.462 -41.112679
-7.699218 53.632337 -39.695438
-7.323064 54.034952 -40.412853
-5.239681 56.796921 -43.221379
-5.629736 57.698656 -42.527488
-5.51933 55.483858 -43.216814
-5.239681 56.796921 -43.221379
-6.025426 55.178953 -42.537883
-5.51933 55.483858 -43.216814
3 0 173 175
3 173 43 174
3 173 174 175
3 1 46 44
3 2 49 47
3 2 51 49
3 3 54 52
3 3 56 54
3 3 57 56
3 1 60 58
3 1 44 60
3 4 64 62
3 5 68 66
3 5 70 68
3 5 72 70
3 4 75 73
3 4 62 75
3 7 79 77
3 8 176 177
3 8 178 179
3 9 180 181
3 9 182 183
3 9 184 185
3 187 186 81
3 10 84 82
3 10 86 84
3 10 88 86
3 6 91 89
3 189 188 92
3 7 95 94
3 7 77 95
3 190 97 191
3 192 99 193
3 194 101 195
3 196 195 99
3 194 195 196
3 12 104 102
3 14 105 45
3 14 106 105
3 15 109 107
3 17 110 48
3 17 111 110
3 17 113 111
3 19 114 50
3 19 115 114
3 20 118 116
3 22 119 53
3 22 120 119
3 22 122 120
3 23 197 199
3 199 198 55
3 197 198 199
3 23 200 201
3 23 202 203
3 24 125 123
3 26 126 59
3 26 127 126
3 26 128 127
3 12 129 61
3 12 102 129
3 28 132 130
3 204 133 205
3 206 205 63
3 204 205 206
3 208 207 133
3 210 209 98
3 30 211 212
3 30 213 215
3 213 134 214
3 213 214 215
3 30 135 134
3 216 136 217
3 218 217 65
3 216 217 218
3 219 137 220
3 221 220 136
3 219 220 221
3 31 222 224
3 224 223 67
3 222 223 224
3 31 225 227
3 225 138 226
3 225 226 227
3 31 139 138
3 32 140 69
3 32 141 140
3 32 143 141
3 34 144 71
3 34 145 144
3 11 146 100
3 35 147 74
3 35 148 147
3 35 149 148
3 28 150 76
3 28 130 150
3 36 153 151
3 38 154 78
3 38 155 154
3 13 156 103
3 29 157 131
3 39 158 80
3 39 159 158
3 228 160 229
3 231 230 160
3 16 161 108
3 232 162 233
3 235 234 162
3 18 236 238
3 238 237 112
3 236 237 238
3 239 163 240
3 21 241 243
3 243 242 117
3 241 242 243
3 245 244 83
3 40 164 85
3 40 165 164
3 40 166 165
3 41 167 87
3 41 168 167
3 247 246 121
3 33 169 142
3 42 170 90
3 42 248 250
3 250 249 170
3 248 249 250
3 25 171 124
3 252 251 93
3 27 253 254
3 36 255 256
3 36 257 259
3 257 151 258
3 257 258 259
3 37 172 152
3 262 261 96
3 260 261 262
3 43 263 265
3 263 264 265
3 43 266 267
3 44 45 12
3 46 45 44
3 46 14 45
3 47 48 15
3 49 48 47
3 49 17 48
3 49 50 17
3 51 50 49
3 51 19 50
3 52 53 20
3 54 53 52
3 54 22 53
3 54 55 22
3 56 55 54
3 56 23 55
3 56 268 270
3 270 269 23
3 268 269 270
3 57 271 273
3 273 272 56
3 271 272 273
3 57 274 275
3 58 59 24
3 60 59 58
3 60 26 59
3 60 61 26
3 44 61 60
3 44 12 61
3 62 63 28
3 64 63 62
3 64 276 278
3 278 277 63
3 276 277 278
3 279 30 280
3 281 65 282
3 283 282 30
3 281 282 283
3 284 65 285
3 287 286 65
3 66 288 290
3 288 67 289
3 288 289 290
3 68 67 66
3 68 31 67
3 68 69 31
3 70 69 68
3 70 32 69
3 70 71 32
3 72 71 70
3 72 34 71
3 73 74 11
3 75 74 73
3 75 35 74
3 75 76 35
3 62 76 75
3 62 28 76
3 77 78 36
3 79 78 77
3 79 38 78
3 292 291 13
3 293 80 294
3 295 294 29
3 293 294 295
3 296 80 297
3 298 39 299
3 300 299 80
3 298 299 300
3 302 301 16
3 81 303 305
3 305 304 18
3 303 304 305
3 307 306 81
3 82 83 21
3 84 83 82
3 84 308 310
3 310 309 83
3 308 309 310
3 84 311 313
3 311 85 312
3 311 312 313
3 86 85 84
3 86 40 85
3 86 87 40
3 88 87 86
3 88 41 87
3 89 90 33
3 91 90 89
3 91 42 90
3 92 93 25
3 314 93 315
3 316 315 92
3 314 315 316
3 318 317 93
3 94 319 321
3 321 320 27
3 319 320 321
3 95 322 324
3 324 323 94
3 322 323 324
3 95 325 326
3 95 327 328
3 77 329 331
3 331 330 95
3 329 330 331
3 77 332 334
3 332 36 333
3 332 333 334
3 335 96 336
3 337 336 37
3 335 336 337
3 97 338 340
3 338 96 339
3 338 339 340
3 97 341 343
3 343 342 96
3 341 342 343
3 344 98 345
3 346 345 4
3 344 345 346
3 347 98 348
3 350 349 98
3 351 66 352
3 99 353 355
3 353 66 354
3 353 354 355
3 99 5 66
3 99 100 5
3 101 100 99
3 101 11 100
3 356 101 357
3 358 101 359
3 360 11 361
3 362 361 101
3 360 361 362
3 363 73 364
3 365 364 11
3 363 364 365
3 366 73 367
3 368 4 369
3 370 369 73
3 368 369 370
3 102 103 7
3 104 103 102
3 104 13 103
3 45 104 12
3 105 104 45
3 105 13 104
3 105 371 373
3 373 372 13
3 371 372 373
3 106 374 376
3 376 375 105
3 374 375 376
3 106 377 379
3 377 8 378
3 377 378 379
3 107 380 382
3 380 108 381
3 380 381 382
3 109 108 107
3 109 16 108
3 48 109 15
3 110 109 48
3 110 16 109
3 110 383 385
3 385 384 16
3 383 384 385
3 111 386 388
3 388 387 110
3 386 387 388
3 111 389 391
3 389 9 390
3 389 390 391
3 111 112 9
3 113 112 111
3 113 18 112
3 50 113 17
3 114 113 50
3 114 18 113
3 114 81 18
3 115 81 114
3 115 392 394
3 394 393 81
3 392 393 394
3 116 395 397
3 395 117 396
3 395 396 397
3 118 117 116
3 118 21 117
3 53 118 20
3 119 118 53
3 119 21 118
3 119 82 21
3 120 82 119
3 120 10 82
3 120 121 10
3 122 121 120
3 122 398 400
3 400 399 121
3 398 399 400
3 55 122 22
3 401 122 402
3 403 402 55
3 401 402 403
3 405 404 122
3 407 406 23
3 123 124 6
3 125 124 123
3 125 25 124
3 59 125 24
3 126 125 59
3 126 25 125
3 126 92 25
3 127 92 126
3 127 408 410
3 410 409 92
3 408 409 410
3 127 411 412
3 128 413 415
3 415 414 127
3 413 414 415
3 128 416 418
3 416 27 417
3 416 417 418
3 61 128 26
3 129 128 61
3 129 27 128
3 129 94 27
3 102 94 129
3 102 7 94
3 130 131 1
3 132 131 130
3 132 29 131
3 63 132 28
3 133 132 63
3 133 29 132
3 133 419 421
3 421 420 29
3 419 420 421
3 423 422 133
3 98 64 4
3 424 64 425
3 426 425 98
3 424 425 426
3 428 427 64
3 134 429 430
3 134 431 432
3 134 433 435
3 433 107 434
3 433 434 435
3 135 107 134
3 135 15 107
3 65 135 30
3 136 135 65
3 136 15 135
3 136 47 15
3 137 47 136
3 137 2 47
3 67 436 437
3 439 438 67
3 138 440 441
3 138 442 443
3 138 444 446
3 444 116 445
3 444 445 446
3 139 116 138
3 139 20 116
3 69 139 31
3 140 139 69
3 140 20 139
3 140 52 20
3 141 52 140
3 141 3 52
3 141 142 3
3 143 142 141
3 143 33 142
3 71 143 32
3 144 143 71
3 144 33 143
3 144 89 33
3 145 89 144
3 145 6 89
3 100 72 5
3 146 72 100
3 146 34 72
3 74 146 11
3 147 146 74
3 147 34 146
3 147 145 34
3 148 145 147
3 148 6 145
3 148 123 6
3 149 123 148
3 149 24 123
3 76 149 35
3 150 149 76
3 150 24 149
3 150 58 24
3 130 58 150
3 130 1 58
3 151 152 0
3 153 152 151
3 153 37 152
3 78 153 36
3 154 153 78
3 154 37 153
3 154 447 449
3 449 448 37
3 447 448 449
3 155 450 452
3 452 451 154
3 450 451 452
3 155 453 454
3 103 79 7
3 156 79 103
3 156 38 79
3 455 156 456
3 457 456 13
3 455 456 457
3 458 156 459
3 460 38 461
3 462 461 156
3 460 461 462
3 463 155 464
3 465 464 38
3 463 464 465
3 466 155 467
3 469 468 155
3 131 46 1
3 157 46 131
3 157 14 46
3 80 157 29
3 158 157 80
3 158 14 157
3 158 106 14
3 159 106 158
3 159 8 106
3 470 39 471
3 160 472 473
3 160 474 476
3 474 39 475
3 474 475 476
3 160 159 39
3 477 159 478
3 479 478 160
3 477 478 479
3 480 8 481
3 482 481 159
3 480 481 482
3 484 483 8
3 108 485 486
3 161 487 489
3 489 488 108
3 487 488 489
3 161 490 491
3 492 161 493
3 494 493 16
3 492 493 494
3 162 495 497
3 495 161 496
3 495 496 497
3 162 498 500
3 500 499 161
3 498 499 500
3 162 501 502
3 504 503 162
3 112 505 507
3 507 506 9
3 505 506 507
3 509 508 112
3 511 510 18
3 512 137 513
3 163 514 516
3 514 137 515
3 514 515 516
3 163 2 137
3 117 517 518
3 520 519 117
3 83 521 523
3 523 522 21
3 521 522 523
3 525 524 83
3 85 526 527
3 164 528 530
3 530 529 85
3 528 529 530
3 164 531 532
3 164 533 535
3 533 163 534
3 533 534 535
3 165 163 164
3 165 2 163
3 165 51 2
3 166 51 165
3 166 19 51
3 87 166 40
3 167 166 87
3 167 19 166
3 167 115 19
3 168 115 167
3 168 536 538
3 538 537 115
3 536 537 538
3 121 88 10
3 539 88 540
3 541 540 121
3 539 540 541
3 542 41 543
3 544 543 88
3 542 543 544
3 545 41 546
3 547 168 548
3 549 548 41
3 547 548 549
3 550 168 551
3 553 552 168
3 142 57 3
3 169 57 142
3 169 554 556
3 556 555 57
3 554 555 556
3 90 169 33
3 170 169 90
3 170 557 559
3 559 558 169
3 557 558 559
3 170 560 561
3 563 562 170
3 124 91 6
3 171 91 124
3 171 42 91
3 93 171 25
3 564 171 565
3 566 565 93
3 564 565 566
3 567 42 568
3 569 568 171
3 567 568 569
3 571 570 42
3 573 572 27
3 151 574 575
3 151 576 578
3 576 0 577
3 576 577 578
3 579 0 580
3 152 43 0
3 172 43 152
3 172 581 583
3 583 582 43
3 581 582 583
3 96 172 37
3 584 172 585
3 586 585 96
3 584 585 586
3 588 587 172
3 589 97 590
3 591 97 592
3 594 593 97
