ply
format ascii 1.0
element vertex 232
property float x
property float y
property float z
element face 199
property list uchar int vertex_index
end_header
24.286526 -71.609108 42.028896
26.680336 -73.189728 32.563766
27.183891 -76.84726 18.158243
25.681789 -72.774918 37.222168
24.846321 -77.120102 32.403664
23.304192 -76.120277 36.762051
22.479637 -70.25695 46.032742
21.540104 -74.38279 40.961971
27.376463 -72.999916 27.772379
26.784288 -77.556808 22.937258
25.959841 -77.775291 27.685669
27.785528 -71.940094 20.470724
27.493624 -74.128632 18.1068
27.446394 -74.593628 20.561893
24.98608 -72.391205 39.579639
24.620121 -74.522942 37.075699
23.840202 -73.913193 39.363663
24.619848 -69.472687 44.394302
21.068401 -71.452019 45.356308
27.068974 -73.195366 30.126804
26.749966 -75.398102 27.850327
26.314598 -75.529846 30.098759
23.622629 -78.937874 31.950346
27.299255 -73.083023 13.181357
27.424364 -73.741058 15.487224
27.239773 -76.254852 15.637203
26.216026 -73.050072 34.946735
25.837784 -75.322212 32.457912
25.283312 -74.965332 34.796513
24.102518 -76.695366 34.647915
23.402464 -71.019966 44.078362
23.003269 -73.071487 41.651382
22.068514 -72.326141 43.549217
20.639816 -73.387001 42.828854
23.839714 -68.788689 46.452255
27.595676 -72.758392 25.239506
27.31609 -74.929398 23.018444
27.087708 -75.25589 25.297344
26.457298 -77.631538 25.329838
25.709627 -79.851471 25.177261
25.429712 -77.6147 29.949814
25.047709 -79.884171 27.388542
22.469343 -75.261581 38.976089
21.937334 -77.447205 36.16058
27.045923 -77.154572 20.677631
27.580614 -73.55048 21.669992
27.615961 -73.266861 20.516309
27.750181 -72.223713 21.624408
27.750181 -72.223713 21.624408
27.914386 -70.95483 21.601136
24.841119 -70.786038 42.102202
25.00778 -69.717827 43.284905
24.453187 -70.540897 43.211599
24.636303 -72.000157 40.804268
25.190896 -71.177086 40.877573
24.841119 -70.786038 42.102202
23.408006 -80.015598 30.620102
22.928646 -79.71775 31.632781
27.013167 -72.082157 32.58552
26.823474 -72.068905 33.844786
26.874655 -73.192547 31.345285
27.207486 -72.084976 31.367038
27.013167 -72.082157 32.58552
27.583866 -72.64431 16.737739
27.52921 -72.331695 15.538674
27.084801 -77.93644 16.905929
27.112742 -77.640236 15.645409
27.211832 -76.551056 16.897723
23.040623 -77.222279 35.40032
23.439786 -77.509823 34.343252
23.703355 -76.407822 35.704983
26.131355 -71.676682 37.41206
25.822707 -71.670716 38.513756
25.948907 -72.912495 36.084452
26.398474 -71.814258 36.274344
26.131355 -71.676682 37.41206
20.084827 -72.771518 43.833325
20.854109 -72.41951 44.092581
20.29912 -71.804028 45.097051
19.832807 -73.722324 42.502802
20.084827 -72.771518 43.833325
23.159675 -69.522819 46.242498
23.391257 -68.423401 47.425142
22.711218 -69.157532 47.215385
27.164504 -74.180999 11.964223
27.234068 -74.443623 13.10692
24.52263 -80.774307 27.241226
24.715205 -79.618184 28.643061
24.897837 -80.953175 26.126093
24.52263 -80.774307 27.241226
21.194593 -77.888379 35.920086
21.493835 -76.931377 37.20608
21.626135 -78.482754 34.829443
21.194593 -77.888379 35.920086
27.604408 -71.871189 27.687425
27.512594 -71.895573 28.958046
27.486069 -72.879154 26.505942
27.714015 -71.750427 26.420989
27.604408 -71.871189 27.687425
27.639576 -73.034363 19.288762
27.618496 -72.838097 18.047528
27.764448 -71.743828 19.229489
27.919747 -70.639415 20.396988
27.914386 -70.95483 21.601136
27.764448 -71.743828 19.229489
27.919747 -70.639415 20.396988
25.151133 -68.539208 44.508007
24.766889 -68.319256 45.58499
25.151133 -68.539208 44.508007
25.00778 -69.717827 43.284905
25.474853 -71.478859 39.692492
25.190896 -71.177086 40.877573
25.333934 -72.583061 38.400903
25.822707 -71.670716 38.513756
25.474853 -71.478859 39.692492
21.28387 -70.363007 46.68824
21.774019 -70.854485 45.694525
21.989488 -69.765472 47.026457
20.580942 -70.813755 46.403251
21.28387 -70.363007 46.68824
20.29912 -71.804028 45.097051
20.580942 -70.813755 46.403251
21.989488 -69.765472 47.026457
22.711218 -69.157532 47.215385
24.002665 -79.145035 30.923963
24.614511 -78.236149 31.150621
24.234475 -78.028988 32.177005
24.002665 -79.145035 30.923963
23.408006 -80.015598 30.620102
21.29522 -75.39917 39.606775
20.774045 -74.882938 40.552563
27.358849 -71.993298 30.135258
27.207486 -72.084976 31.367038
27.222718 -73.097641 28.949592
27.512594 -71.895573 28.958046
27.358849 -71.993298 30.135258
26.677574 -78.584801 21.781153
26.469729 -78.772953 22.883705
27.466656 -72.002678 14.385741
27.355631 -71.813072 13.121696
27.361809 -73.41204 14.33429
27.466656 -72.002678 14.385741
27.52921 -72.331695 15.538674
27.296622 -74.77264 14.259853
27.234068 -74.443623 13.10692
27.361809 -73.41204 14.33429
27.458994 -73.934845 16.797012
27.583866 -72.64431 16.737739
27.618496 -72.838097 18.047528
27.204327 -76.029537 14.334843
27.296622 -74.77264 14.259853
27.332068 -74.997955 15.562213
27.145695 -77.292633 14.428912
27.204327 -76.029537 14.334843
27.145695 -77.292633 14.428912
27.112742 -77.640236 15.645409
23.199841 -78.631077 32.994467
23.862573 -77.81662 33.29913
23.439786 -77.509823 34.343252
22.928646 -79.71775 31.632781
23.199841 -78.631077 32.994467
26.591319 -71.999077 35.03627
26.398474 -71.814258 36.274344
26.448181 -73.1199 33.755251
26.823474 -72.068905 33.844786
26.591319 -71.999077 35.03627
20.323901 -74.385044 41.486004
20.774045 -74.882938 40.552563
21.08996 -73.884895 41.895412
20.323901 -74.385044 41.486004
19.832807 -73.722324 42.502802
23.963116 -67.644921 47.66686
23.391257 -68.423401 47.425142
24.376821 -67.977257 46.613966
23.963116 -67.644921 47.66686
24.229781 -69.130688 45.423279
24.766889 -68.319256 45.58499
24.376821 -67.977257 46.613966
27.185341 -72.84856 11.962772
27.355631 -71.813072 13.121696
27.185341 -72.84856 11.962772
27.164504 -74.180999 11.964223
27.455883 -73.843895 24.128975
27.515462 -73.718365 22.898267
27.655255 -72.632862 24.008798
26.306234 -78.810318 24.079995
26.469729 -78.772953 22.883705
26.620793 -77.594173 24.133548
25.932398 -79.920285 24.003707
26.306234 -78.810318 24.079995
26.083463 -78.741505 25.253549
25.567695 -80.941353 23.974414
25.932398 -79.920285 24.003707
24.906207 -78.483448 29.923696
25.138016 -77.367401 31.176739
24.614511 -78.236149 31.150621
25.23871 -78.749436 28.669178
24.906207 -78.483448 29.923696
24.715205 -79.618184 28.643061
25.228796 -80.936825 25.020453
25.378668 -79.867821 26.282902
24.897837 -80.953175 26.126093
25.567695 -80.941353 23.974414
25.228796 -80.936825 25.020453
21.75984 -75.838566 38.613834
22.004723 -74.822186 39.96903
21.29522 -75.39917 39.606775
22.203339 -76.354393 37.568335
21.75984 -75.838566 38.613834
21.493835 -76.931377 37.20608
22.357194 -77.885742 35.099585
23.040623 -77.222279 35.40032
22.620763 -76.783741 36.461315
22.357194 -77.885742 35.099585
21.626135 -78.482754 34.829443
27.788744 -71.549198 25.185284
27.714015 -71.750427 26.420989
27.655255 -72.632862 24.008798
27.788744 -71.549198 25.185284
27.381242 -74.761513 21.790169
27.580614 -73.55048 21.669992
27.515462 -73.718365 22.898267
26.808391 -78.383682 20.651339
26.915105 -77.35569 21.807445
26.677574 -78.584801 21.781153
26.929147 -78.313541 19.45111
26.808391 -78.383682 20.651339
26.998131 -78.159886 18.191416
27.114907 -77.000916 19.417937
26.929147 -78.313541 19.45111
27.084801 -77.93644 16.905929
26.998131 -78.159886 18.191416
3 45 13 46
3 47 46 11
3 45 46 47
3 48 11 49
3 0 16 14
3 0 50 52
3 52 51 17
3 50 51 52
3 0 53 55
3 53 14 54
3 53 54 55
3 1 21 19
3 57 56 22
3 1 58 59
3 1 60 62
3 60 19 61
3 60 61 62
3 63 24 64
3 2 25 12
3 2 65 67
3 67 66 25
3 65 66 67
3 3 28 26
3 5 29 15
3 5 68 70
3 70 69 29
3 68 69 70
3 3 71 72
3 3 73 75
3 73 26 74
3 73 74 75
3 6 32 30
3 76 33 77
3 78 77 18
3 76 77 78
3 80 79 33
3 6 81 83
3 81 34 82
3 81 82 83
3 6 30 34
3 85 84 23
3 8 37 35
3 10 38 20
3 10 39 38
3 4 40 27
3 86 41 87
3 89 88 41
3 7 42 31
3 90 43 91
3 93 92 43
3 8 94 95
3 8 96 98
3 96 35 97
3 96 97 98
3 9 44 36
3 11 99 101
3 99 12 100
3 99 100 101
3 13 12 11
3 13 2 12
3 11 102 103
3 11 104 105
3 14 15 3
3 16 15 14
3 16 5 15
3 17 106 107
3 109 108 17
3 14 110 111
3 14 112 114
3 112 3 113
3 112 113 114
3 115 18 116
3 117 116 6
3 115 116 117
3 118 18 119
3 121 120 18
3 122 6 123
3 19 20 8
3 21 20 19
3 21 10 20
3 22 124 126
3 126 125 4
3 124 125 126
3 128 127 22
3 130 129 7
3 19 131 132
3 19 133 135
3 133 8 134
3 133 134 135
3 137 136 9
3 138 23 139
3 24 140 142
3 140 23 141
3 140 141 142
3 24 143 145
3 145 144 23
3 143 144 145
3 12 146 148
3 146 24 147
3 146 147 148
3 25 24 12
3 25 149 151
3 151 150 24
3 149 150 151
3 25 152 153
3 155 154 25
3 26 27 1
3 28 27 26
3 28 4 27
3 15 28 3
3 29 28 15
3 29 4 28
3 29 22 4
3 156 22 157
3 158 157 29
3 156 157 158
3 160 159 22
3 26 161 162
3 26 163 165
3 163 1 164
3 163 164 165
3 30 31 0
3 32 31 30
3 32 7 31
3 18 32 6
3 33 32 18
3 33 7 32
3 33 166 168
3 168 167 7
3 166 167 168
3 170 169 33
3 34 171 172
3 34 173 174
3 34 175 177
3 175 17 176
3 175 176 177
3 30 17 34
3 30 0 17
3 23 178 179
3 181 180 23
3 35 182 184
3 182 36 183
3 182 183 184
3 37 36 35
3 37 9 36
3 20 37 8
3 38 37 20
3 38 9 37
3 38 185 187
3 187 186 9
3 185 186 187
3 39 188 190
3 190 189 38
3 188 189 190
3 39 191 192
3 27 21 1
3 40 21 27
3 40 10 21
3 193 40 194
3 195 194 4
3 193 194 195
3 41 196 198
3 196 40 197
3 196 197 198
3 41 10 40
3 41 39 10
3 199 39 200
3 201 200 41
3 199 200 201
3 203 202 39
3 31 16 0
3 42 16 31
3 42 5 16
3 204 42 205
3 206 205 7
3 204 205 206
3 43 207 209
3 207 42 208
3 207 208 209
3 43 5 42
3 43 210 212
3 212 211 5
3 210 211 212
3 214 213 43
3 35 215 216
3 35 217 218
3 36 219 221
3 219 13 220
3 219 220 221
3 44 13 36
3 44 2 13
3 222 44 223
3 224 223 9
3 222 223 224
3 225 44 226
3 227 2 228
3 229 228 44
3 227 228 229
3 231 230 2
