ply
format ascii 1.0
element vertex 72
property float x
property float y
property float z
element face 54
property list uchar int vertex_index
end_header
-24.561554 52.949036 54.198463
-22.14641 48.261322 57.012783
-21.428888 55.820866 53.225109
-25.868837 50.959438 54.410301
-20.539108 49.708588 56.206921
-21.857044 52.162521 55.126434
-20.109102 53.393208 54.312084
-23.425442 50.634335 55.722607
-23.088711 54.640274 53.765522
-19.757664 57.125217 52.274174
-19.489333 52.154579 54.763599
-20.324105 51.550898 55.259502
-19.704336 50.312269 55.711018
-25.116394 53.947992 53.354624
-25.770035 52.953193 53.460543
-25.215196 51.954237 54.304382
-24.433838 54.942104 53.19175
-25.116394 53.947992 53.354624
-22.785926 49.447828 56.367695
-23.577419 48.748236 56.572035
-22.937903 47.561729 57.217123
-22.126097 57.130351 52.479204
-22.956008 56.540054 52.74941
-22.2588 55.23057 53.495316
-18.9417 57.630898 51.752589
-19.063326 55.898741 52.71929
-26.000771 48.912211 55.274732
-26.485118 49.725769 54.402039
-25.377891 49.907677 55.230285
-26.000771 48.912211 55.274732
-24.72425 50.902476 55.124366
-25.215196 51.954237 54.304382
-25.377891 49.907677 55.230285
-26.390183 51.811752 53.487865
-26.485118 49.725769 54.402039
-26.390183 51.811752 53.487865
-25.770035 52.953193 53.460543
-22.374979 46.357498 57.855767
-22.937903 47.561729 57.217123
-21.499467 47.121521 57.496205
-22.374979 46.357498 57.855767
-20.695816 47.845154 57.093274
-21.342759 48.984955 56.609852
-21.499467 47.121521 57.496205
-19.791432 48.421156 56.632269
-20.695816 47.845154 57.093274
-19.704336 50.312269 55.711018
-19.791432 48.421156 56.632269
-24.156194 49.745125 55.886438
-23.577419 48.748236 56.572035
-23.993498 51.791685 54.960535
-24.72425 50.902476 55.124366
-24.156194 49.745125 55.886438
-23.697416 55.787723 52.975279
-24.433838 54.942104 53.19175
-23.825133 53.794655 53.981992
-23.697416 55.787723 52.975279
-22.956008 56.540054 52.74941
-19.239045 54.032736 53.738245
-19.489333 52.154579 54.763599
-19.933383 55.259213 53.293129
-19.239045 54.032736 53.738245
-19.063326 55.898741 52.71929
-19.633224 58.987143 51.195683
-18.9417 57.630898 51.752589
-20.497007 58.408672 51.669646
-19.633224 58.987143 51.195683
-21.332619 57.756496 52.145113
-20.593276 56.473042 52.749642
-20.497007 58.408672 51.669646
-22.126097 57.130351 52.479204
-21.332619 57.756496 52.145113
3 10 6 11
3 12 11 4
3 10 11 12
3 0 13 15
3 15 14 3
3 13 14 15
3 0 16 17
3 1 18 20
3 18 7 19
3 18 19 20
3 2 8 5
3 2 21 23
3 23 22 8
3 21 22 23
3 24 9 25
3 26 3 27
3 28 3 29
3 30 0 31
3 32 31 3
3 30 31 32
3 4 5 1
3 6 5 4
3 6 2 5
3 3 33 34
3 36 35 3
3 37 1 38
3 39 1 40
3 41 4 42
3 43 42 1
3 41 42 43
3 44 4 45
3 47 46 4
3 7 48 49
3 7 50 52
3 50 0 51
3 50 51 52
3 5 7 1
3 8 7 5
3 8 0 7
3 8 53 55
3 55 54 0
3 53 54 55
3 57 56 8
3 58 6 59
3 9 60 62
3 60 6 61
3 60 61 62
3 9 2 6
3 63 9 64
3 65 9 66
3 67 2 68
3 69 68 9
3 67 68 69
3 71 70 2
