ply
format ascii 1.0
element vertex 705
property float x
property float y
property float z
element face 725
property list uchar int vertex_index
end_header
7.416237 -43.930866 43.725716
6.923867 -60.138287 38.706406
26.576248 -34.845402 32.674641
11.419113 -46.172535 39.58622
12.452764 -55.42197 36.964554
7.362097 -51.047615 42.381096
15.312548 -39.999348 37.708939
11.375172 -73.164635 23.150158
32.606537 -36.465221 26.59214
6.004765 -69.209862 31.431572
25.560316 -25.642982 36.04958
21.681601 -42.183567 33.744381
2.334969 -55.050747 45.619778
0.92308 -63.87709 40.094517
31.713572 -27.685732 31.301487
9.097611 -45.009335 41.75301
9.478592 -48.924049 40.854919
7.435194 -47.048233 43.180077
10.678542 -42.116093 40.721413
30.451252 -43.981354 24.729631
9.691193 -58.002476 37.906235
9.627206 -62.503784 35.228645
9.194833 -67.049522 31.670744
6.61338 -64.649757 35.491127
16.189478 -44.456898 36.546989
18.421383 -41.052631 35.761421
-2.450021 -65.509705 41.037338
0.086642 -68.3535 36.095123
26.023397 -30.174618 34.413239
28.777117 -26.646996 33.825596
29.25705 -31.139803 32.079056
11.987921 -50.712719 38.511887
9.782799 -53.336872 39.627975
7.219264 -55.50864 40.969246
13.290184 -43.296585 38.542053
27.351994 -39.359825 30.705206
29.790962 -35.795162 29.976257
30.26046 -40.062946 27.59371
32.68111 -40.307438 23.742565
8.7398 -71.377068 27.316488
23.296684 -33.980328 34.77351
17.570978 -36.502602 37.111382
20.816473 -37.463379 35.190189
24.129965 -38.427402 33.163155
5.414934 -48.751781 45.065399
4.942325 -53.166389 44.013992
4.54333 -57.488674 42.202209
1.657303 -59.540157 43.228012
3.994291 -62.068062 39.428181
3.40382 -66.640945 35.686722
2.639288 -71.013939 31.46838
31.343056 -23.173695 32.949837
32.212666 -32.172337 29.148346
34.364117 -28.661879 28.123806
8.14518 -44.387238 42.820744
8.287594 -46.080273 42.423374
7.415576 -45.313759 43.490562
8.801885 -43.195335 42.324005
8.351529 -58.974449 38.37505
9.66398 -60.277466 36.683323
8.254362 -61.313698 36.990131
8.062086 -63.667274 35.372524
6.800669 -62.417236 37.187912
16.652369 -46.777473 35.949871
26.381815 -32.54707 33.489372
27.674465 -30.73171 33.26828
27.986074 -33.145348 32.297108
12.706933 -46.948143 38.529045
13.112356 -49.375008 37.915161
11.733972 -48.348358 39.074963
8.48604 -49.979774 41.566994
9.616961 -51.02663 40.338139
8.457891 -52.243557 41.046352
8.603035 -54.568741 40.191971
7.342227 -53.281696 41.72052
11.043988 -44.143066 40.122669
11.894889 -42.65567 39.641972
12.355672 -44.717648 39.040077
13.821107 -45.415642 37.932823
28.867073 -39.716473 29.249926
31.423203 -44.014099 22.689121
31.55162 -42.071121 24.358192
7.671943 -68.222458 31.457672
8.983788 -69.34198 29.457436
7.34465 -70.459625 29.248812
5.645251 -71.449921 29.148561
21.322657 -31.084257 36.607861
23.036493 -31.608992 35.575108
21.699722 -33.40416 35.7472
14.88756 -37.792576 38.411522
16.029854 -36.084202 38.105038
16.421452 -38.24818 37.378483
20.100494 -41.53278 34.764194
19.528179 -39.281391 35.48513
21.23838 -39.812305 34.470901
22.473019 -38.090431 34.176815
22.863764 -40.298271 33.46035
24.521744 -40.705002 32.339565
3.969611 -51.827183 45.570477
3.683908 -54.187431 44.773617
4.713963 -55.409859 43.192135
3.364355 -56.390553 43.871948
-0.340647 -62.544109 42.325829
0.009629 -60.285374 44.02211
1.193756 -61.639957 41.910305
2.772054 -60.80946 41.348709
2.419766 -62.920177 39.862778
3.601749 -64.362419 37.733959
2.059565 -65.284721 37.921406
-0.219428 -70.686188 33.695244
1.399671 -69.70562 33.726032
0.980454 -71.899223 31.496222
2.272422 -73.250168 29.077726
30.315571 -27.07534 32.622311
30.181332 -24.940992 33.356388
31.684958 -25.321306 32.065338
33.042255 -25.956345 30.618311
31.265676 -36.179523 28.371592
30.995792 -34.00779 29.595716
32.335846 -34.36319 28.03129
10.224835 -45.609562 40.639381
10.41571 -47.625725 40.228748
9.371638 -46.84391 41.254002
8.416291 -47.971916 42.007858
7.458697 -48.996296 42.779686
9.536134 -41.88908 41.824478
9.920724 -43.664169 41.160271
9.790133 -74.391914 22.791718
30.291964 -45.954132 23.130699
11.072743 -56.795357 37.441956
11.083167 -59.046288 36.383568
11.16174 -61.243397 35.047844
11.004545 -63.567787 33.512375
10.745085 -65.829659 31.793299
9.420347 -64.670502 33.674252
7.831411 -65.994194 33.523048
6.244715 -67.019264 33.532906
15.798532 -42.349709 37.057667
16.774635 -40.431671 36.776669
17.300055 -42.71262 36.132469
18.915991 -43.361507 35.116947
20.485933 -43.833294 34.127171
-1.958954 -63.391449 42.819084
-0.773399 -64.702675 40.564842
0.476265 -65.991692 38.325935
-1.150059 -66.85099 38.608452
-1.460013 -69.14872 36.309372
25.772686 -27.971436 35.220383
27.183764 -26.171164 34.956284
27.462498 -28.455866 34.102104
29.099552 -28.89398 32.919868
30.555868 -29.496696 31.656706
33.764671 -36.670921 24.66964
33.654827 -34.673237 26.138134
13.48909 -51.601109 37.257095
12.287379 -53.010067 37.799633
10.704847 -49.642044 39.693504
10.866479 -52.002842 39.106026
11.084978 -54.435795 38.288635
9.788231 -55.753483 38.814461
8.395761 -56.789509 39.455986
7.091506 -57.773033 39.983097
13.472866 -37.387833 39.483521
13.881431 -39.583118 38.706791
12.870121 -41.186943 39.134205
14.338027 -41.670246 38.057693
14.726671 -43.777534 37.533619
15.221992 -46.077423 36.940407
27.03953 -37.135147 31.66231
28.212925 -35.439899 31.375671
28.62369 -37.623306 30.284468
30.097157 -37.984341 28.777433
31.362745 -38.179073 27.255095
31.61861 -40.089977 25.749262
32.687759 -38.40012 25.240002
10.342155 -70.226936 27.568361
10.027597 -72.326851 25.286026
8.433814 -73.533684 24.882298
24.120596 -27.461843 36.273499
24.361128 -29.708494 35.453709
24.75946 -32.011108 34.558311
24.913034 -34.373871 33.795067
17.974737 -38.652821 36.431816
19.060722 -36.940807 36.214645
20.36759 -35.251957 35.941578
21.991611 -35.785641 34.979374
23.620903 -36.25211 34.001213
25.384773 -36.611649 32.891964
25.750523 -38.943924 32.003899
6.728937 -44.359047 44.503403
6.580737 -46.069378 44.344299
6.51518 -48.032063 44.002823
6.377672 -50.051888 43.641178
4.248085 -49.594437 46.133339
5.190829 -50.815708 44.658604
6.14792 -52.161018 43.220589
6.088645 -54.323086 42.450748
5.883303 -56.611298 41.56435
5.728906 -58.843376 40.427551
1.883126 -57.235317 44.676998
3.090118 -58.486454 42.787697
4.239886 -59.785362 40.963497
5.455985 -61.068516 39.132851
5.2382 -63.379551 37.478928
5.006135 -65.593483 35.672436
4.599673 -67.944458 33.609264
1.719597 -67.432678 35.975853
2.982263 -68.854599 33.652447
4.358786 -70.241287 31.291763
3.884053 -72.416794 29.078846
29.964048 -22.694765 34.126045
29.450565 -33.50502 31.11664
30.714132 -31.858543 30.687845
32.008156 -29.9659 30.229122
33.522472 -32.600262 27.430901
33.31144 -30.379469 28.701681
33.166656 -28.051571 29.774673
7.780708 -44.159052 43.27323
8.017633 -43.637715 43.102089
7.653161 -43.409529 43.554575
17.449266 -47.074904 35.405731
16.878822 -47.89049 35.628355
12.090113 -73.478535 22.037846
12.206979 -72.494084 23.29089
32.386158 -43.025098 21.35409
31.941216 -43.122791 22.47148
31.868145 -43.916407 21.571731
13.159997 -55.850075 36.306421
13.07865 -54.711593 36.742489
20.686357 -32.025523 36.659765
20.472423 -30.94658 37.101376
20.874889 -33.185474 36.229435
21.51119 -32.244208 36.177531
20.686357 -32.025523 36.659765
22.476822 -42.382982 33.211984
23.067903 -41.440334 33.069969
22.272683 -41.240919 33.602365
3.009438 -54.619089 45.196697
3.139376 -53.492323 45.678427
2.464907 -53.923981 46.101507
0.113274 -72.384564 31.506315
0.380513 -71.292706 32.595733
-0.486667 -71.778046 32.605826
0.777534 -73.058239 30.248482
0.113274 -72.384564 31.506315
26.285397 -24.803346 35.878553
25.485838 -24.558454 36.420576
9.009387 -41.688133 42.426596
9.356385 -40.996847 42.219391
9.598724 -75.430451 21.507531
8.932375 -74.981395 22.633877
30.164348 -46.839005 22.324792
29.725293 -46.909197 23.367089
30.753728 -45.822874 22.060279
30.164348 -46.839005 22.324792
19.163091 -44.562492 34.769179
18.328439 -44.186405 35.331806
19.948062 -44.798386 34.27429
19.700962 -43.597401 34.622059
19.163091 -44.562492 34.769179
20.742996 -45.036099 33.723164
19.948062 -44.798386 34.27429
-2.204487 -64.450577 41.928211
-2.800037 -63.758988 43.139427
-3.045571 -64.818116 42.248554
-2.322731 -69.585945 36.451662
-2.142949 -68.486847 37.559726
-1.652578 -70.232117 35.21016
-2.322731 -69.585945 36.451662
34.237955 -35.774379 24.45866
34.249392 -36.661467 23.720208
13.03128 -38.254785 39.609639
12.815826 -37.288372 40.02991
13.235562 -39.352428 39.221274
13.677148 -38.485475 39.095156
13.03128 -38.254785 39.609639
11.111235 -41.36376 40.490646
10.48813 -41.205866 41.074173
14.668935 -46.916727 37.194389
14.521549 -45.746533 37.436615
13.968492 -46.585836 37.690597
15.392711 -47.250839 36.66992
14.668935 -46.916727 37.194389
30.468573 -42.949749 25.470486
29.888625 -43.909294 25.674968
33.196834 -39.405205 23.514059
33.200159 -38.451546 24.262777
32.684434 -39.353779 24.491284
9.918258 -67.500118 30.748401
10.693384 -66.890186 30.809679
9.969959 -66.439591 31.732022
23.415136 -28.401339 36.350651
23.337944 -27.342703 36.73238
23.535403 -29.524664 35.940756
24.240862 -28.585169 35.863604
23.415136 -28.401339 36.350651
17.409121 -35.427774 37.479391
16.638559 -35.218575 37.976219
16.800416 -36.293402 37.60821
18.183369 -35.660513 36.988226
17.409121 -35.427774 37.479391
25.362275 -40.986328 31.658558
24.712376 -41.895983 31.873179
6.193799 -45.473162 44.966368
6.654837 -45.214213 44.423851
6.267899 -44.617996 45.045919
5.965057 -48.391922 44.534111
6.051145 -47.406559 44.699347
5.501022 -47.766418 45.230635
3.602667 -50.117945 46.667332
3.775492 -49.014418 46.916332
1.061731 -58.837298 44.274056
0.237894 -59.209906 44.671104
0.833466 -59.912765 43.625061
1.770215 -58.387737 43.952505
1.174643 -57.684877 44.998548
1.061731 -58.837298 44.274056
2.94037 -73.948834 27.811302
2.11171 -74.40955 27.761542
28.705845 -25.506984 34.20377
27.909168 -25.269068 34.769114
27.980441 -26.40908 34.39094
31.293443 -21.992082 33.279808
30.603939 -21.752617 33.867912
30.653552 -22.93423 33.537941
31.992928 -22.256959 32.614916
31.293443 -21.992082 33.279808
34.103617 -32.746319 26.504734
33.58865 -33.63675 26.784517
34.169794 -33.782806 25.85835
33.837778 -29.520674 28.412743
33.92613 -30.626911 27.789907
34.452469 -29.768116 27.50097
34.341694 -27.513861 28.594392
33.742964 -27.208707 29.419826
33.765387 -28.356725 28.949239
8.345986 -43.041763 42.853719
8.642263 -42.341261 42.676359
8.473533 -43.791286 42.572374
8.345986 -43.041763 42.853719
8.017633 -43.637715 43.102089
17.196628 -45.894388 35.748268
16.965183 -44.7341 36.046827
16.420924 -45.617186 36.24843
17.196628 -45.894388 35.748268
17.449266 -47.074904 35.405731
-3.259535 -65.918892 41.245793
-3.045571 -64.818116 42.248554
-2.637952 -66.667339 39.92371
-3.259535 -65.918892 41.245793
12.909644 -48.161575 38.222103
13.614117 -48.56552 37.681766
13.411406 -47.352087 37.988709
13.411406 -47.352087 37.988709
13.968492 -46.585836 37.690597
13.26402 -46.181893 38.230934
28.272023 -40.671851 29.42543
28.109534 -39.538149 29.977566
27.514484 -40.493527 30.15307
28.98142 -40.807024 28.631715
28.272023 -40.671851 29.42543
29.678114 -40.98026 27.803607
29.563766 -39.889709 28.421818
28.98142 -40.807024 28.631715
32.005425 -42.151302 23.306016
31.487412 -43.04261 23.523657
31.941216 -43.122791 22.47148
32.570169 -41.26946 22.998202
32.116365 -41.189279 24.050379
32.005425 -42.151302 23.306016
33.105227 -40.331503 22.754391
32.570169 -41.26946 22.998202
7.171412 -71.525269 28.111407
7.868988 -71.98399 27.145246
8.042225 -70.918346 28.28265
6.321713 -72.020417 28.061282
7.171412 -71.525269 28.111407
6.49495 -70.954773 29.198687
5.42967 -72.546486 27.970567
6.321713 -72.020417 28.061282
21.179873 -30.05062 37.01175
20.472423 -30.94658 37.101376
22.016167 -30.212546 36.517832
21.179873 -30.05062 37.01175
22.179575 -31.346625 36.091484
22.873085 -30.474913 36.001455
22.016167 -30.212546 36.517832
15.458707 -36.938389 38.25828
15.294014 -35.86217 38.643749
14.722867 -36.716357 38.796992
23.896894 -41.643699 32.509577
23.692754 -40.501637 32.899957
23.067903 -41.440334 33.069969
24.712376 -41.895983 31.873179
23.896894 -41.643699 32.509577
4.929909 -48.15835 45.82686
5.501022 -47.766418 45.230635
3.282228 -52.312199 46.076857
3.463431 -51.234318 46.3859
3.82676 -53.007307 45.172047
3.282228 -52.312199 46.076857
3.139376 -53.492323 45.678427
-0.165509 -61.414741 43.173969
-0.787448 -60.710402 44.332226
-0.962587 -61.839769 43.484085
1.423518 -73.733711 29.039234
1.626438 -72.574696 30.286974
0.777534 -73.058239 30.248482
2.11171 -74.40955 27.761542
1.423518 -73.733711 29.039234
32.27593 -24.463995 31.777431
32.104979 -23.390189 32.219681
31.514007 -24.247501 32.507587
32.954578 -24.781515 31.053918
32.27593 -24.463995 31.777431
32.363607 -25.638825 31.341824
33.604444 -25.000678 30.309849
33.516768 -23.825847 30.745456
32.954578 -24.781515 31.053918
34.935144 -28.824331 27.209487
34.452469 -29.768116 27.50097
35.480598 -27.900386 26.816558
34.909571 -27.737933 27.730877
34.935144 -28.824331 27.209487
9.916926 -41.09236 41.625705
9.356385 -40.996847 42.219391
10.107338 -42.002586 41.272945
10.48813 -41.205866 41.074173
9.916926 -41.09236 41.625705
9.16901 -42.542208 42.074241
9.009387 -41.688133 42.426596
8.642263 -42.341261 42.676359
10.483377 -74.760482 21.69335
11.275897 -74.146843 21.87257
10.582653 -73.778275 22.970938
10.483377 -74.760482 21.69335
9.598724 -75.430451 21.507531
29.893208 -44.923231 24.931572
29.888625 -43.909294 25.674968
29.813564 -45.90962 24.132106
29.725293 -46.909197 23.367089
30.371608 -44.967743 23.930165
29.893208 -44.923231 24.931572
29.813564 -45.90962 24.132106
31.319347 -44.852857 21.83949
30.857584 -44.984116 22.90991
30.753728 -45.822874 22.060279
31.868145 -43.916407 21.571731
31.319347 -44.852857 21.83949
11.74317 -57.278999 36.753067
12.433181 -56.592306 36.514366
11.762753 -56.108664 37.203255
11.748382 -58.404465 36.223873
11.74317 -57.278999 36.753067
11.077955 -57.920822 36.912762
11.824897 -59.504808 35.612596
11.748382 -58.404465 36.223873
11.864184 -60.603363 34.944734
11.824897 -59.504808 35.612596
11.122453 -60.144842 35.715706
11.813195 -61.778506 34.235222
11.864184 -60.603363 34.944734
11.734597 -62.940701 33.467488
11.813195 -61.778506 34.235222
11.083143 -62.405592 34.280109
11.701471 -64.084774 32.612732
11.734597 -62.940701 33.467488
10.874815 -64.698723 32.652837
11.571741 -65.21571 31.753194
11.701471 -64.084774 32.612732
17.520471 -43.861961 35.839567
16.744767 -43.584759 36.339729
16.965183 -44.7341 36.046827
18.108023 -43.037064 35.624708
17.520471 -43.861961 35.839567
18.328439 -44.186405 35.331806
21.285889 -44.154007 33.565274
21.883724 -43.329144 33.373879
21.083767 -43.008431 33.935776
21.285889 -44.154007 33.565274
20.742996 -45.036099 33.723164
1.785487 -54.348812 46.581066
2.464907 -53.923981 46.101507
-2.561428 -62.679834 44.018758
-2.800037 -63.758988 43.139427
-1.77174 -62.263439 43.730713
-2.561428 -62.679834 44.018758
-1.149801 -62.967779 42.572457
-0.962587 -61.839769 43.484085
-1.77174 -62.263439 43.730713
-1.987972 -67.337982 38.709266
-1.80004 -66.180347 39.822895
-2.637952 -66.667339 39.92371
-1.305036 -67.999855 37.458912
-1.987972 -67.337982 38.709266
-2.142949 -68.486847 37.559726
-1.032285 -71.000851 33.903096
-0.83972 -69.917454 35.002308
-1.652578 -70.232117 35.21016
-0.486667 -71.778046 32.605826
-1.032285 -71.000851 33.903096
34.183033 -34.775537 25.192906
33.709749 -35.672079 25.403887
34.237955 -35.774379 24.45866
34.169794 -33.782806 25.85835
34.183033 -34.775537 25.192906
13.815069 -49.70446 37.376516
13.614117 -48.56552 37.681766
14.003436 -50.817511 37.047483
13.815069 -49.70446 37.376516
13.300723 -50.488059 37.586128
14.164676 -51.992763 36.701248
14.003436 -50.817511 37.047483
13.596812 -52.801163 36.888759
14.164676 -51.992763 36.701248
12.995957 -53.505642 37.160028
13.596812 -52.801163 36.888759
12.888234 -52.305588 37.528364
12.370071 -54.216019 37.382093
13.07865 -54.711593 36.742489
12.995957 -53.505642 37.160028
13.3456 -36.403137 39.867711
12.815826 -37.288372 40.02991
14.015521 -36.513985 39.332991
13.3456 -36.403137 39.867711
14.180213 -37.590204 38.947522
14.722867 -36.716357 38.796992
14.015521 -36.513985 39.332991
11.719409 -41.633549 39.950926
11.111235 -41.36376 40.490646
11.286715 -42.385881 40.181692
12.207024 -40.899185 39.697043
11.719409 -41.633549 39.950926
12.382505 -41.921307 39.388089
12.729907 -40.154341 39.434981
12.207024 -40.899185 39.697043
13.375776 -40.38503 38.920498
13.235562 -39.352428 39.221274
12.729907 -40.154341 39.434981
16.1079 -47.600864 36.174652
15.937181 -46.427448 36.445139
15.392711 -47.250839 36.66992
16.878822 -47.89049 35.628355
16.1079 -47.600864 36.174652
12.090113 -73.478535 22.037846
11.275897 -74.146843 21.87257
30.373177 -40.990545 26.902526
29.678114 -40.98026 27.803607
31.018757 -41.994632 25.284767
30.468573 -42.949749 25.470486
31.001436 -43.026238 24.543912
31.052253 -41.00406 25.980302
31.018757 -41.994632 25.284767
31.585115 -41.080549 25.053727
30.939535 -40.076461 26.671486
30.373177 -40.990545 26.902526
31.052253 -41.00406 25.980302
33.738615 -37.586946 23.977597
33.226215 -37.535521 24.954821
33.200159 -38.451546 24.262777
34.249392 -36.661467 23.720208
33.738615 -37.586946 23.977597
33.196834 -39.405205 23.514059
33.105227 -40.331503 22.754391
13.159997 -55.850075 36.306421
12.433181 -56.592306 36.514366
11.537535 -72.133076 24.336182
12.206979 -72.494084 23.29089
11.494768 -66.286786 30.842159
11.571741 -65.21571 31.753194
11.494768 -66.286786 30.842159
10.693384 -66.890186 30.809679
9.812736 -68.646347 29.641748
9.918258 -67.500118 30.748401
9.08931 -68.195751 30.56409
10.491919 -69.088825 28.69721
9.812736 -68.646347 29.641748
9.662972 -69.784458 28.512898
11.142003 -69.605148 27.682845
10.491919 -69.088825 28.69721
11.021026 -70.664226 26.545283
11.142003 -69.605148 27.682845
10.863747 -71.714184 25.404115
11.021026 -70.664226 26.545283
10.184876 -71.276893 26.427194
10.701384 -72.745743 24.218092
11.537535 -72.133076 24.336182
10.863747 -71.714184 25.404115
8.254216 -74.55228 23.679167
8.932375 -74.981395 22.633877
9.111974 -73.962799 23.837008
7.715994 -73.062298 25.928151
8.586807 -72.455376 26.099393
7.868988 -71.98399 27.145246
7.52616 -74.136688 24.711282
7.715994 -73.062298 25.928151
8.254216 -74.55228 23.679167
7.52616 -74.136688 24.711282
24.752922 -25.47653 36.551348
25.485838 -24.558454 36.420576
24.033062 -26.38596 36.663308
23.337944 -27.342703 36.73238
24.840456 -26.552412 36.16154
24.752922 -25.47653 36.551348
24.033062 -26.38596 36.663308
23.698811 -30.658743 35.514409
23.535403 -29.524664 35.940756
22.873085 -30.474913 36.001455
15.868281 -35.066522 38.494795
15.294014 -35.86217 38.643749
15.868281 -35.066522 38.494795
16.638559 -35.218575 37.976219
18.928241 -35.879615 36.539857
18.183369 -35.660513 36.988226
18.31585 -36.721705 36.663013
19.581674 -35.03519 36.403324
18.928241 -35.879615 36.539857
19.714156 -36.096382 36.078111
20.208823 -34.109373 36.326624
19.581674 -35.03519 36.403324
21.033656 -34.328058 35.844389
20.874889 -33.185474 36.229435
20.208823 -34.109373 36.326624
25.976664 -40.105789 31.490725
25.136133 -39.824463 32.171732
25.362275 -40.986328 31.658558
26.7774 -40.313739 30.841379
26.551259 -39.151875 31.354552
25.976664 -40.105789 31.490725
27.514484 -40.493527 30.15307
26.7774 -40.313739 30.841379
22.476822 -42.382982 33.211984
21.883724 -43.329144 33.373879
6.868067 -43.625625 44.489639
7.072587 -44.144956 44.114559
7.211717 -43.411535 44.100796
6.439749 -43.779342 45.028376
6.868067 -43.625625 44.489639
6.267899 -44.617996 45.045919
6.439749 -43.779342 45.028376
7.211717 -43.411535 44.100796
7.653161 -43.409529 43.554575
6.083924 -46.425217 44.870085
6.193799 -45.473162 44.966368
6.547959 -47.05072 44.173561
6.083924 -46.425217 44.870085
6.051145 -47.406559 44.699347
4.346484 -48.579678 46.36083
3.775492 -49.014418 46.916332
4.831509 -49.173109 45.599369
4.929909 -48.15835 45.82686
4.346484 -48.579678 46.36083
4.108848 -50.71081 45.851908
3.602667 -50.117945 46.667332
3.463431 -51.234318 46.3859
1.573533 -55.446884 46.111468
1.785487 -54.348812 46.581066
-0.526896 -59.565756 45.081465
-0.787448 -60.710402 44.332226
-0.526896 -59.565756 45.081465
0.237894 -59.209906 44.671104
1.347611 -56.539169 45.640078
1.174643 -57.684877 44.998548
2.109047 -56.143032 45.148388
1.573533 -55.446884 46.111468
1.347611 -56.539169 45.640078
4.549071 -73.029922 27.935709
5.42967 -72.546486 27.970567
4.764652 -71.933357 29.113703
3.746185 -73.532146 27.811862
3.078238 -72.833481 29.078286
2.94037 -73.948834 27.811302
4.549071 -73.029922 27.935709
3.746185 -73.532146 27.811862
27.097121 -25.067438 35.331905
26.285397 -24.803346 35.878553
26.37204 -25.907073 35.502932
27.097121 -25.067438 35.331905
27.909168 -25.269068 34.769114
29.407953 -24.653982 33.969166
28.705845 -25.506984 34.20377
29.479225 -25.793994 33.590992
29.29931 -23.530869 34.353994
29.407953 -24.653982 33.969166
30.07269 -23.817878 33.741217
29.200131 -22.45809 34.710077
29.29931 -23.530869 34.353994
29.892242 -21.511637 34.463293
29.200131 -22.45809 34.710077
29.892242 -21.511637 34.463293
30.603939 -21.752617 33.867912
31.992928 -22.256959 32.614916
32.104979 -23.390189 32.219681
34.031647 -31.737308 27.154517
34.103617 -32.746319 26.504734
33.416956 -31.489866 28.066291
34.031647 -31.737308 27.154517
33.92613 -30.626911 27.789907
33.680763 -26.161094 29.841645
33.104456 -27.003958 30.196492
33.742964 -27.208707 29.419826
33.604444 -25.000678 30.309849
33.680763 -26.161094 29.841645
34.341694 -27.513861 28.594392
34.909571 -27.737933 27.730877
3 0 56 54
3 0 217 219
3 217 54 218
3 217 218 219
3 1 60 58
3 1 62 60
3 221 220 63
3 2 66 64
3 3 69 67
3 5 72 70
3 5 74 72
3 3 77 75
3 3 67 77
3 7 222 223
3 226 225 80
3 224 225 226
3 4 227 228
3 9 84 82
3 9 85 84
3 229 86 230
3 231 88 232
3 233 232 86
3 231 232 233
3 6 91 89
3 11 94 92
3 11 96 94
3 11 234 236
3 236 235 96
3 234 235 236
3 12 237 239
3 237 99 238
3 237 238 239
3 12 101 99
3 13 104 102
3 13 106 104
3 13 108 106
3 240 111 241
3 242 241 109
3 240 241 242
3 244 243 111
3 10 245 246
3 14 115 113
3 14 116 115
3 8 119 117
3 15 122 120
3 17 123 55
3 17 124 123
3 247 125 248
3 15 126 57
3 15 120 126
3 250 249 127
3 251 128 252
3 254 253 128
3 20 130 129
3 21 131 59
3 21 132 131
3 21 134 132
3 23 135 61
3 23 136 135
3 24 139 137
3 255 140 256
3 257 141 258
3 259 258 140
3 257 258 259
3 261 260 141
3 26 262 264
3 262 142 263
3 262 263 264
3 26 143 142
3 26 145 143
3 265 146 266
3 268 267 146
3 28 149 147
3 30 150 65
3 30 151 150
3 270 269 152
3 31 154 68
3 31 155 154
3 16 156 121
3 32 157 71
3 32 158 157
3 32 159 158
3 33 160 73
3 33 161 160
3 271 162 272
3 273 163 274
3 275 274 162
3 273 274 275
3 18 276 277
3 34 164 76
3 34 165 164
3 34 166 165
3 278 167 279
3 280 279 78
3 278 279 280
3 282 281 167
3 35 170 168
3 37 171 79
3 37 172 171
3 19 283 284
3 38 173 81
3 38 174 173
3 38 285 287
3 287 286 174
3 285 286 287
3 22 288 290
3 290 289 133
3 288 289 290
3 39 175 83
3 39 176 175
3 39 177 176
3 291 178 292
3 293 179 294
3 295 294 178
3 293 294 295
3 40 180 87
3 40 181 180
3 41 296 298
3 298 297 90
3 296 297 298
3 41 299 300
3 25 182 138
3 42 183 93
3 42 184 183
3 42 185 184
3 43 186 95
3 43 187 186
3 43 188 187
3 302 301 97
3 303 190 304
3 305 304 189
3 303 304 305
3 44 306 308
3 306 191 307
3 306 307 308
3 44 192 191
3 309 193 310
3 45 194 98
3 45 195 194
3 45 196 195
3 46 197 100
3 46 198 197
3 47 311 313
3 313 312 103
3 311 312 313
3 47 314 316
3 314 199 315
3 314 315 316
3 47 200 199
3 48 201 105
3 48 202 201
3 48 203 202
3 49 204 107
3 49 205 204
3 27 206 144
3 50 207 110
3 50 208 207
3 50 209 208
3 318 317 112
3 29 319 321
3 321 320 148
3 319 320 321
3 51 210 114
3 51 322 324
3 324 323 210
3 322 323 324
3 51 325 326
3 36 211 169
3 52 212 118
3 52 213 212
3 327 214 328
3 329 328 153
3 327 328 329
3 53 330 332
3 330 215 331
3 330 331 332
3 53 216 215
3 53 333 335
3 335 334 216
3 333 334 335
3 54 55 15
3 56 55 54
3 56 17 55
3 336 57 337
3 54 338 340
3 338 57 339
3 338 339 340
3 54 15 57
3 58 59 20
3 60 59 58
3 60 21 59
3 60 61 21
3 62 61 60
3 62 23 61
3 63 341 343
3 343 342 24
3 341 342 343
3 345 344 63
3 346 26 347
3 349 348 26
3 64 65 28
3 66 65 64
3 66 30 65
3 67 350 352
3 350 68 351
3 350 351 352
3 69 68 67
3 69 31 68
3 70 71 16
3 72 71 70
3 72 32 71
3 72 73 32
3 74 73 72
3 74 33 73
3 75 76 18
3 77 76 75
3 77 34 76
3 77 78 34
3 67 78 77
3 67 353 355
3 355 354 78
3 353 354 355
3 356 79 357
3 358 357 35
3 356 357 358
3 359 79 360
3 361 37 362
3 363 362 79
3 361 362 363
3 80 81 19
3 364 81 365
3 366 365 80
3 364 365 366
3 367 38 368
3 369 368 81
3 367 368 369
3 371 370 38
3 82 83 22
3 84 83 82
3 84 39 83
3 84 372 374
3 374 373 39
3 372 373 374
3 85 375 377
3 377 376 84
3 375 376 377
3 85 378 379
3 86 380 381
3 86 382 383
3 86 384 386
3 384 87 385
3 384 385 386
3 88 87 86
3 88 40 87
3 89 387 389
3 387 90 388
3 387 388 389
3 91 90 89
3 91 41 90
3 92 93 25
3 94 93 92
3 94 42 93
3 94 95 42
3 96 95 94
3 96 43 95
3 96 97 43
3 390 97 391
3 392 391 96
3 390 391 392
3 394 393 97
3 395 44 396
3 397 98 398
3 99 399 401
3 399 98 400
3 399 400 401
3 99 45 98
3 99 100 45
3 101 100 99
3 101 46 100
3 102 402 404
3 402 103 403
3 402 403 404
3 104 103 102
3 104 47 103
3 104 105 47
3 106 105 104
3 106 48 105
3 106 107 48
3 108 107 106
3 108 49 107
3 109 110 27
3 111 110 109
3 111 50 110
3 111 112 50
3 405 112 406
3 407 406 111
3 405 406 407
3 409 408 112
3 113 114 29
3 115 114 113
3 115 51 114
3 115 410 412
3 412 411 51
3 410 411 412
3 116 413 415
3 415 414 115
3 413 414 415
3 116 416 418
3 416 417 418
3 117 118 36
3 119 118 117
3 119 52 118
3 419 53 420
3 423 422 53
3 421 422 423
3 120 121 3
3 122 121 120
3 122 16 121
3 55 122 15
3 123 122 55
3 123 16 122
3 123 70 16
3 124 70 123
3 124 5 70
3 125 424 425
3 125 426 428
3 426 18 427
3 426 427 428
3 57 429 431
3 429 125 430
3 429 430 431
3 126 125 57
3 126 18 125
3 126 75 18
3 120 75 126
3 120 3 75
3 127 432 434
3 434 433 7
3 432 433 434
3 436 435 127
3 437 19 438
3 128 439 440
3 128 441 443
3 441 19 442
3 441 442 443
3 128 80 19
3 444 80 445
3 446 445 128
3 444 445 446
3 448 447 80
3 129 449 451
3 451 450 4
3 449 450 451
3 130 452 454
3 454 453 129
3 452 453 454
3 130 455 456
3 59 130 20
3 131 130 59
3 131 457 459
3 459 458 130
3 457 458 459
3 131 460 461
3 132 462 464
3 464 463 131
3 462 463 464
3 132 465 466
3 132 467 469
3 467 133 468
3 467 468 469
3 134 133 132
3 134 22 133
3 61 134 21
3 135 134 61
3 135 22 134
3 135 82 22
3 136 82 135
3 136 9 82
3 137 138 6
3 139 138 137
3 139 25 138
3 470 139 471
3 472 471 24
3 470 471 472
3 140 473 475
3 473 139 474
3 473 474 475
3 140 25 139
3 140 92 25
3 141 92 140
3 141 11 92
3 141 476 478
3 478 477 11
3 476 477 478
3 480 479 141
3 481 12 482
3 142 483 484
3 142 485 486
3 142 487 489
3 487 102 488
3 487 488 489
3 143 102 142
3 143 13 102
3 143 144 13
3 145 144 143
3 145 27 144
3 490 145 491
3 492 491 26
3 490 491 492
3 146 493 495
3 493 145 494
3 493 494 495
3 146 27 145
3 146 109 27
3 496 109 497
3 498 497 146
3 496 497 498
3 500 499 109
3 147 148 10
3 149 148 147
3 149 29 148
3 65 149 28
3 150 149 65
3 150 29 149
3 150 113 29
3 151 113 150
3 151 14 113
3 152 153 8
3 501 153 502
3 503 502 152
3 501 502 503
3 505 504 153
3 68 506 507
3 154 508 510
3 510 509 68
3 508 509 510
3 154 511 512
3 154 513 514
3 155 515 517
3 517 516 154
3 515 516 517
3 155 518 520
3 518 4 519
3 518 519 520
3 121 69 3
3 156 69 121
3 156 31 69
3 71 156 16
3 157 156 71
3 157 31 156
3 157 155 31
3 158 155 157
3 158 4 155
3 158 129 4
3 159 129 158
3 159 20 129
3 73 159 32
3 160 159 73
3 160 20 159
3 160 58 20
3 161 58 160
3 161 1 58
3 162 521 522
3 162 523 524
3 162 525 527
3 525 89 526
3 525 526 527
3 163 89 162
3 163 6 89
3 76 528 530
3 530 529 18
3 528 529 530
3 164 531 533
3 533 532 76
3 531 532 533
3 164 534 535
3 164 536 538
3 536 163 537
3 536 537 538
3 165 163 164
3 165 6 163
3 165 137 6
3 166 137 165
3 166 24 137
3 78 166 34
3 167 166 78
3 167 24 166
3 167 63 24
3 539 63 540
3 541 540 167
3 539 540 541
3 543 542 63
3 545 544 7
3 168 169 2
3 170 169 168
3 170 36 169
3 79 170 35
3 171 170 79
3 171 36 170
3 171 117 36
3 172 117 171
3 172 8 117
3 546 37 547
3 81 548 550
3 550 549 19
3 548 549 550
3 173 551 553
3 553 552 81
3 551 552 553
3 173 554 556
3 554 37 555
3 554 555 556
3 173 172 37
3 174 172 173
3 174 8 172
3 174 152 8
3 557 152 558
3 559 558 174
3 557 558 559
3 561 560 152
3 563 562 38
3 565 564 4
3 566 7 567
3 133 568 569
3 571 570 133
3 83 572 574
3 574 573 22
3 572 573 574
3 175 575 577
3 577 576 83
3 575 576 577
3 175 578 579
3 175 580 581
3 176 582 584
3 584 583 175
3 582 583 584
3 176 585 587
3 585 7 586
3 585 586 587
3 176 127 7
3 177 127 176
3 177 588 590
3 590 589 127
3 588 589 590
3 591 177 592
3 593 592 39
3 591 592 593
3 594 177 595
3 597 596 177
3 598 10 599
3 178 600 601
3 178 602 604
3 602 10 603
3 602 603 604
3 178 147 10
3 179 147 178
3 179 28 147
3 87 605 607
3 605 179 606
3 605 606 607
3 180 179 87
3 180 28 179
3 180 64 28
3 181 64 180
3 181 2 64
3 90 608 609
3 611 610 90
3 138 91 6
3 182 91 138
3 182 41 91
3 93 182 25
3 183 182 93
3 183 41 182
3 183 612 614
3 614 613 41
3 612 613 614
3 184 615 617
3 617 616 183
3 615 616 617
3 184 618 619
3 184 620 622
3 620 88 621
3 620 621 622
3 185 88 184
3 185 40 88
3 95 185 42
3 186 185 95
3 186 40 185
3 186 181 40
3 187 181 186
3 187 2 181
3 187 168 2
3 188 168 187
3 188 35 168
3 97 188 43
3 623 188 624
3 625 624 97
3 623 624 625
3 626 35 627
3 628 627 188
3 626 627 628
3 630 629 35
3 632 631 11
3 633 189 634
3 635 634 0
3 633 634 635
3 636 189 637
3 639 638 189
3 640 0 641
3 189 56 0
3 190 56 189
3 190 17 56
3 642 190 643
3 191 644 646
3 644 190 645
3 644 645 646
3 191 17 190
3 191 124 17
3 192 124 191
3 192 5 124
3 193 647 648
3 193 649 651
3 649 44 650
3 649 650 651
3 98 652 654
3 652 193 653
3 652 653 654
3 194 193 98
3 194 44 193
3 194 192 44
3 195 192 194
3 195 5 192
3 195 74 5
3 196 74 195
3 196 33 74
3 100 196 45
3 197 196 100
3 197 33 196
3 197 161 33
3 198 161 197
3 198 1 161
3 655 12 656
3 103 657 658
3 660 659 103
3 199 661 662
3 199 663 665
3 663 12 664
3 663 664 665
3 199 101 12
3 200 101 199
3 200 46 101
3 105 200 47
3 201 200 105
3 201 46 200
3 201 198 46
3 202 198 201
3 202 1 198
3 202 62 1
3 203 62 202
3 203 23 62
3 107 203 48
3 204 203 107
3 204 23 203
3 204 136 23
3 205 136 204
3 205 9 136
3 144 108 13
3 206 108 144
3 206 49 108
3 110 206 27
3 207 206 110
3 207 49 206
3 207 205 49
3 208 205 207
3 208 9 205
3 208 85 9
3 209 85 208
3 209 666 668
3 668 667 85
3 666 667 668
3 112 209 50
3 669 209 670
3 671 670 112
3 669 670 671
3 673 672 209
3 148 674 676
3 676 675 10
3 674 675 676
3 678 677 148
3 114 679 681
3 681 680 29
3 679 680 681
3 210 682 684
3 684 683 114
3 682 683 684
3 210 685 686
3 210 687 688
3 690 689 210
3 692 691 51
3 169 66 2
3 211 66 169
3 211 30 66
3 118 211 36
3 212 211 118
3 212 30 211
3 212 151 30
3 213 151 212
3 213 14 151
3 153 119 8
3 214 119 153
3 214 52 119
3 693 214 694
3 215 695 697
3 695 214 696
3 695 696 697
3 215 52 214
3 215 213 52
3 216 213 215
3 216 14 213
3 216 116 14
3 698 116 699
3 700 699 216
3 698 699 700
3 702 701 116
3 704 703 53
