ply
format ascii 1.0
element vertex 157
property float x
property float y
property float z
element face 140
property list uchar int vertex_index
end_header
-11.62616 15.415567 49.990971
-17.459005 20.681528 43.058491
-17.446987 15.6266 44.439274
-8.489848 17.933165 51.772488
-11.491796 20.783464 48.665848
-14.545677 13.135626 47.974007
-8.575659 12.7699 53.054028
-14.684901 18.067747 46.601929
-14.411811 23.511198 45.325523
-8.206762 20.673477 51.199219
-20.076197 20.496027 40.049568
-18.760454 21.900984 41.209698
-13.0812 14.241762 49.037891
-14.600801 15.46909 47.346817
-13.132774 16.759924 48.359772
-11.254687 23.511171 48.050835
-13.015439 22.295111 46.946991
-12.772386 24.985491 46.337494
-17.428621 17.986675 43.840996
-10.096434 16.672386 50.896961
-11.571327 18.111977 49.337048
-9.87567 19.346796 50.345787
-9.797045 22.103628 49.607334
-9.597363 25.081516 48.824734
-13.053301 11.740725 49.678154
-11.719533 12.911317 50.537693
-10.153267 11.727684 52.103527
-10.151103 14.271279 51.469681
-8.500658 15.37278 52.44558
-16.077282 14.288371 46.199631
-16.040022 16.818172 45.600407
-16.106485 19.514334 44.817848
-13.157005 19.476629 47.621185
-14.606927 20.732393 45.950768
-15.954541 22.156561 44.220383
-18.10973 21.291256 42.134095
-18.801603 20.58486 41.554209
-18.150879 19.975132 42.478606
-17.37481 22.052236 42.737949
-18.025534 22.661963 41.813553
-18.10973 21.291256 42.134095
-11.965805 25.703442 46.767144
-12.013537 24.248331 47.194164
-11.206956 24.966282 47.623814
-12.604494 26.490665 45.982281
-11.965805 25.703442 46.767144
-18.126213 16.231957 43.528435
-18.072651 14.99171 43.914263
-17.437804 16.806638 44.140135
-18.11703 17.411994 43.229296
-18.126213 16.231957 43.528435
-8.968397 22.776982 50.002999
-9.001904 21.388552 50.403277
-8.173255 22.061906 50.798941
-8.868555 24.265926 49.611699
-9.697204 23.592572 49.216034
-8.968397 22.776982 50.002999
-8.683177 25.70346 49.269483
-8.868555 24.265926 49.611699
-12.325245 11.107386 50.459877
-12.982655 10.565846 50.027656
-11.658361 11.692682 50.889646
-12.386417 12.326021 50.107923
-12.325245 11.107386 50.459877
-9.364463 12.248792 52.578778
-9.372958 11.012291 52.882698
-8.584154 11.533399 53.357949
-20.665924 21.054203 39.107338
-20.033876 21.878767 39.647182
-15.31148 13.711998 47.086819
-15.997837 13.086906 46.574883
-15.232034 12.510533 47.46207
-15.073411 24.241236 44.451414
-15.844777 23.563917 43.898844
-15.183176 22.83388 44.772953
-17.374679 14.329932 44.84313
-18.072651 14.99171 43.914263
-7.449412 19.931669 51.946468
-8.348305 19.303321 51.485854
-7.590955 18.561513 52.233103
-7.340063 21.32926 51.602507
-7.449412 19.931669 51.946468
-8.173255 22.061906 50.798941
-7.340063 21.32926 51.602507
-7.788702 12.078161 53.802912
-8.584154 11.533399 53.357949
-7.788787 13.362062 53.475653
-7.788702 12.078161 53.802912
-19.459474 19.882382 40.974144
-20.073833 19.148669 40.453772
-19.418326 21.198506 40.629633
-19.459474 19.882382 40.974144
-18.801603 20.58486 41.554209
-19.376004 22.581246 40.227248
-20.033876 21.878767 39.647182
-19.418326 21.198506 40.629633
-18.699306 23.273393 40.83195
-19.376004 22.581246 40.227248
-18.699306 23.273393 40.83195
-18.025534 22.661963 41.813553
-13.455596 25.694426 45.500097
-14.275309 24.957279 44.994112
-13.592098 24.248345 45.831508
-13.455596 25.694426 45.500097
-12.604494 26.490665 45.982281
-18.135686 18.627706 42.869858
-18.11703 17.411994 43.229296
-17.443813 19.334102 43.449743
-18.150879 19.975132 42.478606
-18.135686 18.627706 42.869858
-10.378294 25.751454 48.010763
-11.206956 24.966282 47.623814
-10.426025 24.296343 48.437784
-9.432059 26.557642 48.450598
-10.378294 25.751454 48.010763
-9.432059 26.557642 48.450598
-8.683177 25.70346 49.269483
-14.482236 11.932151 48.327183
-15.232034 12.510533 47.46207
-13.736048 11.2347 49.179257
-12.982655 10.565846 50.027656
-13.799489 12.438175 48.826081
-14.482236 11.932151 48.327183
-13.736048 11.2347 49.179257
-10.146421 10.497909 52.415582
-9.372958 11.012291 52.882698
-10.875227 11.100866 51.672563
-10.146421 10.497909 52.415582
-10.9364 12.319501 51.32061
-11.658361 11.692682 50.889646
-10.875227 11.100866 51.672563
-7.751287 14.663502 53.171429
-8.538158 14.07134 52.749804
-7.788787 13.362062 53.475653
-7.680713 16.008036 52.866585
-7.751287 14.663502 53.171429
-7.675308 17.288228 52.530039
-8.495253 16.652973 52.109034
-7.680713 16.008036 52.866585
-7.590955 18.561513 52.233103
-7.675308 17.288228 52.530039
-20.707181 19.768438 39.475701
-20.073833 19.148669 40.453772
-20.707181 19.768438 39.475701
-20.665924 21.054203 39.107338
-16.689827 13.660817 45.723309
-15.997837 13.086906 46.574883
-16.762135 14.957486 45.319452
-17.374679 14.329932 44.84313
-16.689827 13.660817 45.723309
-16.622578 22.789752 43.318895
-17.37481 22.052236 42.737949
-16.706773 21.419044 43.639437
-16.622578 22.789752 43.318895
-15.844777 23.563917 43.898844
-15.073411 24.241236 44.451414
-14.275309 24.957279 44.994112
3 1 35 37
3 35 11 36
3 35 36 37
3 1 38 40
3 40 39 11
3 38 39 40
3 0 14 12
3 41 17 42
3 43 42 15
3 41 42 43
3 45 44 17
3 2 46 47
3 2 48 50
3 48 18 49
3 48 49 50
3 3 21 19
3 51 22 52
3 53 52 9
3 51 52 53
3 54 23 55
3 56 55 22
3 54 55 56
3 58 57 23
3 59 24 60
3 61 25 62
3 63 62 24
3 61 62 63
3 6 64 66
3 64 26 65
3 64 65 66
3 6 27 26
3 6 28 27
3 68 67 10
3 5 69 71
3 69 29 70
3 69 70 71
3 7 30 13
3 7 31 30
3 4 32 20
3 8 33 16
3 8 34 33
3 8 72 74
3 74 73 34
3 72 73 74
3 75 2 76
3 77 9 78
3 79 78 3
3 77 78 79
3 80 9 81
3 83 82 9
3 84 6 85
3 87 86 6
3 88 10 89
3 11 90 92
3 90 10 91
3 90 91 92
3 11 93 95
3 95 94 10
3 93 94 95
3 11 96 97
3 99 98 11
3 12 13 5
3 14 13 12
3 14 7 13
3 15 16 4
3 17 16 15
3 17 8 16
3 17 100 102
3 102 101 8
3 100 101 102
3 104 103 17
3 18 105 106
3 18 107 109
3 107 1 108
3 107 108 109
3 19 20 0
3 21 20 19
3 21 4 20
3 9 21 3
3 22 21 9
3 22 4 21
3 22 15 4
3 23 15 22
3 23 110 112
3 112 111 15
3 110 111 112
3 23 113 114
3 116 115 23
3 117 5 118
3 24 119 120
3 24 121 123
3 121 5 122
3 121 122 123
3 24 12 5
3 25 12 24
3 25 0 12
3 26 124 125
3 26 126 127
3 26 128 130
3 128 25 129
3 128 129 130
3 27 25 26
3 27 0 25
3 27 19 0
3 28 19 27
3 28 3 19
3 131 28 132
3 133 132 6
3 131 132 133
3 134 28 135
3 136 3 137
3 138 137 28
3 136 137 138
3 140 139 3
3 10 141 142
3 144 143 10
3 29 145 146
3 29 147 149
3 147 2 148
3 147 148 149
3 13 29 5
3 30 29 13
3 30 2 29
3 30 18 2
3 31 18 30
3 31 1 18
3 20 14 0
3 32 14 20
3 32 7 14
3 16 32 4
3 33 32 16
3 33 7 32
3 33 31 7
3 34 31 33
3 34 1 31
3 34 150 152
3 152 151 1
3 150 151 152
3 154 153 34
3 156 155 8
