ply
format ascii 1.0
element vertex 231
property float x
property float y
property float z
element face 214
property list uchar int vertex_index
end_header
-30.611696 69.632652 -46.147949
-25.850475 62.889072 -50.949558
-28.943462 50.868393 -47.705826
-30.280018 60.490906 -47.194698
-27.666294 57.595451 -49.557453
-28.404991 66.675323 -49.020493
-22.991539 39.44389 -49.630043
-19.286303 38.206821 -50.896542
-27.206093 83.300789 -46.130955
-28.182354 75.359734 -47.9063
-25.863533 71.487724 -50.358673
-26.397219 40.976101 -47.930923
-25.895142 48.411285 -49.641113
-24.643322 54.417309 -51.110401
-30.552885 65.232376 -46.748466
-29.485106 63.615936 -48.097626
-29.551622 68.24826 -47.719936
-22.704422 42.891777 -50.36858
-21.12929 38.579838 -50.291779
-20.901556 41.871861 -50.904037
-25.43652 85.156822 -46.79446
-26.166262 81.65609 -47.712025
-27.828863 79.51149 -47.026817
-26.731749 77.809975 -48.526932
-27.162319 73.579201 -49.179077
-28.156557 42.225521 -46.811428
-27.788309 45.887436 -47.85984
-26.118477 44.713097 -48.863369
-27.439455 49.706005 -48.791588
-26.836586 60.294838 -50.306664
-26.137745 55.924522 -50.458809
-25.388365 58.749348 -51.084885
-24.00839 57.364517 -51.628372
-24.500025 61.359173 -51.584633
-29.819754 56.030151 -47.457172
-28.428303 54.349796 -48.631424
-29.044476 58.864475 -48.460003
-28.277042 62.035664 -49.263485
-27.147003 64.775856 -50.114426
-30.436171 74.330063 -45.33255
-24.546358 88.903976 -45.449787
-28.701893 81.325821 -45.289219
-29.175785 76.996353 -46.324474
-29.49456 72.511276 -47.109055
-28.424501 71.041679 -48.533184
-27.253 69.452614 -49.720451
-26.008495 67.115936 -50.721592
-24.613167 65.261009 -51.484943
-24.732088 40.187469 -48.843742
-24.493193 43.954697 -49.692688
-24.081144 47.186356 -50.435101
-26.866133 53.019619 -49.671776
-25.240274 51.435596 -50.459206
-23.615648 50.338448 -51.091991
-23.154848 53.490417 -51.631927
-30.58229 67.432514 -46.448207
-31.065363 65.938252 -45.89699
-31.094769 68.138389 -45.596731
-21.619493 44.026673 -50.964733
-21.802989 42.381819 -50.636308
-22.520927 44.536631 -50.697005
-25.610963 80.669041 -48.390591
-25.187713 82.531231 -47.992567
-25.893707 78.745983 -48.798045
-26.449005 79.733033 -48.119478
-25.610963 80.669041 -48.390591
-26.170084 76.702213 -49.157103
-25.893707 78.745983 -48.798045
-29.177693 49.001886 -47.165825
-29.623444 51.441803 -47.080271
-28.365886 48.377915 -47.782833
-28.600116 46.511408 -47.242832
-29.177693 49.001886 -47.165825
-30.654256 58.738754 -46.634355
-30.842495 61.159165 -46.432606
-30.049886 58.260528 -47.325935
-30.424124 56.508377 -46.765592
-30.654256 58.738754 -46.634355
-22.091135 37.343249 -49.647604
-22.951798 37.596914 -49.284378
-19.321948 36.451135 -50.604433
-20.243442 36.637644 -50.302052
-20.207797 38.39333 -50.594161
-18.426082 36.316486 -50.897383
-19.321948 36.451135 -50.604433
-30.226121 76.523941 -44.8927
-30.845712 75.081585 -44.322529
-30.635662 77.275463 -43.882679
-24.034308 87.885468 -46.29208
-23.488394 89.594662 -45.632414
-26.778258 85.187671 -45.584225
-25.893472 86.115688 -45.915977
-26.321306 84.228805 -46.462708
-27.588696 84.279529 -45.189013
-26.778258 85.187671 -45.584225
-27.953993 82.313305 -45.710087
-28.336596 83.292046 -44.768145
-27.588696 84.279529 -45.189013
-23.948371 66.214409 -51.654881
-24.634526 67.158786 -51.347786
-24.003782 64.290177 -51.72641
-23.948371 66.214409 -51.654881
-26.54578 39.269836 -47.439199
-27.425449 39.894547 -46.879452
-27.276888 41.600811 -47.371175
-25.587436 38.66433 -47.964862
-26.54578 39.269836 -47.439199
-25.564653 40.581785 -48.387332
-24.754871 38.270014 -48.421272
-25.587436 38.66433 -47.964862
-23.245604 56.628466 -51.842315
-23.543976 58.524799 -51.843981
-30.978929 63.529899 -46.20949
-31.065363 65.938252 -45.89699
-30.416452 62.861641 -46.971582
-30.842495 61.159165 -46.432606
-30.978929 63.529899 -46.20949
-24.822842 84.281597 -47.533784
-24.479388 86.01189 -46.964416
-25.801391 83.406456 -47.253242
-24.822842 84.281597 -47.533784
-25.187713 82.531231 -47.992567
-26.385368 74.586827 -49.483175
-26.947034 75.694588 -48.853004
-26.170084 76.702213 -49.157103
-25.735976 73.541088 -50.072973
-26.512926 72.533462 -49.768875
-26.385368 74.586827 -49.483175
-28.78424 44.68045 -46.718626
-28.968103 42.793871 -46.152998
-27.972433 44.056478 -47.335634
-28.78424 44.68045 -46.718626
-28.600116 46.511408 -47.242832
-23.789793 60.522127 -51.822111
-23.543976 58.524799 -51.843981
-24.254207 59.361845 -51.606502
-30.061591 54.022682 -46.955944
-30.424124 56.508377 -46.765592
-29.381608 53.449272 -47.581499
-29.623444 51.441803 -47.080271
-30.061591 54.022682 -46.955944
-21.16001 36.911223 -49.978472
-22.091135 37.343249 -49.647604
-22.060415 39.011864 -49.960911
-21.16001 36.911223 -49.978472
-20.243442 36.637644 -50.302052
-20.802093 43.591374 -51.176445
-21.619493 44.026673 -50.964733
-21.520031 45.746185 -51.237141
-20.053332 41.755026 -51.150665
-20.802093 43.591374 -51.176445
-19.245706 39.922506 -51.146918
-20.09393 40.039341 -50.900289
-20.053332 41.755026 -51.150665
-18.409636 38.068939 -51.142536
-19.245706 39.922506 -51.146918
-18.426082 36.316486 -50.897383
-18.409636 38.068939 -51.142536
-31.044784 70.598102 -45.210771
-31.094769 68.138389 -45.596731
-30.957022 72.946808 -44.803072
-30.845712 75.081585 -44.322529
-30.523933 71.981358 -45.740249
-31.044784 70.598102 -45.210771
-30.957022 72.946808 -44.803072
-24.026628 90.603996 -44.691278
-23.488394 89.594662 -45.632414
-25.054521 89.772297 -44.471907
-24.026628 90.603996 -44.691278
-24.991439 87.030399 -46.122124
-24.034308 87.885468 -46.29208
-24.479388 86.01189 -46.964416
-25.448391 87.989265 -45.243641
-24.991439 87.030399 -46.122124
-25.893472 86.115688 -45.915977
-25.054521 89.772297 -44.471907
-25.448391 87.989265 -45.243641
-29.077354 82.129311 -44.312902
-28.712057 84.095535 -43.791828
-28.336596 83.292046 -44.768145
-29.358982 80.02182 -44.871035
-29.734443 80.82531 -43.894718
-29.077354 82.129311 -44.312902
-29.595928 77.857086 -45.388662
-29.358982 80.02182 -44.871035
-28.938839 79.161087 -45.806847
-29.805978 75.663208 -45.828512
-30.226121 76.523941 -44.8927
-29.595928 77.857086 -45.388662
-25.09203 72.371338 -50.585514
-25.735976 73.541088 -50.072973
-25.259709 70.272144 -50.784651
-25.09203 72.371338 -50.585514
-25.33219 68.08625 -50.96611
-25.936014 69.30183 -50.540132
-25.259709 70.272144 -50.784651
-25.310831 66.188473 -51.103268
-25.33219 68.08625 -50.96611
-24.634526 67.158786 -51.347786
-23.947211 62.339258 -51.776254
-24.556596 63.310091 -51.534788
-24.003782 64.290177 -51.72641
-23.789793 60.522127 -51.822111
-23.947211 62.339258 -51.776254
-28.302263 40.352625 -46.249136
-28.968103 42.793871 -46.152998
-28.302263 40.352625 -46.249136
-27.425449 39.894547 -46.879452
-23.822073 37.968704 -48.891227
-24.754871 38.270014 -48.421272
-23.861814 39.81568 -49.236892
-22.951798 37.596914 -49.284378
-23.822073 37.968704 -48.891227
-23.209287 46.68392 -50.730265
-22.520927 44.536631 -50.697005
-23.392783 45.039067 -50.401841
-22.97654 48.259966 -51.05871
-23.209287 46.68392 -50.730265
-23.848396 48.762402 -50.763546
-22.826135 49.889935 -51.326069
-22.97654 48.259966 -51.05871
-22.595735 51.465919 -51.596036
-22.826135 49.889935 -51.326069
-23.385248 51.914433 -51.361959
-22.366022 52.79751 -51.807865
-22.595735 51.465919 -51.596036
-22.818834 54.691416 -51.844093
-23.581619 55.427467 -51.63015
-23.245604 56.628466 -51.842315
-22.366022 52.79751 -51.807865
-22.818834 54.691416 -51.844093
3 0 55 57
3 55 14 56
3 55 56 57
3 0 16 14
3 58 19 59
3 60 59 17
3 58 59 60
3 61 21 62
3 63 23 64
3 65 64 21
3 63 64 65
3 67 66 23
3 2 68 69
3 2 70 72
3 70 26 71
3 70 71 72
3 2 28 26
3 1 31 29
3 1 33 31
3 3 73 74
3 3 75 77
3 75 34 76
3 75 76 77
3 3 36 34
3 5 37 15
3 5 38 37
3 6 78 79
3 7 80 82
3 82 81 18
3 80 81 82
3 7 83 84
3 85 39 86
3 85 86 87
3 88 40 89
3 8 90 92
3 92 91 20
3 90 91 92
3 8 93 94
3 8 95 97
3 95 41 96
3 95 96 97
3 9 42 22
3 9 43 42
3 9 44 43
3 10 45 24
3 10 46 45
3 98 47 99
3 101 100 47
3 11 102 104
3 104 103 25
3 102 103 104
3 11 105 106
3 11 107 109
3 107 48 108
3 107 108 109
3 12 49 27
3 12 50 49
3 4 51 35
3 13 52 30
3 13 53 52
3 13 54 53
3 111 110 32
3 14 112 113
3 14 114 116
3 114 3 115
3 114 115 116
3 14 15 3
3 16 15 14
3 16 5 15
3 17 18 6
3 19 18 17
3 19 7 18
3 117 20 118
3 21 119 121
3 119 20 120
3 119 120 121
3 21 8 20
3 21 22 8
3 23 22 21
3 23 9 22
3 23 24 9
3 122 24 123
3 124 123 23
3 122 123 124
3 125 10 126
3 127 126 24
3 125 126 127
3 128 25 129
3 26 130 132
3 130 25 131
3 130 131 132
3 26 11 25
3 26 27 11
3 28 27 26
3 28 12 27
3 29 30 4
3 31 30 29
3 31 13 30
3 31 32 13
3 33 32 31
3 33 133 135
3 135 134 32
3 133 134 135
3 34 136 137
3 34 138 140
3 138 2 139
3 138 139 140
3 34 35 2
3 36 35 34
3 36 4 35
3 15 36 3
3 37 36 15
3 37 4 36
3 37 29 4
3 38 29 37
3 38 1 29
3 18 141 143
3 143 142 6
3 141 142 143
3 145 144 18
3 146 19 147
3 146 147 148
3 149 19 150
3 151 7 152
3 153 152 19
3 151 152 153
3 154 7 155
3 157 156 7
3 158 0 159
3 39 160 161
3 39 162 164
3 162 0 163
3 162 163 164
3 40 165 166
3 40 167 168
3 20 169 171
3 169 40 170
3 169 170 171
3 172 40 173
3 174 173 20
3 172 173 174
3 176 175 40
3 41 177 179
3 177 178 179
3 41 180 182
3 180 181 182
3 22 41 8
3 42 41 22
3 42 183 185
3 185 184 41
3 183 184 185
3 42 186 188
3 186 39 187
3 186 187 188
3 43 39 42
3 43 0 39
3 43 16 0
3 44 16 43
3 44 5 16
3 24 44 9
3 45 44 24
3 45 5 44
3 45 38 5
3 46 38 45
3 46 1 38
3 189 10 190
3 191 10 192
3 193 46 194
3 195 194 10
3 193 194 195
3 47 196 198
3 196 46 197
3 196 197 198
3 47 1 46
3 47 33 1
3 199 33 200
3 201 200 47
3 199 200 201
3 203 202 33
3 25 204 205
3 207 206 25
3 48 208 209
3 48 210 212
3 210 6 211
3 210 211 212
3 27 48 11
3 49 48 27
3 49 6 48
3 49 17 6
3 50 17 49
3 50 213 215
3 215 214 17
3 213 214 215
3 35 28 2
3 51 28 35
3 51 12 28
3 30 51 4
3 52 51 30
3 52 12 51
3 52 50 12
3 53 50 52
3 53 216 218
3 218 217 50
3 216 217 218
3 53 219 220
3 54 221 223
3 223 222 53
3 221 222 223
3 54 224 225
3 32 54 13
3 226 54 227
3 228 227 32
3 226 227 228
3 230 229 54
