ply
format ascii 1.0
element vertex 188
property float x
property float y
property float z
element face 160
property list uchar int vertex_index
end_header
-32.45055 67.327248 12.862076
-31.053873 71.268654 20.939232
-32.068691 63.995361 17.948811
-30.738489 65.449478 30.619287
-33.668316 63.569801 9.510971
-32.922848 70.542595 6.844294
-31.452347 65.702209 21.483551
-31.070301 65.894539 25.769442
-31.59556 70.130257 16.497641
-31.841394 74.121269 10.596179
-33.779652 69.733574 2.130028
-32.766502 63.832394 14.006853
-33.035122 65.381203 11.222381
-33.277695 67.044838 8.309391
-32.671528 68.987038 9.991183
-31.260305 63.14978 25.694815
-31.093527 62.968193 28.020948
-31.260742 68.520027 21.162115
-31.521183 67.940346 19.043335
-31.297132 71.005714 18.495399
-32.258316 65.558235 15.536892
-30.821842 74.29512 20.357199
-31.070539 73.903511 17.932491
-30.779903 77.044281 17.405954
-33.538647 68.445084 5.283829
-31.242067 65.887962 23.633705
-31.047613 68.712158 23.503447
-30.901264 65.702324 28.204948
-30.866642 68.650307 25.846161
-30.832584 71.605812 23.271048
-31.72871 64.84787 19.709841
-31.829496 67.05928 17.226534
-31.991251 68.846451 14.543989
-31.364199 73.08638 15.760335
-31.710554 72.070175 13.714223
-32.137383 70.892334 11.648635
-33.886843 70.375321 0.452768
-33.535498 71.607574 1.333775
-31.114888 61.377868 29.070729
-31.191459 61.624088 27.846086
-32.286093 63.18453 17.271934
-32.175505 62.421053 18.460227
-32.163504 64.776798 16.742852
-32.380905 63.965967 16.065974
-32.286093 63.18453 17.271934
-30.651082 77.195968 18.647765
-30.800873 75.669701 18.881577
-30.672052 75.821388 20.123387
-33.834003 61.782127 10.298969
-33.515917 62.733612 11.024109
-34.034521 62.345827 8.799685
-33.834003 61.782127 10.298969
-33.827585 64.2583 7.972275
-34.034521 62.345827 8.799685
-33.0084 71.329937 5.338107
-33.316299 70.281182 4.557875
-33.230747 69.49384 6.064061
-30.819876 65.575901 29.412118
-30.926129 64.039139 29.380014
-30.844742 63.912716 30.587184
-30.749544 70.138562 25.742396
-30.76711 68.707234 27.04419
-30.732515 71.616314 24.454839
-30.849613 70.12806 24.558605
-30.749544 70.138562 25.742396
-30.710009 73.060997 23.04146
-30.732515 71.616314 24.454839
-31.590528 65.275039 20.596696
-31.686712 63.90102 20.750739
-31.54853 64.328189 21.637594
-31.226734 74.666294 15.392834
-31.217369 73.494946 16.846413
-31.079904 75.07486 16.478912
-31.775974 73.095722 12.155201
-31.567448 73.697312 13.261145
-31.632869 74.722859 11.702122
-32.096097 73.250896 9.638725
-32.244091 71.636429 10.164953
-31.989389 72.506801 11.122407
-31.993873 63.129047 19.082369
-32.175505 62.421053 18.460227
-34.131391 68.571545 1.260711
-34.024523 67.932095 2.790541
-34.131391 68.571545 1.260711
-33.886843 70.375321 0.452768
-33.06501 62.864908 13.27205
-32.896545 62.253382 14.588704
-33.19932 63.639313 11.879815
-33.06501 62.864908 13.27205
-32.900812 64.606798 12.614617
-33.351719 64.475502 10.366676
-33.515917 62.733612 11.024109
-33.19932 63.639313 11.879815
-31.274848 61.714882 26.683019
-31.354363 61.800989 25.669793
-31.176916 63.058987 26.857881
-31.274848 61.714882 26.683019
-31.191459 61.624088 27.846086
-30.703034 67.106819 29.430754
-30.613688 66.774822 30.793057
-31.673293 75.729931 10.171219
-31.632869 74.722859 11.702122
-31.900365 74.982792 9.153747
-31.673293 75.729931 10.171219
-32.634998 63.103047 15.300955
-32.896545 62.253382 14.588704
-32.512409 64.695314 14.771873
-32.634998 63.103047 15.300955
-32.380905 63.965967 16.065974
-30.769548 63.715458 31.79041
-30.844742 63.912716 30.587184
-30.650001 65.039398 32.043498
-30.769548 63.715458 31.79041
-30.613688 66.774822 30.793057
-30.650001 65.039398 32.043498
-30.934586 76.645244 16.215644
-31.079904 75.07486 16.478912
-30.925221 75.473896 17.669223
-30.615215 78.531685 17.128974
-30.651082 77.195968 18.647765
-30.776457 78.154846 15.947684
-30.615215 78.531685 17.128974
-30.934586 76.645244 16.215644
-30.776457 78.154846 15.947684
-33.632275 65.995819 7.371485
-33.827585 64.2583 7.972275
-33.473005 65.30732 8.910181
-33.762751 66.695942 5.858704
-33.632275 65.995819 7.371485
-33.408171 67.744961 6.79661
-33.904021 67.287849 4.367441
-33.762751 66.695942 5.858704
-33.659149 69.089329 3.706929
-34.024523 67.932095 2.790541
-33.904021 67.287849 4.367441
-33.436802 70.925427 2.980974
-33.659149 69.089329 3.706929
-33.316299 70.281182 4.557875
-33.535498 71.607574 1.333775
-33.436802 70.925427 2.980974
-31.442901 64.422882 22.586537
-31.54853 64.328189 21.637594
-31.34688 63.146667 24.692169
-31.354363 61.800989 25.669793
-31.337761 64.515759 23.661614
-31.34688 63.146667 24.692169
-31.251186 64.518871 24.66426
-31.347207 65.795085 22.558628
-31.442901 64.422882 22.586537
-31.337761 64.515759 23.661614
-31.022261 62.672073 29.288014
-31.114888 61.377868 29.070729
-30.997396 64.335259 28.112948
-31.022261 62.672073 29.288014
-30.926129 64.039139 29.380014
-30.784421 67.233242 28.223584
-30.819876 65.575901 29.412118
-30.703034 67.106819 29.430754
-30.883953 67.176316 27.025554
-30.784421 67.233242 28.223584
-30.76711 68.707234 27.04419
-30.704639 74.405651 21.584535
-30.827213 72.950466 21.814124
-30.710009 73.060997 23.04146
-30.672052 75.821388 20.123387
-30.704639 74.405651 21.584535
-31.823882 63.555301 19.962884
-31.686712 63.90102 20.750739
-31.898701 64.421616 18.829326
-31.993873 63.129047 19.082369
-31.823882 63.555301 19.962884
-31.394271 74.205414 14.284201
-31.226734 74.666294 15.392834
-31.537377 72.578278 14.737279
-31.394271 74.205414 14.284201
-31.567448 73.697312 13.261145
-32.511164 70.683781 9.336227
-32.404455 69.939686 10.819909
-32.244091 71.636429 10.164953
-32.636824 71.461559 7.762783
-32.797188 69.764816 8.417738
-32.511164 70.683781 9.336227
-32.096097 73.250896 9.638725
-31.900365 74.982792 9.153747
-32.700331 72.381283 6.253875
-32.636824 71.461559 7.762783
-33.0084 71.329937 5.338107
-32.700331 72.381283 6.253875
3 37 36 10
3 0 12 11
3 0 14 12
3 38 16 39
3 1 19 17
3 2 40 41
3 2 42 44
3 42 20 43
3 42 43 44
3 45 23 46
3 47 46 21
3 45 46 47
3 4 48 49
3 4 50 51
3 4 52 53
3 5 24 13
3 5 54 56
3 56 55 24
3 54 55 56
3 7 25 15
3 7 26 25
3 3 57 59
3 57 27 58
3 57 58 59
3 60 28 61
3 62 29 63
3 64 63 28
3 62 63 64
3 66 65 29
3 6 67 69
3 67 30 68
3 67 68 69
3 8 31 18
3 8 32 31
3 70 33 71
3 72 71 22
3 70 71 72
3 9 73 75
3 73 34 74
3 73 74 75
3 9 35 34
3 9 76 78
3 78 77 35
3 76 77 78
3 79 2 80
3 10 81 82
3 84 83 10
3 11 85 86
3 12 87 89
3 89 88 11
3 87 88 89
3 12 90 92
3 90 4 91
3 90 91 92
3 12 13 4
3 14 13 12
3 14 5 13
3 93 15 94
3 16 95 97
3 95 15 96
3 95 96 97
3 16 7 15
3 99 98 3
3 17 18 6
3 19 18 17
3 19 8 18
3 100 9 101
3 103 102 9
3 104 11 105
3 20 106 108
3 106 11 107
3 106 107 108
3 20 0 11
3 109 3 110
3 111 3 112
3 114 113 3
3 21 22 1
3 23 22 21
3 23 115 117
3 117 116 22
3 115 116 117
3 118 23 119
3 120 23 121
3 123 122 23
3 13 124 126
3 126 125 4
3 124 125 126
3 24 127 129
3 129 128 13
3 127 128 129
3 24 130 131
3 24 132 134
3 132 10 133
3 132 133 134
3 135 10 136
3 137 136 24
3 135 136 137
3 139 138 10
3 140 6 141
3 15 142 143
3 25 144 146
3 146 145 15
3 144 145 146
3 25 147 149
3 147 6 148
3 147 148 149
3 25 17 6
3 26 17 25
3 26 1 17
3 150 16 151
3 27 152 154
3 152 16 153
3 152 153 154
3 27 7 16
3 155 27 156
3 157 156 3
3 155 156 157
3 28 158 160
3 158 27 159
3 158 159 160
3 28 7 27
3 28 26 7
3 29 26 28
3 29 1 26
3 29 21 1
3 161 21 162
3 163 162 29
3 161 162 163
3 165 164 21
3 30 166 167
3 30 168 170
3 168 2 169
3 168 169 170
3 18 30 6
3 31 30 18
3 31 2 30
3 31 20 2
3 32 20 31
3 32 0 20
3 22 19 1
3 33 19 22
3 33 8 19
3 171 33 172
3 34 173 175
3 173 33 174
3 173 174 175
3 34 8 33
3 34 32 8
3 35 32 34
3 35 0 32
3 35 14 0
3 176 14 177
3 178 177 35
3 176 177 178
3 179 5 180
3 181 180 14
3 179 180 181
3 183 182 9
3 184 5 185
3 187 186 5
