ply
format ascii 1.0
element vertex 1074
property float x
property float y
property float z
element face 1057
property list uchar int vertex_index
end_header
32.710022 32.633732 30.191038
30.94385 0.618132 33.173206
28.680504 -8.791149 47.526157
30.472607 42.362617 45.787014
31.849077 64.573425 23.87517
32.203079 16.492239 31.775785
23.078144 25.951687 65.479103
28.036871 28.241961 61.107948
31.050484 54.319225 35.71843
28.238106 -21.957628 50.663063
27.278999 -44.073769 57.52729
35.042782 40.333519 20.745323
30.106163 29.320154 53.31337
30.595066 27.906807 44.907108
35.919476 62.233814 3.785294
34.214092 56.881264 16.166777
32.560143 48.555038 27.728998
31.362972 38.762562 37.228123
29.008778 -4.522088 39.68182
28.130913 -27.950592 52.507671
28.034277 -26.898037 47.699665
28.092503 -32.801418 49.310463
26.365782 -48.805286 58.547928
33.841343 36.391468 25.709501
33.820042 28.320108 27.048565
20.825638 39.075706 60.907578
29.260988 21.697418 60.140274
29.369631 29.058506 57.402611
29.966099 22.026567 56.292213
32.904518 61.193199 19.751404
33.356209 53.039417 22.095692
32.290665 56.735413 25.835651
30.73052 48.642803 41.014053
31.294359 46.519501 36.75882
30.93746 40.963337 41.387493
30.930998 33.516884 41.230583
30.669041 34.928204 45.512894
29.019955 -1.787791 46.231754
29.101227 0.182462 42.309631
28.656271 -6.927646 43.437244
31.714117 28.251171 34.318779
32.524269 24.414171 31.127384
30.386303 5.579342 35.850773
20.177362 31.329996 63.715485
23.350101 33.619778 62.899651
25.844316 27.122765 64.004707
31.432478 59.617039 30.021313
28.410606 -15.479771 48.857655
28.304506 -13.964599 44.669449
28.10449 -20.45023 46.130817
28.144033 -38.621532 51.016651
33.569168 19.921293 28.230526
29.166908 -3.526078 50.342873
28.479013 -22.892418 55.316704
30.288801 35.973797 49.768784
30.462147 28.692947 48.996712
35.130203 59.750206 10.012327
35.825813 51.419228 12.958061
34.69239 48.346947 18.812731
33.680122 44.811066 24.024483
32.703709 40.775536 29.105204
31.753067 51.637165 31.526861
31.90472 43.915268 32.701447
31.890848 36.093418 33.641811
31.239506 31.352039 37.541355
29.571609 7.192861 41.666473
29.549988 2.615813 38.933712
29.755688 -2.044101 36.436649
28.513748 -11.763564 40.746346
29.163181 -9.454471 37.109974
28.068043 -30.49844 51.027451
28.074928 -33.356361 51.771534
33.282059 34.660492 27.905951
33.833714 32.442276 26.45751
33.220081 30.425209 28.63942
31.279842 4.621838 32.905293
22.45113 40.063217 60.531898
21.00334 43.000813 59.264133
29.689989 21.599337 58.266823
32.643833 65.211922 18.36676
32.353054 62.863583 21.804214
32.602707 59.042576 22.764908
32.082947 60.540768 25.012024
30.590176 45.375763 43.56641
30.861052 44.84491 41.255482
30.720057 41.85854 43.561237
30.793612 38.228134 43.470036
30.600122 38.5765 45.777542
28.846087 -5.268698 46.908699
28.805391 -4.60809 44.807911
28.626007 -8.017879 45.447437
21.54487 24.793581 65.908195
20.038258 27.543617 64.924324
21.644119 28.576553 64.764389
21.867369 32.323166 63.521313
23.266209 29.805683 64.234482
24.706039 30.404289 63.581169
24.531612 26.529266 64.903107
26.806026 20.362398 65.177658
28.325041 -18.584995 49.756786
28.227608 -17.921047 47.43021
28.144951 -21.273241 48.271656
28.070095 -29.412012 46.156322
28.040157 -26.074076 45.302891
28.11759 -28.588432 44.046188
27.588268 -41.539787 56.797642
27.894182 -41.469139 54.342537
32.388767 20.456524 31.463072
33.050346 22.510324 29.583685
32.85339 18.357513 30.085608
29.563942 2.799961 51.177032
29.424845 -0.728488 51.802879
29.207113 -7.484741 53.401691
28.715899 -20.393837 56.829147
27.162836 31.691349 61.194832
28.054993 32.211483 59.669857
29.804607 29.066097 55.408173
29.400816 32.780636 55.954845
29.867321 32.490669 53.914818
29.973026 35.855957 52.064503
30.201754 32.622238 51.579746
30.418928 32.389004 49.408195
30.32164 29.00132 51.176655
33.916985 60.921635 14.81
34.31427 62.520214 11.654436
34.689579 58.310608 13.111275
35.517952 55.588852 11.448936
34.99276 54.349854 14.454491
35.257317 50.041592 15.895709
34.514038 52.482162 17.468895
32.921223 50.957901 25.042547
33.51025 48.905571 23.218172
33.062977 46.979771 25.860565
33.188625 43.059196 26.50919
32.666012 44.4963 28.419321
31.240984 57.153038 32.784798
31.613525 55.659618 30.781
31.398861 53.255241 33.482925
31.34561 42.675419 37.093815
31.574762 45.573544 34.688011
31.598787 41.480503 35.171253
31.901049 39.945992 33.306053
31.61072 37.474434 35.328384
31.54776 33.670586 35.651218
31.323364 35.101177 37.414192
30.751291 30.795567 43.123661
30.827354 29.780224 41.291004
30.636467 27.18502 43.009834
29.452951 6.085652 43.37714
28.995747 -2.507544 41.109268
29.264629 1.285128 40.661671
29.269409 -1.02036 39.29763
29.627501 0.387597 37.670261
29.343702 -3.272704 37.97263
28.217178 -16.370989 43.143578
28.367683 -12.779483 42.607941
28.34025 -15.310931 41.190193
29.635033 -8.269409 35.473557
29.920622 -10.656656 34.082752
21.469074 21.180954 66.909958
23.051863 22.069683 66.589699
24.433846 22.967922 65.993248
28.177227 -25.057579 51.629955
28.096039 -24.366922 49.228382
28.06838 -27.506666 50.058075
28.051928 -29.934273 48.483654
28.127825 -32.4561 46.974453
26.862595 -46.526176 58.146275
34.437191 38.247711 23.323044
34.493984 34.154076 24.136148
34.456215 29.953587 25.027479
34.426075 25.511326 25.686646
31.934114 12.559452 32.169918
32.598618 13.891927 30.529612
32.337688 9.879803 30.849415
19.033253 37.863338 61.032494
19.336258 41.526554 59.598175
28.72794 24.871447 60.764362
28.75699 28.924519 59.341347
29.304344 25.37686 58.85363
29.73275 25.57597 56.891521
30.053173 25.492937 54.739258
30.24312 25.740568 52.623638
33.241608 62.945156 16.740982
33.531307 59.018608 17.952675
33.803638 54.910789 19.138382
33.142883 57.202606 20.944916
32.75444 55.101254 24.041624
32.434551 52.683464 26.861944
30.901291 51.528233 38.291008
31.211794 50.42654 36.1828
31.028534 47.523483 38.832474
31.097042 43.647392 39.248676
31.141369 39.904278 39.293568
31.127577 36.511639 39.385529
30.955481 37.241348 41.410362
30.808249 34.563686 43.273815
30.667236 31.343918 45.153996
29.21047 1.700122 45.591709
29.229288 2.557148 43.720051
29.004868 -1.097848 44.196068
28.866329 -3.41142 42.905235
28.779144 -5.731852 41.530987
32.194389 30.585867 32.295639
32.624004 28.533714 30.732756
32.08036 26.395029 32.689529
30.970203 7.145331 34.204693
30.62731 3.040165 34.517227
18.660667 34.156891 62.350437
20.443352 34.982578 62.454514
22.091743 36.218941 62.085846
23.699846 37.347797 61.408428
24.906155 34.169739 62.150139
26.033314 30.902763 62.60022
27.053349 27.65946 62.716633
25.751474 23.426117 65.189949
26.881157 24.024204 64.053627
27.936634 24.574936 62.471638
31.033939 61.022903 32.072838
30.669638 55.341755 38.067551
30.547527 52.309162 40.659473
30.426701 49.090969 43.19648
28.537741 -12.188941 48.238323
28.475315 -11.260719 46.12674
28.335157 -14.598533 46.679832
28.187643 -17.23461 45.338108
28.111877 -19.75231 44.047905
28.046965 -23.80965 46.760223
28.055973 -22.882643 44.611828
28.127657 -22.048231 42.47488
28.067507 -36.150009 52.657093
28.005136 -38.924206 53.557995
28.106815 -41.238316 51.903305
33.128735 26.385094 29.226027
33.71307 24.094635 27.699345
34.293129 21.369091 26.345594
33.325253 15.786341 28.803053
34.121449 17.264151 26.887569
29.239594 0.757574 47.589909
29.078587 -2.599353 48.289074
28.928448 -6.058114 48.972286
29.324244 -3.881054 52.636532
29.063845 -6.797381 51.248474
28.799728 -9.398879 49.73867
28.661047 -12.935065 50.48502
28.553684 -16.113989 51.268841
28.448294 -19.405619 52.083126
28.364742 -22.546967 53.116581
28.271669 -25.541103 53.951572
26.207603 -46.393402 60.156063
28.819517 32.499043 57.888336
30.37373 39.043175 47.926186
30.506517 35.397221 47.692326
30.565966 31.938389 47.276466
30.546026 28.601784 46.984776
30.367548 25.451618 50.419659
34.719131 63.827847 8.499495
35.536598 61.230743 6.772254
35.981651 56.979092 8.358863
36.364017 52.850056 9.860086
36.669754 48.638687 11.408073
36.104115 47.198143 14.300833
35.472759 45.977161 17.09753
34.927681 44.340557 19.664051
34.004265 50.755569 20.384428
34.171375 46.773766 21.424692
34.315571 42.493721 22.450365
33.747654 40.57196 25.039557
33.217918 38.824799 27.403309
32.722134 36.618088 29.716021
31.821188 58.395523 27.964907
31.993425 54.408241 28.768351
32.145844 50.250378 29.468658
31.505018 49.19825 34.233006
31.827974 47.799973 32.287781
32.221157 46.444588 30.211084
32.262672 42.39674 30.901253
32.267792 38.344173 31.508736
32.257374 34.568691 31.899698
31.846264 32.386688 33.8964
31.45578 29.994587 35.85321
31.061262 32.583473 39.420605
30.944555 28.875786 39.460152
29.3398 3.805998 42.011063
29.525681 4.903163 40.322979
29.809156 6.149021 38.713535
29.91934 3.963557 37.359928
30.072447 1.530368 36.077888
30.287107 -0.819685 34.836479
28.461546 -10.51885 44.034275
28.555489 -9.238187 42.146778
28.738831 -8.211342 40.245552
28.758186 -10.882257 38.949863
29.024437 -7.066776 38.527809
29.439056 -5.713508 36.82217
29.954308 -4.429938 35.179295
28.130665 -35.696266 50.26387
28.190214 -35.30175 47.788136
28.256226 -34.778309 45.473717
28.056413 -33.55055 53.063553
28.081032 -32.179887 52.550883
31.307536 1.37895 32.355222
31.475531 3.380803 32.221266
31.111846 2.619985 33.039249
31.131615 -0.686049 32.468653
31.307536 1.37895 32.355222
22.542012 42.092077 59.648533
23.18205 40.698137 60.12042
31.971312 65.670761 22.226911
31.728439 66.512741 23.206488
32.101066 63.718504 22.839692
32.223301 64.81584 21.191434
31.971312 65.670761 22.226911
28.148563 -30.119284 44.351457
28.093843 -29.000222 45.101255
28.124815 -30.531073 45.406525
28.196838 -29.841741 43.261362
28.148563 -30.119284 44.351457
27.484192 -44.046914 56.389244
27.638826 -42.779922 56.02442
27.433633 -42.806778 57.162466
35.443076 38.820966 19.993024
35.364357 40.925471 19.495183
29.60729 2.417154 52.257938
29.66082 4.208328 51.847337
29.537741 0.652929 52.570861
29.494394 1.035737 51.489955
29.60729 2.417154 52.257938
36.348896 60.728277 3.02408
36.113625 62.64967 2.181332
36.158831 60.25441 4.512458
36.348896 60.728277 3.02408
30.536634 26.206491 44.707731
30.557335 25.845598 43.759094
30.615766 27.545914 43.958471
29.430026 5.573873 44.265676
29.526618 7.26268 44.013756
28.272866 -17.045766 41.519048
28.278714 -15.84096 42.166885
28.21133 -17.575795 42.495741
29.762518 -12.527036 34.275391
29.632494 -11.354532 34.936853
30.060308 -12.100456 33.432153
29.762518 -12.527036 34.275391
22.202296 19.714176 67.260758
21.360597 19.326462 67.383095
22.99369 20.158541 67.100628
22.260469 21.625318 66.749829
22.202296 19.714176 67.260758
23.756694 20.551869 66.816697
22.99369 20.158541 67.100628
26.712257 -48.789413 57.472765
26.960663 -47.649858 57.271939
26.614188 -47.665731 58.347102
31.982238 9.269039 31.695463
32.135901 11.219628 31.509667
31.780451 10.608863 32.355715
20.362339 44.349436 58.549908
21.254405 44.959372 58.390485
30.06955 22.154887 55.134337
30.113087 23.888072 54.357859
30.009636 23.759752 55.515735
30.678253 6.362336 35.027733
30.846958 8.221153 34.817585
30.555008 7.438158 35.640625
19.299208 30.832689 63.669533
19.229655 28.939499 64.273953
20.10781 29.436807 64.319905
19.419014 32.743443 63.032961
18.54086 32.246136 62.987009
19.299208 30.832689 63.669533
25.731476 21.550397 65.72234
25.09266 23.19702 65.591599
25.072661 21.3213 66.123989
27.354934 22.400512 63.912504
26.843592 22.193301 64.615643
27.317369 20.569609 64.474519
27.882673 22.675877 63.12151
27.408895 24.29957 63.262633
27.354934 22.400512 63.912504
28.296092 22.791939 62.288172
27.882673 22.675877 63.12151
30.82019 61.507061 33.225668
30.906559 62.849754 31.725768
30.947975 59.534418 33.582846
30.82019 61.507061 33.225668
30.481638 55.654404 39.162884
30.564529 57.14406 37.69207
30.420583 54.138107 40.458845
30.608582 53.825458 39.363512
30.481638 55.654404 39.162884
30.234784 49.4205 44.273575
30.303878 50.960833 43.015941
30.351605 47.581381 44.456288
30.234784 49.4205 44.273575
28.076613 -24.172926 43.93638
28.048065 -24.47836 44.95736
28.068705 -25.768642 44.281912
28.112454 -23.75572 42.867907
28.091815 -22.465437 43.543354
28.076613 -24.172926 43.93638
28.180069 -23.371504 41.776714
28.112454 -23.75572 42.867907
27.901444 -39.004856 54.829966
27.978107 -37.763544 54.355002
28.055423 -42.556681 52.368437
28.000498 -41.353727 53.122921
27.949107 -42.672092 53.588053
28.1715 -42.400721 51.13311
28.055423 -42.556681 52.368437
33.214493 13.698459 28.971512
32.961935 14.839134 29.666332
32.851175 12.751252 29.834792
34.431812 15.895801 26.155196
34.012095 15.284217 27.119393
34.544767 17.986297 25.847724
34.431812 15.895801 26.155196
29.360312 2.14667 48.313419
29.326645 2.384266 47.354607
29.122747 -3.062715 49.315973
29.195908 -1.335344 48.969196
29.240068 -1.798707 49.996096
29.38694 -4.303911 53.772683
29.444215 -2.501314 53.415633
28.999227 -8.591472 51.627197
29.135479 -7.141061 52.325083
29.070861 -8.935151 52.703806
28.867169 -9.892221 50.872295
28.931787 -8.09813 50.493572
28.999227 -8.591472 51.627197
28.797829 -11.660314 51.24547
28.730387 -11.166972 50.111845
28.867169 -9.892221 50.872295
28.631115 -16.467623 52.455199
28.690094 -14.857557 52.064865
28.57842 -18.113438 52.862341
28.500989 -17.759804 51.675984
28.631115 -16.467623 52.455199
28.541754 -21.331162 54.890715
28.660198 -20.081871 55.646936
28.597456 -21.643127 56.072925
28.421878 -22.719693 54.216642
28.484619 -21.158436 53.790653
28.541754 -21.331162 54.890715
26.120368 -45.144072 60.965429
26.476119 -45.214632 59.921837
29.161196 34.480772 56.067913
29.460267 34.511155 55.045267
30.168473 37.680084 49.982277
30.010586 37.621164 51.130137
30.130913 35.914877 50.916643
30.331266 37.508486 48.847485
30.210938 39.214773 49.060978
30.168473 37.680084 49.982277
30.324613 23.954108 51.100214
30.305334 25.596093 51.521648
30.2624 24.098583 52.202203
31.626833 59.006281 28.99311
31.726635 60.286661 27.505516
31.53228 60.897419 28.533718
31.171022 29.54556 37.641216
31.279159 28.866833 36.797143
31.347643 30.673313 36.697283
30.820352 27.605187 40.32324
30.885955 29.328005 40.375578
30.761751 28.057406 41.238667
30.878843 27.190239 39.41769
30.820352 27.605187 40.32324
29.68434 8.76869 41.436397
29.616895 8.287215 42.301542
29.673107 7.710434 40.816298
29.68434 8.76869 41.436397
28.960684 -10.168364 38.029919
28.821346 -11.959564 38.284979
29.023843 -11.245672 37.365034
30.083707 -5.791205 34.508793
29.794671 -6.349673 35.326426
29.92407 -7.71094 34.655924
30.266157 -3.815764 34.347147
30.083707 -5.791205 34.508793
28.262862 -36.547241 47.005085
28.214574 -36.688114 48.19723
28.295868 -36.285521 45.847876
28.22322 -35.04003 46.630927
28.262862 -36.547241 47.005085
28.07759 -30.750926 52.178841
28.099478 -29.224516 51.767561
28.109025 -29.477002 52.918951
28.071486 -31.9274 51.399493
28.07759 -30.750926 52.178841
28.081032 -32.179887 52.550883
26.447437 -49.928972 57.730793
26.036359 -49.82229 58.774765
31.639432 5.363181 32.085653
31.453314 6.640056 32.723402
31.639432 5.363181 32.085653
31.475531 3.380803 32.221266
21.818117 43.560875 59.01465
21.727235 41.532015 59.898015
22.542012 42.092077 59.648533
21.254405 44.959372 58.390485
21.818117 43.560875 59.01465
29.65421 19.832414 58.901544
29.475489 21.648377 59.203548
29.439709 19.881455 59.83827
29.809468 19.969534 57.801901
29.65421 19.832414 58.901544
29.947522 20.183149 56.814596
29.828044 21.812952 57.279518
29.809468 19.969534 57.801901
30.036588 20.456817 55.723878
29.947522 20.183149 56.814596
32.36869 65.990009 19.472707
32.490158 67.083256 17.802915
32.498444 64.037752 20.085487
32.36869 65.990009 19.472707
32.223301 64.81584 21.191434
31.665478 26.353463 34.365031
31.518988 27.231798 35.177441
30.301408 6.62791 36.460361
30.555008 7.438158 35.640625
20.791564 26.168599 65.416259
19.960551 25.66199 65.469616
20.713856 24.286972 65.961552
26.817628 18.40961 65.673458
26.258751 20.018538 65.716194
27.310651 18.659582 64.993729
26.817628 18.40961 65.673458
27.317369 20.569609 64.474519
27.310651 18.659582 64.993729
28.107421 -27.025821 43.65356
28.068705 -25.768642 44.281912
28.078874 -27.331254 44.67454
28.171634 -28.210147 42.943363
28.107421 -27.025821 43.65356
28.171634 -28.210147 42.943363
28.196838 -29.841741 43.261362
27.741225 -41.504463 55.57009
27.845967 -40.277322 55.222237
27.69301 -40.312646 56.449789
27.791783 -42.744598 54.796868
27.741225 -41.504463 55.57009
27.638826 -42.779922 56.02442
27.949107 -42.672092 53.588053
27.791783 -42.744598 54.796868
29.626694 4.582904 50.751667
29.66082 4.208328 51.847337
29.522486 3.167864 50.106981
29.626694 4.582904 50.751667
29.438586 1.364313 50.413175
29.522486 3.167864 50.106981
29.369037 -0.399912 50.726099
29.438586 1.364313 50.413175
29.494394 1.035737 51.489955
29.295876 -2.127283 51.072876
29.240068 -1.798707 49.996096
29.369037 -0.399912 50.726099
29.280772 -7.814017 54.599222
29.328375 -6.105754 54.155262
29.15496 -9.10522 53.790773
29.280772 -7.814017 54.599222
29.070861 -8.935151 52.703806
29.15496 -9.10522 53.790773
28.753834 -20.476422 58.007686
28.848443 -18.969133 57.638475
28.633965 -21.885128 57.277849
28.753834 -20.476422 58.007686
28.515522 -23.134418 56.521628
28.597456 -21.643127 56.072925
28.633965 -21.885128 57.277849
28.411767 -24.414357 55.796104
28.515522 -23.134418 56.521628
27.215314 33.582964 60.418026
26.678836 33.329992 61.091019
27.661392 33.843031 59.655538
27.215314 33.582964 60.418026
27.608914 31.951416 60.432344
28.102125 34.134442 58.838339
27.661392 33.843031 59.655538
29.69352 34.366171 54.025253
29.460267 34.511155 55.045267
29.634068 32.635652 54.934832
29.920174 34.173313 52.98966
29.746372 36.048815 53.100096
29.69352 34.366171 54.025253
34.115628 61.720925 13.232218
33.958935 63.643789 12.541396
33.760292 62.8445 14.119178
30.666308 26.759804 42.098081
30.761751 28.057406 41.238667
30.73191 28.482622 42.150419
30.567395 25.526845 42.855345
30.666308 26.759804 42.098081
30.567395 25.526845 42.855345
30.557335 25.845598 43.759094
29.557565 7.733611 43.156875
29.526618 7.26268 44.013756
29.51228 6.639257 42.521806
29.616895 8.287215 42.301542
29.557565 7.733611 43.156875
29.253774 -10.753439 36.450464
29.023843 -11.245672 37.365034
29.4897 -10.160908 35.632256
29.399107 -8.86194 36.291765
29.253774 -10.753439 36.450464
29.777828 -9.463033 34.778154
29.4897 -10.160908 35.632256
29.632494 -11.354532 34.936853
30.066864 -8.904564 33.960521
29.92407 -7.71094 34.655924
29.777828 -9.463033 34.778154
30.236313 -10.296804 33.241878
30.066864 -8.904564 33.960521
30.236313 -10.296804 33.241878
30.060308 -12.100456 33.432153
28.191484 -38.348005 49.811487
28.198633 -39.741886 50.298224
20.58258 20.621829 66.950455
21.360597 19.326462 67.383095
20.675959 22.480659 66.462433
20.58258 20.621829 66.950455
21.506972 22.987268 66.409076
20.713856 24.286972 65.961552
20.675959 22.480659 66.462433
24.447685 21.000988 66.518471
23.742854 22.518802 66.291473
23.756694 20.551869 66.816697
25.072661 21.3213 66.123989
24.447685 21.000988 66.518471
28.15368 -32.053117 45.81559
28.124815 -30.531073 45.406525
28.09896 -30.934056 46.565387
27.147104 -46.537815 56.971749
27.355306 -45.311611 56.662256
27.070797 -45.299972 57.836782
27.147104 -46.537815 56.971749
26.960663 -47.649858 57.271939
26.712257 -48.789413 57.472765
26.447437 -49.928972 57.730793
34.803114 37.069775 22.50936
35.10591 38.112679 21.2205
34.739987 39.290615 22.034183
34.831511 35.022957 22.915912
34.803114 37.069775 22.50936
34.465587 36.200894 23.729596
34.824703 32.880605 23.447046
34.831511 35.022957 22.915912
34.805819 30.780361 23.892711
34.824703 32.880605 23.447046
34.475099 32.053832 24.581813
34.787292 28.682544 24.319261
34.805819 30.780361 23.892711
34.772222 26.461413 24.648845
34.787292 28.682544 24.319261
34.441145 27.732456 25.357062
34.755798 24.234609 24.957596
34.772222 26.461413 24.648845
32.72071 10.74519 29.994693
32.851175 12.751252 29.834792
32.468153 11.885865 30.689514
32.168356 7.992163 31.057714
31.982238 9.269039 31.695463
32.565444 8.683247 30.188894
32.168356 7.992163 31.057714
32.72071 10.74519 29.994693
32.565444 8.683247 30.188894
18.26737 39.138124 60.243865
18.111698 37.261989 60.948225
18.418873 40.969732 59.526705
18.26737 39.138124 60.243865
19.184756 39.694946 60.315334
18.678593 42.927139 58.770148
18.418873 40.969732 59.526705
19.528798 43.612307 58.716928
20.169799 42.263683 59.431154
20.362339 44.349436 58.549908
18.678593 42.927139 58.770148
19.528798 43.612307 58.716928
30.20806 24.011888 53.300049
30.148147 25.616753 53.681448
30.113087 23.888072 54.357859
30.2624 24.098583 52.202203
30.20806 24.011888 53.300049
30.06955 22.154887 55.134337
30.036588 20.456817 55.723878
35.706795 64.090647 2.920702
36.113625 62.64967 2.181332
32.800745 66.010197 16.833227
32.490158 67.083256 17.802915
33.099632 64.876814 16.020338
32.800745 66.010197 16.833227
32.942721 64.078539 17.553871
33.422604 63.85626 15.084669
33.099632 64.876814 16.020338
33.579296 61.933396 15.775491
33.760292 62.8445 14.119178
33.422604 63.85626 15.084669
29.219879 2.128635 44.65588
29.318195 3.809622 44.437132
29.308785 3.381108 45.372961
31.848599 25.425392 33.550405
31.897239 27.3231 33.504154
31.665478 26.353463 34.365031
32.021943 24.42225 32.808458
31.848599 25.425392 33.550405
32.243898 23.431821 32.027386
32.302314 25.4046 31.908456
32.021943 24.42225 32.808458
32.176147 21.452998 32.19523
32.456518 22.435347 31.295228
32.243898 23.431821 32.027386
32.083094 19.48492 32.353996
32.176147 21.452998 32.19523
31.99025 17.502777 32.510352
32.295923 18.474381 31.619428
32.083094 19.48492 32.353996
31.88201 15.656591 32.652951
31.99025 17.502777 32.510352
31.747527 13.690197 32.850017
32.068596 14.525846 31.972852
31.88201 15.656591 32.652951
31.616405 11.790035 32.996595
31.747527 13.690197 32.850017
31.780451 10.608863 32.355715
31.616405 11.790035 32.996595
31.134449 9.082974 34.013983
30.846958 8.221153 34.817585
31.298495 7.901803 33.373103
31.134449 9.082974 34.013983
31.125023 5.883584 33.554993
31.453314 6.640056 32.723402
31.298495 7.901803 33.373103
19.228702 26.955041 64.908931
19.960551 25.66199 65.469616
19.228702 26.955041 64.908931
19.229655 28.939499 64.273953
17.809031 33.5254 62.272241
18.54086 32.246136 62.987009
17.925406 35.408766 61.607197
17.809031 33.5254 62.272241
18.84696 36.010115 61.691465
18.111698 37.261989 60.948225
17.925406 35.408766 61.607197
23.806408 39.340427 60.558685
23.18205 40.698137 60.12042
23.075488 38.705507 60.970163
24.381804 37.685676 60.993181
23.806408 39.340427 60.558685
24.984958 36.096648 61.364036
24.381804 37.685676 60.993181
24.303 35.758768 61.779284
25.550495 34.569187 61.568673
24.984958 36.096648 61.364036
26.114075 32.935699 61.793713
25.550495 34.569187 61.568673
25.469735 32.536251 62.37518
26.598075 31.297056 61.897526
26.678836 33.329992 61.091019
26.114075 32.935699 61.793713
26.27875 21.894258 65.183803
25.731476 21.550397 65.72234
26.258751 20.018538 65.716194
28.691745 22.940195 61.434534
28.332287 24.723191 61.618
28.296092 22.791939 62.288172
28.958269 21.35318 61.12249
28.994464 23.284433 60.452318
28.691745 22.940195 61.434534
29.226947 19.727211 60.79237
28.958269 21.35318 61.12249
29.439709 19.881455 59.83827
29.226947 19.727211 60.79237
31.628985 65.381943 24.828755
31.728439 66.512741 23.206488
31.74058 63.375612 25.460647
31.628985 65.381943 24.828755
31.324088 61.708994 29.483519
31.53228 60.897419 28.533718
31.124818 62.411926 30.509282
30.906559 62.849754 31.725768
31.233208 60.319971 31.047075
31.324088 61.708994 29.483519
31.124818 62.411926 30.509282
31.051497 57.599486 33.938826
31.137462 59.08797 32.428818
30.947975 59.534418 33.582846
30.956247 56.182579 35.405642
31.145734 55.736131 34.251614
31.051497 57.599486 33.938826
30.765825 56.693844 36.580202
30.564529 57.14406 37.69207
30.860061 54.83049 36.89299
30.956247 56.182579 35.405642
30.765825 56.693844 36.580202
30.364291 52.569929 41.747438
30.420583 54.138107 40.458845
30.487114 50.700066 41.927976
30.364291 52.569929 41.747438
30.303878 50.960833 43.015941
30.433343 45.723778 44.641253
30.508439 47.233366 43.381445
30.351605 47.581381 44.456288
30.374558 44.217205 45.751554
30.531391 43.86919 44.676712
30.433343 45.723778 44.641253
28.158679 -19.266455 42.947904
28.21133 -17.575795 42.495741
28.164527 -18.06165 43.595742
28.16657 -20.414416 42.161392
28.158679 -19.266455 42.947904
28.119767 -20.900271 43.261392
28.20657 -21.683796 41.436132
28.16657 -20.414416 42.161392
28.20657 -21.683796 41.436132
28.180069 -23.371504 41.776714
28.009292 -36.376446 53.90455
28.052703 -34.947374 53.506332
28.036321 -37.537107 53.107544
28.009292 -36.376446 53.90455
27.978107 -37.763544 54.355002
27.949659 -40.196672 53.950266
27.901444 -39.004856 54.829966
27.845967 -40.277322 55.222237
28.180024 -41.050278 50.741551
28.198633 -39.741886 50.298224
28.125424 -39.929924 51.459978
28.180024 -41.050278 50.741551
28.1715 -42.400721 51.13311
27.484192 -44.046914 56.389244
27.355306 -45.311611 56.662256
35.443076 38.820966 19.993024
35.10591 38.112679 21.2205
34.689325 22.163491 25.28707
34.755798 24.234609 24.957596
34.359602 23.440209 26.01612
33.613996 14.545312 28.077135
33.214493 13.698459 28.971512
33.723351 16.525246 27.845311
33.613996 14.545312 28.077135
34.012095 15.284217 27.119393
34.630607 20.038767 25.576736
34.207289 19.316621 26.616581
34.544767 17.986297 25.847724
34.689325 22.163491 25.28707
34.630607 20.038767 25.576736
29.312083 2.85554 46.355507
29.308785 3.381108 45.372961
29.225032 1.228848 46.590809
29.312083 2.85554 46.355507
29.326645 2.384266 47.354607
29.276412 0.343119 48.619614
29.360312 2.14667 48.313419
29.15909 -0.920889 47.939492
29.276412 0.343119 48.619614
29.195908 -1.335344 48.969196
29.494515 -0.925032 52.998806
29.537741 0.652929 52.570861
29.374544 -2.304771 52.219706
29.494515 -0.925032 52.998806
29.444215 -2.501314 53.415633
29.265678 -5.682897 53.019112
29.38694 -4.303911 53.772683
29.328375 -6.105754 54.155262
28.743775 -13.268095 51.672955
28.797829 -11.660314 51.24547
28.607366 -14.524527 50.876931
28.743775 -13.268095 51.672955
28.690094 -14.857557 52.064865
28.794643 -18.818711 56.481577
28.848443 -18.969133 57.638475
28.794643 -18.818711 56.481577
28.660198 -20.081871 55.646936
28.526395 -19.587762 53.273926
28.57842 -18.113438 52.862341
28.406518 -20.976293 52.599853
28.526395 -19.587762 53.273926
28.484619 -21.158436 53.790653
28.308095 -25.738699 55.113539
28.375341 -24.21676 54.634138
28.411767 -24.414357 55.796104
28.226196 -27.044435 54.428928
28.308095 -25.738699 55.113539
28.155818 -28.24918 53.706978
28.201291 -26.745847 53.229622
28.226196 -27.044435 54.428928
28.109025 -29.477002 52.918951
28.155818 -28.24918 53.706978
27.543769 -40.456688 57.581505
27.69301 -40.312646 56.449789
27.359145 -41.601881 58.031437
27.543769 -40.456688 57.581505
27.20451 -42.868872 58.396261
27.433633 -42.806778 57.162466
27.359145 -41.601881 58.031437
27.011817 -44.054816 58.60745
27.20451 -42.868872 58.396261
26.803615 -45.281019 58.916943
27.070797 -45.299972 57.836782
27.011817 -44.054816 58.60745
26.535099 -46.459789 59.151169
26.803615 -45.281019 58.916943
26.476119 -45.214632 59.921837
25.77256 -46.246294 61.165201
26.120368 -45.144072 60.965429
25.860024 -47.452566 60.39642
25.77256 -46.246294 61.165201
25.424981 -47.305458 61.405558
25.939113 -48.658508 59.592352
26.286693 -47.599344 59.351996
25.860024 -47.452566 60.39642
26.036359 -49.82229 58.774765
25.939113 -48.658508 59.592352
30.317203 42.490475 46.930893
30.374558 44.217205 45.751554
28.484386 34.278222 57.947579
28.102125 34.134442 58.838339
28.437255 32.355263 58.779097
28.870547 34.339976 57.034659
29.110166 32.63984 56.921591
29.161196 34.480772 56.067913
28.484386 34.278222 57.947579
28.870547 34.339976 57.034659
29.804058 37.760179 52.138417
29.746372 36.048815 53.100096
29.804058 37.760179 52.138417
30.010586 37.621164 51.130137
30.267765 40.830754 48.000479
30.210938 39.214773 49.060978
30.423168 40.702896 46.8566
30.317203 42.490475 46.930893
30.267765 40.830754 48.000479
30.347338 23.792244 50.065788
30.324613 23.954108 51.100214
30.402256 25.427572 49.40867
30.347338 23.792244 50.065788
30.449556 27.048237 48.697197
30.414848 27.072283 49.708185
30.402256 25.427572 49.40867
30.491495 27.002655 47.691229
30.504086 28.647365 47.990744
30.449556 27.048237 48.697197
30.511037 26.962736 46.689126
30.491495 27.002655 47.691229
30.535557 26.615247 45.650292
30.570546 28.254295 45.945942
30.511037 26.962736 46.689126
30.536634 26.206491 44.707731
30.535557 26.615247 45.650292
35.499554 63.688646 4.552092
35.706795 64.090647 2.920702
34.137625 64.51417 10.841745
33.958935 63.643789 12.541396
34.340055 65.167986 9.264274
34.137625 64.51417 10.841745
34.5167 63.174031 10.076966
34.536138 65.764132 7.607139
34.340055 65.167986 9.264274
34.899381 64.485663 6.909192
34.536138 65.764132 7.607139
35.308115 63.187111 6.045572
34.899381 64.485663 6.909192
35.127865 62.529295 7.635874
35.728037 61.732278 5.278774
35.499554 63.688646 4.552092
35.308115 63.187111 6.045572
35.967392 59.752874 6.005938
36.158831 60.25441 4.512458
35.728037 61.732278 5.278774
36.189919 57.627049 6.799243
35.967392 59.752874 6.005938
35.759124 59.104917 7.565558
36.398981 55.495069 7.680581
36.189919 57.627049 6.799243
36.590164 53.430551 8.431192
36.398981 55.495069 7.680581
36.172834 54.914574 9.109475
36.802305 51.307681 9.124056
36.590164 53.430551 8.431192
36.955174 49.201996 9.898049
36.802305 51.307681 9.124056
36.516886 50.744371 10.63408
37.078987 47.10284 10.741649
36.955174 49.201996 9.898049
36.798237 46.424766 12.152699
37.078987 47.10284 10.741649
36.515417 45.704494 13.599079
36.798237 46.424766 12.152699
36.386934 47.918415 12.854453
36.186503 45.173212 14.980526
36.515417 45.704494 13.599079
35.870824 44.562721 16.378875
36.186503 45.173212 14.980526
35.788437 46.587652 15.699181
35.579346 43.747292 17.671287
35.870824 44.562721 16.378875
35.306807 42.92899 18.954547
35.579346 43.747292 17.671287
35.20022 45.158859 18.38079
34.985231 42.337038 20.204687
35.364357 40.925471 19.495183
35.306807 42.92899 18.954547
31.857515 61.359284 26.029074
31.966012 62.557097 24.443597
31.74058 63.375612 25.460647
31.952067 59.468145 26.488466
31.857515 61.359284 26.029074
31.726635 60.286661 27.505516
31.38982 28.103506 35.944656
31.518988 27.231798 35.177441
31.584949 29.122879 35.085994
31.38982 28.103506 35.944656
31.279159 28.866833 36.797143
31.023547 28.307433 38.600614
31.171022 29.54556 37.641216
31.09203 30.113913 38.500754
31.023547 28.307433 38.600614
30.878843 27.190239 39.41769
29.341119 4.3214 43.548595
29.430026 5.573873 44.265676
29.318195 3.809622 44.437132
29.650143 6.565585 40.14455
29.673107 7.710434 40.816298
29.548645 6.048012 40.994726
29.791881 7.188514 39.339828
29.650143 6.565585 40.14455
29.667419 5.526092 39.518257
29.943413 7.859558 38.552937
29.791881 7.188514 39.339828
30.012835 6.91275 37.891742
29.943413 7.859558 38.552937
30.067926 5.820018 37.214939
30.012835 6.91275 37.891742
29.864248 5.056289 38.036732
30.152822 4.77145 36.605351
30.301408 6.62791 36.460361
30.067926 5.820018 37.214939
28.367389 -16.589679 40.513652
28.272866 -17.045766 41.519048
28.447248 -14.758551 40.295365
28.367389 -16.589679 40.513652
28.533997 -12.984868 40.073441
28.426999 -13.537247 40.96827
28.447248 -14.758551 40.295365
28.656216 -12.544214 39.1752
28.821346 -11.959564 38.284979
28.635967 -11.32291 39.848105
28.533997 -12.984868 40.073441
28.656216 -12.544214 39.1752
30.432557 -2.010638 34.175739
30.120708 -2.624811 35.007887
30.266157 -3.815764 34.347147
30.760928 -1.291729 33.344103
30.615479 -0.100776 34.004842
30.432557 -2.010638 34.175739
31.131615 -0.686049 32.468653
30.760928 -1.291729 33.344103
28.071217 -34.753185 52.214314
28.056413 -33.55055 53.063553
28.052703 -34.947374 53.506332
28.1848 -36.885372 49.435097
28.137349 -37.158899 50.64026
28.191484 -38.348005 49.811487
28.16044 -35.499008 49.026003
28.1848 -36.885372 49.435097
28.214574 -36.688114 48.19723
28.21788 -33.214222 45.065222
28.15368 -32.053117 45.81559
28.192025 -33.617204 46.224085
28.34746 -36.021368 44.653603
28.295868 -36.285521 45.847876
28.301407 -34.485943 44.342182
28.34746 -36.021368 44.653603
28.21788 -33.214222 45.065222
28.301407 -34.485943 44.342182
3 299 71 300
3 0 74 72
3 1 301 303
3 303 302 75
3 301 302 303
3 1 304 305
3 307 306 76
3 4 308 309
3 4 310 312
3 310 80 311
3 310 311 312
3 4 82 80
3 3 85 83
3 3 87 85
3 2 90 88
3 6 93 91
3 6 95 93
3 6 97 95
3 9 101 99
3 313 104 314
3 315 314 102
3 313 314 315
3 317 316 104
3 10 318 320
3 320 319 105
3 318 319 320
3 11 321 322
3 5 109 107
3 323 110 324
3 325 111 326
3 327 326 110
3 325 326 327
3 7 115 114
3 12 118 116
3 12 120 118
3 12 122 120
3 14 328 329
3 14 330 331
3 15 125 123
3 15 127 125
3 15 129 127
3 16 132 130
3 16 134 132
3 8 137 135
3 17 140 138
3 17 142 140
3 17 144 142
3 13 147 145
3 13 332 334
3 334 333 147
3 332 333 334
3 335 148 336
3 18 151 149
3 18 153 151
3 337 156 338
3 339 338 154
3 337 338 339
3 340 158 341
3 343 342 158
3 344 159 345
3 346 160 347
3 348 347 159
3 346 347 348
3 350 349 160
3 19 164 162
3 21 165 70
3 21 166 165
3 22 351 353
3 353 352 167
3 351 352 353
3 23 169 168
3 24 170 73
3 24 171 170
3 354 174 355
3 356 355 172
3 354 355 356
3 25 176 175
3 358 357 77
3 26 179 177
3 28 180 78
3 28 181 180
3 28 359 361
3 361 360 181
3 359 360 361
3 29 183 79
3 29 184 183
3 29 186 184
3 31 187 81
3 31 188 187
3 32 191 189
3 34 192 84
3 34 193 192
3 34 195 193
3 36 196 86
3 36 197 196
3 37 200 198
3 39 201 89
3 39 202 201
3 40 205 203
3 42 362 364
3 362 206 363
3 362 363 364
3 42 207 206
3 43 365 367
3 367 366 92
3 365 366 367
3 43 368 370
3 368 208 369
3 368 369 370
3 43 209 208
3 44 210 94
3 44 211 210
3 44 212 211
3 45 213 96
3 45 214 213
3 371 215 372
3 373 372 161
3 371 372 373
3 374 216 375
3 376 375 98
3 374 375 376
3 377 217 378
3 379 378 216
3 377 378 379
3 381 380 217
3 382 218 383
3 385 384 218
3 386 219 387
3 388 220 389
3 390 389 219
3 388 389 390
3 391 221 392
3 394 393 221
3 47 224 222
3 49 225 100
3 49 226 225
3 20 227 163
3 395 228 396
3 397 396 103
3 395 396 397
3 398 229 399
3 400 399 228
3 398 399 400
3 402 401 229
3 403 231 404
3 405 232 406
3 407 406 106
3 405 406 407
3 409 408 232
3 41 233 204
3 51 234 108
3 51 235 234
3 410 236 411
3 412 411 173
3 410 411 412
3 413 237 414
3 416 415 237
3 417 238 418
3 52 419 421
3 419 239 420
3 419 420 421
3 52 240 239
3 422 241 423
3 424 242 425
3 426 425 112
3 424 425 426
3 427 243 428
3 429 428 242
3 427 428 429
3 430 244 431
3 432 431 243
3 430 431 432
3 433 245 434
3 435 246 436
3 437 436 245
3 435 436 437
3 53 438 440
3 440 439 113
3 438 439 440
3 53 441 443
3 441 247 442
3 441 442 443
3 53 248 247
3 444 249 445
3 27 250 178
3 447 446 117
3 54 448 450
3 450 449 119
3 448 449 450
3 54 451 453
3 451 251 452
3 451 452 453
3 54 252 251
3 55 253 121
3 55 254 253
3 454 255 455
3 456 455 182
3 454 455 456
3 56 256 124
3 56 257 256
3 56 258 257
3 57 259 126
3 57 260 259
3 57 261 260
3 58 262 128
3 58 263 262
3 30 264 185
3 59 265 131
3 59 266 265
3 59 267 266
3 60 268 133
3 60 269 268
3 46 457 459
3 457 270 458
3 457 458 459
3 61 271 136
3 61 272 271
3 33 273 190
3 62 274 139
3 62 275 274
3 62 276 275
3 63 277 141
3 63 278 277
3 63 279 278
3 64 280 143
3 64 460 462
3 462 461 280
3 460 461 462
3 35 281 194
3 463 282 464
3 465 464 146
3 463 464 465
3 467 466 282
3 65 468 469
3 65 470 471
3 38 283 199
3 66 284 150
3 66 285 284
3 66 286 285
3 67 287 152
3 67 288 287
3 48 289 223
3 68 290 155
3 68 291 290
3 69 472 474
3 472 292 473
3 472 473 474
3 69 293 292
3 69 294 293
3 475 295 476
3 477 476 157
3 475 476 477
3 479 478 295
3 50 296 230
3 480 297 481
3 482 298 483
3 484 483 297
3 482 483 484
3 485 70 486
3 487 486 19
3 485 486 487
3 71 488 490
3 488 70 489
3 488 489 490
3 71 21 70
3 492 491 22
3 72 73 23
3 74 73 72
3 74 24 73
3 75 493 494
3 496 495 75
3 76 77 25
3 497 77 498
3 499 498 76
3 497 498 499
3 501 500 77
3 502 78 503
3 504 503 26
3 502 503 504
3 505 78 506
3 507 28 508
3 509 508 78
3 507 508 509
3 511 510 28
3 512 79 513
3 80 514 516
3 514 79 515
3 514 515 516
3 80 29 79
3 80 81 29
3 82 81 80
3 82 31 81
3 83 84 32
3 85 84 83
3 85 34 84
3 85 86 34
3 87 86 85
3 87 36 86
3 88 89 37
3 90 89 88
3 90 39 89
3 518 517 40
3 519 42 520
3 91 521 523
3 521 92 522
3 521 522 523
3 93 92 91
3 93 43 92
3 93 94 43
3 95 94 93
3 95 44 94
3 95 96 44
3 97 96 95
3 97 45 96
3 524 98 525
3 526 98 527
3 529 528 98
3 99 100 47
3 101 100 99
3 101 49 100
3 102 103 20
3 104 103 102
3 104 530 532
3 532 531 103
3 530 531 532
3 104 533 534
3 536 535 104
3 105 537 539
3 537 106 538
3 537 538 539
3 540 106 541
3 542 541 105
3 540 541 542
3 544 543 106
3 107 108 41
3 109 108 107
3 109 51 108
3 110 545 546
3 110 547 548
3 110 549 550
3 111 551 553
3 553 552 110
3 551 552 553
3 111 554 556
3 554 52 555
3 554 555 556
3 557 112 558
3 559 112 560
3 562 561 112
3 563 113 564
3 565 113 566
3 567 53 568
3 569 568 113
3 567 568 569
3 571 570 53
3 114 572 573
3 115 574 576
3 576 575 114
3 574 575 576
3 115 577 578
3 116 117 27
3 118 117 116
3 118 579 581
3 581 580 117
3 579 580 581
3 118 582 584
3 582 119 583
3 582 583 584
3 120 119 118
3 120 54 119
3 120 121 54
3 122 121 120
3 122 55 121
3 123 585 587
3 585 124 586
3 585 586 587
3 125 124 123
3 125 56 124
3 125 126 56
3 127 126 125
3 127 57 126
3 127 128 57
3 129 128 127
3 129 58 128
3 130 131 30
3 132 131 130
3 132 59 131
3 132 133 59
3 134 133 132
3 134 60 133
3 135 136 46
3 137 136 135
3 137 61 136
3 138 139 33
3 140 139 138
3 140 62 139
3 140 141 62
3 142 141 140
3 142 63 141
3 142 143 63
3 144 143 142
3 144 64 143
3 145 146 35
3 147 146 145
3 147 588 590
3 590 589 146
3 588 589 590
3 147 591 592
3 594 593 147
3 148 595 596
3 148 597 599
3 597 65 598
3 597 598 599
3 149 150 38
3 151 150 149
3 151 66 150
3 151 152 66
3 153 152 151
3 153 67 152
3 154 155 48
3 156 155 154
3 156 68 155
3 600 69 601
3 602 157 603
3 604 603 69
3 602 603 604
3 158 605 607
3 605 157 606
3 605 606 607
3 158 608 610
3 610 609 157
3 608 609 610
3 158 611 612
3 614 613 158
3 616 615 50
3 159 617 618
3 159 619 620
3 159 621 623
3 621 91 622
3 621 622 623
3 160 91 159
3 160 6 91
3 160 161 6
3 624 161 625
3 626 625 160
3 624 625 626
3 628 627 161
3 162 163 9
3 164 163 162
3 164 20 163
3 70 164 19
3 165 164 70
3 165 20 164
3 165 102 20
3 166 102 165
3 166 629 631
3 631 630 102
3 629 630 631
3 167 632 634
3 634 633 10
3 632 633 634
3 636 635 167
3 638 637 22
3 168 639 641
3 641 640 11
3 639 640 641
3 169 642 644
3 644 643 168
3 642 643 644
3 169 645 646
3 73 169 23
3 170 169 73
3 170 647 649
3 649 648 169
3 647 648 649
3 170 650 651
3 171 652 654
3 654 653 170
3 652 653 654
3 171 655 656
3 172 173 5
3 174 173 172
3 174 657 659
3 659 658 173
3 657 658 659
3 660 174 661
3 662 174 663
3 665 664 174
3 175 666 667
3 176 668 670
3 670 669 175
3 668 669 670
3 176 671 672
3 77 176 25
3 673 176 674
3 675 674 77
3 673 674 675
3 677 676 176
3 177 178 7
3 179 178 177
3 179 27 178
3 78 179 26
3 180 179 78
3 180 27 179
3 180 116 27
3 181 116 180
3 181 12 116
3 181 182 12
3 678 182 679
3 680 679 181
3 678 679 680
3 682 681 182
3 684 683 28
3 685 14 686
3 79 687 688
3 183 689 691
3 691 690 79
3 689 690 691
3 183 692 693
3 183 694 696
3 694 123 695
3 694 695 696
3 184 123 183
3 184 15 123
3 184 185 15
3 186 185 184
3 186 30 185
3 81 186 29
3 187 186 81
3 187 30 186
3 187 130 30
3 188 130 187
3 188 16 130
3 189 190 8
3 191 190 189
3 191 33 190
3 84 191 32
3 192 191 84
3 192 33 191
3 192 138 33
3 193 138 192
3 193 17 138
3 193 194 17
3 195 194 193
3 195 35 194
3 86 195 34
3 196 195 86
3 196 35 195
3 196 145 35
3 197 145 196
3 197 13 145
3 198 697 699
3 697 199 698
3 697 698 699
3 200 199 198
3 200 38 199
3 89 200 37
3 201 200 89
3 201 38 200
3 201 149 38
3 202 149 201
3 202 18 149
3 203 204 0
3 205 204 203
3 205 41 204
3 700 205 701
3 702 701 40
3 700 701 702
3 703 205 704
3 705 41 706
3 707 706 205
3 705 706 707
3 708 107 709
3 710 709 41
3 708 709 710
3 711 107 712
3 713 5 714
3 715 714 107
3 713 714 715
3 716 5 717
3 718 172 719
3 720 719 5
3 718 719 720
3 721 172 722
3 724 723 172
3 206 725 726
3 206 727 728
3 206 729 731
3 729 75 730
3 729 730 731
3 207 75 206
3 207 1 75
3 92 732 733
3 735 734 92
3 208 736 737
3 208 738 739
3 208 740 742
3 740 175 741
3 740 741 742
3 209 175 208
3 209 25 175
3 94 209 43
3 210 209 94
3 210 25 209
3 210 76 25
3 211 76 210
3 211 743 745
3 745 744 76
3 743 744 745
3 211 746 747
3 212 748 750
3 750 749 211
3 748 749 750
3 212 751 752
3 96 212 44
3 213 212 96
3 213 753 755
3 755 754 212
3 753 754 755
3 213 756 758
3 756 114 757
3 756 757 758
3 214 114 213
3 214 7 114
3 161 97 6
3 215 97 161
3 215 45 97
3 98 759 761
3 759 215 760
3 759 760 761
3 216 215 98
3 216 45 215
3 216 214 45
3 217 214 216
3 217 7 214
3 217 177 7
3 762 177 763
3 764 763 217
3 762 763 764
3 765 26 766
3 767 766 177
3 765 766 767
3 768 26 769
3 771 770 26
3 772 4 773
3 775 774 4
3 776 46 777
3 218 778 779
3 218 780 782
3 780 46 781
3 780 781 782
3 218 135 46
3 783 135 784
3 785 784 218
3 783 784 785
3 786 8 787
3 788 787 135
3 786 787 788
3 219 789 790
3 219 791 793
3 791 8 792
3 791 792 793
3 219 189 8
3 220 189 219
3 220 32 189
3 794 220 795
3 221 796 798
3 796 220 797
3 796 797 798
3 221 32 220
3 221 83 32
3 799 83 800
3 801 800 221
3 799 800 801
3 802 3 803
3 804 803 83
3 802 803 804
3 222 223 2
3 224 223 222
3 224 48 223
3 100 224 47
3 225 224 100
3 225 48 224
3 225 154 48
3 226 154 225
3 226 805 807
3 807 806 154
3 805 806 807
3 163 101 9
3 227 101 163
3 227 49 101
3 103 227 20
3 228 227 103
3 228 49 227
3 228 226 49
3 229 226 228
3 229 808 810
3 810 809 226
3 808 809 810
3 229 811 812
3 814 813 229
3 815 230 816
3 231 817 819
3 817 230 818
3 817 818 819
3 231 50 230
3 106 820 822
3 820 231 821
3 820 821 822
3 232 231 106
3 232 50 231
3 232 823 825
3 825 824 50
3 823 824 825
3 827 826 232
3 829 828 10
3 831 830 11
3 204 74 0
3 233 74 204
3 233 24 74
3 108 233 41
3 234 233 108
3 234 24 233
3 234 171 24
3 235 171 234
3 235 832 834
3 834 833 171
3 832 833 834
3 173 109 5
3 236 109 173
3 236 51 109
3 835 236 836
3 237 837 839
3 837 236 838
3 837 838 839
3 237 51 236
3 237 235 51
3 840 235 841
3 842 841 237
3 840 841 842
3 844 843 235
3 845 198 846
3 238 847 849
3 847 198 848
3 847 848 849
3 238 37 198
3 850 238 851
3 239 852 854
3 852 238 853
3 852 853 854
3 239 37 238
3 239 88 37
3 240 88 239
3 240 2 88
3 855 111 856
3 241 857 859
3 857 111 858
3 857 858 859
3 241 52 111
3 112 860 862
3 860 241 861
3 860 861 862
3 242 241 112
3 242 52 241
3 242 240 52
3 243 240 242
3 243 2 240
3 243 222 2
3 244 222 243
3 244 47 222
3 863 244 864
3 245 865 867
3 865 244 866
3 865 866 867
3 245 47 244
3 245 99 47
3 246 99 245
3 246 9 99
3 113 868 869
3 871 870 113
3 872 246 873
3 247 874 876
3 874 246 875
3 874 875 876
3 247 9 246
3 247 162 9
3 248 162 247
3 248 19 162
3 877 248 878
3 879 878 53
3 877 878 879
3 880 248 881
3 882 19 883
3 884 883 248
3 882 883 884
3 886 885 19
3 887 105 888
3 889 105 890
3 891 10 892
3 893 892 105
3 891 892 893
3 894 10 895
3 896 167 897
3 898 897 10
3 896 897 898
3 249 899 901
3 899 167 900
3 899 900 901
3 249 22 167
3 902 249 903
3 904 249 905
3 904 905 906
3 907 22 908
3 909 908 249
3 907 908 909
3 911 910 22
3 912 3 913
3 178 115 7
3 250 115 178
3 250 914 916
3 916 915 115
3 914 915 916
3 117 250 27
3 917 250 918
3 919 918 117
3 917 918 919
3 921 920 250
3 119 922 923
3 925 924 119
3 251 926 927
3 251 928 930
3 928 3 929
3 928 929 930
3 251 87 3
3 252 87 251
3 252 36 87
3 121 252 54
3 253 252 121
3 253 36 252
3 253 197 36
3 254 197 253
3 254 13 197
3 182 122 12
3 255 122 182
3 255 55 122
3 931 255 932
3 933 255 934
3 935 55 936
3 937 936 255
3 935 936 937
3 938 254 939
3 940 939 55
3 938 939 940
3 941 254 942
3 943 13 944
3 945 944 254
3 943 944 945
3 947 946 13
3 948 14 949
3 124 950 951
3 256 952 954
3 954 953 124
3 952 953 954
3 256 955 956
3 256 957 958
3 257 959 961
3 961 960 256
3 959 960 961
3 257 962 964
3 962 14 963
3 962 963 964
3 257 965 967
3 967 966 14
3 965 966 967
3 258 968 970
3 970 969 257
3 968 969 970
3 258 971 972
3 126 258 56
3 259 258 126
3 259 973 975
3 975 974 258
3 973 974 975
3 259 976 977
3 260 978 980
3 980 979 259
3 978 979 980
3 260 981 982
3 260 983 984
3 261 985 987
3 987 986 260
3 985 986 987
3 261 988 989
3 128 261 57
3 262 261 128
3 262 990 992
3 992 991 261
3 990 991 992
3 262 993 994
3 263 995 997
3 997 996 262
3 995 996 997
3 263 998 1000
3 998 11 999
3 998 999 1000
3 185 129 15
3 264 129 185
3 264 58 129
3 131 264 30
3 265 264 131
3 265 58 264
3 265 263 58
3 266 263 265
3 266 11 263
3 266 168 11
3 267 168 266
3 267 23 168
3 133 267 59
3 268 267 133
3 268 23 267
3 268 72 23
3 269 72 268
3 269 0 72
3 1001 82 1002
3 1003 1002 4
3 1001 1002 1003
3 270 1004 1006
3 1004 82 1005
3 1004 1005 1006
3 270 31 82
3 136 270 46
3 271 270 136
3 271 31 270
3 271 188 31
3 272 188 271
3 272 16 188
3 190 137 8
3 273 137 190
3 273 61 137
3 139 273 33
3 274 273 139
3 274 61 273
3 274 272 61
3 275 272 274
3 275 16 272
3 275 134 16
3 276 134 275
3 276 60 134
3 141 276 62
3 277 276 141
3 277 60 276
3 277 269 60
3 278 269 277
3 278 0 269
3 278 203 0
3 279 203 278
3 279 40 203
3 143 279 63
3 280 279 143
3 280 40 279
3 280 1007 1009
3 1009 1008 40
3 1007 1008 1009
3 1011 1010 280
3 194 144 17
3 281 144 194
3 281 64 144
3 146 281 35
3 282 281 146
3 282 64 281
3 282 1012 1014
3 1014 1013 64
3 1012 1013 1014
3 1016 1015 282
3 199 1017 1019
3 1017 148 1018
3 1017 1018 1019
3 283 148 199
3 283 65 148
3 150 283 38
3 284 283 150
3 284 65 283
3 284 1020 1022
3 1022 1021 65
3 1020 1021 1022
3 285 1023 1025
3 1025 1024 284
3 1023 1024 1025
3 285 1026 1027
3 285 1028 1029
3 286 1030 1032
3 1032 1031 285
3 1030 1031 1032
3 286 1033 1035
3 1033 42 1034
3 1033 1034 1035
3 152 286 66
3 287 286 152
3 287 42 286
3 287 207 42
3 288 207 287
3 288 1 207
3 223 90 2
3 289 90 223
3 289 39 90
3 155 289 48
3 290 289 155
3 290 39 289
3 290 202 39
3 291 202 290
3 291 18 202
3 1036 156 1037
3 1038 156 1039
3 1040 68 1041
3 1042 1041 156
3 1040 1041 1042
3 292 1043 1044
3 292 1045 1047
3 1045 68 1046
3 1045 1046 1047
3 292 291 68
3 293 291 292
3 293 18 291
3 293 153 18
3 294 153 293
3 294 67 153
3 157 294 69
3 295 294 157
3 295 67 294
3 295 288 67
3 1048 288 1049
3 1050 1049 295
3 1048 1049 1050
3 1051 1 1052
3 1053 1052 288
3 1051 1052 1053
3 1055 1054 1
3 230 1056 1058
3 1056 71 1057
3 1056 1057 1058
3 296 71 230
3 296 21 71
3 1059 296 1060
3 1061 1060 50
3 1059 1060 1061
3 297 1062 1064
3 1062 296 1063
3 1062 1063 1064
3 297 21 296
3 297 166 21
3 298 166 297
3 298 1065 1067
3 1067 1066 166
3 1065 1066 1067
3 1068 298 1069
3 1070 298 1071
3 1073 1072 298
