ply
format ascii 1.0
element vertex 150
property float x
property float y
property float z
element face 133
property list uchar int vertex_index
end_header
5.383679 38.025261 -54.385822
3.89147 50.611832 -51.221378
4.939553 44.421417 -52.864002
1.669123 45.258793 -52.312992
2.417478 39.844109 -54.429726
2.407654 56.58334 -49.430809
7.560699 49.784714 -51.964203
8.307718 42.809219 -52.973595
0.462404 50.754154 -49.994827
-1.652936 45.98177 -50.938408
5.247356 41.251007 -53.633911
3.700356 42.027973 -53.55563
8.000921 46.495533 -52.469219
3.241642 53.629696 -50.355186
1.470138 53.705803 -49.632935
2.162569 50.770496 -50.671871
0.414855 43.155273 -52.975048
-0.02398 45.60894 -51.751545
-1.165741 43.70528 -52.341877
4.494641 47.624859 -52.043613
2.789159 47.801216 -51.694054
3.32355 44.872189 -52.663437
2.102175 42.50272 -53.406445
5.230478 53.56218 -50.956295
5.717938 50.250023 -51.661701
6.188073 46.783661 -52.384338
6.662555 43.707813 -52.976051
6.819239 40.377064 -53.582733
0.7273 56.37286 -48.637569
-0.248578 53.390335 -48.823151
1.148381 47.981361 -51.195103
-0.504276 48.137936 -50.495422
6.882704 37.013161 -54.149601
4.626537 38.524324 -54.431655
4.558376 40.137197 -54.0557
5.315518 39.638134 -54.009867
4.7083 36.995189 -54.877796
4.626537 38.524324 -54.431655
-0.986663 42.502764 -53.062195
-0.375443 43.430277 -52.658462
-0.196365 42.22776 -53.378781
-1.724306 42.711033 -52.783468
-0.986663 42.502764 -53.062195
1.583843 40.241993 -54.319546
1.426191 41.571298 -53.807906
2.259826 41.173414 -53.918086
1.761243 38.921874 -54.948386
1.583843 40.241993 -54.319546
5.816855 55.087559 -50.86121
4.780302 55.078711 -50.564188
7.312022 51.434095 -51.686514
8.286124 51.337295 -51.824489
6.639318 50.017369 -51.812952
6.390642 51.66675 -51.535263
7.312022 51.434095 -51.686514
1.567477 56.4781 -49.034189
1.099604 57.884337 -48.545805
1.939781 57.989576 -48.942425
-0.391072 50.693764 -49.559072
-0.746563 52.011854 -48.973235
0.106913 52.072244 -49.408989
-1.908458 47.072817 -50.256495
-1.334128 48.1509 -50.035001
-1.078606 47.059853 -50.716915
-2.41254 46.006651 -50.484619
-1.908458 47.072817 -50.256495
7.582509 36.35627 -54.005451
7.56794 38.065072 -53.812775
3.784876 40.52568 -54.016559
4.473856 41.63949 -53.59477
4.558376 40.137197 -54.0557
3.143436 39.433749 -54.453608
3.058917 40.936041 -53.992678
3.784876 40.52568 -54.016559
2.498663 38.411755 -54.975375
3.143436 39.433749 -54.453608
8.511999 49.63732 -52.029552
8.286124 51.337295 -51.824489
8.73211 47.992729 -52.282061
7.78081 48.140124 -52.216711
8.511999 49.63732 -52.029552
8.815945 46.059317 -52.491171
8.73211 47.992729 -52.282061
8.969344 44.21616 -52.743359
8.154319 44.652376 -52.721407
8.815945 46.059317 -52.491171
-1.919759 43.783649 -52.000721
-2.163356 44.921894 -51.298986
-1.409339 44.843525 -51.640142
-1.919759 43.783649 -52.000721
-1.724306 42.711033 -52.783468
0.582531 41.897575 -53.592207
1.258515 42.828997 -53.190747
1.426191 41.571298 -53.807906
-0.196365 42.22776 -53.378781
0.582531 41.897575 -53.592207
1.761243 38.921874 -54.948386
2.498663 38.411755 -54.975375
2.902844 58.098968 -49.381171
1.939781 57.989576 -48.942425
3.36889 56.589291 -49.801445
2.902844 58.098968 -49.381171
3.785884 55.112469 -50.263633
2.824648 55.106518 -49.892998
3.36889 56.589291 -49.801445
4.23606 53.595938 -50.655741
3.785884 55.112469 -50.263633
4.780302 55.078711 -50.564188
6.146911 53.322828 -51.18256
5.816855 55.087559 -50.86121
5.474208 51.906101 -51.308998
6.146911 53.322828 -51.18256
6.390642 51.66675 -51.535263
0.221905 57.639057 -48.072704
1.099604 57.884337 -48.545805
-0.146378 56.208069 -48.129818
0.221905 57.639057 -48.072704
-0.634317 54.716807 -48.222608
-0.146378 56.208069 -48.129818
0.239361 54.881597 -48.73036
-1.079529 53.309902 -48.29518
-0.634317 54.716807 -48.222608
-1.079529 53.309902 -48.29518
-0.746563 52.011854 -48.973235
-0.874412 49.385655 -49.80937
-0.391072 50.693764 -49.559072
-0.020936 49.446045 -50.245125
-0.874412 49.385655 -49.80937
-1.334128 48.1509 -50.035001
-2.41254 46.006651 -50.484619
-2.163356 44.921894 -51.298986
9.057125 42.2701 -52.929356
8.969344 44.21616 -52.743359
8.280447 40.9631 -53.224772
9.057125 42.2701 -52.929356
7.536207 39.747023 -53.529341
7.563478 41.593142 -53.278164
8.280447 40.9631 -53.224772
6.850971 38.695112 -53.866167
7.536207 39.747023 -53.529341
7.56794 38.065072 -53.812775
6.802627 35.253411 -54.448303
7.582509 36.35627 -54.005451
6.177559 35.961267 -54.602958
6.802627 35.253411 -54.448303
5.428046 36.467318 -54.721069
6.133192 37.519211 -54.267711
6.177559 35.961267 -54.602958
4.7083 36.995189 -54.877796
5.428046 36.467318 -54.721069
3 0 33 35
3 35 34 10
3 33 34 35
3 0 36 37
3 1 15 13
3 38 18 39
3 40 39 16
3 38 39 40
3 42 41 18
3 2 21 19
3 4 22 11
3 4 43 45
3 45 44 22
3 43 44 45
3 4 46 47
3 48 23 49
3 6 50 51
3 6 52 54
3 52 24 53
3 52 53 54
3 6 25 24
3 7 26 12
3 7 27 26
3 5 55 57
3 55 28 56
3 55 56 57
3 8 29 14
3 8 58 60
3 60 59 29
3 58 59 60
3 3 30 20
3 9 31 17
3 9 61 63
3 63 62 31
3 61 62 63
3 9 64 65
3 66 32 67
3 10 11 2
3 68 11 69
3 70 69 10
3 68 69 70
3 71 4 72
3 73 72 11
3 71 72 73
3 75 74 4
3 76 6 77
3 78 12 79
3 80 79 6
3 78 79 80
3 81 12 82
3 83 7 84
3 85 84 12
3 83 84 85
3 13 14 5
3 15 14 13
3 15 8 14
3 16 17 3
3 18 17 16
3 18 9 17
3 18 86 88
3 88 87 9
3 86 87 88
3 90 89 18
3 19 20 1
3 21 20 19
3 21 3 20
3 11 21 2
3 22 21 11
3 22 3 21
3 22 16 3
3 91 16 92
3 93 92 22
3 91 92 93
3 95 94 16
3 97 96 4
3 98 5 99
3 100 5 101
3 102 13 103
3 104 103 5
3 102 103 104
3 23 105 107
3 105 13 106
3 105 106 107
3 23 1 13
3 108 23 109
3 24 110 112
3 110 23 111
3 110 111 112
3 24 1 23
3 24 19 1
3 25 19 24
3 25 2 19
3 12 25 6
3 26 25 12
3 26 2 25
3 26 10 2
3 27 10 26
3 27 0 10
3 28 113 114
3 28 115 116
3 14 28 5
3 29 28 14
3 29 117 119
3 119 118 28
3 117 118 119
3 29 120 121
3 123 122 29
3 20 15 1
3 30 15 20
3 30 8 15
3 17 30 3
3 31 30 17
3 31 8 30
3 31 124 126
3 126 125 8
3 124 125 126
3 128 127 31
3 130 129 9
3 131 7 132
3 133 7 134
3 135 27 136
3 137 136 7
3 135 136 137
3 32 138 140
3 138 27 139
3 138 139 140
3 32 0 27
3 141 32 142
3 143 32 144
3 145 0 146
3 147 146 32
3 145 146 147
3 149 148 0
