ply
format ascii 1.0
element vertex 693
property float x
property float y
property float z
element face 660
property list uchar int vertex_index
end_header
19.460794 -35.967686 -27.964001
-11.201054 -34.686432 -54.878345
1.06962 -31.75075 -48.935802
7.441333 -24.71958 -41.608398
13.187728 -31.077539 -34.917774
9.896015 -36.803749 -38.542763
4.474018 -28.330954 -45.362991
7.138631 -42.793209 -42.071037
24.56238 -39.256119 -20.639332
-4.264316 -33.963917 -52.170731
-3.623931 -20.480474 -56.128201
6.7998 -14.450503 -44.830227
3.155047 -16.45587 -48.710506
0.303506 -18.365683 -52.774372
12.920426 -40.419186 -35.197998
8.608932 -39.946793 -40.341503
26.425766 -40.592293 -16.819839
-7.471737 -34.704556 -53.489567
-7.051416 -27.35829 -55.643158
-10.347265 -27.411209 -57.004536
10.191671 -28.078583 -38.224995
12.589748 -25.727612 -36.28434
9.466059 -22.934072 -39.775108
6.879563 -19.323328 -43.238037
2.972758 -30.315971 -47.140476
2.176239 -23.441504 -49.057457
0.55762 -24.648371 -50.906559
-1.489678 -19.40382 -54.623848
-1.582843 -25.898825 -52.691551
16.396137 -33.581848 -31.478174
14.369769 -37.285191 -33.409447
11.448619 -34.12759 -36.592968
8.582203 -30.703056 -39.91106
5.929104 -26.74507 -43.39579
7.130352 -33.014774 -41.797718
5.591346 -35.092548 -43.753754
3.943786 -37.333996 -45.444675
5.138675 -44.887985 -43.86578
1.780784 -39.488113 -47.077805
-0.895213 -40.709908 -48.668201
-1.398603 -33.27002 -50.595955
-4.035622 -26.768621 -54.203163
-6.255561 -20.72658 -57.71521
3.605855 -22.09244 -47.097912
1.748684 -17.30127 -50.84745
-3.288549 -14.150818 -58.33934
-9.501333 -38.589851 -53.173077
-7.715682 -38.388531 -52.560455
-9.30738 -34.803902 -54.193569
-9.043592 -31.335777 -55.170906
-10.8951 -30.995068 -55.965652
20.795809 -33.859024 -26.768446
19.251816 -33.07988 -28.583973
8.792528 -26.589735 -39.871399
9.768463 -25.460684 -38.997787
8.345286 -23.646584 -40.758415
8.092626 -21.200348 -41.520855
7.098573 -21.920952 -42.424538
2.037019 -30.847561 -48.121201
1.652712 -27.496544 -49.081059
0.734063 -28.094727 -49.976421
-0.448227 -25.311844 -51.814434
-0.313894 -28.915182 -50.794243
16.547457 -41.739803 -30.999741
15.851645 -38.415821 -31.778559
15.167526 -40.38435 -32.573818
11.421333 -38.734562 -36.847416
12.06302 -37.118362 -35.980076
10.57549 -35.518318 -37.635612
9.976767 -32.418808 -38.255642
9.174673 -33.576511 -39.238201
7.774426 -31.62042 -40.932674
8.497135 -34.905781 -40.150379
7.885916 -41.199341 -41.234653
7.117887 -37.484047 -41.974739
6.379678 -38.88158 -42.845222
4.901145 -36.340462 -44.513298
5.505625 -40.126881 -43.747276
25.96694 -36.745113 -19.158575
23.503078 -35.47237 -23.144209
3.485872 -42.429024 -45.397106
-4.254978 -37.88015 -51.139179
-2.683875 -37.336884 -50.431309
-1.241956 -36.769386 -49.690746
-2.819561 -33.577686 -51.445652
-2.800595 -29.899485 -52.442337
-4.107867 -30.397272 -53.107018
-8.282699 -24.007294 -57.426285
-6.681116 -23.853331 -56.726383
-7.767795 -20.665674 -58.50082
14.778171 -32.412682 -33.217659
16.042557 -30.824104 -32.165768
14.414809 -29.733335 -33.888554
5.784657 -12.468254 -46.517227
3.887621 -15.934899 -47.727829
3.816698 -13.268337 -48.553905
3.060855 -13.696071 -49.536812
5.148866 -27.300068 -44.465477
4.01611 -25.224817 -46.199638
1.177889 -20.8957 -50.935265
-2.465732 -19.961924 -55.371304
-2.409589 -16.640142 -56.535023
-3.487518 -17.255354 -57.261753
-4.678249 -17.630632 -58.009796
12.368957 -42.292072 -36.044189
10.793152 -40.314251 -37.755791
9.27484 -38.354111 -39.426334
10.1569 -41.87167 -38.666405
25.590096 -39.868164 -18.698154
-5.877804 -42.027924 -50.890232
-6.000678 -38.075043 -51.915955
-5.822442 -34.385689 -52.840714
-5.688683 -30.941902 -53.796352
-7.36434 -31.027212 -54.566246
-8.661219 -27.641798 -56.262844
-9.90476 -23.840937 -58.158379
11.656322 -29.810019 -36.56152
12.853557 -28.480286 -35.552258
11.310596 -27.028652 -37.243359
10.964811 -24.235935 -38.084057
9.225402 -20.248314 -40.69725
8.012517 -18.611504 -42.30925
6.77037 -16.962578 -44.019348
5.699421 -15.064466 -45.725311
3.730483 -29.231882 -46.298523
3.280348 -25.801311 -47.207577
2.56385 -26.783707 -48.062122
1.48949 -24.386539 -49.825985
0.407917 -21.546257 -51.812611
-0.519716 -18.871481 -53.700672
-0.564704 -21.956118 -52.847744
-1.554357 -22.694452 -53.626385
-2.640972 -23.050808 -54.454205
18.357813 -37.887463 -29.013542
18.001717 -34.755802 -29.690416
15.352971 -35.365559 -32.414837
13.81737 -34.095699 -34.068417
13.617902 -38.886517 -34.284988
12.937631 -35.625832 -34.962631
12.239736 -32.67281 -35.768799
10.690056 -31.036295 -37.485748
9.30476 -29.352339 -39.092964
7.985895 -27.706898 -40.711697
7.221211 -28.751331 -41.634155
6.416376 -29.724216 -42.685398
5.749111 -30.73403 -43.574879
7.845899 -36.306568 -41.040562
6.371161 -34.150986 -42.792042
5.024193 -31.779104 -44.501469
4.260169 -32.648827 -45.416012
3.424856 -33.767197 -46.281246
2.475583 -34.816647 -47.12923
22.179892 -34.781487 -24.978306
20.872143 -36.836746 -26.209419
8.013909 -46.544407 -41.260216
6.955364 -47.733383 -42.227757
6.214614 -43.944897 -42.961224
4.506823 -41.14513 -44.642262
2.913307 -38.59074 -46.278206
1.326275 -35.482399 -48.061417
0.424161 -40.064941 -47.954445
0.189342 -36.320454 -48.798466
-0.097388 -32.614124 -49.770565
-1.494761 -29.625389 -51.589207
-2.762808 -26.368622 -53.473381
-3.836855 -23.56082 -55.161739
-5.473346 -27.277382 -54.871563
-5.161162 -23.751949 -55.936134
-4.852588 -20.710621 -56.893307
-5.879116 -17.862352 -58.678337
17.611032 -31.878151 -30.460932
4.133622 -8.32791 -49.849243
4.760841 -12.978597 -47.449791
3.942767 -10.944272 -49.137619
2.652445 -19.713293 -48.919056
-1.437495 -16.255955 -55.648624
-2.284882 -13.682994 -57.541992
-3.104773 -11.131582 -59.41021
-4.158901 -11.654835 -60.140816
6.81823 -23.727974 -42.487697
6.64685 -22.32866 -42.895767
7.269953 -23.320266 -42.016468
15.486684 -42.059337 -32.278292
15.857492 -41.062077 -31.78678
16.176649 -42.737064 -31.491254
24.689744 -37.660023 -20.897368
25.392024 -36.40452 -20.156989
25.26466 -38.000616 -19.898953
24.035558 -38.842888 -21.547752
24.689744 -37.660023 -20.897368
-8.494142 -20.668964 -58.817901
-8.025247 -22.336484 -57.963552
-8.751594 -22.339773 -58.280634
-8.188772 -19.110889 -59.338113
-8.494142 -20.668964 -58.817901
7.50057 -14.033487 -44.368367
7.361817 -15.260725 -44.033684
6.938551 -13.144759 -45.187265
7.50057 -14.033487 -44.368367
6.292229 -13.459378 -45.673727
6.43098 -12.153635 -46.030766
6.938551 -13.144759 -45.187265
2.75644 -15.30265 -49.635807
2.709344 -13.92275 -50.04896
3.107951 -15.075971 -49.123659
0.66542 -18.032119 -52.334947
1.102611 -19.297128 -51.415394
0.740698 -19.630692 -51.854819
0.278937 -16.844399 -53.246369
0.66542 -18.032119 -52.334947
-0.113073 -17.154677 -53.702501
0.278937 -16.844399 -53.246369
12.058558 -43.087671 -36.506327
12.81572 -44.195674 -35.711147
11.270656 -42.09876 -37.362127
11.581055 -41.303162 -36.89999
12.058558 -43.087671 -36.506327
10.95253 -42.87747 -37.817434
10.475026 -41.092961 -38.211098
11.270656 -42.09876 -37.362127
26.689754 -39.029587 -16.993452
27.11493 -39.320488 -16.027669
26.007931 -40.230228 -17.758997
26.271918 -38.667523 -17.932609
26.689754 -39.029587 -16.993452
-6.737121 -42.189614 -51.198742
-5.802058 -44.110899 -50.407419
10.062041 -22.303046 -39.390411
10.811417 -22.953978 -38.544885
10.215435 -23.585003 -38.929583
9.345731 -21.591193 -40.236179
9.941713 -20.960167 -39.851482
10.062041 -22.303046 -39.390411
6.307931 -18.473399 -44.089883
6.253334 -17.293024 -44.480539
6.824967 -18.142953 -43.628692
17.596024 -37.241324 -29.895931
17.868733 -38.79303 -29.522861
13.269164 -39.652851 -34.741493
14.012183 -40.524146 -33.925697
13.663445 -41.29048 -34.382202
22.241982 -36.295578 -24.613922
22.841485 -35.126928 -24.061257
22.903575 -36.641019 -23.696873
21.588108 -37.323207 -25.229478
21.526018 -35.809117 -25.593863
22.241982 -36.295578 -24.613922
8.379695 -48.419379 -40.956721
8.838757 -47.709755 -40.489193
6.04702 -46.310684 -43.046768
6.439348 -48.395083 -42.628933
5.531003 -46.972383 -43.447945
-0.733394 -42.669119 -48.22274
-1.653651 -41.051851 -49.025553
0.023639 -42.441659 -47.81384
-0.733394 -42.669119 -48.22274
-0.235526 -40.387424 -48.311323
0.683326 -42.119175 -47.456963
0.023639 -42.441659 -47.81384
16.78557 -30.012873 -31.584003
15.901911 -29.498209 -32.525368
13.343992 -26.424724 -35.456045
13.475897 -27.801061 -35.090004
12.721653 -27.103949 -35.918299
4.504936 -9.31815 -49.051315
4.723383 -8.069364 -49.287717
4.749239 -14.211638 -47.087356
5.230131 -14.021532 -46.587551
5.218529 -15.254573 -46.225116
3.503691 -11.077616 -49.708763
3.879733 -12.106305 -48.845762
3.440657 -12.239649 -49.416906
3.597796 -9.796159 -50.014117
3.503691 -11.077616 -49.708763
5.680177 -25.17413 -43.833937
6.29382 -26.278847 -42.933881
3.958131 -21.744042 -46.600685
4.14967 -23.212747 -46.181773
3.468216 -20.617088 -47.510919
3.958131 -21.744042 -46.600685
2.556468 -23.094738 -48.55262
3.108522 -24.274641 -47.62768
2.728293 -24.621407 -48.132517
2.200565 -18.507281 -49.883253
2.292281 -20.011669 -49.433662
1.8404 -18.805657 -50.39786
2.107857 -17.155169 -50.282213
2.559737 -18.361181 -49.318016
2.200565 -18.507281 -49.883253
1.722266 -15.905492 -51.226275
2.107857 -17.155169 -50.282213
26.79441 -40.985218 -15.831846
27.11493 -39.320488 -16.027669
-8.608507 -38.489191 -52.866766
-7.65606 -40.369917 -52.033853
-8.548886 -40.470577 -52.340165
20.702647 -32.435687 -27.139988
21.494366 -32.798587 -26.183531
19.930651 -32.046115 -28.047752
20.702647 -32.435687 -27.139988
20.023812 -33.469452 -27.676209
19.184775 -31.595745 -28.917585
19.930651 -32.046115 -28.047752
6.511455 -20.9788 -43.291935
6.40195 -19.679988 -43.698684
6.989068 -20.62214 -42.831288
6.511455 -20.9788 -43.291935
6.64685 -22.32866 -42.895767
16.199551 -40.077812 -31.38915
16.615649 -39.057209 -30.905369
16.963555 -40.7192 -30.51596
26.079645 -35.262308 -19.477071
26.674392 -35.537104 -18.41446
26.079645 -35.262308 -19.477071
25.392024 -36.40452 -20.156989
24.160093 -35.768148 -22.149806
24.217954 -34.300354 -22.482191
23.505907 -36.951014 -22.80019
24.160093 -35.768148 -22.149806
22.903575 -36.641019 -23.696873
23.505907 -36.951014 -22.80019
4.617843 -45.530005 -44.225943
5.531003 -46.972383 -43.447945
3.791441 -44.300524 -44.991606
4.312273 -43.658504 -44.631443
4.617843 -45.530005 -44.225943
2.82594 -42.729397 -45.853604
3.791441 -44.300524 -44.991606
1.973396 -41.258941 -46.693953
2.633328 -40.958568 -46.237455
2.82594 -42.729397 -45.853604
-3.333534 -39.636972 -50.261042
-4.187792 -39.810755 -50.651613
-2.547982 -39.365339 -49.907106
-3.333534 -39.636972 -50.261042
-3.469426 -37.608517 -50.785244
-1.789544 -39.023396 -49.549755
-1.653651 -41.051851 -49.025553
-2.547982 -39.365339 -49.907106
-7.477049 -19.249104 -58.949335
-6.720932 -19.279556 -58.55653
-7.011678 -20.696127 -58.108015
-7.477049 -19.249104 -58.949335
-8.188772 -19.110889 -59.338113
15.088037 -28.952824 -33.386761
15.901911 -29.498209 -32.525368
15.228683 -30.27872 -33.027161
13.234264 -25.025681 -35.8757
12.443383 -24.38342 -36.737444
5.935755 -11.208028 -46.838188
6.43098 -12.153635 -46.030766
5.330453 -11.388321 -47.385307
5.935755 -11.208028 -46.838188
3.852159 -14.601618 -48.140867
4.277168 -14.356508 -47.639414
4.312629 -15.689789 -47.226376
3.062736 -12.453516 -49.90836
3.440657 -12.239649 -49.416906
3.438777 -13.482204 -49.045358
2.713569 -12.636691 -50.406563
3.062736 -12.453516 -49.90836
2.713569 -12.636691 -50.406563
2.709344 -13.92275 -50.04896
4.921176 -25.816561 -44.865555
5.311294 -25.539062 -44.330711
5.538985 -27.022569 -43.930633
4.354798 -24.778936 -45.732636
4.921176 -25.816561 -44.865555
4.582488 -26.262442 -45.332558
3.810983 -23.658628 -46.648775
4.14967 -23.212747 -46.181773
4.354798 -24.778936 -45.732636
1.555003 -20.602873 -50.441767
2.054178 -21.875774 -49.502863
1.677064 -22.168602 -49.996361
1.555003 -20.602873 -50.441767
1.102611 -19.297128 -51.415394
1.388008 -17.499913 -51.371487
1.8404 -18.805657 -50.39786
1.384008 -16.045749 -51.757982
1.388008 -17.499913 -51.371487
-3.938644 -15.883342 -58.182533
-3.83916 -14.331073 -58.721327
-3.388034 -15.703086 -57.800546
-4.534009 -16.07098 -58.556555
-3.938644 -15.883342 -58.182533
-4.082884 -17.442993 -57.635774
-5.105557 -16.274694 -58.870458
-4.534009 -16.07098 -58.556555
13.366747 -42.255764 -34.834089
13.663445 -41.29048 -34.382202
13.091012 -43.192207 -35.257185
12.81572 -44.195674 -35.711147
12.644692 -41.355629 -35.621094
13.366747 -42.255764 -34.834089
13.091012 -43.192207 -35.257185
10.64154 -43.720566 -38.268873
10.95253 -42.87747 -37.817434
9.882538 -42.77306 -39.056869
10.64154 -43.720566 -38.268873
9.108555 -41.810621 -39.894419
9.382916 -40.909232 -39.503954
9.882538 -42.77306 -39.056869
8.747046 -42.436895 -40.340993
8.247424 -40.573067 -40.788078
9.108555 -41.810621 -39.894419
8.293744 -43.023287 -40.872421
8.747046 -42.436895 -40.340993
7.920102 -43.820221 -41.290613
7.512274 -41.996275 -41.652845
8.293744 -43.023287 -40.872421
26.460341 -37.105997 -18.16282
26.674392 -35.537104 -18.41446
25.778518 -38.306639 -18.928365
26.460341 -37.105997 -18.16282
26.271918 -38.667523 -17.932609
-4.949653 -43.779835 -50.112213
-5.802058 -44.110899 -50.407419
-4.999205 -41.884642 -50.527139
-4.949653 -43.779835 -50.112213
-6.796743 -40.208227 -51.725343
-6.737121 -42.189614 -51.198742
-7.65606 -40.369917 -52.033853
-5.060642 -39.908202 -51.040001
-4.999205 -41.884642 -50.527139
-5.939241 -40.051484 -51.403093
-5.127828 -37.977597 -51.527567
-4.187792 -39.810755 -50.651613
-5.060642 -39.908202 -51.040001
-9.562625 -22.256595 -58.646681
-8.751594 -22.339773 -58.280634
-9.093729 -23.924115 -57.792332
11.630914 -23.637581 -37.637303
12.443383 -24.38342 -36.737444
11.777279 -24.981774 -37.184199
11.630914 -23.637581 -37.637303
10.811417 -22.953978 -38.544885
9.949898 -19.705117 -40.248344
9.941713 -20.960167 -39.851482
9.28788 -18.969544 -41.064054
9.949898 -19.705117 -40.248344
8.681437 -18.151139 -41.870054
9.28788 -18.969544 -41.064054
8.61896 -19.429909 -41.50325
7.968176 -17.341226 -42.773195
8.681437 -18.151139 -41.870054
7.347102 -16.516763 -43.628245
7.968176 -17.341226 -42.773195
7.391444 -17.787041 -43.164299
6.785085 -15.70654 -44.424788
7.361817 -15.260725 -44.033684
7.347102 -16.516763 -43.628245
5.71786 -16.343968 -45.33352
6.234896 -16.013522 -44.872329
6.253334 -17.293024 -44.480539
5.218529 -15.254573 -46.225116
5.71786 -16.343968 -45.33352
6.307931 -18.473399 -44.089883
6.40195 -19.679988 -43.698684
4.337071 -16.961955 -46.874972
4.312629 -15.689789 -47.226376
3.970252 -17.357329 -47.30333
4.337071 -16.961955 -46.874972
3.603965 -17.617814 -47.794668
3.521334 -16.195384 -48.219167
3.970252 -17.357329 -47.30333
-9.558834 -40.453739 -52.692909
-8.548886 -40.470577 -52.340165
-10.456608 -38.586187 -53.472313
-9.558834 -40.453739 -52.692909
-11.306468 -36.634478 -54.324947
-10.351194 -36.638142 -54.025711
-10.456608 -38.586187 -53.472313
17.417977 -35.675493 -30.234368
18.179765 -36.321632 -29.351979
17.596024 -37.241324 -29.895931
16.615187 -35.088516 -31.128247
17.198927 -34.168825 -30.584295
17.417977 -35.675493 -30.234368
16.342941 -37.505503 -31.27844
16.615649 -39.057209 -30.905369
16.093604 -35.980372 -31.596578
16.342941 -37.505503 -31.27844
15.602308 -36.89069 -32.096698
15.874554 -34.473703 -31.946506
16.615187 -35.088516 -31.128247
16.093604 -35.980372 -31.596578
14.786995 -41.273062 -33.070112
15.486684 -42.059337 -32.278292
14.392714 -39.635433 -33.429403
14.786995 -41.273062 -33.070112
14.012183 -40.524146 -33.925697
7.322216 -26.759761 -41.591835
7.049934 -25.266102 -42.040185
7.713614 -26.213239 -41.160048
6.939874 -27.281977 -42.053064
7.322216 -26.759761 -41.591835
7.603553 -28.229115 -41.172926
6.575157 -27.7482 -42.514972
6.29382 -26.278847 -42.933881
6.939874 -27.281977 -42.053064
23.568593 -34.015349 -23.409973
24.217954 -34.300354 -22.482191
22.907 -33.669907 -24.327022
23.568593 -34.015349 -23.409973
22.841485 -35.126928 -24.061257
22.186408 -33.259819 -25.288461
22.907 -33.669907 -24.327022
21.487851 -34.320256 -25.873376
21.494366 -32.798587 -26.183531
22.186408 -33.259819 -25.288461
26.147752 -42.121338 -16.669967
26.79441 -40.985218 -15.831846
25.767241 -41.801544 -17.610116
26.147752 -42.121338 -16.669967
25.349407 -41.43948 -18.549273
26.007931 -40.230228 -17.758997
25.767241 -41.801544 -17.610116
24.917846 -41.145024 -19.462145
25.349407 -41.43948 -18.549273
24.403988 -40.839001 -20.432735
25.076238 -39.562141 -19.668743
24.917846 -41.145024 -19.462145
23.920333 -40.404812 -21.359077
24.403988 -40.839001 -20.432735
24.035558 -38.842888 -21.547752
23.920333 -40.404812 -21.359077
20.959709 -38.344803 -25.893968
21.588108 -37.323207 -25.229478
20.329587 -37.86479 -26.735957
20.959709 -38.344803 -25.893968
19.623912 -37.43026 -27.613248
20.166469 -36.402216 -27.08671
20.329587 -37.86479 -26.735957
19.072422 -38.390148 -28.138019
18.909304 -36.927574 -28.488771
19.623912 -37.43026 -27.613248
18.586886 -39.444794 -28.64758
19.072422 -38.390148 -28.138019
17.868733 -38.79303 -29.522861
18.586886 -39.444794 -28.64758
17.238714 -42.348717 -30.163212
16.963555 -40.7192 -30.51596
16.852197 -43.432846 -30.68132
17.238714 -42.348717 -30.163212
16.176649 -42.737064 -31.491254
16.852197 -43.432846 -30.68132
-12.155795 -34.577145 -55.180389
-11.306468 -36.634478 -54.324947
-11.946115 -32.729893 -55.737417
-12.155795 -34.577145 -55.180389
-11.793138 -30.884211 -56.28107
-11.048077 -32.84075 -55.421999
-11.946115 -32.729893 -55.737417
-11.544853 -29.140676 -56.818129
-11.793138 -30.884211 -56.28107
-11.270936 -27.348746 -57.33757
-10.621182 -29.203139 -56.485094
-11.544853 -29.140676 -56.818129
-10.996593 -25.604125 -57.898472
-11.270936 -27.348746 -57.33757
-10.77534 -23.818989 -58.475393
-10.126012 -25.626073 -57.581457
-10.996593 -25.604125 -57.898472
-10.398685 -22.271908 -58.955639
-10.77534 -23.818989 -58.475393
-9.562625 -22.256595 -58.646681
-10.398685 -22.271908 -58.955639
8.357741 -45.69582 -40.885202
8.838757 -47.709755 -40.489193
7.57627 -44.668808 -41.665627
7.920102 -43.820221 -41.290613
8.357741 -45.69582 -40.885202
7.349277 -49.709173 -41.875153
6.439348 -48.395083 -42.628933
7.850423 -49.013867 -41.440491
7.349277 -49.709173 -41.875153
7.484637 -47.138895 -41.743986
8.379695 -48.419379 -40.956721
7.850423 -49.013867 -41.440491
1.295084 -41.547355 -47.132273
0.683326 -42.119175 -47.456963
1.102472 -39.776527 -47.516125
1.973396 -41.258941 -46.693953
1.295084 -41.547355 -47.132273
-5.70599 -16.390554 -59.204729
-5.105557 -16.274694 -58.870458
-5.278683 -17.746492 -58.344066
-6.532709 -17.847442 -59.038094
-6.067338 -19.294466 -58.196773
-6.720932 -19.279556 -58.55653
-6.278076 -16.456117 -59.511526
-6.532709 -17.847442 -59.038094
-5.70599 -16.390554 -59.204729
-6.278076 -16.456117 -59.511526
18.364383 -30.994881 -29.856064
19.184775 -31.595745 -28.917585
18.431424 -32.479016 -29.522452
17.569807 -30.539896 -30.731585
16.826794 -31.351127 -31.31335
16.78557 -30.012873 -31.584003
18.364383 -30.994881 -29.856064
17.569807 -30.539896 -30.731585
14.256522 -28.427585 -34.258152
13.634183 -29.106811 -34.720406
13.475897 -27.801061 -35.090004
15.088037 -28.952824 -33.386761
14.256522 -28.427585 -34.258152
13.343992 -26.424724 -35.456045
13.234264 -25.025681 -35.8757
4.298293 -7.069869 -50.133501
4.723383 -8.069364 -49.287717
3.816147 -7.13428 -50.711764
4.298293 -7.069869 -50.133501
4.818545 -11.643493 -47.851589
5.330453 -11.388321 -47.385307
5.272749 -12.723426 -46.983509
4.288769 -13.123467 -48.001848
4.749239 -14.211638 -47.087356
4.277168 -14.356508 -47.639414
4.409508 -10.62633 -48.695503
4.818545 -11.643493 -47.851589
4.351804 -11.961434 -48.293705
4.038194 -9.636091 -49.493431
4.504936 -9.31815 -49.051315
4.409508 -10.62633 -48.695503
3.693224 -8.487978 -50.369929
4.038194 -9.636091 -49.493431
3.597796 -9.796159 -50.014117
3.816147 -7.13428 -50.711764
3.693224 -8.487978 -50.369929
6.81823 -23.727974 -42.487697
7.049934 -25.266102 -42.040185
5.680177 -25.17413 -43.833937
5.311294 -25.539062 -44.330711
3.242812 -17.798803 -48.317217
3.603965 -17.617814 -47.794668
3.476403 -23.986394 -47.123711
3.648229 -25.513064 -46.703608
3.108522 -24.274641 -47.62768
3.271275 -22.420206 -47.572848
3.810983 -23.658628 -46.648775
3.476403 -23.986394 -47.123711
2.556468 -23.094738 -48.55262
2.054178 -21.875774 -49.502863
2.79457 -21.230632 -48.483419
2.292281 -20.011669 -49.433662
3.12915 -20.902867 -48.008484
3.271275 -22.420206 -47.572848
2.79457 -21.230632 -48.483419
2.991511 -19.427514 -48.421492
3.468216 -20.617088 -47.510919
3.12915 -20.902867 -48.008484
2.991511 -19.427514 -48.421492
2.559737 -18.361181 -49.318016
2.811038 -16.73247 -49.213741
3.242812 -17.798803 -48.317217
2.75644 -15.30265 -49.635807
2.811038 -16.73247 -49.213741
1.722266 -15.905492 -51.226275
1.384008 -16.045749 -51.757982
-0.524684 -17.407576 -54.165651
-0.113073 -17.154677 -53.702501
-0.108105 -18.618582 -53.237522
-0.983573 -16.099813 -55.139627
-0.524684 -17.407576 -54.165651
-0.978606 -17.563718 -54.674648
-1.399281 -14.739045 -56.151399
-0.983573 -16.099813 -55.139627
-1.822974 -13.452565 -57.098084
-1.399281 -14.739045 -56.151399
-1.861188 -14.969475 -56.595308
-2.187051 -12.237974 -58.005769
-1.822974 -13.452565 -57.098084
-2.596996 -10.962267 -58.939878
-2.187051 -12.237974 -58.005769
-2.694827 -12.407288 -58.476101
-2.98909 -9.713981 -59.887422
-2.596996 -10.962267 -58.939878
-3.530778 -9.937253 -60.315428
-2.98909 -9.713981 -59.887422
-4.057842 -10.19888 -60.680731
-3.530778 -9.937253 -60.315428
-3.631837 -11.393209 -59.775513
-4.58111 -10.555847 -60.953856
-4.057842 -10.19888 -60.680731
-4.274336 -13.083082 -59.622065
-3.723725 -12.902826 -59.240078
-3.83916 -14.331073 -58.721327
-4.676798 -11.930498 -60.418707
-4.274336 -13.083082 -59.622065
-4.58111 -10.555847 -60.953856
-4.676798 -11.930498 -60.418707
3 1 48 46
3 1 50 48
3 0 52 51
3 3 55 53
3 3 57 55
3 3 179 181
3 181 180 57
3 179 180 181
3 2 60 58
3 2 62 60
3 182 65 183
3 184 183 63
3 182 183 184
3 5 68 66
3 5 70 68
3 5 72 70
3 7 75 73
3 7 77 75
3 8 185 187
3 187 186 78
3 185 186 187
3 8 188 189
3 9 82 81
3 9 84 82
3 9 86 84
3 190 89 191
3 192 191 87
3 190 191 192
3 194 193 89
3 4 92 90
3 11 195 196
3 11 197 198
3 11 199 201
3 199 93 200
3 199 200 201
3 12 96 94
3 12 202 204
3 204 203 96
3 202 203 204
3 6 98 97
3 13 205 207
3 207 206 99
3 205 206 207
3 13 208 209
3 13 210 211
3 10 102 100
3 10 103 102
3 212 104 213
3 214 105 215
3 216 215 104
3 214 215 216
3 217 107 218
3 219 218 105
3 217 218 219
3 16 220 221
3 16 222 224
3 222 108 223
3 222 223 224
3 225 109 226
3 17 110 47
3 17 111 110
3 17 113 111
3 19 114 49
3 19 115 114
3 20 118 116
3 22 119 54
3 22 227 229
3 229 228 119
3 227 228 229
3 22 230 232
3 230 120 231
3 230 231 232
3 23 121 56
3 23 122 121
3 23 233 235
3 235 234 122
3 233 234 235
3 24 126 124
3 26 127 59
3 26 128 127
3 26 130 128
3 28 131 61
3 28 132 131
3 237 236 133
3 30 135 64
3 30 136 135
3 14 238 240
3 238 137 239
3 238 239 240
3 31 138 67
3 31 139 138
3 31 140 139
3 32 141 69
3 32 142 141
3 32 143 142
3 34 144 71
3 34 145 144
3 15 146 106
3 35 147 74
3 35 148 147
3 35 149 148
3 36 150 76
3 36 151 150
3 241 152 242
3 243 242 79
3 241 242 243
3 244 153 245
3 246 245 152
3 244 245 246
3 247 154 248
3 37 249 251
3 249 155 250
3 249 250 251
3 37 156 155
3 37 157 156
3 38 158 80
3 38 159 158
3 39 252 253
3 39 254 255
3 39 256 258
3 256 160 257
3 256 257 258
3 40 161 83
3 40 162 161
3 40 163 162
3 41 164 85
3 41 165 164
3 18 166 112
3 42 167 88
3 42 168 167
3 42 169 168
3 29 170 134
3 260 259 91
3 21 261 263
3 263 262 117
3 261 262 263
3 264 171 265
3 266 172 267
3 268 267 123
3 266 267 268
3 269 173 270
3 271 270 95
3 269 270 271
3 273 272 173
3 33 274 275
3 43 276 277
3 43 278 279
3 25 280 282
3 282 281 125
3 280 281 282
3 44 283 285
3 283 174 284
3 283 284 285
3 44 286 288
3 288 287 174
3 286 287 288
3 44 289 290
3 27 175 129
3 45 176 101
3 45 177 176
3 45 178 177
3 291 16 292
3 46 293 295
3 293 47 294
3 293 294 295
3 48 47 46
3 48 17 47
3 48 49 17
3 50 49 48
3 50 19 49
3 51 296 297
3 52 298 300
3 300 299 51
3 298 299 300
3 52 301 302
3 53 54 20
3 55 54 53
3 55 22 54
3 55 56 22
3 57 56 55
3 57 23 56
3 57 303 305
3 305 304 23
3 303 304 305
3 307 306 57
3 58 59 24
3 60 59 58
3 60 26 59
3 60 61 26
3 62 61 60
3 62 28 61
3 63 308 310
3 308 64 309
3 308 309 310
3 65 64 63
3 65 30 64
3 66 67 14
3 68 67 66
3 68 31 67
3 68 69 31
3 70 69 68
3 70 32 69
3 70 71 32
3 72 71 70
3 72 34 71
3 73 74 15
3 75 74 73
3 75 35 74
3 75 76 35
3 77 76 75
3 77 36 76
3 78 311 312
3 314 313 78
3 315 79 316
3 317 79 318
3 320 319 79
3 321 37 322
3 323 80 324
3 325 324 37
3 323 324 325
3 326 80 327
3 328 38 329
3 330 329 80
3 328 329 330
3 81 331 332
3 82 333 335
3 335 334 81
3 333 334 335
3 82 336 338
3 336 39 337
3 336 337 338
3 82 83 39
3 84 83 82
3 84 40 83
3 84 85 40
3 86 85 84
3 86 41 85
3 87 88 18
3 89 88 87
3 89 42 88
3 89 339 341
3 341 340 42
3 339 340 341
3 343 342 89
3 90 91 29
3 92 91 90
3 92 344 346
3 346 345 91
3 344 345 346
3 348 347 21
3 93 349 350
3 93 351 352
3 94 353 355
3 353 95 354
3 353 354 355
3 96 95 94
3 96 356 358
3 358 357 95
3 356 357 358
3 96 359 360
3 362 361 96
3 97 363 365
3 365 364 33
3 363 364 365
3 98 366 368
3 368 367 97
3 366 367 368
3 98 369 371
3 369 43 370
3 369 370 371
3 99 372 374
3 374 373 25
3 372 373 374
3 376 375 99
3 377 44 378
3 380 379 44
3 100 101 27
3 102 101 100
3 102 45 101
3 102 381 383
3 383 382 45
3 381 382 383
3 103 384 386
3 386 385 102
3 384 385 386
3 103 387 388
3 389 14 390
3 104 391 392
3 104 393 395
3 393 14 394
3 393 394 395
3 104 66 14
3 105 66 104
3 105 5 66
3 105 106 5
3 107 106 105
3 107 15 106
3 396 107 397
3 398 107 399
3 400 15 401
3 402 401 107
3 400 401 402
3 403 73 404
3 405 404 15
3 403 404 405
3 406 73 407
3 408 7 409
3 410 409 73
3 408 409 410
3 411 78 412
3 108 413 415
3 413 78 414
3 413 414 415
3 108 8 78
3 109 416 417
3 109 418 419
3 47 420 422
3 420 109 421
3 420 421 422
3 110 109 47
3 110 423 425
3 425 424 109
3 423 424 425
3 110 426 428
3 426 81 427
3 426 427 428
3 111 81 110
3 111 9 81
3 111 112 9
3 113 112 111
3 113 18 112
3 49 113 17
3 114 113 49
3 114 18 113
3 114 87 18
3 115 87 114
3 115 429 431
3 431 430 87
3 429 430 431
3 116 117 4
3 118 117 116
3 118 21 117
3 54 118 20
3 119 118 54
3 119 21 118
3 119 432 434
3 434 433 21
3 432 433 434
3 436 435 119
3 120 437 438
3 120 439 440
3 56 120 22
3 121 120 56
3 121 441 443
3 443 442 120
3 441 442 443
3 121 444 445
3 122 446 448
3 448 447 121
3 446 447 448
3 122 449 451
3 449 11 450
3 449 450 451
3 122 123 11
3 452 123 453
3 454 453 122
3 452 453 454
3 456 455 123
3 458 457 23
3 459 94 460
3 461 94 462
3 463 12 464
3 465 464 94
3 463 464 465
3 124 125 6
3 126 125 124
3 126 25 125
3 59 126 24
3 127 126 59
3 127 25 126
3 127 99 25
3 128 99 127
3 128 13 99
3 128 129 13
3 130 129 128
3 130 27 129
3 61 130 26
3 131 130 61
3 131 27 130
3 131 100 27
3 132 100 131
3 132 10 100
3 466 46 467
3 468 46 469
3 470 1 471
3 472 471 46
3 470 471 472
3 133 134 0
3 473 134 474
3 475 474 133
3 473 474 475
3 476 29 477
3 478 477 134
3 476 477 478
3 64 479 480
3 135 481 483
3 483 482 64
3 481 482 483
3 135 484 486
3 484 29 485
3 484 485 486
3 135 90 29
3 136 90 135
3 136 4 90
3 487 65 488
3 137 489 491
3 489 65 490
3 489 490 491
3 137 30 65
3 67 137 14
3 138 137 67
3 138 30 137
3 138 136 30
3 139 136 138
3 139 4 136
3 139 116 4
3 140 116 139
3 140 20 116
3 69 140 31
3 141 140 69
3 141 20 140
3 141 53 20
3 142 53 141
3 142 3 53
3 142 492 494
3 494 493 3
3 492 493 494
3 143 495 497
3 497 496 142
3 495 496 497
3 143 498 500
3 498 33 499
3 498 499 500
3 71 143 32
3 144 143 71
3 144 33 143
3 144 97 33
3 145 97 144
3 145 6 97
3 106 72 5
3 146 72 106
3 146 34 72
3 74 146 15
3 147 146 74
3 147 34 146
3 147 145 34
3 148 145 147
3 148 6 145
3 148 124 6
3 149 124 148
3 149 24 124
3 76 149 35
3 150 149 76
3 150 24 149
3 150 58 24
3 151 58 150
3 151 2 58
3 79 501 502
3 152 503 505
3 505 504 79
3 503 504 505
3 152 506 507
3 152 508 510
3 508 51 509
3 508 509 510
3 153 51 152
3 153 0 51
3 511 16 512
3 513 16 514
3 515 108 516
3 517 516 16
3 515 516 517
3 518 108 519
3 520 8 521
3 522 521 108
3 520 521 522
3 523 8 524
3 526 525 8
3 527 153 528
3 529 153 530
3 531 0 532
3 533 532 153
3 531 532 533
3 534 133 535
3 536 535 0
3 534 535 536
3 537 133 538
3 540 539 133
3 541 63 542
3 543 63 544
3 546 545 63
3 547 1 548
3 549 1 550
3 551 50 552
3 553 552 1
3 551 552 553
3 554 50 555
3 556 19 557
3 558 557 50
3 556 557 558
3 559 19 560
3 561 115 562
3 563 562 19
3 561 562 563
3 564 115 565
3 567 566 115
3 154 568 569
3 154 570 572
3 570 7 571
3 570 571 572
3 155 573 574
3 155 575 576
3 155 577 579
3 577 154 578
3 577 578 579
3 156 154 155
3 156 7 154
3 156 77 7
3 157 77 156
3 157 36 77
3 80 157 37
3 158 157 80
3 158 36 157
3 158 151 36
3 159 151 158
3 159 2 151
3 160 580 581
3 160 582 584
3 582 38 583
3 582 583 584
3 83 160 39
3 161 160 83
3 161 38 160
3 161 159 38
3 162 159 161
3 162 2 159
3 162 62 2
3 163 62 162
3 163 28 62
3 85 163 40
3 164 163 85
3 164 28 163
3 164 132 28
3 165 132 164
3 165 10 132
3 112 86 9
3 166 86 112
3 166 41 86
3 88 166 18
3 167 166 88
3 167 41 166
3 167 165 41
3 168 165 167
3 168 10 165
3 168 103 10
3 169 103 168
3 169 585 587
3 587 586 103
3 585 586 587
3 588 169 589
3 590 589 42
3 588 589 590
3 591 169 592
3 594 593 169
3 134 52 0
3 170 52 134
3 170 595 597
3 597 596 52
3 595 596 597
3 91 170 29
3 598 170 599
3 600 599 91
3 598 599 600
3 602 601 170
3 117 92 4
3 603 92 604
3 605 604 117
3 603 604 605
3 607 606 92
3 609 608 21
3 171 610 611
3 171 612 613
3 123 93 11
3 172 93 123
3 172 614 616
3 616 615 93
3 614 615 616
3 95 617 619
3 617 172 618
3 617 618 619
3 173 172 95
3 173 620 622
3 622 621 172
3 620 621 622
3 173 623 625
3 623 171 624
3 623 624 625
3 626 171 627
3 628 627 173
3 626 627 628
3 630 629 171
3 632 631 3
3 634 633 33
3 635 12 636
3 125 98 6
3 637 98 638
3 639 638 125
3 637 638 639
3 640 43 641
3 642 641 98
3 640 641 642
3 644 643 25
3 174 645 646
3 174 647 649
3 647 43 648
3 647 648 649
3 174 650 652
3 652 651 43
3 650 651 652
3 654 653 174
3 655 12 656
3 658 657 12
3 660 659 44
3 129 661 663
3 663 662 13
3 661 662 663
3 175 664 666
3 666 665 129
3 664 665 666
3 175 667 668
3 101 175 27
3 176 175 101
3 176 669 671
3 671 670 175
3 669 670 671
3 176 672 673
3 177 674 676
3 676 675 176
3 674 675 676
3 177 677 678
3 177 679 680
3 178 681 683
3 683 682 177
3 681 682 683
3 178 684 685
3 686 178 687
3 688 687 45
3 686 687 688
3 689 178 690
3 692 691 178
