ply
format ascii 1.0
element vertex 200
property float x
property float y
property float z
element face 191
property list uchar int vertex_index
end_header
12.588191 105.789536 -27.833925
19.729342 100.79081 -36.641636
9.3248 98.898705 -38.125401
7.092803 103.794754 -28.62331
5.247106 100.621185 -33.545586
11.170377 102.871704 -33.568802
18.371193 96.243958 -41.549103
16.391996 104.017227 -32.65955
8.792567 105.853737 -22.905666
3.82324 96.562225 -37.766983
7.675148 93.81398 -41.953545
14.928373 100.281105 -37.932785
13.173433 95.469955 -42.175282
9.803625 104.900963 -28.323803
9.071972 103.503822 -31.185469
11.865109 104.496346 -30.763054
6.050222 104.63369 -23.321138
7.298891 99.955025 -35.906097
4.478444 98.679283 -35.761742
6.528544 97.620369 -38.219666
5.666492 95.322441 -39.948814
8.566114 96.567184 -40.119774
17.952484 102.635765 -34.687275
15.484035 102.305481 -35.396034
17.440857 100.708763 -37.343697
17.525867 93.456894 -43.662441
15.826352 95.955452 -42.00098
14.976637 93.271469 -43.837879
4.208638 102.413971 -28.699276
3.397239 100.948097 -31.1707
6.264174 102.328651 -31.298338
8.225972 101.878937 -33.646107
10.216945 101.115303 -35.806828
19.211565 98.592033 -39.262142
15.130195 106.283897 -27.345306
14.568471 105.085083 -30.387762
17.048246 105.38475 -29.751913
5.321473 103.714584 -26.216627
7.8895 104.960037 -25.757811
10.675424 106.015945 -25.392666
11.427188 106.798454 -22.332752
2.598469 99.2202 -33.460999
1.757009 97.197594 -35.541496
1.0037 95.031097 -37.347298
4.922545 92.819748 -41.498955
6.675768 91.000839 -43.347797
13.799642 103.601845 -33.165607
12.985301 101.749649 -35.839367
12.10609 99.773903 -38.056664
16.660528 98.478241 -39.803806
14.063397 98.13575 -40.058891
11.347649 97.264771 -40.364998
10.404963 94.89267 -42.03965
15.7558 91.977081 -44.570364
16.251252 93.364182 -43.75016
17.030416 92.069794 -44.482645
14.553819 91.805283 -44.623684
15.7558 91.977081 -44.570364
17.330156 105.933559 -28.163781
16.08922 105.834323 -28.548609
16.37113 106.383132 -26.960477
4.341781 103.479317 -24.804972
3.879647 102.965084 -26.154707
12.666108 107.111618 -21.975856
11.857096 107.05674 -20.771136
12.327395 106.775623 -23.567237
12.666108 107.111618 -21.975856
3.341929 95.269142 -38.654803
1.932159 94.503578 -38.44496
2.41347 95.796661 -37.557141
5.240248 104.363239 -21.93746
4.706155 103.93887 -23.357228
6.523519 104.999561 -21.842658
5.240248 104.363239 -21.93746
7.894692 105.609585 -21.634922
7.421394 105.243713 -23.113402
6.523519 104.999561 -21.842658
13.569056 92.979191 -43.858194
12.667454 94.078434 -43.026896
14.075035 94.370712 -43.00658
13.569056 92.979191 -43.858194
14.553819 91.805283 -44.623684
3.802938 101.681034 -29.934988
2.420735 100.927826 -29.85644
2.826434 101.660763 -28.620728
20.27076 98.544037 -38.890537
19.470453 99.691421 -37.951889
20.529648 99.643425 -37.580284
19.965792 97.425495 -40.075105
20.27076 98.544037 -38.890537
19.545606 96.251458 -41.218586
18.791379 97.417996 -40.405622
19.965792 97.425495 -40.075105
19.141407 94.911057 -42.348481
19.545606 96.251458 -41.218586
18.718744 93.517525 -43.40515
17.94853 94.850426 -42.605772
19.141407 94.911057 -42.348481
18.281852 92.177269 -44.30314
18.718744 93.517525 -43.40515
17.030416 92.069794 -44.482645
18.281852 92.177269 -44.30314
18.217064 105.368923 -29.336667
17.330156 105.933559 -28.163781
17.884341 104.745552 -30.870638
18.217064 105.368923 -29.336667
17.556216 104.061791 -32.324457
16.720121 104.700988 -31.205731
17.884341 104.745552 -30.870638
18.33646 103.37106 -33.338319
17.17224 103.326496 -33.673412
17.556216 104.061791 -32.324457
19.183399 102.546227 -34.330447
18.33646 103.37106 -33.338319
20.071828 101.623749 -35.307627
18.840913 101.713288 -35.664456
19.183399 102.546227 -34.330447
20.849339 100.509628 -36.382086
20.071828 101.623749 -35.307627
20.529648 99.643425 -37.580284
20.849339 100.509628 -36.382086
3.32323 102.314778 -27.396031
2.826434 101.660763 -28.620728
4.765055 103.064278 -27.457952
3.32323 102.314778 -27.396031
3.879647 102.965084 -26.154707
5.685847 104.174137 -24.768883
4.341781 103.479317 -24.804972
4.706155 103.93887 -23.357228
9.302316 106.193318 -21.352536
7.894692 105.609585 -21.634922
10.619627 106.665676 -21.066079
11.857096 107.05674 -20.771136
10.109877 106.326096 -22.619209
9.302316 106.193318 -21.352536
10.619627 106.665676 -21.066079
11.951514 106.384368 -25.097195
11.051306 106.4072 -23.862709
12.327395 106.775623 -23.567237
12.907897 106.271164 -26.317824
11.631808 105.90274 -26.613295
11.951514 106.384368 -25.097195
14.178899 106.518344 -26.073515
13.859193 106.036716 -27.589616
12.907897 106.271164 -26.317824
15.450222 106.722759 -25.766051
14.178899 106.518344 -26.073515
16.37113 106.383132 -26.960477
15.450222 106.722759 -25.766051
2.062056 100.205219 -31.043336
2.420735 100.927826 -29.85644
1.662671 99.341271 -32.188485
2.062056 100.205219 -31.043336
2.997854 100.084148 -32.315849
1.273313 98.463089 -33.281113
1.662671 99.341271 -32.188485
0.852584 97.451786 -34.321362
1.273313 98.463089 -33.281113
2.177739 98.208897 -34.501248
0.386844 96.424072 -35.2537
0.852584 97.451786 -34.321362
0.010189 95.340824 -36.156601
0.386844 96.424072 -35.2537
1.380355 96.114345 -36.444397
-0.240921 94.230854 -37.108829
0.010189 95.340824 -36.156601
0.589916 93.716175 -38.191544
-0.240921 94.230854 -37.108829
0.589916 93.716175 -38.191544
1.932159 94.503578 -38.44496
4.263555 94.64925 -39.745718
3.341929 95.269142 -38.654803
4.744866 95.942333 -38.857899
3.891582 93.397904 -40.520789
4.263555 94.64925 -39.745718
5.294519 94.071095 -40.723884
3.577771 92.111389 -41.265498
3.891582 93.397904 -40.520789
4.580502 91.345208 -42.222407
3.577771 92.111389 -41.265498
5.457113 90.435753 -43.146828
4.580502 91.345208 -42.222407
5.799157 91.910293 -42.423376
6.373823 89.500591 -43.980781
5.457113 90.435753 -43.146828
11.283219 93.789792 -42.95908
11.789198 95.181312 -42.107466
12.667454 94.078434 -43.026896
9.967934 93.41814 -42.884217
11.283219 93.789792 -42.95908
8.603027 92.878795 -42.841164
9.040056 94.353325 -41.996598
9.967934 93.41814 -42.884217
8.103337 91.472225 -43.53829
7.175458 92.407409 -42.650671
8.603027 92.878795 -42.841164
7.639692 90.053772 -44.149038
8.103337 91.472225 -43.53829
6.373823 89.500591 -43.980781
7.639692 90.053772 -44.149038
3 0 15 13
3 2 19 17
3 2 21 19
3 1 24 22
3 53 27 54
3 55 54 25
3 53 54 55
3 57 56 27
3 3 30 28
3 5 31 14
3 5 32 31
3 58 36 59
3 60 59 34
3 58 59 60
3 61 37 62
3 8 38 16
3 8 39 38
3 63 40 64
3 66 65 40
3 4 41 29
3 9 42 18
3 9 43 42
3 9 67 69
3 69 68 43
3 67 68 69
3 10 44 20
3 10 45 44
3 7 46 35
3 11 47 23
3 11 48 47
3 6 49 33
3 12 50 26
3 12 51 50
3 12 52 51
3 13 14 3
3 15 14 13
3 15 5 14
3 70 16 71
3 72 16 73
3 74 8 75
3 76 75 16
3 74 75 76
3 17 18 4
3 19 18 17
3 19 9 18
3 19 20 9
3 21 20 19
3 21 10 20
3 22 23 7
3 24 23 22
3 24 11 23
3 25 26 6
3 27 26 25
3 27 12 26
3 27 77 79
3 79 78 12
3 77 78 79
3 81 80 27
3 28 82 84
3 82 29 83
3 82 83 84
3 30 29 28
3 30 4 29
3 14 30 3
3 31 30 14
3 31 4 30
3 31 17 4
3 32 17 31
3 32 2 17
3 85 33 86
3 87 86 1
3 85 86 87
3 88 33 89
3 90 6 91
3 92 91 33
3 90 91 92
3 93 6 94
3 95 25 96
3 97 96 6
3 95 96 97
3 98 25 99
3 101 100 25
3 34 35 0
3 36 35 34
3 36 7 35
3 102 36 103
3 104 36 105
3 106 7 107
3 108 107 36
3 106 107 108
3 109 22 110
3 111 110 7
3 109 110 111
3 112 22 113
3 114 1 115
3 116 115 22
3 114 115 116
3 117 1 118
3 120 119 1
3 121 28 122
3 37 123 125
3 123 28 124
3 123 124 125
3 37 3 28
3 16 126 128
3 126 37 127
3 126 127 128
3 38 37 16
3 38 3 37
3 38 13 3
3 39 13 38
3 39 0 13
3 129 8 130
3 40 131 132
3 40 133 135
3 133 8 134
3 133 134 135
3 40 39 8
3 136 39 137
3 138 137 40
3 136 137 138
3 139 0 140
3 141 140 39
3 139 140 141
3 142 34 143
3 144 143 0
3 142 143 144
3 145 34 146
3 148 147 34
3 29 149 150
3 41 151 153
3 153 152 29
3 151 152 153
3 41 154 155
3 18 41 4
3 42 41 18
3 42 156 158
3 158 157 41
3 156 157 158
3 42 159 160
3 43 161 163
3 163 162 42
3 161 162 163
3 43 164 165
3 43 166 167
3 169 168 43
3 20 170 172
3 172 171 9
3 170 171 172
3 44 173 175
3 175 174 20
3 173 174 175
3 44 176 177
3 44 178 179
3 45 180 182
3 182 181 44
3 180 181 182
3 45 183 184
3 35 15 0
3 46 15 35
3 46 5 15
3 23 46 7
3 47 46 23
3 47 5 46
3 47 32 5
3 48 32 47
3 48 2 32
3 33 24 1
3 49 24 33
3 49 11 24
3 26 49 6
3 50 49 26
3 50 11 49
3 50 48 11
3 51 48 50
3 51 2 48
3 51 21 2
3 52 21 51
3 52 10 21
3 185 52 186
3 187 186 12
3 185 186 187
3 188 52 189
3 190 10 191
3 192 191 52
3 190 191 192
3 193 45 194
3 195 194 10
3 193 194 195
3 196 45 197
3 199 198 45
