ply
format ascii 1.0
element vertex 193
property float x
property float y
property float z
element face 163
property list uchar int vertex_index
end_header
33.974335 -22.29842 20.886658
36.028435 -6.34866 20.218523
35.04092 -14.470881 20.673992
35.382965 -21.024178 16.931101
35.064598 -27.582048 12.72595
36.918377 1.750181 19.392809
36.407673 17.352676 21.344315
34.742176 14.527452 25.422823
35.891235 8.304079 22.595407
35.152084 -0.16879 23.39883
34.314442 -8.517431 23.879028
34.538067 -18.34815 20.77087
35.274223 -17.809429 18.846045
34.692825 -21.749527 18.908791
34.73103 -24.898167 16.96513
34.103897 -25.384352 18.983583
36.519794 -2.231184 19.773752
35.751942 20.044323 22.801483
35.36071 11.837755 23.961527
35.048645 7.450119 24.472437
35.588245 4.089708 22.948879
35.548183 -10.457225 20.473856
35.845146 -13.73609 18.682959
35.340073 -24.210604 14.869024
34.640163 -27.89234 14.850358
34.968086 18.708443 24.807878
35.577694 15.728464 23.445679
36.209389 12.78537 21.964367
36.743946 9.484996 20.586048
36.450951 5.077491 21.00316
36.096584 0.986935 21.357466
35.660236 -3.235806 21.731068
34.718185 -4.339013 23.723812
35.182095 -7.412165 22.083214
34.728619 -11.332889 22.303534
34.241215 -15.307996 22.489481
36.439443 -6.067771 19.170829
36.685123 -4.009033 18.948444
36.274114 -4.289922 19.996138
35.418732 21.501107 23.515014
35.797713 22.268721 22.453369
34.603054 6.814302 25.411395
34.775736 8.882506 25.169351
34.850701 5.299564 24.711131
34.603054 6.814302 25.411395
35.698744 -19.025726 16.869562
35.644373 -17.418352 17.827034
35.328594 -19.416804 17.888573
35.704866 -20.666837 15.886768
35.698744 -19.025726 16.869562
35.361519 -22.617391 15.900063
35.68342 -22.26005 14.855729
35.704866 -20.666837 15.886768
34.379903 -28.113798 15.888153
34.685597 -26.395254 15.907744
34.425337 -26.616711 16.945539
34.259153 -29.714269 14.911885
34.379903 -28.113798 15.888153
37.336906 2.186775 18.288101
37.111858 3.911596 19.144959
35.259426 -27.324921 11.599087
35.456804 -25.625613 12.725673
36.825432 17.901941 20.215003
36.497481 19.444844 20.93422
36.709682 15.662792 20.641314
36.825432 17.901941 20.215003
34.431812 15.895801 26.155196
34.322458 13.915868 26.38702
34.855131 16.617947 25.11535
34.544767 17.986297 25.847724
34.431812 15.895801 26.155196
34.516313 -6.428222 23.80142
34.278877 -4.843003 24.616802
34.077005 -6.932212 24.69441
33.800039 -15.742039 23.460424
34.049925 -13.920999 23.291164
33.998201 -17.195636 22.563361
33.800039 -15.742039 23.460424
34.111771 -26.859803 17.954766
34.425337 -26.616711 16.945539
34.417463 -25.14126 17.974356
36.940261 -1.928766 18.675167
37.139553 0.061917 18.484696
36.719085 -0.240501 19.583281
36.940261 -1.928766 18.675167
36.685123 -4.009033 18.948444
34.871832 -29.028517 11.648042
34.672499 -29.395452 12.730463
36.169615 20.790667 21.662804
35.797713 22.268721 22.453369
36.079808 18.698499 22.072899
36.497481 19.444844 20.93422
36.169615 20.790667 21.662804
34.622501 12.421173 25.644544
34.322458 13.915868 26.38702
34.931769 11.076324 24.913896
35.051443 13.182603 24.692175
34.622501 12.421173 25.644544
35.204678 9.643937 24.216982
34.931769 11.076324 24.913896
34.775736 8.882506 25.169351
35.1205 3.619358 23.949352
35.318445 5.769913 23.710658
34.850701 5.299564 24.711131
34.90242 1.490109 24.174328
35.370165 1.960459 23.173855
35.1205 3.619358 23.949352
33.880106 -8.869573 24.790851
34.077005 -6.932212 24.69441
34.086539 -10.525716 23.985937
33.880106 -8.869573 24.790851
35.95836 -10.072994 19.466276
36.198487 -8.018712 19.33861
35.788309 -8.402942 20.34619
36.106842 -11.712426 18.570828
35.95836 -10.072994 19.466276
35.696664 -12.096657 19.578408
36.21887 -13.393681 17.650706
36.106842 -11.712426 18.570828
35.929834 -15.381683 17.745491
35.559685 -15.77276 18.764502
35.644373 -17.418352 17.827034
36.21887 -13.393681 17.650706
35.929834 -15.381683 17.745491
35.594541 -23.939891 13.79721
35.68342 -22.26005 14.855729
35.202335 -25.896326 13.797487
35.456804 -25.625613 12.725673
35.594541 -23.939891 13.79721
34.460281 -29.550598 13.792667
34.672499 -29.395452 12.730463
34.85238 -27.737194 13.788154
34.460281 -29.550598 13.792667
34.259153 -29.714269 14.911885
37.336906 2.186775 18.288101
37.139553 0.061917 18.484696
36.439443 -6.067771 19.170829
36.198487 -8.018712 19.33861
35.259426 -27.324921 11.599087
34.871832 -29.028517 11.648042
34.630607 20.038767 25.576736
34.544767 17.986297 25.847724
35.026804 20.833167 24.518212
34.630607 20.038767 25.576736
35.360014 19.376383 23.80468
35.418732 21.501107 23.515014
35.026804 20.833167 24.518212
36.61054 13.37914 20.95134
36.709682 15.662792 20.641314
36.308531 15.069023 21.654341
36.877819 11.728953 20.26218
36.61054 13.37914 20.95134
36.476668 11.135183 21.275208
37.184196 10.014513 19.437545
36.877819 11.728953 20.26218
37.024643 7.779003 19.741578
37.184196 10.014513 19.437545
36.878146 5.575251 19.950134
37.024643 7.779003 19.741578
36.597448 7.281244 20.794604
36.684664 3.413836 20.197985
37.111858 3.911596 19.144959
36.878146 5.575251 19.950134
34.674177 -0.678655 24.389209
34.90242 1.490109 24.174328
34.457228 -2.763766 24.5517
34.278877 -4.843003 24.616802
34.935135 -2.253901 23.561321
34.674177 -0.678655 24.389209
34.457228 -2.763766 24.5517
34.293627 -11.933445 23.19819
34.52153 -9.92516 23.091281
34.086539 -10.525716 23.985937
34.484917 -13.320442 22.396507
34.293627 -11.933445 23.19819
34.049925 -13.920999 23.291164
34.146627 -18.715713 21.704055
34.389641 -16.828073 21.630175
33.998201 -17.195636 22.563361
33.864762 -20.690849 21.76195
34.256201 -20.323285 20.828764
34.146627 -18.715713 21.704055
33.60713 -22.6904 21.801685
33.864762 -20.690849 21.76195
33.709509 -24.250488 20.836749
33.60713 -22.6904 21.801685
33.77429 -25.793454 19.885212
34.039116 -23.841386 19.935121
33.709509 -24.250488 20.836749
33.792444 -27.266407 18.976707
33.77429 -25.793454 19.885212
34.111771 -26.859803 17.954766
33.792444 -27.266407 18.976707
3 0 13 11
3 0 15 13
3 1 36 38
3 38 37 16
3 36 37 38
3 39 17 40
3 41 19 42
3 44 43 19
3 2 22 21
3 3 45 47
3 47 46 12
3 45 46 47
3 3 48 49
3 3 50 52
3 50 23 51
3 50 51 52
3 53 24 54
3 55 54 14
3 53 54 55
3 57 56 24
3 5 58 59
3 4 60 61
3 6 62 63
3 6 64 65
3 7 66 67
3 7 68 70
3 68 25 69
3 68 69 70
3 7 26 25
3 8 27 18
3 8 28 27
3 8 29 28
3 9 30 20
3 9 31 30
3 10 71 73
3 71 32 72
3 71 72 73
3 10 33 32
3 10 34 33
3 74 35 75
3 77 76 35
3 11 12 2
3 13 12 11
3 13 3 12
3 13 14 3
3 15 14 13
3 15 78 80
3 80 79 14
3 78 79 80
3 16 81 83
3 83 82 5
3 81 82 83
3 85 84 16
3 87 86 4
3 17 88 89
3 17 90 92
3 90 6 91
3 90 91 92
3 93 7 94
3 95 18 96
3 97 96 7
3 95 96 97
3 19 98 100
3 98 18 99
3 98 99 100
3 19 8 18
3 19 20 8
3 101 20 102
3 103 102 19
3 101 102 103
3 104 9 105
3 106 105 20
3 104 105 106
3 107 10 108
3 110 109 10
3 21 111 113
3 113 112 1
3 111 112 113
3 22 114 116
3 116 115 21
3 114 115 116
3 22 117 118
3 12 22 2
3 119 22 120
3 121 120 12
3 119 120 121
3 123 122 22
3 23 124 125
3 23 126 128
3 126 4 127
3 126 127 128
3 14 23 3
3 24 23 14
3 24 4 23
3 24 129 131
3 131 130 4
3 129 130 131
3 133 132 24
3 135 134 5
3 137 136 1
3 139 138 4
3 25 140 141
3 25 142 143
3 25 144 146
3 144 17 145
3 144 145 146
3 26 17 25
3 26 6 17
3 18 26 7
3 27 26 18
3 27 6 26
3 27 147 149
3 149 148 6
3 147 148 149
3 28 150 152
3 152 151 27
3 150 151 152
3 28 153 154
3 28 155 156
3 29 157 159
3 159 158 28
3 157 158 159
3 29 160 162
3 160 5 161
3 160 161 162
3 20 29 8
3 30 29 20
3 30 5 29
3 30 16 5
3 31 16 30
3 31 1 16
3 163 9 164
3 32 165 166
3 32 167 169
3 167 9 168
3 167 168 169
3 32 31 9
3 33 31 32
3 33 1 31
3 33 21 1
3 34 21 33
3 34 2 21
3 170 34 171
3 172 171 10
3 170 171 172
3 35 173 175
3 173 34 174
3 173 174 175
3 35 2 34
3 35 11 2
3 176 11 177
3 178 177 35
3 176 177 178
3 179 0 180
3 181 180 11
3 179 180 181
3 182 0 183
3 184 0 185
3 186 15 187
3 188 187 0
3 186 187 188
3 189 15 190
3 192 191 15
