ply
format ascii 1.0
element vertex 279
property float x
property float y
property float z
element face 231
property list uchar int vertex_index
end_header
-23.801796 -75.73098 -24.93902
-30.044308 -63.542824 -25.920618
-26.525644 -68.568535 -33.351547
-31.18865 -58.61401 -18.369013
-28.738447 -64.17382 -17.287855
-27.455664 -64.111351 -37.338749
-23.553974 -71.020821 -36.75145
-24.212152 -66.239059 -40.191845
-24.452887 -60.613495 -43.740314
-27.020281 -69.71209 -25.239531
-28.725277 -65.931786 -29.777025
-28.115068 -66.955353 -21.320532
-30.784777 -61.12011 -22.07172
-27.955988 -61.265732 -39.365978
-26.014793 -64.966705 -38.878242
-26.261349 -62.28437 -40.814106
-24.486235 -63.327522 -41.995358
-26.525261 -59.457088 -42.575001
-28.524927 -66.713486 -25.579205
-27.889668 -67.928131 -27.433449
-29.472061 -64.740593 -27.798676
-25.74135 -71.234505 -18.450218
-26.673094 -69.918694 -20.954063
-27.111065 -68.483971 -19.006399
-29.998699 -61.371464 -17.831785
-29.7635 -62.674927 -19.559109
-31.028357 -59.831558 -20.177551
-32.04491 -58.132584 -22.427734
-28.92729 -62.841854 -15.386307
-30.07925 -60.206444 -15.849923
-27.076817 -66.290451 -35.43998
-25.186029 -69.679245 -35.170147
-25.492178 -67.613564 -37.080029
-23.955524 -68.619019 -38.528343
-22.326283 -64.477661 -43.189476
-27.043203 -69.189377 -29.427713
-27.694691 -67.326027 -31.563051
-30.296026 -62.737759 -30.177229
-28.311872 -65.162735 -33.786018
-28.930439 -62.682999 -35.932781
-24.618311 -74.22937 -23.000477
-26.197165 -71.210236 -23.115429
-27.709776 -68.186378 -23.302074
-29.06962 -65.351624 -23.529198
-28.457611 -65.597954 -19.283871
-29.463448 -64.012138 -21.461712
-30.472883 -62.3451 -24.020983
-31.813005 -59.274349 -24.318327
-23.174215 -73.235542 -34.76857
-22.596664 -58.327919 -46.249352
-23.319349 -76.462124 -25.920963
-22.931743 -77.260177 -24.917525
-27.260939 -60.410645 -41.044758
-27.108669 -61.775051 -40.090042
-28.108258 -59.901325 -40.320694
-27.392895 -58.997003 -41.925206
-26.393305 -60.870729 -41.694553
-27.260939 -60.410645 -41.044758
-25.95504 -70.458893 -17.465521
-25.274782 -71.863361 -17.293868
-26.639898 -69.083626 -17.743612
-26.426208 -69.859238 -18.728308
-25.95504 -70.458893 -17.465521
-31.704896 -57.803749 -19.537895
-31.62475 -58.412523 -20.442163
-31.108503 -59.222784 -19.273282
-25.618366 -70.193447 -33.214412
-26.176904 -69.659035 -32.34265
-28.982532 -62.216143 -14.420264
-28.401073 -63.482458 -14.088778
-29.558512 -60.898438 -14.652071
-29.50327 -61.524149 -15.618115
-28.982532 -62.216143 -14.420264
-23.173645 -67.960316 -40.066799
-23.045331 -69.150295 -39.235048
-24.083838 -67.429039 -39.360094
-23.271965 -66.644107 -40.895548
-23.173645 -67.960316 -40.066799
-23.502542 -61.035899 -44.217487
-22.43924 -62.967982 -43.942068
-23.389585 -62.545578 -43.464895
-26.638629 -70.375245 -26.272634
-26.249681 -71.181187 -25.203342
-31.071607 -61.078361 -30.36833
-30.60129 -62.223849 -29.254807
-29.196873 -63.422672 -33.974224
-28.881704 -64.500847 -32.935993
-29.506156 -62.182805 -35.047606
-28.621156 -63.922867 -34.859399
-29.196873 -63.422672 -33.974224
-24.952473 -73.460399 -21.900745
-24.194322 -74.904289 -21.755356
-25.7419 -71.950832 -21.958222
-25.407738 -72.719803 -23.057953
-24.952473 -73.460399 -21.900745
-28.598029 -64.885887 -18.285863
-27.977866 -66.250316 -18.120077
-28.118284 -65.53825 -17.122069
-32.53293 -57.250177 -23.611238
-32.621319 -56.705311 -22.649006
-23.600148 -56.315357 -46.650355
-23.624381 -57.886379 -45.817299
-25.069847 -72.59348 -18.396136
-25.274782 -71.863361 -17.293868
-25.513993 -71.962967 -19.625616
-25.069847 -72.59348 -18.396136
-26.207222 -70.5766 -19.70214
-25.979865 -71.305061 -20.877538
-25.513993 -71.962967 -19.625616
-32.133026 -57.563036 -21.567255
-31.536634 -58.982071 -21.302643
-31.62475 -58.412523 -20.442163
-32.621319 -56.705311 -22.649006
-32.133026 -57.563036 -21.567255
-22.547796 -72.718475 -36.603632
-22.713044 -71.580189 -37.491505
-30.475431 -62.626381 -27.126502
-30.766179 -61.961225 -26.117432
-28.209999 -64.857048 -16.031403
-28.118284 -65.53825 -17.122069
-28.30442 -64.191065 -15.08063
-28.401073 -63.482458 -14.088778
-28.832869 -63.507837 -16.337081
-28.209999 -64.857048 -16.031403
-28.30442 -64.191065 -15.08063
-22.913819 -70.379288 -38.379952
-22.713044 -71.580189 -37.491505
-23.754749 -69.81992 -37.639896
-22.913819 -70.379288 -38.379952
-23.045331 -69.150295 -39.235048
-23.409007 -65.188339 -41.797305
-23.271965 -66.644107 -40.895548
-24.349193 -64.78329 -41.093602
-22.329031 -65.763408 -42.394363
-23.409007 -65.188339 -41.797305
-23.406259 -63.902591 -42.592417
-21.308526 -66.261471 -42.95352
-22.329031 -65.763408 -42.394363
-21.390102 -64.747463 -43.710583
-21.308526 -66.261471 -42.95352
-21.390102 -64.747463 -43.710583
-22.43924 -62.967982 -43.942068
-24.208284 -74.890183 -26.027465
-24.640438 -74.190632 -25.053086
-27.073322 -69.483265 -27.369593
-26.638629 -70.375245 -26.272634
-27.454974 -68.82011 -26.33649
-26.65009 -70.113888 -28.366725
-27.073322 -69.483265 -27.369593
-27.466435 -68.558754 -28.430581
-26.142736 -70.828644 -29.367173
-26.65009 -70.113888 -28.366725
-26.435684 -69.969456 -30.380733
-26.142736 -70.828644 -29.367173
-26.761428 -69.037781 -31.448402
-26.435684 -69.969456 -30.380733
-27.368947 -68.257702 -30.495382
-27.110167 -67.947281 -32.457299
-26.176904 -69.659035 -32.34265
-26.761428 -69.037781 -31.448402
-30.189307 -63.225266 -28.065531
-29.758184 -64.141709 -26.859647
-30.475431 -62.626381 -27.126502
-29.884044 -63.739176 -28.987952
-30.189307 -63.225266 -28.065531
-30.60129 -62.223849 -29.254807
-30.646547 -61.743259 -31.207523
-31.071607 -61.078361 -30.36833
-29.873781 -63.288359 -31.131599
-30.646547 -61.743259 -31.207523
-29.088406 -64.885373 -30.931497
-29.510652 -64.334772 -29.977127
-29.873781 -63.288359 -31.131599
-28.573113 -65.582493 -31.82451
-28.209984 -66.628906 -30.670038
-29.088406 -64.885373 -30.931497
-28.003281 -66.244381 -32.674535
-28.573113 -65.582493 -31.82451
-28.881704 -64.500847 -32.935993
-29.8031 -61.01005 -36.038581
-29.506156 -62.182805 -35.047606
-29.148966 -61.525698 -36.88256
-29.8031 -61.01005 -36.038581
-28.411578 -62.239874 -37.585544
-28.193051 -63.397175 -36.635765
-29.148966 -61.525698 -36.88256
-28.661741 -60.817065 -38.599159
-27.705826 -62.688541 -38.352363
-28.411578 -62.239874 -37.585544
-28.882231 -59.444607 -39.60643
-28.661741 -60.817065 -38.599159
-28.108258 -59.901325 -40.320694
-28.882231 -59.444607 -39.60643
-23.439611 -76.391804 -23.867905
-22.931743 -77.260177 -24.917525
-23.847868 -75.640999 -22.898634
-24.194322 -74.904289 -21.755356
-24.210054 -74.980175 -23.969749
-23.439611 -76.391804 -23.867905
-23.847868 -75.640999 -22.898634
-25.048696 -73.439827 -24.083815
-24.640438 -74.190632 -25.053086
-24.210054 -74.980175 -23.969749
-25.838122 -71.93026 -24.141291
-25.048696 -73.439827 -24.083815
-25.407738 -72.719803 -23.057953
-26.608723 -70.461163 -24.17748
-26.249681 -71.181187 -25.203342
-25.838122 -71.93026 -24.141291
-26.435129 -70.564465 -22.034746
-25.7419 -71.950832 -21.958222
-25.979865 -71.305061 -20.877538
-27.304593 -67.693325 -17.981341
-26.639898 -69.083626 -17.743612
-27.784338 -67.040963 -19.145135
-27.304593 -67.693325 -17.981341
-27.977866 -66.250316 -18.120077
-30.980466 -61.362364 -25.167615
-30.766179 -61.961225 -26.117432
-30.258595 -62.943962 -24.970801
-31.650528 -59.826988 -25.316287
-30.980466 -61.362364 -25.167615
-31.142944 -60.809725 -24.169655
-32.285918 -58.351456 -25.554659
-31.650528 -59.826988 -25.316287
-32.416978 -57.82106 -24.556535
-31.928958 -58.703467 -23.37303
-32.53293 -57.250177 -23.611238
-32.285918 -58.351456 -25.554659
-32.416978 -57.82106 -24.556535
-30.125101 -59.594477 -14.885959
-29.558512 -60.898438 -14.652071
-30.659999 -58.867447 -16.143006
-30.125101 -59.594477 -14.885959
-31.2147 -58.07123 -17.402551
-30.63395 -59.410227 -17.109468
-30.659999 -58.867447 -16.143006
-31.736281 -57.284779 -18.582826
-31.2147 -58.07123 -17.402551
-31.704896 -57.803749 -19.537895
-31.736281 -57.284779 -18.582826
-23.319349 -76.462124 -25.920963
-24.208284 -74.890183 -26.027465
-24.948559 -70.748802 -34.123712
-25.618366 -70.193447 -33.214412
-25.855837 -69.12389 -34.260847
-23.942652 -72.52695 -33.922924
-24.948559 -70.748802 -34.123712
-24.180122 -71.457393 -34.969358
-22.989971 -74.172878 -33.774673
-23.942652 -72.52695 -33.922924
-22.357917 -73.825836 -35.612192
-23.364095 -72.128181 -35.76001
-22.547796 -72.718475 -36.603632
-22.191749 -74.851974 -34.667915
-22.357917 -73.825836 -35.612192
-22.989971 -74.172878 -33.774673
-22.191749 -74.851974 -34.667915
-27.466788 -57.575382 -42.887967
-27.392895 -58.997003 -41.925206
-26.587574 -58.030307 -43.436972
-27.466788 -57.575382 -42.887967
-25.551387 -58.608511 -44.019628
-25.489074 -60.035291 -43.157657
-26.587574 -58.030307 -43.436972
-24.552492 -59.029167 -44.56278
-25.551387 -58.608511 -44.019628
-23.502542 -61.035899 -44.217487
-24.552492 -59.029167 -44.56278
-22.57443 -59.893111 -45.472006
-23.624381 -57.886379 -45.817299
-21.514536 -60.310326 -45.911261
-22.57443 -59.893111 -45.472006
-22.625228 -56.598928 -47.04402
-23.600148 -56.315357 -46.650355
-21.565295 -58.698313 -46.612481
-22.625228 -56.598928 -47.04402
-21.514536 -60.310326 -45.911261
-21.565295 -58.698313 -46.612481
3 0 50 51
3 52 15 53
3 54 53 13
3 52 53 54
3 55 17 56
3 57 56 15
3 55 56 57
3 1 20 18
3 58 21 59
3 60 23 61
3 62 61 21
3 60 61 62
3 3 26 24
3 3 63 65
3 65 64 26
3 63 64 65
3 2 66 67
3 68 28 69
3 70 29 71
3 72 71 28
3 70 71 72
3 5 32 30
3 7 33 14
3 7 73 75
3 75 74 33
3 73 74 75
3 7 76 77
3 8 34 16
3 8 78 80
3 80 79 34
3 78 79 80
3 9 81 82
3 10 35 19
3 10 36 35
3 83 37 84
3 85 38 86
3 87 39 88
3 89 88 38
3 87 88 89
3 90 40 91
3 92 41 93
3 94 93 40
3 92 93 94
3 11 42 22
3 11 43 42
3 4 95 97
3 95 44 96
3 95 96 97
3 12 45 25
3 12 46 45
3 12 47 46
3 99 98 27
3 6 48 31
3 100 49 101
3 13 14 5
3 15 14 13
3 15 7 14
3 15 16 7
3 17 16 15
3 17 8 16
3 18 19 9
3 20 19 18
3 20 10 19
3 21 102 103
3 21 104 105
3 21 106 108
3 106 22 107
3 106 107 108
3 23 22 21
3 23 11 22
3 24 25 4
3 26 25 24
3 26 12 25
3 26 27 12
3 109 27 110
3 111 110 26
3 109 110 111
3 113 112 27
3 115 114 6
3 117 116 1
3 118 4 119
3 28 120 121
3 28 122 124
3 122 4 123
3 122 123 124
3 28 24 4
3 29 24 28
3 29 3 24
3 30 31 2
3 32 31 30
3 32 6 31
3 14 32 5
3 33 32 14
3 33 6 32
3 33 125 127
3 127 126 6
3 125 126 127
3 129 128 33
3 16 130 132
3 132 131 7
3 130 131 132
3 34 133 135
3 135 134 16
3 133 134 135
3 34 136 137
3 34 138 139
3 141 140 34
3 143 142 0
3 19 144 146
3 146 145 9
3 144 145 146
3 35 147 149
3 149 148 19
3 147 148 149
3 35 150 151
3 35 152 153
3 36 154 156
3 156 155 35
3 154 155 156
3 36 157 159
3 157 2 158
3 157 158 159
3 160 20 161
3 162 161 1
3 160 161 162
3 37 163 165
3 163 20 164
3 163 164 165
3 37 10 20
3 166 37 167
3 168 37 169
3 170 10 171
3 172 171 37
3 170 171 172
3 173 36 174
3 175 174 10
3 173 174 175
3 38 176 178
3 176 36 177
3 176 177 178
3 38 2 36
3 38 30 2
3 39 30 38
3 39 5 30
3 179 39 180
3 181 39 182
3 183 5 184
3 185 184 39
3 183 184 185
3 186 13 187
3 188 187 5
3 186 187 188
3 189 13 190
3 192 191 13
3 193 0 194
3 40 195 196
3 40 197 199
3 197 0 198
3 197 198 199
3 40 200 202
3 202 201 0
3 200 201 202
3 41 203 205
3 205 204 40
3 203 204 205
3 41 206 208
3 206 9 207
3 206 207 208
3 22 209 211
3 209 41 210
3 209 210 211
3 42 41 22
3 42 9 41
3 42 18 9
3 43 18 42
3 43 1 18
3 212 23 213
3 44 214 216
3 214 23 215
3 214 215 216
3 44 11 23
3 25 44 4
3 45 44 25
3 45 11 44
3 45 43 11
3 46 43 45
3 46 1 43
3 46 217 219
3 219 218 1
3 217 218 219
3 47 220 222
3 222 221 46
3 220 221 222
3 47 223 224
3 27 47 12
3 225 47 226
3 227 226 27
3 225 226 227
3 229 228 47
3 230 29 231
3 232 29 233
3 234 3 235
3 236 235 29
3 234 235 236
3 237 3 238
3 240 239 3
3 242 241 0
3 31 243 245
3 245 244 2
3 243 244 245
3 48 246 248
3 248 247 31
3 246 247 248
3 48 249 250
3 251 48 252
3 253 252 6
3 251 252 253
3 254 48 255
3 257 256 48
3 258 17 259
3 260 17 261
3 262 8 263
3 264 263 17
3 262 263 264
3 265 8 266
3 268 267 8
3 49 269 270
3 49 271 272
3 273 49 274
3 275 49 276
3 278 277 49
