ply
format ascii 1.0
element vertex 368
property float x
property float y
property float z
element face 352
property list uchar int vertex_index
end_header
32.03632 -46.313946 2.848225
31.58814 -51.494995 -13.479476
25.181982 -63.198639 5.220664
28.759089 -54.314346 4.617265
30.897354 -49.327156 -4.97667
28.102551 -58.23151 -4.486025
35.36631 -38.881149 0.518288
31.253023 -47.924278 -1.173066
26.982544 -58.811298 5.167779
28.278776 -56.313053 0.146767
26.649162 -60.759274 0.300434
33.204086 -44.289604 6.746021
33.730171 -42.524506 1.752104
32.514034 -47.054504 -13.291624
33.332237 -47.530376 -17.410475
30.450722 -50.07671 3.724384
30.231304 -56.442131 -13.543339
32.361008 -52.2812 -17.821411
31.072186 -50.452892 -9.29704
29.787685 -52.010712 -0.289427
29.590221 -53.695114 -4.74908
29.824432 -54.966801 -9.120174
32.38982 -45.209572 0.301034
31.967396 -46.024849 -1.598413
31.575012 -47.200333 0.815197
26.119856 -60.951584 5.232709
26.798853 -59.791786 2.653439
25.858818 -62.158142 2.717435
25.639484 -63.287445 0.378612
33.419666 -43.554409 4.157205
32.90823 -44.329056 2.200301
33.208797 -43.266773 -0.28913
32.115883 -49.137062 -13.435522
32.928036 -47.180859 -15.389422
32.488434 -49.543736 -15.549121
29.460131 -58.944942 -13.856179
31.513727 -47.3419 -5.386721
31.478485 -47.914127 -7.34429
31.586897 -48.357826 -9.34177
30.960705 -49.824585 -7.218238
29.599363 -52.189312 4.312162
30.06706 -51.071472 1.809088
29.301073 -53.11821 2.091855
28.165508 -57.254055 -2.153021
28.956207 -54.948971 -2.384809
28.899969 -55.843697 -4.553214
29.645582 -54.441776 -6.957314
28.918768 -56.671711 -6.682129
29.069157 -57.390244 -9.083043
28.190847 -58.96751 -6.92787
35.15126 -39.862427 3.016033
32.402336 -44.699036 -3.842277
31.696793 -46.667633 -3.537965
31.036873 -48.583954 -2.968326
27.876877 -56.566517 4.864453
28.526299 -55.198452 2.386975
27.675882 -57.469704 2.633521
27.468784 -58.536415 0.388858
27.318892 -59.640644 -2.074916
27.315126 -60.511124 -4.632484
26.436592 -61.991863 -2.075879
25.494534 -64.399117 -2.320018
24.428825 -66.871887 -2.407298
33.82394 -43.210583 8.711473
34.099991 -42.431694 5.981092
34.328918 -41.638985 3.654596
34.553768 -40.713512 1.192199
33.979748 -41.521832 -0.649508
32.945705 -44.910931 -13.389242
33.280804 -45.080322 -15.270889
33.729881 -45.20015 -17.349735
31.229485 -48.187794 3.199863
29.117609 -53.254341 6.782555
28.243116 -55.357269 7.152933
27.338839 -57.556713 7.374288
25.443991 -62.012047 7.823333
33.442638 -43.988388 11.158081
30.970978 -53.945793 -13.560876
31.902992 -52.041344 -15.532432
31.299883 -54.445976 -15.732675
32.227291 -46.811134 -11.371207
31.746944 -48.918152 -11.237309
31.255428 -51.096436 -11.331319
30.82107 -49.106674 1.261634
30.512604 -49.967323 -0.698046
30.328341 -50.742004 -2.762786
29.06691 -54.101727 -0.217705
29.628977 -52.905994 -2.571822
30.259054 -51.497097 -4.920266
30.32128 -52.11837 -7.050738
30.457748 -52.737713 -9.148277
30.719194 -53.261513 -11.41512
30.042284 -55.627754 -11.38423
29.238674 -58.226471 -11.493718
27.326298 -61.372906 -6.927444
32.927887 -49.832092 -17.704081
25.011535 -63.87492 4.035544
25.349953 -63.354672 2.78393
25.5204 -62.67839 3.96905
32.472275 -45.321501 2.524263
32.736075 -44.862816 3.508237
32.30012 -45.855261 3.832199
29.589558 -59.221763 -15.001354
28.99658 -60.224665 -13.926157
35.693922 -38.397457 1.397622
35.586397 -38.888096 2.646494
35.258785 -39.371788 1.767161
35.755539 -37.966014 0.167132
35.693922 -38.397457 1.397622
35.471531 -38.312677 -0.818278
35.755539 -37.966014 0.167132
32.579578 -44.362261 -2.921461
32.750883 -43.754106 -4.146021
25.07866 -65.015259 -1.059285
25.567009 -63.843281 -0.970703
25.151134 -64.459423 0.29003
24.545805 -66.251644 -1.102925
24.96168 -65.635502 -2.363658
25.07866 -65.015259 -1.059285
33.356977 -42.708799 -1.485094
32.982809 -43.64613 -1.144888
33.767006 -46.428422 -18.384459
33.965828 -45.26331 -18.354088
33.531059 -46.365263 -17.380105
29.325783 -52.707442 7.883152
29.551254 -52.227255 6.569268
27.958037 -55.877887 8.464002
28.430862 -54.793548 8.278992
27.505899 -56.977609 8.57468
27.790978 -56.456991 7.263611
27.958037 -55.877887 8.464002
25.645184 -61.295002 9.008358
25.92953 -60.874907 7.786041
32.964168 -44.90695 11.489497
33.255483 -44.261969 12.425503
33.157699 -44.540621 10.167205
32.964168 -44.90695 11.489497
32.154838 -46.579786 -10.409436
32.46212 -45.766665 -11.431317
28.750754 -59.054466 -10.403325
29.153916 -57.808357 -10.28838
28.665995 -58.636353 -9.197988
28.806698 -59.485941 -11.573127
28.750754 -59.054466 -10.403325
26.850639 -62.180088 -5.79026
27.320712 -60.942015 -5.779964
26.845053 -61.749197 -4.642779
32.178608 -45.61721 -0.64869
32.362109 -45.025168 -1.799529
32.573321 -44.617529 -0.849805
25.240285 -63.919323 1.614518
25.749151 -62.722793 1.548023
25.349953 -63.354672 2.78393
25.151134 -64.459423 0.29003
25.240285 -63.919323 1.614518
32.991793 -44.475493 4.486689
33.311876 -43.922006 5.451613
32.884002 -44.84309 5.781097
33.163948 -43.941733 3.178753
32.991793 -44.475493 4.486689
32.736075 -44.862816 3.508237
32.573321 -44.617529 -0.849805
32.982809 -43.64613 -1.144888
32.799308 -44.238173 0.005952
30.022869 -57.921178 -14.893023
30.408455 -56.669773 -14.736603
29.845717 -57.693537 -13.699759
30.022869 -57.921178 -14.893023
29.589558 -59.221763 -15.001354
31.778557 -46.627817 -6.493174
31.822007 -46.379413 -5.52676
31.760936 -46.91393 -7.471958
31.778557 -46.627817 -6.493174
31.496106 -47.628014 -6.365505
31.780435 -47.131282 -8.395978
31.760936 -46.91393 -7.471958
31.532691 -48.135976 -8.34303
31.834642 -47.353132 -9.394718
31.780435 -47.131282 -8.395978
28.22684 -59.424986 -8.120401
28.665995 -58.636353 -9.197988
28.630002 -58.178877 -8.005457
35.468429 -39.369124 3.856225
35.060696 -40.252577 4.254521
35.468429 -39.369124 3.856225
35.586397 -38.888096 2.646494
32.890538 -51.18184 -18.929628
32.556141 -52.488056 -18.945082
32.57975 -44.121924 -4.97964
32.750883 -43.754106 -4.146021
32.266312 -45.057981 -4.754539
32.57975 -44.121924 -4.97964
32.184866 -45.361942 -2.720345
32.579578 -44.362261 -2.921461
32.362109 -45.025168 -1.799529
31.91354 -46.04228 -4.602383
32.266312 -45.057981 -4.754539
32.049565 -45.683335 -3.690121
31.60526 -47.004767 -4.462343
31.822007 -46.379413 -5.52676
31.91354 -46.04228 -4.602383
26.405786 -62.489567 -3.364477
26.845053 -61.749197 -4.642779
26.875859 -61.251494 -3.354182
25.934756 -63.693194 -3.486547
26.405786 -62.489567 -3.364477
25.965563 -63.19549 -2.197948
25.452004 -64.902817 -3.601606
25.934756 -63.693194 -3.486547
24.919149 -66.139202 -3.645246
25.452004 -64.902817 -3.601606
24.96168 -65.635502 -2.363658
24.362994 -67.395454 -3.675816
24.919149 -66.139202 -3.645246
34.247156 -42.36245 8.38479
34.116861 -42.666876 9.701166
34.385182 -41.973005 7.019599
34.247156 -42.36245 8.38479
33.961966 -42.821139 7.346283
34.535061 -41.537211 5.737051
34.385182 -41.973005 7.019599
34.649524 -41.140856 4.573803
34.535061 -41.537211 5.737051
34.214455 -42.035339 4.817844
34.740089 -40.750706 3.335314
35.060696 -40.252577 4.254521
34.649524 -41.140856 4.573803
34.677425 -40.157209 -0.103164
35.083697 -39.241028 -0.44012
34.960039 -39.797331 0.855244
34.390416 -40.561369 -1.024018
34.677425 -40.157209 -0.103164
34.266758 -41.117672 0.271346
34.110394 -40.955153 -1.894462
34.390416 -40.561369 -1.024018
33.742452 -41.836329 -1.665283
33.594273 -42.394303 -0.469319
33.356977 -42.708799 -1.485094
34.110394 -40.955153 -1.894462
33.742452 -41.836329 -1.665283
33.303649 -43.981348 -14.398814
33.159546 -43.907125 -13.495476
33.471199 -44.066044 -15.339638
33.303649 -43.981348 -14.398814
33.113254 -44.995627 -14.330065
33.660424 -44.074352 -16.238745
33.471199 -44.066044 -15.339638
33.884962 -44.134266 -17.278168
33.660424 -44.074352 -16.238745
33.505342 -45.140236 -16.310312
34.139847 -44.076223 -18.307834
33.884962 -44.134266 -17.278168
34.139847 -44.076223 -18.307834
33.965828 -45.26331 -18.354088
31.444223 -47.777937 4.295421
31.632903 -47.25087 3.024044
31.84764 -46.841013 4.119603
31.044331 -48.677107 4.499332
31.444223 -47.777937 4.295421
30.65495 -49.621565 4.761592
30.840103 -49.132252 3.462124
31.044331 -48.677107 4.499332
30.217811 -50.63844 5.040182
30.65495 -49.621565 4.761592
29.792131 -51.694741 5.334071
30.025042 -51.133011 4.018273
30.217811 -50.63844 5.040182
29.358486 -52.721826 5.547358
29.792131 -51.694741 5.334071
29.551254 -52.227255 6.569268
28.868108 -53.742084 8.093803
29.325783 -52.707442 7.883152
28.680363 -54.305805 6.967744
28.868108 -53.742084 8.093803
28.430862 -54.793548 8.278992
27.065093 -57.988571 8.715573
27.505899 -56.977609 8.57468
26.876955 -58.647239 7.561518
27.065093 -57.988571 8.715573
26.698807 -59.274532 6.458264
27.160691 -58.184005 6.271033
26.876955 -58.647239 7.561518
26.267463 -60.344675 6.490728
26.5512 -59.881441 5.200244
26.698807 -59.274532 6.458264
25.781923 -61.481815 6.528021
26.267463 -60.344675 6.490728
25.92953 -60.874907 7.786041
33.744354 -43.343063 12.166236
33.255483 -44.261969 12.425503
33.92621 -43.055779 10.92447
33.744354 -43.343063 12.166236
33.633289 -43.599486 9.934777
34.116861 -42.666876 9.701166
33.92621 -43.055779 10.92447
33.34835 -44.151719 8.943901
33.633289 -43.599486 9.934777
33.157699 -44.540621 10.167205
33.038423 -44.691229 7.961175
33.514013 -43.750093 7.728747
33.34835 -44.151719 8.943901
32.711748 -45.30339 7.028004
33.038423 -44.691229 7.961175
32.884002 -44.84309 5.781097
32.711748 -45.30339 7.028004
31.84764 -46.841013 4.119603
32.30012 -45.855261 3.832199
30.942744 -55.671695 -15.831271
30.765594 -55.444054 -14.638007
30.408455 -56.669773 -14.736603
31.511581 -54.597864 -16.907726
30.942744 -55.671695 -15.831271
32.042144 -53.515476 -17.952094
31.830445 -53.363588 -16.777043
31.511581 -54.597864 -16.907726
32.556141 -52.488056 -18.945082
32.042144 -53.515476 -17.952094
32.821327 -44.816563 -12.440334
33.159546 -43.907125 -13.495476
32.586498 -45.861033 -12.380225
32.821327 -44.816563 -12.440334
32.46212 -45.766665 -11.431317
31.907094 -47.58448 -10.356489
32.154838 -46.579786 -10.409436
31.834642 -47.353132 -9.394718
28.917427 -59.845176 -12.754357
29.349403 -58.585707 -12.674948
28.806698 -59.485941 -11.573127
28.99658 -60.224665 -13.926157
28.917427 -59.845176 -12.754357
27.794566 -60.627684 -8.120188
28.22684 -59.424986 -8.120401
27.758572 -60.170208 -6.927657
26.833773 -62.647581 -6.962796
26.850639 -62.180088 -5.79026
27.321593 -61.880752 -8.088021
26.833773 -62.647581 -6.962796
27.794566 -60.627684 -8.120188
27.321593 -61.880752 -8.088021
25.118102 -62.443499 9.112617
25.645184 -61.295002 9.008358
24.983963 -63.052803 7.807835
25.118102 -62.443499 9.112617
24.852958 -63.646099 6.5065
25.312987 -62.605343 6.521999
24.983963 -63.052803 7.807835
24.669121 -64.34209 5.278401
24.852958 -63.646099 6.5065
25.011535 -63.87492 4.035544
24.669121 -64.34209 5.278401
23.995933 -67.4519 -1.12195
24.545805 -66.251644 -1.102925
23.879577 -68.089146 -2.571776
23.995933 -67.4519 -1.12195
24.362994 -67.395454 -3.675816
23.879577 -68.089146 -2.571776
35.471531 -38.312677 -0.818278
35.083697 -39.241028 -0.44012
33.173977 -49.957287 -18.870962
32.644447 -51.056646 -17.762746
32.890538 -51.18184 -18.929628
33.369722 -48.794767 -18.632101
33.173977 -49.957287 -18.870962
33.571897 -47.643909 -18.485298
33.130062 -48.681234 -17.557278
33.369722 -48.794767 -18.632101
33.767006 -46.428422 -18.384459
33.571897 -47.643909 -18.485298
3 0 24 22
3 2 27 25
3 2 96 98
3 98 97 27
3 96 97 98
3 0 99 101
3 99 30 100
3 99 100 101
3 0 22 30
3 1 34 32
3 103 102 35
3 4 37 36
3 4 39 37
3 3 42 40
3 5 45 43
3 5 47 45
3 5 49 47
3 6 104 106
3 106 105 50
3 104 105 106
3 6 107 108
3 6 109 110
3 111 51 112
3 7 52 23
3 7 53 52
3 8 56 54
3 10 57 26
3 10 58 57
3 10 60 58
3 113 61 114
3 115 114 28
3 113 114 115
3 116 62 117
3 118 117 61
3 116 117 118
3 11 64 63
3 12 65 29
3 12 66 65
3 12 67 66
3 120 119 31
3 13 69 68
3 14 70 33
3 14 121 123
3 123 122 70
3 121 122 123
3 124 72 125
3 126 73 127
3 128 74 129
3 130 129 73
3 128 129 130
3 131 75 132
3 133 76 134
3 136 135 76
3 16 79 77
3 137 80 138
3 18 81 38
3 18 82 81
3 15 83 71
3 19 84 41
3 19 85 84
3 9 86 55
3 20 87 44
3 20 88 87
3 20 89 88
3 21 90 46
3 21 91 90
3 21 92 91
3 139 93 140
3 141 140 48
3 139 140 141
3 143 142 93
3 144 94 145
3 146 145 59
3 144 145 146
3 17 95 78
3 22 147 149
3 147 23 148
3 147 148 149
3 24 23 22
3 24 7 23
3 25 26 8
3 27 26 25
3 27 10 26
3 27 28 10
3 150 28 151
3 152 151 27
3 150 151 152
3 154 153 28
3 155 29 156
3 157 156 11
3 155 156 157
3 30 158 160
3 158 29 159
3 158 159 160
3 30 12 29
3 30 31 12
3 22 31 30
3 22 161 163
3 163 162 31
3 161 162 163
3 32 33 13
3 34 33 32
3 34 14 33
3 35 164 166
3 166 165 16
3 164 165 166
3 168 167 35
3 36 169 170
3 37 171 173
3 173 172 36
3 171 172 173
3 37 174 175
3 37 176 178
3 176 38 177
3 176 177 178
3 39 38 37
3 39 18 38
3 40 41 15
3 42 41 40
3 42 19 41
3 43 44 9
3 45 44 43
3 45 20 44
3 45 46 20
3 47 46 45
3 47 21 46
3 47 48 21
3 49 48 47
3 49 179 181
3 181 180 48
3 179 180 181
3 50 182 183
3 185 184 50
3 187 186 17
3 51 188 189
3 51 190 191
3 23 192 194
3 192 51 193
3 192 193 194
3 52 51 23
3 52 195 197
3 197 196 51
3 195 196 197
3 52 198 200
3 198 36 199
3 198 199 200
3 53 36 52
3 53 4 36
3 54 55 3
3 56 55 54
3 56 9 55
3 26 56 8
3 57 56 26
3 57 9 56
3 57 43 9
3 58 43 57
3 58 5 43
3 58 59 5
3 60 59 58
3 60 201 203
3 203 202 59
3 201 202 203
3 28 60 10
3 61 60 28
3 61 204 206
3 206 205 60
3 204 205 206
3 61 207 208
3 62 209 211
3 211 210 61
3 209 210 211
3 62 212 213
3 63 214 215
3 64 216 218
3 218 217 63
3 216 217 218
3 64 219 220
3 29 64 11
3 65 64 29
3 65 221 223
3 223 222 64
3 221 222 223
3 65 224 226
3 224 50 225
3 224 225 226
3 66 50 65
3 66 6 50
3 66 227 229
3 229 228 6
3 227 228 229
3 67 230 232
3 232 231 66
3 230 231 232
3 67 233 234
3 31 67 12
3 235 67 236
3 237 236 31
3 235 236 237
3 239 238 67
3 68 240 241
3 69 242 244
3 244 243 68
3 242 243 244
3 69 245 246
3 33 69 13
3 70 69 33
3 70 247 249
3 249 248 69
3 247 248 249
3 70 250 251
3 253 252 70
3 254 71 255
3 256 255 0
3 254 255 256
3 257 71 258
3 259 15 260
3 261 260 71
3 259 260 261
3 262 15 263
3 264 40 265
3 266 265 15
3 264 265 266
3 72 267 269
3 267 40 268
3 267 268 269
3 72 3 40
3 270 72 271
3 73 272 274
3 272 72 273
3 272 273 274
3 73 3 72
3 73 54 3
3 74 54 73
3 74 8 54
3 275 74 276
3 277 74 278
3 279 8 280
3 281 280 74
3 279 280 281
3 282 25 283
3 284 283 8
3 282 283 284
3 75 285 287
3 285 25 286
3 285 286 287
3 75 2 25
3 76 288 289
3 76 290 291
3 76 292 294
3 292 63 293
3 292 293 294
3 295 63 296
3 297 296 76
3 295 296 297
3 298 11 299
3 300 299 63
3 298 299 300
3 301 11 302
3 304 303 11
3 305 0 306
3 77 78 1
3 79 78 77
3 79 17 78
3 307 79 308
3 309 308 16
3 307 308 309
3 310 79 311
3 312 17 313
3 314 313 79
3 312 313 314
3 316 315 17
3 317 68 318
3 80 319 321
3 319 68 320
3 319 320 321
3 80 13 68
3 38 322 324
3 322 80 323
3 322 323 324
3 81 80 38
3 81 13 80
3 81 32 13
3 82 32 81
3 82 1 32
3 71 24 0
3 83 24 71
3 83 7 24
3 41 83 15
3 84 83 41
3 84 7 83
3 84 53 7
3 85 53 84
3 85 4 53
3 55 42 3
3 86 42 55
3 86 19 42
3 44 86 9
3 87 86 44
3 87 19 86
3 87 85 19
3 88 85 87
3 88 4 85
3 88 39 4
3 89 39 88
3 89 18 39
3 46 89 20
3 90 89 46
3 90 18 89
3 90 82 18
3 91 82 90
3 91 1 82
3 91 77 1
3 92 77 91
3 92 16 77
3 48 92 21
3 93 92 48
3 93 16 92
3 93 35 16
3 325 35 326
3 327 326 93
3 325 326 327
3 329 328 35
3 59 49 5
3 94 49 59
3 94 330 332
3 332 331 49
3 330 331 332
3 333 94 334
3 335 94 336
3 338 337 94
3 339 75 340
3 341 75 342
3 343 2 344
3 345 344 75
3 343 344 345
3 346 2 347
3 349 348 2
3 350 62 351
3 352 62 353
3 355 354 62
3 357 356 6
3 78 34 1
3 95 34 78
3 95 14 34
3 358 95 359
3 360 359 17
3 358 359 360
3 361 95 362
3 363 14 364
3 365 364 95
3 363 364 365
3 367 366 14
