ply
format ascii 1.0
element vertex 241
property float x
property float y
property float z
element face 191
property list uchar int vertex_index
end_header
31.508982 14.941368 -35.785812
49.58984 10.340231 -29.492975
37.130058 17.392445 -37.274467
40.684177 16.533558 -30.790632
37.650379 18.448471 -31.99423
40.530792 17.162525 -36.667702
43.409164 13.680161 -29.03557
45.672752 10.112574 -26.793264
46.97802 13.45784 -32.594734
34.061092 16.550343 -36.900276
30.34691 16.395248 -33.826141
42.317413 15.81398 -32.985313
40.744293 16.765545 -33.741508
42.245567 16.617836 -35.981476
48.658058 8.045231 -26.812464
46.625546 8.128712 -25.514048
47.623302 9.914007 -28.306349
46.47015 11.64813 -29.688292
48.344269 11.983711 -31.110487
25.400734 13.58754 -31.515917
37.495712 17.872845 -34.660568
35.902889 18.015392 -34.818871
34.380013 17.900639 -34.789101
35.535969 17.091476 -37.1996
27.926146 14.940674 -32.75592
39.190147 17.620029 -31.464197
39.123466 17.45636 -34.302109
38.809868 17.421196 -37.100304
30.324398 18.840561 -32.595306
31.608915 17.041534 -34.261528
42.098766 15.210903 -29.978624
43.809437 14.625031 -32.046295
44.664165 8.978916 -23.902063
44.601692 11.971275 -27.970449
45.197659 13.226921 -30.941133
45.496502 14.739616 -33.919701
33.107334 19.346466 -32.727501
32.94791 17.560989 -34.593414
32.720776 15.815208 -36.414032
32.421986 14.079712 -38.182175
30.954261 14.464298 -35.423019
30.373225 15.191238 -34.443184
30.927946 15.668308 -34.805976
31.445598 13.903135 -36.538014
30.954261 14.464298 -35.423019
43.078659 16.210013 -35.51957
42.28149 16.215908 -34.483395
43.114582 15.808084 -34.021488
49.889204 11.54371 -30.852288
49.266419 12.36545 -31.661044
48.967055 11.161971 -30.301731
26.322874 12.375704 -32.057996
26.046942 13.90946 -31.835149
25.747034 11.97758 -31.62167
26.322874 12.375704 -32.057996
28.638804 13.9746 -33.514843
28.52893 15.309046 -33.036476
28.121198 13.497416 -33.103001
28.638804 13.9746 -33.514843
39.937162 17.076794 -31.127415
39.117048 17.814285 -30.043855
39.864063 17.27105 -29.707073
31.008012 19.00931 -32.654247
30.340342 20.077625 -31.969731
31.65027 18.109797 -33.487358
30.966656 17.941047 -33.428417
31.008012 19.00931 -32.654247
42.753965 14.445532 -29.507097
41.869695 15.068352 -28.482133
42.524895 14.302981 -28.010607
44.725349 10.605264 -25.902073
44.221055 10.038435 -24.456472
45.168458 9.545745 -25.347663
45.137222 11.041925 -27.381856
44.189819 11.534614 -26.490665
44.725349 10.605264 -25.902073
47.060545 14.413706 -34.055782
46.319786 15.054594 -34.718266
46.237261 14.098728 -33.257218
36.903597 19.288864 -30.9525
37.635855 18.823887 -30.65323
33.843765 19.323645 -32.674042
33.162951 20.269663 -31.77527
32.753818 13.938494 -39.526329
33.022507 14.639893 -38.558365
32.242592 13.200233 -39.033123
32.753818 13.938494 -39.526329
29.739312 16.036333 -33.571586
29.665415 17.390572 -33.109352
29.739312 16.036333 -33.571586
30.373225 15.191238 -34.443184
43.09013 13.384999 -27.537563
42.524895 14.302981 -28.010607
47.641802 8.086972 -26.163256
47.045601 7.084511 -24.827898
48.061857 7.04277 -25.477106
48.534832 13.073272 -32.526824
47.851708 13.810337 -33.268948
47.661144 12.720775 -31.852611
48.534832 13.073272 -32.526824
49.266419 12.36545 -31.661044
25.126044 15.215052 -31.459397
26.046942 13.90946 -31.835149
24.384451 15.002688 -31.237751
25.126044 15.215052 -31.459397
24.712228 13.312693 -31.179172
24.384451 15.002688 -31.237751
24.712228 13.312693 -31.179172
25.747034 11.97758 -31.62167
36.799038 18.440287 -33.519703
36.876372 18.7281 -32.186534
37.573045 18.160658 -33.327399
36.002627 18.511561 -33.598855
36.799038 18.440287 -33.519703
36.6993 17.944119 -34.739719
35.241543 18.658107 -33.719727
36.002627 18.511561 -33.598855
35.141451 17.958016 -34.803986
34.480104 18.600731 -33.704842
35.241543 18.658107 -33.719727
49.116998 7.051775 -26.016793
48.061857 7.04277 -25.477106
49.685239 8.295447 -27.288719
49.116998 7.051775 -26.016793
50.151131 9.442946 -28.628975
49.123949 9.192731 -28.152719
49.685239 8.295447 -27.288719
50.557339 10.7426 -29.923201
50.151131 9.442946 -28.628975
27.784098 16.404333 -32.438358
28.52893 15.309046 -33.036476
27.09885 16.139513 -32.272882
27.784098 16.404333 -32.438358
27.309648 14.586027 -32.455151
27.09885 16.139513 -32.272882
27.309648 14.586027 -32.455151
28.121198 13.497416 -33.103001
38.405738 18.409666 -30.388214
39.117048 17.814285 -30.043855
38.420263 18.03425 -31.729214
37.635855 18.823887 -30.65323
38.405738 18.409666 -30.388214
29.630431 19.978514 -32.030026
30.340342 20.077625 -31.969731
29.654159 18.613228 -32.493935
29.630431 19.978514 -32.030026
30.335654 17.617905 -33.210724
29.665415 17.390572 -33.109352
29.654159 18.613228 -32.493935
40.538385 16.554455 -29.319019
39.864063 17.27105 -29.707073
41.245679 15.893127 -28.913015
41.869695 15.068352 -28.482133
41.391471 15.872231 -30.384628
40.538385 16.554455 -29.319019
41.245679 15.893127 -28.913015
43.860594 15.21361 -33.551979
43.114582 15.808084 -34.021488
43.063425 15.219506 -32.515804
46.031682 7.443669 -24.114912
47.045601 7.084511 -24.827898
45.050991 7.868771 -23.30892
46.031682 7.443669 -24.114912
45.644855 8.553814 -24.708056
44.098312 8.648214 -22.455839
45.050991 7.868771 -23.30892
43.735945 9.827497 -22.98349
44.098312 8.648214 -22.455839
43.735945 9.827497 -22.98349
44.221055 10.038435 -24.456472
43.686394 12.530556 -27.005003
44.189819 11.534614 -26.490665
44.005428 12.825718 -28.503009
43.09013 13.384999 -27.537563
43.686394 12.530556 -27.005003
44.704127 15.270903 -34.488682
43.860594 15.21361 -33.551979
44.652969 14.682323 -32.982998
45.475708 15.540374 -35.408619
44.704127 15.270903 -34.488682
45.475708 15.540374 -35.408619
46.319786 15.054594 -34.718266
47.060545 14.413706 -34.055782
47.851708 13.810337 -33.268948
49.889204 11.54371 -30.852288
50.557339 10.7426 -29.923201
36.903597 19.288864 -30.9525
36.876372 18.7281 -32.186534
32.442805 20.350966 -31.92974
33.162951 20.269663 -31.77527
32.39948 19.262262 -32.720344
32.442805 20.350966 -31.92974
33.743673 18.623553 -33.758301
33.843765 19.323645 -32.674042
34.480104 18.600731 -33.704842
32.319768 18.369524 -33.653301
32.39948 19.262262 -32.720344
33.027622 18.453727 -33.660457
32.278413 17.301261 -34.427471
31.65027 18.109797 -33.487358
32.319768 18.369524 -33.653301
42.964244 16.833815 -37.015091
43.078659 16.210013 -35.51957
42.052719 17.044275 -37.45861
42.964244 16.833815 -37.015091
41.195331 17.31662 -37.801723
41.388179 16.89018 -36.324589
42.052719 17.044275 -37.45861
40.280052 17.374899 -38.099255
41.195331 17.31662 -37.801723
39.41959 17.504234 -38.315556
39.67033 17.29186 -36.884003
40.280052 17.374899 -38.099255
38.526133 17.408691 -38.459114
39.41959 17.504234 -38.315556
37.686228 17.394316 -38.546195
37.969963 17.40682 -37.187386
38.526133 17.408691 -38.459114
36.840807 17.151733 -38.53614
37.686228 17.394316 -38.546195
36.043762 17.001249 -38.498706
36.333013 17.24196 -37.237033
36.840807 17.151733 -38.53614
35.268978 16.627359 -38.345039
36.043762 17.001249 -38.498706
34.53154 16.356793 -38.195377
34.79853 16.820909 -37.049938
35.268978 16.627359 -38.345039
33.84206 15.875208 -37.917416
34.53154 16.356793 -38.195377
33.171902 15.507641 -37.674294
33.390934 16.182776 -36.657154
33.84206 15.875208 -37.917416
32.571381 14.94746 -37.298103
33.171902 15.507641 -37.674294
33.022507 14.639893 -38.558365
31.9021 13.472307 -37.736195
31.445598 13.903135 -36.538014
31.965484 14.51054 -36.983993
31.9021 13.472307 -37.736195
32.242592 13.200233 -39.033123
3 0 40 42
3 42 41 10
3 40 41 42
3 0 43 44
3 45 13 46
3 47 46 11
3 45 46 47
3 1 16 14
3 1 18 16
3 1 48 50
3 50 49 18
3 48 49 50
3 51 19 52
3 54 53 19
3 2 21 20
3 2 23 21
3 55 24 56
3 58 57 24
3 3 59 61
3 59 25 60
3 59 60 61
3 5 26 12
3 5 27 26
3 62 28 63
3 64 29 65
3 66 65 28
3 64 65 66
3 6 67 69
3 67 30 68
3 67 68 69
3 6 31 30
3 7 32 15
3 7 70 72
3 72 71 32
3 70 71 72
3 7 73 75
3 73 33 74
3 73 74 75
3 8 34 17
3 8 35 34
3 8 76 78
3 78 77 35
3 76 77 78
3 4 79 80
3 81 36 82
3 9 37 22
3 9 38 37
3 83 39 84
3 86 85 39
3 10 87 88
3 90 89 10
3 11 12 3
3 13 12 11
3 13 5 12
3 91 6 92
3 14 93 95
3 93 15 94
3 93 94 95
3 16 15 14
3 16 7 15
3 16 17 7
3 18 17 16
3 18 8 17
3 18 96 98
3 98 97 8
3 96 97 98
3 100 99 18
3 19 101 102
3 19 103 104
3 19 105 106
3 108 107 19
3 20 109 111
3 111 110 4
3 109 110 111
3 21 112 114
3 114 113 20
3 112 113 114
3 21 115 116
3 21 117 119
3 117 22 118
3 117 118 119
3 23 22 21
3 23 9 22
3 120 14 121
3 122 14 123
3 124 1 125
3 126 125 14
3 124 125 126
3 128 127 1
3 24 129 130
3 24 131 132
3 24 133 134
3 136 135 24
3 25 137 138
3 25 139 141
3 139 4 140
3 139 140 141
3 12 25 3
3 26 25 12
3 26 4 25
3 26 20 4
3 27 20 26
3 27 2 20
3 28 142 143
3 28 144 145
3 28 146 148
3 146 10 147
3 146 147 148
3 29 10 28
3 29 0 10
3 149 3 150
3 30 151 152
3 30 153 155
3 153 3 154
3 153 154 155
3 30 11 3
3 31 11 30
3 31 156 158
3 158 157 11
3 156 157 158
3 15 159 160
3 32 161 163
3 163 162 15
3 161 162 163
3 32 164 165
3 32 166 167
3 169 168 32
3 33 170 171
3 33 172 174
3 172 6 173
3 172 173 174
3 17 33 7
3 34 33 17
3 34 6 33
3 34 31 6
3 35 31 34
3 35 175 177
3 177 176 31
3 175 176 177
3 35 178 179
3 181 180 35
3 183 182 8
3 185 184 1
3 187 186 4
3 36 188 189
3 36 190 191
3 22 192 194
3 192 36 193
3 192 193 194
3 37 36 22
3 37 195 197
3 197 196 36
3 195 196 197
3 37 198 200
3 198 29 199
3 198 199 200
3 38 29 37
3 38 0 29
3 201 13 202
3 203 13 204
3 205 5 206
3 207 206 13
3 205 206 207
3 208 5 209
3 210 27 211
3 212 211 5
3 210 211 212
3 213 27 214
3 215 2 216
3 217 216 27
3 215 216 217
3 218 2 219
3 220 23 221
3 222 221 2
3 220 221 222
3 223 23 224
3 225 9 226
3 227 226 23
3 225 226 227
3 228 9 229
3 230 38 231
3 232 231 9
3 230 231 232
3 39 233 235
3 233 38 234
3 233 234 235
3 39 0 38
3 39 236 238
3 238 237 0
3 236 237 238
3 240 239 39
