ply
format ascii 1.0
element vertex 188
property float x
property float y
property float z
element face 160
property list uchar int vertex_index
end_header
1.485544 47.925331 27.065704
2.384222 51.405785 35.716843
2.069286 44.058056 32.571877
1.299309 45.057373 47.096252
-0.492823 44.721798 24.300434
0.870848 51.417725 21.060843
2.62731 45.397018 36.231544
2.218548 45.553452 41.219334
2.507483 50.139954 30.824898
2.30562 54.325829 24.79949
-0.588524 50.963318 16.484455
0.990978 44.674843 28.439642
0.585905 46.448486 25.574833
0.183834 48.113045 22.614086
1.176294 49.742287 24.107464
2.459421 42.622295 41.039772
2.140734 42.322803 43.724182
2.56027 48.323059 35.94429
2.584917 47.832626 33.626678
2.577557 50.884789 33.132088
1.789 46.0093 29.903934
2.122238 54.584854 35.555584
2.463554 54.028786 32.738937
2.257896 57.230965 32.43927
-0.209023 49.628006 19.579136
2.521286 45.57756 38.581291
2.301838 48.581322 38.548622
1.78607 45.373207 44.077675
1.880636 48.646484 41.391006
1.994972 51.721024 38.545586
2.485762 44.916103 34.230209
2.330635 47.066841 31.618816
2.140802 49.155556 28.806721
2.579599 53.272285 30.168293
2.410574 52.310966 27.869816
1.93593 51.137459 25.852264
-0.769027 51.528751 14.912347
-0.150665 52.596306 15.632072
2.109213 40.612607 44.89407
2.261933 40.880713 43.530988
1.728234 43.454674 31.874065
1.911864 42.563654 33.154992
1.929143 45.033678 31.237906
1.588091 44.430296 30.540093
1.728234 43.454674 31.874065
2.033107 57.523376 33.946657
2.190067 55.90791 33.997427
1.965278 56.200321 35.504814
-0.808655 42.980259 25.197321
-0.248167 43.902113 25.741455
-1.087313 43.729702 23.75298
-0.808655 42.980259 25.197321
-0.733306 45.478174 22.82102
-1.087313 43.729702 23.75298
0.722288 52.169522 19.503802
0.182353 51.274662 18.762949
0.330912 50.522865 20.319989
1.54269 45.21529 45.586963
1.752593 43.646837 45.336445
1.509213 43.48892 46.845734
1.688851 50.244061 41.481119
1.63041 48.593021 42.903421
1.746018 51.78133 40.058409
1.937804 50.183754 39.968296
1.688851 50.244061 41.481119
1.81858 53.330193 38.561888
1.746018 51.78133 40.058409
2.556536 45.15656 35.230877
2.531529 43.825464 35.393304
2.602304 44.065922 36.393972
2.56004 54.860816 29.902676
2.521577 53.650535 31.453615
2.502017 55.239067 31.187998
2.358097 53.318398 26.334653
2.491931 53.895836 27.47638
2.439454 54.903267 25.941216
2.016902 53.65128 23.796957
1.832057 52.057095 24.323344
2.120775 52.731644 25.325877
2.184127 43.118719 33.774157
1.911864 42.563654 33.154992
-1.238927 49.854866 15.863504
-1.015046 49.274395 17.401905
-1.238927 49.854866 15.863504
-0.769027 51.528751 14.912347
0.493733 43.878636 27.811059
0.739251 43.019751 29.204062
0.291197 44.765457 26.378655
0.493733 43.878636 27.811059
0.788442 45.561665 27.007238
0.046541 45.585142 24.937634
-0.248167 43.902113 25.741455
0.291197 44.765457 26.378655
2.421276 41.030459 42.188783
2.506387 41.271333 40.925133
2.300077 42.472549 42.381977
2.421276 41.030459 42.188783
2.261933 40.880713 43.530988
1.339746 46.798465 45.756044
1.091267 46.662563 47.331587
2.434572 55.913624 24.351674
2.439454 54.903267 25.941216
2.252431 55.245972 23.221344
2.434572 55.913624 24.351674
1.18908 43.763068 29.807947
0.739251 43.019751 29.204062
1.389989 45.342072 29.171788
1.18908 43.763068 29.807947
1.588091 44.430296 30.540093
1.279734 43.241436 48.347156
1.509213 43.48892 46.845734
1.065225 44.834785 48.658234
1.279734 43.241436 48.347156
1.091267 46.662563 47.331587
1.065225 44.834785 48.658234
2.399188 56.840156 31.038164
2.502017 55.239067 31.187998
2.360725 55.629875 32.589104
2.123921 58.846229 32.328366
2.033107 57.523376 33.946657
2.328614 58.4435 30.828274
2.123921 58.846229 32.328366
2.399188 56.840156 31.038164
2.328614 58.4435 30.828274
-0.394977 47.173797 21.977846
-0.733306 45.478174 22.82102
-0.154495 46.417422 23.45726
-0.591406 47.931278 20.460371
-0.394977 47.173797 21.977846
-0.012594 48.870525 21.096611
-0.825295 48.606739 18.949245
-0.591406 47.931278 20.460371
-0.398774 50.295662 18.031796
-1.015046 49.274395 17.401905
-0.825295 48.606739 18.949245
-0.007398 51.942318 17.215609
-0.398774 50.295662 18.031796
0.182353 51.274662 18.762949
-0.150665 52.596306 15.632072
-0.007398 51.942318 17.215609
2.622604 44.092674 37.423099
2.602304 44.065922 36.393972
2.538659 42.705313 39.827213
2.506387 41.271333 40.925133
2.569592 44.182945 38.597973
2.538659 42.705313 39.827213
2.490353 44.099927 39.810531
2.574298 45.487289 37.406418
2.622604 44.092674 37.423099
2.569592 44.182945 38.597973
1.929925 42.121635 45.159699
2.109213 40.612607 44.89407
1.963402 43.848005 43.900928
1.929925 42.121635 45.159699
1.752593 43.646837 45.336445
1.583127 46.956383 44.246755
1.54269 45.21529 45.586963
1.339746 46.798465 45.756044
1.833353 47.009845 42.734341
1.583127 46.956383 44.246755
1.63041 48.593021 42.903421
1.882213 54.762108 37.066887
2.058605 53.152939 37.050585
1.81858 53.330193 38.561888
1.965278 56.200321 35.504814
1.882213 54.762108 37.066887
2.392365 43.547742 34.603323
2.531529 43.825464 35.393304
2.277524 44.48708 33.401043
2.184127 43.118719 33.774157
2.392365 43.547742 34.603323
2.576443 54.376495 28.625618
2.56004 54.860816 29.902676
2.495087 52.791625 29.019054
2.576443 54.376495 28.625618
2.491931 53.895836 27.47638
1.452239 51.359509 23.450944
1.556112 50.439873 24.979864
1.832057 52.057095 24.323344
1.299516 52.197227 21.927633
1.023571 50.580006 22.584153
1.452239 51.359509 23.450944
2.016902 53.65128 23.796957
2.252431 55.245972 23.221344
1.197235 53.032207 20.360343
1.299516 52.197227 21.927633
0.722288 52.169522 19.503802
1.197235 53.032207 20.360343
3 37 36 10
3 0 12 11
3 0 14 12
3 38 16 39
3 1 19 17
3 2 40 41
3 2 42 44
3 42 20 43
3 42 43 44
3 45 23 46
3 47 46 21
3 45 46 47
3 4 48 49
3 4 50 51
3 4 52 53
3 5 24 13
3 5 54 56
3 56 55 24
3 54 55 56
3 7 25 15
3 7 26 25
3 3 57 59
3 57 27 58
3 57 58 59
3 60 28 61
3 62 29 63
3 64 63 28
3 62 63 64
3 66 65 29
3 6 67 69
3 67 30 68
3 67 68 69
3 8 31 18
3 8 32 31
3 70 33 71
3 72 71 22
3 70 71 72
3 9 73 75
3 73 34 74
3 73 74 75
3 9 35 34
3 9 76 78
3 78 77 35
3 76 77 78
3 79 2 80
3 10 81 82
3 84 83 10
3 11 85 86
3 12 87 89
3 89 88 11
3 87 88 89
3 12 90 92
3 90 4 91
3 90 91 92
3 12 13 4
3 14 13 12
3 14 5 13
3 93 15 94
3 16 95 97
3 95 15 96
3 95 96 97
3 16 7 15
3 99 98 3
3 17 18 6
3 19 18 17
3 19 8 18
3 100 9 101
3 103 102 9
3 104 11 105
3 20 106 108
3 106 11 107
3 106 107 108
3 20 0 11
3 109 3 110
3 111 3 112
3 114 113 3
3 21 22 1
3 23 22 21
3 23 115 117
3 117 116 22
3 115 116 117
3 118 23 119
3 120 23 121
3 123 122 23
3 13 124 126
3 126 125 4
3 124 125 126
3 24 127 129
3 129 128 13
3 127 128 129
3 24 130 131
3 24 132 134
3 132 10 133
3 132 133 134
3 135 10 136
3 137 136 24
3 135 136 137
3 139 138 10
3 140 6 141
3 15 142 143
3 25 144 146
3 146 145 15
3 144 145 146
3 25 147 149
3 147 6 148
3 147 148 149
3 25 17 6
3 26 17 25
3 26 1 17
3 150 16 151
3 27 152 154
3 152 16 153
3 152 153 154
3 27 7 16
3 155 27 156
3 157 156 3
3 155 156 157
3 28 158 160
3 158 27 159
3 158 159 160
3 28 7 27
3 28 26 7
3 29 26 28
3 29 1 26
3 29 21 1
3 161 21 162
3 163 162 29
3 161 162 163
3 165 164 21
3 30 166 167
3 30 168 170
3 168 2 169
3 168 169 170
3 18 30 6
3 31 30 18
3 31 2 30
3 31 20 2
3 32 20 31
3 32 0 20
3 22 19 1
3 33 19 22
3 33 8 19
3 171 33 172
3 34 173 175
3 173 33 174
3 173 174 175
3 34 8 33
3 34 32 8
3 35 32 34
3 35 0 32
3 35 14 0
3 176 14 177
3 178 177 35
3 176 177 178
3 179 5 180
3 181 180 14
3 179 180 181
3 183 182 9
3 184 5 185
3 187 186 5
