ply
format ascii 1.0
element vertex 61
property float x
property float y
property float z
element face 46
property list uchar int vertex_index
end_header
50.118759 -63.651058 -29.787161
47.207874 -60.8134 -31.111921
52.398636 -54.849731 -32.79483
51.61116 -64.86882 -29.112837
52.706577 -60.589218 -30.539446
48.651596 -62.299572 -30.454821
51.25053 -59.26585 -31.227175
49.811356 -57.822975 -31.905989
53.82032 -56.252987 -32.094574
47.795166 -58.536093 -31.839259
46.496229 -59.998736 -31.427713
52.89579 -63.326729 -29.475044
52.365478 -65.407066 -28.764742
53.443499 -61.186927 -30.188349
52.89579 -63.326729 -29.475044
52.158868 -62.729019 -29.826141
53.978811 -59.065928 -30.956274
53.443499 -61.186927 -30.188349
53.661079 -53.360594 -33.280052
52.962963 -52.632429 -33.634754
49.096907 -57.04088 -32.236293
48.509615 -59.318188 -31.508955
47.795166 -58.536093 -31.839259
50.394669 -55.581522 -32.688632
49.096907 -57.04088 -32.236293
51.688309 -54.0949 -33.133052
51.104996 -56.336353 -32.350409
50.394669 -55.581522 -32.688632
52.962963 -52.632429 -33.634754
51.688309 -54.0949 -33.133052
51.080368 -66.97657 -28.46897
52.365478 -65.407066 -28.764742
50.317827 -66.430954 -28.800199
51.080368 -66.97657 -28.46897
49.571626 -65.822073 -29.137362
50.864959 -64.259939 -29.449999
50.317827 -66.430954 -28.800199
48.821462 -65.203146 -29.459879
49.571626 -65.822073 -29.137362
48.087881 -64.527403 -29.793709
49.385177 -62.975315 -30.120991
48.821462 -65.203146 -29.459879
47.353302 -63.834188 -30.109676
48.087881 -64.527403 -29.793709
46.631441 -63.091102 -30.438226
47.929735 -61.556486 -30.783371
47.353302 -63.834188 -30.109676
45.912492 -62.319636 -30.742073
46.631441 -63.091102 -30.438226
46.496229 -59.998736 -31.427713
45.912492 -62.319636 -30.742073
54.535683 -56.897812 -31.733838
53.978811 -59.065928 -30.956274
53.263449 -58.421103 -31.31701
54.371921 -54.062221 -32.929924
53.109478 -55.551359 -32.444702
53.661079 -53.360594 -33.280052
55.065689 -54.740122 -32.554364
54.371921 -54.062221 -32.929924
54.535683 -56.897812 -31.733838
55.065689 -54.740122 -32.554364
3 0 4 3
3 1 7 5
3 2 8 6
3 10 9 1
3 3 11 12
3 4 13 15
3 15 14 3
3 13 14 15
3 4 16 17
3 19 18 2
3 5 6 0
3 7 6 5
3 7 2 6
3 20 7 21
3 22 21 1
3 20 21 22
3 23 7 24
3 25 2 26
3 27 26 7
3 25 26 27
3 29 28 2
3 30 3 31
3 32 3 33
3 34 0 35
3 36 35 3
3 34 35 36
3 37 0 38
3 39 5 40
3 41 40 0
3 39 40 41
3 42 5 43
3 44 1 45
3 46 45 5
3 44 45 46
3 47 1 48
3 50 49 1
3 6 4 0
3 8 4 6
3 8 51 53
3 53 52 4
3 51 52 53
3 54 8 55
3 56 55 2
3 54 55 56
3 57 8 58
3 60 59 8
