ply
format ascii 1.0
element vertex 200
property float x
property float y
property float z
element face 191
property list uchar int vertex_index
end_header
-12.786459 85.963272 -13.172527
-4.59244 81.961609 -22.825436
-16.539009 79.116287 -21.887619
-19.321136 83.177872 -13.208656
-21.549538 80.398224 -17.445999
-14.451715 83.260864 -18.195358
-5.899792 77.236404 -27.171719
-8.33 85.11441 -18.184132
-17.490376 84.781891 -7.988592
-23.869219 76.00032 -20.513866
-18.759426 73.381241 -24.179943
-9.818621 81.29451 -22.917046
-11.801834 75.944611 -26.048832
-15.950333 84.658081 -13.290766
-16.89053 83.454315 -15.729008
-13.552179 84.767838 -15.833336
-20.672699 83.15979 -8.079908
-19.046463 79.993408 -19.700211
-22.718832 78.414185 -19.130569
-20.182251 77.649734 -21.193764
-21.304775 74.896332 -22.367092
-17.650494 76.435562 -23.19746
-6.349079 83.822922 -20.568985
-9.000135 83.388931 -20.739388
-6.968695 81.856598 -23.050148
-6.796902 74.324417 -28.675041
-8.667059 76.785904 -26.760147
-9.696545 73.705154 -27.977303
-22.796949 81.595764 -12.989065
-23.978292 80.362137 -15.115414
-20.402431 81.968811 -15.465078
-17.935179 81.918121 -17.874786
-15.459559 81.389496 -20.220814
-5.159372 79.786865 -25.21719
-9.924095 86.98494 -12.802464
-10.494799 85.821411 -15.7085
-7.815004 86.506683 -15.301279
-21.683685 82.503708 -10.634926
-18.342806 84.09407 -10.706007
-15.139723 85.591324 -10.596264
-14.465956 86.303818 -7.683193
-25.184669 78.735931 -16.988743
-26.372671 76.678162 -18.591518
-27.506195 74.192688 -19.921207
-22.386599 71.784943 -23.257809
-19.841179 70.023376 -24.891453
-11.213573 84.357498 -18.323318
-12.07218 82.54776 -20.598133
-13.046228 80.353912 -22.497398
-7.747883 79.511597 -25.121265
-10.763191 78.810837 -24.68721
-14.101189 77.760651 -24.008568
-15.200153 74.786545 -25.148232
-8.75967 72.397598 -28.862631
-8.246723 74.014785 -28.326172
-7.309848 72.707229 -29.2115
-10.249598 72.013756 -28.396625
-8.75967 72.397598 -28.862631
-7.629565 87.054824 -13.725354
-8.869549 86.745812 -14.051872
-8.68411 87.293953 -12.475946
-22.807606 82.009354 -9.318815
-23.375497 81.686829 -10.537326
-13.068852 86.954102 -7.407493
-14.191914 86.563149 -6.134721
-13.314477 86.600609 -8.970307
-13.068852 86.954102 -7.407493
-24.419181 74.592758 -21.063383
-26.237669 73.688942 -20.767053
-25.687707 75.096504 -20.217537
-21.784497 82.552223 -6.74357
-22.302112 82.337395 -8.041307
-20.227777 83.392517 -6.714498
-21.784497 82.552223 -6.74357
-18.636615 84.203567 -6.668839
-19.081538 83.970841 -8.03425
-20.227777 83.392517 -6.714498
-11.298139 73.219955 -27.505089
-12.350783 74.339684 -26.540854
-10.749189 74.824883 -27.013067
-11.298139 73.219955 -27.505089
-10.249598 72.013756 -28.396625
-23.387621 80.97895 -14.052239
-25.126534 80.149865 -13.905619
-24.535863 80.766678 -12.842444
-4.119086 79.681358 -25.065315
-4.875906 80.874237 -24.021313
-3.83562 80.76873 -23.869439
-4.375396 78.5093 -26.20829
-4.119086 79.681358 -25.065315
-4.745607 77.23407 -27.185555
-5.529582 78.511634 -26.194454
-4.375396 78.5093 -26.20829
-5.096913 75.880699 -28.098404
-4.745607 77.23407 -27.185555
-5.545467 74.424706 -28.850065
-6.348347 75.78041 -27.92338
-5.096913 75.880699 -28.098404
-5.984597 72.903099 -29.529566
-5.545467 74.424706 -28.850065
-7.309848 72.707229 -29.2115
-5.984597 72.903099 -29.529566
-6.701848 86.613335 -14.942825
-7.629565 87.054824 -13.725354
-6.854222 85.969978 -16.513701
-6.701848 86.613335 -14.942825
-7.11172 85.273842 -17.955128
-8.072502 85.810547 -16.742705
-6.854222 85.969978 -16.513701
-6.121259 84.628097 -19.147554
-7.339539 84.468666 -19.376559
-7.11172 85.273842 -17.955128
-5.274721 83.796234 -20.305149
-6.121259 84.628097 -19.147554
-4.396401 82.865578 -21.433374
-5.470759 82.892266 -21.697211
-5.274721 83.796234 -20.305149
-3.673311 81.757782 -22.516794
-4.396401 82.865578 -21.433374
-3.83562 80.76873 -23.869439
-3.673311 81.757782 -22.516794
-23.932129 81.232856 -11.714396
-24.535863 80.766678 -12.842444
-22.240317 82.049736 -11.811996
-23.932129 81.232856 -11.714396
-23.375497 81.686829 -10.537326
-21.178192 82.831749 -9.357417
-22.807606 82.009354 -9.318815
-22.302112 82.337395 -8.041307
-17.129438 85.033966 -6.537342
-18.636615 84.203567 -6.668839
-15.617228 85.794929 -6.384642
-14.191914 86.563149 -6.134721
-15.978166 85.542855 -7.835892
-17.129438 85.033966 -6.537342
-15.617228 85.794929 -6.384642
-13.65136 86.244362 -10.426842
-14.80284 85.947571 -9.139729
-13.314477 86.600609 -8.970307
-12.474729 86.430336 -11.714974
-13.963091 85.777298 -11.884396
-13.65136 86.244362 -10.426842
-11.043546 86.94117 -11.529943
-11.355277 86.474106 -12.987496
-12.474729 86.430336 -11.714974
-9.70778 87.435432 -11.229882
-11.043546 86.94117 -11.529943
-8.68411 87.293953 -12.475946
-9.70778 87.435432 -11.229882
-25.746229 79.50312 -14.930548
-25.126534 80.149865 -13.905619
-26.349418 78.690017 -15.867213
-25.746229 79.50312 -14.930548
-24.58148 79.549034 -16.052079
-26.963328 77.835159 -16.776629
-26.349418 78.690017 -15.867213
-27.557329 76.806275 -17.578016
-26.963328 77.835159 -16.776629
-25.77867 77.707046 -17.790131
-28.145563 75.7341 -18.362911
-27.557329 76.806275 -17.578016
-28.712325 74.491364 -19.027755
-28.145563 75.7341 -18.362911
-26.939433 75.435425 -19.256363
-29.259363 73.215401 -19.686163
-28.712325 74.491364 -19.027755
-28.033333 72.760841 -20.458478
-29.259363 73.215401 -19.686163
-28.033333 72.760841 -20.458478
-26.237669 73.688942 -20.767053
-23.136959 74.040764 -21.989996
-24.419181 74.592758 -21.063383
-22.586997 75.448326 -21.440479
-23.677871 72.48507 -22.435355
-23.136959 74.040764 -21.989996
-21.845687 73.340637 -22.812451
-24.192971 70.911889 -22.863098
-23.677871 72.48507 -22.435355
-22.89944 70.09301 -23.592467
-24.192971 70.911889 -22.863098
-21.62673 69.212226 -24.409288
-22.89944 70.09301 -23.592467
-21.113889 70.904159 -24.074631
-20.361598 68.239372 -25.150169
-21.62673 69.212226 -24.409288
-14.049943 73.76065 -26.090553
-13.500993 75.365578 -25.598532
-12.350783 74.339684 -26.540854
-15.755458 73.136063 -25.555481
-14.049943 73.76065 -26.090553
-17.535095 72.433411 -25.071337
-16.97979 74.083893 -24.664088
-15.755458 73.136063 -25.555481
-18.075972 70.754478 -25.427091
-19.300303 71.702309 -24.535698
-17.535095 72.433411 -25.071337
-18.625322 68.981178 -25.707359
-18.075972 70.754478 -25.427091
-20.361598 68.239372 -25.150169
-18.625322 68.981178 -25.707359
3 0 15 13
3 2 19 17
3 2 21 19
3 1 24 22
3 53 27 54
3 55 54 25
3 53 54 55
3 57 56 27
3 3 30 28
3 5 31 14
3 5 32 31
3 58 36 59
3 60 59 34
3 58 59 60
3 61 37 62
3 8 38 16
3 8 39 38
3 63 40 64
3 66 65 40
3 4 41 29
3 9 42 18
3 9 43 42
3 9 67 69
3 69 68 43
3 67 68 69
3 10 44 20
3 10 45 44
3 7 46 35
3 11 47 23
3 11 48 47
3 6 49 33
3 12 50 26
3 12 51 50
3 12 52 51
3 13 14 3
3 15 14 13
3 15 5 14
3 70 16 71
3 72 16 73
3 74 8 75
3 76 75 16
3 74 75 76
3 17 18 4
3 19 18 17
3 19 9 18
3 19 20 9
3 21 20 19
3 21 10 20
3 22 23 7
3 24 23 22
3 24 11 23
3 25 26 6
3 27 26 25
3 27 12 26
3 27 77 79
3 79 78 12
3 77 78 79
3 81 80 27
3 28 82 84
3 82 29 83
3 82 83 84
3 30 29 28
3 30 4 29
3 14 30 3
3 31 30 14
3 31 4 30
3 31 17 4
3 32 17 31
3 32 2 17
3 85 33 86
3 87 86 1
3 85 86 87
3 88 33 89
3 90 6 91
3 92 91 33
3 90 91 92
3 93 6 94
3 95 25 96
3 97 96 6
3 95 96 97
3 98 25 99
3 101 100 25
3 34 35 0
3 36 35 34
3 36 7 35
3 102 36 103
3 104 36 105
3 106 7 107
3 108 107 36
3 106 107 108
3 109 22 110
3 111 110 7
3 109 110 111
3 112 22 113
3 114 1 115
3 116 115 22
3 114 115 116
3 117 1 118
3 120 119 1
3 121 28 122
3 37 123 125
3 123 28 124
3 123 124 125
3 37 3 28
3 16 126 128
3 126 37 127
3 126 127 128
3 38 37 16
3 38 3 37
3 38 13 3
3 39 13 38
3 39 0 13
3 129 8 130
3 40 131 132
3 40 133 135
3 133 8 134
3 133 134 135
3 40 39 8
3 136 39 137
3 138 137 40
3 136 137 138
3 139 0 140
3 141 140 39
3 139 140 141
3 142 34 143
3 144 143 0
3 142 143 144
3 145 34 146
3 148 147 34
3 29 149 150
3 41 151 153
3 153 152 29
3 151 152 153
3 41 154 155
3 18 41 4
3 42 41 18
3 42 156 158
3 158 157 41
3 156 157 158
3 42 159 160
3 43 161 163
3 163 162 42
3 161 162 163
3 43 164 165
3 43 166 167
3 169 168 43
3 20 170 172
3 172 171 9
3 170 171 172
3 44 173 175
3 175 174 20
3 173 174 175
3 44 176 177
3 44 178 179
3 45 180 182
3 182 181 44
3 180 181 182
3 45 183 184
3 35 15 0
3 46 15 35
3 46 5 15
3 23 46 7
3 47 46 23
3 47 5 46
3 47 32 5
3 48 32 47
3 48 2 32
3 33 24 1
3 49 24 33
3 49 11 24
3 26 49 6
3 50 49 26
3 50 11 49
3 50 48 11
3 51 48 50
3 51 2 48
3 51 21 2
3 52 21 51
3 52 10 21
3 185 52 186
3 187 186 12
3 185 186 187
3 188 52 189
3 190 10 191
3 192 191 52
3 190 191 192
3 193 45 194
3 195 194 10
3 193 194 195
3 196 45 197
3 199 198 45
