ply
format ascii 1.0
element vertex 76
property float x
property float y
property float z
element face 55
property list uchar int vertex_index
end_header
33.691959 56.614212 -23.119101
27.788845 59.200493 -24.671629
30.838873 57.930626 -23.841757
28.713238 55.654694 -25.007967
37.319633 63.63855 -20.617296
25.72979 56.771042 -25.944307
33.023781 60.050667 -22.75773
35.208023 61.971947 -21.707701
35.855263 58.566238 -22.095934
32.619267 55.557457 -23.660002
31.192725 56.215664 -24.02133
32.265416 57.272419 -23.480429
33.905946 54.966202 -23.274515
32.619267 55.557457 -23.660002
26.759318 57.985768 -25.307968
25.187266 58.592083 -25.811224
26.216793 59.806809 -25.174885
27.702258 54.451614 -25.637604
29.092278 53.95393 -25.188967
32.586176 61.807201 -22.562314
31.484706 60.764568 -23.123487
36.59032 61.141941 -21.389384
36.263828 62.805249 -21.162498
37.646125 61.975243 -20.844181
36.91394 59.439087 -21.5835
35.531643 60.269092 -21.901817
36.59032 61.141941 -21.389384
30.129907 55.077698 -24.604435
29.776055 56.79266 -24.424862
31.192725 56.215664 -24.02133
29.092278 53.95393 -25.188967
30.129907 55.077698 -24.604435
38.301645 64.315349 -20.010345
36.864768 65.284165 -20.324524
38.64698 62.717106 -20.291669
38.301645 64.315349 -20.010345
37.646125 61.975243 -20.844181
38.64698 62.717106 -20.291669
24.211969 57.306946 -26.500853
25.187266 58.592083 -25.811224
24.766312 55.493199 -26.62055
24.211969 57.306946 -26.500853
26.210534 55.009788 -26.105774
27.221514 56.212868 -25.476137
27.702258 54.451614 -25.637604
24.766312 55.493199 -26.62055
26.210534 55.009788 -26.105774
27.257157 61.017929 -24.524324
26.216793 59.806809 -25.174885
28.867238 60.339482 -24.080436
27.257157 61.017929 -24.524324
30.392252 59.704548 -23.665501
29.313859 58.565559 -24.256693
28.867238 60.339482 -24.080436
31.931327 58.990646 -23.299743
30.392252 59.704548 -23.665501
31.484706 60.764568 -23.123487
35.824509 64.519813 -20.929327
36.864768 65.284165 -20.324524
34.768704 63.686512 -21.47453
35.824509 64.519813 -20.929327
36.263828 62.805249 -21.162498
33.678297 62.767842 -22.0373
34.768704 63.686512 -21.47453
34.115902 61.011307 -22.232715
32.586176 61.807201 -22.562314
33.678297 62.767842 -22.0373
37.092779 57.806469 -21.741343
36.91394 59.439087 -21.5835
36.045533 56.916515 -22.24568
37.092779 57.806469 -21.741343
34.963881 55.940502 -22.757264
34.773611 57.590225 -22.607518
36.045533 56.916515 -22.24568
33.905946 54.966202 -23.274515
34.963881 55.940502 -22.757264
3 0 9 11
3 11 10 2
3 9 10 11
3 0 12 13
3 1 14 16
3 14 5 15
3 14 15 16
3 18 17 3
3 19 6 20
3 21 7 22
3 23 22 4
3 21 22 23
3 24 8 25
3 26 25 7
3 24 25 26
3 2 3 1
3 27 3 28
3 29 28 2
3 27 28 29
3 31 30 3
3 32 4 33
3 34 4 35
3 37 36 4
3 5 38 39
3 5 40 41
3 3 5 1
3 42 5 43
3 44 43 3
3 42 43 44
3 46 45 5
3 47 1 48
3 49 1 50
3 51 2 52
3 53 52 1
3 51 52 53
3 6 54 56
3 54 2 55
3 54 55 56
3 6 0 2
3 4 57 58
3 7 59 61
3 61 60 4
3 59 60 61
3 7 62 63
3 7 64 66
3 64 6 65
3 64 65 66
3 8 6 7
3 8 0 6
3 67 8 68
3 69 8 70
3 71 0 72
3 73 72 8
3 71 72 73
3 75 74 0
