ply
format ascii 1.0
element vertex 592
property float x
property float y
property float z
element face 664
property list uchar int vertex_index
end_header
66.567352 -42.63744 30.611313
66.253845 -26.89855 33.759777
64.633827 -54.137817 35.451302
66.56028 -19.858797 25.22102
60.539753 -58.92271 27.865288
69.885635 -46.011452 21.698719
64.295364 -35.81469 35.232738
66.557228 -23.323652 39.77034
66.633461 -32.428722 42.230412
67.418236 -41.001617 40.831326
65.543945 -47.186951 43.843513
68.462013 -47.725018 33.028332
66.357849 -52.066395 24.44595
63.238335 -40.404182 29.018539
62.007118 -40.429283 24.030262
66.007637 -42.470764 25.234264
68.871819 -43.531353 20.716988
68.628181 -44.670998 26.266201
66.253708 -23.637493 29.385178
63.871864 -28.430792 30.784777
62.136147 -33.013592 31.685635
64.91761 -31.473991 34.968727
66.906845 -36.825508 42.420204
66.661713 -39.7187 45.150414
63.243729 -54.38596 40.59687
63.378967 -50.640511 44.443844
65.408424 -50.937737 39.73238
67.288925 -47.655273 38.712418
66.899506 -50.802261 34.203537
68.012352 -50.15097 28.486351
65.62326 -53.37392 29.920244
60.385586 -57.163506 22.78661
69.283974 -14.779074 24.047085
68.578911 -18.700371 28.148722
67.792969 -22.135548 32.454285
62.393387 -57.592003 36.742287
62.997566 -56.770466 31.486479
60.642532 -60.253529 33.045265
58.885498 -34.304798 28.34621
61.797977 -37.153259 31.255156
64.861221 -39.655128 33.811783
67.866501 -20.408228 35.680588
67.145844 -25.163502 36.800621
66.513123 -27.942936 41.02951
66.513428 -29.747549 38.127514
66.137459 -34.175388 38.943581
66.318848 -38.376892 38.336872
67.213112 -42.071178 35.866119
65.26059 -42.95974 46.944298
67.107109 -43.927689 42.664188
68.077927 -44.6866 37.457523
68.461357 -45.012093 31.885984
69.266617 -47.220284 27.287159
68.846275 -48.88987 22.920496
63.343346 -55.432106 26.163612
63.563576 -53.614086 21.004688
65.029541 -41.520329 29.86235
64.520782 -41.586086 27.276077
66.250504 -42.65593 27.932308
67.540665 -43.535835 25.764463
67.62439 -43.762642 28.523777
66.208595 -25.328905 31.55904
65.029381 -26.05587 30.097158
65.228607 -27.691986 32.2547
64.342415 -30.008423 32.883476
65.532028 -29.209328 34.424419
66.398087 -37.504284 45.678871
64.002495 -54.32518 38.110786
64.320404 -52.651073 40.17709
65.117126 -52.608929 37.57122
66.210106 -50.928032 37.025192
65.798538 -52.446804 34.820141
66.387009 -52.157909 32.002335
65.166565 -53.821903 32.699394
69.040787 -18.019131 29.792822
68.174957 -20.474615 30.287241
68.518936 -19.701855 31.92412
60.947235 -59.537392 39.784966
61.909531 -57.798618 39.204712
61.367496 -59.331928 37.403419
61.628227 -58.985973 34.877365
60.586018 -60.732597 35.604469
69.648674 -44.718597 21.187151
69.881386 -43.83812 18.456589
70.158669 -45.133259 18.976212
69.90419 -46.531292 19.562229
66.742729 -17.765224 23.274471
65.036552 -20.344664 24.012093
63.185623 -34.460091 33.498581
61.753159 -35.164482 31.681393
63.079109 -36.532089 33.271896
63.360184 -38.433365 32.591965
64.415138 -37.821999 34.757984
67.436371 -19.510296 37.28046
67.216515 -21.885765 37.746384
67.50309 -22.801752 36.193966
67.014854 -24.247421 38.300106
66.09552 -29.320787 43.029243
66.556938 -30.198 41.691559
66.715904 -28.847176 39.618439
66.623535 -31.088951 40.230576
66.27655 -31.979824 38.660091
66.583206 -33.303001 40.653381
67.130577 -38.957787 41.869316
66.762451 -37.617584 40.450821
67.027351 -39.662712 39.665604
66.685371 -40.307762 37.330692
67.406731 -41.581264 38.402138
64.491226 -48.900688 44.206299
63.26635 -48.586521 46.202217
64.403229 -46.841713 45.982742
65.444351 -45.124802 45.57502
66.447281 -45.521988 43.333298
67.934532 -47.750687 35.901333
67.868835 -46.125244 38.119354
68.340134 -46.287766 35.313377
68.319954 -44.919678 34.691483
68.696579 -46.320518 32.460968
68.974548 -46.196892 29.603247
68.897636 -47.554882 30.145912
67.3442 -51.16555 26.385822
68.460678 -49.600471 25.674812
67.726776 -50.448486 23.648275
68.045197 -49.582375 20.972473
66.640518 -51.204353 21.790859
61.849388 -57.894516 29.645191
63.190163 -56.163696 28.813499
61.886055 -57.164085 27.029018
61.918343 -55.371914 21.914055
61.918327 -54.326027 19.431036
63.621071 -52.542942 18.50576
61.315979 -39.252289 28.080395
62.550552 -40.517994 26.544977
64.125145 -41.446915 24.658085
67.521362 -43.09848 23.009338
68.729019 -44.204559 23.479202
69.426788 -45.40509 23.957592
66.381508 -21.815556 27.264553
64.959915 -22.386362 25.949108
64.945168 -24.289272 27.985271
63.535423 -26.726105 28.712784
62.255051 -29.119576 29.363815
62.874161 -30.756296 31.35113
63.63237 -32.27182 33.336155
64.4814 -33.684368 35.275169
66.481079 -33.807812 44.084824
66.745697 -34.640778 42.513168
66.698662 -36.032074 44.200829
66.932777 -38.22908 43.892136
67.184837 -40.370056 43.101704
63.382118 -52.576973 42.547478
64.472374 -50.840462 42.236649
65.540413 -49.128246 41.857506
66.499725 -47.461445 41.389122
66.432076 -49.265511 39.247372
67.187332 -49.30228 36.469528
67.827431 -49.222767 33.606277
68.37233 -49.008438 30.721064
67.495384 -50.547775 31.339905
66.898918 -51.733585 29.177679
66.018326 -52.789726 27.159889
60.457817 -58.091881 25.305412
68.257065 -15.18115 22.634268
68.033043 -17.315002 24.573696
68.965424 -16.804514 26.060112
67.75061 -19.313606 26.610092
67.462044 -21.180439 28.720964
67.211304 -22.920229 30.884274
67.023491 -24.540127 33.078392
62.218437 -56.12714 41.014328
62.925789 -56.059292 38.651222
63.48484 -55.857666 36.092381
63.931145 -55.523312 33.418182
62.742943 -57.248035 34.146881
61.774719 -58.504444 32.273666
60.612404 -59.646751 30.453098
60.524345 -33.693634 30.022648
60.27943 -35.784821 29.827065
60.540482 -37.659508 29.185656
62.301582 -38.917519 30.364616
64.029175 -40.109135 31.443066
65.605309 -41.268764 32.408051
68.516335 -18.876413 33.589024
68.00161 -21.292049 34.063362
67.451828 -23.693375 34.63134
66.898575 -26.0525 35.281616
66.509911 -25.652618 40.362762
66.847183 -26.56942 38.941978
66.811127 -27.47805 37.470688
66.370033 -28.362705 35.959343
65.90152 -30.628374 36.571465
65.541359 -32.851673 37.001205
65.347511 -35.021263 37.12878
66.620056 -35.486034 40.760788
66.13974 -36.318626 38.863266
65.374382 -37.107712 36.853848
65.654709 -39.067627 36.11515
66.18338 -40.854805 34.902863
66.909363 -42.434044 33.260979
66.903015 -41.870934 44.135262
67.445335 -42.41954 41.830883
67.247917 -45.861477 40.818634
67.687706 -44.345234 40.136784
67.749092 -42.920345 39.334488
67.860657 -43.339684 36.712219
67.837036 -43.641197 34.015129
67.739113 -43.791267 31.278351
68.549881 -44.936024 29.071657
69.208435 -45.896118 26.764694
69.590721 -46.707703 24.469311
68.839859 -48.641777 27.856564
69.244919 -48.10968 25.036854
69.598099 -47.405785 22.271786
69.17038 -48.019562 20.226675
64.295769 -55.057106 30.696362
64.601471 -54.459419 27.977226
64.860954 -53.730755 25.293322
61.906307 -56.32077 24.448032
63.467934 -54.580246 23.557623
65.077011 -52.873119 22.661823
65.244064 -51.891918 20.0882
65.35051 -50.797783 17.570196
69.097626 -17.649284 30.640897
69.394478 -16.811802 29.597285
68.836701 -18.490645 31.706546
68.779861 -18.860493 30.858471
69.097626 -17.649284 30.640897
60.670376 -60.306444 38.931591
60.482214 -60.407486 40.092999
60.880507 -60.203712 37.740818
61.157365 -59.43466 38.594192
60.670376 -60.306444 38.931591
60.489767 -60.904047 36.841343
60.976757 -60.032263 36.503944
60.880507 -60.203712 37.740818
66.886871 -22.604709 38.758362
66.934533 -21.428189 38.511143
66.604889 -22.147132 39.523121
66.5952 -31.313361 41.960985
66.417412 -30.884478 42.670688
66.455673 -31.999839 42.940115
61.096624 -54.687309 18.661541
61.122837 -55.235979 19.872991
61.905974 -53.760573 18.214475
61.096624 -54.687309 18.661541
65.938622 -42.269577 23.8806
64.997376 -41.757652 23.59251
65.066391 -41.958839 24.946174
66.764499 -42.784622 24.121801
66.695484 -42.583435 22.768137
65.938622 -42.269577 23.8806
66.30014 -34.533116 44.917091
66.156395 -33.404532 44.766041
66.408932 -35.645246 44.975094
66.58987 -34.919943 44.142826
66.30014 -34.533116 44.917091
63.312923 -53.481466 41.572174
62.854248 -53.44883 42.684467
62.785054 -54.353323 41.709164
68.77052 -14.980112 23.340677
68.870689 -13.899259 22.38744
69.384144 -13.69822 23.093849
68.772167 -17.752443 27.104417
69.248669 -16.518332 26.874845
69.055413 -17.466261 27.919149
61.734798 -56.996498 41.235377
61.77339 -56.094031 42.05645
60.888418 -39.904392 23.694599
61.233551 -39.922035 24.886637
68.966645 -43.091387 19.352083
68.227623 -42.98755 20.492306
70.000675 -43.304062 17.114179
70.144314 -43.959477 17.379455
64.102661 -22.646297 25.37166
64.147141 -23.636191 26.327317
58.089824 -34.569208 27.497985
58.277085 -33.499962 27.603077
58.865944 -35.305505 28.14009
58.089824 -34.569208 27.497985
61.330246 -33.353613 30.854142
60.869461 -32.57362 29.929521
61.675362 -32.233599 30.761015
68.03656 -19.214905 35.461428
67.821495 -18.765939 36.261364
67.651436 -19.959262 36.480524
68.191418 -19.642321 34.634806
68.361477 -18.448997 34.415646
68.03656 -19.214905 35.461428
66.232033 -27.495123 41.692737
66.023231 -28.184048 42.692604
66.304321 -28.631861 42.029376
66.511517 -26.797777 40.696136
66.230427 -26.349964 41.359364
66.232033 -27.495123 41.692737
62.743687 -50.489277 45.356615
62.827557 -51.514011 44.518226
62.560459 -48.385317 46.98761
63.166699 -47.507003 46.963616
64.617916 -42.694832 47.744137
64.743759 -43.818869 47.201445
65.133583 -41.838287 47.409176
64.617916 -42.694832 47.744137
65.676689 -42.129505 46.558657
65.133583 -41.838287 47.409176
67.005062 -42.899311 43.399725
66.603577 -42.665684 44.548059
66.705624 -43.694062 43.812523
68.169228 -49.078087 19.66457
67.452145 -49.895842 20.084297
64.488068 -51.089617 16.813591
64.485791 -51.670362 18.037978
63.623348 -51.962196 17.281373
65.365921 -50.202706 16.33607
64.488068 -51.089617 16.813591
65.960564 -37.15094 46.429453
66.258645 -36.381352 45.714115
66.113392 -38.286211 46.295843
65.960564 -37.15094 46.429453
65.675869 -37.932867 47.046425
66.245205 -39.393419 46.031615
66.5299 -38.611492 45.414642
66.113392 -38.286211 46.295843
69.756535 -13.534762 23.862217
69.384144 -13.69822 23.093849
69.28635 -17.125641 28.7412
69.394478 -16.811802 29.597285
68.809849 -18.359751 28.970772
69.055413 -17.466261 27.919149
69.28635 -17.125641 28.7412
60.636512 -59.569204 40.866232
60.482214 -60.407486 40.092999
61.099198 -58.701624 40.620695
60.636512 -59.569204 40.866232
61.428383 -58.668005 39.494839
61.580345 -57.832237 40.330568
61.099198 -58.701624 40.620695
61.81839 -40.272899 22.75856
62.938041 -40.757763 23.024946
70.282955 -44.607046 17.639267
70.144314 -43.959477 17.379455
70.020027 -44.48569 18.7164
70.159775 -45.313776 17.940871
70.282955 -44.607046 17.639267
70.032535 -46.012793 18.233879
70.159775 -45.313776 17.940871
70.03143 -45.832276 19.26922
69.666622 -46.764215 18.576111
70.032535 -46.012793 18.233879
65.934807 -17.964561 22.731277
66.809948 -16.649935 22.357193
65.081718 -19.254281 23.100088
65.934807 -17.964561 22.731277
65.88964 -19.054944 23.643282
64.132591 -20.564819 23.505109
65.081718 -19.254281 23.100088
59.168989 -33.203041 28.343711
58.277085 -33.499962 27.603077
67.04446 -20.240454 38.278181
67.102627 -19.06987 38.063124
66.710717 -19.800028 39.060845
67.326443 -20.698031 37.513422
67.04446 -20.240454 38.278181
66.934533 -21.428189 38.511143
66.186702 -30.445871 43.339531
65.822849 -30.029566 43.964094
66.326229 -29.759394 42.360401
66.186702 -30.445871 43.339531
66.417412 -30.884478 42.670688
63.735138 -46.6346 46.853878
63.166699 -47.507003 46.963616
63.834789 -47.714117 46.092479
64.315079 -45.759856 46.720667
63.735138 -46.6346 46.853878
64.83564 -44.9014 46.516806
64.315079 -45.759856 46.720667
64.92379 -45.983258 45.778881
65.35247 -44.042271 46.259659
64.743759 -43.818869 47.201445
64.83564 -44.9014 46.516806
65.874245 -44.292618 45.267938
65.782364 -43.210087 45.952578
65.35247 -44.042271 46.259659
66.375709 -44.491211 44.147077
65.874245 -44.292618 45.267938
65.945816 -45.323395 44.454159
66.777195 -44.724839 42.998743
66.705624 -43.694062 43.812523
66.375709 -44.491211 44.147077
66.749806 -50.706831 20.49349
67.452145 -49.895842 20.084297
67.342858 -50.393364 21.381666
61.122845 -55.758922 21.1145
61.151965 -56.26771 22.350333
60.356467 -56.654719 21.550778
61.918335 -54.848971 20.672545
61.122845 -55.758922 21.1145
61.122837 -55.235979 19.872991
62.757345 -52.86903 17.751836
62.769699 -53.434484 18.968398
61.905974 -53.760573 18.214475
63.623348 -51.962196 17.281373
62.757345 -52.86903 17.751836
60.887981 -39.333538 26.911703
60.346676 -38.641295 27.571945
61.505268 -39.966391 26.143994
60.887981 -39.333538 26.911703
61.933266 -39.885142 27.312686
62.278835 -40.473638 25.287619
61.233551 -39.922035 24.886637
61.505268 -39.966391 26.143994
63.997055 -41.266579 23.338857
62.938041 -40.757763 23.024946
63.066131 -40.938099 24.344174
63.997055 -41.266579 23.338857
64.997376 -41.757652 23.59251
67.552394 -42.771114 21.638481
66.695484 -42.583435 22.768137
68.19659 -43.314917 21.863163
68.227623 -42.98755 20.492306
67.552394 -42.771114 21.638481
64.139767 -24.587646 27.345399
64.147141 -23.636191 26.327317
64.952541 -23.337817 26.967189
63.434894 -25.806063 27.709155
64.139767 -24.587646 27.345399
64.240296 -25.507689 28.349027
62.665058 -27.038283 28.065863
63.434894 -25.806063 27.709155
62.024872 -28.235018 28.391378
62.665058 -27.038283 28.065863
62.895237 -27.92284 29.0383
61.357533 -29.44267 28.681177
62.024872 -28.235018 28.391378
61.734814 -30.286591 29.600105
61.357533 -29.44267 28.681177
62.044369 -31.104951 30.593763
61.734814 -30.286591 29.600105
62.564606 -29.937936 30.357473
62.505154 -31.884944 31.518383
61.675362 -32.233599 30.761015
62.044369 -31.104951 30.593763
66.201706 -22.868263 40.490677
66.604889 -22.147132 39.523121
66.379482 -32.689383 43.867321
66.156395 -33.404532 44.766041
66.55727 -33.118267 43.157618
66.455673 -31.999839 42.940115
66.379482 -32.689383 43.867321
66.548374 -36.768179 44.93985
66.408932 -35.645246 44.975094
66.258645 -36.381352 45.714115
62.829132 -52.482242 43.570043
62.854248 -53.44883 42.684467
63.380543 -51.608742 43.495661
62.827557 -51.514011 44.518226
62.829132 -52.482242 43.570043
59.809067 -58.991753 25.706638
60.498785 -58.507295 26.58535
59.850034 -59.407167 26.986576
59.736656 -58.539518 24.451844
59.809067 -58.991753 25.706638
59.700541 -58.075331 23.192443
60.421701 -57.627693 24.046011
59.736656 -58.539518 24.451844
59.646706 -57.582306 21.959347
59.700541 -58.075331 23.192443
60.356467 -56.654719 21.550778
59.646706 -57.582306 21.959347
68.315312 -14.046038 21.724588
68.870689 -13.899259 22.38744
67.567116 -15.357897 22.037091
67.625362 -14.222786 21.127412
68.315312 -14.046038 21.724588
67.499897 -16.473187 22.954369
66.809948 -16.649935 22.357193
67.567116 -15.357897 22.037091
69.614167 -14.553176 24.843536
69.756535 -13.534762 23.862217
69.454892 -15.565895 25.850049
69.248669 -16.518332 26.874845
69.124699 -15.791794 25.053598
69.614167 -14.553176 24.843536
69.454892 -15.565895 25.850049
62.272407 -55.223913 41.917893
61.77339 -56.094031 42.05645
62.731083 -55.25655 40.805599
62.785054 -54.353323 41.709164
62.272407 -55.223913 41.917893
62.063984 -56.962879 40.10952
61.734798 -56.996498 41.235377
61.580345 -57.832237 40.330568
60.09376 -61.611196 35.963636
60.489767 -60.904047 36.841343
60.091238 -61.374851 34.698042
60.09376 -61.611196 35.963636
60.119495 -61.135317 33.41844
60.614275 -60.493063 34.324867
60.091238 -61.374851 34.698042
60.065268 -60.836019 32.134094
60.119495 -61.135317 33.41844
60.050203 -60.53263 30.838011
60.627468 -59.95014 31.749181
60.065268 -60.836019 32.134094
59.970196 -60.176279 29.553477
60.050203 -60.53263 30.838011
59.93387 -59.814259 28.259572
60.576078 -59.284731 29.159193
59.970196 -60.176279 29.553477
59.850034 -59.407167 26.986576
59.93387 -59.814259 28.259572
60.888418 -39.904392 23.694599
61.81839 -40.272899 22.75856
69.471428 -43.244771 18.221884
68.966645 -43.091387 19.352083
69.376603 -43.684736 19.586789
69.471428 -43.244771 18.221884
70.000675 -43.304062 17.114179
64.14098 -21.625449 24.403153
64.998233 -21.365513 24.980601
64.102661 -22.646297 25.37166
64.132591 -20.564819 23.505109
64.14098 -21.625449 24.403153
59.988412 -32.897459 29.18193
60.869461 -32.57362 29.929521
59.704921 -33.999216 29.184429
59.168989 -33.203041 28.343711
59.988412 -32.897459 29.18193
59.56291 -36.045517 28.880518
58.865944 -35.305505 28.14009
59.582464 -35.044809 29.086638
59.693436 -36.982861 28.559814
59.56291 -36.045517 28.880518
60.409956 -36.722165 29.50636
59.958928 -37.844904 28.124575
59.693436 -36.982861 28.559814
60.92823 -38.455899 28.633026
60.346676 -38.641295 27.571945
59.958928 -37.844904 28.124575
67.536671 -18.339083 37.066809
67.102627 -19.06987 38.063124
67.536671 -18.339083 37.066809
67.821495 -18.765939 36.261364
68.735035 -17.687482 33.385289
68.361477 -18.448997 34.415646
68.8354 -18.077925 32.538998
68.735035 -17.687482 33.385289
68.517635 -19.289134 32.756572
68.836701 -18.490645 31.706546
68.8354 -18.077925 32.538998
66.210915 -24.033186 40.751701
66.201706 -22.868263 40.490677
65.697342 -28.89217 43.637046
65.822849 -30.029566 43.964094
65.697342 -28.89217 43.637046
66.023231 -28.184048 42.692604
66.187256 -25.197669 41.047912
66.230427 -26.349964 41.359364
66.533569 -24.488135 40.066551
66.210915 -24.033186 40.751701
66.187256 -25.197669 41.047912
62.687378 -49.462282 46.235801
62.743687 -50.489277 45.356615
63.322659 -49.613516 45.323031
62.687378 -49.462282 46.235801
62.560459 -48.385317 46.98761
66.377251 -40.508985 45.661715
66.245205 -39.393419 46.031615
65.676689 -42.129505 46.558657
65.782364 -43.210087 45.952578
66.497902 -41.585102 45.154139
66.603577 -42.665684 44.548059
66.782364 -40.794817 44.642838
66.377251 -40.508985 45.661715
66.497902 -41.585102 45.154139
69.299717 -47.50835 18.908335
69.666622 -46.764215 18.576111
69.537285 -47.275427 19.894452
68.73182 -48.296681 19.291671
68.607788 -48.800968 20.599574
68.169228 -49.078087 19.66457
69.299717 -47.50835 18.908335
68.73182 -48.296681 19.291671
66.051579 -51.050613 19.642161
66.749806 -50.706831 20.49349
65.942291 -51.548136 20.939529
66.104802 -50.503546 18.383159
66.051579 -51.050613 19.642161
65.297287 -51.34485 18.829198
66.176247 -49.945589 17.113583
66.104802 -50.503546 18.383159
66.176247 -49.945589 17.113583
65.365921 -50.202706 16.33607
3 0 58 56
3 0 60 58
3 1 63 61
3 1 65 63
3 2 69 67
3 2 71 69
3 2 73 71
3 222 74 223
3 224 76 225
3 226 225 74
3 224 225 226
3 227 77 228
3 229 79 230
3 231 230 77
3 229 230 231
3 232 81 233
3 234 233 79
3 232 233 234
3 5 84 82
3 5 85 84
3 3 87 86
3 6 90 88
3 6 92 90
3 7 235 237
3 235 94 236
3 235 236 237
3 7 96 94
3 8 238 240
3 238 98 239
3 238 239 240
3 8 100 98
3 8 102 100
3 9 105 103
3 9 107 105
3 10 110 108
3 10 111 110
3 10 112 111
3 11 115 113
3 11 117 115
3 11 119 117
3 12 122 120
3 12 124 122
3 4 127 125
3 241 129 242
3 244 243 129
3 13 132 131
3 15 133 57
3 15 245 247
3 247 246 133
3 245 246 247
3 15 248 250
3 248 134 249
3 248 249 250
3 17 135 59
3 17 136 135
3 18 139 137
3 19 140 62
3 19 141 140
3 19 142 141
3 21 143 64
3 21 144 143
3 251 145 252
3 253 147 254
3 255 254 145
3 253 254 255
3 23 148 66
3 23 149 148
3 24 256 258
3 256 150 257
3 256 257 258
3 26 151 68
3 26 152 151
3 26 154 152
3 28 155 70
3 28 156 155
3 28 158 156
3 30 159 72
3 30 160 159
3 32 259 261
3 259 162 260
3 259 260 261
3 32 163 162
3 33 262 264
3 262 164 263
3 262 263 264
3 33 165 164
3 33 166 165
3 34 167 75
3 34 168 167
3 265 169 266
3 35 170 78
3 35 171 170
3 35 173 171
3 37 174 80
3 37 175 174
3 14 267 268
3 16 269 270
3 272 271 83
3 274 273 138
3 38 275 276
3 38 277 278
3 20 279 281
3 279 176 280
3 279 280 281
3 39 177 89
3 39 178 177
3 39 179 178
3 40 180 91
3 40 181 180
3 41 282 284
3 284 283 93
3 282 283 284
3 41 285 287
3 285 182 286
3 285 286 287
3 41 183 182
3 42 184 95
3 42 185 184
3 43 288 290
3 290 289 97
3 288 289 290
3 43 291 293
3 291 186 292
3 291 292 293
3 43 187 186
3 44 188 99
3 44 189 188
3 44 190 189
3 45 191 101
3 45 192 191
3 22 193 146
3 46 194 104
3 46 195 194
3 46 196 195
3 47 197 106
3 47 198 197
3 25 294 295
3 297 296 109
3 48 298 299
3 48 300 301
3 48 302 303
3 49 304 306
3 304 199 305
3 304 305 306
3 49 200 199
3 27 201 153
3 50 202 114
3 50 203 202
3 50 204 203
3 51 205 116
3 51 206 205
3 51 207 206
3 52 208 118
3 52 209 208
3 29 210 157
3 53 211 121
3 53 212 211
3 53 213 212
3 308 307 123
3 36 214 172
3 54 215 126
3 54 216 215
3 31 217 161
3 55 218 128
3 55 219 218
3 55 220 219
3 309 221 310
3 311 310 130
3 309 310 311
3 313 312 221
3 56 57 13
3 58 57 56
3 58 15 57
3 58 59 15
3 60 59 58
3 60 17 59
3 61 62 18
3 63 62 61
3 63 19 62
3 63 64 19
3 65 64 63
3 65 21 64
3 314 66 315
3 316 66 317
3 316 317 318
3 319 23 320
3 321 320 66
3 319 320 321
3 67 68 24
3 69 68 67
3 69 26 68
3 69 70 26
3 71 70 69
3 71 28 70
3 71 72 28
3 73 72 71
3 73 30 72
3 322 32 323
3 74 324 325
3 74 326 328
3 326 33 327
3 326 327 328
3 74 75 33
3 76 75 74
3 76 34 75
3 77 329 330
3 77 331 332
3 77 333 335
3 333 78 334
3 333 334 335
3 79 78 77
3 79 35 78
3 79 80 35
3 81 80 79
3 81 37 80
3 337 336 14
3 82 83 16
3 84 83 82
3 84 338 340
3 340 339 83
3 338 339 340
3 84 341 342
3 85 343 345
3 345 344 84
3 343 344 345
3 85 346 347
3 86 348 349
3 87 350 352
3 352 351 86
3 350 351 352
3 87 353 354
3 355 38 356
3 88 89 20
3 90 89 88
3 90 39 89
3 90 91 39
3 92 91 90
3 92 40 91
3 357 93 358
3 357 358 359
3 94 360 362
3 360 93 361
3 360 361 362
3 94 41 93
3 94 95 41
3 96 95 94
3 96 42 95
3 363 97 364
3 98 365 367
3 365 97 366
3 365 366 367
3 98 43 97
3 98 99 43
3 100 99 98
3 100 44 99
3 100 101 44
3 102 101 100
3 102 45 101
3 103 104 22
3 105 104 103
3 105 46 104
3 105 106 46
3 107 106 105
3 107 47 106
3 108 109 25
3 110 109 108
3 110 368 370
3 370 369 109
3 368 369 370
3 110 371 372
3 111 373 375
3 375 374 110
3 373 374 375
3 111 376 378
3 376 48 377
3 376 377 378
3 111 379 381
3 381 380 48
3 379 380 381
3 112 382 384
3 384 383 111
3 382 383 384
3 112 385 387
3 385 49 386
3 385 386 387
3 113 114 27
3 115 114 113
3 115 50 114
3 115 116 50
3 117 116 115
3 117 51 116
3 117 118 51
3 119 118 117
3 119 52 118
3 120 121 29
3 122 121 120
3 122 53 121
3 122 123 53
3 124 123 122
3 124 388 390
3 390 389 123
3 388 389 390
3 125 126 36
3 127 126 125
3 127 54 126
3 391 128 392
3 393 392 31
3 391 392 393
3 129 394 396
3 394 128 395
3 394 395 396
3 129 55 128
3 129 130 55
3 397 130 398
3 399 398 129
3 397 398 399
3 401 400 130
3 131 402 403
3 132 404 406
3 406 405 131
3 404 405 406
3 132 407 409
3 407 14 408
3 407 408 409
3 57 132 13
3 133 132 57
3 133 14 132
3 133 410 412
3 412 411 14
3 410 411 412
3 414 413 133
3 134 415 416
3 134 417 419
3 417 16 418
3 417 418 419
3 59 134 15
3 135 134 59
3 135 16 134
3 135 82 16
3 136 82 135
3 136 5 82
3 137 138 3
3 139 138 137
3 139 420 422
3 422 421 138
3 420 421 422
3 62 139 18
3 140 139 62
3 140 423 425
3 425 424 139
3 423 424 425
3 140 426 427
3 141 428 430
3 430 429 140
3 428 429 430
3 141 431 432
3 141 433 434
3 142 435 437
3 437 436 141
3 435 436 437
3 142 438 440
3 438 20 439
3 438 439 440
3 64 142 19
3 143 142 64
3 143 20 142
3 143 88 20
3 144 88 143
3 144 6 88
3 441 7 442
3 145 443 444
3 145 445 447
3 445 8 446
3 445 446 447
3 145 146 8
3 147 146 145
3 147 22 146
3 66 448 450
3 448 147 449
3 448 449 450
3 148 147 66
3 148 22 147
3 148 103 22
3 149 103 148
3 149 9 103
3 150 451 452
3 150 453 455
3 453 25 454
3 453 454 455
3 68 150 24
3 151 150 68
3 151 25 150
3 151 108 25
3 152 108 151
3 152 10 108
3 152 153 10
3 154 153 152
3 154 27 153
3 70 154 26
3 155 154 70
3 155 27 154
3 155 113 27
3 156 113 155
3 156 11 113
3 156 157 11
3 158 157 156
3 158 29 157
3 72 158 28
3 159 158 72
3 159 29 158
3 159 120 29
3 160 120 159
3 160 12 120
3 456 161 457
3 458 457 4
3 456 457 458
3 459 161 460
3 461 31 462
3 463 462 161
3 461 462 463
3 464 31 465
3 467 466 31
3 162 468 469
3 162 470 472
3 470 471 472
3 162 473 475
3 473 86 474
3 473 474 475
3 163 86 162
3 163 3 86
3 476 32 477
3 164 478 479
3 164 480 482
3 480 32 481
3 480 481 482
3 164 163 32
3 165 163 164
3 165 3 163
3 165 137 3
3 166 137 165
3 166 18 137
3 75 166 33
3 167 166 75
3 167 18 166
3 167 61 18
3 168 61 167
3 168 1 61
3 169 483 484
3 169 485 487
3 485 24 486
3 485 486 487
3 78 488 490
3 488 169 489
3 488 489 490
3 170 169 78
3 170 24 169
3 170 67 24
3 171 67 170
3 171 2 67
3 171 172 2
3 173 172 171
3 173 36 172
3 80 173 35
3 174 173 80
3 174 36 173
3 174 125 36
3 175 125 174
3 175 4 125
3 491 81 492
3 493 81 494
3 495 37 496
3 497 496 81
3 495 496 497
3 498 37 499
3 500 175 501
3 502 501 37
3 500 501 502
3 503 175 504
3 505 4 506
3 507 506 175
3 505 506 507
3 509 508 4
3 511 510 14
3 83 512 514
3 514 513 16
3 512 513 514
3 516 515 83
3 138 87 3
3 517 87 518
3 519 518 138
3 517 518 519
3 521 520 87
3 176 522 523
3 176 524 526
3 524 38 525
3 524 525 526
3 89 176 20
3 177 176 89
3 177 38 176
3 177 527 529
3 529 528 38
3 527 528 529
3 178 530 532
3 532 531 177
3 530 531 532
3 178 533 534
3 178 535 537
3 535 131 536
3 535 536 537
3 179 131 178
3 179 13 131
3 91 179 39
3 180 179 91
3 180 13 179
3 180 56 13
3 181 56 180
3 181 0 56
3 93 538 539
3 541 540 93
3 182 542 543
3 182 544 545
3 182 546 548
3 546 76 547
3 546 547 548
3 183 76 182
3 183 34 76
3 95 183 41
3 184 183 95
3 184 34 183
3 184 168 34
3 185 168 184
3 185 1 168
3 549 7 550
3 97 551 552
3 554 553 97
3 186 555 556
3 186 557 559
3 557 7 558
3 557 558 559
3 186 96 7
3 187 96 186
3 187 42 96
3 99 187 43
3 188 187 99
3 188 42 187
3 188 185 42
3 189 185 188
3 189 1 185
3 189 65 1
3 190 65 189
3 190 21 65
3 101 190 44
3 191 190 101
3 191 21 190
3 191 144 21
3 192 144 191
3 192 6 144
3 146 102 8
3 193 102 146
3 193 45 102
3 104 193 22
3 194 193 104
3 194 45 193
3 194 192 45
3 195 192 194
3 195 6 192
3 195 92 6
3 196 92 195
3 196 40 92
3 106 196 46
3 197 196 106
3 197 40 196
3 197 181 40
3 198 181 197
3 198 0 181
3 109 560 562
3 562 561 25
3 560 561 562
3 564 563 109
3 565 23 566
3 568 567 48
3 199 569 570
3 199 571 573
3 571 23 572
3 571 572 573
3 199 149 23
3 200 149 199
3 200 9 149
3 153 112 10
3 201 112 153
3 201 49 112
3 114 201 27
3 202 201 114
3 202 49 201
3 202 200 49
3 203 200 202
3 203 9 200
3 203 107 9
3 204 107 203
3 204 47 107
3 116 204 50
3 205 204 116
3 205 47 204
3 205 198 47
3 206 198 205
3 206 0 198
3 206 60 0
3 207 60 206
3 207 17 60
3 118 207 51
3 208 207 118
3 208 17 207
3 208 136 17
3 209 136 208
3 209 5 136
3 157 119 11
3 210 119 157
3 210 52 119
3 121 210 29
3 211 210 121
3 211 52 210
3 211 209 52
3 212 209 211
3 212 5 209
3 212 85 5
3 213 85 212
3 213 574 576
3 576 575 85
3 574 575 576
3 123 213 53
3 577 213 578
3 579 578 123
3 577 578 579
3 581 580 213
3 172 73 2
3 214 73 172
3 214 30 73
3 126 214 36
3 215 214 126
3 215 30 214
3 215 160 30
3 216 160 215
3 216 12 160
3 161 127 4
3 217 127 161
3 217 54 127
3 128 217 31
3 218 217 128
3 218 54 217
3 218 216 54
3 219 216 218
3 219 12 216
3 219 124 12
3 220 124 219
3 220 582 584
3 584 583 124
3 582 583 584
3 130 220 55
3 221 220 130
3 221 585 587
3 587 586 220
3 585 586 587
3 221 588 589
3 591 590 221
