ply
format ascii 1.0
element vertex 190
property float x
property float y
property float z
element face 171
property list uchar int vertex_index
end_header
15.905793 75.587906 -25.743494
10.181911 84.713005 -20.462393
19.773472 79.108261 -21.978067
13.798399 86.247391 -15.313969
16.599089 83.338814 -19.35116
12.87849 80.914307 -23.85359
8.220436 87.170906 -15.584801
5.283703 84.121857 -20.717611
3.059479 79.236282 -25.245634
7.108955 81.16304 -25.087946
21.78117 80.194481 -19.942919
25.425289 78.788597 -19.041159
18.531044 83.806358 -16.910891
18.171263 81.411118 -20.837416
14.528393 87.21489 -9.961462
11.943459 85.735779 -17.947447
10.82955 86.961922 -15.550562
9.095245 86.092499 -18.192392
6.666056 85.896584 -18.215521
7.503386 84.70784 -20.712442
6.083651 82.827728 -23.093061
8.560108 83.179199 -22.847372
14.380997 78.441849 -24.969427
11.196547 78.986122 -25.922251
12.66604 76.301247 -26.880774
17.793999 77.559502 -23.90288
19.325161 74.587433 -24.550306
18.918215 84.936897 -12.179604
15.690479 86.278656 -12.573114
17.032631 85.155281 -14.899389
15.122677 84.933472 -17.506601
13.245926 84.220955 -19.993479
11.458603 82.998505 -22.355165
14.695663 82.37571 -21.664057
16.232819 80.160736 -22.958174
12.659805 87.324181 -12.802189
9.917555 87.930428 -12.844931
4.08399 81.883759 -23.068884
4.847708 80.494682 -25.313425
5.842043 78.716393 -27.165022
9.807915 81.278687 -24.586138
8.326233 79.104347 -26.676344
7.029306 76.534935 -28.608839
24.58775 79.798488 -18.405634
23.603229 79.491539 -19.492039
22.76569 80.50143 -18.856514
22.76569 80.50143 -18.856514
20.958352 81.183815 -19.267132
16.654822 73.990173 -25.991804
15.032308 74.420124 -26.628777
16.044711 86.550777 -9.849647
15.451542 86.952889 -8.502449
15.032308 74.420124 -26.628777
13.412432 74.776794 -27.197416
14.285916 75.944577 -26.312134
20.559803 77.76321 -22.394475
19.570066 76.988831 -23.356882
18.783735 78.333881 -22.940473
18.732799 84.484902 -14.620793
17.975423 85.046089 -13.539496
19.675591 84.375709 -13.2609
20.057326 72.942184 -24.760912
21.085379 73.977539 -23.972124
7.884747 87.571151 -14.138962
8.733307 87.950913 -12.769027
9.068995 87.550667 -14.214866
7.134144 86.972912 -15.497101
7.884747 87.571151 -14.138962
5.000007 84.599335 -19.364288
5.691184 85.486699 -18.113243
5.97488 85.00922 -19.466566
4.42314 83.517933 -20.596991
5.000007 84.599335 -19.364288
4.683846 83.002808 -21.893248
3.823284 82.398884 -21.772627
4.42314 83.517933 -20.596991
9.004942 77.87463 -27.270344
9.76139 79.045234 -26.299298
10.440099 77.815517 -26.893297
8.356478 76.589924 -28.236591
7.67777 77.819641 -27.642592
9.004942 77.87463 -27.270344
7.69287 75.245369 -29.135277
8.356478 76.589924 -28.236591
2.397358 78.318184 -25.072357
2.817816 79.786377 -24.013321
22.592202 79.012058 -20.465491
21.588353 78.468948 -21.483064
20.777321 79.651371 -20.960493
24.414262 78.309116 -20.01461
22.592202 79.012058 -20.465491
23.603229 79.491539 -19.492039
26.227975 77.579395 -19.544337
24.414262 78.309116 -20.01461
20.29748 83.134349 -16.559162
19.482006 83.81044 -15.626544
19.333289 82.989754 -17.751118
20.29748 83.134349 -16.559162
18.367311 82.755981 -18.971252
17.565067 83.572586 -18.131025
19.333289 82.989754 -17.751118
19.153399 81.792134 -19.714381
17.385176 82.374966 -20.094288
18.367311 82.755981 -18.971252
19.976216 80.802799 -20.390168
19.153399 81.792134 -19.714381
20.958352 81.183815 -19.267132
14.033945 87.594025 -8.531119
15.451542 86.952889 -8.502449
13.11929 87.700558 -9.986753
14.033945 87.594025 -8.531119
11.174845 76.47308 -27.372559
10.440099 77.815517 -26.893297
11.931294 77.643685 -26.401512
11.893892 75.051384 -27.784382
11.174845 76.47308 -27.372559
11.893892 75.051384 -27.784382
13.412432 74.776794 -27.197416
2.625115 77.737026 -26.234071
3.425498 78.501423 -26.297554
20.335648 75.502796 -23.680595
18.55958 76.073467 -24.226593
19.570066 76.988831 -23.356882
21.085379 73.977539 -23.972124
20.335648 75.502796 -23.680595
20.559803 77.76321 -22.394475
21.588353 78.468948 -21.483064
17.304347 85.607776 -12.376359
16.625754 86.082661 -11.155473
18.239621 85.411781 -10.958718
17.781838 84.480819 -15.90514
18.732799 84.484902 -14.620793
19.482006 83.81044 -15.626544
18.364506 73.489937 -25.39521
16.654822 73.990173 -25.991804
17.615477 75.08767 -25.1469
18.364506 73.489937 -25.39521
20.057326 72.942184 -24.760912
15.109436 86.746773 -11.267288
16.044711 86.550777 -9.849647
16.625754 86.082661 -11.155473
12.184995 87.755203 -11.407117
13.11929 87.700558 -9.986753
13.594099 87.269535 -11.381825
10.813871 88.058327 -11.428488
12.184995 87.755203 -11.407117
11.28868 87.627305 -12.82356
9.553671 88.292114 -11.362911
10.813871 88.058327 -11.428488
9.553671 88.292114 -11.362911
8.733307 87.950913 -12.769027
6.356955 86.335751 -16.812461
7.134144 86.972912 -15.497101
7.443246 86.533745 -16.900161
6.356955 86.335751 -16.812461
5.691184 85.486699 -18.113243
3.330071 81.110116 -22.924946
3.823284 82.398884 -21.772627
3.571734 80.560021 -24.157259
2.817816 79.786377 -24.013321
3.330071 81.110116 -22.924946
4.319612 79.130623 -26.331449
3.425498 78.501423 -26.297554
3.953594 79.865482 -25.279529
4.81678 78.241478 -27.257248
4.319612 79.130623 -26.331449
5.344876 79.605537 -26.239224
5.299907 77.30904 -28.110025
4.81678 78.241478 -27.257248
5.893539 76.218311 -28.831934
5.299907 77.30904 -28.110025
6.435675 77.625664 -27.88693
6.473484 75.085316 -29.483171
5.893539 76.218311 -28.831934
6.473484 75.085316 -29.483171
7.69287 75.245369 -29.135277
19.823089 84.64405 -10.769858
18.239621 85.411781 -10.958718
20.585901 84.182773 -11.915468
19.823089 84.64405 -10.769858
19.675591 84.375709 -13.2609
20.585901 84.182773 -11.915468
26.385151 79.040897 -17.988264
24.58775 79.798488 -18.405634
27.218691 78.005768 -18.609037
26.385151 79.040897 -17.988264
26.227975 77.579395 -19.544337
27.218691 78.005768 -18.609037
2.397358 78.318184 -25.072357
2.625115 77.737026 -26.234071
3 43 11 44
3 45 44 10
3 43 44 45
3 46 10 47
3 0 48 49
3 50 14 51
3 1 17 15
3 1 19 17
3 1 21 19
3 0 24 22
3 0 52 54
3 54 53 24
3 52 53 54
3 2 55 57
3 57 56 25
3 55 56 57
3 58 29 59
3 60 59 27
3 58 59 60
3 4 30 12
3 4 31 30
3 4 33 31
3 2 34 13
3 2 25 34
3 62 61 26
3 3 35 28
3 6 36 16
3 6 63 65
3 65 64 36
3 63 64 65
3 6 66 67
3 7 68 70
3 70 69 18
3 68 69 70
3 7 71 72
3 7 73 75
3 73 37 74
3 73 74 75
3 9 38 20
3 9 39 38
3 5 40 32
3 76 41 77
3 78 77 23
3 76 77 78
3 79 42 80
3 81 80 41
3 79 80 81
3 83 82 42
3 8 84 85
3 10 86 88
3 88 87 2
3 86 87 88
3 11 89 91
3 91 90 10
3 89 90 91
3 11 92 93
3 94 12 95
3 96 12 97
3 98 4 99
3 100 99 12
3 98 99 100
3 101 13 102
3 103 102 4
3 101 102 103
3 10 104 106
3 104 13 105
3 104 105 106
3 10 2 13
3 14 107 108
3 14 109 110
3 15 16 3
3 17 16 15
3 17 6 16
3 17 18 6
3 19 18 17
3 19 7 18
3 19 20 7
3 21 20 19
3 21 9 20
3 22 23 5
3 24 23 22
3 24 111 113
3 113 112 23
3 111 112 113
3 24 114 115
3 117 116 24
3 119 118 8
3 25 26 0
3 120 26 121
3 122 121 25
3 120 121 122
3 124 123 26
3 126 125 2
3 27 127 129
3 127 28 128
3 127 128 129
3 29 28 27
3 29 3 28
3 12 130 132
3 130 29 131
3 130 131 132
3 30 29 12
3 30 3 29
3 30 15 3
3 31 15 30
3 31 1 15
3 31 32 1
3 33 32 31
3 33 5 32
3 13 33 4
3 34 33 13
3 34 5 33
3 34 22 5
3 25 22 34
3 25 0 22
3 26 133 135
3 135 134 0
3 133 134 135
3 137 136 26
3 28 138 140
3 138 14 139
3 138 139 140
3 35 14 28
3 35 141 143
3 143 142 14
3 141 142 143
3 16 35 3
3 36 35 16
3 36 144 146
3 146 145 35
3 144 145 146
3 36 147 148
3 150 149 36
3 18 151 153
3 153 152 6
3 151 152 153
3 155 154 18
3 37 156 157
3 37 158 160
3 158 8 159
3 158 159 160
3 20 37 7
3 38 37 20
3 38 8 37
3 38 161 163
3 163 162 8
3 161 162 163
3 39 164 166
3 166 165 38
3 164 165 166
3 39 167 168
3 32 21 1
3 40 21 32
3 40 9 21
3 23 40 5
3 41 40 23
3 41 9 40
3 41 39 9
3 42 39 41
3 42 169 171
3 171 170 39
3 169 170 171
3 42 172 173
3 175 174 42
3 176 27 177
3 178 27 179
3 181 180 27
3 182 11 183
3 184 11 185
3 187 186 11
3 189 188 8
