ply
format ascii 1.0
element vertex 111
property float x
property float y
property float z
element face 90
property list uchar int vertex_index
end_header
-32.396568 26.775818 -22.018978
-33.472126 25.975887 -18.314362
-32.146435 31.891373 -18.970425
-35.859253 19.319298 -18.98877
-34.731621 20.79203 -22.605316
-33.035728 21.852268 -25.832771
-32.424362 31.692554 -17.129314
-32.988007 26.391968 -20.186493
-34.074139 23.26189 -20.322968
-33.440079 23.787502 -22.121025
-33.945881 21.388481 -24.281963
-32.684067 24.230312 -23.838154
-32.635002 29.073414 -18.50935
-32.209167 29.373875 -20.390602
-34.576176 22.681282 -18.467892
-35.374302 20.091648 -20.833618
-31.81464 32.152538 -20.846786
-31.689468 29.664555 -22.249889
-32.018246 22.163784 -27.221172
-36.553755 17.67988 -19.412177
-36.020302 18.911808 -18.036543
-36.331246 18.168819 -20.339363
-36.553755 17.67988 -19.412177
-34.024151 24.328584 -18.391127
-34.211296 24.116302 -17.440703
-33.659271 25.763605 -17.363938
-35.455477 19.352647 -23.031816
-35.776817 19.002457 -22.145968
-35.052961 20.441839 -21.719467
-35.060209 19.739424 -23.861385
-35.455477 19.352647 -23.031816
-33.745018 20.577955 -26.235254
-34.200094 20.346061 -25.45985
-33.490804 21.620374 -25.057367
-33.219461 20.794677 -26.909118
-33.745018 20.577955 -26.235254
-31.595595 32.280106 -21.780684
-31.828227 33.443979 -21.143245
-31.533009 31.036114 -22.482235
-31.752054 30.908546 -21.548338
-31.595595 32.280106 -21.780684
-31.461691 22.240105 -27.816085
-31.423265 23.473371 -27.048706
-32.139849 21.068729 -28.174444
-31.461691 22.240105 -27.816085
-32.4128 32.906332 -16.623528
-32.549706 31.65023 -16.214236
-32.322025 32.926502 -17.459606
-32.4128 32.906332 -16.623528
-32.183061 33.025911 -18.380161
-32.285398 31.791964 -18.049869
-32.322025 32.926502 -17.459606
-35.398678 20.694468 -17.777864
-36.020302 18.911808 -18.036543
-33.22789 27.387819 -17.468681
-33.659271 25.763605 -17.363938
-32.704008 30.246153 -16.876157
-32.549706 31.65023 -16.214236
-32.809328 28.936583 -17.566175
-32.704008 30.246153 -16.876157
-32.529682 30.382984 -17.819332
-33.053564 27.52465 -18.411856
-33.22789 27.387819 -17.468681
-32.809328 28.936583 -17.566175
-34.757139 22.375459 -17.517426
-34.211296 24.116302 -17.440703
-35.217714 21.00029 -18.728331
-35.398678 20.694468 -17.777864
-34.757139 22.375459 -17.517426
-36.08877 18.554994 -21.261788
-36.331246 18.168819 -20.339363
-35.616777 19.705473 -19.911194
-36.08877 18.554994 -21.261788
-35.776817 19.002457 -22.145968
-34.667339 20.037649 -24.699709
-35.060209 19.739424 -23.861385
-34.338751 21.090255 -23.443639
-34.667339 20.037649 -24.699709
-34.200094 20.346061 -25.45985
-32.105507 33.164221 -19.268446
-32.183061 33.025911 -18.380161
-31.93961 33.294804 -20.206626
-31.828227 33.443979 -21.143245
-31.980537 32.021956 -19.908606
-32.105507 33.164221 -19.268446
-31.93961 33.294804 -20.206626
-31.368016 29.788891 -23.143831
-31.533009 31.036114 -22.482235
-31.691387 28.381951 -23.015026
-31.368016 29.788891 -23.143831
-32.044937 26.937582 -22.899571
-32.043018 28.220187 -22.134434
-31.691387 28.381951 -23.015026
-32.188687 25.664829 -23.809159
-32.540318 25.503065 -22.928566
-32.044937 26.937582 -22.899571
-32.248571 24.398428 -24.637949
-32.188687 25.664829 -23.809159
-32.424402 23.209406 -25.635258
-32.859898 23.04129 -24.835462
-32.248571 24.398428 -24.637949
-31.915661 23.365164 -26.329458
-31.423265 23.473371 -27.048706
-32.526987 22.008026 -26.526972
-32.424402 23.209406 -25.635258
-31.915661 23.365164 -26.329458
-32.71072 20.950435 -27.603319
-33.219461 20.794677 -26.909118
-32.526987 22.008026 -26.526972
-32.71072 20.950435 -27.603319
-32.139849 21.068729 -28.174444
3 0 9 7
3 0 11 9
3 2 12 6
3 2 13 12
3 3 19 20
3 3 21 22
3 1 23 25
3 23 14 24
3 23 24 25
3 4 15 8
3 4 26 28
3 28 27 15
3 26 27 28
3 4 29 30
3 5 31 33
3 33 32 10
3 31 32 33
3 5 34 35
3 36 16 37
3 38 17 39
3 40 39 16
3 38 39 40
3 41 18 42
3 44 43 18
3 45 6 46
3 47 6 48
3 49 2 50
3 51 50 6
3 49 50 51
3 52 3 53
3 7 8 1
3 9 8 7
3 9 4 8
3 9 10 4
3 11 10 9
3 11 5 10
3 54 1 55
3 6 56 57
3 12 58 60
3 60 59 6
3 58 59 60
3 12 61 63
3 61 1 62
3 61 62 63
3 12 7 1
3 13 7 12
3 13 0 7
3 14 64 65
3 14 66 68
3 66 3 67
3 66 67 68
3 8 14 1
3 15 14 8
3 15 3 14
3 15 69 71
3 71 70 3
3 69 70 71
3 73 72 15
3 10 74 76
3 76 75 4
3 74 75 76
3 78 77 10
3 79 2 80
3 16 81 82
3 16 83 85
3 83 2 84
3 83 84 85
3 16 13 2
3 17 13 16
3 17 0 13
3 86 17 87
3 88 17 89
3 90 0 91
3 92 91 17
3 90 91 92
3 93 11 94
3 95 94 0
3 93 94 95
3 96 11 97
3 98 5 99
3 100 99 11
3 98 99 100
3 18 101 102
3 18 103 105
3 103 5 104
3 103 104 105
3 18 106 108
3 108 107 5
3 106 107 108
3 110 109 18
