ply
format ascii 1.0
element vertex 324
property float x
property float y
property float z
element face 320
property list uchar int vertex_index
end_header
-31.324003 -1.921768 64.97274
-16.312473 8.330641 72.170395
-11.259075 15.798031 77.578339
-29.544294 9.298367 62.950287
-22.003092 15.277103 64.747856
-22.2929 1.823748 66.9049
-35.015308 1.628941 62.763058
-34.10717 7.138123 62.205624
-30.102541 3.327431 63.298992
-25.627697 5.508015 64.201965
-26.491913 -0.380018 65.540085
-18.906376 11.938345 67.911285
-19.069199 19.265789 66.411346
-16.383825 15.973091 70.594696
-28.089785 -5.421755 68.385162
-13.919956 4.42948 76.845886
-13.934153 12.141594 75.218506
-11.430294 7.842094 79.56498
-33.636559 13.261986 62.295071
-25.468596 11.956388 63.686535
-21.892296 8.381563 65.704178
-18.946552 4.77984 69.194092
-23.465971 -3.984233 69.236633
-13.801874 20.117889 73.150116
-33.809696 -2.551605 64.866699
-33.12339 -0.151211 63.728497
-32.534962 2.440134 63.001884
-30.636101 0.601339 63.9263
-28.225929 1.460329 64.235947
-28.856773 -1.216591 65.176682
-17.559351 10.173845 69.936249
-17.616402 13.915955 69.22467
-16.340836 12.126022 71.420242
-35.213837 -6.896708 68.023041
-31.779814 8.171505 62.591892
-33.824345 10.13666 62.256306
-31.604462 11.2586 62.623947
-31.513439 14.445599 62.565208
-29.46702 12.467312 62.900654
-27.435631 13.795044 63.119278
-27.433546 10.551716 63.302338
-23.876354 3.657688 65.350433
-23.660198 6.853979 64.866379
-22.003502 5.033394 66.206696
-20.342003 6.592152 67.272636
-20.513561 3.212639 67.939285
-25.710205 -4.783972 68.704681
-17.708683 21.45089 67.437187
-12.660854 14.014408 76.526474
-13.90015 16.11256 74.258522
-12.539967 18.040829 75.428406
-34.506153 4.295441 62.326359
-32.083633 5.221262 62.66066
-29.742678 6.237965 63.021637
-27.531075 7.384308 63.431458
-27.784502 4.338781 63.688847
-25.958113 2.470055 64.700089
-24.291046 0.626822 66.107346
-20.384853 13.631554 66.171059
-20.484043 17.195877 65.501694
-18.991354 15.59985 67.233704
-17.683578 17.683998 68.411804
-16.397552 19.838318 69.636436
-34.531654 -4.784754 66.347801
-32.11705 -4.248043 66.413391
-29.645693 -3.679141 66.529984
-30.532158 -5.943197 68.220642
-15.117566 6.412867 74.510727
-15.12801 10.229177 73.734238
-13.930521 8.235058 76.06366
-12.707314 10.042795 77.473663
-11.389194 11.783592 78.648705
-10.065334 9.436874 80.541748
-36.094994 9.065392 61.79092
-35.795605 12.117239 61.858723
-23.659184 13.529068 64.152512
-25.48035 8.687157 63.919033
-23.60704 10.161749 64.518936
-21.913082 11.812275 65.263565
-20.316463 10.082972 66.723785
-18.873642 8.315676 68.530426
-17.56292 6.498526 70.627182
-27.217211 -3.011787 66.778946
-24.91086 -2.19441 67.222336
-22.782707 -1.194508 67.900604
-21.406116 -2.99649 70.013924
-20.865023 0.000662 68.830818
-19.166206 1.385843 70.004921
-20.548042 20.750362 64.629562
-15.1461 14.123352 72.893074
-15.135817 18.058704 71.933708
-15.062918 22.008125 70.8209
-22.047479 17.009685 64.39476
-22.874432 16.095966 64.185587
-17.676114 23.327485 66.851067
-17.02421 22.575737 67.972705
-36.237024 1.232388 62.651286
-35.308561 0.386613 63.175307
-35.980474 2.520217 62.380583
-36.237024 1.232388 62.651286
-34.76073 2.962191 62.544708
-35.725897 3.853467 62.162233
-35.980474 2.520217 62.380583
-33.737484 -5.59771 67.239857
-34.872746 -5.840731 67.185421
-34.078575 -6.653687 68.077477
-32.530182 -5.329354 67.272651
-33.324352 -4.516399 66.380596
-33.737484 -5.59771 67.239857
-31.737736 -6.176932 68.176277
-31.324604 -5.09562 67.317016
-32.530182 -5.329354 67.272651
-12.068804 8.942445 78.519322
-12.704082 8.099446 77.889244
-12.065572 6.999096 78.934902
-9.329981 10.167927 80.85915
-9.374797 8.210553 81.338871
-10.005339 11.424274 80.030583
-9.329981 10.167927 80.85915
-35.101082 8.101757 61.998272
-36.287775 7.611326 61.787449
-35.293863 6.647692 61.994801
-34.600178 14.274217 62.052341
-35.679701 13.701844 61.834167
-34.716082 12.689612 62.076897
-33.568573 14.87118 62.217394
-34.600178 14.274217 62.052341
-31.479944 16.070612 62.404449
-30.481782 15.074894 62.626463
-25.497335 13.613215 63.511753
-26.480853 14.532543 63.228124
-26.452114 12.875716 63.402907
-24.56389 12.742728 63.919523
-24.59263 14.399555 63.744742
-25.497335 13.613215 63.511753
-20.480874 -2.405311 70.528485
-20.760396 -3.889294 71.178357
-20.210327 -0.906734 69.936932
-21.13557 -1.497914 69.422371
-20.480874 -2.405311 70.528485
-19.360919 -0.214144 70.523983
-20.015614 0.693252 69.417869
-20.210327 -0.906734 69.936932
-34.705755 -1.70366 64.227127
-35.010506 -2.862562 64.823791
-34.362602 -0.503463 63.658026
-34.705755 -1.70366 64.227127
-33.466543 -1.351408 64.297598
-34.069349 0.738865 63.245778
-35.308561 0.386613 63.175307
-34.362602 -0.503463 63.658026
-35.496761 -7.920285 68.859856
-36.222435 -7.185246 67.906845
-34.466582 -7.679373 68.983445
-35.496761 -7.920285 68.859856
-34.078575 -6.653687 68.077477
-34.466582 -7.679373 68.983445
-13.310403 5.292789 77.575356
-13.295212 3.40866 77.959507
-11.416259 5.921645 79.965828
-12.065572 6.999096 78.934902
-29.458573 14.08575 62.794185
-30.481782 15.074894 62.626463
-30.49023 13.456456 62.732931
-28.451326 13.131178 63.009966
-28.442878 14.749617 62.903498
-29.458573 14.08575 62.794185
-26.171776 -5.967001 69.590965
-26.899995 -5.102863 68.544921
-27.361566 -6.285893 69.431206
-25.007683 -5.659457 69.79161
-26.171776 -5.967001 69.590965
-23.885566 -5.259587 70.057586
-24.588088 -4.384103 68.970657
-25.007683 -5.659457 69.79161
-18.395151 22.18446 66.411205
-19.075409 21.091909 65.898284
-18.388941 20.358339 66.924266
-18.395151 22.18446 66.411205
-17.676114 23.327485 66.851067
-35.493354 5.226351 62.055168
-35.725897 3.853467 62.162233
-34.306662 5.716782 62.265991
-35.293863 6.647692 61.994801
-35.493354 5.226351 62.055168
-16.368645 21.769451 69.07233
-17.02421 22.575737 67.972705
-17.053117 20.644604 68.536811
-11.144721 17.829145 76.956353
-10.486737 16.624206 77.948624
-35.995455 -6.129263 67.130268
-36.222435 -7.185246 67.906845
-35.654364 -5.073286 66.292648
-35.995455 -6.129263 67.130268
-34.872746 -5.840731 67.185421
-35.371485 -3.979137 65.564343
-35.654364 -5.073286 66.292648
-34.170675 -3.668179 65.60725
-35.010506 -2.862562 64.823791
-35.371485 -3.979137 65.564343
-30.983733 -6.997069 69.155895
-31.737736 -6.176932 68.176277
-29.785466 -6.789907 69.229751
-30.983733 -6.997069 69.155895
-28.564279 -6.529186 69.312011
-29.310972 -5.682476 68.302902
-29.785466 -6.789907 69.229751
-27.361566 -6.285893 69.431206
-28.564279 -6.529186 69.312011
-13.315686 7.195578 77.184242
-13.925239 6.332269 76.454773
-13.310403 5.292789 77.575356
-13.318918 9.138927 76.768662
-13.315686 7.195578 77.184242
-12.704082 8.099446 77.889244
-10.756107 6.695665 80.488923
-11.416259 5.921645 79.965828
-10.073628 7.493055 80.977306
-9.374797 8.210553 81.338871
-10.747814 8.639484 80.053364
-10.756107 6.695665 80.488923
-10.073628 7.493055 80.977306
-10.667269 12.597633 79.084061
-10.727264 10.610233 79.595226
-10.005339 11.424274 80.030583
-10.60221 14.604852 78.548878
-11.324134 13.790812 78.113522
-10.667269 12.597633 79.084061
-10.486737 16.624206 77.948624
-10.60221 14.604852 78.548878
-37.235636 8.535314 61.514965
-36.287775 7.611326 61.787449
-37.029294 10.020805 61.529966
-37.235636 8.535314 61.514965
-36.879599 11.546729 61.563868
-37.029294 10.020805 61.529966
-35.9453 10.591316 61.824821
-36.705267 13.097871 61.556956
-36.879599 11.546729 61.563868
-36.705267 13.097871 61.556956
-35.679701 13.701844 61.834167
-32.507013 15.462986 62.352463
-33.568573 14.87118 62.217394
-32.574999 13.853793 62.430139
-32.507013 15.462986 62.352463
-31.479944 16.070612 62.404449
-27.451144 15.434997 62.917808
-28.442878 14.749617 62.903498
-27.451144 15.434997 62.917808
-26.480853 14.532543 63.228124
-23.702478 15.221948 63.887915
-24.59263 14.399555 63.744742
-22.831138 14.403085 64.450184
-22.874432 16.095966 64.185587
-23.702478 15.221948 63.887915
-22.792253 -4.868292 70.364472
-23.885566 -5.259587 70.057586
-21.762325 -4.374421 70.753117
-20.760396 -3.889294 71.178357
-22.436044 -3.490362 69.625279
-22.792253 -4.868292 70.364472
-21.762325 -4.374421 70.753117
-18.540736 0.468877 71.153847
-19.360919 -0.214144 70.523983
-18.418535 2.163128 70.696499
-18.540736 0.468877 71.153847
-18.308708 3.860126 70.291084
-19.056379 3.082841 69.599506
-18.418535 2.163128 70.696499
-17.616892 4.719469 71.00763
-18.254736 5.639183 69.910637
-18.308708 3.860126 70.291084
-16.951805 5.564664 71.77285
-17.616892 4.719469 71.00763
-16.326582 6.480721 72.544456
-16.937697 7.414583 71.398788
-16.951805 5.564664 71.77285
-15.729128 5.521835 73.714623
-15.71502 7.371754 73.340561
-16.326582 6.480721 72.544456
-15.134124 4.565272 74.900436
-15.729128 5.521835 73.714623
-14.535319 3.573579 76.068016
-14.518761 5.421174 75.678306
-15.134124 4.565272 74.900436
-13.927981 2.596929 77.237694
-14.535319 3.573579 76.068016
-13.295212 3.40866 77.959507
-13.927981 2.596929 77.237694
-21.287954 17.969072 64.771679
-22.047479 17.009685 64.39476
-21.243567 16.23649 65.124775
-21.319954 19.746315 64.335613
-21.287954 17.969072 64.771679
-20.516042 18.973119 65.065628
-21.329656 21.471002 63.849007
-21.319954 19.746315 64.335613
-19.81483 21.834196 65.007393
-19.80862 20.008076 65.520454
-19.075409 21.091909 65.898284
-20.532497 22.518602 64.067402
-19.81483 21.834196 65.007393
-21.329656 21.471002 63.849007
-20.532497 22.518602 64.067402
-15.701327 22.854354 69.664562
-16.368645 21.769451 69.07233
-15.730235 20.923222 70.228668
-11.785167 18.950544 75.881386
-11.899521 16.91943 76.503372
-11.144721 17.829145 76.956353
-12.434889 20.068953 74.795925
-11.785167 18.950544 75.881386
-13.065842 21.107483 73.65678
-13.170921 19.079359 74.289261
-12.434889 20.068953 74.795925
-13.709384 22.126541 72.51355
-13.065842 21.107483 73.65678
-14.339906 23.071659 71.348942
-14.432396 21.063007 71.985508
-13.709384 22.126541 72.51355
-14.979937 23.981323 70.178791
-14.339906 23.071659 71.348942
-15.701327 22.854354 69.664562
-14.979937 23.981323 70.178791
3 0 25 24
3 0 27 25
3 0 29 27
3 1 32 30
3 3 36 34
3 3 38 36
3 3 40 38
3 5 43 41
3 5 45 43
3 4 92 93
3 95 94 47
3 2 50 48
3 6 96 97
3 6 98 99
3 6 100 102
3 100 51 101
3 100 101 102
3 8 52 26
3 8 53 52
3 8 55 53
3 10 56 28
3 10 57 56
3 11 60 58
3 13 61 31
3 13 62 61
3 103 63 104
3 105 104 33
3 103 104 105
3 106 64 107
3 108 107 63
3 106 107 108
3 109 66 110
3 111 110 64
3 109 110 111
3 15 69 67
3 17 112 114
3 112 70 113
3 112 113 114
3 17 71 70
3 115 72 116
3 118 117 72
3 7 119 121
3 119 73 120
3 119 120 121
3 18 74 35
3 18 122 124
3 124 123 74
3 122 123 124
3 18 125 126
3 128 127 37
3 19 129 131
3 131 130 39
3 129 130 131
3 19 132 134
3 132 75 133
3 132 133 134
3 9 76 54
3 20 77 42
3 20 78 77
3 20 79 78
3 21 80 44
3 21 81 80
3 14 82 65
3 22 83 46
3 22 84 83
3 135 85 136
3 137 86 138
3 139 138 85
3 137 138 139
3 140 87 141
3 142 141 86
3 140 141 142
3 12 88 59
3 16 89 68
3 23 90 49
3 23 91 90
3 24 143 144
3 25 145 147
3 147 146 24
3 145 146 147
3 25 148 150
3 148 6 149
3 148 149 150
3 25 26 6
3 27 26 25
3 27 8 26
3 27 28 8
3 29 28 27
3 29 10 28
3 30 31 11
3 32 31 30
3 32 13 31
3 151 33 152
3 153 33 154
3 156 155 33
3 158 157 15
3 159 17 160
3 34 35 7
3 36 35 34
3 36 18 35
3 36 37 18
3 38 37 36
3 38 161 163
3 163 162 37
3 161 162 163
3 38 164 166
3 164 39 165
3 164 165 166
3 40 39 38
3 40 19 39
3 41 42 9
3 43 42 41
3 43 20 42
3 43 44 20
3 45 44 43
3 45 21 44
3 167 46 168
3 169 168 14
3 167 168 169
3 170 46 171
3 172 22 173
3 174 173 46
3 172 173 174
3 47 175 177
3 177 176 12
3 175 176 177
3 179 178 47
3 48 49 16
3 50 49 48
3 50 23 49
3 51 180 181
3 51 182 184
3 182 7 183
3 182 183 184
3 26 51 6
3 52 51 26
3 52 7 51
3 52 34 7
3 53 34 52
3 53 3 34
3 53 54 3
3 55 54 53
3 55 9 54
3 28 55 8
3 56 55 28
3 56 9 55
3 56 41 9
3 57 41 56
3 57 5 41
3 58 59 4
3 60 59 58
3 60 12 59
3 31 60 11
3 61 60 31
3 61 12 60
3 61 47 12
3 62 47 61
3 62 185 187
3 187 186 47
3 185 186 187
3 189 188 2
3 33 190 191
3 63 192 194
3 194 193 33
3 192 193 194
3 63 195 196
3 63 197 199
3 197 24 198
3 197 198 199
3 64 24 63
3 64 0 24
3 64 65 0
3 66 65 64
3 66 14 65
3 200 66 201
3 202 66 203
3 204 14 205
3 206 205 66
3 204 205 206
3 208 207 14
3 67 68 1
3 69 68 67
3 69 16 68
3 209 69 210
3 211 210 15
3 209 210 211
3 70 212 214
3 212 69 213
3 212 213 214
3 70 16 69
3 70 48 16
3 71 48 70
3 71 2 48
3 215 17 216
3 72 217 218
3 72 219 221
3 219 17 220
3 219 220 221
3 72 71 17
3 222 71 223
3 224 223 72
3 222 223 224
3 225 2 226
3 227 226 71
3 225 226 227
3 229 228 2
3 73 230 231
3 73 232 233
3 35 73 7
3 74 73 35
3 74 234 236
3 236 235 73
3 234 235 236
3 74 237 238
3 240 239 74
3 37 241 243
3 243 242 18
3 241 242 243
3 245 244 37
3 39 246 247
3 249 248 39
3 75 250 251
3 75 252 254
3 252 4 253
3 252 253 254
3 54 40 3
3 76 40 54
3 76 19 40
3 42 76 9
3 77 76 42
3 77 19 76
3 77 75 19
3 78 75 77
3 78 4 75
3 78 58 4
3 79 58 78
3 79 11 58
3 44 79 20
3 80 79 44
3 80 11 79
3 80 30 11
3 81 30 80
3 81 1 30
3 65 29 0
3 82 29 65
3 82 10 29
3 46 82 14
3 83 82 46
3 83 10 82
3 83 57 10
3 84 57 83
3 84 5 57
3 255 22 256
3 85 257 258
3 85 259 261
3 259 22 260
3 259 260 261
3 85 84 22
3 86 84 85
3 86 5 84
3 86 45 5
3 87 45 86
3 87 21 45
3 262 87 263
3 264 87 265
3 266 21 267
3 268 267 87
3 266 267 268
3 269 81 270
3 271 270 21
3 269 270 271
3 272 81 273
3 274 1 275
3 276 275 81
3 274 275 276
3 277 67 278
3 279 278 1
3 277 278 279
3 280 67 281
3 282 15 283
3 284 283 67
3 282 283 284
3 285 15 286
3 288 287 15
3 59 289 291
3 291 290 4
3 289 290 291
3 88 292 294
3 294 293 59
3 292 293 294
3 88 295 296
3 297 88 298
3 299 298 12
3 297 298 299
3 300 88 301
3 303 302 88
3 68 32 1
3 89 32 68
3 89 13 32
3 49 89 16
3 90 89 49
3 90 13 89
3 90 62 13
3 91 62 90
3 91 304 306
3 306 305 62
3 304 305 306
3 307 50 308
3 309 308 2
3 307 308 309
3 310 50 311
3 312 23 313
3 314 313 50
3 312 313 314
3 315 23 316
3 317 91 318
3 319 318 23
3 317 318 319
3 320 91 321
3 323 322 91
