ply
format ascii 1.0
element vertex 922
property float x
property float y
property float z
element face 1102
property list uchar int vertex_index
end_header
-3.30929 -89.332047 39.680367
0.00713 -70.259232 56.205048
-2.725733 -58.574894 3.758702
-7.012196 -82.973381 20.524376
-3.291842 -47.547077 51.222927
-0.572479 -67.975571 36.834274
1.566952 -63.66124 20.244999
-5.059523 -86.424789 29.708662
0.06814 -80.667374 47.98737
-0.578346 -69.528137 46.014252
-1.030396 -79.537888 37.905888
-2.147373 -77.115189 28.699833
3.046612 -52.785965 29.880951
-0.070463 -80.689125 58.360683
3.757061 -12.830784 42.970955
2.462662 -28.929787 43.979141
0.34025 -43.184113 44.848148
-2.012274 -59.482075 53.710415
-1.474325 -56.770485 45.156799
0.85845 -54.307819 37.471218
0.844347 -65.863525 28.624966
-2.750475 -74.149933 20.030643
-4.517588 -71.774597 11.751742
0.476433 -61.371796 11.594064
-4.091846 -88.044296 34.619877
-1.268017 -85.322357 43.870934
-0.379501 -80.261703 42.860802
-1.981215 -84.504852 38.810139
-2.896481 -83.331879 33.906906
3.136776 -46.523685 34.175537
-2.132961 -84.7603 63.511642
-0.761627 -80.295387 63.322189
-1.239735 -85.579163 58.952351
-0.860985 -85.893478 54.061806
2.531281 -7.64751 45.329384
2.012445 -15.999638 45.766693
3.21386 -21.142952 43.495796
1.217978 -23.960777 46.138767
-7.996157 -81.633194 16.261808
-4.971087 -43.55582 53.127094
-3.085073 -41.053482 50.011929
-0.713364 -38.516571 47.300755
-1.583633 -45.283081 47.991829
-0.707052 -65.465454 60.14175
-1.910244 -60.505024 58.557682
-0.883165 -64.967422 54.956005
-0.782005 -68.847092 41.275337
-1.330219 -63.333359 45.421791
-1.010855 -62.306473 41.082718
-0.470379 -55.426956 41.251221
-0.141935 -61.278954 37.007317
1.00971 -60.314655 33.110176
0.062551 -66.961578 32.666206
-4.609783 -80.214409 24.703579
-2.440306 -75.610703 24.346163
-5.284277 -78.648438 20.319653
-6.052387 -77.329361 16.070841
3.069283 -57.761196 20.812439
1.264042 -62.566383 15.88572
-1.931242 -66.817047 11.53966
-0.842249 -67.963913 15.668346
-6.059046 -84.645294 25.009418
0.360991 -75.483841 52.110882
-0.220692 -69.993576 51.008854
0.097118 -75.282196 46.924355
-0.326096 -74.833389 41.916553
-0.669146 -74.095467 37.161804
-0.736547 -73.071297 32.690662
-1.676306 -78.472351 33.18808
-3.821381 -81.851456 29.212795
3.799015 -52.224201 25.787231
2.697853 -58.594971 25.138893
-0.064501 -70.371902 61.512379
-0.089737 -75.351059 62.604927
0.321688 -75.495705 57.384922
0.185539 -80.802513 53.192806
-0.881781 -85.788162 48.991886
3.071823 -34.331467 41.263725
1.500154 -36.219032 44.465256
2.025423 -41.476387 41.510445
-3.308002 -55.291439 56.806473
-2.919086 -53.68861 52.472118
-1.185314 -64.250427 50.043114
-1.951212 -58.189365 49.272476
-2.086756 -51.842548 48.631145
-0.803057 -50.015263 45.044632
0.719959 -48.458305 41.486748
2.108765 -47.299438 37.867374
2.108297 -53.445641 33.726044
2.028492 -59.425274 29.214191
1.413921 -64.748886 24.515202
-0.537571 -71.826195 28.428816
-0.298803 -70.483574 24.216745
-0.324896 -69.175667 19.945744
-3.372252 -72.864807 15.780493
-7.148821 -76.267342 12.099067
-0.862133 -60.026714 7.517542
-3.516859 -65.675293 7.662637
-6.169491 -70.868896 8.05946
-2.264269 -87.397751 41.792667
-1.589149 -84.958221 41.326401
-2.625132 -86.917908 39.254997
-3.052805 -86.344315 36.743172
-1.611444 -85.236816 61.283417
-2.137705 -87.74704 59.035107
-1.865816 -88.082977 56.733391
1.238115 -13.603702 46.837448
0.855446 -17.648905 46.959763
1.642076 -20.037386 45.945129
0.412491 -21.599108 47.094185
-3.79657 -57.835354 2.013212
-7.490238 -82.255569 18.362106
-4.124941 -42.328911 51.485741
-3.255737 -44.344616 50.605011
-2.255301 -43.127617 49.100555
-2.491133 -46.413147 49.570148
-0.3041 -67.790794 58.202412
-0.766594 -65.242126 57.518929
-0.38159 -67.628006 55.58292
-0.737398 -68.432426 39.016525
-0.97164 -65.6362 41.122154
-0.765709 -65.167908 38.957695
-0.635967 -61.787304 39.014999
-0.428419 -64.682266 36.864799
0.011786 -64.186279 34.832977
-0.296015 -67.482994 34.722488
-5.90172 -81.590637 22.639942
-4.95163 -79.408401 22.498245
-6.311924 -80.809776 20.445192
-6.729755 -80.104393 18.292196
2.343479 -60.747829 20.512161
2.330906 -60.249744 18.306818
1.472868 -63.120159 18.067322
0.255922 -65.32119 15.737931
0.538998 -65.897003 17.889341
-5.563433 -85.539673 27.331499
-5.800114 -87.851288 27.496227
0.327463 -78.116364 50.047546
0.260818 -75.410263 49.500378
0.194643 -78.013138 47.450207
-0.691685 -79.942223 40.35672
-0.25495 -77.608246 42.365662
-0.524048 -77.292511 39.899681
-0.523201 -74.501709 39.503815
-0.783398 -76.89502 37.496597
-1.00536 -76.415436 35.161316
-1.367268 -79.046913 35.515526
-4.030437 -84.938461 31.844267
-3.369612 -82.623322 31.533464
-4.533892 -84.131271 29.470724
-5.019342 -83.283508 27.148577
3.514465 -49.426018 30.147629
3.927025 -49.192596 28.134949
3.42997 -52.50161 27.873001
3.252007 -55.431549 25.479147
2.932961 -55.770447 27.554127
-0.585648 -68.060242 66.176468
-0.392181 -68.003036 63.525265
-0.244904 -70.38269 64.155434
-0.354321 -80.531212 60.880341
-0.344267 -77.847336 63.018471
-0.007401 -78.004379 60.493053
0.167189 -75.442902 60.013741
0.217972 -78.10659 57.908577
0.344645 -78.159088 55.292274
0.106277 -80.777565 55.790459
-1.645456 -88.32048 51.907467
-0.824793 -85.888306 51.540653
-1.672222 -88.249069 49.413933
-1.784491 -88.066818 46.887047
3.210697 -10.157142 44.169941
3.359829 -5.856304 43.832138
3.936943 -8.517729 42.63385
4.163116 -15.665376 41.710232
2.863323 -25.104591 43.735359
3.596458 -23.895987 42.23164
3.246899 -27.800407 42.468666
3.483055 -30.619305 41.074123
2.844929 -31.568207 42.697517
-0.087627 -40.786953 46.191708
0.451832 -37.324608 45.923676
0.938349 -39.728634 44.677971
1.842667 -38.775421 43.08564
1.238358 -42.272705 43.209694
-1.966303 -60.031853 56.081207
-2.61488 -57.941509 57.70018
-2.593954 -57.326988 55.333134
-3.162575 -54.533531 54.567593
-2.519291 -56.627892 53.091965
-0.399 -69.787865 48.482765
-0.68981 -67.159653 50.502331
-0.861824 -66.847504 48.054539
-1.506714 -60.087708 45.255581
-1.624712 -60.687084 47.409222
-1.777813 -57.483231 47.181866
-2.108521 -55.046669 48.943626
-1.730797 -54.218178 46.99474
-1.493866 -50.908955 46.822727
-1.228197 -53.406227 45.097424
0.177826 -54.834564 39.350342
0.074537 -51.94331 41.381676
0.791649 -51.329201 39.539322
1.453299 -47.827202 39.68557
1.483307 -50.802414 37.697731
2.106873 -50.359505 35.850006
1.516251 -53.846676 35.601662
1.007267 -63.183342 30.870594
1.556934 -59.861015 31.174812
1.458838 -62.684608 28.887499
1.827843 -62.19244 26.870346
1.17354 -65.304276 26.588335
-1.271692 -75.233276 30.682312
-0.660135 -72.469696 30.542765
-1.316309 -74.555984 28.514904
-2.57518 -74.863945 22.185844
-1.330568 -73.125824 24.234488
-1.370018 -72.416016 22.092556
-0.261454 -69.818985 22.089348
-1.482496 -71.733276 19.945148
-1.702353 -71.086998 17.803169
-3.005045 -73.481979 17.889343
-7.70142 -78.931221 14.164153
-6.550791 -76.771194 14.037382
2.00246 -59.142323 13.872629
-0.121536 -60.717319 9.521282
-2.177269 -62.89238 7.560797
-1.386892 -63.531651 9.516066
-3.200033 -69.362534 11.613988
-3.977255 -68.843826 9.68573
-5.292229 -71.298187 9.863708
-6.595566 -73.611145 10.076262
-4.562325 -87.268082 32.139931
-0.465113 -83.079407 45.931103
-0.119673 -80.501266 45.408108
-0.721607 -82.823143 43.371117
-1.051258 -82.48455 40.84156
-1.434681 -82.05954 38.353905
-1.846888 -81.546265 35.917576
-2.42506 -83.961807 36.333977
-3.528858 -85.681442 34.269875
3.100796 -49.685669 32.0914
-1.353046 -82.627853 63.494839
-0.884432 -82.967133 61.152641
-0.552868 -83.200722 58.717525
-0.338638 -83.338089 56.214539
-0.995537 -85.794312 56.538559
-1.707058 -88.269699 54.352455
2.313576 -11.862181 45.572922
2.981262 -14.384893 44.437149
3.513405 -17.047089 43.248566
2.682121 -18.512424 44.66563
2.32373 -22.520571 44.884933
1.915119 -26.399937 45.116684
-8.550533 -81.094063 14.238337
-2.797741 -37.671486 49.466839
-1.512281 -36.332756 48.211246
-1.920546 -39.770142 48.641415
-1.175732 -41.929653 47.650227
-0.620174 -44.195736 46.433006
-1.25597 -63.004448 59.37326
-1.337473 -62.663498 56.810444
-1.446901 -62.257851 54.33115
-0.71904 -69.213806 43.609634
-0.993189 -66.485092 45.673096
-1.04142 -66.078438 43.361183
-1.242037 -62.826347 43.217468
-1.248846 -59.482521 43.166939
-1.033518 -56.077511 43.183594
-0.845577 -58.891407 41.137268
-0.316149 -58.330116 39.159927
0.297369 -57.808254 37.225235
0.939095 -57.329147 35.318645
0.425484 -60.787319 35.045929
0.508387 -63.685219 32.843334
0.459118 -66.418922 30.642609
-3.302698 -78.752365 26.716671
-2.308006 -76.369392 26.513813
-3.563377 -77.959976 24.516346
-3.80335 -77.18222 22.334908
-4.054247 -76.44339 20.169189
-4.353689 -75.759766 18.025833
-5.639685 -77.953278 18.172453
-7.184326 -79.481339 16.192024
2.223469 -59.71925 16.085974
0.935099 -61.9869 13.721338
-0.710564 -64.146988 11.53642
-0.161079 -64.741196 13.614451
-1.316179 -67.386299 13.576282
-2.554333 -69.906021 13.617093
-6.540287 -83.778305 22.740818
-3.947632 -48.644218 53.002892
0.236134 -72.841537 54.168407
-0.077091 -70.148766 53.585846
0.148615 -72.763855 51.551044
0.000744 -72.638428 48.970886
-0.184019 -72.45842 46.437401
-0.006302 -77.846291 44.885933
-0.108313 -75.092072 44.393127
-0.373875 -72.218521 43.959167
-0.532307 -71.915634 41.54467
-0.624739 -71.549187 39.2015
-0.626295 -71.121185 36.934101
-0.528158 -70.636154 34.740776
-0.742622 -73.616653 34.892513
-1.170475 -75.858215 32.892708
-1.93882 -77.823265 30.919638
-2.260706 -80.947083 33.538239
-2.651312 -80.27037 31.216211
-3.000906 -79.531448 28.945847
-4.236174 -81.038979 26.939068
-5.475224 -82.425476 24.873444
3.535835 -55.085796 23.32888
2.914124 -58.185394 23.00584
2.267159 -61.229507 22.68239
-0.721407 -65.643555 62.806843
-0.303099 -67.913971 60.857208
0.01539 -70.331696 58.853546
-0.811918 -77.627502 65.452774
-0.465221 -75.215134 65.126915
-0.273336 -72.789917 64.691483
0.004959 -72.851761 62.098488
0.174294 -72.880966 59.461807
0.248089 -72.878586 56.810879
0.383974 -75.510361 54.744053
0.379637 -78.163177 52.666168
0.171825 -80.766281 50.586636
-0.228144 -83.389008 53.666298
-0.214233 -83.360931 51.092331
-0.294022 -83.257721 48.509174
-1.03021 -85.598831 46.430626
-1.982204 -87.78154 44.341671
3.901299 -19.848764 41.98381
3.173855 -37.226517 39.684349
-0.068657 -25.443434 47.272469
0.755756 -27.763966 46.368805
1.463142 -30.151714 45.370712
-0.224672 -35.028961 46.959145
0.973139 -33.787033 45.644089
2.009243 -32.628071 44.226376
2.379528 -35.217545 42.908909
2.588959 -37.939735 41.415386
2.675167 -40.800987 39.759224
-3.624561 -51.641212 53.78804
-3.180647 -50.661751 51.848408
-0.518402 -67.419258 53.013359
-1.033453 -64.636978 52.462852
-1.555933 -61.787796 51.940002
-1.298637 -63.812584 47.696606
-1.628611 -61.259861 49.634811
-2.018482 -58.862911 51.443947
-2.36554 -55.859829 50.96817
-2.563032 -52.781006 50.502853
-2.601326 -49.630962 50.038513
-1.900627 -48.586517 48.317883
-1.10605 -47.567238 46.641327
-0.258476 -46.608414 44.9683
-0.615067 -52.640282 43.231274
-0.04925 -49.191322 43.271133
0.591339 -45.737926 43.270432
1.3906 -44.973907 41.53479
2.096037 -44.324387 39.761925
2.686306 -43.788475 37.959564
2.66658 -46.868809 36.032234
2.64286 -49.991501 33.986065
2.615616 -53.095848 31.82575
1.553171 -56.891254 33.420616
2.098009 -56.490067 31.50845
2.55574 -56.119282 29.559422
2.407593 -59.004997 27.206829
2.097565 -61.708282 24.803616
1.547176 -64.201645 22.399069
-0.340473 -70.101189 32.611435
-0.090834 -69.525894 30.527546
0.181128 -68.922318 28.464989
-1.325333 -73.846161 26.371546
-0.403816 -71.158081 26.326473
0.431393 -68.304047 26.399267
0.61915 -67.68454 24.311506
0.712271 -67.074402 22.193157
0.689442 -66.478989 20.047775
-0.513571 -68.558075 17.798691
-2.05509 -70.47908 15.686292
-3.874166 -72.296738 13.727604
-4.738047 -75.137413 15.921577
-5.234676 -74.573929 13.880189
-5.855732 -74.06456 11.926208
-7.840992 -75.812424 10.280883
-1.737247 -59.308796 5.594224
-3.059376 -62.229729 5.674938
-5.786175 -67.854553 6.038215
-2.673273 -66.248787 9.567846
-4.855007 -68.344368 7.830195
-3.763822 -90.247063 38.601192
-3.488916 -89.034035 38.409256
-3.488916 -89.034035 38.409256
-3.146837 -87.826966 38.196571
-2.967211 -88.124977 39.467682
-2.690266 -88.683411 58.984201
-2.341174 -87.500008 60.139414
-2.540014 -88.937988 57.900352
-2.690266 -88.683411 58.984201
0.208159 -18.479155 47.502387
0.43809 -16.501991 47.471109
-0.013319 -20.454257 47.569598
0.633969 -19.624007 47.026974
0.208159 -18.479155 47.502387
-3.261151 -58.205124 2.885957
-2.693303 -56.720286 2.869992
-2.157884 -57.090056 3.742737
-7.413276 -83.708378 19.451953
-7.652297 -83.349472 18.370818
-7.251217 -82.614475 19.443241
-3.273789 -45.945847 50.913969
-3.685563 -44.942377 51.416372
-3.703616 -46.543608 51.72533
-0.563743 -69.21127 66.462776
-0.74347 -68.071457 67.474625
-0.393371 -70.372493 65.452259
-0.415276 -69.221466 65.165951
-0.563743 -69.21127 66.462776
-2.154578 -89.431457 49.583013
-1.658839 -88.284774 50.6607
-2.141195 -89.467163 50.82978
-2.181541 -89.361808 48.347935
-2.154578 -89.431457 49.583013
4.067438 -12.097496 42.178696
4.157379 -9.940969 42.010143
3.847002 -10.674256 42.802402
3.960088 -14.24808 42.340593
4.270466 -13.514792 41.548334
4.067438 -12.097496 42.178696
-7.997606 -78.681934 13.199496
-8.43232 -79.769238 13.238855
1.058401 -59.941601 11.642722
1.821414 -58.826864 12.782005
1.239447 -60.257059 12.733346
0.177449 -61.044558 10.557673
0.759416 -59.614362 10.606331
1.058401 -59.941601 11.642722
-4.498919 -88.847488 33.524752
-4.734158 -88.459382 32.284779
-4.327086 -87.656189 33.379904
3.346861 -46.385919 33.230386
3.362604 -44.772108 34.230725
3.118786 -48.104677 33.133468
3.328871 -47.966911 32.188318
3.346861 -46.385919 33.230386
-1.743003 -83.694076 63.503241
-1.667259 -82.402492 64.606257
-2.057217 -83.468716 64.614658
-2.230411 -89.363037 54.429544
-1.786437 -88.176338 55.542923
-2.309791 -89.269676 55.620013
-2.181671 -89.44133 53.258673
-2.230411 -89.363037 54.429544
-8.486508 -82.461373 15.258626
-8.763696 -82.191807 14.246891
-8.273345 -81.363629 15.250072
-4.976304 -41.936349 52.714657
-5.346609 -42.551076 53.569018
-3.534412 -40.032803 50.40873
-4.054346 -40.670517 51.145636
-3.605007 -41.691197 50.748835
-2.941407 -39.362484 49.739384
-3.390746 -38.341805 50.136185
-3.534412 -40.032803 50.40873
-0.981511 -64.234951 59.757505
-1.239634 -63.144728 60.689892
-0.965175 -64.375231 61.074137
3.115744 -57.532425 19.692192
3.430756 -56.236637 20.959593
-6.420362 -85.329658 23.906781
-6.660983 -84.896164 22.772481
-6.299667 -84.2118 23.875118
-4.191325 -49.155487 53.97621
-4.367662 -47.658828 53.511839
4.084848 -50.592577 25.91168
4.148854 -49.076774 27.085539
3.86302 -50.708399 26.96109
3.986034 -52.077433 24.701608
4.084848 -50.592577 25.91168
3.667425 -53.654999 24.558056
3.854444 -53.50823 23.472433
3.986034 -52.077433 24.701608
-0.772749 -65.712593 64.147501
-0.988574 -64.577495 63.747515
-0.786773 -78.961444 64.387482
-1.063029 -78.800308 65.554276
-1.037883 -80.134251 64.488983
-2.400647 -88.994873 44.555467
-1.883348 -87.924179 45.614359
-2.301791 -89.137512 45.828156
-2.503511 -88.803215 43.285749
-2.400647 -88.994873 44.555467
2.592545 -5.515902 45.166717
2.139944 -6.476388 45.905132
3.731476 -2.827046 42.801529
3.389506 -3.685701 43.613872
3.701799 -4.997648 43.019795
3.876205 -23.343341 41.431296
3.71792 -25.33667 41.546568
3.335171 -33.948918 40.40866
3.540786 -32.092836 40.313859
3.277439 -32.475386 41.168924
3.122839 -35.778992 40.474037
3.386186 -35.396442 39.618972
3.335171 -33.948918 40.40866
-0.763697 -26.196323 47.803425
-0.505282 -24.310214 47.711985
0.512964 -29.606925 46.506275
0.095465 -28.470993 46.942169
0.866657 -30.800799 46.007228
1.109449 -28.95784 45.869759
0.512964 -29.606925 46.506275
-2.257769 -59.484858 59.373745
-1.889034 -60.703247 59.844565
-3.340613 -55.619507 57.998979
-2.994052 -56.944542 58.445833
-2.961441 -56.616474 57.253327
-3.707098 -54.309065 57.477995
-3.340613 -55.619507 57.998979
-3.619369 -53.914332 56.345753
-3.707098 -54.309065 57.477995
-0.235194 -58.56534 7.519261
0.123675 -58.927482 8.542145
-1.29969 -59.667755 6.555883
-0.672751 -58.206381 6.557602
-0.235194 -58.56534 7.519261
-3.970974 -65.382873 6.742013
-3.301179 -63.991417 6.691093
-2.847064 -64.283837 7.611717
-4.651517 -66.764923 6.850426
-5.105632 -66.472503 5.929802
-3.970974 -65.382873 6.742013
-6.635009 -70.674835 7.191249
-5.977767 -69.412571 7.076616
-5.512249 -69.606632 7.944827
-7.247959 -71.897964 7.360495
-6.635009 -70.674835 7.191249
-4.310348 -89.248848 34.791922
-3.880193 -88.39016 35.879011
-3.360673 -87.540169 36.940658
-2.838969 -86.631112 37.999085
-3.146837 -87.826966 38.196571
-3.880193 -88.39016 35.879011
-3.572326 -87.194305 35.681525
-3.360673 -87.540169 36.940658
3.153673 -44.940996 35.155043
3.362604 -44.772108 34.230725
-2.078044 -86.244896 61.263569
-1.872202 -84.998558 62.39753
-2.338802 -86.006638 62.377682
-1.874575 -86.491928 60.159262
-2.078044 -86.244896 61.263569
-2.341174 -87.500008 60.139414
-2.40407 -89.105957 56.749494
-2.001761 -87.915008 57.884249
-2.540014 -88.937988 57.900352
-2.309791 -89.269676 55.620013
-2.40407 -89.105957 56.749494
0.629425 -14.479389 47.409952
0.825198 -12.465726 47.38072
0.216508 -13.341413 47.953224
1.046781 -15.626303 46.898606
0.629425 -14.479389 47.409952
0.43809 -16.501991 47.471109
-3.300327 -56.351605 2.000258
-2.693303 -56.720286 2.869992
-4.356324 -57.466034 1.183655
-3.300327 -56.351605 2.000258
-7.931356 -83.036613 17.318891
-8.184316 -82.725426 16.268743
-7.743197 -81.944381 17.311957
-7.931356 -83.036613 17.318891
-7.652297 -83.349472 18.370818
-4.120165 -43.934524 51.856737
-4.548014 -42.942365 52.306417
-4.543238 -44.547979 52.677414
-3.690339 -43.336764 51.045376
-4.120165 -43.934524 51.856737
-3.685563 -44.942377 51.416372
-5.924348 -86.22873 26.224579
-6.172154 -85.78154 25.063538
-5.81124 -85.092484 26.170459
-6.042688 -87.384537 26.306943
-5.924348 -86.22873 26.224579
-5.681774 -86.695481 27.413863
-5.96071 -88.562348 26.359841
-6.042688 -87.384537 26.306943
3.720745 -49.309307 29.141289
3.95301 -47.607349 29.238582
3.74673 -47.72406 30.244923
-0.808275 -66.970726 67.163807
-0.74347 -68.071457 67.474625
-0.70487 -66.920937 65.832313
-0.808275 -66.970726 67.163807
-0.488914 -68.031639 64.850866
-0.608136 -66.892334 64.506712
-0.70487 -66.920937 65.832313
-2.237675 -89.270683 47.084492
-1.728357 -88.157944 48.15049
-2.181541 -89.361808 48.347935
-2.301791 -89.137512 45.828156
-2.237675 -89.270683 47.084492
3.990356 -6.32836 42.420651
3.701799 -4.997648 43.019795
3.648386 -7.187016 43.232994
4.237089 -7.745359 41.808602
3.990356 -6.32836 42.420651
4.237089 -7.745359 41.808602
4.157379 -9.940969 42.010143
4.428953 -15.027534 40.89296
4.270466 -13.514792 41.548334
4.302078 -17.161511 41.04273
4.428953 -15.027534 40.89296
3.54314 -27.28888 41.665081
3.71792 -25.33667 41.546568
3.421679 -25.848197 42.350153
3.364977 -29.209856 41.771394
3.661218 -28.698329 40.96781
3.54314 -27.28888 41.665081
-7.422292 -77.601921 13.13611
-7.126105 -77.851207 14.100767
-7.997606 -78.681934 13.199496
-7.721307 -77.349995 12.166953
-6.849806 -76.519268 13.068224
-7.422292 -77.601921 13.13611
-8.050895 -77.115334 11.266682
-7.721307 -77.349995 12.166953
2.530357 -57.681382 13.955761
2.587046 -57.968342 15.088857
2.530357 -57.681382 13.955761
1.821414 -58.826864 12.782005
0.493973 -59.272785 9.544015
0.759416 -59.614362 10.606331
-0.491835 -60.372017 8.519412
0.123675 -58.927482 8.542145
0.493973 -59.272785 9.544015
-6.362267 -72.262886 9.096374
-6.800898 -72.048241 8.19425
-5.73086 -71.083541 8.961584
-7.013936 -73.419365 9.202651
-6.362267 -72.262886 9.096374
-5.943898 -72.454666 9.969985
-7.600365 -74.517563 9.335847
-7.013936 -73.419365 9.202651
-4.948842 -88.02108 31.038034
-5.197441 -87.599434 29.8224
-4.810924 -86.846436 30.924296
-4.948842 -88.02108 31.038034
-4.734158 -88.459382 32.284779
-4.498919 -88.847488 33.524752
-4.310348 -89.248848 34.791922
3.535705 -47.837086 31.216432
3.74673 -47.72406 30.244923
3.307631 -49.555843 31.119515
3.535705 -47.837086 31.216432
3.328871 -47.966911 32.188318
-1.333593 -81.300483 64.575308
-1.667259 -82.402492 64.606257
-1.057336 -81.46162 63.408514
-1.037883 -80.134251 64.488983
-1.333593 -81.300483 64.575308
-2.15087 -89.466721 52.036178
-1.676257 -88.29509 53.129961
-2.181671 -89.44133 53.258673
-2.141195 -89.467163 50.82978
-2.15087 -89.466721 52.036178
2.036169 -8.564373 46.009666
2.139944 -6.476388 45.905132
1.389587 -11.542469 46.763699
0.97667 -10.404493 47.30697
0.825198 -12.465726 47.38072
1.927317 -10.671709 46.131435
1.389587 -11.542469 46.763699
1.775845 -12.732941 46.205185
2.422428 -9.754846 45.451153
2.036169 -8.564373 46.009666
1.927317 -10.671709 46.131435
-9.091769 -81.957867 13.286158
-8.856876 -80.850659 13.275946
-9.091769 -81.957867 13.286158
-8.763696 -82.191807 14.246891
-8.486508 -82.461373 15.258626
-8.184316 -82.725426 16.268743
-4.553231 -41.322895 51.89398
-4.976304 -41.936349 52.714657
-4.548014 -42.942365 52.306417
-4.553231 -41.322895 51.89398
-4.054346 -40.670517 51.145636
-3.252567 -36.631951 49.84176
-3.390746 -38.341805 50.136185
-2.606187 -35.93347 49.230503
-3.252567 -36.631951 49.84176
-2.155011 -37.002121 48.839043
-1.963457 -35.264105 48.602706
-2.606187 -35.93347 49.230503
-1.561897 -61.952959 60.252353
-1.239634 -63.144728 60.689892
-1.583107 -61.754736 58.965471
-1.889034 -60.703247 59.844565
-1.561897 -61.952959 60.252353
-8.856876 -80.850659 13.275946
-8.43232 -79.769238 13.238855
-8.125977 -80.012642 14.201245
2.746556 -58.776699 18.439381
3.115744 -57.532425 19.692192
2.700095 -59.00547 19.559629
2.692837 -58.511452 17.328959
2.746556 -58.776699 18.439381
2.277188 -59.984497 17.196396
2.69755 -58.256805 16.19553
2.692837 -58.511452 17.328959
2.112965 -59.430786 14.979302
2.587046 -57.968342 15.088857
2.69755 -58.256805 16.19553
-2.479663 -84.455429 64.5644
-2.057217 -83.468716 64.614658
-2.621788 -85.68042 63.429412
-2.479663 -84.455429 64.5644
-2.96849 -85.375549 64.48217
-2.338802 -86.006638 62.377682
-2.621788 -85.68042 63.429412
-3.846697 -59.708824 2.939897
-3.363724 -60.060398 3.809959
-6.914497 -84.478805 21.649096
-7.150451 -84.076344 20.540875
-6.776242 -83.375843 21.632597
-6.914497 -84.478805 21.649096
-6.660983 -84.896164 22.772481
-6.420362 -85.329658 23.906781
-6.172154 -85.78154 25.063538
-5.567736 -88.312683 28.716183
-5.429818 -87.138038 28.602445
-5.197441 -87.599434 29.8224
-5.750058 -89.048897 27.582068
-5.567736 -88.312683 28.716183
-5.51768 -89.510292 28.802023
-5.96071 -88.562348 26.359841
-5.750058 -89.048897 27.582068
-5.272979 -44.125406 54.052482
-5.346609 -42.551076 53.569018
-4.87939 -45.114629 53.57394
-5.272979 -44.125406 54.052482
-4.543238 -44.547979 52.677414
-4.87939 -45.114629 53.57394
-4.031511 -47.092178 52.615313
-4.367662 -47.658828 53.511839
-3.619737 -48.095647 52.11291
-3.703616 -46.543608 51.72533
-4.031511 -47.092178 52.615313
4.187736 -47.506654 28.229396
3.95301 -47.607349 29.238582
4.187736 -47.506654 28.229396
4.148854 -49.076774 27.085539
3.664032 -54.898937 22.217813
3.854444 -53.50823 23.472433
3.302559 -56.423496 22.07066
3.430756 -56.236637 20.959593
3.664032 -54.898937 22.217813
-3.646234 -90.547097 39.882111
-3.167054 -89.578468 40.955097
-0.972353 -64.464281 62.406683
-0.988574 -64.577495 63.747515
-0.71423 -65.554505 61.474297
-0.965175 -64.375231 61.074137
-0.972353 -64.464281 62.406683
-0.556794 -66.823296 63.166054
-0.772749 -65.712593 64.147501
-0.608136 -66.892334 64.506712
-1.122914 -77.481812 66.606583
-1.374025 -78.654618 66.708084
-1.063029 -78.800308 65.554276
-0.896502 -76.327107 66.497844
-1.122914 -77.481812 66.606583
-0.723154 -75.120923 66.334915
-0.896502 -76.327107 66.497844
-0.63857 -76.421318 65.289845
-0.572367 -73.952431 66.165844
-0.723154 -75.120923 66.334915
-0.476424 -72.739823 65.948128
-0.572367 -73.952431 66.165844
-0.369279 -74.002526 64.909199
-0.407587 -71.576107 65.720283
-0.476424 -72.739823 65.948128
-0.25912 -71.586303 64.423459
-0.393371 -70.372493 65.452259
-0.407587 -71.576107 65.720283
-2.644544 -88.611321 42.011247
-2.123236 -87.589646 43.067169
-2.503511 -88.803215 43.285749
-3.167054 -89.578468 40.955097
-2.786779 -88.364899 40.736517
-2.644544 -88.611321 42.011247
3.006819 -4.620299 44.418094
2.592545 -5.515902 45.166717
2.945555 -6.751907 44.580761
3.006819 -4.620299 44.418094
3.389506 -3.685701 43.613872
4.171169 -19.253205 41.179519
4.302078 -17.161511 41.04273
4.032208 -17.75707 41.847021
4.028626 -21.31973 41.307381
3.748879 -21.872376 42.107725
3.876205 -23.343341 41.431296
4.171169 -19.253205 41.179519
4.028626 -21.31973 41.307381
3.725601 -30.204037 40.229151
3.661218 -28.698329 40.96781
3.725601 -30.204037 40.229151
3.540786 -32.092836 40.313859
3.402189 -36.930321 38.79911
3.386186 -35.396442 39.618972
3.183375 -38.735546 38.827942
3.402189 -36.930321 38.79911
-4.382115 -59.339054 2.067152
-3.261151 -58.205124 2.885957
-3.846697 -59.708824 2.939897
-4.859606 -58.977825 1.233607
-4.382115 -59.339054 2.067152
-5.419359 -58.608505 0.40405
-4.356324 -57.466034 1.183655
-4.859606 -58.977825 1.233607
-7.413276 -83.708378 19.451953
-7.150451 -84.076344 20.540875
-3.763822 -90.247063 38.601192
-3.646234 -90.547097 39.882111
-0.264709 -22.388051 47.622843
-0.013319 -20.454257 47.569598
-0.690519 -21.2432 48.098256
0.171917 -23.521271 47.183327
-0.264709 -22.388051 47.622843
-0.505282 -24.310214 47.711985
-0.316742 -27.310727 47.394001
-0.763697 -26.196323 47.803425
0.34355 -26.6037 46.820637
-0.316742 -27.310727 47.394001
0.095465 -28.470993 46.942169
-1.282771 -34.569057 48.020893
-1.963457 -35.264105 48.602706
-0.638966 -33.91716 47.394842
-1.282771 -34.569057 48.020893
-0.868476 -35.680858 47.585195
0.02275 -33.239423 46.801445
-0.638966 -33.91716 47.394842
0.621656 -32.618459 46.143917
0.02275 -33.239423 46.801445
0.374233 -34.407997 46.301617
1.218141 -31.969373 45.507401
0.866657 -30.800799 46.007228
0.621656 -32.618459 46.143917
2.93403 -40.522782 38.86538
3.183375 -38.735546 38.827942
2.924511 -39.013752 39.721787
-2.610086 -58.2031 58.944994
-2.257769 -59.484858 59.373745
-2.262562 -59.223267 58.128931
-2.610086 -58.2031 58.944994
-2.994052 -56.944542 58.445833
-3.546655 -53.535378 55.226313
-3.619369 -53.914332 56.345753
-3.235289 -54.912485 55.687033
-3.777648 -52.089218 54.836537
-3.546655 -53.535378 55.226313
-3.393568 -53.087372 54.177817
-4.029789 -50.653984 54.368784
-3.777648 -52.089218 54.836537
-3.786097 -50.142715 53.395466
-4.191325 -49.155487 53.97621
-4.029789 -50.653984 54.368784
2.9396 -42.016526 37.96555
2.93403 -40.522782 38.86538
2.680737 -42.294731 38.859394
2.928438 -43.573391 37.047056
2.9396 -42.016526 37.96555
2.918575 -45.113558 36.083391
2.928438 -43.573391 37.047056
2.676443 -45.328642 36.995899
2.901678 -46.696247 35.103886
3.153673 -44.940996 35.155043
2.918575 -45.113558 36.083391
-8.223078 -75.618202 9.438157
-7.600365 -74.517563 9.335847
-7.218279 -74.711784 10.178572
-8.39698 -76.887875 10.357591
-7.494906 -76.039883 11.189975
-8.050895 -77.115334 11.266682
-8.743654 -76.666023 9.53725
-8.39698 -76.887875 10.357591
-8.223078 -75.618202 9.438157
-8.743654 -76.666023 9.53725
-1.61986 -57.465603 4.66497
-2.157884 -57.090056 3.742737
-1.125617 -57.832554 5.582731
-0.672751 -58.206381 6.557602
-2.23149 -58.941845 4.676463
-1.61986 -57.465603 4.66497
-1.125617 -57.832554 5.582731
-2.869481 -60.427349 4.72772
-3.363724 -60.060398 3.809959
-2.23149 -58.941845 4.676463
-3.530545 -61.887816 4.768077
-2.869481 -60.427349 4.72772
-2.398312 -60.769262 5.634581
-4.205821 -63.358548 4.857881
-3.530545 -61.887816 4.768077
-3.742233 -63.660091 5.748164
-2.618322 -62.561054 6.617868
-3.301179 -63.991417 6.691093
-4.205821 -63.358548 4.857881
-3.742233 -63.660091 5.748164
-6.248715 -67.606842 5.169031
-5.105632 -66.472503 5.929802
-6.901739 -68.983841 5.337207
-6.248715 -67.606842 5.169031
-6.443351 -69.167664 6.180626
-5.320591 -68.09946 6.934205
-5.977767 -69.412571 7.076616
-6.901739 -68.983841 5.337207
-6.443351 -69.167664 6.180626
-7.247959 -71.897964 7.360495
-6.800898 -72.048241 8.19425
3 0 392 393
3 0 101 99
3 0 394 396
3 396 395 101
3 394 395 396
3 397 104 398
3 400 399 104
3 401 107 402
3 403 109 404
3 405 404 107
3 403 404 405
3 2 406 408
3 406 110 407
3 406 407 408
3 3 409 411
3 411 410 111
3 409 410 411
3 4 412 414
3 412 113 413
3 412 413 414
3 4 115 113
3 1 118 116
3 5 121 119
3 5 123 121
3 5 125 123
3 3 128 126
3 3 111 128
3 6 132 130
3 6 134 132
3 7 136 135
3 8 139 137
3 10 142 140
3 10 144 142
3 10 146 144
3 7 149 147
3 7 135 149
3 12 153 151
3 12 155 153
3 415 156 416
3 417 158 418
3 419 418 156
3 417 418 419
3 13 161 159
3 13 163 161
3 13 165 163
3 420 168 421
3 422 421 166
3 420 421 422
3 424 423 168
3 14 172 170
3 14 425 427
3 427 426 172
3 425 426 427
3 14 428 430
3 428 173 429
3 428 429 430
3 15 176 174
3 15 178 176
3 16 181 179
3 16 183 181
3 17 186 184
3 17 188 186
3 9 191 189
3 18 194 192
3 18 196 194
3 18 198 196
3 19 201 199
3 19 203 201
3 19 205 203
3 20 208 206
3 20 210 208
3 11 213 211
3 21 216 214
3 21 218 216
3 21 220 218
3 432 431 221
3 23 433 435
3 435 434 223
3 433 434 435
3 23 436 438
3 436 224 437
3 436 437 438
3 23 226 224
3 22 229 227
3 22 230 229
3 24 439 441
3 441 440 231
3 439 440 441
3 25 234 232
3 27 235 100
3 27 236 235
3 27 238 236
3 24 239 102
3 24 231 239
3 29 442 443
3 29 444 446
3 444 240 445
3 444 445 446
3 30 447 449
3 447 241 448
3 447 448 449
3 32 242 103
3 32 243 242
3 32 245 243
3 450 246 451
3 452 451 105
3 450 451 452
3 454 453 246
3 35 247 106
3 35 248 247
3 35 250 248
3 37 251 108
3 37 252 251
3 38 455 457
3 457 456 253
3 455 456 457
3 39 458 459
3 40 460 462
3 462 461 112
3 460 461 462
3 40 463 465
3 463 254 464
3 463 464 465
3 40 256 254
3 42 257 114
3 42 258 257
3 43 466 468
3 466 259 467
3 466 467 468
3 45 260 117
3 45 261 260
3 46 264 262
3 48 265 120
3 48 266 265
3 48 268 266
3 50 269 122
3 50 270 269
3 50 272 270
3 52 273 124
3 52 274 273
3 53 277 275
3 55 278 127
3 55 279 278
3 55 281 279
3 38 282 129
3 38 253 282
3 57 469 470
3 58 283 131
3 58 284 283
3 58 286 284
3 60 287 133
3 60 288 287
3 61 471 473
3 473 472 289
3 471 472 473
3 474 290 475
3 62 293 291
3 64 294 138
3 64 295 294
3 26 296 233
3 65 297 141
3 65 298 297
3 65 299 298
3 66 300 143
3 66 301 300
3 66 303 301
3 68 304 145
3 68 305 304
3 28 306 237
3 69 307 148
3 69 308 307
3 69 309 308
3 61 310 150
3 61 289 310
3 70 476 478
3 478 477 152
3 476 477 478
3 70 479 480
3 70 481 483
3 481 311 482
3 481 482 483
3 71 312 154
3 71 313 312
3 484 314 485
3 72 315 157
3 72 316 315
3 31 486 488
3 486 317 487
3 486 487 488
3 73 318 160
3 73 319 318
3 73 320 319
3 74 321 162
3 74 322 321
3 74 323 322
3 75 324 164
3 75 325 324
3 33 326 244
3 76 327 167
3 76 328 327
3 76 329 328
3 489 330 490
3 491 490 169
3 489 490 491
3 493 492 330
3 34 494 495
3 498 497 171
3 496 497 498
3 36 331 249
3 500 499 175
3 77 501 503
3 503 502 177
3 501 502 503
3 77 504 506
3 504 332 505
3 504 505 506
3 507 333 508
3 509 334 510
3 511 335 512
3 513 512 334
3 511 512 513
3 41 336 255
3 78 337 180
3 78 338 337
3 78 339 338
3 79 340 182
3 79 341 340
3 44 514 515
3 80 516 518
3 518 517 185
3 516 517 518
3 80 519 520
3 80 521 522
3 81 342 187
3 81 343 342
3 63 344 292
3 82 345 190
3 82 346 345
3 47 347 263
3 83 348 193
3 83 349 348
3 83 350 349
3 84 351 195
3 84 352 351
3 84 353 352
3 85 354 197
3 85 355 354
3 49 356 267
3 86 357 200
3 86 358 357
3 86 359 358
3 87 360 202
3 87 361 360
3 87 362 361
3 88 363 204
3 88 364 363
3 51 365 271
3 89 366 207
3 89 367 366
3 89 368 367
3 90 369 209
3 90 370 369
3 67 371 302
3 91 372 212
3 91 373 372
3 54 374 276
3 92 375 215
3 92 376 375
3 92 377 376
3 93 378 217
3 93 379 378
3 93 380 379
3 94 381 219
3 94 382 381
3 56 383 280
3 95 384 222
3 95 385 384
3 95 386 385
3 96 523 524
3 96 525 527
3 525 387 526
3 525 526 527
3 96 388 387
3 97 528 530
3 530 529 225
3 528 529 530
3 97 531 533
3 531 389 532
3 531 532 533
3 59 390 285
3 98 391 228
3 98 534 536
3 536 535 391
3 534 535 536
3 98 537 538
3 540 539 24
3 99 100 25
3 101 100 99
3 101 27 100
3 101 102 27
3 541 102 542
3 543 542 101
3 541 542 543
3 544 24 545
3 546 545 102
3 544 545 546
3 547 29 548
3 549 103 550
3 551 550 30
3 549 550 551
3 104 552 554
3 552 103 553
3 552 553 554
3 104 32 103
3 104 105 32
3 555 105 556
3 557 556 104
3 555 556 557
3 559 558 105
3 560 106 561
3 560 561 562
3 107 563 565
3 563 106 564
3 563 564 565
3 107 35 106
3 107 108 35
3 109 108 107
3 109 37 108
3 110 566 567
3 110 568 569
3 111 570 572
3 572 571 38
3 570 571 572
3 574 573 111
3 575 112 576
3 577 576 39
3 575 576 577
3 113 578 580
3 578 112 579
3 578 579 580
3 113 40 112
3 113 114 40
3 115 114 113
3 115 42 114
3 116 117 43
3 118 117 116
3 118 45 117
3 119 120 46
3 121 120 119
3 121 48 120
3 121 122 48
3 123 122 121
3 123 50 122
3 123 124 50
3 125 124 123
3 125 52 124
3 126 127 53
3 128 127 126
3 128 55 127
3 128 129 55
3 111 129 128
3 111 38 129
3 130 131 57
3 132 131 130
3 132 58 131
3 132 133 58
3 134 133 132
3 134 60 133
3 135 581 583
3 583 582 61
3 581 582 583
3 136 584 586
3 586 585 135
3 584 585 586
3 136 587 588
3 137 138 62
3 139 138 137
3 139 64 138
3 140 141 26
3 142 141 140
3 142 65 141
3 142 143 65
3 144 143 142
3 144 66 143
3 144 145 66
3 146 145 144
3 146 68 145
3 147 148 28
3 149 148 147
3 149 69 148
3 149 150 69
3 135 150 149
3 135 61 150
3 151 589 591
3 589 152 590
3 589 590 591
3 153 152 151
3 153 70 152
3 153 154 70
3 155 154 153
3 155 71 154
3 156 592 593
3 156 594 595
3 156 596 598
3 596 157 597
3 596 597 598
3 158 157 156
3 158 72 157
3 159 160 31
3 161 160 159
3 161 73 160
3 161 162 73
3 163 162 161
3 163 74 162
3 163 164 74
3 165 164 163
3 165 75 164
3 166 167 33
3 168 167 166
3 168 76 167
3 168 169 76
3 599 169 600
3 601 600 168
3 599 600 601
3 603 602 169
3 170 171 34
3 172 171 170
3 172 604 606
3 606 605 171
3 604 605 606
3 172 607 608
3 610 609 172
3 173 611 612
3 173 613 614
3 174 175 36
3 176 175 174
3 176 615 617
3 617 616 175
3 615 616 617
3 176 618 620
3 618 177 619
3 618 619 620
3 178 177 176
3 178 77 177
3 179 180 41
3 181 180 179
3 181 78 180
3 181 182 78
3 183 182 181
3 183 79 182
3 184 185 44
3 186 185 184
3 186 80 185
3 186 187 80
3 188 187 186
3 188 81 187
3 189 190 63
3 191 190 189
3 191 82 190
3 192 193 47
3 194 193 192
3 194 83 193
3 194 195 83
3 196 195 194
3 196 84 195
3 196 197 84
3 198 197 196
3 198 85 197
3 199 200 49
3 201 200 199
3 201 86 200
3 201 202 86
3 203 202 201
3 203 87 202
3 203 204 87
3 205 204 203
3 205 88 204
3 206 207 51
3 208 207 206
3 208 89 207
3 208 209 89
3 210 209 208
3 210 90 209
3 211 212 67
3 213 212 211
3 213 91 212
3 214 215 54
3 216 215 214
3 216 92 215
3 216 217 92
3 218 217 216
3 218 93 217
3 218 219 93
3 220 219 218
3 220 94 219
3 221 222 56
3 621 222 622
3 623 622 221
3 621 622 623
3 624 95 625
3 626 625 222
3 624 625 626
3 628 627 95
3 223 629 630
3 632 631 223
3 224 633 634
3 224 635 637
3 635 96 636
3 635 636 637
3 224 225 96
3 226 225 224
3 226 97 225
3 227 228 59
3 229 228 227
3 229 98 228
3 229 638 640
3 640 639 98
3 638 639 640
3 230 641 643
3 643 642 229
3 641 642 643
3 230 644 645
3 231 646 648
3 648 647 7
3 646 647 648
3 650 649 231
3 652 651 24
3 232 233 8
3 234 233 232
3 234 26 233
3 100 234 25
3 235 234 100
3 235 26 234
3 235 140 26
3 236 140 235
3 236 10 140
3 236 237 10
3 238 237 236
3 238 28 237
3 102 238 27
3 239 238 102
3 239 28 238
3 239 147 28
3 231 147 239
3 231 7 147
3 653 151 654
3 240 655 657
3 655 151 656
3 655 656 657
3 240 12 151
3 241 658 659
3 241 660 662
3 660 31 661
3 660 661 662
3 103 241 30
3 242 241 103
3 242 31 241
3 242 159 31
3 243 159 242
3 243 13 159
3 243 244 13
3 245 244 243
3 245 33 244
3 105 245 32
3 246 245 105
3 246 33 245
3 246 166 33
3 663 166 664
3 665 664 246
3 663 664 665
3 667 666 166
3 668 34 669
3 106 670 672
3 670 671 672
3 247 673 675
3 675 674 106
3 673 674 675
3 247 676 678
3 676 34 677
3 676 677 678
3 247 170 34
3 248 170 247
3 248 14 170
3 248 249 14
3 250 249 248
3 250 36 249
3 108 250 35
3 251 250 108
3 251 36 250
3 251 174 36
3 252 174 251
3 252 15 174
3 253 679 680
3 682 681 253
3 684 683 38
3 112 685 687
3 687 686 39
3 685 686 687
3 689 688 112
3 254 690 691
3 254 692 693
3 254 694 696
3 694 255 695
3 694 695 696
3 256 255 254
3 256 41 255
3 114 256 40
3 257 256 114
3 257 41 256
3 257 179 41
3 258 179 257
3 258 16 179
3 259 697 698
3 259 699 701
3 699 44 700
3 699 700 701
3 117 259 43
3 260 259 117
3 260 44 259
3 260 184 44
3 261 184 260
3 261 17 184
3 262 263 9
3 264 263 262
3 264 47 263
3 120 264 46
3 265 264 120
3 265 47 264
3 265 192 47
3 266 192 265
3 266 18 192
3 266 267 18
3 268 267 266
3 268 49 267
3 122 268 48
3 269 268 122
3 269 49 268
3 269 199 49
3 270 199 269
3 270 19 199
3 270 271 19
3 272 271 270
3 272 51 271
3 124 272 50
3 273 272 124
3 273 51 272
3 273 206 51
3 274 206 273
3 274 20 206
3 275 276 11
3 277 276 275
3 277 54 276
3 127 277 53
3 278 277 127
3 278 54 277
3 278 214 54
3 279 214 278
3 279 21 214
3 279 280 21
3 281 280 279
3 281 56 280
3 129 281 55
3 282 281 129
3 282 56 281
3 282 221 56
3 253 221 282
3 253 702 704
3 704 703 221
3 702 703 704
3 131 705 707
3 707 706 57
3 705 706 707
3 283 708 710
3 710 709 131
3 708 709 710
3 283 711 712
3 283 713 715
3 713 223 714
3 713 714 715
3 284 223 283
3 284 23 223
3 284 285 23
3 286 285 284
3 286 59 285
3 133 286 58
3 287 286 133
3 287 59 286
3 287 227 59
3 288 227 287
3 288 22 227
3 716 30 717
3 718 30 719
3 718 719 720
3 722 721 30
3 724 723 2
3 289 725 727
3 727 726 3
3 725 726 727
3 729 728 289
3 731 730 61
3 732 136 733
3 734 733 7
3 732 733 734
3 735 136 736
3 735 736 737
3 739 738 136
3 740 39 741
3 742 39 743
3 745 744 39
3 290 746 747
3 290 748 750
3 748 4 749
3 748 749 750
3 291 292 1
3 293 292 291
3 293 63 292
3 138 293 62
3 294 293 138
3 294 63 293
3 294 189 63
3 295 189 294
3 295 9 189
3 233 139 8
3 296 139 233
3 296 64 139
3 141 296 26
3 297 296 141
3 297 64 296
3 297 295 64
3 298 295 297
3 298 9 295
3 298 262 9
3 299 262 298
3 299 46 262
3 143 299 65
3 300 299 143
3 300 46 299
3 300 119 46
3 301 119 300
3 301 5 119
3 301 302 5
3 303 302 301
3 303 67 302
3 145 303 66
3 304 303 145
3 304 67 303
3 304 211 67
3 305 211 304
3 305 11 211
3 237 146 10
3 306 146 237
3 306 68 146
3 148 306 28
3 307 306 148
3 307 68 306
3 307 305 68
3 308 305 307
3 308 11 305
3 308 275 11
3 309 275 308
3 309 53 275
3 150 309 69
3 310 309 150
3 310 53 309
3 310 126 53
3 289 126 310
3 289 3 126
3 152 751 752
3 754 753 152
3 311 755 756
3 311 757 759
3 757 57 758
3 757 758 759
3 154 311 70
3 312 311 154
3 312 57 311
3 312 130 57
3 313 130 312
3 313 6 130
3 761 760 0
3 314 762 763
3 314 764 766
3 764 43 765
3 764 765 766
3 157 767 769
3 767 314 768
3 767 768 769
3 315 314 157
3 315 43 314
3 315 116 43
3 316 116 315
3 316 1 116
3 317 770 772
3 770 771 772
3 317 773 774
3 160 317 31
3 318 317 160
3 318 775 777
3 777 776 317
3 775 776 777
3 318 778 779
3 319 780 782
3 782 781 318
3 780 781 782
3 319 783 784
3 319 785 787
3 785 158 786
3 785 786 787
3 320 158 319
3 320 72 158
3 162 320 73
3 321 320 162
3 321 72 320
3 321 316 72
3 322 316 321
3 322 1 316
3 322 291 1
3 323 291 322
3 323 62 291
3 164 323 74
3 324 323 164
3 324 62 323
3 324 137 62
3 325 137 324
3 325 8 137
3 244 165 13
3 326 165 244
3 326 75 165
3 167 326 33
3 327 326 167
3 327 75 326
3 327 325 75
3 328 325 327
3 328 8 325
3 328 232 8
3 329 232 328
3 329 25 232
3 169 329 76
3 330 329 169
3 330 25 329
3 330 99 25
3 788 99 789
3 790 789 330
3 788 789 790
3 791 0 792
3 793 792 99
3 791 792 793
3 171 794 796
3 796 795 34
3 794 795 796
3 798 797 171
3 249 173 14
3 331 173 249
3 331 799 801
3 801 800 173
3 799 800 801
3 175 331 36
3 802 331 803
3 804 803 175
3 802 803 804
3 806 805 331
3 177 807 808
3 810 809 177
3 332 811 812
3 332 813 814
3 815 110 816
3 817 816 2
3 815 816 817
3 818 110 819
3 822 821 110
3 820 821 822
3 824 823 3
3 826 825 0
3 827 109 828
3 827 828 829
3 333 830 832
3 830 109 831
3 830 831 832
3 333 37 109
3 833 333 834
3 334 835 837
3 835 333 836
3 835 836 837
3 334 37 333
3 334 252 37
3 335 252 334
3 335 15 252
3 255 838 839
3 336 840 842
3 842 841 255
3 840 841 842
3 336 843 844
3 180 336 41
3 337 336 180
3 337 845 847
3 847 846 336
3 845 846 847
3 337 848 850
3 848 335 849
3 848 849 850
3 338 335 337
3 338 15 335
3 338 178 15
3 339 178 338
3 339 77 178
3 182 339 78
3 340 339 182
3 340 77 339
3 340 332 77
3 341 332 340
3 341 851 853
3 853 852 332
3 851 852 853
3 185 854 856
3 856 855 44
3 854 855 856
3 858 857 185
3 187 859 861
3 861 860 80
3 859 860 861
3 342 862 864
3 864 863 187
3 862 863 864
3 342 865 866
3 342 867 869
3 867 290 868
3 867 868 869
3 343 290 342
3 343 4 290
3 292 118 1
3 344 118 292
3 344 45 118
3 190 344 63
3 345 344 190
3 345 45 344
3 345 261 45
3 346 261 345
3 346 17 261
3 263 191 9
3 347 191 263
3 347 82 191
3 193 347 47
3 348 347 193
3 348 82 347
3 348 346 82
3 349 346 348
3 349 17 346
3 349 188 17
3 350 188 349
3 350 81 188
3 195 350 83
3 351 350 195
3 351 81 350
3 351 343 81
3 352 343 351
3 352 4 343
3 352 115 4
3 353 115 352
3 353 42 115
3 197 353 84
3 354 353 197
3 354 42 353
3 354 258 42
3 355 258 354
3 355 16 258
3 267 198 18
3 356 198 267
3 356 85 198
3 200 356 49
3 357 356 200
3 357 85 356
3 357 355 85
3 358 355 357
3 358 16 355
3 358 183 16
3 359 183 358
3 359 79 183
3 202 359 86
3 360 359 202
3 360 79 359
3 360 341 79
3 361 341 360
3 361 870 872
3 872 871 341
3 870 871 872
3 361 873 874
3 362 875 877
3 877 876 361
3 875 876 877
3 362 878 880
3 878 29 879
3 878 879 880
3 204 362 87
3 363 362 204
3 363 29 362
3 363 240 29
3 364 240 363
3 364 12 240
3 271 205 19
3 365 205 271
3 365 88 205
3 207 365 51
3 366 365 207
3 366 88 365
3 366 364 88
3 367 364 366
3 367 12 364
3 367 155 12
3 368 155 367
3 368 71 155
3 209 368 89
3 369 368 209
3 369 71 368
3 369 313 71
3 370 313 369
3 370 6 313
3 302 125 5
3 371 125 302
3 371 52 125
3 212 371 67
3 372 371 212
3 372 52 371
3 372 274 52
3 373 274 372
3 373 20 274
3 276 213 11
3 374 213 276
3 374 91 213
3 215 374 54
3 375 374 215
3 375 91 374
3 375 373 91
3 376 373 375
3 376 20 373
3 376 210 20
3 377 210 376
3 377 90 210
3 217 377 92
3 378 377 217
3 378 90 377
3 378 370 90
3 379 370 378
3 379 6 370
3 379 134 6
3 380 134 379
3 380 60 134
3 219 380 93
3 381 380 219
3 381 60 380
3 381 288 60
3 382 288 381
3 382 22 288
3 280 220 21
3 383 220 280
3 383 94 220
3 222 383 56
3 384 383 222
3 384 94 383
3 384 382 94
3 385 382 384
3 385 22 382
3 385 230 22
3 386 230 385
3 386 881 883
3 883 882 230
3 881 882 883
3 884 386 885
3 886 885 95
3 884 885 886
3 887 386 888
3 890 889 386
3 891 2 892
3 387 893 894
3 387 895 897
3 895 2 896
3 895 896 897
3 387 898 900
3 900 899 2
3 898 899 900
3 388 901 903
3 903 902 387
3 901 902 903
3 388 904 905
3 225 388 96
3 906 388 907
3 908 907 225
3 906 907 908
3 910 909 388
3 389 911 912
3 389 913 914
3 285 226 23
3 390 226 285
3 390 97 226
3 228 390 59
3 391 390 228
3 391 97 390
3 391 389 97
3 915 389 916
3 917 916 391
3 915 916 917
3 919 918 389
3 921 920 98
