ply
format ascii 1.0
element vertex 476
property float x
property float y
property float z
element face 419
property list uchar int vertex_index
end_header
-8.314447 42.529835 -32.877678
-26.753277 38.959602 -28.741283
-17.440147 41.045692 -31.139942
-8.144985 24.716984 -29.674873
-12.566252 56.237873 -31.080734
-7.822794 71.090042 -29.747959
-2.803162 57.736675 -34.180843
-4.828167 64.924362 -32.594799
-22.311308 39.952274 -30.035294
-19.930695 33.950268 -31.05732
-4.415627 42.084679 -33.216183
-7.723143 34.138752 -31.642345
-4.291096 32.706596 -31.412994
-5.013493 22.362289 -29.237339
-30.193712 49.567722 -25.854469
-25.85248 45.148991 -28.102486
-15.009011 48.530514 -31.097939
-14.025398 69.24855 -27.699356
-10.126091 63.906078 -30.837967
-7.25 57.58749 -33.062069
-5.378384 50.346996 -33.891182
-1.628469 49.605556 -34.284069
-11.540688 26.172657 -30.203587
-10.450159 42.37252 -32.556961
-11.96545 38.434944 -32.10778
-9.882551 38.553581 -32.292091
-1.800434 68.046417 -31.972466
-19.88784 40.495384 -30.594833
-20.96059 37.049866 -30.687283
-18.670658 37.440182 -31.128834
-2.70083 41.417698 -33.199356
-4.250193 37.534142 -32.414478
-2.640993 36.637672 -32.278957
-3.076263 26.311123 -30.062462
-15.448972 55.269833 -29.957672
-16.589157 51.458317 -30.08984
-13.790543 52.369228 -31.090435
-12.899733 72.734756 -27.032875
-10.80265 70.322357 -28.815948
-11.953348 66.710358 -29.346115
-8.94379 67.593399 -30.443321
-3.701084 61.448177 -33.565483
-5.992773 61.330074 -32.973892
-4.894196 57.838642 -33.759888
-6.194239 54.086369 -33.668926
-4.030422 54.113628 -34.173588
-3.386063 50.145458 -34.203423
-2.117672 53.79211 -34.420483
-7.804365 29.541306 -30.694897
-9.562061 30.127251 -30.875393
-9.81579 25.552319 -29.927124
-15.028726 41.57275 -31.665478
-16.379856 37.826366 -31.516914
-14.135559 38.173775 -31.847172
-17.366991 57.972767 -28.638481
-14.291384 59.115467 -29.831573
-6.199167 68.148727 -31.305809
-2.656719 64.867355 -32.994308
-1.739536 61.176167 -33.814995
-1.025951 57.257084 -34.275093
-8.755299 19.728558 -28.695126
-10.354362 20.797462 -28.976776
-24.630207 39.436161 -29.43576
-25.261538 36.33374 -29.557037
-23.183493 36.677219 -30.176586
-22.045807 33.72477 -30.678242
-17.777544 34.181038 -31.341763
-19.237522 30.665142 -31.138489
-6.29644 42.448254 -33.100639
-7.894028 38.472385 -32.403019
-6.010229 38.142883 -32.445911
-5.951948 33.557022 -31.549202
-6.125244 28.711426 -30.513981
-2.76499 31.590233 -31.197124
-4.542412 27.630928 -30.317356
-6.539042 23.652767 -29.452209
-32.577816 48.497555 -25.245644
-30.390518 46.513737 -26.347424
-28.290354 44.349869 -27.452522
-26.349333 41.9935 -28.505161
-23.955084 42.651779 -29.148926
-18.807411 44.053074 -30.433605
-17.708899 47.712322 -30.252235
-16.223347 44.748795 -31.119099
-13.707611 45.39362 -31.804031
-8.986446 46.317371 -32.995621
-16.310764 71.48558 -25.96273
-17.409466 67.93898 -26.523266
-15.154634 65.570221 -28.129444
-13.122427 62.949604 -29.654495
-11.340641 60.099949 -31.021084
-6.812664 46.473736 -33.431335
-4.789267 46.352283 -33.729427
-2.946724 45.918415 -33.864342
-9.585955 34.470051 -31.701603
-26.935139 37.491615 -28.757141
-27.672767 38.744794 -28.311689
-1.912891 38.544041 -32.640836
-2.670911 39.027685 -32.739156
-1.94281 40.934054 -33.101036
-11.836686 54.695545 -31.575389
-12.448831 52.761223 -31.58024
-13.178397 54.303551 -31.085584
-8.75967 72.397598 -28.862631
-7.309848 72.707229 -29.2115
-9.312722 70.706199 -29.281954
-10.249598 72.013756 -28.396625
-8.75967 72.397598 -28.862631
-13.413749 40.103537 -31.997034
-14.582142 39.873262 -31.756325
-13.860332 41.803024 -31.906187
-12.757858 36.48959 -31.887628
-11.747754 36.511679 -31.911814
-16.819283 59.87952 -28.526125
-18.444435 59.225448 -27.934793
-15.28148 60.450871 -29.122671
-15.829187 58.544117 -29.235027
-16.819283 59.87952 -28.526125
-1.76892 64.628601 -32.994071
-2.228576 66.456886 -32.483387
-1.340778 66.218132 -32.483151
-1.310329 62.783007 -33.404415
-2.198128 63.021761 -33.404651
-1.76892 64.628601 -32.994071
-0.946514 60.840359 -33.745085
-1.310329 62.783007 -33.404415
-9.96984 17.833081 -28.413599
-9.200162 17.194387 -28.272821
-20.584818 32.272601 -30.990784
-21.642374 32.159852 -30.801245
-20.988251 33.837519 -30.867781
-16.70825 34.286473 -31.442971
-17.0787 36.003702 -31.429339
-16.009407 36.109137 -31.530546
-19.06127 28.938975 -31.054859
-18.228372 30.694874 -31.190575
-20.003496 28.988094 -31.039404
-19.06127 28.938975 -31.054859
-2.080484 30.909551 -31.019865
-1.987909 33.528621 -31.591077
-6.109451 20.407716 -28.853115
-6.872225 21.052956 -28.96055
-5.776268 23.007528 -29.344774
-31.349675 50.538742 -25.315924
-30.003383 51.175235 -25.578928
-31.385764 49.032639 -25.550057
-32.541727 50.003659 -25.011511
-31.349675 50.538742 -25.315924
-27.071417 44.74943 -27.777504
-28.121463 45.900286 -27.215998
-26.902526 46.299847 -27.540979
-19.635009 45.453728 -29.947376
-20.108447 43.699011 -30.105648
-9.450857 48.084644 -32.85969
-10.138054 46.126991 -32.719517
-6.084022 64.75547 -32.2227
-6.769522 66.367652 -31.578205
-5.513667 66.536544 -31.950304
-7.903996 59.224163 -32.581136
-7.275383 61.095455 -32.537048
-6.621386 59.458782 -33.017981
-8.535726 57.310058 -32.603516
-7.903996 59.224163 -32.581136
-7.907696 55.667412 -33.006529
-8.535726 57.310058 -32.603516
-6.472069 50.290283 -33.638916
-6.879996 52.15997 -33.527788
-5.786312 52.216682 -33.780054
-6.095524 48.410366 -33.661259
-7.189209 48.353653 -33.408992
-6.472069 50.290283 -33.638916
-1.474905 47.384045 -34.039459
-2.134032 45.540474 -33.829595
-2.287597 47.761986 -34.074206
-0.762427 55.184513 -34.318737
-0.312693 56.831318 -34.135791
-25.581625 34.831762 -29.530729
-24.659944 34.925415 -29.866104
-11.464137 28.333657 -30.624399
-10.474824 30.310954 -30.960302
-10.551374 28.149954 -30.53949
-12.42774 26.390017 -30.34103
-11.464137 28.333657 -30.624399
-11.17353 21.230797 -29.145717
-11.550063 18.915458 -28.737164
-11.207804 40.403732 -32.33237
-12.328694 40.234121 -32.127338
-11.571048 42.202909 -32.351928
-10.706304 36.570997 -32.003969
-11.747754 36.511679 -31.911814
-10.924001 38.494263 -32.199935
-1.480632 69.492867 -31.214211
-2.366063 69.743874 -31.305424
-1.029508 67.69162 -31.818821
-1.480632 69.492867 -31.214211
-1.340778 66.218132 -32.483151
-1.029508 67.69162 -31.818821
-2.409274 25.544195 -29.87569
-2.236121 28.269996 -30.452534
-3.329941 23.586756 -29.523222
-2.409274 25.544195 -29.87569
-4.298555 21.612339 -29.110661
-4.044878 24.336706 -29.649901
-3.329941 23.586756 -29.523222
-5.365249 19.671276 -28.75416
-4.298555 21.612339 -29.110661
-28.828514 50.134522 -26.143704
-30.003383 51.175235 -25.578928
-29.073142 48.509213 -26.416971
-28.828514 50.134522 -26.143704
-25.546835 46.794647 -27.854071
-26.902526 46.299847 -27.540979
-24.529644 45.570084 -28.426617
-25.546835 46.794647 -27.854071
-16.019064 53.364075 -30.023756
-17.512014 52.823364 -29.480261
-16.941922 54.729123 -29.414177
-13.096733 50.816067 -31.516632
-13.705967 48.89671 -31.520384
-14.399777 50.449871 -31.094187
-13.096733 50.816067 -31.516632
-12.448831 52.761223 -31.58024
-11.298139 73.219955 -27.505089
-12.350783 74.339684 -26.540854
-11.851191 71.528557 -27.924411
-11.298139 73.219955 -27.505089
-10.249598 72.013756 -28.396625
-14.887258 36.282841 -31.695675
-16.009407 36.109137 -31.530546
-15.257708 38.00007 -31.682043
-13.050505 38.30436 -31.977476
-13.413749 40.103537 -31.997034
-12.328694 40.234121 -32.127338
-13.842913 36.359005 -31.757325
-13.050505 38.30436 -31.977476
-12.757858 36.48959 -31.887628
-14.887258 36.282841 -31.695675
-13.842913 36.359005 -31.757325
-18.945256 57.350151 -28.09086
-18.444435 59.225448 -27.934793
-17.900931 56.08059 -28.754582
-18.945256 57.350151 -28.09086
-16.407981 56.6213 -29.298077
-16.941922 54.729123 -29.414177
-17.900931 56.08059 -28.754582
-6.497542 71.285911 -30.066025
-7.309848 72.707229 -29.2115
-5.685729 69.815254 -30.844949
-7.010981 69.619384 -30.526884
-6.497542 71.285911 -30.066025
-4.99735 68.231193 -31.572211
-5.685729 69.815254 -30.844949
-4.31185 66.619011 -32.216706
-5.513667 66.536544 -31.950304
-4.99735 68.231193 -31.572211
-2.797983 68.180038 -31.905539
-2.366063 69.743874 -31.305424
-3.226126 66.590508 -32.41646
-2.797983 68.180038 -31.905539
-2.228576 66.456886 -32.483387
-3.742443 64.895859 -32.794553
-4.31185 66.619011 -32.216706
-3.226126 66.590508 -32.41646
-0.589722 58.880817 -33.975134
-1.382744 59.216625 -34.045044
-0.946514 60.840359 -33.745085
-0.312693 56.831318 -34.135791
-0.589722 58.880817 -33.975134
-10.769372 18.367532 -28.554424
-9.554831 20.26301 -28.835951
-9.96984 17.833081 -28.413599
-11.550063 18.915458 -28.737164
-10.769372 18.367532 -28.554424
-23.620922 35.097155 -30.175878
-24.659944 34.925415 -29.866104
-24.222516 36.505479 -29.866812
-23.052079 33.62093 -30.426707
-23.620922 35.097155 -30.175878
-22.61465 35.200995 -30.427414
-22.608841 32.126919 -30.627015
-23.052079 33.62093 -30.426707
-22.608841 32.126919 -30.627015
-21.642374 32.159852 -30.801245
-17.498383 32.452822 -31.292212
-16.70825 34.286473 -31.442971
-18.507533 32.42309 -31.240126
-17.498383 32.452822 -31.292212
-18.228372 30.694874 -31.190575
-20.238231 30.630038 -31.031368
-20.584818 32.272601 -30.990784
-19.584108 32.307705 -31.097904
-20.238231 30.630038 -31.031368
-20.003496 28.988094 -31.039404
-1.925911 36.052341 -32.131994
-1.912891 38.544041 -32.640836
-2.702991 34.113953 -31.73804
-1.925911 36.052341 -32.131994
-1.987909 33.528621 -31.591077
-2.920627 28.950678 -30.629793
-2.080484 30.909551 -31.019865
-2.236121 28.269996 -30.452534
-7.980354 19.090851 -28.582009
-7.647171 21.690663 -29.073667
-6.872225 21.052956 -28.96055
-9.200162 17.194387 -28.272821
-7.980354 19.090851 -28.582009
-6.109451 20.407716 -28.853115
-5.365249 19.671276 -28.75416
-27.620587 40.172579 -28.257008
-27.672767 38.744794 -28.311689
-33.676783 49.404365 -24.71125
-32.541727 50.003659 -25.011511
-33.532223 48.006455 -24.863106
-33.676783 49.404365 -24.71125
-32.503994 47.074803 -25.421642
-33.532223 48.006455 -24.863106
-31.410345 46.082893 -25.972532
-32.503994 47.074803 -25.421642
-31.484167 47.505646 -25.796534
-30.397459 45.06341 -26.527369
-31.410345 46.082893 -25.972532
-29.171545 46.98222 -26.663449
-30.292115 48.040729 -26.100946
-29.073142 48.509213 -26.416971
-29.340436 45.431803 -26.899973
-29.171545 46.98222 -26.663449
-28.121463 45.900286 -27.215998
-29.347377 43.981476 -27.079918
-30.397459 45.06341 -26.527369
-29.340436 45.431803 -26.899973
-28.389126 42.867712 -27.612627
-29.347377 43.981476 -27.079918
-27.418616 41.689527 -28.138947
-28.389126 42.867712 -27.612627
-27.319844 43.171684 -27.978842
-26.551305 40.476551 -28.623222
-27.620587 40.172579 -28.257008
-27.418616 41.689527 -28.138947
-23.580946 44.321478 -28.949837
-24.903782 43.900385 -28.625706
-24.529644 45.570084 -28.426617
-22.682284 42.998363 -29.463309
-23.580946 44.321478 -28.949837
-21.860396 41.648611 -29.906492
-23.133196 41.302026 -29.59211
-22.682284 42.998363 -29.463309
-20.648662 41.920166 -30.186262
-21.099574 40.223829 -30.315064
-21.860396 41.648611 -29.906492
-19.347625 42.274229 -30.514219
-20.648662 41.920166 -30.186262
-20.108447 43.699011 -30.105648
-18.029151 50.966042 -29.617864
-17.512014 52.823364 -29.480261
-18.589022 49.093044 -29.699062
-18.029151 50.966042 -29.617864
-17.149028 49.585319 -30.171037
-19.085753 47.283352 -29.856691
-18.589022 49.093044 -29.699062
-18.258155 45.882698 -30.34292
-19.635009 45.453728 -29.947376
-19.085753 47.283352 -29.856691
-13.199775 43.713459 -31.975463
-13.860332 41.803024 -31.906187
-14.368168 43.483185 -31.734755
-13.055267 47.328263 -31.87343
-14.358311 46.962067 -31.450985
-13.705967 48.89671 -31.520384
-12.498637 45.665115 -32.123722
-13.055267 47.328263 -31.87343
-13.199775 43.713459 -31.975463
-12.498637 45.665115 -32.123722
-10.869911 44.154566 -32.500187
-11.571048 42.202909 -32.351928
-9.718303 44.344946 -32.776291
-10.869911 44.154566 -32.500187
-10.138054 46.126991 -32.719517
-14.049943 73.76065 -26.090553
-12.350783 74.339684 -26.540854
-15.755458 73.136063 -25.555481
-14.049943 73.76065 -26.090553
-14.605248 72.110168 -26.497802
-17.535095 72.433411 -25.071337
-15.755458 73.136063 -25.555481
-18.075972 70.754478 -25.427091
-17.535095 72.433411 -25.071337
-18.625322 68.981178 -25.707359
-18.075972 70.754478 -25.427091
-16.860115 69.71228 -26.242998
-19.145741 67.197174 -25.966076
-20.361598 68.239372 -25.150169
-18.625322 68.981178 -25.707359
-17.945842 66.089493 -26.719845
-19.145741 67.197174 -25.966076
-16.818426 64.905113 -27.522934
-17.945842 66.089493 -26.719845
-16.28205 66.754601 -27.326355
-15.713105 63.678247 -28.271606
-16.818426 64.905113 -27.522934
-14.697001 62.367939 -29.034132
-15.713105 63.678247 -28.271606
-14.13853 64.259912 -28.89197
-13.706906 61.032536 -29.743034
-15.28148 60.450871 -29.122671
-14.697001 62.367939 -29.034132
-8.141834 66.089989 -31.146961
-7.571478 67.871063 -30.874565
-6.769522 66.367652 -31.578205
-8.732985 64.246328 -31.344284
-9.534941 65.749739 -30.640644
-8.141834 66.089989 -31.146961
-6.666325 62.958326 -32.412247
-6.084022 64.75547 -32.2227
-5.41047 63.127218 -32.784346
-6.666325 62.958326 -32.412247
-7.275383 61.095455 -32.537048
-9.342042 62.383457 -31.469085
-8.732985 64.246328 -31.344284
-9.949317 60.480393 -31.560644
-10.733366 62.003014 -30.929525
-9.342042 62.383457 -31.469085
-10.581047 58.566288 -31.583023
-9.949317 60.480393 -31.560644
-11.193853 56.63525 -31.612848
-11.953447 58.168911 -31.050909
-10.581047 58.566288 -31.583023
-11.836686 54.695545 -31.575389
-11.193853 56.63525 -31.612848
-7.379815 53.916851 -33.309957
-7.907696 55.667412 -33.006529
-6.722119 55.836929 -33.365498
-7.379815 53.916851 -33.309957
-6.879996 52.15997 -33.527788
-8.2761 48.27547 -33.191136
-9.450857 48.084644 -32.85969
-7.899555 46.395554 -33.213478
-8.2761 48.27547 -33.191136
-7.189209 48.353653 -33.408992
-2.011086 43.290115 -33.497102
-2.823777 43.668057 -33.531849
-2.134032 45.540474 -33.829595
-1.94281 40.934054 -33.101036
-2.011086 43.290115 -33.497102
-1.308288 53.452026 -34.391432
-1.571812 55.524597 -34.347788
-0.762427 55.184513 -34.318737
-1.063686 51.358749 -34.323225
-1.873071 51.698833 -34.352276
-1.308288 53.452026 -34.391432
-0.885826 49.168415 -34.183149
-1.063686 51.358749 -34.323225
-1.474905 47.384045 -34.039459
-0.885826 49.168415 -34.183149
-26.18927 36.178684 -29.165018
-26.935139 37.491615 -28.757141
-26.007407 37.646671 -29.14916
-26.18927 36.178684 -29.165018
-25.581625 34.831762 -29.530729
-10.558007 34.529232 -31.708725
-10.706304 36.570997 -32.003969
-9.734253 36.511816 -31.996847
-10.486771 32.482354 -31.373407
-9.574008 32.298651 -31.288498
-10.474824 30.310954 -30.960302
-10.558007 34.529232 -31.708725
-10.486771 32.482354 -31.373407
-10.904243 23.608225 -29.620891
-10.085076 23.174891 -29.45195
-11.17353 21.230797 -29.145717
-11.766692 23.918394 -29.759123
-10.678239 25.862488 -30.065355
-10.904243 23.608225 -29.620891
-12.602974 24.259762 -29.94496
-11.766692 23.918394 -29.759123
-12.42774 26.390017 -30.34103
-12.602974 24.259762 -29.94496
3 0 25 23
3 1 95 96
3 2 29 27
3 97 32 98
3 99 98 30
3 97 98 99
3 4 36 34
3 4 100 102
3 102 101 36
3 100 101 102
3 5 103 104
3 5 105 107
3 105 38 106
3 105 106 107
3 5 40 38
3 6 43 41
3 6 45 43
3 6 47 45
3 3 50 48
3 108 53 109
3 110 109 51
3 108 109 110
3 112 111 24
3 113 54 114
3 115 55 116
3 117 116 54
3 115 116 117
3 118 57 119
3 120 119 26
3 118 119 120
3 121 58 122
3 123 122 57
3 121 122 123
3 125 124 58
3 127 126 60
3 8 64 62
3 9 65 28
3 9 128 130
3 130 129 65
3 128 129 130
3 131 66 132
3 133 132 52
3 131 132 133
3 134 67 135
3 137 136 67
3 10 70 68
3 12 71 31
3 12 72 71
3 138 73 139
3 13 74 33
3 13 75 74
3 13 140 142
3 142 141 75
3 140 141 142
3 14 143 144
3 14 145 147
3 145 76 146
3 145 146 147
3 14 77 76
3 15 148 150
3 148 78 149
3 148 149 150
3 15 79 78
3 15 80 79
3 151 81 152
3 16 82 35
3 16 83 82
3 16 84 83
3 153 85 154
3 17 86 37
3 17 87 86
3 17 88 87
3 18 89 39
3 18 90 89
3 7 155 157
3 157 156 56
3 155 156 157
3 19 158 160
3 160 159 42
3 158 159 160
3 19 161 162
3 19 163 164
3 20 165 167
3 167 166 44
3 165 166 167
3 20 168 170
3 168 91 169
3 168 169 170
3 20 92 91
3 21 93 46
3 21 171 173
3 173 172 93
3 171 172 173
3 175 174 59
3 177 176 63
3 11 94 69
3 22 178 180
3 180 179 49
3 178 179 180
3 22 181 182
3 184 183 61
3 23 185 187
3 185 24 186
3 185 186 187
3 25 24 23
3 25 188 190
3 190 189 24
3 188 189 190
3 191 26 192
3 193 26 194
3 196 195 26
3 27 28 8
3 29 28 27
3 29 9 28
3 30 31 10
3 32 31 30
3 32 12 31
3 197 33 198
3 199 33 200
3 201 13 202
3 203 202 33
3 201 202 203
3 205 204 13
3 206 14 207
3 209 208 14
3 210 15 211
3 213 212 15
3 34 214 216
3 214 35 215
3 214 215 216
3 36 35 34
3 36 16 35
3 36 217 219
3 219 218 16
3 217 218 219
3 221 220 36
3 222 37 223
3 38 224 226
3 224 37 225
3 224 225 226
3 38 17 37
3 38 39 17
3 40 39 38
3 40 18 39
3 41 42 7
3 43 42 41
3 43 19 42
3 43 44 19
3 45 44 43
3 45 20 44
3 45 46 20
3 47 46 45
3 47 21 46
3 48 49 11
3 50 49 48
3 50 22 49
3 51 52 2
3 53 52 51
3 53 227 229
3 229 228 52
3 227 228 229
3 24 230 232
3 230 53 231
3 230 231 232
3 233 53 234
3 235 234 24
3 233 234 235
3 237 236 53
3 54 238 239
3 54 240 241
3 54 242 244
3 242 34 243
3 242 243 244
3 55 34 54
3 55 4 34
3 245 5 246
3 247 56 248
3 249 248 5
3 247 248 249
3 250 56 251
3 252 7 253
3 254 253 56
3 252 253 254
3 26 255 256
3 57 257 259
3 259 258 26
3 257 258 259
3 57 260 262
3 260 7 261
3 260 261 262
3 57 41 7
3 58 41 57
3 58 6 41
3 58 59 6
3 263 59 264
3 265 264 58
3 263 264 265
3 267 266 59
3 60 61 3
3 268 61 269
3 270 269 60
3 268 269 270
3 272 271 61
3 62 63 1
3 64 63 62
3 64 273 275
3 275 274 63
3 273 274 275
3 28 64 8
3 65 64 28
3 65 276 278
3 278 277 64
3 276 277 278
3 65 279 280
3 282 281 65
3 52 29 2
3 66 29 52
3 66 9 29
3 283 66 284
3 67 285 287
3 285 66 286
3 285 286 287
3 67 9 66
3 67 288 290
3 290 289 9
3 288 289 290
3 292 291 67
3 68 69 0
3 70 69 68
3 70 11 69
3 31 70 10
3 71 70 31
3 71 11 70
3 71 48 11
3 72 48 71
3 72 3 48
3 293 32 294
3 73 295 297
3 295 32 296
3 295 296 297
3 73 12 32
3 33 298 300
3 298 73 299
3 298 299 300
3 74 73 33
3 74 12 73
3 74 72 12
3 75 72 74
3 75 3 72
3 75 60 3
3 301 60 302
3 303 302 75
3 301 302 303
3 305 304 60
3 307 306 13
3 308 1 309
3 76 310 311
3 76 312 313
3 76 314 315
3 77 316 318
3 318 317 76
3 316 317 318
3 77 319 320
3 321 77 322
3 323 322 14
3 321 322 323
3 78 324 326
3 324 77 325
3 324 325 326
3 78 327 329
3 329 328 77
3 327 328 329
3 78 330 331
3 79 332 334
3 334 333 78
3 332 333 334
3 79 335 337
3 335 1 336
3 335 336 337
3 79 62 1
3 80 62 79
3 80 8 62
3 338 80 339
3 340 339 15
3 338 339 340
3 341 80 342
3 343 8 344
3 345 344 80
3 343 344 345
3 346 27 347
3 348 347 8
3 346 347 348
3 81 349 351
3 349 27 350
3 349 350 351
3 81 2 27
3 35 352 353
3 82 354 356
3 356 355 35
3 354 355 356
3 82 357 358
3 82 359 361
3 359 81 360
3 359 360 361
3 83 81 82
3 83 2 81
3 83 51 2
3 84 51 83
3 84 362 364
3 364 363 51
3 362 363 364
3 365 84 366
3 367 366 16
3 365 366 367
3 368 84 369
3 371 370 84
3 372 23 373
3 85 374 376
3 374 23 375
3 374 375 376
3 85 0 23
3 37 377 378
3 86 379 381
3 381 380 37
3 379 380 381
3 86 382 383
3 86 384 385
3 87 386 388
3 388 387 86
3 386 387 388
3 87 389 391
3 389 390 391
3 87 392 393
3 88 394 396
3 396 395 87
3 394 395 396
3 88 397 398
3 39 88 17
3 89 88 39
3 89 399 401
3 401 400 88
3 399 400 401
3 89 402 404
3 402 55 403
3 402 403 404
3 90 55 89
3 90 4 55
3 56 40 5
3 405 40 406
3 407 406 56
3 405 406 407
3 408 18 409
3 410 409 40
3 408 409 410
3 42 411 413
3 413 412 7
3 411 412 413
3 415 414 42
3 416 18 417
3 418 90 419
3 420 419 18
3 418 419 420
3 421 90 422
3 423 4 424
3 425 424 90
3 423 424 425
3 427 426 4
3 44 428 430
3 430 429 19
3 428 429 430
3 432 431 44
3 433 85 434
3 91 435 437
3 435 85 436
3 435 436 437
3 91 0 85
3 91 68 0
3 92 68 91
3 92 10 68
3 46 92 20
3 93 92 46
3 93 10 92
3 93 30 10
3 438 30 439
3 440 439 93
3 438 439 440
3 442 441 30
3 59 47 6
3 443 47 444
3 445 444 59
3 443 444 445
3 446 21 447
3 448 447 47
3 446 447 448
3 449 21 450
3 452 451 21
3 63 453 455
3 455 454 1
3 453 454 455
3 457 456 63
3 69 25 0
3 94 25 69
3 94 458 460
3 460 459 25
3 458 459 460
3 49 94 11
3 461 94 462
3 463 462 49
3 461 462 463
3 465 464 94
3 61 50 3
3 466 50 467
3 468 467 61
3 466 467 468
3 469 22 470
3 471 470 50
3 469 470 471
3 472 22 473
3 475 474 22
