ply
format ascii 1.0
element vertex 258
property float x
property float y
property float z
element face 240
property list uchar int vertex_index
end_header
28.197561 35.128887 -28.282503
25.967995 23.560497 -31.09078
31.89839 23.56945 -29.512476
33.918861 44.344112 -23.644773
31.101881 34.144939 -25.800409
29.683651 29.174137 -28.311827
28.983919 18.385895 -32.392563
26.271555 17.338352 -31.789843
24.51651 35.665569 -30.217726
23.015848 29.622494 -31.224421
26.579617 29.575916 -30.009108
29.01964 23.844486 -30.493513
31.691626 19.178059 -32.713188
27.059729 41.119434 -28.313986
30.723396 40.053993 -26.048525
33.223351 38.611008 -23.119425
37.473827 48.083733 -21.32102
29.131714 15.677418 -33.317032
26.444876 35.433441 -29.310087
25.512585 32.595745 -30.096678
27.264812 32.423824 -29.225996
30.701048 26.278469 -28.698309
29.261549 26.540627 -29.447439
30.471945 23.801384 -30.049681
30.356287 21.31469 -31.344156
31.778276 21.355465 -31.131979
32.351017 45.161896 -24.891676
30.613131 42.969692 -26.078936
32.255772 42.273235 -24.847216
32.122898 39.389713 -24.676451
33.546555 41.503277 -23.417707
24.461811 26.522747 -31.04624
24.34763 23.341438 -31.245607
29.750673 34.710869 -27.114447
28.86034 32.145088 -28.224672
30.297297 31.716484 -27.090193
31.068354 28.720619 -27.289843
32.084194 25.807491 -27.857447
32.300312 48.12838 -24.779345
34.200504 47.214584 -23.727808
27.497072 20.813023 -31.500616
26.018194 20.458416 -31.457552
27.64205 17.867992 -32.120796
23.624554 32.709854 -30.848574
24.848589 29.617176 -30.675016
26.149162 26.61097 -30.623907
28.191528 29.444935 -29.221609
27.748507 26.63501 -30.091066
27.523375 23.746414 -30.840425
28.936464 21.116467 -31.464746
25.671041 38.472305 -29.355574
27.625319 38.112179 -28.344133
29.025787 40.623501 -27.247923
29.359486 37.674206 -27.208952
30.846704 37.127197 -25.919924
36.119698 49.137619 -22.608183
35.672207 46.279297 -22.46715
36.686649 45.318504 -20.942461
35.080662 43.477268 -22.169054
33.425209 25.097317 -26.94639
33.312603 23.110439 -28.890676
33.218567 21.19286 -30.823038
31.716384 28.385601 -26.73411
31.328829 29.911632 -26.562979
32.224304 26.929037 -27.017912
31.576274 27.264055 -27.573645
31.716384 28.385601 -26.73411
33.293272 49.158886 -24.213676
32.16946 49.679848 -24.655554
34.243368 48.701988 -23.687908
33.250408 47.671482 -24.253577
33.293272 49.158886 -24.213676
28.52893 15.309046 -33.036476
29.241588 14.342972 -33.795399
24.070532 34.187711 -30.53315
23.040623 34.290322 -30.938465
23.486601 35.768179 -30.623041
31.008012 19.00931 -32.654247
30.340342 20.077625 -31.969731
31.023956 20.246375 -32.028672
31.65027 18.109797 -33.487358
31.008012 19.00931 -32.654247
26.365385 39.795869 -28.83478
25.275384 40.020071 -29.327647
25.969728 41.343635 -28.806852
32.654091 37.528021 -23.793732
32.103865 37.917373 -24.572245
32.673125 39.00036 -23.897938
33.158886 37.107384 -22.994978
32.654091 37.528021 -23.793732
36.796762 48.610676 -21.964602
37.091576 50.03281 -22.068091
37.768641 49.505867 -21.424509
36.265367 43.931806 -20.696179
36.973548 44.8157 -20.042183
35.462374 43.011189 -21.309475
35.883656 44.397886 -21.555757
36.265367 43.931806 -20.696179
34.784087 42.060438 -21.972504
35.462374 43.011189 -21.309475
22.065225 29.633242 -31.441752
22.327866 31.219766 -31.358325
25.379557 18.721272 -31.563834
25.252877 20.281303 -31.397688
26.144875 18.898384 -31.623697
34.071542 23.747813 -27.571773
34.077427 24.61336 -26.468401
34.015239 22.754373 -28.543917
33.368906 24.103878 -27.918533
34.071542 23.747813 -27.571773
33.899382 20.246842 -31.721811
33.950025 20.99214 -30.619264
34.63084 20.046121 -31.518037
33.843765 19.323645 -32.674042
33.162951 20.269663 -31.77527
33.899382 20.246842 -31.721811
31.345592 32.623793 -25.818262
31.684691 33.773761 -25.078298
29.739312 16.036333 -33.571586
29.057817 17.031657 -32.854798
29.665415 17.390572 -33.109352
29.765627 14.832323 -34.188629
29.739312 16.036333 -33.571586
29.241588 14.342972 -33.795399
29.765627 14.832323 -34.188629
26.743462 42.657316 -28.235906
25.969728 41.343635 -28.806852
31.482074 44.065794 -25.485306
30.511027 44.453561 -26.020691
31.37997 45.549663 -25.427061
38.377691 48.915726 -20.756235
37.768641 49.505867 -21.424509
23.580475 26.473807 -31.20253
22.857493 28.02368 -31.291621
23.73883 28.07262 -31.135331
23.523384 24.883152 -31.302214
23.580475 26.473807 -31.20253
24.40472 24.932092 -31.145924
23.508001 23.241043 -31.274646
23.523384 24.883152 -31.302214
25.561455 17.090458 -31.596359
26.482352 15.784866 -31.972112
30.9433 31.409565 -26.463154
30.699589 32.930712 -26.445301
31.345592 32.623793 -25.818262
30.682825 30.218552 -27.190018
30.9433 31.409565 -26.463154
31.328829 29.911632 -26.562979
31.169323 48.573208 -25.244274
32.16946 49.679848 -24.655554
31.354618 47.032905 -25.370895
31.169323 48.573208 -25.244274
32.325665 46.645138 -24.83551
31.37997 45.549663 -25.427061
31.354618 47.032905 -25.370895
27.784098 16.404333 -32.438358
28.386882 16.772705 -32.718914
28.52893 15.309046 -33.036476
27.09885 16.139513 -32.272882
26.956803 17.603172 -31.95532
27.784098 16.404333 -32.438358
26.482352 15.784866 -31.972112
27.09885 16.139513 -32.272882
22.632219 32.763447 -31.170401
23.040623 34.290322 -30.938465
23.320201 31.166174 -31.036497
22.327866 31.219766 -31.358325
22.632219 32.763447 -31.170401
29.630431 19.978514 -32.030026
29.646375 21.215578 -31.404451
30.340342 20.077625 -31.969731
29.654159 18.613228 -32.493935
28.960192 19.751181 -31.928655
29.630431 19.978514 -32.030026
29.665415 17.390572 -33.109352
29.654159 18.613228 -32.493935
24.031183 37.228457 -30.249318
23.486601 35.768179 -30.623041
24.608449 38.631825 -29.818241
25.275384 40.020071 -29.327647
25.093775 37.068937 -29.78665
24.031183 37.228457 -30.249318
24.608449 38.631825 -29.818241
27.855018 42.3624 -27.737011
26.743462 42.657316 -28.235906
29.631719 43.287529 -26.619486
30.511027 44.453561 -26.020691
28.838047 42.114433 -27.20398
29.631719 43.287529 -26.619486
29.819459 41.796596 -26.663429
28.042758 40.871467 -27.780954
27.855018 42.3624 -27.737011
28.838047 42.114433 -27.20398
31.465767 36.786116 -25.193981
31.484801 38.258455 -25.298188
32.103865 37.917373 -24.572245
31.593356 35.294987 -25.134224
30.974292 35.636068 -25.860166
31.465767 36.786116 -25.193981
32.176167 34.923809 -24.412114
31.684691 33.773761 -25.078298
31.593356 35.294987 -25.134224
36.221516 50.629661 -22.592877
37.091576 50.03281 -22.068091
35.202965 49.663505 -23.128096
36.221516 50.629661 -22.592877
35.160101 48.176102 -23.167995
34.243368 48.701988 -23.687908
35.202965 49.663505 -23.128096
37.900381 47.553795 -20.527292
38.377691 48.915726 -20.756235
37.506792 46.17118 -20.338013
36.973548 44.8157 -20.042183
37.080238 46.701118 -21.13174
37.900381 47.553795 -20.527292
37.506792 46.17118 -20.338013
34.017033 41.073442 -22.59683
34.313609 42.490273 -22.79338
34.784087 42.060438 -21.972504
33.855431 39.627308 -22.447689
33.384953 40.057142 -23.268566
34.017033 41.073442 -22.59683
33.637404 38.153019 -22.257723
33.855431 39.627308 -22.447689
33.158886 37.107384 -22.994978
33.637404 38.153019 -22.257723
22.065225 29.633242 -31.441752
22.857493 28.02368 -31.291621
24.417595 21.722814 -31.291716
25.182912 21.899927 -31.351579
25.252877 20.281303 -31.397688
23.508001 23.241043 -31.274646
24.417595 21.722814 -31.291716
25.379557 18.721272 -31.563834
25.561455 17.090458 -31.596359
33.507435 26.118622 -25.978016
34.077427 24.61336 -26.468401
32.894812 26.57395 -26.562384
33.507435 26.118622 -25.978016
32.754701 25.452404 -27.401919
32.224304 26.929037 -27.017912
32.894812 26.57395 -26.562384
33.997044 21.95093 -29.653084
34.015239 22.754373 -28.543917
34.69968 21.594864 -29.306324
33.265585 22.151649 -29.856857
33.997044 21.95093 -29.653084
33.950025 20.99214 -30.619264
32.442805 20.350966 -31.92974
32.498421 21.274162 -30.977508
33.162951 20.269663 -31.77527
32.39948 19.262262 -32.720344
31.734951 20.266762 -31.922584
32.442805 20.350966 -31.92974
32.319768 18.369524 -33.653301
32.39948 19.262262 -32.720344
31.65027 18.109797 -33.487358
32.319768 18.369524 -33.653301
3 0 20 18
3 2 23 21
3 2 25 23
3 3 28 26
3 3 30 28
3 1 32 31
3 4 35 33
3 62 36 63
3 64 37 65
3 66 65 36
3 64 65 66
3 67 38 68
3 69 39 70
3 71 70 38
3 69 70 71
3 6 42 40
3 73 72 17
3 8 74 76
3 74 43 75
3 74 75 76
3 10 44 19
3 10 45 44
3 5 46 34
3 11 47 22
3 11 48 47
3 11 49 48
3 12 77 79
3 79 78 24
3 77 78 79
3 12 80 81
3 13 82 84
3 82 50 83
3 82 83 84
3 13 51 50
3 14 52 27
3 14 53 52
3 14 54 53
3 15 85 87
3 87 86 29
3 85 86 87
3 15 88 89
3 16 90 92
3 90 55 91
3 90 91 92
3 16 56 55
3 93 57 94
3 95 58 96
3 97 96 57
3 95 96 97
3 99 98 58
3 9 100 101
3 7 102 104
3 104 103 41
3 102 103 104
3 105 59 106
3 107 60 108
3 109 108 59
3 107 108 109
3 110 61 111
3 110 111 112
3 115 114 61
3 113 114 115
3 117 116 4
3 118 17 119
3 120 119 6
3 118 119 120
3 121 17 122
3 124 123 17
3 18 19 8
3 20 19 18
3 20 10 19
3 21 22 5
3 23 22 21
3 23 11 22
3 23 24 11
3 25 24 23
3 25 12 24
3 125 13 126
3 26 127 129
3 127 27 128
3 127 128 129
3 28 27 26
3 28 14 27
3 28 29 14
3 30 29 28
3 30 15 29
3 130 16 131
3 31 132 134
3 134 133 9
3 132 133 134
3 32 135 137
3 137 136 31
3 135 136 137
3 32 138 139
3 141 140 7
3 33 34 0
3 35 34 33
3 35 5 34
3 142 35 143
3 144 143 4
3 142 143 144
3 36 145 147
3 145 35 146
3 145 146 147
3 36 5 35
3 36 21 5
3 37 21 36
3 37 2 21
3 38 148 149
3 38 150 151
3 38 152 154
3 152 26 153
3 152 153 154
3 39 26 38
3 39 3 26
3 40 41 1
3 42 41 40
3 42 7 41
3 17 42 6
3 155 42 156
3 157 156 17
3 155 156 157
3 158 7 159
3 160 159 42
3 158 159 160
3 162 161 7
3 43 163 164
3 43 165 167
3 165 9 166
3 165 166 167
3 19 43 8
3 44 43 19
3 44 9 43
3 44 31 9
3 45 31 44
3 45 1 31
3 34 20 0
3 46 20 34
3 46 10 20
3 22 46 5
3 47 46 22
3 47 10 46
3 47 45 10
3 48 45 47
3 48 1 45
3 48 40 1
3 49 40 48
3 49 6 40
3 24 49 11
3 168 49 169
3 170 169 24
3 168 169 170
3 171 6 172
3 173 172 49
3 171 172 173
3 175 174 6
3 176 8 177
3 50 178 179
3 50 180 182
3 180 8 181
3 180 181 182
3 50 18 8
3 51 18 50
3 51 0 18
3 183 13 184
3 27 185 186
3 52 187 189
3 189 188 27
3 187 188 189
3 52 190 192
3 190 13 191
3 190 191 192
3 52 51 13
3 53 51 52
3 53 0 51
3 53 33 0
3 54 33 53
3 54 4 33
3 29 54 14
3 193 54 194
3 195 194 29
3 193 194 195
3 196 4 197
3 198 197 54
3 196 197 198
3 201 200 4
3 199 200 201
3 55 202 203
3 55 204 205
3 55 206 208
3 206 39 207
3 206 207 208
3 56 39 55
3 56 3 39
3 209 16 210
3 57 211 212
3 57 213 215
3 213 16 214
3 213 214 215
3 57 56 16
3 58 56 57
3 58 3 56
3 58 30 3
3 216 30 217
3 218 217 58
3 216 217 218
3 219 15 220
3 221 220 30
3 219 220 221
3 222 15 223
3 225 224 15
3 227 226 9
3 41 32 1
3 228 32 229
3 230 229 41
3 228 229 230
3 232 231 32
3 234 233 7
3 59 235 236
3 59 237 238
3 59 239 241
3 239 37 240
3 239 240 241
3 60 37 59
3 60 2 37
3 242 60 243
3 242 243 244
3 61 245 247
3 245 60 246
3 245 246 247
3 61 2 60
3 61 25 2
3 248 25 249
3 250 249 61
3 248 249 250
3 251 12 252
3 253 252 25
3 251 252 253
3 254 12 255
3 257 256 12
