ply
format ascii 1.0
element vertex 139
property float x
property float y
property float z
element face 104
property list uchar int vertex_index
end_header
-56.355949 4.92524 39.804878
-54.847 3.23851 44.404457
-57.912025 6.553167 35.110161
-60.281834 3.561539 34.113617
-59.725372 5.499104 33.492615
-58.804241 4.707403 35.812538
-54.642143 6.044231 41.419456
-52.866383 3.822861 48.3386
-51.493439 5.395241 49.928669
-56.955261 2.939289 40.377987
-55.602509 4.08444 42.122238
-54.066284 5.309446 43.781258
-61.51527 6.770082 28.758455
-60.634434 6.19426 31.142937
-58.719395 7.294226 32.734142
-57.12352 5.754417 37.466072
-53.486557 4.576317 46.09832
-59.010183 3.714523 36.08851
-59.543037 4.134471 34.963077
-59.74898 3.14159 35.23905
-53.930173 6.98322 40.968739
-53.717727 6.66984 42.182974
-59.74898 3.14159 35.23905
-60.348471 2.527897 34.379329
-51.195137 5.01791 50.975872
-51.828707 4.208924 50.197918
-56.991737 1.879171 40.579047
-57.543108 2.369553 39.482479
-55.224755 3.661475 43.263348
-55.812562 3.044824 42.370098
-55.434807 2.62186 43.511207
-60.976763 5.244722 31.487112
-61.473221 5.547897 30.328216
-57.241034 7.414599 34.675907
-57.644718 7.785128 33.487898
-58.31571 6.923697 33.922151
-56.739734 5.339828 38.635475
-57.501921 4.800169 37.78676
-57.118136 4.385581 38.956164
-60.929716 7.631195 28.326741
-60.525472 7.359313 29.544844
-52.730738 5.320585 46.89399
-53.17647 4.199589 47.21846
-52.420651 4.943856 48.014129
-52.93938 5.63102 45.723304
-52.730738 5.320585 46.89399
-54.957554 2.145573 44.609096
-55.434807 2.62186 43.511207
-60.003603 4.530321 33.803116
-60.522232 4.897144 32.661951
-60.800463 3.928362 32.972452
-54.941919 6.417283 40.227752
-55.798822 5.857787 39.420463
-55.499046 5.484735 40.612167
-54.941919 6.417283 40.227752
-53.930173 6.98322 40.968739
-60.942812 2.9132 33.276294
-60.348471 2.527897 34.379329
-60.800463 3.928362 32.972452
-60.942812 2.9132 33.276294
-52.515179 3.422734 49.402884
-53.045088 2.662678 48.55415
-52.179911 4.609051 49.133634
-52.515179 3.422734 49.402884
-51.828707 4.208924 50.197918
-51.734178 5.730047 48.809164
-52.420651 4.943856 48.014129
-52.179911 4.609051 49.133634
-57.417791 3.392606 39.242718
-57.543108 2.369553 39.482479
-56.655605 3.932264 40.091432
-57.118136 4.385581 38.956164
-57.417791 3.392606 39.242718
-56.488937 2.472249 41.497973
-56.991737 1.879171 40.579047
-56.278885 3.511864 41.250113
-56.488937 2.472249 41.497973
-55.812562 3.044824 42.370098
-53.429798 6.302447 43.363875
-53.717727 6.66984 42.182974
-54.354214 5.676839 42.600357
-61.913639 5.835807 29.135976
-62.376789 6.068853 27.958776
-61.074852 6.482171 29.950696
-61.913639 5.835807 29.135976
-61.473221 5.547897 30.328216
-60.085054 7.071402 30.737085
-60.525472 7.359313 29.544844
-61.074852 6.482171 29.950696
-60.179903 5.846682 32.317776
-60.976763 5.244722 31.487112
-60.522232 4.897144 32.661951
-59.127535 7.621385 31.532688
-60.085054 7.071402 30.737085
-59.676914 6.744243 31.938539
-58.011259 8.129499 32.280313
-59.127535 7.621385 31.532688
-58.011259 8.129499 32.280313
-57.644718 7.785128 33.487898
-58.342281 4.276663 36.959994
-59.010183 3.714523 36.08851
-57.963881 5.23091 36.639305
-58.342281 4.276663 36.959994
-57.501921 4.800169 37.78676
-56.182608 6.272376 38.25106
-56.739734 5.339828 38.635475
-55.798822 5.857787 39.420463
-56.502789 6.647858 37.054505
-56.182608 6.272376 38.25106
-56.897041 7.047232 35.876549
-57.517772 6.153792 36.288117
-56.502789 6.647858 37.054505
-57.241034 7.414599 34.675907
-56.897041 7.047232 35.876549
-61.930574 6.991535 27.548153
-62.376789 6.068853 27.958776
-61.930574 6.991535 27.548153
-60.929716 7.631195 28.326741
-54.455738 2.810298 45.516834
-54.957554 2.145573 44.609096
-53.465429 3.102474 47.483905
-53.045088 2.662678 48.55415
-53.775516 3.479202 46.363765
-53.465429 3.102474 47.483905
-53.17647 4.199589 47.21846
-54.166778 3.907414 45.251389
-54.455738 2.810298 45.516834
-53.775516 3.479202 46.363765
-53.229244 5.997585 44.564774
-53.776421 4.942882 44.939789
-52.93938 5.63102 45.723304
-53.429798 6.302447 43.363875
-53.229244 5.997585 44.564774
-50.74495 6.245259 50.670215
-51.195137 5.01791 50.975872
-50.936291 6.560112 49.560774
-50.74495 6.245259 50.670215
-51.734178 5.730047 48.809164
-50.936291 6.560112 49.560774
3 17 5 18
3 19 18 3
3 17 18 19
3 21 20 6
3 22 3 23
3 24 8 25
3 26 9 27
3 1 28 30
3 28 10 29
3 28 29 30
3 1 11 10
3 31 13 32
3 2 14 4
3 2 33 35
3 35 34 14
3 33 34 35
3 0 36 38
3 36 15 37
3 36 37 38
3 40 39 12
3 41 16 42
3 43 42 7
3 41 42 43
3 45 44 16
3 46 1 47
3 3 48 50
3 48 4 49
3 48 49 50
3 5 4 3
3 5 2 4
3 6 51 53
3 53 52 0
3 51 52 53
3 55 54 6
3 3 56 57
3 3 58 59
3 60 7 61
3 8 62 64
3 62 7 63
3 62 63 64
3 8 65 67
3 67 66 7
3 65 66 67
3 9 68 69
3 9 70 72
3 70 0 71
3 70 71 72
3 73 9 74
3 10 75 77
3 75 9 76
3 75 76 77
3 10 0 9
3 10 6 0
3 11 6 10
3 11 78 80
3 80 79 6
3 78 79 80
3 81 12 82
3 13 83 85
3 83 12 84
3 83 84 85
3 13 86 88
3 88 87 12
3 86 87 88
3 4 89 91
3 89 13 90
3 89 90 91
3 14 13 4
3 14 92 94
3 94 93 13
3 92 93 94
3 14 95 96
3 98 97 14
3 99 5 100
3 15 101 103
3 101 5 102
3 101 102 103
3 15 2 5
3 104 15 105
3 106 105 0
3 104 105 106
3 107 15 108
3 109 2 110
3 111 110 15
3 109 110 111
3 113 112 2
3 12 114 115
3 117 116 12
3 118 1 119
3 7 120 121
3 16 122 124
3 124 123 7
3 122 123 124
3 16 125 127
3 125 1 126
3 125 126 127
3 16 11 1
3 128 11 129
3 130 129 16
3 128 129 130
3 132 131 11
3 133 8 134
3 135 8 136
3 138 137 8
