ply
format ascii 1.0
element vertex 230
property float x
property float y
property float z
element face 189
property list uchar int vertex_index
end_header
-33.726894 17.953491 -30.275623
-39.727226 14.520805 -37.094891
-28.581875 17.127991 -32.258652
-36.747116 15.240807 -33.540661
-36.557899 15.115383 -39.38665
-33.987442 15.471695 -35.168205
-31.199982 17.934399 -31.771511
-31.275711 14.52383 -35.585522
-30.789661 11.956657 -39.791725
-35.236847 16.352737 -31.789516
-35.383228 15.515911 -34.505859
-33.94175 16.534721 -32.679176
-24.593597 15.049988 -31.531296
-26.28574 13.05595 -32.710827
-25.105936 12.056717 -32.117374
-39.588615 13.90432 -33.9688
-41.156769 13.63665 -35.498051
-42.748566 13.757076 -36.760624
-34.955509 14.819092 -40.007561
-29.778786 19.87812 -30.703976
-29.896799 17.612877 -32.133965
-31.293858 16.104038 -33.620174
-29.993519 15.553001 -33.691319
-29.410162 9.101324 -41.142296
-38.026115 14.645863 -32.296329
-38.241257 14.641228 -35.364799
-38.17186 15.018719 -38.406345
-36.79002 15.022301 -36.473179
-35.296661 15.040539 -37.259869
-33.821106 14.711033 -37.709808
-27.258598 16.517944 -32.175957
-28.725225 14.834076 -33.536015
-27.490376 13.98988 -33.195457
-33.403194 19.737087 -27.985466
-32.261452 19.973675 -29.127716
-31.049183 20.015236 -30.038422
-32.482513 18.056808 -31.152905
-32.616753 16.443691 -33.289101
-32.606567 15.128685 -35.522781
-32.413795 14.068424 -37.830956
-31.110264 13.161442 -37.653721
-34.48187 17.153114 -31.03257
-35.071551 16.982416 -30.471338
-34.316574 17.782793 -29.714391
-23.925311 14.640017 -31.282896
-23.663525 16.289185 -31.191121
-24.18148 13.143381 -31.575935
-24.849767 13.553353 -31.824335
-23.925311 14.640017 -31.282896
-40.477226 14.654673 -37.842625
-41.191997 14.212595 -37.044205
-40.441997 14.078727 -36.296471
-39.641976 14.965812 -38.621525
-40.477226 14.654673 -37.842625
-34.665135 14.765125 -41.354866
-34.192284 14.489645 -40.135982
-28.519041 18.358797 -31.692509
-27.833158 18.155177 -31.790655
-29.239337 17.370434 -32.196309
-29.176503 18.60124 -31.630166
-28.519041 18.358797 -31.692509
-29.118024 9.034461 -39.745854
-29.566612 9.81642 -40.152279
-37.386615 14.943335 -32.918495
-37.243545 15.268275 -31.46652
-36.604046 15.565746 -32.088686
-26.593536 16.167444 -32.048897
-26.463076 17.603046 -31.748361
-26.709425 14.903412 -32.558647
-27.374487 15.253912 -32.685707
-26.593536 16.167444 -32.048897
-27.007112 12.336163 -33.562767
-26.486877 11.742733 -33.217995
-33.219461 20.794677 -26.909118
-33.928751 19.520364 -27.311602
-43.564509 13.944908 -37.221063
-42.757255 14.530907 -38.25878
-37.182304 15.358179 -40.381937
-37.989284 15.309847 -39.891784
-37.36488 15.067051 -38.896498
-31.583294 21.14505 -28.769357
-32.139849 21.068729 -28.174444
-29.370523 14.269178 -34.463358
-28.779818 13.777011 -34.26013
-30.949962 12.55905 -38.722723
-30.519728 12.603457 -37.439546
-30.359426 12.001065 -38.508549
-31.409582 12.571615 -39.984907
-31.569883 13.174007 -38.915905
-30.949962 12.55905 -38.722723
-31.133737 12.170803 -41.153248
-31.409582 12.571615 -39.984907
-35.848911 16.121711 -31.213113
-35.071551 16.982416 -30.471338
-35.991981 15.796772 -32.665088
-36.604046 15.565746 -32.088686
-35.848911 16.121711 -31.213113
-24.403475 16.591019 -31.342202
-23.663525 16.289185 -31.191121
-25.261035 15.433466 -31.726567
-24.403475 16.591019 -31.342202
-25.439668 14.052969 -32.121062
-26.107107 14.436447 -32.316332
-25.261035 15.433466 -31.726567
-25.896974 11.243116 -32.921268
-26.486877 11.742733 -33.217995
-25.695838 12.556334 -32.414101
-40.182666 13.372069 -33.150078
-39.378536 13.827677 -32.389395
-40.966743 13.238233 -33.914704
-40.182666 13.372069 -33.150078
-40.372692 13.770485 -34.733425
-41.780499 13.019554 -34.584576
-40.966743 13.238233 -33.914704
-41.952667 13.696863 -36.129337
-42.576397 13.079767 -35.215863
-41.780499 13.019554 -34.584576
-41.987896 14.272808 -37.675491
-41.952667 13.696863 -36.129337
-41.191997 14.212595 -37.044205
-42.757255 14.530907 -38.25878
-41.987896 14.272808 -37.675491
-35.504862 15.089377 -41.121418
-36.306056 15.237522 -40.810963
-35.756704 14.967237 -39.697106
-35.504862 15.089377 -41.121418
-34.665135 14.765125 -41.354866
-29.117497 19.733861 -30.915171
-29.093571 21.031955 -30.399619
-29.837792 18.745499 -31.418971
-29.117497 19.733861 -30.915171
-29.176503 18.60124 -31.630166
-30.256361 11.244086 -39.476993
-30.359426 12.001065 -38.508549
-30.5622 11.393757 -40.869053
-30.256361 11.244086 -39.476993
-29.872451 9.96609 -41.544339
-29.566612 9.81642 -40.152279
-29.599875 9.400613 -42.594893
-29.872451 9.96609 -41.544339
-37.797756 14.90317 -30.773516
-37.243545 15.268275 -31.46652
-38.597286 14.198449 -31.553159
-37.797756 14.90317 -30.773516
-38.807365 14.275092 -33.132565
-39.378536 13.827677 -32.389395
-38.597286 14.198449 -31.553159
-33.625082 14.435616 -38.987106
-34.192284 14.489645 -40.135982
-34.388307 14.765062 -38.858685
-27.17152 17.850153 -31.749308
-26.463076 17.603046 -31.748361
-27.920237 16.822968 -32.217304
-27.833158 18.155177 -31.790655
-27.17152 17.850153 -31.749308
-28.162394 13.354913 -34.089851
-28.779818 13.777011 -34.26013
-28.1078 14.411978 -33.365736
-26.888058 13.522915 -32.953142
-26.709425 14.903412 -32.558647
-26.107107 14.436447 -32.316332
-27.609431 12.803128 -33.805082
-26.888058 13.522915 -32.953142
-27.007112 12.336163 -33.562767
-28.162394 13.354913 -34.089851
-27.609431 12.803128 -33.805082
-34.154724 18.674591 -28.569313
-33.928751 19.520364 -27.311602
-33.565044 18.845289 -29.130544
-34.316574 17.782793 -29.714391
-34.154724 18.674591 -28.569313
-43.407095 13.058341 -35.741225
-42.576397 13.079767 -35.215863
-43.407095 13.058341 -35.741225
-43.564509 13.944908 -37.221063
-38.864293 15.214769 -39.277252
-39.641976 14.965812 -38.621525
-38.949543 14.769762 -37.750618
-38.864293 15.214769 -39.277252
-37.989284 15.309847 -39.891784
-37.182304 15.358179 -40.381937
-36.306056 15.237522 -40.810963
-32.71072 20.950435 -27.603319
-33.219461 20.794677 -26.909118
-32.832323 19.855381 -28.556591
-32.71072 20.950435 -27.603319
-32.139849 21.068729 -28.174444
-29.740196 21.097778 -30.038902
-29.093571 21.031955 -30.399619
-30.375395 21.166336 -29.706125
-29.740196 21.097778 -30.038902
-30.413984 19.946678 -30.371199
-30.977159 21.16583 -29.224711
-30.375395 21.166336 -29.706125
-31.655317 19.994456 -29.583069
-31.583294 21.14505 -28.769357
-30.977159 21.16583 -29.224711
-32.921426 14.114311 -39.04768
-33.625082 14.435616 -38.987106
-33.117451 14.389729 -37.770382
-30.00467 14.628641 -34.54101
-29.359372 15.193538 -33.613667
-29.370523 14.269178 -34.463358
-30.645766 14.114055 -35.488112
-30.634615 15.038415 -34.63842
-30.00467 14.628641 -34.54101
-30.563043 13.432861 -36.522211
-30.519728 12.603457 -37.439546
-31.192988 13.842636 -36.619621
-30.645766 14.114055 -35.488112
-30.563043 13.432861 -36.522211
-32.221649 13.627498 -39.004523
-31.76203 13.614933 -37.742339
-31.569883 13.174007 -38.915905
-32.921426 14.114311 -39.04768
-32.221649 13.627498 -39.004523
-31.133737 12.170803 -41.153248
-30.5622 11.393757 -40.869053
-24.525072 11.530439 -31.780111
-24.18148 13.143381 -31.575935
-25.402264 10.619881 -32.533117
-24.525072 11.530439 -31.780111
-25.896974 11.243116 -32.921268
-25.402264 10.619881 -32.533117
-29.05121 8.176872 -40.653004
-29.118024 9.034461 -39.745854
-29.215367 8.394829 -42.114134
-29.05121 8.176872 -40.653004
-29.599875 9.400613 -42.594893
-29.215367 8.394829 -42.114134
3 0 41 43
3 41 9 42
3 41 42 43
3 0 11 9
3 44 12 45
3 46 14 47
3 48 47 12
3 46 47 48
3 1 16 15
3 1 49 51
3 51 50 16
3 49 50 51
3 1 52 53
3 55 54 18
3 2 56 57
3 2 58 60
3 58 20 59
3 58 59 60
3 2 22 20
3 61 23 62
3 3 63 65
3 63 24 64
3 63 64 65
3 3 25 24
3 3 27 25
3 5 28 10
3 5 29 28
3 66 30 67
3 68 32 69
3 70 69 30
3 68 69 70
3 72 71 13
3 73 33 74
3 76 75 17
3 4 77 79
3 79 78 26
3 77 78 79
3 80 34 81
3 6 35 19
3 6 36 35
3 6 37 36
3 7 38 21
3 7 39 38
3 83 82 31
3 8 84 86
3 84 40 85
3 84 85 86
3 8 87 89
3 89 88 40
3 87 88 89
3 8 90 91
3 9 92 93
3 9 94 96
3 94 3 95
3 94 95 96
3 9 10 3
3 11 10 9
3 11 5 10
3 12 97 98
3 12 99 100
3 12 101 103
3 101 13 102
3 101 102 103
3 14 13 12
3 14 104 106
3 106 105 13
3 104 105 106
3 15 107 108
3 16 109 111
3 111 110 15
3 109 110 111
3 16 112 113
3 16 114 116
3 114 17 115
3 114 115 116
3 117 17 118
3 119 118 16
3 117 118 119
3 121 120 17
3 18 122 124
3 124 123 4
3 122 123 124
3 126 125 18
3 127 19 128
3 20 129 131
3 129 19 130
3 129 130 131
3 20 6 19
3 20 21 6
3 22 21 20
3 22 7 21
3 132 8 133
3 135 134 8
3 23 136 137
3 23 138 139
3 24 140 141
3 24 142 143
3 24 144 146
3 144 15 145
3 144 145 146
3 25 15 24
3 25 1 15
3 25 26 1
3 27 26 25
3 27 4 26
3 10 27 3
3 28 27 10
3 28 4 27
3 28 18 4
3 29 18 28
3 29 147 149
3 149 148 18
3 147 148 149
3 30 150 151
3 30 152 154
3 152 2 153
3 152 153 154
3 30 31 2
3 32 31 30
3 32 155 157
3 157 156 31
3 155 156 157
3 13 158 160
3 158 32 159
3 158 159 160
3 161 32 162
3 163 162 13
3 161 162 163
3 165 164 32
3 33 166 167
3 33 168 170
3 168 0 169
3 168 169 170
3 17 171 172
3 174 173 17
3 26 175 177
3 177 176 1
3 175 176 177
3 179 178 26
3 181 180 4
3 182 33 183
3 34 184 186
3 184 33 185
3 184 185 186
3 34 0 33
3 19 187 188
3 35 189 191
3 191 190 19
3 189 190 191
3 35 192 193
3 35 194 196
3 194 34 195
3 194 195 196
3 36 34 35
3 36 0 34
3 36 11 0
3 37 11 36
3 37 5 11
3 21 37 6
3 38 37 21
3 38 5 37
3 38 29 5
3 39 29 38
3 39 197 199
3 199 198 29
3 197 198 199
3 31 22 2
3 200 22 201
3 202 201 31
3 200 201 202
3 203 7 204
3 205 204 22
3 203 204 205
3 40 206 207
3 40 208 210
3 208 7 209
3 208 209 210
3 40 39 7
3 211 39 212
3 213 212 40
3 211 212 213
3 215 214 39
3 217 216 8
3 218 14 219
3 220 14 221
3 223 222 14
3 224 23 225
3 226 23 227
3 229 228 23
