ply
format ascii 1.0
element vertex 213
property float x
property float y
property float z
element face 179
property list uchar int vertex_index
end_header
-26.834 -14.707661 -45.376041
-29.491798 -25.088177 -40.247883
-26.212318 -20.168671 -41.322517
-27.84709 -19.727957 -43.046257
-26.832462 -25.024038 -39.1106
-31.263752 -20.034645 -43.693214
-35.077045 -21.382637 -43.365688
-26.293842 -30.178829 -34.965237
-28.23621 -30.395111 -36.351528
-26.41423 -22.5457 -40.294254
-26.597473 -12.314793 -46.293045
-27.476364 -11.994846 -47.326321
-27.974522 -14.512302 -46.189766
-28.607048 -22.362553 -41.68874
-29.415129 -19.774143 -43.501144
-30.301018 -22.507118 -42.030163
-32.148827 -22.828135 -42.160282
-31.235825 -25.299221 -40.539169
-34.419594 -18.471901 -45.023014
-25.737682 -37.668777 -29.523487
-26.235281 -35.273445 -31.568748
-26.0567 -32.648663 -32.876522
-26.648682 -32.79277 -33.649387
-27.034994 -30.239014 -35.733418
-27.710625 -33.036381 -34.289303
-26.212324 -17.869963 -42.185314
-26.416798 -17.445776 -43.374496
-27.250198 -17.177774 -44.284927
-26.735998 -19.86842 -42.319267
-27.256617 -22.379337 -41.114128
-27.963383 -24.994308 -39.780502
-28.62752 -17.106941 -44.902119
-33.206879 -20.54871 -43.641304
-25.108433 -39.972038 -27.541668
-26.165195 -27.746616 -36.12191
-26.530899 -27.631655 -37.052624
-27.454502 -27.630867 -37.787476
-28.814854 -27.732748 -38.348331
-26.715736 -13.511227 -45.834543
-26.444608 -13.707022 -45.277535
-26.562871 -14.903456 -44.819032
-34.038645 -17.010761 -45.888298
-35.097393 -17.532408 -45.690848
-26.709919 -35.450254 -31.88421
-26.418484 -36.710098 -30.845598
-26.91662 -34.209917 -32.92453
-26.441982 -34.033107 -32.609067
-26.709919 -35.450254 -31.88421
-27.447591 -34.331722 -33.244488
-27.179654 -32.914575 -33.969345
-26.91662 -34.209917 -32.92453
-26.212321 -19.019317 -41.753915
-26.267737 -19.231971 -41.127956
-26.267734 -20.381325 -40.696558
-30.831171 -18.652138 -44.457998
-29.906859 -18.521887 -44.361963
-30.339441 -19.904394 -43.597179
-31.824932 -18.87064 -44.474702
-30.831171 -18.652138 -44.457998
-32.235315 -20.291677 -43.667259
-32.796495 -19.127672 -44.448747
-31.824932 -18.87064 -44.474702
-33.056278 -23.091227 -42.132464
-32.579009 -24.223279 -41.424097
-35.914526 -22.0195 -43.119185
-35.718769 -20.509958 -43.958547
-35.326072 -22.77118 -42.619354
-35.914526 -22.0195 -43.119185
-25.509106 -40.277485 -27.81876
-25.087792 -41.450885 -26.84754
-25.538753 -37.491638 -29.161302
-25.747175 -36.349199 -30.168455
-26.201847 -30.205412 -34.492012
-26.083276 -31.440329 -33.447654
-26.175271 -31.413746 -33.920879
-26.229519 -28.962722 -35.543574
-26.137524 -28.989306 -35.070349
-26.201847 -30.205412 -34.492012
-26.197279 -21.506709 -40.275743
-26.267734 -20.381325 -40.696558
-26.298235 -22.695223 -39.761612
-26.313274 -21.357185 -40.808385
-26.197279 -21.506709 -40.275743
-26.32897 -23.862473 -39.257998
-26.298235 -22.695223 -39.761612
-26.538086 -25.101641 -38.66617
-26.623346 -23.784869 -39.702427
-26.32897 -23.862473 -39.257998
-26.466766 -12.56764 -45.627442
-26.444608 -13.707022 -45.277535
-26.561216 -11.156429 -46.649586
-26.430509 -11.409277 -45.983982
-26.466766 -12.56764 -45.627442
-26.867781 -10.936357 -47.284095
-26.561216 -11.156429 -46.649586
-27.307227 -10.776384 -47.800733
-26.867781 -10.936357 -47.284095
-27.036918 -12.15482 -46.809683
-27.904187 -10.674716 -48.276919
-27.307227 -10.776384 -47.800733
-28.189552 -11.956181 -47.683382
-27.904187 -10.674716 -48.276919
-28.438631 -13.214908 -47.115105
-28.189552 -11.956181 -47.683382
-27.725443 -13.253574 -46.758043
-28.786969 -14.535512 -46.4396
-28.438631 -13.214908 -47.115105
-32.122507 -25.458822 -40.61354
-32.579009 -24.223279 -41.424097
-31.692326 -24.063678 -41.349726
-35.390043 -19.05459 -44.787211
-35.097393 -17.532408 -45.690848
-34.748319 -19.927269 -44.194351
-35.718769 -20.509958 -43.958547
-35.390043 -19.05459 -44.787211
-26.169685 -37.907764 -29.822967
-25.82373 -39.125855 -28.809669
-25.986482 -36.471111 -30.546118
-26.169685 -37.907764 -29.822967
-26.418484 -36.710098 -30.845598
-25.995975 -35.151533 -31.191085
-25.747175 -36.349199 -30.168455
-25.986482 -36.471111 -30.546118
-26.14599 -33.961054 -32.222635
-25.906684 -33.839142 -31.844973
-25.995975 -35.151533 -31.191085
-26.416378 -18.134038 -41.46396
-26.267737 -19.231971 -41.127956
-26.295687 -16.750833 -42.528288
-26.416378 -18.134038 -41.46396
-26.252033 -16.484607 -43.223669
-26.295687 -16.750833 -42.528288
-26.35427 -16.272513 -43.81826
-26.252033 -16.484607 -43.223669
-26.314561 -17.657869 -42.779905
-26.625399 -16.076718 -44.375269
-26.562871 -14.903456 -44.819032
-26.35427 -16.272513 -43.81826
-29.113467 -15.832832 -45.795777
-28.786969 -14.535512 -46.4396
-28.301021 -15.809621 -45.545942
-29.513055 -17.188285 -45.06245
-29.021324 -18.440542 -44.201631
-29.906859 -18.521887 -44.361963
-29.113467 -15.832832 -45.795777
-29.513055 -17.188285 -45.06245
-33.402853 -18.089268 -45.139603
-34.038645 -17.010761 -45.888298
-33.813237 -19.510306 -44.332159
-33.402853 -18.089268 -45.139603
-32.796495 -19.127672 -44.448747
-33.585304 -21.951515 -42.872974
-32.677853 -21.688423 -42.900793
-33.056278 -23.091227 -42.132464
-34.520387 -22.368478 -42.735166
-34.141962 -20.965674 -43.503496
-33.585304 -21.951515 -42.872974
-35.326072 -22.77118 -42.619354
-34.520387 -22.368478 -42.735166
-24.711419 -41.076479 -26.593611
-25.087792 -41.450885 -26.84754
-24.937224 -39.735841 -27.19669
-24.711419 -41.076479 -26.593611
-25.423057 -38.820408 -28.532578
-25.509106 -40.277485 -27.81876
-25.82373 -39.125855 -28.809669
-25.224128 -38.643268 -28.170393
-25.423057 -38.820408 -28.532578
-25.538753 -37.491638 -29.161302
-24.937224 -39.735841 -27.19669
-25.224128 -38.643268 -28.170393
-26.032722 -32.636538 -32.406115
-25.882706 -33.827017 -31.374565
-25.906684 -33.839142 -31.844973
-26.032722 -32.636538 -32.406115
-26.083276 -31.440329 -33.447654
-26.278895 -27.859215 -35.554859
-26.137524 -28.989306 -35.070349
-26.215837 -26.598856 -36.616176
-26.278895 -27.859215 -35.554859
-26.204453 -26.46293 -37.171825
-26.215837 -26.598856 -36.616176
-26.387304 -26.40545 -37.637183
-26.204453 -26.46293 -37.171825
-26.348047 -27.689135 -36.587267
-26.68168 -26.327846 -38.081612
-26.538086 -25.101641 -38.66617
-26.387304 -26.40545 -37.637183
-28.094101 -34.543913 -33.52472
-27.447591 -34.331722 -33.244488
-28.40651 -33.190277 -34.565309
-28.094101 -34.543913 -33.52472
-28.669303 -31.869642 -35.596422
-27.973418 -31.715746 -35.320415
-28.40651 -33.190277 -34.565309
-28.989864 -30.506349 -36.604187
-28.669303 -31.869642 -35.596422
-29.279187 -29.175168 -37.602588
-28.525532 -29.06393 -37.34993
-28.989864 -30.506349 -36.604187
-29.629195 -27.824697 -38.557381
-29.279187 -29.175168 -37.602588
-29.967666 -26.502411 -39.507157
-29.153326 -26.410463 -39.298107
-29.629195 -27.824697 -38.557381
-30.83968 -26.607933 -39.6528
-30.363811 -25.193699 -40.393526
-29.967666 -26.502411 -39.507157
-31.700007 -26.726847 -39.80893
-30.83968 -26.607933 -39.6528
-32.586689 -26.886447 -39.883301
-32.122507 -25.458822 -40.61354
-31.700007 -26.726847 -39.80893
3 0 38 40
3 38 10 39
3 38 39 40
3 0 11 10
3 0 12 11
3 1 15 13
3 1 17 15
3 41 18 42
3 43 20 44
3 45 22 46
3 47 46 20
3 45 46 47
3 48 24 49
3 50 49 22
3 48 49 50
3 2 51 53
3 51 25 52
3 51 52 53
3 2 26 25
3 2 28 26
3 4 29 9
3 4 30 29
3 3 31 27
3 5 54 56
3 56 55 14
3 54 55 56
3 5 57 58
3 5 59 61
3 59 32 60
3 59 60 61
3 63 62 16
3 6 64 65
3 6 66 67
3 68 33 69
3 71 70 19
3 7 72 74
3 74 73 21
3 72 73 74
3 7 75 77
3 75 34 76
3 75 76 77
3 7 35 34
3 8 36 23
3 8 37 36
3 78 2 79
3 80 9 81
3 82 81 2
3 80 81 82
3 83 9 84
3 85 4 86
3 87 86 9
3 85 86 87
3 10 88 89
3 10 90 92
3 90 91 92
3 10 93 94
3 11 95 97
3 97 96 10
3 95 96 97
3 11 98 99
3 11 100 101
3 12 102 104
3 104 103 11
3 102 103 104
3 12 105 106
3 13 14 3
3 15 14 13
3 15 5 14
3 15 16 5
3 17 16 15
3 17 107 109
3 109 108 16
3 107 108 109
3 18 110 111
3 18 112 114
3 112 6 113
3 112 113 114
3 115 19 116
3 20 117 119
3 117 19 118
3 117 118 119
3 20 120 122
3 122 121 19
3 120 121 122
3 20 123 125
3 123 21 124
3 123 124 125
3 22 21 20
3 22 7 21
3 22 23 7
3 24 23 22
3 24 8 23
3 25 126 127
3 25 128 129
3 25 130 131
3 26 132 134
3 134 133 25
3 132 133 134
3 26 135 137
3 135 0 136
3 135 136 137
3 26 27 0
3 28 27 26
3 28 3 27
3 9 28 2
3 29 28 9
3 29 3 28
3 29 13 3
3 30 13 29
3 30 1 13
3 27 12 0
3 31 12 27
3 31 138 140
3 140 139 12
3 138 139 140
3 14 31 3
3 141 31 142
3 143 142 14
3 141 142 143
3 145 144 31
3 146 18 147
3 32 148 150
3 148 18 149
3 148 149 150
3 32 6 18
3 16 32 5
3 151 32 152
3 153 152 16
3 151 152 153
3 154 6 155
3 156 155 32
3 154 155 156
3 158 157 6
3 33 159 160
3 33 161 162
3 19 163 165
3 163 33 164
3 163 164 165
3 166 33 167
3 168 167 19
3 166 167 168
3 170 169 33
3 21 171 173
3 171 172 173
3 175 174 21
3 34 176 177
3 34 178 179
3 34 180 181
3 35 182 184
3 184 183 34
3 182 183 184
3 35 185 187
3 185 4 186
3 185 186 187
3 23 35 7
3 36 35 23
3 36 4 35
3 36 30 4
3 37 30 36
3 37 1 30
3 188 24 189
3 190 24 191
3 192 8 193
3 194 193 24
3 192 193 194
3 195 8 196
3 197 37 198
3 199 198 8
3 197 198 199
3 200 37 201
3 202 1 203
3 204 203 37
3 202 203 204
3 205 17 206
3 207 206 1
3 205 206 207
3 208 17 209
3 212 211 17
3 210 211 212
