ply
format ascii 1.0
element vertex 327
property float x
property float y
property float z
element face 265
property list uchar int vertex_index
end_header
-34.201569 59.648289 -22.735653
-31.012531 72.238113 -19.451118
-26.274776 79.937592 -12.695824
-24.519606 51.869358 -27.092197
-37.350784 67.937393 -18.795151
-35.311974 72.851852 -15.909534
-29.271122 56.145847 -24.752037
-18.434872 54.188412 -28.870682
-16.271576 61.786274 -28.413769
-38.710472 62.148563 -20.700077
-32.874382 66.21431 -21.405327
-25.999342 70.038834 -22.468388
-20.462608 46.854382 -29.461147
-28.741987 76.934387 -16.564514
-19.521879 60.47813 -27.231106
-18.482218 64.240005 -26.916424
-34.316795 70.1465 -19.09388
-35.220409 67.261765 -20.179741
-32.0028 69.347244 -20.530083
-29.521353 68.17305 -21.854485
-28.560471 71.328995 -20.99575
-36.912483 57.909519 -22.32906
-34.612331 56.404118 -23.277287
-26.836994 54.09837 -25.885033
-29.813055 52.782749 -25.303387
-27.463316 50.701321 -26.432938
-27.952572 47.450703 -26.979473
-25.24119 48.440304 -27.605656
-23.206808 45.991177 -28.750748
-27.514166 78.644104 -14.745682
-41.67878 65.803131 -16.809044
-39.217503 68.221634 -17.187225
-36.400024 70.54985 -17.478226
-33.281708 72.746246 -17.772385
-43.031921 65.582214 -14.878357
-31.129499 61.409161 -23.154499
-31.751593 58.003315 -23.711224
-20.523521 56.727535 -27.54324
-36.544205 61.04472 -21.76067
-38.131653 65.104141 -19.863037
-35.970768 64.193253 -21.056404
-33.613468 62.947124 -22.124115
-30.380695 64.830643 -22.553387
-26.95088 66.659225 -23.141296
-32.22102 54.686893 -24.253395
-21.409483 43.344948 -29.777691
-19.469145 50.473766 -29.145889
-32.139221 74.978256 -16.205734
-29.918455 74.790039 -18.134304
-24.969143 73.185196 -21.6129
-19.682118 65.347687 -26.162655
-20.179156 63.508218 -26.367525
-23.449225 50.663204 -27.703052
-23.810018 48.948677 -27.959782
-24.880398 50.154831 -27.348926
-26.894471 79.290848 -13.720753
-28.586206 78.414833 -13.564428
-27.966511 79.061577 -12.539499
-40.007345 68.168724 -16.25453
-40.448142 67.012383 -16.998134
-41.237984 66.959473 -16.06544
-35.855999 71.700851 -16.69388
-37.30562 70.552795 -16.557838
-36.761595 71.703796 -15.773492
-41.914554 66.849014 -15.100096
-42.561701 66.612197 -14.038337
-41.237984 66.959473 -16.06544
-42.355351 65.692672 -15.843701
-41.914554 66.849014 -15.100096
-29.863782 60.51569 -23.689286
-29.474475 62.281456 -23.429041
-21.671655 57.901737 -26.872543
-22.114655 56.075825 -27.080751
-16.819283 59.87952 -28.526125
-18.444435 59.225448 -27.934793
-17.896727 61.132202 -27.822437
-15.28148 60.450871 -29.122671
-16.819283 59.87952 -28.526125
-38.882448 60.656639 -21.016896
-39.848039 61.136936 -20.452784
-37.627339 61.596642 -21.230373
-37.799314 60.104717 -21.547192
-38.882448 60.656639 -21.016896
-37.741219 66.520767 -19.329094
-39.087828 65.375068 -19.163939
-38.697393 66.791695 -18.629995
-24.705811 69.219955 -23.197756
-25.181581 67.530151 -23.53421
-26.475111 68.34903 -22.804842
-31.349675 50.538742 -25.315924
-31.159346 52.146256 -25.040382
-30.003383 51.175235 -25.578928
-28.121463 45.900286 -27.215998
-26.902526 46.299847 -27.540979
-19.635009 45.453728 -29.947376
-20.108447 43.699011 -30.105648
-20.936045 45.099665 -29.619419
-18.952008 52.331089 -29.008285
-20.474469 51.758007 -28.52344
-19.957333 53.61533 -28.385836
-30.440604 75.956322 -16.385124
-31.529196 75.885872 -15.303929
-29.830579 76.863937 -15.483319
-24.419181 74.592758 -21.063383
-26.237669 73.688942 -20.767053
-36.191197 72.71228 -14.872501
-36.761595 71.703796 -15.773492
-20.698986 61.627281 -26.524866
-21.170834 59.777034 -26.716476
-19.002049 62.359067 -27.073765
-20.698986 61.627281 -26.524866
-20.179156 63.508218 -26.367525
-39.678709 62.533035 -20.083502
-39.848039 61.136936 -20.452784
-36.978182 56.385891 -22.557724
-38.021862 57.070976 -22.060358
-35.828105 55.63319 -23.031838
-36.978182 56.385891 -22.557724
-35.762407 57.156818 -22.803173
-34.712935 54.841385 -23.519991
-35.828105 55.63319 -23.031838
-28.828514 50.134522 -26.143704
-30.003383 51.175235 -25.578928
-28.638185 51.742035 -25.868163
-27.707944 49.076012 -26.706205
-29.073142 48.509213 -26.416971
-28.828514 50.134522 -26.143704
-25.546835 46.794647 -27.854071
-26.902526 46.299847 -27.540979
-26.596881 47.945504 -27.292564
-24.223999 47.21574 -28.178202
-24.529644 45.570084 -28.426617
-25.546835 46.794647 -27.854071
-22.792826 47.724114 -28.532328
-24.223999 47.21574 -28.178202
-23.810018 48.948677 -27.959782
-21.420727 48.155716 -28.887528
-21.834708 46.42278 -29.105947
-22.792826 47.724114 -28.532328
-17.512014 52.823364 -29.480261
-16.941922 54.729123 -29.414177
-29.216668 77.718796 -14.573903
-28.586206 78.414833 -13.564428
-28.128076 77.789245 -15.655098
-29.830579 76.863937 -15.483319
-29.216668 77.718796 -14.573903
-40.861391 65.724563 -17.636942
-42.00013 64.56236 -17.401196
-39.630753 66.933815 -17.826033
-40.861391 65.724563 -17.636942
-40.448142 67.012383 -16.998134
-38.284143 68.079513 -17.991188
-38.697393 66.791695 -18.629995
-39.630753 66.933815 -17.826033
-38.71436 69.388687 -16.412338
-40.007345 68.168724 -16.25453
-37.808763 69.385742 -17.332726
-38.71436 69.388687 -16.412338
-37.30562 70.552795 -16.557838
-43.576807 65.296097 -13.783523
-43.106586 66.32608 -12.943503
-42.561701 66.612197 -14.038337
-43.95299 64.300317 -14.550349
-43.576807 65.296097 -13.783523
-43.378809 64.466589 -15.561431
-43.95299 64.300317 -14.550349
-42.702238 64.577047 -16.526775
-43.378809 64.466589 -15.561431
-42.355351 65.692672 -15.843701
-42.00013 64.56236 -17.401196
-42.702238 64.577047 -16.526775
-30.17483 58.812767 -23.967648
-31.440546 59.706238 -23.432862
-29.863782 60.51569 -23.689286
-28.934594 57.884033 -24.488055
-30.511357 57.074581 -24.231631
-30.17483 58.812767 -23.967648
-27.685105 56.883038 -25.065058
-28.934594 57.884033 -24.488055
-26.468041 55.859299 -25.631555
-28.054058 55.122109 -25.318535
-27.685105 56.883038 -25.065058
-25.271391 54.761242 -26.251648
-26.468041 55.859299 -25.631555
-24.112697 53.646736 -26.85523
-25.6783 52.983864 -26.488615
-25.271391 54.761242 -26.251648
-22.9997 52.455803 -27.496593
-24.112697 53.646736 -26.85523
-21.001658 54.884892 -27.722115
-22.114655 56.075825 -27.080751
-19.479197 55.457974 -28.206961
-19.957333 53.61533 -28.385836
-21.001658 54.884892 -27.722115
-20.0227 58.602833 -27.387173
-21.671655 57.901737 -26.872543
-21.170834 59.777034 -26.716476
-18.945256 57.350151 -28.09086
-20.0227 58.602833 -27.387173
-18.444435 59.225448 -27.934793
-17.900931 56.08059 -28.754582
-19.479197 55.457974 -28.206961
-18.945256 57.350151 -28.09086
-16.941922 54.729123 -29.414177
-17.900931 56.08059 -28.754582
-25.126534 80.149865 -13.905619
-24.535863 80.766678 -12.842444
-37.983453 58.537117 -21.831387
-38.021862 57.070976 -22.060358
-36.728344 59.47712 -22.044865
-37.983453 58.537117 -21.831387
-37.799314 60.104717 -21.547192
-39.389299 64.010824 -19.664982
-39.087828 65.375068 -19.163939
-38.421063 63.626352 -20.281557
-39.678709 62.533035 -20.083502
-39.389299 64.010824 -19.664982
-29.100074 63.992197 -23.128485
-29.474475 62.281456 -23.429041
-30.755097 63.119902 -22.853943
-27.385166 64.906488 -23.422439
-29.100074 63.992197 -23.128485
-28.665788 65.744934 -22.847341
-25.663237 65.75322 -23.79674
-27.385166 64.906488 -23.422439
-25.663237 65.75322 -23.79674
-25.181581 67.530151 -23.53421
-27.336241 79.563332 -11.436228
-27.966511 79.061577 -12.539499
-25.671042 80.403771 -11.567775
-27.336241 79.563332 -11.436228
-23.932129 81.232856 -11.714396
-24.535863 80.766678 -12.842444
-25.671042 80.403771 -11.567775
-33.517279 53.982772 -24.008045
-34.712935 54.841385 -23.519991
-33.416675 55.545505 -23.765341
-32.363329 53.098327 -24.515386
-31.017038 53.734821 -24.778391
-31.159346 52.146256 -25.040382
-33.517279 53.982772 -24.008045
-32.363329 53.098327 -24.515386
-29.171545 46.98222 -26.663449
-29.073142 48.509213 -26.416971
-29.171545 46.98222 -26.663449
-28.121463 45.900286 -27.215998
-23.580946 44.321478 -28.949837
-24.529644 45.570084 -28.426617
-22.682284 42.998363 -29.463309
-23.580946 44.321478 -28.949837
-22.308146 44.668063 -29.26422
-21.860396 41.648611 -29.906492
-22.682284 42.998363 -29.463309
-20.648662 41.920166 -30.186262
-21.860396 41.648611 -29.906492
-20.648662 41.920166 -30.186262
-20.108447 43.699011 -30.105648
-23.449225 50.663204 -27.703052
-22.9997 52.455803 -27.496593
-20.923995 49.965408 -28.729899
-20.474469 51.758007 -28.52344
-19.965877 48.664074 -29.303518
-21.420727 48.155716 -28.887528
-20.923995 49.965408 -28.729899
-18.029151 50.966042 -29.617864
-18.952008 52.331089 -29.008285
-17.512014 52.823364 -29.480261
-18.589022 49.093044 -29.699062
-18.029151 50.966042 -29.617864
-19.085753 47.283352 -29.856691
-19.965877 48.664074 -29.303518
-18.589022 49.093044 -29.699062
-19.635009 45.453728 -29.947376
-19.085753 47.283352 -29.856691
-34.716698 73.81459 -15.006353
-36.191197 72.71228 -14.872501
-33.130322 74.877792 -15.154453
-31.529196 75.885872 -15.303929
-33.725597 73.915054 -16.057634
-34.716698 73.81459 -15.006353
-33.130322 74.877792 -15.154453
-25.746229 79.50312 -14.930548
-26.894471 79.290848 -13.720753
-25.126534 80.149865 -13.905619
-26.349418 78.690017 -15.867213
-25.746229 79.50312 -14.930548
-26.963328 77.835159 -16.776629
-28.128076 77.789245 -15.655098
-26.349418 78.690017 -15.867213
-27.557329 76.806275 -17.578016
-26.963328 77.835159 -16.776629
-28.145563 75.7341 -18.362911
-29.330221 75.862213 -17.349409
-27.557329 76.806275 -17.578016
-28.712325 74.491364 -19.027755
-28.145563 75.7341 -18.362911
-29.259363 73.215401 -19.686163
-30.465493 73.514076 -18.792711
-28.712325 74.491364 -19.027755
-28.033333 72.760841 -20.458478
-29.786501 71.783554 -20.223434
-29.259363 73.215401 -19.686163
-26.764807 72.257096 -21.304325
-28.033333 72.760841 -20.458478
-26.237669 73.688942 -20.767053
-23.136959 74.040764 -21.989996
-24.419181 74.592758 -21.063383
-23.677871 72.48507 -22.435355
-23.136959 74.040764 -21.989996
-24.192971 70.911889 -22.863098
-25.484243 71.612015 -22.040644
-23.677871 72.48507 -22.435355
-22.89944 70.09301 -23.592467
-24.705811 69.219955 -23.197756
-24.192971 70.911889 -22.863098
-17.945842 66.089493 -26.719845
-19.682118 65.347687 -26.162655
-19.145741 67.197174 -25.966076
-16.818426 64.905113 -27.522934
-17.945842 66.089493 -26.719845
-15.713105 63.678247 -28.271606
-17.376897 63.013139 -27.665096
-16.818426 64.905113 -27.522934
-14.697001 62.367939 -29.034132
-15.713105 63.678247 -28.271606
-15.28148 60.450871 -29.122671
-14.697001 62.367939 -29.034132
3 50 15 51
3 1 18 16
3 1 20 18
3 0 22 21
3 3 25 23
3 3 27 25
3 3 52 54
3 54 53 27
3 52 53 54
3 2 55 57
3 55 29 56
3 55 56 57
3 58 31 59
3 60 59 30
3 58 59 60
3 5 61 63
3 61 32 62
3 61 62 63
3 5 33 32
3 64 34 65
3 66 30 67
3 68 67 34
3 66 67 68
3 70 69 35
3 71 37 72
3 8 73 75
3 75 74 14
3 73 74 75
3 8 76 77
3 9 78 79
3 9 80 82
3 80 38 81
3 80 81 82
3 4 83 85
3 83 39 84
3 83 84 85
3 10 40 17
3 10 41 40
3 10 42 41
3 11 43 19
3 11 86 88
3 88 87 43
3 86 87 88
3 6 44 36
3 91 90 24
3 89 90 91
3 93 92 26
3 12 45 28
3 12 94 96
3 96 95 45
3 94 95 96
3 7 97 99
3 97 46 98
3 97 98 99
3 13 100 102
3 100 47 101
3 100 101 102
3 13 48 47
3 103 49 104
3 105 5 106
3 107 14 108
3 15 109 111
3 109 14 110
3 109 110 111
3 15 8 14
3 112 9 113
3 16 17 4
3 18 17 16
3 18 10 17
3 18 19 10
3 20 19 18
3 20 11 19
3 21 114 115
3 22 116 118
3 118 117 21
3 116 117 118
3 22 119 120
3 23 24 6
3 25 24 23
3 25 121 123
3 123 122 24
3 121 122 123
3 25 124 126
3 124 26 125
3 124 125 126
3 27 26 25
3 27 127 129
3 129 128 26
3 127 128 129
3 27 130 132
3 130 28 131
3 130 131 132
3 133 28 134
3 135 134 27
3 133 134 135
3 136 12 137
3 138 137 28
3 136 137 138
3 140 139 7
3 29 141 142
3 29 143 145
3 143 13 144
3 143 144 145
3 30 146 147
3 31 148 150
3 150 149 30
3 148 149 150
3 31 151 153
3 151 4 152
3 151 152 153
3 154 31 155
3 32 156 158
3 156 31 157
3 156 157 158
3 32 4 31
3 32 16 4
3 33 16 32
3 33 1 16
3 34 159 161
3 159 160 161
3 34 162 163
3 34 164 165
3 30 166 168
3 168 167 34
3 166 167 168
3 30 169 170
3 35 36 0
3 171 36 172
3 173 172 35
3 171 172 173
3 174 6 175
3 176 175 36
3 174 175 176
3 177 6 178
3 179 23 180
3 181 180 6
3 179 180 181
3 182 23 183
3 184 3 185
3 186 185 23
3 184 185 186
3 188 187 3
3 37 189 190
3 37 191 193
3 191 7 192
3 191 192 193
3 14 194 196
3 194 37 195
3 194 195 196
3 197 37 198
3 199 198 14
3 197 198 199
3 200 7 201
3 202 201 37
3 200 201 202
3 204 203 7
3 206 205 2
3 207 21 208
3 38 209 211
3 209 21 210
3 209 210 211
3 38 0 21
3 39 212 213
3 39 214 216
3 214 9 215
3 214 215 216
3 17 39 4
3 40 39 17
3 40 9 39
3 40 38 9
3 41 38 40
3 41 0 38
3 41 35 0
3 42 35 41
3 42 217 219
3 219 218 35
3 217 218 219
3 19 42 10
3 43 42 19
3 43 220 222
3 222 221 42
3 220 221 222
3 43 223 224
3 226 225 43
3 227 2 228
3 229 2 230
3 233 232 2
3 231 232 233
3 36 22 0
3 44 22 36
3 44 234 236
3 236 235 22
3 234 235 236
3 24 44 6
3 237 44 238
3 239 238 24
3 237 238 239
3 241 240 44
3 26 242 243
3 245 244 26
3 28 246 247
3 45 248 250
3 250 249 28
3 248 249 250
3 45 251 252
3 45 253 254
3 256 255 45
3 258 257 3
3 46 259 260
3 46 261 263
3 261 12 262
3 261 262 263
3 264 46 265
3 266 265 7
3 264 265 266
3 267 46 268
3 269 12 270
3 271 270 46
3 269 270 271
3 273 272 12
3 274 5 275
3 47 276 277
3 47 278 280
3 278 5 279
3 278 279 280
3 47 33 5
3 48 33 47
3 48 1 33
3 281 29 282
3 283 282 2
3 281 282 283
3 284 29 285
3 286 13 287
3 288 287 29
3 286 287 288
3 289 13 290
3 291 48 292
3 293 292 13
3 291 292 293
3 294 48 295
3 296 1 297
3 298 297 48
3 296 297 298
3 299 20 300
3 301 300 1
3 299 300 301
3 49 302 304
3 302 20 303
3 302 303 304
3 49 11 20
3 305 49 306
3 307 49 308
3 309 11 310
3 311 310 49
3 309 310 311
3 314 313 11
3 312 313 314
3 315 15 316
3 315 316 317
3 318 15 319
3 320 8 321
3 322 321 15
3 320 321 322
3 323 8 324
3 326 325 8
