ply
format ascii 1.0
element vertex 386
property float x
property float y
property float z
element face 374
property list uchar int vertex_index
end_header
25.445385 7.587471 64.112534
19.302233 7.603266 70.308922
31.367792 -2.311983 66.746124
16.067013 19.669823 71.992294
21.490425 19.652138 64.015129
33.732109 8.571697 62.718834
13.149437 18.766926 76.050735
15.159091 13.141968 75.577225
22.080605 7.553295 66.530991
20.332695 13.62775 66.986198
23.35014 13.514912 63.951736
24.887285 19.6078 61.949722
27.018826 13.636684 62.546623
31.167946 14.071674 62.299515
29.411558 7.938459 63.082924
35.535427 -1.385334 65.560989
39.393333 14.976948 60.995399
16.733574 7.342327 74.707787
18.362827 1.66383 73.954834
24.363693 1.906326 66.81102
28.126638 2.212547 64.94043
17.774721 13.645672 71.190445
18.673702 19.818108 67.642906
35.433556 14.630371 62.115471
32.325089 2.873922 64.008904
36.683426 3.726633 63.261955
13.670097 12.582254 77.554756
14.555752 9.796743 77.244164
23.68034 7.539545 65.129448
22.670683 10.511723 65.143738
24.342346 10.507118 63.981026
25.107082 13.534687 63.053246
26.17923 10.576418 63.218811
28.159586 10.731396 62.79921
27.364857 7.719124 63.455902
16.966194 1.402176 76.068367
22.697758 1.863094 68.222855
23.996571 -0.742001 68.623497
25.776344 -0.635202 67.390816
14.672411 19.334606 74.109657
18.026043 7.537392 72.490936
17.278084 10.508259 72.958694
18.528955 10.612295 70.728043
20.898006 16.642239 65.463287
19.521126 16.719772 67.314713
20.024363 19.744282 65.673103
19.095724 22.85799 65.87812
20.529556 22.752079 64.064568
22.093029 22.658199 62.612
26.810537 19.710415 61.542854
32.400505 11.256781 62.530914
33.312431 14.355206 62.272522
34.569374 11.57016 62.40609
36.704651 11.864759 62.117981
35.918209 8.921202 62.475563
29.702856 -0.161407 65.727661
30.187294 2.503899 64.399666
31.797033 0.212317 65.185928
36.075478 1.11665 64.246246
38.830437 4.135094 62.720467
14.229349 15.987453 75.884239
15.657749 16.432846 73.822227
20.633827 7.590824 68.284599
19.801693 10.611893 68.600655
21.165434 10.561068 66.704071
21.762115 13.558022 65.273872
22.416473 16.57095 63.973175
23.108461 19.594158 62.762321
24.099789 16.549919 62.909103
25.944059 16.606846 62.271255
27.923649 16.749847 61.992554
29.053495 13.821472 62.340187
30.247894 10.965687 62.615204
31.548195 8.231886 62.880241
35.03989 -3.785485 67.183044
15.356103 6.974993 76.847015
17.506115 4.462317 74.275795
18.825542 4.615194 72.100517
20.163029 4.662743 70.015076
21.583275 4.657106 68.13147
23.134104 4.650988 66.541885
24.839842 4.690107 65.300438
26.701042 4.806356 64.411964
26.176851 2.014698 65.72345
27.685543 -0.446409 66.438713
29.318565 -2.677896 67.434052
30.98839 -4.698362 68.6287
11.908432 21.468868 76.054703
15.974702 10.249981 75.166367
16.510166 13.483963 73.423676
16.972679 16.671535 71.628555
19.024078 13.675346 68.999794
18.235764 16.74894 69.415001
17.378489 19.813347 69.795357
34.226311 17.494793 61.949562
37.477238 14.851864 61.714027
38.75795 12.09877 61.576454
40.120163 9.492043 61.373039
28.698774 5.013664 63.830154
30.801939 5.30711 63.467056
32.972836 5.665373 63.210632
33.932991 0.650066 64.723274
34.502979 3.293695 63.6633
35.170864 6.05575 62.944351
14.199616 8.100016 78.031616
13.770022 9.45813 78.178196
23.849026 -1.988526 69.647141
23.173329 -0.772174 69.380364
24.728563 -1.933857 68.991214
23.849026 -1.988526 69.647141
15.542735 21.149395 72.119495
14.845434 20.981786 73.178177
15.369712 19.502215 73.050975
16.236724 21.264261 71.047947
15.542735 21.149395 72.119495
27.235355 21.270689 61.159065
27.826788 19.803888 61.492317
34.78928 -4.940764 68.107143
34.030559 -4.027826 67.541241
39.657619 16.40423 60.589187
38.787611 16.40876 61.057945
20.665767 3.253064 69.974022
19.952403 3.228861 70.945015
21.37589 3.250246 69.032219
20.873152 4.659924 69.073273
20.665767 3.253064 69.974022
27.512403 -1.69752 67.363083
26.730944 -0.540806 66.914765
26.557804 -1.791916 67.839135
28.328914 -2.813263 67.860752
28.502054 -1.562153 66.936383
27.512403 -1.69752 67.363083
30.787629 -5.824555 69.675773
29.983383 -4.869428 69.035008
31.783234 -5.628402 69.252304
30.787629 -5.824555 69.675773
12.528935 20.117897 76.052719
11.69744 19.704527 76.900848
12.317943 18.353556 76.898865
18.208402 21.366583 67.789829
17.560796 21.364202 68.866054
18.026095 19.815728 68.719132
18.586277 24.421608 65.968345
19.29881 24.366917 64.996746
24.348167 21.11629 61.769516
23.458755 21.109468 62.175815
23.997873 19.600979 62.356021
31.642636 15.650569 62.144413
30.58297 15.519411 62.124927
35.850201 16.172474 61.904114
35.246578 17.604685 61.82116
34.829934 16.062582 62.032516
36.455397 14.741118 61.914749
36.872042 16.28322 61.703392
35.850201 16.172474 61.904114
38.4097 10.669642 61.813187
37.731301 11.981765 61.847217
37.383051 10.552636 62.08395
39.090807 9.366278 61.711479
39.439056 10.795407 61.474746
38.4097 10.669642 61.813187
34.734209 -0.367634 65.142132
33.692358 -0.610017 65.43636
34.493576 -1.627717 65.855217
37.019177 5.083423 62.913196
36.262895 6.247981 62.754395
35.927145 4.891191 63.103153
39.158101 5.458182 62.355808
39.871006 4.310467 62.3489
13.327194 10.850886 78.333492
12.84725 12.181121 78.421245
14.112925 11.189498 77.39946
13.327194 10.850886 78.333492
13.770022 9.45813 78.178196
40.267904 14.974099 60.462924
40.040292 13.606067 60.862637
16.689064 -0.112147 76.959774
16.228063 1.187846 77.093148
17.438244 0.083974 75.955273
16.689064 -0.112147 76.959774
18.136561 0.214801 74.898506
17.66451 1.533003 75.011601
17.438244 0.083974 75.955273
22.523922 0.530374 69.180042
21.933132 1.85324 69.077911
23.347164 0.560547 68.423176
22.523922 0.530374 69.180042
23.173329 -0.772174 69.380364
25.61845 -1.880457 68.374874
24.886457 -0.688602 68.007157
24.728563 -1.933857 68.991214
26.557804 -1.791916 67.839135
25.61845 -1.880457 68.374874
14.099649 20.755848 74.183361
13.338162 20.472008 75.1539
13.910924 19.050766 75.080196
14.099649 20.755848 74.183361
14.845434 20.981786 73.178177
20.015726 24.313961 64.08997
19.29881 24.366917 64.996746
19.81264 22.805034 64.971344
20.777468 24.25011 63.266697
20.015726 24.313961 64.08997
21.559204 24.20317 62.540413
20.777468 24.25011 63.266697
21.311293 22.705139 63.338284
22.388345 24.159959 61.914208
21.559204 24.20317 62.540413
26.242068 21.195538 61.271206
25.280442 21.14423 61.47464
25.848911 19.659108 61.746288
26.242068 21.195538 61.271206
27.235355 21.270689 61.159065
36.98983 9.080858 62.262741
37.383051 10.552636 62.08395
36.31143 10.392981 62.296772
36.831392 0.11008 64.573891
35.805453 -0.134342 64.903617
36.561367 -1.140912 65.231262
37.133442 1.345233 63.958634
36.831392 0.11008 64.573891
37.437416 2.650225 63.466488
36.379452 2.421641 63.7541
37.133442 1.345233 63.958634
38.510922 2.854455 63.195744
37.756932 3.930864 62.991211
37.437416 2.650225 63.466488
39.540957 3.060916 62.826042
38.510922 2.854455 63.195744
39.871006 4.310467 62.3489
39.540957 3.060916 62.826042
12.901513 17.034752 76.891308
12.317943 18.353556 76.898865
13.161843 13.942416 77.643318
12.84725 12.181121 78.421245
13.441469 15.645015 76.808059
13.161843 13.942416 77.643318
13.949723 14.284854 76.719497
13.689393 17.37719 75.967487
12.901513 17.034752 76.891308
13.441469 15.645015 76.808059
28.383344 18.323605 61.717167
27.826788 19.803888 61.492317
27.367093 18.230131 61.767704
28.960821 16.858497 61.971447
28.383344 18.323605 61.717167
29.525744 15.39431 62.145263
28.960821 16.858497 61.971447
28.488572 15.285659 62.16637
30.11072 13.946573 62.319851
30.58297 15.519411 62.124927
29.525744 15.39431 62.145263
32.409759 -2.091042 66.447784
32.19451 -3.291075 67.32278
34.245807 -2.827793 66.666245
34.030559 -4.027826 67.541241
35.287658 -2.585409 66.372017
34.493576 -1.627717 65.855217
34.245807 -2.827793 66.666245
35.73661 -4.692854 67.65519
34.78928 -4.940764 68.107143
36.026018 -3.534142 66.795475
35.73661 -4.692854 67.65519
36.273786 -2.334066 65.984448
35.287658 -2.585409 66.372017
36.026018 -3.534142 66.795475
36.561367 -1.140912 65.231262
36.273786 -2.334066 65.984448
39.657619 16.40423 60.589187
40.267904 14.974099 60.462924
15.006087 5.322783 77.655716
14.599791 6.689141 77.833042
15.745905 5.566953 76.638042
15.006087 5.322783 77.655716
16.434641 5.75062 75.568428
16.044839 7.15866 75.777401
15.745905 5.566953 76.638042
16.550951 2.780544 76.248718
16.228063 1.187846 77.093148
16.820912 4.310615 75.352432
16.550951 2.780544 76.248718
17.236155 2.932246 75.172081
17.119844 5.902322 74.491791
16.434641 5.75062 75.568428
16.820912 4.310615 75.352432
18.860402 0.334825 73.890141
18.136561 0.214801 74.898506
19.052302 1.729405 72.914894
18.860402 0.334825 73.890141
19.283659 3.205087 71.987735
18.594184 3.139512 73.027676
19.052302 1.729405 72.914894
19.494286 4.638968 71.057796
19.283659 3.205087 71.987735
19.952403 3.228861 70.945015
22.140517 3.2601 68.177162
21.37589 3.250246 69.032219
21.933132 1.85324 69.077911
29.148471 -3.859196 68.437683
28.328914 -2.813263 67.860752
30.153478 -3.688129 68.031376
29.148471 -3.859196 68.437683
29.983383 -4.869428 69.035008
32.00481 -4.484265 68.264069
32.19451 -3.291075 67.32278
31.178091 -3.505173 67.687412
32.00481 -4.484265 68.264069
31.783234 -5.628402 69.252304
11.042298 20.977001 76.819039
11.69744 19.704527 76.900848
11.214573 22.777123 75.9679
11.042298 20.977001 76.819039
12.71766 21.822979 75.155884
12.528935 20.117897 76.052719
13.338162 20.472008 75.1539
12.062665 23.210447 75.149856
12.71766 21.822979 75.155884
11.214573 22.777123 75.9679
12.062665 23.210447 75.149856
14.955927 8.385868 77.04559
14.199616 8.100016 78.031616
14.599791 6.689141 77.833042
16.892462 21.336023 69.949478
16.236724 21.264261 71.047947
16.722751 19.741585 70.893825
16.892462 21.336023 69.949478
17.560796 21.364202 68.866054
18.419414 22.886524 66.907436
18.208402 21.366583 67.789829
18.884713 21.338049 66.760513
18.419414 22.886524 66.907436
18.586277 24.421608 65.968345
22.95104 22.641489 62.100655
22.600745 21.126179 62.687161
23.458755 21.109468 62.175815
22.388345 24.159959 61.914208
22.95104 22.641489 62.100655
24.348167 21.11629 61.769516
25.280442 21.14423 61.47464
32.714878 15.792336 62.130916
31.642636 15.650569 62.144413
32.240189 14.21344 62.286018
33.171818 17.362129 61.969437
32.714878 15.792336 62.130916
33.769371 15.925 62.111042
33.632069 18.950817 61.748352
33.171818 17.362129 61.969437
34.655519 19.065609 61.688606
33.632069 18.950817 61.748352
34.655519 19.065609 61.688606
35.246578 17.604685 61.82116
37.829563 16.346218 61.417259
36.872042 16.28322 61.703392
38.435285 14.914406 61.354713
38.787611 16.40876 61.057945
37.829563 16.346218 61.417259
39.722601 12.166978 61.153164
40.040292 13.606067 60.862637
39.075642 13.537859 61.285927
40.403707 10.863615 61.051457
39.722601 12.166978 61.153164
39.439056 10.795407 61.474746
41.090359 9.568655 60.891033
40.403707 10.863615 61.051457
32.624379 -0.828892 65.667687
31.582413 -1.049833 65.966026
32.409759 -2.091042 66.447784
32.865012 0.431192 64.954601
32.624379 -0.828892 65.667687
33.692358 -0.610017 65.43636
36.636568 7.680707 62.520001
35.544536 7.488476 62.709957
36.262895 6.247981 62.754395
36.98983 9.080858 62.262741
36.636568 7.680707 62.520001
38.092682 5.287653 62.642453
37.019177 5.083423 62.913196
37.756932 3.930864 62.991211
38.092682 5.287653 62.642453
39.158101 5.458182 62.355808
39.802964 8.136656 61.682094
39.090807 9.366278 61.711479
40.82456 8.269442 61.272953
39.802964 8.136656 61.682094
41.090359 9.568655 60.891033
40.82456 8.269442 61.272953
3 104 27 105
3 0 30 28
3 0 32 30
3 0 34 32
3 106 37 107
3 109 108 37
3 3 110 112
3 112 111 39
3 110 111 112
3 3 113 114
3 1 42 40
3 4 45 43
3 4 47 45
3 4 48 47
3 116 115 49
3 5 52 50
3 5 54 52
3 2 57 55
3 7 60 26
3 7 61 60
3 8 64 62
3 10 65 29
3 10 66 65
3 10 68 66
3 12 69 31
3 12 70 69
3 12 71 70
3 14 72 33
3 14 73 72
3 117 74 118
3 16 119 120
3 18 76 35
3 18 77 76
3 121 78 122
3 123 79 124
3 125 124 78
3 123 124 125
3 19 80 36
3 19 81 80
3 19 83 81
3 126 84 127
3 128 127 38
3 126 127 128
3 129 85 130
3 131 130 84
3 129 130 131
3 132 86 133
3 135 134 86
3 6 136 138
3 136 87 137
3 136 137 138
3 17 88 75
3 21 89 41
3 21 90 89
3 9 91 63
3 22 92 44
3 22 93 92
3 22 139 141
3 141 140 93
3 139 140 141
3 143 142 46
3 11 144 146
3 146 145 67
3 144 145 146
3 13 147 148
3 23 94 51
3 23 149 151
3 151 150 94
3 149 150 151
3 23 152 154
3 152 95 153
3 152 153 154
3 155 96 156
3 157 156 53
3 155 156 157
3 158 97 159
3 160 159 96
3 158 159 160
3 20 98 82
3 24 99 56
3 24 100 99
3 15 161 163
3 161 101 162
3 161 162 163
3 25 102 58
3 25 103 102
3 25 164 166
3 166 165 103
3 164 165 166
3 168 167 59
3 169 26 170
3 27 171 173
3 171 26 172
3 171 172 173
3 27 7 26
3 28 29 8
3 30 29 28
3 30 10 29
3 30 31 10
3 32 31 30
3 32 12 31
3 32 33 12
3 34 33 32
3 34 14 33
3 175 174 16
3 176 35 177
3 178 35 179
3 180 18 181
3 182 181 35
3 180 181 182
3 183 36 184
3 37 185 187
3 185 36 186
3 185 186 187
3 37 19 36
3 37 38 19
3 188 38 189
3 190 189 37
3 188 189 190
3 192 191 38
3 39 193 195
3 195 194 6
3 193 194 195
3 197 196 39
3 40 41 17
3 42 41 40
3 42 21 41
3 43 44 9
3 45 44 43
3 45 22 44
3 45 46 22
3 47 46 45
3 47 198 200
3 200 199 46
3 198 199 200
3 47 201 202
3 48 203 205
3 205 204 47
3 203 204 205
3 48 206 207
3 49 208 210
3 210 209 11
3 208 209 210
3 212 211 49
3 50 51 13
3 52 51 50
3 52 23 51
3 52 53 23
3 54 53 52
3 54 213 215
3 215 214 53
3 213 214 215
3 55 56 20
3 57 56 55
3 57 24 56
3 216 58 217
3 218 217 15
3 216 217 218
3 219 58 220
3 221 25 222
3 223 222 58
3 221 222 223
3 224 59 225
3 226 225 25
3 224 225 226
3 227 59 228
3 230 229 59
3 231 6 232
3 26 233 234
3 60 235 237
3 237 236 26
3 235 236 237
3 60 238 240
3 238 6 239
3 238 239 240
3 60 39 6
3 61 39 60
3 61 3 39
3 62 63 1
3 64 63 62
3 64 9 63
3 29 64 8
3 65 64 29
3 65 9 64
3 65 43 9
3 66 43 65
3 66 4 43
3 66 67 4
3 68 67 66
3 68 11 67
3 31 68 10
3 69 68 31
3 69 11 68
3 69 49 11
3 70 49 69
3 70 241 243
3 243 242 49
3 241 242 243
3 70 244 245
3 71 246 248
3 248 247 70
3 246 247 248
3 71 249 251
3 249 13 250
3 249 250 251
3 33 71 12
3 72 71 33
3 72 13 71
3 72 50 13
3 73 50 72
3 73 5 50
3 253 252 2
3 74 254 255
3 74 256 258
3 256 15 257
3 256 257 258
3 259 74 260
3 261 74 262
3 263 15 264
3 265 264 74
3 263 264 265
3 267 266 15
3 269 268 16
3 270 75 271
3 272 75 273
3 274 17 275
3 276 275 75
3 274 275 276
3 35 277 278
3 76 279 281
3 281 280 35
3 279 280 281
3 76 282 284
3 282 17 283
3 282 283 284
3 76 40 17
3 77 40 76
3 77 1 40
3 285 18 286
3 287 18 288
3 289 77 290
3 291 290 18
3 289 290 291
3 78 292 294
3 292 77 293
3 292 293 294
3 78 1 77
3 78 62 1
3 79 62 78
3 79 8 62
3 36 295 297
3 295 79 296
3 295 296 297
3 80 79 36
3 80 8 79
3 80 28 8
3 81 28 80
3 81 0 28
3 81 82 0
3 83 82 81
3 83 20 82
3 38 83 19
3 84 83 38
3 84 20 83
3 84 55 20
3 85 55 84
3 85 2 55
3 298 85 299
3 86 300 302
3 300 85 301
3 300 301 302
3 86 2 85
3 86 303 305
3 305 304 2
3 303 304 305
3 307 306 86
3 87 308 309
3 87 310 311
3 312 87 313
3 314 313 6
3 312 313 314
3 315 87 316
3 318 317 87
3 75 319 321
3 319 27 320
3 319 320 321
3 88 27 75
3 88 7 27
3 41 88 17
3 89 88 41
3 89 7 88
3 89 61 7
3 90 61 89
3 90 3 61
3 63 42 1
3 91 42 63
3 91 21 42
3 44 91 9
3 92 91 44
3 92 21 91
3 92 90 21
3 93 90 92
3 93 3 90
3 93 322 324
3 324 323 3
3 322 323 324
3 326 325 93
3 46 327 329
3 329 328 22
3 327 328 329
3 331 330 46
3 67 48 4
3 332 48 333
3 334 333 67
3 332 333 334
3 336 335 48
3 338 337 11
3 51 339 341
3 341 340 13
3 339 340 341
3 94 342 344
3 344 343 51
3 342 343 344
3 94 345 346
3 94 347 348
3 350 349 94
3 95 351 352
3 95 353 355
3 353 16 354
3 353 354 355
3 53 95 23
3 96 95 53
3 96 16 95
3 96 356 358
3 358 357 16
3 356 357 358
3 97 359 361
3 361 360 96
3 359 360 361
3 97 362 363
3 82 34 0
3 98 34 82
3 98 14 34
3 56 98 20
3 99 98 56
3 99 14 98
3 99 73 14
3 100 73 99
3 100 5 73
3 364 57 365
3 366 365 2
3 364 365 366
3 101 367 369
3 367 57 368
3 367 368 369
3 101 24 57
3 58 101 15
3 102 101 58
3 102 24 101
3 102 100 24
3 103 100 102
3 103 5 100
3 103 54 5
3 370 54 371
3 372 371 103
3 370 371 372
3 374 373 54
3 59 375 377
3 377 376 25
3 375 376 377
3 379 378 59
3 380 97 381
3 382 97 383
3 385 384 97
