ply
format ascii 1.0
element vertex 175
property float x
property float y
property float z
element face 155
property list uchar int vertex_index
end_header
-38.54821 71.942123 -11.548656
-33.563477 75.587555 -2.007519
-40.797188 68.115814 -15.321835
-40.72319 69.78949 -6.426493
-43.122337 66.837387 -10.842707
-36.075008 72.364182 3.833848
-36.021164 74.418793 -6.996656
-32.866352 76.29567 -12.086287
-38.267921 71.621796 -1.413443
-39.734207 70.182816 -13.555666
-38.211216 70.55574 -15.637451
-37.070419 72.572708 -13.835468
-39.757004 71.001083 -9.06834
-41.962147 68.444626 -8.736225
-40.976273 69.465378 -11.244835
-42.09148 67.642181 -13.198317
-34.768089 75.149292 -4.53927
-33.289139 76.389587 -7.273792
-32.043655 76.96907 -4.826382
-34.898647 74.052643 0.886789
-37.13203 72.119888 1.199094
-36.040054 73.722137 -1.70706
-37.245827 73.121902 -4.254301
-29.658247 78.185562 -12.383175
-30.91917 76.793488 -14.402124
-41.483261 68.340652 -3.660088
-43.924171 65.742966 -8.296576
-37.29435 73.356567 -9.346811
-35.840736 74.222504 -11.814453
-34.566582 75.488815 -9.614195
-31.587093 77.416016 -9.892088
-28.397707 79.189072 -10.176632
-25.067308 80.869949 -10.439726
-38.080952 70.344955 4.152116
-40.266155 69.265823 -1.121225
-39.474831 70.84935 -3.969131
-38.496658 72.220978 -6.721823
-34.121422 74.777328 -14.103172
-28.586206 78.414833 -13.564428
-27.966511 79.061577 -12.539499
-40.007345 68.168724 -16.25453
-41.237984 66.959473 -16.06544
-37.30562 70.552795 -16.557838
-36.761595 71.703796 -15.773492
-41.725283 68.474755 -6.248483
-42.105318 67.750336 -4.86528
-41.103226 69.065071 -5.04329
-44.051682 65.481217 -10.5606
-44.452599 64.934006 -9.287535
-43.523254 66.290177 -9.569641
-43.622015 65.923683 -11.765698
-44.051682 65.481217 -10.5606
-41.914554 66.849014 -15.100096
-42.561701 66.612197 -14.038337
-41.444334 67.878997 -14.260076
-41.237984 66.959473 -16.06544
-41.914554 66.849014 -15.100096
-30.955223 77.79876 -8.722416
-32.438116 76.902802 -8.58294
-31.806246 77.285545 -7.413268
-29.36053 78.685288 -8.864688
-29.9924 78.302544 -10.03436
-30.955223 77.79876 -8.722416
-24.499417 81.192474 -9.221215
-26.122725 80.368546 -9.124714
-23.375497 81.686829 -10.537326
-24.499417 81.192474 -9.221215
-37.07798 71.354568 3.992982
-37.604016 70.429977 5.47959
-36.601044 71.439591 5.320456
-38.696508 70.776794 0.041779
-38.128563 71.025841 1.348047
-37.699976 71.870842 -0.107174
-39.267038 70.44381 -1.267334
-39.695625 69.598808 0.187888
-38.696508 70.776794 0.041779
-31.529196 75.885872 -15.303929
-29.830579 76.863937 -15.483319
-36.191197 72.71228 -14.872501
-36.761595 71.703796 -15.773492
-37.640817 71.564224 -14.73646
-31.183504 77.575287 -6.189563
-31.806246 77.285545 -7.413268
-32.666397 76.679328 -6.050087
-29.216668 77.718796 -14.573903
-30.288708 77.489525 -13.39265
-28.586206 78.414833 -13.564428
-29.830579 76.863937 -15.483319
-29.216668 77.718796 -14.573903
-38.71436 69.388687 -16.412338
-40.007345 68.168724 -16.25453
-39.504202 69.335777 -15.479643
-38.71436 69.388687 -16.412338
-37.30562 70.552795 -16.557838
-42.398701 66.99282 -3.474818
-41.782371 67.510666 -2.232976
-42.398701 66.99282 -3.474818
-42.105318 67.750336 -4.86528
-42.344761 67.802323 -7.403349
-41.725283 68.474755 -6.248483
-41.342669 69.117058 -7.581359
-43.325773 66.451493 -7.183524
-42.344761 67.802323 -7.403349
-42.943159 67.093796 -8.5164
-44.230801 65.07029 -6.951523
-43.325773 66.451493 -7.183524
-44.786693 64.35565 -7.996551
-44.230801 65.07029 -6.951523
-44.786693 64.35565 -7.996551
-44.452599 64.934006 -9.287535
-43.106586 66.32608 -12.943503
-43.622015 65.923683 -11.765698
-42.606909 67.239784 -12.020512
-43.106586 66.32608 -12.943503
-42.561701 66.612197 -14.038337
-32.209953 76.435737 -2.152443
-32.993254 75.683563 -0.717041
-35.57983 72.369347 5.147586
-36.601044 71.439591 5.320456
-34.949789 73.255348 3.667204
-35.57983 72.369347 5.147586
-34.361609 74.099579 2.193675
-35.486827 73.208413 2.360318
-34.949789 73.255348 3.667204
-33.660839 74.916108 0.730112
-34.361609 74.099579 2.193675
-32.993254 75.683563 -0.717041
-34.231062 74.820099 -0.560365
-33.660839 74.916108 0.730112
-27.336241 79.563332 -11.436228
-27.966511 79.061577 -12.539499
-29.027977 78.687317 -11.279903
-31.450043 77.126495 -3.561875
-32.803566 76.278312 -3.41695
-32.209953 76.435737 -2.152443
-30.576757 77.812141 -4.960651
-31.450043 77.126495 -3.561875
-31.183504 77.575287 -6.189563
-30.576757 77.812141 -4.960651
-27.787924 79.528107 -8.993167
-29.36053 78.685288 -8.864688
-26.732508 80.029511 -10.308179
-27.787924 79.528107 -8.993167
-26.122725 80.368546 -9.124714
-25.671042 80.403771 -11.567775
-27.336241 79.563332 -11.436228
-26.732508 80.029511 -10.308179
-23.932129 81.232856 -11.714396
-25.671042 80.403771 -11.567775
-23.932129 81.232856 -11.714396
-23.375497 81.686829 -10.537326
-38.506046 69.37194 5.637371
-37.604016 70.429977 5.47959
-38.972347 69.203018 4.299497
-38.506046 69.37194 5.637371
-38.603024 70.138374 2.824558
-37.606491 71.232422 2.675605
-38.128563 71.025841 1.348047
-38.972347 69.203018 4.299497
-38.603024 70.138374 2.824558
-40.591398 68.376953 0.334076
-39.695625 69.598808 0.187888
-41.173818 67.973251 -0.963545
-40.591398 68.376953 0.334076
-40.874708 68.803237 -2.390656
-41.782371 67.510666 -2.232976
-41.173818 67.973251 -0.963545
-34.716698 73.81459 -15.006353
-36.191197 72.71228 -14.872501
-35.595921 73.675018 -13.96932
-33.130322 74.877792 -15.154453
-32.520296 75.785408 -14.252648
-31.529196 75.885872 -15.303929
-34.716698 73.81459 -15.006353
-33.130322 74.877792 -15.154453
3 0 11 9
3 0 14 12
3 0 9 14
3 1 18 16
3 1 21 19
3 1 16 21
3 39 38 23
3 2 40 41
3 43 42 10
3 3 44 46
3 46 45 25
3 44 45 46
3 4 26 13
3 4 47 49
3 49 48 26
3 47 48 49
3 4 50 51
3 2 52 54
3 54 53 15
3 52 53 54
3 2 55 56
3 6 29 27
3 57 30 58
3 59 58 17
3 57 58 59
3 60 31 61
3 62 61 30
3 60 61 62
3 63 32 64
3 66 65 32
3 5 67 69
3 67 33 68
3 67 68 69
3 8 70 72
3 72 71 20
3 70 71 72
3 8 73 75
3 73 34 74
3 73 74 75
3 8 35 34
3 6 36 22
3 6 27 36
3 7 37 28
3 77 76 24
3 9 10 2
3 11 10 9
3 11 78 80
3 80 79 10
3 78 79 80
3 12 13 3
3 14 13 12
3 14 4 13
3 14 15 4
3 9 15 14
3 9 2 15
3 16 17 6
3 18 17 16
3 18 81 83
3 83 82 17
3 81 82 83
3 19 20 5
3 21 20 19
3 21 8 20
3 21 22 8
3 16 22 21
3 16 6 22
3 23 24 7
3 84 24 85
3 86 85 23
3 84 85 86
3 88 87 24
3 10 89 91
3 91 90 2
3 89 90 91
3 93 92 10
3 25 94 95
3 97 96 25
3 13 98 100
3 100 99 3
3 98 99 100
3 26 101 103
3 103 102 13
3 101 102 103
3 26 104 105
3 26 106 107
3 109 108 26
3 15 110 112
3 112 111 4
3 110 111 112
3 114 113 15
3 116 115 1
3 117 5 118
3 119 5 120
3 121 19 122
3 123 122 5
3 121 122 123
3 124 19 125
3 126 1 127
3 128 127 19
3 126 127 128
3 27 28 0
3 29 28 27
3 29 7 28
3 17 29 6
3 30 29 17
3 30 7 29
3 30 23 7
3 31 23 30
3 31 129 131
3 131 130 23
3 129 130 131
3 132 18 133
3 134 133 1
3 132 133 134
3 135 18 136
3 138 137 18
3 139 31 140
3 32 141 143
3 141 31 142
3 141 142 143
3 32 144 146
3 146 145 31
3 144 145 146
3 32 147 148
3 150 149 32
3 33 151 152
3 33 153 154
3 20 33 5
3 155 33 156
3 157 156 20
3 155 156 157
3 159 158 33
3 34 160 161
3 34 162 163
3 34 164 166
3 164 25 165
3 164 165 166
3 35 25 34
3 35 3 25
3 22 35 8
3 36 35 22
3 36 3 35
3 36 12 3
3 27 12 36
3 27 0 12
3 28 11 0
3 37 11 28
3 37 167 169
3 169 168 11
3 167 168 169
3 24 37 7
3 170 37 171
3 172 171 24
3 170 171 172
3 174 173 37
