ply
format ascii 1.0
element vertex 185
property float x
property float y
property float z
element face 168
property list uchar int vertex_index
end_header
32.650387 64.993118 24.216349
29.436125 58.668625 34.006535
36.926064 63.156677 24.361565
34.764042 67.501564 19.740753
32.515892 53.679108 38.006416
33.885742 56.832291 33.241474
36.937847 52.14917 36.853752
30.334967 69.843414 19.247292
26.591434 64.260071 29.666729
30.879385 61.868912 29.01733
35.372398 60.145729 28.61327
38.732983 62.271492 24.401443
37.754795 64.240166 22.412151
34.731503 52.891167 37.482212
29.20891 68.616066 21.75539
31.442776 67.438652 21.792873
33.801628 69.618546 17.157104
27.326855 59.799202 34.42733
25.918205 62.690849 32.320541
27.973896 61.394241 31.874409
28.68924 62.971497 29.294024
30.122581 60.262627 31.506844
36.146278 56.092651 32.81749
34.61882 58.481857 30.894043
36.846092 57.77607 30.54962
37.513268 59.448112 28.362274
34.85564 64.053177 24.281525
33.669502 66.369598 21.942146
35.805019 65.329666 22.160667
36.807125 66.279831 20.103254
30.960291 56.100433 36.056694
31.630676 57.682549 33.622734
33.181812 55.232872 35.623219
35.433701 54.458588 35.137016
37.652382 53.752701 34.556641
32.580631 68.657158 19.443682
29.495825 64.529633 26.730484
31.719633 63.464844 26.577734
32.352486 59.298859 31.19363
33.129448 60.938927 28.807482
33.963741 62.552795 26.496824
36.140465 61.74411 26.42823
38.137089 61.001091 26.293465
39.082184 62.649227 23.553535
39.394152 61.872192 24.384489
32.046582 66.215885 23.004611
30.927164 66.738312 23.00766
31.53097 65.515545 24.219397
28.38149 59.233913 34.216932
28.066173 58.438004 35.451178
29.120807 57.872715 35.24078
37.588617 56.603016 31.422097
36.496185 56.93436 31.683555
37.23871 55.761307 32.556033
37.892103 57.460339 30.317818
37.588617 56.603016 31.422097
37.726742 65.589672 20.310386
37.28096 65.259998 21.257703
38.200576 64.56984 21.464835
37.324846 66.561337 19.077912
37.726742 65.589672 20.310386
31.426783 54.104348 38.232765
32.205865 52.907207 39.183803
31.738092 54.88977 37.031555
30.648982 55.31501 37.257904
31.426783 54.104348 38.232765
38.001202 51.791412 36.472101
38.358469 52.593178 35.323545
37.295114 52.950935 35.705196
29.216639 70.494529 19.216387
28.65361 69.880855 20.470436
29.771938 69.22974 20.501341
29.82039 71.000324 17.921746
29.216639 70.494529 19.216387
32.689105 70.242344 16.987676
33.353038 70.623379 15.80472
25.587518 64.988445 29.90595
25.250903 64.203834 31.232856
26.254819 63.47546 30.993635
25.942075 65.741242 28.522398
25.587518 64.988445 29.90595
26.969431 65.02071 28.32966
25.942075 65.741242 28.522398
38.790493 59.910836 27.126959
37.825178 60.224602 27.327869
38.478583 59.134346 28.161364
38.981535 60.669148 26.138071
38.790493 59.910836 27.126959
38.59309 63.633564 22.558889
38.243889 63.255829 23.406797
39.082184 62.649227 23.553535
38.200576 64.56984 21.464835
38.59309 63.633564 22.558889
33.288984 52.524769 38.917439
32.205865 52.907207 39.183803
34.39679 52.130798 38.655336
33.623697 53.285138 37.744314
33.288984 52.524769 38.917439
35.478632 51.754452 38.326464
34.39679 52.130798 38.655336
36.581804 51.383454 38.012234
35.834675 52.520168 37.167982
35.478632 51.754452 38.326464
37.634707 51.007294 37.610241
36.581804 51.383454 38.012234
29.810231 67.327019 22.988918
28.711374 67.930325 23.049397
30.325843 68.027359 21.774131
29.810231 67.327019 22.988918
30.927164 66.738312 23.00766
34.855801 68.964684 17.367436
34.282835 68.560055 18.448929
35.337007 67.906193 18.659261
34.43746 69.940769 16.030632
34.855801 68.964684 17.367436
33.353038 70.623379 15.80472
34.43746 69.940769 16.030632
27.027107 58.981598 35.670727
28.066173 58.438004 35.451178
26.313236 60.430763 34.669418
27.027107 58.981598 35.670727
26.62253 61.245025 33.373936
25.608911 61.876587 33.616024
26.313236 60.430763 34.669418
38.225691 58.29636 29.224145
37.17968 58.612091 29.455947
37.892103 57.460339 30.317818
38.478583 59.134346 28.161364
38.225691 58.29636 29.224145
36.358549 67.295327 18.840511
35.337007 67.906193 18.659261
35.785584 66.890698 19.922004
36.358549 67.295327 18.840511
37.324846 66.561337 19.077912
29.882891 56.588619 36.26586
30.648982 55.31501 37.257904
30.198208 57.384529 35.031615
29.120807 57.872715 35.24078
29.882891 56.588619 36.26586
37.991762 54.591332 33.425608
37.23871 55.761307 32.556033
36.89933 54.922676 33.687066
38.702669 53.419701 34.196675
37.991762 54.591332 33.425608
38.702669 53.419701 34.196675
38.358469 52.593178 35.323545
38.001202 51.791412 36.472101
37.634707 51.007294 37.610241
28.118575 69.288055 21.807291
28.711374 67.930325 23.049397
28.118575 69.288055 21.807291
28.65361 69.880855 20.470436
32.078606 69.76165 18.130966
33.19113 69.137852 18.300393
32.689105 70.242344 16.987676
30.955774 70.354778 18.032771
31.457799 69.250286 19.345487
32.078606 69.76165 18.130966
29.82039 71.000324 17.921746
30.955774 70.354778 18.032771
24.928292 63.406944 32.589008
25.608911 61.876587 33.616024
24.928292 63.406944 32.589008
25.250903 64.203834 31.232856
28.018335 64.376423 28.143308
26.969431 65.02071 28.32966
27.640337 63.615784 29.480376
28.421627 65.155491 26.861538
28.018335 64.376423 28.143308
29.092533 63.750565 28.012254
28.854831 65.887108 25.536945
28.421627 65.155491 26.861538
29.953688 65.283802 25.476465
28.854831 65.887108 25.536945
31.065593 64.751407 25.40009
29.953688 65.283802 25.476465
30.607729 63.997239 26.654109
32.18501 64.228981 25.397042
31.53097 65.515545 24.219397
31.065593 64.751407 25.40009
39.279482 61.304348 25.19206
38.435036 61.636291 25.347454
38.981535 60.669148 26.138071
39.394152 61.872192 24.384489
39.279482 61.304348 25.19206
3 44 43 11
3 0 45 47
3 45 15 46
3 45 46 47
3 1 48 50
3 48 17 49
3 48 49 50
3 1 19 17
3 1 21 19
3 51 24 52
3 53 52 22
3 51 52 53
3 55 54 24
3 2 28 26
3 56 29 57
3 58 57 12
3 56 57 58
3 60 59 29
3 4 61 62
3 4 63 65
3 63 30 64
3 63 64 65
3 4 32 30
3 6 33 13
3 6 34 33
3 6 66 68
3 68 67 34
3 66 67 68
3 7 69 71
3 71 70 14
3 69 70 71
3 7 72 73
3 3 35 27
3 75 74 16
3 8 76 78
3 78 77 18
3 76 77 78
3 8 79 80
3 8 81 82
3 9 36 20
3 9 37 36
3 5 38 31
3 10 39 23
3 10 40 39
3 10 41 40
3 83 42 84
3 85 84 25
3 83 84 85
3 87 86 42
3 11 12 2
3 88 12 89
3 90 89 11
3 88 89 90
3 92 91 12
3 93 4 94
3 95 13 96
3 97 96 4
3 95 96 97
3 98 13 99
3 100 6 101
3 102 101 13
3 100 101 102
3 104 103 6
3 105 14 106
3 15 107 109
3 107 14 108
3 107 108 109
3 15 7 14
3 110 16 111
3 112 111 3
3 110 111 112
3 113 16 114
3 116 115 16
3 17 117 118
3 17 119 120
3 17 121 123
3 121 18 122
3 121 122 123
3 19 18 17
3 19 8 18
3 19 20 8
3 21 20 19
3 21 9 20
3 22 23 5
3 24 23 22
3 24 10 23
3 24 25 10
3 124 25 125
3 126 125 24
3 124 125 126
3 128 127 25
3 26 27 0
3 28 27 26
3 28 3 27
3 12 28 2
3 29 28 12
3 29 3 28
3 29 129 131
3 131 130 3
3 129 130 131
3 133 132 29
3 30 134 135
3 30 136 138
3 136 1 137
3 136 137 138
3 30 31 1
3 32 31 30
3 32 5 31
3 13 32 4
3 33 32 13
3 33 5 32
3 33 22 5
3 34 22 33
3 34 139 141
3 141 140 22
3 139 140 141
3 34 142 143
3 145 144 34
3 147 146 6
3 14 148 149
3 151 150 14
3 27 15 0
3 35 15 27
3 35 7 15
3 16 35 3
3 152 35 153
3 154 153 16
3 152 153 154
3 155 7 156
3 157 156 35
3 155 156 157
3 159 158 7
3 18 160 161
3 163 162 18
3 20 164 166
3 166 165 8
3 164 165 166
3 36 167 169
3 169 168 20
3 167 168 169
3 36 170 171
3 36 172 173
3 37 174 176
3 176 175 36
3 174 175 176
3 37 177 179
3 177 0 178
3 177 178 179
3 31 21 1
3 38 21 31
3 38 9 21
3 23 38 5
3 39 38 23
3 39 9 38
3 39 37 9
3 40 37 39
3 40 0 37
3 40 26 0
3 41 26 40
3 41 2 26
3 25 41 10
3 42 41 25
3 42 2 41
3 42 11 2
3 180 11 181
3 182 181 42
3 180 181 182
3 184 183 11
