ply
format ascii 1.0
element vertex 89
property float x
property float y
property float z
element face 67
property list uchar int vertex_index
end_header
-20.882017 66.455368 -25.408886
-27.819452 63.153751 -23.703583
-22.81979 59.075939 -26.201847
-24.375593 64.847214 -24.452183
-25.273474 61.224766 -24.913338
-21.876093 62.776432 -25.818626
-22.378845 49.45705 -28.313908
-28.598066 59.622219 -24.224072
-26.099087 57.620228 -25.378078
-23.705788 55.424114 -26.618263
-21.479794 53.042248 -27.90099
-23.412281 68.401077 -23.927124
-19.682118 65.347687 -26.162655
-20.179156 63.508218 -26.367525
-21.379055 64.6159 -25.613756
-23.449225 50.663204 -27.703052
-23.810018 48.948677 -27.959782
-28.208759 61.387985 -23.963828
-29.863782 60.51569 -23.689286
-29.474475 62.281456 -23.429041
-21.671655 57.901737 -26.872543
-22.114655 56.075825 -27.080751
-23.262789 57.250027 -26.410055
-24.705811 69.219955 -23.197756
-25.181581 67.530151 -23.53421
-20.474469 51.758007 -28.52344
-19.957333 53.61533 -28.385836
-20.698986 61.627281 -26.524866
-21.170834 59.777034 -26.716476
-22.347942 60.926186 -26.010236
-20.698986 61.627281 -26.524866
-20.179156 63.508218 -26.367525
-22.792826 47.724114 -28.532328
-23.810018 48.948677 -27.959782
-21.420727 48.155716 -28.887528
-22.792826 47.724114 -28.532328
-30.17483 58.812767 -23.967648
-29.863782 60.51569 -23.689286
-28.934594 57.884033 -24.488055
-30.17483 58.812767 -23.967648
-27.685105 56.883038 -25.065058
-28.934594 57.884033 -24.488055
-27.348577 58.621223 -24.801075
-26.468041 55.859299 -25.631555
-27.685105 56.883038 -25.065058
-25.271391 54.761242 -26.251648
-26.468041 55.859299 -25.631555
-24.902437 56.522171 -25.998171
-24.112697 53.646736 -26.85523
-25.271391 54.761242 -26.251648
-22.592791 54.233181 -27.259626
-22.9997 52.455803 -27.496593
-24.112697 53.646736 -26.85523
-21.001658 54.884892 -27.722115
-22.592791 54.233181 -27.259626
-22.114655 56.075825 -27.080751
-19.957333 53.61533 -28.385836
-21.001658 54.884892 -27.722115
-21.671655 57.901737 -26.872543
-21.170834 59.777034 -26.716476
-29.100074 63.992197 -23.128485
-29.474475 62.281456 -23.429041
-27.385166 64.906488 -23.422439
-29.100074 63.992197 -23.128485
-25.663237 65.75322 -23.79674
-26.097522 64.000483 -24.077883
-27.385166 64.906488 -23.422439
-23.893937 66.624145 -24.189653
-25.663237 65.75322 -23.79674
-25.181581 67.530151 -23.53421
-21.929319 51.249649 -28.107449
-23.449225 50.663204 -27.703052
-22.9997 52.455803 -27.496593
-20.923995 49.965408 -28.729899
-21.929319 51.249649 -28.107449
-20.474469 51.758007 -28.52344
-21.420727 48.155716 -28.887528
-20.923995 49.965408 -28.729899
-22.89944 70.09301 -23.592467
-24.705811 69.219955 -23.197756
-21.62673 69.212226 -24.409288
-22.89944 70.09301 -23.592467
-20.361598 68.239372 -25.150169
-22.147149 67.428223 -24.668005
-21.62673 69.212226 -24.409288
-19.145741 67.197174 -25.966076
-20.361598 68.239372 -25.150169
-19.682118 65.347687 -26.162655
-19.145741 67.197174 -25.966076
3 0 5 3
3 0 12 14
3 14 13 5
3 12 13 14
3 15 6 16
3 1 17 19
3 17 7 18
3 17 18 19
3 2 8 4
3 2 9 8
3 2 20 22
3 22 21 9
3 20 21 22
3 23 11 24
3 26 25 10
3 3 4 1
3 5 4 3
3 5 2 4
3 5 27 29
3 29 28 2
3 27 28 29
3 31 30 5
3 6 32 33
3 6 34 35
3 7 36 37
3 7 38 39
3 4 7 1
3 8 7 4
3 8 40 42
3 42 41 7
3 40 41 42
3 8 43 44
3 9 45 47
3 47 46 8
3 45 46 47
3 9 48 49
3 9 50 52
3 50 10 51
3 50 51 52
3 53 10 54
3 55 54 9
3 53 54 55
3 57 56 10
3 59 58 2
3 60 1 61
3 62 1 63
3 64 3 65
3 66 65 1
3 64 65 66
3 11 67 69
3 67 3 68
3 67 68 69
3 11 0 3
3 10 70 72
3 70 6 71
3 70 71 72
3 73 6 74
3 75 74 10
3 73 74 75
3 77 76 6
3 78 11 79
3 80 11 81
3 82 0 83
3 84 83 11
3 82 83 84
3 85 0 86
3 88 87 0
