ply
format ascii 1.0
element vertex 65
property float x
property float y
property float z
element face 47
property list uchar int vertex_index
end_header
35.550652 49.124489 41.492172
34.399349 46.017654 46.076149
37.605556 48.364075 40.662048
30.811104 48.856178 44.894859
32.886242 48.266335 44.4338
34.937813 47.613228 43.800728
36.929993 46.884636 42.969036
36.333321 45.364517 45.273598
34.806365 50.247459 40.660316
34.497061 49.486897 41.822446
35.888206 49.871113 40.331443
34.806365 50.247459 40.660316
36.578104 48.744282 41.07711
36.915658 49.490906 39.916381
35.888206 49.871113 40.331443
30.577615 47.932636 45.969017
29.773722 49.131637 45.067859
33.642796 47.141994 45.254975
32.638924 47.412518 45.542988
33.395477 46.288178 46.364162
37.871426 46.482647 42.452559
37.540148 45.740071 43.602961
37.968561 49.114746 39.514389
36.915658 49.490906 39.916381
38.576353 47.964985 40.159336
37.968561 49.114746 39.514389
34.166052 45.145689 47.185772
33.395477 46.288178 46.364162
35.112219 44.87649 46.815171
34.166052 45.145689 47.185772
30.01915 50.045261 43.979778
29.773722 49.131637 45.067859
31.069091 49.701782 43.779083
30.01915 50.045261 43.979778
31.601354 47.707439 45.773517
30.577615 47.932636 45.969017
31.848673 48.561256 44.664329
31.601354 47.707439 45.773517
32.638924 47.412518 45.542988
32.10666 49.406861 43.548553
31.069091 49.701782 43.779083
31.848673 48.561256 44.664329
33.164856 49.057819 43.293261
32.10666 49.406861 43.548553
34.190641 48.731266 42.976725
33.164856 49.057819 43.293261
33.912028 47.939781 44.117264
35.244232 48.368859 42.64645
34.497061 49.486897 41.822446
34.190641 48.731266 42.976725
37.241812 44.980011 44.755241
37.540148 45.740071 43.602961
36.631657 46.124577 44.121317
36.079205 44.549921 46.413895
35.366335 45.691085 45.674874
35.112219 44.87649 46.815171
36.959828 44.20454 45.909508
36.079205 44.549921 46.413895
37.241812 44.980011 44.755241
36.959828 44.20454 45.909508
38.209208 47.222366 41.299065
37.267775 47.624356 41.815542
37.871426 46.482647 42.452559
38.576353 47.964985 40.159336
38.209208 47.222366 41.299065
3 0 8 9
3 0 10 11
3 0 12 14
3 12 2 13
3 12 13 14
3 15 3 16
3 1 17 19
3 17 4 18
3 17 18 19
3 1 5 4
3 1 7 5
3 21 20 6
3 2 22 23
3 2 24 25
3 26 1 27
3 29 28 1
3 3 30 31
3 3 32 33
3 34 3 35
3 4 36 38
3 36 3 37
3 36 37 38
3 4 39 41
3 41 40 3
3 39 40 41
3 4 42 43
3 5 44 46
3 46 45 4
3 44 45 46
3 5 47 49
3 47 0 48
3 47 48 49
3 5 6 0
3 7 6 5
3 7 50 52
3 52 51 6
3 50 51 52
3 53 7 54
3 55 54 1
3 53 54 55
3 56 7 57
3 59 58 7
3 6 2 0
3 60 2 61
3 62 61 6
3 60 61 62
3 64 63 2
