ply
format ascii 1.0
element vertex 69
property float x
property float y
property float z
element face 48
property list uchar int vertex_index
end_header
-60.642788 -63.421463 19.423527
-64.36425 -60.343681 18.044706
-59.021229 -63.711575 17.657492
-62.623875 -61.904076 18.687185
-63.898987 -61.647148 20.555872
-65.306839 -60.114834 19.976027
-66.278946 -58.506386 19.47168
-59.832009 -63.566519 18.540509
-58.780334 -64.321562 18.954528
-59.591114 -64.176506 19.837545
-63.735027 -60.419187 17.110792
-62.86484 -61.199385 17.432032
-63.494062 -61.123879 18.365946
-63.667872 -62.179938 21.824615
-63.02763 -62.383274 20.891142
-65.590217 -59.921242 20.978982
-65.083847 -60.685181 21.237257
-66.076271 -59.117018 20.726808
-65.792892 -59.31061 19.723853
-65.590217 -59.921242 20.978982
-64.594944 -59.585241 16.809075
-65.057732 -59.530265 17.767136
-57.950159 -64.518812 18.091417
-58.780334 -64.321562 18.954528
-58.237532 -63.899305 16.782112
-57.950159 -64.518812 18.091417
-61.878567 -62.008687 17.779542
-60.888024 -62.76738 18.147713
-61.633331 -62.66277 19.055356
-61.878567 -62.008687 17.779542
-62.86484 -61.199385 17.432032
-63.735027 -60.419187 17.110792
-64.594944 -59.585241 16.809075
-60.077244 -62.912436 17.264696
-59.832009 -63.566519 18.540509
-60.888024 -62.76738 18.147713
-59.298788 -63.041029 16.373085
-60.077244 -62.912436 17.264696
-58.237532 -63.899305 16.782112
-59.298788 -63.041029 16.373085
-60.419779 -63.992249 20.708521
-59.591114 -64.176506 19.837545
-61.39953 -63.270432 20.32497
-60.419779 -63.992249 20.708521
-62.390074 -62.511738 19.956798
-61.633331 -62.66277 19.055356
-61.39953 -63.270432 20.32497
-63.261431 -61.775612 19.621529
-62.390074 -62.511738 19.956798
-63.02763 -62.383274 20.891142
-64.379921 -61.451338 21.527179
-63.667872 -62.179938 21.824615
-64.602913 -60.880991 20.265949
-64.379921 -61.451338 21.527179
-65.083847 -60.685181 21.237257
-65.529026 -59.415842 18.732797
-65.057732 -59.530265 17.767136
-64.835544 -60.229258 19.010366
-66.01508 -58.611618 18.480624
-65.529026 -59.415842 18.732797
-65.792892 -59.31061 19.723853
-66.484783 -57.762102 18.238411
-66.01508 -58.611618 18.480624
-66.337776 -58.313454 20.495762
-66.076271 -59.117018 20.726808
-66.511826 -57.665489 19.245017
-66.337776 -58.313454 20.495762
-66.484783 -57.762102 18.238411
-66.511826 -57.665489 19.245017
3 0 7 9
3 7 2 8
3 7 8 9
3 1 10 12
3 12 11 3
3 10 11 12
3 13 4 14
3 15 5 16
3 17 6 18
3 19 18 5
3 17 18 19
3 21 20 1
3 2 22 23
3 2 24 25
3 3 26 28
3 28 27 0
3 26 27 28
3 30 29 3
3 32 31 1
3 33 2 34
3 35 34 0
3 33 34 35
3 36 2 37
3 39 38 2
3 40 0 41
3 42 0 43
3 44 3 45
3 46 45 0
3 44 45 46
3 4 47 49
3 47 3 48
3 47 48 49
3 4 1 3
3 50 4 51
3 5 52 54
3 52 4 53
3 52 53 54
3 5 1 4
3 5 55 57
3 57 56 1
3 55 56 57
3 6 58 60
3 60 59 5
3 58 59 60
3 6 61 62
3 63 6 64
3 65 6 66
3 68 67 6
