ply
format ascii 1.0
element vertex 80
property float x
property float y
property float z
element face 63
property list uchar int vertex_index
end_header
-43.765949 -17.685381 -2.076567
-45.524006 -14.31044 -6.770746
-47.882908 -18.52696 -3.517826
-42.488029 -15.677099 -2.22296
-44.666466 -16.07163 -4.419439
-43.260292 -14.176809 -4.570131
-49.871292 -14.375799 -8.063707
-45.198421 -19.231279 -1.748085
-46.209908 -17.497705 -4.045454
-47.169365 -15.614933 -6.367205
-48.049141 -13.576836 -8.703979
-43.999619 -12.540364 -6.918528
-46.314445 -12.399262 -9.122004
-47.332123 -19.456517 -2.415027
-48.774445 -18.893368 -3.226219
-41.920417 -14.423764 -2.186138
-41.605654 -15.062763 -1.033378
-42.306549 -13.673619 -3.359723
-42.874161 -14.926954 -3.396546
-41.920417 -14.423764 -2.186138
-49.397115 -15.451255 -6.917439
-50.813187 -14.636951 -7.677131
-43.310581 -18.42331 -0.915395
-42.738615 -17.365984 -0.982485
-44.482185 -18.45833 -1.912326
-44.026817 -19.19626 -0.751155
-43.310581 -18.42331 -0.915395
-43.298344 -11.403564 -6.853065
-42.992449 -12.15875 -5.692967
-46.667704 -11.37132 -10.295511
-45.500257 -11.583686 -9.191415
-47.571825 -11.892907 -10.085908
-46.667704 -11.37132 -10.295511
-49.322823 -17.837049 -4.297653
-48.774445 -18.893368 -3.226219
-48.402923 -17.526835 -4.644498
-49.322823 -17.837049 -4.297653
-42.099655 -16.361843 -1.055681
-41.605654 -15.062763 -1.033378
-43.126989 -16.68124 -2.149763
-42.738615 -17.365984 -0.982485
-42.099655 -16.361843 -1.055681
-51.245413 -13.442788 -8.815286
-50.813187 -14.636951 -7.677131
-50.28846 -13.225079 -9.22586
-51.245413 -13.442788 -8.815286
-44.684744 -20.030171 -0.617274
-44.026817 -19.19626 -0.751155
-45.98988 -19.808677 -1.530157
-44.684744 -20.030171 -0.617274
-46.540665 -18.87912 -2.632956
-47.332123 -19.456517 -2.415027
-45.98988 -19.808677 -1.530157
-47.566423 -17.012208 -4.908312
-48.402923 -17.526835 -4.644498
-47.046408 -18.012332 -3.78164
-48.046152 -16.070822 -6.069187
-47.566423 -17.012208 -4.908312
-46.689636 -16.556319 -5.20633
-48.520328 -14.995366 -7.215456
-49.397115 -15.451255 -6.917439
-48.046152 -16.070822 -6.069187
-49.377384 -12.825598 -9.545997
-50.28846 -13.225079 -9.22586
-48.960217 -13.976318 -8.383843
-42.622785 -12.976973 -4.518768
-42.306549 -13.673619 -3.359723
-43.629956 -13.358587 -5.74433
-42.622785 -12.976973 -4.518768
-42.992449 -12.15875 -5.692967
-44.342844 -11.654237 -8.089677
-43.298344 -11.403564 -6.853065
-45.157032 -12.469813 -8.020266
-44.342844 -11.654237 -8.089677
-45.500257 -11.583686 -9.191415
-48.439173 -12.481694 -9.876895
-47.181793 -12.988049 -8.912992
-47.571825 -11.892907 -10.085908
-49.377384 -12.825598 -9.545997
-48.439173 -12.481694 -9.876895
3 13 2 14
3 15 3 16
3 17 5 18
3 19 18 3
3 17 18 19
3 20 6 21
3 0 22 23
3 0 24 26
3 24 7 25
3 24 25 26
3 0 8 7
3 1 9 4
3 1 10 9
3 27 11 28
3 29 12 30
3 32 31 12
3 2 33 34
3 2 35 36
3 3 37 38
3 3 39 41
3 39 0 40
3 39 40 41
3 3 4 0
3 5 4 3
3 5 1 4
3 6 42 43
3 6 44 45
3 7 46 47
3 7 48 49
3 7 50 52
3 50 2 51
3 50 51 52
3 8 2 7
3 8 53 55
3 55 54 2
3 53 54 55
3 4 8 0
3 9 8 4
3 9 56 58
3 58 57 8
3 56 57 58
3 9 59 61
3 59 6 60
3 59 60 61
3 10 6 9
3 10 62 64
3 64 63 6
3 62 63 64
3 65 5 66
3 11 67 69
3 67 5 68
3 67 68 69
3 11 1 5
3 70 11 71
3 12 72 74
3 72 11 73
3 72 73 74
3 12 1 11
3 12 10 1
3 75 10 76
3 77 76 12
3 75 76 77
3 79 78 10
