ply
format ascii 1.0
element vertex 308
property float x
property float y
property float z
element face 288
property list uchar int vertex_index
end_header
41.602715 28.147312 47.305573
39.96909 39.689045 46.100708
38.768085 31.851524 55.085793
42.800831 45.874969 37.1213
39.54715 47.565895 39.656624
40.957127 34.181957 47.082581
41.788704 37.522495 42.5112
41.669304 31.75206 42.74926
40.31358 20.617443 59.062683
38.150303 44.595505 44.236885
37.123756 41.360439 48.836754
39.231331 36.173855 50.730858
40.732979 30.352982 51.681137
44.129601 49.270706 32.71431
44.870388 44.116913 33.905457
41.224266 42.769024 41.533501
43.253582 40.737595 38.157658
40.682606 25.82151 55.858452
42.12991 24.169994 51.770729
41.269619 31.211796 47.277161
41.415874 32.994823 44.973583
41.532097 29.984612 45.014
35.825089 43.735325 47.554192
38.992409 34.12635 52.971382
40.038765 33.334549 51.322838
39.90052 31.211594 53.540878
42.064461 48.327629 36.259468
43.537132 47.53331 34.932106
44.683399 46.720718 33.415848
43.99268 44.999802 35.594986
39.170837 42.209087 45.282204
39.798649 43.72258 42.981613
40.532887 41.253193 43.796997
42.30899 36.360718 40.505173
42.46183 39.122993 40.307587
43.029701 38.022797 38.365562
41.609318 20.260132 57.518997
40.561104 23.292591 57.61264
41.62273 22.743225 55.859398
41.531826 25.085781 53.938805
42.43409 22.003372 53.818817
35.01931 39.915573 51.926071
41.302544 46.733582 38.476002
40.550594 37.01421 46.69677
41.015007 38.646816 44.38953
41.282738 35.891857 44.774445
41.76054 34.697716 42.708656
38.774578 20.784012 60.235352
39.921906 17.831512 60.182976
42.767342 17.312225 57.232986
37.586334 43.044563 46.545418
38.6618 40.605385 47.598495
36.74292 39.48526 51.0765
38.263878 38.848354 49.900452
39.542171 38.014503 48.424126
40.236893 35.258743 49.022377
40.790264 32.347305 49.401634
41.283306 29.313786 49.578438
43.244198 51.767548 31.805447
44.512398 51.069077 30.439949
45.188904 48.502396 31.175476
45.514374 45.890038 31.721657
38.812859 46.080658 41.936081
40.524921 45.211632 40.71262
42.002556 44.294792 39.312981
41.635311 40.21167 42.127468
42.382462 41.764137 39.918259
43.195812 43.350437 37.750092
44.087029 42.397743 36.036423
44.706036 41.450798 34.18911
39.230667 23.633774 59.01152
39.550079 26.344578 57.454491
39.75787 28.878872 55.608864
40.719944 28.178947 53.857407
41.394997 27.275967 51.821358
41.826408 26.214951 49.577492
41.688038 27.53108 46.116062
41.652729 28.44973 44.970276
41.567406 29.065962 46.159787
38.880247 32.988937 54.028588
38.325539 34.40947 53.628521
38.213377 33.272056 54.685727
42.830608 36.611515 38.384784
42.669346 37.191757 39.435367
42.470253 35.780475 39.45459
43.21389 37.480598 37.346431
42.830608 36.611515 38.384784
42.144258 21.228934 55.75795
41.616024 21.501678 56.689197
42.137552 19.987387 56.58775
42.549938 20.859007 54.73766
42.02841 22.373298 54.839107
42.144258 21.228934 55.75795
39.926196 48.334987 38.528717
38.939358 48.715656 39.011677
40.424847 47.149738 39.066313
40.803893 47.918831 37.938406
39.926196 48.334987 38.528717
41.854393 32.616113 41.6456
41.900011 34.088942 41.625298
41.714922 33.224888 42.728958
41.737125 31.128327 41.601219
41.854393 32.616113 41.6456
39.657619 16.40423 60.589187
39.051897 17.836042 60.651733
42.735271 16.063078 57.880317
42.110501 17.485598 58.05474
36.574951 38.432314 52.149754
35.881115 39.700417 51.501286
35.713146 38.64747 52.574539
38.747604 37.511105 50.315655
38.104669 37.867973 51.023449
38.588396 36.530724 51.438652
43.686899 50.519127 32.259878
42.989662 50.888168 32.924204
43.432364 49.639747 33.378636
45.175546 43.674156 32.989218
45.49754 44.560719 31.897318
45.192381 45.003475 32.813557
38.481581 45.338082 43.086483
37.871426 46.482647 42.452559
37.540148 45.740071 43.602961
44.484558 40.080337 34.236958
44.281929 40.58252 35.230474
44.92067 40.983162 33.212387
44.484558 40.080337 34.236958
38.576353 47.964985 40.159336
38.939358 48.715656 39.011677
41.597817 29.354336 43.839978
41.66642 30.23806 42.707607
41.600701 30.868336 43.88163
41.597817 29.354336 43.839978
41.652729 28.44973 44.970276
34.878922 44.004525 47.924793
35.112219 44.87649 46.815171
35.610383 42.834967 48.668453
34.878922 44.004525 47.924793
36.259716 41.647523 49.309735
36.474423 42.547882 48.195473
35.610383 42.834967 48.668453
38.468935 35.506971 52.558914
38.325539 34.40947 53.628521
39.11187 35.150103 51.85112
38.588396 36.530724 51.438652
38.468935 35.506971 52.558914
42.399794 49.168209 35.151214
41.545002 49.526615 35.710956
43.136129 48.77105 34.487533
42.399794 49.168209 35.151214
42.800797 47.93047 35.595787
43.833366 48.402008 33.823208
43.432364 49.639747 33.378636
43.136129 48.77105 34.487533
43.443762 38.868519 37.3187
43.555702 40.225918 37.214748
43.141642 39.380196 38.26161
43.443762 38.868519 37.3187
43.21389 37.480598 37.346431
34.079813 40.035448 52.194176
34.270643 41.122833 51.179619
34.83922 38.784475 52.936638
34.079813 40.035448 52.194176
35.713146 38.64747 52.574539
34.83922 38.784475 52.936638
38.058525 32.053705 55.672962
38.213377 33.272056 54.685727
41.184851 48.715855 36.830139
41.545002 49.526615 35.710956
41.683503 47.530606 37.367735
41.184851 48.715855 36.830139
40.803893 47.918831 37.938406
42.174236 34.920443 40.523556
42.034765 35.529217 41.606915
41.900011 34.088942 41.625298
42.470253 35.780475 39.45459
42.174236 34.920443 40.523556
41.737125 31.128327 41.601219
41.66642 30.23806 42.707607
38.478234 19.312292 60.677921
37.895456 20.781172 60.62558
39.348242 19.307762 60.209164
38.478234 19.312292 60.677921
39.051897 17.836042 60.651733
40.53219 16.401381 60.056713
39.657619 16.40423 60.589187
40.687782 17.745241 59.529736
40.53219 16.401381 60.056713
40.88362 19.138207 58.969589
40.117743 19.224477 59.622829
40.687782 17.745241 59.529736
41.531489 18.959551 58.197746
40.961449 20.438788 58.29084
40.88362 19.138207 58.969589
42.18833 18.786178 57.375991
41.531489 18.959551 58.197746
42.110501 17.485598 58.05474
42.716565 18.513434 56.444744
42.137552 19.987387 56.58775
42.18833 18.786178 57.375991
37.241812 44.980011 44.755241
37.540148 45.740071 43.602961
36.079205 44.549921 46.413895
35.112219 44.87649 46.815171
36.959828 44.20454 45.909508
36.079205 44.549921 46.413895
36.705711 43.389944 47.049805
37.868319 43.820034 45.391151
37.241812 44.980011 44.755241
36.959828 44.20454 45.909508
35.207493 40.92509 50.854393
34.270643 41.122833 51.179619
36.069298 40.709934 50.429608
35.207493 40.92509 50.854393
35.881115 39.700417 51.501286
36.933338 40.422849 49.956627
36.259716 41.647523 49.309735
36.069298 40.709934 50.429608
37.34419 38.186426 51.611473
36.574951 38.432314 52.149754
37.503399 39.166807 50.488476
37.34419 38.186426 51.611473
38.104669 37.867973 51.023449
42.443708 52.10033 32.368666
42.989662 50.888168 32.924204
42.672584 52.985023 31.253607
42.443708 52.10033 32.368666
43.391672 52.671837 30.668098
42.672584 52.985023 31.253607
44.025772 52.322602 29.985349
43.391672 52.671837 30.668098
43.878298 51.418312 31.122698
44.580674 51.984821 29.264646
44.025772 52.322602 29.985349
44.984775 50.695321 29.642301
44.580674 51.984821 29.264646
45.323028 49.41198 30.010065
44.984775 50.695321 29.642301
44.850651 49.785736 30.807713
45.569862 48.100205 30.311338
45.323028 49.41198 30.010065
45.732597 46.794026 30.584428
45.569862 48.100205 30.311338
45.351639 47.196217 31.448566
45.807369 45.465249 30.800449
45.732597 46.794026 30.584428
45.807369 45.465249 30.800449
45.49754 44.560719 31.897318
38.209208 47.222366 41.299065
37.871426 46.482647 42.452559
39.180005 46.823276 40.796352
38.576353 47.964985 40.159336
38.209208 47.222366 41.299065
43.972425 41.055992 36.154131
43.670305 41.567669 37.09704
43.555702 40.225918 37.214748
44.396532 41.92427 35.112766
43.972425 41.055992 36.154131
44.281929 40.58252 35.230474
45.09337 42.341099 33.131045
45.175546 43.674156 32.989218
44.788212 42.783856 34.047283
45.09337 42.341099 33.131045
44.92067 40.983162 33.212387
38.633619 30.601076 56.046444
38.058525 32.053705 55.672962
38.209444 22.278052 60.124306
37.895456 20.781172 60.62558
38.437489 23.702932 59.51239
38.209444 22.278052 60.124306
39.002623 22.208893 59.623436
38.68304 25.13945 58.839752
38.437489 23.702932 59.51239
38.842746 26.494852 58.061237
38.68304 25.13945 58.839752
39.390373 24.989176 58.233005
39.024616 27.847603 57.230793
38.842746 26.494852 58.061237
39.128512 29.11475 56.30798
39.024616 27.847603 57.230793
39.653974 27.611725 56.531678
39.262977 30.365198 55.347329
38.633619 30.601076 56.046444
39.128512 29.11475 56.30798
43.422154 15.907127 57.027702
42.735271 16.063078 57.880317
43.323853 17.056883 56.26995
43.422154 15.907127 57.027702
42.716565 18.513434 56.444744
43.323853 17.056883 56.26995
42.975737 20.504785 53.681233
42.549938 20.859007 54.73766
42.739956 21.558094 52.692814
42.975737 20.504785 53.681233
42.587866 22.641405 51.66877
42.282 23.086683 52.794773
42.739956 21.558094 52.692814
42.335677 23.647876 50.60091
42.587866 22.641405 51.66877
42.183926 24.670355 49.504292
41.978159 25.192473 50.67411
42.335677 23.647876 50.60091
41.957899 25.634954 48.387806
42.183926 24.670355 49.504292
41.846052 26.601135 47.251846
41.714562 27.181131 48.441533
41.957899 25.634954 48.387806
41.688038 27.53108 46.116062
41.846052 26.601135 47.251846
3 0 21 19
3 0 76 78
3 78 77 21
3 76 77 78
3 2 79 81
3 79 23 80
3 79 80 81
3 2 25 23
3 3 27 26
3 3 29 27
3 1 32 30
3 82 35 83
3 84 83 33
3 82 83 84
3 86 85 35
3 87 38 88
3 89 88 36
3 87 88 89
3 90 40 91
3 92 91 38
3 90 91 92
3 4 93 94
3 4 95 97
3 95 42 96
3 95 96 97
3 5 45 43
3 7 46 20
3 7 98 100
3 100 99 46
3 98 99 100
3 7 101 102
3 103 48 104
3 105 49 106
3 10 50 22
3 10 51 50
3 107 52 108
3 109 108 41
3 107 108 109
3 11 110 112
3 110 53 111
3 110 111 112
3 11 54 53
3 11 55 54
3 12 56 24
3 12 57 56
3 13 113 115
3 113 58 114
3 113 114 115
3 13 59 58
3 13 60 59
3 14 61 28
3 14 116 118
3 118 117 61
3 116 117 118
3 9 119 121
3 119 62 120
3 119 120 121
3 15 63 31
3 15 64 63
3 6 65 44
3 16 66 34
3 16 67 66
3 16 68 67
3 122 69 123
3 125 124 69
3 8 70 47
3 17 71 37
3 17 72 71
3 17 73 72
3 18 74 39
3 18 75 74
3 126 4 127
3 19 20 5
3 21 20 19
3 21 7 20
3 21 128 130
3 130 129 7
3 128 129 130
3 132 131 21
3 133 22 134
3 135 22 136
3 137 10 138
3 139 138 22
3 137 138 139
3 23 140 141
3 23 142 144
3 142 11 143
3 142 143 144
3 23 24 11
3 25 24 23
3 25 12 24
3 26 145 146
3 27 147 149
3 149 148 26
3 147 148 149
3 27 150 152
3 150 13 151
3 150 151 152
3 27 28 13
3 29 28 27
3 29 14 28
3 30 31 9
3 32 31 30
3 32 15 31
3 33 34 6
3 35 34 33
3 35 16 34
3 35 153 155
3 155 154 16
3 153 154 155
3 157 156 35
3 36 37 8
3 38 37 36
3 38 17 37
3 38 39 17
3 40 39 38
3 40 18 39
3 158 41 159
3 160 41 161
3 163 162 41
3 164 2 165
3 166 26 167
3 42 168 170
3 168 26 169
3 168 169 170
3 42 3 26
3 43 44 1
3 45 44 43
3 45 6 44
3 20 45 5
3 46 45 20
3 46 6 45
3 46 33 6
3 171 33 172
3 173 172 46
3 171 172 173
3 175 174 33
3 177 176 7
3 178 47 179
3 48 180 182
3 180 47 181
3 180 181 182
3 48 8 47
3 183 48 184
3 185 48 186
3 187 8 188
3 189 188 48
3 187 188 189
3 190 36 191
3 192 191 8
3 190 191 192
3 49 193 195
3 193 36 194
3 193 194 195
3 49 196 198
3 198 197 36
3 196 197 198
3 199 9 200
3 22 201 202
3 50 203 205
3 205 204 22
3 203 204 205
3 50 206 208
3 206 9 207
3 206 207 208
3 50 30 9
3 51 30 50
3 51 1 30
3 41 209 210
3 52 211 213
3 213 212 41
3 211 212 213
3 52 214 216
3 214 10 215
3 214 215 216
3 217 52 218
3 53 219 221
3 219 52 220
3 219 220 221
3 53 10 52
3 53 51 10
3 54 51 53
3 54 1 51
3 54 43 1
3 55 43 54
3 55 5 43
3 24 55 11
3 56 55 24
3 56 5 55
3 56 19 5
3 57 19 56
3 57 0 19
3 58 222 223
3 58 224 225
3 58 226 227
3 59 228 230
3 230 229 58
3 228 229 230
3 59 231 232
3 59 233 234
3 60 235 237
3 237 236 59
3 235 236 237
3 60 238 239
3 28 60 13
3 61 60 28
3 61 240 242
3 242 241 60
3 240 241 242
3 61 243 244
3 246 245 61
3 62 247 248
3 62 249 251
3 249 4 250
3 249 250 251
3 31 62 9
3 63 62 31
3 63 4 62
3 63 42 4
3 64 42 63
3 64 3 42
3 44 32 1
3 65 32 44
3 65 15 32
3 34 65 6
3 66 65 34
3 66 15 65
3 66 64 15
3 67 64 66
3 67 3 64
3 67 29 3
3 68 29 67
3 68 14 29
3 252 68 253
3 254 253 16
3 252 253 254
3 69 255 257
3 255 68 256
3 255 256 257
3 69 14 68
3 69 258 260
3 260 259 14
3 258 259 260
3 262 261 69
3 263 2 264
3 47 265 266
3 70 267 269
3 269 268 47
3 267 268 269
3 70 270 271
3 37 70 8
3 71 70 37
3 71 272 274
3 274 273 70
3 272 273 274
3 71 275 276
3 72 277 279
3 279 278 71
3 277 278 279
3 72 280 282
3 280 2 281
3 280 281 282
3 72 25 2
3 73 25 72
3 73 12 25
3 39 73 17
3 74 73 39
3 74 12 73
3 74 57 12
3 75 57 74
3 75 0 57
3 283 49 284
3 285 49 286
3 288 287 49
3 289 40 290
3 291 40 292
3 293 18 294
3 295 294 40
3 293 294 295
3 296 18 297
3 298 75 299
3 300 299 18
3 298 299 300
3 301 75 302
3 303 0 304
3 305 304 75
3 303 304 305
3 307 306 0
