ply
format ascii 1.0
element vertex 86
property float x
property float y
property float z
element face 67
property list uchar int vertex_index
end_header
-63.033287 -64.740814 -2.882072
-60.956787 -62.531532 -0.140606
-64.583862 -66.56311 -5.799797
-65.649857 -60.727791 -7.315315
-62.336491 -67.531746 -2.089077
-63.050102 -68.499359 -3.564051
-63.950119 -65.700874 -4.301165
-65.325424 -63.667297 -6.536991
-64.461731 -62.830357 -5.08832
-61.975315 -63.676357 -1.510025
-63.401192 -61.897854 -3.697321
-64.610497 -59.932594 -5.89003
-65.591705 -57.788155 -8.099199
-62.684889 -66.13628 -2.485575
-61.863817 -66.990925 -1.386761
-62.212215 -65.595459 -1.783259
-60.661957 -63.898449 0.27407
-60.202041 -63.276401 0.968213
-61.466051 -63.103944 -0.825315
-61.171221 -64.470861 -0.41064
-60.661957 -63.898449 0.27407
-61.637563 -61.702974 -1.232465
-62.146828 -62.275386 -1.917174
-61.466051 -63.103944 -0.825315
-64.007345 -67.967422 -5.464507
-63.240465 -68.935547 -4.346634
-63.816982 -67.531234 -4.681924
-64.716877 -66.960319 -6.594354
-64.007345 -67.967422 -5.464507
-65.224063 -65.496689 -6.934026
-64.716877 -66.960319 -6.594354
-66.047619 -61.086231 -8.059259
-65.885402 -62.555984 -7.670097
-65.48764 -62.197544 -6.926153
-66.122932 -59.58703 -8.441552
-66.047619 -61.086231 -8.059259
-64.051478 -59.489297 -5.191952
-64.005844 -60.915224 -4.793675
-63.446825 -60.471927 -4.095598
-65.407246 -56.334355 -8.473925
-65.025657 -57.417681 -7.382373
-65.974506 -56.630583 -9.213158
-65.407246 -56.334355 -8.473925
-60.561523 -61.945604 0.564839
-60.202041 -63.276401 0.968213
-61.181393 -61.162866 -0.533216
-60.561523 -61.945604 0.564839
-61.431382 -68.342655 -0.988387
-60.958708 -67.801834 -0.286071
-61.863817 -66.990925 -1.386761
-61.816305 -68.880616 -1.720865
-61.431382 -68.342655 -0.988387
-62.693297 -68.015552 -2.826564
-62.173111 -69.364422 -2.458353
-61.816305 -68.880616 -1.720865
-61.683229 -65.063231 -1.097236
-61.171221 -64.470861 -0.41064
-62.504301 -64.208585 -2.196048
-62.212215 -65.595459 -1.783259
-61.683229 -65.063231 -1.097236
-62.859766 -61.386135 -3.010822
-62.688254 -62.787106 -2.603673
-62.146828 -62.275386 -1.917174
-63.446825 -60.471927 -4.095598
-62.859766 -61.386135 -3.010822
-61.637563 -61.702974 -1.232465
-61.181393 -61.162866 -0.533216
-62.413906 -69.844398 -3.232485
-62.173111 -69.364422 -2.458353
-62.413906 -69.844398 -3.232485
-63.240465 -68.935547 -4.346634
-65.594844 -64.048782 -7.302624
-65.224063 -65.496689 -6.934026
-64.954643 -65.115203 -6.168394
-65.594844 -64.048782 -7.302624
-65.885402 -62.555984 -7.670097
-64.535054 -58.489901 -6.277788
-64.051478 -59.489297 -5.191952
-65.101101 -58.860375 -6.994615
-64.535054 -58.489901 -6.277788
-65.025657 -57.417681 -7.382373
-66.093857 -58.117213 -8.833494
-66.122932 -59.58703 -8.441552
-65.620781 -59.257973 -7.707257
-66.093857 -58.117213 -8.833494
-65.974506 -56.630583 -9.213158
3 0 13 15
3 13 4 14
3 13 14 15
3 0 6 4
3 0 8 6
3 1 16 17
3 1 18 20
3 18 9 19
3 18 19 20
3 1 21 23
3 23 22 9
3 21 22 23
3 2 24 26
3 26 25 5
3 24 25 26
3 2 27 28
3 2 29 30
3 3 31 33
3 33 32 7
3 31 32 33
3 3 34 35
3 36 11 37
3 38 37 10
3 36 37 38
3 39 12 40
3 42 41 12
3 43 1 44
3 46 45 1
3 4 47 49
3 47 48 49
3 4 50 51
3 4 52 54
3 52 5 53
3 52 53 54
3 6 5 4
3 6 2 5
3 6 7 2
3 8 7 6
3 8 3 7
3 9 55 56
3 9 57 59
3 57 0 58
3 57 58 59
3 9 10 0
3 60 10 61
3 62 61 9
3 60 61 62
3 64 63 10
3 66 65 1
3 5 67 68
3 70 69 5
3 7 71 73
3 73 72 2
3 71 72 73
3 75 74 7
3 10 8 0
3 11 8 10
3 11 3 8
3 76 11 77
3 12 78 80
3 78 11 79
3 78 79 80
3 12 3 11
3 12 81 83
3 83 82 3
3 81 82 83
3 85 84 12
