ply
format ascii 1.0
element vertex 71
property float x
property float y
property float z
element face 46
property list uchar int vertex_index
end_header
39.928513 16.957188 -24.938326
34.580196 19.300823 -32.620583
36.102364 19.007729 -32.378838
39.043949 18.008541 -28.623514
37.62133 19.199303 -29.312231
38.736382 18.683258 -25.811987
40.392593 16.575352 -27.847406
39.117048 17.814285 -30.043855
39.864063 17.27105 -29.707073
39.126704 18.310469 -23.996818
39.641913 17.326843 -23.511185
39.332448 17.820223 -25.375156
38.530638 19.173504 -24.433649
39.126704 18.310469 -23.996818
36.889072 19.66428 -29.6115
37.635855 18.823887 -30.65323
34.63084 20.046121 -31.518037
35.391924 19.899574 -31.397165
35.34128 19.154276 -32.499711
33.899382 20.246842 -31.721811
34.63084 20.046121 -31.518037
33.843765 19.323645 -32.674042
33.899382 20.246842 -31.721811
40.469044 15.992075 -24.48184
39.641913 17.326843 -23.511185
40.784569 15.941494 -25.961984
40.469044 15.992075 -24.48184
36.799038 18.440287 -33.519703
36.876372 18.7281 -32.186534
36.002627 18.511561 -33.598855
36.799038 18.440287 -33.519703
35.241543 18.658107 -33.719727
35.34128 19.154276 -32.499711
36.002627 18.511561 -33.598855
34.480104 18.600731 -33.704842
35.241543 18.658107 -33.719727
38.332639 18.603922 -28.967872
37.537232 19.688712 -27.980345
38.248541 19.093331 -27.635986
38.405738 18.409666 -30.388214
38.332639 18.603922 -28.967872
39.117048 17.814285 -30.043855
37.635855 18.823887 -30.65323
38.405738 18.409666 -30.388214
37.966803 20.043661 -24.921913
38.530638 19.173504 -24.433649
38.094758 19.430689 -26.230222
37.966803 20.043661 -24.921913
38.890165 18.3459 -27.217751
38.248541 19.093331 -27.635986
38.094758 19.430689 -26.230222
40.538385 16.554455 -29.319019
39.864063 17.27105 -29.707073
39.718271 17.291947 -28.23546
41.016609 15.750576 -27.416525
40.160553 16.76627 -26.392866
40.784569 15.941494 -25.961984
41.245679 15.893127 -28.913015
41.016609 15.750576 -27.416525
40.538385 16.554455 -29.319019
41.245679 15.893127 -28.913015
36.863083 20.309948 -28.379047
37.537232 19.688712 -27.980345
36.863083 20.309948 -28.379047
36.889072 19.66428 -29.6115
36.12959 19.568493 -31.144804
36.876372 18.7281 -32.186534
36.12959 19.568493 -31.144804
35.391924 19.899574 -31.397165
33.843765 19.323645 -32.674042
34.480104 18.600731 -33.704842
3 8 7 3
3 0 9 10
3 0 11 13
3 11 5 12
3 11 12 13
3 0 6 5
3 15 14 4
3 1 16 18
3 18 17 2
3 16 17 18
3 1 19 20
3 1 21 22
3 23 0 24
3 26 25 0
3 27 2 28
3 29 2 30
3 31 1 32
3 33 32 2
3 31 32 33
3 35 34 1
3 3 36 38
3 36 4 37
3 36 37 38
3 39 4 40
3 41 40 3
3 39 40 41
3 43 42 4
3 5 44 45
3 5 46 47
3 5 48 50
3 48 3 49
3 48 49 50
3 6 3 5
3 6 51 53
3 53 52 3
3 51 52 53
3 54 6 55
3 56 55 0
3 54 55 56
3 57 6 58
3 60 59 6
3 4 61 62
3 64 63 4
3 2 65 66
3 68 67 2
3 70 69 1
