ply
format ascii 1.0
element vertex 95
property float x
property float y
property float z
element face 71
property list uchar int vertex_index
end_header
60.919006 4.468479 -21.606199
61.415085 7.588531 -26.707346
59.106735 9.019344 -26.601233
61.600677 2.064314 -19.149469
59.364311 4.434208 -21.780344
60.088486 6.796 -24.096148
62.163631 3.967701 -21.510717
61.348427 6.328239 -24.055254
62.165215 6.003992 -26.826975
57.551487 8.87528 -26.593397
60.398598 8.602703 -26.629995
59.301567 10.764294 -29.214808
60.474148 3.267434 -20.495102
60.814983 2.065352 -19.266737
61.259842 3.266396 -20.377834
60.141659 4.451344 -21.693272
59.6968 3.250298 -20.582175
60.474148 3.267434 -20.495102
62.621748 3.436265 -21.510317
62.507734 2.757064 -20.263279
62.233171 4.623555 -22.799476
62.621748 3.436265 -21.510317
62.420649 4.961947 -26.89081
62.562184 4.841102 -25.505215
62.04469 6.101807 -28.230372
62.420649 4.961947 -26.89081
58.329111 8.947312 -26.597315
58.044516 7.794243 -25.391132
58.822139 7.866275 -25.39505
58.537529 10.065647 -27.85178
57.759905 9.993615 -27.847862
58.329111 8.947312 -26.597315
59.262592 11.334081 -30.599291
59.849179 10.285317 -29.280543
58.672116 11.774753 -30.501677
59.262592 11.334081 -30.599291
61.064353 0.85204 -18.082377
61.866542 0.83738 -17.946392
61.064353 0.85204 -18.082377
60.814983 2.065352 -19.266737
58.771513 3.037238 -20.726107
59.104002 1.853328 -19.527937
59.6968 3.250298 -20.582175
58.450878 4.197202 -21.879379
58.771513 3.037238 -20.726107
58.950927 5.573707 -22.984606
58.450878 4.197202 -21.879379
59.313015 6.754603 -24.142508
58.950927 5.573707 -22.984606
59.726399 5.615104 -22.938246
59.597611 7.907672 -25.348691
58.822139 7.866275 -25.39505
59.313015 6.754603 -24.142508
60.905938 8.697436 -28.026812
61.338887 7.924839 -28.101584
62.226257 1.80537 -19.082655
61.866542 0.83738 -17.946392
61.882154 3.016007 -20.330093
62.226257 1.80537 -19.082655
62.507734 2.757064 -20.263279
61.825569 5.803824 -24.071745
61.756029 5.14797 -22.782986
62.233171 4.623555 -22.799476
61.858898 6.433969 -25.397791
61.381756 6.958385 -25.3813
61.825569 5.803824 -24.071745
62.233963 5.6417 -25.457605
62.562184 4.841102 -25.505215
61.79015 6.796261 -26.767161
61.858898 6.433969 -25.397791
62.233963 5.6417 -25.457605
61.713952 7.132569 -28.161398
61.338887 7.924839 -28.101584
61.79015 6.796261 -26.767161
61.713952 7.132569 -28.161398
62.04469 6.101807 -28.230372
57.141033 7.530197 -25.433267
58.044516 7.794243 -25.391132
56.658203 8.581604 -26.567763
57.141033 7.530197 -25.433267
56.97921 9.885337 -27.784754
56.658203 8.581604 -26.567763
56.97921 9.885337 -27.784754
57.759905 9.993615 -27.847862
60.397694 9.204522 -27.988136
60.906841 8.095617 -26.668671
60.905938 8.697436 -28.026812
59.850082 9.683498 -27.922401
60.397694 9.204522 -27.988136
59.849179 10.285317 -29.280543
58.634945 10.938122 -29.158568
58.537529 10.065647 -27.85178
59.204151 9.891819 -27.90802
58.634945 10.938122 -29.158568
58.672116 11.774753 -30.501677
3 0 12 14
3 14 13 3
3 12 13 14
3 0 15 17
3 15 4 16
3 15 16 17
3 0 5 4
3 18 6 19
3 21 20 6
3 22 8 23
3 25 24 8
3 2 26 28
3 26 9 27
3 26 27 28
3 2 29 31
3 31 30 9
3 29 30 31
3 1 10 7
3 32 11 33
3 35 34 11
3 3 36 37
3 39 38 3
3 4 40 42
3 40 41 42
3 4 43 44
3 4 45 46
3 5 47 49
3 49 48 4
3 47 48 49
3 5 50 52
3 50 2 51
3 50 51 52
3 54 53 1
3 55 3 56
3 6 57 59
3 57 3 58
3 57 58 59
3 6 0 3
3 6 7 0
3 60 7 61
3 62 61 6
3 60 61 62
3 63 1 64
3 65 64 7
3 63 64 65
3 8 66 67
3 8 68 70
3 68 1 69
3 68 69 70
3 8 71 73
3 73 72 1
3 71 72 73
3 75 74 8
3 9 76 77
3 9 78 79
3 9 80 81
3 83 82 9
3 7 5 0
3 10 5 7
3 10 2 5
3 84 10 85
3 86 85 1
3 84 85 86
3 11 87 89
3 87 10 88
3 87 88 89
3 11 2 10
3 11 90 92
3 92 91 2
3 90 91 92
3 94 93 11
