ply
format ascii 1.0
element vertex 633
property float x
property float y
property float z
element face 711
property list uchar int vertex_index
end_header
-45.400036 -86.574341 31.810211
-52.850601 -74.458397 43.839745
-52.526474 -69.792984 23.190603
-40.016655 -84.073975 48.984306
-43.506447 -88.177216 43.0163
-37.957424 -93.676849 42.487
-42.675873 -95.339355 33.250954
-47.93259 -80.802078 39.245567
-47.384155 -77.660568 27.690174
-52.697014 -73.405891 34.070724
-59.11932 -66.94075 29.727039
-46.980003 -79.979408 47.526886
-45.541981 -89.549271 27.168438
-45.992783 -84.871994 25.703562
-44.640457 -87.874329 37.736927
-42.790749 -91.902908 38.659046
-44.380825 -91.080673 33.072521
-44.522537 -94.182297 27.81094
-50.460625 -77.822784 41.793259
-50.152596 -77.048141 36.670296
-52.998028 -74.415344 39.276321
-60.502502 -64.706207 38.444283
-58.507629 -67.728058 34.881512
-61.55455 -64.704071 33.346054
-62.515511 -64.12191 28.2085
-50.094505 -77.380058 45.845947
-47.835995 -81.10379 44.137321
-49.452171 -73.531342 25.404667
-47.823647 -75.77594 21.795273
-50.127441 -71.548882 19.738094
-37.659943 -79.893646 49.350964
-36.519485 -85.251129 48.541912
-37.606953 -97.715546 36.450439
-55.342194 -71.262466 41.778847
-56.425537 -66.474396 21.163143
-53.431076 -67.65876 17.740812
-41.969482 -86.960114 46.952003
-38.756397 -89.100464 46.812317
-40.862144 -91.371826 43.439331
-40.394203 -95.359695 38.278084
-40.237991 -98.930817 32.045212
-39.769516 -102.254395 25.416622
-42.584373 -98.549118 27.245358
-46.100227 -83.662247 35.913288
-46.188248 -82.053932 29.899471
-47.614738 -79.480537 33.597424
-49.630905 -75.47052 31.101959
-52.389652 -71.767502 28.659275
-55.622501 -70.994362 36.892731
-55.7024 -70.007782 31.699839
-55.883682 -68.468536 26.443747
-59.798553 -65.528442 24.570393
-63.436756 -62.712727 23.093357
-65.873596 -59.72765 21.981937
-41.419792 -78.805901 49.26865
-43.571938 -82.244049 48.634125
-45.020126 -84.194366 45.971603
-45.80864 -84.558624 41.485371
-35.576607 -90.22641 45.515491
-32.578674 -90.161179 43.384155
-45.40501 -88.056366 29.539925
-45.800316 -87.208435 26.51063
-45.69368 -85.741776 28.758949
-45.060249 -87.309738 34.819191
-44.420307 -89.49173 35.49958
-44.956406 -88.840195 32.54937
-45.010227 -90.363983 30.138569
-51.720222 -76.202194 42.85355
-51.731163 -76.129845 40.536346
-53.005394 -74.577698 41.679478
-61.85284 -63.135822 37.846352
-61.042519 -64.763077 35.90934
-51.516293 -75.958817 44.866886
-50.384644 -77.773842 44.001923
-50.867725 -71.60788 24.281042
-49.658806 -72.533554 22.558054
-51.144226 -70.585609 21.492596
-38.882671 -82.103943 49.317379
-37.082733 -82.603783 49.187782
-38.246681 -84.759613 48.856476
-58.53944 -64.931549 20.251564
-42.788349 -87.779678 45.197884
-41.333878 -89.212784 45.425751
-42.227798 -89.853348 43.388741
-42.689674 -93.656006 36.057655
-41.655922 -93.734833 38.649895
-41.573753 -95.534668 35.838531
-40.312824 -97.18959 35.252674
-41.537983 -97.25116 32.826096
-41.465897 -98.90303 29.682407
-42.668053 -96.96489 30.296089
-45.251148 -93.393921 25.022064
-44.541882 -95.70845 25.042904
-46.885273 -82.231979 37.683998
-46.819248 -81.558266 34.794991
-47.797455 -80.236382 36.477505
-51.373238 -75.205139 35.356232
-49.884769 -76.330811 33.915588
-51.122883 -74.452026 32.628525
-50.911903 -73.572586 29.861773
-52.514946 -72.644882 31.377035
-55.526726 -71.231201 39.403114
-56.827232 -69.554962 38.367485
-58.812782 -67.407181 32.306412
-57.202026 -68.955391 33.250862
-57.375488 -68.433052 30.657345
-55.762367 -69.299721 29.075397
-57.574638 -67.769287 28.059872
-57.823223 -66.964432 25.459406
-59.443104 -66.318321 27.148487
-63.955669 -62.729008 27.604311
-62.977364 -63.533939 25.646458
-64.412735 -62.124676 25.044468
-64.860855 -61.255527 22.498486
-47.93079 -77.774017 47.904022
-46.208954 -78.835938 48.460945
-44.416756 -79.808167 48.889561
-45.305 -81.156639 48.166069
-44.384945 -83.422714 47.565117
-45.98262 -82.117332 46.905846
-47.961578 -81.111008 41.829571
-46.74506 -82.854599 42.947678
-46.875908 -82.686752 40.429222
-46.00219 -84.235931 38.788052
-46.698944 -79.833138 28.815769
-46.298111 -81.1521 26.852566
-46.78532 -78.904083 25.804066
-48.448738 -74.882935 18.921604
-38.289448 -91.455414 44.906006
-37.148991 -89.810745 46.297565
-36.754951 -92.150116 44.157791
-33.767883 -92.535812 41.891705
-40.891636 -102.101547 23.253872
-45.724232 -91.049698 24.72221
-44.12402 -88.188614 40.497433
-43.048302 -90.075623 40.996407
-43.78318 -89.930923 38.338394
-43.638889 -91.622131 35.930515
-43.62645 -93.262604 33.322769
-43.665222 -94.858368 30.563005
-44.44305 -92.64241 30.497446
-45.135742 -91.880951 27.620611
-49.1609 -79.344391 40.605721
-49.014355 -78.918419 37.979088
-50.365372 -77.564346 39.319336
-51.596794 -75.78154 38.010818
-52.877209 -74.010422 36.717918
-59.146561 -66.310852 39.133682
-58.186913 -67.909225 37.433823
-59.603703 -66.310638 36.614548
-60.035789 -66.187866 34.05468
-60.453178 -65.928986 31.483126
-60.865051 -65.513603 28.912174
-62.043644 -64.501282 30.776123
-63.479687 -63.093437 30.171515
-48.580551 -78.720062 46.743385
-47.517784 -80.735077 46.066963
-48.985424 -79.285866 45.086037
-49.167027 -79.483101 43.007378
-48.292953 -75.554016 26.546623
-47.485504 -76.707275 24.72739
-48.437904 -74.578369 23.640579
-48.842438 -73.624435 20.764593
-36.383862 -77.546188 49.272465
-34.858685 -85.526947 48.069359
-37.745045 -95.759659 39.633163
-36.476318 -94.346039 41.504333
-53.800045 -72.584854 44.8018
-54.115517 -72.88736 42.798927
-54.396492 -68.086182 22.146984
-52.872253 -68.740242 20.456623
-54.803345 -66.992737 19.463005
-41.046577 -85.714386 48.216984
-39.344307 -86.630981 48.168331
-40.372772 -88.133331 47.031799
-39.825584 -90.458252 45.332649
-39.428974 -92.668091 43.140331
-41.856956 -91.841171 41.188759
-40.558403 -93.422668 41.034348
-39.177452 -94.750565 40.513092
-39.034538 -96.706787 37.536316
-38.937145 -98.552643 34.310501
-38.80442 -100.315948 30.940235
-38.549294 -102.030792 27.525642
-40.084549 -100.609604 28.740517
-41.274937 -100.512634 26.472202
-43.672703 -96.42038 27.69384
-45.611355 -85.108459 33.946144
-45.782757 -84.306335 30.910711
-46.144196 -82.911179 32.932899
-46.734764 -80.736496 31.824137
-47.452232 -78.601562 30.656368
-48.784996 -78.264343 35.209362
-48.539307 -77.44561 32.356178
-48.35025 -76.523987 29.459444
-49.46328 -74.521866 28.258459
-50.806549 -72.612228 27.075071
-52.377304 -70.807999 25.92807
-54.263664 -72.913811 40.517456
-54.28611 -72.696236 38.050583
-54.228481 -72.269485 35.47506
-57.028397 -69.332443 35.83017
-55.668282 -70.578842 34.311798
-54.13858 -71.668228 32.843689
-54.065102 -70.924438 30.185987
-54.055866 -70.065742 27.514526
-54.154602 -69.114204 24.833591
-56.097221 -67.524231 23.805439
-58.140762 -66.017975 22.855463
-60.19677 -64.563034 21.993515
-61.280693 -64.918869 26.34479
-61.708969 -64.12471 23.781719
-62.156273 -63.1194 21.226412
-38.219505 -77.15387 49.154167
-39.520134 -79.402985 49.34219
-40.724895 -81.457588 49.318432
-43.326546 -78.113083 49.115253
-42.579479 -80.686104 49.177147
-41.801033 -83.225021 48.910557
-42.734352 -84.631851 48.010971
-43.523197 -85.632477 46.588596
-44.173782 -86.214752 44.679813
-46.456463 -82.678017 45.140083
-45.488914 -84.562561 43.913853
-44.695091 -86.398422 42.36499
-45.097431 -86.229919 39.743164
-45.395126 -85.774826 36.910316
-66.07309 -59.116806 24.055218
-45.961342 -83.435913 27.848604
-46.2118 -82.550018 24.796146
-47.06654 -77.989929 22.819902
-51.666115 -69.55928 18.726187
-37.655235 -87.338974 47.86578
-36.006763 -87.80159 47.328552
-35.24519 -92.509598 43.129345
-34.053825 -90.335526 44.519135
-62.143541 -63.195833 36.575642
-62.486918 -62.361429 37.581581
-52.183447 -75.208607 44.353316
-52.004548 -74.992542 45.263517
-52.671701 -74.242333 44.749947
-58.780334 -64.321562 18.954528
-59.591114 -64.176506 19.837545
-45.269458 -94.150856 23.692315
-45.563845 -92.975693 23.620725
-57.329372 -68.752102 39.145897
-56.698227 -69.581253 39.589621
-64.741387 -61.711874 26.06246
-64.184202 -62.426842 26.324389
-64.512854 -62.01404 27.342382
-64.943238 -61.391665 24.783335
-64.741387 -61.711874 26.06246
-48.444488 -75.579949 17.988529
-48.917124 -74.454594 17.526968
-40.575608 -102.894783 21.666065
-41.398781 -101.880707 22.146959
-45.777529 -89.122772 25.681217
-45.868655 -89.872986 24.458103
-45.633106 -90.299485 25.945324
-46.09388 -85.608917 24.599125
-45.997647 -86.777137 25.002659
-45.89655 -86.040214 26.107096
-46.177143 -84.439018 24.190766
-46.09388 -85.608917 24.599125
-63.835111 -62.451826 31.19346
-63.227339 -63.174244 31.456264
-64.063681 -62.381853 29.909408
-63.835111 -62.451826 31.19346
-49.827541 -77.000515 46.541359
-50.588699 -76.376331 46.163337
-49.337528 -78.05006 46.294666
-49.070564 -77.670517 46.990078
-49.827541 -77.000515 46.541359
-49.834854 -72.125737 18.840633
-49.192352 -73.163513 19.353883
-49.484939 -72.586658 20.251344
-36.764449 -80.080154 49.333056
-36.126408 -78.906425 49.293806
-37.021902 -78.719917 49.311714
-35.935635 -84.09507 48.747226
-36.217258 -82.771397 49.070161
-36.801109 -83.927456 48.864847
-35.689085 -85.389038 48.305636
-35.105235 -84.232979 48.51095
-35.935635 -84.09507 48.747226
-36.946907 -97.060463 37.443808
-37.015953 -96.082519 39.03517
-37.675999 -96.737603 38.041801
-54.415278 -71.822075 44.368227
-54.178022 -71.589325 45.288802
-54.178022 -71.589325 45.288802
-53.541424 -72.28294 45.617085
-42.467487 -99.329125 25.695591
-41.812769 -100.310883 25.309013
-41.929655 -99.530876 26.85878
-44.057913 -96.834885 24.897566
-44.489126 -96.468964 23.630482
-63.667872 -62.179938 21.824615
-63.02763 -62.383274 20.891142
-62.796515 -62.916063 22.159885
-65.590217 -59.921242 20.978982
-65.083847 -60.685181 21.237257
-65.367226 -60.491588 22.240212
-66.076271 -59.117018 20.726808
-65.590217 -59.921242 20.978982
-38.479793 -75.783249 48.946573
-37.549137 -75.983116 49.059637
-40.469963 -79.104443 49.30542
-39.821462 -78.043095 49.199067
-40.771292 -77.744553 49.162296
-44.267145 -77.722081 48.994326
-43.662255 -76.814804 48.979107
-66.024258 -58.675106 25.109136
-65.917942 -59.460878 25.332951
-65.86911 -59.019179 26.386869
-46.378738 -81.401146 24.311121
-46.254955 -81.851059 25.824356
-46.421894 -80.702187 25.339332
-46.407873 -82.116458 23.291668
-46.378738 -81.401146 24.311121
-34.997665 -89.112663 46.055421
-35.212744 -87.900254 46.961952
-35.791685 -89.014 46.422021
-35.124382 -93.581612 41.690295
-35.860754 -93.427819 42.316839
-35.739946 -94.499832 40.877789
-32.737871 -89.04937 44.553595
-33.475447 -89.136544 45.121084
-33.316249 -90.248353 43.951645
-32.005282 -88.908837 44.083816
-32.737871 -89.04937 44.553595
-38.930271 -102.992692 24.786314
-38.32016 -102.88089 25.840824
-39.159405 -102.142594 26.471132
-61.73838 -64.009461 35.607136
-61.447679 -63.94945 36.877846
-62.143541 -63.195833 36.575642
-61.994396 -63.979957 34.325493
-61.298535 -64.733574 34.627697
-61.73838 -64.009461 35.607136
-62.26477 -63.979561 33.043534
-61.994396 -63.979957 34.325493
-51.299593 -75.66571 45.673807
-52.004548 -74.992542 45.263517
-50.805399 -76.669438 45.356417
-50.588699 -76.376331 46.163337
-51.299593 -75.66571 45.673807
-36.869293 -98.034317 35.767117
-37.539978 -98.643608 34.754738
-57.709265 -65.128799 19.388453
-56.652313 -65.900223 19.844243
-57.482489 -65.702973 20.707353
-57.950159 -64.518812 18.091417
-57.709265 -65.128799 19.388453
-58.780334 -64.321562 18.954528
-44.914825 -95.308121 23.702735
-44.896515 -94.551186 25.032484
-45.269458 -94.150856 23.692315
-44.489126 -96.468964 23.630482
-44.914825 -95.308121 23.702735
-56.047973 -70.419373 40.107435
-55.43446 -71.246834 40.590981
-55.955708 -70.435005 41.295302
-56.176979 -70.393081 38.8853
-56.047973 -70.419373 40.107435
-56.698227 -69.581253 39.589621
-65.167298 -60.95709 23.510344
-64.636795 -61.690101 23.771477
-64.943238 -61.391665 24.783335
-65.673668 -60.193151 23.252069
-65.367226 -60.491588 22.240212
-65.167298 -60.95709 23.510344
-41.740261 -77.471562 49.113428
-40.771292 -77.744553 49.162296
-47.481318 -77.117324 48.222492
-48.35034 -76.635627 48.012664
-46.620399 -77.648285 48.500954
-47.481318 -77.117324 48.222492
-47.069872 -78.304978 48.182484
-45.708349 -78.083508 48.667172
-46.620399 -77.648285 48.500954
-45.312855 -79.322052 48.675253
-44.812251 -78.569623 48.881479
-45.708349 -78.083508 48.667172
-46.665498 -79.578179 24.815081
-46.421894 -80.702187 25.339332
-46.541715 -80.028092 26.328316
-48.0266 -75.998009 19.407799
-47.714055 -76.444512 20.844634
-48.136192 -75.329438 20.358438
-48.0266 -75.998009 19.407799
-48.444488 -75.579949 17.988529
-52.935524 -68.094631 16.871094
-53.814499 -67.104069 16.401321
-33.653602 -93.577766 40.355303
-34.385728 -93.594718 41.071475
-33.040613 -92.404221 41.216444
-33.653602 -93.577766 40.355303
-32.446009 -91.216904 41.962669
-33.173278 -91.348496 42.63793
-33.040613 -92.404221 41.216444
-31.723658 -91.018783 41.372581
-31.856324 -89.963059 42.794067
-32.446009 -91.216904 41.962669
-40.057176 -102.996269 22.697737
-39.496116 -103.072693 23.779112
-40.330576 -102.177971 24.335247
-40.057176 -102.996269 22.697737
-40.575608 -102.894783 21.666065
-45.98639 -90.624 23.275442
-45.800387 -91.803582 23.470799
-45.98639 -90.624 23.275442
-45.868655 -89.872986 24.458103
-45.906697 -87.952354 25.352313
-45.777529 -89.122772 25.681217
-45.671149 -88.378853 26.839534
-45.906697 -87.952354 25.352313
-45.997647 -86.777137 25.002659
-45.800387 -91.803582 23.470799
-45.563845 -92.975693 23.620725
-45.48769 -92.22181 24.872137
-58.666737 -67.110039 38.283752
-58.009212 -67.929234 38.679066
-58.489036 -67.130047 39.528996
-62.509318 -63.878167 31.758568
-61.799097 -64.602677 32.061088
-62.26477 -63.979561 33.043534
-62.761665 -63.797359 30.473819
-62.509318 -63.878167 31.758568
-63.227339 -63.174244 31.456264
-64.301672 -62.199638 28.625806
-63.717678 -62.911223 28.887913
-64.063681 -62.381853 29.909408
-64.512854 -62.01404 27.342382
-64.301672 -62.199638 28.625806
-48.745683 -77.197495 47.570397
-48.35034 -76.635627 48.012664
-48.255671 -78.247039 47.323704
-48.745683 -77.197495 47.570397
-49.070564 -77.670517 46.990078
-48.995503 -73.792763 18.432388
-48.645588 -74.253685 19.843098
-49.192352 -73.163513 19.353883
-48.917124 -74.454594 17.526968
-48.995503 -73.792763 18.432388
-35.513666 -77.701957 49.350866
-35.748759 -76.356765 49.281866
-35.513666 -77.701957 49.350866
-36.126408 -78.906425 49.293806
-36.475843 -81.435223 49.251464
-36.764449 -80.080154 49.333056
-37.371338 -81.248715 49.269373
-36.475843 -81.435223 49.251464
-36.217258 -82.771397 49.070161
-34.283562 -84.314362 48.355635
-35.105235 -84.232979 48.51095
-34.067934 -85.5551 47.774821
-34.283562 -84.314362 48.355635
-36.38159 -95.375709 39.970754
-37.110681 -95.052849 40.568748
-37.015953 -96.082519 39.03517
-35.739946 -94.499832 40.877789
-36.38159 -95.375709 39.970754
-36.946907 -97.060463 37.443808
-36.869293 -98.034317 35.767117
-54.573014 -71.973328 43.366791
-53.957781 -72.736107 43.800364
-54.415278 -71.822075 44.368227
-55.186352 -71.160881 42.856751
-54.728855 -72.074913 42.288887
-54.573014 -71.973328 43.366791
-55.782463 -70.365616 42.433621
-55.186352 -71.160881 42.856751
-55.955708 -70.435005 41.295302
-55.782463 -70.365616 42.433621
-58.89867 -66.251602 40.3474
-58.489036 -67.130047 39.528996
-59.537249 -65.431473 40.021919
-58.89867 -66.251602 40.3474
-60.21522 -64.629151 39.677219
-59.824531 -65.50853 38.788983
-59.537249 -65.431473 40.021919
-60.864852 -63.816864 39.388521
-60.21522 -64.629151 39.677219
-61.540022 -63.031672 39.089556
-61.177671 -63.921014 38.145318
-60.864852 -63.816864 39.388521
-62.173051 -62.226373 38.828011
-61.540022 -63.031672 39.089556
-62.807129 -61.45198 38.56324
-62.486918 -62.361429 37.581581
-62.173051 -62.226373 38.828011
-53.146423 -73.305561 45.230975
-53.541424 -72.28294 45.617085
-53.325323 -73.521625 44.320773
-52.671701 -74.242333 44.749947
-53.146423 -73.305561 45.230975
-55.841217 -66.159393 18.994174
-55.614441 -66.733566 20.313074
-56.652313 -65.900223 19.844243
-55.091652 -66.416687 18.12944
-55.841217 -66.159393 18.994174
-56.129524 -65.583343 17.660609
-54.405518 -66.749698 17.268343
-54.11721 -67.325749 18.601909
-55.091652 -66.416687 18.12944
-53.814499 -67.104069 16.401321
-54.405518 -66.749698 17.268343
-38.205074 -99.062157 33.684769
-37.539978 -98.643608 34.754738
-38.272049 -98.134095 35.38047
-38.138711 -99.94381 31.999636
-38.205074 -99.062157 33.684769
-38.870783 -99.434296 32.625368
-38.031425 -100.840782 30.260483
-38.138711 -99.94381 31.999636
-38.676857 -101.17337 29.232939
-37.903862 -101.698204 28.553186
-38.031425 -100.840782 30.260483
-41.621118 -101.105339 23.699848
-41.083286 -101.307091 24.863037
-41.812769 -100.310883 25.309013
-41.398781 -101.880707 22.146959
-41.621118 -101.105339 23.699848
-43.623323 -97.190849 26.223034
-44.107292 -96.064415 26.368372
-44.057913 -96.834885 24.897566
-43.079158 -98.255219 25.998793
-43.128538 -97.484749 27.469599
-43.623323 -97.190849 26.223034
-42.962272 -99.035225 24.449025
-42.467487 -99.329125 25.695591
-43.079158 -98.255219 25.998793
-57.507072 -68.732094 37.900654
-57.329372 -68.752102 39.145897
-58.009212 -67.929234 38.679066
-60.419779 -63.992249 20.708521
-59.591114 -64.176506 19.837545
-59.368105 -64.747292 21.122539
-61.39953 -63.270432 20.32497
-60.419779 -63.992249 20.708521
-61.176521 -63.841217 21.609963
-62.390074 -62.511738 19.956798
-61.39953 -63.270432 20.32497
-62.390074 -62.511738 19.956798
-63.02763 -62.383274 20.891142
-64.379921 -61.451338 21.527179
-63.667872 -62.179938 21.824615
-64.148806 -61.984127 22.795921
-64.379921 -61.451338 21.527179
-65.083847 -60.685181 21.237257
-36.631315 -76.179276 49.118786
-35.748759 -76.356765 49.281866
-35.996212 -74.989853 49.128187
-37.301683 -77.350029 49.213316
-36.631315 -76.179276 49.118786
-37.549137 -75.983116 49.059637
-39.171148 -76.918537 49.105055
-38.479793 -75.783249 48.946573
-38.869819 -78.278427 49.248179
-39.171148 -76.918537 49.105055
-39.821462 -78.043095 49.199067
-42.693638 -77.125152 49.036729
-43.662255 -76.814804 48.979107
-42.373169 -78.459492 49.191952
-41.740261 -77.471562 49.113428
-42.693638 -77.125152 49.036729
-43.871651 -78.960625 49.002407
-44.267145 -77.722081 48.994326
-44.812251 -78.569623 48.881479
-65.773415 -59.887729 24.28871
-65.917942 -59.460878 25.332951
-65.973343 -59.422228 23.018577
-65.673668 -60.193151 23.252069
-65.773415 -59.887729 24.28871
-66.11842 -58.306748 23.833937
-66.024258 -58.675106 25.109136
-66.234848 -58.618664 22.787531
-66.11842 -58.306748 23.833937
-66.280178 -57.808605 22.56625
-66.135101 -58.924086 21.75089
-65.973343 -59.422228 23.018577
-66.234848 -58.618664 22.787531
-66.337776 -58.313454 20.495762
-66.076271 -59.117018 20.726808
-66.135101 -58.924086 21.75089
-46.286652 -83.27803 23.737057
-46.177143 -84.439018 24.190766
-46.102291 -83.711006 25.249854
-46.286652 -83.27803 23.737057
-46.407873 -82.116458 23.291668
-46.806109 -79.121102 23.323
-46.665498 -79.578179 24.815081
-46.92593 -78.447006 24.311984
-47.335501 -77.551506 21.356949
-47.445093 -76.882935 22.307588
-47.714055 -76.444512 20.844634
-47.033188 -78.68634 21.836388
-47.335501 -77.551506 21.356949
-46.806109 -79.121102 23.323
-47.033188 -78.68634 21.836388
-52.053044 -69.044891 17.363781
-52.548595 -68.60902 18.2335
-52.935524 -68.094631 16.871094
-51.272398 -70.070854 17.846274
-52.053044 -69.044891 17.363781
-50.503061 -71.065655 18.352227
-50.896778 -70.554081 19.23214
-51.272398 -70.070854 17.846274
-49.834854 -72.125737 18.840633
-50.503061 -71.065655 18.352227
-34.638705 -86.762932 47.332355
-35.432724 -86.664269 47.698955
-35.212744 -87.900254 46.961952
-34.067934 -85.5551 47.774821
-34.638705 -86.762932 47.332355
-34.506536 -92.522705 42.510525
-35.124382 -93.581612 41.690295
-34.385728 -93.594718 41.071475
-34.236275 -89.167222 45.557243
-34.997665 -89.112663 46.055421
-34.815216 -90.280968 45.017313
-34.236275 -89.167222 45.557243
-33.475447 -89.136544 45.121084
-32.005282 -88.908837 44.083816
-31.856324 -89.963059 42.794067
-37.713173 -102.58451 26.827015
-37.903862 -101.698204 28.553186
-37.484039 -103.434608 25.142197
-37.713173 -102.58451 26.827015
-38.32016 -102.88089 25.840824
-38.930271 -102.992692 24.786314
-39.496116 -103.072693 23.779112
3 0 62 60
3 0 65 63
3 0 60 65
3 1 69 67
3 237 236 70
3 1 238 240
3 238 72 239
3 238 239 240
3 1 67 72
3 2 76 74
3 3 79 77
3 242 241 80
3 4 83 81
3 6 86 84
3 6 88 86
3 6 90 88
3 244 243 91
3 7 95 93
3 9 98 96
3 9 100 98
3 245 102 246
3 10 105 103
3 10 107 105
3 10 109 107
3 247 112 248
3 249 248 110
3 247 248 249
3 251 250 112
3 11 115 114
3 11 117 115
3 11 119 117
3 7 122 120
3 7 93 122
3 8 126 124
3 253 252 127
3 5 130 128
3 255 254 132
3 12 256 258
3 258 257 133
3 256 257 258
3 13 259 261
3 261 260 61
3 259 260 261
3 13 262 263
3 14 136 134
3 16 137 64
3 16 138 137
3 16 140 138
3 12 141 66
3 12 133 141
3 18 144 142
3 20 145 68
3 20 146 145
3 21 149 147
3 23 150 71
3 23 151 150
3 23 153 151
3 264 154 265
3 267 266 154
3 25 268 269
3 25 270 272
3 270 155 271
3 270 271 272
3 25 157 155
3 18 158 73
3 18 142 158
3 27 161 159
3 29 162 75
3 29 273 275
3 275 274 162
3 273 274 275
3 30 276 278
3 278 277 163
3 276 277 278
3 31 279 281
3 281 280 78
3 279 280 281
3 31 282 284
3 282 164 283
3 282 283 284
3 32 285 287
3 287 286 165
3 285 286 287
3 289 288 167
3 290 167 291
3 34 171 169
3 36 174 172
3 38 175 82
3 38 176 175
3 15 177 135
3 39 178 85
3 39 179 178
3 39 180 179
3 40 181 87
3 40 182 181
3 40 184 182
3 42 185 89
3 42 292 294
3 294 293 185
3 292 293 294
3 17 186 139
3 296 295 92
3 43 189 187
3 45 190 94
3 45 191 190
3 19 192 143
3 46 193 97
3 46 194 193
3 46 195 194
3 47 196 99
3 47 197 196
3 33 198 168
3 48 199 101
3 48 200 199
3 22 201 148
3 49 202 104
3 49 203 202
3 49 204 203
3 50 205 106
3 50 206 205
3 50 207 206
3 51 208 108
3 51 209 208
3 24 210 152
3 52 211 111
3 52 212 211
3 52 297 299
3 299 298 212
3 297 298 299
3 53 300 302
3 302 301 113
3 300 301 302
3 53 303 304
3 305 213 306
3 54 307 309
3 307 214 308
3 307 308 309
3 54 215 214
3 310 216 311
3 55 217 116
3 55 218 217
3 55 219 218
3 56 220 118
3 56 221 220
3 26 222 156
3 57 223 121
3 57 224 223
3 57 225 224
3 43 226 123
3 43 187 226
3 312 227 313
3 312 313 314
3 44 228 188
3 315 229 316
3 317 316 125
3 315 316 317
3 319 318 229
3 28 230 160
3 35 231 170
3 37 232 173
3 58 233 129
3 58 320 322
3 322 321 233
3 320 321 322
3 323 234 324
3 325 324 166
3 323 324 325
3 59 235 131
3 59 326 328
3 328 327 235
3 326 327 328
3 59 329 330
3 41 331 333
3 333 332 183
3 331 332 333
3 60 61 12
3 62 61 60
3 62 13 61
3 63 64 14
3 65 64 63
3 65 16 64
3 65 66 16
3 60 66 65
3 60 12 66
3 67 68 18
3 69 68 67
3 69 20 68
3 70 71 21
3 334 71 335
3 336 335 70
3 334 335 336
3 337 23 338
3 339 338 71
3 337 338 339
3 341 340 23
3 72 342 343
3 72 344 346
3 344 25 345
3 344 345 346
3 72 73 25
3 67 73 72
3 67 18 73
3 74 75 27
3 76 75 74
3 76 29 75
3 77 78 30
3 79 78 77
3 79 31 78
3 348 347 32
3 80 349 351
3 351 350 34
3 349 350 351
3 354 353 80
3 352 353 354
3 81 82 36
3 83 82 81
3 83 38 82
3 84 85 15
3 86 85 84
3 86 39 85
3 86 87 39
3 88 87 86
3 88 40 87
3 88 89 40
3 90 89 88
3 90 42 89
3 91 92 17
3 355 92 356
3 357 356 91
3 355 356 357
3 359 358 92
3 93 94 43
3 95 94 93
3 95 45 94
3 96 97 19
3 98 97 96
3 98 46 97
3 98 99 46
3 100 99 98
3 100 47 99
3 360 101 361
3 362 361 33
3 360 361 362
3 102 363 365
3 363 101 364
3 363 364 365
3 102 48 101
3 103 104 22
3 105 104 103
3 105 49 104
3 105 106 49
3 107 106 105
3 107 50 106
3 107 108 50
3 109 108 107
3 109 51 108
3 110 111 24
3 112 111 110
3 112 52 111
3 112 113 52
3 366 113 367
3 368 367 112
3 366 367 368
3 369 53 370
3 371 370 113
3 369 370 371
3 372 54 373
3 114 374 375
3 115 376 378
3 378 377 114
3 376 377 378
3 115 379 380
3 115 381 383
3 381 116 382
3 381 382 383
3 117 116 115
3 117 55 116
3 117 118 55
3 119 118 117
3 119 56 118
3 120 121 26
3 122 121 120
3 122 57 121
3 122 123 57
3 93 123 122
3 93 43 123
3 124 125 44
3 126 125 124
3 126 384 386
3 386 385 125
3 384 385 386
3 127 387 389
3 389 388 28
3 387 388 389
3 391 390 127
3 393 392 35
3 128 129 37
3 130 129 128
3 130 58 129
3 394 131 395
3 396 131 397
3 398 59 399
3 400 399 131
3 398 399 400
3 403 402 59
3 401 402 403
3 132 404 406
3 406 405 41
3 404 405 406
3 408 407 132
3 133 409 410
3 412 411 133
3 61 413 415
3 415 414 12
3 413 414 415
3 417 416 61
3 134 135 4
3 136 135 134
3 136 15 135
3 64 136 14
3 137 136 64
3 137 15 136
3 137 84 15
3 138 84 137
3 138 6 84
3 138 139 6
3 140 139 138
3 140 17 139
3 66 140 16
3 141 140 66
3 141 17 140
3 141 91 17
3 133 91 141
3 133 418 420
3 420 419 91
3 418 419 420
3 142 143 7
3 144 143 142
3 144 19 143
3 68 144 18
3 145 144 68
3 145 19 144
3 145 96 19
3 146 96 145
3 146 9 96
3 147 421 423
3 421 148 422
3 421 422 423
3 149 148 147
3 149 22 148
3 71 149 21
3 150 149 71
3 150 22 149
3 150 103 22
3 151 103 150
3 151 10 103
3 151 152 10
3 153 152 151
3 153 24 152
3 424 153 425
3 426 425 23
3 424 425 426
3 154 427 429
3 427 153 428
3 427 428 429
3 154 24 153
3 154 110 24
3 430 110 431
3 432 431 154
3 430 431 432
3 434 433 110
3 435 114 436
3 155 437 439
3 437 114 438
3 437 438 439
3 155 11 114
3 155 156 11
3 157 156 155
3 157 26 156
3 73 157 25
3 158 157 73
3 158 26 157
3 158 120 26
3 142 120 158
3 142 7 120
3 159 160 8
3 161 160 159
3 161 28 160
3 75 161 27
3 162 161 75
3 162 28 161
3 162 127 28
3 440 127 441
3 442 441 162
3 440 441 442
3 444 443 127
3 163 445 446
3 448 447 163
3 78 449 451
3 451 450 30
3 449 450 451
3 453 452 78
3 164 454 455
3 164 456 457
3 165 166 5
3 458 166 459
3 460 459 165
3 458 459 460
3 462 461 166
3 464 463 32
3 167 168 1
3 465 168 466
3 467 466 167
3 465 466 467
3 468 33 469
3 470 469 168
3 468 469 470
3 471 33 472
3 474 473 33
3 475 147 476
3 477 147 478
3 479 21 480
3 481 480 147
3 479 480 481
3 482 21 483
3 484 70 485
3 486 485 21
3 484 485 486
3 487 70 488
3 491 490 70
3 489 490 491
3 167 492 493
3 167 494 496
3 494 1 495
3 494 495 496
3 169 170 2
3 171 170 169
3 171 35 170
3 497 171 498
3 499 498 34
3 497 498 499
3 500 171 501
3 500 501 502
3 503 35 504
3 505 504 171
3 503 504 505
3 507 506 35
3 172 173 3
3 174 173 172
3 174 37 173
3 82 174 36
3 175 174 82
3 175 37 174
3 175 128 37
3 176 128 175
3 176 5 128
3 135 83 4
3 177 83 135
3 177 38 83
3 85 177 15
3 178 177 85
3 178 38 177
3 178 176 38
3 179 176 178
3 179 5 176
3 179 165 5
3 180 165 179
3 180 32 165
3 87 180 39
3 181 180 87
3 181 32 180
3 181 508 510
3 510 509 32
3 508 509 510
3 182 511 513
3 513 512 181
3 511 512 513
3 182 514 515
3 182 516 518
3 516 183 517
3 516 517 518
3 184 183 182
3 184 41 183
3 89 184 40
3 185 184 89
3 185 41 184
3 185 132 41
3 519 132 520
3 521 520 185
3 519 520 521
3 523 522 132
3 139 90 6
3 186 90 139
3 186 42 90
3 92 186 17
3 524 186 525
3 526 525 92
3 524 525 526
3 527 42 528
3 529 528 186
3 527 528 529
3 532 531 42
3 530 531 532
3 187 188 0
3 189 188 187
3 189 44 188
3 94 189 43
3 190 189 94
3 190 44 189
3 190 124 44
3 191 124 190
3 191 8 124
3 143 95 7
3 192 95 143
3 192 45 95
3 97 192 19
3 193 192 97
3 193 45 192
3 193 191 45
3 194 191 193
3 194 8 191
3 194 159 8
3 195 159 194
3 195 27 159
3 99 195 46
3 196 195 99
3 196 27 195
3 196 74 27
3 197 74 196
3 197 2 74
3 168 69 1
3 198 69 168
3 198 20 69
3 101 198 33
3 199 198 101
3 199 20 198
3 199 146 20
3 200 146 199
3 200 9 146
3 148 533 535
3 533 102 534
3 533 534 535
3 201 102 148
3 201 48 102
3 104 201 22
3 202 201 104
3 202 48 201
3 202 200 48
3 203 200 202
3 203 9 200
3 203 100 9
3 204 100 203
3 204 47 100
3 106 204 49
3 205 204 106
3 205 47 204
3 205 197 47
3 206 197 205
3 206 2 197
3 206 169 2
3 207 169 206
3 207 34 169
3 108 207 50
3 208 207 108
3 208 34 207
3 208 80 34
3 209 80 208
3 209 536 538
3 538 537 80
3 536 537 538
3 152 109 10
3 210 109 152
3 210 51 109
3 111 210 24
3 211 210 111
3 211 51 210
3 211 209 51
3 212 209 211
3 212 539 541
3 541 540 209
3 539 540 541
3 212 542 543
3 545 544 212
3 113 546 548
3 548 547 52
3 546 547 548
3 550 549 113
3 551 163 552
3 551 552 553
3 213 554 556
3 554 163 555
3 554 555 556
3 213 30 163
3 557 213 558
3 214 559 561
3 559 213 560
3 559 560 561
3 214 30 213
3 214 77 30
3 215 77 214
3 215 3 77
3 216 562 563
3 216 564 566
3 564 54 565
3 564 565 566
3 116 567 569
3 567 216 568
3 567 568 569
3 217 216 116
3 217 54 216
3 217 215 54
3 218 215 217
3 218 3 215
3 218 172 3
3 219 172 218
3 219 36 172
3 118 219 55
3 220 219 118
3 220 36 219
3 220 81 36
3 221 81 220
3 221 4 81
3 156 119 11
3 222 119 156
3 222 56 119
3 121 222 26
3 223 222 121
3 223 56 222
3 223 221 56
3 224 221 223
3 224 4 221
3 224 134 4
3 225 134 224
3 225 14 134
3 123 225 57
3 226 225 123
3 226 14 225
3 226 63 14
3 187 63 226
3 187 0 63
3 227 570 571
3 227 572 574
3 572 53 573
3 572 573 574
3 575 227 576
3 577 227 578
3 577 578 579
3 580 53 581
3 582 581 227
3 580 581 582
3 585 584 53
3 583 584 585
3 188 62 0
3 228 62 188
3 228 13 62
3 125 228 44
3 229 228 125
3 229 13 228
3 229 586 588
3 588 587 13
3 586 587 588
3 590 589 229
3 160 126 8
3 230 126 160
3 230 591 593
3 593 592 126
3 591 592 593
3 594 230 595
3 596 595 28
3 594 595 596
3 597 230 598
3 600 599 230
3 170 76 2
3 231 76 170
3 231 29 76
3 601 231 602
3 603 602 35
3 601 602 603
3 604 231 605
3 606 29 607
3 608 607 231
3 606 607 608
3 610 609 29
3 173 79 3
3 232 79 173
3 232 31 79
3 129 232 37
3 233 232 129
3 233 31 232
3 233 164 31
3 611 164 612
3 613 612 233
3 611 612 613
3 615 614 164
3 166 130 5
3 234 130 166
3 234 58 130
3 131 616 618
3 616 234 617
3 616 617 618
3 235 234 131
3 235 58 234
3 235 619 621
3 621 620 58
3 619 620 621
3 623 622 235
3 625 624 59
3 183 626 627
3 630 629 183
3 628 629 630
3 632 631 41
