ply
format ascii 1.0
element vertex 93
property float x
property float y
property float z
element face 68
property list uchar int vertex_index
end_header
36.391624 40.342949 -16.410173
35.844086 42.545109 -20.449896
34.655254 36.612198 -19.550478
37.260448 44.312897 -19.141905
35.113857 39.66869 -19.942621
35.486851 38.540943 -17.966852
32.084831 36.445034 -24.468039
33.094421 35.60376 -22.870531
34.487511 40.643608 -21.775953
34.051456 37.69503 -21.396021
33.912708 34.5784 -21.167391
36.323591 40.929571 -17.460957
36.922695 41.783034 -16.753198
35.939238 39.441946 -17.188513
35.871205 40.028568 -18.239296
36.323591 40.929571 -17.460957
36.036686 38.777933 -16.162199
35.584299 37.87693 -16.940538
35.939238 39.441946 -17.188513
32.654091 37.528021 -23.793732
32.103865 37.917373 -24.572245
33.158886 37.107384 -22.994978
32.589626 36.024397 -23.669285
32.654091 37.528021 -23.793732
36.265367 43.931806 -20.696179
36.973548 44.8157 -20.042183
36.552267 43.429003 -19.795901
35.462374 43.011189 -21.309475
36.265367 43.931806 -20.696179
35.165798 41.594358 -21.112924
34.784087 42.060438 -21.972504
35.462374 43.011189 -21.309475
34.620041 34.976815 -19.48115
34.248767 33.959916 -20.289606
34.283981 35.595299 -20.358934
37.357107 43.768007 -18.119065
37.98417 45.123253 -18.491221
36.758003 42.914545 -18.826822
37.357107 43.768007 -18.119065
36.049822 42.030651 -19.480818
36.552267 43.429003 -19.795901
36.758003 42.914545 -18.826822
35.684708 40.592441 -19.22718
35.478972 41.106899 -20.196258
36.049822 42.030651 -19.480818
35.300354 39.104816 -18.954736
35.684708 40.592441 -19.22718
35.871205 40.028568 -18.239296
35.290411 36.933477 -17.804308
34.874612 35.969105 -18.596121
35.071053 37.576571 -18.758665
35.290411 36.933477 -17.804308
35.584299 37.87693 -16.940538
36.875631 41.167198 -15.639862
36.922695 41.783034 -16.753198
36.368114 39.654927 -15.314488
36.875631 41.167198 -15.639862
31.465767 36.786116 -25.193981
32.103865 37.917373 -24.572245
31.593356 35.294987 -25.134224
31.465767 36.786116 -25.193981
32.176167 34.923809 -24.412114
31.593356 35.294987 -25.134224
32.680961 34.503172 -23.61336
32.176167 34.923809 -24.412114
32.589626 36.024397 -23.669285
33.185394 34.031565 -22.843899
32.680961 34.503172 -23.61336
37.793691 45.668377 -19.437735
37.98417 45.123253 -18.491221
37.793691 45.668377 -19.437735
36.973548 44.8157 -20.042183
34.017033 41.073442 -22.59683
34.784087 42.060438 -21.972504
33.855431 39.627308 -22.447689
34.017033 41.073442 -22.59683
33.637404 38.153019 -22.257723
33.855431 39.627308 -22.447689
34.269483 39.169319 -21.585987
33.572938 36.649395 -22.133276
33.158886 37.107384 -22.994978
33.637404 38.153019 -22.257723
33.594538 33.518885 -21.992328
33.185394 34.031565 -22.843899
33.503564 35.09108 -22.018961
34.037294 32.935805 -21.199224
33.594538 33.518885 -21.992328
34.037294 32.935805 -21.199224
34.248767 33.959916 -20.289606
34.620041 34.976815 -19.48115
34.874612 35.969105 -18.596121
36.036686 38.777933 -16.162199
36.368114 39.654927 -15.314488
3 0 11 12
3 0 13 15
3 13 5 14
3 13 14 15
3 0 16 18
3 18 17 5
3 16 17 18
3 19 6 20
3 21 7 22
3 23 22 6
3 21 22 23
3 1 24 26
3 26 25 3
3 24 25 26
3 1 27 28
3 1 29 31
3 29 8 30
3 29 30 31
3 2 9 4
3 2 10 9
3 2 32 34
3 34 33 10
3 32 33 34
3 35 3 36
3 37 3 38
3 39 1 40
3 41 40 3
3 39 40 41
3 42 4 43
3 44 43 1
3 42 43 44
3 5 45 47
3 45 4 46
3 45 46 47
3 5 2 4
3 5 48 50
3 50 49 2
3 48 49 50
3 52 51 5
3 53 0 54
3 56 55 0
3 6 57 58
3 6 59 60
3 6 61 62
3 7 63 65
3 65 64 6
3 63 64 65
3 7 66 67
3 3 68 69
3 71 70 3
3 8 72 73
3 8 74 75
3 4 8 1
3 9 8 4
3 9 76 78
3 78 77 8
3 76 77 78
3 9 79 81
3 79 7 80
3 79 80 81
3 10 7 9
3 10 82 84
3 84 83 7
3 82 83 84
3 10 85 86
3 88 87 10
3 90 89 2
3 92 91 0
