ply
format ascii 1.0
element vertex 128
property float x
property float y
property float z
element face 108
property list uchar int vertex_index
end_header
-31.888451 37.494434 -23.85228
-28.76914 27.574516 -28.143581
-29.952122 32.822353 -26.103523
-31.376549 32.407673 -22.714581
-30.866035 27.342613 -25.421894
-30.905136 22.316425 -28.410999
-32.270947 37.171501 -22.062851
-29.25293 30.245899 -27.145958
-30.245443 30.10638 -25.689774
-29.897301 27.499069 -26.891293
-30.828285 24.782959 -26.87624
-29.72525 24.879292 -28.112259
-31.174339 37.810017 -25.44928
-30.845337 35.252323 -25.007214
-29.930113 35.492771 -26.514507
-28.872614 32.993469 -27.488079
-28.045652 30.342888 -28.364929
-30.773684 32.630882 -24.493069
-31.046564 29.913227 -24.037773
-31.693306 27.099346 -23.780163
-31.813076 24.566544 -25.437744
-27.46933 27.583466 -29.152058
-28.496923 24.867134 -29.115799
-29.701607 22.317436 -29.373829
-31.675378 36.250206 -23.570824
-31.866626 36.08874 -22.676109
-32.079699 37.332967 -22.957566
-30.004001 36.820908 -26.655183
-30.552226 36.651394 -25.981893
-30.626114 37.979531 -26.12257
-28.19573 33.07592 -28.053884
-28.779247 34.369517 -27.629081
-27.782249 31.75063 -28.492309
-28.459133 31.668178 -27.926504
-28.19573 33.07592 -28.053884
-31.595595 32.280106 -21.780684
-31.609181 33.571546 -22.077143
-31.533009 31.036114 -22.482235
-31.595595 32.280106 -21.780684
-31.461691 22.240105 -27.816085
-31.423265 23.473371 -27.048706
-30.86671 23.549692 -27.643619
-31.583294 21.14505 -28.769357
-32.139849 21.068729 -28.174444
-31.461691 22.240105 -27.816085
-26.733351 27.564213 -29.532455
-27.043157 28.998019 -29.241867
-28.45264 23.526463 -29.60553
-27.817809 24.816826 -29.49521
-29.054982 22.251613 -29.734545
-29.099265 23.592285 -29.244814
-28.45264 23.526463 -29.60553
-32.056381 35.95346 -21.751278
-32.340195 36.987271 -21.124599
-32.056381 35.95346 -21.751278
-31.866626 36.08874 -22.676109
-31.419427 33.706826 -23.001974
-31.609181 33.571546 -22.077143
-29.307997 35.619168 -27.142295
-30.004001 36.820908 -26.655183
-29.401363 34.24312 -27.001293
-29.307997 35.619168 -27.142295
-28.779247 34.369517 -27.629081
-32.707716 38.125757 -21.423893
-32.340195 36.987271 -21.124599
-32.645684 38.345705 -22.347143
-32.707716 38.125757 -21.423893
-32.454436 38.507171 -23.241858
-32.079699 37.332967 -22.957566
-32.645684 38.345705 -22.347143
-32.215451 38.710884 -24.076954
-32.454436 38.507171 -23.241858
-31.858395 38.868676 -24.875454
-31.531395 37.652226 -24.65078
-32.215451 38.710884 -24.076954
-31.404515 39.083308 -25.584917
-31.858395 38.868676 -24.875454
-30.626114 37.979531 -26.12257
-31.404515 39.083308 -25.584917
-31.153821 35.12915 -24.148291
-31.675378 36.250206 -23.570824
-31.366894 36.373379 -24.429747
-31.117995 33.81843 -23.891219
-31.153821 35.12915 -24.148291
-30.809511 33.941603 -24.750141
-31.075117 32.519278 -23.603825
-31.419427 33.706826 -23.001974
-31.117995 33.81843 -23.891219
-31.368016 29.788891 -23.143831
-31.533009 31.036114 -22.482235
-31.211557 31.16045 -23.376177
-31.691387 28.381951 -23.015026
-31.368016 29.788891 -23.143831
-31.369935 28.506287 -23.908968
-32.044937 26.937582 -22.899571
-31.691387 28.381951 -23.015026
-32.188687 25.664829 -23.809159
-32.044937 26.937582 -22.899571
-32.248571 24.398428 -24.637949
-32.188687 25.664829 -23.809159
-31.753191 25.832945 -24.608953
-32.424402 23.209406 -25.635258
-32.248571 24.398428 -24.637949
-31.915661 23.365164 -26.329458
-31.320681 24.674751 -26.156992
-31.423265 23.473371 -27.048706
-32.424402 23.209406 -25.635258
-31.915661 23.365164 -26.329458
-27.331318 30.37773 -28.848303
-27.782249 31.75063 -28.492309
-27.757491 28.963177 -28.758494
-27.331318 30.37773 -28.848303
-27.043157 28.998019 -29.241867
-27.304012 26.174992 -29.51334
-26.733351 27.564213 -29.532455
-27.983126 26.2253 -29.133928
-27.304012 26.174992 -29.51334
-27.817809 24.816826 -29.49521
-29.740196 21.097778 -30.038902
-29.054982 22.251613 -29.734545
-29.093571 21.031955 -30.399619
-30.375395 21.166336 -29.706125
-29.740196 21.097778 -30.038902
-30.977159 21.16583 -29.224711
-30.303371 22.31693 -28.892414
-30.375395 21.166336 -29.706125
-31.583294 21.14505 -28.769357
-30.977159 21.16583 -29.224711
3 0 24 26
3 26 25 6
3 24 25 26
3 1 9 7
3 1 11 9
3 27 14 28
3 29 28 12
3 27 28 29
3 30 15 31
3 32 16 33
3 34 33 15
3 32 33 34
3 3 35 36
3 3 37 38
3 2 17 13
3 4 18 8
3 4 19 18
3 4 20 19
3 5 39 41
3 41 40 10
3 39 40 41
3 5 42 44
3 42 43 44
3 45 21 46
3 47 22 48
3 49 23 50
3 51 50 22
3 49 50 51
3 6 52 53
3 55 54 6
3 56 3 57
3 7 8 2
3 9 8 7
3 9 4 8
3 9 10 4
3 11 10 9
3 11 5 10
3 12 13 0
3 14 13 12
3 14 2 13
3 58 14 59
3 15 60 62
3 60 14 61
3 60 61 62
3 15 2 14
3 15 7 2
3 16 7 15
3 16 1 7
3 63 6 64
3 65 6 66
3 67 0 68
3 69 68 6
3 67 68 69
3 70 0 71
3 72 12 73
3 74 73 0
3 72 73 74
3 75 12 76
3 78 77 12
3 13 79 81
3 81 80 0
3 79 80 81
3 17 82 84
3 84 83 13
3 82 83 84
3 17 85 87
3 85 3 86
3 85 86 87
3 8 17 2
3 18 17 8
3 18 3 17
3 18 88 90
3 90 89 3
3 88 89 90
3 19 91 93
3 93 92 18
3 91 92 93
3 19 94 95
3 19 96 97
3 20 98 100
3 100 99 19
3 98 99 100
3 20 101 102
3 10 20 4
3 103 20 104
3 105 104 10
3 103 104 105
3 107 106 20
3 108 16 109
3 21 110 112
3 110 16 111
3 110 111 112
3 21 1 16
3 113 21 114
3 22 115 117
3 115 21 116
3 115 116 117
3 22 1 21
3 22 11 1
3 23 11 22
3 23 5 11
3 118 23 119
3 118 119 120
3 121 23 122
3 123 5 124
3 125 124 23
3 123 124 125
3 127 126 5
