ply
format ascii 1.0
element vertex 693
property float x
property float y
property float z
element face 660
property list uchar int vertex_index
end_header
-12.098032 -52.460793 -8.529631
-38.808308 -51.995644 -33.808342
-29.23613 -49.417393 -26.074108
-23.615744 -42.589127 -21.238781
-18.084475 -48.35054 -14.534861
-18.331291 -53.325268 -18.17971
-24.0476 -45.186226 -24.320877
-22.938126 -60.164352 -19.15147
-7.204556 -55.622253 -2.746944
-33.298153 -52.288334 -29.894562
-32.927296 -37.273296 -34.490082
-28.910152 -34.968426 -23.264145
-26.317345 -34.925735 -28.787048
-27.184557 -35.627064 -32.199673
-15.08784 -56.810707 -15.548372
-20.198038 -56.690266 -18.727962
-4.916077 -57.096714 0.354098
-35.541592 -52.555443 -32.039616
-35.80761 -44.795197 -33.880188
-38.653214 -44.428875 -35.555264
-21.086884 -45.701637 -17.78746
-21.324305 -44.347847 -15.098162
-24.400896 -41.845066 -18.619595
-26.705004 -38.769104 -22.292923
-26.461775 -47.283997 -25.052055
-25.909779 -40.582932 -28.095852
-28.442459 -42.042072 -29.083435
-29.955265 -36.499519 -33.30394
-31.219561 -43.45713 -30.338249
-14.979928 -50.577148 -11.461931
-14.930495 -53.405739 -13.937267
-17.815468 -50.525764 -16.837193
-20.670231 -47.244858 -19.886322
-23.068661 -43.569176 -23.20113
-21.465721 -49.434757 -21.030926
-23.712944 -52.167694 -21.566341
-26.561584 -54.994633 -22.23035
-25.623844 -63.330727 -20.087177
-28.994566 -57.504955 -23.576439
-30.779259 -59.416798 -25.634109
-31.476929 -51.181538 -27.748413
-33.568478 -44.456329 -32.024487
-35.594307 -37.577194 -35.863068
-24.766016 -39.499645 -26.851711
-25.756668 -35.029621 -30.813423
-31.388723 -30.86953 -37.289059
-37.044262 -56.253963 -32.103672
-35.405304 -56.521881 -31.148338
-37.040043 -52.366821 -32.9842
-37.082932 -48.500145 -33.867153
-38.723896 -48.196426 -34.68692
-11.426727 -50.786255 -7.093288
-13.033516 -50.045311 -8.557528
-22.430992 -44.204716 -19.487438
-22.799381 -43.703476 -18.198296
-24.097364 -42.231522 -19.972778
-25.66396 -40.380123 -20.439125
-25.200558 -40.626892 -21.79092
-27.878237 -48.374573 -25.49157
-27.534513 -44.70689 -27.017998
-28.945772 -45.620956 -27.535698
-29.865578 -42.780922 -29.655472
-30.287498 -46.479366 -28.186333
-12.410183 -57.804413 -12.117765
-13.626623 -54.702038 -12.513807
-13.568371 -56.461548 -13.493744
-16.686882 -55.122322 -16.852787
-16.384926 -53.481354 -16.24036
-17.913414 -51.837337 -17.634754
-19.276432 -48.935349 -18.335686
-19.429087 -50.092888 -19.070477
-20.869617 -48.252434 -20.571789
-19.945568 -51.426849 -19.561611
-21.516975 -58.44492 -18.90823
-22.036377 -54.475639 -20.073593
-23.427391 -56.06974 -20.283886
-25.135208 -53.598869 -21.837177
-24.869522 -57.630047 -20.58947
-5.497156 -53.468632 -1.221449
-8.378117 -52.145844 -4.194954
-27.443953 -60.48019 -21.721313
-32.968971 -56.356628 -28.930557
-32.064487 -55.914333 -27.76112
-31.222336 -55.254005 -26.632294
-32.393677 -51.831467 -28.790314
-32.54155 -47.856796 -29.913258
-33.523186 -48.308437 -30.922356
-37.086765 -40.995979 -35.655682
-35.794231 -41.092903 -34.846588
-36.910015 -37.472137 -36.584545
-16.521339 -49.512566 -12.977695
-16.389454 -48.348106 -11.582586
-18.089836 -47.360046 -13.161266
-29.626478 -33.15266 -25.108505
-27.14731 -35.015427 -27.510185
-28.334011 -33.075542 -28.078861
-27.331356 -32.88813 -29.512505
-23.339371 -44.296188 -23.849865
-24.314404 -42.18092 -25.645554
-26.601688 -38.146751 -30.122448
-31.471258 -36.92276 -33.873032
-30.661238 -33.673691 -35.350605
-32.243969 -33.978241 -35.854404
-33.758121 -34.204723 -36.378807
-15.5384 -58.75156 -16.009296
-17.312849 -56.913811 -17.245895
-19.105019 -54.961506 -18.517387
-18.256523 -58.801159 -17.489502
-6.056721 -56.360298 -1.227999
-33.826305 -60.620663 -29.196156
-34.055344 -56.561008 -30.077408
-34.313087 -52.532291 -30.996403
-34.538403 -48.570377 -31.953106
-35.698082 -48.63253 -32.948689
-37.121433 -44.692604 -34.754379
-38.540241 -40.742016 -36.422375
-19.622692 -47.082272 -16.137245
-19.754425 -46.262218 -14.790188
-21.338774 -45.04554 -16.469818
-22.943253 -43.166176 -16.837509
-25.742369 -40.015862 -19.09193
-26.984722 -38.542015 -20.921124
-27.986284 -36.911507 -22.775433
-28.727654 -35.126659 -24.658886
-25.131758 -46.200996 -24.690945
-25.06715 -42.929733 -26.153412
-26.188074 -43.790321 -26.582561
-27.071383 -41.290943 -28.584663
-27.818356 -38.707375 -30.658855
-28.477577 -36.051445 -32.760136
-29.232002 -39.299644 -31.197086
-30.690784 -39.871773 -31.788422
-32.08633 -40.375763 -32.460194
-12.416754 -54.148079 -9.886328
-13.497885 -51.555553 -9.981915
-15.006043 -51.941681 -12.783915
-16.447014 -50.709579 -14.269747
-14.913335 -55.022346 -14.865278
-16.34609 -52.015327 -15.375389
-17.928112 -49.379993 -15.787994
-19.395203 -47.947449 -17.345436
-20.794205 -46.409142 -18.949848
-22.076759 -44.763977 -20.609241
-21.946938 -45.455872 -21.504185
-22.184818 -46.319717 -22.160149
-22.843277 -47.354095 -22.612976
-20.836308 -52.906456 -19.866398
-22.443695 -50.758595 -21.331089
-23.883179 -48.523224 -22.936771
-25.191936 -49.770599 -23.226711
-26.617447 -51.034191 -23.578701
-28.00927 -52.257355 -24.06995
-9.877131 -51.479916 -5.644344
-10.785254 -53.306652 -7.094368
-22.192543 -64.383766 -18.208813
-23.525581 -66.060501 -18.680859
-24.338356 -61.802849 -19.530376
-26.236177 -59.111176 -21.057541
-27.86998 -56.308788 -22.803307
-29.257133 -53.393211 -24.744797
-29.940435 -58.551483 -24.534248
-30.317642 -54.403286 -25.608822
-30.442282 -50.365929 -26.829315
-31.48571 -47.23708 -28.985535
-32.448341 -44.027489 -31.136524
-33.376755 -40.768913 -33.211941
-34.654388 -44.717007 -32.956154
-34.587906 -41.015709 -34.019726
-34.291172 -37.504601 -35.157726
-35.178143 -34.291786 -36.941277
-14.693674 -49.238289 -10.050428
-30.212597 -29.082787 -28.931156
-29.197515 -33.193142 -26.579487
-29.396101 -31.119225 -28.546455
-25.339823 -37.314499 -28.799118
-29.102396 -33.344173 -34.841316
-29.743519 -30.617588 -36.856846
-30.443535 -27.916645 -38.76643
-32.164188 -28.154472 -39.07869
-24.113273 -41.721287 -22.140921
-24.90568 -40.74017 -22.41699
-24.408151 -41.608009 -21.514851
-12.955956 -58.15716 -13.20468
-12.989277 -57.132981 -12.805754
-12.376862 -58.828592 -12.51669
-7.062137 -54.212688 -2.737099
-6.208437 -53.135877 -1.974351
-6.350856 -54.545443 -1.984196
-7.783482 -55.248455 -3.483148
-7.062137 -54.212688 -2.737099
-37.614872 -37.336776 -36.942793
-36.99839 -39.234058 -36.120114
-37.703247 -39.098698 -36.478361
-37.422344 -35.679241 -37.392198
-37.614872 -37.336776 -36.942793
-28.641256 -34.768557 -22.648798
-28.416441 -35.797241 -22.35561
-29.140984 -33.924583 -23.518864
-28.641256 -34.768557 -22.648798
-29.268315 -34.060543 -24.186325
-29.499147 -33.0167 -24.441043
-29.140984 -33.924583 -23.518864
-26.398191 -33.820871 -29.799121
-26.905197 -32.802068 -30.16185
-26.824351 -33.906932 -29.149777
-26.709919 -35.450254 -31.88421
-26.418484 -36.710098 -30.845598
-26.893123 -36.886907 -31.16106
-26.91662 -34.209917 -32.92453
-26.709919 -35.450254 -31.88421
-27.447591 -34.331722 -33.244488
-26.91662 -34.209917 -32.92453
-15.914278 -59.772392 -16.158404
-14.965309 -60.701397 -15.570794
-16.801503 -58.853518 -16.776703
-16.425624 -57.832685 -16.627595
-15.914278 -59.772392 -16.158404
-17.27334 -59.797191 -16.898507
-17.784686 -57.857485 -17.367699
-16.801503 -58.853518 -16.776703
-4.516966 -55.625807 0.34873
-3.860081 -55.982284 1.170701
-5.486399 -56.728506 -0.436951
-5.087288 -55.257599 -0.442318
-4.516966 -55.625807 0.34873
-34.579363 -60.560225 -29.737721
-33.742733 -62.651877 -28.778486
-24.342639 -41.589512 -17.954146
-23.613817 -42.250067 -17.063102
-23.672075 -42.505621 -17.728552
-25.071632 -40.930464 -18.855763
-25.013376 -40.67491 -18.190313
-24.342639 -41.589512 -17.954146
-27.104189 -37.890678 -23.237106
-27.744829 -36.96188 -23.478361
-27.345644 -37.840305 -22.534178
-13.034385 -53.616289 -10.605507
-12.447943 -55.030045 -10.493019
-15.000587 -55.916527 -15.206825
-14.263994 -56.704588 -14.553048
-14.351247 -57.598768 -14.894595
-9.712402 -52.793395 -5.653571
-9.127624 -51.81288 -4.919649
-8.962895 -53.126358 -4.928876
-10.166463 -53.706762 -6.378583
-10.331193 -52.393284 -6.369356
-9.712402 -52.793395 -5.653571
-21.685421 -66.526062 -17.839081
-21.020606 -65.614762 -17.62735
-24.574712 -64.695614 -19.384018
-24.134294 -66.834457 -19.001579
-25.183426 -65.469571 -19.704738
-30.496814 -61.525923 -25.190864
-31.202941 -59.742592 -26.226253
-30.071148 -61.094822 -24.618835
-30.496814 -61.525923 -25.190864
-30.359847 -58.98414 -25.084179
-29.651736 -60.662165 -24.068905
-30.071148 -61.094822 -24.618835
-16.140393 -47.740291 -10.879182
-17.073569 -47.334461 -11.67442
-20.453224 -44.872166 -14.252461
-19.668284 -45.829351 -14.098475
-20.539365 -45.305032 -14.944175
-30.136444 -30.134996 -27.962229
-30.373455 -29.064657 -28.145364
-28.622155 -34.152849 -26.343754
-28.962584 -34.1599 -25.619186
-28.387225 -35.119608 -25.383454
-28.887096 -31.013835 -29.322593
-28.865056 -32.097383 -28.312658
-28.356051 -31.991993 -29.088797
-29.367549 -30.016832 -29.556511
-28.887096 -31.013835 -29.322593
-23.608166 -42.360008 -23.660122
-23.13624 -43.290302 -22.765896
-24.829639 -39.340543 -26.41428
-24.38868 -40.541937 -25.917658
-25.102792 -38.301304 -27.37727
-24.829639 -39.340543 -26.41428
-25.509106 -40.277485 -27.81876
-25.087792 -41.450885 -26.84754
-25.488464 -41.756332 -27.124632
-25.548246 -36.17206 -29.806271
-25.538753 -37.491638 -29.161302
-25.747175 -36.349199 -30.168455
-25.778863 -34.972994 -30.352825
-25.570441 -36.115433 -29.345672
-25.548246 -36.17206 -29.806271
-25.882706 -33.827017 -31.374565
-25.778863 -34.972994 -30.352825
-4.356324 -57.466034 1.183655
-3.860081 -55.982284 1.170701
-36.224783 -56.387922 -31.626005
-35.368862 -58.510834 -30.713811
-36.188341 -58.376874 -31.191479
-11.796547 -49.634056 -7.106823
-10.888504 -49.923559 -6.363872
-12.599941 -49.263584 -7.838943
-11.796547 -49.634056 -7.106823
-12.230121 -50.415783 -7.825408
-13.526086 -48.945923 -8.59384
-12.599941 -49.263584 -7.838943
-25.642665 -39.757686 -22.721483
-26.394888 -38.828792 -22.972485
-25.952781 -39.697998 -22.041922
-25.642665 -39.757686 -22.721483
-24.90568 -40.74017 -22.41699
-13.018403 -56.253225 -12.315786
-13.052878 -55.307024 -11.806758
-12.444657 -56.858211 -11.608737
-5.332759 -52.090521 -1.193693
-4.525528 -52.390243 -0.414563
-5.332759 -52.090521 -1.193693
-6.208437 -53.135877 -1.974351
-7.648917 -52.474483 -3.461104
-7.612933 -51.148453 -3.435096
-8.370262 -53.51025 -4.207154
-7.648917 -52.474483 -3.461104
-8.962895 -53.126358 -4.928876
-8.370262 -53.51025 -4.207154
-26.18741 -64.029103 -20.459716
-25.183426 -65.469571 -19.704738
-27.097465 -62.603834 -21.276784
-26.533898 -61.905459 -20.904245
-26.18741 -64.029103 -20.459716
-27.957735 -61.095165 -22.150442
-27.097465 -62.603834 -21.276784
-28.733041 -59.607548 -23.078005
-28.219259 -58.992573 -22.648876
-27.957735 -61.095165 -22.150442
-32.297797 -58.212507 -27.874477
-32.788691 -58.416477 -28.477926
-31.845555 -57.99136 -27.289759
-32.297797 -58.212507 -27.874477
-32.516729 -56.13548 -28.345838
-31.421873 -57.665565 -26.697615
-31.202941 -59.742592 -26.226253
-31.845555 -57.99136 -27.289759
-36.726971 -35.82994 -37.067428
-36.069116 -35.882469 -36.70669
-36.252161 -37.524665 -36.223806
-36.726971 -35.82994 -37.067428
-37.422344 -35.679241 -37.392198
-17.923759 -46.840431 -12.46376
-17.073569 -47.334461 -11.67442
-17.239645 -47.854076 -12.371926
-21.084291 -43.933609 -14.439535
-21.982379 -43.423874 -15.307184
-29.861534 -32.094522 -25.325598
-29.499147 -33.0167 -24.441043
-29.843384 -32.169932 -26.050903
-29.861534 -32.094522 -25.325598
-27.740661 -34.045485 -27.794523
-28.190403 -34.094049 -27.093441
-27.597053 -35.063992 -26.809103
-27.854724 -31.898287 -29.805619
-28.356051 -31.991993 -29.088797
-27.832684 -32.981836 -28.795683
-27.322228 -31.764539 -30.538365
-27.854724 -31.898287 -29.805619
-27.322228 -31.764539 -30.538365
-26.905197 -32.802068 -30.16185
-23.675358 -42.940208 -24.416735
-23.540003 -42.576702 -24.092367
-23.204016 -43.932682 -23.525498
-24.162875 -41.882575 -25.314579
-23.675358 -42.940208 -24.416735
-23.826887 -43.238554 -24.747709
-24.54021 -40.840283 -26.248632
-24.38868 -40.541937 -25.917658
-24.162875 -41.882575 -25.314579
-26.169685 -37.907764 -29.822967
-25.82373 -39.125855 -28.809669
-26.255733 -39.364841 -29.10915
-26.169685 -37.907764 -29.822967
-26.418484 -36.710098 -30.845598
-25.995975 -35.151533 -31.191085
-25.747175 -36.349199 -30.168455
-25.906684 -33.839142 -31.844973
-25.995975 -35.151533 -31.191085
-32.635599 -32.541187 -36.770418
-32.207976 -30.986832 -37.487746
-31.816346 -32.423885 -36.571731
-33.392675 -32.654429 -37.03262
-32.635599 -32.541187 -36.770418
-33.001045 -34.091482 -36.116606
-34.161774 -32.728512 -37.233944
-33.392675 -32.654429 -37.03262
-14.479093 -58.638052 -15.159233
-14.351247 -57.598768 -14.894595
-14.704373 -59.608479 -15.389695
-14.965309 -60.701397 -15.570794
-15.31312 -57.781133 -15.778834
-14.479093 -58.638052 -15.159233
-14.704373 -59.608479 -15.389695
-17.784128 -60.833689 -17.007149
-17.27334 -59.797191 -16.898507
-18.855145 -59.758442 -17.581515
-17.784128 -60.833689 -17.007149
-19.825903 -58.702996 -18.200744
-19.22728 -57.745712 -18.108732
-18.855145 -59.758442 -17.581515
-20.485371 -59.580323 -18.290878
-20.857506 -57.567593 -18.818096
-19.825903 -58.702996 -18.200744
-21.160066 -60.518811 -18.398424
-20.485371 -59.580323 -18.290878
-21.870641 -61.378526 -18.520044
-22.22755 -59.304636 -19.02985
-21.160066 -60.518811 -18.398424
-4.807505 -53.811766 -0.439043
-4.525528 -52.390243 -0.414563
-5.776938 -54.914465 -1.224724
-4.807505 -53.811766 -0.439043
-5.087288 -55.257599 -0.442318
-33.047741 -62.618174 -28.188705
-33.742733 -62.651877 -28.778486
-33.217357 -60.548495 -28.610726
-33.047741 -62.618174 -28.188705
-34.615804 -58.571272 -30.172247
-34.579363 -60.560225 -29.737721
-35.368862 -58.510834 -30.713811
-33.331877 -58.518667 -29.051351
-33.217357 -60.548495 -28.610726
-33.940824 -58.590835 -29.636782
-33.512158 -56.458818 -29.503982
-32.788691 -58.416477 -28.477926
-33.331877 -58.518667 -29.051351
-38.429985 -38.971716 -36.861708
-37.703247 -39.098698 -36.478361
-37.813503 -40.868997 -36.039029
-22.791853 -42.833039 -16.176858
-21.982379 -43.423874 -15.307184
-22.133779 -43.757012 -15.967835
-22.791853 -42.833039 -16.176858
-23.613817 -42.250067 -17.063102
-25.480788 -39.733627 -18.476406
-25.013376 -40.67491 -18.190313
-26.213215 -39.068289 -19.369694
-25.480788 -39.733627 -18.476406
-26.834392 -38.331366 -20.28429
-26.213215 -39.068289 -19.369694
-26.363546 -39.278938 -20.006527
-27.453727 -37.584036 -21.1841
-26.834392 -38.331366 -20.28429
-27.954507 -36.768782 -22.111254
-27.453727 -37.584036 -21.1841
-27.485503 -37.726761 -21.848278
-28.448218 -35.939966 -23.019789
-28.416441 -35.797241 -22.35561
-27.954507 -36.768782 -22.111254
-28.115514 -36.069456 -24.420088
-28.356969 -36.019083 -23.71716
-27.744829 -36.96188 -23.478361
-28.387225 -35.119608 -25.383454
-28.115514 -36.069456 -24.420088
-27.104189 -37.890678 -23.237106
-26.394888 -38.828792 -22.972485
-26.941158 -36.016245 -26.533857
-27.597053 -35.063992 -26.809103
-26.555286 -36.017987 -27.16332
-26.941158 -36.016245 -26.533857
-26.140303 -35.97314 -27.801752
-26.732328 -34.970581 -28.148616
-26.555286 -36.017987 -27.16332
-37.082195 -58.195308 -31.667607
-36.188341 -58.376874 -31.191479
-37.992871 -56.02459 -32.510668
-37.082195 -58.195308 -31.667607
-38.874893 -53.89543 -33.363003
-37.926285 -54.124803 -32.956007
-37.992871 -56.02459 -32.510668
-13.57495 -52.320026 -10.653301
-12.95732 -52.851816 -9.934121
-13.034385 -53.616289 -10.605507
-14.315972 -51.830824 -11.393308
-14.238906 -51.06635 -10.721923
-13.57495 -52.320026 -10.653301
-13.639319 -53.893269 -11.919246
-13.052878 -55.307024 -11.806758
-14.32903 -52.51309 -12.054301
-13.639319 -53.893269 -11.919246
-14.316333 -53.32186 -12.648861
-14.992985 -51.259415 -12.122923
-14.315972 -51.830824 -11.393308
-14.32903 -52.51309 -12.054301
-13.591512 -57.424188 -13.867281
-12.955956 -58.15716 -13.20468
-14.240853 -55.741947 -14.179511
-13.591512 -57.424188 -13.867281
-14.263994 -56.704588 -14.553048
-22.640289 -43.887703 -21.469952
-23.409782 -42.800278 -21.784721
-22.846252 -43.676552 -20.924011
-22.575378 -44.23365 -21.917423
-22.640289 -43.887703 -21.469952
-22.011848 -45.109924 -21.056713
-22.507799 -44.512524 -22.352657
-23.13624 -43.290302 -22.765896
-22.575378 -44.23365 -21.917423
-8.477435 -50.877232 -4.176604
-7.612933 -51.148453 -3.435096
-9.226942 -50.544268 -4.9013
-8.477435 -50.877232 -4.176604
-9.127624 -51.81288 -4.919649
-10.113706 -50.27039 -5.639399
-9.226942 -50.544268 -4.9013
-10.651929 -51.133085 -6.368816
-10.888504 -49.923559 -6.363872
-10.113706 -50.27039 -5.639399
-5.419359 -58.608505 0.40405
-4.356324 -57.466034 1.183655
-5.879323 -58.236407 -0.394839
-5.419359 -58.608505 0.40405
-6.449645 -57.868199 -1.185887
-5.486399 -56.728506 -0.436951
-5.879323 -58.236407 -0.394839
-6.888736 -57.482985 -1.953916
-6.449645 -57.868199 -1.185887
-7.462654 -57.113962 -2.713388
-6.630638 -55.991276 -1.987472
-6.888736 -57.482985 -1.953916
-7.887724 -56.712795 -3.456193
-7.462654 -57.113962 -2.713388
-7.783482 -55.248455 -3.483148
-7.887724 -56.712795 -3.456193
-10.554721 -54.692581 -7.068147
-10.166463 -53.706762 -6.378583
-11.048283 -54.224772 -7.778111
-10.554721 -54.692581 -7.068147
-11.704672 -53.801842 -8.495742
-11.441643 -52.883723 -7.812
-11.048283 -54.224772 -7.778111
-11.864033 -54.645485 -9.174091
-12.257393 -53.304436 -9.20798
-11.704672 -53.801842 -8.495742
-11.963905 -55.596257 -9.788905
-11.864033 -54.645485 -9.174091
-12.447943 -55.030045 -10.493019
-11.963905 -55.596257 -9.788905
-11.944589 -58.431709 -11.426686
-12.444657 -56.858211 -11.608737
-11.872663 -59.510055 -11.843711
-11.944589 -58.431709 -11.426686
-12.376862 -58.828592 -12.51669
-11.872663 -59.510055 -11.843711
-39.803269 -51.743262 -34.156906
-38.874893 -53.89543 -33.363003
-39.704577 -49.879047 -34.606724
-39.803269 -51.743262 -34.156906
-39.662371 -47.979439 -35.046013
-38.766102 -50.096035 -34.247631
-39.704577 -49.879047 -34.606724
-39.568278 -46.118481 -35.483448
-39.662371 -47.979439 -35.046013
-39.532936 -44.234705 -35.91762
-38.688555 -46.312651 -35.121092
-39.568278 -46.118481 -35.483448
-39.422398 -42.397833 -36.348099
-39.532936 -44.234705 -35.91762
-39.365911 -40.554403 -36.781655
-38.596728 -42.585445 -35.98882
-39.422398 -42.397833 -36.348099
-39.211065 -38.772997 -37.212452
-39.365911 -40.554403 -36.781655
-38.429985 -38.971716 -36.861708
-39.211065 -38.772997 -37.212452
-21.49785 -63.488233 -18.048716
-21.020606 -65.614762 -17.62735
-22.565334 -62.274059 -18.680141
-21.870641 -61.378526 -18.520044
-21.49785 -63.488233 -18.048716
-22.988193 -68.209243 -18.359007
-24.134294 -66.834457 -19.001579
-22.35194 -67.364429 -18.075104
-22.988193 -68.209243 -18.359007
-22.859062 -65.222133 -18.444836
-21.685421 -66.526062 -17.839081
-22.35194 -67.364429 -18.075104
-29.205976 -60.130812 -23.55691
-29.651736 -60.662165 -24.068905
-29.4675 -58.028219 -24.055343
-28.733041 -59.607548 -23.078005
-29.205976 -60.130812 -23.55691
-34.871785 -32.772043 -37.515179
-34.161774 -32.728512 -37.233944
-34.468132 -34.248255 -36.660042
-35.861035 -34.239765 -37.245795
-35.386225 -35.93449 -36.402172
-36.069116 -35.882469 -36.70669
-35.582098 -32.748637 -37.745984
-35.861035 -34.239765 -37.245795
-34.871785 -32.772043 -37.515179
-35.582098 -32.748637 -37.745984
-14.356165 -48.542412 -9.34029
-13.526086 -48.945923 -8.59384
-13.863595 -49.6418 -9.303978
-15.292503 -48.185383 -10.113104
-15.541564 -48.793198 -10.816507
-16.140393 -47.740291 -10.879182
-14.356165 -48.542412 -9.34029
-15.292503 -48.185383 -10.113104
-18.835989 -46.378265 -13.284014
-18.922131 -46.811132 -13.975727
-19.668284 -45.829351 -14.098475
-17.923759 -46.840431 -12.46376
-18.835989 -46.378265 -13.284014
-20.453224 -44.872166 -14.252461
-21.084291 -43.933609 -14.439535
-30.449428 -28.003238 -29.085384
-30.373455 -29.064657 -28.145364
-30.156682 -27.966686 -29.930481
-30.449428 -28.003238 -29.085384
-29.628903 -32.190173 -26.786394
-29.843384 -32.169932 -26.050903
-29.411997 -33.172901 -25.843996
-28.765763 -33.134342 -27.329174
-28.622155 -34.152849 -26.343754
-28.190403 -34.094049 -27.093441
-29.728196 -31.153215 -27.769878
-29.628903 -32.190173 -26.786394
-29.296808 -32.156183 -27.562971
-29.804349 -30.101006 -28.738806
-30.136444 -30.134996 -27.962229
-29.728196 -31.153215 -27.769878
-29.775797 -28.998613 -29.748861
-29.804349 -30.101006 -28.738806
-29.367549 -30.016832 -29.556511
-30.156682 -27.966686 -29.930481
-29.775797 -28.998613 -29.748861
-24.113273 -41.721287 -22.140921
-23.409782 -42.800278 -21.784721
-23.608166 -42.360008 -23.660122
-23.540003 -42.576702 -24.092367
-25.878456 -36.014348 -28.344938
-26.140303 -35.97314 -27.801752
-24.711419 -41.076479 -26.593611
-24.690777 -42.555326 -25.899483
-25.087792 -41.450885 -26.84754
-24.937224 -39.735841 -27.19669
-24.54021 -40.840283 -26.248632
-24.711419 -41.076479 -26.593611
-25.509106 -40.277485 -27.81876
-25.82373 -39.125855 -28.809669
-25.224128 -38.643268 -28.170393
-25.538753 -37.491638 -29.161302
-25.05292 -38.407072 -27.825415
-24.937224 -39.735841 -27.19669
-25.224128 -38.643268 -28.170393
-25.389696 -37.208731 -28.350973
-25.102792 -38.301304 -27.37727
-25.05292 -38.407072 -27.825415
-25.389696 -37.208731 -28.350973
-25.570441 -36.115433 -29.345672
-26.059202 -34.921051 -29.339637
-25.878456 -36.014348 -28.344938
-26.398191 -33.820871 -29.799121
-26.059202 -34.921051 -29.339637
-25.882706 -33.827017 -31.374565
-25.906684 -33.839142 -31.844973
-28.094101 -34.543913 -33.52472
-27.447591 -34.331722 -33.244488
-27.831067 -35.839254 -32.479905
-28.40651 -33.190277 -34.565309
-28.094101 -34.543913 -33.52472
-28.789986 -34.697809 -33.800726
-28.669303 -31.869642 -35.596422
-28.40651 -33.190277 -34.565309
-28.989864 -30.506349 -36.604187
-28.669303 -31.869642 -35.596422
-29.422957 -31.98088 -35.849081
-29.279187 -29.175168 -37.602588
-28.989864 -30.506349 -36.604187
-29.629195 -27.824697 -38.557381
-29.279187 -29.175168 -37.602588
-30.093527 -29.267117 -37.811638
-29.967666 -26.502411 -39.507157
-29.629195 -27.824697 -38.557381
-30.83968 -26.607933 -39.6528
-29.967666 -26.502411 -39.507157
-31.700007 -26.726847 -39.80893
-30.83968 -26.607933 -39.6528
-31.303862 -28.035559 -38.92256
-32.586689 -26.886447 -39.883301
-31.700007 -26.726847 -39.80893
-32.595709 -29.629303 -38.382561
-31.776456 -29.512001 -38.183875
-32.207976 -30.986832 -37.487746
-32.993097 -28.277765 -39.203404
-32.595709 -29.629303 -38.382561
-32.586689 -26.886447 -39.883301
-32.993097 -28.277765 -39.203404
3 1 48 46
3 1 50 48
3 0 52 51
3 3 55 53
3 3 57 55
3 3 179 181
3 181 180 57
3 179 180 181
3 2 60 58
3 2 62 60
3 182 65 183
3 184 183 63
3 182 183 184
3 5 68 66
3 5 70 68
3 5 72 70
3 7 75 73
3 7 77 75
3 8 185 187
3 187 186 78
3 185 186 187
3 8 188 189
3 9 82 81
3 9 84 82
3 9 86 84
3 190 89 191
3 192 191 87
3 190 191 192
3 194 193 89
3 4 92 90
3 11 195 196
3 11 197 198
3 11 199 201
3 199 93 200
3 199 200 201
3 12 96 94
3 12 202 204
3 204 203 96
3 202 203 204
3 6 98 97
3 13 205 207
3 207 206 99
3 205 206 207
3 13 208 209
3 13 210 211
3 10 102 100
3 10 103 102
3 212 104 213
3 214 105 215
3 216 215 104
3 214 215 216
3 217 107 218
3 219 218 105
3 217 218 219
3 16 220 221
3 16 222 224
3 222 108 223
3 222 223 224
3 225 109 226
3 17 110 47
3 17 111 110
3 17 113 111
3 19 114 49
3 19 115 114
3 20 118 116
3 22 119 54
3 22 227 229
3 229 228 119
3 227 228 229
3 22 230 232
3 230 120 231
3 230 231 232
3 23 121 56
3 23 122 121
3 23 233 235
3 235 234 122
3 233 234 235
3 24 126 124
3 26 127 59
3 26 128 127
3 26 130 128
3 28 131 61
3 28 132 131
3 237 236 133
3 30 135 64
3 30 136 135
3 14 238 240
3 238 137 239
3 238 239 240
3 31 138 67
3 31 139 138
3 31 140 139
3 32 141 69
3 32 142 141
3 32 143 142
3 34 144 71
3 34 145 144
3 15 146 106
3 35 147 74
3 35 148 147
3 35 149 148
3 36 150 76
3 36 151 150
3 241 152 242
3 243 242 79
3 241 242 243
3 244 153 245
3 246 245 152
3 244 245 246
3 247 154 248
3 37 249 251
3 249 155 250
3 249 250 251
3 37 156 155
3 37 157 156
3 38 158 80
3 38 159 158
3 39 252 253
3 39 254 255
3 39 256 258
3 256 160 257
3 256 257 258
3 40 161 83
3 40 162 161
3 40 163 162
3 41 164 85
3 41 165 164
3 18 166 112
3 42 167 88
3 42 168 167
3 42 169 168
3 29 170 134
3 260 259 91
3 21 261 263
3 263 262 117
3 261 262 263
3 264 171 265
3 266 172 267
3 268 267 123
3 266 267 268
3 269 173 270
3 271 270 95
3 269 270 271
3 273 272 173
3 33 274 275
3 43 276 277
3 43 278 279
3 25 280 282
3 282 281 125
3 280 281 282
3 44 283 285
3 283 174 284
3 283 284 285
3 44 286 288
3 288 287 174
3 286 287 288
3 44 289 290
3 27 175 129
3 45 176 101
3 45 177 176
3 45 178 177
3 291 16 292
3 46 293 295
3 293 47 294
3 293 294 295
3 48 47 46
3 48 17 47
3 48 49 17
3 50 49 48
3 50 19 49
3 51 296 297
3 52 298 300
3 300 299 51
3 298 299 300
3 52 301 302
3 53 54 20
3 55 54 53
3 55 22 54
3 55 56 22
3 57 56 55
3 57 23 56
3 57 303 305
3 305 304 23
3 303 304 305
3 307 306 57
3 58 59 24
3 60 59 58
3 60 26 59
3 60 61 26
3 62 61 60
3 62 28 61
3 63 308 310
3 308 64 309
3 308 309 310
3 65 64 63
3 65 30 64
3 66 67 14
3 68 67 66
3 68 31 67
3 68 69 31
3 70 69 68
3 70 32 69
3 70 71 32
3 72 71 70
3 72 34 71
3 73 74 15
3 75 74 73
3 75 35 74
3 75 76 35
3 77 76 75
3 77 36 76
3 78 311 312
3 314 313 78
3 315 79 316
3 317 79 318
3 320 319 79
3 321 37 322
3 323 80 324
3 325 324 37
3 323 324 325
3 326 80 327
3 328 38 329
3 330 329 80
3 328 329 330
3 81 331 332
3 82 333 335
3 335 334 81
3 333 334 335
3 82 336 338
3 336 39 337
3 336 337 338
3 82 83 39
3 84 83 82
3 84 40 83
3 84 85 40
3 86 85 84
3 86 41 85
3 87 88 18
3 89 88 87
3 89 42 88
3 89 339 341
3 341 340 42
3 339 340 341
3 343 342 89
3 90 91 29
3 92 91 90
3 92 344 346
3 346 345 91
3 344 345 346
3 348 347 21
3 93 349 350
3 93 351 352
3 94 353 355
3 353 95 354
3 353 354 355
3 96 95 94
3 96 356 358
3 358 357 95
3 356 357 358
3 96 359 360
3 362 361 96
3 97 363 365
3 365 364 33
3 363 364 365
3 98 366 368
3 368 367 97
3 366 367 368
3 98 369 371
3 369 43 370
3 369 370 371
3 99 372 374
3 374 373 25
3 372 373 374
3 376 375 99
3 377 44 378
3 380 379 44
3 100 101 27
3 102 101 100
3 102 45 101
3 102 381 383
3 383 382 45
3 381 382 383
3 103 384 386
3 386 385 102
3 384 385 386
3 103 387 388
3 389 14 390
3 104 391 392
3 104 393 395
3 393 14 394
3 393 394 395
3 104 66 14
3 105 66 104
3 105 5 66
3 105 106 5
3 107 106 105
3 107 15 106
3 396 107 397
3 398 107 399
3 400 15 401
3 402 401 107
3 400 401 402
3 403 73 404
3 405 404 15
3 403 404 405
3 406 73 407
3 408 7 409
3 410 409 73
3 408 409 410
3 411 78 412
3 108 413 415
3 413 78 414
3 413 414 415
3 108 8 78
3 109 416 417
3 109 418 419
3 47 420 422
3 420 109 421
3 420 421 422
3 110 109 47
3 110 423 425
3 425 424 109
3 423 424 425
3 110 426 428
3 426 81 427
3 426 427 428
3 111 81 110
3 111 9 81
3 111 112 9
3 113 112 111
3 113 18 112
3 49 113 17
3 114 113 49
3 114 18 113
3 114 87 18
3 115 87 114
3 115 429 431
3 431 430 87
3 429 430 431
3 116 117 4
3 118 117 116
3 118 21 117
3 54 118 20
3 119 118 54
3 119 21 118
3 119 432 434
3 434 433 21
3 432 433 434
3 436 435 119
3 120 437 438
3 120 439 440
3 56 120 22
3 121 120 56
3 121 441 443
3 443 442 120
3 441 442 443
3 121 444 445
3 122 446 448
3 448 447 121
3 446 447 448
3 122 449 451
3 449 11 450
3 449 450 451
3 122 123 11
3 452 123 453
3 454 453 122
3 452 453 454
3 456 455 123
3 458 457 23
3 459 94 460
3 461 94 462
3 463 12 464
3 465 464 94
3 463 464 465
3 124 125 6
3 126 125 124
3 126 25 125
3 59 126 24
3 127 126 59
3 127 25 126
3 127 99 25
3 128 99 127
3 128 13 99
3 128 129 13
3 130 129 128
3 130 27 129
3 61 130 26
3 131 130 61
3 131 27 130
3 131 100 27
3 132 100 131
3 132 10 100
3 466 46 467
3 468 46 469
3 470 1 471
3 472 471 46
3 470 471 472
3 133 134 0
3 473 134 474
3 475 474 133
3 473 474 475
3 476 29 477
3 478 477 134
3 476 477 478
3 64 479 480
3 135 481 483
3 483 482 64
3 481 482 483
3 135 484 486
3 484 29 485
3 484 485 486
3 135 90 29
3 136 90 135
3 136 4 90
3 487 65 488
3 137 489 491
3 489 65 490
3 489 490 491
3 137 30 65
3 67 137 14
3 138 137 67
3 138 30 137
3 138 136 30
3 139 136 138
3 139 4 136
3 139 116 4
3 140 116 139
3 140 20 116
3 69 140 31
3 141 140 69
3 141 20 140
3 141 53 20
3 142 53 141
3 142 3 53
3 142 492 494
3 494 493 3
3 492 493 494
3 143 495 497
3 497 496 142
3 495 496 497
3 143 498 500
3 498 33 499
3 498 499 500
3 71 143 32
3 144 143 71
3 144 33 143
3 144 97 33
3 145 97 144
3 145 6 97
3 106 72 5
3 146 72 106
3 146 34 72
3 74 146 15
3 147 146 74
3 147 34 146
3 147 145 34
3 148 145 147
3 148 6 145
3 148 124 6
3 149 124 148
3 149 24 124
3 76 149 35
3 150 149 76
3 150 24 149
3 150 58 24
3 151 58 150
3 151 2 58
3 79 501 502
3 152 503 505
3 505 504 79
3 503 504 505
3 152 506 507
3 152 508 510
3 508 51 509
3 508 509 510
3 153 51 152
3 153 0 51
3 511 16 512
3 513 16 514
3 515 108 516
3 517 516 16
3 515 516 517
3 518 108 519
3 520 8 521
3 522 521 108
3 520 521 522
3 523 8 524
3 526 525 8
3 527 153 528
3 529 153 530
3 531 0 532
3 533 532 153
3 531 532 533
3 534 133 535
3 536 535 0
3 534 535 536
3 537 133 538
3 540 539 133
3 541 63 542
3 543 63 544
3 546 545 63
3 547 1 548
3 549 1 550
3 551 50 552
3 553 552 1
3 551 552 553
3 554 50 555
3 556 19 557
3 558 557 50
3 556 557 558
3 559 19 560
3 561 115 562
3 563 562 19
3 561 562 563
3 564 115 565
3 567 566 115
3 154 568 569
3 154 570 572
3 570 7 571
3 570 571 572
3 155 573 574
3 155 575 576
3 155 577 579
3 577 154 578
3 577 578 579
3 156 154 155
3 156 7 154
3 156 77 7
3 157 77 156
3 157 36 77
3 80 157 37
3 158 157 80
3 158 36 157
3 158 151 36
3 159 151 158
3 159 2 151
3 160 580 581
3 160 582 584
3 582 38 583
3 582 583 584
3 83 160 39
3 161 160 83
3 161 38 160
3 161 159 38
3 162 159 161
3 162 2 159
3 162 62 2
3 163 62 162
3 163 28 62
3 85 163 40
3 164 163 85
3 164 28 163
3 164 132 28
3 165 132 164
3 165 10 132
3 112 86 9
3 166 86 112
3 166 41 86
3 88 166 18
3 167 166 88
3 167 41 166
3 167 165 41
3 168 165 167
3 168 10 165
3 168 103 10
3 169 103 168
3 169 585 587
3 587 586 103
3 585 586 587
3 588 169 589
3 590 589 42
3 588 589 590
3 591 169 592
3 594 593 169
3 134 52 0
3 170 52 134
3 170 595 597
3 597 596 52
3 595 596 597
3 91 170 29
3 598 170 599
3 600 599 91
3 598 599 600
3 602 601 170
3 117 92 4
3 603 92 604
3 605 604 117
3 603 604 605
3 607 606 92
3 609 608 21
3 171 610 611
3 171 612 613
3 123 93 11
3 172 93 123
3 172 614 616
3 616 615 93
3 614 615 616
3 95 617 619
3 617 172 618
3 617 618 619
3 173 172 95
3 173 620 622
3 622 621 172
3 620 621 622
3 173 623 625
3 623 171 624
3 623 624 625
3 626 171 627
3 628 627 173
3 626 627 628
3 630 629 171
3 632 631 3
3 634 633 33
3 635 12 636
3 125 98 6
3 637 98 638
3 639 638 125
3 637 638 639
3 640 43 641
3 642 641 98
3 640 641 642
3 644 643 25
3 174 645 646
3 174 647 649
3 647 43 648
3 647 648 649
3 174 650 652
3 652 651 43
3 650 651 652
3 654 653 174
3 655 12 656
3 658 657 12
3 660 659 44
3 129 661 663
3 663 662 13
3 661 662 663
3 175 664 666
3 666 665 129
3 664 665 666
3 175 667 668
3 101 175 27
3 176 175 101
3 176 669 671
3 671 670 175
3 669 670 671
3 176 672 673
3 177 674 676
3 676 675 176
3 674 675 676
3 177 677 678
3 177 679 680
3 178 681 683
3 683 682 177
3 681 682 683
3 178 684 685
3 686 178 687
3 688 687 45
3 686 687 688
3 689 178 690
3 692 691 178
