ply
format ascii 1.0
element vertex 315
property float x
property float y
property float z
element face 302
property list uchar int vertex_index
end_header
-55.571117 -66.376007 47.787685
-57.831512 -67.949242 39.924309
-60.184853 -60.245617 46.474487
-49.987972 -70.74791 48.404732
-42.62093 -73.464813 48.518192
-56.130814 -62.121929 49.662472
-57.87841 -63.510235 47.192154
-58.273586 -59.405781 49.493336
-53.617943 -64.181747 49.423161
-51.902527 -73.262314 47.054054
-48.76989 -75.497238 48.121307
-54.556 -70.593796 45.775803
-56.922287 -67.556671 44.449211
-59.308525 -64.307449 43.244682
-61.7976 -60.990402 42.211311
-47.220993 -67.129433 48.161678
-50.646568 -65.835022 48.842075
-53.014656 -68.794449 48.202717
-38.740082 -74.412628 48.738979
-46.46447 -72.273636 48.463253
-45.207745 -77.331078 48.873398
-52.492802 -74.026268 45.660149
-51.082893 -75.372604 46.480728
-55.135696 -68.512161 46.775528
-55.755054 -69.112747 45.106812
-56.314575 -67.079346 46.309311
-59.022556 -61.921558 46.848824
-58.630196 -63.966194 45.367737
-59.820305 -62.318298 44.911583
-60.552296 -62.652233 42.71172
-61.029655 -60.629913 44.458817
-54.674843 -65.41716 48.829433
-53.359158 -66.490135 48.812275
-54.341141 -67.642868 48.022064
-53.889805 -69.843071 47.216797
-56.569221 -69.607544 40.811756
-41.13839 -71.262955 48.097183
-39.211128 -71.691284 48.245743
-40.666191 -73.964996 48.596828
-40.122791 -76.683205 49.055943
-42.06073 -76.137222 48.958206
-48.692448 -69.051254 48.427872
-46.900631 -69.707512 48.26561
-48.281097 -71.559143 48.444229
-47.031845 -76.460632 48.540962
-55.894836 -64.227859 48.771553
-56.738129 -64.997307 47.507481
-57.044411 -62.910248 48.640263
-58.155602 -61.447586 48.441597
-59.262276 -59.838264 48.176479
-54.929981 -63.208565 49.59473
-43.08847 -70.798477 48.069576
-51.065952 -72.16391 47.968483
-49.458801 -73.151711 48.264088
-50.398193 -74.433449 47.621979
-49.560577 -76.620972 47.236771
-55.03051 -71.059296 43.934654
-56.222733 -69.468765 43.088394
-57.418739 -67.83799 42.290352
-57.467609 -65.558701 45.83535
-58.098267 -65.947754 43.824097
-58.65078 -66.192352 41.561119
-59.927937 -64.552094 40.910156
-61.227203 -62.927521 40.33276
-62.493263 -61.316925 39.809669
-45.630295 -65.052063 47.770889
-47.452118 -64.549377 48.174759
-48.986404 -66.523438 48.494766
-50.372894 -68.302521 48.591393
-52.191055 -65.055923 49.163265
-51.928726 -67.450897 48.727451
-51.56723 -69.828743 48.328281
-52.540863 -71.061783 47.617874
-53.282803 -71.981026 46.432369
-37.345306 -72.094032 48.537724
-36.878769 -74.812363 48.965107
-45.370537 -67.665154 47.885315
-45.021767 -70.284897 48.135719
-44.566235 -72.904579 48.480965
-47.729065 -74.032791 48.505054
-45.898788 -74.817612 48.695545
-43.997963 -75.516525 48.84296
-63.648048 -59.708313 39.30941
-52.004548 -74.992542 45.263517
-52.671701 -74.242333 44.749947
-57.329372 -68.752102 39.145897
-56.698227 -69.581253 39.589621
-57.200367 -68.778393 40.368032
-58.214594 -60.426683 48.967467
-57.693623 -61.160097 49.034105
-57.752615 -60.139195 49.559975
-55.530397 -62.665247 49.628601
-55.037515 -62.139688 49.924413
-55.637932 -61.59637 49.958285
-43.276308 -69.472 47.888492
-42.312995 -69.69252 47.867981
-49.827541 -77.000515 46.541359
-50.321735 -75.996788 46.85875
-50.588699 -76.376331 46.163337
-49.070564 -77.670517 46.990078
-49.827541 -77.000515 46.541359
-54.793255 -70.826546 44.855229
-54.415278 -71.822075 44.368227
-54.178022 -71.589325 45.288802
-47.540397 -63.262341 48.234314
-46.639595 -63.49971 47.985089
-49.816486 -66.17923 48.66842
-49.092433 -65.256645 48.57258
-49.922516 -64.912437 48.746234
-52.904499 -64.618835 49.293213
-52.296222 -63.862444 49.385227
-53.009666 -63.425356 49.515175
-54.178022 -71.589325 45.288802
-53.541424 -72.28294 45.617085
-53.919401 -71.287411 46.104086
-38.479793 -75.783249 48.946573
-37.549137 -75.983116 49.059637
-37.809426 -74.612495 48.852043
-39.821462 -78.043095 49.199067
-40.771292 -77.744553 49.162296
-44.267145 -77.722081 48.994326
-43.662255 -76.814804 48.979107
-44.602854 -76.423801 48.858179
-63.845688 -58.67276 40.249285
-63.316803 -59.514778 40.512749
-56.681229 -61.497269 49.644543
-56.210841 -61.135029 50.019457
-57.767822 -59.180909 49.935221
-57.752615 -60.139195 49.559975
-56.210841 -61.135029 50.019457
-55.637932 -61.59637 49.958285
-51.299593 -75.66571 45.673807
-51.787847 -74.699436 46.070438
-52.004548 -74.992542 45.263517
-50.588699 -76.376331 46.163337
-51.299593 -75.66571 45.673807
-50.749233 -64.599724 48.993544
-49.922516 -64.912437 48.746234
-56.047973 -70.419373 40.107435
-55.955708 -70.435005 41.295302
-56.047973 -70.419373 40.107435
-56.698227 -69.581253 39.589621
-40.174759 -71.47712 48.171463
-39.420581 -70.347611 48.020481
-40.384213 -70.133446 47.946201
-41.740261 -77.471562 49.113428
-40.771292 -77.744553 49.162296
-41.09176 -76.410213 49.007075
-47.481318 -77.117324 48.222492
-47.900867 -75.978935 48.331135
-48.35034 -76.635627 48.012664
-46.620399 -77.648285 48.500954
-47.481318 -77.117324 48.222492
-45.708349 -78.083508 48.667172
-46.119795 -76.895855 48.70718
-46.620399 -77.648285 48.500954
-44.812251 -78.569623 48.881479
-45.708349 -78.083508 48.667172
-57.138027 -61.891428 49.133438
-56.587612 -62.516089 49.151367
-56.681229 -61.497269 49.644543
-57.600006 -62.178917 48.54093
-57.138027 -61.891428 49.133438
-57.693623 -61.160097 49.034105
-53.727821 -63.042917 49.706533
-53.009666 -63.425356 49.515175
-54.38384 -62.556326 49.792318
-55.037515 -62.139688 49.924413
-54.273962 -63.695156 49.508945
-53.727821 -63.042917 49.706533
-54.38384 -62.556326 49.792318
-58.009212 -67.929234 38.679066
-58.489036 -67.130047 39.528996
-41.337955 -69.924759 47.881785
-40.384213 -70.133446 47.946201
-42.11343 -71.030716 48.083379
-41.337955 -69.924759 47.881785
-42.312995 -69.69252 47.867981
-48.745683 -77.197495 47.570397
-48.35034 -76.635627 48.012664
-49.165233 -76.059105 47.679039
-48.745683 -77.197495 47.570397
-49.070564 -77.670517 46.990078
-54.573014 -71.973328 43.366791
-54.415278 -71.822075 44.368227
-55.186352 -71.160881 42.856751
-54.573014 -71.973328 43.366791
-55.782463 -70.365616 42.433621
-55.186352 -71.160881 42.856751
-55.626621 -70.264031 43.511524
-56.395977 -69.538155 41.950075
-55.955708 -70.435005 41.295302
-55.782463 -70.365616 42.433621
-58.89867 -66.251602 40.3474
-58.489036 -67.130047 39.528996
-58.241146 -67.070797 40.742714
-59.537249 -65.431473 40.021919
-58.89867 -66.251602 40.3474
-59.289358 -65.372223 41.235637
-60.21522 -64.629151 39.677219
-59.537249 -65.431473 40.021919
-60.864852 -63.816864 39.388521
-60.21522 -64.629151 39.677219
-60.57757 -63.739807 40.621458
-61.540022 -63.031672 39.089556
-60.864852 -63.816864 39.388521
-62.173051 -62.226373 38.828011
-61.540022 -63.031672 39.089556
-61.860233 -62.122223 40.071214
-62.807129 -61.45198 38.56324
-62.173051 -62.226373 38.828011
-45.728684 -63.751053 47.783153
-44.809231 -63.973963 47.602741
-46.541207 -64.80072 47.972824
-45.728684 -63.751053 47.783153
-46.639595 -63.49971 47.985089
-48.32529 -64.269615 48.412577
-47.540397 -63.262341 48.234314
-48.219261 -65.536407 48.334762
-48.32529 -64.269615 48.412577
-49.092433 -65.256645 48.57258
-51.521476 -64.210175 49.154139
-52.296222 -63.862444 49.385227
-51.418812 -65.445472 49.00267
-50.749233 -64.599724 48.993544
-51.521476 -64.210175 49.154139
-53.146423 -73.305561 45.230975
-52.887802 -73.003647 46.046259
-53.541424 -72.28294 45.617085
-52.671701 -74.242333 44.749947
-53.146423 -73.305561 45.230975
-57.329372 -68.752102 39.145897
-58.009212 -67.929234 38.679066
-38.496279 -70.551548 48.182516
-39.420581 -70.347611 48.020481
-37.563367 -70.752922 48.328507
-38.496279 -70.551548 48.182516
-38.278217 -71.892658 48.391734
-36.68684 -70.95816 48.595856
-37.563367 -70.752922 48.328507
-36.460413 -72.286797 48.76299
-36.68684 -70.95816 48.595856
-36.227144 -73.645962 48.976681
-36.460413 -72.286797 48.76299
-37.112037 -73.453198 48.751416
-35.996212 -74.989853 49.128187
-36.227144 -73.645962 48.976681
-36.631315 -76.179276 49.118786
-35.996212 -74.989853 49.128187
-36.631315 -76.179276 49.118786
-37.549137 -75.983116 49.059637
-39.171148 -76.918537 49.105055
-38.479793 -75.783249 48.946573
-39.431437 -75.547916 48.897461
-39.171148 -76.918537 49.105055
-39.821462 -78.043095 49.199067
-44.694277 -65.281421 47.630392
-44.809231 -63.973963 47.602741
-44.564398 -66.587967 47.687605
-44.694277 -65.281421 47.630392
-45.500416 -66.358609 47.828102
-44.417341 -67.905338 47.796362
-44.564398 -66.587967 47.687605
-44.242956 -69.21521 47.921564
-44.417341 -67.905338 47.796362
-45.196152 -68.975026 48.010517
-44.055118 -70.541687 48.102648
-43.276308 -69.472 47.888492
-44.242956 -69.21521 47.921564
-42.693638 -77.125152 49.036729
-43.029347 -75.826874 48.900583
-43.662255 -76.814804 48.979107
-41.740261 -77.471562 49.113428
-42.693638 -77.125152 49.036729
-44.267145 -77.722081 48.994326
-44.812251 -78.569623 48.881479
-58.223806 -58.402082 49.87849
-57.767822 -59.180909 49.935221
-58.79467 -58.568951 49.374534
-58.223806 -58.402082 49.87849
-59.289015 -58.785193 48.716106
-58.767931 -59.622022 48.834907
-58.79467 -58.568951 49.374534
-59.822693 -58.972202 48.00514
-59.289015 -58.785193 48.716106
-60.283981 -59.175879 47.154144
-59.723564 -60.041941 47.325483
-59.822693 -58.972202 48.00514
-60.769649 -59.373949 46.263771
-60.283981 -59.175879 47.154144
-61.192051 -59.566097 45.255936
-60.607254 -60.437765 45.466652
-60.769649 -59.373949 46.263771
-61.625835 -59.770762 44.223179
-61.192051 -59.566097 45.255936
-62.009808 -59.951006 43.099426
-61.413628 -60.810158 43.335064
-61.625835 -59.770762 44.223179
-62.391579 -60.155822 41.963699
-62.009808 -59.951006 43.099426
-62.73941 -60.319084 40.762878
-62.145432 -61.153664 41.01049
-62.391579 -60.155822 41.963699
-63.070656 -60.512619 39.559539
-62.73941 -60.319084 40.762878
-63.316803 -59.514778 40.512749
-63.384522 -60.647674 38.313111
-62.807129 -61.45198 38.56324
-63.070656 -60.512619 39.559539
-64.127979 -58.896248 39.051014
-63.845688 -58.67276 40.249285
-63.931248 -59.873209 38.065784
-64.127979 -58.896248 39.051014
-63.384522 -60.647674 38.313111
-63.931248 -59.873209 38.065784
3 84 83 21
3 0 25 23
3 2 28 26
3 2 30 28
3 0 33 31
3 0 23 33
3 1 85 87
3 87 86 35
3 85 86 87
3 4 38 36
3 4 40 38
3 3 43 41
3 5 47 45
3 7 88 90
3 88 48 89
3 88 89 90
3 7 49 48
3 5 91 93
3 91 50 92
3 91 92 93
3 5 45 50
3 94 51 95
3 9 54 52
3 96 55 97
3 98 97 22
3 96 97 98
3 100 99 55
3 11 101 103
3 101 56 102
3 101 102 103
3 12 57 24
3 12 58 57
3 6 59 46
3 13 60 27
3 13 61 60
3 13 62 61
3 14 63 29
3 14 64 63
3 104 66 105
3 16 106 108
3 106 67 107
3 106 107 108
3 16 68 67
3 8 109 111
3 109 69 110
3 109 110 111
3 17 70 32
3 17 71 70
3 17 72 71
3 11 73 34
3 11 112 114
3 114 113 73
3 112 113 114
3 18 74 37
3 18 75 74
3 18 115 117
3 117 116 75
3 115 116 117
3 119 118 39
3 15 76 65
3 19 77 42
3 19 78 77
3 10 79 53
3 20 80 44
3 20 81 80
3 20 120 122
3 122 121 81
3 120 121 122
3 123 82 124
3 126 125 5
3 127 7 128
3 129 5 130
3 21 22 9
3 131 22 132
3 133 132 21
3 131 132 133
3 135 134 22
3 23 24 11
3 25 24 23
3 25 12 24
3 26 27 6
3 28 27 26
3 28 13 27
3 28 29 13
3 30 29 28
3 30 14 29
3 136 16 137
3 31 32 8
3 33 32 31
3 33 17 32
3 33 34 17
3 23 34 33
3 23 11 34
3 35 138 139
3 141 140 35
3 36 142 144
3 142 37 143
3 142 143 144
3 38 37 36
3 38 18 37
3 38 39 18
3 40 39 38
3 40 145 147
3 147 146 39
3 145 146 147
3 41 42 15
3 43 42 41
3 43 19 42
3 148 44 149
3 150 149 10
3 148 149 150
3 151 44 152
3 153 20 154
3 155 154 44
3 153 154 155
3 157 156 20
3 45 46 0
3 47 46 45
3 47 6 46
3 158 47 159
3 160 159 5
3 158 159 160
3 48 161 163
3 161 47 162
3 161 162 163
3 48 6 47
3 48 26 6
3 49 26 48
3 49 2 26
3 164 8 165
3 50 166 167
3 50 168 170
3 168 8 169
3 168 169 170
3 50 31 8
3 45 31 50
3 45 0 31
3 172 171 1
3 173 36 174
3 51 175 177
3 175 36 176
3 175 176 177
3 51 4 36
3 52 53 3
3 54 53 52
3 54 10 53
3 22 54 9
3 55 54 22
3 55 10 54
3 55 178 180
3 180 179 10
3 178 179 180
3 182 181 55
3 56 183 184
3 56 185 186
3 24 56 11
3 57 56 24
3 57 187 189
3 189 188 56
3 187 188 189
3 57 190 192
3 190 35 191
3 190 191 192
3 58 35 57
3 58 1 35
3 46 25 0
3 59 25 46
3 59 12 25
3 27 59 6
3 60 59 27
3 60 12 59
3 60 58 12
3 61 58 60
3 61 1 58
3 61 193 195
3 195 194 1
3 193 194 195
3 62 196 198
3 198 197 61
3 196 197 198
3 62 199 200
3 29 62 13
3 63 62 29
3 63 201 203
3 203 202 62
3 201 202 203
3 63 204 205
3 64 206 208
3 208 207 63
3 206 207 208
3 64 209 210
3 211 65 212
3 66 213 215
3 213 65 214
3 213 214 215
3 66 15 65
3 216 66 217
3 67 218 220
3 218 66 219
3 218 219 220
3 67 15 66
3 67 41 15
3 68 41 67
3 68 3 41
3 69 221 222
3 69 223 225
3 223 16 224
3 223 224 225
3 32 69 8
3 70 69 32
3 70 16 69
3 70 68 16
3 71 68 70
3 71 3 68
3 71 52 3
3 72 52 71
3 72 9 52
3 34 72 17
3 73 72 34
3 73 9 72
3 73 21 9
3 226 21 227
3 228 227 73
3 226 227 228
3 230 229 21
3 232 231 1
3 37 233 234
3 74 235 237
3 237 236 37
3 235 236 237
3 74 238 239
3 74 240 241
3 75 242 244
3 244 243 74
3 242 243 244
3 75 245 246
3 75 247 248
3 250 249 75
3 39 251 253
3 253 252 18
3 251 252 253
3 255 254 39
3 65 256 257
3 76 258 260
3 260 259 65
3 258 259 260
3 76 261 262
3 42 76 15
3 77 76 42
3 77 263 265
3 265 264 76
3 263 264 265
3 77 266 268
3 266 51 267
3 266 267 268
3 78 51 77
3 78 4 51
3 53 43 3
3 79 43 53
3 79 19 43
3 44 79 10
3 80 79 44
3 80 19 79
3 80 78 19
3 81 78 80
3 81 4 78
3 81 40 4
3 269 40 270
3 271 270 81
3 269 270 271
3 273 272 40
3 275 274 20
3 276 7 277
3 278 7 279
3 280 49 281
3 282 281 7
3 280 281 282
3 283 49 284
3 285 2 286
3 287 286 49
3 285 286 287
3 288 2 289
3 290 30 291
3 292 291 2
3 290 291 292
3 293 30 294
3 295 14 296
3 297 296 30
3 295 296 297
3 298 14 299
3 300 64 301
3 302 301 14
3 300 301 302
3 82 303 305
3 303 64 304
3 303 304 305
3 82 306 308
3 308 307 64
3 306 307 308
3 309 82 310
3 311 82 312
3 314 313 82
