ply
format ascii 1.0
element vertex 157
property float x
property float y
property float z
element face 113
property list uchar int vertex_index
end_header
59.462536 8.458462 34.711159
56.403816 14.884102 22.706341
55.114471 11.235775 35.914516
62.236992 10.235237 25.926136
58.622139 11.110453 30.974552
53.016884 9.796719 42.724068
54.414406 9.765585 40.286648
56.822201 14.01693 24.783215
59.417591 12.547087 24.368576
61.817131 11.023197 23.91824
59.948051 11.741779 26.435162
57.488129 9.883509 35.384319
56.827503 11.222994 33.462395
59.141457 9.87401 32.899769
56.155922 15.789745 20.690254
54.209206 12.54257 33.893112
60.447151 10.807039 28.452972
62.527618 9.269588 27.870754
53.358482 8.994208 43.640652
52.362454 9.87424 43.93974
54.036426 8.993738 42.418037
53.358482 8.994208 43.640652
58.396206 12.841815 25.624737
58.119896 13.282008 24.575896
57.098511 13.576736 25.832057
58.661436 12.439161 26.65803
59.682821 12.144433 25.401869
58.396206 12.841815 25.624737
60.247892 8.422771 33.464821
60.087353 9.130546 32.559126
59.301997 9.166236 33.805464
55.160515 9.791739 39.064892
55.440269 9.021006 39.971336
57.45845 14.445994 21.47717
57.334503 14.898815 20.469127
56.279869 15.336924 21.698297
63.075767 9.787498 24.690447
62.865837 10.181477 23.686499
62.027062 10.629217 24.922188
63.197452 9.382168 25.660125
63.075767 9.787498 24.690447
54.661839 11.889173 34.903814
53.35078 12.587706 35.10199
53.803413 11.934309 36.112691
57.343266 11.767088 31.210449
56.445948 11.823359 32.45437
57.724821 11.166723 32.218474
58.311933 11.647874 29.966096
57.343266 11.767088 31.210449
59.534645 10.958746 29.713762
59.22444 11.496167 28.705306
58.311933 11.647874 29.966096
62.575384 8.681623 28.798656
61.681854 9.483291 29.129707
63.360382 8.389861 27.571506
62.575384 8.681623 28.798656
51.87867 10.659838 42.961563
52.362454 9.87424 43.93974
52.538153 10.557861 41.746598
51.87867 10.659838 42.961563
53.715645 9.781152 41.505358
53.236914 10.542295 40.527887
52.538153 10.557861 41.746598
54.735187 8.978172 41.199327
53.715645 9.781152 41.505358
54.036426 8.993738 42.418037
55.440269 9.021006 39.971336
54.735187 8.978172 41.199327
57.872473 13.649493 23.537884
57.66328 14.083078 22.499447
56.613008 14.450516 23.744778
59.170168 12.914571 23.330565
57.872473 13.649493 23.537884
58.119896 13.282008 24.575896
60.375045 12.116407 23.124742
59.170168 12.914571 23.330565
60.617361 11.785142 24.143408
61.574815 11.354461 22.899574
60.375045 12.116407 23.124742
59.988774 9.785502 31.644215
59.729114 10.403723 30.681606
58.881798 10.492231 31.93716
59.988774 9.785502 31.644215
60.087353 9.130546 32.559126
55.029949 16.762524 20.935855
56.123407 16.280387 19.729827
55.038679 16.201124 21.909959
55.029949 16.762524 20.935855
55.162626 15.748303 22.918003
56.279869 15.336924 21.698297
55.038679 16.201124 21.909959
55.290916 15.222511 23.936817
55.162626 15.748303 22.918003
55.500109 14.788926 24.975254
56.613008 14.450516 23.744778
55.290916 15.222511 23.936817
55.738863 14.280853 26.021418
55.500109 14.788926 24.975254
57.098511 13.576736 25.832057
55.738863 14.280853 26.021418
54.316532 11.238501 37.129476
53.803413 11.934309 36.112691
53.966499 10.503407 39.315542
53.236914 10.542295 40.527887
53.966499 10.503407 39.315542
55.160515 9.791739 39.064892
55.510548 10.526834 36.878826
54.316532 11.238501 37.129476
56.697377 9.850701 36.613727
56.3013 10.559642 35.649417
55.510548 10.526834 36.878826
57.712029 9.137773 36.287344
56.697377 9.850701 36.613727
58.699232 8.42525 35.950764
58.475333 9.170986 35.047739
57.712029 9.137773 36.287344
57.187069 15.283445 19.481949
56.123407 16.280387 19.729827
57.187069 15.283445 19.481949
57.334503 14.898815 20.469127
57.45845 14.445994 21.47717
57.66328 14.083078 22.499447
62.666168 10.50244 22.69957
61.574815 11.354461 22.899574
62.666168 10.50244 22.69957
62.865837 10.181477 23.686499
52.837632 13.252792 34.05423
53.35078 12.587706 35.10199
53.761106 13.152888 32.850598
52.837632 13.252792 34.05423
55.136799 12.483147 32.669729
55.518355 11.882782 33.677754
56.445948 11.823359 32.45437
53.761106 13.152888 32.850598
55.136799 12.483147 32.669729
58.97489 11.963537 27.696401
58.661436 12.439161 26.65803
60.197601 11.274409 27.444067
58.97489 11.963537 27.696401
59.22444 11.496167 28.705306
60.641621 10.252016 29.420816
59.534645 10.958746 29.713762
59.729114 10.403723 30.681606
61.487384 10.038314 28.161863
60.641621 10.252016 29.420816
61.681854 9.483291 29.129707
63.342765 8.899344 26.632435
63.197452 9.382168 25.660125
62.382305 9.752413 26.898445
63.342765 8.899344 26.632435
63.360382 8.389861 27.571506
59.481192 7.662554 35.554165
58.699232 8.42525 35.950764
60.214367 7.667637 34.320875
59.481192 7.662554 35.554165
60.247892 8.422771 33.464821
60.214367 7.667637 34.320875
3 18 5 19
3 21 20 5
3 22 8 23
3 24 23 7
3 22 23 24
3 25 10 26
3 27 26 8
3 25 26 27
3 0 13 11
3 0 28 30
3 30 29 13
3 28 29 30
3 32 31 6
3 1 33 35
3 35 34 14
3 33 34 35
3 3 36 38
3 38 37 9
3 36 37 38
3 3 39 40
3 2 41 43
3 41 15 42
3 41 42 43
3 4 44 46
3 46 45 12
3 44 45 46
3 4 47 48
3 4 49 51
3 49 16 50
3 49 50 51
3 52 17 53
3 55 54 17
3 5 56 57
3 5 58 59
3 5 60 62
3 60 6 61
3 60 61 62
3 63 6 64
3 65 64 5
3 63 64 65
3 67 66 6
3 7 68 70
3 70 69 1
3 68 69 70
3 8 71 73
3 73 72 7
3 71 72 73
3 8 74 75
3 8 76 78
3 76 9 77
3 76 77 78
3 10 9 8
3 10 3 9
3 11 12 2
3 13 12 11
3 13 4 12
3 13 79 81
3 81 80 4
3 79 80 81
3 83 82 13
3 84 14 85
3 86 14 87
3 88 1 89
3 90 89 14
3 88 89 90
3 91 1 92
3 93 7 94
3 95 94 1
3 93 94 95
3 96 7 97
3 99 98 7
3 100 2 101
3 6 102 103
3 105 104 6
3 106 2 107
3 108 11 109
3 110 109 2
3 108 109 110
3 111 11 112
3 113 0 114
3 115 114 11
3 113 114 115
3 14 116 117
3 119 118 14
3 121 120 1
3 9 122 123
3 125 124 9
3 15 126 127
3 15 128 129
3 12 15 2
3 130 15 131
3 132 131 12
3 130 131 132
3 134 133 15
3 135 10 136
3 16 137 139
3 137 10 138
3 137 138 139
3 16 3 10
3 140 16 141
3 142 141 4
3 140 141 142
3 17 143 145
3 143 16 144
3 143 144 145
3 17 3 16
3 17 146 148
3 148 147 3
3 146 147 148
3 150 149 17
3 151 0 152
3 153 0 154
3 156 155 0
