ply
format ascii 1.0
element vertex 477
property float x
property float y
property float z
element face 521
property list uchar int vertex_index
end_header
55.463177 15.703011 -42.721413
36.820679 15.66938 -54.796257
53.287331 -1.474695 -54.474251
41.224079 19.465435 -46.529991
46.45512 18.670467 -51.198868
44.132927 9.824764 -57.295509
53.903431 9.561432 -51.073845
33.927593 14.529316 -46.44162
30.715204 7.445829 -51.711998
61.158287 4.898516 -41.802475
52.640049 18.416595 -42.03231
48.27002 20.022552 -46.282578
51.278419 17.87149 -47.359055
50.002312 14.938248 -51.713982
54.601601 13.550018 -47.498169
38.864014 18.677063 -51.263313
37.155987 17.631283 -47.287941
34.889 15.691254 -51.302261
32.097145 11.566607 -49.715897
33.109623 12.046621 -54.015938
32.105373 7.158064 -55.175423
48.719765 4.675463 -56.479866
62.880089 1.194704 -36.798134
61.490303 1.034113 -44.720482
64.561813 -6.27311 -41.986435
45.607384 19.799591 -44.217384
43.51886 20.155529 -49.502945
41.450645 17.938164 -53.808388
39.998867 13.659359 -56.770905
44.968361 14.985832 -54.956711
49.103928 10.260916 -54.799454
53.444496 4.328398 -53.42495
35.78706 16.329273 -42.192223
33.085651 13.797276 -40.870483
31.86293 10.649324 -44.329636
30.705776 6.854094 -46.961418
58.724457 12.437592 -37.63102
60.861244 7.378521 -37.604462
58.311546 10.949835 -42.70826
58.078423 7.748055 -46.621788
57.839897 3.110346 -49.324249
57.59901 -2.498753 -50.994232
57.38308 -8.521705 -51.504974
54.048161 17.357162 -42.455193
51.974876 18.46838 -44.783745
53.473598 16.943413 -45.115555
52.908836 15.940781 -47.549759
55.015968 14.885284 -45.245506
37.76226 17.427631 -53.200745
36.755638 17.355274 -51.501892
35.699547 15.905251 -53.239128
33.90963 14.06031 -52.839272
34.820721 14.008247 -54.621407
34.152336 11.747091 -55.618629
36.08614 13.492607 -56.018044
51.03336 1.716736 -55.61364
64.331848 -3.91384 -41.070183
47.760895 19.411366 -42.578003
47.352707 19.676262 -48.861534
45.916142 20.286137 -48.04969
44.901314 19.714935 -50.503265
42.437408 19.352623 -51.805496
43.942211 18.500267 -52.685204
43.107433 16.722572 -54.550728
45.643669 17.073074 -53.242126
51.928349 12.413734 -51.537636
49.493576 12.766054 -53.422287
51.551708 10.052286 -53.057121
51.273399 7.419935 -54.256798
53.637268 7.057232 -52.39994
42.281376 19.041496 -43.832535
40.231503 18.668766 -44.552048
35.40881 16.212788 -47.052704
36.475689 16.891994 -44.837578
34.889233 15.558075 -44.419525
34.326057 15.155827 -41.661079
33.554138 14.001953 -43.679497
32.484642 12.293352 -42.680779
32.74398 12.649817 -45.51046
31.336624 9.636438 -50.89109
31.228008 9.24662 -48.44899
30.596498 7.195215 -49.472313
30.068111 4.937284 -50.149704
33.448647 6.481318 -56.348587
41.977047 11.937529 -57.207985
39.587009 11.030558 -57.663841
62.189564 3.137457 -39.316963
61.877476 4.385962 -37.312279
60.968559 6.311493 -39.867073
59.735619 9.266687 -40.184494
59.738594 8.044609 -42.376617
58.185261 9.548403 -44.825401
59.78009 6.444199 -44.243179
61.530548 -1.391504 -45.784859
59.789127 2.179686 -47.059135
59.718067 -0.410477 -48.083168
57.712898 0.391027 -50.285378
59.609344 -3.226766 -48.887367
51.235184 18.846653 -41.450874
49.124985 19.684284 -43.531723
50.525932 19.388664 -44.258499
49.728577 19.252327 -46.936417
48.920998 18.455372 -49.404633
48.165421 17.053505 -51.601128
50.607323 16.671108 -49.68502
52.386864 14.406391 -49.699959
54.228767 11.752665 -49.443085
40.050331 19.35915 -49.024551
39.116322 18.728493 -47.115387
37.924171 18.301743 -49.447372
35.996506 16.888046 -49.439491
34.331261 15.167034 -49.016258
32.975582 13.202538 -48.220047
33.32288 13.739437 -50.689835
32.444725 11.948536 -52.036926
31.732359 9.837938 -53.024147
31.195417 7.465124 -53.624138
32.509518 9.720861 -54.802071
46.400887 7.387678 -57.047318
63.395767 -0.195572 -38.530975
62.557957 1.572666 -40.984238
61.354561 3.138227 -43.409302
62.882423 -0.324629 -42.340576
63.088463 -2.557596 -43.437157
63.145119 -5.104816 -44.328941
43.409637 19.82267 -45.551254
46.90115 20.179138 -45.3843
44.60825 20.300816 -46.952721
42.302612 20.029385 -48.182076
41.143486 19.617832 -50.588539
40.032501 18.586018 -52.717079
39.052853 16.988991 -54.522369
38.262646 14.919903 -55.971001
40.624493 16.00214 -55.474243
42.444351 14.493557 -56.068504
44.46072 12.529043 -56.317711
47.508652 15.133537 -53.485855
46.984932 12.805048 -55.03653
46.614357 10.185898 -56.233788
48.846535 7.531567 -55.829567
51.10276 4.613655 -55.121399
53.331856 1.460661 -54.130806
54.580177 17.143421 -39.653374
55.917496 15.956398 -39.995682
38.275017 17.943718 -44.888588
37.445938 17.257366 -42.411667
36.551556 16.911022 -39.797813
35.001987 16.163242 -39.490479
33.623028 15.200073 -38.934555
32.063198 12.320753 -39.884071
31.953182 11.067976 -47.114471
31.260468 8.839733 -45.772797
37.691147 12.490171 -57.029457
57.566414 14.306339 -37.442284
57.217533 14.187481 -40.216034
61.712547 5.328056 -34.98423
59.816467 10.09411 -37.698418
58.487526 11.923822 -40.290108
56.884911 13.534378 -42.81443
56.591358 12.38883 -45.155357
56.333508 10.792267 -47.191437
56.099785 8.791172 -48.911583
59.808025 4.480104 -45.792442
57.965431 5.584896 -48.111191
55.887409 6.445086 -50.330322
55.70599 3.826534 -51.467545
55.569656 1.015619 -52.327225
55.482262 -1.91095 -52.885445
57.49807 -5.488594 -51.419075
55.424698 -4.890806 -53.092682
52.162365 -1.343107 -55.077152
51.03538 0.252609 -55.646847
52.160346 0.12102 -55.043945
53.280938 -2.952037 -54.436371
52.162365 -1.343107 -55.077152
48.793045 19.047916 -41.632565
48.080723 18.735729 -41.139511
30.474806 6.242095 -51.933155
30.151259 4.987823 -51.152008
30.391658 6.191556 -50.930851
33.409384 5.051362 -56.201015
34.3126 5.958951 -56.74263
42.919689 9.498727 -57.61425
41.841749 10.555109 -57.570488
43.054987 10.881146 -57.251747
60.596445 -2.25188 -47.363751
60.624308 -0.900991 -46.934013
61.502685 -2.742394 -46.214596
60.542084 -3.660025 -47.76585
59.663705 -1.818621 -48.485267
60.596445 -2.25188 -47.363751
33.926155 10.478834 -55.910091
34.864027 11.373429 -56.226391
47.52496 4.588295 -56.956696
46.365521 5.944403 -57.240421
47.560326 6.03157 -56.763592
63.65712 -1.042631 -39.234905
63.986103 -1.920871 -38.02872
63.238214 -0.158512 -40.461536
62.976862 0.688547 -39.757606
63.65712 -1.042631 -39.234905
63.400447 -1.10716 -41.139705
62.72019 0.624018 -41.662407
63.238214 -0.158512 -40.461536
44.984457 19.427519 -43.486599
46.011801 19.260214 -42.789932
44.50851 19.81113 -44.884319
43.885583 19.439059 -44.153534
44.984457 19.427519 -43.486599
55.453373 16.375771 -38.408524
54.787071 16.714832 -38.23021
56.122033 15.782259 -38.579678
55.248836 16.549909 -39.824528
55.453373 16.375771 -38.408524
32.753818 13.938494 -39.526329
33.022507 14.639893 -38.558365
33.354339 14.498674 -39.902519
32.574424 13.059014 -40.377277
32.242592 13.200233 -39.033123
32.753818 13.938494 -39.526329
31.765105 10.576966 -42.911716
32.075961 11.39898 -42.087288
32.173786 11.471338 -43.505207
31.56184 9.625551 -43.650341
31.765105 10.576966 -42.911716
30.785715 6.722265 -45.61259
31.063061 7.715085 -45.01828
30.983122 7.846914 -46.367108
30.599915 5.656254 -46.138451
30.785715 6.722265 -45.61259
31.464792 6.023449 -54.498352
31.009814 6.176979 -53.72271
31.650395 7.311594 -54.399781
38.463645 10.420903 -57.664005
39.482994 9.627532 -57.89003
58.145436 13.371965 -37.536652
58.280476 13.377045 -36.133656
58.859497 12.442672 -36.228023
62.688439 1.752229 -35.761265
63.073548 0.152507 -35.526554
60.874437 7.733313 -36.332168
61.300089 6.708081 -35.022053
61.286895 6.353288 -36.294346
60.338856 8.736315 -37.65144
60.352049 9.091108 -36.379146
60.874437 7.733313 -36.332168
57.440575 -7.005149 -51.462024
58.408066 -7.373261 -50.595012
58.350571 -8.889816 -50.637962
56.367296 -8.202001 -52.197998
55.388105 -6.386551 -52.991852
56.403889 -6.706256 -52.298828
35.830929 12.246187 -56.426098
34.864027 11.373429 -56.226391
35.119238 12.619849 -55.818337
49.868203 1.741682 -56.157638
48.711405 3.221045 -56.590751
49.876563 3.196099 -56.046753
49.868203 1.741682 -56.157638
51.03538 0.252609 -55.646847
64.773033 -4.68714 -39.885796
64.12516 -2.901765 -40.504509
64.999561 -5.762107 -40.357804
64.773033 -4.68714 -39.885796
65.114543 -6.941743 -40.815929
64.446831 -5.093475 -41.528309
64.999561 -5.762107 -40.357804
47.088556 19.066102 -41.970242
48.080723 18.735729 -41.139511
46.68414 19.605479 -43.397694
46.011801 19.260214 -42.789932
47.088556 19.066102 -41.970242
41.72686 18.624136 -42.820442
42.703574 18.614576 -42.410282
40.701923 18.437771 -43.180199
41.72686 18.624136 -42.820442
41.256439 18.855131 -44.192291
39.745514 18.280915 -43.419468
40.701923 18.437771 -43.180199
30.404418 5.9455 -48.660691
30.459057 5.77494 -47.405243
30.651137 7.024655 -48.216865
30.140224 4.816535 -48.999386
30.404418 5.9455 -48.660691
30.332304 6.066249 -49.811008
29.924545 3.658028 -49.274876
30.140224 4.816535 -48.999386
29.853748 3.720483 -50.304837
29.924545 3.658028 -49.274876
29.853748 3.720483 -50.304837
30.151259 4.987823 -51.152008
32.663218 5.452343 -55.737236
31.991582 5.790716 -55.150654
32.77701 6.819691 -55.762005
32.663218 5.452343 -55.737236
33.409384 5.051362 -56.201015
40.64673 10.101623 -57.798416
40.782028 11.484043 -57.435913
41.841749 10.555109 -57.570488
39.482994 9.627532 -57.89003
40.64673 10.101623 -57.798416
59.357975 11.466609 -36.311363
58.859497 12.442672 -36.228023
58.239666 -10.436723 -50.628254
58.350571 -8.889816 -50.637962
57.291724 -10.040396 -51.350143
58.239666 -10.436723 -50.628254
50.180084 19.265469 -42.491298
49.47509 19.184376 -42.109425
50.530189 18.76556 -41.069
33.104746 9.465719 -55.501812
33.330927 10.733976 -55.21035
33.926155 10.478834 -55.910091
32.902673 8.184321 -55.688488
32.307446 8.439462 -54.988747
33.104746 9.465719 -55.501812
33.57431 7.845948 -56.27507
32.77701 6.819691 -55.762005
32.902673 8.184321 -55.688488
34.364697 7.384766 -56.781582
33.57431 7.845948 -56.27507
34.3126 5.958951 -56.74263
34.364697 7.384766 -56.781582
45.188993 7.183663 -57.449028
44.055014 8.402207 -57.573124
45.266907 8.606221 -57.171413
45.188993 7.183663 -57.449028
46.365521 5.944403 -57.240421
47.52496 4.588295 -56.956696
48.711405 3.221045 -56.590751
63.378456 -0.471018 -36.428055
63.073548 0.152507 -35.526554
63.636295 -1.166156 -37.294475
63.986103 -1.920871 -38.02872
63.137928 0.499566 -37.664554
63.378456 -0.471018 -36.428055
63.636295 -1.166156 -37.294475
63.607135 -2.119235 -41.705379
63.400447 -1.10716 -41.139705
64.12516 -2.901765 -40.504509
62.309971 -4.59905 -45.486637
61.502685 -2.742394 -46.214596
62.337834 -3.24816 -45.0569
43.321453 19.048471 -43.294174
42.703574 18.614576 -42.410282
42.845506 19.432083 -44.691895
43.321453 19.048471 -43.294174
43.885583 19.439059 -44.153534
48.44294 19.547825 -43.054863
48.793045 19.047916 -41.632565
49.47509 19.184376 -42.109425
51.501005 18.249077 -40.024192
50.530189 18.76556 -41.069
52.217014 18.274161 -40.322468
51.501005 18.249077 -40.024192
52.919447 18.059131 -40.613186
51.937616 18.631624 -41.741592
52.217014 18.274161 -40.322468
53.889511 17.422545 -39.423717
54.787071 16.714832 -38.23021
53.610113 17.780008 -40.842842
52.919447 18.059131 -40.613186
53.889511 17.422545 -39.423717
38.767271 17.918391 -43.587738
39.745514 18.280915 -43.419468
39.25326 18.306242 -44.720318
38.352731 17.575215 -42.349277
38.767271 17.918391 -43.587738
37.860478 17.600542 -43.650127
37.844167 17.326777 -41.114795
38.352731 17.575215 -42.349277
37.396976 17.153605 -39.807868
37.844167 17.326777 -41.114795
36.998747 17.084194 -41.10474
36.840807 17.151733 -38.53614
37.396976 17.153605 -39.807868
36.043762 17.001249 -38.498706
36.840807 17.151733 -38.53614
35.268978 16.627359 -38.345039
36.043762 17.001249 -38.498706
35.776771 16.537132 -39.644146
34.53154 16.356793 -38.195377
35.268978 16.627359 -38.345039
33.84206 15.875208 -37.917416
34.53154 16.356793 -38.195377
34.312507 15.681658 -39.212517
33.171902 15.507641 -37.674294
33.84206 15.875208 -37.917416
33.171902 15.507641 -37.674294
33.022507 14.639893 -38.558365
31.722706 12.592828 -38.587143
32.242592 13.200233 -39.033123
31.64669 11.55696 -39.324783
31.722706 12.592828 -38.587143
31.865239 11.412681 -40.688934
32.27392 12.307053 -41.282425
32.075961 11.39898 -42.087288
31.64669 11.55696 -39.324783
31.865239 11.412681 -40.688934
31.260609 8.720755 -44.371921
31.56184 9.625551 -43.650341
31.561699 9.744529 -45.051216
31.260609 8.720755 -44.371921
31.063061 7.715085 -45.01828
30.599915 5.656254 -46.138451
30.459057 5.77494 -47.405243
30.714912 6.251743 -52.889225
30.474806 6.242095 -51.933155
30.95531 7.455476 -52.668068
30.714912 6.251743 -52.889225
31.009814 6.176979 -53.72271
31.464792 6.023449 -54.498352
31.991582 5.790716 -55.150654
36.633432 11.744969 -56.931804
35.830929 12.246187 -56.426098
36.888644 12.991389 -56.523751
37.515715 11.15071 -57.346813
38.639078 11.760364 -57.346649
38.463645 10.420903 -57.664005
36.633432 11.744969 -56.931804
37.515715 11.15071 -57.346813
42.919689 9.498727 -57.61425
44.055014 8.402207 -57.573124
57.719418 14.07782 -36.019989
58.280476 13.377045 -36.133656
56.946492 14.95723 -37.302979
57.719418 14.07782 -36.019989
56.741955 15.131369 -38.718983
56.122033 15.782259 -38.579678
56.946492 14.95723 -37.302979
62.187132 3.347857 -36.018338
62.688439 1.752229 -35.761265
62.378782 2.790333 -37.055206
62.104668 3.818905 -34.854313
62.187132 3.347857 -36.018338
61.795012 4.857009 -36.148254
62.024761 4.243603 -33.661243
62.104668 3.818905 -34.854313
61.725327 5.638454 -33.688236
62.024761 4.243603 -33.661243
61.725327 5.638454 -33.688236
61.300089 6.708081 -35.022053
59.90398 10.294868 -36.345062
60.352049 9.091108 -36.379146
59.270462 11.265851 -37.664719
59.357975 11.466609 -36.311363
59.90398 10.294868 -36.345062
65.215713 -8.185949 -41.204151
65.114543 -6.941743 -40.815929
64.574226 -7.608266 -42.363674
65.215713 -8.185949 -41.204151
63.865879 -7.024119 -43.534927
63.853466 -5.688963 -43.157688
64.574226 -7.608266 -42.363674
63.102402 -6.512022 -44.69104
63.865879 -7.024119 -43.534927
62.309971 -4.59905 -45.486637
63.102402 -6.512022 -44.69104
60.475696 -5.1174 -48.101104
60.542084 -3.660025 -47.76585
59.543497 -4.712467 -49.175365
60.475696 -5.1174 -48.101104
58.53833 -4.348461 -50.228798
58.604177 -2.86276 -49.940799
59.543497 -4.712467 -49.175365
58.48786 -5.843381 -50.44122
58.408066 -7.373261 -50.595012
57.54854 -3.993673 -51.206654
58.53833 -4.348461 -50.228798
58.48786 -5.843381 -50.44122
54.349621 -4.660093 -53.745587
53.280938 -2.952037 -54.436371
54.356015 -3.182751 -53.783467
54.349621 -4.660093 -53.745587
55.388105 -6.386551 -52.991852
56.367296 -8.202001 -52.197998
57.291724 -10.040396 -51.350143
3 0 45 43
3 0 47 45
3 1 50 48
3 1 52 50
3 1 54 52
3 2 170 172
3 172 171 55
3 170 171 172
3 2 173 174
3 175 57 176
3 4 60 58
3 4 62 60
3 4 64 62
3 6 67 65
3 6 69 67
3 3 71 70
3 7 74 72
3 7 76 74
3 7 78 76
3 8 81 79
3 8 82 81
3 8 177 179
3 179 178 82
3 177 178 179
3 181 180 83
3 5 182 184
3 184 183 84
3 182 183 184
3 9 88 86
3 9 90 88
3 9 92 90
3 185 95 186
3 187 186 93
3 185 186 187
3 188 97 189
3 190 189 95
3 188 189 190
3 10 100 98
3 12 101 44
3 12 102 101
3 12 104 102
3 14 105 46
3 14 106 105
3 15 109 107
3 17 110 49
3 17 111 110
3 17 113 111
3 19 114 51
3 19 115 114
3 19 117 115
3 192 191 53
3 21 193 195
3 195 194 118
3 193 194 195
3 196 119 197
3 198 120 199
3 200 199 119
3 198 199 200
3 201 122 202
3 203 202 120
3 201 202 203
3 24 123 56
3 24 124 123
3 25 204 205
3 25 206 208
3 206 125 207
3 206 207 208
3 11 126 99
3 26 127 59
3 26 128 127
3 26 129 128
3 27 130 61
3 27 131 130
3 27 133 131
3 29 134 63
3 29 135 134
3 13 136 103
3 30 137 66
3 30 138 137
3 30 139 138
3 31 140 68
3 31 141 140
3 209 142 210
3 211 143 212
3 213 212 142
3 211 212 213
3 16 144 108
3 32 145 73
3 32 146 145
3 32 147 146
3 33 148 75
3 33 214 216
3 216 215 148
3 214 215 216
3 33 217 219
3 217 149 218
3 217 218 219
3 34 220 222
3 222 221 77
3 220 221 222
3 34 223 224
3 18 150 112
3 35 151 80
3 35 225 227
3 227 226 151
3 225 226 227
3 35 228 229
3 20 230 232
3 232 231 116
3 230 231 232
3 28 152 132
3 234 233 85
3 36 235 237
3 235 153 236
3 235 236 237
3 36 154 153
3 22 238 239
3 37 155 87
3 37 240 242
3 242 241 155
3 240 241 242
3 37 243 245
3 243 156 244
3 243 244 245
3 38 157 89
3 38 158 157
3 38 159 158
3 39 160 91
3 39 161 160
3 23 162 121
3 40 163 94
3 40 164 163
3 40 165 164
3 41 166 96
3 41 167 166
3 42 246 248
3 246 168 247
3 246 247 248
3 42 169 168
3 42 249 251
3 251 250 169
3 249 250 251
3 43 44 10
3 45 44 43
3 45 12 44
3 45 46 12
3 47 46 45
3 47 14 46
3 48 49 15
3 50 49 48
3 50 17 49
3 50 51 17
3 52 51 50
3 52 19 51
3 52 53 19
3 54 53 52
3 54 252 254
3 254 253 53
3 252 253 254
3 55 255 257
3 257 256 21
3 255 256 257
3 259 258 55
3 260 56 261
3 262 56 263
3 264 24 265
3 266 265 56
3 264 265 266
3 57 267 268
3 57 269 271
3 269 25 270
3 269 270 271
3 58 59 11
3 60 59 58
3 60 26 59
3 60 61 26
3 62 61 60
3 62 27 61
3 62 63 27
3 64 63 62
3 64 29 63
3 65 66 13
3 67 66 65
3 67 30 66
3 67 68 30
3 69 68 67
3 69 31 68
3 70 272 273
3 71 274 276
3 276 275 70
3 274 275 276
3 71 277 278
3 72 73 16
3 74 73 72
3 74 32 73
3 74 75 32
3 76 75 74
3 76 33 75
3 76 77 33
3 78 77 76
3 78 34 77
3 79 80 18
3 81 80 79
3 81 35 80
3 81 279 281
3 281 280 35
3 279 280 281
3 82 282 284
3 284 283 81
3 282 283 284
3 82 285 286
3 82 287 288
3 290 289 82
3 83 291 293
3 293 292 20
3 291 292 293
3 295 294 83
3 84 85 28
3 296 85 297
3 298 297 84
3 296 297 298
3 300 299 85
3 301 36 302
3 86 87 22
3 88 87 86
3 88 37 87
3 88 89 37
3 90 89 88
3 90 38 89
3 90 91 38
3 92 91 90
3 92 39 91
3 93 94 23
3 95 94 93
3 95 40 94
3 95 96 40
3 97 96 95
3 97 41 96
3 303 42 304
3 306 305 42
3 98 307 309
3 307 99 308
3 307 308 309
3 100 99 98
3 100 11 99
3 44 100 10
3 101 100 44
3 101 11 100
3 101 58 11
3 102 58 101
3 102 4 58
3 102 103 4
3 104 103 102
3 104 13 103
3 46 104 12
3 105 104 46
3 105 13 104
3 105 65 13
3 106 65 105
3 106 6 65
3 107 108 3
3 109 108 107
3 109 16 108
3 49 109 15
3 110 109 49
3 110 16 109
3 110 72 16
3 111 72 110
3 111 7 72
3 111 112 7
3 113 112 111
3 113 18 112
3 51 113 17
3 114 113 51
3 114 18 113
3 114 79 18
3 115 79 114
3 115 8 79
3 115 116 8
3 117 116 115
3 117 20 116
3 53 117 19
3 310 117 311
3 312 311 53
3 310 311 312
3 313 20 314
3 315 314 117
3 313 314 315
3 316 83 317
3 318 317 20
3 316 317 318
3 319 83 320
3 322 321 83
3 118 323 325
3 325 324 5
3 323 324 325
3 327 326 118
3 329 328 21
3 330 22 331
3 119 332 333
3 119 334 336
3 334 22 335
3 334 335 336
3 119 86 22
3 120 86 119
3 120 9 86
3 120 121 9
3 122 121 120
3 122 23 121
3 56 337 339
3 337 122 338
3 337 338 339
3 123 122 56
3 123 23 122
3 123 93 23
3 124 93 123
3 124 340 342
3 342 341 93
3 340 341 342
3 343 70 344
3 125 345 347
3 345 70 346
3 345 346 347
3 125 3 70
3 99 348 350
3 348 57 349
3 348 349 350
3 126 57 99
3 126 25 57
3 59 126 11
3 127 126 59
3 127 25 126
3 127 125 25
3 128 125 127
3 128 3 125
3 128 107 3
3 129 107 128
3 129 15 107
3 61 129 26
3 130 129 61
3 130 15 129
3 130 48 15
3 131 48 130
3 131 1 48
3 131 132 1
3 133 132 131
3 133 28 132
3 63 133 27
3 134 133 63
3 134 28 133
3 134 84 28
3 135 84 134
3 135 5 84
3 103 64 4
3 136 64 103
3 136 29 64
3 66 136 13
3 137 136 66
3 137 29 136
3 137 135 29
3 138 135 137
3 138 5 135
3 138 118 5
3 139 118 138
3 139 21 118
3 68 139 30
3 140 139 68
3 140 21 139
3 140 55 21
3 141 55 140
3 141 2 55
3 351 98 352
3 353 98 354
3 355 10 356
3 357 356 98
3 355 356 357
3 142 358 359
3 142 360 362
3 360 10 361
3 360 361 362
3 142 43 10
3 143 43 142
3 143 0 43
3 108 71 3
3 144 71 108
3 144 363 365
3 365 364 71
3 363 364 365
3 73 144 16
3 145 144 73
3 145 366 368
3 368 367 144
3 366 367 368
3 145 369 370
3 146 371 373
3 373 372 145
3 371 372 373
3 146 374 375
3 146 376 377
3 147 378 380
3 380 379 146
3 378 379 380
3 147 381 382
3 75 147 32
3 148 147 75
3 148 383 385
3 385 384 147
3 383 384 385
3 148 386 387
3 389 388 148
3 149 390 391
3 149 392 393
3 77 149 33
3 394 149 395
3 396 395 77
3 394 395 396
3 398 397 149
3 112 78 7
3 150 78 112
3 150 34 78
3 80 150 18
3 151 150 80
3 151 34 150
3 151 399 401
3 401 400 34
3 399 400 401
3 403 402 151
3 405 404 35
3 116 406 408
3 408 407 8
3 406 407 408
3 410 409 116
3 412 411 20
3 132 54 1
3 152 54 132
3 152 413 415
3 415 414 54
3 413 414 415
3 85 152 28
3 416 152 417
3 418 417 85
3 416 417 418
3 420 419 152
3 422 421 5
3 153 423 424
3 153 425 426
3 153 427 429
3 427 143 428
3 427 428 429
3 154 143 153
3 154 0 143
3 87 430 432
3 432 431 22
3 430 431 432
3 155 433 435
3 435 434 87
3 433 434 435
3 155 436 437
3 155 438 439
3 441 440 155
3 156 442 443
3 156 444 446
3 444 36 445
3 444 445 446
3 89 156 37
3 157 156 89
3 157 36 156
3 157 154 36
3 158 154 157
3 158 0 154
3 158 47 0
3 159 47 158
3 159 14 47
3 91 159 38
3 160 159 91
3 160 14 159
3 160 106 14
3 161 106 160
3 161 6 106
3 121 92 9
3 162 92 121
3 162 39 92
3 94 162 23
3 163 162 94
3 163 39 162
3 163 161 39
3 164 161 163
3 164 6 161
3 164 69 6
3 165 69 164
3 165 31 69
3 96 165 40
3 166 165 96
3 166 31 165
3 166 141 31
3 167 141 166
3 167 2 141
3 447 24 448
3 449 24 450
3 451 124 452
3 453 452 24
3 451 452 453
3 454 124 455
3 457 456 124
3 458 97 459
3 460 97 461
3 462 41 463
3 464 463 97
3 462 463 464
3 168 465 466
3 168 467 469
3 467 41 468
3 467 468 469
3 168 167 41
3 169 167 168
3 169 2 167
3 169 470 472
3 472 471 2
3 470 471 472
3 474 473 169
3 476 475 42
