ply
format ascii 1.0
element vertex 83
property float x
property float y
property float z
element face 62
property list uchar int vertex_index
end_header
64.694145 -38.424461 48.336937
62.464859 -41.86441 49.718254
65.828697 -39.068138 46.912815
64.226929 -44.677998 47.458591
66.304138 -43.460434 44.960857
62.087608 -39.503662 50.103439
63.65934 -40.122261 49.188728
62.796021 -44.179916 48.919113
63.975243 -42.429924 48.543976
65.006577 -40.716835 47.874054
66.092789 -41.299271 46.173016
65.108593 -37.611029 47.758486
64.515998 -37.266346 48.351513
65.261421 -38.746299 47.624876
65.675869 -37.932867 47.046425
65.108593 -37.611029 47.758486
62.276234 -40.684036 49.910847
61.425647 -40.377237 50.28622
61.614273 -41.557612 50.093628
62.931534 -45.303701 48.322063
62.165925 -45.059864 48.968193
64.617916 -42.694832 47.744137
64.101086 -43.553961 48.001283
64.743759 -43.818869 47.201445
65.133583 -41.838287 47.409176
64.49091 -41.57338 48.209015
64.617916 -42.694832 47.744137
65.676689 -42.129505 46.558657
65.549683 -41.008053 47.023535
65.133583 -41.838287 47.409176
66.603577 -42.665684 44.548059
66.705624 -43.694062 43.812523
66.113392 -38.286211 46.295843
65.675869 -37.932867 47.046425
66.245205 -39.393419 46.031615
66.113392 -38.286211 46.295843
61.81604 -42.743299 49.823494
61.614273 -41.557612 50.093628
64.315079 -45.759856 46.720667
63.646988 -45.552742 47.591803
64.83564 -44.9014 46.516806
64.315079 -45.759856 46.720667
64.743759 -43.818869 47.201445
64.83564 -44.9014 46.516806
65.874245 -44.292618 45.267938
65.782364 -43.210087 45.952578
66.375709 -44.491211 44.147077
65.874245 -44.292618 45.267938
66.705624 -43.694062 43.812523
66.375709 -44.491211 44.147077
63.993965 -38.10223 48.867809
64.515998 -37.266346 48.351513
61.217106 -39.174719 50.377873
61.425647 -40.377237 50.28622
61.887337 -38.311191 50.109466
61.217106 -39.174719 50.377873
62.690697 -38.64183 49.751061
61.887337 -38.311191 50.109466
63.476562 -38.95113 49.293705
62.690697 -38.64183 49.751061
62.873474 -39.812962 49.646084
64.176743 -39.273361 48.762833
63.993965 -38.10223 48.867809
63.476562 -38.95113 49.293705
61.981621 -43.901052 49.423924
62.165925 -45.059864 48.968193
62.63044 -43.022163 49.318684
61.81604 -42.743299 49.823494
61.981621 -43.901052 49.423924
63.511475 -44.428957 48.188852
62.931534 -45.303701 48.322063
63.646988 -45.552742 47.591803
66.377251 -40.508985 45.661715
66.245205 -39.393419 46.031615
65.960743 -40.183704 46.542915
66.198464 -42.379852 45.566936
65.676689 -42.129505 46.558657
65.782364 -43.210087 45.952578
66.497902 -41.585102 45.154139
66.198464 -42.379852 45.566936
66.603577 -42.665684 44.548059
66.377251 -40.508985 45.661715
66.497902 -41.585102 45.154139
3 0 11 12
3 0 13 15
3 13 2 14
3 13 14 15
3 1 16 18
3 16 5 17
3 16 17 18
3 1 6 5
3 19 7 20
3 21 8 22
3 23 22 3
3 21 22 23
3 24 9 25
3 26 25 8
3 24 25 26
3 27 10 28
3 29 28 9
3 27 28 29
3 31 30 4
3 2 32 33
3 2 34 35
3 36 1 37
3 38 3 39
3 40 3 41
3 43 42 3
3 44 4 45
3 46 4 47
3 49 48 4
3 50 0 51
3 5 52 53
3 5 54 55
3 5 56 57
3 6 58 60
3 60 59 5
3 58 59 60
3 6 61 63
3 61 0 62
3 61 62 63
3 7 64 65
3 7 66 68
3 66 1 67
3 66 67 68
3 3 69 71
3 69 7 70
3 69 70 71
3 8 7 3
3 8 1 7
3 8 6 1
3 9 6 8
3 9 0 6
3 9 2 0
3 10 2 9
3 10 72 74
3 74 73 2
3 72 73 74
3 4 75 77
3 75 10 76
3 75 76 77
3 78 10 79
3 80 79 4
3 78 79 80
3 82 81 10
