ply
format ascii 1.0
element vertex 642
property float x
property float y
property float z
element face 568
property list uchar int vertex_index
end_header
0.559498 -64.855553 59.418449
0.767208 -84.198616 51.69146
4.827971 -46.932961 53.494423
-0.558191 -80.18512 61.595001
1.590399 -43.936737 47.391239
6.190922 -92.704819 48.064735
3.455046 -89.749802 57.309036
2.373075 -59.354347 65.54631
2.890562 -57.12809 56.97525
5.43852 -49.703064 62.152931
0.045771 -66.785233 61.981812
3.16246 -88.664345 49.882263
4.515465 -89.032967 45.267212
-0.08901 -82.627182 56.550957
0.835848 -85.351013 59.477234
1.838964 -87.464981 54.574776
4.84799 -91.639473 52.649277
4.07704 -52.323246 55.226311
3.324001 -51.169178 51.459854
6.714296 -88.088348 35.528355
-0.865942 -74.612694 63.592232
7.101486 -93.031792 43.308334
5.706755 -88.778198 40.523071
2.474886 -87.056076 62.154167
6.882465 -93.431633 54.882858
1.204517 -62.399117 62.200035
1.568209 -61.429214 58.457031
2.763222 -58.081535 61.21627
4.353294 -53.465591 59.499626
5.541294 -48.349174 57.483086
0.396608 -66.0103 69.610519
0.753708 -64.067505 65.909721
2.450966 -86.855667 48.449501
0.712936 -85.133179 55.545074
1.233612 -85.93631 53.127563
2.479578 -88.178055 52.206627
4.519255 -49.708843 54.338844
3.752943 -51.750427 53.281464
4.03459 -49.05312 52.500801
-0.707571 -71.833893 64.457451
0.402842 -33.586304 46.778717
7.529099 -94.698624 47.03157
6.71456 -92.952507 45.722855
3.739765 -86.989021 43.85186
5.136475 -88.969788 42.922112
4.373508 -86.834389 41.523739
4.996691 -86.569115 39.152061
3.65202 -84.644409 40.159576
2.002384 -87.654411 58.406181
1.562311 -86.348686 60.872803
4.47142 -90.423904 58.480247
6.228678 -92.159668 57.137794
5.119492 -91.65934 56.150566
5.554428 -92.271866 50.362343
6.496201 -93.566727 51.60788
7.084715 -94.229172 49.341896
1.752264 -60.917419 63.847572
1.951067 -60.26403 61.827591
2.599062 -58.674911 63.375656
4.29122 -54.056526 61.797897
5.01354 -51.609592 60.80127
5.018871 -50.981628 58.500877
5.588375 -49.031006 59.747063
1.363657 -63.38385 75.755394
0.976833 -66.048599 75.275391
0.856268 -65.2127 73.595291
0.347313 -66.982994 71.381683
0.898426 -64.326096 71.779068
2.10388 -60.106518 67.711723
1.275745 -62.530449 67.883102
1.519657 -61.684414 65.869545
0.982584 -63.17382 64.04509
2.222443 -59.343414 57.764793
2.526873 -44.688065 48.786644
2.714294 -47.710819 49.225143
1.937712 -47.042244 47.70092
-0.193827 -67.94561 63.542397
-0.577351 -70.530289 62.898628
4.673748 -90.711403 48.997932
5.336012 -90.953468 46.68605
3.851027 -88.940804 47.578438
3.095972 -87.006439 46.152885
2.430456 -84.942802 44.754673
-0.014717 -82.848686 60.540321
0.288183 -84.099251 58.020439
1.279091 -86.520203 56.999077
2.578892 -88.749596 55.987114
4.127775 -90.799156 54.957336
3.249022 -89.623207 53.621727
3.963737 -90.274033 51.299774
2.971148 -57.719265 67.266884
3.256433 -57.032352 64.964951
3.523022 -54.791183 56.117722
3.355558 -54.30175 54.096169
7.121656 -90.421913 36.848602
7.376453 -90.00457 34.199245
-0.828075 -77.417755 62.62326
-0.815037 -73.233887 62.071136
-0.88743 -76.007858 61.120979
-0.759001 -78.7883 60.102303
4.993906 -43.984337 52.730507
4.190645 -46.19598 51.7827
2.265678 -41.499634 48.423782
1.203197 -40.665409 47.139412
7.348665 -92.959129 40.802914
5.91964 -91.023575 44.33411
6.409452 -90.945534 41.91814
6.805901 -90.739799 39.423996
6.229452 -88.479393 38.059006
0.53919 -83.974648 61.991562
7.455261 -92.266212 57.863953
8.046055 -93.762207 55.634689
5.818323 -92.709259 53.86657
7.510372 -94.537033 52.661652
0.794321 -63.761192 60.663834
0.984879 -63.334152 59.024414
1.400322 -61.810005 60.355026
2.106785 -59.744236 59.80307
2.859396 -57.572304 59.079185
3.466658 -56.400501 62.675102
3.583834 -55.823765 60.422775
3.601694 -55.292759 58.230637
4.28087 -52.891792 57.301971
4.852732 -50.350502 56.339928
5.285746 -47.65094 55.39315
5.989428 -46.298615 58.699409
5.89801 -45.551071 56.503319
5.562981 -44.779751 54.509659
-0.043491 -67.6185 67.405067
1.054369 -63.421558 69.863457
0.546272 -65.026688 67.775154
0.11458 -66.543167 65.666512
0.328075 -65.499855 63.940186
0.564749 -64.542206 62.264061
3.423311 -48.38485 50.808456
0.609789 -64.934952 58.667915
0.409201 -65.688252 59.118454
0.409201 -65.688252 59.118454
0.435712 -65.28278 59.985634
1.027723 -84.421779 50.518506
1.294674 -85.352646 51.229198
1.00041 -85.067463 52.409512
0.767483 -84.731911 53.609818
0.534281 -83.863064 52.891766
1.294674 -85.352646 51.229198
1.527876 -86.221493 51.94725
1.00041 -85.067463 52.409512
-0.541972 -70.483696 64.812161
-0.588572 -71.071815 65.633202
0.209595 -31.684747 46.718227
0.820099 -32.230308 47.277666
-0.154722 -33.085751 46.164122
0.209595 -31.684747 46.718227
3.702805 -85.843731 41.995548
4.056636 -86.911705 42.687799
3.385933 -85.921047 43.159609
3.34206 -84.748741 41.313467
4.012764 -85.739399 40.841657
3.702805 -85.843731 41.995548
-0.366245 -80.794739 62.33712
-0.578495 -79.437248 62.862945
3.171513 -89.123837 58.510295
2.445182 -88.076141 59.058868
2.728715 -88.702106 57.857608
3.963233 -90.086853 57.894641
3.6797 -89.460887 59.095901
3.171513 -89.123837 58.510295
5.22603 -50.656328 61.477101
4.929992 -51.926546 62.005265
5.142482 -50.973282 62.681095
1.382476 -62.980303 74.830223
1.601166 -62.077322 75.867916
1.128782 -63.894728 73.750171
1.109962 -64.298275 74.675342
1.382476 -62.980303 74.830223
1.14986 -63.451426 72.84206
0.877347 -64.769398 72.687179
1.128782 -63.894728 73.750171
2.598088 -58.073458 56.346046
2.264028 -59.18112 56.740818
2.556503 -58.235752 57.370022
-0.155458 -67.991669 61.690594
-0.275257 -68.571857 62.470886
-0.074028 -67.365421 62.762104
2.47147 -85.945183 46.596515
2.773469 -86.931053 47.301193
2.148967 -85.869797 47.744823
2.138712 -84.913364 45.897409
2.763214 -85.974621 45.453779
2.47147 -85.945183 46.596515
0.099587 -83.363216 57.285698
-0.047123 -82.802868 58.539662
-0.23572 -82.066834 57.80492
3.388892 -56.523617 66.921753
3.203426 -56.867422 68.128799
3.203426 -56.867422 68.128799
2.806165 -58.086149 68.409618
3.215838 -52.490606 51.813396
3.430308 -52.781231 52.724201
3.538472 -51.459803 52.370659
3.054417 -52.243545 50.88874
3.215838 -52.490606 51.813396
-0.817145 -75.253079 64.359394
-0.791365 -73.847081 64.812836
-0.847009 -76.015225 63.107746
-0.798212 -76.655609 63.874908
-0.817145 -75.253079 64.359394
-0.729316 -72.507225 61.336178
-0.696194 -71.882088 62.484882
-0.610473 -71.155426 61.749924
-0.841441 -76.624031 59.880211
-0.844128 -75.245728 60.390743
-0.777227 -78.014252 59.370873
-0.823216 -77.398079 60.611641
-0.841441 -76.624031 59.880211
-0.668043 -79.383034 58.8461
-0.777227 -78.014252 59.370873
4.607634 -43.576212 51.941746
5.006562 -42.420532 52.405209
2.677306 -40.276478 48.882762
2.779144 -41.918369 49.080757
1.002381 -38.940899 47.038424
1.577719 -39.400305 47.637783
0.684953 -40.255266 46.477897
1.002381 -38.940899 47.038424
7.490443 -94.058617 42.730976
7.44895 -94.006462 43.975868
7.225075 -92.995461 42.055624
7.614033 -94.022286 41.478266
7.490443 -94.058617 42.730976
5.305581 -86.390888 37.940155
4.646059 -85.454704 38.485254
1.883205 -85.953205 62.75943
1.426917 -85.59951 62.118748
2.018598 -86.702381 61.513485
2.36249 -86.24847 63.381878
1.883205 -85.953205 62.75943
3.025313 -87.247822 62.711422
2.36249 -86.24847 63.381878
6.54225 -91.500648 58.653385
7.189169 -91.462734 59.006695
7.745671 -94.279831 54.167324
8.327466 -94.445118 54.543239
7.46426 -93.59692 55.258774
7.771753 -94.999443 51.552006
7.003286 -94.05188 52.134766
7.264667 -94.51429 51.02512
8.282826 -95.43795 51.974152
7.771753 -94.999443 51.552006
3.784523 -55.53785 63.421425
3.361546 -56.716426 63.820026
3.679411 -55.853775 64.566349
6.031631 -45.246151 59.360733
5.919613 -46.662495 59.88343
5.990595 -44.064097 56.059449
6.053895 -44.474493 57.112049
5.82308 -43.678437 55.062618
5.730495 -45.165411 55.506489
5.990595 -44.064097 56.059449
5.622305 -43.254652 54.12154
5.82308 -43.678437 55.062618
0.852949 -67.403557 74.932507
0.710271 -66.979645 74.164395
0.143777 -67.348305 69.364521
0.119129 -67.834652 70.250103
0.371961 -66.496647 70.496101
0.176559 -66.8144 68.507793
-0.076273 -68.152405 68.261795
0.143777 -67.348305 69.364521
1.438575 -62.166054 69.855492
1.313171 -62.582105 70.893406
1.362888 -62.321208 57.829476
1.071223 -63.273678 58.113167
1.276544 -62.381683 58.740723
3.416253 -46.914852 50.519149
3.806978 -47.290415 51.295578
3.79992 -45.820417 51.006271
2.760263 -49.14649 49.481194
2.464221 -48.854742 48.650856
-0.013073 -67.323109 60.997445
0.178848 -66.24762 61.267315
2.136553 -86.681172 49.608219
2.806713 -87.760006 49.165882
2.4923 -87.58551 50.3246
1.869602 -85.750305 48.897526
2.136553 -86.681172 49.608219
2.148967 -85.869797 47.744823
1.869602 -85.750305 48.897526
0.507146 -84.330345 54.818573
0.311963 -83.88018 56.048015
0.106172 -83.077347 55.321514
0.973274 -85.534745 54.336319
0.507146 -84.330345 54.818573
0.767483 -84.731911 53.609818
2.150859 -87.342365 51.486782
1.856595 -87.057183 52.667095
1.527876 -86.221493 51.94725
2.4923 -87.58551 50.3246
2.821019 -88.4212 51.044445
2.150859 -87.342365 51.486782
6.943684 -87.852706 34.233162
6.473904 -86.933315 34.889868
-0.71218 -72.45768 65.245446
-0.588572 -71.071815 65.633202
-0.786756 -73.223294 64.024842
-0.791365 -73.847081 64.812836
-0.71218 -72.45768 65.245446
1.003858 -34.088819 47.35022
0.820099 -32.230308 47.277666
0.602204 -35.401347 46.858076
1.003858 -34.088819 47.35022
0.056044 -34.946343 46.227001
0.602204 -35.401347 46.858076
0.056044 -34.946343 46.227001
-0.154722 -33.085751 46.164122
7.662756 -94.839878 45.837486
8.02599 -95.71188 46.441292
7.255486 -93.96682 45.183129
7.662756 -94.839878 45.837486
7.12183 -93.825565 46.377212
6.908023 -92.992149 44.515595
7.44895 -94.006462 43.975868
7.255486 -93.96682 45.183129
3.973724 -84.492351 38.989012
4.646059 -85.454704 38.485254
4.324356 -85.606762 39.655819
2.225145 -87.423279 60.292179
1.782348 -87.001548 59.639492
2.445182 -88.076141 59.058868
2.681433 -87.776973 60.932861
2.018598 -86.702381 61.513485
2.225145 -87.423279 60.292179
3.207191 -88.034641 61.506291
2.681433 -87.776973 60.932861
4.205458 -89.718555 59.669331
3.6797 -89.460887 59.095901
5.05033 -90.579494 58.961533
4.205458 -89.718555 59.669331
5.350049 -91.291786 57.809021
5.928959 -91.447376 58.290306
5.05033 -90.579494 58.961533
7.558924 -94.845513 49.892128
7.264667 -94.51429 51.02512
6.790458 -93.89795 50.474888
7.734707 -95.211556 48.763534
7.558924 -94.845513 49.892128
7.956899 -95.446281 47.608372
7.734707 -95.211556 48.763534
7.306907 -94.463898 48.186733
8.02599 -95.71188 46.441292
7.956899 -95.446281 47.608372
4.568833 -53.150013 62.503578
4.196804 -54.365862 62.982822
4.65238 -52.833059 61.299583
4.568833 -53.150013 62.503578
4.929992 -51.926546 62.005265
1.58788 -62.443651 76.805164
1.601166 -62.077322 75.867916
1.436618 -63.757958 76.594822
1.58788 -62.443651 76.805164
1.170245 -64.716224 75.515392
1.243206 -65.090332 76.354821
1.436618 -63.757958 76.594822
0.649989 -66.561695 73.324344
0.710271 -66.979645 74.164395
0.916551 -65.63065 74.435341
0.601791 -66.097847 72.488487
0.395512 -67.446842 72.21754
0.649989 -66.561695 73.324344
1.689812 -61.318483 67.797413
1.549263 -61.720499 68.865314
1.963331 -60.508533 68.779625
1.972328 -60.267622 57.122261
1.645211 -61.310522 57.46838
1.895326 -60.386314 58.110912
1.972328 -60.267622 57.122261
2.264028 -59.18112 56.740818
2.620584 -46.199442 49.005893
3.061745 -46.577837 49.727493
2.968034 -45.06646 49.508244
2.07593 -48.520454 47.888745
2.464221 -48.854742 48.650856
2.326003 -47.376531 48.463031
-0.385589 -69.237949 63.220512
-0.476862 -69.831894 64.032749
-0.2851 -68.539555 64.354634
-0.467019 -69.864197 62.149002
-0.385589 -69.237949 63.220512
-0.275257 -68.571857 62.470886
-0.610473 -71.155426 61.749924
-0.467019 -69.864197 62.149002
-0.155458 -67.991669 61.690594
-0.013073 -67.323109 60.997445
2.731279 -84.897937 43.611015
3.385933 -85.921047 43.159609
3.08511 -85.965912 44.303266
-0.198573 -82.177585 59.799602
-0.286454 -81.516903 61.067661
-0.47031 -80.845802 60.326943
0.136733 -83.473968 59.28038
-0.198573 -82.177585 59.799602
-0.047123 -82.802868 58.539662
3.531535 -56.18016 65.770786
3.11379 -57.375809 66.115917
3.388892 -56.523617 66.921753
3.679411 -55.853775 64.566349
3.531535 -56.18016 65.770786
5.278979 -50.038399 63.406937
5.142482 -50.973282 62.681095
2.372531 -59.279775 68.632038
1.963331 -60.508533 68.779625
2.537514 -58.912892 67.489304
2.372531 -59.279775 68.632038
2.806165 -58.086149 68.409618
3.192989 -55.756237 55.517055
2.876759 -56.92469 55.945819
3.206792 -55.959637 56.546486
3.109256 -55.511521 54.506279
3.192989 -55.756237 55.517055
3.43929 -54.546466 55.106946
3.067935 -55.314729 53.503487
3.109256 -55.511521 54.506279
3.231616 -54.056893 53.131554
3.554251 -53.026089 53.688817
3.430308 -52.781231 52.724201
3.067935 -55.314729 53.503487
3.231616 -54.056893 53.131554
1.357294 -45.164825 46.786738
1.118673 -43.569992 46.686197
7.309241 -91.417946 36.17833
7.29644 -91.585388 37.52466
7.43664 -91.209274 34.853651
7.309241 -91.417946 36.17833
7.249054 -90.213242 35.523923
7.417994 -90.987244 33.470495
7.43664 -91.209274 34.853651
7.274763 -88.810817 33.568607
7.045374 -89.046459 34.8638
6.943684 -87.852706 34.233162
7.484459 -89.753563 32.845507
7.274763 -88.810817 33.568607
7.417994 -90.987244 33.470495
7.484459 -89.753563 32.845507
0.608581 -83.239532 50.996155
0.406608 -82.965137 52.184818
-0.713437 -78.053566 63.377075
-0.798212 -76.655609 63.874908
-0.693133 -78.801437 62.109131
-0.578495 -79.437248 62.862945
-0.713437 -78.053566 63.377075
-0.642461 -71.182091 63.67804
-0.541972 -70.483696 64.812161
-0.476862 -69.831894 64.032749
-0.807931 -73.858742 60.865822
-0.729316 -72.507225 61.336178
-0.851233 -74.620872 61.596058
-0.807931 -73.858742 60.865822
-0.844128 -75.245728 60.390743
-0.570715 -80.147392 59.580593
-0.47031 -80.845802 60.326943
-0.658596 -79.48671 60.848652
-0.570715 -80.147392 59.580593
-0.668043 -79.383034 58.8461
-0.333047 -81.302475 57.070427
-0.23572 -82.066834 57.80492
-0.195582 -81.795334 55.830356
-0.333047 -81.302475 57.070427
0.106172 -83.077347 55.321514
-0.195582 -81.795334 55.830356
0.406608 -82.965137 52.184818
0.534281 -83.863064 52.891766
4.206003 -44.682034 51.467843
4.592275 -45.090159 52.256603
4.607634 -43.576212 51.941746
3.79992 -45.820417 51.006271
4.206003 -44.682034 51.467843
2.909741 -43.512585 49.262188
2.968034 -45.06646 49.508244
2.396275 -43.09385 48.605213
2.909741 -43.512585 49.262188
2.779144 -41.918369 49.080757
2.108959 -39.817418 48.279968
2.677306 -40.276478 48.882762
1.734437 -41.082521 47.781597
2.108959 -39.817418 48.279968
1.577719 -39.400305 47.637783
0.925072 -41.934328 46.560283
1.118673 -43.569992 46.686197
1.396798 -42.301073 47.265326
0.925072 -41.934328 46.560283
0.684953 -40.255266 46.477897
7.57182 -93.990551 40.177301
7.614033 -94.022286 41.478266
7.409944 -92.853996 39.501816
7.57182 -93.990551 40.177301
7.138563 -91.744331 38.812357
7.409944 -92.853996 39.501816
7.077283 -91.849464 40.113455
6.963779 -90.580856 38.136299
7.29644 -91.585388 37.52466
7.138563 -91.744331 38.812357
5.921962 -87.346027 37.393627
5.613072 -87.524254 38.605533
5.305581 -86.390888 37.940155
6.164383 -87.150505 36.128302
6.471874 -88.283871 36.79368
5.921962 -87.346027 37.393627
6.473904 -86.933315 34.889868
6.164383 -87.150505 36.128302
1.027723 -84.421779 50.518506
0.608581 -83.239532 50.996155
1.902448 -83.859104 45.217188
2.138712 -84.913364 45.897409
2.156173 -83.857799 44.079614
1.902448 -83.859104 45.217188
2.731279 -84.897937 43.611015
2.156173 -83.857799 44.079614
3.036243 -83.643783 40.644538
3.34206 -84.748741 41.313467
3.324871 -83.528309 39.499949
3.036243 -83.643783 40.644538
3.973724 -84.492351 38.989012
3.324871 -83.528309 39.499949
-0.094508 -82.126522 61.80978
-0.366245 -80.794739 62.33712
-0.286454 -81.516903 61.067661
0.182445 -82.689503 62.535401
-0.094508 -82.126522 61.80978
0.262236 -83.411667 61.265941
0.474889 -83.194561 63.251827
0.182445 -82.689503 62.535401
0.915356 -84.412491 62.678128
1.05075 -85.161667 61.432182
1.426917 -85.59951 62.118748
0.474889 -83.194561 63.251827
0.915356 -84.412491 62.678128
3.025313 -87.247822 62.711422
3.207191 -88.034641 61.506291
8.123508 -92.11486 58.077866
7.189169 -91.462734 59.006695
8.381519 -92.969352 56.969487
8.123508 -92.11486 58.077866
6.84197 -92.21294 57.500873
6.54225 -91.500648 58.653385
5.928959 -91.447376 58.290306
8.676916 -93.71735 55.854855
8.381519 -92.969352 56.969487
7.750658 -93.014209 56.749321
8.92176 -94.529991 54.777359
8.676916 -93.71735 55.854855
8.92176 -94.529991 54.777359
8.327466 -94.445118 54.543239
8.059624 -94.832531 53.056721
7.745671 -94.279831 54.167324
7.196419 -93.984333 53.772255
8.059624 -94.832531 53.056721
8.282826 -95.43795 51.974152
3.878939 -55.228513 62.2365
3.784523 -55.53785 63.421425
4.196804 -54.365862 62.982822
5.474838 -48.722191 62.859997
5.278979 -50.038399 63.406937
5.644159 -48.364719 61.610191
5.474838 -48.722191 62.859997
5.719086 -48.02869 60.407257
5.513447 -49.367035 60.949997
5.644159 -48.364719 61.610191
5.788901 -47.664811 59.223236
5.719086 -48.02869 60.407257
5.919613 -46.662495 59.88343
6.099604 -44.848265 58.210094
6.031631 -45.246151 59.360733
5.943719 -45.924843 57.601364
6.099604 -44.848265 58.210094
6.053895 -44.474493 57.112049
5.337767 -42.856945 53.231964
5.278443 -44.382044 53.620083
5.622305 -43.254652 54.12154
5.006562 -42.420532 52.405209
5.337767 -42.856945 53.231964
1.140524 -66.424087 76.028248
1.243206 -65.090332 76.354821
1.140524 -66.424087 76.028248
0.852949 -67.403557 74.932507
0.152956 -68.347217 71.076263
0.395512 -67.446842 72.21754
0.152956 -68.347217 71.076263
0.119129 -67.834652 70.250103
-0.256532 -68.964119 67.10701
-0.076273 -68.152405 68.261795
-0.209932 -68.376 66.285968
-0.256532 -68.964119 67.10701
1.2352 -63.034374 71.851212
1.14986 -63.451426 72.84206
0.976397 -63.873827 70.821262
1.2352 -63.034374 71.851212
1.313171 -62.582105 70.893406
1.165057 -62.976003 68.873279
1.438575 -62.166054 69.855492
1.549263 -61.720499 68.865314
-0.130896 -67.838333 65.416691
-0.209932 -68.376 66.285968
0.035544 -67.080833 66.535789
-0.039623 -67.244388 64.604455
-0.2851 -68.539555 64.354634
-0.130896 -67.838333 65.416691
0.438337 -65.126106 61.40844
0.178848 -66.24762 61.267315
0.30526 -65.663719 62.122936
0.553123 -64.7356 60.608326
0.438337 -65.126106 61.40844
0.679535 -64.151699 61.463948
0.67691 -64.308373 60.041142
0.435712 -65.28278 59.985634
0.553123 -64.7356 60.608326
0.82248 -64.174251 58.470897
0.609789 -64.934952 58.667915
0.772188 -64.094853 59.221432
0.82248 -64.174251 58.470897
1.071223 -63.273678 58.113167
1.362888 -62.321208 57.829476
1.645211 -61.310522 57.46838
2.598088 -58.073458 56.346046
2.876759 -56.92469 55.945819
3.068803 -48.047835 50.0168
3.416253 -46.914852 50.519149
3.061745 -46.577837 49.727493
3.114771 -49.483505 50.27285
3.068803 -48.047835 50.0168
2.760263 -49.14649 49.481194
3.065116 -50.87567 50.598549
3.373656 -49.777014 51.134155
3.114771 -49.483505 50.27285
3.054417 -52.243545 50.88874
3.065116 -50.87567 50.598549
1.530951 -46.717579 46.941578
1.764055 -45.489491 47.54608
1.357294 -45.164825 46.786738
1.749602 -48.23744 47.068112
1.530951 -46.717579 46.941578
2.07593 -48.520454 47.888745
1.749602 -48.23744 47.068112
3 0 135 136
3 0 137 138
3 1 139 140
3 1 141 143
3 141 34 142
3 141 142 143
3 1 144 146
3 146 145 34
3 144 145 146
3 2 38 36
3 147 39 148
3 149 40 150
3 152 151 40
3 5 42 41
3 153 45 154
3 155 154 43
3 153 154 155
3 156 47 157
3 158 157 45
3 156 157 158
3 3 159 160
3 6 161 163
3 163 162 48
3 161 162 163
3 6 164 166
3 164 50 165
3 164 165 166
3 6 52 50
3 5 55 53
3 5 41 55
3 7 58 56
3 9 167 169
3 167 60 168
3 167 168 169
3 9 62 60
3 170 63 171
3 172 65 173
3 174 173 63
3 172 173 174
3 175 67 176
3 177 176 65
3 175 176 177
3 7 70 68
3 7 56 70
3 8 178 180
3 180 179 72
3 178 179 180
3 4 75 73
3 10 181 183
3 183 182 76
3 181 182 183
3 11 80 78
3 184 81 185
3 186 185 32
3 184 185 186
3 187 82 188
3 189 188 81
3 187 188 189
3 13 190 192
3 190 84 191
3 190 191 192
3 15 85 33
3 15 86 85
3 15 88 86
3 11 89 35
3 11 78 89
3 194 193 90
3 195 90 196
3 17 93 92
3 18 197 199
3 199 198 37
3 197 198 199
3 18 200 201
3 19 95 94
3 20 202 203
3 20 204 206
3 204 96 205
3 204 205 206
3 207 97 208
3 209 208 77
3 207 208 209
3 210 98 211
3 212 99 213
3 214 213 98
3 212 213 214
3 216 215 99
3 218 217 100
3 219 102 220
3 221 103 222
3 224 223 103
3 21 225 226
3 21 227 229
3 227 104 228
3 227 228 229
3 12 105 79
3 22 106 44
3 22 107 106
3 22 108 107
3 231 230 46
3 14 109 83
3 23 232 234
3 234 233 49
3 232 233 234
3 23 235 236
3 23 237 238
3 239 110 240
3 24 111 51
3 24 241 243
3 243 242 111
3 241 242 243
3 16 112 87
3 244 113 245
3 246 245 54
3 244 245 246
3 248 247 113
3 25 116 114
3 27 117 57
3 27 118 117
3 249 119 250
3 251 250 91
3 249 250 251
3 28 120 59
3 28 121 120
3 28 122 121
3 29 123 61
3 29 124 123
3 252 125 253
3 254 126 255
3 256 127 257
3 258 257 126
3 256 257 258
3 260 259 127
3 262 261 64
3 30 263 265
3 265 264 66
3 263 264 265
3 30 266 268
3 266 128 267
3 266 267 268
3 269 129 270
3 31 130 69
3 31 131 130
3 31 132 131
3 25 133 71
3 25 114 133
3 26 271 273
3 273 272 115
3 271 272 273
3 274 134 275
3 276 275 101
3 274 275 276
3 278 277 74
3 280 279 10
3 281 32 282
3 283 282 11
3 281 282 283
3 284 32 285
3 287 286 32
3 288 33 289
3 290 289 13
3 288 289 290
3 34 291 293
3 291 33 292
3 291 292 293
3 34 15 33
3 34 35 15
3 294 35 295
3 296 295 34
3 294 295 296
3 297 11 298
3 299 298 35
3 297 298 299
3 36 37 17
3 38 37 36
3 38 18 37
3 301 300 19
3 39 302 303
3 39 304 306
3 304 20 305
3 304 305 306
3 40 307 308
3 40 309 310
3 40 311 312
3 314 313 40
3 41 315 316
3 42 317 319
3 319 318 41
3 317 318 319
3 42 320 322
3 320 21 321
3 320 321 322
3 43 44 12
3 45 44 43
3 45 22 44
3 45 46 22
3 47 46 45
3 47 323 325
3 325 324 46
3 323 324 325
3 48 49 14
3 326 49 327
3 328 327 48
3 326 327 328
3 329 23 330
3 331 330 49
3 329 330 331
3 333 332 23
3 50 334 335
3 50 336 337
3 50 338 340
3 338 51 339
3 338 339 340
3 52 51 50
3 52 24 51
3 53 54 16
3 55 54 53
3 55 341 343
3 343 342 54
3 341 342 343
3 55 344 345
3 41 346 348
3 348 347 55
3 346 347 348
3 41 349 350
3 56 57 25
3 58 57 56
3 58 27 57
3 351 59 352
3 60 353 355
3 353 59 354
3 353 354 355
3 60 28 59
3 60 61 28
3 62 61 60
3 62 29 61
3 63 356 357
3 63 358 359
3 63 360 362
3 360 64 361
3 360 361 362
3 65 64 63
3 65 363 365
3 365 364 64
3 363 364 365
3 65 366 368
3 366 66 367
3 366 367 368
3 67 66 65
3 67 30 66
3 68 369 371
3 369 69 370
3 369 370 371
3 70 69 68
3 70 31 69
3 70 71 31
3 56 71 70
3 56 25 71
3 72 372 374
3 374 373 26
3 372 373 374
3 376 375 72
3 73 377 379
3 377 74 378
3 377 378 379
3 75 74 73
3 75 380 382
3 382 381 74
3 380 381 382
3 76 383 385
3 383 77 384
3 383 384 385
3 386 77 387
3 388 387 76
3 386 387 388
3 390 389 77
3 392 391 10
3 78 79 5
3 80 79 78
3 80 12 79
3 32 80 11
3 81 80 32
3 81 12 80
3 81 43 12
3 82 43 81
3 82 393 395
3 395 394 43
3 393 394 395
3 396 83 397
3 398 397 3
3 396 397 398
3 84 399 401
3 399 83 400
3 399 400 401
3 84 14 83
3 33 84 13
3 85 84 33
3 85 14 84
3 85 48 14
3 86 48 85
3 86 6 48
3 86 87 6
3 88 87 86
3 88 16 87
3 35 88 15
3 89 88 35
3 89 16 88
3 89 53 16
3 78 53 89
3 78 5 53
3 90 91 7
3 402 91 403
3 404 403 90
3 402 403 404
3 406 405 91
3 407 9 408
3 409 68 410
3 90 411 413
3 411 68 412
3 411 412 413
3 90 7 68
3 92 414 416
3 416 415 8
3 414 415 416
3 93 417 419
3 419 418 92
3 417 418 419
3 93 420 421
3 37 93 17
3 422 93 423
3 424 423 37
3 422 423 424
3 426 425 93
3 428 427 4
3 94 429 430
3 95 431 433
3 433 432 94
3 431 432 433
3 95 434 435
3 436 95 437
3 438 437 19
3 436 437 438
3 439 95 440
3 442 441 95
3 444 443 1
3 96 445 446
3 96 447 449
3 447 3 448
3 447 448 449
3 77 450 452
3 450 39 451
3 450 451 452
3 97 39 77
3 97 20 39
3 453 97 454
3 98 455 457
3 455 97 456
3 455 456 457
3 98 20 97
3 98 96 20
3 99 96 98
3 99 3 96
3 99 458 460
3 460 459 3
3 458 459 460
3 462 461 99
3 463 13 464
3 465 13 466
3 468 467 13
3 469 1 470
3 100 101 2
3 471 101 472
3 473 472 100
3 471 472 473
3 475 474 101
3 476 73 477
3 102 478 480
3 478 73 479
3 478 479 480
3 102 4 73
3 481 102 482
3 103 483 485
3 483 102 484
3 483 484 485
3 103 4 102
3 103 486 488
3 488 487 4
3 486 487 488
3 490 489 103
3 104 491 492
3 104 493 494
3 79 42 5
3 105 42 79
3 105 21 42
3 44 105 12
3 106 105 44
3 106 21 105
3 106 104 21
3 107 104 106
3 107 495 497
3 497 496 104
3 495 496 497
3 107 498 500
3 498 94 499
3 498 499 500
3 108 94 107
3 108 19 94
3 46 108 22
3 501 108 502
3 503 502 46
3 501 502 503
3 504 19 505
3 506 505 108
3 504 505 506
3 508 507 19
3 510 509 1
3 511 82 512
3 513 82 514
3 516 515 82
3 517 47 518
3 519 47 520
3 522 521 47
3 83 523 525
3 525 524 3
3 523 524 525
3 109 526 528
3 528 527 83
3 526 527 528
3 109 529 530
3 49 109 14
3 531 109 532
3 533 532 49
3 531 532 533
3 535 534 109
3 537 536 23
3 110 538 539
3 110 540 541
3 51 542 544
3 542 110 543
3 542 543 544
3 111 110 51
3 111 545 547
3 547 546 110
3 545 546 547
3 111 548 549
3 551 550 111
3 87 52 6
3 112 52 87
3 112 24 52
3 54 112 16
3 113 112 54
3 113 24 112
3 113 552 554
3 554 553 24
3 552 553 554
3 556 555 113
3 114 115 0
3 116 115 114
3 116 26 115
3 57 116 25
3 117 116 57
3 117 26 116
3 117 72 26
3 118 72 117
3 118 8 72
3 91 58 7
3 119 58 91
3 119 27 58
3 59 557 559
3 557 119 558
3 557 558 559
3 120 119 59
3 120 27 119
3 120 118 27
3 121 118 120
3 121 8 118
3 121 92 8
3 122 92 121
3 122 17 92
3 61 122 28
3 123 122 61
3 123 17 122
3 123 36 17
3 124 36 123
3 124 2 36
3 560 9 561
3 562 9 563
3 564 62 565
3 566 565 9
3 564 565 566
3 125 567 569
3 567 62 568
3 567 568 569
3 125 29 62
3 570 125 571
3 126 572 574
3 572 125 573
3 572 573 574
3 126 29 125
3 126 124 29
3 127 124 126
3 127 2 124
3 127 100 2
3 575 100 576
3 577 576 127
3 575 576 577
3 579 578 100
3 64 580 581
3 583 582 64
3 66 584 585
3 587 586 66
3 128 588 589
3 128 590 591
3 592 67 593
3 129 594 596
3 594 67 595
3 594 595 596
3 129 30 67
3 69 597 599
3 597 129 598
3 597 598 599
3 130 129 69
3 130 30 129
3 130 128 30
3 131 128 130
3 131 600 602
3 602 601 128
3 600 601 602
3 131 603 605
3 603 76 604
3 603 604 605
3 132 76 131
3 132 10 76
3 71 132 31
3 133 132 71
3 133 10 132
3 133 606 608
3 608 607 10
3 606 607 608
3 114 609 611
3 611 610 133
3 609 610 611
3 114 612 614
3 612 0 613
3 612 613 614
3 115 615 617
3 617 616 0
3 615 616 617
3 619 618 115
3 621 620 26
3 623 622 8
3 101 38 2
3 134 38 101
3 134 18 38
3 74 624 626
3 624 134 625
3 624 625 626
3 627 134 628
3 629 628 74
3 627 628 629
3 630 18 631
3 632 631 134
3 630 631 632
3 634 633 18
3 635 75 636
3 637 636 4
3 635 636 637
3 638 75 639
3 641 640 75
