ply
format ascii 1.0
element vertex 84
property float x
property float y
property float z
element face 68
property list uchar int vertex_index
end_header
19.201355 22.955685 -31.11706
15.427614 30.164825 -32.199768
19.18808 29.725487 -31.973055
17.59272 33.182529 -32.440468
17.240803 26.508259 -31.600164
15.459693 26.7374 -31.449488
17.450806 23.020195 -30.879213
22.699139 26.424866 -31.35882
15.635705 33.488071 -32.711464
17.280472 29.895905 -32.155327
19.057018 26.386803 -31.640184
21.114603 29.64399 -31.659082
20.886726 26.366711 -31.558802
20.946251 23.001575 -31.261377
19.396201 21.200815 -30.814281
18.520927 21.233071 -30.695358
18.32608 22.98794 -30.998137
15.868558 35.102886 -32.801831
14.877738 35.308713 -32.979084
14.539256 30.343887 -32.159
14.601215 32.017614 -32.514282
14.713025 25.13307 -30.898106
14.591055 26.90229 -31.33547
15.581663 24.968179 -31.012124
22.065225 29.633242 -31.441752
21.377243 31.230514 -31.575655
22.327866 31.219766 -31.358325
21.777549 24.753679 -31.431244
21.792932 26.395789 -31.458811
22.683756 24.782757 -31.331253
21.807312 23.071112 -31.282531
20.916488 24.684143 -31.410089
21.777549 24.753679 -31.431244
17.889242 34.776308 -32.412075
16.847065 34.950115 -32.666333
18.601681 33.072979 -32.233933
17.889242 34.776308 -32.412075
19.399361 31.344458 -32.000226
18.3904 31.454008 -32.206761
18.601681 33.072979 -32.233933
16.57722 23.109577 -30.726986
15.581663 24.968179 -31.012124
16.45525 24.878798 -31.16435
17.663866 21.230415 -30.49295
16.57722 23.109577 -30.726986
17.663866 21.230415 -30.49295
18.520927 21.233071 -30.695358
23.580475 26.473807 -31.20253
22.857493 28.02368 -31.291621
23.523384 24.883152 -31.302214
23.580475 26.473807 -31.20253
23.508001 23.241043 -31.274646
22.683756 24.782757 -31.331253
23.523384 24.883152 -31.302214
14.70526 33.679237 -32.77013
14.877738 35.308713 -32.979084
15.531659 31.826448 -32.455616
14.601215 32.017614 -32.514282
14.70526 33.679237 -32.77013
16.614213 33.3353 -32.575966
15.868558 35.102886 -32.801831
16.847065 34.950115 -32.666333
14.555295 28.630175 -31.78386
14.539256 30.343887 -32.159
15.443653 28.451113 -31.824628
14.555295 28.630175 -31.78386
14.591055 26.90229 -31.33547
20.362622 31.303709 -31.84324
21.377243 31.230514 -31.575655
20.151342 29.684739 -31.816069
19.399361 31.344458 -32.000226
20.362622 31.303709 -31.84324
21.906871 28.034428 -31.508951
22.065225 29.633242 -31.441752
22.857493 28.02368 -31.291621
21.924391 21.398573 -31.200705
21.807312 23.071112 -31.282531
21.107081 21.284879 -31.062059
21.924391 21.398573 -31.200705
20.234634 21.261934 -30.9899
20.073803 22.97863 -31.189218
21.107081 21.284879 -31.062059
19.396201 21.200815 -30.814281
20.234634 21.261934 -30.9899
3 0 6 4
3 0 14 16
3 16 15 6
3 14 15 16
3 17 8 18
3 2 9 3
3 2 10 9
3 1 19 20
3 23 22 5
3 21 22 23
3 24 11 25
3 24 25 26
3 27 12 28
3 29 28 7
3 27 28 29
3 30 13 31
3 32 31 12
3 30 31 32
3 33 3 34
3 35 3 36
3 37 2 38
3 39 38 3
3 37 38 39
3 4 5 1
3 6 5 4
3 6 40 42
3 42 41 5
3 40 41 42
3 6 43 44
3 46 45 6
3 47 7 48
3 49 7 50
3 53 52 7
3 51 52 53
3 8 54 55
3 8 56 58
3 56 1 57
3 56 57 58
3 3 59 61
3 59 8 60
3 59 60 61
3 9 8 3
3 9 1 8
3 9 4 1
3 10 4 9
3 10 0 4
3 5 62 64
3 64 63 1
3 62 63 64
3 66 65 5
3 11 67 68
3 11 69 71
3 69 2 70
3 69 70 71
3 7 72 74
3 72 11 73
3 72 73 74
3 12 11 7
3 12 2 11
3 12 10 2
3 13 10 12
3 13 0 10
3 75 13 76
3 77 13 78
3 79 0 80
3 81 80 13
3 79 80 81
3 83 82 0
