ply
format ascii 1.0
element vertex 447
property float x
property float y
property float z
element face 474
property list uchar int vertex_index
end_header
-68.003006 -27.671547 32.635239
-63.518108 -47.897957 31.240265
-66.604118 -35.499146 39.126747
-66.492767 -45.524002 39.416168
-66.352745 -37.944107 32.335854
-65.698174 -55.170097 35.143204
-64.958023 -54.874928 25.195692
-59.737701 -40.119843 25.772535
-67.461227 -31.657665 35.746399
-67.41066 -36.667393 35.842896
-67.554977 -32.827187 32.23822
-66.857452 -20.576128 23.861088
-65.552834 -46.866043 35.42675
-65.950912 -50.591415 38.000122
-65.038635 -51.634842 33.492805
-65.364182 -55.538822 30.221212
-63.648396 -51.998089 28.799236
-65.894882 -44.212227 42.954048
-66.874435 -40.42485 39.553192
-66.612068 -41.755554 36.013878
-64.689789 -43.042645 32.275505
-68.35347 -23.570541 29.819033
-67.400574 -28.837246 29.082268
-67.113098 -24.725925 26.402802
-65.757217 -30.715813 39.051846
-66.987862 -26.686222 36.331604
-65.840927 -49.287403 42.189034
-65.512276 -54.186073 39.878616
-65.044815 -58.464699 36.322525
-65.613403 -58.809765 31.271404
-65.975426 -58.233406 26.163055
-65.777985 -34.031044 28.882267
-63.592518 -39.139317 28.943697
-61.656635 -44.04084 28.522827
-61.097977 -48.295609 26.900536
-62.397511 -51.349152 23.943785
-67.764069 -29.68429 34.148975
-67.734833 -32.226421 33.997829
-67.861252 -30.256207 32.352554
-64.631561 -47.442345 33.351135
-65.189247 -49.326118 34.64336
-64.349754 -49.786697 32.440598
-64.363174 -51.925995 31.16711
-63.401657 -50.077881 30.195553
-66.029587 -37.394291 40.847446
-66.326859 -39.822861 41.136906
-66.832855 -37.939384 39.352257
-67.116035 -37.305183 34.093006
-67.091133 -39.198898 35.971069
-66.524521 -39.858906 34.179314
-65.832962 -42.420734 34.152
-65.528191 -40.501293 32.379028
-68.489502 -21.517826 28.453156
-67.953323 -24.149708 28.03512
-67.948891 -22.091818 26.710823
-65.284546 -28.373444 39.360809
-66.4086 -28.720032 37.677895
-66.025475 -26.331915 38.148361
-66.398758 -44.844849 41.265129
-65.923447 -46.745258 42.758511
-66.246124 -47.405869 40.894489
-65.780334 -52.973793 36.736626
-65.857132 -52.406948 39.023064
-65.694626 -54.725719 37.543098
-65.303246 -56.427383 38.217175
-65.547974 -56.846283 35.776085
-65.666786 -57.127411 33.291569
-65.142014 -55.355576 27.717484
-65.694489 -57.045113 28.245602
-65.696167 -56.585705 25.702656
-66.16375 -57.496689 23.612656
-65.744522 -55.81049 23.160635
-66.411392 -29.418968 27.474474
-66.680046 -31.445812 28.918613
-65.395813 -32.022614 27.372395
-62.979156 -37.154953 27.382515
-61.751144 -39.663235 27.33568
-62.51931 -41.636131 28.846973
-60.696213 -42.087536 27.116924
-59.706635 -46.421021 25.816097
-59.971935 -48.177521 24.656128
-61.531609 -49.998798 25.568369
-60.757515 -49.577568 23.184277
-66.069702 -53.333782 18.139055
-67.078735 -33.592556 37.414574
-67.231995 -36.056747 37.536575
-67.529617 -34.157257 35.737156
-67.52771 -34.763847 34.00132
-67.049644 -35.386841 32.256302
-68.700577 -17.48287 25.597168
-67.945175 -20.044811 25.364159
-67.940651 -18.011194 23.953163
-66.195908 -46.211906 37.456825
-66.204117 -48.086639 38.893425
-65.832657 -48.74295 36.799591
-65.593262 -51.172291 35.773689
-65.511551 -53.43195 34.390152
-65.569382 -55.460339 32.698902
-65.1129 -53.724125 31.998497
-64.654434 -53.796719 29.568737
-64.206108 -53.605637 27.105366
-64.576096 -41.226494 44.152615
-65.711647 -41.724113 42.844185
-66.443161 -42.308525 41.31562
-66.742355 -42.958031 39.609833
-67.194969 -38.549446 37.711731
-66.96917 -41.079277 37.829124
-66.606873 -43.641781 37.776764
-66.061905 -44.323479 35.863171
-65.159744 -44.964893 33.904716
-63.976517 -45.52858 31.921659
-68.194611 -25.628204 31.200016
-67.926605 -28.246832 30.818127
-67.950882 -26.206625 29.388714
-67.261597 -26.791681 27.697716
-66.120331 -27.359549 26.169609
-66.974693 -22.651648 25.143169
-65.83461 -25.275234 24.959694
-64.552132 -27.89698 24.834099
-66.222534 -33.09354 38.994064
-66.780746 -31.146793 37.440361
-67.259109 -29.163479 35.935448
-67.670273 -27.141178 34.486046
-68.027161 -25.088297 33.084858
-68.339882 -23.022305 31.710041
-66.048508 -49.946175 40.150581
-65.693466 -51.787254 41.222103
-64.901779 -55.928215 40.589714
-65.70015 -57.211727 30.778238
-65.802917 -58.661163 28.719522
-67.506157 -30.851418 30.592617
-66.899773 -33.435219 30.517742
-66.101585 -36.003563 30.55022
-64.231308 -34.60228 27.363398
-64.721848 -36.596802 28.919693
-65.156403 -38.561485 30.611584
-64.164261 -41.100922 30.598343
-63.264679 -43.591621 30.399601
-62.605812 -45.979553 29.918591
-58.803303 -42.43581 25.38743
-59.971474 -44.365669 26.631174
-61.149422 -46.286263 27.887943
-62.308384 -48.1936 29.092665
-62.43486 -50.159012 27.905865
-62.971756 -51.813618 26.390144
-63.828972 -53.121742 24.614639
-63.567612 -52.334427 22.107273
-64.855438 -54.080704 22.667042
-65.865791 -54.719177 20.633848
-68.277615 -20.789053 26.884453
-68.219197 -21.804822 27.581989
-68.547921 -20.502057 27.75562
-65.070046 -27.233374 39.64592
-64.623135 -28.253147 40.174896
-65.44051 -26.212609 39.039696
-65.655011 -27.35268 38.754585
-65.070046 -27.233374 39.64592
-65.186676 -30.999943 26.701672
-65.903603 -30.720791 27.423434
-65.694466 -29.69812 26.752712
-60.744422 -39.891539 26.554108
-61.358673 -38.666441 26.63542
-60.351951 -38.894745 25.853848
-59.484209 -47.999157 23.506828
-59.168036 -47.268771 24.173271
-59.876999 -48.69918 22.770903
-60.364725 -48.877544 23.920203
-59.484209 -47.999157 23.506828
-68.351506 -16.755931 24.003113
-68.320614 -17.747032 24.775165
-68.731469 -16.49177 24.825115
-65.532146 -40.510807 42.690426
-65.143872 -41.475304 43.4984
-64.964371 -40.261997 43.344641
-64.992172 -25.530368 24.34448
-65.705986 -24.224283 24.371446
-64.350933 -26.84124 24.281683
-65.193371 -26.586107 24.896896
-64.992172 -25.530368 24.34448
-63.58195 -28.148737 24.267999
-64.350933 -26.84124 24.281683
-65.391532 -31.696793 39.753147
-65.110844 -30.547201 39.812933
-65.989875 -31.904677 39.022955
-65.624191 -32.885656 39.724256
-65.391532 -31.696793 39.753147
-67.994091 -23.816052 33.37488
-67.765271 -24.854959 34.043043
-68.150452 -22.783057 32.687472
-68.183522 -24.055301 32.39745
-67.994091 -23.816052 33.37488
-65.559639 -45.177135 43.693026
-65.441352 -43.933953 43.692667
-65.572151 -48.973417 43.127411
-65.613411 -47.702344 43.412149
-65.882187 -48.01633 42.473772
-65.549141 -50.226247 42.740246
-65.572151 -48.973417 43.127411
-65.314937 -53.896076 40.997425
-65.405532 -52.696666 41.669168
-65.602871 -52.986663 40.550359
-65.207028 -55.057144 40.234165
-65.009689 -54.767147 41.352974
-65.314937 -53.896076 40.997425
-64.826363 -58.274441 37.557571
-64.955578 -57.255783 38.504897
-65.174031 -57.446041 37.26985
-64.629631 -59.251402 36.572342
-64.826363 -58.274441 37.557571
-64.868874 -59.364981 35.306762
-64.629631 -59.251402 36.572342
-65.355133 -59.573526 31.504539
-65.492443 -58.767735 32.540422
-65.529476 -59.504904 30.22301
-65.355133 -59.573526 31.504539
-65.86911 -59.019179 26.386869
-65.782855 -59.233057 27.665103
-65.889172 -58.447285 27.441288
-66.024258 -58.675106 25.109136
-65.86911 -59.019179 26.386869
-66.280178 -57.808605 22.56625
-66.277981 -56.970053 22.34709
-63.281458 -34.872423 26.667743
-63.965297 -33.587795 26.67125
-58.557026 -43.489172 25.046185
-57.873306 -42.547629 24.509971
-59.141112 -44.454102 25.668058
-59.387389 -43.40074 26.009302
-58.557026 -43.489172 25.046185
-64.213856 -52.656347 21.12699
-63.506756 -51.793163 20.853276
-64.857769 -53.529486 21.406875
-64.211525 -53.207566 22.387158
-64.213856 -52.656347 21.12699
-65.362945 -53.848723 20.390278
-65.360614 -54.39994 21.650445
-64.857769 -53.529486 21.406875
-66.371033 -54.211794 18.361995
-66.535587 -53.403217 17.138973
-66.178223 -38.608576 40.992176
-65.839753 -39.560181 41.836787
-65.691116 -38.345896 41.692056
-66.217407 -21.87473 23.822143
-66.109649 -20.816334 23.219735
-64.874508 -29.376017 39.967415
-64.623135 -28.253147 40.174896
-65.520882 -29.544629 39.206328
-65.110844 -30.547201 39.812933
-64.874508 -29.376017 39.967415
-65.459728 -57.785994 34.792763
-65.208149 -58.595202 35.065983
-65.296394 -57.655491 36.049305
-65.519135 -57.926558 33.550505
-65.459728 -57.785994 34.792763
-65.60738 -56.986847 34.533827
-65.640095 -57.968588 32.281486
-65.492443 -58.767735 32.540422
-65.519135 -57.926558 33.550505
-66.068367 -56.126953 22.12108
-66.277981 -56.970053 22.34709
-65.954136 -56.65359 23.386646
-61.972679 -37.4123 26.658838
-62.655382 -36.14876 26.677301
-62.36515 -38.409094 27.359098
-61.972679 -37.4123 26.658838
-61.358673 -38.666441 26.63542
-59.035386 -46.390521 24.753255
-59.008692 -45.481778 25.260519
-59.839285 -47.299271 25.236112
-59.035386 -46.390521 24.753255
-59.168036 -47.268771 24.173271
-65.52414 -52.463082 17.89613
-65.464901 -53.156025 19.142882
-66.209721 -52.513792 16.916551
-65.52414 -52.463082 17.89613
-66.535587 -53.403217 17.138973
-66.209721 -52.513792 16.916551
-68.322876 -18.763841 25.480663
-68.275757 -19.765549 26.211122
-68.653458 -18.484579 26.327626
-67.932602 -16.995835 23.205481
-68.351506 -16.755931 24.003113
-67.35091 -18.254367 23.232385
-67.932602 -16.995835 23.205481
-67.342861 -17.239009 22.484702
-66.80931 -19.536834 23.186347
-67.399051 -19.293661 23.907125
-67.35091 -18.254367 23.232385
-66.109649 -20.816334 23.219735
-66.80931 -19.536834 23.186347
-59.263656 -39.125813 25.163933
-60.351951 -38.894745 25.853848
-64.781959 -42.441086 44.29195
-64.142151 -42.210013 44.90321
-65.349735 -42.689896 43.637736
-64.781959 -42.441086 44.29195
-65.143872 -41.475304 43.4984
-65.803264 -42.96817 42.899117
-65.441352 -43.933953 43.692667
-65.349735 -42.689896 43.637736
-66.019253 -40.773487 41.990546
-65.532146 -40.510807 42.690426
-65.839753 -39.560181 41.836787
-65.548935 -28.668411 26.100279
-65.694466 -29.69812 26.752712
-66.265861 -28.389259 26.822042
-67.947033 -21.068314 26.037491
-68.277615 -20.789053 26.884453
-68.275757 -19.765549 26.211122
-66.276027 -22.91249 24.463184
-66.916072 -21.613888 24.502128
-66.217407 -21.87473 23.822143
-66.404651 -23.963441 25.051431
-66.276027 -22.91249 24.463184
-65.705986 -24.224283 24.371446
-64.764836 -28.937126 25.432524
-65.548935 -28.668411 26.100279
-65.336231 -27.628265 25.501854
-63.850779 -29.201765 24.801821
-64.764836 -28.937126 25.432524
-63.850779 -29.201765 24.801821
-63.58195 -28.148737 24.267999
-63.831593 -41.026066 44.683979
-64.142151 -42.210013 44.90321
-64.288735 -40.044731 43.93862
-63.831593 -41.026066 44.683979
-64.964371 -40.261997 43.344641
-64.288735 -40.044731 43.93862
-65.431671 -37.163267 41.506856
-65.691116 -38.345896 41.692056
-65.802262 -36.205077 40.712881
-65.431671 -37.163267 41.506856
-66.089527 -35.257504 39.852531
-66.316853 -36.446719 39.987096
-65.802262 -36.205077 40.712881
-65.898735 -34.054701 39.78619
-65.624191 -32.885656 39.724256
-66.413326 -34.296343 39.060406
-66.089527 -35.257504 39.852531
-65.898735 -34.054701 39.78619
-65.840958 -25.177329 38.485895
-65.44051 -26.212609 39.039696
-66.357636 -25.2956 37.533643
-65.840958 -25.177329 38.485895
-66.838829 -25.472753 36.625265
-66.506669 -26.509068 37.239982
-66.357636 -25.2956 37.533643
-67.245621 -25.653921 35.666416
-66.838829 -25.472753 36.625265
-67.586827 -25.881399 34.743637
-67.329068 -26.9137 35.408825
-67.245621 -25.653921 35.666416
-67.848717 -26.114738 33.785452
-67.586827 -25.881399 34.743637
-67.765271 -24.854959 34.043043
-68.351166 -21.749399 32.001944
-68.150452 -22.783057 32.687472
-68.476872 -21.993765 31.01929
-68.351166 -21.749399 32.001944
-68.483666 -22.267883 30.073786
-68.346676 -23.296423 30.764537
-68.476872 -21.993765 31.01929
-68.551682 -21.241526 29.390847
-68.421486 -22.544183 29.136094
-68.483666 -22.267883 30.073786
-68.669251 -20.227508 28.67845
-68.551682 -21.241526 29.390847
-68.547921 -20.502057 27.75562
-68.669251 -20.227508 28.67845
-68.870438 -17.216189 26.501626
-68.653458 -18.484579 26.327626
-68.939815 -16.241035 25.710232
-68.870438 -17.216189 26.501626
-68.731469 -16.49177 24.825115
-68.939815 -16.241035 25.710232
-65.573921 -46.443651 43.595257
-65.559639 -45.177135 43.693026
-65.909165 -45.478742 42.856279
-65.573921 -46.443651 43.595257
-65.613411 -47.702344 43.412149
-65.475411 -51.476173 42.25678
-65.549141 -50.226247 42.740246
-65.767196 -50.537329 41.705568
-65.475411 -51.476173 42.25678
-65.405532 -52.696666 41.669168
-64.612602 -55.664061 41.721691
-65.009689 -54.767147 41.352974
-64.472553 -56.782711 40.889437
-64.612602 -55.664061 41.721691
-64.754845 -57.006199 39.691166
-65.102513 -56.177799 39.403444
-64.955578 -57.255783 38.504897
-64.472553 -56.782711 40.889437
-64.754845 -57.006199 39.691166
-64.868874 -59.364981 35.306762
-65.208149 -58.595202 35.065983
-65.624233 -59.430603 28.947069
-65.529476 -59.504904 30.22301
-65.70816 -58.735464 29.995463
-65.624233 -59.430603 28.947069
-65.782855 -59.233057 27.665103
-66.11842 -58.306748 23.833937
-66.024258 -58.675106 25.109136
-66.069588 -57.865048 24.887856
-66.11842 -58.306748 23.833937
-66.280178 -57.808605 22.56625
-64.54755 -32.297962 26.675749
-65.186676 -30.999943 26.701672
-64.81356 -33.312447 27.367897
-64.54755 -32.297962 26.675749
-63.965297 -33.587795 26.67125
-63.605232 -35.878616 27.372957
-63.281458 -34.872423 26.667743
-62.655382 -36.14876 26.677301
-58.699687 -40.306557 24.999541
-59.263656 -39.125813 25.163933
-58.232489 -41.46454 24.806988
-57.873306 -42.547629 24.509971
-59.270502 -41.277827 25.579982
-58.699687 -40.306557 24.999541
-58.232489 -41.46454 24.806988
-59.839055 -45.393345 26.223636
-59.141112 -44.454102 25.668058
-59.008692 -45.481778 25.260519
-60.456741 -49.23272 21.973399
-59.876999 -48.69918 22.770903
-61.363703 -50.087391 22.327187
-60.456741 -49.23272 21.973399
-62.183701 -50.973183 22.706941
-61.577513 -50.46336 23.564031
-61.363703 -50.087391 22.327187
-62.768751 -51.46582 21.788685
-63.506756 -51.793163 20.853276
-62.982562 -51.841789 23.025529
-62.183701 -50.973183 22.706941
-62.768751 -51.46582 21.788685
-66.129002 -55.581297 20.857686
-66.068367 -56.126953 22.12108
-65.805157 -55.264834 21.897241
-65.967747 -54.02648 19.386451
-65.362945 -53.848723 20.390278
-65.464901 -53.156025 19.142882
-66.269077 -54.904492 19.609391
-65.967747 -54.02648 19.386451
-66.371033 -54.211794 18.361995
-66.129002 -55.581297 20.857686
-66.269077 -54.904492 19.609391
3 0 38 36
3 1 41 39
3 1 43 41
3 2 46 44
3 4 49 47
3 4 51 49
3 149 54 150
3 151 150 52
3 149 150 151
3 152 55 153
3 154 57 155
3 156 155 55
3 154 155 156
3 3 60 58
3 5 63 61
3 5 65 63
3 5 66 65
3 6 69 67
3 6 71 69
3 157 74 158
3 159 158 72
3 157 158 159
3 7 160 162
3 160 76 161
3 160 161 162
3 7 78 76
3 163 80 164
3 165 82 166
3 167 166 80
3 165 166 167
3 8 86 84
3 10 87 37
3 10 88 87
3 168 91 169
3 170 169 89
3 168 169 170
3 12 94 92
3 14 95 40
3 14 96 95
3 14 98 96
3 16 99 42
3 16 100 99
3 171 102 172
3 173 172 101
3 171 172 173
3 18 103 45
3 18 104 103
3 9 105 85
3 19 106 48
3 19 107 106
3 19 108 107
3 20 109 50
3 20 110 109
3 21 113 111
3 23 114 53
3 23 115 114
3 11 116 90
3 174 117 175
3 176 118 177
3 178 177 117
3 176 177 178
3 180 179 118
3 24 181 182
3 24 183 185
3 183 119 184
3 183 184 185
3 24 120 119
3 25 121 56
3 25 122 121
3 186 123 187
3 188 124 189
3 190 189 123
3 188 189 190
3 17 191 192
3 26 193 195
3 195 194 59
3 193 194 195
3 26 196 197
3 13 125 93
3 27 126 62
3 27 198 200
3 200 199 126
3 198 199 200
3 27 201 203
3 201 127 202
3 201 202 203
3 28 204 206
3 206 205 64
3 204 205 206
3 28 207 208
3 28 209 210
3 29 211 212
3 29 213 214
3 15 128 97
3 30 129 68
3 30 215 217
3 217 216 129
3 215 216 217
3 30 218 219
3 221 220 70
3 22 130 112
3 31 131 73
3 31 132 131
3 222 133 223
3 32 134 75
3 32 135 134
3 32 136 135
3 33 137 77
3 33 138 137
3 224 139 225
3 226 140 227
3 228 227 139
3 226 227 228
3 34 141 79
3 34 142 141
3 34 143 142
3 35 144 81
3 35 145 144
3 229 146 230
3 231 147 232
3 233 232 146
3 231 232 233
3 234 148 235
3 236 235 147
3 234 235 236
3 238 237 83
3 36 37 8
3 38 37 36
3 38 10 37
3 39 40 12
3 41 40 39
3 41 14 40
3 41 42 14
3 43 42 41
3 43 16 42
3 44 239 241
3 239 45 240
3 239 240 241
3 46 45 44
3 46 18 45
3 47 48 9
3 49 48 47
3 49 19 48
3 49 50 19
3 51 50 49
3 51 20 50
3 52 53 21
3 54 53 52
3 54 23 53
3 243 242 11
3 55 244 245
3 55 246 248
3 246 24 247
3 246 247 248
3 55 56 24
3 57 56 55
3 57 25 56
3 58 59 17
3 60 59 58
3 60 26 59
3 61 62 13
3 63 62 61
3 63 27 62
3 63 64 27
3 65 64 63
3 65 28 64
3 65 249 251
3 251 250 28
3 249 250 251
3 66 252 254
3 254 253 65
3 252 253 254
3 66 255 257
3 255 29 256
3 255 256 257
3 67 68 15
3 69 68 67
3 69 30 68
3 69 70 30
3 71 70 69
3 71 258 260
3 260 259 70
3 258 259 260
3 72 73 22
3 74 73 72
3 74 31 73
3 261 75 262
3 76 263 265
3 263 75 264
3 263 264 265
3 76 32 75
3 76 77 32
3 78 77 76
3 78 33 77
3 266 79 267
3 80 268 270
3 268 79 269
3 268 269 270
3 80 34 79
3 80 81 34
3 82 81 80
3 82 35 81
3 271 83 272
3 273 83 274
3 276 275 83
3 84 85 2
3 86 85 84
3 86 9 85
3 37 86 8
3 87 86 37
3 87 9 86
3 87 47 9
3 88 47 87
3 88 4 47
3 89 277 279
3 277 90 278
3 277 278 279
3 91 90 89
3 91 11 90
3 280 91 281
3 282 91 283
3 282 283 284
3 285 11 286
3 287 286 91
3 285 286 287
3 289 288 11
3 92 93 3
3 94 93 92
3 94 13 93
3 40 94 12
3 95 94 40
3 95 13 94
3 95 61 13
3 96 61 95
3 96 5 61
3 96 97 5
3 98 97 96
3 98 15 97
3 42 98 14
3 99 98 42
3 99 15 98
3 99 67 15
3 100 67 99
3 100 6 67
3 290 7 291
3 101 292 293
3 102 294 296
3 296 295 101
3 294 295 296
3 102 297 299
3 297 17 298
3 297 298 299
3 45 300 302
3 300 102 301
3 300 301 302
3 103 102 45
3 103 17 102
3 103 58 17
3 104 58 103
3 104 3 58
3 85 46 2
3 105 46 85
3 105 18 46
3 48 105 9
3 106 105 48
3 106 18 105
3 106 104 18
3 107 104 106
3 107 3 104
3 107 92 3
3 108 92 107
3 108 12 92
3 50 108 19
3 109 108 50
3 109 12 108
3 109 39 12
3 110 39 109
3 110 1 39
3 111 112 0
3 113 112 111
3 113 22 112
3 53 113 21
3 114 113 53
3 114 22 113
3 114 72 22
3 115 72 114
3 115 303 305
3 305 304 72
3 303 304 305
3 90 306 308
3 306 54 307
3 306 307 308
3 116 54 90
3 116 23 54
3 309 116 310
3 311 310 11
3 309 310 311
3 117 312 314
3 312 116 313
3 312 313 314
3 117 23 116
3 117 115 23
3 118 115 117
3 118 315 317
3 317 316 115
3 315 316 317
3 118 318 319
3 321 320 118
3 322 101 323
3 324 101 325
3 327 326 101
3 328 44 329
3 330 44 331
3 332 2 333
3 334 333 44
3 332 333 334
3 119 335 336
3 119 337 339
3 337 2 338
3 337 338 339
3 119 84 2
3 120 84 119
3 120 8 84
3 56 120 24
3 121 120 56
3 121 8 120
3 121 36 8
3 122 36 121
3 122 0 36
3 340 57 341
3 342 57 343
3 344 25 345
3 346 345 57
3 344 345 346
3 347 25 348
3 349 122 350
3 351 350 25
3 349 350 351
3 123 352 354
3 352 122 353
3 352 353 354
3 123 0 122
3 123 111 0
3 124 111 123
3 124 21 111
3 355 124 356
3 357 124 358
3 359 21 360
3 361 360 124
3 359 360 361
3 362 52 363
3 364 363 21
3 362 363 364
3 365 52 366
3 368 367 52
3 369 89 370
3 371 89 372
3 374 373 89
3 59 375 377
3 377 376 17
3 375 376 377
3 379 378 59
3 93 60 3
3 125 60 93
3 125 26 60
3 62 125 13
3 126 125 62
3 126 26 125
3 126 380 382
3 382 381 26
3 380 381 382
3 384 383 126
3 127 385 386
3 127 387 388
3 64 127 27
3 389 127 390
3 391 390 64
3 389 390 391
3 393 392 127
3 395 394 28
3 97 66 5
3 128 66 97
3 128 29 66
3 68 128 15
3 129 128 68
3 129 29 128
3 129 396 398
3 398 397 29
3 396 397 398
3 400 399 129
3 70 401 403
3 403 402 30
3 401 402 403
3 405 404 70
3 112 38 0
3 130 38 112
3 130 10 38
3 73 130 22
3 131 130 73
3 131 10 130
3 131 88 10
3 132 88 131
3 132 4 88
3 406 74 407
3 133 408 410
3 408 74 409
3 408 409 410
3 133 31 74
3 75 411 413
3 411 133 412
3 411 412 413
3 134 133 75
3 134 31 133
3 134 132 31
3 135 132 134
3 135 4 132
3 135 51 4
3 136 51 135
3 136 20 51
3 77 136 32
3 137 136 77
3 137 20 136
3 137 110 20
3 138 110 137
3 138 1 110
3 414 7 415
3 139 416 417
3 139 418 420
3 418 7 419
3 418 419 420
3 139 78 7
3 140 78 139
3 140 33 78
3 79 421 423
3 421 140 422
3 421 422 423
3 141 140 79
3 141 33 140
3 141 138 33
3 142 138 141
3 142 1 138
3 142 43 1
3 143 43 142
3 143 16 43
3 81 143 34
3 144 143 81
3 144 16 143
3 144 100 16
3 145 100 144
3 145 6 100
3 424 82 425
3 426 82 427
3 428 35 429
3 430 429 82
3 428 429 430
3 146 431 432
3 146 433 435
3 433 35 434
3 433 434 435
3 146 145 35
3 147 145 146
3 147 6 145
3 147 71 6
3 148 71 147
3 148 436 438
3 438 437 71
3 436 437 438
3 83 439 441
3 439 148 440
3 439 440 441
3 442 148 443
3 444 443 83
3 442 443 444
3 446 445 148
