ply
format ascii 1.0
element vertex 74
property float x
property float y
property float z
element face 57
property list uchar int vertex_index
end_header
2.066851 37.229538 69.799721
0.662254 36.182495 67.356033
3.15164 39.391495 69.525299
2.023054 41.227489 67.682915
3.115299 43.336426 67.304329
1.253292 34.796379 69.69503
2.087353 33.228546 71.719078
3.16984 35.437069 71.561592
4.493647 37.354443 71.019829
1.20307 38.825642 67.69709
1.144325 42.849472 65.491661
0.689828 34.161356 68.2882
0.52476 34.76795 67.0214
3.796684 42.28884 68.093063
3.133469 41.363961 68.414814
3.814855 40.316374 69.203549
3.782668 44.222847 66.936821
3.796684 42.28884 68.093063
2.076705 31.227708 72.5783
1.681473 31.99809 71.600216
3.822959 34.448138 72.27449
3.159918 33.458242 72.487484
4.484863 35.406824 72.003609
3.831743 36.395756 71.290711
3.822959 34.448138 72.27449
1.560133 44.030956 65.430774
1.58369 42.03848 66.587288
1.999497 43.219965 66.526401
1.120296 44.85146 64.286915
1.560133 44.030956 65.430774
0.486388 36.788792 66.047126
0.52476 34.76795 67.0214
0.627806 38.203118 66.314198
0.486388 36.788792 66.047126
2.54562 44.274433 66.337108
1.999497 43.219965 66.526401
2.569177 42.281958 67.493622
3.098143 45.297013 66.100395
2.54562 44.274433 66.337108
3.098143 45.297013 66.100395
3.782668 44.222847 66.936821
1.264442 32.782007 70.588192
0.985348 33.468298 69.457698
1.670322 34.012462 70.707054
1.264442 32.782007 70.588192
1.681473 31.99809 71.600216
2.618675 32.353981 72.566227
2.076705 31.227708 72.5783
2.608026 30.353144 73.425449
2.628597 34.332808 71.640335
2.618675 32.353981 72.566227
3.159918 33.458242 72.487484
4.485858 39.297848 69.950814
3.814855 40.316374 69.203549
3.822643 38.372969 70.272564
0.957773 35.489437 68.525531
0.689828 34.161356 68.2882
0.985348 33.468298 69.457698
0.898213 39.524691 66.484726
0.627806 38.203118 66.314198
0.932662 37.504069 67.526561
0.868841 41.536606 65.382012
0.898213 39.524691 66.484726
1.173698 40.837557 66.594375
0.837307 43.55151 64.233242
0.868841 41.536606 65.382012
0.837307 43.55151 64.233242
1.120296 44.85146 64.286915
5.244174 36.245642 71.603257
4.484863 35.406824 72.003609
5.251649 38.152304 70.569466
5.244174 36.245642 71.603257
4.485858 39.297848 69.950814
5.251649 38.152304 70.569466
3 11 1 12
3 13 4 14
3 15 14 2
3 13 14 15
3 17 16 4
3 18 6 19
3 20 7 21
3 22 8 23
3 24 23 7
3 22 23 24
3 0 9 5
3 25 10 26
3 27 26 3
3 25 26 27
3 29 28 10
3 1 30 31
3 1 32 33
3 2 3 0
3 4 3 2
3 4 34 36
3 36 35 3
3 34 35 36
3 4 37 38
3 40 39 4
3 41 5 42
3 6 43 45
3 43 5 44
3 43 44 45
3 6 0 5
3 46 6 47
3 46 47 48
3 7 49 51
3 49 6 50
3 49 50 51
3 7 0 6
3 7 2 0
3 8 2 7
3 8 52 54
3 54 53 2
3 52 53 54
3 5 55 57
3 55 1 56
3 55 56 57
3 9 1 5
3 9 58 60
3 60 59 1
3 58 59 60
3 3 9 0
3 10 9 3
3 10 61 63
3 63 62 9
3 61 62 63
3 10 64 65
3 67 66 10
3 68 8 69
3 70 8 71
3 73 72 8
