ply
format ascii 1.0
element vertex 79
property float x
property float y
property float z
element face 61
property list uchar int vertex_index
end_header
68.302597 -55.324787 -20.918177
68.896385 -56.212093 -16.720633
69.851906 -48.079468 -24.009378
68.691498 -55.694687 -18.837137
69.762283 -52.76973 -18.423971
69.579071 -52.190845 -20.499567
70.23526 -48.613976 -22.032892
69.186508 -51.749855 -22.532469
70.669159 -44.966259 -23.437799
70.306656 -44.314545 -25.358824
67.737442 -55.0653 -22.929785
68.593613 -51.403942 -24.491213
69.311905 -54.856382 -16.526058
68.900039 -56.54681 -15.657563
70.024586 -51.42149 -18.194853
70.072159 -51.020771 -19.217306
67.369182 -54.960064 -23.881861
66.86541 -56.773617 -23.058491
67.797268 -53.129385 -24.662575
68.165527 -53.234621 -23.710499
67.369182 -54.960064 -23.881861
69.980553 -50.731329 -20.255104
70.072159 -51.020771 -19.217306
69.670677 -52.480288 -19.461769
69.907165 -50.402411 -21.26623
70.308647 -48.942894 -21.021766
69.980553 -50.731329 -20.255104
68.336666 -57.897087 -15.819998
68.900039 -56.54681 -15.657563
68.232219 -57.665087 -16.890606
68.336666 -57.897087 -15.819998
68.129776 -57.406384 -17.948858
68.793941 -55.95339 -17.778885
68.232219 -57.665087 -16.890606
67.944119 -57.248978 -19.006453
68.129776 -57.406384 -17.948858
67.749668 -57.064028 -20.046973
68.497048 -55.509737 -19.877657
67.944119 -57.248978 -19.006453
69.744854 -53.1352 -17.377727
69.311905 -54.856382 -16.526058
69.329334 -54.490912 -17.572302
69.744854 -53.1352 -17.377727
70.024586 -51.42149 -18.194853
70.501827 -47.16972 -21.753363
70.308647 -48.942894 -21.021766
70.718776 -45.345861 -22.455816
70.501827 -47.16972 -21.753363
70.452209 -46.790118 -22.735346
70.803341 -43.549109 -23.129694
70.718776 -45.345861 -22.455816
70.781173 -43.107721 -24.085104
70.803341 -43.549109 -23.129694
70.599922 -42.781864 -25.045617
70.781173 -43.107721 -24.085104
70.487908 -44.640402 -24.398311
70.434262 -42.387585 -25.984354
70.599922 -42.781864 -25.045617
67.487229 -56.967381 -21.074833
67.749668 -57.064028 -20.046973
67.204651 -56.837637 -22.080637
66.86541 -56.773617 -23.058491
68.02002 -55.195043 -21.923981
67.487229 -56.967381 -21.074833
67.204651 -56.837637 -22.080637
68.203415 -51.247462 -25.417494
67.797268 -53.129385 -24.662575
68.919128 -49.514066 -25.20277
68.203415 -51.247462 -25.417494
69.548275 -47.85183 -24.961853
69.222759 -49.741705 -24.250296
68.919128 -49.514066 -25.20277
69.77565 -45.969368 -25.636576
70.079281 -46.197007 -24.684101
69.548275 -47.85183 -24.961853
70.002888 -44.022112 -26.289099
69.77565 -45.969368 -25.636576
70.434262 -42.387585 -25.984354
70.002888 -44.022112 -26.289099
3 0 5 3
3 0 7 5
3 1 12 13
3 15 14 4
3 2 8 6
3 2 9 8
3 16 10 17
3 18 11 19
3 20 19 10
3 18 19 20
3 3 4 1
3 5 4 3
3 5 21 23
3 23 22 4
3 21 22 23
3 5 24 26
3 24 6 25
3 24 25 26
3 7 6 5
3 7 2 6
3 27 1 28
3 29 1 30
3 31 3 32
3 33 32 1
3 31 32 33
3 34 3 35
3 36 0 37
3 38 37 3
3 36 37 38
3 4 39 41
3 41 40 1
3 39 40 41
3 43 42 4
3 6 44 45
3 8 46 48
3 48 47 6
3 46 47 48
3 8 49 50
3 8 51 52
3 9 53 55
3 55 54 8
3 53 54 55
3 9 56 57
3 58 0 59
3 10 60 61
3 10 62 64
3 62 0 63
3 62 63 64
3 10 7 0
3 11 7 10
3 11 2 7
3 65 11 66
3 67 11 68
3 69 2 70
3 71 70 11
3 69 70 71
3 72 9 73
3 74 73 2
3 72 73 74
3 75 9 76
3 78 77 9
