ply
format ascii 1.0
element vertex 129
property float x
property float y
property float z
element face 105
property list uchar int vertex_index
end_header
8.735958 -81.36293 23.037193
10.255133 -80.572342 18.037167
9.419134 -84.970367 19.708715
8.493141 -85.9263 24.966795
10.988001 -80.365158 15.598252
10.652824 -82.492058 16.381166
7.959454 -81.89019 25.556923
8.12248 -84.153305 26.579914
8.756145 -83.596909 23.988197
8.513998 -87.316498 20.585672
9.502956 -80.910912 20.524166
9.388737 -83.106056 21.409657
10.021233 -82.72757 18.866278
9.921095 -84.688408 17.171816
7.5474 -79.704712 24.548801
9.261288 -78.791458 19.639898
10.092686 -78.477974 17.206129
10.897852 -78.274887 14.813752
10.394873 -76.182777 14.030046
9.526091 -74.046936 13.263981
8.944983 -85.397148 22.315462
8.230999 -87.791672 23.265406
11.131587 -81.382477 14.787384
11.340298 -80.32029 14.414105
10.183038 -84.62751 15.949585
10.28696 -83.590233 16.776491
10.548903 -83.529335 15.55426
9.595463 -85.748401 16.331363
10.183038 -84.62751 15.949585
6.779193 -78.889599 25.240824
7.117601 -79.970714 25.770865
8.523665 -77.951194 20.393995
8.835606 -79.000656 20.866658
9.819308 -77.443314 16.788445
9.383271 -77.597111 17.978327
10.221891 -77.34177 15.592256
10.495269 -78.37643 16.00994
9.819308 -77.443314 16.788445
9.970402 -76.295715 15.200403
10.646363 -77.228832 14.421899
10.221891 -77.34177 15.592256
8.518085 -73.108871 14.012038
9.093838 -74.184296 14.40462
8.943879 -72.936104 12.904795
8.518085 -73.108871 14.012038
8.273374 -86.215294 26.301865
8.088044 -85.328797 27.108425
8.30781 -85.039803 25.773354
8.245246 -87.139175 25.481653
8.273374 -86.215294 26.301865
7.815322 -88.780079 22.390868
8.372499 -87.554085 21.925539
7.956822 -88.542492 21.051001
7.781159 -89.037426 23.772208
7.815322 -88.780079 22.390868
10.963999 -82.445927 15.178842
10.820412 -81.428608 15.989709
11.131587 -81.382477 14.787384
10.548903 -83.529335 15.55426
10.963999 -82.445927 15.178842
8.040967 -83.021748 26.068418
7.652525 -83.300572 27.323776
7.571012 -82.169014 26.81228
8.687256 -87.147667 19.285865
8.966566 -86.143432 20.147194
9.139824 -85.974602 18.847387
8.042102 -88.34644 19.712723
8.687256 -87.147667 19.285865
7.956822 -88.542492 21.051001
8.042102 -88.34644 19.712723
9.390804 -85.833622 17.578938
9.139824 -85.974602 18.847387
9.670115 -84.829387 18.440266
9.390804 -85.833622 17.578938
9.595463 -85.748401 16.331363
7.323628 -81.063454 26.274926
7.571012 -82.169014 26.81228
7.753427 -80.797451 25.052862
7.323628 -81.063454 26.274926
7.117601 -79.970714 25.770865
7.220171 -78.639561 24.047479
6.779193 -78.889599 25.240824
7.978662 -79.457283 23.321109
7.220171 -78.639561 24.047479
8.572941 -80.286392 22.565306
8.141679 -80.533821 23.792997
7.978662 -79.457283 23.321109
8.95644 -80.060383 21.308792
9.119457 -81.136921 21.780679
8.572941 -80.286392 22.565306
9.382122 -79.851185 20.082032
8.95644 -80.060383 21.308792
8.835606 -79.000656 20.866658
8.967572 -77.753853 19.195211
8.523665 -77.951194 20.393995
9.676987 -78.634716 18.423013
8.967572 -77.753853 19.195211
9.383271 -77.597111 17.978327
11.295224 -79.275154 14.021854
11.340298 -80.32029 14.414105
10.942927 -79.320022 15.206002
11.282744 -78.215615 13.649636
11.295224 -79.275154 14.021854
11.031254 -77.169559 13.257784
11.282744 -78.215615 13.649636
10.646363 -77.228832 14.421899
10.802799 -76.093563 12.890367
11.031254 -77.169559 13.257784
9.528229 -75.252216 14.787653
9.970402 -76.295715 15.200403
9.960482 -75.114857 13.647013
9.528229 -75.252216 14.787653
9.093838 -74.184296 14.40462
10.368407 -75.025643 12.507335
10.802799 -76.093563 12.890367
9.960482 -75.114857 13.647013
9.945828 -73.914376 12.154097
10.368407 -75.025643 12.507335
9.945828 -73.914376 12.154097
8.943879 -72.936104 12.904795
7.805621 -84.440064 27.872516
7.652525 -83.300572 27.323776
7.805621 -84.440064 27.872516
8.088044 -85.328797 27.108425
8.114175 -88.071862 24.630958
8.245246 -87.139175 25.481653
8.36207 -86.858986 24.116101
8.114175 -88.071862 24.630958
7.781159 -89.037426 23.772208
3 23 22 4
3 0 8 6
3 1 12 10
3 24 13 25
3 26 25 5
3 24 25 26
3 28 27 13
3 29 14 30
3 31 15 32
3 33 16 34
3 35 17 36
3 37 36 16
3 35 36 37
3 38 18 39
3 40 39 17
3 38 39 40
3 41 19 42
3 44 43 19
3 3 45 47
3 47 46 7
3 45 46 47
3 3 48 49
3 2 20 11
3 50 21 51
3 52 51 9
3 50 51 52
3 54 53 21
3 4 5 1
3 55 5 56
3 57 56 4
3 55 56 57
3 59 58 5
3 6 60 62
3 60 7 61
3 60 61 62
3 8 7 6
3 8 3 7
3 63 9 64
3 65 64 2
3 63 64 65
3 66 9 67
3 69 68 9
3 10 11 0
3 12 11 10
3 12 2 11
3 5 12 1
3 13 12 5
3 13 2 12
3 13 70 72
3 72 71 2
3 70 71 72
3 74 73 13
3 75 6 76
3 14 77 79
3 77 6 78
3 77 78 79
3 14 0 6
3 80 14 81
3 82 14 83
3 84 0 85
3 86 85 14
3 84 85 86
3 87 10 88
3 89 88 0
3 87 88 89
3 15 90 92
3 90 10 91
3 90 91 92
3 15 1 10
3 93 15 94
3 16 95 97
3 95 15 96
3 95 96 97
3 16 1 15
3 16 4 1
3 17 4 16
3 17 98 100
3 100 99 4
3 98 99 100
3 17 101 102
3 18 103 105
3 105 104 17
3 103 104 105
3 18 106 107
3 108 18 109
3 19 110 112
3 110 18 111
3 110 111 112
3 19 113 115
3 115 114 18
3 113 114 115
3 19 116 117
3 119 118 19
3 7 120 121
3 123 122 7
3 11 8 0
3 20 8 11
3 20 3 8
3 9 20 2
3 21 20 9
3 21 3 20
3 21 124 126
3 126 125 3
3 124 125 126
3 128 127 21
