ply
format ascii 1.0
element vertex 231
property float x
property float y
property float z
element face 214
property list uchar int vertex_index
end_header
-1.752775 50.997208 -31.126356
1.679049 45.329498 -34.090981
-0.623058 30.795406 -29.865072
-1.617521 41.246269 -30.976141
0.207943 38.801868 -32.374084
-0.480284 48.487 -33.425438
4.910862 18.410606 -28.523306
8.852549 17.110886 -28.194517
0.322758 65.617195 -31.699526
-0.367008 57.448639 -33.228409
1.479836 53.990257 -34.787498
1.463388 20.089172 -28.380007
1.934399 28.621113 -30.515451
2.826559 36.159054 -32.36145
-1.778677 46.225136 -31.198076
-1.13386 45.0373 -32.333244
-1.238134 49.82769 -32.490967
4.99799 22.607006 -29.340994
6.846203 17.70932 -28.35956
6.841379 21.823132 -29.12343
1.537525 67.784348 -32.088211
1.044596 63.995964 -33.119133
-0.082632 61.633736 -32.624748
0.677835 60.013878 -33.832123
0.450562 55.846489 -34.208359
0.032307 21.047626 -27.86989
0.267511 25.435139 -29.128588
1.663643 24.42902 -29.458555
0.550409 29.697701 -30.364332
0.848274 42.304291 -33.340302
1.440336 37.490082 -32.49984
2.117462 40.801373 -33.32283
3.489079 39.262829 -33.09684
2.972023 43.566246 -33.971123
-1.241529 36.087681 -30.508471
-0.268059 34.930893 -31.202185
-0.820126 40.060825 -31.884516
-0.25148 43.725578 -33.036842
0.50679 46.981033 -33.939865
-1.568903 55.550964 -30.737612
2.153557 71.363159 -30.764433
-0.590561 62.957962 -31.008314
-0.937735 58.791481 -31.828566
-1.162792 54.414543 -32.3256
-0.508722 53.064934 -33.495728
0.384417 51.499557 -34.240616
1.477219 49.730164 -34.596352
2.709816 47.780502 -34.634789
3.100674 19.206982 -28.568167
3.254593 23.481022 -29.493666
3.491817 27.58696 -30.41308
0.927361 33.750301 -31.505449
2.312859 32.569187 -31.495176
3.837015 31.420506 -31.286291
4.30208 34.860321 -32.086075
-1.765726 48.611172 -31.162216
-1.987259 46.756531 -30.422325
-1.974308 49.142567 -30.386465
6.00619 24.222134 -29.651629
5.919684 22.215069 -29.232212
5.084496 24.614071 -29.76041
1.519521 63.020378 -33.627994
1.758058 64.907776 -33.210537
1.33614 61.029335 -33.98449
0.861216 62.004921 -33.475628
1.519521 63.020378 -33.627994
1.168604 59.056076 -34.23415
1.33614 61.029335 -33.98449
-0.766717 28.64042 -29.148773
-1.097652 31.346842 -29.416097
-0.177774 28.115272 -29.49683
-0.321433 25.960287 -28.780531
-0.766717 28.64042 -29.148773
-1.802938 39.226256 -30.186357
-1.902567 41.797664 -30.310076
-1.429525 38.666975 -30.742306
-1.614943 36.646962 -29.952523
-1.802938 39.226256 -30.186357
5.916005 15.954046 -28.098436
4.900104 16.265968 -28.142227
8.94767 15.04638 -27.866604
7.944497 15.345597 -27.949126
7.849376 17.410103 -28.277038
10.025081 14.843905 -27.829666
8.94767 15.04638 -27.866604
-1.412878 57.718102 -30.383392
-1.657358 56.020927 -29.756113
-1.501333 58.188065 -29.401893
2.619967 70.385044 -31.460109
2.998921 72.071987 -30.746818
0.579481 67.504615 -31.087019
1.186865 68.588192 -31.281362
0.930141 66.700772 -31.893868
0.089826 66.265381 -30.791191
0.579481 67.504615 -31.087019
-0.133902 64.287578 -31.35392
-0.366834 64.935765 -30.445585
0.089826 66.265381 -30.791191
3.32498 48.687725 -34.808053
2.687512 49.839092 -34.827225
3.360238 46.732185 -34.54147
3.32498 48.687725 -34.808053
1.380537 17.883747 -27.860948
0.664996 18.362974 -27.60589
0.747847 20.568399 -28.124949
2.231984 17.469476 -28.032457
1.380537 17.883747 -27.860948
2.282031 19.648077 -28.474087
3.050627 17.028382 -28.126537
2.231984 17.469476 -28.032457
4.187605 38.514447 -32.943085
3.898349 40.503594 -33.393711
-1.983145 44.287098 -30.421043
-1.987259 46.756531 -30.422325
-1.698099 43.735703 -31.087108
-1.902567 41.797664 -30.310076
-1.983145 44.287098 -30.421043
2.004522 66.801968 -32.695076
2.311951 68.595639 -32.121998
1.29106 65.890156 -32.603672
2.004522 66.801968 -32.695076
1.758058 64.907776 -33.210537
1.054968 56.972381 -34.422268
0.564199 57.930183 -34.020241
1.168604 59.056076 -34.23415
1.569605 56.044266 -34.711838
0.965199 54.918373 -34.497929
1.054968 56.972381 -34.422268
-0.439034 23.766531 -28.151182
-0.57378 21.560829 -27.429119
0.149909 23.241383 -28.499239
-0.439034 23.766531 -28.151182
-0.321433 25.960287 -28.780531
3.639821 42.655302 -33.830852
3.898349 40.503594 -33.393711
3.230551 41.414538 -33.533981
-1.406887 33.992979 -29.737797
-1.614943 36.646962 -29.952523
-0.932294 33.441544 -30.186771
-1.097652 31.346842 -29.416097
-1.406887 33.992979 -29.737797
6.883675 15.603403 -28.016563
5.916005 15.954046 -28.098436
5.878533 18.059963 -28.441433
6.883675 15.603403 -28.016563
7.944497 15.345597 -27.949126
6.879635 23.787514 -29.532528
6.00619 24.222134 -29.651629
6.044446 26.186516 -30.060727
7.787001 21.483263 -29.038957
6.879635 23.787514 -29.532528
8.792586 19.12714 -28.574501
7.846964 19.467009 -28.658974
7.787001 21.483263 -29.038957
9.865128 16.865792 -28.160248
8.792586 19.12714 -28.574501
10.025081 14.843905 -27.829666
9.865128 16.865792 -28.160248
-1.895958 51.500325 -30.244709
-1.974308 49.142567 -30.386465
-1.804022 53.777203 -30.050337
-1.657358 56.020927 -29.756113
-1.660839 53.274086 -30.931984
-1.895958 51.500325 -30.244709
-1.804022 53.777203 -30.050337
2.526645 73.033878 -29.970009
2.998921 72.071987 -30.746818
1.80465 72.152576 -29.86916
2.526645 73.033878 -29.970009
1.845541 69.573753 -31.426322
2.619967 70.385044 -31.460109
2.311951 68.595639 -32.121998
1.494881 70.377598 -30.619473
1.845541 69.573753 -31.426322
1.186865 68.588192 -31.281362
1.80465 72.152576 -29.86916
1.494881 70.377598 -30.619473
-0.717572 63.480652 -30.010236
-0.493844 65.458455 -29.447508
-0.366834 64.935765 -30.445585
-0.923707 61.4216 -30.518743
-1.050717 61.944291 -29.520666
-0.717572 63.480652 -30.010236
-1.097294 59.33836 -30.928869
-0.923707 61.4216 -30.518743
-0.764148 60.874721 -31.41844
-1.253319 57.171222 -31.283089
-1.412878 57.718102 -30.383392
-1.097294 59.33836 -30.928869
2.144856 54.945778 -34.931964
1.569605 56.044266 -34.711838
2.072522 52.94397 -34.903579
2.144856 54.945778 -34.931964
2.071213 50.813923 -34.808007
1.478527 51.860211 -34.691925
2.072522 52.94397 -34.903579
2.093517 48.755333 -34.615571
2.071213 50.813923 -34.808007
2.687512 49.839092 -34.827225
3.491341 44.625057 -34.209637
2.84092 45.673374 -34.302956
3.360238 46.732185 -34.54147
3.639821 42.655302 -33.830852
3.491341 44.625057 -34.209637
-0.080294 18.825079 -27.265083
-0.57378 21.560829 -27.429119
-0.080294 18.825079 -27.265083
0.664996 18.362974 -27.60589
3.99501 16.664156 -28.164657
3.050627 17.028382 -28.126537
4.005768 18.808794 -28.545737
4.900104 16.265968 -28.142227
3.99501 16.664156 -28.164657
4.331409 27.104048 -30.296453
5.084496 24.614071 -29.76041
4.244903 25.096983 -29.877037
4.504008 29.020821 -30.733059
4.331409 27.104048 -30.296453
3.664416 29.503733 -30.849685
4.639054 30.884379 -31.148393
4.504008 29.020821 -30.733059
4.871587 32.604286 -31.548285
4.639054 30.884379 -31.148393
4.069548 33.140414 -31.686183
5.052922 34.266339 -31.946067
4.871587 32.604286 -31.548285
4.594105 36.313192 -32.437703
3.89558 37.061575 -32.591458
4.187605 38.514447 -32.943085
5.052922 34.266339 -31.946067
4.594105 36.313192 -32.437703
3 0 55 57
3 55 14 56
3 55 56 57
3 0 16 14
3 58 19 59
3 60 59 17
3 58 59 60
3 61 21 62
3 63 23 64
3 65 64 21
3 63 64 65
3 67 66 23
3 2 68 69
3 2 70 72
3 70 26 71
3 70 71 72
3 2 28 26
3 1 31 29
3 1 33 31
3 3 73 74
3 3 75 77
3 75 34 76
3 75 76 77
3 3 36 34
3 5 37 15
3 5 38 37
3 6 78 79
3 7 80 82
3 82 81 18
3 80 81 82
3 7 83 84
3 85 39 86
3 85 86 87
3 88 40 89
3 8 90 92
3 92 91 20
3 90 91 92
3 8 93 94
3 8 95 97
3 95 41 96
3 95 96 97
3 9 42 22
3 9 43 42
3 9 44 43
3 10 45 24
3 10 46 45
3 98 47 99
3 101 100 47
3 11 102 104
3 104 103 25
3 102 103 104
3 11 105 106
3 11 107 109
3 107 48 108
3 107 108 109
3 12 49 27
3 12 50 49
3 4 51 35
3 13 52 30
3 13 53 52
3 13 54 53
3 111 110 32
3 14 112 113
3 14 114 116
3 114 3 115
3 114 115 116
3 14 15 3
3 16 15 14
3 16 5 15
3 17 18 6
3 19 18 17
3 19 7 18
3 117 20 118
3 21 119 121
3 119 20 120
3 119 120 121
3 21 8 20
3 21 22 8
3 23 22 21
3 23 9 22
3 23 24 9
3 122 24 123
3 124 123 23
3 122 123 124
3 125 10 126
3 127 126 24
3 125 126 127
3 128 25 129
3 26 130 132
3 130 25 131
3 130 131 132
3 26 11 25
3 26 27 11
3 28 27 26
3 28 12 27
3 29 30 4
3 31 30 29
3 31 13 30
3 31 32 13
3 33 32 31
3 33 133 135
3 135 134 32
3 133 134 135
3 34 136 137
3 34 138 140
3 138 2 139
3 138 139 140
3 34 35 2
3 36 35 34
3 36 4 35
3 15 36 3
3 37 36 15
3 37 4 36
3 37 29 4
3 38 29 37
3 38 1 29
3 18 141 143
3 143 142 6
3 141 142 143
3 145 144 18
3 146 19 147
3 146 147 148
3 149 19 150
3 151 7 152
3 153 152 19
3 151 152 153
3 154 7 155
3 157 156 7
3 158 0 159
3 39 160 161
3 39 162 164
3 162 0 163
3 162 163 164
3 40 165 166
3 40 167 168
3 20 169 171
3 169 40 170
3 169 170 171
3 172 40 173
3 174 173 20
3 172 173 174
3 176 175 40
3 41 177 179
3 177 178 179
3 41 180 182
3 180 181 182
3 22 41 8
3 42 41 22
3 42 183 185
3 185 184 41
3 183 184 185
3 42 186 188
3 186 39 187
3 186 187 188
3 43 39 42
3 43 0 39
3 43 16 0
3 44 16 43
3 44 5 16
3 24 44 9
3 45 44 24
3 45 5 44
3 45 38 5
3 46 38 45
3 46 1 38
3 189 10 190
3 191 10 192
3 193 46 194
3 195 194 10
3 193 194 195
3 47 196 198
3 196 46 197
3 196 197 198
3 47 1 46
3 47 33 1
3 199 33 200
3 201 200 47
3 199 200 201
3 203 202 33
3 25 204 205
3 207 206 25
3 48 208 209
3 48 210 212
3 210 6 211
3 210 211 212
3 27 48 11
3 49 48 27
3 49 6 48
3 49 17 6
3 50 17 49
3 50 213 215
3 215 214 17
3 213 214 215
3 35 28 2
3 51 28 35
3 51 12 28
3 30 51 4
3 52 51 30
3 52 12 51
3 52 50 12
3 53 50 52
3 53 216 218
3 218 217 50
3 216 217 218
3 53 219 220
3 54 221 223
3 223 222 53
3 221 222 223
3 54 224 225
3 32 54 13
3 226 54 227
3 228 227 32
3 226 227 228
3 230 229 54
