ply
format ascii 1.0
element vertex 610
property float x
property float y
property float z
element face 562
property list uchar int vertex_index
end_header
70.561867 -40.460625 -26.609884
66.415741 -9.123349 -37.322098
68.524773 -30.525045 -23.853373
65.808983 -16.631737 -28.29756
69.805908 -24.550688 -31.535799
68.69561 -57.673672 -12.475456
63.190933 -11.949158 -21.559767
63.413284 -3.071595 -31.696463
70.699593 -34.809647 -25.27286
69.829353 -27.366209 -27.642298
70.522453 -32.54982 -28.998243
69.203865 -30.580036 -32.763718
69.15448 -39.02697 -30.23807
62.554878 -18.272442 -20.782682
66.776787 -12.644592 -32.755951
64.5354 -9.757874 -30.280653
64.86628 -5.568439 -35.109871
63.918472 -1.88969 -39.938835
64.080551 -20.729996 -23.914698
67.188171 -23.5779 -26.088427
68.477928 -19.935482 -30.153124
68.426849 -16.695812 -34.375946
66.97744 -14.026842 -38.802094
68.522362 -22.164593 -35.620018
70.937523 -42.131958 -22.821589
67.573204 -59.381557 -8.28941
69.949295 -51.009819 -15.915129
70.382034 -49.271812 -20.010641
64.710243 -10.394635 -16.921347
63.839989 -5.936949 -21.831251
63.524567 -14.100807 -25.484938
63.305367 -7.552051 -26.577795
62.336975 3.159151 -32.338257
64.423767 -11.873675 -43.360832
70.922119 -37.468407 -25.950144
70.771721 -33.636753 -27.134214
70.630028 -36.531429 -27.806391
69.967842 -39.733124 -28.446184
67.257576 -47.957737 -13.050098
62.37822 -21.451777 -20.230139
66.783615 -10.807759 -35.024651
65.838348 -9.075702 -33.991852
65.713364 -7.188378 -36.340385
64.576439 -3.64617 -37.526466
65.214218 -5.460441 -38.701408
65.667274 -7.610375 -39.645424
66.176033 -25.454882 -24.085215
67.874008 -27.055496 -24.972055
69.989563 -25.90642 -29.569532
69.205353 -23.640093 -28.875204
69.37928 -22.057795 -30.874533
68.633995 -18.249666 -32.239899
69.199234 -20.593662 -32.922287
68.681427 -19.259155 -35.02562
69.302063 -23.305214 -33.551178
69.096306 -42.135056 -18.372309
69.966202 -40.834843 -20.285715
70.582817 -39.614517 -22.187506
70.690964 -43.128284 -20.887686
68.255211 -58.531433 -10.372562
68.967796 -55.318302 -12.158844
69.372765 -52.04533 -13.868574
69.465141 -54.365746 -14.239817
63.285683 -14.061043 -19.138762
64.239838 -8.183664 -19.327829
64.993904 -18.6901 -26.098913
63.752045 -17.415812 -24.744028
64.49572 -15.305319 -27.03348
63.957939 -6.379697 -31.078821
63.708969 -8.591102 -28.586824
63.398056 -5.306206 -29.133074
63.247627 -4.388325 -26.885359
63.107506 -2.118835 -29.496874
62.88279 0.127003 -32.114983
66.795372 -16.955204 -39.390854
65.813301 -12.89614 -41.075996
65.527824 -15.945345 -41.621506
69.329636 -28.913742 -25.741568
70.333481 -31.095711 -26.449488
70.456802 -29.774448 -28.328848
70.246796 -28.545599 -30.230997
69.732376 -27.407444 -32.166306
69.982582 -31.536972 -30.87229
68.178505 -38.303215 -31.98736
68.023262 -43.482231 -16.446371
67.804436 -60.187843 -12.775888
68.903694 -56.881527 -14.594492
62.841042 -15.095161 -21.231234
66.430977 -14.600533 -30.514872
65.153175 -13.180582 -29.338354
65.629303 -11.087871 -31.657747
64.829781 -7.620414 -32.693352
64.041847 -4.212818 -33.57177
63.267006 -0.88969 -34.254974
63.876823 -2.13674 -36.057976
65.049973 -19.172628 -42.037018
63.447075 -25.933084 -20.943701
63.166222 -22.713804 -21.74365
64.510948 -24.032074 -23.023428
65.558716 -22.075956 -25.108015
66.492737 -20.10047 -27.202845
68.689934 -25.31665 -26.912493
67.979729 -21.72427 -28.106676
67.220284 -18.148849 -29.316637
67.662796 -16.266947 -31.459139
67.763847 -14.496752 -33.638641
67.494293 -12.870119 -35.86013
66.854019 -11.40379 -38.123299
67.864204 -15.288528 -36.564499
67.863548 -18.051613 -37.184883
67.521095 -21.112352 -37.7379
68.963112 -26.349596 -34.141975
69.111572 -33.979881 -22.716673
70.907875 -38.491875 -24.076609
70.893188 -41.249184 -24.732409
67.527679 -51.077686 -11.476847
68.610023 -49.916206 -13.479231
69.50174 -48.74704 -15.481451
70.173134 -47.630409 -17.484278
69.727425 -53.500671 -16.331484
70.286888 -50.07325 -17.965734
70.600594 -46.614235 -19.484663
70.768394 -45.725464 -21.473833
69.69912 -43.729679 -27.219374
68.880447 -43.161438 -29.006632
66.805634 -41.883316 -32.347275
65.054779 -7.793775 -16.851885
64.514702 -5.50726 -19.27677
63.017273 -19.473639 -22.473715
62.992683 -16.222898 -23.116426
63.07048 -12.980146 -23.648283
64.069199 -11.933146 -27.87591
63.384567 -10.803409 -26.105654
63.214149 -9.77467 -24.046835
63.374359 -6.648967 -24.298784
62.496788 2.309753 -34.724396
65.869614 -10.098787 -40.421867
64.586639 -8.943423 -42.740913
63.059685 -7.919228 -45.053139
62.856255 -10.935923 -45.614929
66.619919 -48.560046 -12.058809
66.37648 -47.047209 -12.797372
62.359948 -23.033463 -19.909489
62.142426 -22.393814 -19.127388
68.19939 -28.79027 -24.412714
67.349052 -27.938349 -24.005781
67.674435 -29.673123 -23.44644
70.066857 -42.536623 -19.612803
69.531254 -41.484949 -19.329012
69.631909 -43.186729 -18.656099
70.429237 -43.683343 -19.913788
70.328583 -41.981564 -20.5867
70.066857 -42.536623 -19.612803
68.475411 -58.102553 -11.424009
67.940502 -59.712809 -10.508627
68.160702 -59.283928 -11.560073
63.498146 -11.503933 -20.424103
63.545521 -12.559875 -19.2136
63.238308 -13.005101 -20.349265
63.36858 -10.413153 -21.659168
63.498146 -11.503933 -20.424103
65.939121 -18.034703 -40.754707
66.161598 -16.450274 -40.50618
66.572895 -18.539632 -39.639381
70.516537 -32.952679 -25.861174
70.104466 -31.799132 -25.515833
70.287521 -33.656099 -24.927519
69.208954 -36.923328 -30.855933
69.607521 -37.342476 -29.942189
68.666493 -38.665093 -31.112715
68.720967 -36.561451 -31.730577
69.208954 -36.923328 -30.855933
68.217006 -45.090534 -15.733788
67.413437 -44.157291 -15.475701
68.709171 -44.461984 -16.715143
68.217006 -45.090534 -15.733788
67.105133 -61.520067 -12.911023
67.11747 -61.783682 -11.838318
67.790692 -59.884962 -13.847625
67.105133 -61.520067 -12.911023
62.654492 -17.703107 -19.828318
62.415684 -19.253643 -19.641044
62.69796 -16.683802 -21.006958
62.797573 -16.114466 -20.052594
62.654492 -17.703107 -19.828318
63.65712 -1.042631 -39.234905
63.986103 -1.920871 -38.02872
64.247456 -2.76793 -38.73265
63.238214 -0.158512 -40.461536
63.65712 -1.042631 -39.234905
63.400447 -1.10716 -41.139705
63.238214 -0.158512 -40.461536
64.771748 -25.673946 -22.554424
63.979011 -24.982579 -21.983564
64.239811 -26.624451 -21.514561
69.357292 -35.698143 -22.126692
68.603489 -34.742532 -21.780189
69.706813 -35.025868 -23.06254
69.357292 -35.698143 -22.126692
67.071033 -60.857573 -7.366324
66.893513 -61.984335 -7.488159
67.395684 -60.508319 -8.411245
67.113381 -59.765131 -7.257812
67.071033 -60.857573 -7.366324
67.42263 -58.297973 -8.16575
67.113381 -59.765131 -7.257812
68.047398 -52.100212 -11.653585
67.539207 -52.626014 -10.638568
68.58857 -51.519472 -12.654777
68.068851 -50.496946 -12.478039
68.047398 -52.100212 -11.653585
69.311905 -54.856382 -16.526058
69.31556 -55.191099 -15.462988
68.900039 -56.54681 -15.657563
70.334461 -49.672531 -18.988188
70.024586 -51.42149 -18.194853
70.072159 -51.020771 -19.217306
69.067795 -45.459831 -27.471931
69.471882 -45.676935 -26.566851
68.658458 -45.17571 -28.365561
69.289783 -43.445558 -28.113003
69.067795 -45.459831 -27.471931
66.585553 -44.017517 -31.67888
67.351776 -42.221558 -31.531244
64.98254 -11.482173 -15.777639
64.443321 -11.791426 -16.916947
65.166484 -10.226662 -15.733809
64.98254 -11.482173 -15.777639
64.882511 -9.094205 -16.886616
65.338752 -8.926232 -15.699078
65.166484 -10.226662 -15.733809
63.921044 -4.569195 -21.815162
64.2584 -4.35435 -20.537922
64.177346 -5.722105 -20.554011
63.369896 -4.02461 -25.646258
63.204559 -2.878999 -26.958365
62.378402 3.438178 -31.025559
62.608596 2.3156 -29.697239
62.567169 2.036574 -31.009936
62.037541 4.554002 -32.36525
62.378402 3.438178 -31.025559
62.688439 1.752229 -35.761265
62.881897 0.710032 -34.489685
63.073548 0.152507 -35.526554
64.57663 -17.084008 -42.937752
64.345512 -18.703677 -43.085293
62.001503 -10.500854 -46.696323
62.702904 -12.509933 -45.799785
62.099152 -8.971978 -46.464885
62.001503 -10.500854 -46.696323
70.345295 -36.094706 -28.726349
70.291507 -34.103901 -29.322275
70.57624 -34.540624 -28.402317
70.014202 -37.695553 -29.046245
70.345295 -36.094706 -28.726349
70.298935 -38.132277 -28.126288
69.561161 -39.380047 -29.342127
69.607521 -37.342476 -29.942189
70.014202 -37.695553 -29.046245
67.030594 -46.395044 -13.777565
66.37648 -47.047209 -12.797372
67.834164 -47.328287 -14.035652
67.030594 -46.395044 -13.777565
62.327354 -20.843311 -19.364773
62.142426 -22.393814 -19.127388
62.466549 -19.86211 -20.506411
62.415684 -19.253643 -19.641044
62.327354 -20.843311 -19.364773
64.773033 -4.68714 -39.885796
64.12516 -2.901765 -40.504509
64.566345 -3.675066 -39.320121
64.999561 -5.762107 -40.357804
64.773033 -4.68714 -39.885796
65.440746 -6.535408 -39.173416
65.114543 -6.941743 -40.815929
64.999561 -5.762107 -40.357804
66.500065 -27.138041 -23.562361
65.60429 -26.385351 -23.085318
67.025021 -26.255189 -24.528635
66.500065 -27.138041 -23.562361
67.349052 -27.938349 -24.005781
68.72612 -30.118445 -33.72028
68.752079 -32.283673 -33.028805
68.872696 -40.479876 -19.012925
68.299099 -41.20126 -18.063496
69.307644 -39.829769 -19.969628
68.872696 -40.479876 -19.012925
69.531254 -41.484949 -19.329012
69.784607 -39.125624 -20.911213
69.307644 -39.829769 -19.969628
70.274509 -40.22468 -21.23661
70.092915 -38.515461 -21.862108
69.784607 -39.125624 -20.911213
67.736687 -60.083258 -9.452821
67.940502 -59.712809 -10.508627
67.914208 -58.956495 -9.330986
67.395684 -60.508319 -8.411245
67.736687 -60.083258 -9.452821
68.244453 -57.411782 -10.232616
67.90345 -57.836844 -9.19104
67.914208 -58.956495 -9.330986
68.600746 -55.805216 -11.125757
68.244453 -57.411782 -10.232616
68.611503 -56.924868 -11.265703
68.767456 -54.22052 -11.994584
68.600746 -55.805216 -11.125757
69.170281 -53.681816 -13.013709
68.969941 -52.584034 -12.849449
68.767456 -54.22052 -11.994584
69.980553 -50.731329 -20.255104
70.072159 -51.020771 -19.217306
70.308647 -48.942894 -21.021766
69.980553 -50.731329 -20.255104
63.731041 -13.62463 -18.025654
63.407776 -15.083368 -17.972689
63.731041 -13.62463 -18.025654
63.545521 -12.559875 -19.2136
64.257801 -10.726671 -18.104893
64.443321 -11.791426 -16.916947
64.022599 -9.621185 -19.308134
64.475041 -9.28915 -18.124588
64.257801 -10.726671 -18.104893
63.893033 -8.530406 -20.5432
64.022599 -9.621185 -19.308134
63.693108 -7.407049 -21.794911
64.039914 -7.060307 -20.57954
63.893033 -8.530406 -20.5432
63.134498 -1.744254 -28.264122
63.204559 -2.878999 -26.958365
63.177566 -3.25358 -28.191116
62.952434 -0.602419 -29.589245
63.134498 -1.744254 -28.264122
62.840076 0.5205 -30.8983
62.952434 -0.602419 -29.589245
62.995148 -0.995916 -30.805929
62.609882 1.643077 -32.22662
62.567169 2.036574 -31.009936
62.840076 0.5205 -30.8983
69.602543 -30.708147 -25.161873
68.927204 -29.719393 -24.797471
69.200111 -31.513799 -24.217776
69.831558 -30.004727 -26.095528
69.602543 -30.708147 -25.161873
70.104466 -31.799132 -25.515833
70.021572 -33.597477 -30.259298
70.252517 -32.043396 -29.935266
70.291507 -34.103901 -29.322275
69.623005 -33.17833 -31.173043
70.021572 -33.597477 -30.259298
69.233646 -32.699861 -32.118756
69.593223 -31.058504 -31.818004
69.623005 -33.17833 -31.173043
68.752079 -32.283673 -33.028805
69.233646 -32.699861 -32.118756
68.239399 -36.145262 -32.640626
68.720967 -36.561451 -31.730577
67.639122 -37.916229 -32.842866
68.239399 -36.145262 -32.640626
67.126808 -42.594753 -16.141056
67.413437 -44.157291 -15.475701
67.762577 -41.874848 -17.100527
67.126808 -42.594753 -16.141056
68.559784 -42.808644 -17.40934
68.299099 -41.20126 -18.063496
67.762577 -41.874848 -17.100527
69.245694 -43.788397 -17.678112
68.559784 -42.808644 -17.40934
68.709171 -44.461984 -16.715143
69.631909 -43.186729 -18.656099
69.245694 -43.788397 -17.678112
67.715114 -60.541014 -11.71029
67.11747 -61.783682 -11.838318
68.250023 -58.930757 -12.625672
68.160702 -59.283928 -11.560073
67.715114 -60.541014 -11.71029
68.340321 -58.231804 -14.756927
68.354065 -58.534685 -13.68519
67.790692 -59.884962 -13.847625
68.336666 -57.897087 -15.819998
68.900039 -56.54681 -15.657563
68.340321 -58.231804 -14.756927
63.019894 -15.597407 -19.006358
63.407776 -15.083368 -17.972689
63.063362 -14.578102 -20.184998
63.019894 -15.597407 -19.006358
62.797573 -16.114466 -20.052594
63.378456 -0.471018 -36.428055
63.073548 0.152507 -35.526554
63.571915 -1.513215 -35.156475
63.636295 -1.166156 -37.294475
64.226631 -2.891455 -36.792221
63.986103 -1.920871 -38.02872
63.378456 -0.471018 -36.428055
63.636295 -1.166156 -37.294475
63.400447 -1.10716 -41.139705
64.12516 -2.901765 -40.504509
65.368107 -21.312785 -41.147789
65.700196 -19.648344 -40.962463
64.723888 -20.836175 -42.154942
65.368107 -21.312785 -41.147789
64.345512 -18.703677 -43.085293
64.723888 -20.836175 -42.154942
63.306648 -24.323444 -21.343675
62.753948 -23.664477 -20.666244
62.894375 -25.274117 -20.26627
65.343491 -24.743478 -23.554322
64.771748 -25.673946 -22.554424
65.60429 -26.385351 -23.085318
66.935756 -20.618206 -38.812905
66.572895 -18.539632 -39.639381
67.158233 -19.033778 -38.564377
68.605743 -28.003225 -34.409408
69.083488 -28.464816 -33.452846
68.72612 -30.118445 -33.72028
68.480572 -25.851763 -35.150291
68.605743 -28.003225 -34.409408
68.260197 -23.759262 -35.889313
68.742737 -24.257095 -34.880997
68.480572 -25.851763 -35.150291
67.759563 -23.233142 -36.948254
68.021728 -21.638472 -36.678959
68.260197 -23.759262 -35.889313
67.206745 -22.7546 -37.971924
67.759563 -23.233142 -36.948254
66.935756 -20.618206 -38.812905
67.206745 -22.7546 -37.971924
62.953525 -26.843266 -19.905952
62.894375 -25.274117 -20.26627
63.650463 -27.530215 -20.512413
62.953525 -26.843266 -19.905952
64.239811 -26.624451 -21.514561
63.650463 -27.530215 -20.512413
67.999817 -31.348279 -22.909081
67.674435 -29.673123 -23.44644
68.293216 -33.075697 -22.34073
68.603489 -34.742532 -21.780189
68.818173 -32.252463 -23.285023
67.999817 -31.348279 -22.909081
68.293216 -33.075697 -22.34073
69.493511 -33.241217 -23.649425
69.200111 -31.513799 -24.217776
68.818173 -32.252463 -23.285023
69.493511 -33.241217 -23.649425
69.706813 -35.025868 -23.06254
70.500824 -35.440751 -24.340634
70.287521 -33.656099 -24.927519
70.442436 -37.843186 -22.797956
70.092915 -38.515461 -21.862108
70.604965 -37.281864 -23.742508
70.442436 -37.843186 -22.797956
70.745346 -39.053196 -23.132058
70.803734 -36.650761 -24.674734
70.500824 -35.440751 -24.340634
70.604965 -37.281864 -23.742508
67.42263 -58.297973 -8.16575
67.90345 -57.836844 -9.19104
66.909359 -51.623424 -10.474463
67.539207 -52.626014 -10.638568
66.754971 -50.12002 -11.272184
66.909359 -51.623424 -10.474463
67.392628 -49.517712 -12.263472
66.619919 -48.560046 -12.058809
66.754971 -50.12002 -11.272184
68.510387 -48.307522 -14.250218
67.834164 -47.328287 -14.035652
67.933799 -48.936971 -13.264665
68.991394 -50.980768 -13.673903
68.58857 -51.519472 -12.654777
68.969941 -52.584034 -12.849449
68.956245 -47.722938 -15.251328
68.510387 -48.307522 -14.250218
69.055881 -49.331623 -14.480341
69.44841 -47.094389 -16.232683
68.956245 -47.722938 -15.251328
69.784108 -46.536074 -17.234096
69.44841 -47.094389 -16.232683
69.837437 -48.188724 -16.482864
70.170322 -45.934406 -18.212084
69.784108 -46.536074 -17.234096
69.744854 -53.1352 -17.377727
69.311905 -54.856382 -16.526058
70.007157 -51.78696 -17.148609
69.744854 -53.1352 -17.377727
70.024586 -51.42149 -18.194853
70.384052 -45.426319 -19.212277
70.170322 -45.934406 -18.212084
70.386864 -47.122322 -18.484471
70.645779 -44.87126 -20.186174
70.429237 -43.683343 -19.913788
70.384052 -45.426319 -19.212277
70.501827 -47.16972 -21.753363
70.575214 -47.498638 -20.742237
70.308647 -48.942894 -21.021766
70.718776 -45.345861 -22.455816
70.501827 -47.16972 -21.753363
70.803341 -43.549109 -23.129694
70.852958 -43.928711 -22.147711
70.718776 -45.345861 -22.455816
70.781173 -43.107721 -24.085104
70.915356 -41.690571 -23.776999
70.803341 -43.549109 -23.129694
70.599922 -42.781864 -25.045617
70.781173 -43.107721 -24.085104
70.434262 -42.387585 -25.984354
70.727528 -40.854905 -25.671146
70.599922 -42.781864 -25.045617
70.002888 -44.022112 -26.289099
69.77565 -45.969368 -25.636576
69.471882 -45.676935 -26.566851
70.130494 -42.095152 -26.914629
70.434262 -42.387585 -25.984354
70.002888 -44.022112 -26.289099
68.171265 -44.938935 -29.215635
68.658458 -45.17571 -28.365561
68.389183 -42.860619 -29.860922
68.171265 -44.938935 -29.215635
68.5262 -40.793385 -30.476641
69.017464 -41.094204 -29.622351
68.389183 -42.860619 -29.860922
68.038212 -40.431507 -31.351286
68.666493 -38.665093 -31.112715
68.5262 -40.793385 -30.476641
67.492069 -40.093266 -32.167318
68.038212 -40.431507 -31.351286
67.351776 -42.221558 -31.531244
66.952686 -39.70628 -33.022824
67.639122 -37.916229 -32.842866
67.492069 -40.093266 -32.167318
65.999547 -43.671741 -32.417595
66.585553 -44.017517 -31.67888
66.230072 -41.493683 -33.128147
65.999547 -43.671741 -32.417595
66.952686 -39.70628 -33.022824
66.230072 -41.493683 -33.128147
65.379768 -7.8018 -15.635962
65.663742 -8.934257 -14.483155
65.338752 -8.926232 -15.699078
65.09814 -6.629539 -16.794567
65.42313 -6.637564 -15.578643
65.379768 -7.8018 -15.635962
64.828102 -5.486282 -18.007009
65.09814 -6.629539 -16.794567
64.78474 -6.650517 -18.064327
64.537937 -4.3098 -19.223988
64.828102 -5.486282 -18.007009
64.537937 -4.3098 -19.223988
64.2584 -4.35435 -20.537922
62.772221 -22.082791 -20.986894
62.359948 -23.033463 -19.909489
62.753948 -23.664477 -20.666244
63.380188 -9.325909 -22.902703
63.36858 -10.413153 -21.659168
63.202541 -10.861914 -22.803301
63.460293 -7.763058 -23.028677
63.380188 -9.325909 -22.902703
63.294254 -8.211818 -24.172809
63.607174 -6.292958 -23.065018
63.693108 -7.407049 -21.794911
63.460293 -7.763058 -23.028677
63.433262 -5.15493 -24.35297
63.310993 -5.518646 -25.592072
63.369896 -4.02461 -25.646258
63.666077 -4.798922 -23.119204
63.607174 -6.292958 -23.065018
63.433262 -5.15493 -24.35297
63.921044 -4.569195 -21.815162
63.666077 -4.798922 -23.119204
62.187132 3.347857 -36.018338
62.688439 1.752229 -35.761265
62.104668 3.818905 -34.854313
62.187132 3.347857 -36.018338
62.024761 4.243603 -33.661243
62.416882 2.734452 -33.531326
62.104668 3.818905 -34.854313
61.725327 5.638454 -33.688236
62.037541 4.554002 -32.36525
62.024761 4.243603 -33.661243
65.215713 -8.185949 -41.204151
65.114543 -6.941743 -40.815929
65.768444 -8.854581 -40.033645
64.574226 -7.608266 -42.363674
65.215713 -8.185949 -41.204151
65.228127 -9.521105 -41.58139
63.865879 -7.024119 -43.534927
64.574226 -7.608266 -42.363674
63.102402 -6.512022 -44.69104
63.865879 -7.024119 -43.534927
63.823162 -8.431325 -43.897026
62.267254 -6.006256 -45.848736
62.309971 -4.59905 -45.486637
63.102402 -6.512022 -44.69104
65.288898 -17.558986 -41.829262
65.939121 -18.034703 -40.754707
65.700196 -19.648344 -40.962463
64.815555 -15.470367 -42.729996
65.288898 -17.558986 -41.829262
64.57663 -17.084008 -42.937752
64.263527 -13.434532 -43.599659
64.975796 -13.90951 -42.491169
64.815555 -15.470367 -42.729996
63.479771 -12.965656 -44.726708
62.702904 -12.509933 -45.799785
63.640011 -11.404799 -44.487881
64.263527 -13.434532 -43.599659
63.479771 -12.965656 -44.726708
62.200867 -7.463631 -46.183991
62.95797 -9.427575 -45.334034
62.099152 -8.971978 -46.464885
62.267254 -6.006256 -45.848736
62.200867 -7.463631 -46.183991
3 0 36 34
3 0 37 36
3 140 38 141
3 142 39 143
3 1 42 40
3 1 44 42
3 1 45 44
3 2 144 146
3 144 47 145
3 144 145 146
3 4 50 48
3 4 52 50
3 4 54 52
3 147 56 148
3 149 148 55
3 147 148 149
3 150 58 151
3 152 151 56
3 150 151 152
3 5 153 155
3 153 59 154
3 153 154 155
3 5 60 59
3 5 62 60
3 6 156 158
3 158 157 63
3 156 157 158
3 6 159 160
3 3 67 65
3 7 70 68
3 7 72 70
3 7 73 72
3 161 76 162
3 163 162 74
3 161 162 163
3 8 164 166
3 164 78 165
3 164 165 166
3 10 79 35
3 10 80 79
3 10 82 80
3 12 167 168
3 12 169 171
3 169 83 170
3 169 170 171
3 172 84 173
3 175 174 84
3 176 85 177
3 179 178 85
3 13 180 181
3 13 182 184
3 182 87 183
3 182 183 184
3 14 90 88
3 16 91 41
3 16 92 91
3 16 94 92
3 17 185 187
3 187 186 43
3 185 186 187
3 17 188 189
3 17 190 191
3 192 98 193
3 194 193 96
3 192 193 194
3 19 99 46
3 19 100 99
3 9 101 77
3 20 102 49
3 20 103 102
3 20 104 103
3 21 105 51
3 21 106 105
3 21 108 106
3 23 109 53
3 23 110 109
3 11 111 81
3 195 112 196
3 198 197 112
3 24 113 57
3 24 114 113
3 25 199 201
3 199 200 201
3 25 202 203
3 25 204 205
3 206 115 207
3 208 116 209
3 210 209 115
3 208 209 210
3 26 117 61
3 26 118 117
3 211 119 212
3 213 212 86
3 211 212 213
3 27 214 216
3 214 120 215
3 214 215 216
3 27 121 120
3 27 122 121
3 217 123 218
3 219 124 220
3 221 220 123
3 219 220 221
3 222 125 223
3 28 224 225
3 28 226 227
3 28 228 230
3 228 126 229
3 228 229 230
3 29 127 64
3 29 231 233
3 233 232 127
3 231 232 233
3 18 128 97
3 30 129 66
3 30 130 129
3 15 131 89
3 31 132 69
3 31 133 132
3 31 134 133
3 235 234 71
3 32 236 238
3 236 237 238
3 32 239 240
3 241 135 242
3 243 242 93
3 241 242 243
3 22 136 107
3 33 137 75
3 33 138 137
3 245 244 95
3 246 139 247
3 249 248 139
3 34 35 8
3 36 35 34
3 36 10 35
3 36 250 252
3 252 251 10
3 250 251 252
3 37 253 255
3 255 254 36
3 253 254 255
3 37 256 258
3 256 12 257
3 256 257 258
3 38 259 260
3 38 261 262
3 39 263 264
3 39 265 267
3 265 13 266
3 265 266 267
3 40 41 14
3 42 41 40
3 42 16 41
3 42 43 16
3 44 43 42
3 44 17 43
3 44 268 270
3 270 269 17
3 268 269 270
3 45 271 273
3 273 272 44
3 271 272 273
3 45 274 275
3 276 46 277
3 47 278 280
3 278 46 279
3 278 279 280
3 47 19 46
3 48 49 9
3 50 49 48
3 50 20 49
3 50 51 20
3 52 51 50
3 52 21 51
3 52 53 21
3 54 53 52
3 54 23 53
3 282 281 11
3 55 283 284
3 56 285 287
3 287 286 55
3 285 286 287
3 56 288 289
3 56 290 292
3 290 57 291
3 290 291 292
3 58 57 56
3 58 24 57
3 59 293 294
3 59 295 297
3 295 25 296
3 295 296 297
3 59 298 300
3 300 299 25
3 298 299 300
3 60 301 303
3 303 302 59
3 301 302 303
3 60 304 305
3 60 306 308
3 306 61 307
3 306 307 308
3 62 61 60
3 62 26 61
3 309 27 310
3 312 311 27
3 63 313 314
3 316 315 63
3 317 28 318
3 319 64 320
3 321 320 28
3 319 320 321
3 322 64 323
3 324 29 325
3 326 325 64
3 324 325 326
3 65 66 18
3 67 66 65
3 67 30 66
3 68 69 15
3 70 69 68
3 70 31 69
3 70 71 31
3 72 71 70
3 72 327 329
3 329 328 71
3 327 328 329
3 72 330 331
3 73 332 334
3 334 333 72
3 332 333 334
3 73 335 337
3 335 32 336
3 335 336 337
3 74 75 22
3 76 75 74
3 76 33 75
3 338 77 339
3 340 339 2
3 338 339 340
3 78 341 343
3 341 77 342
3 341 342 343
3 78 9 77
3 35 78 8
3 79 78 35
3 79 9 78
3 79 48 9
3 80 48 79
3 80 4 48
3 80 81 4
3 82 81 80
3 82 11 81
3 344 82 345
3 346 345 10
3 344 345 346
3 347 82 348
3 349 11 350
3 351 350 82
3 349 350 351
3 353 352 11
3 83 354 355
3 83 356 357
3 84 358 359
3 84 360 361
3 84 362 364
3 362 55 363
3 362 363 364
3 365 55 366
3 367 366 84
3 365 366 367
3 369 368 55
3 85 370 371
3 85 372 374
3 372 5 373
3 372 373 374
3 85 86 5
3 375 86 376
3 377 376 85
3 375 376 377
3 380 379 86
3 378 379 380
3 381 63 382
3 87 383 385
3 383 63 384
3 383 384 385
3 87 6 63
3 88 89 3
3 90 89 88
3 90 15 89
3 41 90 14
3 91 90 41
3 91 15 90
3 91 68 15
3 92 68 91
3 92 7 68
3 92 93 7
3 94 93 92
3 94 386 388
3 388 387 93
3 386 387 388
3 43 94 16
3 389 94 390
3 391 390 43
3 389 390 391
3 393 392 94
3 395 394 17
3 396 95 397
3 398 95 399
3 401 400 95
3 96 402 404
3 402 97 403
3 402 403 404
3 98 97 96
3 98 18 97
3 46 405 407
3 405 98 406
3 405 406 407
3 99 98 46
3 99 18 98
3 99 65 18
3 100 65 99
3 100 3 65
3 77 47 2
3 101 47 77
3 101 19 47
3 49 101 9
3 102 101 49
3 102 19 101
3 102 100 19
3 103 100 102
3 103 3 100
3 103 88 3
3 104 88 103
3 104 14 88
3 51 104 20
3 105 104 51
3 105 14 104
3 105 40 14
3 106 40 105
3 106 1 40
3 106 107 1
3 108 107 106
3 108 22 107
3 53 108 21
3 109 108 53
3 109 22 108
3 109 74 22
3 110 74 109
3 110 408 410
3 410 409 74
3 408 409 410
3 81 54 4
3 111 54 81
3 111 23 54
3 411 111 412
3 413 412 11
3 411 412 413
3 414 111 415
3 416 23 417
3 418 417 111
3 416 417 418
3 419 110 420
3 421 420 23
3 419 420 421
3 422 110 423
3 425 424 110
3 426 96 427
3 428 96 429
3 431 430 96
3 432 2 433
3 112 434 435
3 112 436 438
3 436 2 437
3 436 437 438
3 112 439 441
3 441 440 2
3 439 440 441
3 443 442 112
3 444 8 445
3 57 446 447
3 113 448 450
3 450 449 57
3 448 449 450
3 113 451 453
3 451 8 452
3 451 452 453
3 113 34 8
3 114 34 113
3 114 0 34
3 455 454 25
3 115 456 457
3 115 458 459
3 115 460 462
3 460 38 461
3 460 461 462
3 116 38 115
3 116 463 465
3 465 464 38
3 463 464 465
3 61 466 468
3 466 116 467
3 466 467 468
3 117 116 61
3 117 469 471
3 471 470 116
3 469 470 471
3 117 472 473
3 118 474 476
3 476 475 117
3 474 475 476
3 118 477 478
3 86 62 5
3 119 62 86
3 119 26 62
3 479 119 480
3 120 481 483
3 481 119 482
3 481 482 483
3 120 26 119
3 120 118 26
3 121 118 120
3 121 484 486
3 486 485 118
3 484 485 486
3 121 487 489
3 487 58 488
3 487 488 489
3 122 58 121
3 122 24 58
3 490 122 491
3 492 491 27
3 490 491 492
3 493 122 494
3 495 24 496
3 497 496 122
3 495 496 497
3 498 114 499
3 500 499 24
3 498 499 500
3 501 114 502
3 503 0 504
3 505 504 114
3 503 504 505
3 123 506 508
3 506 507 508
3 123 509 511
3 509 0 510
3 509 510 511
3 123 37 0
3 124 37 123
3 124 12 37
3 512 124 513
3 514 124 515
3 516 12 517
3 518 517 124
3 516 517 518
3 519 83 520
3 521 520 12
3 519 520 521
3 125 522 524
3 522 83 523
3 522 523 524
3 125 525 527
3 527 526 83
3 525 526 527
3 528 125 529
3 530 125 531
3 533 532 125
3 126 534 536
3 534 535 536
3 126 537 539
3 537 538 539
3 64 126 28
3 127 126 64
3 127 540 542
3 542 541 126
3 540 541 542
3 127 543 544
3 546 545 127
3 97 547 549
3 547 39 548
3 547 548 549
3 128 39 97
3 128 13 39
3 66 128 18
3 129 128 66
3 129 13 128
3 129 87 13
3 130 87 129
3 130 6 87
3 89 67 3
3 131 67 89
3 131 30 67
3 69 131 15
3 132 131 69
3 132 30 131
3 132 130 30
3 133 130 132
3 133 6 130
3 133 550 552
3 552 551 6
3 550 551 552
3 134 553 555
3 555 554 133
3 553 554 555
3 134 556 558
3 556 29 557
3 556 557 558
3 71 134 31
3 559 134 560
3 561 560 71
3 559 560 561
3 562 29 563
3 564 563 134
3 562 563 564
3 566 565 29
3 93 73 7
3 135 73 93
3 135 32 73
3 567 135 568
3 569 135 570
3 571 32 572
3 573 572 135
3 571 572 573
3 576 575 32
3 574 575 576
3 107 45 1
3 136 45 107
3 136 577 579
3 579 578 45
3 577 578 579
3 75 136 22
3 137 136 75
3 137 580 582
3 582 581 136
3 580 581 582
3 137 583 584
3 138 585 587
3 587 586 137
3 585 586 587
3 138 588 590
3 588 589 590
3 95 591 593
3 591 76 592
3 591 592 593
3 594 76 595
3 596 595 95
3 594 595 596
3 597 33 598
3 599 598 76
3 597 598 599
3 139 600 601
3 139 602 604
3 602 33 603
3 602 603 604
3 139 138 33
3 605 138 606
3 607 606 139
3 605 606 607
3 609 608 138
