ply
format ascii 1.0
element vertex 323
property float x
property float y
property float z
element face 314
property list uchar int vertex_index
end_header
-64.724747 -68.124832 -9.054024
-54.715004 -74.522293 -20.293007
-61.124302 -71.402557 -15.592134
-62.763969 -61.039906 -24.499348
-61.166805 -73.735023 -7.970545
-59.375809 -75.505219 -11.313135
-63.432701 -69.710548 -12.451773
-65.598206 -59.66415 -21.702339
-65.823883 -53.67062 -26.214813
-59.436462 -55.506958 -30.879799
-55.735588 -55.8088 -32.174561
-56.903885 -77.398956 -14.241854
-58.142891 -73.043076 -18.183308
-65.573318 -47.107933 -30.464642
-66.558853 -63.482475 -13.70623
-61.912693 -72.064476 -4.536953
-64.851982 -65.016159 -17.053249
-62.207565 -66.588379 -20.007538
-58.930531 -67.907143 -22.325527
-62.86396 -54.816353 -28.905182
-59.356384 -62.009865 -26.611012
-55.274654 -68.886276 -24.130878
-63.081665 -70.987282 -8.483915
-62.409184 -71.806213 -10.197062
-64.234406 -68.902107 -10.758574
-60.340347 -73.53846 -13.438522
-58.209698 -76.442146 -12.839762
-59.035027 -74.429932 -14.88414
-57.588253 -75.314026 -16.191601
-59.703438 -72.241104 -16.961853
-60.19138 -73.756981 -2.320267
-65.849167 -64.228729 -15.40362
-66.360168 -61.654049 -17.755939
-64.268097 -60.385826 -23.180737
-64.011703 -63.18771 -20.894501
-62.545212 -63.90451 -22.253593
-60.633919 -67.293304 -21.247421
-60.927292 -64.531143 -23.44009
-64.113373 -47.635124 -31.882534
-64.319191 -51.019459 -29.788776
-57.600967 -59.054783 -29.53035
-59.438816 -58.8204 -28.756992
-57.5168 -62.322617 -27.436813
-57.358856 -65.457703 -25.342621
-55.483002 -65.796738 -26.131664
-53.405743 -69.320343 -24.95237
-59.086525 -76.389999 -7.506145
-58.23777 -77.319061 -9.200636
-60.375233 -74.600754 -9.677826
-61.477928 -72.658173 -11.864937
-62.379295 -70.550125 -14.078815
-66.715256 -58.926411 -20.100979
-66.937759 -56.04673 -22.410854
-65.771774 -56.745396 -23.987484
-64.402054 -57.415466 -25.436234
-57.610741 -55.68581 -31.601833
-55.719139 -59.224464 -30.179157
-56.080727 -79.317551 -12.311308
-56.022202 -76.181183 -17.377365
-56.468887 -73.800034 -19.279011
-65.278305 -43.664085 -32.507996
-63.808147 -44.160187 -33.938015
-66.011551 -65.156693 -9.684584
-65.76104 -65.886154 -11.364401
-61.697243 -72.898926 -6.240202
-63.437462 -70.186829 -6.779066
-63.430828 -69.371735 -5.129217
-64.849892 -67.357529 -7.38891
-65.150818 -66.646927 -13.066628
-64.239944 -67.446564 -14.738503
-63.087463 -68.270279 -16.325552
-65.296661 -62.421612 -19.382095
-63.623859 -65.816299 -18.602051
-61.73996 -69.087494 -17.782539
-60.230339 -69.863892 -19.083519
-58.585205 -70.574875 -20.228634
-56.834602 -71.215263 -21.244831
-65.75679 -50.451698 -28.372711
-64.417709 -54.287403 -27.641644
-62.86898 -58.004768 -26.722214
-61.194916 -55.224838 -29.985394
-61.204731 -58.476665 -27.828053
-61.116699 -61.58662 -25.640789
-59.18697 -65.046776 -24.459953
-57.130463 -68.429817 -23.271229
-55.017147 -71.802162 -22.178589
-53.176506 -72.370636 -23.081158
-53.680401 -76.210224 -19.922541
-54.539212 -75.779339 -19.386845
-53.818478 -74.879234 -20.78525
-53.680401 -76.210224 -19.922541
-59.264071 -74.513844 -1.218678
-59.289431 -74.987499 -2.067876
-66.963875 -59.937578 -18.090431
-66.754436 -61.289552 -16.911451
-63.434236 -49.566482 -31.461841
-63.33227 -47.855089 -32.507782
-56.575209 -62.443573 -27.796639
-57.558884 -60.6887 -28.483581
-56.617292 -60.809656 -28.843407
-55.55831 -64.180633 -27.144064
-56.499901 -64.059678 -26.784239
-56.575209 -62.443573 -27.796639
-54.540138 -65.956101 -26.500628
-55.55831 -64.180633 -27.144064
-67.473548 -54.213881 -22.714733
-67.392727 -55.709877 -21.581322
-65.797828 -55.208008 -25.101149
-66.405693 -54.88101 -24.323435
-66.431748 -53.343622 -25.4371
-56.673164 -55.747305 -31.888197
-57.578899 -53.96434 -32.617344
-56.641323 -54.025835 -32.903707
-54.774677 -57.599453 -31.453474
-54.766452 -59.307285 -30.455773
-55.727363 -57.516632 -31.176859
-58.301075 -76.900951 -11.061212
-57.732056 -77.807873 -10.004963
-58.806789 -76.41214 -10.256885
-55.860447 -78.887001 -13.975168
-55.448868 -79.846298 -13.009895
-56.492306 -78.358253 -13.276581
-56.190373 -77.882858 -14.885281
-55.860447 -78.887001 -13.975168
-65.077042 -41.905438 -33.518166
-65.768451 -41.649681 -32.727508
-64.341962 -42.153489 -34.233176
-64.543226 -43.912136 -33.223005
-65.077042 -41.905438 -33.518166
-66.465653 -63.9704 -10.849388
-66.448234 -63.636584 -10.027808
-61.804968 -72.481701 -5.388578
-60.905346 -73.76928 -5.130427
-61.013071 -73.352055 -4.278803
-64.007345 -67.967422 -5.464507
-63.240465 -68.935547 -4.346634
-64.716877 -66.960319 -6.594354
-64.14036 -68.364632 -6.259063
-64.007345 -67.967422 -5.464507
-65.357079 -65.893898 -7.728583
-64.716877 -66.960319 -6.594354
-65.665054 -48.779815 -29.418677
-66.32267 -48.495346 -28.647503
-66.230934 -46.823464 -29.693469
-60.315689 -55.365898 -30.432596
-61.144394 -53.541433 -31.044682
-60.265167 -53.682493 -31.491884
-52.377947 -71.142288 -24.471098
-52.480788 -69.552101 -25.359699
-66.423752 -51.756624 -26.522474
-66.431748 -53.343622 -25.4371
-55.707867 -54.075048 -33.147002
-56.641323 -54.025835 -32.903707
-54.778603 -55.873064 -32.398045
-55.707867 -54.075048 -33.147002
-60.152415 -74.198307 -3.17046
-59.289431 -74.987499 -2.067876
-61.052036 -72.910729 -3.42861
-61.013071 -73.352055 -4.278803
-60.152415 -74.198307 -3.17046
-66.498936 -62.576892 -15.735292
-66.20401 -63.855602 -14.554925
-66.853779 -62.203766 -14.886596
-66.104668 -62.941389 -16.57978
-66.498936 -62.576892 -15.735292
-66.754436 -61.289552 -16.911451
-63.537146 -51.25865 -30.414963
-64.216282 -49.327292 -30.835655
-63.434236 -49.566482 -31.461841
-62.80953 -53.157097 -29.973166
-63.591576 -52.917906 -29.346979
-63.537146 -51.25865 -30.414963
-53.501509 -67.717903 -25.910981
-54.444373 -67.55854 -25.542017
-54.540138 -65.956101 -26.500628
-52.576554 -67.949661 -26.31831
-52.480788 -69.552101 -25.359699
-53.501509 -67.717903 -25.910981
-58.662148 -76.85453 -8.35339
-57.598698 -78.160378 -8.142372
-58.023075 -77.695847 -7.295127
-67.281475 -57.149718 -20.426384
-67.141419 -58.573759 -19.262951
-66.826507 -57.48657 -21.255916
-67.281475 -57.149718 -20.426384
-67.392727 -55.709877 -21.581322
-66.988686 -54.531677 -23.53512
-67.473548 -54.213881 -22.714733
-66.354766 -56.396063 -23.199169
-66.988686 -54.531677 -23.53512
-66.405693 -54.88101 -24.323435
-59.395216 -53.802391 -31.923094
-60.265167 -53.682493 -31.491884
-58.482355 -53.891817 -32.284111
-57.578899 -53.96434 -32.617344
-58.523601 -55.596384 -31.240816
-59.395216 -53.802391 -31.923094
-58.482355 -53.891817 -32.284111
-55.676378 -60.894497 -29.167811
-56.617292 -60.809656 -28.843407
-56.660053 -59.139623 -29.854754
-54.728012 -61.00872 -29.492472
-55.676378 -60.894497 -29.167811
-54.728012 -61.00872 -29.492472
-54.766452 -59.307285 -30.455773
-54.774677 -57.599453 -31.453474
-54.778603 -55.873064 -32.398045
-57.172747 -78.668751 -8.98551
-57.598698 -78.160378 -8.142372
-57.172747 -78.668751 -8.98551
-57.732056 -77.807873 -10.004963
-57.718019 -77.369415 -11.824526
-58.301075 -76.900951 -11.061212
-58.792754 -75.973682 -12.076449
-56.653534 -78.807118 -11.560299
-57.718019 -77.369415 -11.824526
-57.145212 -77.879848 -12.575535
-55.605086 -80.206963 -11.341716
-56.653534 -78.807118 -11.560299
-55.060643 -80.775009 -12.097798
-55.605086 -80.206963 -11.341716
-55.060643 -80.775009 -12.097798
-55.448868 -79.846298 -13.009895
-56.532556 -76.840393 -15.860155
-56.190373 -77.882858 -14.885281
-57.246069 -76.356491 -15.216727
-55.749531 -77.273972 -16.453037
-56.532556 -76.840393 -15.860155
-56.805228 -75.747604 -16.784483
-54.984688 -77.764046 -17.055059
-55.749531 -77.273972 -16.453037
-55.192811 -76.608784 -17.929023
-54.984688 -77.764046 -17.055059
-55.416153 -75.418209 -18.879846
-55.192811 -76.608784 -17.929023
-56.245545 -74.990609 -18.328188
-55.591946 -74.161164 -19.786009
-54.539212 -75.779339 -19.386845
-55.416153 -75.418209 -18.879846
-66.103401 -45.117767 -30.708233
-66.230934 -46.823464 -29.693469
-65.955894 -43.395843 -31.72991
-65.768451 -41.649681 -32.727508
-65.425812 -45.386009 -31.486319
-66.103401 -45.117767 -30.708233
-65.955894 -43.395843 -31.72991
-63.179657 -46.117621 -33.535522
-63.33227 -47.855089 -32.507782
-63.96076 -45.897655 -32.910274
-63.60738 -42.389561 -34.956289
-64.341962 -42.153489 -34.233176
-63.033548 -44.366295 -34.564125
-63.60738 -42.389561 -34.956289
-63.179657 -46.117621 -33.535522
-63.033548 -44.366295 -34.564125
-66.340397 -64.335131 -11.689297
-65.886295 -65.521423 -10.524493
-66.465653 -63.9704 -10.849388
-66.739304 -63.133291 -12.860212
-66.159946 -64.684314 -12.535315
-66.340397 -64.335131 -11.689297
-67.079956 -61.868706 -14.036796
-66.739304 -63.133291 -12.860212
-66.853779 -62.203766 -14.886596
-67.079956 -61.868706 -14.036796
-58.370411 -77.216633 -6.42176
-58.023075 -77.695847 -7.295127
-59.407898 -75.947139 -6.635061
-58.370411 -77.216633 -6.42176
-60.448038 -74.619652 -6.867261
-60.126665 -75.062511 -7.738345
-59.407898 -75.947139 -6.635061
-60.713257 -74.201603 -6.00209
-60.905346 -73.76928 -5.130427
-61.432024 -73.316975 -7.105374
-60.448038 -74.619652 -6.867261
-60.713257 -74.201603 -6.00209
-60.06551 -73.282841 -1.507073
-59.264071 -74.513844 -1.218678
-59.1382 -74.039704 -0.405484
-60.984545 -72.473209 -2.610593
-60.06551 -73.282841 -1.507073
-61.845202 -71.626957 -3.718936
-61.052036 -72.910729 -3.42861
-60.984545 -72.473209 -2.610593
-62.604269 -70.280586 -4.015068
-62.413906 -69.844398 -3.232485
-63.240465 -68.935547 -4.346634
-62.67176 -70.718106 -4.833085
-61.845202 -71.626957 -3.718936
-62.604269 -70.280586 -4.015068
-65.937908 -64.79348 -8.87642
-65.430722 -66.257111 -8.536747
-65.357079 -65.893898 -7.728583
-66.448234 -63.636584 -10.027808
-65.937908 -64.79348 -8.87642
-66.537712 -60.29023 -18.928459
-66.963875 -59.937578 -18.090431
-67.141419 -58.573759 -19.262951
-66.390206 -50.147163 -27.601423
-66.32267 -48.495346 -28.647503
-65.790336 -52.061159 -27.293762
-66.423752 -51.756624 -26.522474
-66.390206 -50.147163 -27.601423
-61.975008 -53.361339 -30.513272
-61.144394 -53.541433 -31.044682
-62.029438 -55.020595 -29.445288
-62.80953 -53.157097 -29.973166
-61.975008 -53.361339 -30.513272
-53.969549 -73.519169 -21.728041
-53.818478 -74.879234 -20.78525
-54.866076 -73.162228 -21.235798
-53.049228 -73.803406 -22.179325
-53.969549 -73.519169 -21.728041
-54.096827 -72.086399 -22.629873
-52.152619 -74.173371 -22.67775
-53.049228 -73.803406 -22.179325
-52.263329 -72.667434 -23.535492
-53.291125 -70.845489 -24.016764
-52.377947 -71.142288 -24.471098
-51.239441 -74.470169 -23.132084
-52.152619 -74.173371 -22.67775
-52.263329 -72.667434 -23.535492
3 0 24 22
3 1 87 88
3 1 89 90
3 2 27 25
3 2 29 27
3 91 30 92
3 93 32 94
3 3 35 33
3 3 37 35
3 96 95 38
3 97 42 98
3 99 98 40
3 97 98 99
3 100 44 101
3 102 101 42
3 100 101 102
3 104 103 44
3 4 48 46
3 6 49 23
3 6 50 49
3 105 52 106
3 8 107 109
3 107 53 108
3 107 108 109
3 8 54 53
3 10 110 112
3 110 55 111
3 110 111 112
3 10 56 55
3 10 113 115
3 115 114 56
3 113 114 115
3 5 116 118
3 118 117 47
3 116 117 118
3 11 57 26
3 11 119 121
3 121 120 57
3 119 120 121
3 11 122 123
3 12 58 28
3 12 59 58
3 124 60 125
3 126 61 127
3 128 127 60
3 126 127 128
3 130 129 62
3 15 131 133
3 131 64 132
3 131 132 133
3 15 65 64
3 134 66 135
3 136 67 137
3 138 137 66
3 136 137 138
3 140 139 67
3 14 68 63
3 16 69 31
3 16 70 69
3 7 71 51
3 17 72 34
3 17 73 72
3 17 74 73
3 18 75 36
3 18 76 75
3 13 141 143
3 141 77 142
3 141 142 143
3 19 78 39
3 19 79 78
3 9 144 146
3 144 80 145
3 144 145 146
3 20 81 41
3 20 82 81
3 20 83 82
3 21 84 43
3 21 85 84
3 21 86 85
3 148 147 45
3 22 23 4
3 24 23 22
3 24 6 23
3 149 8 150
3 151 10 152
3 154 153 10
3 25 26 5
3 27 26 25
3 27 11 26
3 27 28 11
3 29 28 27
3 29 12 28
3 30 155 156
3 30 157 159
3 157 15 158
3 157 158 159
3 160 31 161
3 162 161 14
3 160 161 162
3 32 163 165
3 163 31 164
3 163 164 165
3 32 16 31
3 33 34 7
3 35 34 33
3 35 17 34
3 35 36 17
3 37 36 35
3 37 18 36
3 38 39 13
3 166 39 167
3 168 167 38
3 166 167 168
3 169 19 170
3 171 170 39
3 169 170 171
3 40 41 9
3 42 41 40
3 42 20 41
3 42 43 20
3 44 43 42
3 44 21 43
3 44 45 21
3 172 45 173
3 174 173 44
3 172 173 174
3 177 176 45
3 175 176 177
3 46 178 180
3 178 47 179
3 178 179 180
3 48 47 46
3 48 5 47
3 23 48 4
3 49 48 23
3 49 5 48
3 49 25 5
3 50 25 49
3 50 2 25
3 181 51 182
3 52 183 185
3 183 51 184
3 183 184 185
3 52 7 51
3 186 52 187
3 53 188 190
3 188 52 189
3 188 189 190
3 53 7 52
3 53 33 7
3 54 33 53
3 54 3 33
3 191 9 192
3 55 193 194
3 55 195 197
3 195 9 196
3 195 196 197
3 55 40 9
3 56 40 55
3 56 198 200
3 200 199 40
3 198 199 200
3 56 201 202
3 204 203 56
3 206 205 10
3 47 207 208
3 210 209 47
3 26 211 213
3 213 212 5
3 211 212 213
3 57 214 216
3 216 215 26
3 214 215 216
3 57 217 218
3 57 219 220
3 222 221 57
3 28 223 225
3 225 224 11
3 223 224 225
3 58 226 228
3 228 227 28
3 226 227 228
3 58 229 230
3 58 231 232
3 59 233 235
3 235 234 58
3 233 234 235
3 59 236 238
3 236 1 237
3 236 237 238
3 239 13 240
3 60 241 242
3 60 243 245
3 243 13 244
3 243 244 245
3 60 38 13
3 61 38 60
3 61 246 248
3 248 247 38
3 246 247 248
3 249 61 250
3 251 61 252
3 254 253 61
3 62 63 0
3 255 63 256
3 257 256 62
3 255 256 257
3 258 14 259
3 260 259 63
3 258 259 260
3 261 14 262
3 264 263 14
3 265 46 266
3 267 46 268
3 269 4 270
3 271 270 46
3 269 270 271
3 64 272 273
3 64 274 276
3 274 4 275
3 274 275 276
3 64 22 4
3 65 22 64
3 65 0 22
3 277 30 278
3 277 278 279
3 280 30 281
3 282 15 283
3 284 283 30
3 282 283 284
3 66 285 287
3 285 286 287
3 66 288 290
3 288 15 289
3 288 289 290
3 66 65 15
3 67 65 66
3 67 0 65
3 67 62 0
3 291 62 292
3 293 292 67
3 291 292 293
3 295 294 62
3 63 24 0
3 68 24 63
3 68 6 24
3 31 68 14
3 69 68 31
3 69 6 68
3 69 50 6
3 70 50 69
3 70 2 50
3 51 296 298
3 296 32 297
3 296 297 298
3 71 32 51
3 71 16 32
3 34 71 7
3 72 71 34
3 72 16 71
3 72 70 16
3 73 70 72
3 73 2 70
3 73 29 2
3 74 29 73
3 74 12 29
3 36 74 17
3 75 74 36
3 75 12 74
3 75 59 12
3 76 59 75
3 76 1 59
3 77 299 300
3 77 301 303
3 301 8 302
3 301 302 303
3 39 77 13
3 78 77 39
3 78 8 77
3 78 54 8
3 79 54 78
3 79 3 54
3 80 304 305
3 80 306 308
3 306 19 307
3 306 307 308
3 41 80 9
3 81 80 41
3 81 19 80
3 81 79 19
3 82 79 81
3 82 3 79
3 82 37 3
3 83 37 82
3 83 18 37
3 43 83 20
3 84 83 43
3 84 18 83
3 84 76 18
3 85 76 84
3 85 1 76
3 85 309 311
3 311 310 1
3 309 310 311
3 86 312 314
3 314 313 85
3 312 313 314
3 86 315 316
3 45 86 21
3 317 86 318
3 319 318 45
3 317 318 319
3 322 321 86
3 320 321 322
