ply
format ascii 1.0
element vertex 424
property float x
property float y
property float z
element face 450
property list uchar int vertex_index
end_header
-30.503439 11.655523 -49.549889
-59.159092 6.019045 -37.769821
-37.521198 17.4846 -48.532227
-44.140678 17.083576 -50.972939
-34.942738 13.366093 -56.411888
-33.429058 14.160198 -40.264404
-52.854301 8.579321 -48.775024
-33.534603 15.274944 -49.9216
-35.846458 16.589481 -53.094086
-32.037037 13.327522 -53.827911
-31.489237 9.686392 -56.29969
-29.344641 8.965551 -52.762306
-61.608974 0.122282 -35.935596
-43.647507 12.994282 -54.564659
-48.391716 13.639507 -50.336632
-48.527985 8.2805 -53.317184
-53.474503 2.486261 -50.97081
-49.395569 1.723694 -54.740509
-41.911884 17.890045 -45.422741
-45.207684 18.2929 -46.279846
-40.440544 18.335308 -50.48185
-39.285702 15.925457 -54.57061
-39.11599 11.206589 -57.295738
-35.194626 8.47121 -58.141647
-39.0886 16.349297 -43.09481
-35.323471 15.576321 -44.973034
-32.090881 13.202682 -45.214054
-29.789589 9.699902 -44.047489
-28.657169 7.135633 -47.76437
-27.80097 3.901894 -50.332184
-48.903713 16.664906 -46.041458
-52.764381 12.992882 -45.070972
-56.525139 7.834194 -43.497143
-57.178104 2.599318 -46.35743
-58.065136 -3.861901 -47.699554
-31.876966 13.609802 -49.941818
-32.697552 14.529678 -52.030556
-31.11689 12.623856 -51.884659
-30.543743 11.257376 -53.499153
-29.83573 10.464384 -51.326286
-60.439957 3.146149 -36.913288
-59.50592 4.141405 -39.732224
-43.757656 10.203255 -55.823586
-46.051125 10.815252 -54.086006
-46.297989 7.79414 -55.178871
-48.882454 5.090654 -54.22979
-46.748062 4.546267 -55.864136
-39.709087 17.927326 -47.174072
-41.195663 18.456867 -48.04726
-38.877983 18.127308 -49.707985
-35.258732 15.243511 -54.932091
-37.430214 16.547157 -54.035995
-37.019512 14.804241 -55.730949
-39.058407 13.787865 -56.12442
-36.895569 12.558992 -57.054573
-37.065277 9.947214 -57.968956
-34.925423 11.067625 -57.493393
-30.130421 7.511963 -55.559685
-31.627207 7.397511 -56.8993
-40.978844 16.053616 -41.583233
-39.556725 15.41082 -40.148159
-36.054214 15.359661 -42.235275
-34.37476 14.711159 -42.702171
-33.608131 14.563698 -45.293018
-32.833405 13.700035 -42.784405
-30.33474 10.830856 -41.946381
-28.175949 5.610525 -49.223091
-44.648117 18.09391 -48.733246
-47.018677 17.753281 -46.270485
-46.574516 17.07476 -48.6437
-50.61919 11.265163 -49.666008
-50.661724 13.481548 -47.806446
-52.745361 11.06085 -47.099369
-54.672604 10.556725 -44.359955
-54.804417 8.343845 -46.206898
-56.804321 5.412336 -45.128674
-55.053722 5.667601 -47.669212
-55.837685 -0.640787 -49.43515
-35.436634 16.585873 -49.454445
-36.635994 17.336582 -50.944756
-34.553051 16.120426 -51.722588
-33.814766 15.123245 -53.700638
-33.311497 13.609463 -55.340675
-33.09341 11.648247 -56.597511
-31.623741 11.691582 -55.265182
-30.209347 9.535055 -54.736877
-29.065975 7.180407 -53.811241
-43.784794 15.33971 -52.934303
-46.217255 15.608425 -50.778305
-46.027615 13.471779 -52.608444
-48.3624 11.177307 -52.013084
-50.73748 8.551167 -51.16201
-53.101982 5.681635 -50.06588
-51.020859 5.479126 -52.272987
-51.449738 2.16889 -52.996323
-51.986748 -1.287546 -53.33577
-50.018478 -1.73741 -54.840424
-44.041523 17.371319 -43.338417
-45.703365 17.689014 -43.681526
-43.49955 18.309086 -46.016354
-42.846081 18.544708 -48.551102
-42.203362 18.000195 -50.888687
-38.079144 17.67432 -52.011848
-39.769547 17.477493 -52.674393
-41.683792 16.694698 -52.967827
-41.374249 14.724609 -54.734993
-41.323902 12.230436 -56.145905
-41.54203 9.36688 -57.162781
-39.447563 8.327955 -58.047279
-33.168312 9.340063 -57.433632
-42.467812 16.769348 -42.649746
-40.446568 17.177078 -44.45377
-38.378506 17.107292 -45.901733
-37.806709 15.600975 -41.377224
-37.175751 16.184547 -44.236748
-36.350872 16.569042 -46.943733
-34.44783 15.594311 -47.551914
-32.741241 14.233917 -47.725391
-31.283539 12.551037 -47.491062
-32.029503 13.186573 -40.178089
-31.477814 12.384949 -42.514771
-30.812086 11.558914 -44.778851
-30.104364 10.613611 -46.89922
-29.020571 7.688334 -43.085972
-29.211161 8.487459 -46.01429
-29.431011 9.477383 -48.801697
-28.858702 8.109322 -50.415977
-28.434656 6.499628 -51.682663
-28.183363 4.663523 -52.559296
-57.76545 8.682198 -38.517895
-47.442825 17.589317 -43.73634
-48.591644 15.515179 -48.325459
-50.830315 15.056618 -45.633801
-54.642242 12.181087 -42.178974
-56.352531 9.757856 -41.487823
-57.978378 7.053513 -40.676472
-58.297386 4.902822 -42.475887
-58.715458 2.332071 -43.867886
-59.193329 -0.575005 -44.856247
-55.408005 2.641378 -48.738358
-57.612419 -0.515625 -47.200558
-59.678253 -3.753078 -45.482681
-59.799525 4.582597 -37.341555
-60.267692 3.952807 -35.856274
-59.62726 5.389255 -36.28454
-45.203102 7.456583 -55.92884
-45.027822 8.998698 -55.501228
-43.932935 8.661141 -56.251198
-45.428139 5.832647 -56.271473
-46.523026 6.170203 -55.521504
-45.203102 7.456583 -55.92884
-45.705567 4.207892 -56.482869
-45.428139 5.832647 -56.271473
-30.211793 6.384097 -55.752018
-29.56885 6.331917 -55.00095
-39.641976 14.965812 -38.621525
-40.391976 15.09968 -39.369259
-33.901909 14.435678 -41.483288
-34.665135 14.765125 -41.354866
-34.192284 14.489645 -40.135982
-61.843229 -0.448828 -34.551237
-61.37668 1.034837 -34.984327
-62.137686 -1.442251 -35.384902
-61.843229 -0.448828 -34.551237
-61.921543 -0.978972 -36.678693
-62.137686 -1.442251 -35.384902
-36.347279 7.785903 -58.290176
-37.282604 8.523905 -58.20383
-36.129952 9.209212 -58.055301
-35.451652 7.080296 -58.234607
-36.347279 7.785903 -58.290176
-32.568584 7.093937 -57.35984
-31.815707 6.153773 -56.972435
-42.616878 16.037042 -41.20334
-43.414535 16.334036 -41.601982
-37.182304 15.358179 -40.381937
-37.989284 15.309847 -39.891784
-31.409582 12.571615 -39.984907
-31.569883 13.174007 -38.915905
-31.133737 12.170803 -41.153248
-31.753659 12.785761 -41.34643
-31.409582 12.571615 -39.984907
-28.753032 6.632967 -42.520308
-28.856415 7.470377 -41.624842
-28.934165 7.811546 -46.88933
-28.901971 7.359371 -45.458701
-28.624975 6.683458 -46.333741
-57.013863 9.874105 -38.846556
-57.692381 9.179837 -37.309147
-49.070549 16.827328 -44.804241
-48.128031 17.371516 -44.918755
-47.961195 17.209094 -46.155971
-49.980032 16.265194 -44.635048
-49.070549 16.827328 -44.804241
-52.816206 13.617787 -43.915323
-51.849173 14.649655 -44.196737
-51.797348 14.02475 -45.352386
-53.703311 12.586984 -43.624973
-53.755137 13.211889 -42.469324
-52.816206 13.617787 -43.915323
-59.092321 -5.506607 -46.752552
-59.89888 -5.452196 -45.644115
-58.871695 -3.807489 -46.591117
-60.792171 2.546771 -35.473173
-60.267692 3.952807 -35.856274
-61.024466 1.634215 -36.424442
-61.37668 1.034837 -34.984327
-60.792171 2.546771 -35.473173
-60.68329 2.11395 -37.780073
-61.267799 0.602016 -37.291227
-61.024466 1.634215 -36.424442
-60.216272 2.611578 -39.189541
-60.68329 2.11395 -37.780073
-59.972938 3.643777 -38.322756
-59.738087 2.983293 -40.512833
-60.216272 2.611578 -39.189541
-47.052773 2.862076 -55.993035
-48.376526 1.450789 -55.431221
-48.071815 3.134981 -55.302323
-47.052773 2.862076 -55.993035
-45.705567 4.207892 -56.482869
-30.960186 6.326871 -56.421825
-30.878814 7.454737 -56.229492
-30.211793 6.384097 -55.752018
-31.815707 6.153773 -56.972435
-30.960186 6.326871 -56.421825
-41.103035 15.421078 -40.086796
-41.872394 15.679177 -40.670084
-40.267785 15.732218 -40.865696
-41.103035 15.421078 -40.086796
-40.391976 15.09968 -39.369259
-35.504862 15.089377 -41.121418
-36.306056 15.237522 -40.810963
-35.214487 15.03541 -42.468723
-35.504862 15.089377 -41.121418
-34.665135 14.765125 -41.354866
-30.0289 10.681186 -40.554322
-30.5622 11.393757 -40.869053
-29.872451 9.96609 -41.544339
-30.0289 10.681186 -40.554322
-29.599875 9.400613 -42.594893
-30.062165 10.265379 -42.996935
-29.872451 9.96609 -41.544339
-28.411051 5.909163 -47.134545
-28.624975 6.683458 -46.333741
-28.17044 5.146609 -47.863905
-28.416559 6.373079 -48.49373
-28.411051 5.909163 -47.134545
-27.97241 4.311823 -48.518812
-28.17044 5.146609 -47.863905
-27.78492 3.457508 -49.073358
-27.988459 4.756209 -49.777637
-27.97241 4.311823 -48.518812
-54.889632 -0.776034 -50.47015
-54.656094 0.922737 -50.20298
-53.70804 0.78749 -51.23798
-56.071306 -2.373432 -49.613533
-54.889632 -0.776034 -50.47015
-57.185032 -3.983989 -48.745735
-56.951411 -2.251344 -48.567352
-56.071306 -2.373432 -49.613533
-58.279845 -5.623557 -47.799982
-57.185032 -3.983989 -48.745735
-29.036628 6.166139 -54.126728
-29.56885 6.331917 -55.00095
-29.598198 7.346185 -54.685463
-33.625082 14.435616 -38.987106
-34.192284 14.489645 -40.135982
-61.921543 -0.978972 -36.678693
-61.267799 0.602016 -37.291227
-52.695658 0.628805 -52.250737
-53.70804 0.78749 -51.23798
-52.46212 2.327576 -51.983566
-52.964163 -1.099413 -52.42046
-52.695658 0.628805 -52.250737
-51.718243 0.440672 -53.166046
-53.224205 -2.864164 -52.511101
-52.964163 -1.099413 -52.42046
-52.283676 -3.05776 -53.314705
-53.224205 -2.864164 -52.511101
-51.299542 -3.282692 -54.067032
-52.283676 -3.05776 -53.314705
-51.002613 -1.512478 -54.088097
-50.35335 -3.490282 -54.681187
-51.299542 -3.282692 -54.067032
-48.687981 -0.279762 -55.481178
-49.707024 -0.006858 -54.790467
-48.376526 1.450789 -55.431221
-49.041847 -1.989638 -55.387791
-48.687981 -0.279762 -55.481178
-50.35335 -3.490282 -54.681187
-49.041847 -1.989638 -55.387791
-59.040751 6.688655 -36.625576
-59.62726 5.389255 -36.28454
-44.872444 17.530166 -43.509971
-45.861242 17.040468 -42.336548
-45.030321 16.881621 -42.164994
-42.825122 8.242953 -56.920795
-43.932935 8.661141 -56.251198
-42.649843 9.785068 -56.493184
-41.772694 7.821833 -57.456906
-42.825122 8.242953 -56.920795
-40.72546 7.30237 -57.899155
-41.772694 7.821833 -57.456906
-40.494796 8.847417 -57.60503
-39.729565 6.803681 -58.195705
-40.72546 7.30237 -57.899155
-38.473747 7.714276 -58.242992
-38.25642 9.137584 -58.008117
-37.282604 8.523905 -58.20383
-39.729565 6.803681 -58.195705
-38.473747 7.714276 -58.242992
-33.339136 8.065213 -57.627007
-32.397759 8.368787 -57.166466
-32.568584 7.093937 -57.35984
-34.352293 7.630786 -57.981014
-34.181469 8.905636 -57.787639
-33.339136 8.065213 -57.627007
-35.451652 7.080296 -58.234607
-34.352293 7.630786 -57.981014
-44.201391 16.635022 -41.946317
-45.030321 16.881621 -42.164994
-43.254667 17.070334 -42.994082
-44.201391 16.635022 -41.946317
-43.414535 16.334036 -41.601982
-41.723328 16.411482 -42.11649
-42.616878 16.037042 -41.20334
-41.872394 15.679177 -40.670084
-38.864293 15.214769 -39.277252
-39.641976 14.965812 -38.621525
-38.681717 15.505897 -40.762692
-38.864293 15.214769 -39.277252
-37.989284 15.309847 -39.891784
-36.930461 15.480318 -41.806249
-37.182304 15.358179 -40.381937
-36.306056 15.237522 -40.810963
-32.921426 14.114311 -39.04768
-33.625082 14.435616 -38.987106
-32.221649 13.627498 -39.004523
-31.569883 13.174007 -38.915905
-32.729281 13.673385 -40.221246
-32.921426 14.114311 -39.04768
-32.221649 13.627498 -39.004523
-30.906277 11.607903 -42.230576
-31.133737 12.170803 -41.153248
-30.5622 11.393757 -40.869053
-29.215367 8.394829 -42.114134
-28.856415 7.470377 -41.624842
-29.40508 8.694118 -43.56673
-29.599875 9.400613 -42.594893
-29.215367 8.394829 -42.114134
-28.806676 6.959809 -43.994541
-28.753032 6.632967 -42.520308
-29.115866 8.087896 -44.550131
-28.806676 6.959809 -43.994541
-28.901971 7.359371 -45.458701
-28.595322 4.907697 -53.500755
-29.036628 6.166139 -54.126728
-28.624669 5.921965 -53.185269
-27.614676 2.55631 -49.555149
-27.78492 3.457508 -49.073358
-27.675893 2.959912 -50.693989
-27.614676 2.55631 -49.555149
-27.867089 3.340726 -51.807545
-27.992166 4.282709 -51.44574
-27.675893 2.959912 -50.693989
-28.146479 3.647418 -52.791866
-27.867089 3.340726 -51.807545
-28.595322 4.907697 -53.500755
-28.146479 3.647418 -52.791866
-58.34393 8.020231 -36.999613
-57.692381 9.179837 -37.309147
-58.462271 7.350621 -38.143858
-59.040751 6.688655 -36.625576
-58.34393 8.020231 -36.999613
-46.717863 17.15534 -42.398456
-45.861242 17.040468 -42.336548
-47.587593 17.105491 -42.425863
-46.717863 17.15534 -42.398456
-46.573095 17.639166 -43.708933
-48.46261 17.02511 -42.364189
-47.587593 17.105491 -42.425863
-48.340105 17.289534 -43.651682
-47.230751 17.671299 -45.003412
-48.128031 17.371516 -44.918755
-48.46261 17.02511 -42.364189
-48.340105 17.289534 -43.651682
-50.943333 15.46105 -44.431219
-49.980032 16.265194 -44.635048
-49.867014 15.860762 -45.837629
-50.943333 15.46105 -44.431219
-51.849173 14.649655 -44.196737
-54.651234 12.638447 -40.967928
-53.755137 13.211889 -42.469324
-55.452259 11.62355 -40.677096
-54.651234 12.638447 -40.967928
-56.307403 10.411935 -40.33152
-55.452259 11.62355 -40.677096
-55.497387 10.969472 -41.833399
-57.058991 9.220027 -40.002859
-57.013863 9.874105 -38.846556
-56.307403 10.411935 -40.33152
-59.13382 3.364001 -41.884664
-59.738087 2.983293 -40.512833
-58.901653 4.522113 -41.104056
-59.342855 2.078626 -42.580664
-59.13382 3.364001 -41.884664
-58.506422 3.617446 -43.171886
-59.614387 0.741366 -43.151895
-59.342855 2.078626 -42.580664
-59.853323 -0.712172 -43.646076
-59.614387 0.741366 -43.151895
-58.954393 0.878533 -44.362066
-60.132107 -2.198677 -44.023968
-59.853323 -0.712172 -43.646076
-60.374569 -3.787713 -44.337185
-60.132107 -2.198677 -44.023968
-59.435791 -2.164041 -45.169464
-60.62696 -5.401178 -44.552902
-60.374569 -3.787713 -44.337185
-60.62696 -5.401178 -44.552902
-59.89888 -5.452196 -45.644115
-59.092321 -5.506607 -46.752552
-58.279845 -5.623557 -47.799982
3 0 37 35
3 0 39 37
3 1 142 144
3 142 40 143
3 142 143 144
3 1 41 40
3 145 44 146
3 147 146 42
3 145 146 147
3 148 46 149
3 150 149 44
3 148 149 150
3 152 151 46
3 2 49 47
3 4 52 50
3 4 54 52
3 4 56 54
3 154 153 57
3 155 60 156
3 5 157 159
3 157 62 158
3 157 158 159
3 5 64 62
3 3 69 67
3 6 72 70
3 6 74 72
3 6 76 74
3 7 80 78
3 9 81 36
3 9 82 81
3 9 84 82
3 11 85 38
3 11 86 85
3 12 160 161
3 12 162 163
3 12 164 165
3 13 89 87
3 15 90 43
3 15 91 90
3 15 93 91
3 17 94 45
3 17 95 94
3 17 96 95
3 18 99 97
3 20 100 48
3 20 101 100
3 8 102 79
3 21 103 51
3 21 104 103
3 21 105 104
3 22 106 53
3 22 107 106
3 22 108 107
3 23 166 168
3 168 167 55
3 166 167 168
3 23 169 170
3 10 109 83
3 172 171 58
3 173 110 174
3 24 111 59
3 24 112 111
3 175 113 176
3 25 114 61
3 25 115 114
3 25 116 115
3 26 117 63
3 26 118 117
3 177 119 178
3 179 120 180
3 181 180 119
3 179 180 181
3 27 121 65
3 27 122 121
3 182 123 183
3 28 184 186
3 184 124 185
3 184 185 186
3 28 125 124
3 28 126 125
3 29 127 66
3 29 128 127
3 187 129 188
3 19 130 98
3 30 189 191
3 191 190 68
3 189 190 191
3 30 192 193
3 14 131 88
3 31 132 71
3 31 194 196
3 196 195 132
3 194 195 196
3 31 197 199
3 197 133 198
3 197 198 199
3 32 134 73
3 32 135 134
3 32 136 135
3 33 137 75
3 33 138 137
3 16 139 92
3 34 140 77
3 34 141 140
3 34 200 202
3 202 201 141
3 200 201 202
3 35 36 7
3 37 36 35
3 37 9 36
3 37 38 9
3 39 38 37
3 39 11 38
3 40 203 204
3 40 205 207
3 205 12 206
3 205 206 207
3 40 208 210
3 210 209 12
3 208 209 210
3 41 211 213
3 213 212 40
3 211 212 213
3 41 214 215
3 42 43 13
3 44 43 42
3 44 15 43
3 44 45 15
3 46 45 44
3 46 17 45
3 46 216 218
3 218 217 17
3 216 217 218
3 220 219 46
3 47 48 18
3 49 48 47
3 49 20 48
3 50 51 8
3 52 51 50
3 52 21 51
3 52 53 21
3 54 53 52
3 54 22 53
3 54 55 22
3 56 55 54
3 56 23 55
3 57 58 10
3 221 58 222
3 223 222 57
3 221 222 223
3 225 224 58
3 226 59 227
3 60 228 230
3 228 59 229
3 228 229 230
3 60 24 59
3 231 61 232
3 62 233 235
3 233 61 234
3 233 234 235
3 62 25 61
3 62 63 25
3 64 63 62
3 64 26 63
3 236 65 237
3 238 65 239
3 240 27 241
3 242 241 65
3 240 241 242
3 243 28 244
3 245 66 246
3 247 246 28
3 245 246 247
3 248 66 249
3 250 29 251
3 252 251 66
3 250 251 252
3 67 68 19
3 69 68 67
3 69 30 68
3 70 71 14
3 72 71 70
3 72 31 71
3 72 73 31
3 74 73 72
3 74 32 73
3 74 75 32
3 76 75 74
3 76 33 75
3 253 77 254
3 255 254 16
3 253 254 255
3 256 77 257
3 258 34 259
3 260 259 77
3 258 259 260
3 262 261 34
3 78 79 2
3 80 79 78
3 80 8 79
3 36 80 7
3 81 80 36
3 81 8 80
3 81 50 8
3 82 50 81
3 82 4 50
3 82 83 4
3 84 83 82
3 84 10 83
3 38 84 9
3 85 84 38
3 85 10 84
3 85 57 10
3 86 57 85
3 86 263 265
3 265 264 57
3 263 264 265
3 266 5 267
3 269 268 12
3 87 88 3
3 89 88 87
3 89 14 88
3 43 89 13
3 90 89 43
3 90 14 89
3 90 70 14
3 91 70 90
3 91 6 70
3 91 92 6
3 93 92 91
3 93 16 92
3 45 93 15
3 94 93 45
3 94 16 93
3 94 270 272
3 272 271 16
3 270 271 272
3 95 273 275
3 275 274 94
3 273 274 275
3 95 276 277
3 95 278 279
3 96 280 282
3 282 281 95
3 280 281 282
3 96 283 284
3 285 96 286
3 287 286 17
3 285 286 287
3 288 96 289
3 291 290 96
3 292 1 293
3 97 294 296
3 294 98 295
3 294 295 296
3 99 98 97
3 99 19 98
3 48 99 18
3 100 99 48
3 100 19 99
3 100 67 19
3 101 67 100
3 101 3 67
3 79 49 2
3 102 49 79
3 102 20 49
3 51 102 8
3 103 102 51
3 103 20 102
3 103 101 20
3 104 101 103
3 104 3 101
3 104 87 3
3 105 87 104
3 105 13 87
3 53 105 21
3 106 105 53
3 106 13 105
3 106 42 13
3 107 42 106
3 107 297 299
3 299 298 42
3 297 298 299
3 107 300 301
3 108 302 304
3 304 303 107
3 302 303 304
3 108 305 306
3 55 108 22
3 307 108 308
3 309 308 55
3 307 308 309
3 311 310 108
3 83 56 4
3 109 56 83
3 109 23 56
3 58 109 10
3 312 109 313
3 314 313 58
3 312 313 314
3 315 23 316
3 317 316 109
3 315 316 317
3 319 318 23
3 320 97 321
3 110 322 324
3 322 97 323
3 322 323 324
3 110 18 97
3 59 325 327
3 325 110 326
3 325 326 327
3 111 110 59
3 111 18 110
3 111 47 18
3 112 47 111
3 112 2 47
3 328 60 329
3 113 330 332
3 330 60 331
3 330 331 332
3 113 24 60
3 61 333 335
3 333 113 334
3 333 334 335
3 114 113 61
3 114 24 113
3 114 112 24
3 115 112 114
3 115 2 112
3 115 78 2
3 116 78 115
3 116 7 78
3 63 116 25
3 117 116 63
3 117 7 116
3 117 35 7
3 118 35 117
3 118 0 35
3 336 5 337
3 119 338 339
3 119 340 342
3 340 5 341
3 340 341 342
3 119 64 5
3 120 64 119
3 120 26 64
3 65 343 345
3 343 120 344
3 343 344 345
3 121 120 65
3 121 26 120
3 121 118 26
3 122 118 121
3 122 0 118
3 123 346 347
3 123 348 350
3 348 27 349
3 348 349 350
3 351 123 352
3 124 353 355
3 353 123 354
3 353 354 355
3 124 27 123
3 124 122 27
3 125 122 124
3 125 0 122
3 125 39 0
3 126 39 125
3 126 11 39
3 66 126 28
3 127 126 66
3 127 11 126
3 127 86 11
3 128 86 127
3 128 356 358
3 358 357 86
3 356 357 358
3 359 29 360
3 361 29 362
3 363 128 364
3 365 364 29
3 363 364 365
3 366 128 367
3 369 368 128
3 129 370 371
3 129 372 374
3 372 1 373
3 372 373 374
3 98 375 376
3 130 377 379
3 379 378 98
3 377 378 379
3 130 380 381
3 68 130 19
3 382 130 383
3 384 383 68
3 382 383 384
3 386 385 130
3 88 69 3
3 131 69 88
3 131 30 69
3 71 131 14
3 132 131 71
3 132 30 131
3 132 387 389
3 389 388 30
3 387 388 389
3 391 390 132
3 133 392 393
3 133 394 395
3 73 133 31
3 134 133 73
3 134 396 398
3 398 397 133
3 396 397 398
3 134 399 401
3 399 129 400
3 399 400 401
3 135 129 134
3 135 1 129
3 135 41 1
3 136 41 135
3 136 402 404
3 404 403 41
3 402 403 404
3 75 136 32
3 137 136 75
3 137 405 407
3 407 406 136
3 405 406 407
3 137 408 409
3 138 410 412
3 412 411 137
3 410 411 412
3 138 413 414
3 92 76 6
3 139 76 92
3 139 33 76
3 77 139 16
3 140 139 77
3 140 33 139
3 140 138 33
3 141 138 140
3 141 415 417
3 417 416 138
3 415 416 417
3 141 418 419
3 421 420 141
3 423 422 34
