ply
format ascii 1.0
element vertex 48
property float x
property float y
property float z
element face 28
property list uchar int vertex_index
end_header
42.469429 -2.732096 -10.996986
43.532459 8.317513 -21.009615
42.361382 8.138647 -18.116476
42.807724 10.676079 -22.064917
42.365614 -1.391057 -11.554972
41.77154 -1.29647 -10.200195
42.651423 9.516493 -20.073376
42.065884 9.42706 -18.626806
42.946921 8.22808 -19.563046
43.170091 9.496796 -21.537266
42.289055 10.695776 -20.601027
42.651423 9.516493 -20.073376
43.178726 -2.587202 -12.303672
43.262378 -3.830443 -11.654595
42.61223 6.817085 -17.589983
41.790799 8.268979 -16.673172
43.257945 7.007705 -19.008105
42.61223 6.817085 -17.589983
43.843483 7.097138 -20.454674
42.946921 8.22808 -19.563046
43.257945 7.007705 -19.008105
41.866203 -2.671495 -9.698774
41.77154 -1.29647 -10.200195
42.530937 -3.979568 -10.404511
41.866203 -2.671495 -9.698774
43.262378 -3.830443 -11.654595
42.530937 -3.979568 -10.404511
42.365614 -1.391057 -11.554972
43.178726 -2.587202 -12.303672
41.547303 9.656066 -17.175728
41.790799 8.268979 -16.673172
41.547303 9.656066 -17.175728
42.065884 9.42706 -18.626806
41.943001 11.933239 -21.099077
42.289055 10.695776 -20.601027
42.388521 11.799454 -22.566941
41.943001 11.933239 -21.099077
44.485138 7.538069 -21.862696
43.843483 7.097138 -20.454674
44.098312 8.648214 -22.455839
44.485138 7.538069 -21.862696
43.735945 9.827497 -22.98349
43.170091 9.496796 -21.537266
44.098312 8.648214 -22.455839
43.292835 10.887016 -23.537899
43.735945 9.827497 -22.98349
42.388521 11.799454 -22.566941
43.292835 10.887016 -23.537899
3 0 4 5
3 1 6 8
3 8 7 2
3 6 7 8
3 1 9 11
3 9 3 10
3 9 10 11
3 13 12 0
3 14 2 15
3 16 2 17
3 18 1 19
3 20 19 2
3 18 19 20
3 21 0 22
3 23 0 24
3 26 25 0
3 28 27 0
3 2 29 30
3 32 31 2
3 3 33 34
3 3 35 36
3 37 1 38
3 39 1 40
3 41 3 42
3 43 42 1
3 41 42 43
3 44 3 45
3 47 46 3
