ply
format ascii 1.0
element vertex 852
property float x
property float y
property float z
element face 878
property list uchar int vertex_index
end_header
57.305038 -53.741222 4.077224
62.341675 -24.61515 -19.588839
65.982262 -49.162354 -11.06752
63.965462 -0.755936 -21.70075
59.026382 -46.117004 0.087723
59.847198 -42.306652 -8.202396
60.631027 -52.616642 -3.025936
64.499222 -20.014164 -12.483673
61.14053 -31.266651 -11.300512
63.673462 -37.013596 -16.203604
70.167511 -44.238403 -18.93989
56.566299 -58.423592 11.357579
59.840019 -61.142136 3.84658
59.804718 -50.243546 8.669014
66.102036 -42.444275 4.71163
65.517723 -60.768314 -4.181496
57.796104 -50.355148 2.256149
58.625893 -49.073757 -1.750443
58.488922 -53.392696 0.88679
61.970337 -34.152092 -7.419577
62.328842 -45.610992 -9.925209
61.403156 -39.882568 -12.245672
64.903511 -43.102898 -13.892715
67.501892 -40.267464 -17.754683
68.410751 -46.698837 -15.021206
56.087021 -60.734921 15.848844
56.373589 -62.657223 11.944241
57.599243 -56.642025 14.747515
66.831978 -45.224129 9.326433
62.837784 -46.31781 6.685756
62.770279 -61.400982 -0.136478
62.676083 3.919903 -26.954645
62.202553 -22.10713 -16.28372
63.529869 -16.105694 -16.806616
60.957932 -41.597584 -1.947159
60.216057 -39.314621 -6.00754
59.101898 -44.316887 -4.087778
60.164841 -47.59111 -5.857338
63.259605 -51.215237 -7.060976
65.141502 -5.465304 -16.737249
65.032547 -27.315819 -22.085421
67.1968 -18.93733 -8.604527
62.734688 -25.615444 -12.110214
61.247261 -28.124676 -15.359861
60.123737 -36.849487 -10.011497
60.966759 -34.055183 -14.032915
62.732853 -30.864164 -18.0693
66.258423 -33.822239 -20.064962
69.603012 -37.416405 -21.536711
56.994057 -55.929203 7.259382
58.222694 -57.011349 3.959323
57.485092 -60.067684 7.705623
58.205032 -64.307419 7.845389
60.12043 -52.676071 13.188691
57.617531 -54.26302 10.291206
57.592911 -52.019997 6.151187
68.846283 -38.614288 3.078235
64.883797 -39.664177 0.405643
61.948898 -43.885288 2.268446
59.361328 -48.021133 4.32212
60.661758 -57.203789 0.215954
63.572037 -56.571243 -3.749819
66.351746 -55.133663 -7.777079
68.567116 -53.122738 -11.830324
65.864632 -14.713287 -12.482151
63.161491 -1.369673 -27.03137
57.455032 -52.246521 3.266505
57.886864 -51.768684 1.46205
57.738106 -53.608295 2.662132
63.783997 -33.042126 -6.066315
62.631016 -35.541653 -5.510807
64.154404 -47.349117 -10.562315
63.584915 -44.414856 -11.922812
65.495384 -46.136681 -12.544647
66.803612 -44.832352 -14.505032
67.002808 -46.57692 11.722975
65.155899 -47.033932 10.296001
64.322556 -1.086798 -19.059416
62.959152 3.678213 -24.183455
63.344711 1.593655 -24.302916
61.906631 -23.335852 -18.024637
62.276489 -20.234844 -18.499407
59.91188 -43.881874 -0.96533
59.678932 -42.871685 -3.048523
58.995049 -45.224663 -2.006855
59.395111 -50.782036 -2.465717
59.309601 -48.382416 -3.801807
60.415688 -50.145115 -4.496979
61.57259 -49.366554 -6.532841
61.909508 -52.00177 -5.041971
66.824097 -28.821201 -23.039507
62.351936 -30.00993 -9.814346
63.317764 -27.283476 -10.161755
61.885963 -28.44442 -11.76268
61.646065 -26.821552 -13.781019
61.064667 -29.736084 -13.305609
59.63129 -40.756866 -7.146914
60.065842 -38.11554 -8.010296
59.894318 -39.596527 -9.174147
62.466911 -38.499039 -14.236423
61.103165 -36.981388 -13.201864
62.037308 -35.515282 -15.200727
61.750103 -32.509594 -16.051622
63.14624 -33.949303 -17.185228
64.368515 -32.297062 -19.152502
64.962662 -35.446083 -18.146044
68.649086 -38.824696 -19.65354
56.799316 -57.184235 9.244229
57.142559 -57.964615 7.534975
56.798798 -59.292294 9.561369
57.140629 -63.538498 9.908978
61.89362 -53.195118 16.997913
56.836075 -57.522449 13.087651
57.614594 -55.459415 12.485532
56.952187 -56.32515 10.893545
57.050652 -55.120098 8.792648
68.032722 -41.998871 6.083841
69.277237 -40.184631 5.284491
67.587715 -40.521553 3.836453
67.002052 -39.02927 1.687129
65.546326 -41.050011 2.516439
63.408585 -41.783966 1.292516
63.989853 -43.067692 3.449984
61.249138 -48.27198 7.700453
60.930687 -47.087608 5.477626
59.587914 -49.091682 6.476374
58.350346 -50.042835 5.29633
58.46085 -51.092743 7.393367
59.027916 -59.034187 3.902179
59.338875 -57.210491 2.132464
60.367653 -59.264511 1.983129
64.204803 -61.194176 -2.152285
63.32753 -59.074112 -1.973274
64.774185 -58.648441 -3.982853
65.009094 -55.945332 -5.759787
66.106331 -58.01741 -6.00588
68.233696 -56.29213 -10.092669
61.262688 8.261147 -29.495821
60.217323 10.420296 -32.168854
65.965813 -19.307405 -10.533207
66.520668 -16.832792 -10.473677
65.270477 -17.303551 -12.524118
64.176399 -13.188217 -16.912546
63.805359 -11.058707 -19.288439
63.546227 -8.877149 -21.75857
62.797363 0.913996 -29.681616
58.319492 -48.286381 1.176268
58.480919 -47.512688 -0.889606
58.12117 -49.709976 0.275711
58.542141 -51.307362 -0.465736
59.473274 -53.072144 -1.03586
69.87545 -32.502552 -24.582178
63.002968 -31.536882 -7.923498
61.455574 -32.732742 -9.34243
60.80558 -43.930531 -9.137062
60.523018 -41.152393 -10.233622
61.829697 -42.759403 -11.155151
63.00042 -41.464691 -13.1467
64.275925 -40.062946 -15.110163
65.598656 -38.580498 -17.045691
66.230354 -41.707275 -15.835741
69.395081 -45.441738 -16.983915
56.316582 -59.612148 13.565594
56.403809 -60.543434 11.701454
58.785618 -55.815033 16.3424
56.722237 -58.679268 15.355884
69.694908 -43.172794 10.000082
68.333542 -43.447784 8.417397
66.53273 -43.840118 6.985398
64.486305 -44.376381 5.674238
64.877953 -45.703674 7.959088
63.170959 -47.590279 8.966499
61.510487 -49.504044 9.96365
61.285961 -61.381683 1.865068
64.577667 -63.326958 -2.321295
61.924164 6.199621 -29.633768
63.14064 -20.975729 -14.417677
63.93615 -18.086754 -14.583599
62.848083 -19.092159 -16.596766
62.754105 -17.133772 -18.873953
62.129898 -39.273033 -2.828999
61.527847 -38.020947 -4.816271
60.530384 -40.467415 -3.9911
59.571358 -41.840199 -5.106995
59.377869 -43.354599 -6.153418
58.796986 -46.733917 -2.963278
59.284519 -45.900391 -5.035135
59.953617 -44.974121 -7.095465
61.178329 -46.671303 -7.901674
62.831795 -48.433052 -8.557384
64.633316 -50.261284 -9.071079
64.916565 -3.493326 -16.622702
64.561172 -3.11234 -19.171206
66.722565 -21.291771 -8.673384
65.197556 -21.902071 -10.510778
64.289925 -24.572262 -10.390926
63.628685 -22.796854 -12.348471
62.355507 -23.896029 -14.150843
61.653614 -25.123381 -15.870771
61.683357 -26.419786 -17.457567
61.025745 -36.748741 -6.780203
60.680851 -35.43808 -8.741892
60.543232 -34.070892 -10.718531
60.383316 -38.341293 -11.192263
60.420387 -35.499924 -12.018511
60.648876 -32.630516 -12.72027
61.013763 -31.102928 -14.749235
61.629105 -29.478363 -16.801008
62.459976 -27.753448 -18.868204
63.853851 -29.127346 -20.081125
65.624687 -30.578892 -21.102537
67.474861 -32.171513 -21.964788
66.89801 -37.049736 -18.955446
68.095406 -35.505184 -20.843706
70.302055 -36.071854 -23.408407
57.153549 -54.726303 5.471597
57.601345 -55.173183 4.020857
57.410141 -56.58469 5.664412
57.917248 -58.595699 5.756165
58.535545 -60.696548 5.797466
56.9538 -61.422466 9.775856
57.888435 -62.197403 7.804318
59.101112 -62.824078 5.802101
61.703026 -50.756477 12.267102
59.98587 -51.450405 10.905992
58.736961 -54.638386 14.022362
58.670612 -53.434547 11.75514
58.576492 -52.238113 9.544509
57.603714 -53.096451 8.176566
57.133205 -53.964458 6.814773
57.235069 -52.95525 4.996172
70.173943 -38.408745 4.608231
68.264488 -37.014267 0.988708
66.291809 -37.53154 -0.361473
64.145782 -38.287643 -1.624479
62.77425 -40.52243 -0.797897
61.446796 -42.729561 0.136585
60.226074 -44.903427 1.147603
62.423214 -45.079933 4.451824
60.578705 -45.965652 3.294165
59.161049 -47.036522 2.195846
58.287987 -49.1129 3.233012
57.635277 -51.101112 4.197142
58.402161 -55.291794 2.342196
59.474648 -55.221977 0.491182
60.73494 -54.979256 -1.453695
61.832088 -59.279762 0.018824
62.099747 -56.992023 -1.75325
62.108841 -54.553993 -3.443937
63.530952 -53.938118 -5.451963
64.942741 -53.135944 -7.463396
66.291039 -52.169163 -9.47208
65.681168 -62.916607 -4.373777
66.568863 -62.333588 -6.443237
66.653557 -60.148705 -6.226215
67.272057 -57.21439 -8.042089
67.550735 -54.174343 -9.800289
67.359924 -16.752205 -8.471382
66.794823 -14.532999 -10.352463
66.208519 -12.303688 -12.376837
64.667221 -15.267439 -14.652569
65.254837 -12.56971 -14.63393
65.622726 -10.058689 -14.546272
64.002098 -3.201441 -21.799074
63.492165 -3.660894 -24.407156
63.503464 -0.884224 -24.394846
62.990356 1.42951 -27.040251
63.003779 -36.228945 -4.549727
63.631922 -35.040104 -4.860553
66.619919 -48.560046 -12.058809
66.37648 -47.047209 -12.797372
65.738823 -47.649518 -11.806083
67.028862 -47.225933 12.945048
67.768166 -46.382388 12.50317
66.161866 -47.460553 12.20044
67.028862 -47.225933 12.945048
63.818909 0.276161 -21.643839
63.997456 0.11073 -20.323172
64.144009 -0.921367 -20.380083
63.655086 0.418859 -23.001833
63.508533 1.450956 -22.944921
63.818909 0.276161 -21.643839
62.359948 -23.033463 -19.909489
62.142426 -22.393814 -19.127388
62.124153 -23.975501 -18.806738
67.349052 -27.938349 -24.005781
67.674435 -29.673123 -23.44644
70.066857 -42.536623 -19.612803
69.631909 -43.186729 -18.656099
70.429237 -43.683343 -19.913788
70.066857 -42.536623 -19.612803
61.084271 -54.121855 17.44498
61.905974 -53.760573 18.214475
61.096624 -54.687309 18.661541
60.243502 -54.466845 16.704581
61.052851 -53.540108 16.257515
61.084271 -54.121855 17.44498
60.631027 9.411762 -32.244126
60.740005 9.340722 -30.832338
61.153709 8.332187 -30.907609
60.104408 10.457961 -33.580281
60.631027 9.411762 -32.244126
63.498146 -11.503933 -20.424103
63.545521 -12.559875 -19.2136
63.36858 -10.413153 -21.659168
63.675793 -9.967928 -20.523505
63.498146 -11.503933 -20.424103
70.104466 -31.799132 -25.515833
70.287521 -33.656099 -24.927519
68.217006 -45.090534 -15.733788
67.413437 -44.157291 -15.475701
67.607181 -45.765594 -14.763119
68.902916 -46.070287 -16.002561
68.709171 -44.461984 -16.715143
68.217006 -45.090534 -15.733788
56.04422 -61.221146 14.889741
56.159 -60.659759 13.748116
56.201802 -60.173535 14.707219
56.404629 -59.707094 15.602364
56.681691 -59.229603 16.521028
56.364082 -60.25743 16.767508
69.701138 -43.863842 11.23705
70.087193 -43.080587 10.87668
67.58276 -44.335956 8.871915
68.414932 -44.149382 9.619532
67.664151 -45.037554 10.07405
63.291488 -48.233674 10.128125
64.163429 -47.312106 9.63125
64.283959 -47.9555 10.792876
62.461253 -49.190556 10.626701
62.340723 -48.547162 9.465075
63.291488 -48.233674 10.128125
63.944512 -64.482281 -1.37714
63.938915 -63.428074 -1.300879
62.420649 4.961947 -26.89081
62.562184 4.841102 -25.505215
62.817617 3.799058 -25.56905
62.300123 5.059762 -28.294207
62.04469 6.101807 -28.230372
62.420649 4.961947 -26.89081
62.654492 -17.703107 -19.828318
62.515297 -18.684308 -18.68668
62.415684 -19.253643 -19.641044
62.797573 -16.114466 -20.052594
62.654492 -17.703107 -19.828318
65.029033 -4.479315 -16.679975
65.184078 -4.698045 -15.459884
65.296547 -5.684034 -15.517157
64.771748 -25.673946 -22.554424
64.239811 -26.624451 -21.514561
66.359386 -22.529115 -8.664689
67.112793 -22.280493 -7.798771
65.596882 -22.834266 -9.583386
65.96006 -21.596921 -9.592081
66.359386 -22.529115 -8.664689
69.357292 -35.698143 -22.126692
68.603489 -34.742532 -21.780189
68.849209 -36.460794 -21.190209
69.952534 -36.744129 -22.472559
69.706813 -35.025868 -23.06254
69.357292 -35.698143 -22.126692
58.830223 -64.617245 6.808187
59.278263 -63.875574 5.786544
58.653072 -63.565748 6.823745
60.911728 -51.716274 12.727896
61.765141 -51.376743 13.439128
60.973843 -52.33654 13.899923
69.316677 -37.675205 2.767568
69.980507 -37.572434 3.532566
69.510113 -38.511516 3.843233
68.555385 -37.814278 2.033472
69.025779 -36.875194 1.722804
69.316677 -37.675205 2.767568
65.455418 -64.000494 -4.472755
65.026146 -64.185995 -3.435729
67.071033 -60.857573 -7.366324
66.893513 -61.984335 -7.488159
67.113381 -59.765131 -7.257812
66.61121 -61.241146 -6.334726
67.071033 -60.857573 -7.366324
67.42263 -58.297973 -8.16575
66.962807 -58.681548 -7.134152
67.113381 -59.765131 -7.257812
68.047398 -52.100212 -11.653585
67.539207 -52.626014 -10.638568
68.058926 -53.64854 -10.815306
68.58857 -51.519472 -12.654777
68.047398 -52.100212 -11.653585
67.278362 -17.844767 -8.537954
67.62025 -17.859686 -7.595415
67.538689 -18.952248 -7.661987
64.98254 -11.482173 -15.777639
64.715618 -12.878964 -15.773238
64.443321 -11.791426 -16.916947
65.166484 -10.226662 -15.733809
65.438782 -11.3142 -14.590101
64.98254 -11.482173 -15.777639
65.338752 -8.926232 -15.699078
65.166484 -10.226662 -15.733809
63.921044 -4.569195 -21.815162
64.2584 -4.35435 -20.537922
63.326828 -2.515283 -25.719263
63.369896 -4.02461 -25.646258
63.204559 -2.878999 -26.958365
62.608596 2.3156 -29.697239
62.567169 2.036574 -31.009936
64.208413 -33.79034 -5.138307
64.804413 -32.599562 -5.37559
63.207507 -34.291889 -5.788561
64.208413 -33.79034 -5.138307
63.631922 -35.040104 -4.860553
67.030594 -46.395044 -13.777565
66.149498 -45.484516 -13.524839
66.37648 -47.047209 -12.797372
67.834164 -47.328287 -14.035652
67.607181 -45.765594 -14.763119
67.030594 -46.395044 -13.777565
55.865177 -61.761232 16.041126
56.00254 -61.262829 17.021837
56.00254 -61.262829 17.021837
56.364082 -60.25743 16.767508
67.749566 -45.713949 11.272321
67.768166 -46.382388 12.50317
66.917393 -45.900525 10.524704
67.664151 -45.037554 10.07405
67.749566 -45.713949 11.272321
65.238411 -47.689059 11.486954
66.079353 -46.805426 11.009488
66.161866 -47.460553 12.20044
64.283959 -47.9555 10.792876
65.238411 -47.689059 11.486954
64.04092 -0.299909 -19.026325
64.333966 -1.521514 -17.809053
64.04092 -0.299909 -19.026325
63.997456 0.11073 -20.323172
63.315754 2.493235 -22.885191
63.019509 3.291521 -22.846685
63.151932 2.635934 -24.243185
63.315754 2.493235 -22.885191
63.508533 1.450956 -22.944921
62.327354 -20.843311 -19.364773
62.09156 -21.785348 -18.262022
62.142426 -22.393814 -19.127388
62.415684 -19.253643 -19.641044
62.327354 -20.843311 -19.364773
65.42313 -6.637564 -15.578643
65.296547 -5.684034 -15.517157
66.500065 -27.138041 -23.562361
65.60429 -26.385351 -23.085318
65.928322 -28.06851 -22.562464
66.500065 -27.138041 -23.562361
67.349052 -27.938349 -24.005781
62.83485 -28.646703 -9.98805
63.69094 -28.10136 -9.227484
63.208027 -29.464588 -9.05378
68.872696 -40.479876 -19.012925
68.075489 -39.54608 -18.704111
68.299099 -41.20126 -18.063496
69.307644 -39.829769 -19.969628
68.872696 -40.479876 -19.012925
69.784607 -39.125624 -20.911213
69.126049 -38.120551 -20.595126
69.307644 -39.829769 -19.969628
70.092915 -38.515461 -21.862108
69.784607 -39.125624 -20.911213
56.75218 -64.135628 11.005261
56.757109 -63.09786 10.926609
56.36866 -63.694991 12.022893
57.184775 -64.571281 9.941566
56.75218 -64.135628 11.005261
57.716976 -64.955742 8.909771
57.672831 -63.922958 8.877183
57.184775 -64.571281 9.941566
58.252403 -65.333587 7.840641
57.716976 -64.955742 8.909771
62.757345 -52.86903 17.751836
61.905974 -53.760573 18.214475
62.759623 -52.288285 16.527449
63.623348 -51.962196 17.281373
62.757345 -52.86903 17.751836
61.860438 -52.596063 15.804534
62.759623 -52.288285 16.527449
61.860438 -52.596063 15.804534
61.052851 -53.540108 16.257515
60.166256 -53.280585 14.352904
60.973843 -52.33654 13.899923
68.654979 -41.091751 5.684166
69.417057 -40.947227 6.441021
68.7948 -41.854348 6.840696
68.244453 -57.411782 -10.232616
67.90345 -57.836844 -9.19104
68.600746 -55.805216 -11.125757
68.244453 -57.411782 -10.232616
68.767456 -54.22052 -11.994584
68.400406 -54.707434 -10.961496
68.600746 -55.805216 -11.125757
68.969941 -52.584034 -12.849449
68.767456 -54.22052 -11.994584
60.829739 9.033744 -29.421049
60.905938 8.697436 -28.026812
61.338887 7.924839 -28.101584
60.307057 10.113319 -30.757566
60.829739 9.033744 -29.421049
60.740005 9.340722 -30.832338
59.720471 11.162082 -32.076314
60.307057 10.113319 -30.757566
59.60593 11.434024 -33.496941
59.720471 11.162082 -32.076314
59.60593 11.434024 -33.496941
60.104408 10.457961 -33.580281
63.731041 -13.62463 -18.025654
63.853134 -14.646956 -16.859581
63.407776 -15.083368 -17.972689
63.990879 -12.123462 -18.100493
63.731041 -13.62463 -18.025654
63.545521 -12.559875 -19.2136
64.257801 -10.726671 -18.104893
64.443321 -11.791426 -16.916947
63.990879 -12.123462 -18.100493
64.022599 -9.621185 -19.308134
64.257801 -10.726671 -18.104893
63.893033 -8.530406 -20.5432
64.022599 -9.621185 -19.308134
63.675793 -9.967928 -20.523505
63.693108 -7.407049 -21.794911
63.893033 -8.530406 -20.5432
63.134498 -1.744254 -28.264122
63.204559 -2.878999 -26.958365
62.952434 -0.602419 -29.589245
62.979427 -0.227838 -28.356493
63.134498 -1.744254 -28.264122
62.840076 0.5205 -30.8983
62.952434 -0.602419 -29.589245
62.567169 2.036574 -31.009936
62.840076 0.5205 -30.8983
69.602543 -30.708147 -25.161873
69.200111 -31.513799 -24.217776
69.602543 -30.708147 -25.161873
70.104466 -31.799132 -25.515833
64.351998 -31.790919 -6.27292
64.804413 -32.599562 -5.37559
63.961483 -31.038297 -7.201512
64.351998 -31.790919 -6.27292
63.393483 -32.289504 -6.994907
63.533542 -30.228063 -8.108356
63.961483 -31.038297 -7.201512
62.677452 -30.773406 -8.868922
63.208027 -29.464588 -9.05378
63.533542 -30.228063 -8.108356
67.126808 -42.594753 -16.141056
66.516983 -43.269813 -15.170386
67.413437 -44.157291 -15.475701
67.762577 -41.874848 -17.100527
66.866123 -40.987369 -16.795212
67.126808 -42.594753 -16.141056
68.299099 -41.20126 -18.063496
67.762577 -41.874848 -17.100527
69.245694 -43.788397 -17.678112
68.709171 -44.461984 -16.715143
69.781296 -44.84007 -17.961903
69.631909 -43.186729 -18.656099
69.245694 -43.788397 -17.678112
56.202614 -61.125402 12.816046
56.360196 -60.077791 12.633524
56.159 -60.659759 13.748116
56.187504 -62.182297 12.937439
56.388699 -61.600329 11.822847
56.202614 -61.125402 12.816046
56.04422 -61.221146 14.889741
55.865177 -61.761232 16.041126
56.090333 -63.219063 13.07003
56.187504 -62.182297 12.937439
56.36866 -63.694991 12.022893
56.090333 -63.219063 13.07003
58.810713 -56.377903 17.527614
59.53027 -55.431812 17.117223
58.188339 -56.799052 16.705375
58.810713 -56.377903 17.527614
57.595152 -57.212547 15.907932
58.192431 -56.228529 15.544958
58.188339 -56.799052 16.705375
57.156649 -58.231169 16.212117
56.681691 -59.229603 16.521028
57.16074 -57.660646 15.051699
57.595152 -57.212547 15.907932
57.156649 -58.231169 16.212117
70.099292 -42.36305 9.637802
70.087193 -43.080587 10.87668
69.625892 -42.441309 8.798817
70.099292 -42.36305 9.637802
69.095616 -44.011887 10.410875
69.701138 -43.863842 11.23705
69.014225 -43.310289 9.20874
69.095616 -44.011887 10.410875
68.414932 -44.149382 9.619532
68.94521 -42.578804 8.007475
69.625892 -42.441309 8.798817
69.014225 -43.310289 9.20874
68.183132 -42.723327 7.250619
68.7948 -41.854348 6.840696
68.94521 -42.578804 8.007475
60.881456 -62.325422 2.823632
60.56299 -61.26191 2.855824
60.158485 -62.205648 3.814388
61.596876 -62.445362 1.809284
60.881456 -62.325422 2.823632
62.339035 -62.455011 0.808511
62.02812 -61.391333 0.864295
61.596876 -62.445362 1.809284
63.035221 -62.465086 -0.208471
62.339035 -62.455011 0.808511
63.752483 -62.361683 -1.216374
63.487541 -61.297579 -1.144381
63.035221 -62.465086 -0.208471
64.391235 -62.260567 -2.23679
63.752483 -62.361683 -1.216374
63.938915 -63.428074 -1.300879
62.630932 4.47881 -24.135845
63.019509 3.291521 -22.846685
62.233963 5.6417 -25.457605
62.630932 4.47881 -24.135845
62.562184 4.841102 -25.505215
61.713952 7.132569 -28.161398
61.338887 7.924839 -28.101584
61.593426 7.230384 -29.564794
61.713952 7.132569 -28.161398
62.04469 6.101807 -28.230372
61.484448 7.301424 -30.976582
61.153709 8.332187 -30.907609
61.593426 7.230384 -29.564794
63.019894 -15.597407 -19.006358
63.407776 -15.083368 -17.972689
63.141987 -16.619733 -17.840284
63.019894 -15.597407 -19.006358
62.797573 -16.114466 -20.052594
61.828873 -38.64699 -3.822635
62.452194 -37.468592 -4.202459
62.75322 -38.094635 -3.208824
64.875771 -3.95247 -15.424127
65.184078 -4.698045 -15.459884
64.63097 -2.724778 -16.590696
64.875771 -3.95247 -15.424127
64.619561 -2.290062 -17.841059
64.333966 -1.521514 -17.809053
64.63097 -2.724778 -16.590696
62.753948 -23.664477 -20.666244
62.894375 -25.274117 -20.26627
64.771748 -25.673946 -22.554424
65.60429 -26.385351 -23.085318
67.52972 -19.98676 -7.730941
67.538689 -18.952248 -7.661987
67.292603 -21.163981 -7.76537
67.112793 -22.280493 -7.798771
66.959682 -20.11455 -8.638955
67.52972 -19.98676 -7.730941
67.292603 -21.163981 -7.76537
64.201843 -26.80182 -9.34791
63.69094 -28.10136 -9.227484
64.687923 -25.446213 -9.462495
64.201843 -26.80182 -9.34791
63.803844 -25.927869 -10.27634
65.143067 -24.169361 -9.52346
64.687923 -25.446213 -9.462495
64.743741 -23.237167 -10.450852
65.596882 -22.834266 -9.583386
65.143067 -24.169361 -9.52346
62.079431 -36.7813 -5.163539
63.003779 -36.228945 -4.549727
62.452194 -37.468592 -4.202459
62.953525 -26.843266 -19.905952
62.894375 -25.274117 -20.26627
62.400825 -26.184299 -19.228521
63.650463 -27.530215 -20.512413
62.953525 -26.843266 -19.905952
63.156914 -28.440397 -19.474664
64.443199 -28.221583 -21.083273
64.239811 -26.624451 -21.514561
63.650463 -27.530215 -20.512413
67.999817 -31.348279 -22.909081
67.674435 -29.673123 -23.44644
67.149479 -30.496357 -22.502147
68.293216 -33.075697 -22.34073
67.785134 -33.838348 -21.404247
68.603489 -34.742532 -21.780189
67.999817 -31.348279 -22.909081
68.293216 -33.075697 -22.34073
69.493511 -33.241217 -23.649425
69.200111 -31.513799 -24.217776
70.088752 -34.287203 -23.995292
69.493511 -33.241217 -23.649425
69.706813 -35.025868 -23.06254
70.500824 -35.440751 -24.340634
70.287521 -33.656099 -24.927519
70.088752 -34.287203 -23.995292
70.442436 -37.843186 -22.797956
69.952534 -36.744129 -22.472559
70.092915 -38.515461 -21.862108
70.604965 -37.281864 -23.742508
70.442436 -37.843186 -22.797956
70.500824 -35.440751 -24.340634
70.604965 -37.281864 -23.742508
59.789032 -63.046619 4.792148
60.158485 -62.205648 3.814388
59.470565 -61.983107 4.82434
59.789032 -63.046619 4.792148
59.278263 -63.875574 5.786544
58.830223 -64.617245 6.808187
58.252403 -65.333587 7.840641
62.631874 -50.453542 12.960043
61.765141 -51.376743 13.439128
62.557522 -49.816772 11.778427
62.631874 -50.453542 12.960043
61.606757 -50.13026 11.115376
62.461253 -49.190556 10.626701
62.557522 -49.816772 11.778427
59.49885 -54.850065 15.929759
60.243502 -54.466845 16.704581
59.53027 -55.431812 17.117223
59.474522 -54.261742 14.76974
59.49885 -54.850065 15.929759
58.76129 -55.226709 15.182381
59.428696 -53.657229 13.605526
60.166256 -53.280585 14.352904
59.474522 -54.261742 14.76974
69.842846 -40.102665 6.0856
69.417057 -40.947227 6.441021
70.291199 -39.214722 5.74747
69.842846 -40.102665 6.0856
69.72559 -39.296688 4.946361
70.493004 -38.402209 5.452339
70.291199 -39.214722 5.74747
70.409996 -37.548761 4.337656
70.493004 -38.402209 5.452339
70.409996 -37.548761 4.337656
69.980507 -37.572434 3.532566
68.754948 -36.01803 0.713382
69.025779 -36.875194 1.722804
67.905029 -36.206207 0.000807
68.754948 -36.01803 0.713382
66.918689 -36.464844 -0.674284
67.905029 -36.206207 0.000807
67.278149 -37.272903 0.313617
65.889561 -36.782806 -1.340514
66.918689 -36.464844 -0.674284
64.816547 -37.160858 -1.972017
65.889561 -36.782806 -1.340514
65.218795 -37.909592 -0.992976
63.761162 -37.60194 -2.606564
64.816547 -37.160858 -1.972017
63.13784 -38.780338 -2.226739
62.75322 -38.094635 -3.208824
63.761162 -37.60194 -2.606564
64.474395 -64.391171 -2.409488
63.944512 -64.482281 -1.37714
65.129418 -63.121782 -3.347536
64.474395 -64.391171 -2.409488
65.026146 -64.185995 -3.435729
66.214599 -63.451454 -6.552355
66.893513 -61.984335 -7.488159
65.899265 -63.708984 -5.507485
66.214599 -63.451454 -6.552355
66.125015 -62.625097 -5.408507
65.455418 -64.000494 -4.472755
65.899265 -63.708984 -5.507485
67.752876 -56.75326 -9.067379
67.42263 -58.297973 -8.16575
67.90345 -57.836844 -9.19104
66.909359 -51.623424 -10.474463
66.920887 -53.171753 -9.636184
67.539207 -52.626014 -10.638568
66.754971 -50.12002 -11.272184
66.136651 -50.665758 -10.2698
66.909359 -51.623424 -10.474463
66.619919 -48.560046 -12.058809
66.754971 -50.12002 -11.272184
68.510387 -48.307522 -14.250218
67.834164 -47.328287 -14.035652
68.58857 -51.519472 -12.654777
68.969941 -52.584034 -12.849449
68.956245 -47.722938 -15.251328
68.510387 -48.307522 -14.250218
69.44841 -47.094389 -16.232683
68.902916 -46.070287 -16.002561
68.956245 -47.722938 -15.251328
69.784108 -46.536074 -17.234096
69.44841 -47.094389 -16.232683
70.170322 -45.934406 -18.212084
69.781296 -44.84007 -17.961903
69.784108 -46.536074 -17.234096
70.384052 -45.426319 -19.212277
70.170322 -45.934406 -18.212084
70.429237 -43.683343 -19.913788
70.384052 -45.426319 -19.212277
67.441993 -16.931256 -7.50411
67.62025 -17.859686 -7.595415
67.263722 -15.77223 -8.385858
67.441993 -16.931256 -7.50411
66.981171 -14.662627 -9.326398
67.263722 -15.77223 -8.385858
67.077373 -15.642602 -9.411922
66.764492 -13.502174 -10.274477
66.981171 -14.662627 -9.326398
66.47134 -12.387519 -11.286664
66.764492 -13.502174 -10.274477
66.501671 -13.418343 -11.36465
66.224636 -11.224214 -12.306663
66.47134 -12.387519 -11.286664
65.931739 -10.101714 -13.391381
66.224636 -11.224214 -12.306663
65.915622 -11.181188 -13.461555
65.663742 -8.934257 -14.483155
65.931739 -10.101714 -13.391381
65.663742 -8.934257 -14.483155
65.338752 -8.926232 -15.699078
65.09814 -6.629539 -16.794567
65.42313 -6.637564 -15.578643
64.828102 -5.486282 -18.007009
65.09814 -6.629539 -16.794567
64.537937 -4.3098 -19.223988
64.851337 -4.288822 -17.954228
64.828102 -5.486282 -18.007009
64.281635 -3.156891 -20.48514
64.537937 -4.3098 -19.223988
64.2584 -4.35435 -20.537922
62.359948 -23.033463 -19.909489
62.753948 -23.664477 -20.666244
63.380188 -9.325909 -22.902703
63.36858 -10.413153 -21.659168
63.460293 -7.763058 -23.028677
63.380188 -9.325909 -22.902703
63.693108 -7.407049 -21.794911
63.460293 -7.763058 -23.028677
63.433262 -5.15493 -24.35297
63.369896 -4.02461 -25.646258
63.666077 -4.798922 -23.119204
63.433262 -5.15493 -24.35297
63.747132 -3.431167 -23.103115
63.921044 -4.569195 -21.815162
63.666077 -4.798922 -23.119204
62.705093 2.573358 -28.376556
62.893859 1.171753 -28.360934
62.608596 2.3156 -29.697239
62.547956 3.818554 -28.333754
62.833219 2.674707 -26.997448
62.705093 2.573358 -28.376556
62.171997 4.958413 -29.673315
62.300123 5.059762 -28.294207
62.547956 3.818554 -28.333754
61.831135 6.074237 -31.013005
62.171997 4.958413 -29.673315
61.484448 7.301424 -30.976582
61.831135 6.074237 -31.013005
3 0 68 66
3 267 70 268
3 2 73 71
3 2 269 271
3 271 270 73
3 269 270 271
3 272 75 273
3 275 274 75
3 3 276 278
3 278 277 77
3 276 277 278
3 3 279 281
3 279 79 280
3 279 280 281
3 1 282 284
3 284 283 80
3 282 283 284
3 4 84 82
3 6 87 85
3 6 89 87
3 286 285 90
3 8 93 91
3 8 95 93
3 5 98 96
3 9 101 99
3 9 103 101
3 9 105 103
3 10 287 288
3 10 289 290
3 11 109 107
3 291 111 292
3 291 292 293
3 296 295 111
3 294 295 296
3 11 114 112
3 11 107 114
3 14 118 116
3 14 120 118
3 14 122 120
3 13 125 123
3 13 127 125
3 12 130 128
3 15 133 131
3 15 135 133
3 297 138 298
3 299 298 137
3 297 298 299
3 301 300 138
3 7 141 139
3 302 143 303
3 304 144 305
3 306 305 143
3 304 305 306
3 16 148 146
3 18 149 67
3 18 150 149
3 308 307 151
3 19 152 69
3 19 153 152
3 20 156 154
3 22 157 72
3 22 158 157
3 22 160 158
3 24 309 311
3 311 310 74
3 309 310 311
3 24 312 314
3 312 161 313
3 312 313 314
3 25 315 317
3 317 316 162
3 315 316 317
3 25 318 320
3 318 165 319
3 318 319 320
3 25 162 165
3 321 166 322
3 28 323 325
3 323 167 324
3 323 324 325
3 28 168 167
3 28 170 168
3 326 171 327
3 328 327 76
3 326 327 328
3 329 172 330
3 331 330 171
3 329 330 331
3 332 174 333
3 31 334 336
3 336 335 78
3 334 335 336
3 31 337 339
3 337 175 338
3 337 338 339
3 32 178 176
3 340 179 341
3 342 341 81
3 340 341 342
3 344 343 179
3 34 182 180
3 36 183 83
3 36 184 183
3 17 185 147
3 37 186 86
3 37 187 186
3 37 188 187
3 38 189 88
3 38 190 189
3 39 345 347
3 345 191 346
3 345 346 347
3 39 192 191
3 40 348 349
3 350 193 351
3 352 194 353
3 354 353 193
3 352 353 354
3 42 195 92
3 42 196 195
3 42 197 196
3 43 198 94
3 43 199 198
3 35 200 181
3 44 201 97
3 44 202 201
3 21 203 155
3 45 204 100
3 45 205 204
3 45 206 205
3 46 207 102
3 46 208 207
3 46 209 208
3 47 210 104
3 47 211 210
3 23 212 159
3 48 213 106
3 48 355 357
3 357 356 213
3 355 356 357
3 48 358 360
3 358 214 359
3 358 359 360
3 49 217 215
3 51 218 108
3 51 219 218
3 26 220 163
3 52 221 110
3 52 222 221
3 52 361 363
3 363 362 222
3 361 362 363
3 53 364 366
3 364 223 365
3 364 365 366
3 53 224 223
3 27 225 164
3 54 226 113
3 54 227 226
3 54 228 227
3 49 229 115
3 49 215 229
3 56 231 117
3 56 367 369
3 369 368 231
3 367 368 369
3 56 370 372
3 370 232 371
3 370 371 372
3 57 233 119
3 57 234 233
3 57 235 234
3 58 236 121
3 58 237 236
3 29 238 169
3 59 239 124
3 59 240 239
3 59 241 240
3 55 242 126
3 55 230 242
3 50 243 216
3 60 244 129
3 60 245 244
3 30 246 173
3 61 247 132
3 61 248 247
3 61 249 248
3 62 250 134
3 62 251 250
3 373 252 374
3 375 253 376
3 377 254 378
3 379 378 253
3 377 378 379
3 380 255 381
3 382 381 254
3 380 381 382
3 63 256 136
3 63 383 385
3 385 384 256
3 383 384 385
3 63 386 387
3 41 388 390
3 388 257 389
3 388 389 390
3 64 258 140
3 64 259 258
3 33 260 177
3 391 261 392
3 393 392 142
3 391 392 393
3 394 262 395
3 396 395 261
3 394 395 396
3 398 397 262
3 399 263 400
3 65 401 403
3 401 264 402
3 401 402 403
3 65 265 264
3 65 266 265
3 405 404 145
3 66 67 16
3 68 67 66
3 68 18 67
3 406 69 407
3 70 408 410
3 408 69 409
3 408 409 410
3 70 19 69
3 71 72 20
3 73 72 71
3 73 22 72
3 73 74 22
3 411 74 412
3 413 412 73
3 411 412 413
3 414 24 415
3 416 415 74
3 414 415 416
3 418 417 25
3 419 25 420
3 75 421 422
3 75 423 425
3 423 28 424
3 423 424 425
3 75 76 28
3 426 76 427
3 428 427 75
3 426 427 428
3 430 429 76
3 77 431 432
3 434 433 77
3 435 78 436
3 79 437 439
3 437 78 438
3 437 438 439
3 79 31 78
3 80 81 32
3 440 81 441
3 442 441 80
3 440 441 442
3 444 443 81
3 82 83 34
3 84 83 82
3 84 36 83
3 85 86 17
3 87 86 85
3 87 37 86
3 87 88 37
3 89 88 87
3 89 38 88
3 445 39 446
3 90 447 449
3 449 448 40
3 447 448 449
3 451 450 90
3 91 452 454
3 452 92 453
3 452 453 454
3 93 92 91
3 93 42 92
3 93 94 42
3 95 94 93
3 95 43 94
3 96 97 35
3 98 97 96
3 98 44 97
3 99 100 21
3 101 100 99
3 101 45 100
3 101 102 45
3 103 102 101
3 103 46 102
3 103 104 46
3 105 104 103
3 105 47 104
3 455 106 456
3 457 456 23
3 455 456 457
3 458 106 459
3 460 48 461
3 462 461 106
3 460 461 462
3 464 463 48
3 107 108 49
3 109 108 107
3 109 51 108
3 465 110 466
3 467 466 26
3 465 466 467
3 468 110 469
3 470 52 471
3 472 471 110
3 470 471 472
3 474 473 52
3 111 475 476
3 111 477 479
3 477 478 479
3 111 480 481
3 483 482 111
3 484 53 485
3 112 113 27
3 114 113 112
3 114 54 113
3 114 115 54
3 107 115 114
3 107 49 115
3 116 486 488
3 486 117 487
3 486 487 488
3 118 117 116
3 118 56 117
3 118 119 56
3 120 119 118
3 120 57 119
3 120 121 57
3 122 121 120
3 122 58 121
3 123 124 29
3 125 124 123
3 125 59 124
3 125 126 59
3 127 126 125
3 127 55 126
3 128 129 50
3 130 129 128
3 130 60 129
3 131 132 30
3 133 132 131
3 133 61 132
3 133 134 61
3 135 134 133
3 135 62 134
3 489 136 490
3 491 136 492
3 493 63 494
3 495 494 136
3 493 494 495
3 497 496 63
3 137 498 500
3 498 499 500
3 138 501 503
3 503 502 137
3 501 502 503
3 138 504 505
3 138 506 507
3 509 508 138
3 139 140 41
3 141 140 139
3 141 64 140
3 510 142 511
3 512 511 33
3 510 511 512
3 143 513 515
3 513 142 514
3 513 514 515
3 143 516 518
3 518 517 142
3 516 517 518
3 143 519 520
3 144 521 523
3 523 522 143
3 521 522 523
3 144 524 525
3 526 65 527
3 528 145 529
3 530 529 65
3 528 529 530
3 531 145 532
3 534 533 145
3 146 147 4
3 148 147 146
3 148 17 147
3 67 148 16
3 149 148 67
3 149 17 148
3 149 85 17
3 150 85 149
3 150 6 85
3 151 535 536
3 538 537 151
3 69 539 540
3 152 541 543
3 543 542 69
3 541 542 543
3 152 544 545
3 152 546 548
3 546 91 547
3 546 547 548
3 153 91 152
3 153 8 91
3 154 155 5
3 156 155 154
3 156 21 155
3 72 156 20
3 157 156 72
3 157 21 156
3 157 99 21
3 158 99 157
3 158 9 99
3 158 159 9
3 160 159 158
3 160 23 159
3 74 160 22
3 549 160 550
3 551 550 74
3 549 550 551
3 552 23 553
3 554 553 160
3 552 553 554
3 556 555 23
3 161 557 558
3 161 559 561
3 559 10 560
3 559 560 561
3 162 163 11
3 562 163 563
3 564 563 162
3 562 563 564
3 565 26 566
3 567 566 163
3 565 566 567
3 569 568 25
3 570 26 571
3 573 572 26
3 574 164 575
3 576 164 577
3 578 27 579
3 580 579 164
3 578 579 580
3 165 581 582
3 165 583 585
3 583 27 584
3 583 584 585
3 165 112 27
3 162 112 165
3 162 11 112
3 166 586 587
3 166 588 589
3 590 166 591
3 167 592 594
3 592 166 593
3 592 593 594
3 167 595 597
3 597 596 166
3 595 596 597
3 167 598 600
3 598 116 599
3 598 599 600
3 168 116 167
3 168 14 116
3 168 169 14
3 170 169 168
3 170 29 169
3 76 170 28
3 171 170 76
3 171 29 170
3 171 123 29
3 172 123 171
3 172 13 123
3 601 173 602
3 603 602 12
3 601 602 603
3 604 173 605
3 606 30 607
3 608 607 173
3 606 607 608
3 609 30 610
3 611 131 612
3 613 612 30
3 611 612 613
3 174 614 616
3 614 131 615
3 614 615 616
3 174 15 131
3 78 617 618
3 621 620 78
3 619 620 621
3 622 137 623
3 175 624 626
3 624 137 625
3 624 625 626
3 175 627 629
3 629 628 137
3 627 628 629
3 176 177 7
3 178 177 176
3 178 33 177
3 81 178 32
3 179 178 81
3 179 33 178
3 179 630 632
3 632 631 33
3 630 631 632
3 634 633 179
3 180 635 637
3 635 181 636
3 635 636 637
3 182 181 180
3 182 35 181
3 83 182 34
3 183 182 83
3 183 35 182
3 183 96 35
3 184 96 183
3 184 5 96
3 147 84 4
3 185 84 147
3 185 36 84
3 86 185 17
3 186 185 86
3 186 36 185
3 186 184 36
3 187 184 186
3 187 5 184
3 187 154 5
3 188 154 187
3 188 20 154
3 88 188 37
3 189 188 88
3 189 20 188
3 189 71 20
3 190 71 189
3 190 2 71
3 191 638 639
3 191 640 641
3 191 642 644
3 642 77 643
3 642 643 644
3 192 77 191
3 192 3 77
3 646 645 1
3 648 647 40
3 649 41 650
3 193 651 652
3 193 653 655
3 653 41 654
3 653 654 655
3 193 139 41
3 194 139 193
3 194 7 139
3 92 656 657
3 195 658 660
3 660 659 92
3 658 659 660
3 195 661 662
3 195 663 665
3 663 194 664
3 663 664 665
3 196 194 195
3 196 7 194
3 196 176 7
3 197 176 196
3 197 32 176
3 94 197 42
3 198 197 94
3 198 32 197
3 198 80 32
3 199 80 198
3 199 1 80
3 181 666 668
3 666 70 667
3 666 667 668
3 200 70 181
3 200 19 70
3 97 200 35
3 201 200 97
3 201 19 200
3 201 153 19
3 202 153 201
3 202 8 153
3 155 98 5
3 203 98 155
3 203 44 98
3 100 203 21
3 204 203 100
3 204 44 203
3 204 202 44
3 205 202 204
3 205 8 202
3 205 95 8
3 206 95 205
3 206 43 95
3 102 206 45
3 207 206 102
3 207 43 206
3 207 199 43
3 208 199 207
3 208 1 199
3 208 669 671
3 671 670 1
3 669 670 671
3 209 672 674
3 674 673 208
3 672 673 674
3 209 675 677
3 675 40 676
3 675 676 677
3 104 209 46
3 210 209 104
3 210 40 209
3 210 90 40
3 211 90 210
3 211 678 680
3 680 679 90
3 678 679 680
3 159 105 9
3 212 105 159
3 212 47 105
3 106 212 23
3 213 212 106
3 213 47 212
3 213 211 47
3 681 211 682
3 683 682 213
3 681 682 683
3 685 684 211
3 686 151 687
3 214 688 690
3 688 151 689
3 688 689 690
3 214 691 693
3 693 692 151
3 691 692 693
3 694 214 695
3 696 695 48
3 694 695 696
3 697 214 698
3 700 699 214
3 215 216 0
3 217 216 215
3 217 50 216
3 108 217 49
3 218 217 108
3 218 50 217
3 218 128 50
3 219 128 218
3 219 12 128
3 163 109 11
3 220 109 163
3 220 51 109
3 110 220 26
3 221 220 110
3 221 51 220
3 221 219 51
3 222 219 221
3 222 12 219
3 222 701 703
3 703 702 12
3 701 702 703
3 705 704 222
3 707 706 52
3 223 708 709
3 223 710 711
3 223 712 714
3 712 172 713
3 712 713 714
3 224 172 223
3 224 13 172
3 164 715 717
3 715 716 717
3 225 718 720
3 720 719 164
3 718 719 720
3 225 721 723
3 721 53 722
3 721 722 723
3 113 225 27
3 226 225 113
3 226 53 225
3 226 224 53
3 227 224 226
3 227 13 224
3 227 127 13
3 228 127 227
3 228 55 127
3 115 228 54
3 229 228 115
3 229 55 228
3 229 230 55
3 215 230 229
3 215 0 230
3 117 724 725
3 231 726 728
3 728 727 117
3 726 727 728
3 231 729 730
3 231 731 732
3 734 733 231
3 232 735 736
3 232 737 738
3 119 232 56
3 233 232 119
3 233 739 741
3 741 740 232
3 739 740 741
3 233 742 743
3 234 744 746
3 746 745 233
3 744 745 746
3 234 747 748
3 234 749 751
3 749 180 750
3 749 750 751
3 235 180 234
3 235 34 180
3 121 235 57
3 236 235 121
3 236 34 235
3 236 82 34
3 237 82 236
3 237 4 82
3 169 122 14
3 238 122 169
3 238 58 122
3 124 238 29
3 239 238 124
3 239 58 238
3 239 237 58
3 240 237 239
3 240 4 237
3 240 146 4
3 241 146 240
3 241 16 146
3 126 241 59
3 242 241 126
3 242 16 241
3 242 66 16
3 230 66 242
3 230 0 66
3 216 68 0
3 243 68 216
3 243 18 68
3 129 243 50
3 244 243 129
3 244 18 243
3 244 150 18
3 245 150 244
3 245 6 150
3 173 130 12
3 246 130 173
3 246 60 130
3 132 246 30
3 247 246 132
3 247 60 246
3 247 245 60
3 248 245 247
3 248 6 245
3 248 89 6
3 249 89 248
3 249 38 89
3 134 249 61
3 250 249 134
3 250 38 249
3 250 190 38
3 251 190 250
3 251 2 190
3 752 174 753
3 252 754 756
3 754 174 755
3 754 755 756
3 252 15 174
3 253 757 758
3 253 759 760
3 253 761 763
3 761 252 762
3 761 762 763
3 254 252 253
3 254 15 252
3 254 135 15
3 255 135 254
3 255 62 135
3 136 764 766
3 764 255 765
3 764 765 766
3 256 255 136
3 256 62 255
3 256 251 62
3 767 251 768
3 769 768 256
3 767 768 769
3 770 2 771
3 772 771 251
3 770 771 772
3 774 773 2
3 775 24 776
3 778 777 63
3 779 24 780
3 781 161 782
3 783 782 24
3 781 782 783
3 784 161 785
3 786 10 787
3 788 787 161
3 786 787 788
3 789 10 790
3 792 791 10
3 257 793 794
3 257 795 796
3 140 257 41
3 258 257 140
3 258 797 799
3 799 798 257
3 797 798 799
3 258 800 801
3 259 802 804
3 804 803 258
3 802 803 804
3 259 805 806
3 177 141 7
3 260 141 177
3 260 64 141
3 142 260 33
3 261 260 142
3 261 64 260
3 261 259 64
3 262 259 261
3 262 807 809
3 809 808 259
3 807 808 809
3 262 810 811
3 813 812 262
3 814 39 815
3 816 39 817
3 818 192 819
3 820 819 39
3 818 819 820
3 263 821 823
3 821 192 822
3 821 822 823
3 263 3 192
3 825 824 1
3 826 144 827
3 828 144 829
3 831 830 144
3 264 832 833
3 264 834 835
3 264 836 838
3 836 263 837
3 836 837 838
3 265 263 264
3 265 3 263
3 265 79 3
3 266 79 265
3 266 31 79
3 145 266 65
3 839 266 840
3 841 840 145
3 839 840 841
3 842 31 843
3 844 843 266
3 842 843 844
3 845 175 846
3 847 846 31
3 845 846 847
3 848 175 849
3 851 850 175
