ply
format ascii 1.0
element vertex 347
property float x
property float y
property float z
element face 295
property list uchar int vertex_index
end_header
2.688457 34.248611 -29.277363
0.115778 69.983734 -29.817879
-1.18479 40.450409 -33.002716
-2.257914 19.18018 -28.632885
2.193407 53.746761 -32.191376
-12.691938 42.033298 -32.146896
1.16543 37.729015 -31.815128
-1.395979 30.22887 -30.842606
0.845982 26.91135 -29.468475
-1.804882 76.73317 -26.795479
-2.931692 71.44133 -30.638382
-0.881121 64.389847 -32.993835
0.400566 56.405552 -33.99649
1.394388 62.238316 -31.679756
-9.915268 49.851917 -32.723759
1.047157 47.551693 -33.540833
2.594971 44.470856 -31.281952
2.010839 36.060661 -30.720894
1.056538 32.435429 -30.662239
1.918493 30.659111 -29.542294
-2.263905 74.258835 -28.957314
-1.16083 70.939316 -30.455956
-0.258581 67.336823 -31.665176
0.467056 63.4995 -32.558445
0.8225 66.212265 -30.906223
-1.742285 24.777267 -29.688919
-3.583618 20.862389 -28.983982
1.513535 19.258785 -27.330284
-12.402924 49.262905 -31.942829
-11.107119 53.153217 -32.070045
1.464918 55.216747 -33.307117
0.79631 52.091961 -33.948784
1.764599 50.774784 -33.136276
1.946867 46.113552 -32.612999
2.439232 49.216976 -31.90659
0.10648 39.207642 -32.562283
-1.210829 35.46701 -31.985031
0.021528 34.052757 -31.465839
-0.194881 28.655914 -30.283848
-0.543606 23.063526 -29.1353
-3.591421 77.231735 -27.19939
-4.294033 74.524994 -29.025089
-5.172291 71.481781 -30.38409
-3.795532 68.31366 -31.838612
-0.153492 60.504551 -33.675175
1.036425 59.456226 -33.112019
1.847872 58.082653 -32.114391
0.5327 21.209332 -28.355816
-11.289663 45.936611 -32.443413
-7.339878 64.586578 -31.850601
-8.557993 60.860836 -32.100204
-9.821453 57.032627 -32.144962
-8.565392 53.747334 -32.950989
-7.565754 50.23357 -33.38665
-1.321341 45.162533 -33.794849
-0.498903 53.111942 -34.362381
-0.143183 48.731274 -34.08223
0.054691 44.100449 -33.463223
1.165987 42.768185 -32.807384
2.024378 41.213291 -31.781368
2.67326 39.485641 -30.374378
2.345711 56.452869 -30.698826
2.655136 52.061031 -30.663704
2.891411 47.47765 -30.276058
3.062805 42.675514 -29.570026
3.181835 37.631119 -28.617043
-0.522526 70.461525 -30.136918
-0.955406 72.225174 -29.447662
-0.317101 71.747383 -29.128624
-1.912891 38.544041 -32.640836
-1.94281 40.934054 -33.101036
-3.278918 17.254888 -28.343117
-3.94177 18.095993 -28.518666
-2.920766 20.021285 -28.808433
-11.836686 54.695545 -31.575389
-12.448831 52.761223 -31.58024
-13.413749 40.103537 -31.997034
-13.860332 41.803024 -31.906187
-2.698151 76.982452 -26.997435
-3.33511 78.403793 -26.056415
-2.441841 78.154511 -25.85446
-1.76892 64.628601 -32.994071
-1.340778 66.218132 -32.483151
-1.310329 62.783007 -33.404415
-1.76892 64.628601 -32.994071
-0.517307 62.447199 -33.334505
-0.946514 60.840359 -33.745085
-1.310329 62.783007 -33.404415
-2.080484 30.909551 -31.019865
-1.987909 33.528621 -31.591077
-1.303404 32.84794 -31.413818
0.319052 18.31033 -27.889606
1.023118 20.234058 -27.84305
0.80947 17.335056 -27.376841
-0.250303 19.279554 -28.241354
0.319052 18.31033 -27.889606
-9.450857 48.084644 -32.85969
-10.138054 46.126991 -32.719517
-10.602465 47.894264 -32.583586
-6.084022 64.75547 -32.2227
-6.769522 66.367652 -31.578205
-7.903996 59.224163 -32.581136
-7.275383 61.095455 -32.537048
-8.535726 57.310058 -32.603516
-9.189723 58.946731 -32.122583
-7.903996 59.224163 -32.581136
-7.907696 55.667412 -33.006529
-9.193423 55.389981 -32.547975
-8.535726 57.310058 -32.603516
-6.472069 50.290283 -33.638916
-6.879996 52.15997 -33.527788
-7.189209 48.353653 -33.408992
-6.472069 50.290283 -33.638916
-1.474905 47.384045 -34.039459
-2.134032 45.540474 -33.829595
-0.049169 54.758747 -34.179435
-0.762427 55.184513 -34.318737
-0.312693 56.831318 -34.135791
2.302388 57.670406 -29.698681
2.152105 58.563789 -30.538578
2.802015 51.141338 -29.716845
2.642809 53.349926 -29.786219
2.920153 48.849648 -29.523021
2.773274 49.76934 -30.469881
2.802015 51.141338 -29.716845
3.250835 41.723217 -28.553554
3.139378 44.142084 -28.933301
3.310351 39.20102 -28.077063
3.12232 40.153317 -29.093534
3.250835 41.723217 -28.553554
3.405653 36.659931 -27.596594
3.310351 39.20102 -28.077063
-12.328694 40.234121 -32.127338
-11.571048 42.202909 -32.351928
-1.506943 73.884934 -28.698341
-2.034394 75.496003 -27.876396
-1.277432 75.122101 -27.617424
-1.712368 72.599075 -29.706635
-1.506943 73.884934 -28.698341
-0.955406 72.225174 -29.447662
-1.480632 69.492867 -31.214211
-2.366063 69.743874 -31.305424
-2.046261 71.190323 -30.547169
-1.029508 67.69162 -31.818821
-1.480632 69.492867 -31.214211
-0.709705 69.13807 -31.060566
-0.569851 65.863335 -32.329505
-1.340778 66.218132 -32.483151
-1.029508 67.69162 -31.818821
-2.409274 25.544195 -29.87569
-2.236121 28.269996 -30.452534
-1.569132 27.503068 -30.265763
-3.329941 23.586756 -29.523222
-2.409274 25.544195 -29.87569
-2.662952 22.819828 -29.33645
-4.298555 21.612339 -29.110661
-3.329941 23.586756 -29.523222
-4.650311 18.921326 -28.627482
-4.298555 21.612339 -29.110661
-4.650311 18.921326 -28.627482
-3.94177 18.095993 -28.518666
1.972884 18.260809 -26.697496
2.041742 21.170457 -27.167598
1.347301 16.335735 -26.91506
1.972884 18.260809 -26.697496
0.80947 17.335056 -27.376841
1.347301 16.335735 -26.91506
-13.096733 50.816067 -31.516632
-13.705967 48.89671 -31.520384
-11.755022 51.208061 -32.006437
-13.096733 50.816067 -31.516632
-12.448831 52.761223 -31.58024
-13.413749 40.103537 -31.997034
-12.328694 40.234121 -32.127338
-4.375396 78.5093 -26.20829
-4.119086 79.681358 -25.065315
-3.33511 78.403793 -26.056415
-4.745607 77.23407 -27.185555
-4.375396 78.5093 -26.20829
-5.096913 75.880699 -28.098404
-4.745607 77.23407 -27.185555
-3.942727 75.878365 -28.11224
-5.545467 74.424706 -28.850065
-5.096913 75.880699 -28.098404
-5.984597 72.903099 -29.529566
-5.545467 74.424706 -28.850065
-4.733162 73.003388 -29.70459
-6.497542 71.285911 -30.066025
-7.309848 72.707229 -29.2115
-5.984597 72.903099 -29.529566
-5.685729 69.815254 -30.844949
-6.497542 71.285911 -30.066025
-4.99735 68.231193 -31.572211
-5.685729 69.815254 -30.844949
-4.483912 69.89772 -31.111351
-4.31185 66.619011 -32.216706
-4.99735 68.231193 -31.572211
-2.797983 68.180038 -31.905539
-3.363612 69.877495 -31.238497
-2.366063 69.743874 -31.305424
-3.226126 66.590508 -32.41646
-2.797983 68.180038 -31.905539
-4.31185 66.619011 -32.216706
-3.226126 66.590508 -32.41646
-0.589722 58.880817 -33.975134
-0.946514 60.840359 -33.745085
0.123537 58.455051 -33.835833
-0.312693 56.831318 -34.135791
-0.589722 58.880817 -33.975134
2.670523 31.508328 -28.694502
2.975447 33.292248 -28.399954
-1.676934 77.792595 -25.49299
-2.441841 78.154511 -25.85446
-1.181636 76.238663 -26.376556
-1.676934 77.792595 -25.49299
-1.277432 75.122101 -27.617424
-1.181636 76.238663 -26.376556
0.185223 71.147568 -28.650799
-0.317101 71.747383 -29.128624
0.521516 69.303985 -29.281641
0.185223 71.147568 -28.650799
-1.925911 36.052341 -32.131994
-1.912891 38.544041 -32.640836
-1.197809 37.958709 -32.493873
-1.925911 36.052341 -32.131994
-1.987909 33.528621 -31.591077
-2.080484 30.909551 -31.019865
-2.236121 28.269996 -30.452534
2.285541 29.713577 -28.826967
2.303475 32.453861 -29.409828
2.670523 31.508328 -28.694502
1.836191 27.848634 -28.957361
2.285541 29.713577 -28.826967
1.299936 25.974754 -28.920452
1.382238 28.78523 -29.505384
1.836191 27.848634 -28.957361
1.633712 22.148471 -27.851357
2.041742 21.170457 -27.167598
1.143295 23.123745 -28.364123
1.633712 22.148471 -27.851357
1.023118 20.234058 -27.84305
0.689341 24.060341 -28.912146
1.299936 25.974754 -28.920452
1.143295 23.123745 -28.364123
-0.788456 20.206651 -28.631096
-0.005453 22.136429 -28.745558
-0.250303 19.279554 -28.241354
-1.64561 18.264978 -28.379888
-1.40076 21.121853 -28.884093
-0.788456 20.206651 -28.631096
-2.607327 16.354485 -28.195534
-1.64561 18.264978 -28.379888
-3.278918 17.254888 -28.343117
-2.607327 16.354485 -28.195534
-13.199775 43.713459 -31.975463
-13.860332 41.803024 -31.906187
-13.055267 47.328263 -31.87343
-13.705967 48.89671 -31.520384
-12.498637 45.665115 -32.123722
-13.055267 47.328263 -31.87343
-11.846293 47.599758 -32.193121
-11.9908 43.984955 -32.295154
-13.199775 43.713459 -31.975463
-12.498637 45.665115 -32.123722
-10.869911 44.154566 -32.500187
-11.571048 42.202909 -32.351928
-11.9908 43.984955 -32.295154
-10.869911 44.154566 -32.500187
-10.138054 46.126991 -32.719517
-8.141834 66.089989 -31.146961
-6.769522 66.367652 -31.578205
-8.732985 64.246328 -31.344284
-8.141834 66.089989 -31.146961
-6.666325 62.958326 -32.412247
-6.084022 64.75547 -32.2227
-7.948935 62.723707 -31.975403
-6.666325 62.958326 -32.412247
-7.275383 61.095455 -32.537048
-9.342042 62.383457 -31.469085
-8.732985 64.246328 -31.344284
-7.948935 62.723707 -31.975403
-9.949317 60.480393 -31.560644
-9.342042 62.383457 -31.469085
-10.581047 58.566288 -31.583023
-9.949317 60.480393 -31.560644
-9.189723 58.946731 -32.122583
-11.193853 56.63525 -31.612848
-10.581047 58.566288 -31.583023
-10.464286 55.092922 -32.107503
-11.836686 54.695545 -31.575389
-11.193853 56.63525 -31.612848
-7.379815 53.916851 -33.309957
-7.907696 55.667412 -33.006529
-8.065573 51.990452 -33.168819
-7.379815 53.916851 -33.309957
-6.879996 52.15997 -33.527788
-8.2761 48.27547 -33.191136
-9.450857 48.084644 -32.85969
-8.740511 50.042744 -33.055205
-8.2761 48.27547 -33.191136
-7.189209 48.353653 -33.408992
-2.011086 43.290115 -33.497102
-2.134032 45.540474 -33.829595
-1.253065 42.806471 -33.398782
-1.94281 40.934054 -33.101036
-2.011086 43.290115 -33.497102
-1.308288 53.452026 -34.391432
-0.762427 55.184513 -34.318737
-1.063686 51.358749 -34.323225
-1.308288 53.452026 -34.391432
-0.885826 49.168415 -34.183149
-1.063686 51.358749 -34.323225
-0.321043 50.921608 -34.222306
-0.732262 46.946904 -33.93854
-1.474905 47.384045 -34.039459
-0.885826 49.168415 -34.183149
0.874877 67.418251 -29.825813
0.469139 68.098 -30.362051
0.521516 69.303985 -29.281641
1.155694 65.473656 -30.312536
0.874877 67.418251 -29.825813
1.441638 63.486681 -30.699303
1.108444 64.22529 -31.29299
1.155694 65.473656 -30.312536
1.676443 61.456513 -31.029043
1.441638 63.486681 -30.699303
1.903185 59.378681 -31.24636
1.62113 60.160484 -31.897073
1.676443 61.456513 -31.029043
2.096792 57.267761 -31.406608
1.903185 59.378681 -31.24636
2.152105 58.563789 -30.538578
2.488097 55.545845 -29.80378
2.302388 57.670406 -29.698681
2.500424 54.25695 -30.681265
2.488097 55.545845 -29.80378
2.642809 53.349926 -29.786219
3.053681 46.543152 -29.286317
2.920153 48.849648 -29.523021
2.977108 45.076582 -29.923042
3.053681 46.543152 -29.286317
3.139378 44.142084 -28.933301
3.222136 34.983502 -28.069794
2.975447 33.292248 -28.399954
2.935146 35.939865 -28.947203
3.222136 34.983502 -28.069794
3.405653 36.659931 -27.596594
3 0 19 17
3 1 66 68
3 66 21 67
3 66 67 68
3 1 22 21
3 1 24 22
3 2 69 70
3 3 26 25
3 3 71 73
3 73 72 26
3 71 72 73
3 74 29 75
3 4 32 30
3 4 34 32
3 5 76 77
3 6 37 35
3 8 38 18
3 8 39 38
3 9 78 80
3 78 40 79
3 78 79 80
3 10 41 20
3 10 42 41
3 10 43 42
3 11 81 82
3 11 83 84
3 11 85 87
3 85 44 86
3 85 86 87
3 13 45 23
3 13 46 45
3 7 88 90
3 90 89 36
3 88 89 90
3 91 47 92
3 93 92 27
3 91 92 93
3 95 94 47
3 14 48 28
3 14 96 98
3 98 97 48
3 96 97 98
3 99 49 100
3 101 50 102
3 103 51 104
3 105 104 50
3 103 104 105
3 106 52 107
3 108 107 51
3 106 107 108
3 109 53 110
3 112 111 53
3 113 54 114
3 12 115 117
3 115 55 116
3 115 116 117
3 15 56 31
3 15 57 56
3 15 58 57
3 16 59 33
3 16 60 59
3 118 61 119
3 120 62 121
3 122 63 123
3 124 123 62
3 122 123 124
3 125 64 126
3 127 65 128
3 129 128 64
3 127 128 129
3 131 130 65
3 133 132 5
3 17 18 6
3 19 18 17
3 19 8 18
3 134 20 135
3 136 135 9
3 134 135 136
3 21 137 139
3 137 20 138
3 137 138 139
3 21 10 20
3 21 140 142
3 142 141 10
3 140 141 142
3 22 143 145
3 145 144 21
3 143 144 145
3 22 146 148
3 146 11 147
3 146 147 148
3 22 23 11
3 24 23 22
3 24 13 23
3 25 149 151
3 151 150 7
3 149 150 151
3 26 152 154
3 154 153 25
3 152 153 154
3 26 155 156
3 26 157 158
3 160 159 26
3 161 27 162
3 163 27 164
3 166 165 27
3 167 28 168
3 29 169 171
3 169 28 170
3 169 170 171
3 29 14 28
3 30 31 12
3 32 31 30
3 32 15 31
3 32 33 15
3 34 33 32
3 34 16 33
3 173 172 5
3 35 36 2
3 37 36 35
3 37 7 36
3 18 37 6
3 38 37 18
3 38 7 37
3 38 25 7
3 39 25 38
3 39 3 25
3 40 174 176
3 174 175 176
3 40 177 178
3 20 40 9
3 41 40 20
3 41 179 181
3 181 180 40
3 179 180 181
3 41 182 183
3 42 184 186
3 186 185 41
3 184 185 186
3 42 187 189
3 187 188 189
3 42 190 191
3 43 192 194
3 194 193 42
3 192 193 194
3 43 195 196
3 197 43 198
3 199 198 10
3 197 198 199
3 200 43 201
3 203 202 43
3 44 204 205
3 44 206 208
3 206 12 207
3 206 207 208
3 23 44 11
3 45 44 23
3 45 12 44
3 45 30 12
3 46 30 45
3 46 4 30
3 210 209 0
3 211 9 212
3 213 9 214
3 216 215 9
3 217 1 218
3 220 219 1
3 36 221 223
3 223 222 2
3 221 222 223
3 225 224 36
3 227 226 7
3 228 19 229
3 230 229 0
3 228 229 230
3 231 19 232
3 233 8 234
3 235 234 19
3 233 234 235
3 27 236 237
3 47 238 240
3 240 239 27
3 238 239 240
3 47 241 243
3 241 8 242
3 241 242 243
3 47 39 8
3 244 39 245
3 246 245 47
3 244 245 246
3 247 3 248
3 249 248 39
3 247 248 249
3 250 3 251
3 253 252 3
3 254 5 255
3 28 256 257
3 48 258 260
3 260 259 28
3 258 259 260
3 48 261 263
3 261 5 262
3 261 262 263
3 48 264 266
3 266 265 5
3 264 265 266
3 268 267 48
3 49 269 270
3 49 271 272
3 273 49 274
3 50 275 277
3 275 49 276
3 275 276 277
3 50 278 280
3 280 279 49
3 278 279 280
3 50 281 282
3 51 283 285
3 285 284 50
3 283 284 285
3 51 286 287
3 51 288 290
3 288 29 289
3 288 289 290
3 52 29 51
3 52 14 29
3 291 52 292
3 53 293 295
3 293 52 294
3 293 294 295
3 53 14 52
3 53 296 298
3 298 297 14
3 296 297 298
3 300 299 53
3 54 301 302
3 54 303 305
3 303 2 304
3 303 304 305
3 55 306 307
3 55 308 309
3 31 55 12
3 56 55 31
3 56 310 312
3 312 311 55
3 310 311 312
3 56 313 315
3 313 54 314
3 313 314 315
3 57 54 56
3 57 2 54
3 57 35 2
3 58 35 57
3 58 6 35
3 33 58 15
3 59 58 33
3 59 6 58
3 59 17 6
3 60 17 59
3 60 0 17
3 316 24 317
3 318 317 1
3 316 317 318
3 319 24 320
3 321 13 322
3 323 322 24
3 321 322 323
3 324 13 325
3 326 46 327
3 328 327 13
3 326 327 328
3 61 329 331
3 329 46 330
3 329 330 331
3 61 4 46
3 332 61 333
3 62 334 336
3 334 61 335
3 334 335 336
3 62 4 61
3 62 34 4
3 63 34 62
3 63 16 34
3 337 63 338
3 64 339 341
3 339 63 340
3 339 340 341
3 64 16 63
3 64 60 16
3 65 60 64
3 65 0 60
3 65 342 344
3 344 343 0
3 342 343 344
3 346 345 65
