ply
format ascii 1.0
element vertex 107
property float x
property float y
property float z
element face 88
property list uchar int vertex_index
end_header
-15.135777 26.896774 -30.7178
-15.638957 34.391907 -31.544178
-11.530058 34.588413 -31.715847
-15.920045 18.72686 -29.394154
-15.22392 30.744602 -31.251774
-17.219223 30.724606 -31.242661
-16.997711 27.085049 -30.890198
-17.106842 23.287769 -30.384701
-14.324534 17.956581 -28.929661
-18.255863 15.392353 -29.410831
-13.550266 34.544235 -31.667477
-13.276266 30.684155 -31.17944
-11.387587 30.494656 -31.045212
-13.314793 26.607376 -30.478474
-11.992697 21.664131 -29.314659
-13.66526 22.346867 -29.686333
-15.370673 22.875774 -30.055779
-17.53307 19.372307 -29.850235
-19.746387 16.173317 -29.952374
-12.540162 34.566324 -31.691662
-12.757858 36.48959 -31.887628
-11.747754 36.511679 -31.911814
-16.70825 34.286473 -31.442971
-16.009407 36.109137 -31.530546
-19.06127 28.938975 -31.054859
-18.228372 30.694874 -31.190575
-18.05212 28.968707 -31.106945
-11.464137 28.333657 -30.624399
-10.474824 30.310954 -30.960302
-12.42774 26.390017 -30.34103
-12.35119 28.551016 -30.761843
-11.464137 28.333657 -30.624399
-12.369231 19.348793 -28.906105
-11.17353 21.230797 -29.145717
-20.166118 14.298513 -29.888478
-19.001125 15.782835 -29.681603
-19.420856 13.90803 -29.617706
-20.833796 14.76556 -30.204767
-20.166118 14.298513 -29.888478
-10.706304 36.570997 -32.003969
-11.747754 36.511679 -31.911814
-17.941364 27.148928 -30.930714
-18.05212 28.968707 -31.106945
-17.108467 28.904828 -31.066429
-17.931669 25.352543 -30.765127
-17.941364 27.148928 -30.930714
-17.986235 23.453903 -30.512379
-17.931669 25.352543 -30.765127
-17.052276 25.186409 -30.63745
-18.134205 21.605963 -30.322122
-17.986235 23.453903 -30.512379
-14.804475 15.732326 -28.623804
-13.535149 17.495018 -28.713606
-15.547071 16.234234 -28.89106
-14.804475 15.732326 -28.623804
-16.344826 16.619373 -29.123306
-15.12229 18.341721 -29.161907
-15.547071 16.234234 -28.89106
-17.512736 14.95212 -29.131645
-17.087954 17.059607 -29.402493
-16.344826 16.619373 -29.123306
-18.751318 13.401984 -29.288708
-17.512736 14.95212 -29.131645
-19.420856 13.90803 -29.617706
-18.751318 13.401984 -29.288708
-14.887258 36.282841 -31.695675
-16.009407 36.109137 -31.530546
-13.842913 36.359005 -31.757325
-12.757858 36.48959 -31.887628
-14.594611 34.468071 -31.605828
-14.887258 36.282841 -31.695675
-13.842913 36.359005 -31.757325
-17.498383 32.452822 -31.292212
-16.70825 34.286473 -31.442971
-16.42909 32.558256 -31.39342
-17.498383 32.452822 -31.292212
-18.228372 30.694874 -31.190575
-10.558007 34.529232 -31.708725
-10.706304 36.570997 -32.003969
-10.486771 32.482354 -31.373407
-10.474824 30.310954 -30.960302
-11.458823 32.541534 -31.38053
-10.558007 34.529232 -31.708725
-10.486771 32.482354 -31.373407
-10.904243 23.608225 -29.620891
-11.17353 21.230797 -29.145717
-11.766692 23.918394 -29.759123
-10.904243 23.608225 -29.620891
-13.158615 19.810356 -29.12216
-12.369231 19.348793 -28.906105
-13.535149 17.495018 -28.713606
-12.602974 24.259762 -29.94496
-11.766692 23.918394 -29.759123
-12.828978 22.005499 -29.500496
-13.490026 24.477121 -30.082403
-12.42774 26.390017 -30.34103
-12.602974 24.259762 -29.94496
-18.347319 19.648232 -30.05489
-18.134205 21.605963 -30.322122
-17.319956 21.330038 -30.117468
-19.453978 18.048737 -30.105959
-18.347319 19.648232 -30.05489
-18.639728 17.772812 -29.901305
-20.493623 16.526097 -30.197193
-19.453978 18.048737 -30.105959
-20.493623 16.526097 -30.197193
-20.833796 14.76556 -30.204767
3 0 6 4
3 0 7 6
3 2 19 21
3 19 10 20
3 19 20 21
3 2 11 10
3 1 22 23
3 26 25 5
3 24 25 26
3 27 12 28
3 29 13 30
3 31 30 12
3 29 30 31
3 32 14 33
3 3 15 8
3 3 16 15
3 3 17 16
3 34 18 35
3 36 35 9
3 34 35 36
3 38 37 18
3 39 2 40
3 4 5 1
3 6 5 4
3 6 41 43
3 43 42 5
3 41 42 43
3 6 44 45
3 7 46 48
3 48 47 6
3 46 47 48
3 7 49 50
3 51 8 52
3 53 8 54
3 55 3 56
3 57 56 8
3 55 56 57
3 58 9 59
3 60 59 3
3 58 59 60
3 61 9 62
3 64 63 9
3 65 1 66
3 10 67 68
3 10 69 71
3 69 1 70
3 69 70 71
3 10 4 1
3 11 4 10
3 11 0 4
3 5 72 74
3 74 73 1
3 72 73 74
3 76 75 5
3 77 2 78
3 12 79 80
3 12 81 83
3 81 2 82
3 81 82 83
3 12 11 2
3 13 11 12
3 13 0 11
3 14 84 85
3 14 86 87
3 8 88 90
3 88 14 89
3 88 89 90
3 15 14 8
3 15 91 93
3 93 92 14
3 91 92 93
3 15 94 96
3 94 13 95
3 94 95 96
3 16 13 15
3 16 0 13
3 16 7 0
3 17 7 16
3 17 97 99
3 99 98 7
3 97 98 99
3 9 17 3
3 18 17 9
3 18 100 102
3 102 101 17
3 100 101 102
3 18 103 104
3 106 105 18
