ply
format ascii 1.0
element vertex 156
property float x
property float y
property float z
element face 124
property list uchar int vertex_index
end_header
12.213037 23.880409 -29.976263
8.688526 25.002655 -29.800325
16.692226 15.823837 -28.879908
15.703634 23.198959 -30.574759
20.186821 15.880066 -29.927031
22.668373 23.140648 -31.303686
23.368168 16.417835 -30.959585
10.456635 24.381584 -29.81143
10.628805 20.576302 -28.91482
12.501053 20.123444 -29.038218
14.334654 19.782803 -29.311563
17.876926 19.440636 -30.106688
19.591047 19.445946 -30.511503
24.851355 16.842564 -31.402876
6.917891 25.751896 -29.941626
10.36167 27.99696 -30.778658
8.732624 21.143394 -28.954485
12.026258 27.486858 -30.973623
13.959747 23.487309 -30.252279
16.125835 19.5541 -29.687994
24.48756 20.104191 -31.337824
22.902531 19.79557 -31.140032
21.267912 19.568184 -30.862741
21.814781 16.091423 -30.462893
19.396201 21.200815 -30.814281
18.520927 21.233071 -30.695358
9.579018 29.989601 -31.204417
9.538678 28.310072 -30.741844
10.753256 18.598499 -28.520399
11.753433 18.40898 -28.564392
17.031597 13.934154 -28.543843
15.757283 15.899576 -28.676712
17.957034 13.96404 -28.829394
17.031597 13.934154 -28.543843
11.991515 29.218212 -31.461767
11.183941 29.458183 -31.367029
14.713025 25.13307 -30.898106
15.581663 24.968179 -31.012124
14.831691 23.343134 -30.413519
13.841082 25.277245 -30.736866
14.713025 25.13307 -30.898106
19.333606 15.835478 -29.655171
18.178659 17.615763 -29.744999
19.031873 17.660351 -30.016859
20.566111 14.084705 -29.6843
19.333606 15.835478 -29.655171
21.777549 24.753679 -31.431244
22.683756 24.782757 -31.331253
21.807312 23.071112 -31.282531
21.777549 24.753679 -31.431244
25.379557 18.721272 -31.563834
25.252877 20.281303 -31.397688
12.689557 18.18255 -28.626091
11.753433 18.40898 -28.564392
11.564929 20.349873 -28.976519
13.661696 18.04938 -28.755867
12.689557 18.18255 -28.626091
14.578496 17.879059 -28.892539
13.661696 18.04938 -28.755867
13.417853 19.953124 -29.174891
15.51344 17.80332 -29.095735
15.757283 15.899576 -28.676712
14.578496 17.879059 -28.892539
16.57722 23.109577 -30.726986
15.581663 24.968179 -31.012124
17.663866 21.230415 -30.49295
16.79028 21.319797 -30.340723
16.57722 23.109577 -30.726986
18.733987 19.443291 -30.309095
17.663866 21.230415 -30.49295
18.520927 21.233071 -30.695358
23.508001 23.241043 -31.274646
22.683756 24.782757 -31.331253
25.772253 15.536972 -31.778628
25.561455 17.090458 -31.596359
25.126044 15.215052 -31.459397
25.772253 15.536972 -31.778628
24.384451 15.002688 -31.237751
24.109762 16.630199 -31.18123
25.126044 15.215052 -31.459397
23.695945 14.72784 -30.901007
24.384451 15.002688 -31.237751
6.179492 28.050073 -30.476061
6.044446 26.186516 -30.060727
6.996781 27.577925 -30.365485
6.179492 28.050073 -30.476061
7.882099 27.203305 -30.294834
7.803209 25.377275 -29.870976
6.996781 27.577925 -30.365485
8.702106 26.812919 -30.252678
7.882099 27.203305 -30.294834
9.58616 26.502384 -30.25823
9.572581 24.69212 -29.805878
8.702106 26.812919 -30.252678
10.409153 26.189272 -30.295044
9.58616 26.502384 -30.25823
9.538678 28.310072 -30.741844
6.879635 23.787514 -29.532528
6.044446 26.186516 -30.060727
7.787001 21.483263 -29.038957
6.879635 23.787514 -29.532528
7.825257 23.447645 -29.448055
8.792586 19.12714 -28.574501
7.787001 21.483263 -29.038957
9.805165 18.882046 -28.540231
9.680715 20.859848 -28.934652
10.753256 18.598499 -28.520399
8.792586 19.12714 -28.574501
9.805165 18.882046 -28.540231
10.351647 29.713234 -31.269547
9.579018 29.989601 -31.204417
11.193964 27.741909 -30.87614
10.351647 29.713234 -31.269547
11.183941 29.458183 -31.367029
12.874337 27.27702 -31.097538
11.991515 29.218212 -31.461767
12.993002 25.487084 -30.612951
12.874337 27.27702 -31.097538
13.841082 25.277245 -30.736866
17.303113 17.672495 -29.535652
17.00138 19.497368 -29.897341
18.178659 17.615763 -29.744999
17.586309 15.807363 -29.131609
16.409031 17.688968 -29.283951
17.303113 17.672495 -29.535652
17.957034 13.96404 -28.829394
17.586309 15.807363 -29.131609
24.417595 21.722814 -31.291716
25.252877 20.281303 -31.397688
23.577966 21.622419 -31.320755
23.508001 23.241043 -31.274646
24.417595 21.722814 -31.291716
24.669458 18.473377 -31.37035
25.379557 18.721272 -31.563834
25.561455 17.090458 -31.596359
21.924391 21.398573 -31.200705
21.807312 23.071112 -31.282531
22.785452 21.468109 -31.221859
21.107081 21.284879 -31.062059
21.924391 21.398573 -31.200705
22.085221 19.681877 -31.001387
20.234634 21.261934 -30.9899
21.107081 21.284879 -31.062059
20.429479 19.507065 -30.687122
19.396201 21.200815 -30.814281
20.234634 21.261934 -30.9899
22.919252 14.564635 -30.652661
22.591475 16.254629 -30.711239
23.695945 14.72784 -30.901007
22.178987 14.346515 -30.302969
22.919252 14.564635 -30.652661
21.365007 14.240837 -30.035038
21.000801 15.985744 -30.194962
22.178987 14.346515 -30.302969
20.566111 14.084705 -29.6843
21.365007 14.240837 -30.035038
3 0 9 7
3 0 10 9
3 24 12 25
3 26 15 27
3 1 16 14
3 29 28 8
3 2 30 31
3 2 32 33
3 34 17 35
3 3 36 37
3 3 38 40
3 38 18 39
3 38 39 40
3 3 19 18
3 4 41 43
3 43 42 11
3 41 42 43
3 4 44 45
3 5 46 47
3 5 48 49
3 50 20 51
3 6 21 13
3 6 22 21
3 6 23 22
3 7 8 1
3 9 8 7
3 9 52 54
3 54 53 8
3 52 53 54
3 9 55 56
3 10 57 59
3 59 58 9
3 57 58 59
3 10 60 62
3 60 2 61
3 60 61 62
3 63 3 64
3 65 11 66
3 67 66 3
3 65 66 67
3 12 68 70
3 68 11 69
3 68 69 70
3 12 4 11
3 71 5 72
3 73 13 74
3 75 13 76
3 77 6 78
3 79 78 13
3 77 78 79
3 81 80 6
3 82 14 83
3 84 14 85
3 86 1 87
3 88 87 14
3 86 87 88
3 89 1 90
3 91 7 92
3 93 92 1
3 91 92 93
3 15 94 96
3 94 7 95
3 94 95 96
3 15 0 7
3 14 97 98
3 16 99 101
3 101 100 14
3 99 100 101
3 16 102 103
3 8 16 1
3 104 16 105
3 106 105 8
3 104 105 106
3 108 107 16
3 109 15 110
3 17 111 113
3 111 15 112
3 111 112 113
3 17 0 15
3 114 17 115
3 18 116 118
3 116 17 117
3 116 117 118
3 18 0 17
3 18 10 0
3 19 10 18
3 19 2 10
3 11 19 3
3 119 19 120
3 121 120 11
3 119 120 121
3 122 2 123
3 124 123 19
3 122 123 124
3 126 125 2
3 20 127 128
3 20 129 131
3 129 5 130
3 129 130 131
3 13 132 134
3 132 20 133
3 132 133 134
3 21 20 13
3 21 5 20
3 21 135 137
3 137 136 5
3 135 136 137
3 22 138 140
3 140 139 21
3 138 139 140
3 22 141 142
3 22 143 145
3 143 12 144
3 143 144 145
3 23 12 22
3 23 4 12
3 146 23 147
3 148 147 6
3 146 147 148
3 149 23 150
3 151 4 152
3 153 152 23
3 151 152 153
3 155 154 4
