ply
format ascii 1.0
element vertex 138
property float x
property float y
property float z
element face 109
property list uchar int vertex_index
end_header
0.490589 48.252434 60.469742
1.943775 53.061653 60.15921
0.529413 56.038551 54.871521
1.975941 45.21244 65.369888
0.070784 50.33004 54.490509
0.220629 57.77726 48.597351
0.154886 49.409439 57.583244
0.620619 59.753052 51.800987
0.245201 57.06324 51.822891
0.363167 60.673836 48.685623
0.366138 61.245445 45.410606
0.528986 64.091179 45.397667
0.462111 47.829971 50.785904
1.075321 50.814468 60.47287
0.487509 52.192329 57.765228
1.944269 49.165863 62.861267
0.175243 47.220024 54.008835
0.208895 51.023262 51.268356
0.17602 53.295372 54.793694
0.121397 54.126183 51.629425
0.421743 58.190231 45.273865
0.322738 48.830936 59.026493
0.166186 47.426445 58.880607
0.334037 46.847943 60.323856
0.563042 61.986092 48.626781
0.491893 60.213444 50.243305
0.691768 61.5257 50.184463
0.645952 63.694763 46.982804
0.446076 62.382508 47.041645
0.563042 61.986092 48.626781
0.743032 65.366394 45.293211
0.645952 63.694763 46.982804
0.453255 45.932991 52.089875
0.646626 46.221085 50.50306
1.518765 53.881881 58.914608
1.084538 52.758289 59.071438
1.509548 51.93806 60.31604
1.560133 44.030956 65.430774
1.999497 43.219965 66.526401
1.536103 46.032944 64.226028
1.560133 44.030956 65.430774
1.960105 47.189152 64.115578
1.520268 48.009655 62.971718
1.536103 46.032944 64.226028
0.123013 48.775032 54.249672
0.121801 46.8242 55.586769
0.069572 48.379207 55.827606
0.256356 56.235023 48.474159
0.20674 54.409485 49.990196
0.171013 55.951721 50.113388
0.321186 57.983745 46.935608
0.356912 56.441509 46.812416
0.256356 56.235023 48.474159
0.479619 61.363709 43.732399
0.460513 62.872165 43.748226
1.965178 54.964996 58.713993
2.516597 53.998303 59.837474
2.54562 44.274433 66.337108
1.999497 43.219965 66.526401
2.528465 46.235019 65.133174
2.54562 44.274433 66.337108
0.111622 47.918907 57.373974
0.166186 47.426445 58.880607
0.112835 49.869739 56.036877
0.069572 48.379207 55.827606
0.111622 47.918907 57.373974
0.541937 64.295032 43.741756
0.460513 62.872165 43.748226
0.447562 62.668312 45.404136
0.635297 65.688789 43.686878
0.541937 64.295032 43.741756
0.635297 65.688789 43.686878
0.743032 65.366394 45.293211
0.672667 48.048862 49.176412
0.646626 46.221085 50.50306
0.495896 49.664791 49.390057
0.672667 48.048862 49.176412
0.790632 53.44722 57.717617
0.781415 51.503399 59.119049
1.084538 52.758289 59.071438
0.811584 55.37033 56.270764
0.508461 54.11544 56.318375
0.790632 53.44722 57.717617
1.518765 53.881881 58.914608
1.965178 54.964996 58.713993
0.84461 57.259864 54.777092
0.811584 55.37033 56.270764
0.890213 59.117115 53.241825
0.575016 57.895801 53.336254
0.84461 57.259864 54.777092
0.949593 60.934033 51.66196
0.890213 59.117115 53.241825
0.691768 61.5257 50.184463
0.949593 60.934033 51.66196
0.510439 46.252991 61.722282
0.334037 46.847943 60.323856
0.793427 47.552941 61.775955
0.510439 46.252991 61.722282
1.085793 48.833957 61.777519
0.782955 49.533451 60.471306
0.793427 47.552941 61.775955
1.509795 49.990166 61.667068
1.085793 48.833957 61.777519
1.520268 48.009655 62.971718
2.512628 48.211731 63.878864
1.960105 47.189152 64.115578
2.528465 46.235019 65.133174
2.505708 50.149449 62.580581
2.512628 48.211731 63.878864
2.505462 52.097344 61.229553
1.944022 51.113758 61.510238
2.505708 50.149449 62.580581
2.516597 53.998303 59.837474
2.505462 52.097344 61.229553
0.182606 45.270876 55.282265
0.121801 46.8242 55.586769
0.309821 45.628017 53.70134
0.182606 45.270876 55.282265
0.318677 47.524997 52.397369
0.453255 45.932991 52.089875
0.309821 45.628017 53.70134
0.369289 51.261437 49.631282
0.495896 49.664791 49.390057
0.335503 49.426617 51.02713
0.250489 52.858024 49.809661
0.165146 52.574723 51.44889
0.20674 54.409485 49.990196
0.369289 51.261437 49.631282
0.250489 52.858024 49.809661
0.533015 56.598785 45.15506
0.356912 56.441509 46.812416
0.610912 58.254669 43.601784
0.533015 56.598785 45.15506
0.507421 59.836101 43.664029
0.393941 59.717838 45.342236
0.479619 61.363709 43.732399
0.610912 58.254669 43.601784
0.507421 59.836101 43.664029
3 0 21 23
3 21 6 22
3 21 22 23
3 24 9 25
3 26 25 7
3 24 25 26
3 27 11 28
3 29 28 9
3 27 28 29
3 31 30 11
3 32 12 33
3 1 34 36
3 36 35 13
3 34 35 36
3 3 37 38
3 3 39 40
3 3 41 43
3 41 15 42
3 41 42 43
3 4 44 46
3 44 16 45
3 44 45 46
3 4 17 16
3 2 18 14
3 5 19 8
3 5 47 49
3 49 48 19
3 47 48 49
3 5 50 52
3 50 20 51
3 50 51 52
3 54 53 10
3 56 55 1
3 57 3 58
3 60 59 3
3 6 61 62
3 6 63 65
3 63 4 64
3 63 64 65
3 7 8 2
3 9 8 7
3 9 5 8
3 9 10 5
3 11 10 9
3 11 66 68
3 68 67 10
3 66 67 68
3 11 69 70
3 72 71 11
3 12 73 74
3 12 75 76
3 13 14 0
3 77 14 78
3 79 78 13
3 77 78 79
3 80 2 81
3 82 81 14
3 80 81 82
3 84 83 1
3 85 2 86
3 87 7 88
3 89 88 2
3 87 88 89
3 90 7 91
3 93 92 7
3 94 0 95
3 96 0 97
3 98 13 99
3 100 99 0
3 98 99 100
3 15 101 103
3 101 13 102
3 101 102 103
3 15 1 13
3 104 15 105
3 106 105 3
3 104 105 106
3 107 15 108
3 109 1 110
3 111 110 15
3 109 110 111
3 113 112 1
3 16 114 115
3 16 116 117
3 16 118 120
3 118 12 119
3 118 119 120
3 17 12 16
3 17 121 123
3 123 122 12
3 121 122 123
3 14 6 0
3 18 6 14
3 18 4 6
3 8 18 2
3 19 18 8
3 19 4 18
3 19 17 4
3 124 17 125
3 126 125 19
3 124 125 126
3 128 127 17
3 20 129 130
3 20 131 132
3 10 20 5
3 133 20 134
3 135 134 10
3 133 134 135
3 137 136 20
