ply
format ascii 1.0
element vertex 359
property float x
property float y
property float z
element face 309
property list uchar int vertex_index
end_header
43.911751 15.802189 -35.057663
44.683342 3.382841 -18.730947
49.825195 18.684467 -40.687126
56.666946 13.048172 -31.578508
61.044731 8.403227 -32.319397
48.81871 1.62187 -21.140982
47.465656 6.04031 -24.141748
53.37825 12.041252 -30.935751
55.764919 8.287928 -26.542128
45.471447 -1.63825 -16.186369
46.948097 17.188286 -38.447586
43.125771 18.187656 -40.988029
50.417259 15.066658 -34.987717
53.562653 16.346558 -36.356873
56.326569 15.60812 -37.163673
39.259525 17.893063 -42.286888
59.223618 11.903868 -31.983774
51.052647 1.790031 -21.785975
50.375923 3.967873 -23.543276
53.796394 7.450359 -26.358332
45.718655 -4.087561 -14.786394
47.508041 -2.658897 -17.190008
47.747334 -5.002324 -15.584345
48.400551 18.060093 -39.701019
46.416218 18.720837 -41.36248
48.725395 14.162834 -33.943161
50.188568 12.747189 -32.211601
55.104267 12.75095 -31.316702
53.645164 14.420033 -33.591286
55.198296 14.802151 -34.005981
54.993965 16.286243 -36.807045
56.6091 14.636238 -34.328072
41.172344 18.206776 -41.80835
60.39679 9.806341 -29.346277
58.994537 12.447752 -34.825027
59.991493 10.495626 -34.991707
46.677528 2.107124 -20.115427
46.107346 4.460461 -21.453764
48.19696 3.86532 -22.682985
49.575939 6.058319 -25.221121
50.712421 8.545662 -27.764975
51.524837 11.14497 -30.353426
52.729065 9.374224 -28.395132
54.645935 10.246292 -28.769384
56.406933 10.895393 -28.97611
45.123219 0.866159 -17.496542
47.147057 -0.276274 -18.696756
49.324409 -0.668163 -19.515249
45.454914 16.341133 -36.897537
43.682922 17.049793 -38.048706
45.065815 17.841827 -39.854645
44.36153 19.055447 -42.755814
47.14307 15.369572 -35.51683
48.739494 16.253601 -36.810799
50.281044 17.102516 -37.821541
51.966629 13.65469 -33.01799
52.034348 15.879322 -35.771156
51.766827 17.651501 -38.597511
53.198845 17.701668 -39.194061
41.859871 17.470715 -38.935745
40.029312 17.587273 -39.530807
38.242397 17.396187 -39.817924
57.968323 11.11195 -29.102327
58.042664 12.785213 -31.788546
57.872421 13.8493 -34.597694
62.41983 3.717205 -29.712862
61.738106 5.948853 -32.392242
60.88763 8.088106 -35.059875
51.814602 3.175689 -22.917089
52.179045 2.096159 -21.935251
43.078659 16.210013 -35.51957
43.114582 15.808084 -34.021488
45.784621 -5.258977 -14.032535
44.886992 -4.508176 -13.549299
46.79896 -5.716358 -14.431511
46.732995 -4.544942 -15.18537
45.784621 -5.258977 -14.032535
48.793045 19.047916 -41.632565
48.080723 18.735729 -41.139511
49.112873 18.37228 -40.194073
44.418925 4.629802 -19.31534
43.773211 4.439182 -17.897219
49.889204 11.54371 -30.852288
49.266419 12.36545 -31.661044
60.631027 9.411762 -32.244126
61.153709 8.332187 -30.907609
60.518112 9.449426 -33.655552
60.104408 10.457961 -33.580281
60.631027 9.411762 -32.244126
50.642752 6.336517 -25.583166
49.975931 5.013096 -24.382199
51.042744 5.291294 -24.744243
51.210993 7.580189 -26.855093
50.14418 7.301991 -26.493048
50.642752 6.336517 -25.583166
52.219314 7.99447 -27.170172
51.720743 8.959943 -28.080053
51.210993 7.580189 -26.855093
44.549418 -0.73857 -15.504749
44.679735 -2.040279 -14.898363
45.297333 -0.386045 -16.841456
44.375304 0.513634 -16.159836
44.549418 -0.73857 -15.504749
49.513378 -1.822242 -18.658665
48.416225 -1.66353 -18.352629
48.605194 -2.81761 -17.496044
50.460293 -0.561125 -19.733989
49.513378 -1.822242 -18.658665
44.984457 19.427519 -43.486599
45.388874 18.888142 -42.059147
46.011801 19.260214 -42.789932
43.885583 19.439059 -44.153534
44.984457 19.427519 -43.486599
46.451737 6.399468 -23.428762
45.772582 5.609543 -22.08477
46.786501 5.250386 -22.797756
47.060545 14.413706 -34.055782
46.319786 15.054594 -34.718266
55.453373 16.375771 -38.408524
54.787071 16.714832 -38.23021
55.660267 15.947181 -36.985359
56.122033 15.782259 -38.579678
55.453373 16.375771 -38.408524
58.537529 10.065647 -27.85178
57.759905 9.993615 -27.847862
59.262592 11.334081 -30.599291
59.849179 10.285317 -29.280543
59.810204 10.855104 -30.665025
58.633141 12.344541 -31.88616
58.672116 11.774753 -30.501677
59.262592 11.334081 -30.599291
58.280476 13.377045 -36.133656
58.859497 12.442672 -36.228023
62.378402 3.438178 -31.025559
62.608596 2.3156 -29.697239
62.037541 4.554002 -32.36525
62.078968 4.833029 -31.052552
62.378402 3.438178 -31.025559
60.874437 7.733313 -36.332168
61.300089 6.708081 -35.022053
60.352049 9.091108 -36.379146
60.874437 7.733313 -36.332168
51.47624 4.26461 -23.79574
50.714285 2.878952 -22.664625
51.814602 3.175689 -22.917089
51.042744 5.291294 -24.744243
51.47624 4.26461 -23.79574
53.186476 6.005852 -25.203268
52.752979 7.032538 -26.151772
54.25857 6.419721 -25.309297
53.186476 6.005852 -25.203268
55.242832 6.838506 -25.401196
54.780656 7.869143 -26.45023
54.25857 6.419721 -25.309297
44.803339 -3.264934 -14.198376
44.886992 -4.508176 -13.549299
45.595051 -2.862906 -15.486382
44.679735 -2.040279 -14.898363
44.803339 -3.264934 -14.198376
48.72484 -3.989323 -16.693213
48.605194 -2.81761 -17.496044
47.627688 -3.83061 -16.387176
47.088556 19.066102 -41.970242
47.408384 18.390465 -40.53175
48.080723 18.735729 -41.139511
46.011801 19.260214 -42.789932
47.088556 19.066102 -41.970242
47.045601 7.084511 -24.827898
48.061857 7.04277 -25.477106
48.534832 13.073272 -32.526824
47.851708 13.810337 -33.268948
49.456981 13.455012 -33.077381
48.534832 13.073272 -32.526824
49.266419 12.36545 -31.661044
41.72686 18.624136 -42.820442
42.149057 18.197216 -41.39819
42.703574 18.614576 -42.410282
40.701923 18.437771 -43.180199
41.72686 18.624136 -42.820442
39.745514 18.280915 -43.419468
40.215935 18.04992 -42.047619
40.701923 18.437771 -43.180199
60.829739 9.033744 -29.421049
60.905938 8.697436 -28.026812
60.307057 10.113319 -30.757566
60.829739 9.033744 -29.421049
59.720471 11.162082 -32.076314
59.810204 10.855104 -30.665025
60.307057 10.113319 -30.757566
59.60593 11.434024 -33.496941
59.109077 12.17581 -33.404401
59.720471 11.162082 -32.076314
59.493015 11.471689 -34.908367
59.60593 11.434024 -33.496941
60.104408 10.457961 -33.580281
59.357975 11.466609 -36.311363
58.859497 12.442672 -36.228023
59.493015 11.471689 -34.908367
49.47509 19.184376 -42.109425
50.530189 18.76556 -41.069
49.116998 7.051775 -26.016793
48.061857 7.04277 -25.477106
48.520798 6.049314 -24.681435
49.685239 8.295447 -27.288719
49.116998 7.051775 -26.016793
50.14418 7.301991 -26.493048
50.151131 9.442946 -28.628975
49.685239 8.295447 -27.288719
51.118629 9.845316 -29.0592
50.557339 10.7426 -29.923201
50.151131 9.442946 -28.628975
53.262729 8.412292 -27.376732
52.219314 7.99447 -27.170172
52.752979 7.032538 -26.151772
61.484448 7.301424 -30.976582
61.153709 8.332187 -30.907609
43.983786 3.102874 -17.35017
43.773211 4.439182 -17.897219
44.203724 1.844534 -16.732968
44.375304 0.513634 -16.159836
44.903281 2.1245 -18.113745
43.983786 3.102874 -17.35017
44.203724 1.844534 -16.732968
51.324411 0.667972 -20.869352
50.188528 0.560934 -20.650612
50.460293 -0.561125 -19.733989
52.179045 2.096159 -21.935251
51.324411 0.667972 -20.869352
43.321453 19.048471 -43.294174
42.703574 18.614576 -42.410282
43.743651 18.621552 -41.871921
43.321453 19.048471 -43.294174
43.885583 19.439059 -44.153534
48.793045 19.047916 -41.632565
49.47509 19.184376 -42.109425
43.860594 15.21361 -33.551979
43.114582 15.808084 -34.021488
45.130927 5.168611 -20.676749
44.418925 4.629802 -19.31534
45.395344 3.921651 -20.092356
44.796162 6.317694 -21.307755
45.130927 5.168611 -20.676749
45.772582 5.609543 -22.08477
46.031682 7.443669 -24.114912
46.451737 6.399468 -23.428762
47.045601 7.084511 -24.827898
44.704127 15.270903 -34.488682
43.860594 15.21361 -33.551979
45.475708 15.540374 -35.408619
44.683333 16.071661 -35.9776
44.704127 15.270903 -34.488682
46.298992 15.855352 -36.207183
45.475708 15.540374 -35.408619
46.319786 15.054594 -34.718266
47.934233 14.766203 -34.729996
47.060545 14.413706 -34.055782
47.851708 13.810337 -33.268948
50.856702 11.946079 -31.282514
49.889204 11.54371 -30.852288
50.557339 10.7426 -29.923201
51.501005 18.249077 -40.024192
50.530189 18.76556 -41.069
50.796011 18.167984 -39.642319
52.217014 18.274161 -40.322468
51.501005 18.249077 -40.024192
52.482836 17.676585 -38.895786
52.919447 18.059131 -40.613186
52.217014 18.274161 -40.322468
53.889511 17.422545 -39.423717
54.096405 16.993955 -38.000553
54.787071 16.714832 -38.23021
52.919447 18.059131 -40.613186
53.889511 17.422545 -39.423717
42.964244 16.833815 -37.015091
43.078659 16.210013 -35.51957
43.797337 16.425991 -36.553185
42.052719 17.044275 -37.45861
42.964244 16.833815 -37.015091
42.771396 17.260254 -38.492226
41.195331 17.31662 -37.801723
42.052719 17.044275 -37.45861
40.280052 17.374899 -38.099255
41.195331 17.31662 -37.801723
40.944592 17.528994 -39.233276
39.41959 17.504234 -38.315556
40.280052 17.374899 -38.099255
38.526133 17.408691 -38.459114
39.41959 17.504234 -38.315556
39.135854 17.49173 -39.674366
37.686228 17.394316 -38.546195
38.526133 17.408691 -38.459114
38.767271 17.918391 -43.587738
39.745514 18.280915 -43.419468
38.352731 17.575215 -42.349277
38.767271 17.918391 -43.587738
37.844167 17.326777 -41.114795
38.750961 17.644625 -41.052406
38.352731 17.575215 -42.349277
37.396976 17.153605 -39.807868
37.844167 17.326777 -41.114795
36.840807 17.151733 -38.53614
37.686228 17.394316 -38.546195
37.396976 17.153605 -39.807868
47.798231 -6.132269 -14.725952
46.79896 -5.716358 -14.431511
48.842459 -5.134671 -15.790221
47.798231 -6.132269 -14.725952
48.72484 -3.989323 -16.693213
48.842459 -5.134671 -15.790221
56.247749 7.236521 -25.407633
55.242832 6.838506 -25.401196
56.658203 8.581604 -26.567763
56.247749 7.236521 -25.407633
57.141033 7.530197 -25.433267
56.97921 9.885337 -27.784754
56.085926 9.59166 -27.759119
56.658203 8.581604 -26.567763
57.187628 11.003671 -29.039218
56.97921 9.885337 -27.784754
57.759905 9.993615 -27.847862
60.397694 9.204522 -27.988136
60.905938 8.697436 -28.026812
60.397694 9.204522 -27.988136
59.849179 10.285317 -29.280543
58.634945 10.938122 -29.158568
58.537529 10.065647 -27.85178
58.005494 11.948581 -30.445436
58.634945 10.938122 -29.158568
58.672116 11.774753 -30.501677
57.719418 14.07782 -36.019989
58.433479 13.148526 -34.71136
58.280476 13.377045 -36.133656
56.946492 14.95723 -37.302979
57.099495 14.72871 -35.880684
57.719418 14.07782 -36.019989
56.122033 15.782259 -38.579678
56.946492 14.95723 -37.302979
62.705093 2.573358 -28.376556
62.608596 2.3156 -29.697239
62.547956 3.818554 -28.333754
62.705093 2.573358 -28.376556
62.171997 4.958413 -29.673315
62.547956 3.818554 -28.333754
61.831135 6.074237 -31.013005
62.171997 4.958413 -29.673315
62.078968 4.833029 -31.052552
61.391419 7.17604 -32.35582
61.484448 7.301424 -30.976582
61.831135 6.074237 -31.013005
61.725327 5.638454 -33.688236
62.037541 4.554002 -32.36525
61.312868 7.018479 -33.726059
61.725327 5.638454 -33.688236
61.300089 6.708081 -35.022053
59.90398 10.294868 -36.345062
60.439561 9.291866 -35.025791
60.352049 9.091108 -36.379146
59.357975 11.466609 -36.311363
59.90398 10.294868 -36.345062
3 69 68 17
3 0 70 71
3 72 20 73
3 74 22 75
3 76 75 20
3 74 75 76
3 2 77 79
3 79 78 23
3 77 78 79
3 1 80 81
3 82 26 83
3 3 29 27
3 3 31 29
3 4 84 85
3 4 86 88
3 86 35 87
3 86 87 88
3 5 38 36
3 89 39 90
3 91 90 18
3 89 90 91
3 92 40 93
3 94 93 39
3 92 93 94
3 95 42 96
3 97 96 40
3 95 96 97
3 8 43 19
3 8 44 43
3 9 98 99
3 9 100 102
3 100 45 101
3 100 101 102
3 9 46 45
3 103 47 104
3 105 104 21
3 103 104 105
3 107 106 47
3 10 50 48
3 108 51 109
3 110 109 24
3 108 109 110
3 112 111 51
3 6 113 115
3 115 114 37
3 113 114 115
3 116 52 117
3 12 53 25
3 12 54 53
3 7 55 41
3 13 56 28
3 13 57 56
3 13 58 57
3 14 118 120
3 120 119 30
3 118 119 120
3 14 121 122
3 11 59 49
3 15 60 32
3 15 61 60
3 123 62 124
3 16 125 127
3 127 126 33
3 125 126 127
3 16 128 130
3 128 63 129
3 128 129 130
3 16 64 63
3 132 131 34
3 133 65 134
3 135 66 136
3 137 136 65
3 135 136 137
3 138 67 139
3 141 140 67
3 17 18 5
3 142 18 143
3 144 143 17
3 142 143 144
3 146 145 18
3 147 19 148
3 149 19 150
3 151 8 152
3 153 152 19
3 151 152 153
3 20 154 155
3 20 156 158
3 156 9 157
3 156 157 158
3 20 21 9
3 22 21 20
3 22 159 161
3 161 160 21
3 159 160 161
3 23 24 10
3 162 24 163
3 164 163 23
3 162 163 164
3 166 165 24
3 168 167 6
3 169 25 170
3 26 171 173
3 171 25 172
3 171 172 173
3 26 12 25
3 27 28 7
3 29 28 27
3 29 13 28
3 29 30 13
3 31 30 29
3 31 14 30
3 174 32 175
3 176 175 11
3 174 175 176
3 177 32 178
3 179 15 180
3 181 180 32
3 179 180 181
3 182 33 183
3 184 33 185
3 186 16 187
3 188 187 33
3 186 187 188
3 189 34 190
3 191 190 16
3 189 190 191
3 35 192 194
3 192 34 193
3 192 193 194
3 35 195 197
3 197 196 34
3 195 196 197
3 199 198 2
3 36 37 1
3 38 37 36
3 38 6 37
3 18 38 5
3 39 38 18
3 39 6 38
3 39 200 202
3 202 201 6
3 200 201 202
3 40 203 205
3 205 204 39
3 203 204 205
3 40 206 207
3 40 208 210
3 208 41 209
3 208 209 210
3 42 41 40
3 42 7 41
3 19 211 213
3 211 42 212
3 211 212 213
3 43 42 19
3 43 7 42
3 43 27 7
3 44 27 43
3 44 3 27
3 214 4 215
3 216 1 217
3 45 218 219
3 45 220 222
3 220 1 221
3 220 221 222
3 45 36 1
3 46 36 45
3 46 5 36
3 21 46 9
3 47 46 21
3 47 5 46
3 47 17 5
3 223 17 224
3 225 224 47
3 223 224 225
3 227 226 17
3 48 49 0
3 50 49 48
3 50 11 49
3 24 50 10
3 51 50 24
3 51 11 50
3 51 228 230
3 230 229 11
3 228 229 230
3 232 231 51
3 234 233 2
3 235 0 236
3 37 237 239
3 239 238 1
3 237 238 239
3 242 241 37
3 240 241 242
3 245 244 6
3 243 244 245
3 246 0 247
3 248 48 249
3 250 249 0
3 248 249 250
3 52 251 253
3 251 48 252
3 251 252 253
3 52 10 48
3 25 254 256
3 254 52 255
3 254 255 256
3 53 52 25
3 53 10 52
3 53 23 10
3 54 23 53
3 54 2 23
3 41 257 259
3 257 26 258
3 257 258 259
3 55 26 41
3 55 12 26
3 28 55 7
3 56 55 28
3 56 12 55
3 56 54 12
3 57 54 56
3 57 2 54
3 57 260 262
3 262 261 2
3 260 261 262
3 58 263 265
3 265 264 57
3 263 264 265
3 58 266 267
3 30 58 13
3 268 58 269
3 270 269 30
3 268 269 270
3 272 271 58
3 49 273 275
3 275 274 0
3 273 274 275
3 59 276 278
3 278 277 49
3 276 277 278
3 59 279 280
3 32 59 11
3 60 59 32
3 60 281 283
3 283 282 59
3 281 282 283
3 60 284 285
3 61 286 288
3 288 287 60
3 286 287 288
3 61 289 290
3 291 15 292
3 293 15 294
3 295 61 296
3 297 296 15
3 295 296 297
3 298 61 299
3 302 301 61
3 300 301 302
3 303 22 304
3 305 22 306
3 308 307 22
3 309 8 310
3 311 8 312
3 311 312 313
3 314 44 315
3 316 315 8
3 314 315 316
3 62 317 319
3 317 44 318
3 317 318 319
3 62 3 44
3 33 320 321
3 323 322 33
3 324 62 325
3 63 326 328
3 326 62 327
3 326 327 328
3 63 3 62
3 63 31 3
3 64 31 63
3 64 14 31
3 34 64 16
3 329 64 330
3 331 330 34
3 329 330 331
3 332 14 333
3 334 333 64
3 332 333 334
3 336 335 14
3 65 337 338
3 65 339 340
3 65 341 342
3 66 343 345
3 345 344 65
3 343 344 345
3 66 346 348
3 346 4 347
3 346 347 348
3 349 66 350
3 67 351 353
3 351 66 352
3 351 352 353
3 67 4 66
3 67 35 4
3 354 35 355
3 356 355 67
3 354 355 356
3 358 357 35
