ply
format ascii 1.0
element vertex 1134
property float x
property float y
property float z
element face 1215
property list uchar int vertex_index
end_header
2.434093 40.630913 36.859573
4.267363 25.649288 76.407906
3.129343 -18.759716 51.199524
1.177444 13.231487 49.276947
0.540371 36.217567 57.995934
1.928841 -28.353233 65.833199
-0.439602 34.470009 33.39624
1.707874 28.466038 43.477287
-1.681707 19.47451 40.314415
0.717403 32.140217 69.220367
3.38047 -41.620026 68.261215
2.858896 9.788843 80.984573
0.517143 15.92382 74.349586
0.852951 20.27359 64.465088
4.698549 -34.067749 51.210289
0.016348 -29.78319 46.657738
9.709633 16.84161 79.149872
6.548876 1.790724 83.961632
-1.336836 -13.380199 46.330704
-2.026014 3.377621 44.861824
2.077692 38.902412 46.063957
6.019957 -38.019035 58.297752
4.680784 -23.700863 57.22081
2.046654 23.963169 53.661415
1.41721 37.992821 35.159859
0.487524 41.364658 29.968483
2.117649 35.333263 39.922699
0.758041 31.295033 38.522457
2.066057 29.226871 73.437523
3.741726 17.777973 79.093872
1.358374 13.099163 78.149918
1.846334 21.203747 76.24247
0.718565 24.055367 72.265945
4.010357 -26.638889 50.960297
2.487127 -31.955694 48.85424
1.72654 -24.23772 48.742546
12.024403 11.779989 79.287735
8.373051 9.406078 81.836754
-3.164606 22.548519 35.385902
-3.48477 14.589386 38.490303
1.263414 37.677639 51.908089
3.435705 -56.015579 68.990715
4.102388 -54.675198 64.167747
4.671547 -51.051052 67.229904
2.645782 -35.345467 66.642044
4.985376 -39.847824 63.055847
4.387995 -33.289349 61.725357
5.478487 -31.161673 57.339058
3.644299 -26.061476 61.259026
0.720062 28.265812 61.704681
1.511492 22.098351 59.029411
1.366852 29.960464 55.908653
2.021751 31.614098 50.23497
1.822781 -60.910549 69.847527
-2.580011 30.254181 31.770861
-1.688745 37.663418 27.963276
1.373564 20.989918 46.716824
-0.17775 16.267521 44.926842
0.208733 23.970242 41.952587
-1.170252 27.150761 36.993729
0.266811 34.423496 63.930283
0.619043 4.859737 79.176422
0.121572 7.67001 75.449753
0.265179 10.105515 71.065468
0.886011 12.22455 66.229156
0.412481 18.279095 69.691643
0.406755 26.362011 67.299164
5.019217 -40.856728 52.07991
3.409195 -45.444855 50.229843
3.088934 -39.053322 49.341743
0.801565 -37.216389 46.937435
6.984262 21.486843 78.240837
10.520714 24.085377 75.881096
4.69837 6.011152 82.891403
6.069262 13.828461 80.908386
2.248291 -10.689334 51.584404
0.923079 -16.126425 48.854965
0.220676 -7.893178 48.879723
-1.804213 -4.948284 45.895012
-1.97555 11.531096 43.004288
-3.570814 6.387915 40.85524
2.553354 39.920372 40.810493
5.172564 -45.732811 65.051636
6.073835 -44.193687 60.022057
6.083179 -42.577122 55.615578
5.981609 -36.094109 54.291222
5.396347 -28.944668 53.726494
4.535473 -21.271809 53.87529
3.827644 -15.81496 57.709991
3.608416 -13.305792 54.419708
1.628479 14.170349 61.211929
2.111996 16.151566 56.246246
2.056349 18.379841 51.432327
2.164135 26.044991 48.482071
2.345997 33.353409 44.872017
-0.706306 -21.750168 46.497726
2.066063 39.479671 36.067913
1.754442 41.069252 33.738106
2.298969 42.179382 34.976437
2.308657 38.317753 38.227436
1.810558 36.543282 37.561516
3.07486 27.518036 75.077042
4.406029 29.558472 74.784904
4.048298 21.725075 77.847656
2.713236 19.560364 77.807137
2.931725 23.547646 76.544922
1.988634 25.221066 74.948334
3.582405 -22.739752 51.035614
2.937452 -25.450813 49.816277
2.514416 -21.491041 49.88916
12.984291 9.119518 79.112228
0.465252 10.774803 48.208694
-3.90135 23.948807 32.813099
-4.094477 19.991531 34.530613
0.826887 40.838604 52.683884
4.132284 -53.560764 68.198181
2.27253 -31.937986 66.130173
3.559628 -34.324211 64.133041
3.192137 -30.854053 63.703255
4.021627 -29.754566 61.384621
2.832621 -27.215454 63.490662
0.62859 32.249462 59.965996
1.021379 29.127628 58.80806
0.935896 33.07053 56.987732
1.302988 33.846622 54.014755
3.03182 -56.732815 71.375824
-1.503771 32.455616 32.570915
-2.174643 33.999641 29.869562
-1.064289 36.090977 30.718613
-0.003511 43.082428 27.182476
1.527037 24.778069 45.163437
0.835051 22.441051 44.351028
1.042473 26.192829 42.726749
0.174631 32.854206 35.994026
-0.169611 29.260441 37.765339
-0.832447 30.86134 35.202667
-1.875929 28.731049 34.415817
0.387266 33.353405 66.686768
2.290094 5.740835 81.642937
1.083031 3.309477 80.757332
1.595293 7.423763 80.313927
0.843393 14.572845 76.368263
0.591906 10.461725 76.997566
0.340811 11.815952 75.018944
0.117153 8.93273 73.329399
0.267281 13.062592 72.846153
0.355509 14.208836 70.506378
0.379608 17.155827 72.113312
0.740643 28.099209 70.859444
0.468657 25.270222 69.887589
0.445282 29.312065 68.405418
0.348171 30.393227 65.733505
4.91507 -37.549416 51.56797
4.135246 -39.962757 50.632713
3.946428 -36.578663 50.236572
1.237356 -30.874313 47.776615
1.604874 -34.591335 47.921722
8.377481 19.219791 78.7994
8.755178 22.930168 77.227242
10.176163 20.485134 77.583374
3.868404 2.0474 83.655457
5.634979 3.95278 83.52359
9.109274 13.149036 80.56897
7.249327 11.673868 81.475113
7.877481 15.469208 80.218018
6.584539 17.676311 79.660164
-1.153494 1.821852 46.69101
-1.949247 -0.766378 45.47168
-2.673037 -3.474983 44.21814
-2.780523 0.741974 43.662102
-0.927258 17.868027 42.659828
-1.079834 13.92643 43.989868
-1.856695 15.531887 41.754982
-4.280882 11.902742 37.492531
-3.556028 10.518822 39.774071
-4.28414 7.766451 38.692078
-4.233271 3.566799 39.690147
-4.930464 4.818178 37.550484
2.383131 39.438622 43.337795
4.846445 -52.2435 63.209259
3.661053 -44.505241 69.28907
4.520149 -46.491245 67.695763
4.435835 -43.690147 66.613441
5.609753 -38.943581 60.601807
5.734022 -42.040482 61.471085
6.122597 -41.19294 59.080956
6.20978 -43.397915 57.720779
6.258703 -40.321823 56.867203
6.105011 -39.423912 54.866486
6.156466 -37.069767 56.183403
5.098274 -27.497847 57.182602
5.60458 -30.064388 55.424484
5.210602 -26.339207 55.352661
4.987148 -25.160757 53.725662
4.773809 -22.495005 55.456253
3.871906 -14.568644 55.99736
0.880838 16.259979 65.474533
1.266998 13.206985 63.726379
1.22967 17.208805 62.864487
1.814722 23.013546 56.325661
1.868652 19.086426 57.636246
2.074831 20.069546 55.065491
2.162546 17.22361 53.820427
2.159445 21.114616 52.537994
2.099787 22.240517 50.052246
2.172096 24.967953 51.046455
2.037279 35.320629 48.236816
2.244421 32.465771 47.506378
2.307301 36.039909 45.493301
2.453812 36.760677 42.887341
-0.244789 -14.762459 47.643948
0.107683 -18.909472 47.653828
-1.036413 -17.588482 46.428303
0.557539 36.313866 34.259285
0.004059 37.969429 31.633476
0.967831 39.636753 32.634373
1.387182 42.851292 31.176252
1.909058 32.007809 41.707867
1.280685 29.827881 41.006363
1.541557 33.299675 39.254307
1.079609 34.738705 36.789078
1.275593 30.767635 71.481354
3.344814 13.800827 80.139244
2.042524 11.503595 79.687805
2.416553 15.547928 78.855377
1.635939 17.165924 77.311028
1.039501 18.650337 75.500771
0.644295 20.00034 73.43161
1.176409 22.702255 74.392761
1.253576 26.738327 73.050018
4.38982 -30.424147 51.010788
3.671904 -33.021282 49.971573
3.32955 -29.304409 49.835648
2.119722 -28.162817 48.757271
0.859608 -27.001698 47.693657
10.933588 14.358925 79.307739
11.486448 17.940186 77.746994
12.653589 15.302578 77.73188
9.381319 0.915182 83.231247
8.469183 3.302456 83.170258
7.511648 5.616776 82.961105
10.241085 10.722414 80.728264
-1.200811 5.897223 46.014496
-2.42734 21.046932 37.888466
-2.613718 17.102367 39.429798
-3.355291 18.599396 37.019119
-4.219183 15.976868 36.099236
1.685608 38.315956 48.934769
1.719116 41.920467 46.595215
1.26016 41.425499 49.598061
3.806637 -55.327969 66.576622
4.540941 -52.891945 65.687622
5.119438 -50.373734 64.660942
3.026581 -38.57135 67.361961
4.218014 -40.738014 65.620598
3.912252 -37.618752 64.779419
4.719353 -36.655067 62.2873
5.371698 -35.674786 59.918755
5.795219 -34.673012 57.710602
5.052738 -32.236256 59.449631
4.682142 -28.636314 59.201576
4.285175 -24.889889 59.161339
0.798374 24.273808 63.206291
1.17679 21.193748 61.752731
1.105721 25.166641 60.398338
1.440466 26.039993 57.58242
1.76129 26.917137 54.791275
2.027197 27.818504 52.047157
1.714849 30.783813 53.042198
1.686142 34.592754 51.08699
2.02232 -60.000088 73.944969
1.571974 -61.742653 71.923355
2.308157 -59.219604 71.789818
2.641182 -58.453033 69.552353
-2.297674 -12.000427 44.88401
-2.045069 -16.267851 45.070618
-3.633238 27.848259 30.978634
-3.282721 31.685764 29.062735
-2.842665 35.453487 27.103035
-2.308542 39.141033 25.138
-0.560564 39.632614 28.908064
-1.124487 41.23872 26.094208
-0.973789 46.23455 21.341606
1.253887 17.133583 48.098537
0.537388 14.711498 47.126141
0.664228 18.605911 45.83033
-0.007187 20.153976 43.520485
-0.722567 21.747746 41.151752
0.465273 27.693722 40.267754
-0.46944 25.551273 39.504166
-1.452932 23.350945 38.713848
-2.182535 24.925373 36.203697
-2.908113 26.434895 33.623661
0.328669 35.37114 61.011864
2.539742 -42.496468 70.947357
2.132023 -39.516483 70.006065
1.717724 -36.357262 69.225273
1.334627 -33.010345 68.640633
-0.050928 2.128321 77.61779
1.017326 8.997583 78.765106
0.291006 6.312893 77.403946
0.477753 7.090767 69.087181
0.535675 11.197704 68.687355
0.573965 15.268108 68.035545
0.583677 19.31076 67.12664
0.447689 21.221428 71.125931
0.429998 22.326637 68.620811
0.559599 23.335911 65.963692
0.502487 27.352257 64.552826
0.420523 31.364471 62.900291
4.221361 -43.168087 51.152985
3.29261 -42.337105 49.737732
2.81506 -35.590996 49.047142
1.95224 -38.135201 48.136154
5.591736 23.634079 77.452858
5.802938 27.481503 75.856758
7.27578 25.266537 76.660332
9.023312 26.607719 75.513756
3.060215 3.948645 82.755013
3.760138 7.95747 82.048996
6.49678 7.833532 82.572311
5.437876 9.939871 81.982643
4.370401 11.930094 81.176521
4.88039 15.864918 80.120773
5.286676 19.764374 78.877655
2.676044 -14.732854 51.402184
2.080996 -17.460001 50.017738
1.65991 -13.391956 50.154243
0.549076 -12.010609 48.903168
-0.562185 -10.594247 47.589325
-0.828156 -6.430799 47.442932
-1.596735 -9.15842 46.16724
-2.509756 -7.727944 44.612953
-0.295507 12.327675 46.136917
-1.173784 9.933672 45.113522
-2.033697 7.478151 44.042152
-2.743223 13.096363 40.794876
-2.815313 9.032267 41.960449
-2.828203 4.912958 42.915264
-3.530615 2.19829 41.73119
2.562574 40.332699 38.572224
2.577297 42.734825 36.5564
2.617897 42.78833 38.614655
4.430498 -49.164783 68.791939
5.019835 -48.451725 66.155403
5.511156 -47.741318 63.567062
5.14954 -42.870476 63.995468
5.71076 -44.969509 62.480057
5.849798 -47.026375 61.067451
5.681629 -41.729553 53.733421
5.650644 -38.499046 53.100708
5.487234 -35.092785 52.636795
5.929108 -33.646965 55.698738
5.736694 -32.596169 53.910118
5.213333 -31.521553 52.35331
4.852972 -27.80299 52.246521
4.430984 -23.961786 52.296486
3.972677 -20.028431 52.467361
2.497108 -23.422962 63.476822
3.275188 -22.227978 61.323357
3.88372 -21.01878 59.296745
4.249994 -19.796406 57.414833
4.319586 -18.560846 55.690804
4.067375 -17.309422 54.127022
3.503971 -16.036161 52.708984
3.051132 -12.016472 52.960213
1.698723 11.847456 51.404388
1.683733 10.18033 61.931
1.987047 11.182791 59.544067
1.573696 18.141697 60.242134
1.923605 15.142487 58.712585
2.165201 12.21645 57.190094
2.188133 13.308918 54.876419
2.040384 14.483799 52.599815
1.723057 15.757004 50.347252
1.789362 19.633942 49.070374
1.886744 23.459873 47.599014
2.00865 27.207619 45.962852
2.199638 28.761868 49.363327
2.246954 29.763165 46.746307
2.150347 30.838448 44.19696
2.303936 34.296738 42.344112
2.452288 37.50079 40.455223
1.322054 -20.213486 48.786575
0.479919 -23.00164 47.659882
-0.354076 -25.82748 46.567825
13.770022 9.45813 78.178196
13.413885 7.761404 78.965649
13.413885 7.761404 78.965649
12.580072 7.363091 79.835929
0.821348 12.003145 48.742821
0.811315 10.036634 49.218163
1.16741 11.264976 49.752289
-4.371697 22.602206 32.391872
-4.27245 24.586622 31.494221
0.507054 38.186052 56.898849
0.703025 36.599552 56.469742
0.703025 36.599552 56.469742
0.900787 35.026033 55.965641
0.738133 34.644048 57.491833
0.689828 34.161356 68.2882
0.52476 34.76795 67.0214
0.552334 32.746811 67.953567
0.209595 -31.684747 46.718227
0.820099 -32.230308 47.277666
0.626852 -30.328752 47.217177
-0.347969 -31.184193 46.103632
0.209595 -31.684747 46.718227
6.034045 -0.133356 84.412876
6.994983 0.667184 84.095692
5.619518 0.915945 84.157467
6.034045 -0.133356 84.412876
6.091928 2.871752 83.742611
5.162569 1.996973 83.938446
5.619518 0.915945 84.157467
-4.642907 8.393423 37.563786
-4.282511 9.834596 38.092304
-4.641278 10.461569 36.964012
-4.966069 6.919287 36.992988
-4.607302 6.292314 38.121281
-4.642907 8.393423 37.563786
-5.29159 5.374963 36.434162
-4.966069 6.919287 36.992988
2.109213 40.612607 44.89407
2.261933 40.880713 43.530988
2.230411 39.170517 44.700876
4.929992 -51.926546 62.005265
5.142482 -50.973282 62.681095
1.728234 43.454674 31.874065
1.570812 41.960272 32.457179
1.911864 42.563654 33.154992
1.588091 44.430296 30.540093
1.728234 43.454674 31.874065
2.076705 31.227708 72.5783
1.681473 31.99809 71.600216
1.670825 29.997253 72.459439
9.874928 2.744779 82.627056
10.322962 1.48661 82.571365
9.41886 3.938416 82.596562
8.925251 2.108819 83.200752
9.874928 2.744779 82.627056
8.941205 5.168127 82.59055
9.41886 3.938416 82.596562
11.132744 11.251202 80.007999
10.749866 9.461729 80.721604
11.641526 9.990517 80.001339
-0.775487 7.121727 46.570415
-0.765779 5.113816 46.948932
-4.591379 16.605652 34.864155
-4.15683 17.984199 35.314925
-4.529026 18.612983 34.079844
-4.616974 14.567297 35.611748
-4.591379 16.605652 34.864155
0.829014 42.725401 51.45205
0.635643 42.437308 53.038865
3.621171 -55.671774 67.783669
3.388892 -56.523617 66.921753
3.203426 -56.867422 68.128799
2.333878 -58.734226 73.820949
2.177244 -59.102345 74.930915
2.476797 -58.343984 72.743374
2.165239 -59.609846 72.867393
2.333878 -58.734226 73.820949
3.203426 -56.867422 68.128799
2.806165 -58.086149 68.409618
3.038444 -57.234306 69.271534
-2.595242 -13.485797 44.226452
-2.705206 -11.325309 44.090744
-0.808655 42.980259 25.197321
-0.563999 42.160574 26.638342
-0.248167 43.902113 25.741455
-1.403145 41.988163 24.649867
-0.808655 42.980259 25.197321
-0.733306 45.478174 22.82102
-1.327796 44.486078 22.273566
0.223677 36.436327 62.913014
0.254605 36.910149 61.453804
0.29774 34.897318 62.471074
2.146656 -42.93022 72.298813
2.714258 -43.906727 71.469001
1.483317 -38.438633 70.931583
1.709701 -39.984808 71.345348
1.276168 -36.859022 70.541187
1.924873 -37.936872 69.615669
1.483317 -38.438633 70.931583
0.726194 -31.801564 69.702228
0.88589 -33.54216 69.925636
1.169626 -31.244085 68.452763
0.726194 -31.801564 69.702228
0.396223 2.774878 79.297264
0.628217 1.999747 80.087719
0.851037 4.084607 79.966877
0.284058 3.494029 78.397106
0.061238 1.409169 78.517948
0.396223 2.774878 79.297264
-0.005393 5.577526 75.558357
0.079324 4.898967 76.535454
0.206289 6.991452 76.42685
0.02969 6.216073 74.515599
-0.005393 5.577526 75.558357
0.207792 8.033857 71.222942
0.133778 7.447465 72.354908
0.191166 9.519122 72.197433
0.371466 8.598141 70.076324
0.314078 6.526483 70.233799
0.207792 8.033857 71.222942
4.620289 -42.012407 51.616447
4.607634 -43.576212 51.941746
5.006562 -42.420532 52.405209
2.677306 -40.276478 48.882762
2.779144 -41.918369 49.080757
3.190772 -40.695214 49.539738
1.002381 -38.940899 47.038424
1.577719 -39.400305 47.637783
1.376902 -37.675795 47.536794
0.484136 -38.530756 46.376909
1.002381 -38.940899 47.038424
10.640861 25.868032 74.968643
9.89216 27.129203 74.784973
9.772013 25.346548 75.697426
11.69744 19.704527 76.900848
12.317943 18.353556 76.898865
0.384876 -9.951894 48.891446
0.912073 -10.663068 49.573052
0.747873 -8.604352 49.561329
-1.316185 -5.689542 46.668972
-0.928262 -4.359914 47.300111
-1.416291 -3.618656 46.526151
-2.984796 -4.904286 43.571169
-3.055426 -2.760182 43.315556
-4.183163 1.43651 40.090843
-4.520598 2.058597 39.078972
1.752593 43.646837 45.336445
1.509213 43.48892 46.845734
5.867487 29.397778 74.978065
6.637182 28.252342 75.393364
3.784523 -55.53785 63.421425
3.679411 -55.853775 64.566349
4.123435 -48.207285 69.583916
4.115715 -49.524263 70.11594
6.031631 -45.246151 59.360733
5.919613 -46.662495 59.88343
5.961816 -45.610031 60.544754
5.990595 -44.064097 56.059449
6.053895 -44.474493 57.112049
6.146479 -42.987519 56.668178
5.82308 -43.678437 55.062618
5.990595 -44.064097 56.059449
5.882404 -42.153338 54.674499
5.622305 -43.254652 54.12154
5.82308 -43.678437 55.062618
1.936146 -22.065366 64.647476
2.062242 -24.013168 64.607754
3.102526 -20.253473 61.429531
2.736181 -20.863167 62.475079
3.406792 -19.648874 60.416225
3.579454 -21.623379 60.310051
3.102526 -20.253473 61.429531
3.66218 -16.432973 58.634502
3.483801 -14.416702 58.798042
4.038819 -17.805683 57.562412
3.873355 -18.423696 58.486923
3.66218 -16.432973 58.634502
1.881214 11.206424 52.469612
1.714813 9.88183 51.813488
1.09155 10.702691 65.28154
0.881593 10.191394 66.478927
1.438575 -62.166054 69.855492
1.313171 -62.582105 70.893406
1.697377 -61.326601 70.885441
2.531529 43.825464 35.393304
2.602304 44.065922 36.393972
3.416253 -46.914852 50.519149
3.79992 -45.820417 51.006271
-1.902014 -18.382786 45.139328
-2.343326 -17.766262 44.421349
2.184127 43.118719 33.774157
1.911864 42.563654 33.154992
2.026706 41.624317 34.357271
3.112428 29.498726 74.245209
2.608026 30.353144 73.425449
2.570458 28.372453 74.257283
3.778012 30.518944 74.09914
3.112428 29.498726 74.245209
3.740445 28.538254 74.930973
4.441054 31.508839 73.886146
3.778012 30.518944 74.09914
13.327194 10.850886 78.333492
12.84725 12.181121 78.421245
12.504347 10.449753 79.199982
13.327194 10.850886 78.333492
13.770022 9.45813 78.178196
12.121469 8.660281 79.913586
12.580072 7.363091 79.835929
12.504347 10.449753 79.199982
11.641526 9.990517 80.001339
12.121469 8.660281 79.913586
0.463079 8.790735 48.633483
0.811315 10.036634 49.218163
0.057544 9.560517 47.667514
0.463079 8.790735 48.633483
-4.46826 20.623568 33.25063
-3.997914 21.970169 33.671856
-4.371697 22.602206 32.391872
-4.529026 18.612983 34.079844
-4.46826 20.623568 33.25063
0.846283 38.910071 53.813717
1.045151 39.258122 52.295986
1.064547 37.329588 53.42582
0.650312 40.49657 54.242824
0.846283 38.910071 53.813717
0.635643 42.437308 53.038865
0.650312 40.49657 54.242824
3.898707 -53.905996 69.451046
3.783995 -54.788172 68.594448
3.550417 -55.133404 69.847313
4.138044 -52.650526 69.009415
3.898707 -53.905996 69.451046
4.407675 -51.39567 68.525276
4.401916 -52.305908 67.714043
4.138044 -52.650526 69.009415
1.084334 35.414079 54.479152
1.119442 33.458576 55.501244
0.900787 35.026033 55.965641
1.064547 37.329588 53.42582
1.283201 35.76213 52.961422
1.084334 35.414079 54.479152
3.111353 -55.845711 72.272392
2.838628 -57.10059 72.536377
3.348475 -55.492021 71.039867
3.111353 -55.845711 72.272392
3.550417 -55.133404 69.847313
3.233763 -56.374197 70.183269
3.348475 -55.492021 71.039867
0.493733 43.878636 27.811059
0.242007 42.223543 28.57548
0.739251 43.019751 29.204062
0.291197 44.765457 26.378655
0.493733 43.878636 27.811059
-0.248167 43.902113 25.741455
0.291197 44.765457 26.378655
0.348894 35.374246 65.712494
0.288667 35.909292 64.334251
0.327039 33.888451 65.308526
0.348894 35.374246 65.712494
0.52476 34.76795 67.0214
1.686562 4.525156 81.200135
1.366896 2.484867 81.448975
1.970427 3.700546 81.891777
1.003858 -34.088819 47.35022
1.421115 -32.732824 47.849169
0.820099 -32.230308 47.277666
0.602204 -35.401347 46.858076
1.203219 -35.903862 47.429579
1.003858 -34.088819 47.35022
0.255405 -36.761385 46.30636
0.602204 -35.401347 46.858076
4.279281 1.044283 84.004379
3.421648 0.052897 83.979844
4.751691 3.00009 83.589523
4.279281 1.044283 84.004379
5.162569 1.996973 83.938446
1.76168 -10.00243 50.913669
2.05957 -8.670345 51.633786
0.584855 -6.571762 49.552662
0.747873 -8.604352 49.561329
-1.090931 -0.233588 46.92415
-0.691298 1.052786 47.551346
-1.488808 -1.527703 46.314486
-1.090931 -0.233588 46.92415
-1.55137 0.527737 46.081345
-1.87673 -2.857331 45.683346
-1.416291 -3.618656 46.526151
-1.488808 -1.527703 46.314486
-3.109169 -0.651704 43.037537
-3.055426 -2.760182 43.315556
-2.72678 -1.366505 43.940121
-4.869194 2.684286 38.00914
-4.520598 2.058597 39.078972
-4.581867 4.192488 38.620316
-5.217524 3.241789 36.950085
-4.869194 2.684286 38.00914
-5.217524 3.241789 36.950085
-5.29159 5.374963 36.434162
2.421276 41.030459 42.188783
2.506387 41.271333 40.925133
2.468243 39.679497 42.074144
2.421276 41.030459 42.188783
2.261933 40.880713 43.530988
4.568833 -53.150013 62.503578
4.196804 -54.365862 62.982822
4.474417 -53.459349 63.688503
4.568833 -53.150013 62.503578
4.929992 -51.926546 62.005265
4.090601 -45.498243 68.492416
4.16826 -46.870515 69.035828
3.738713 -45.877513 69.832482
3.630232 -13.80174 57.874935
3.483801 -14.416702 58.798042
3.652363 -13.178581 57.018619
3.849775 -15.191802 56.853676
3.630232 -13.80174 57.874935
3.66233 -12.558861 56.152313
3.652363 -13.178581 57.018619
3.530585 -11.927435 55.363487
3.740161 -13.937218 55.208534
3.66233 -12.558861 56.152313
3.395595 -11.297481 54.552181
3.530585 -11.927435 55.363487
1.549263 -61.720499 68.865314
1.963331 -60.508533 68.779625
3.061745 -46.577837 49.727493
2.968034 -45.06646 49.508244
1.18908 43.763068 29.807947
0.739251 43.019751 29.204062
0.937353 42.107975 30.572367
1.18908 43.763068 29.807947
1.588091 44.430296 30.540093
1.264442 32.782007 70.588192
0.985348 33.468298 69.457698
0.996498 31.453926 70.35086
1.264442 32.782007 70.588192
1.681473 31.99809 71.600216
2.076705 31.227708 72.5783
2.608026 30.353144 73.425449
12.901513 17.034752 76.891308
12.317943 18.353556 76.898865
12.070018 16.621382 77.739437
13.161843 13.942416 77.643318
12.338996 13.541284 78.509807
12.84725 12.181121 78.421245
13.441469 15.645015 76.808059
13.161843 13.942416 77.643318
12.901513 17.034752 76.891308
13.441469 15.645015 76.808059
9.832172 -0.295505 83.20903
10.322962 1.48661 82.571365
8.857974 -0.920514 83.796467
9.832172 -0.295505 83.20903
8.411205 0.229413 83.7305
8.857974 -0.920514 83.796467
7.955137 1.42305 83.700005
8.411205 0.229413 83.7305
8.925251 2.108819 83.200752
7.509029 2.54659 83.565945
6.994983 0.667184 84.095692
7.955137 1.42305 83.700005
8.462438 6.325287 82.485973
7.990415 4.459616 83.065682
8.941205 5.168127 82.59055
8.893139 8.219938 81.923798
7.94235 7.511427 82.39893
8.462438 6.325287 82.485973
9.827156 8.878106 81.369552
10.749866 9.461729 80.721604
9.307068 10.064246 81.282509
8.893139 8.219938 81.923798
9.827156 8.878106 81.369552
-0.74212 3.07613 47.287189
-0.691298 1.052786 47.551346
-1.177153 3.859538 46.352753
-0.74212 3.07613 47.287189
-0.765779 5.113816 46.948932
-4.647823 12.530234 36.308396
-4.250032 13.939805 36.795884
-4.616974 14.567297 35.611748
-4.641278 10.461569 36.964012
-4.647823 12.530234 36.308396
1.279734 43.241436 48.347156
1.509213 43.48892 46.845734
1.489638 41.672983 48.096638
1.045651 43.018849 49.909138
1.043524 41.132052 51.140973
0.829014 42.725401 51.45205
1.279734 43.241436 48.347156
1.045651 43.018849 49.909138
3.531535 -56.18016 65.770786
3.388892 -56.523617 66.921753
3.954512 -55.001584 65.372185
3.679411 -55.853775 64.566349
3.531535 -56.18016 65.770786
5.278979 -50.038399 63.406937
5.142482 -50.973282 62.681095
4.982941 -51.308617 63.935101
1.930497 -60.385441 74.962704
2.177244 -59.102345 74.930915
1.711807 -61.288422 73.92501
1.930497 -60.385441 74.962704
1.797147 -60.87137 72.934162
1.486635 -62.159705 72.914203
1.711807 -61.288422 73.92501
2.669989 -57.976209 71.582821
2.476797 -58.343984 72.743374
2.838628 -57.10059 72.536377
2.372531 -59.279775 68.632038
1.963331 -60.508533 68.779625
2.231981 -59.681791 69.69994
2.372531 -59.279775 68.632038
2.806165 -58.086149 68.409618
-2.468939 -15.619509 44.319755
-2.171372 -14.134139 44.977314
-2.595242 -13.485797 44.226452
-2.343326 -17.766262 44.421349
-2.468939 -15.619509 44.319755
-3.99684 28.494215 29.625815
-4.138394 26.536348 30.576988
-3.821581 30.412968 28.667865
-3.99684 28.494215 29.625815
-3.457979 29.767011 30.020685
-3.633396 32.341344 27.679144
-3.821581 30.412968 28.667865
-3.413368 34.225206 26.699294
-3.633396 32.341344 27.679144
-3.062693 33.569626 28.082885
-3.1743 36.118704 25.689758
-3.413368 34.225206 26.699294
-2.907238 37.962477 24.707241
-3.1743 36.118704 25.689758
-2.575604 37.29726 26.120517
-2.614395 39.814045 23.694214
-2.907238 37.962477 24.707241
-1.995173 40.939319 24.171763
-1.716515 40.189876 25.616104
-1.403145 41.988163 24.649867
-2.614395 39.814045 23.694214
-1.995173 40.939319 24.171763
-1.600896 45.163057 20.79723
-1.327796 44.486078 22.273566
-1.207679 46.910011 19.830481
-1.600896 45.163057 20.79723
-0.394977 47.173797 21.977846
-0.733306 45.478174 22.82102
-0.591406 47.931278 20.460371
-0.394977 47.173797 21.977846
-1.207679 46.910011 19.830481
-0.591406 47.931278 20.460371
-4.138394 26.536348 30.576988
-4.27245 24.586622 31.494221
-3.767294 25.898533 31.895867
0.287195 37.367071 59.952954
0.393047 37.790285 58.444989
0.43452 35.794353 59.503899
0.287195 37.367071 59.952954
0.254605 36.910149 61.453804
0.223677 36.436327 62.913014
0.288667 35.909292 64.334251
0.689828 34.161356 68.2882
0.985348 33.468298 69.457698
3.274914 -44.911113 70.639858
3.738713 -45.877513 69.832482
3.100397 -43.500855 70.118213
3.274914 -44.911113 70.639858
2.714258 -43.906727 71.469001
1.913561 -41.474801 71.815994
2.146656 -42.93022 72.298813
2.335882 -41.006476 70.476711
1.913561 -41.474801 71.815994
1.709701 -39.984808 71.345348
1.077438 -35.215618 70.217956
1.276168 -36.859022 70.541187
1.526175 -34.683803 68.932953
1.077438 -35.215618 70.217956
0.88589 -33.54216 69.925636
1.638578 -30.707905 67.197533
1.803578 -32.474165 67.385403
1.169626 -31.244085 68.452763
1.466733 -28.915529 67.049046
2.100685 -30.145609 65.981686
1.638578 -30.707905 67.197533
0.801092 1.238304 80.905811
1.366896 2.484867 81.448975
0.801092 1.238304 80.905811
0.628217 1.999747 80.087719
-0.236403 0.022791 77.650375
0.061238 1.409169 78.517948
-0.230568 0.698092 76.664307
-0.236403 0.022791 77.650375
-0.091643 2.806681 76.642376
0.120039 4.220607 77.510868
0.079324 4.898967 76.535454
-0.230568 0.698092 76.664307
-0.091643 2.806681 76.642376
0.02748 6.847433 73.455421
0.02969 6.216073 74.515599
0.119362 8.30137 74.389576
0.02748 6.847433 73.455421
0.133778 7.447465 72.354908
0.444477 5.017133 69.170372
0.314078 6.526483 70.233799
0.671607 5.572734 68.035484
0.444477 5.017133 69.170372
0.677464 7.624502 67.90794
0.671607 5.572734 68.035484
0.706425 9.677971 67.708027
0.677464 7.624502 67.90794
0.506714 9.144236 68.887268
0.710843 11.711127 67.458256
0.881593 10.191394 66.478927
0.706425 9.677971 67.708027
4.206003 -44.682034 51.467843
4.607634 -43.576212 51.941746
3.815278 -44.306471 50.691414
3.79992 -45.820417 51.006271
4.206003 -44.682034 51.467843
2.909741 -43.512585 49.262188
2.968034 -45.06646 49.508244
3.350903 -43.89098 49.983788
2.909741 -43.512585 49.262188
2.779144 -41.918369 49.080757
2.108959 -39.817418 48.279968
2.677306 -40.276478 48.882762
2.520587 -38.594262 48.738948
2.108959 -39.817418 48.279968
1.577719 -39.400305 47.637783
0.484136 -38.530756 46.376909
0.255405 -36.761385 46.30636
7.373603 27.144859 75.795151
6.637182 28.252342 75.393364
6.539359 26.37402 76.258545
8.247369 27.81545 75.221863
7.373603 27.144859 75.795151
8.149546 25.937128 76.087044
9.111065 28.434145 74.591736
8.247369 27.81545 75.221863
9.111065 28.434145 74.591736
9.89216 27.129203 74.784973
11.042298 20.977001 76.819039
10.831305 19.21266 77.665184
11.69744 19.704527 76.900848
11.214573 22.777123 75.9679
10.348439 22.285255 76.732235
11.042298 20.977001 76.819039
11.368806 24.518701 75.063053
11.214573 22.777123 75.9679
10.640861 25.868032 74.968643
11.368806 24.518701 75.063053
3.078956 0.978633 83.489201
3.421648 0.052897 83.979844
2.674862 1.929256 83.038979
3.078956 0.978633 83.489201
3.464309 2.998023 83.205235
2.355488 2.804451 82.447815
2.674862 1.929256 83.038979
2.675154 4.84474 82.198975
1.970427 3.700546 81.891777
2.355488 2.804451 82.447815
1.46749 -11.353741 50.198589
1.954101 -12.040645 50.869324
1.76168 -10.00243 50.913669
1.104493 -12.701283 49.528706
1.46749 -11.353741 50.198589
0.912073 -10.663068 49.573052
0.088703 -5.842586 48.805745
0.584855 -6.571762 49.552662
-0.435713 -5.111397 48.087349
-0.928262 -4.359914 47.300111
-0.30374 -7.161988 48.161327
0.088703 -5.842586 48.805745
-0.435713 -5.111397 48.087349
-2.811247 -9.189068 43.955215
-2.705206 -11.325309 44.090744
-2.403715 -9.864185 44.748481
-2.903156 -7.030767 43.768575
-2.591397 -5.601463 44.415546
-2.984796 -4.904286 43.571169
-2.811247 -9.189068 43.955215
-2.903156 -7.030767 43.768575
-0.322835 10.336953 46.631626
0.057544 9.560517 47.667514
0.084872 11.551239 47.172805
-0.761973 9.139951 46.119929
-0.322835 10.336953 46.631626
-0.734645 11.130674 45.62522
-1.187298 7.915447 45.564009
-0.775487 7.121727 46.570415
-0.761973 9.139951 46.119929
-3.484215 0.076454 42.07208
-3.109169 -0.651704 43.037537
-3.155569 1.470132 42.696646
-3.831835 0.752255 41.111365
-3.881943 2.882544 40.710668
-4.183163 1.43651 40.090843
-3.484215 0.076454 42.07208
-3.831835 0.752255 41.111365
2.622604 44.092674 37.423099
2.602304 44.065922 36.393972
2.597597 42.761578 37.585527
2.538659 42.705313 39.827213
2.585625 41.354351 39.712574
2.506387 41.271333 40.925133
2.569592 44.182945 38.597973
2.538659 42.705313 39.827213
2.622604 44.092674 37.423099
2.569592 44.182945 38.597973
1.929925 42.121635 45.159699
2.109213 40.612607 44.89407
1.898404 40.41144 46.329586
1.929925 42.121635 45.159699
1.752593 43.646837 45.336445
0.507054 38.186052 56.898849
0.393047 37.790285 58.444989
5.169032 30.436262 74.442138
5.104484 28.519987 75.320831
5.867487 29.397778 74.978065
4.441054 31.508839 73.886146
5.169032 30.436262 74.442138
3.784523 -55.53785 63.421425
4.196804 -54.365862 62.982822
4.287151 -50.452535 69.306294
4.115715 -49.524263 70.11594
4.551023 -50.107917 68.010921
4.407675 -51.39567 68.525276
4.287151 -50.452535 69.306294
4.475324 -47.828014 68.243851
4.123435 -48.207285 69.583916
4.16826 -46.870515 69.035828
5.474838 -48.722191 62.859997
5.278979 -50.038399 63.406937
5.315297 -49.057526 64.114002
5.644159 -48.364719 61.610191
5.474838 -48.722191 62.859997
5.680477 -47.383847 62.317256
5.719086 -48.02869 60.407257
5.644159 -48.364719 61.610191
5.719086 -48.02869 60.407257
5.919613 -46.662495 59.88343
6.099604 -44.848265 58.210094
6.031631 -45.246151 59.360733
6.141808 -43.795801 58.871418
6.099604 -44.848265 58.210094
6.053895 -44.474493 57.112049
5.337767 -42.856945 53.231964
5.622305 -43.254652 54.12154
5.350423 -41.29314 52.906666
5.006562 -42.420532 52.405209
5.337767 -42.856945 53.231964
1.333029 -27.061926 66.962013
1.466733 -28.915529 67.049046
1.778109 -26.478303 65.785943
1.333029 -27.061926 66.962013
2.229999 -25.909413 64.614674
2.380731 -27.784343 64.66193
1.778109 -26.478303 65.785943
2.664865 -25.319208 63.483742
2.229999 -25.909413 64.614674
2.062242 -24.013168 64.607754
2.347141 -21.460659 63.551811
1.936146 -22.065366 64.647476
2.886148 -22.82547 62.400089
2.347141 -21.460659 63.551811
2.736181 -20.863167 62.475079
3.690218 -19.034883 59.427879
3.406792 -19.648874 60.416225
4.066857 -20.407593 58.355789
3.690218 -19.034883 59.427879
3.873355 -18.423696 58.486923
3.116953 -10.652821 53.822434
3.329774 -12.661132 53.68996
3.395595 -11.297481 54.552181
2.845269 -10.005536 53.05729
3.116953 -10.652821 53.822434
2.443849 -9.341967 52.369385
2.649711 -11.352903 52.272309
2.845269 -10.005536 53.05729
2.05957 -8.670345 51.633786
2.443849 -9.341967 52.369385
1.42805 10.572961 50.816009
1.714813 9.88183 51.813488
1.438083 12.539471 50.340667
1.16741 11.264976 49.752289
1.42805 10.572961 50.816009
1.282043 11.193908 64.030151
1.09155 10.702691 65.28154
1.076504 12.715768 64.977767
1.490411 9.680581 63.132461
1.282043 11.193908 64.030151
1.475366 11.693658 62.828689
1.717375 8.172902 62.164074
1.490411 9.680581 63.132461
1.877312 8.692265 61.027328
1.717375 8.172902 62.164074
2.02897 9.193495 59.833862
1.877312 8.692265 61.027328
1.83539 10.68156 60.737533
2.116851 9.724238 58.714928
2.02897 9.193495 59.833862
2.205928 10.241067 57.537941
2.116851 9.724238 58.714928
2.076124 11.69962 58.367081
2.206813 10.797048 56.440369
2.205928 10.241067 57.537941
2.218279 11.343283 55.283531
2.206813 10.797048 56.440369
2.176667 12.762684 56.033257
2.125919 11.937155 54.205627
2.218279 11.343283 55.283531
2.052045 12.524596 53.067325
2.125919 11.937155 54.205627
2.114259 13.896358 53.738117
1.869553 13.165627 52.002101
1.881214 11.206424 52.469612
2.052045 12.524596 53.067325
1.2352 -63.034374 71.851212
1.14986 -63.451426 72.84206
1.486635 -62.159705 72.914203
1.2352 -63.034374 71.851212
1.313171 -62.582105 70.893406
1.438575 -62.166054 69.855492
1.549263 -61.720499 68.865314
2.392365 43.547742 34.603323
2.438133 42.457104 35.766419
2.531529 43.825464 35.393304
2.184127 43.118719 33.774157
2.392365 43.547742 34.603323
3.416253 -46.914852 50.519149
3.061745 -46.577837 49.727493
-1.397686 -19.043101 45.818171
-1.540741 -16.928166 45.74946
-1.902014 -18.382786 45.139328
-1.232633 -21.123945 45.852882
-0.87136 -19.669325 46.463014
-1.397686 -19.043101 45.818171
-1.074505 -23.201159 45.910518
-1.232633 -21.123945 45.852882
-0.89839 -25.239815 45.945568
-0.530191 -23.788824 46.532775
-1.074505 -23.201159 45.910518
-0.724631 -27.260008 46.000889
-0.89839 -25.239815 45.945568
-0.539419 -29.237862 46.045845
-0.168864 -27.805335 46.612781
-0.724631 -27.260008 46.000889
-0.347969 -31.184193 46.103632
-0.539419 -29.237862 46.045845
3 0 98 96
3 0 96 99
3 1 102 101
3 1 105 103
3 1 101 105
3 2 109 107
3 387 386 110
3 388 110 389
3 3 390 392
3 390 111 391
3 390 391 392
3 394 393 112
3 4 395 396
3 5 118 116
3 5 120 118
3 4 123 121
3 4 397 399
3 399 398 123
3 397 398 399
3 6 128 126
3 7 132 130
3 6 135 133
3 6 126 135
3 9 400 402
3 402 401 137
3 400 401 402
3 11 140 138
3 12 143 141
3 12 145 143
3 12 147 145
3 9 150 148
3 9 137 150
3 14 154 152
3 15 403 405
3 405 404 155
3 403 404 405
3 15 406 407
3 16 159 157
3 17 408 409
3 17 410 411
3 17 412 414
3 412 161 413
3 412 413 414
3 16 164 162
3 16 157 164
3 19 167 166
3 19 169 167
3 8 172 170
3 415 175 416
3 417 416 173
3 415 416 417
3 418 177 419
3 420 419 175
3 418 419 420
3 422 421 177
3 20 423 425
3 425 424 178
3 423 424 425
3 427 426 179
3 10 182 180
3 21 185 183
3 21 187 185
3 21 189 187
3 22 192 190
3 22 194 192
3 13 198 196
3 23 201 199
3 23 203 201
3 23 205 203
3 20 208 206
3 20 178 208
3 18 212 210
3 24 215 213
3 428 216 429
3 430 429 97
3 428 429 430
3 432 431 216
3 26 219 217
3 24 220 100
3 24 213 220
3 28 433 435
3 435 434 221
3 433 434 435
3 29 224 222
3 31 225 104
3 31 226 225
3 31 228 226
3 28 229 106
3 28 221 229
3 33 232 230
3 35 233 108
3 35 234 233
3 36 237 235
3 436 238 437
3 438 239 439
3 440 439 238
3 438 439 440
3 442 441 239
3 36 443 445
3 443 241 444
3 443 444 445
3 36 235 241
3 446 242 447
3 38 245 243
3 448 246 449
3 450 449 113
3 448 449 450
3 452 451 246
3 40 249 247
3 454 453 114
3 41 455 457
3 455 250 456
3 455 456 457
3 43 251 115
3 43 252 251
3 44 255 253
3 46 256 117
3 46 257 256
3 46 259 257
3 48 260 119
3 48 261 260
3 49 264 262
3 51 265 122
3 51 266 265
3 51 268 266
3 40 269 124
3 40 247 269
3 458 270 459
3 460 272 461
3 462 461 270
3 460 461 462
3 41 273 125
3 41 463 465
3 465 464 273
3 463 464 465
3 467 466 274
3 54 277 276
3 55 278 127
3 55 279 278
3 25 280 214
3 468 281 469
3 470 469 129
3 468 469 470
3 472 471 281
3 473 282 474
3 56 285 283
3 58 286 131
3 58 287 286
3 27 288 218
3 59 289 134
3 59 290 289
3 59 291 290
3 54 292 136
3 54 276 292
3 60 475 477
3 477 476 293
3 475 476 477
3 478 294 479
3 480 295 481
3 482 296 483
3 484 483 295
3 482 483 484
3 485 297 486
3 488 487 297
3 61 489 491
3 491 490 139
3 489 490 491
3 61 492 494
3 492 298 493
3 492 493 494
3 30 299 223
3 62 300 142
3 62 495 497
3 497 496 300
3 495 496 497
3 62 498 499
3 63 500 502
3 502 501 144
3 500 501 502
3 63 503 505
3 503 301 504
3 503 504 505
3 63 302 301
3 65 303 146
3 65 304 303
3 32 305 227
3 66 306 149
3 66 307 306
3 66 308 307
3 60 309 151
3 60 293 309
3 67 506 508
3 506 310 507
3 506 507 508
3 69 311 153
3 69 509 511
3 511 510 311
3 509 510 511
3 34 312 231
3 70 313 156
3 70 512 514
3 514 513 313
3 512 513 514
3 70 515 516
3 71 316 314
3 72 317 158
3 72 517 519
3 519 518 317
3 517 518 519
3 521 520 236
3 73 318 160
3 73 319 318
3 37 320 240
3 74 321 163
3 74 322 321
3 74 323 322
3 71 324 165
3 71 314 324
3 75 327 325
3 77 522 524
3 522 328 523
3 522 523 524
3 77 329 328
3 78 525 527
3 525 330 526
3 525 526 527
3 78 331 330
3 78 332 331
3 529 528 168
3 57 333 284
3 79 334 171
3 79 335 334
3 39 336 244
3 80 337 174
3 80 338 337
3 80 339 338
3 531 530 176
3 81 342 340
3 533 532 248
3 535 534 315
3 42 536 537
3 538 343 539
3 82 344 181
3 82 345 344
3 45 346 254
3 83 347 184
3 83 348 347
3 83 540 542
3 542 541 348
3 540 541 542
3 84 543 545
3 545 544 186
3 543 544 545
3 84 546 547
3 84 548 550
3 548 349 549
3 548 549 550
3 85 350 188
3 85 351 350
3 47 352 258
3 86 353 191
3 86 354 353
3 86 355 354
3 87 356 193
3 87 357 356
3 551 358 552
3 553 359 554
3 555 360 556
3 557 556 359
3 555 556 557
3 88 558 559
3 88 560 562
3 560 361 561
3 560 561 562
3 88 362 361
3 89 363 195
3 89 364 363
3 89 365 364
3 563 366 564
3 64 565 566
3 90 367 197
3 90 368 367
3 50 369 263
3 91 370 200
3 91 371 370
3 91 372 371
3 92 373 202
3 92 374 373
3 92 375 374
3 93 376 204
3 93 377 376
3 52 378 267
3 94 379 207
3 94 380 379
3 94 381 380
3 81 382 209
3 81 340 382
3 53 567 569
3 569 568 271
3 567 568 569
3 571 570 341
3 68 572 573
3 76 383 326
3 95 384 211
3 95 385 384
3 575 574 275
3 96 97 24
3 98 97 96
3 98 576 578
3 578 577 97
3 576 577 578
3 99 100 26
3 96 100 99
3 96 24 100
3 101 579 581
3 581 580 28
3 579 580 581
3 102 582 584
3 584 583 101
3 582 583 584
3 102 585 586
3 103 104 29
3 105 104 103
3 105 31 104
3 105 106 31
3 101 106 105
3 101 28 106
3 107 108 33
3 109 108 107
3 109 35 108
3 110 587 589
3 589 588 36
3 587 588 589
3 591 590 110
3 110 592 593
3 110 594 596
3 594 36 595
3 594 595 596
3 111 597 598
3 111 599 600
3 112 113 38
3 601 113 602
3 603 602 112
3 601 602 603
3 605 604 113
3 606 114 607
3 608 607 40
3 606 607 608
3 609 114 610
3 612 611 114
3 613 115 614
3 615 614 41
3 613 614 615
3 616 115 617
3 618 43 619
3 620 619 115
3 618 619 620
3 116 117 44
3 118 117 116
3 118 46 117
3 118 119 46
3 120 119 118
3 120 48 119
3 121 122 49
3 123 122 121
3 123 51 122
3 123 124 51
3 621 124 622
3 623 622 123
3 621 622 623
3 624 40 625
3 626 625 124
3 624 625 626
3 627 125 628
3 629 125 630
3 631 41 632
3 633 632 125
3 631 632 633
3 126 127 54
3 128 127 126
3 128 55 127
3 634 129 635
3 636 635 25
3 634 635 636
3 637 129 638
3 640 639 129
3 130 131 56
3 132 131 130
3 132 58 131
3 133 134 27
3 135 134 133
3 135 59 134
3 135 136 59
3 126 136 135
3 126 54 136
3 137 641 643
3 643 642 60
3 641 642 643
3 645 644 137
3 138 646 648
3 646 139 647
3 646 647 648
3 140 139 138
3 140 61 139
3 141 142 30
3 143 142 141
3 143 62 142
3 143 144 62
3 145 144 143
3 145 63 144
3 145 146 63
3 147 146 145
3 147 65 146
3 148 149 32
3 150 149 148
3 150 66 149
3 150 151 66
3 137 151 150
3 137 60 151
3 152 153 67
3 154 153 152
3 154 69 153
3 155 156 34
3 649 156 650
3 651 650 155
3 649 650 651
3 652 70 653
3 654 653 156
3 652 653 654
3 656 655 70
3 157 158 71
3 159 158 157
3 159 72 158
3 657 160 658
3 161 659 661
3 659 160 660
3 659 660 661
3 161 73 160
3 162 163 37
3 164 163 162
3 164 74 163
3 164 165 74
3 157 165 164
3 157 71 165
3 663 662 75
3 664 77 665
3 166 666 667
3 167 668 670
3 670 669 166
3 668 669 670
3 167 671 673
3 671 78 672
3 671 672 673
3 167 168 78
3 169 168 167
3 169 674 676
3 676 675 168
3 674 675 676
3 170 171 57
3 172 171 170
3 172 79 171
3 173 174 39
3 175 174 173
3 175 80 174
3 175 176 80
3 177 176 175
3 177 677 679
3 679 678 176
3 677 678 679
3 177 680 681
3 683 682 177
3 178 684 686
3 686 685 81
3 684 685 686
3 688 687 178
3 179 689 691
3 691 690 42
3 689 690 691
3 693 692 179
3 180 694 696
3 694 181 695
3 694 695 696
3 182 181 180
3 182 82 181
3 183 184 45
3 185 184 183
3 185 83 184
3 185 186 83
3 187 186 185
3 187 84 186
3 187 188 84
3 189 188 187
3 189 85 188
3 190 191 47
3 192 191 190
3 192 86 191
3 192 193 86
3 194 193 192
3 194 87 193
3 697 88 698
3 699 195 700
3 701 700 88
3 699 700 701
3 702 195 703
3 704 89 705
3 706 705 195
3 704 705 706
3 708 707 89
3 196 197 64
3 198 197 196
3 198 90 197
3 199 200 50
3 201 200 199
3 201 91 200
3 201 202 91
3 203 202 201
3 203 92 202
3 203 204 92
3 205 204 203
3 205 93 204
3 206 207 52
3 208 207 206
3 208 94 207
3 208 209 94
3 178 209 208
3 178 81 209
3 710 709 53
3 712 711 68
3 210 211 76
3 212 211 210
3 212 95 211
3 213 214 6
3 215 214 213
3 215 25 214
3 97 215 24
3 216 215 97
3 216 25 215
3 216 713 715
3 715 714 25
3 713 714 715
3 717 716 216
3 217 218 7
3 219 218 217
3 219 27 218
3 100 219 26
3 220 219 100
3 220 27 219
3 220 133 27
3 213 133 220
3 213 6 133
3 221 718 720
3 720 719 9
3 718 719 720
3 722 721 221
3 724 723 28
3 222 223 11
3 224 223 222
3 224 30 223
3 104 224 29
3 225 224 104
3 225 30 224
3 225 141 30
3 226 141 225
3 226 12 141
3 226 227 12
3 228 227 226
3 228 32 227
3 106 228 31
3 229 228 106
3 229 32 228
3 229 148 32
3 221 148 229
3 221 9 148
3 230 231 14
3 232 231 230
3 232 34 231
3 108 232 33
3 233 232 108
3 233 34 232
3 233 155 34
3 234 155 233
3 234 15 155
3 235 236 16
3 237 236 235
3 237 725 727
3 727 726 236
3 725 726 727
3 728 237 729
3 730 729 36
3 728 729 730
3 731 237 732
3 734 733 237
3 238 735 736
3 238 737 738
3 238 739 740
3 239 741 743
3 743 742 238
3 741 742 743
3 239 744 746
3 744 17 745
3 744 745 746
3 239 240 17
3 747 240 748
3 749 748 239
3 747 748 749
3 750 37 751
3 752 751 240
3 750 751 752
3 241 753 754
3 241 755 757
3 755 37 756
3 755 756 757
3 241 162 37
3 235 162 241
3 235 16 162
3 758 166 759
3 242 760 762
3 760 166 761
3 760 761 762
3 242 19 166
3 243 244 8
3 245 244 243
3 245 39 244
3 113 245 38
3 246 245 113
3 246 39 245
3 246 173 39
3 763 173 764
3 765 764 246
3 763 764 765
3 767 766 173
3 247 248 20
3 249 248 247
3 249 768 770
3 770 769 248
3 768 769 770
3 114 249 40
3 771 249 772
3 773 772 114
3 771 772 773
3 775 774 249
3 250 776 777
3 250 778 780
3 778 42 779
3 778 779 780
3 115 250 41
3 251 250 115
3 251 42 250
3 251 179 42
3 252 179 251
3 252 781 783
3 783 782 179
3 781 782 783
3 253 254 10
3 255 254 253
3 255 45 254
3 117 255 44
3 256 255 117
3 256 45 255
3 256 183 45
3 257 183 256
3 257 21 183
3 257 258 21
3 259 258 257
3 259 47 258
3 119 259 46
3 260 259 119
3 260 47 259
3 260 190 47
3 261 190 260
3 261 22 190
3 262 263 13
3 264 263 262
3 264 50 263
3 122 264 49
3 265 264 122
3 265 50 264
3 265 199 50
3 266 199 265
3 266 23 199
3 266 267 23
3 268 267 266
3 268 52 267
3 124 268 51
3 269 268 124
3 269 52 268
3 269 206 52
3 247 206 269
3 247 20 206
3 270 784 785
3 270 786 787
3 270 788 790
3 788 271 789
3 788 789 790
3 272 271 270
3 272 53 271
3 125 791 793
3 791 272 792
3 791 792 793
3 273 272 125
3 273 53 272
3 273 794 796
3 796 795 53
3 794 795 796
3 798 797 273
3 274 275 18
3 799 275 800
3 801 800 274
3 799 800 801
3 803 802 275
3 276 804 805
3 277 806 808
3 808 807 276
3 806 807 808
3 277 809 810
3 127 277 54
3 278 277 127
3 278 811 813
3 813 812 277
3 811 812 813
3 278 814 815
3 279 816 818
3 818 817 278
3 816 817 818
3 279 819 820
3 214 128 6
3 280 128 214
3 280 55 128
3 129 280 25
3 281 280 129
3 281 55 280
3 281 279 55
3 821 279 822
3 823 822 281
3 821 822 823
3 825 824 279
3 282 826 827
3 282 828 829
3 830 282 831
3 832 282 833
3 835 834 282
3 283 284 3
3 285 284 283
3 285 57 284
3 131 285 56
3 286 285 131
3 286 57 285
3 286 170 57
3 287 170 286
3 287 8 170
3 218 132 7
3 288 132 218
3 288 58 132
3 134 288 27
3 289 288 134
3 289 58 288
3 289 287 58
3 290 287 289
3 290 8 287
3 290 243 8
3 291 243 290
3 291 38 243
3 136 291 59
3 292 291 136
3 292 38 291
3 292 112 38
3 276 112 292
3 276 836 838
3 838 837 112
3 836 837 838
3 293 839 841
3 841 840 4
3 839 840 841
3 843 842 293
3 845 844 60
3 847 846 9
3 848 180 849
3 294 850 852
3 850 180 851
3 850 851 852
3 294 10 180
3 853 294 854
3 295 855 857
3 855 294 856
3 855 856 857
3 295 10 294
3 295 253 10
3 296 253 295
3 296 44 253
3 858 296 859
3 297 860 862
3 860 296 861
3 860 861 862
3 297 44 296
3 297 116 44
3 863 116 864
3 865 864 297
3 863 864 865
3 866 5 867
3 868 867 116
3 866 867 868
3 139 869 870
3 872 871 139
3 298 873 874
3 298 875 876
3 223 140 11
3 299 140 223
3 299 61 140
3 142 299 30
3 300 299 142
3 300 61 299
3 300 298 61
3 877 298 878
3 879 878 300
3 877 878 879
3 881 880 298
3 144 882 884
3 884 883 62
3 882 883 884
3 886 885 144
3 301 887 888
3 301 889 890
3 301 891 892
3 302 893 895
3 895 894 301
3 893 894 895
3 302 896 898
3 896 64 897
3 896 897 898
3 146 302 63
3 303 302 146
3 303 64 302
3 303 196 64
3 304 196 303
3 304 13 196
3 227 147 12
3 305 147 227
3 305 65 147
3 149 305 32
3 306 305 149
3 306 65 305
3 306 304 65
3 307 304 306
3 307 13 304
3 307 262 13
3 308 262 307
3 308 49 262
3 151 308 66
3 309 308 151
3 309 49 308
3 309 121 49
3 293 121 309
3 293 4 121
3 310 899 900
3 310 901 903
3 901 68 902
3 901 902 903
3 153 310 67
3 311 310 153
3 311 68 310
3 311 904 906
3 906 905 68
3 904 905 906
3 908 907 311
3 231 154 14
3 312 154 231
3 312 69 154
3 156 312 34
3 313 312 156
3 313 69 312
3 313 909 911
3 911 910 69
3 909 910 911
3 913 912 313
3 915 914 70
3 314 315 1
3 316 315 314
3 316 916 918
3 918 917 315
3 916 917 918
3 158 316 71
3 317 316 158
3 317 919 921
3 921 920 316
3 919 920 921
3 317 922 923
3 925 924 317
3 236 159 16
3 926 159 927
3 928 927 236
3 926 927 928
3 929 72 930
3 931 930 159
3 929 930 931
3 932 72 933
3 935 934 72
3 160 936 937
3 318 938 940
3 940 939 160
3 938 939 940
3 318 941 942
3 318 943 945
3 943 138 944
3 943 944 945
3 319 138 318
3 319 11 138
3 240 161 17
3 320 161 240
3 320 73 161
3 163 320 37
3 321 320 163
3 321 73 320
3 321 319 73
3 322 319 321
3 322 11 319
3 322 222 11
3 323 222 322
3 323 29 222
3 165 323 74
3 324 323 165
3 324 29 323
3 324 103 29
3 314 103 324
3 314 1 103
3 325 326 2
3 327 326 325
3 327 76 326
3 946 327 947
3 948 947 75
3 946 947 948
3 328 949 951
3 949 327 950
3 949 950 951
3 328 76 327
3 328 210 76
3 329 210 328
3 329 18 210
3 952 77 953
3 330 954 955
3 330 956 958
3 956 77 957
3 956 957 958
3 330 329 77
3 331 329 330
3 331 18 329
3 331 274 18
3 332 274 331
3 332 959 961
3 961 960 274
3 959 960 961
3 168 332 78
3 962 332 963
3 964 963 168
3 962 963 964
3 966 965 332
3 284 111 3
3 333 111 284
3 333 967 969
3 969 968 111
3 967 968 969
3 171 333 57
3 334 333 171
3 334 970 972
3 972 971 333
3 970 971 972
3 334 973 975
3 973 242 974
3 973 974 975
3 335 242 334
3 335 19 242
3 244 172 8
3 336 172 244
3 336 79 172
3 174 336 39
3 337 336 174
3 337 79 336
3 337 335 79
3 338 335 337
3 338 19 335
3 338 169 19
3 339 169 338
3 339 976 978
3 978 977 169
3 976 977 978
3 176 339 80
3 979 339 980
3 981 980 176
3 979 980 981
3 983 982 339
3 340 341 0
3 342 341 340
3 342 984 986
3 986 985 341
3 984 985 986
3 987 342 988
3 989 988 81
3 987 988 989
3 990 342 991
3 993 992 342
3 248 994 996
3 996 995 20
3 994 995 996
3 998 997 248
3 1000 999 4
3 315 102 1
3 1001 102 1002
3 1003 1002 315
3 1001 1002 1003
3 1005 1004 102
3 1007 1006 42
3 343 1008 1009
3 343 1010 1012
3 1010 43 1011
3 1010 1011 1012
3 181 1013 1015
3 1013 343 1014
3 1013 1014 1015
3 344 343 181
3 344 43 343
3 344 252 43
3 345 252 344
3 345 1016 1018
3 1018 1017 252
3 1016 1017 1018
3 254 182 10
3 346 182 254
3 346 82 182
3 184 346 45
3 347 346 184
3 347 82 346
3 347 345 82
3 348 345 347
3 348 1019 1021
3 1021 1020 345
3 1019 1020 1021
3 348 1022 1023
3 1025 1024 348
3 186 1026 1028
3 1028 1027 83
3 1026 1027 1028
3 1030 1029 186
3 349 1031 1032
3 349 1033 1035
3 1033 67 1034
3 1033 1034 1035
3 188 349 84
3 350 349 188
3 350 67 349
3 350 152 67
3 351 152 350
3 351 14 152
3 258 189 21
3 352 189 258
3 352 85 189
3 191 352 47
3 353 352 191
3 353 85 352
3 353 351 85
3 354 351 353
3 354 14 351
3 354 230 14
3 355 230 354
3 355 33 230
3 193 355 86
3 356 355 193
3 356 33 355
3 356 107 33
3 357 107 356
3 357 2 107
3 1036 5 1037
3 1038 5 1039
3 1040 120 1041
3 1042 1041 5
3 1040 1041 1042
3 358 1043 1045
3 1043 120 1044
3 1043 1044 1045
3 358 48 120
3 1046 358 1047
3 359 1048 1050
3 1048 358 1049
3 1048 1049 1050
3 359 48 358
3 359 261 48
3 360 261 359
3 360 22 261
3 1051 360 1052
3 361 1053 1055
3 1053 360 1054
3 1053 1054 1055
3 361 22 360
3 361 194 22
3 362 194 361
3 362 87 194
3 195 362 88
3 363 362 195
3 363 87 362
3 363 357 87
3 364 357 363
3 364 2 357
3 364 325 2
3 365 325 364
3 365 75 325
3 1056 365 1057
3 1058 1057 89
3 1056 1057 1058
3 1059 365 1060
3 1061 75 1062
3 1063 1062 365
3 1061 1062 1063
3 1065 1064 75
3 366 1066 1067
3 366 1068 1070
3 1068 3 1069
3 1068 1069 1070
3 197 1071 1073
3 1073 1072 64
3 1071 1072 1073
3 367 1074 1076
3 1076 1075 197
3 1074 1075 1076
3 367 1077 1078
3 367 1079 1080
3 368 1081 1083
3 1083 1082 367
3 1081 1082 1083
3 368 1084 1085
3 263 198 13
3 369 198 263
3 369 90 198
3 200 369 50
3 370 369 200
3 370 90 369
3 370 368 90
3 371 368 370
3 371 1086 1088
3 1088 1087 368
3 1086 1087 1088
3 371 1089 1090
3 372 1091 1093
3 1093 1092 371
3 1091 1092 1093
3 372 1094 1095
3 202 372 91
3 373 372 202
3 373 1096 1098
3 1098 1097 372
3 1096 1097 1098
3 373 1099 1101
3 1099 366 1100
3 1099 1100 1101
3 374 366 373
3 374 3 366
3 374 283 3
3 375 283 374
3 375 56 283
3 204 375 92
3 376 375 204
3 376 56 375
3 376 130 56
3 377 130 376
3 377 7 130
3 267 205 23
3 378 205 267
3 378 93 205
3 207 378 52
3 379 378 207
3 379 93 378
3 379 377 93
3 380 377 379
3 380 7 377
3 380 217 7
3 381 217 380
3 381 26 217
3 209 381 94
3 382 381 209
3 382 26 381
3 382 99 26
3 340 99 382
3 340 0 99
3 271 1102 1104
3 1102 1103 1104
3 1106 1105 271
3 1108 1107 53
3 341 98 0
3 1109 98 1110
3 1111 1110 341
3 1109 1110 1111
3 1113 1112 98
3 1115 1114 68
3 326 109 2
3 383 109 326
3 383 35 109
3 211 383 76
3 384 383 211
3 384 35 383
3 384 234 35
3 385 234 384
3 385 15 234
3 275 212 18
3 1116 212 1117
3 1118 1117 275
3 1116 1117 1118
3 1119 95 1120
3 1121 1120 212
3 1119 1120 1121
3 1122 95 1123
3 1124 385 1125
3 1126 1125 95
3 1124 1125 1126
3 1127 385 1128
3 1129 15 1130
3 1131 1130 385
3 1129 1130 1131
3 1133 1132 15
