ply
format ascii 1.0
element vertex 668
property float x
property float y
property float z
element face 815
property list uchar int vertex_index
end_header
69.877029 -9.418596 30.266304
46.127853 -7.662731 54.712303
66.836197 -10.679463 18.143646
58.054901 -6.176364 38.924961
53.700081 8.191698 44.557236
65.689178 6.592344 24.91814
70.800636 -9.901105 23.503925
69.154465 -17.279436 31.488972
51.377678 -7.044213 45.806515
54.099701 -13.066685 47.26701
46.452023 -14.676192 52.602982
52.356445 0.762735 50.362938
57.494011 1.25563 40.735809
65.229988 -6.698997 33.957001
66.839317 -14.185835 37.854446
61.456291 -12.492791 42.893238
63.198608 1.128195 31.983908
68.987556 -2.326021 25.565765
69.465187 -0.40209 18.239395
70.742874 -9.539621 27.122898
70.250702 -13.832081 27.35297
69.943283 -12.74904 30.803173
48.566063 -7.428116 50.080666
48.481895 -11.004391 48.84996
45.492466 -11.511497 52.760834
49.651226 0.728001 54.911423
49.488037 -3.415765 52.546547
51.998051 -3.222055 47.808472
63.053459 -10.950062 16.854584
61.710403 -6.153815 36.267662
63.219818 -9.549216 38.402786
59.599289 -9.421154 40.547737
52.99865 -16.057346 52.064995
56.680897 -15.455918 49.723038
56.466133 8.276426 39.656025
57.533897 -2.531191 39.055077
60.229912 1.456619 36.172394
60.712139 -2.455576 35.372002
64.079971 -2.947977 32.227051
68.176796 3.710842 20.856949
69.844948 -1.085993 21.697767
67.758705 2.193176 24.562481
64.93132 -17.051647 41.843452
66.768883 -18.629444 38.845787
69.526329 -10.31741 20.376677
54.560383 -6.558615 42.07605
55.759415 -9.772485 42.852219
51.972431 -10.378533 45.560928
50.155891 -13.840148 49.710983
49.081669 -17.02603 54.428528
51.170963 4.804403 52.428291
53.893791 4.679495 47.771675
56.518562 4.82172 42.874001
54.919083 0.93594 45.534302
54.64558 -2.88179 43.236679
68.155853 -7.891078 31.894928
68.620956 -11.495734 33.741329
66.325073 -10.276974 36.187469
64.454025 -13.045429 40.52774
62.630909 -15.916327 44.654137
57.951881 -12.546091 45.072647
59.902653 -15.376598 47.275612
43.29715 -15.474652 56.030495
45.287613 -18.206722 56.962059
62.62315 8.093658 29.726557
59.193283 5.116793 37.95623
62.01738 5.106325 33.128986
64.963394 4.245872 28.544853
66.266815 -0.075745 28.353424
67.284409 -4.212481 29.667625
69.714226 -6.351835 27.852922
69.049889 -5.34484 17.418634
70.563538 -5.376248 20.321432
70.681694 -5.640094 23.92355
68.47789 -15.700169 34.823189
70.35463 -9.438058 28.865263
70.451607 -11.21174 28.909546
70.01255 -10.839113 30.507259
47.302757 -7.559752 52.369331
46.939869 -9.489521 51.350861
45.67646 -9.648007 53.583115
48.248795 -3.473438 54.878021
47.811737 -5.539137 53.607773
49.023438 -5.452621 51.247673
65.05024 -10.827762 17.388725
65.16523 -13.397348 18.884125
59.877197 -6.105158 37.543381
60.602875 -7.794695 38.375408
58.720901 -7.847017 39.558609
52.550934 -17.512667 54.499252
54.377048 -17.123177 53.271843
55.055969 8.190758 42.112007
57.667648 -4.396601 38.752075
59.088177 -2.43931 37.147926
59.367825 -4.316869 37.113777
61.118229 -4.350797 35.606266
66.945152 5.991402 20.893122
67.043129 5.323008 22.748264
68.115379 3.04682 22.693609
66.865837 4.455215 24.604469
63.948341 -18.505676 43.711693
70.345871 -10.111694 21.844437
69.484314 -12.617367 22.140612
70.229095 -12.290451 23.677349
69.748169 -15.604473 29.401747
69.531914 -16.232151 27.689577
52.924873 -6.803998 43.867783
53.184967 -8.507596 43.74263
51.465488 -8.791595 45.416981
47.346199 -12.87257 50.635643
49.100342 -12.521448 49.018333
48.252373 -14.258938 51.092056
49.543869 -15.450846 52.018539
47.615788 -15.938371 53.322868
51.030739 0.738285 52.694176
50.593628 2.801825 53.727455
51.991016 2.769337 51.489021
52.554955 4.716606 50.149139
53.331299 2.766104 49.138252
54.634228 2.815857 46.718544
53.646179 0.825056 47.962166
51.614296 -5.172217 46.652603
53.297688 -3.066645 45.484856
53.011154 -4.975589 44.486687
54.484238 -4.760957 42.440529
66.801094 -7.217981 32.894905
67.259415 -9.009179 34.014824
65.823921 -8.479 35.091263
62.303978 -11.0225 40.650978
63.920052 -11.25169 39.540951
63.025406 -12.690048 41.743416
63.539688 -14.477184 42.630035
62.166283 -14.131823 43.90028
54.846786 -11.463203 44.998749
56.801228 -11.191536 43.864285
56.055603 -12.76075 46.153305
57.680912 -16.751846 50.702782
58.355545 -15.342672 48.518326
59.13736 -16.794682 49.358963
60.473129 -16.997902 47.98114
42.98933 -13.782253 56.365807
57.208527 3.077631 41.820549
57.841755 4.972841 40.409286
58.518921 3.23629 39.396488
61.686966 1.383793 34.022079
61.265465 3.34454 34.686169
62.713634 3.169043 32.433395
63.485168 4.810801 30.789845
64.19873 2.767113 30.282345
65.68837 2.100618 28.271671
64.740402 0.650681 30.083345
64.625343 -4.869088 32.949326
65.735939 -3.475372 30.868301
66.272758 -5.391932 31.788717
67.753593 -6.101869 30.746269
68.57338 2.117586 17.661283
68.777298 -0.214008 16.723917
68.517654 -2.728945 16.276741
69.488815 -2.798965 17.605907
69.984703 -5.341905 18.766384
70.124695 -2.922951 19.12496
69.552094 -1.628599 23.593857
70.35778 -3.427909 22.64912
70.005806 -3.85339 24.587891
70.302094 -5.921188 25.872986
69.411575 -4.424891 26.595619
67.759003 -12.803512 35.788792
68.628426 -13.508846 34.348419
67.763161 -14.915991 36.384369
70.916115 -9.702675 25.292957
70.61409 -11.937985 25.373434
70.671356 -11.574017 27.152294
70.236176 -13.304281 29.105782
69.646507 -14.933146 31.125359
49.923992 -7.256316 47.883606
49.842266 -9.06006 47.24752
48.330086 -9.295003 49.23037
46.914597 -11.275493 50.731842
45.729675 -13.199556 52.406624
51.041611 -1.307083 51.482567
52.312637 -1.235317 49.098732
50.732887 -3.337238 50.175446
50.287659 -5.332918 48.916481
60.913284 -11.041954 16.513327
63.512291 -6.346219 35.077946
64.201294 -8.097267 36.166065
62.444443 -7.871947 37.253483
61.455063 -9.414222 39.471127
60.560486 -10.94645 41.722549
53.49696 -14.589584 49.635704
55.43055 -14.257945 48.510719
54.887794 -15.700594 50.900375
56.093178 -16.864801 52.007507
55.906624 9.817892 37.843136
57.935928 8.392038 37.190369
57.536469 -0.628527 39.761299
58.834263 1.395824 38.415665
58.961136 -0.515026 37.616875
60.455078 -0.499884 35.582905
62.014076 -0.627287 33.671547
63.618393 -0.934984 31.896507
62.387627 -2.61541 33.73053
62.886459 -4.527224 34.220795
67.942497 4.204273 19.071173
69.008934 1.786709 19.332405
69.822807 -0.683958 19.904167
69.128883 1.321808 21.105392
68.933289 0.69808 22.9594
68.445877 -0.097515 24.873915
65.893295 -15.608656 39.883484
66.853218 -16.351046 38.40303
65.919289 -17.799028 40.367775
68.345947 -10.508337 19.138161
66.918671 -13.17007 19.727526
68.373558 -12.910926 20.814909
69.944359 -14.327277 25.639986
56.275215 -6.338317 40.431076
56.8368 -8.003616 40.8311
54.982666 -8.234541 42.218739
53.843445 -10.059367 44.142609
52.887493 -11.794628 46.218178
50.17598 -10.70103 47.12645
50.959599 -12.155943 47.550617
52.119576 -13.435398 48.443672
51.520168 -14.99485 50.796753
51.048492 -16.505758 53.234619
50.647209 -18.016405 55.697998
52.684589 6.562977 48.648308
54.012024 6.488667 46.244659
55.342251 6.508017 43.799603
55.208488 4.714842 45.3358
55.919975 2.924932 44.268875
56.195053 1.088215 43.115902
53.579857 -1.122412 46.699387
54.861069 -0.969513 44.323441
56.17429 -0.794136 42.002701
56.054398 -2.691833 41.087978
56.036865 -4.556543 40.527237
45.027756 -7.756781 57.065796
44.535442 -9.784113 55.891113
69.217216 -8.672034 30.985012
69.365623 -10.320383 31.814941
68.45475 -9.651948 32.929085
67.590485 -10.846105 35.002777
66.670937 -12.163605 37.124413
64.855865 -9.837471 37.315346
65.383713 -11.636215 38.370762
65.730087 -13.551054 39.233978
64.783836 -14.97509 41.292221
63.831947 -16.416346 43.272331
57.689075 -9.549517 41.664001
58.716454 -11.010079 42.783169
59.759571 -12.449501 43.995167
57.285141 -14.024773 47.396637
59.034897 -13.913984 46.269814
60.664215 -13.945383 45.109741
61.324604 -15.567338 45.988464
44.224136 -11.718797 54.913696
44.274315 -13.501163 54.323387
44.791931 -15.082764 54.250481
44.080311 -16.949892 56.237984
45.782036 -16.442179 54.726326
47.146378 -17.599289 55.665581
48.707756 -18.615271 56.880348
64.193146 7.510134 27.272259
56.692463 6.609249 41.336273
58.075649 6.750805 38.867126
59.499847 6.866646 36.397171
59.867607 3.346291 37.013397
60.584023 5.185743 35.525208
60.966198 6.876812 33.930592
62.466 6.700438 31.479548
63.977478 6.267616 29.072262
65.462631 5.528027 26.757671
66.408905 3.377712 26.447235
67.128746 1.147825 26.450563
67.710678 -1.0662 26.833563
65.228981 -1.452036 30.275421
66.785812 -2.198523 28.831348
68.210091 -3.186859 27.593338
68.640465 -5.168156 28.649071
68.983643 -6.994239 29.849236
69.874458 -8.065342 29.167057
66.614365 -8.078172 16.692268
68.153252 -7.985741 17.62446
69.385269 -7.886375 18.792042
70.268654 -7.790622 20.191257
70.787323 -7.711588 21.799143
70.410172 -3.125113 20.815788
70.78627 -5.46803 22.055101
70.955254 -7.667588 23.571524
70.814194 -7.683619 25.444366
70.427673 -7.795396 27.337048
69.403427 -12.148481 32.356857
69.263649 -14.229633 32.79023
68.953735 -16.49855 33.181553
67.636971 -17.16787 36.853157
68.206619 -18.021582 35.242268
46.969795 -6.600934 54.160038
47.225554 -5.574867 54.780414
46.383612 -6.636664 55.332679
53.19619 -18.042611 55.032123
52.321293 -18.26048 55.6861
52.704052 9.07173 44.856324
53.042866 8.248278 45.76858
53.358482 8.994208 43.640652
52.704052 9.07173 44.856324
54.378025 8.191228 43.334621
54.036426 8.993738 42.418037
53.358482 8.994208 43.640652
66.366153 5.957676 23.833202
66.349903 6.38104 22.891915
65.672928 7.015708 23.976853
63.960465 -19.610116 43.878164
63.438877 -19.238279 44.589422
69.097626 -17.649284 30.640897
69.394478 -16.811802 29.597285
69.451317 -16.441955 30.44536
68.836701 -18.490645 31.706546
69.097626 -17.649284 30.640897
58.733113 -17.506838 50.340122
58.409136 -16.773264 50.030873
58.004888 -17.48542 51.012031
59.358314 -17.614793 49.602688
58.733113 -17.506838 50.340122
49.618881 -2.383462 53.17688
48.99926 -2.412298 54.342617
48.868416 -3.444602 53.712284
50.264824 -2.361424 52.014557
50.395668 -1.329121 52.64489
49.618881 -2.383462 53.17688
62.034739 -12.358166 17.360407
60.964651 -12.404112 17.189779
61.983371 -10.996008 16.683955
55.781811 -17.57722 53.102142
55.235113 -16.993989 52.639675
54.923746 -17.706408 53.73431
56.52924 -17.51744 52.392437
55.781811 -17.57722 53.102142
56.186379 9.047159 38.749581
55.160515 9.791739 39.064892
55.440269 9.021006 39.971336
68.870689 -13.899259 22.38744
69.384144 -13.69822 23.093849
69.248669 -16.518332 26.874845
69.055413 -17.466261 27.919149
49.386042 1.779168 55.360992
48.926558 0.714966 55.942112
50.44556 4.855536 53.497196
50.156893 3.854246 54.146778
50.882295 3.803114 53.077873
50.560178 5.855197 52.80941
50.44556 4.855536 53.497196
51.254821 5.759436 51.702702
50.560178 5.855197 52.80941
44.263918 -8.836944 57.648548
44.503628 -7.811125 58.224469
44.503628 -7.811125 58.224469
45.258051 -6.723974 57.651936
66.050679 -14.508143 20.104045
66.897919 -14.352358 20.58372
62.746493 -16.891627 44.903137
63.347012 -17.141636 44.212235
63.231428 -16.166336 43.963234
61.090496 -17.178306 47.278874
60.608845 -17.903773 48.175949
43.664165 -11.814509 56.035019
44.379789 -10.751455 55.402405
43.819818 -10.847167 56.523727
44.683962 -17.578307 56.600021
43.810023 -17.889059 57.283844
44.413674 -18.517474 57.645882
48.527804 -19.441869 58.092918
47.742504 -18.951152 57.470787
49.478108 -19.098114 57.499305
48.527804 -19.441869 58.092918
62.575384 8.681623 28.798656
61.72962 8.895326 30.057609
63.408148 7.801896 28.499408
63.360382 8.389861 27.571506
62.575384 8.681623 28.798656
66.43248 -6.734354 16.034136
65.721161 -8.116033 16.338275
68.41909 -5.355854 16.854125
68.152973 -4.047907 16.283178
68.783772 -4.036892 16.847687
68.60157 -6.66529 17.521547
67.970772 -6.676305 16.957038
68.41909 -5.355854 16.854125
68.03656 -19.214905 35.461428
67.821495 -18.765939 36.261364
68.361477 -18.448997 34.415646
68.03656 -19.214905 35.461428
47.444083 -4.542017 55.415538
47.623993 -3.503722 56.001617
48.030266 -4.506288 54.242897
47.444083 -4.542017 55.415538
47.225554 -5.574867 54.780414
64.112591 -12.211752 17.83054
63.1142 -12.272903 17.56347
64.05185 -10.888912 17.121654
64.170086 -13.496545 18.57824
64.112591 -12.211752 17.83054
65.107735 -12.112555 18.136425
64.197834 -14.760665 19.318643
64.170086 -13.496545 18.57824
54.109247 -17.847866 54.418419
53.463991 -17.317922 53.885548
53.19619 -18.042611 55.032123
54.923746 -17.706408 53.73431
54.109247 -17.847866 54.418419
54.735187 8.978172 41.199327
54.036426 8.993738 42.418037
55.761051 8.233592 40.884016
55.440269 9.021006 39.971336
54.735187 8.978172 41.199327
66.300915 6.715237 21.964344
66.170391 7.041694 21.011329
66.99414 5.657205 21.820693
66.300915 6.715237 21.964344
66.349903 6.38104 22.891915
64.455601 -18.879354 42.983341
64.94709 -18.15234 42.049221
64.43983 -17.778661 42.777572
64.455601 -18.879354 42.983341
63.960465 -19.610116 43.878164
69.756535 -13.534762 23.862217
69.384144 -13.69822 23.093849
69.856705 -12.453909 22.90898
69.28635 -17.125641 28.7412
69.640041 -15.918312 28.545662
69.394478 -16.811802 29.597285
69.055413 -17.466261 27.919149
69.28635 -17.125641 28.7412
60.026199 -17.716403 48.913776
59.805245 -16.896292 48.670051
59.358314 -17.614793 49.602688
60.608845 -17.903773 48.175949
60.026199 -17.716403 48.913776
42.427332 -13.916543 57.434506
43.046762 -12.846237 56.761074
42.481912 -14.816544 57.146698
42.427332 -13.916543 57.434506
42.635823 -15.662744 56.979042
43.14324 -14.628453 56.198151
42.481912 -14.816544 57.146698
45.091625 -19.105959 58.109279
44.413674 -18.517474 57.645882
46.032432 -18.746878 57.511643
45.091625 -19.105959 58.109279
61.828199 8.240369 30.97252
61.72962 8.895326 30.057609
68.208813 2.233011 16.885399
68.002858 3.33938 17.508891
68.310772 1.067214 16.416716
68.208813 2.233011 16.885399
68.675339 0.951789 17.1926
68.283116 -0.151412 16.047327
68.310772 1.067214 16.416716
68.647476 -1.471477 16.500329
68.153293 -1.40888 15.823739
68.283116 -0.151412 16.047327
67.102627 -19.06987 38.063124
66.710717 -19.800028 39.060845
49.035986 -0.33151 55.469799
48.926558 0.714966 55.942112
48.334771 -2.43223 55.453098
47.623993 -3.503722 56.001617
48.334771 -2.43223 55.453098
48.99926 -2.412298 54.342617
49.700475 -0.311579 54.359318
49.035986 -0.33151 55.469799
50.390232 -0.306437 53.250694
50.340982 0.733143 53.802799
49.700475 -0.311579 54.359318
51.036175 -0.284399 52.088372
50.390232 -0.306437 53.250694
50.395668 -1.329121 52.64489
59.833957 -12.474475 17.071902
59.802307 -11.069964 16.422736
59.833957 -12.474475 17.071902
60.964651 -12.404112 17.189779
62.034739 -12.358166 17.360407
63.1142 -12.272903 17.56347
57.323107 -17.460962 51.740074
56.887045 -16.808324 51.355144
56.52924 -17.51744 52.392437
58.004888 -17.48542 51.012031
57.323107 -17.460962 51.740074
54.712609 10.52956 38.093787
55.160515 9.791739 39.064892
55.510548 10.526834 36.878826
54.712609 10.52956 38.093787
56.697377 9.850701 36.613727
55.510548 10.526834 36.878826
57.712029 9.137773 36.287344
56.697377 9.850701 36.613727
56.921276 9.104965 37.516752
58.699232 8.42525 35.950764
57.712029 9.137773 36.287344
66.769851 6.241073 19.976571
66.170391 7.041694 21.011329
67.268524 5.347508 19.065596
66.769851 6.241073 19.976571
67.443825 5.097837 19.982148
67.687416 4.382723 18.213836
67.268524 5.347508 19.065596
68.257938 3.160929 18.366228
68.002858 3.33938 17.508891
67.687416 4.382723 18.213836
65.441075 -18.52603 41.311383
65.425305 -17.425337 41.105614
64.94709 -18.15234 42.049221
65.899693 -18.941381 40.572918
65.441075 -18.52603 41.311383
66.324489 -19.356589 39.811924
66.344086 -18.214236 39.606781
65.899693 -18.941381 40.572918
66.710717 -19.800028 39.060845
66.324489 -19.356589 39.811924
67.625362 -14.222786 21.127412
66.897919 -14.352358 20.58372
67.646115 -13.040498 20.271217
68.315312 -14.046038 21.724588
68.928936 -12.764146 21.477761
68.870689 -13.899259 22.38744
67.625362 -14.222786 21.127412
68.315312 -14.046038 21.724588
69.614167 -14.553176 24.843536
69.756535 -13.534762 23.862217
70.086727 -13.308864 24.658667
69.454892 -15.565895 25.850049
69.738136 -15.279714 26.664782
69.248669 -16.518332 26.874845
69.614167 -14.553176 24.843536
69.454892 -15.565895 25.850049
51.36943 -18.512349 56.285473
52.321293 -18.26048 55.6861
51.599071 -17.764536 55.098625
49.857242 2.816079 54.769008
49.386042 1.779168 55.360992
50.122427 1.764913 54.319439
49.857242 2.816079 54.769008
50.156893 3.854246 54.146778
51.946817 5.715537 50.563125
51.254821 5.759436 51.702702
51.862959 4.760504 51.288715
52.011634 6.638723 49.81271
51.946817 5.715537 50.563125
52.619772 5.639791 49.398724
51.888535 7.543032 49.002106
52.011634 6.638723 49.81271
52.53512 7.433917 47.814115
51.888535 7.543032 49.002106
53.198837 7.396762 46.612291
52.53512 7.433917 47.814115
53.348306 6.525822 47.446483
53.856052 7.340183 45.400948
53.042866 8.248278 45.76858
53.198837 7.396762 46.612291
64.923545 7.560722 25.156128
65.672928 7.015708 23.976853
44.017761 -9.85061 57.061206
44.781599 -8.770447 56.478454
44.263918 -8.836944 57.648548
43.819818 -10.847167 56.523727
44.017761 -9.85061 57.061206
45.833563 -6.683689 56.509426
45.258051 -6.723974 57.651936
45.577804 -7.709756 55.889049
46.383612 -6.636664 55.332679
45.833563 -6.683689 56.509426
65.173958 -14.621782 19.682344
66.04195 -13.283709 19.305826
66.050679 -14.508143 20.104045
64.197834 -14.760665 19.318643
65.173958 -14.621782 19.682344
63.405209 -18.186301 44.431916
63.890144 -17.461011 43.492012
63.347012 -17.141636 44.212235
63.438877 -19.238279 44.589422
63.405209 -18.186301 44.431916
61.516233 -16.463024 46.282536
60.898866 -16.28262 46.984802
61.090496 -17.178306 47.278874
62.169386 -16.637519 45.615372
61.977756 -15.741833 45.3213
61.516233 -16.463024 46.282536
62.746493 -16.891627 44.903137
62.169386 -16.637519 45.615372
43.606733 -12.750525 55.639752
43.664165 -11.814509 56.035019
43.046762 -12.846237 56.761074
42.915115 -16.462477 56.944313
42.635823 -15.662744 56.979042
43.306696 -17.200097 57.048057
43.810023 -17.889059 57.283844
43.688731 -16.212272 56.134239
42.915115 -16.462477 56.944313
43.306696 -17.200097 57.048057
46.961815 -18.443161 56.863404
46.216995 -17.903005 56.31382
46.032432 -18.746878 57.511643
47.927067 -18.10728 56.272965
46.961815 -18.443161 56.863404
47.742504 -18.951152 57.470787
50.447834 -18.79868 56.90813
49.677482 -18.315838 56.289173
49.478108 -19.098114 57.499305
51.36943 -18.512349 56.285473
50.447834 -18.79868 56.90813
64.175529 8.019617 26.333187
63.360382 8.389861 27.571506
64.941162 7.051239 26.095199
64.923545 7.560722 25.156128
64.175529 8.019617 26.333187
59.481192 7.662554 35.554165
58.699232 8.42525 35.950764
58.717888 7.629342 36.79377
60.214367 7.667637 34.320875
59.481192 7.662554 35.554165
60.233023 6.871729 35.163882
60.999724 7.631946 33.074537
60.214367 7.667637 34.320875
61.749624 7.54376 31.849016
60.999724 7.631946 33.074537
61.716099 6.788625 32.70507
62.544575 7.397048 30.603053
61.828199 8.240369 30.97252
61.749624 7.54376 31.849016
60.844089 -9.629153 15.834264
59.802307 -11.069964 16.422736
61.886798 -9.622542 15.996695
60.844089 -9.629153 15.834264
62.956886 -9.576596 16.167323
61.983371 -10.996008 16.683955
61.886798 -9.622542 15.996695
63.940708 -9.551978 16.419433
62.956886 -9.576596 16.167323
64.939099 -9.490828 16.686504
64.05185 -10.888912 17.121654
63.940708 -9.551978 16.419433
65.832302 -9.452967 17.040496
64.939099 -9.490828 16.686504
65.721161 -8.116033 16.338275
67.885029 -2.708239 15.709458
68.153293 -1.40888 15.823739
67.885029 -2.708239 15.709458
68.152973 -4.047907 16.283178
67.201329 -6.72252 16.490942
66.43248 -6.734354 16.034136
67.383809 -8.031956 17.158364
67.201329 -6.72252 16.490942
67.970772 -6.676305 16.957038
67.536671 -18.339083 37.066809
67.202927 -17.898657 37.849472
67.102627 -19.06987 38.063124
67.921795 -17.594726 36.047713
67.536671 -18.339083 37.066809
67.821495 -18.765939 36.261364
68.735035 -17.687482 33.385289
68.580177 -17.260066 34.211911
68.361477 -18.448997 34.415646
68.8354 -18.077925 32.538998
69.0541 -16.888993 32.335262
68.735035 -17.687482 33.385289
68.836701 -18.490645 31.706546
68.8354 -18.077925 32.538998
3 0 77 75
3 1 80 78
3 1 298 300
3 298 82 299
3 298 299 300
3 1 78 82
3 2 85 84
3 3 88 86
3 302 301 89
3 4 303 304
3 4 305 306
3 4 307 309
3 307 91 308
3 307 308 309
3 3 94 92
3 3 86 94
3 5 310 312
3 310 97 311
3 310 311 312
3 5 99 97
3 314 313 100
3 6 103 101
3 7 315 317
3 317 316 104
3 315 316 317
3 7 318 319
3 8 108 106
3 10 111 109
3 10 113 111
3 11 116 114
3 11 118 116
3 11 120 118
3 8 123 121
3 8 106 123
3 13 127 125
3 15 130 128
3 15 132 130
3 9 135 133
3 320 138 321
3 322 321 136
3 320 321 322
3 324 323 138
3 12 143 141
3 16 146 144
3 16 148 146
3 16 150 148
3 13 153 151
3 13 125 153
3 18 156 155
3 18 158 156
3 18 160 158
3 17 163 161
3 17 165 163
3 14 168 166
3 19 171 169
3 21 172 76
3 21 173 172
3 22 176 174
3 24 177 79
3 24 178 177
3 26 325 327
3 327 326 81
3 325 326 327
3 26 328 330
3 328 179 329
3 328 329 330
3 26 181 179
3 22 182 83
3 22 174 182
3 28 331 333
3 333 332 183
3 331 332 333
3 29 186 184
3 31 187 87
3 31 188 187
3 32 191 189
3 334 192 335
3 336 335 90
3 334 335 336
3 338 337 192
3 34 339 341
3 339 193 340
3 339 340 341
3 34 194 193
3 35 197 195
3 37 198 93
3 37 199 198
3 37 201 199
3 29 202 95
3 29 184 202
3 39 203 96
3 39 204 203
3 39 206 204
3 41 207 98
3 41 208 207
3 42 211 209
3 44 214 212
3 343 342 102
3 20 215 170
3 345 344 105
3 45 218 216
3 47 219 107
3 47 220 219
3 23 221 175
3 48 222 110
3 48 223 222
3 48 224 223
3 49 225 112
3 49 226 225
3 25 346 347
3 50 348 350
3 350 349 115
3 348 349 350
3 50 351 352
3 50 353 354
3 51 227 117
3 51 228 227
3 51 230 228
3 53 231 119
3 53 232 231
3 27 233 180
3 54 234 122
3 54 235 234
3 54 236 235
3 45 237 124
3 45 216 237
3 356 355 238
3 357 238 358
3 360 359 213
3 55 242 240
3 57 243 126
3 57 244 243
3 30 245 185
3 58 246 129
3 58 247 246
3 58 248 247
3 59 249 131
3 59 361 363
3 363 362 249
3 361 362 363
3 46 250 217
3 60 251 134
3 60 252 251
3 33 253 190
3 61 254 137
3 61 255 254
3 61 256 255
3 365 364 139
3 366 257 367
3 368 367 239
3 366 367 368
3 62 258 140
3 62 259 258
3 63 369 371
3 369 260 370
3 369 370 371
3 63 261 260
3 63 262 261
3 372 263 373
3 375 374 263
3 64 376 377
3 64 378 380
3 378 264 379
3 378 379 380
3 52 265 229
3 65 266 142
3 65 267 266
3 36 268 196
3 66 269 145
3 66 270 269
3 66 271 270
3 67 272 147
3 67 273 272
3 67 274 273
3 68 275 149
3 68 276 275
3 38 277 200
3 69 278 152
3 69 279 278
3 69 280 279
3 55 281 154
3 55 240 281
3 381 283 382
3 71 383 385
3 385 384 157
3 383 384 385
3 71 386 388
3 386 284 387
3 386 387 388
3 71 285 284
3 72 286 159
3 72 287 286
3 40 288 205
3 73 289 162
3 73 290 289
3 73 291 290
3 70 292 164
3 70 282 292
3 56 293 241
3 74 294 167
3 74 295 294
3 43 296 210
3 389 297 390
3 392 391 297
3 75 76 19
3 77 76 75
3 77 21 76
3 78 79 22
3 80 79 78
3 80 24 79
3 393 81 394
3 82 395 397
3 395 81 396
3 395 396 397
3 82 26 81
3 82 83 26
3 78 83 82
3 78 22 83
3 84 398 400
3 400 399 28
3 398 399 400
3 85 401 403
3 403 402 84
3 401 402 403
3 85 404 405
3 86 87 29
3 88 87 86
3 88 31 87
3 89 90 32
3 406 90 407
3 408 407 89
3 406 407 408
3 410 409 90
3 91 411 412
3 91 413 415
3 413 34 414
3 413 414 415
3 92 93 35
3 94 93 92
3 94 37 93
3 94 95 37
3 86 95 94
3 86 29 95
3 416 96 417
3 97 418 420
3 418 96 419
3 418 419 420
3 97 39 96
3 97 98 39
3 99 98 97
3 99 41 98
3 100 421 423
3 423 422 42
3 421 422 423
3 425 424 100
3 101 102 44
3 103 102 101
3 103 426 428
3 428 427 102
3 426 427 428
3 104 105 20
3 429 105 430
3 431 430 104
3 429 430 431
3 433 432 105
3 106 107 45
3 108 107 106
3 108 47 107
3 109 110 23
3 111 110 109
3 111 48 110
3 111 112 48
3 113 112 111
3 113 49 112
3 114 115 25
3 116 115 114
3 116 50 115
3 116 117 50
3 118 117 116
3 118 51 117
3 118 119 51
3 120 119 118
3 120 53 119
3 121 122 27
3 123 122 121
3 123 54 122
3 123 124 54
3 106 124 123
3 106 45 124
3 125 126 55
3 127 126 125
3 127 57 126
3 128 129 30
3 130 129 128
3 130 58 129
3 130 131 58
3 132 131 130
3 132 59 131
3 133 134 46
3 135 134 133
3 135 60 134
3 136 137 33
3 138 137 136
3 138 61 137
3 138 139 61
3 434 139 435
3 436 435 138
3 434 435 436
3 438 437 139
3 439 140 440
3 441 140 442
3 443 62 444
3 445 444 140
3 443 444 445
3 446 63 447
3 449 448 63
3 450 64 451
3 141 142 52
3 143 142 141
3 143 65 142
3 144 145 36
3 146 145 144
3 146 66 145
3 146 147 66
3 148 147 146
3 148 67 147
3 148 149 67
3 150 149 148
3 150 68 149
3 151 152 38
3 153 152 151
3 153 69 152
3 153 154 69
3 125 154 153
3 125 55 154
3 155 452 453
3 156 454 456
3 456 455 155
3 454 455 456
3 156 457 458
3 156 459 461
3 459 157 460
3 459 460 461
3 158 157 156
3 158 71 157
3 158 159 71
3 160 159 158
3 160 72 159
3 161 162 40
3 163 162 161
3 163 73 162
3 163 164 73
3 165 164 163
3 165 70 164
3 166 167 56
3 168 167 166
3 168 74 167
3 463 462 43
3 169 170 6
3 171 170 169
3 171 20 170
3 76 171 19
3 172 171 76
3 172 20 171
3 172 104 20
3 173 104 172
3 173 7 104
3 174 175 8
3 176 175 174
3 176 23 175
3 79 176 22
3 177 176 79
3 177 23 176
3 177 109 23
3 178 109 177
3 178 10 109
3 464 25 465
3 81 466 467
3 469 468 81
3 470 25 471
3 472 114 473
3 474 473 25
3 472 473 474
3 179 475 477
3 475 114 476
3 475 476 477
3 179 11 114
3 179 180 11
3 181 180 179
3 181 27 180
3 83 181 26
3 182 181 83
3 182 27 181
3 182 121 27
3 174 121 182
3 174 8 121
3 183 478 479
3 481 480 183
3 483 482 28
3 184 185 13
3 186 185 184
3 186 30 185
3 87 186 29
3 187 186 87
3 187 30 186
3 187 128 30
3 188 128 187
3 188 15 128
3 189 190 9
3 191 190 189
3 191 33 190
3 90 191 32
3 192 191 90
3 192 33 191
3 192 136 33
3 484 136 485
3 486 485 192
3 484 485 486
3 488 487 136
3 193 489 490
3 193 491 492
3 193 493 494
3 194 495 497
3 497 496 193
3 495 496 497
3 194 498 499
3 195 196 12
3 197 196 195
3 197 36 196
3 93 197 35
3 198 197 93
3 198 36 197
3 198 144 36
3 199 144 198
3 199 16 144
3 199 200 16
3 201 200 199
3 201 38 200
3 95 201 37
3 202 201 95
3 202 38 201
3 202 151 38
3 184 151 202
3 184 13 151
3 96 500 501
3 203 502 504
3 504 503 96
3 502 503 504
3 203 505 506
3 203 507 509
3 507 155 508
3 507 508 509
3 204 155 203
3 204 18 155
3 204 205 18
3 206 205 204
3 206 40 205
3 98 206 39
3 207 206 98
3 207 40 206
3 207 161 40
3 208 161 207
3 208 17 161
3 209 210 14
3 211 210 209
3 211 43 210
3 510 211 511
3 512 511 42
3 510 511 512
3 513 211 514
3 515 43 516
3 517 516 211
3 515 516 517
3 519 518 43
3 212 213 2
3 214 213 212
3 214 520 522
3 522 521 213
3 520 521 522
3 102 214 44
3 523 214 524
3 525 524 102
3 523 524 525
3 527 526 214
3 170 103 6
3 215 103 170
3 215 528 530
3 530 529 103
3 528 529 530
3 105 215 20
3 531 215 532
3 533 532 105
3 531 532 533
3 535 534 215
3 216 217 3
3 218 217 216
3 218 46 217
3 107 218 45
3 219 218 107
3 219 46 218
3 219 133 46
3 220 133 219
3 220 9 133
3 175 108 8
3 221 108 175
3 221 47 108
3 110 221 23
3 222 221 110
3 222 47 221
3 222 220 47
3 223 220 222
3 223 9 220
3 223 189 9
3 224 189 223
3 224 32 189
3 112 224 48
3 225 224 112
3 225 32 224
3 225 89 32
3 226 89 225
3 226 536 538
3 538 537 89
3 536 537 538
3 115 539 541
3 541 540 25
3 539 540 541
3 543 542 115
3 117 544 546
3 546 545 50
3 544 545 546
3 227 547 549
3 549 548 117
3 547 548 549
3 227 550 551
3 227 552 553
3 228 554 556
3 556 555 227
3 554 555 556
3 228 557 559
3 557 4 558
3 557 558 559
3 228 229 4
3 230 229 228
3 230 52 229
3 119 230 51
3 231 230 119
3 231 52 230
3 231 141 52
3 232 141 231
3 232 12 141
3 180 120 11
3 233 120 180
3 233 53 120
3 122 233 27
3 234 233 122
3 234 53 233
3 234 232 53
3 235 232 234
3 235 12 232
3 235 195 12
3 236 195 235
3 236 35 195
3 124 236 54
3 237 236 124
3 237 35 236
3 237 92 35
3 216 92 237
3 216 3 92
3 560 5 561
3 238 239 1
3 562 239 563
3 564 563 238
3 562 563 564
3 566 565 239
3 238 567 568
3 238 569 571
3 569 1 570
3 569 570 571
3 213 85 2
3 572 85 573
3 574 573 213
3 572 573 574
3 576 575 85
3 240 241 0
3 242 241 240
3 242 56 241
3 126 242 55
3 243 242 126
3 243 56 242
3 243 166 56
3 244 166 243
3 244 14 166
3 185 127 13
3 245 127 185
3 245 57 127
3 129 245 30
3 246 245 129
3 246 57 245
3 246 244 57
3 247 244 246
3 247 14 244
3 247 209 14
3 248 209 247
3 248 42 209
3 131 248 58
3 249 248 131
3 249 42 248
3 249 100 42
3 577 100 578
3 579 578 249
3 577 578 579
3 581 580 100
3 217 88 3
3 250 88 217
3 250 31 88
3 134 250 46
3 251 250 134
3 251 31 250
3 251 188 31
3 252 188 251
3 252 15 188
3 190 135 9
3 253 135 190
3 253 60 135
3 137 253 33
3 254 253 137
3 254 60 253
3 254 252 60
3 255 252 254
3 255 15 252
3 255 132 15
3 256 132 255
3 256 59 132
3 139 256 61
3 582 256 583
3 584 583 139
3 582 583 584
3 585 59 586
3 587 586 256
3 585 586 587
3 589 588 59
3 239 80 1
3 257 80 239
3 257 24 80
3 140 590 592
3 590 257 591
3 590 591 592
3 258 257 140
3 258 24 257
3 258 178 24
3 259 178 258
3 259 10 178
3 593 62 594
3 260 595 596
3 260 597 599
3 597 62 598
3 597 598 599
3 260 259 62
3 261 259 260
3 261 10 259
3 261 113 10
3 262 113 261
3 262 49 113
3 600 262 601
3 602 601 63
3 600 601 602
3 263 603 605
3 603 262 604
3 603 604 605
3 263 49 262
3 263 226 49
3 606 226 607
3 608 607 263
3 606 607 608
3 610 609 226
3 264 611 612
3 264 613 615
3 613 5 614
3 613 614 615
3 229 91 4
3 265 91 229
3 265 34 91
3 142 265 52
3 266 265 142
3 266 34 265
3 266 194 34
3 267 194 266
3 267 616 618
3 618 617 194
3 616 617 618
3 196 143 12
3 268 143 196
3 268 65 143
3 145 268 36
3 269 268 145
3 269 65 268
3 269 267 65
3 270 267 269
3 270 619 621
3 621 620 267
3 619 620 621
3 270 622 623
3 271 624 626
3 626 625 270
3 624 625 626
3 271 627 629
3 627 64 628
3 627 628 629
3 147 271 66
3 272 271 147
3 272 64 271
3 272 264 64
3 273 264 272
3 273 5 264
3 273 99 5
3 274 99 273
3 274 41 99
3 149 274 67
3 275 274 149
3 275 41 274
3 275 208 41
3 276 208 275
3 276 17 208
3 200 150 16
3 277 150 200
3 277 68 150
3 152 277 38
3 278 277 152
3 278 68 277
3 278 276 68
3 279 276 278
3 279 17 276
3 279 165 17
3 280 165 279
3 280 70 165
3 154 280 69
3 281 280 154
3 281 70 280
3 281 282 70
3 240 282 281
3 240 0 282
3 630 183 631
3 632 183 633
3 634 28 635
3 636 635 183
3 634 635 636
3 637 28 638
3 639 84 640
3 641 640 28
3 639 640 641
3 283 642 644
3 642 84 643
3 642 643 644
3 283 2 84
3 157 645 646
3 648 647 157
3 649 283 650
3 284 651 653
3 651 283 652
3 651 652 653
3 284 2 283
3 284 212 2
3 285 212 284
3 285 44 212
3 159 285 71
3 286 285 159
3 286 44 285
3 286 101 44
3 287 101 286
3 287 6 101
3 205 160 18
3 288 160 205
3 288 72 160
3 162 288 40
3 289 288 162
3 289 72 288
3 289 287 72
3 290 287 289
3 290 6 287
3 290 169 6
3 291 169 290
3 291 19 169
3 164 291 73
3 292 291 164
3 292 19 291
3 292 75 19
3 282 75 292
3 282 0 75
3 241 77 0
3 293 77 241
3 293 21 77
3 167 293 56
3 294 293 167
3 294 21 293
3 294 173 21
3 295 173 294
3 295 7 173
3 210 168 14
3 296 168 210
3 296 74 168
3 654 296 655
3 656 655 43
3 654 655 656
3 297 657 659
3 657 296 658
3 657 658 659
3 297 74 296
3 297 295 74
3 660 295 661
3 662 661 297
3 660 661 662
3 663 7 664
3 665 664 295
3 663 664 665
3 667 666 7
