ply
format ascii 1.0
element vertex 174
property float x
property float y
property float z
element face 138
property list uchar int vertex_index
end_header
-47.610806 -77.6539 -24.318581
-47.291183 -83.672485 -21.511875
-51.841789 -63.070328 -29.403946
-46.796982 -93.210663 -16.375093
-51.555832 -69.783859 -25.767029
-47.922935 -70.975952 -27.338482
-48.659538 -87.390015 -17.512241
-48.44511 -89.541061 -16.141026
-46.957977 -91.122345 -17.680016
-47.439331 -80.762245 -22.881458
-45.556087 -84.900833 -22.711308
-45.696404 -81.853531 -23.96452
-45.852413 -78.620193 -25.272873
-49.942848 -63.450508 -29.94405
-49.869881 -66.919418 -28.261997
-48.006302 -67.492165 -28.873825
-48.832497 -85.050049 -18.878941
-47.173286 -86.368134 -20.205914
-48.994518 -82.502991 -20.282757
-49.359192 -76.774651 -23.296913
-51.350151 -72.964233 -23.989826
-51.725826 -66.472252 -27.581318
-49.734367 -70.324631 -26.574833
-47.782143 -74.378143 -25.811497
-47.015034 -89.985031 -18.31069
-47.808757 -89.25618 -17.596128
-47.865814 -88.118866 -18.226802
-46.141979 -91.938744 -18.445162
-47.015034 -89.985031 -18.31069
-48.011143 -65.729923 -29.632933
-48.974575 -65.471337 -29.408938
-48.979416 -63.709095 -30.168045
-47.051367 -67.846638 -29.113771
-48.011143 -65.729923 -29.632933
-49.756241 -83.224148 -18.977156
-49.635024 -84.422852 -18.227444
-49.837252 -81.950619 -19.679064
-48.913507 -83.77652 -19.580849
-49.756241 -83.224148 -18.977156
-50.243961 -76.375378 -22.785628
-49.263679 -78.258297 -22.52442
-47.480568 -92.368775 -15.547062
-48.304632 -90.533974 -15.430029
-47.621046 -91.375862 -16.25806
-46.680826 -94.17128 -15.678487
-47.480568 -92.368775 -15.547062
-45.955174 -95.084099 -16.561961
-46.680826 -94.17128 -15.678487
-46.371349 -85.705169 -21.513361
-46.3124 -87.052994 -20.86038
-47.232234 -85.020309 -20.858894
-44.598602 -87.018173 -22.719468
-44.654984 -85.535111 -23.253107
-51.452991 -71.374046 -24.878428
-52.377947 -71.142288 -24.471098
-52.480788 -69.552101 -25.359699
-50.555763 -71.703838 -25.339025
-50.452923 -73.294025 -24.450424
-51.452991 -71.374046 -24.878428
-51.783807 -64.77129 -28.492632
-52.731355 -64.632614 -28.193552
-52.789337 -62.931652 -29.104866
-46.957294 -73.106746 -26.980044
-46.886898 -74.807842 -26.216551
-47.852539 -72.677048 -26.57499
-48.552324 -88.465538 -16.826633
-49.298716 -87.769867 -16.122874
-49.405929 -86.694344 -16.808481
-46.103004 -93.036721 -17.851416
-46.022507 -94.08088 -17.198954
-46.877479 -92.166504 -17.027555
-46.103004 -93.036721 -17.851416
-46.141979 -91.938744 -18.445162
-44.725142 -84.01146 -23.879714
-44.654984 -85.535111 -23.253107
-45.626245 -83.377182 -23.337914
-44.79571 -82.427536 -24.437008
-44.725142 -84.01146 -23.879714
-44.873714 -80.810867 -25.091185
-44.79571 -82.427536 -24.437008
-45.774408 -80.236862 -24.618696
-44.943037 -79.14112 -25.669632
-44.873714 -80.810867 -25.091185
-52.576554 -67.949661 -26.31831
-52.480788 -69.552101 -25.359699
-47.043606 -69.620942 -28.431574
-47.001923 -71.362835 -27.663902
-47.964619 -69.234059 -28.106153
-47.043606 -69.620942 -28.431574
-47.051367 -67.846638 -29.113771
-49.548544 -85.592835 -17.544094
-49.405929 -86.694344 -16.808481
-48.746017 -86.220032 -18.195591
-49.548544 -85.592835 -17.544094
-49.635024 -84.422852 -18.227444
-47.952293 -86.948883 -18.910153
-47.865814 -88.118866 -18.226802
-48.746017 -86.220032 -18.195591
-48.002891 -85.709091 -19.542428
-47.122688 -87.607925 -19.573639
-47.952293 -86.948883 -18.910153
-49.949888 -80.647522 -20.459339
-49.837252 -81.950619 -19.679064
-49.081342 -81.122467 -21.017342
-49.949888 -80.647522 -20.459339
-48.229675 -81.707214 -21.631901
-48.14285 -83.087738 -20.897316
-49.081342 -81.122467 -21.017342
-48.303749 -80.252094 -22.316692
-47.365257 -82.217365 -22.196666
-48.229675 -81.707214 -21.631901
-48.399262 -78.768448 -23.089185
-48.303749 -80.252094 -22.316692
-49.263679 -78.258297 -22.52442
-52.827777 -61.230217 -30.068167
-52.789337 -62.931652 -29.104866
-51.866684 -61.342759 -30.304722
-52.827777 -61.230217 -30.068167
-50.917214 -61.532849 -30.574774
-50.892319 -63.260418 -29.673998
-51.866684 -61.342759 -30.304722
-49.943073 -61.701456 -30.768669
-50.917214 -61.532849 -30.574774
-48.979416 -63.709095 -30.168045
-49.943073 -61.701456 -30.768669
-49.122618 -88.78611 -15.379867
-49.298716 -87.769867 -16.122874
-49.122618 -88.78611 -15.379867
-48.304632 -90.533974 -15.430029
-45.955174 -95.084099 -16.561961
-46.022507 -94.08088 -17.198954
-46.27769 -88.361481 -20.282494
-47.122688 -87.607925 -19.573639
-46.27769 -88.361481 -20.282494
-46.3124 -87.052994 -20.86038
-45.503801 -86.319344 -22.113077
-46.371349 -85.705169 -21.513361
-46.423635 -84.286659 -22.111591
-45.503801 -86.319344 -22.113077
-44.598602 -87.018173 -22.719468
-52.263329 -72.667434 -23.535492
-52.377947 -71.142288 -24.471098
-51.239441 -74.470169 -23.132084
-52.263329 -72.667434 -23.535492
-50.354671 -74.869442 -23.643369
-50.243961 -76.375378 -22.785628
-51.239441 -74.470169 -23.132084
-49.457443 -75.199234 -24.103967
-50.354671 -74.869442 -23.643369
-50.452923 -73.294025 -24.450424
-48.58325 -75.638858 -24.614801
-48.484999 -77.214275 -23.807747
-49.457443 -75.199234 -24.103967
-52.661551 -66.293858 -27.225454
-52.731355 -64.632614 -28.193552
-51.640829 -68.128056 -26.674174
-52.576554 -67.949661 -26.31831
-52.661551 -66.293858 -27.225454
-49.645031 -71.974224 -25.742928
-50.555763 -71.703838 -25.339025
-50.6451 -70.054245 -26.170931
-48.668919 -74.00098 -25.361259
-49.645031 -71.974224 -25.742928
-48.758255 -72.351387 -26.193165
-47.696474 -76.016021 -25.065039
-48.58325 -75.638858 -24.614801
-48.668919 -74.00098 -25.361259
-45.922033 -76.928867 -25.947239
-46.817278 -76.499168 -25.542185
-46.886898 -74.807842 -26.216551
-44.943037 -79.14112 -25.669632
-45.922033 -76.928867 -25.947239
-46.957294 -73.106746 -26.980044
-47.001923 -71.362835 -27.663902
3 24 8 25
3 26 25 6
3 24 25 26
3 28 27 8
3 0 11 9
3 0 12 11
3 29 15 30
3 31 30 13
3 29 30 31
3 33 32 15
3 34 16 35
3 36 18 37
3 38 37 16
3 36 37 38
3 39 19 40
3 3 41 43
3 43 42 7
3 41 42 43
3 3 44 45
3 3 46 47
3 1 48 50
3 50 49 17
3 48 49 50
3 52 51 10
3 4 53 55
3 53 20 54
3 53 54 55
3 4 56 58
3 58 57 20
3 56 57 58
3 2 59 61
3 59 21 60
3 59 60 61
3 5 22 14
3 5 23 22
3 5 62 64
3 64 63 23
3 62 63 64
3 6 65 67
3 65 7 66
3 65 66 67
3 8 7 6
3 8 3 7
3 8 68 70
3 70 69 3
3 68 69 70
3 72 71 8
3 9 10 1
3 11 10 9
3 11 73 75
3 75 74 10
3 73 74 75
3 11 76 77
3 12 78 80
3 80 79 11
3 78 79 80
3 12 81 82
3 83 4 84
3 13 14 2
3 15 14 13
3 15 5 14
3 15 85 87
3 87 86 5
3 85 86 87
3 89 88 15
3 90 6 91
3 16 92 94
3 92 6 93
3 92 93 94
3 16 95 97
3 97 96 6
3 95 96 97
3 16 98 100
3 98 17 99
3 98 99 100
3 18 17 16
3 18 1 17
3 101 18 102
3 103 18 104
3 105 1 106
3 107 106 18
3 105 106 107
3 108 9 109
3 110 109 1
3 108 109 110
3 19 111 113
3 111 9 112
3 111 112 113
3 19 0 9
3 114 2 115
3 116 2 117
3 118 13 119
3 120 119 2
3 118 119 120
3 121 13 122
3 124 123 13
3 7 125 126
3 128 127 7
3 130 129 3
3 17 131 132
3 134 133 17
3 10 135 137
3 137 136 1
3 135 136 137
3 139 138 10
3 20 140 141
3 20 142 143
3 20 144 146
3 144 19 145
3 144 145 146
3 147 19 148
3 149 148 20
3 147 148 149
3 150 0 151
3 152 151 19
3 150 151 152
3 21 153 154
3 21 155 157
3 155 4 156
3 155 156 157
3 14 21 2
3 22 21 14
3 22 4 21
3 22 158 160
3 160 159 4
3 158 159 160
3 23 161 163
3 163 162 22
3 161 162 163
3 23 164 166
3 164 0 165
3 164 165 166
3 23 12 0
3 167 12 168
3 169 168 23
3 167 168 169
3 171 170 12
3 173 172 5
