ply
format ascii 1.0
element vertex 703
property float x
property float y
property float z
element face 720
property list uchar int vertex_index
end_header
-64.425568 -44.320827 -14.268452
-67.995499 -45.98307 -27.300617
-65.86235 -19.380661 -28.043343
-65.444244 -32.565613 -21.818504
-63.001595 -22.489141 -19.99498
-66.460739 -32.053951 -35.222004
-67.567581 -58.221107 -18.424923
-68.88221 -44.673256 -20.708767
-69.176323 -31.28429 -28.317932
-66.801224 -17.291466 -35.666943
-63.519894 -10.819081 -23.42971
-63.60701 -6.207873 -33.618492
-61.070885 -3.822349 -43.191689
-52.978157 14.701408 -40.266769
-63.330482 -23.838373 -15.952736
-66.253845 -50.0471 -13.234179
-68.285942 -50.636299 -16.375706
-66.927498 -44.541172 -17.516312
-65.90892 -26.036663 -25.041111
-67.950989 -31.779915 -25.09071
-67.902664 -24.919945 -28.465
-68.417343 -24.260529 -31.915455
-67.064713 -18.034071 -31.832405
-64.169724 -13.421401 -18.396557
-60.84034 3.309713 -31.78643
-62.414696 -2.306402 -30.351856
-62.959557 -4.601203 -38.480648
-59.970253 1.82518 -41.293442
-68.009338 -52.381031 -23.018612
-64.869873 -38.736855 -18.229
-64.094597 -20.965462 -24.115128
-58.732956 8.051405 -32.990795
-67.497253 -39.13784 -31.28994
-64.875778 -40.14679 -34.528336
-66.884918 -62.116474 -10.371033
-68.241028 -57.011356 -15.042976
-68.954857 -51.332954 -19.65324
-69.270325 -45.10334 -23.97683
-67.514015 -38.400284 -21.491867
-69.238052 -38.167152 -24.669392
-69.184593 -38.390358 -27.931095
-68.539368 -31.378479 -31.695808
-67.185852 -24.298685 -35.559074
-63.985153 -49.209045 -10.096088
-63.472095 -16.656307 -21.907524
-64.10614 -14.646074 -26.489304
-63.030247 -5.179172 -24.665237
-63.521683 -8.379034 -28.581745
-65.077255 -12.743851 -30.927338
-65.375046 -11.243785 -35.23521
-64.324509 -10.470867 -39.518181
-61.973091 -10.494195 -43.799828
-56.262276 11.066013 -39.175217
-65.372147 -47.158966 -13.812176
-66.612579 -47.378059 -15.401529
-65.650803 -44.467316 -15.909319
-65.970825 -22.713161 -26.559917
-67.032532 -25.445202 -26.765301
-66.920303 -22.048021 -28.358578
-67.592484 -21.470362 -30.140793
-66.607269 -18.653399 -29.944016
-60.095428 4.759466 -34.799259
-61.144386 1.947392 -34.033058
-60.926624 1.081751 -38.646858
-68.059517 -49.247879 -25.203838
-67.039612 -53.016624 -24.659386
-67.023621 -49.842628 -26.830135
-63.127083 -24.759361 -20.850872
-63.898022 -24.108728 -22.813759
-63.395901 -21.746202 -22.071037
-67.050034 -35.611565 -33.245628
-66.258598 -39.635277 -32.947021
-67.31897 -59.049507 -11.098278
-67.664764 -59.638866 -12.701382
-67.977341 -56.496422 -13.410839
-68.614212 -47.728287 -18.58186
-68.827301 -50.94923 -17.995041
-69.099747 -47.960823 -20.206783
-69.156708 -48.2854 -21.861935
-69.298996 -44.833313 -22.329811
-65.148026 -35.711914 -20.074612
-66.217125 -38.583214 -19.883339
-66.512589 -35.426132 -21.727104
-68.786377 -31.471527 -26.694752
-68.733414 -34.896656 -24.921062
-69.277779 -34.75843 -26.518623
-69.445908 -38.20911 -26.28389
-69.343361 -34.756706 -28.1478
-68.942574 -34.906933 -29.818211
-69.083092 -31.249731 -29.982094
-67.719543 -20.760845 -33.768532
-67.996178 -24.189823 -33.710526
-67.141609 -20.683388 -35.649982
-66.210167 -20.789057 -37.576969
-66.071091 -17.211832 -37.639633
-64.646004 -52.020649 -9.525066
-63.655964 -51.399124 -7.986694
-62.967529 -45.917076 -8.83399
-63.749615 -12.097436 -20.876461
-63.561775 -13.72648 -22.710735
-63.689129 -15.648048 -24.209141
-63.64587 -12.600513 -25.148834
-62.899143 -4.095563 -32.194756
-63.027149 -5.30574 -29.510139
-63.605469 -7.24404 -31.121632
-64.183128 -10.44025 -29.960926
-64.417442 -9.458454 -32.307919
-65.367447 -11.920365 -33.091095
-64.471054 -8.59734 -34.616463
-62.177464 -4.100964 -40.854282
-63.689804 -7.405167 -39.154308
-62.787544 -7.123878 -41.398598
-63.282421 -10.393317 -41.665871
-61.575668 -7.049277 -43.623123
-56.187256 11.648243 -36.675358
-54.660225 13.095806 -39.756882
-67.148705 -60.925056 -16.066963
-62.981705 -23.186859 -17.932465
-66.940704 -52.993393 -12.565115
-67.869812 -53.393738 -14.118553
-67.388367 -50.352226 -14.793518
-67.748337 -47.550697 -16.984711
-68.0578 -44.591782 -19.109283
-65.715897 -29.329967 -23.468037
-66.780205 -32.162716 -23.475571
-66.971077 -28.825432 -25.146324
-68.010986 -28.364691 -26.790684
-68.68309 -28.000162 -28.433716
-68.898193 -27.775684 -30.105507
-68.386963 -24.511452 -30.172459
-67.87532 -21.028885 -31.936184
-67.140831 -17.569147 -33.73373
-63.662216 -9.369496 -21.390881
-61.687832 0.581476 -31.107479
-62.077484 -1.019938 -33.166878
-62.666397 -3.006784 -34.834209
-63.420086 -5.313255 -36.070301
-62.234112 -2.080227 -37.421791
-61.528797 -1.352953 -39.955948
-60.513317 -0.84934 -42.435905
-51.241882 15.82996 -40.690434
-67.847694 -55.373024 -20.751789
-63.549141 -41.52441 -14.579891
-64.630768 -41.612839 -16.287642
-63.686062 -38.810585 -16.512861
-64.439728 -29.825006 -21.729321
-64.709732 -26.642433 -23.264278
-64.90316 -23.415077 -24.717293
-64.970108 -20.166067 -26.105797
-59.859676 5.820797 -32.406635
-58.922409 7.358265 -35.481331
-67.810364 -42.60463 -29.320229
-66.88855 -46.538994 -28.922295
-66.633484 -43.127602 -30.951824
-66.919754 -62.784107 -12.014193
-67.601059 -60.254936 -14.367363
-68.094681 -57.58028 -16.724407
-68.46489 -53.794949 -15.719429
-68.657967 -54.241875 -17.370483
-68.44043 -54.765278 -19.057796
-68.668442 -51.810764 -21.336975
-68.793602 -48.717651 -23.535892
-68.815804 -45.491936 -25.641048
-65.926865 -41.604424 -17.940441
-67.226593 -41.543419 -19.55212
-68.333664 -41.484047 -21.143932
-67.768906 -35.135777 -23.333363
-68.568497 -38.244148 -23.078712
-69.095535 -41.480446 -22.738434
-69.421234 -41.57663 -24.353039
-69.286209 -41.798256 -25.99461
-68.724625 -42.147911 -27.656925
-68.505592 -38.708336 -29.6063
-68.144653 -35.201714 -31.524818
-67.629425 -31.657995 -33.451454
-68.639877 -27.718597 -31.826073
-67.95829 -27.834282 -33.601089
-65.864265 -64.430267 -8.068256
-66.445381 -61.444672 -8.803204
-66.596008 -58.44627 -9.567789
-65.806938 -52.547428 -11.042345
-65.053322 -49.675735 -11.675966
-64.225266 -46.852402 -12.196264
-63.239986 -48.641586 -8.476654
-63.370304 -46.437183 -10.538811
-63.457047 -44.06736 -12.580219
-63.265343 -20.452486 -18.840298
-64.071518 -16.057928 -17.942776
-63.271534 -19.585243 -21.007206
-63.597912 -18.702494 -23.186157
-64.173203 -17.806044 -25.337418
-64.877411 -16.912582 -27.4422
-63.341797 -7.959531 -24.076767
-63.147549 -6.601707 -26.795532
-63.463181 -9.577789 -26.010067
-63.886234 -11.498916 -27.572308
-64.61293 -13.667123 -28.729599
-65.564171 -16.054102 -29.500462
-66.086304 -15.274611 -31.525444
-66.320847 -14.622882 -33.537033
-66.188858 -14.142335 -35.555191
-64.247665 -7.901419 -36.895363
-65.032837 -10.753476 -37.374359
-65.666527 -13.860441 -37.594051
-64.783669 -13.781185 -39.656872
-63.60891 -13.883307 -41.730518
-62.226852 -14.124495 -43.779556
-57.619312 9.677475 -36.100399
-49.237385 16.98975 -43.567024
-51.056351 15.865482 -43.228638
-52.868031 14.242691 -42.759674
-60.119507 -7.151313 -45.80555
-60.475761 -10.728778 -45.879581
-60.267692 3.952807 -35.856274
-59.62726 5.389255 -36.28454
-63.064339 -23.624251 -20.422926
-62.924646 -25.051334 -19.852312
-62.861902 -23.916224 -19.424366
-66.111404 -34.071842 -35.081169
-66.406052 -35.850649 -34.092981
-66.755387 -33.832758 -34.233816
-67.649925 -56.247494 -12.625819
-67.648156 -57.772965 -12.254558
-67.32074 -57.524036 -11.469539
-63.425463 -52.416605 -6.931576
-63.879549 -52.799413 -7.681042
-53.807667 13.954739 -38.740428
-52.984112 14.506878 -38.986317
-53.819191 13.898607 -40.011826
-54.648701 13.151937 -38.485485
-53.807667 13.954739 -38.740428
-66.963875 -59.937578 -18.090431
-66.754436 -61.289552 -16.911451
-67.358143 -59.573082 -17.245943
-63.039988 -24.841366 -16.412321
-63.262107 -25.040759 -15.464109
-63.156093 -23.512616 -16.942601
-62.865599 -24.515608 -17.402186
-63.039988 -24.841366 -16.412321
-63.793495 -8.853189 -20.262783
-63.8936 -10.102203 -20.087533
-61.264086 1.945594 -31.446955
-61.572706 1.143206 -29.931217
-61.148961 2.507324 -30.270692
-61.843229 -0.448828 -34.551237
-61.610935 0.463727 -33.599968
-61.37668 1.034837 -34.984327
-62.137686 -1.442251 -35.384902
-62.371941 -2.013361 -34.000543
-61.843229 -0.448828 -34.551237
-61.921543 -0.978972 -36.678693
-62.450254 -2.543506 -36.128
-62.137686 -1.442251 -35.384902
-50.362139 16.145432 -40.841237
-51.258919 15.38916 -39.40378
-67.473548 -54.213881 -22.714733
-67.392727 -55.709877 -21.581322
-67.928516 -53.877027 -21.8852
-66.405693 -54.88101 -24.323435
-66.431748 -53.343622 -25.4371
-63.276064 -38.789129 -15.622348
-63.617601 -40.167498 -15.546376
-63.207603 -40.146042 -14.655862
-64.034922 -28.520474 -21.574396
-63.893763 -30.043852 -20.823629
-64.169924 -26.929187 -22.341875
-64.57473 -28.233719 -22.4968
-64.034922 -28.520474 -21.574396
-59.296316 6.936101 -32.698715
-59.749359 6.023098 -31.142471
-59.185999 7.138402 -31.434551
-65.077042 -41.905438 -33.518166
-65.768451 -41.649681 -32.727508
-65.567188 -39.891034 -33.737679
-64.341962 -42.153489 -34.233176
-65.077042 -41.905438 -33.518166
-66.902336 -62.45029 -11.192613
-66.465653 -63.9704 -10.849388
-66.448234 -63.636584 -10.027808
-67.066658 -26.201514 -35.488691
-67.452877 -27.969313 -34.509698
-67.572071 -26.066484 -34.580082
-66.634918 -24.430435 -36.501014
-67.066658 -26.201514 -35.488691
-65.61562 -20.917628 -38.551071
-65.615341 -19.052359 -38.610117
-65.224063 -65.496689 -6.934026
-65.357079 -65.893898 -7.728583
-64.716877 -66.960319 -6.594354
-66.047619 -61.086231 -8.059259
-65.885402 -62.555984 -7.670097
-66.122932 -59.58703 -8.441552
-66.520694 -59.945471 -9.185496
-66.047619 -61.086231 -8.059259
-65.514862 -53.713991 -9.945498
-66.082122 -54.010219 -10.684731
-63.101107 -48.31756 -7.642755
-63.129292 -49.66816 -7.441277
-63.14539 -45.066052 -10.690002
-63.168916 -46.177129 -9.686401
-62.944002 -44.805998 -9.837591
-63.188761 -43.88114 -11.710705
-63.413675 -45.252271 -11.559515
-63.14539 -45.066052 -10.690002
-63.163998 -42.690331 -12.697492
-63.188761 -43.88114 -11.710705
-63.562427 -19.578521 -18.119601
-63.425747 -20.88379 -17.792234
-64.120621 -14.739664 -18.169666
-64.413837 -15.433909 -16.991743
-64.462941 -14.115645 -17.218633
-63.49802 -17.163387 -20.763984
-63.584924 -15.765547 -21.100246
-63.371814 -18.120775 -21.457365
-63.39774 -18.627855 -20.313826
-63.49802 -17.163387 -20.763984
-63.2305 -5.952143 -23.261902
-63.042254 -4.692043 -23.484633
-63.186022 -6.569351 -24.371002
-63.386274 -7.342322 -22.967666
-63.2305 -5.952143 -23.261902
-62.561152 -3.003988 -28.93033
-62.280519 -1.611395 -29.254637
-57.013863 9.874105 -38.846556
-57.692381 9.179837 -37.309147
-56.940794 10.371744 -37.637808
-49.070549 16.827328 -44.804241
-48.128031 17.371516 -44.918755
-49.980032 16.265194 -44.635048
-50.146868 16.427616 -43.397831
-49.070549 16.827328 -44.804241
-52.816206 13.617787 -43.915323
-51.849173 14.649655 -44.196737
-53.755137 13.211889 -42.469324
-52.816206 13.617787 -43.915323
-59.092321 -5.506607 -46.752552
-59.89888 -5.452196 -45.644115
-59.668484 -10.886468 -46.859287
-59.485157 -9.056995 -46.889995
-60.595237 -12.589629 -45.811208
-59.668484 -10.886468 -46.859287
-66.32267 -48.495346 -28.647503
-66.230934 -46.823464 -29.693469
-63.642069 -24.138395 -15.054796
-63.262107 -25.040759 -15.464109
-60.792171 2.546771 -35.473173
-60.619907 3.353429 -34.416158
-60.267692 3.952807 -35.856274
-61.37668 1.034837 -34.984327
-60.792171 2.546771 -35.473173
-60.68329 2.11395 -37.780073
-61.267799 0.602016 -37.291227
-60.216272 2.611578 -39.189541
-60.68329 2.11395 -37.780073
-59.738087 2.983293 -40.512833
-60.448438 1.453466 -39.97015
-60.216272 2.611578 -39.189541
-66.423752 -51.756624 -26.522474
-66.431748 -53.343622 -25.4371
-67.031617 -51.429626 -25.74476
-62.988276 -26.239599 -20.181057
-62.924646 -25.051334 -19.852312
-63.378599 -25.987651 -21.135172
-62.988276 -26.239599 -20.181057
-63.512552 -24.434044 -21.832315
-63.764069 -25.662335 -22.116616
-63.378599 -25.987651 -21.135172
-58.606556 8.029169 -31.71886
-59.185999 7.138402 -31.434551
-66.010334 -37.862505 -33.943677
-66.654316 -37.623421 -33.096325
-66.406052 -35.850649 -34.092981
-65.318924 -38.118262 -34.734335
-65.567188 -39.891034 -33.737679
-66.010334 -37.862505 -33.943677
-65.545803 -17.263746 -38.641449
-65.615341 -19.052359 -38.610117
-66.140629 -19.000445 -37.608301
-64.374569 -53.110176 -8.450228
-64.934395 -53.450601 -9.186859
-64.150984 -51.709886 -8.75588
-64.374569 -53.110176 -8.450228
-63.879549 -52.799413 -7.681042
-63.035539 -45.61879 -7.960063
-62.964878 -46.955305 -7.821423
-62.945904 -44.566944 -8.946362
-63.035539 -45.61879 -7.960063
-62.944002 -44.805998 -9.837591
-62.945904 -44.566944 -8.946362
-63.723685 -13.486111 -20.584715
-63.933739 -14.148094 -19.344763
-63.95967 -12.759418 -19.636509
-63.629765 -14.300633 -21.501852
-63.723685 -13.486111 -20.584715
-63.655695 -12.911958 -21.793598
-63.516935 -15.191394 -22.309129
-63.584924 -15.765547 -21.100246
-63.629765 -14.300633 -21.501852
-62.808533 -3.848557 -24.938051
-63.042254 -4.692043 -23.484633
-55.412216 12.428156 -36.944723
-56.105657 11.537824 -35.399088
-55.330618 12.317737 -35.668453
-55.42374 12.372025 -38.21612
-55.412216 12.428156 -36.944723
-54.648701 13.151937 -38.485485
-66.498936 -62.576892 -15.735292
-66.853779 -62.203766 -14.886596
-66.498936 -62.576892 -15.735292
-66.754436 -61.289552 -16.911451
-62.851957 -24.265083 -18.393109
-62.735851 -25.593832 -17.862829
-62.865599 -24.515608 -17.402186
-62.99165 -22.838 -18.963723
-62.861902 -23.916224 -19.424366
-62.851957 -24.265083 -18.393109
-65.797829 -32.284958 -36.090725
-66.088249 -30.271492 -36.232918
-67.405258 -53.193565 -13.341834
-67.596161 -54.696152 -12.979676
-67.131607 -54.495979 -12.202957
-64.439751 -12.894975 -17.351909
-64.462941 -14.115645 -17.218633
-64.147355 -12.128156 -18.59037
-64.439751 -12.894975 -17.351909
-63.9373 -11.466173 -19.830323
-63.95967 -12.759418 -19.636509
-64.147355 -12.128156 -18.59037
-63.705916 -10.733466 -21.133671
-63.9373 -11.466173 -19.830323
-63.8936 -10.102203 -20.087533
-61.917088 -0.167456 -29.632448
-61.572706 1.143206 -29.931217
-62.051264 -0.862463 -30.729668
-62.280519 -1.611395 -29.254637
-61.917088 -0.167456 -29.632448
-61.580368 -0.499238 -38.034324
-61.921543 -0.978972 -36.678693
-61.267799 0.602016 -37.291227
-52.115975 15.071154 -39.198149
-51.258919 15.38916 -39.40378
-52.110019 15.265684 -40.478601
-52.984112 14.506878 -38.986317
-52.115975 15.071154 -39.198149
-67.281475 -57.149718 -20.426384
-67.141419 -58.573759 -19.262951
-67.707638 -56.797066 -19.588356
-67.281475 -57.149718 -20.426384
-67.392727 -55.709877 -21.581322
-66.988686 -54.531677 -23.53512
-67.473548 -54.213881 -22.714733
-67.524475 -52.698828 -23.838999
-66.988686 -54.531677 -23.53512
-66.405693 -54.88101 -24.323435
-63.313006 -37.437645 -16.540129
-63.276064 -38.789129 -15.622348
-62.903008 -37.416189 -15.649616
-63.786984 -37.375008 -17.434672
-63.313006 -37.437645 -16.540129
-64.378889 -37.338143 -18.292741
-64.277968 -38.77372 -17.370931
-63.786984 -37.375008 -17.434672
-64.517966 -35.825672 -19.215547
-65.008949 -37.224384 -19.151806
-64.378889 -37.338143 -18.292741
-64.648682 -34.323141 -20.085432
-64.517966 -35.825672 -19.215547
-64.796791 -32.74999 -20.957378
-65.296135 -34.138763 -20.946558
-64.648682 -34.323141 -20.085432
-64.294533 -31.379687 -20.912786
-63.893763 -30.043852 -20.823629
-64.941986 -31.19531 -21.773913
-64.796791 -32.74999 -20.957378
-64.294533 -31.379687 -20.912786
-64.303877 -25.37558 -23.039019
-64.169924 -26.929187 -22.341875
-63.764069 -25.662335 -22.116616
-60.733841 3.707668 -30.55372
-61.148961 2.507324 -30.270692
-60.243509 4.96321 -30.863823
-59.749359 6.023098 -31.142471
-60.350008 4.565255 -32.096533
-60.733841 3.707668 -30.55372
-60.243509 4.96321 -30.863823
-59.040751 6.688655 -36.625576
-59.62726 5.389255 -36.28454
-59.508919 6.058865 -35.140295
-66.103401 -45.117767 -30.708233
-66.230934 -46.823464 -29.693469
-66.761017 -44.833298 -29.937059
-65.955894 -43.395843 -31.72991
-66.446041 -41.381439 -31.949422
-65.768451 -41.649681 -32.727508
-66.103401 -45.117767 -30.708233
-65.955894 -43.395843 -31.72991
-66.111404 -34.071842 -35.081169
-65.797829 -32.284958 -36.090725
-64.619393 -38.363814 -35.539898
-65.318924 -38.118262 -34.734335
-64.141195 -40.382863 -35.25145
-64.619393 -38.363814 -35.539898
-64.341962 -42.153489 -34.233176
-64.141195 -40.382863 -35.25145
-66.340397 -64.335131 -11.689297
-66.465653 -63.9704 -10.849388
-66.739304 -63.133291 -12.860212
-66.340397 -64.335131 -11.689297
-67.079956 -61.868706 -14.036796
-66.739304 -63.133291 -12.860212
-67.260407 -61.519521 -13.190778
-67.374882 -60.589996 -15.217163
-66.853779 -62.203766 -14.886596
-67.079956 -61.868706 -14.036796
-67.923576 -54.94508 -13.764696
-67.649925 -56.247494 -12.625819
-67.596161 -54.696152 -12.979676
-67.288444 -29.881169 -34.434881
-67.793858 -29.746139 -33.526272
-67.452877 -27.969313 -34.509698
-66.704102 -30.079147 -35.320156
-67.045082 -31.855973 -34.336729
-67.288444 -29.881169 -34.434881
-66.088249 -30.271492 -36.232918
-66.704102 -30.079147 -35.320156
-66.147075 -22.675621 -37.509962
-66.634918 -24.430435 -36.501014
-66.698009 -22.543871 -36.568022
-66.147075 -22.675621 -37.509962
-65.61562 -20.917628 -38.551071
-65.937908 -64.79348 -8.87642
-65.357079 -65.893898 -7.728583
-66.374592 -63.27337 -9.219645
-66.448234 -63.636584 -10.027808
-65.937908 -64.79348 -8.87642
-65.594844 -64.048782 -7.302624
-65.224063 -65.496689 -6.934026
-66.154823 -62.937469 -8.43573
-65.594844 -64.048782 -7.302624
-65.885402 -62.555984 -7.670097
-66.959259 -57.222418 -10.704294
-67.32074 -57.524036 -11.469539
-66.957489 -58.747889 -10.333033
-66.093857 -58.117213 -8.833494
-66.122932 -59.58703 -8.441552
-66.476658 -56.95964 -9.947453
-66.093857 -58.117213 -8.833494
-65.974506 -56.630583 -9.213158
-66.959259 -57.222418 -10.704294
-66.476658 -56.95964 -9.947453
-66.649006 -54.233202 -11.446116
-67.131607 -54.495979 -12.202957
-66.373821 -52.77041 -11.80373
-66.649006 -54.233202 -11.446116
-66.082122 -54.010219 -10.684731
-65.226471 -52.284038 -10.283705
-65.514862 -53.713991 -9.945498
-64.934395 -53.450601 -9.186859
-63.33728 -51.046928 -7.196298
-63.425463 -52.416605 -6.931576
-63.447975 -50.020355 -8.231674
-63.33728 -51.046928 -7.196298
-63.129292 -49.66816 -7.441277
-63.103758 -47.279331 -8.655322
-63.101107 -48.31756 -7.642755
-62.964878 -46.955305 -7.821423
-63.210045 -41.418856 -13.697329
-63.503094 -42.795885 -13.580055
-63.163998 -42.690331 -12.697492
-63.207603 -40.146042 -14.655862
-63.210045 -41.418856 -13.697329
-63.749783 -23.017719 -15.37243
-63.642069 -24.138395 -15.054796
-63.458317 -22.576733 -16.348454
-63.749783 -23.017719 -15.37243
-63.283928 -22.250977 -17.338318
-63.156093 -23.512616 -16.942601
-63.458317 -22.576733 -16.348454
-63.123524 -21.819672 -18.386381
-63.283928 -22.250977 -17.338318
-63.425747 -20.88379 -17.792234
-64.361992 -16.678977 -16.827769
-64.413837 -15.433909 -16.991743
-63.965515 -17.381242 -17.670839
-64.361992 -16.678977 -16.827769
-63.884636 -15.466358 -19.117872
-64.120621 -14.739664 -18.169666
-63.933739 -14.148094 -19.344763
-63.797731 -16.864197 -18.78161
-63.884636 -15.466358 -19.117872
-63.965515 -17.381242 -17.670839
-63.797731 -16.864197 -18.78161
-63.394644 -19.061476 -19.230372
-63.562427 -19.578521 -18.119601
-63.268439 -20.018864 -19.923752
-63.394644 -19.061476 -19.230372
-63.39774 -18.627855 -20.313826
-63.546484 -8.047304 -21.624724
-63.793495 -8.853189 -20.262783
-63.502007 -8.664513 -22.733824
-63.546484 -8.047304 -21.624724
-63.386274 -7.342322 -22.967666
-62.868927 -4.440373 -26.087021
-62.808533 -3.848557 -24.938051
-62.867378 -4.503656 -28.509472
-62.561152 -3.003988 -28.93033
-62.720923 -3.806071 -29.930998
-62.927578 -5.15164 -27.152168
-62.867378 -4.503656 -28.509472
-63.087349 -5.953724 -28.152836
-63.088898 -5.89044 -25.730384
-62.868927 -4.440373 -26.087021
-62.927578 -5.15164 -27.152168
-64.902092 -15.548423 -39.650069
-65.545803 -17.263746 -38.641449
-65.42738 -15.496509 -38.648252
-64.314712 -15.599484 -40.686892
-64.902092 -15.548423 -39.650069
-64.19629 -13.832246 -40.693695
-63.674553 -15.724258 -41.689123
-64.314712 -15.599484 -40.686892
-62.983524 -15.844851 -42.713642
-63.674553 -15.724258 -41.689123
-62.917881 -14.003901 -42.755037
-62.271368 -16.015847 -43.688583
-62.983524 -15.844851 -42.713642
-58.093108 8.994924 -33.275152
-58.606556 8.029169 -31.71886
-57.966707 8.972687 -32.003217
-56.820257 10.793343 -35.117434
-56.105657 11.537824 -35.399088
-57.536286 9.807958 -34.829954
-56.820257 10.793343 -35.117434
-56.903284 10.662859 -36.387878
-58.176134 8.86444 -34.545597
-58.093108 8.994924 -33.275152
-57.536286 9.807958 -34.829954
-58.34393 8.020231 -36.999613
-58.27086 8.51787 -35.790865
-57.692381 9.179837 -37.309147
-59.040751 6.688655 -36.625576
-58.34393 8.020231 -36.999613
-48.340105 17.289534 -43.651682
-48.128031 17.371516 -44.918755
-49.35989 16.725327 -42.279532
-48.46261 17.02511 -42.364189
-48.340105 17.289534 -43.651682
-50.239633 16.409855 -42.128729
-50.362139 16.145432 -40.841237
-49.35989 16.725327 -42.279532
-50.943333 15.46105 -44.431219
-49.980032 16.265194 -44.635048
-51.962191 15.054087 -42.994156
-50.943333 15.46105 -44.431219
-51.849173 14.649655 -44.196737
-54.651234 12.638447 -40.967928
-53.764128 13.669249 -41.258278
-53.755137 13.211889 -42.469324
-55.452259 11.62355 -40.677096
-55.46125 12.08091 -39.466049
-54.651234 12.638447 -40.967928
-56.307403 10.411935 -40.33152
-55.452259 11.62355 -40.677096
-57.013863 9.874105 -38.846556
-56.307403 10.411935 -40.33152
-59.13382 3.364001 -41.884664
-59.738087 2.983293 -40.512833
-59.342855 2.078626 -42.580664
-59.13382 3.364001 -41.884664
-59.614387 0.741366 -43.151895
-60.241785 0.48792 -41.864673
-59.342855 2.078626 -42.580664
-59.853323 -0.712172 -43.646076
-59.614387 0.741366 -43.151895
-60.132107 -2.198677 -44.023968
-60.792101 -2.335844 -42.813797
-59.853323 -0.712172 -43.646076
-60.374569 -3.787713 -44.337185
-60.132107 -2.198677 -44.023968
-60.62696 -5.401178 -44.552902
-61.323276 -5.435813 -43.407406
-60.374569 -3.787713 -44.337185
-60.847588 -7.100295 -44.714337
-60.62696 -5.401178 -44.552902
-59.89888 -5.452196 -45.644115
-59.30703 -7.268263 -46.85298
-59.092321 -5.506607 -46.752552
-58.279845 -5.623557 -47.799982
-60.297634 -8.940046 -45.842565
-59.30703 -7.268263 -46.85298
-59.485157 -9.056995 -46.889995
-61.470783 -14.287488 -44.761196
-61.351306 -12.426637 -44.829569
-60.595237 -12.589629 -45.811208
-62.271368 -16.015847 -43.688583
-61.470783 -14.287488 -44.761196
-66.963875 -59.937578 -18.090431
-67.141419 -58.573759 -19.262951
-66.390206 -50.147163 -27.601423
-66.956086 -48.190811 -27.876215
-66.32267 -48.495346 -28.647503
-66.423752 -51.756624 -26.522474
-66.390206 -50.147163 -27.601423
3 0 55 53
3 2 58 56
3 2 60 58
3 214 213 61
3 1 66 64
3 4 215 217
3 215 67 216
3 215 216 217
3 4 69 67
3 5 218 220
3 220 219 70
3 218 219 220
3 221 74 222
3 223 222 72
3 221 222 223
3 7 77 75
3 7 79 77
3 3 82 80
3 8 85 83
3 8 87 85
3 8 89 87
3 9 92 90
3 9 94 92
3 224 96 225
3 10 99 98
3 10 101 99
3 11 104 102
3 11 106 104
3 11 108 106
3 12 111 109
3 12 113 111
3 13 226 227
3 13 228 230
3 228 115 229
3 228 229 230
3 6 231 233
3 233 232 116
3 231 232 233
3 14 234 235
3 14 236 238
3 236 117 237
3 236 237 238
3 15 120 118
3 17 121 54
3 17 122 121
3 18 125 123
3 20 126 57
3 20 127 126
3 20 129 127
3 22 130 59
3 22 131 130
3 239 132 240
3 24 241 243
3 241 133 242
3 241 242 243
3 244 134 245
3 246 245 62
3 244 245 246
3 247 135 248
3 249 248 134
3 247 248 249
3 250 137 251
3 252 251 135
3 250 251 252
3 27 138 63
3 27 139 138
3 253 140 254
3 28 255 257
3 257 256 141
3 255 256 257
3 259 258 65
3 260 144 261
3 262 261 142
3 260 261 262
3 263 145 264
3 265 146 266
3 267 266 145
3 265 266 267
3 30 147 68
3 30 148 147
3 31 268 270
3 268 149 269
3 268 269 270
3 31 150 149
3 32 153 151
3 33 271 273
3 273 272 71
3 271 272 273
3 33 274 275
3 34 276 278
3 276 154 277
3 276 277 278
3 35 155 73
3 35 156 155
3 16 157 119
3 36 158 76
3 36 159 158
3 36 160 159
3 37 161 78
3 37 162 161
3 29 163 143
3 38 164 81
3 38 165 164
3 19 166 124
3 39 167 84
3 39 168 167
3 39 169 168
3 40 170 86
3 40 171 170
3 40 172 171
3 41 173 88
3 41 174 173
3 21 175 128
3 42 176 91
3 42 279 281
3 281 280 176
3 279 280 281
3 42 282 283
3 285 284 93
3 286 177 287
3 286 287 288
3 289 178 290
3 291 179 292
3 293 292 178
3 291 292 293
3 294 180 295
3 43 181 95
3 43 182 181
3 296 183 297
3 298 184 299
3 300 299 97
3 298 299 300
3 301 185 302
3 303 302 184
3 301 302 303
3 305 304 185
3 306 186 307
3 23 308 310
3 308 187 309
3 308 309 310
3 44 311 312
3 44 313 315
3 313 188 314
3 313 314 315
3 44 189 188
3 45 190 100
3 45 191 190
3 46 316 317
3 46 318 320
3 318 192 319
3 318 319 320
3 25 321 322
3 47 193 103
3 47 194 193
3 47 195 194
3 48 196 105
3 48 197 196
3 48 198 197
3 49 199 107
3 49 200 199
3 26 201 136
3 50 202 110
3 50 203 202
3 50 204 203
3 51 205 112
3 51 206 205
3 52 207 114
3 52 323 325
3 325 324 207
3 323 324 325
3 326 208 327
3 328 209 329
3 330 329 208
3 328 329 330
3 331 210 332
3 334 333 210
3 335 211 336
3 337 212 338
3 340 339 212
3 342 341 152
3 343 14 344
3 53 54 15
3 55 54 53
3 55 17 54
3 56 57 18
3 58 57 56
3 58 20 57
3 58 59 20
3 60 59 58
3 60 22 59
3 61 62 24
3 345 62 346
3 347 346 61
3 345 346 347
3 349 348 62
3 350 63 351
3 352 63 353
3 354 27 355
3 356 355 63
3 354 355 356
3 64 65 28
3 66 65 64
3 66 357 359
3 359 358 65
3 357 358 359
3 67 360 361
3 67 362 363
3 67 364 366
3 364 68 365
3 364 365 366
3 69 68 67
3 69 30 68
3 367 31 368
3 70 71 32
3 369 71 370
3 371 370 70
3 369 370 371
3 372 33 373
3 374 373 71
3 372 373 374
3 72 73 34
3 74 73 72
3 74 35 73
3 75 76 16
3 77 76 75
3 77 36 76
3 77 78 36
3 79 78 77
3 79 37 78
3 80 81 29
3 82 81 80
3 82 38 81
3 83 84 19
3 85 84 83
3 85 39 84
3 85 86 39
3 87 86 85
3 87 40 86
3 87 88 40
3 89 88 87
3 89 41 88
3 90 91 21
3 92 91 90
3 92 42 91
3 92 93 42
3 94 93 92
3 94 375 377
3 377 376 93
3 375 376 377
3 378 95 379
3 96 380 382
3 380 95 381
3 380 381 382
3 96 43 95
3 383 97 384
3 385 97 386
3 388 387 97
3 98 389 391
3 391 390 23
3 389 390 391
3 99 392 394
3 394 393 98
3 392 393 394
3 99 395 397
3 395 44 396
3 395 396 397
3 99 100 44
3 101 100 99
3 101 45 100
3 398 46 399
3 102 103 25
3 104 103 102
3 104 47 103
3 104 105 47
3 106 105 104
3 106 48 105
3 106 107 48
3 108 107 106
3 108 49 107
3 109 110 26
3 111 110 109
3 111 50 110
3 111 112 50
3 113 112 111
3 113 51 112
3 400 114 401
3 400 401 402
3 115 403 405
3 403 114 404
3 403 404 405
3 115 52 114
3 116 406 407
3 409 408 116
3 117 410 412
3 410 411 412
3 117 413 415
3 413 4 414
3 413 414 415
3 417 416 5
3 118 418 420
3 418 119 419
3 418 419 420
3 120 119 118
3 120 16 119
3 54 120 15
3 121 120 54
3 121 16 120
3 121 75 16
3 122 75 121
3 122 7 75
3 123 124 3
3 125 124 123
3 125 19 124
3 57 125 18
3 126 125 57
3 126 19 125
3 126 83 19
3 127 83 126
3 127 8 83
3 127 128 8
3 129 128 127
3 129 21 128
3 59 129 20
3 130 129 59
3 130 21 129
3 130 90 21
3 131 90 130
3 131 9 90
3 421 23 422
3 423 23 424
3 425 98 426
3 427 426 23
3 425 426 427
3 132 428 430
3 428 98 429
3 428 429 430
3 132 10 98
3 133 431 432
3 133 433 435
3 433 25 434
3 433 434 435
3 62 133 24
3 134 133 62
3 134 25 133
3 134 102 25
3 135 102 134
3 135 11 102
3 135 136 11
3 137 136 135
3 137 26 136
3 63 436 438
3 436 137 437
3 436 437 438
3 138 137 63
3 138 26 137
3 138 109 26
3 139 109 138
3 139 12 109
3 140 439 440
3 140 441 443
3 441 13 442
3 441 442 443
3 141 444 446
3 446 445 6
3 444 445 446
3 448 447 141
3 65 449 451
3 451 450 28
3 449 450 451
3 453 452 65
3 142 143 0
3 144 143 142
3 144 29 143
3 454 144 455
3 454 455 456
3 457 144 458
3 459 29 460
3 461 460 144
3 459 460 461
3 462 80 463
3 464 463 29
3 462 463 464
3 465 80 466
3 467 3 468
3 469 468 80
3 467 468 469
3 145 470 471
3 145 472 474
3 472 3 473
3 472 473 474
3 145 123 3
3 146 123 145
3 146 18 123
3 68 475 477
3 475 146 476
3 475 476 477
3 147 146 68
3 147 18 146
3 147 56 18
3 148 56 147
3 148 2 56
3 478 24 479
3 149 480 481
3 149 482 484
3 482 24 483
3 482 483 484
3 149 61 24
3 150 61 149
3 150 485 487
3 487 486 61
3 485 486 487
3 151 152 1
3 153 152 151
3 153 488 490
3 490 489 152
3 488 489 490
3 71 153 32
3 491 153 492
3 493 492 71
3 491 492 493
3 495 494 153
3 497 496 5
3 498 33 499
3 500 33 501
3 503 502 33
3 154 504 505
3 154 506 507
3 73 154 34
3 155 154 73
3 155 508 510
3 510 509 154
3 508 509 510
3 155 511 513
3 511 116 512
3 511 512 513
3 156 116 155
3 156 6 116
3 119 514 516
3 514 74 515
3 514 515 516
3 157 74 119
3 157 35 74
3 76 157 16
3 158 157 76
3 158 35 157
3 158 156 35
3 159 156 158
3 159 6 156
3 159 141 6
3 160 141 159
3 160 28 141
3 78 160 36
3 161 160 78
3 161 28 160
3 161 64 28
3 162 64 161
3 162 1 64
3 143 55 0
3 163 55 143
3 163 17 55
3 81 163 29
3 164 163 81
3 164 17 163
3 164 122 17
3 165 122 164
3 165 7 122
3 124 82 3
3 166 82 124
3 166 38 82
3 84 166 19
3 167 166 84
3 167 38 166
3 167 165 38
3 168 165 167
3 168 7 165
3 168 79 7
3 169 79 168
3 169 37 79
3 86 169 39
3 170 169 86
3 170 37 169
3 170 162 37
3 171 162 170
3 171 1 162
3 171 151 1
3 172 151 171
3 172 32 151
3 88 172 40
3 173 172 88
3 173 32 172
3 173 70 32
3 174 70 173
3 174 5 70
3 128 89 8
3 175 89 128
3 175 41 89
3 91 175 21
3 176 175 91
3 176 41 175
3 176 174 41
3 517 174 518
3 519 518 176
3 517 518 519
3 520 5 521
3 522 521 174
3 520 521 522
3 524 523 5
3 93 525 527
3 527 526 42
3 525 526 527
3 529 528 93
3 177 530 531
3 177 532 534
3 532 34 533
3 532 533 534
3 535 177 536
3 178 537 539
3 537 177 538
3 537 538 539
3 178 34 177
3 178 72 34
3 179 72 178
3 179 540 542
3 542 541 72
3 540 541 542
3 543 179 544
3 545 179 546
3 545 546 547
3 549 548 179
3 550 118 551
3 180 552 554
3 552 118 553
3 552 553 554
3 180 15 118
3 95 555 557
3 555 180 556
3 555 556 557
3 181 180 95
3 181 15 180
3 181 53 15
3 182 53 181
3 182 0 53
3 558 96 559
3 183 560 562
3 560 96 561
3 560 561 562
3 183 43 96
3 97 563 565
3 563 183 564
3 563 564 565
3 184 183 97
3 184 43 183
3 184 182 43
3 185 182 184
3 185 0 182
3 185 142 0
3 566 142 567
3 568 567 185
3 566 567 568
3 570 569 142
3 571 14 572
3 573 14 574
3 575 117 576
3 577 576 14
3 575 576 577
3 186 578 580
3 578 117 579
3 578 579 580
3 186 4 117
3 187 581 582
3 187 583 584
3 585 187 586
3 587 586 23
3 585 586 587
3 588 187 589
3 591 590 187
3 592 186 593
3 188 594 596
3 594 186 595
3 594 595 596
3 188 4 186
3 188 69 4
3 189 69 188
3 189 30 69
3 100 189 44
3 190 189 100
3 190 30 189
3 190 148 30
3 191 148 190
3 191 2 148
3 597 132 598
3 192 599 601
3 599 132 600
3 599 600 601
3 192 10 132
3 602 46 603
3 103 604 606
3 606 605 25
3 604 605 606
3 193 607 609
3 609 608 103
3 607 608 609
3 193 610 612
3 610 46 611
3 610 611 612
3 193 192 46
3 194 192 193
3 194 10 192
3 194 101 10
3 195 101 194
3 195 45 101
3 105 195 47
3 196 195 105
3 196 45 195
3 196 191 45
3 197 191 196
3 197 2 191
3 197 60 2
3 198 60 197
3 198 22 60
3 107 198 48
3 199 198 107
3 199 22 198
3 199 131 22
3 200 131 199
3 200 9 131
3 136 108 11
3 201 108 136
3 201 49 108
3 110 201 26
3 202 201 110
3 202 49 201
3 202 200 49
3 203 200 202
3 203 9 200
3 203 94 9
3 204 94 203
3 204 613 615
3 615 614 94
3 613 614 615
3 112 204 50
3 205 204 112
3 205 616 618
3 618 617 204
3 616 617 618
3 205 619 620
3 206 621 623
3 623 622 205
3 621 622 623
3 206 624 625
3 626 31 627
3 626 627 628
3 114 629 630
3 207 631 633
3 633 632 114
3 631 632 633
3 207 634 636
3 634 31 635
3 634 635 636
3 207 150 31
3 637 150 638
3 639 638 207
3 637 638 639
3 641 640 150
3 208 642 643
3 208 644 646
3 644 645 646
3 208 647 649
3 647 140 648
3 647 648 649
3 209 140 208
3 209 13 140
3 650 209 651
3 210 652 654
3 652 209 653
3 652 653 654
3 210 13 209
3 210 115 13
3 655 115 656
3 657 656 210
3 655 656 657
3 658 52 659
3 660 659 115
3 658 659 660
3 661 52 662
3 664 663 52
3 665 27 666
3 667 27 668
3 669 139 670
3 671 670 27
3 669 670 671
3 672 139 673
3 674 12 675
3 676 675 139
3 674 675 676
3 677 12 678
3 679 113 680
3 681 680 12
3 679 680 681
3 211 682 684
3 682 113 683
3 682 683 684
3 211 51 113
3 685 211 686
3 685 686 687
3 212 688 690
3 688 211 689
3 688 689 690
3 212 51 211
3 212 206 51
3 691 206 692
3 693 692 212
3 691 692 693
3 695 694 206
3 697 696 6
3 152 66 1
3 698 66 699
3 700 699 152
3 698 699 700
3 702 701 66
