ply
format ascii 1.0
element vertex 175
property float x
property float y
property float z
element face 162
property list uchar int vertex_index
end_header
-38.110943 56.683262 30.259901
-29.067476 62.339397 28.429033
-34.579445 66.566422 19.66963
-40.336105 58.242062 25.780804
-33.70863 59.594883 29.397369
-36.56522 61.667294 25.099186
-32.070053 64.498016 24.139626
-38.572788 63.270756 20.528088
-34.961147 54.786503 34.497219
-30.299015 57.546192 33.476051
-40.00938 55.011173 30.497423
-41.042755 55.695988 28.233738
-39.35548 57.527958 28.051094
-31.375015 60.952053 28.888458
-32.943108 62.038876 26.776779
-30.612122 63.390308 26.303965
-35.623951 64.143738 22.410408
-37.677357 62.558559 22.855669
-36.682796 65.015045 20.126301
-35.482697 52.404583 36.947361
-33.180939 53.790646 36.500114
-32.63884 56.16267 34.011902
-30.836382 55.165363 35.96257
-35.601608 67.383621 17.329647
-34.436531 69.632919 14.48234
-35.982822 58.194897 29.877556
-37.396233 59.171627 27.720287
-35.23262 60.656612 27.275333
-34.372349 63.127956 24.62104
-33.401363 65.582932 21.933214
-29.740894 65.85144 23.741581
-38.573563 60.051495 25.501616
-39.50407 60.776707 23.209578
-40.216675 61.301899 20.832327
-37.565086 65.687485 17.751572
-39.29187 63.763561 18.105145
-38.708649 54.214893 32.710449
-37.178459 53.340504 34.866451
-36.627789 55.756634 32.410969
-34.376347 57.178074 31.977503
-32.044392 58.544247 31.467709
-29.717842 59.931789 30.953764
-28.526819 56.613102 35.40538
-32.268808 53.277199 37.44817
-33.438084 52.596528 37.713398
-31.09653 53.964557 37.179398
-32.008661 54.478004 36.231342
-32.268808 53.277199 37.44817
-41.07287 57.236119 25.848868
-41.426195 55.963082 27.075335
-40.68943 56.969025 27.007271
-40.701938 58.51123 24.610557
-41.07287 57.236119 25.848868
-33.312285 70.378898 14.283365
-33.935831 69.267212 15.686501
-28.603133 66.548485 23.626995
-29.032524 65.314194 24.84077
-37.029016 66.839119 16.325578
-36.583347 66.535553 17.54061
-36.047277 67.687187 16.114616
-39.599247 63.891409 16.846182
-38.805039 64.946364 16.691965
-40.035309 62.682873 18.235349
-39.599247 63.891409 16.846182
-38.952382 52.989185 33.891752
-39.618863 53.362148 32.776348
-27.648366 56.171436 36.324756
-28.776877 55.395401 36.608219
-40.526067 55.35358 29.365581
-41.322902 54.425266 29.401544
-40.806215 54.082859 30.533387
-34.588963 51.903496 37.937022
-35.722664 51.205822 38.139433
-34.331818 53.097615 36.723737
-34.588963 51.903496 37.937022
-33.438084 52.596528 37.713398
-28.695815 63.558172 27.184497
-27.966825 63.074627 28.258195
-41.724785 54.683613 28.246891
-41.322902 54.425266 29.401544
-41.724785 54.683613 28.246891
-41.426195 55.963082 27.075335
-34.518369 68.142563 17.110154
-35.090526 66.975021 18.499639
-34.007288 67.733964 18.280146
-35.01907 68.50827 15.905994
-34.518369 68.142563 17.110154
-33.935831 69.267212 15.686501
-35.464739 68.811836 14.690963
-36.047277 67.687187 16.114616
-35.01907 68.50827 15.905994
-33.808326 70.689209 13.04164
-33.312285 70.378898 14.283365
-34.895214 69.893333 13.238022
-33.808326 70.689209 13.04164
-35.464739 68.811836 14.690963
-34.895214 69.893333 13.238022
-29.468138 64.083628 26.121963
-29.839799 62.864852 27.366499
-28.695815 63.558172 27.184497
-30.176508 64.620874 25.022773
-29.468138 64.083628 26.121963
-29.032524 65.314194 24.84077
-29.245049 67.085564 22.478302
-28.603133 66.548485 23.626995
-30.412022 66.400695 22.623264
-29.245049 67.085564 22.478302
-31.576601 65.723984 22.822287
-30.905473 65.174728 23.940604
-30.412022 66.400695 22.623264
-32.242256 66.266441 21.719081
-32.735708 65.040474 23.03642
-31.576601 65.723984 22.822287
-32.860556 66.786522 20.579748
-32.242256 66.266441 21.719081
-33.449596 67.278267 19.447956
-33.990404 66.074677 20.801422
-32.860556 66.786522 20.579748
-34.007288 67.733964 18.280146
-33.449596 67.278267 19.447956
-40.285921 59.778553 23.324945
-40.701938 58.51123 24.610557
-39.920088 59.509384 24.495191
-40.642224 60.041149 22.136319
-40.285921 59.778553 23.324945
-39.860372 61.039303 22.020952
-40.912437 60.207234 20.927823
-40.642224 60.041149 22.136319
-37.941647 65.908325 16.515178
-37.029016 66.839119 16.325578
-38.428478 64.725523 17.928359
-37.941647 65.908325 16.515178
-38.805039 64.946364 16.691965
-40.497712 61.452041 19.59894
-39.754272 62.53273 19.468736
-40.035309 62.682873 18.235349
-40.912437 60.207234 20.927823
-40.497712 61.452041 19.59894
-40.269228 53.760288 31.669835
-40.806215 54.082859 30.533387
-39.359015 54.613033 31.603936
-40.269228 53.760288 31.669835
-39.618863 53.362148 32.776348
-36.566921 51.667855 37.096277
-35.722664 51.205822 38.139433
-37.414802 52.135815 36.055822
-36.566921 51.667855 37.096277
-36.330578 52.872544 35.906906
-38.187286 52.551991 34.969753
-37.414802 52.135815 36.055822
-37.943554 53.777698 33.78845
-38.952382 52.989185 33.891752
-38.187286 52.551991 34.969753
-29.931658 54.671532 36.886814
-31.09653 53.964557 37.179398
-29.681601 55.889232 35.683975
-29.931658 54.671532 36.886814
-28.776877 55.395401 36.608219
-27.421168 57.41209 35.148823
-27.648366 56.171436 36.324756
-28.27295 57.814846 34.182501
-27.421168 57.41209 35.148823
-29.159048 58.281391 33.217836
-29.412917 57.079647 34.440715
-28.27295 57.814846 34.182501
-28.868462 59.47419 31.956692
-30.008429 58.73899 32.214907
-29.159048 58.281391 33.217836
-28.596631 60.671028 30.729081
-28.868462 59.47419 31.956692
-28.271448 61.874832 29.466715
-29.392659 61.135593 29.691398
-28.596631 60.671028 30.729081
-27.966825 63.074627 28.258195
-28.271448 61.874832 29.466715
3 0 12 10
3 1 15 13
3 2 18 16
3 43 20 44
3 45 22 46
3 47 46 20
3 45 46 47
3 3 48 50
3 50 49 11
3 48 49 50
3 3 51 52
3 53 24 54
3 4 27 25
3 6 28 14
3 6 29 28
3 55 30 56
3 5 31 26
3 7 32 17
3 7 33 32
3 57 34 58
3 59 58 23
3 57 58 59
3 60 35 61
3 63 62 35
3 64 36 65
3 8 37 19
3 8 38 37
3 8 39 38
3 9 40 21
3 9 41 40
3 66 42 67
3 10 68 70
3 68 11 69
3 68 69 70
3 12 11 10
3 12 3 11
3 13 14 4
3 15 14 13
3 15 6 14
3 16 17 5
3 18 17 16
3 18 7 17
3 71 19 72
3 20 73 75
3 73 19 74
3 73 74 75
3 20 8 19
3 20 21 8
3 22 21 20
3 22 9 21
3 77 76 1
3 11 78 79
3 81 80 11
3 82 23 83
3 84 83 2
3 82 83 84
3 24 85 87
3 85 23 86
3 85 86 87
3 24 88 90
3 90 89 23
3 88 89 90
3 91 24 92
3 93 24 94
3 96 95 24
3 25 26 0
3 27 26 25
3 27 5 26
3 14 27 4
3 28 27 14
3 28 5 27
3 28 16 5
3 29 16 28
3 29 2 16
3 97 15 98
3 99 98 1
3 97 98 99
3 30 100 102
3 100 15 101
3 100 101 102
3 30 6 15
3 103 30 104
3 105 30 106
3 107 6 108
3 109 108 30
3 107 108 109
3 110 29 111
3 112 111 6
3 110 111 112
3 113 29 114
3 115 2 116
3 117 116 29
3 115 116 117
3 119 118 2
3 26 12 0
3 31 12 26
3 31 3 12
3 17 31 5
3 32 31 17
3 32 3 31
3 32 120 122
3 122 121 3
3 120 121 122
3 33 123 125
3 125 124 32
3 123 124 125
3 33 126 127
3 23 18 2
3 34 18 23
3 34 7 18
3 128 34 129
3 35 130 132
3 130 34 131
3 130 131 132
3 35 7 34
3 35 33 7
3 133 33 134
3 135 134 35
3 133 134 135
3 137 136 33
3 138 10 139
3 36 140 142
3 140 10 141
3 140 141 142
3 36 0 10
3 19 143 144
3 37 145 147
3 147 146 19
3 145 146 147
3 37 148 149
3 37 150 152
3 150 36 151
3 150 151 152
3 38 36 37
3 38 0 36
3 38 25 0
3 39 25 38
3 39 4 25
3 21 39 8
3 40 39 21
3 40 4 39
3 40 13 4
3 41 13 40
3 41 1 13
3 153 22 154
3 42 155 157
3 155 22 156
3 155 156 157
3 42 9 22
3 158 42 159
3 160 42 161
3 162 9 163
3 164 163 42
3 162 163 164
3 165 41 166
3 167 166 9
3 165 166 167
3 168 41 169
3 170 1 171
3 172 171 41
3 170 171 172
3 174 173 1
