ply
format ascii 1.0
element vertex 229
property float x
property float y
property float z
element face 193
property list uchar int vertex_index
end_header
-4.675161 21.324471 78.425797
-0.205475 23.360756 73.240486
-7.111702 27.108299 75.484428
-1.136738 30.453659 72.256348
-1.859529 22.81654 76.610054
-2.578178 14.970043 79.915504
-1.629337 44.54953 64.761581
-0.521433 37.678719 66.979431
0.021446 30.424747 68.301376
0.191704 23.027874 68.587082
-0.53882 15.855846 77.029831
0.338535 16.038887 72.850494
0.013277 54.544575 53.381039
-0.14472 51.36211 56.760437
-0.372078 48.073589 59.985092
-5.857664 24.297901 77.107025
-4.18063 25.345512 76.650787
-2.69627 26.142788 75.806877
-3.150236 22.188137 77.714264
-0.998306 41.182541 65.972595
-0.612364 26.94619 72.915619
-0.384563 30.575928 70.454956
-0.077536 26.958481 70.901672
0.138668 26.734192 68.578629
0.135246 23.294624 71.041611
-1.422209 15.506302 78.651962
-1.489496 26.677261 74.560791
-0.868111 23.205845 75.112137
-3.578548 18.20948 79.378067
-0.155493 25.694931 63.351303
-0.659592 44.681236 63.056606
-0.811745 34.124302 69.719711
-0.188906 34.081375 67.762665
0.088596 26.301991 66.030029
0.024481 22.584965 65.965126
-2.230358 18.902145 78.393158
-1.143301 19.380806 77.024498
-0.361357 19.649582 75.286865
0.046724 16.029083 75.079506
0.105345 19.718555 73.216354
0.277884 19.6026 70.872345
0.20249 19.319183 68.333023
-0.486767 51.45903 57.782767
-0.333376 53.130284 56.169029
-0.600446 49.814769 59.395094
-0.258399 49.717849 58.372765
-0.486767 51.45903 57.782767
-5.266412 22.811186 77.766411
-6.100528 22.26699 77.931492
-5.509276 20.780276 78.590878
0.106495 54.183506 52.160274
0.094003 52.670224 53.904053
-8.025631 26.369196 75.4235
-7.367778 25.063469 76.339702
-7.765019 28.418213 74.553196
-8.025631 26.369196 75.4235
-6.824409 29.145761 74.540256
-7.765019 28.418213 74.553196
-0.089621 27.561678 63.300855
-0.242261 27.179079 61.947844
-2.019351 46.139406 64.061091
-2.297062 44.287638 65.414108
-1.415687 46.327402 63.313082
-2.019351 46.139406 64.061091
-1.144464 44.615383 63.909094
-0.930814 46.393255 62.460594
-1.415687 46.327402 63.313082
-0.39643 39.3976 65.521248
-0.634867 41.149512 65.01783
-0.759869 39.43063 66.476013
-0.274823 37.569954 65.927376
-0.39643 39.3976 65.521248
-0.974241 32.288981 70.98803
-1.304264 33.991125 70.506698
-1.46676 32.155803 71.775017
0.056785 32.090225 66.891342
-0.048391 33.918539 66.621986
-0.08373 32.253061 68.032021
0.070823 30.227114 67.085125
0.056785 32.090225 66.891342
0.192629 16.033985 73.965
0.207526 14.197159 74.795231
0.353432 14.202061 73.680725
0.191623 17.469528 68.085319
0.284475 17.608908 69.371643
0.073003 19.102369 67.009239
0.191623 17.469528 68.085319
-0.254378 54.721516 54.47933
-0.140313 56.334454 52.778881
-0.065721 52.953343 55.070738
-0.254378 54.721516 54.47933
-0.333376 53.130284 56.169029
0.015004 51.078991 55.593752
0.094003 52.670224 53.904053
-0.065721 52.953343 55.070738
-0.030597 49.515434 57.269295
0.015004 51.078991 55.593752
-0.144277 47.871173 58.881622
-0.030597 49.515434 57.269295
-0.258399 49.717849 58.372765
-0.21982 46.258709 60.488444
-0.144277 47.871173 58.881622
-6.740759 23.65827 77.151001
-6.100528 22.26699 77.931492
-6.484683 25.7031 76.295727
-7.367778 25.063469 76.339702
-6.740759 23.65827 77.151001
-5.586035 26.325339 76.182335
-6.213055 27.730537 75.371037
-6.484683 25.7031 76.295727
-4.747518 26.849144 75.954216
-5.586035 26.325339 76.182335
-5.019147 24.821706 76.878906
-3.918731 27.341449 75.654377
-4.747518 26.849144 75.954216
-3.43845 25.74415 76.228832
-3.176551 27.740088 75.232422
-3.918731 27.341449 75.654377
-1.864347 42.719561 66.129456
-2.297062 44.287638 65.414108
-1.548831 41.036066 66.734962
-1.313821 42.866035 65.367088
-1.864347 42.719561 66.129456
-1.189164 39.378504 67.348183
-1.548831 41.036066 66.734962
-0.950728 37.626593 67.851601
-0.759869 39.43063 66.476013
-1.189164 39.378504 67.348183
-1.551474 13.564083 79.333881
-2.000193 15.238173 79.283733
-2.129458 13.295953 79.965652
-1.072653 13.762729 78.567867
-1.551474 13.564083 79.333881
-0.630958 13.937501 77.756801
-0.980514 15.681074 77.840896
-1.072653 13.762729 78.567867
0.421236 14.190141 72.51157
0.353432 14.202061 73.680725
0.352498 15.968759 71.630379
0.421236 14.190141 72.51157
0.05367 56.078007 51.613481
-0.140313 56.334454 52.778881
0.05367 56.078007 51.613481
0.106495 54.183506 52.160274
-6.824409 29.145761 74.540256
-6.213055 27.730537 75.371037
-1.688133 30.247566 72.958966
-1.46676 32.155803 71.775017
-2.467898 28.09213 74.73423
-3.176551 27.740088 75.232422
-1.864511 28.359367 74.111187
-2.467898 28.09213 74.73423
-2.092883 26.410024 75.183834
-1.313117 28.56546 73.408569
-1.688133 30.247566 72.958966
-1.864511 28.359367 74.111187
-4.89478 19.314532 79.202141
-5.509276 20.780276 78.590878
-4.346474 17.757036 79.678276
-4.126855 19.766976 78.901932
-4.89478 19.314532 79.202141
-3.765595 16.224958 80.091602
-4.346474 17.757036 79.678276
-3.26541 14.60524 80.360321
-3.078363 16.589762 79.646785
-3.765595 16.224958 80.091602
-2.725582 13.013281 80.557827
-3.26541 14.60524 80.360321
-2.129458 13.295953 79.965652
-2.725582 13.013281 80.557827
-0.332412 25.32036 61.993803
-0.242261 27.179079 61.947844
-0.223125 23.842846 63.309807
-0.332412 25.32036 61.993803
-0.787057 48.089432 60.924837
-0.600446 49.814769 59.395094
-0.515835 46.377412 61.520849
-0.787057 48.089432 60.924837
-0.930814 46.393255 62.460594
-0.363577 44.562533 62.024201
-0.21982 46.258709 60.488444
-0.515835 46.377412 61.520849
-0.465509 42.898859 63.559835
-0.828949 42.931888 64.514601
-0.634867 41.149512 65.01783
-0.363577 44.562533 62.024201
-0.465509 42.898859 63.559835
-1.095884 35.849384 69.221741
-1.304264 33.991125 70.506698
-0.666589 35.901511 68.349571
-0.950728 37.626593 67.851601
-1.095884 35.849384 69.221741
-0.108559 35.771282 66.318993
-0.274823 37.569954 65.927376
-0.35517 35.880047 67.371048
-0.108559 35.771282 66.318993
-0.048391 33.918539 66.621986
0.129435 28.381836 67.223752
0.070823 30.227114 67.085125
0.080057 28.57947 68.440003
0.104399 28.165736 65.949452
0.129435 28.381836 67.223752
0.113632 26.518092 67.304329
0.032423 27.865208 64.640219
0.104399 28.165736 65.949452
-0.033448 25.998461 64.690666
-0.089621 27.561678 63.300855
0.032423 27.865208 64.640219
-0.133138 22.287863 64.616718
-0.223125 23.842846 63.309807
-0.065506 24.139948 64.658214
-0.287586 14.058988 76.832012
-0.630958 13.937501 77.756801
0.005186 14.145606 75.856849
0.207526 14.197159 74.795231
-0.246048 15.942464 76.054668
-0.287586 14.058988 76.832012
0.005186 14.145606 75.856849
0.322172 17.750616 70.641304
0.30821 17.820743 71.861419
0.352498 15.968759 71.630379
0.240187 19.460891 69.602684
0.322172 17.750616 70.641304
0.284475 17.608908 69.371643
-0.016002 20.73526 65.82529
0.113486 20.952074 67.149074
0.073003 19.102369 67.009239
-0.133138 22.287863 64.616718
-0.016002 20.73526 65.82529
3 42 13 43
3 44 14 45
3 46 45 13
3 44 45 46
3 0 47 49
3 47 15 48
3 47 48 49
3 0 16 15
3 0 18 16
3 1 22 20
3 1 24 22
3 51 50 12
3 2 52 53
3 2 54 55
3 2 56 57
3 4 26 17
3 4 27 26
3 58 29 59
3 6 60 61
3 6 62 63
3 6 64 66
3 64 30 65
3 64 65 66
3 7 67 69
3 69 68 19
3 67 68 69
3 7 70 71
3 3 72 74
3 72 31 73
3 72 73 74
3 8 32 21
3 8 75 77
3 77 76 32
3 75 76 77
3 8 78 79
3 9 33 23
3 9 34 33
3 5 35 28
3 10 36 25
3 10 37 36
3 11 80 82
3 80 38 81
3 80 81 82
3 11 39 38
3 11 40 39
3 83 41 84
3 86 85 41
3 87 12 88
3 13 89 91
3 89 12 90
3 89 90 91
3 13 92 94
3 94 93 12
3 92 93 94
3 13 95 96
3 14 97 99
3 99 98 13
3 97 98 99
3 14 100 101
3 15 102 103
3 15 104 106
3 104 2 105
3 104 105 106
3 15 107 109
3 109 108 2
3 107 108 109
3 16 110 112
3 112 111 15
3 110 111 112
3 16 113 114
3 16 115 117
3 115 17 116
3 115 116 117
3 18 17 16
3 18 4 17
3 118 6 119
3 120 19 121
3 122 121 6
3 120 121 122
3 123 19 124
3 125 7 126
3 127 126 19
3 125 126 127
3 20 21 3
3 22 21 20
3 22 8 21
3 22 23 8
3 24 23 22
3 24 9 23
3 128 25 129
3 130 129 5
3 128 129 130
3 131 25 132
3 133 10 134
3 135 134 25
3 133 134 135
3 136 11 137
3 139 138 11
3 12 140 141
3 143 142 12
3 145 144 2
3 146 3 147
3 17 148 149
3 26 150 152
3 152 151 17
3 150 151 152
3 26 153 155
3 153 3 154
3 153 154 155
3 26 20 3
3 27 20 26
3 27 1 20
3 156 0 157
3 158 28 159
3 160 159 0
3 158 159 160
3 161 28 162
3 163 5 164
3 165 164 28
3 163 164 165
3 166 5 167
3 169 168 5
3 29 170 171
3 29 172 173
3 174 14 175
3 30 176 178
3 176 14 177
3 176 177 178
3 30 179 181
3 181 180 14
3 179 180 181
3 19 30 6
3 182 30 183
3 184 183 19
3 182 183 184
3 186 185 30
3 31 187 188
3 31 189 191
3 189 7 190
3 189 190 191
3 21 31 3
3 32 31 21
3 32 7 31
3 32 192 194
3 194 193 7
3 192 193 194
3 196 195 32
3 23 197 199
3 199 198 8
3 197 198 199
3 33 200 202
3 202 201 23
3 200 201 202
3 33 203 204
3 33 205 207
3 205 29 206
3 205 206 207
3 34 29 33
3 34 208 210
3 210 209 29
3 208 209 210
3 28 18 0
3 35 18 28
3 35 4 18
3 25 35 5
3 36 35 25
3 36 4 35
3 36 27 4
3 37 27 36
3 37 1 27
3 211 10 212
3 38 213 214
3 38 215 217
3 215 10 216
3 215 216 217
3 38 37 10
3 39 37 38
3 39 1 37
3 39 24 1
3 40 24 39
3 40 9 24
3 218 40 219
3 220 219 11
3 218 219 220
3 41 221 223
3 221 40 222
3 221 222 223
3 41 9 40
3 41 34 9
3 224 34 225
3 226 225 41
3 224 225 226
3 228 227 34
