ply
format ascii 1.0
element vertex 1074
property float x
property float y
property float z
element face 1057
property list uchar int vertex_index
end_header
0.599932 13.100513 45.993095
-0.439129 -19.309406 48.04501
-4.622086 -30.344624 60.4174
-0.290756 21.990761 63.268311
-1.320612 43.338524 39.24865
0.914143 -3.13341 47.662567
-5.829069 5.527889 83.413544
-0.890516 8.181854 79.688126
-1.019918 33.16106 51.927422
-5.24769 -42.843502 64.323936
-2.49992 -61.900455 74.513718
2.835175 21.626522 37.068356
0.598814 8.648355 71.229996
-0.931356 7.529554 61.453304
3.484844 43.662945 19.576954
0.837196 37.18626 31.773525
-0.755529 28.28548 43.049576
-1.349445 18.456566 53.21122
-4.967514 -25.652641 52.685211
-4.942215 -48.348068 67.063629
-5.817709 -47.315758 61.791199
-4.722544 -52.56517 64.485123
-2.47871 -65.872444 75.567108
1.716337 17.547356 41.703934
2.38842 9.366972 43.354736
-8.053917 18.938194 78.716736
0.342068 1.111197 77.921944
0.369465 8.622175 75.87381
0.863297 1.312092 73.496506
-0.801781 40.420868 35.141296
-0.10317 32.921547 37.545689
-1.215002 35.725754 41.263435
-0.70488 27.773308 57.841564
-1.298092 25.73938 52.725452
-1.026016 20.431362 57.977146
-1.270475 13.201626 57.700001
-0.560238 14.672955 62.610374
-3.918207 -23.573986 59.483421
-4.575722 -21.269646 55.621223
-5.499937 -28.308636 56.105965
-0.554199 8.468779 49.897785
0.972567 5.078697 47.032784
-1.979652 -14.955071 50.175922
-8.594629 10.898981 81.176552
-5.469549 13.315411 81.313812
-3.083195 7.193428 82.28566
-1.234495 38.341412 45.719856
-5.109741 -36.806633 62.042187
-6.151142 -35.094131 57.331894
-6.302057 -41.473831 59.298523
-3.286337 -57.295639 67.051216
2.672729 0.894779 44.572884
-2.362511 -25.147129 64.045509
-3.594545 -43.679371 69.688705
0.180756 15.619873 67.837616
0.008307 8.311562 66.26252
2.067709 40.843422 25.762974
3.142323 33.162323 29.083796
1.856918 29.546383 34.546524
0.807287 25.362377 39.738136
-0.062035 20.814526 44.634251
-1.364536 30.804504 47.123985
-1.166405 23.450859 48.28093
-0.803869 16.057957 49.213287
-1.365374 11.153549 53.425179
-3.631863 -14.167906 55.651459
-3.87653 -18.335527 52.578491
-3.06027 -22.583088 50.145615
-5.849472 -32.745804 53.453724
-4.109413 -29.946407 50.558735
-5.025684 -50.507324 65.784927
-4.48456 -52.977886 67.185455
1.165018 15.357613 43.894577
2.094152 13.502743 42.576569
1.484751 11.344597 44.619293
0.020735 -15.355077 47.982456
-6.343391 20.23608 78.755959
-7.623854 23.018639 77.194977
0.718136 1.232023 75.775589
-1.038538 44.19519 33.852306
-1.21015 41.896347 37.10321
-1.045319 38.113129 38.235741
-1.311373 39.502815 40.286903
-0.509331 24.945789 60.636303
-0.883148 24.083019 57.966835
-0.66987 21.267265 60.582005
-0.814259 17.621349 60.394253
-0.422903 18.316212 63.014515
-4.286694 -26.990578 59.869232
-4.824955 -25.987673 57.7244
-5.213488 -29.413506 58.164047
-7.257893 4.428093 83.381409
-8.684259 6.984232 82.135994
-7.215523 8.269896 82.488281
-7.043369 12.198225 81.437607
-5.713772 9.382927 82.448769
-4.241467 10.31221 82.016167
-4.417728 6.450333 83.044891
-2.039494 0.251753 82.995132
-5.22921 -39.885723 63.109924
-5.892307 -39.195908 60.597706
-5.886761 -42.235291 61.747795
-5.500021 -49.386475 60.596706
-5.98514 -46.589943 59.333389
-5.478559 -48.617653 58.21217
-2.798872 -59.85743 73.636047
-2.657309 -59.723724 70.934479
1.000771 0.984112 47.40078
1.838131 3.090988 45.772263
1.849623 -1.104189 46.180962
-1.072319 -18.940647 65.489189
-1.266718 -22.335825 65.961273
-1.677555 -28.920561 67.183968
-2.504894 -41.15744 71.103897
-1.680738 11.621864 80.0158
-0.723097 12.019156 78.483772
0.606667 8.68108 73.625504
0.368328 12.365236 74.510956
0.503937 12.341396 72.172646
0.366461 15.898632 70.410263
0.404577 12.199747 69.689095
0.121834 11.943815 67.134186
0.381807 8.527056 68.754028
0.362598 40.942715 30.298248
0.906322 42.852737 27.174282
1.419853 39.105896 28.794781
2.613262 37.04208 27.457111
1.945951 35.304108 30.352482
2.470272 31.438431 31.84705
1.341068 33.392544 33.189461
-0.462465 30.636669 40.331696
0.336805 29.161869 38.667736
-0.069937 26.898567 41.302917
0.355087 23.122383 42.22435
-0.423185 24.569054 43.866875
-1.140291 35.770844 48.855972
-1.341909 34.538498 46.455017
-1.287367 31.998848 49.44392
-1.343479 22.092247 53.004673
-1.351017 24.627422 50.406071
-1.287954 20.977318 50.788807
-0.988728 19.772572 48.775238
-1.197617 17.315823 51.110329
-1.114904 13.624199 51.371067
-1.346115 14.813503 53.350155
-1.128366 10.426582 59.690769
-1.421423 9.622503 57.441116
-1.343138 6.907368 59.216797
-3.553602 -15.504477 57.279057
-4.927172 -23.477858 54.05983
-4.402027 -19.871012 53.999775
-4.429026 -22.013573 52.564358
-3.596422 -20.444542 51.269894
-4.156218 -24.15538 51.323532
-6.388508 -37.329163 56.060444
-6.18877 -33.991356 55.270626
-6.117973 -36.16555 54.122562
-2.845245 -28.457973 49.400368
-1.9594 -30.622105 48.613605
-7.182919 0.687534 84.161209
-5.813229 1.765034 84.249718
-4.465733 2.672709 83.934738
-5.154104 -45.666946 65.654404
-5.741568 -45.138554 63.022297
-5.452232 -47.896492 64.382317
-5.336081 -50.013092 63.134365
-4.867018 -52.035355 61.876583
-2.382107 -63.90081 75.159523
2.266537 19.645378 39.426765
2.674927 15.571857 40.438728
3.005215 11.401533 41.355064
3.243172 7.146835 42.159645
0.715033 -7.246156 47.828972
1.748606 -5.305266 46.480881
1.541058 -9.481236 46.689949
-9.714399 17.450382 78.318909
-9.375845 21.53046 76.931786
-0.212742 4.670099 78.970673
-0.130316 8.461107 77.912521
0.35393 4.85598 76.988068
0.67473 4.961983 74.805794
0.752403 5.003523 72.482132
0.606838 4.987202 70.078064
-0.477789 42.618145 31.981834
-0.103258 38.870178 33.366058
0.328869 35.114563 34.69212
-0.487944 36.667427 36.371284
-0.793823 34.366085 39.310425
-1.026831 31.994434 42.18277
-0.874956 30.502304 54.928291
-1.192297 29.421524 52.368011
-1.057644 26.791241 55.216637
-1.187975 23.127865 55.407425
-1.276131 19.493439 55.507694
-1.344961 15.871559 55.526051
-1.147247 16.806267 57.883663
-0.959257 14.005405 60.090469
-0.722088 11.069902 62.081066
-3.542048 -20.11451 59.23415
-3.966818 -19.003342 57.317677
-4.399565 -22.509506 57.452637
-5.055624 -24.810678 55.780632
-5.424225 -27.046671 54.274994
0.0215 10.798018 47.995064
0.834517 9.124304 46.560074
0.149456 6.867369 48.395451
-0.792294 -13.160398 49.066669
-1.262051 -17.093056 49.054893
-9.945345 13.411674 79.519417
-8.382582 14.890739 80.042938
-6.746677 16.194401 80.198616
-5.114399 17.304592 79.978485
-3.952642 14.240437 80.805138
-2.872986 11.056519 81.20015
-1.88867 7.765524 81.157364
-3.183174 3.404594 83.220734
-2.015659 3.968563 82.131157
-1.011974 4.382544 80.700691
-0.929707 39.621407 48.191463
-0.646069 34.276173 54.537674
-0.492495 31.514301 57.5938
-0.329029 28.663227 60.544384
-4.902403 -33.621311 61.1413
-5.536839 -32.768188 58.789459
-5.770075 -36.034668 59.604118
-6.300323 -38.34388 58.232002
-6.430498 -40.552078 57.023735
-6.142588 -44.468109 60.498272
-6.297964 -43.643204 58.128098
-6.16432 -42.664318 55.955341
-3.869549 -55.323097 68.539146
-3.237917 -57.563808 69.802383
-2.590958 -59.520111 68.195877
1.714149 7.249504 45.249672
2.58387 5.155781 44.023293
3.381535 2.830967 42.840836
2.653809 -3.384295 45.004051
3.419182 -1.515099 43.395607
-2.889372 -21.03928 61.328186
-3.208321 -24.453516 61.690414
-3.521177 -27.810406 62.183159
-1.472466 -25.663507 66.520111
-2.621439 -28.449295 64.632111
-3.808317 -31.096943 62.82695
-4.055401 -34.303009 63.632229
-4.252224 -37.417488 64.600197
-4.389906 -40.426933 65.722961
-4.458509 -43.31678 66.983124
-4.447023 -46.074219 68.353256
-3.01722 -63.821743 77.460823
-0.036352 12.262129 76.634193
-0.056484 18.885555 65.685455
-0.153305 15.210377 65.213112
-0.278822 11.570486 64.578033
-0.454842 7.987064 63.813263
0.275999 4.909346 67.653221
1.51754 44.569206 24.003128
2.763981 42.370853 22.686956
3.328236 38.580029 24.510496
3.861336 34.693768 26.262241
4.353104 30.712582 27.939445
3.641075 29.198284 30.640593
2.975143 27.496716 33.276001
2.362926 25.62991 35.841988
0.80505 31.335583 35.962498
1.304501 27.512188 37.177979
1.801029 23.621822 38.335472
1.277754 21.497452 40.753204
0.778301 19.28149 43.091507
0.290974 16.996628 45.346451
-1.352205 37.043194 43.403374
-1.318937 33.284061 44.225471
-1.193993 29.574284 44.989414
-1.356884 28.292076 49.959179
-1.301085 27.118149 47.731277
-0.988871 25.886883 45.6996
-0.729023 22.190594 46.358528
-0.44924 18.4561 46.965229
-0.187393 14.661858 47.514107
-0.648453 12.2913 49.59021
-1.072811 9.894388 51.56868
-1.423166 12.25362 55.471592
-1.537476 8.642313 55.353558
-4.092247 -17.710943 55.592014
-3.881985 -16.248747 54.055206
-3.343193 -14.636349 52.684776
-3.042198 -16.688305 51.322914
-2.505894 -18.7966 50.124306
-1.782038 -20.960657 49.080658
-5.875452 -31.742792 56.620483
-5.856707 -30.557503 54.674164
-5.453979 -29.235687 52.975201
-5.139809 -31.386433 51.890823
-4.683989 -27.807203 51.522156
-3.607601 -26.303139 50.280624
-2.321314 -24.751783 49.185204
-4.019747 -54.985741 65.803131
-4.128124 -54.547947 63.135635
-4.165279 -53.997395 60.573803
-4.338669 -53.133627 68.561821
-4.550056 -51.932092 67.846588
0.208159 -18.479155 47.502387
0.43809 -16.501991 47.471109
-0.209197 -17.332241 48.013733
-0.013319 -20.454257 47.569598
0.208159 -18.479155 47.502387
-6.100528 22.26699 77.931492
-5.509276 20.780276 78.590878
-1.306439 44.531195 37.579052
-1.289058 45.285967 38.697197
-1.265381 42.617435 38.17593
-1.251209 43.810107 36.506332
-1.306439 44.531195 37.579052
-5.181071 -49.99694 58.80509
-5.48929 -49.002064 59.404438
-5.191802 -50.381351 59.997358
-5.111928 -49.600872 57.647121
-5.181071 -49.99694 58.80509
-2.347816 -61.863428 73.206993
-2.497292 -60.841915 72.768158
-2.649396 -60.878943 74.074883
3.341591 20.482367 36.486616
3.138002 22.546467 35.850453
-0.701537 -19.152027 66.689648
-0.642067 -17.435024 66.437774
-0.798736 -20.849616 66.92569
-1.169519 -20.638236 65.725231
-0.701537 -19.152027 66.689648
4.14546 42.31303 19.037872
3.842905 44.180262 18.010755
3.776685 41.778496 20.549041
4.14546 42.31303 19.037872
-1.068167 5.812112 61.103542
-1.274058 5.501019 59.985288
-1.137247 7.218461 60.335051
-3.368892 -16.073638 58.181605
-3.210133 -14.356499 58.133606
-6.173886 -37.821388 54.544415
-6.253241 -36.747357 55.091503
-6.309153 -38.403194 55.513356
-2.187016 -32.40878 48.803886
-2.638878 -31.347592 49.178674
-1.506331 -31.713732 48.222072
-2.187016 -32.40878 48.803886
-6.433284 -0.604769 84.582615
-7.102082 -1.12693 84.519127
-5.748439 -0.066019 84.626869
-6.498074 1.226284 84.205464
-6.433284 -0.604769 84.582615
-5.100552 0.376965 84.491208
-5.748439 -0.066019 84.626869
-2.157566 -65.90662 74.405445
-2.109265 -64.920803 74.201652
-2.430408 -64.886627 75.363315
0.97667 -10.404493 47.30697
1.128046 -8.363696 47.259461
0.563657 -9.286953 47.876482
-8.281707 24.324366 76.278774
-7.367778 25.063469 76.339702
0.823301 1.338469 72.319657
0.767854 3.184185 71.812469
0.80785 3.157808 72.989319
-1.385973 -14.057735 49.621296
-1.15155 -12.115838 49.660793
-1.745229 -13.013174 50.215419
-9.329981 10.167927 80.85915
-9.374797 8.210553 81.338871
-8.639444 8.941606 81.656273
-9.269987 12.155327 80.347984
-10.005339 11.424274 80.030583
-9.329981 10.167927 80.85915
-3.172226 1.554194 83.638596
-3.824454 3.038651 83.577736
-3.813505 1.188251 83.995598
-1.537816 2.309565 81.858715
-2.027576 2.110158 82.563144
-1.549733 0.451159 82.290703
-1.035973 2.516555 81.143482
-1.513816 4.175554 81.415924
-1.537816 2.309565 81.858715
-0.634447 2.654745 80.289124
-1.035973 2.516555 81.143482
-0.730823 40.241962 49.486967
-0.805871 41.585943 47.819124
-0.860617 38.297421 49.795688
-0.730823 40.241962 49.486967
-0.454681 34.794332 55.878706
-0.519351 36.197657 54.289845
-0.377895 33.413396 57.406769
-0.569282 32.895237 56.065737
-0.454681 34.794332 55.878706
-0.17639 29.045826 61.897396
-0.235081 30.543541 60.42181
-0.242261 27.179079 61.947844
-0.17639 29.045826 61.897396
-6.105161 -44.678421 57.589674
-6.141552 -45.116574 58.730744
-5.948749 -46.151791 58.192319
-6.038339 -44.188978 56.503296
-6.231142 -43.153761 57.041719
-6.105161 -44.678421 57.589674
-5.869595 -43.679655 55.466606
-6.038339 -44.188978 56.503296
-3.231221 -57.659217 71.177475
-3.474444 -56.568041 70.553055
-2.296801 -60.602953 68.701996
-2.624134 -59.621917 69.565178
-2.329976 -60.704759 70.071297
-2.243931 -60.502947 67.342075
-2.296801 -60.602953 68.701996
2.592545 -5.515902 45.166717
2.201207 -4.34478 45.742466
2.139944 -6.476388 45.905132
3.731476 -2.827046 42.801529
3.389506 -3.685701 43.613872
3.743803 -0.622592 42.531275
3.731476 -2.827046 42.801529
-2.370879 -19.696152 62.267317
-2.738536 -19.314467 61.19648
-2.785416 -24.800323 62.867961
-2.654115 -23.115588 62.634504
-2.23121 -23.462395 63.812051
-1.044185 -25.842237 67.802826
-0.971166 -24.195591 67.485267
-2.742993 -30.0636 64.993302
-2.149497 -28.684928 65.90804
-2.271052 -30.299233 66.26923
-3.336432 -31.387425 64.090721
-3.214878 -29.773119 63.72953
-2.742993 -30.0636 64.993302
-3.459974 -32.990458 64.49336
-3.931859 -32.699976 63.22959
-3.336432 -31.387425 64.090721
-3.768336 -37.651783 65.919132
-3.669235 -36.122108 65.411136
-3.837176 -39.156505 66.480514
-4.321065 -38.92221 65.161579
-3.768336 -37.651783 65.919132
-3.525385 -42.260786 69.043472
-2.980559 -40.99982 69.751068
-3.04972 -42.418406 70.396301
-4.026527 -43.498075 68.335915
-3.957367 -42.079491 67.690682
-3.525385 -42.260786 69.043472
-3.277309 -62.801827 78.362759
-2.978594 -62.857265 77.225418
0.207526 14.197159 74.795231
0.353432 14.202061 73.680725
0.191623 17.469528 68.085319
0.284475 17.608908 69.371643
0.273608 15.759252 69.12394
0.062136 17.252714 66.761536
0.073003 19.102369 67.009239
0.191623 17.469528 68.085319
0.388576 3.151007 68.211643
0.441418 4.948274 68.865643
0.553995 3.189935 69.424065
-1.29335 37.692303 44.561615
-1.324854 38.956228 42.960862
-1.265999 39.605337 44.119102
-1.399744 9.315786 53.432077
-1.253462 8.686206 52.503828
-1.219092 10.523968 52.49693
-1.57855 7.36513 56.238743
-1.47945 9.132408 56.397337
-1.520524 7.855225 57.282522
-1.621814 6.846576 55.268219
-1.57855 7.36513 56.238743
-3.421798 -12.425239 55.707329
-3.405747 -13.11673 56.473122
-3.512468 -13.402369 54.917748
-3.421798 -12.425239 55.707329
-4.624611 -30.66642 51.224779
-4.833642 -32.444718 51.442134
-4.318444 -31.724705 50.77609
-1.890025 -25.850498 48.759793
-2.583279 -26.604878 49.292786
-2.151991 -27.703593 48.867374
-1.631611 -23.964388 48.668352
-1.890025 -25.850498 48.759793
-3.752821 -55.522497 62.423311
-3.734658 -55.745683 63.738583
-3.771399 -55.247221 61.142395
-4.146701 -54.272671 61.854719
-3.752821 -55.522497 62.423311
-4.820617 -50.696811 67.146324
-4.983949 -49.427696 66.424278
-4.778883 -49.617183 67.785675
-4.755122 -51.742605 66.485191
-4.820617 -50.696811 67.146324
-4.550056 -51.932092 67.846588
-2.232511 -66.927093 74.59021
-2.638121 -66.848995 75.659531
0.629425 -14.479389 47.409952
0.216508 -13.341413 47.953224
0.629425 -14.479389 47.409952
0.43809 -16.501991 47.471109
-6.740759 23.65827 77.151001
-6.983622 21.62736 77.975468
-6.100528 22.26699 77.931492
-7.367778 25.063469 76.339702
-6.740759 23.65827 77.151001
0.736452 -0.616583 76.192009
0.530102 1.17161 76.848766
0.548418 -0.676996 77.265186
0.828854 -0.572862 75.059135
0.736452 -0.616583 76.192009
0.901434 -0.532827 73.919594
0.790717 1.272058 74.636047
0.828854 -0.572862 75.059135
0.885402 -0.489965 72.752807
0.901434 -0.532827 73.919594
-1.165402 44.959528 34.88088
-1.119142 46.094766 33.177736
-1.124344 43.045768 35.477758
-1.165402 44.959528 34.88088
-1.251209 43.810107 36.506332
-0.549333 6.533072 50.012333
-0.825734 7.298895 50.798512
-2.252553 -13.927827 50.806739
-1.745229 -13.013174 50.215419
-7.971076 5.706162 82.758702
-8.672249 5.075206 82.546844
-7.959067 3.797136 83.169552
-1.996462 -1.562329 83.397541
-2.600386 -0.022227 83.525795
-1.528118 -1.372936 82.699489
-1.996462 -1.562329 83.397541
-1.549733 0.451159 82.290703
-1.528118 -1.372936 82.699489
-5.695458 -47.165645 57.63171
-5.948749 -46.151791 58.192319
-5.73185 -47.603798 58.772779
-5.361655 -48.162993 57.113153
-5.695458 -47.165645 57.63171
-5.361655 -48.162993 57.113153
-5.111928 -49.600872 57.647121
-2.72809 -59.790577 72.285263
-2.940917 -58.739176 71.743523
-3.011698 -58.806028 73.094307
-2.426511 -60.775062 71.417374
-2.72809 -59.790577 72.285263
-2.497292 -60.841915 72.768158
-2.329976 -60.704759 70.071297
-2.426511 -60.775062 71.417374
-0.990298 -17.215418 65.282803
-0.642067 -17.435024 66.437774
-1.462353 -18.646836 64.347819
-0.990298 -17.215418 65.282803
-1.586114 -20.359153 64.533891
-1.462353 -18.646836 64.347819
-1.683313 -22.056742 64.769934
-1.586114 -20.359153 64.533891
-1.169519 -20.638236 65.725231
-1.814615 -23.741477 65.003391
-2.23121 -23.462395 63.812051
-1.683313 -22.056742 64.769934
-1.221571 -29.083789 68.496113
-1.146729 -27.470764 68.134754
-1.778202 -30.513272 67.575016
-1.221571 -29.083789 68.496113
-2.271052 -30.299233 66.26923
-1.778202 -30.513272 67.575016
-2.054343 -41.276629 72.456886
-1.919212 -39.828655 71.864013
-2.615852 -42.556206 71.756642
-2.054343 -41.276629 72.456886
-3.160678 -43.817171 71.049046
-3.04972 -42.418406 70.396301
-2.615852 -42.556206 71.756642
-3.641342 -45.031492 70.386158
-3.160678 -43.817171 71.049046
-1.551474 13.564083 79.333881
-2.129458 13.295953 79.965652
-1.072653 13.762729 78.567867
-1.551474 13.564083 79.333881
-1.201917 11.82051 79.249786
-0.630958 13.937501 77.756801
-1.072653 13.762729 78.567867
0.421236 14.190141 72.51157
0.353432 14.202061 73.680725
0.436132 12.353316 73.341801
0.435199 14.120014 71.291455
0.352498 15.968759 71.630379
0.421236 14.190141 72.51157
0.63446 41.897726 28.736265
0.417893 43.762315 27.968449
0.146031 42.807305 29.530432
-1.481381 6.497658 58.170362
-1.520524 7.855225 57.282522
-1.382281 8.264935 58.328957
-1.478606 5.198551 58.955258
-1.481381 6.497658 58.170362
-1.478606 5.198551 58.955258
-1.274058 5.501019 59.985288
-3.366616 -13.785016 57.286921
-3.210133 -14.356499 58.133606
-3.592733 -14.836191 56.465258
-3.405747 -13.11673 56.473122
-3.366616 -13.785016 57.286921
-3.713884 -31.009743 50.15124
-4.318444 -31.724705 50.77609
-3.0818 -30.265526 49.572056
-3.477329 -29.20219 49.979551
-3.713884 -31.009743 50.15124
-2.402322 -29.540039 49.006986
-3.0818 -30.265526 49.572056
-2.638878 -31.347592 49.178674
-1.709068 -28.785659 48.473993
-2.151991 -27.703593 48.867374
-2.402322 -29.540039 49.006986
-1.262113 -29.900063 48.064569
-1.709068 -28.785659 48.473993
-1.262113 -29.900063 48.064569
-1.506331 -31.713732 48.222072
-3.313765 -57.119529 65.696373
-2.930343 -58.271172 66.258991
-7.865558 0.074879 83.92651
-7.102082 -1.12693 84.519127
-7.921579 1.926857 83.559452
-7.865558 0.074879 83.92651
-7.220406 2.557813 83.771309
-7.959067 3.797136 83.169552
-7.921579 1.926857 83.559452
-4.426804 0.830802 84.333718
-5.139481 2.218871 84.092228
-5.100552 0.376965 84.491208
-3.813505 1.188251 83.995598
-4.426804 0.830802 84.333718
-4.8753 -51.705792 60.637296
-5.191802 -50.381351 59.997358
-5.18352 -50.710915 61.236644
-2.14605 -63.896907 73.916805
-2.204956 -62.89673 73.593903
-2.441013 -62.900633 74.83662
-2.14605 -63.896907 73.916805
-2.109265 -64.920803 74.201652
-2.157566 -65.90662 74.405445
-2.232511 -66.927093 74.59021
2.758719 18.585331 38.819935
3.043038 19.575903 37.64073
2.550856 20.63595 38.247561
2.962913 16.548571 39.325916
2.758719 18.585331 38.819935
2.470732 17.608618 39.932747
3.133213 14.448158 39.849403
2.962913 16.548571 39.325916
3.298357 12.362996 40.307571
3.133213 14.448158 39.849403
2.840071 13.486695 40.896896
3.424793 10.217464 40.773758
3.298357 12.362996 40.307571
3.543772 8.090115 41.176048
3.424793 10.217464 40.773758
3.124194 9.274184 41.757354
3.623293 5.909536 41.578193
3.543772 8.090115 41.176048
2.036169 -8.564373 46.009666
2.139944 -6.476388 45.905132
1.644832 -7.393251 46.585415
1.389587 -11.542469 46.763699
0.97667 -10.404493 47.30697
1.927317 -10.671709 46.131435
1.389587 -11.542469 46.763699
2.036169 -8.564373 46.009666
1.927317 -10.671709 46.131435
-10.372383 18.655321 77.326638
-10.486737 16.624206 77.948624
-10.203106 20.69536 76.633076
-10.372383 18.655321 77.326638
-9.545122 19.490421 77.625348
-10.038419 22.739302 75.922818
-10.203106 20.69536 76.633076
-9.157702 23.580277 76.147179
-8.499849 22.274549 77.063381
-8.281707 24.324366 76.278774
-10.038419 22.739302 75.922818
-9.157702 23.580277 76.147179
0.695072 3.176025 70.610435
0.67962 4.995363 71.280098
0.767854 3.184185 71.812469
0.553995 3.189935 69.424065
0.695072 3.176025 70.610435
0.823301 1.338469 72.319657
0.885402 -0.489965 72.752807
3.174158 45.486435 18.570647
3.842905 44.180262 18.010755
-0.913258 45.281003 32.195144
-1.119142 46.094766 33.177736
-0.632883 44.492481 31.259909
-0.913258 45.281003 32.195144
-0.758163 43.406667 32.91707
-0.274163 43.64502 30.372225
-0.632883 44.492481 31.259909
-0.057596 41.78043 31.140041
0.146031 42.807305 29.530432
-0.274163 43.64502 30.372225
-3.754433 -19.558926 58.275914
-3.5755 -17.823071 58.200915
-3.363115 -18.378654 59.159151
-0.197506 5.732366 49.261166
-0.202371 7.668074 49.146618
-0.549333 6.533072 50.012333
0.163457 4.875343 48.549588
-0.197506 5.732366 49.261166
0.575012 3.981007 47.868254
0.561011 5.973033 47.714118
0.163457 4.875343 48.549588
0.589114 1.933714 48.052252
0.986669 3.031404 47.216782
0.575012 3.981007 47.868254
0.54816 -0.074936 48.157472
0.589114 1.933714 48.052252
0.504846 -2.133697 48.288366
0.957457 -1.074649 47.531673
0.54816 -0.074936 48.157472
0.408031 -4.147557 48.346882
0.504846 -2.133697 48.288366
0.308477 -6.20393 48.430084
0.814588 -5.189783 47.74577
0.408031 -4.147557 48.346882
0.15849 -8.211752 48.450502
0.308477 -6.20393 48.430084
0.563657 -9.286953 47.876482
0.15849 -8.211752 48.450502
-0.595174 -11.168874 49.069351
-1.15155 -12.115838 49.660793
-0.190007 -12.244074 48.49533
-0.595174 -11.168874 49.069351
-0.38578 -14.257738 48.524563
0.216508 -13.341413 47.953224
-0.190007 -12.244074 48.49533
-9.38309 6.266734 81.774429
-8.672249 5.075206 82.546844
-9.38309 6.266734 81.774429
-9.374797 8.210553 81.338871
-10.667269 12.597633 79.084061
-10.005339 11.424274 80.030583
-10.60221 14.604852 78.548878
-10.667269 12.597633 79.084061
-9.829872 15.431028 78.919163
-10.486737 16.624206 77.948624
-10.60221 14.604852 78.548878
-4.89478 19.314532 79.202141
-5.509276 20.780276 78.590878
-5.728895 18.770336 79.367222
-4.346474 17.757036 79.678276
-4.89478 19.314532 79.202141
-3.765595 16.224958 80.091602
-4.346474 17.757036 79.678276
-4.53352 15.772514 80.391812
-3.26541 14.60524 80.360321
-3.765595 16.224958 80.091602
-2.725582 13.013281 80.557827
-3.26541 14.60524 80.360321
-3.412814 12.648478 81.002644
-2.276862 11.339192 80.607975
-2.129458 13.295953 79.965652
-2.725582 13.013281 80.557827
-2.611334 1.828173 83.107933
-3.172226 1.554194 83.638596
-2.600386 -0.022227 83.525795
-0.234831 2.798522 79.424115
-0.612358 4.526321 79.835682
-0.634447 2.654745 80.289124
0.042574 1.019071 78.89975
0.064663 2.890648 78.446309
-0.234831 2.798522 79.424115
0.349765 -0.73265 78.334946
0.042574 1.019071 78.89975
0.548418 -0.676996 77.265186
0.349765 -0.73265 78.334946
-1.245939 44.052885 40.407497
-1.289058 45.285967 38.697197
-1.309057 42.103893 40.883499
-1.245939 44.052885 40.407497
-1.146456 40.282106 45.317079
-1.265999 39.605337 44.119102
-0.994061 40.922104 46.552883
-0.805871 41.585943 47.819124
-1.082101 38.981409 46.955659
-1.146456 40.282106 45.317079
-0.994061 40.922104 46.552883
-0.965909 36.372139 50.127943
-1.034999 37.696125 48.523718
-0.860617 38.297421 49.795688
-0.905722 35.067247 51.663668
-1.080105 34.465952 50.391697
-0.965909 36.372139 50.127943
-0.718798 35.624803 52.968794
-0.519351 36.197657 54.289845
-0.832994 33.718616 53.232548
-0.905722 35.067247 51.663668
-0.718798 35.624803 52.968794
-0.316814 31.969078 58.946518
-0.377895 33.413396 57.406769
-0.410762 30.088764 59.069092
-0.316814 31.969078 58.946518
-0.235081 30.543541 60.42181
-0.332412 25.32036 61.993803
-0.41918 26.804508 60.590344
-0.242261 27.179079 61.947844
-0.223125 23.842846 63.309807
-0.400043 23.468275 61.952307
-0.332412 25.32036 61.993803
-6.330148 -40.014652 55.995001
-6.309153 -38.403194 55.513356
-6.409503 -38.940621 56.54209
-6.197059 -41.070772 55.460804
-6.330148 -40.014652 55.995001
-6.297409 -41.608198 56.489538
-5.943225 -42.105325 54.983141
-6.197059 -41.070772 55.460804
-5.943225 -42.105325 54.983141
-5.869595 -43.679655 55.466606
-3.79026 -55.447685 69.921436
-4.031163 -54.306233 69.238666
-3.553733 -56.443452 69.170765
-3.79026 -55.447685 69.921436
-3.474444 -56.568041 70.553055
-2.947613 -58.643766 70.368431
-3.231221 -57.659217 71.177475
-2.940917 -58.739176 71.743523
-2.582653 -59.383408 66.831322
-2.930343 -58.271172 66.258991
-2.938648 -58.407875 67.623547
-2.582653 -59.383408 66.831322
-2.243931 -60.502947 67.342075
-2.347816 -61.863428 73.206993
-2.204956 -62.89673 73.593903
3.341591 20.482367 36.486616
3.043038 19.575903 37.64073
3.692475 3.751602 41.918789
3.623293 5.909536 41.578193
3.312353 4.988901 42.500241
3.006819 -4.620299 44.418094
2.592545 -5.515902 45.166717
3.036496 -2.449697 44.199829
3.006819 -4.620299 44.418094
3.389506 -3.685701 43.613872
3.724979 1.550441 42.253889
3.400359 0.657934 43.118222
3.743803 -0.622592 42.531275
3.692475 3.751602 41.918789
3.724979 1.550441 42.253889
-3.064874 -18.852083 60.149462
-3.363115 -18.378654 59.159151
-3.21571 -20.576895 60.281168
-3.064874 -18.852083 60.149462
-2.738536 -19.314467 61.19648
-2.494641 -21.40847 62.45339
-2.370879 -19.696152 62.267317
-3.048846 -22.746398 61.5093
-2.494641 -21.40847 62.45339
-2.654115 -23.115588 62.634504
-0.868292 -22.531751 67.205849
-0.798736 -20.849616 66.92569
-1.369592 -23.999666 66.240692
-0.868292 -22.531751 67.205849
-0.971166 -24.195591 67.485267
-1.57501 -27.292034 66.852039
-1.044185 -25.842237 67.802826
-1.146729 -27.470764 68.134754
-3.570823 -34.564869 64.927153
-3.459974 -32.990458 64.49336
-4.153812 -35.860248 64.116213
-3.570823 -34.564869 64.927153
-3.669235 -36.122108 65.411136
-2.396425 -39.697704 70.513291
-1.919212 -39.828655 71.864013
-2.396425 -39.697704 70.513291
-2.980559 -40.99982 69.751068
-3.923065 -40.634567 67.0606
-3.837176 -39.156505 66.480514
-4.424207 -41.871856 66.353043
-3.923065 -40.634567 67.0606
-3.957367 -42.079491 67.690682
-4.067581 -46.228916 69.718434
-4.020784 -44.876795 69.020981
-3.641342 -45.031492 70.386158
-4.39681 -47.382881 69.074592
-4.067581 -46.228916 69.718434
-4.644407 -48.519806 68.429779
-4.694619 -47.211143 67.708443
-4.39681 -47.382881 69.074592
-4.778883 -49.617183 67.785675
-4.644407 -48.519806 68.429779
-3.038448 -58.862417 74.44487
-3.011698 -58.806028 73.094307
-2.921277 -59.885086 74.94146
-3.038448 -58.862417 74.44487
-2.771801 -60.906599 75.380295
-2.649396 -60.878943 74.074883
-2.921277 -59.885086 74.94146
-2.719944 -61.896622 75.751866
-2.771801 -60.906599 75.380295
-2.661037 -62.896799 76.074768
-2.441013 -62.900633 74.83662
-2.719944 -61.896622 75.751866
-2.699663 -63.861277 76.310173
-2.661037 -62.896799 76.074768
-2.978594 -62.857265 77.225418
-3.423539 -63.727365 78.487648
-3.277309 -62.801827 78.362759
-3.160798 -64.766875 77.562366
-3.423539 -63.727365 78.487648
-3.567117 -64.672497 78.589191
-2.891542 -65.792225 76.615509
-2.747965 -64.847093 76.513966
-3.160798 -64.766875 77.562366
-2.638121 -66.848995 75.659531
-2.891542 -65.792225 76.615509
-0.133138 22.287863 64.616718
-0.223125 23.842846 63.309807
-0.287586 14.058988 76.832012
-0.630958 13.937501 77.756801
-0.379725 12.140643 77.558982
0.005186 14.145606 75.856849
0.165988 12.313682 75.572575
0.207526 14.197159 74.795231
-0.287586 14.058988 76.832012
0.005186 14.145606 75.856849
0.322172 17.750616 70.641304
0.352498 15.968759 71.630379
0.322172 17.750616 70.641304
0.284475 17.608908 69.371643
-0.016002 20.73526 65.82529
0.073003 19.102369 67.009239
-0.17362 20.438158 64.476883
-0.133138 22.287863 64.616718
-0.016002 20.73526 65.82529
0.167823 3.147676 67.041088
0.388576 3.151007 68.211643
0.045811 4.832248 66.457524
0.167823 3.147676 67.041088
-0.088035 6.533356 65.762173
0.142153 6.610454 66.95787
0.045811 4.832248 66.457524
-0.319609 6.371107 64.537544
-0.223268 8.149313 65.037892
-0.088035 6.533356 65.762173
-0.579372 6.24228 63.381666
-0.319609 6.371107 64.537544
-0.81763 6.013525 62.201687
-0.693099 7.758309 62.633284
-0.579372 6.24228 63.381666
-1.068167 5.812112 61.103542
-0.81763 6.013525 62.201687
2.831568 44.863213 20.186317
3.174158 45.486435 18.570647
0.661627 44.701014 26.333273
0.417893 43.762315 27.968449
0.967235 45.559248 24.747696
0.661627 44.701014 26.333273
1.211931 43.710971 25.588705
1.245856 46.394323 23.092636
0.967235 45.559248 24.747696
1.847916 45.316343 22.399403
1.245856 46.394323 23.092636
2.471137 44.217166 21.741318
1.847916 45.316343 22.399403
2.14076 43.470029 23.345042
3.124413 43.016899 21.131955
2.831568 44.863213 20.186317
2.471137 44.217166 21.741318
3.416254 41.13245 22.104042
3.776685 41.778496 20.549041
3.124413 43.016899 21.131955
3.698381 39.237038 23.015812
3.416254 41.13245 22.104042
3.046108 40.475441 23.598726
3.967485 37.295441 23.949894
3.698381 39.237038 23.015812
4.234036 35.352311 24.825767
3.967485 37.295441 23.949894
3.594786 36.636899 25.386368
4.477083 33.356881 25.719938
4.234036 35.352311 24.825767
4.722968 31.366287 26.55854
4.477083 33.356881 25.719938
4.10722 32.703175 27.100843
4.936207 29.319246 27.410856
4.722968 31.366287 26.55854
4.572499 28.673696 28.738355
4.936207 29.319246 27.410856
4.216484 27.916548 30.088929
4.572499 28.673696 28.738355
3.997089 29.955433 29.290019
3.867464 27.170403 31.381103
4.216484 27.916548 30.088929
3.534498 26.319618 32.698807
3.867464 27.170403 31.381103
3.308109 28.3475 31.958297
3.207987 25.481564 33.954275
3.534498 26.319618 32.698807
2.901878 24.548161 35.237268
3.207987 25.481564 33.954275
2.669034 26.563313 34.558994
2.59905 23.628216 36.455172
3.138002 22.546467 35.850453
2.901878 24.548161 35.237268
-1.304438 40.186039 41.402626
-1.315992 41.42067 39.767776
-1.309057 42.103893 40.883499
-1.331789 38.273004 41.845139
-1.304438 40.186039 41.402626
-1.324854 38.956228 42.960862
-1.08504 8.011699 51.633959
-0.825734 7.298895 50.798512
-0.813505 9.181583 50.733232
-1.08504 8.011699 51.633959
-1.253462 8.686206 52.503828
-1.485794 8.060168 54.396267
-1.399744 9.315786 53.432077
-1.451425 9.897931 54.389369
-1.485794 8.060168 54.396267
-1.621814 6.846576 55.268219
-3.76021 -17.253909 57.298367
-3.368892 -16.073638 58.181605
-3.5755 -17.823071 58.200915
-3.637529 -14.44279 54.119621
-3.512468 -13.402369 54.917748
-3.756924 -15.208327 54.853333
-3.368133 -13.636591 53.434406
-3.637529 -14.44279 54.119621
-3.612589 -15.442548 53.369991
-3.098765 -12.784977 52.762413
-3.368133 -13.636591 53.434406
-2.934323 -13.768466 52.061166
-3.098765 -12.784977 52.762413
-2.783826 -14.794445 51.380235
-2.934323 -13.768466 52.061166
-3.192696 -15.662327 52.003845
-2.510925 -15.821688 50.749418
-2.252553 -13.927827 50.806739
-2.783826 -14.794445 51.380235
-5.902821 -37.217941 53.637526
-6.173886 -37.821388 54.544415
-5.801666 -35.52227 53.280035
-5.902821 -37.217941 53.637526
-5.667415 -33.812397 52.945616
-5.983722 -34.455677 53.788143
-5.801666 -35.52227 53.280035
-5.312584 -33.132711 52.164165
-4.833642 -32.444718 51.442134
-5.49464 -32.066119 52.672274
-5.667415 -33.812397 52.945616
-5.312584 -33.132711 52.164165
-1.361973 -22.068826 48.616079
-2.051676 -22.85622 49.132931
-1.631611 -23.964388 48.668352
-0.690519 -21.2432 48.098256
-1.110583 -20.135032 48.562834
-1.361973 -22.068826 48.616079
-0.013319 -20.454257 47.569598
-0.690519 -21.2432 48.098256
-4.177055 -54.150492 67.862301
-4.338669 -53.133627 68.561821
-4.031163 -54.306233 69.238666
-3.68047 -55.96458 65.07233
-3.653042 -56.14069 66.427173
-3.313765 -57.119529 65.696373
-4.073935 -54.766844 64.469383
-3.68047 -55.96458 65.07233
-3.734658 -55.745683 63.738583
-4.524431 -52.686811 59.985906
-4.8753 -51.705792 60.637296
-4.516148 -53.016375 61.225193
-3.769252 -54.972485 59.882644
-3.771399 -55.247221 61.142395
-4.135737 -53.662043 59.36166
-3.769252 -54.972485 59.882644
-4.524431 -52.686811 59.985906
-4.135737 -53.662043 59.36166
3 299 71 300
3 0 74 72
3 1 301 303
3 303 302 75
3 301 302 303
3 1 304 305
3 307 306 76
3 4 308 309
3 4 310 312
3 310 80 311
3 310 311 312
3 4 82 80
3 3 85 83
3 3 87 85
3 2 90 88
3 6 93 91
3 6 95 93
3 6 97 95
3 9 101 99
3 313 104 314
3 315 314 102
3 313 314 315
3 317 316 104
3 10 318 320
3 320 319 105
3 318 319 320
3 11 321 322
3 5 109 107
3 323 110 324
3 325 111 326
3 327 326 110
3 325 326 327
3 7 115 114
3 12 118 116
3 12 120 118
3 12 122 120
3 14 328 329
3 14 330 331
3 15 125 123
3 15 127 125
3 15 129 127
3 16 132 130
3 16 134 132
3 8 137 135
3 17 140 138
3 17 142 140
3 17 144 142
3 13 147 145
3 13 332 334
3 334 333 147
3 332 333 334
3 335 148 336
3 18 151 149
3 18 153 151
3 337 156 338
3 339 338 154
3 337 338 339
3 340 158 341
3 343 342 158
3 344 159 345
3 346 160 347
3 348 347 159
3 346 347 348
3 350 349 160
3 19 164 162
3 21 165 70
3 21 166 165
3 22 351 353
3 353 352 167
3 351 352 353
3 23 169 168
3 24 170 73
3 24 171 170
3 354 174 355
3 356 355 172
3 354 355 356
3 25 176 175
3 358 357 77
3 26 179 177
3 28 180 78
3 28 181 180
3 28 359 361
3 361 360 181
3 359 360 361
3 29 183 79
3 29 184 183
3 29 186 184
3 31 187 81
3 31 188 187
3 32 191 189
3 34 192 84
3 34 193 192
3 34 195 193
3 36 196 86
3 36 197 196
3 37 200 198
3 39 201 89
3 39 202 201
3 40 205 203
3 42 362 364
3 362 206 363
3 362 363 364
3 42 207 206
3 43 365 367
3 367 366 92
3 365 366 367
3 43 368 370
3 368 208 369
3 368 369 370
3 43 209 208
3 44 210 94
3 44 211 210
3 44 212 211
3 45 213 96
3 45 214 213
3 371 215 372
3 373 372 161
3 371 372 373
3 374 216 375
3 376 375 98
3 374 375 376
3 377 217 378
3 379 378 216
3 377 378 379
3 381 380 217
3 382 218 383
3 385 384 218
3 386 219 387
3 388 220 389
3 390 389 219
3 388 389 390
3 391 221 392
3 394 393 221
3 47 224 222
3 49 225 100
3 49 226 225
3 20 227 163
3 395 228 396
3 397 396 103
3 395 396 397
3 398 229 399
3 400 399 228
3 398 399 400
3 402 401 229
3 403 231 404
3 405 232 406
3 407 406 106
3 405 406 407
3 409 408 232
3 41 233 204
3 51 234 108
3 51 235 234
3 410 236 411
3 412 411 173
3 410 411 412
3 413 237 414
3 416 415 237
3 417 238 418
3 52 419 421
3 419 239 420
3 419 420 421
3 52 240 239
3 422 241 423
3 424 242 425
3 426 425 112
3 424 425 426
3 427 243 428
3 429 428 242
3 427 428 429
3 430 244 431
3 432 431 243
3 430 431 432
3 433 245 434
3 435 246 436
3 437 436 245
3 435 436 437
3 53 438 440
3 440 439 113
3 438 439 440
3 53 441 443
3 441 247 442
3 441 442 443
3 53 248 247
3 444 249 445
3 27 250 178
3 447 446 117
3 54 448 450
3 450 449 119
3 448 449 450
3 54 451 453
3 451 251 452
3 451 452 453
3 54 252 251
3 55 253 121
3 55 254 253
3 454 255 455
3 456 455 182
3 454 455 456
3 56 256 124
3 56 257 256
3 56 258 257
3 57 259 126
3 57 260 259
3 57 261 260
3 58 262 128
3 58 263 262
3 30 264 185
3 59 265 131
3 59 266 265
3 59 267 266
3 60 268 133
3 60 269 268
3 46 457 459
3 457 270 458
3 457 458 459
3 61 271 136
3 61 272 271
3 33 273 190
3 62 274 139
3 62 275 274
3 62 276 275
3 63 277 141
3 63 278 277
3 63 279 278
3 64 280 143
3 64 460 462
3 462 461 280
3 460 461 462
3 35 281 194
3 463 282 464
3 465 464 146
3 463 464 465
3 467 466 282
3 65 468 469
3 65 470 471
3 38 283 199
3 66 284 150
3 66 285 284
3 66 286 285
3 67 287 152
3 67 288 287
3 48 289 223
3 68 290 155
3 68 291 290
3 69 472 474
3 472 292 473
3 472 473 474
3 69 293 292
3 69 294 293
3 475 295 476
3 477 476 157
3 475 476 477
3 479 478 295
3 50 296 230
3 480 297 481
3 482 298 483
3 484 483 297
3 482 483 484
3 485 70 486
3 487 486 19
3 485 486 487
3 71 488 490
3 488 70 489
3 488 489 490
3 71 21 70
3 492 491 22
3 72 73 23
3 74 73 72
3 74 24 73
3 75 493 494
3 496 495 75
3 76 77 25
3 497 77 498
3 499 498 76
3 497 498 499
3 501 500 77
3 502 78 503
3 504 503 26
3 502 503 504
3 505 78 506
3 507 28 508
3 509 508 78
3 507 508 509
3 511 510 28
3 512 79 513
3 80 514 516
3 514 79 515
3 514 515 516
3 80 29 79
3 80 81 29
3 82 81 80
3 82 31 81
3 83 84 32
3 85 84 83
3 85 34 84
3 85 86 34
3 87 86 85
3 87 36 86
3 88 89 37
3 90 89 88
3 90 39 89
3 518 517 40
3 519 42 520
3 91 521 523
3 521 92 522
3 521 522 523
3 93 92 91
3 93 43 92
3 93 94 43
3 95 94 93
3 95 44 94
3 95 96 44
3 97 96 95
3 97 45 96
3 524 98 525
3 526 98 527
3 529 528 98
3 99 100 47
3 101 100 99
3 101 49 100
3 102 103 20
3 104 103 102
3 104 530 532
3 532 531 103
3 530 531 532
3 104 533 534
3 536 535 104
3 105 537 539
3 537 106 538
3 537 538 539
3 540 106 541
3 542 541 105
3 540 541 542
3 544 543 106
3 107 108 41
3 109 108 107
3 109 51 108
3 110 545 546
3 110 547 548
3 110 549 550
3 111 551 553
3 553 552 110
3 551 552 553
3 111 554 556
3 554 52 555
3 554 555 556
3 557 112 558
3 559 112 560
3 562 561 112
3 563 113 564
3 565 113 566
3 567 53 568
3 569 568 113
3 567 568 569
3 571 570 53
3 114 572 573
3 115 574 576
3 576 575 114
3 574 575 576
3 115 577 578
3 116 117 27
3 118 117 116
3 118 579 581
3 581 580 117
3 579 580 581
3 118 582 584
3 582 119 583
3 582 583 584
3 120 119 118
3 120 54 119
3 120 121 54
3 122 121 120
3 122 55 121
3 123 585 587
3 585 124 586
3 585 586 587
3 125 124 123
3 125 56 124
3 125 126 56
3 127 126 125
3 127 57 126
3 127 128 57
3 129 128 127
3 129 58 128
3 130 131 30
3 132 131 130
3 132 59 131
3 132 133 59
3 134 133 132
3 134 60 133
3 135 136 46
3 137 136 135
3 137 61 136
3 138 139 33
3 140 139 138
3 140 62 139
3 140 141 62
3 142 141 140
3 142 63 141
3 142 143 63
3 144 143 142
3 144 64 143
3 145 146 35
3 147 146 145
3 147 588 590
3 590 589 146
3 588 589 590
3 147 591 592
3 594 593 147
3 148 595 596
3 148 597 599
3 597 65 598
3 597 598 599
3 149 150 38
3 151 150 149
3 151 66 150
3 151 152 66
3 153 152 151
3 153 67 152
3 154 155 48
3 156 155 154
3 156 68 155
3 600 69 601
3 602 157 603
3 604 603 69
3 602 603 604
3 158 605 607
3 605 157 606
3 605 606 607
3 158 608 610
3 610 609 157
3 608 609 610
3 158 611 612
3 614 613 158
3 616 615 50
3 159 617 618
3 159 619 620
3 159 621 623
3 621 91 622
3 621 622 623
3 160 91 159
3 160 6 91
3 160 161 6
3 624 161 625
3 626 625 160
3 624 625 626
3 628 627 161
3 162 163 9
3 164 163 162
3 164 20 163
3 70 164 19
3 165 164 70
3 165 20 164
3 165 102 20
3 166 102 165
3 166 629 631
3 631 630 102
3 629 630 631
3 167 632 634
3 634 633 10
3 632 633 634
3 636 635 167
3 638 637 22
3 168 639 641
3 641 640 11
3 639 640 641
3 169 642 644
3 644 643 168
3 642 643 644
3 169 645 646
3 73 169 23
3 170 169 73
3 170 647 649
3 649 648 169
3 647 648 649
3 170 650 651
3 171 652 654
3 654 653 170
3 652 653 654
3 171 655 656
3 172 173 5
3 174 173 172
3 174 657 659
3 659 658 173
3 657 658 659
3 660 174 661
3 662 174 663
3 665 664 174
3 175 666 667
3 176 668 670
3 670 669 175
3 668 669 670
3 176 671 672
3 77 176 25
3 673 176 674
3 675 674 77
3 673 674 675
3 677 676 176
3 177 178 7
3 179 178 177
3 179 27 178
3 78 179 26
3 180 179 78
3 180 27 179
3 180 116 27
3 181 116 180
3 181 12 116
3 181 182 12
3 678 182 679
3 680 679 181
3 678 679 680
3 682 681 182
3 684 683 28
3 685 14 686
3 79 687 688
3 183 689 691
3 691 690 79
3 689 690 691
3 183 692 693
3 183 694 696
3 694 123 695
3 694 695 696
3 184 123 183
3 184 15 123
3 184 185 15
3 186 185 184
3 186 30 185
3 81 186 29
3 187 186 81
3 187 30 186
3 187 130 30
3 188 130 187
3 188 16 130
3 189 190 8
3 191 190 189
3 191 33 190
3 84 191 32
3 192 191 84
3 192 33 191
3 192 138 33
3 193 138 192
3 193 17 138
3 193 194 17
3 195 194 193
3 195 35 194
3 86 195 34
3 196 195 86
3 196 35 195
3 196 145 35
3 197 145 196
3 197 13 145
3 198 697 699
3 697 199 698
3 697 698 699
3 200 199 198
3 200 38 199
3 89 200 37
3 201 200 89
3 201 38 200
3 201 149 38
3 202 149 201
3 202 18 149
3 203 204 0
3 205 204 203
3 205 41 204
3 700 205 701
3 702 701 40
3 700 701 702
3 703 205 704
3 705 41 706
3 707 706 205
3 705 706 707
3 708 107 709
3 710 709 41
3 708 709 710
3 711 107 712
3 713 5 714
3 715 714 107
3 713 714 715
3 716 5 717
3 718 172 719
3 720 719 5
3 718 719 720
3 721 172 722
3 724 723 172
3 206 725 726
3 206 727 728
3 206 729 731
3 729 75 730
3 729 730 731
3 207 75 206
3 207 1 75
3 92 732 733
3 735 734 92
3 208 736 737
3 208 738 739
3 208 740 742
3 740 175 741
3 740 741 742
3 209 175 208
3 209 25 175
3 94 209 43
3 210 209 94
3 210 25 209
3 210 76 25
3 211 76 210
3 211 743 745
3 745 744 76
3 743 744 745
3 211 746 747
3 212 748 750
3 750 749 211
3 748 749 750
3 212 751 752
3 96 212 44
3 213 212 96
3 213 753 755
3 755 754 212
3 753 754 755
3 213 756 758
3 756 114 757
3 756 757 758
3 214 114 213
3 214 7 114
3 161 97 6
3 215 97 161
3 215 45 97
3 98 759 761
3 759 215 760
3 759 760 761
3 216 215 98
3 216 45 215
3 216 214 45
3 217 214 216
3 217 7 214
3 217 177 7
3 762 177 763
3 764 763 217
3 762 763 764
3 765 26 766
3 767 766 177
3 765 766 767
3 768 26 769
3 771 770 26
3 772 4 773
3 775 774 4
3 776 46 777
3 218 778 779
3 218 780 782
3 780 46 781
3 780 781 782
3 218 135 46
3 783 135 784
3 785 784 218
3 783 784 785
3 786 8 787
3 788 787 135
3 786 787 788
3 219 789 790
3 219 791 793
3 791 8 792
3 791 792 793
3 219 189 8
3 220 189 219
3 220 32 189
3 794 220 795
3 221 796 798
3 796 220 797
3 796 797 798
3 221 32 220
3 221 83 32
3 799 83 800
3 801 800 221
3 799 800 801
3 802 3 803
3 804 803 83
3 802 803 804
3 222 223 2
3 224 223 222
3 224 48 223
3 100 224 47
3 225 224 100
3 225 48 224
3 225 154 48
3 226 154 225
3 226 805 807
3 807 806 154
3 805 806 807
3 163 101 9
3 227 101 163
3 227 49 101
3 103 227 20
3 228 227 103
3 228 49 227
3 228 226 49
3 229 226 228
3 229 808 810
3 810 809 226
3 808 809 810
3 229 811 812
3 814 813 229
3 815 230 816
3 231 817 819
3 817 230 818
3 817 818 819
3 231 50 230
3 106 820 822
3 820 231 821
3 820 821 822
3 232 231 106
3 232 50 231
3 232 823 825
3 825 824 50
3 823 824 825
3 827 826 232
3 829 828 10
3 831 830 11
3 204 74 0
3 233 74 204
3 233 24 74
3 108 233 41
3 234 233 108
3 234 24 233
3 234 171 24
3 235 171 234
3 235 832 834
3 834 833 171
3 832 833 834
3 173 109 5
3 236 109 173
3 236 51 109
3 835 236 836
3 237 837 839
3 837 236 838
3 837 838 839
3 237 51 236
3 237 235 51
3 840 235 841
3 842 841 237
3 840 841 842
3 844 843 235
3 845 198 846
3 238 847 849
3 847 198 848
3 847 848 849
3 238 37 198
3 850 238 851
3 239 852 854
3 852 238 853
3 852 853 854
3 239 37 238
3 239 88 37
3 240 88 239
3 240 2 88
3 855 111 856
3 241 857 859
3 857 111 858
3 857 858 859
3 241 52 111
3 112 860 862
3 860 241 861
3 860 861 862
3 242 241 112
3 242 52 241
3 242 240 52
3 243 240 242
3 243 2 240
3 243 222 2
3 244 222 243
3 244 47 222
3 863 244 864
3 245 865 867
3 865 244 866
3 865 866 867
3 245 47 244
3 245 99 47
3 246 99 245
3 246 9 99
3 113 868 869
3 871 870 113
3 872 246 873
3 247 874 876
3 874 246 875
3 874 875 876
3 247 9 246
3 247 162 9
3 248 162 247
3 248 19 162
3 877 248 878
3 879 878 53
3 877 878 879
3 880 248 881
3 882 19 883
3 884 883 248
3 882 883 884
3 886 885 19
3 887 105 888
3 889 105 890
3 891 10 892
3 893 892 105
3 891 892 893
3 894 10 895
3 896 167 897
3 898 897 10
3 896 897 898
3 249 899 901
3 899 167 900
3 899 900 901
3 249 22 167
3 902 249 903
3 904 249 905
3 904 905 906
3 907 22 908
3 909 908 249
3 907 908 909
3 911 910 22
3 912 3 913
3 178 115 7
3 250 115 178
3 250 914 916
3 916 915 115
3 914 915 916
3 117 250 27
3 917 250 918
3 919 918 117
3 917 918 919
3 921 920 250
3 119 922 923
3 925 924 119
3 251 926 927
3 251 928 930
3 928 3 929
3 928 929 930
3 251 87 3
3 252 87 251
3 252 36 87
3 121 252 54
3 253 252 121
3 253 36 252
3 253 197 36
3 254 197 253
3 254 13 197
3 182 122 12
3 255 122 182
3 255 55 122
3 931 255 932
3 933 255 934
3 935 55 936
3 937 936 255
3 935 936 937
3 938 254 939
3 940 939 55
3 938 939 940
3 941 254 942
3 943 13 944
3 945 944 254
3 943 944 945
3 947 946 13
3 948 14 949
3 124 950 951
3 256 952 954
3 954 953 124
3 952 953 954
3 256 955 956
3 256 957 958
3 257 959 961
3 961 960 256
3 959 960 961
3 257 962 964
3 962 14 963
3 962 963 964
3 257 965 967
3 967 966 14
3 965 966 967
3 258 968 970
3 970 969 257
3 968 969 970
3 258 971 972
3 126 258 56
3 259 258 126
3 259 973 975
3 975 974 258
3 973 974 975
3 259 976 977
3 260 978 980
3 980 979 259
3 978 979 980
3 260 981 982
3 260 983 984
3 261 985 987
3 987 986 260
3 985 986 987
3 261 988 989
3 128 261 57
3 262 261 128
3 262 990 992
3 992 991 261
3 990 991 992
3 262 993 994
3 263 995 997
3 997 996 262
3 995 996 997
3 263 998 1000
3 998 11 999
3 998 999 1000
3 185 129 15
3 264 129 185
3 264 58 129
3 131 264 30
3 265 264 131
3 265 58 264
3 265 263 58
3 266 263 265
3 266 11 263
3 266 168 11
3 267 168 266
3 267 23 168
3 133 267 59
3 268 267 133
3 268 23 267
3 268 72 23
3 269 72 268
3 269 0 72
3 1001 82 1002
3 1003 1002 4
3 1001 1002 1003
3 270 1004 1006
3 1004 82 1005
3 1004 1005 1006
3 270 31 82
3 136 270 46
3 271 270 136
3 271 31 270
3 271 188 31
3 272 188 271
3 272 16 188
3 190 137 8
3 273 137 190
3 273 61 137
3 139 273 33
3 274 273 139
3 274 61 273
3 274 272 61
3 275 272 274
3 275 16 272
3 275 134 16
3 276 134 275
3 276 60 134
3 141 276 62
3 277 276 141
3 277 60 276
3 277 269 60
3 278 269 277
3 278 0 269
3 278 203 0
3 279 203 278
3 279 40 203
3 143 279 63
3 280 279 143
3 280 40 279
3 280 1007 1009
3 1009 1008 40
3 1007 1008 1009
3 1011 1010 280
3 194 144 17
3 281 144 194
3 281 64 144
3 146 281 35
3 282 281 146
3 282 64 281
3 282 1012 1014
3 1014 1013 64
3 1012 1013 1014
3 1016 1015 282
3 199 1017 1019
3 1017 148 1018
3 1017 1018 1019
3 283 148 199
3 283 65 148
3 150 283 38
3 284 283 150
3 284 65 283
3 284 1020 1022
3 1022 1021 65
3 1020 1021 1022
3 285 1023 1025
3 1025 1024 284
3 1023 1024 1025
3 285 1026 1027
3 285 1028 1029
3 286 1030 1032
3 1032 1031 285
3 1030 1031 1032
3 286 1033 1035
3 1033 42 1034
3 1033 1034 1035
3 152 286 66
3 287 286 152
3 287 42 286
3 287 207 42
3 288 207 287
3 288 1 207
3 223 90 2
3 289 90 223
3 289 39 90
3 155 289 48
3 290 289 155
3 290 39 289
3 290 202 39
3 291 202 290
3 291 18 202
3 1036 156 1037
3 1038 156 1039
3 1040 68 1041
3 1042 1041 156
3 1040 1041 1042
3 292 1043 1044
3 292 1045 1047
3 1045 68 1046
3 1045 1046 1047
3 292 291 68
3 293 291 292
3 293 18 291
3 293 153 18
3 294 153 293
3 294 67 153
3 157 294 69
3 295 294 157
3 295 67 294
3 295 288 67
3 1048 288 1049
3 1050 1049 295
3 1048 1049 1050
3 1051 1 1052
3 1053 1052 288
3 1051 1052 1053
3 1055 1054 1
3 230 1056 1058
3 1056 71 1057
3 1056 1057 1058
3 296 71 230
3 296 21 71
3 1059 296 1060
3 1061 1060 50
3 1059 1060 1061
3 297 1062 1064
3 1062 296 1063
3 1062 1063 1064
3 297 21 296
3 297 166 21
3 298 166 297
3 298 1065 1067
3 1067 1066 166
3 1065 1066 1067
3 1068 298 1069
3 1070 298 1071
3 1073 1072 298
