ply
format ascii 1.0
element vertex 371
property float x
property float y
property float z
element face 358
property list uchar int vertex_index
end_header
24.068062 70.218048 24.994957
28.320986 74.338974 13.851702
27.156483 51.93084 43.421219
16.027031 76.885803 27.557369
19.372826 81.15258 14.302153
21.382917 63.843437 36.157383
20.126801 73.665222 26.115866
17.596077 79.541237 20.922394
21.746181 76.021423 19.88818
31.179878 75.204163 8.790934
26.309021 78.22686 8.123588
29.275816 78.189423 2.916615
17.420364 66.605354 37.904076
31.327078 50.547386 42.663307
28.219009 55.453293 38.878441
28.213837 67.244583 24.343405
25.918097 72.615814 19.276278
32.904449 71.628212 14.452335
23.780708 77.539314 13.808842
21.463161 81.7323 7.980089
14.577927 73.280907 33.997429
18.728374 70.513428 32.173912
22.635059 67.293526 30.726513
24.154634 57.521973 39.807472
25.299618 61.062325 34.911507
22.094116 71.920403 25.50745
20.895615 74.945526 23.0042
22.895966 73.174652 22.50198
32.713364 75.279884 6.37823
30.270363 76.762787 5.87231
31.850872 76.661568 3.443318
33.44347 49.849304 42.152721
31.895838 52.135307 40.361191
34.062077 51.37043 39.828461
36.225761 50.617737 39.170715
30.411552 66.037971 24.222446
34.284019 72.087715 12.127665
18.451321 80.48056 17.592299
16.273411 82.114883 18.115108
27.05143 73.574387 16.517834
24.849655 75.156479 16.592432
26.028671 75.861359 13.75661
25.192976 79.931984 5.165218
23.872635 79.926659 7.984209
19.421953 65.257095 36.959793
18.063755 68.651024 35.078896
20.052036 67.17231 34.229591
20.699081 68.919571 31.404003
21.997629 65.638954 33.491749
23.619793 55.555527 42.110085
25.625507 54.628075 41.608501
28.80549 57.076805 36.475025
26.72736 58.163994 36.914124
18.115324 75.353539 26.802029
16.792694 78.339333 24.25499
18.87521 76.703239 23.594105
19.690788 77.819977 20.364071
20.583626 78.697037 17.151773
29.706429 74.887383 11.278677
27.337387 76.364365 11.023839
28.758575 76.66404 8.397055
27.744122 78.290794 5.459864
26.625414 79.783554 2.483613
16.811867 64.385834 40.669533
18.814209 63.174522 39.608253
20.785828 61.896606 38.724472
29.227196 51.234344 43.064697
27.670059 53.752861 41.196117
29.760414 52.925285 40.801224
30.337673 54.529587 38.459114
26.098148 68.641853 24.601192
24.927242 71.489166 22.112213
27.02824 69.960045 21.859192
28.09831 71.145645 19.185482
29.305813 72.157234 16.596199
31.576582 70.866142 16.818249
30.63114 72.952164 14.090561
32.043686 73.494728 11.656511
33.510841 73.76049 9.27863
23.807617 74.257088 19.516941
22.702797 76.886993 16.81078
21.571527 79.333237 13.996959
24.984348 77.982033 10.908309
22.665987 79.736649 10.933066
20.373133 81.563225 11.087981
15.28929 75.194595 30.807537
16.690277 71.992867 33.037537
17.391121 73.780029 29.95575
19.412102 72.186325 29.182297
21.372128 70.501495 28.488174
23.314997 68.818039 27.881695
22.744028 60.605972 38.001839
26.161884 56.452888 39.310287
24.714911 59.349205 37.410515
23.330132 62.42617 35.481232
23.938379 64.123039 32.857475
24.583601 65.71682 30.145172
25.292715 67.222412 27.378067
27.347429 65.781349 26.992592
33.067768 75.884529 3.737991
32.282118 75.970726 4.910774
33.499014 75.193687 5.205447
32.6659 76.50763 2.274017
33.067768 75.884529 3.737991
34.806365 50.247459 40.660316
33.752774 50.609867 40.990591
34.497061 49.486897 41.822446
35.888206 49.871113 40.331443
35.143919 50.994084 39.499588
34.806365 50.247459 40.660316
36.915658 49.490906 39.916381
35.888206 49.871113 40.331443
30.927164 66.738312 23.00766
31.53097 65.515545 24.219397
15.330299 78.31784 26.268749
14.94427 77.528476 27.968998
18.262869 82.013828 14.50439
17.802117 81.677818 16.149463
18.912073 80.81657 15.947226
18.727776 82.251152 12.830592
18.262869 82.013828 14.50439
23.923232 80.812607 5.083267
24.57376 80.709698 3.666315
26.390995 53.279458 42.51486
25.372603 53.64333 42.712087
26.138091 52.294713 43.618447
28.066173 58.438004 35.451178
29.120807 57.872715 35.24078
28.720118 78.846554 1.429385
27.394917 79.643619 1.212884
27.950615 78.986489 2.700114
16.534588 63.195332 42.034397
15.793204 64.927933 41.287109
19.514185 61.483856 40.409835
18.529125 62.052338 40.904081
20.499994 60.844898 39.967945
19.800019 62.535564 39.166362
19.514185 61.483856 40.409835
31.426783 54.104348 38.232765
31.116756 53.332447 39.410152
32.205865 52.907207 39.183803
30.648982 55.31501 37.257904
31.426783 54.104348 38.232765
29.216639 70.494529 19.216387
28.65361 69.880855 20.470436
29.82039 71.000324 17.921746
28.702061 71.65144 17.89084
29.216639 70.494529 19.216387
32.240516 71.247177 15.635292
32.689105 70.242344 16.987676
33.353038 70.623379 15.80472
34.598564 72.990818 9.552366
33.89743 72.924103 10.703148
34.985153 72.154431 10.976883
34.258817 73.748394 8.111853
34.598564 72.990818 9.552366
16.516011 80.305431 21.236286
16.11432 79.704479 22.902584
17.194386 78.940285 22.588692
15.159524 82.797012 18.412924
15.585952 83.241867 16.656652
20.268217 82.642483 8.0424
19.723203 82.557946 9.596345
20.918147 81.647762 9.534035
13.848871 74.815976 32.867718
13.496418 73.793988 34.523546
14.933609 74.237751 32.402483
14.204552 75.772819 31.272773
13.848871 74.815976 32.867718
16.716271 68.304355 36.975307
16.39399 67.214825 38.449944
23.166661 58.083161 40.116196
22.899241 57.099937 41.267502
23.887214 56.53875 40.958778
23.449331 59.063973 38.904655
22.461358 59.62516 39.213379
23.166661 58.083161 40.116196
25.587518 64.988445 29.90595
25.250903 64.203834 31.232856
25.942075 65.741242 28.522398
24.938158 66.469616 28.76162
25.587518 64.988445 29.90595
26.969431 65.02071 28.32966
26.320072 66.50188 27.18533
25.942075 65.741242 28.522398
31.369566 77.294727 1.967065
30.082038 78.058655 1.703714
30.563344 77.425496 3.179966
31.369566 77.294727 1.967065
32.6659 76.50763 2.274017
33.288984 52.524769 38.917439
32.205865 52.907207 39.183803
32.978957 51.752868 40.094826
34.39679 52.130798 38.655336
33.288984 52.524769 38.917439
35.478632 51.754452 38.326464
34.39679 52.130798 38.655336
35.143919 50.994084 39.499588
36.581804 51.383454 38.012234
35.478632 51.754452 38.326464
37.278664 50.241577 38.768722
36.581804 51.383454 38.012234
37.278664 50.241577 38.768722
36.915658 49.490906 39.916381
29.810231 67.327019 22.988918
28.711374 67.930325 23.049397
29.312694 66.641277 24.282926
29.810231 67.327019 22.988918
30.927164 66.738312 23.00766
33.988871 70.945603 14.678247
33.353038 70.623379 15.80472
34.678656 71.175354 13.515912
33.594234 71.857964 13.29
33.988871 70.945603 14.678247
35.324381 71.321205 12.392485
34.678656 71.175354 13.515912
34.985153 72.154431 10.976883
35.324381 71.321205 12.392485
16.713161 82.494979 16.410867
17.362366 81.297721 17.853704
17.802117 81.677818 16.149463
15.585952 83.241867 16.656652
16.713161 82.494979 16.410867
23.263061 80.809945 6.492763
24.532806 79.929322 6.574713
23.923232 80.812607 5.083267
22.058324 81.712765 6.490703
22.667898 80.829479 7.982149
23.263061 80.809945 6.492763
20.800994 82.62318 6.475784
22.058324 81.712765 6.490703
14.239402 72.220616 35.56477
13.496418 73.793988 34.523546
24.369746 54.107056 42.962879
23.368635 54.494919 43.223589
24.62265 55.091801 41.859293
24.369746 54.107056 42.962879
25.372603 53.64333 42.712087
27.027107 58.981598 35.670727
27.766425 57.6204 36.694575
28.066173 58.438004 35.451178
26.313236 60.430763 34.669418
26.013489 59.61316 35.912816
27.027107 58.981598 35.670727
25.608911 61.876587 33.616024
26.313236 60.430763 34.669418
25.289979 80.635482 2.325513
24.57376 80.709698 3.666315
25.909195 79.857769 3.824416
25.999852 80.468479 0.986096
25.289979 80.635482 2.325513
25.999852 80.468479 0.986096
27.394917 79.643619 1.212884
28.720118 78.846554 1.429385
30.082038 78.058655 1.703714
16.089741 66.105064 39.832672
15.793204 64.927933 41.287109
17.116115 65.495594 39.286805
16.39399 67.214825 38.449944
16.089741 66.105064 39.832672
17.527954 62.657994 41.434721
16.534588 63.195332 42.034397
17.813038 63.780178 40.138893
17.527954 62.657994 41.434721
18.529125 62.052338 40.904081
29.882891 56.588619 36.26586
29.571582 55.803196 37.46707
30.648982 55.31501 37.257904
29.120807 57.872715 35.24078
29.882891 56.588619 36.26586
28.118575 69.288055 21.807291
27.621039 68.602314 23.101298
28.711374 67.930325 23.049397
27.563275 70.552845 20.522337
28.118575 69.288055 21.807291
28.65361 69.880855 20.470436
32.078606 69.76165 18.130966
32.689105 70.242344 16.987676
30.955774 70.354778 18.032771
32.078606 69.76165 18.130966
30.441198 71.511688 16.707224
29.82039 71.000324 17.921746
30.955774 70.354778 18.032771
33.860079 74.508091 6.661653
33.112102 74.520187 7.82843
34.258817 73.748394 8.111853
33.499014 75.193687 5.205447
33.860079 74.508091 6.661653
26.917295 50.941429 44.489178
26.138091 52.294713 43.618447
27.946411 50.668969 44.33104
26.917295 50.941429 44.489178
28.981768 50.320721 44.152778
28.19184 51.582592 43.242958
27.946411 50.668969 44.33104
30.01915 50.045261 43.979778
28.981768 50.320721 44.152778
31.069091 49.701782 43.779083
30.277137 50.890865 42.864002
30.01915 50.045261 43.979778
32.10666 49.406861 43.548553
31.069091 49.701782 43.779083
33.164856 49.057819 43.293261
32.385274 50.198345 42.408014
32.10666 49.406861 43.548553
34.190641 48.731266 42.976725
33.164856 49.057819 43.293261
34.497061 49.486897 41.822446
34.190641 48.731266 42.976725
15.71313 79.044605 24.617559
15.330299 78.31784 26.268749
16.409863 77.612568 25.90618
15.71313 79.044605 24.617559
16.11432 79.704479 22.902584
15.854678 81.592254 19.832643
16.516011 80.305431 21.236286
16.934744 80.82806 19.518751
15.854678 81.592254 19.832643
15.159524 82.797012 18.412924
19.22793 82.456474 11.223506
18.727776 82.251152 12.830592
19.872979 81.357902 12.695067
19.22793 82.456474 11.223506
19.723203 82.557946 9.596345
20.268217 82.642483 8.0424
20.800994 82.62318 6.475784
14.575399 76.682873 29.594082
14.204552 75.772819 31.272773
15.658161 76.040199 29.182453
14.94427 77.528476 27.968998
14.575399 76.682873 29.594082
15.295052 71.642132 35.021984
14.239402 72.220616 35.56477
17.037966 69.327191 35.562718
16.716271 68.304355 36.975307
17.742059 67.628189 36.491486
16.351227 70.998112 34.542038
17.037966 69.327191 35.562718
17.377016 70.321945 34.058217
15.634102 72.636887 33.517483
15.295052 71.642132 35.021984
16.351227 70.998112 34.542038
22.631189 56.043011 42.440376
23.368635 54.494919 43.223589
22.631189 56.043011 42.440376
22.899241 57.099937 41.267502
21.482258 60.270477 39.574696
20.499994 60.844898 39.967945
21.764928 61.251289 38.363155
21.482258 60.270477 39.574696
22.461358 59.62516 39.213379
24.928292 63.406944 32.589008
24.618999 62.592682 33.884491
25.608911 61.876587 33.616024
24.26099 64.919929 31.501323
24.928292 63.406944 32.589008
25.250903 64.203834 31.232856
28.018335 64.376423 28.143308
26.969431 65.02071 28.32966
28.421627 65.155491 26.861538
28.018335 64.376423 28.143308
28.854831 65.887108 25.536945
27.780633 66.512966 25.667998
28.421627 65.155491 26.861538
29.953688 65.283802 25.476465
29.312694 66.641277 24.282926
28.854831 65.887108 25.536945
31.065593 64.751407 25.40009
29.953688 65.283802 25.476465
31.53097 65.515545 24.219397
31.065593 64.751407 25.40009
3 0 27 25
3 99 30 100
3 101 100 28
3 99 100 101
3 103 102 30
3 104 33 105
3 106 105 31
3 104 105 106
3 107 34 108
3 109 108 33
3 107 108 109
3 111 110 34
3 113 112 35
3 3 114 115
3 4 116 118
3 118 117 37
3 116 117 118
3 4 119 120
3 1 41 39
3 122 121 42
3 5 46 44
3 5 48 46
3 2 123 125
3 123 50 124
3 123 124 125
3 127 126 51
3 6 55 53
3 8 56 26
3 8 57 56
3 9 60 58
3 11 61 29
3 11 62 61
3 11 128 130
3 130 129 62
3 128 129 130
3 131 63 132
3 133 64 134
3 135 65 136
3 137 136 64
3 135 136 137
3 13 68 66
3 138 69 139
3 140 139 32
3 138 139 140
3 142 141 69
3 15 72 70
3 143 73 144
3 145 74 146
3 147 146 73
3 145 146 147
3 17 148 150
3 148 75 149
3 148 149 150
3 17 76 75
3 17 77 76
3 151 78 152
3 153 152 36
3 151 152 153
3 155 154 78
3 7 156 158
3 158 157 54
3 156 157 158
3 160 159 38
3 16 79 71
3 18 80 40
3 18 81 80
3 10 82 59
3 19 83 43
3 19 84 83
3 19 161 163
3 163 162 84
3 161 162 163
3 20 164 165
3 20 166 168
3 166 85 167
3 166 167 168
3 12 169 170
3 21 86 45
3 21 87 86
3 21 88 87
3 22 89 47
3 22 90 89
3 23 171 173
3 173 172 49
3 171 172 173
3 23 174 176
3 174 91 175
3 174 175 176
3 14 92 67
3 24 93 52
3 24 94 93
3 24 95 94
3 177 96 178
3 179 97 180
3 181 180 96
3 179 180 181
3 182 98 183
3 184 183 97
3 182 183 184
3 25 26 6
3 27 26 25
3 27 8 26
3 28 29 9
3 30 29 28
3 30 11 29
3 30 185 187
3 187 186 11
3 185 186 187
3 189 188 30
3 31 32 13
3 33 32 31
3 33 190 192
3 192 191 32
3 190 191 192
3 33 193 194
3 34 195 197
3 197 196 33
3 195 196 197
3 34 198 199
3 34 200 201
3 203 202 34
3 35 204 206
3 206 205 15
3 204 205 206
3 208 207 35
3 209 17 210
3 211 36 212
3 213 212 17
3 211 212 213
3 214 36 215
3 217 216 36
3 37 38 7
3 218 38 219
3 220 219 37
3 218 219 220
3 222 221 38
3 39 40 16
3 41 40 39
3 41 18 40
3 42 43 10
3 223 43 224
3 225 224 42
3 223 224 225
3 226 19 227
3 228 227 43
3 226 227 228
3 230 229 19
3 231 20 232
3 44 45 12
3 46 45 44
3 46 21 45
3 46 47 21
3 48 47 46
3 48 22 47
3 233 49 234
3 50 235 237
3 235 49 236
3 235 236 237
3 50 23 49
3 51 52 14
3 238 52 239
3 240 239 51
3 238 239 240
3 241 24 242
3 243 242 52
3 241 242 243
3 245 244 24
3 53 54 3
3 55 54 53
3 55 7 54
3 26 55 6
3 56 55 26
3 56 7 55
3 56 37 7
3 57 37 56
3 57 4 37
3 58 59 1
3 60 59 58
3 60 10 59
3 29 60 9
3 61 60 29
3 61 10 60
3 61 42 10
3 62 42 61
3 62 246 248
3 248 247 42
3 246 247 248
3 62 249 250
3 252 251 62
3 254 253 11
3 63 255 256
3 63 257 259
3 257 12 258
3 257 258 259
3 260 63 261
3 64 262 264
3 262 63 263
3 262 263 264
3 64 12 63
3 64 44 12
3 65 44 64
3 65 5 44
3 66 67 2
3 68 67 66
3 68 14 67
3 32 68 13
3 69 68 32
3 69 14 68
3 69 51 14
3 265 51 266
3 267 266 69
3 265 266 267
3 269 268 51
3 70 71 0
3 72 71 70
3 72 16 71
3 270 72 271
3 272 271 15
3 270 271 272
3 73 273 275
3 273 72 274
3 273 274 275
3 73 16 72
3 73 39 16
3 74 39 73
3 74 1 39
3 75 276 277
3 75 278 279
3 75 280 282
3 280 74 281
3 280 281 282
3 76 74 75
3 76 1 74
3 76 58 1
3 77 58 76
3 77 9 58
3 36 77 17
3 78 77 36
3 78 9 77
3 78 28 9
3 283 28 284
3 285 284 78
3 283 284 285
3 287 286 28
3 288 2 289
3 290 2 291
3 292 66 293
3 294 293 2
3 292 293 294
3 295 66 296
3 297 13 298
3 299 298 66
3 297 298 299
3 300 13 301
3 302 31 303
3 304 303 13
3 302 303 304
3 305 31 306
3 308 307 31
3 54 309 311
3 311 310 3
3 309 310 311
3 313 312 54
3 38 314 316
3 316 315 7
3 314 315 316
3 318 317 38
3 71 27 0
3 79 27 71
3 79 8 27
3 40 79 16
3 80 79 40
3 80 8 79
3 80 57 8
3 81 57 80
3 81 4 57
3 59 41 1
3 82 41 59
3 82 18 41
3 43 82 10
3 83 82 43
3 83 18 82
3 83 81 18
3 84 81 83
3 84 4 81
3 84 319 321
3 321 320 4
3 319 320 321
3 323 322 84
3 325 324 19
3 85 326 327
3 85 328 330
3 328 3 329
3 328 329 330
3 331 20 332
3 45 333 335
3 335 334 12
3 333 334 335
3 86 336 338
3 338 337 45
3 336 337 338
3 86 339 341
3 339 20 340
3 339 340 341
3 86 85 20
3 87 85 86
3 87 3 85
3 87 53 3
3 88 53 87
3 88 6 53
3 47 88 21
3 89 88 47
3 89 6 88
3 89 25 6
3 90 25 89
3 90 0 25
3 49 342 343
3 345 344 49
3 346 65 347
3 91 348 350
3 348 65 349
3 348 349 350
3 91 5 65
3 67 50 2
3 92 50 67
3 92 23 50
3 52 92 14
3 93 92 52
3 93 23 92
3 93 91 23
3 94 91 93
3 94 5 91
3 94 48 5
3 95 48 94
3 95 22 48
3 351 95 352
3 353 352 24
3 351 352 353
3 96 354 356
3 354 95 355
3 354 355 356
3 96 22 95
3 96 90 22
3 97 90 96
3 97 0 90
3 97 70 0
3 98 70 97
3 98 15 70
3 357 98 358
3 359 98 360
3 361 15 362
3 363 362 98
3 361 362 363
3 364 35 365
3 366 365 15
3 364 365 366
3 367 35 368
3 370 369 35
