ply
format ascii 1.0
element vertex 595
property float x
property float y
property float z
element face 597
property list uchar int vertex_index
end_header
-32.406281 35.871651 -16.948601
-41.656693 53.175236 -19.803932
-53.868011 36.377544 12.080198
-49.146347 51.047604 -3.999538
-42.32148 63.32159 -17.993347
-46.535316 61.398525 -9.498486
-46.010647 54.583523 -12.967096
-36.28595 44.248241 -18.430038
-34.486629 47.515354 -24.480568
-54.936447 26.020901 8.384621
-52.17868 44.426292 4.82606
-44.874058 63.018421 -14.22234
-39.311306 48.57687 -19.351906
-36.534176 45.833561 -22.090511
-38.392075 50.735859 -22.246456
-53.560413 32.065941 14.631819
-54.883076 27.157082 12.063441
-54.752048 31.202419 10.66583
-53.543938 29.66708 7.715134
-53.904816 35.146461 8.70997
-49.764408 53.288311 -2.077471
-50.776611 49.819805 3.034998
-50.704132 48.001591 0.5257
-48.270973 45.966442 -0.425207
-44.136559 54.539707 -16.769016
-43.063351 51.142422 -12.51897
-41.425095 50.444447 -16.19673
-37.926334 46.34502 -15.08511
-42.693184 58.167004 -19.444038
-39.131241 56.232433 -21.791656
-50.571243 32.511795 18.763145
-47.604897 58.761654 -4.198996
-48.60997 56.098507 -7.189487
-47.600929 53.335621 -8.590479
-47.210342 58.024212 -12.029125
-45.336372 58.784 -16.216621
-33.657078 39.904522 -17.459991
-32.409443 36.80304 -20.186348
-34.172169 41.316017 -21.331074
-34.813538 53.278652 -23.762695
-53.341698 40.509342 8.749633
-52.348007 38.989571 6.155205
-44.593731 50.512783 -8.451944
-32.219688 34.16045 -17.789898
-40.62188 50.826885 -19.65921
-39.191502 49.622059 -20.995049
-40.122025 52.068905 -21.075661
-53.815536 34.24474 13.458311
-54.442528 31.702862 12.582941
-54.424324 33.781979 11.519966
-54.427689 33.186214 9.765114
-54.197662 35.825424 10.276662
-49.746277 52.180729 -3.241869
-50.400368 50.633526 -0.808048
-49.926613 49.60387 -1.716967
-49.767426 47.015362 -0.147806
-48.858871 48.537228 -2.218122
-47.974514 49.889675 -4.347731
-42.989708 54.012058 -18.380238
-42.937149 52.476269 -16.591022
-41.86483 51.792423 -18.201393
-40.446735 49.638081 -17.837151
-42.673378 60.751553 -18.868195
-40.985607 60.125309 -20.20549
-40.646946 62.917507 -19.466927
-51.201126 34.891499 17.503056
-45.649216 62.968334 -7.696527
-46.166763 61.576664 -4.991886
-47.12574 60.189526 -6.896166
-48.324638 57.455776 -5.877277
-47.756012 58.713367 -8.47027
-47.952122 57.188717 -9.665348
-47.085579 59.735416 -10.956644
-43.725697 63.350964 -16.244505
-45.299747 60.923901 -15.404842
-44.107491 61.018787 -17.27243
-44.126583 58.651608 -17.957439
-34.849609 42.089111 -17.920315
-34.02224 40.712757 -19.415092
-35.277786 42.887497 -19.934662
-37.04388 54.862263 -22.786388
-52.615067 31.490105 7.245424
-51.628883 47.1152 3.952977
-51.224609 47.899799 5.525537
-52.168167 45.191929 6.236283
-52.615578 43.188293 8.418557
-52.818588 42.500572 6.847178
-53.157143 39.804344 7.287153
-52.411957 41.72636 5.58131
-46.82233 54.108166 -10.828403
-46.310631 51.942547 -8.689117
-45.517529 52.565113 -10.827585
-41.169182 49.354061 -11.967022
-41.856808 49.342037 -9.988508
-37.168854 45.404797 -16.812824
-35.588951 43.243073 -16.291695
-31.841814 34.73542 -21.439705
-31.462305 35.005978 -23.289368
-40.044003 65.645996 -18.46484
-44.981026 64.125046 -10.278494
-45.797718 62.354534 -11.957859
-44.121693 65.009979 -12.688688
-37.822624 46.397602 -18.925903
-36.655075 45.069462 -20.397945
-38.00362 47.299534 -20.761772
-37.580376 48.215656 -22.247299
-36.49654 49.211246 -23.368511
-53.156212 29.841652 15.614634
-54.016754 27.43866 14.228592
-54.283527 29.587036 13.475876
-54.888741 29.192688 11.422833
-54.901131 28.622715 9.580795
-54.316257 27.845772 8.084103
-54.444153 30.532848 9.003386
-53.807312 32.430168 8.307545
-52.996094 34.317547 7.478263
-49.260635 54.355213 -0.538904
-49.664848 52.563602 2.140283
-50.286682 51.624004 0.491947
-51.032013 48.936878 1.597131
-51.46286 46.267498 2.712142
-51.573486 43.583706 3.763262
-50.681007 45.354992 1.849524
-45.129623 54.732159 -14.959435
-44.718277 52.871906 -12.884089
-43.873436 52.84264 -14.815327
-42.281635 50.955944 -14.421324
-40.470737 49.03735 -13.867922
-39.709312 48.414845 -15.666248
-38.837505 47.522305 -17.351643
-42.355488 55.627979 -19.744934
-40.73951 54.6497 -20.984936
-41.024807 57.348637 -20.702858
-39.054424 59.164715 -21.333714
-51.634933 29.992615 17.746832
-52.216679 32.325363 16.712307
-52.691616 34.604763 15.477017
-52.984314 36.828735 14.020466
-48.005085 57.143452 -1.447851
-48.818954 55.994152 -3.221558
-49.208565 54.788425 -4.647764
-49.07357 53.552532 -5.681618
-48.371468 52.302898 -6.30076
-48.378098 54.719578 -8.097904
-47.64653 55.647915 -10.45188
-46.854912 56.300404 -12.696129
-46.279663 60.485126 -13.285465
-46.351456 58.567387 -14.229141
-45.969139 56.641628 -14.780416
-44.948776 56.645672 -16.661594
-43.754234 56.303699 -18.315243
-32.820667 37.744694 -17.115677
-32.414948 36.359173 -18.382771
-33.03183 38.528633 -18.888588
-33.144485 39.080013 -20.784935
-33.02042 39.519909 -22.631435
-35.352798 43.550671 -21.77877
-38.914314 53.411091 -22.093498
-36.909748 51.954311 -23.137897
-34.775749 50.311176 -24.176857
-32.505638 51.509762 -24.777378
-54.814117 25.103493 12.630903
-55.573463 22.811958 10.948626
-53.061447 39.000134 12.343773
-52.927963 41.120998 10.466164
-53.70401 38.466064 10.503611
-53.765926 37.834045 8.859737
-53.200249 37.082954 7.503105
-52.035919 36.192924 6.510928
-47.12513 51.03767 -6.51531
-45.417027 49.731785 -6.372683
-43.819592 50.99181 -10.515886
-32.064579 34.437069 -19.566467
-32.312984 35.01605 -17.36925
-32.310462 34.14028 -16.95382
-32.403759 34.99588 -16.533172
-34.226789 46.197342 -24.552489
-35.153583 47.073712 -23.965454
-33.4584 46.583702 -25.039105
-34.226789 46.197342 -24.552489
-55.185837 25.10499 8.522171
-55.068718 26.358669 9.226366
-54.928812 24.695566 7.809349
-55.185837 25.10499 8.522171
-54.526421 25.561252 7.765007
-54.928812 24.695566 7.809349
-51.786564 30.916984 6.94072
-52.080563 32.40341 6.949471
-40.47765 48.455196 -10.66365
-40.177769 48.403813 -11.652352
-31.675378 36.250206 -23.570824
-31.866626 36.08874 -22.676109
-44.051682 65.481217 -10.5606
-44.452599 64.934006 -9.287535
-43.622015 65.923683 -11.765698
-44.55136 64.567512 -11.483591
-44.051682 65.481217 -10.5606
-48.793104 45.167143 0.47873
-49.541331 45.691603 0.61743
-49.019199 46.490902 -0.286506
-47.867536 44.624109 0.432575
-48.793104 45.167143 0.47873
-47.298513 45.395565 -0.386746
-47.867536 44.624109 0.432575
-38.882448 60.656639 -21.016896
-40.020015 59.645012 -20.769602
-39.848039 61.136936 -20.452784
-37.799314 60.104717 -21.547192
-38.882448 60.656639 -21.016896
-39.087828 65.375068 -19.163939
-38.697393 66.791695 -18.629995
-50.22842 31.291325 19.294077
-49.689125 32.579681 19.764264
-51.103088 31.252205 18.254989
-50.760265 30.031734 18.78592
-50.22842 31.291325 19.294077
-52.18606 35.905386 15.746793
-51.946371 34.748131 16.490037
-51.440815 36.048754 16.759813
-52.332409 37.017372 15.018518
-52.837965 35.716749 14.748742
-52.18606 35.905386 15.746793
-47.089213 59.37125 -3.203724
-46.370146 60.778755 -3.600169
-46.88583 60.169159 -4.595441
-47.804991 57.952553 -2.823424
-47.289307 58.562149 -1.828151
-47.089213 59.37125 -3.203724
-31.349675 50.538742 -25.315924
-31.159346 52.146256 -25.040382
-32.541727 50.003659 -25.011511
-31.349675 50.538742 -25.315924
-55.721621 22.583047 9.954325
-55.48574 23.783831 10.727808
-55.94471 21.67116 10.143118
-55.721621 22.583047 9.954325
-53.367956 28.251978 7.380317
-53.754116 27.341324 7.564801
-53.930098 28.756426 7.899619
-52.539265 40.328843 12.349995
-52.508766 39.229804 13.320235
-50.406757 50.23198 3.910861
-49.850876 51.603878 3.463504
-50.22073 51.191704 2.587641
-50.795997 48.260883 6.44701
-51.415876 46.893524 6.729421
-51.481424 42.218405 4.22122
-50.969631 43.118854 3.424577
-43.985802 49.425277 -7.204278
-44.39745 49.034779 -6.164648
-45.005379 50.122284 -7.412313
-42.21896 49.169883 -8.979313
-41.145569 48.337791 -8.674135
-37.352129 45.628765 -13.883748
-38.255193 46.692425 -14.169941
-33.448191 39.308279 -16.533169
-33.949221 40.456993 -16.661316
-33.238872 38.824608 -17.287834
-33.029985 38.228365 -16.361013
-33.448191 39.308279 -16.533169
-31.595595 32.280106 -21.780684
-31.828227 33.443979 -21.143245
-31.609181 33.571546 -22.077143
-32.322025 32.926502 -17.459606
-32.4128 32.906332 -16.623528
-32.310462 34.14028 -16.95382
-32.183061 33.025911 -18.380161
-32.322025 32.926502 -17.459606
-48.059832 47.977589 -2.274454
-47.765883 46.692196 -1.377996
-48.564922 47.251835 -1.321665
-47.617653 48.653813 -3.339258
-48.059832 47.977589 -2.274454
-48.416692 49.213451 -3.282926
-47.140084 49.288021 -4.334335
-47.617653 48.653813 -3.339258
-39.678709 62.533035 -20.083502
-39.848039 61.136936 -20.452784
-40.816277 61.521408 -19.836208
-50.048519 33.819893 19.132372
-49.689125 32.579681 19.764264
-50.363461 35.009745 18.502327
-50.886184 33.701647 18.133101
-50.048519 33.819893 19.132372
-50.666916 36.211983 17.760922
-50.363461 35.009745 18.502327
-51.440815 36.048754 16.759813
-50.666916 36.211983 17.760922
-45.907989 62.272499 -6.344207
-45.352097 62.987139 -5.299178
-45.093323 63.682974 -6.651498
-35.737219 45.012003 -22.723638
-36.177357 46.232815 -22.770426
-36.978182 56.385891 -22.557724
-38.087561 55.547348 -22.289022
-38.021862 57.070976 -22.060358
-35.828105 55.63319 -23.031838
-36.978182 56.385891 -22.557724
-34.712935 54.841385 -23.519991
-35.928709 54.070458 -23.274541
-35.828105 55.63319 -23.031838
-55.140547 25.956392 11.285215
-55.042033 26.92676 11.065776
-52.375741 30.036344 7.066753
-52.840176 29.124832 7.301609
-53.079503 30.578592 7.480279
-52.375741 30.036344 7.066753
-51.786564 30.916984 6.94072
-51.887655 45.539589 7.084794
-51.415876 46.893524 6.729421
-51.696388 46.545864 5.88091
-52.391872 44.190111 7.32742
-52.111361 44.537771 8.175931
-51.887655 45.539589 7.084794
-40.821463 48.449185 -9.674394
-41.512995 49.348049 -10.977765
-40.47765 48.455196 -10.66365
-41.145569 48.337791 -8.674135
-40.821463 48.449185 -9.674394
-36.697986 44.796799 -15.67618
-37.076726 45.26691 -14.812323
-37.547594 45.874909 -15.948967
-35.908035 43.715937 -15.415616
-36.697986 44.796799 -15.67618
-36.378903 44.323935 -16.552259
-35.173233 42.576243 -15.202724
-35.908035 43.715937 -15.415616
-34.915157 42.126269 -16.077168
-35.173233 42.576243 -15.202724
-34.545486 41.549288 -16.891478
-34.915157 42.126269 -16.077168
-35.21928 42.666092 -17.106005
-34.253343 40.996817 -17.690153
-33.949221 40.456993 -16.661316
-34.545486 41.549288 -16.891478
-32.056381 35.95346 -21.751278
-32.125629 35.76923 -20.813026
-32.340195 36.987271 -21.124599
-31.65206 34.870699 -22.364536
-32.056381 35.95346 -21.751278
-31.866626 36.08874 -22.676109
-31.419427 33.706826 -23.001974
-31.609181 33.571546 -22.077143
-31.65206 34.870699 -22.364536
-40.861391 65.724563 -17.636942
-41.182741 64.483793 -18.229093
-42.00013 64.56236 -17.401196
-39.630753 66.933815 -17.826033
-40.861391 65.724563 -17.636942
-38.697393 66.791695 -18.629995
-39.630753 66.933815 -17.826033
-44.786693 64.35565 -7.996551
-45.093323 63.682974 -6.651498
-45.315121 63.54669 -8.98751
-44.786693 64.35565 -7.996551
-44.452599 64.934006 -9.287535
-43.106586 66.32608 -12.943503
-43.622015 65.923683 -11.765698
-43.576807 65.296097 -13.783523
-43.106586 66.32608 -12.943503
-43.95299 64.300317 -14.550349
-44.497875 64.0142 -13.455514
-43.576807 65.296097 -13.783523
-43.378809 64.466589 -15.561431
-44.299877 63.184692 -15.233422
-43.95299 64.300317 -14.550349
-42.702238 64.577047 -16.526775
-43.378809 64.466589 -15.561431
-42.00013 64.56236 -17.401196
-43.023589 63.336277 -17.118926
-42.702238 64.577047 -16.526775
-36.700457 47.423862 -22.84882
-36.177357 46.232815 -22.770426
-37.057276 47.024608 -22.168905
-36.158539 47.921658 -23.409426
-36.700457 47.423862 -22.84882
-37.038458 48.713451 -22.807905
-35.491585 48.3633 -23.92454
-35.153583 47.073712 -23.965454
-36.158539 47.921658 -23.409426
-53.586483 28.640156 14.921613
-53.355969 27.509521 15.335199
-52.925697 28.711018 16.028219
-55.044865 27.944563 10.745472
-55.042033 26.92676 11.065776
-54.885908 28.174885 11.743137
-55.05106 27.659577 9.824453
-55.044865 27.944563 10.745472
-54.894936 28.907702 10.501814
-54.918789 27.321808 8.982708
-55.068718 26.358669 9.226366
-55.05106 27.659577 9.824453
-52.271076 33.817131 7.065891
-52.080563 32.40341 6.949471
-52.805581 32.903826 7.361843
-49.462741 53.459407 0.80069
-49.00958 53.962055 1.7314
-48.807474 54.857861 0.391806
-50.523392 44.004497 2.467707
-50.969631 43.118854 3.424577
-51.127246 44.469349 2.806393
-49.998121 44.861418 1.616096
-50.224216 46.185177 0.850859
-49.541331 45.691603 0.61743
-50.523392 44.004497 2.467707
-49.998121 44.861418 1.616096
-47.298513 45.395565 -0.386746
-47.765883 46.692196 -1.377996
-39.828547 48.245457 -12.602802
-40.177769 48.403813 -11.652352
-40.819959 49.195706 -12.917472
-39.527395 48.03859 -13.561347
-39.828547 48.245457 -12.602802
-39.146682 47.727337 -14.46051
-39.527395 48.03859 -13.561347
-40.090024 48.726098 -14.767085
-38.817823 47.379932 -15.375679
-38.255193 46.692425 -14.169941
-39.146682 47.727337 -14.46051
-37.983453 58.537117 -21.831387
-38.021862 57.070976 -22.060358
-39.092833 57.698574 -21.562685
-37.983453 58.537117 -21.831387
-37.799314 60.104717 -21.547192
-39.389299 64.010824 -19.664982
-40.345474 64.281751 -18.965883
-39.087828 65.375068 -19.163939
-39.678709 62.533035 -20.083502
-39.389299 64.010824 -19.664982
-51.346344 28.806116 18.184414
-50.760265 30.031734 18.78592
-52.165058 28.786499 17.094318
-51.346344 28.806116 18.184414
-52.395573 29.917133 16.680733
-52.925697 28.711018 16.028219
-52.165058 28.786499 17.094318
-45.586117 62.205323 -3.904292
-45.352097 62.987139 -5.299178
-45.586117 62.205323 -3.904292
-46.370146 60.778755 -3.600169
-47.456465 57.675583 -0.415989
-47.289307 58.562149 -1.828151
-48.179699 56.25198 -0.062667
-47.456465 57.675583 -0.415989
-48.63286 55.749333 -0.993378
-48.807474 54.857861 0.391806
-48.179699 56.25198 -0.062667
-32.707716 38.125757 -21.423893
-32.340195 36.987271 -21.124599
-32.776964 37.941527 -20.485641
-32.645684 38.345705 -22.347143
-32.707716 38.125757 -21.423893
-33.082453 39.299961 -21.708185
-32.454436 38.507171 -23.241858
-32.645684 38.345705 -22.347143
-35.14653 43.870558 -22.567768
-35.943487 44.692116 -21.934641
-35.737219 45.012003 -22.723638
-34.656555 42.695009 -22.428415
-35.14653 43.870558 -22.567768
-34.06624 41.577683 -22.204567
-34.762484 42.433344 -21.554922
-34.656555 42.695009 -22.428415
-33.490366 40.679628 -22.854748
-33.596294 40.417963 -21.981254
-34.06624 41.577683 -22.204567
-32.781435 39.723622 -23.466532
-33.490366 40.679628 -22.854748
-32.454436 38.507171 -23.241858
-32.781435 39.723622 -23.466532
-33.517279 53.982772 -24.008045
-34.712935 54.841385 -23.519991
-32.363329 53.098327 -24.515386
-31.159346 52.146256 -25.040382
-33.659588 52.394207 -24.270036
-33.517279 53.982772 -24.008045
-32.363329 53.098327 -24.515386
-33.676783 49.404365 -24.71125
-33.640693 50.910469 -24.477117
-32.541727 50.003659 -25.011511
-33.532223 48.006455 -24.863106
-34.631189 48.913265 -24.328713
-33.676783 49.404365 -24.71125
-33.4584 46.583702 -25.039105
-33.532223 48.006455 -24.863106
-53.880405 26.3555 14.558509
-53.355969 27.509521 15.335199
-54.279087 25.187916 13.759665
-53.880405 26.3555 14.558509
-54.415436 26.271076 13.429748
-54.799456 24.077579 12.905123
-54.279087 25.187916 13.759665
-55.106068 24.929598 11.568946
-54.848596 26.130288 12.347172
-55.140547 25.956392 11.285215
-55.19379 23.957726 11.789765
-55.106068 24.929598 11.568946
-55.48574 23.783831 10.727808
-55.179128 22.931812 12.063985
-54.799456 24.077579 12.905123
-55.19379 23.957726 11.789765
-55.698043 21.850128 11.19754
-55.179128 22.931812 12.063985
-55.698043 21.850128 11.19754
-55.94471 21.67116 10.143118
-54.216325 26.473688 7.614748
-54.526421 25.561252 7.765007
-54.626352 26.933336 8.234362
-54.216325 26.473688 7.614748
-53.754116 27.341324 7.564801
-53.367956 28.251978 7.380317
-52.840176 29.124832 7.301609
-52.470199 38.144104 14.158582
-52.332409 37.017372 15.018518
-53.02288 37.914434 13.18212
-52.470199 38.144104 14.158582
-52.508766 39.229804 13.320235
-49.168886 53.001057 3.110064
-49.00958 53.962055 1.7314
-49.168886 53.001057 3.110064
-49.850876 51.603878 3.463504
-50.630756 49.271977 5.15613
-50.406757 50.23198 3.910861
-51.00061 48.859802 4.280267
-50.630756 49.271977 5.15613
-50.795997 48.260883 6.44701
-52.251103 43.49514 9.320762
-52.111361 44.537771 8.175931
-52.407295 42.461492 10.344565
-52.251103 43.49514 9.320762
-52.771771 42.154646 9.44236
-52.472522 41.389274 11.41119
-52.407295 42.461492 10.344565
-52.994705 40.060566 11.404968
-52.539265 40.328843 12.349995
-52.472522 41.389274 11.41119
-51.790989 34.754819 6.582223
-52.271076 33.817131 7.065891
-52.516007 35.255235 6.994595
-51.90066 41.289732 5.130244
-51.992722 42.655033 4.672286
-51.481424 42.218405 4.22122
-51.868685 39.921337 5.417191
-52.379982 40.357965 5.868258
-51.90066 41.289732 5.130244
-51.655567 38.518248 5.780958
-51.868685 39.921337 5.417191
-51.499523 37.119924 5.95882
-52.191963 37.591247 6.333066
-51.655567 38.518248 5.780958
-51.201217 35.667381 6.218582
-51.499523 37.119924 5.95882
-51.790989 34.754819 6.582223
-51.201217 35.667381 6.218582
-46.715391 49.862018 -5.418125
-47.140084 49.288021 -4.334335
-47.549822 50.463673 -5.43152
-45.86134 49.209076 -5.346812
-46.715391 49.862018 -5.418125
-46.271079 50.384727 -6.443997
-44.842167 48.563175 -5.182455
-45.86134 49.209076 -5.346812
-44.842167 48.563175 -5.182455
-44.39745 49.034779 -6.164648
-43.200352 49.99477 -9.243002
-42.8382 50.166923 -10.252197
-42.21896 49.169883 -8.979313
-43.587421 49.755257 -8.211032
-44.206661 50.752296 -9.483915
-43.200352 49.99477 -9.243002
-43.985802 49.425277 -7.204278
-43.587421 49.755257 -8.211032
-37.352129 45.628765 -13.883748
-37.076726 45.26691 -14.812323
-32.729962 37.078051 -16.369838
-33.029985 38.228365 -16.361013
-32.613474 36.808172 -17.032139
-32.522768 36.141529 -16.2863
-32.729962 37.078051 -16.369838
-32.522768 36.141529 -16.2863
-32.403759 34.99588 -16.533172
-32.105507 33.164221 -19.268446
-32.183061 33.025911 -18.380161
-32.142133 34.29876 -18.678182
-31.93961 33.294804 -20.206626
-31.953197 34.586244 -20.503086
-31.828227 33.443979 -21.143245
-32.105507 33.164221 -19.268446
-31.93961 33.294804 -20.206626
-31.153821 35.12915 -24.148291
-31.675378 36.250206 -23.570824
-31.117995 33.81843 -23.891219
-31.153821 35.12915 -24.148291
-31.419427 33.706826 -23.001974
-31.117995 33.81843 -23.891219
3 0 173 175
3 173 43 174
3 173 174 175
3 1 46 44
3 2 49 47
3 2 51 49
3 3 54 52
3 3 56 54
3 3 57 56
3 1 60 58
3 1 44 60
3 4 64 62
3 5 68 66
3 5 70 68
3 5 72 70
3 4 75 73
3 4 62 75
3 7 79 77
3 8 176 177
3 8 178 179
3 9 180 181
3 9 182 183
3 9 184 185
3 187 186 81
3 10 84 82
3 10 86 84
3 10 88 86
3 6 91 89
3 189 188 92
3 7 95 94
3 7 77 95
3 190 97 191
3 192 99 193
3 194 101 195
3 196 195 99
3 194 195 196
3 12 104 102
3 14 105 45
3 14 106 105
3 15 109 107
3 17 110 48
3 17 111 110
3 17 113 111
3 19 114 50
3 19 115 114
3 20 118 116
3 22 119 53
3 22 120 119
3 22 122 120
3 23 197 199
3 199 198 55
3 197 198 199
3 23 200 201
3 23 202 203
3 24 125 123
3 26 126 59
3 26 127 126
3 26 128 127
3 12 129 61
3 12 102 129
3 28 132 130
3 204 133 205
3 206 205 63
3 204 205 206
3 208 207 133
3 210 209 98
3 30 211 212
3 30 213 215
3 213 134 214
3 213 214 215
3 30 135 134
3 216 136 217
3 218 217 65
3 216 217 218
3 219 137 220
3 221 220 136
3 219 220 221
3 31 222 224
3 224 223 67
3 222 223 224
3 31 225 227
3 225 138 226
3 225 226 227
3 31 139 138
3 32 140 69
3 32 141 140
3 32 143 141
3 34 144 71
3 34 145 144
3 11 146 100
3 35 147 74
3 35 148 147
3 35 149 148
3 28 150 76
3 28 130 150
3 36 153 151
3 38 154 78
3 38 155 154
3 13 156 103
3 29 157 131
3 39 158 80
3 39 159 158
3 228 160 229
3 231 230 160
3 16 161 108
3 232 162 233
3 235 234 162
3 18 236 238
3 238 237 112
3 236 237 238
3 239 163 240
3 21 241 243
3 243 242 117
3 241 242 243
3 245 244 83
3 40 164 85
3 40 165 164
3 40 166 165
3 41 167 87
3 41 168 167
3 247 246 121
3 33 169 142
3 42 170 90
3 42 248 250
3 250 249 170
3 248 249 250
3 25 171 124
3 252 251 93
3 27 253 254
3 36 255 256
3 36 257 259
3 257 151 258
3 257 258 259
3 37 172 152
3 262 261 96
3 260 261 262
3 43 263 265
3 263 264 265
3 43 266 267
3 44 45 12
3 46 45 44
3 46 14 45
3 47 48 15
3 49 48 47
3 49 17 48
3 49 50 17
3 51 50 49
3 51 19 50
3 52 53 20
3 54 53 52
3 54 22 53
3 54 55 22
3 56 55 54
3 56 23 55
3 56 268 270
3 270 269 23
3 268 269 270
3 57 271 273
3 273 272 56
3 271 272 273
3 57 274 275
3 58 59 24
3 60 59 58
3 60 26 59
3 60 61 26
3 44 61 60
3 44 12 61
3 62 63 28
3 64 63 62
3 64 276 278
3 278 277 63
3 276 277 278
3 279 30 280
3 281 65 282
3 283 282 30
3 281 282 283
3 284 65 285
3 287 286 65
3 66 288 290
3 288 67 289
3 288 289 290
3 68 67 66
3 68 31 67
3 68 69 31
3 70 69 68
3 70 32 69
3 70 71 32
3 72 71 70
3 72 34 71
3 73 74 11
3 75 74 73
3 75 35 74
3 75 76 35
3 62 76 75
3 62 28 76
3 77 78 36
3 79 78 77
3 79 38 78
3 292 291 13
3 293 80 294
3 295 294 29
3 293 294 295
3 296 80 297
3 298 39 299
3 300 299 80
3 298 299 300
3 302 301 16
3 81 303 305
3 305 304 18
3 303 304 305
3 307 306 81
3 82 83 21
3 84 83 82
3 84 308 310
3 310 309 83
3 308 309 310
3 84 311 313
3 311 85 312
3 311 312 313
3 86 85 84
3 86 40 85
3 86 87 40
3 88 87 86
3 88 41 87
3 89 90 33
3 91 90 89
3 91 42 90
3 92 93 25
3 314 93 315
3 316 315 92
3 314 315 316
3 318 317 93
3 94 319 321
3 321 320 27
3 319 320 321
3 95 322 324
3 324 323 94
3 322 323 324
3 95 325 326
3 95 327 328
3 77 329 331
3 331 330 95
3 329 330 331
3 77 332 334
3 332 36 333
3 332 333 334
3 335 96 336
3 337 336 37
3 335 336 337
3 97 338 340
3 338 96 339
3 338 339 340
3 97 341 343
3 343 342 96
3 341 342 343
3 344 98 345
3 346 345 4
3 344 345 346
3 347 98 348
3 350 349 98
3 351 66 352
3 99 353 355
3 353 66 354
3 353 354 355
3 99 5 66
3 99 100 5
3 101 100 99
3 101 11 100
3 356 101 357
3 358 101 359
3 360 11 361
3 362 361 101
3 360 361 362
3 363 73 364
3 365 364 11
3 363 364 365
3 366 73 367
3 368 4 369
3 370 369 73
3 368 369 370
3 102 103 7
3 104 103 102
3 104 13 103
3 45 104 12
3 105 104 45
3 105 13 104
3 105 371 373
3 373 372 13
3 371 372 373
3 106 374 376
3 376 375 105
3 374 375 376
3 106 377 379
3 377 8 378
3 377 378 379
3 107 380 382
3 380 108 381
3 380 381 382
3 109 108 107
3 109 16 108
3 48 109 15
3 110 109 48
3 110 16 109
3 110 383 385
3 385 384 16
3 383 384 385
3 111 386 388
3 388 387 110
3 386 387 388
3 111 389 391
3 389 9 390
3 389 390 391
3 111 112 9
3 113 112 111
3 113 18 112
3 50 113 17
3 114 113 50
3 114 18 113
3 114 81 18
3 115 81 114
3 115 392 394
3 394 393 81
3 392 393 394
3 116 395 397
3 395 117 396
3 395 396 397
3 118 117 116
3 118 21 117
3 53 118 20
3 119 118 53
3 119 21 118
3 119 82 21
3 120 82 119
3 120 10 82
3 120 121 10
3 122 121 120
3 122 398 400
3 400 399 121
3 398 399 400
3 55 122 22
3 401 122 402
3 403 402 55
3 401 402 403
3 405 404 122
3 407 406 23
3 123 124 6
3 125 124 123
3 125 25 124
3 59 125 24
3 126 125 59
3 126 25 125
3 126 92 25
3 127 92 126
3 127 408 410
3 410 409 92
3 408 409 410
3 127 411 412
3 128 413 415
3 415 414 127
3 413 414 415
3 128 416 418
3 416 27 417
3 416 417 418
3 61 128 26
3 129 128 61
3 129 27 128
3 129 94 27
3 102 94 129
3 102 7 94
3 130 131 1
3 132 131 130
3 132 29 131
3 63 132 28
3 133 132 63
3 133 29 132
3 133 419 421
3 421 420 29
3 419 420 421
3 423 422 133
3 98 64 4
3 424 64 425
3 426 425 98
3 424 425 426
3 428 427 64
3 134 429 430
3 134 431 432
3 134 433 435
3 433 107 434
3 433 434 435
3 135 107 134
3 135 15 107
3 65 135 30
3 136 135 65
3 136 15 135
3 136 47 15
3 137 47 136
3 137 2 47
3 67 436 437
3 439 438 67
3 138 440 441
3 138 442 443
3 138 444 446
3 444 116 445
3 444 445 446
3 139 116 138
3 139 20 116
3 69 139 31
3 140 139 69
3 140 20 139
3 140 52 20
3 141 52 140
3 141 3 52
3 141 142 3
3 143 142 141
3 143 33 142
3 71 143 32
3 144 143 71
3 144 33 143
3 144 89 33
3 145 89 144
3 145 6 89
3 100 72 5
3 146 72 100
3 146 34 72
3 74 146 11
3 147 146 74
3 147 34 146
3 147 145 34
3 148 145 147
3 148 6 145
3 148 123 6
3 149 123 148
3 149 24 123
3 76 149 35
3 150 149 76
3 150 24 149
3 150 58 24
3 130 58 150
3 130 1 58
3 151 152 0
3 153 152 151
3 153 37 152
3 78 153 36
3 154 153 78
3 154 37 153
3 154 447 449
3 449 448 37
3 447 448 449
3 155 450 452
3 452 451 154
3 450 451 452
3 155 453 454
3 103 79 7
3 156 79 103
3 156 38 79
3 455 156 456
3 457 456 13
3 455 456 457
3 458 156 459
3 460 38 461
3 462 461 156
3 460 461 462
3 463 155 464
3 465 464 38
3 463 464 465
3 466 155 467
3 469 468 155
3 131 46 1
3 157 46 131
3 157 14 46
3 80 157 29
3 158 157 80
3 158 14 157
3 158 106 14
3 159 106 158
3 159 8 106
3 470 39 471
3 160 472 473
3 160 474 476
3 474 39 475
3 474 475 476
3 160 159 39
3 477 159 478
3 479 478 160
3 477 478 479
3 480 8 481
3 482 481 159
3 480 481 482
3 484 483 8
3 108 485 486
3 161 487 489
3 489 488 108
3 487 488 489
3 161 490 491
3 492 161 493
3 494 493 16
3 492 493 494
3 162 495 497
3 495 161 496
3 495 496 497
3 162 498 500
3 500 499 161
3 498 499 500
3 162 501 502
3 504 503 162
3 112 505 507
3 507 506 9
3 505 506 507
3 509 508 112
3 511 510 18
3 512 137 513
3 163 514 516
3 514 137 515
3 514 515 516
3 163 2 137
3 117 517 518
3 520 519 117
3 83 521 523
3 523 522 21
3 521 522 523
3 525 524 83
3 85 526 527
3 164 528 530
3 530 529 85
3 528 529 530
3 164 531 532
3 164 533 535
3 533 163 534
3 533 534 535
3 165 163 164
3 165 2 163
3 165 51 2
3 166 51 165
3 166 19 51
3 87 166 40
3 167 166 87
3 167 19 166
3 167 115 19
3 168 115 167
3 168 536 538
3 538 537 115
3 536 537 538
3 121 88 10
3 539 88 540
3 541 540 121
3 539 540 541
3 542 41 543
3 544 543 88
3 542 543 544
3 545 41 546
3 547 168 548
3 549 548 41
3 547 548 549
3 550 168 551
3 553 552 168
3 142 57 3
3 169 57 142
3 169 554 556
3 556 555 57
3 554 555 556
3 90 169 33
3 170 169 90
3 170 557 559
3 559 558 169
3 557 558 559
3 170 560 561
3 563 562 170
3 124 91 6
3 171 91 124
3 171 42 91
3 93 171 25
3 564 171 565
3 566 565 93
3 564 565 566
3 567 42 568
3 569 568 171
3 567 568 569
3 571 570 42
3 573 572 27
3 151 574 575
3 151 576 578
3 576 0 577
3 576 577 578
3 579 0 580
3 152 43 0
3 172 43 152
3 172 581 583
3 583 582 43
3 581 582 583
3 96 172 37
3 584 172 585
3 586 585 96
3 584 585 586
3 588 587 172
3 589 97 590
3 591 97 592
3 594 593 97
