ply
format ascii 1.0
element vertex 122
property float x
property float y
property float z
element face 91
property list uchar int vertex_index
end_header
-39.898808 46.834438 39.573532
-42.265541 37.358135 42.732079
-42.395859 42.874851 38.968651
-40.36261 41.678013 43.842533
-37.757141 39.69265 48.43119
-42.209023 34.449898 44.496407
-41.534687 39.643547 43.403191
-41.366905 44.964817 39.374168
-42.3806 45.503544 36.984482
-42.588127 34.835632 41.861771
-42.343304 40.165226 40.885994
-41.471992 42.351147 41.419849
-39.424923 38.020638 48.299404
-43.111984 43.286037 36.522301
-39.109127 40.807144 46.194794
-40.544832 47.172134 38.420761
-41.278881 46.237324 38.321079
-40.632857 45.899627 39.47385
-39.742854 48.073299 38.465053
-40.544832 47.172134 38.420761
-42.516285 37.551283 41.444857
-42.677578 36.290031 41.009703
-42.426834 36.096883 42.296925
-42.304423 38.76168 41.809036
-42.555166 38.954828 40.521814
-42.516285 37.551283 41.444857
-40.256847 42.988793 42.788496
-40.811538 43.325359 41.577154
-40.917301 42.01458 42.631191
-42.753922 43.080444 37.745476
-43.036592 41.923086 37.449438
-42.67853 41.717493 38.672613
-42.773802 45.720627 35.789062
-42.32066 46.789738 35.957507
-41.934025 34.173429 45.813462
-42.215512 32.951102 45.330484
-41.897507 35.638059 44.904776
-41.934025 34.173429 45.813462
-41.925766 37.092178 44.022612
-42.237282 35.904016 43.614243
-41.897507 35.638059 44.904776
-41.560339 38.234884 44.358168
-41.900114 38.500841 43.067635
-41.925766 37.092178 44.022612
-41.043097 39.294981 44.646603
-41.560339 38.234884 44.358168
-40.457058 40.312214 44.866274
-40.948648 40.66078 43.622862
-41.043097 39.294981 44.646603
-41.785729 46.506687 37.126236
-41.873753 45.23418 38.179325
-41.278881 46.237324 38.321079
-42.32066 46.789738 35.957507
-41.785729 46.506687 37.126236
-37.536366 41.061178 47.32217
-36.779736 40.419231 48.342167
-42.34738 33.147841 43.989575
-42.215512 32.951102 45.330484
-42.536932 33.340708 42.672257
-42.34738 33.147841 43.989575
-42.398575 34.642765 43.179089
-42.598388 33.47451 41.346108
-42.536932 33.340708 42.672257
-42.702984 34.973186 40.563198
-42.598388 33.47451 41.346108
-42.702984 34.973186 40.563198
-42.677578 36.290031 41.009703
-42.652253 40.36268 39.631284
-42.555166 38.954828 40.521814
-42.369582 41.520038 39.927323
-42.67853 41.717493 38.672613
-42.652253 40.36268 39.631284
-40.758995 44.632194 40.554313
-41.419449 43.657982 40.397008
-40.811538 43.325359 41.577154
-40.024946 45.567005 40.653996
-40.632857 45.899627 39.47385
-40.758995 44.632194 40.554313
-39.579489 36.561532 49.304653
-40.080405 37.056359 48.078222
-38.806246 37.422417 49.439712
-39.579489 36.561532 49.304653
-37.972355 38.258423 49.505606
-38.591032 38.856644 48.365297
-38.806246 37.422417 49.439712
-37.050497 39.000252 49.470718
-37.972355 38.258423 49.505606
-36.779736 40.419231 48.342167
-37.050497 39.000252 49.470718
-43.255935 42.073741 36.212513
-43.036592 41.923086 37.449438
-43.371025 43.444623 35.313162
-43.255935 42.073741 36.212513
-43.139494 44.611874 35.557972
-42.746292 44.39479 36.753391
-42.773802 45.720627 35.789062
-43.371025 43.444623 35.313162
-43.139494 44.611874 35.557972
-39.988214 38.483526 47.09471
-40.080405 37.056359 48.078222
-39.830317 39.876779 46.042405
-39.988214 38.483526 47.09471
-39.267025 39.413891 47.247099
-39.735868 41.242579 45.018664
-40.457058 40.312214 44.866274
-39.830317 39.876779 46.042405
-38.212359 41.618426 46.203972
-38.433134 40.249897 47.312992
-37.536366 41.061178 47.32217
-38.945471 42.138267 45.111355
-38.212359 41.618426 46.203972
-39.572212 42.573702 43.935225
-39.735868 41.242579 45.018664
-38.945471 42.138267 45.111355
-40.256847 42.988793 42.788496
-39.572212 42.573702 43.935225
-39.167841 46.430183 40.694203
-40.024946 45.567005 40.653996
-38.981751 47.668743 39.565265
-39.167841 46.430183 40.694203
-39.742854 48.073299 38.465053
-38.981751 47.668743 39.565265
3 0 15 17
3 17 16 7
3 15 16 17
3 0 18 19
3 1 9 5
3 1 20 22
3 22 21 9
3 20 21 22
3 1 23 25
3 23 10 24
3 23 24 25
3 3 11 6
3 3 26 28
3 28 27 11
3 26 27 28
3 2 29 31
3 29 13 30
3 29 30 31
3 33 32 8
3 4 14 12
3 34 5 35
3 36 5 37
3 38 1 39
3 40 39 5
3 38 39 40
3 41 6 42
3 43 42 1
3 41 42 43
3 44 6 45
3 46 3 47
3 48 47 6
3 46 47 48
3 7 8 2
3 49 8 50
3 51 50 7
3 49 50 51
3 53 52 8
3 55 54 4
3 5 56 57
3 9 58 60
3 60 59 5
3 58 59 60
3 9 61 62
3 9 63 64
3 66 65 9
3 10 67 68
3 10 69 71
3 69 2 70
3 69 70 71
3 6 10 1
3 11 10 6
3 11 2 10
3 11 7 2
3 72 7 73
3 74 73 11
3 72 73 74
3 75 0 76
3 77 76 7
3 75 76 77
3 78 12 79
3 80 12 81
3 82 4 83
3 84 83 12
3 82 83 84
3 85 4 86
3 88 87 4
3 13 89 90
3 13 91 92
3 8 13 2
3 93 13 94
3 95 94 8
3 93 94 95
3 97 96 13
3 12 98 99
3 14 100 102
3 102 101 12
3 100 101 102
3 14 103 105
3 103 3 104
3 103 104 105
3 106 14 107
3 108 107 4
3 106 107 108
3 109 14 110
3 111 3 112
3 113 112 14
3 111 112 113
3 115 114 3
3 116 0 117
3 118 0 119
3 121 120 0
