ply
format ascii 1.0
element vertex 72
property float x
property float y
property float z
element face 54
property list uchar int vertex_index
end_header
4.476078 33.459206 72.987389
7.471426 29.023182 74.92997
7.641748 36.491383 71.046577
3.149996 31.479416 73.413376
9.198818 30.260571 73.669716
7.587233 32.763653 73.057899
9.300785 33.894955 71.700737
5.932035 31.314053 74.099373
5.994701 35.136841 72.186684
9.349268 37.512413 69.60569
10.108973 32.542187 71.909477
9.249802 32.077763 72.685226
10.05799 30.724995 72.893967
3.822959 34.448138 72.27449
3.159918 33.458242 72.487484
3.813037 32.469311 73.200382
4.484863 35.406824 72.003609
3.822959 34.448138 72.27449
6.701731 30.168617 74.514671
5.867487 29.397778 74.978065
6.637182 28.252342 75.393364
6.825699 37.720774 70.58284
6.002176 37.043503 71.152893
6.818224 35.814112 71.61663
10.203817 37.8577 68.756584
10.179436 36.10969 69.837829
3.112428 29.498726 74.245209
2.608026 30.353144 73.425449
3.778012 30.518944 74.09914
3.112428 29.498726 74.245209
4.441054 31.508839 73.886146
3.813037 32.469311 73.200382
3.778012 30.518944 74.09914
2.618675 32.353981 72.566227
2.608026 30.353144 73.425449
2.618675 32.353981 72.566227
3.159918 33.458242 72.487484
7.373603 27.144859 75.795151
6.637182 28.252342 75.393364
8.247369 27.81545 75.221863
7.373603 27.144859 75.795151
9.111065 28.434145 74.591736
8.335122 29.641876 74.299843
8.247369 27.81545 75.221863
9.979913 28.95563 73.862953
9.111065 28.434145 74.591736
10.05799 30.724995 72.893967
9.979913 28.95563 73.862953
5.169032 30.436262 74.442138
5.867487 29.397778 74.978065
5.204057 32.386629 73.543381
4.441054 31.508839 73.886146
5.169032 30.436262 74.442138
5.244174 36.245642 71.603257
4.484863 35.406824 72.003609
5.23539 34.298023 72.587036
5.244174 36.245642 71.603257
6.002176 37.043503 71.152893
10.155195 34.300961 70.885353
10.108973 32.542187 71.909477
9.325026 35.703684 70.653213
10.155195 34.300961 70.885353
10.179436 36.10969 69.837829
9.357047 39.310051 68.491798
10.203817 37.8577 68.756584
8.502209 38.858114 69.24905
9.357047 39.310051 68.491798
7.648448 38.347599 69.969493
8.495508 37.001898 70.326133
8.502209 38.858114 69.24905
6.825699 37.720774 70.58284
7.648448 38.347599 69.969493
3 10 6 11
3 12 11 4
3 10 11 12
3 0 13 15
3 15 14 3
3 13 14 15
3 0 16 17
3 1 18 20
3 18 7 19
3 18 19 20
3 2 8 5
3 2 21 23
3 23 22 8
3 21 22 23
3 24 9 25
3 26 3 27
3 28 3 29
3 30 0 31
3 32 31 3
3 30 31 32
3 4 5 1
3 6 5 4
3 6 2 5
3 3 33 34
3 36 35 3
3 37 1 38
3 39 1 40
3 41 4 42
3 43 42 1
3 41 42 43
3 44 4 45
3 47 46 4
3 7 48 49
3 7 50 52
3 50 0 51
3 50 51 52
3 5 7 1
3 8 7 5
3 8 0 7
3 8 53 55
3 55 54 0
3 53 54 55
3 57 56 8
3 58 6 59
3 9 60 62
3 60 6 61
3 60 61 62
3 9 2 6
3 63 9 64
3 65 9 66
3 67 2 68
3 69 68 9
3 67 68 69
3 71 70 2
