ply
format ascii 1.0
element vertex 185
property float x
property float y
property float z
element face 158
property list uchar int vertex_index
end_header
30.246103 -15.23662 -45.833664
28.815264 -30.154228 -33.97776
29.625711 -26.123791 -38.184998
28.935772 -19.791952 -41.822891
28.566042 -13.796758 -44.875725
29.647896 -8.987889 -48.964699
31.200338 -21.889322 -42.102455
28.79203 -27.164589 -35.759483
29.139482 -28.172203 -36.104424
28.919138 -25.06266 -37.947662
28.553909 -16.201113 -42.675751
28.604658 -13.365813 -43.930229
28.856693 -8.431789 -48.231255
29.438669 -17.51667 -43.881432
29.84528 -20.716478 -42.101913
30.695805 -18.505573 -44.0298
35.522133 -19.146769 -45.045441
34.088234 -21.222385 -43.518967
28.743889 -10.586357 -44.985062
28.79896 -33.240063 -32.104736
30.771536 -27.459679 -38.169983
31.342646 -12.979372 -47.677467
28.726473 -22.041662 -39.667122
28.597216 -19.091518 -41.248199
28.697292 -16.75849 -43.431091
29.125443 -14.408703 -45.512924
28.549948 -10.901971 -46.133018
28.928963 -11.382061 -46.973045
29.889242 -12.067581 -47.489372
29.257927 -22.908051 -40.069084
30.306589 -24.024065 -40.192635
31.709187 -25.406271 -40.070786
32.308907 -19.739271 -43.89666
32.814358 -23.319397 -41.859932
33.26244 -27.055603 -39.752647
28.781489 -25.706404 -36.595009
28.897737 -26.779469 -35.447373
28.845042 -24.655439 -37.689098
28.855584 -26.113625 -36.853572
28.781489 -25.706404 -36.595009
28.883574 -13.211977 -43.313087
28.790878 -14.579686 -42.779506
35.69182 -21.049974 -43.995865
36.445251 -20.041047 -44.68687
28.712564 -31.104454 -32.903632
28.818264 -29.676018 -33.753121
28.807112 -31.697145 -33.041248
28.704411 -32.647371 -31.96712
28.712564 -31.104454 -32.903632
29.077951 -30.773416 -34.066387
29.0698 -32.316334 -33.129875
28.807112 -31.697145 -33.041248
29.807437 -27.792245 -37.185978
29.564322 -28.816451 -36.145691
29.382596 -27.147997 -37.144711
30.198624 -26.791735 -38.177491
30.380349 -28.460189 -37.178471
29.807437 -27.792245 -37.185978
32.241088 -13.552542 -47.612072
32.0186 -11.880973 -48.54602
28.7233 -18.830927 -40.814601
28.690297 -20.239342 -40.112019
28.596311 -9.488454 -46.652378
28.646918 -10.744164 -45.55904
28.693281 -9.330647 -46.0784
30.307541 -9.378217 -49.162255
30.428214 -10.918063 -48.424591
29.768569 -10.527735 -48.227035
32.964222 -18.669886 -44.732628
32.055487 -18.018676 -44.870605
33.653351 -24.162405 -41.641475
33.451296 -22.270891 -42.68945
34.290289 -23.113899 -42.470993
33.877392 -26.030508 -40.587833
33.038399 -25.1875 -40.80629
33.653351 -24.162405 -41.641475
34.020485 -28.008543 -39.523468
33.877392 -26.030508 -40.587833
28.806647 -28.181198 -34.643982
28.897737 -26.779469 -35.447373
28.803647 -28.659408 -34.868622
28.818264 -29.676018 -33.753121
28.806647 -28.181198 -34.643982
28.765503 -15.997336 -42.152268
28.701647 -17.385724 -41.528377
28.579284 -14.783463 -43.30299
28.765503 -15.997336 -42.152268
28.790878 -14.579686 -42.779506
28.879905 -6.995071 -48.740463
28.749683 -8.253363 -47.701496
29.193351 -7.211754 -49.225414
28.879905 -6.995071 -48.740463
29.588953 -7.489803 -49.592137
29.252294 -8.709839 -48.597977
29.193351 -7.211754 -49.225414
30.172922 -7.820776 -49.90569
29.588953 -7.489803 -49.592137
34.805183 -20.184577 -44.282204
33.853886 -19.411443 -44.543782
34.570835 -18.373635 -45.307018
34.974871 -22.087781 -43.232628
34.805183 -20.184577 -44.282204
35.69182 -21.049974 -43.995865
34.290289 -23.113899 -42.470993
34.974871 -22.087781 -43.232628
29.067465 -10.477678 -44.268547
28.953189 -11.822249 -43.840504
28.84955 -9.226968 -45.395791
29.067465 -10.477678 -44.268547
29.173126 -9.11829 -44.679276
28.693281 -9.330647 -46.0784
28.84955 -9.226968 -45.395791
28.566972 -34.114435 -31.082057
28.472423 -33.521744 -30.944441
28.704411 -32.647371 -31.96712
28.745874 -34.843122 -31.13559
28.566972 -34.114435 -31.082057
29.132873 -33.993568 -32.113895
28.745874 -34.843122 -31.13559
29.132873 -33.993568 -32.113895
29.0698 -32.316334 -33.129875
29.24006 -29.782404 -35.129719
29.077951 -30.773416 -34.066387
28.977373 -29.163215 -35.041092
29.24006 -29.782404 -35.129719
29.564322 -28.816451 -36.145691
30.976199 -29.252374 -37.110855
30.380349 -28.460189 -37.178471
31.46787 -28.268021 -38.060589
30.976199 -29.252374 -37.110855
31.572356 -14.638727 -46.761009
31.024085 -15.767351 -45.839107
30.794374 -14.107996 -46.755566
31.572356 -14.638727 -46.761009
32.241088 -13.552542 -47.612072
35.31603 -17.328627 -46.084576
34.570835 -18.373635 -45.307018
36.311791 -18.141593 -45.749287
35.31603 -17.328627 -46.084576
36.445251 -20.041047 -44.68687
36.311791 -18.141593 -45.749287
28.754925 -21.714413 -39.32148
28.74871 -23.14494 -38.548828
28.661845 -20.56659 -40.457661
28.754925 -21.714413 -39.32148
28.690297 -20.239342 -40.112019
28.575563 -17.646316 -41.961975
28.7233 -18.830927 -40.814601
28.701647 -17.385724 -41.528377
28.674273 -11.976085 -44.457645
28.883574 -13.211977 -43.313087
28.953189 -11.822249 -43.840504
28.703321 -9.66688 -47.182136
28.596311 -9.488454 -46.652378
28.749683 -8.253363 -47.701496
31.154916 -11.373959 -48.518639
30.615944 -12.523477 -47.58342
30.428214 -10.918063 -48.424591
32.0186 -11.880973 -48.54602
31.154916 -11.373959 -48.518639
30.307541 -9.378217 -49.162255
30.172922 -7.820776 -49.90569
28.822806 -23.552161 -38.807392
28.845042 -24.655439 -37.689098
28.74871 -23.14494 -38.548828
31.936695 -27.241317 -39.01099
31.46787 -28.268021 -38.060589
31.240361 -26.432975 -39.120385
31.248936 -17.401827 -44.937176
30.470954 -16.871097 -44.931732
31.024085 -15.767351 -45.839107
31.502356 -19.122422 -43.96323
31.248936 -17.401827 -44.937176
32.055487 -18.018676 -44.870605
33.198571 -20.480828 -43.707814
32.964222 -18.669886 -44.732628
33.853886 -19.411443 -44.543782
32.713322 -28.065983 -38.851921
31.936695 -27.241317 -39.01099
32.485813 -26.230937 -39.911716
33.429363 -29.009631 -38.670349
32.880246 -30.020011 -37.769623
32.713322 -28.065983 -38.851921
33.429363 -29.009631 -38.670349
34.020485 -28.008543 -39.523468
3 35 7 36
3 37 9 38
3 39 38 7
3 37 38 39
3 40 11 41
3 0 15 13
3 43 42 16
3 1 44 45
3 1 46 48
3 46 19 47
3 46 47 48
3 1 49 51
3 51 50 19
3 49 50 51
3 2 52 54
3 54 53 8
3 52 53 54
3 2 55 57
3 55 20 56
3 55 56 57
3 59 58 21
3 60 23 61
3 4 24 10
3 4 25 24
3 62 26 63
3 64 63 18
3 62 63 64
3 5 27 12
3 5 28 27
3 5 65 67
3 67 66 28
3 65 66 67
3 3 29 22
3 6 30 14
3 6 31 30
3 68 32 69
3 70 33 71
3 72 71 17
3 70 71 72
3 73 34 74
3 75 74 33
3 73 74 75
3 77 76 34
3 7 78 79
3 7 80 82
3 80 1 81
3 80 81 82
3 7 8 1
3 9 8 7
3 9 2 8
3 83 10 84
3 11 85 87
3 85 10 86
3 85 86 87
3 11 4 10
3 88 12 89
3 90 12 91
3 92 5 93
3 94 93 12
3 92 93 94
3 96 95 5
3 13 14 3
3 15 14 13
3 15 6 14
3 16 97 99
3 97 17 98
3 97 98 99
3 100 17 101
3 102 101 16
3 100 101 102
3 104 103 17
3 105 18 106
3 107 18 108
3 107 108 109
3 111 110 18
3 19 112 114
3 112 113 114
3 19 115 116
3 19 117 118
3 120 119 19
3 8 121 123
3 123 122 1
3 121 122 123
3 125 124 8
3 20 126 127
3 20 128 129
3 21 130 132
3 132 131 0
3 130 131 132
3 134 133 21
3 135 16 136
3 137 16 138
3 140 139 16
3 141 22 142
3 23 143 145
3 143 22 144
3 143 144 145
3 23 3 22
3 10 146 148
3 146 23 147
3 146 147 148
3 24 23 10
3 24 3 23
3 24 13 3
3 25 13 24
3 25 0 13
3 18 149 151
3 149 11 150
3 149 150 151
3 26 11 18
3 26 4 11
3 12 152 154
3 152 26 153
3 152 153 154
3 27 26 12
3 27 4 26
3 27 25 4
3 28 25 27
3 28 0 25
3 28 21 0
3 155 21 156
3 157 156 28
3 155 156 157
3 159 158 21
3 161 160 5
3 22 162 164
3 162 9 163
3 162 163 164
3 29 9 22
3 29 2 9
3 14 29 3
3 30 29 14
3 30 2 29
3 30 20 2
3 31 20 30
3 31 165 167
3 167 166 20
3 165 166 167
3 168 15 169
3 170 169 0
3 168 169 170
3 32 171 173
3 171 15 172
3 171 172 173
3 32 6 15
3 17 174 176
3 174 32 175
3 174 175 176
3 33 32 17
3 33 6 32
3 33 31 6
3 34 31 33
3 34 177 179
3 179 178 31
3 177 178 179
3 34 180 182
3 180 181 182
3 184 183 34
