ply
format ascii 1.0
element vertex 185
property float x
property float y
property float z
element face 161
property list uchar int vertex_index
end_header
28.770947 -24.248219 -37.430534
31.912252 -22.031469 -32.942757
29.162489 -13.058142 -42.695946
29.951731 -32.260002 -28.152838
30.018667 -23.115814 -35.582687
31.180847 -27.25001 -30.71847
29.339888 -28.460693 -32.806541
28.473654 -33.857342 -29.679007
32.162632 -16.689539 -34.64743
30.582212 -17.773794 -37.8703
28.849384 -18.570335 -40.381004
29.181973 -23.62611 -36.633324
29.695784 -25.787832 -34.246925
29.003443 -26.39435 -35.135262
28.821264 -29.197807 -33.528481
30.050404 -12.79372 -41.201561
30.814774 -15.116145 -38.777107
29.814451 -15.462042 -40.31633
29.58502 -18.160269 -39.242592
28.977097 -15.793559 -41.628784
32.344559 -21.262072 -31.506479
31.710806 -12.015181 -37.606865
29.391041 -10.369 -43.552032
31.033077 -22.618608 -34.329231
30.662365 -25.246971 -33.139778
30.215191 -27.84901 -31.847475
29.687132 -30.424648 -30.470613
29.070435 -32.983219 -29.027796
28.938755 -31.144342 -31.277784
28.609863 -32.05468 -31.829504
32.097572 -19.36912 -33.872108
31.675632 -14.659821 -37.063431
31.544788 -17.314459 -36.316391
31.328236 -19.970936 -35.395874
30.314386 -20.442965 -36.797127
29.373423 -20.882477 -38.007896
28.783377 -21.387165 -38.975838
28.35375 -35.544121 -27.539541
28.781489 -25.706404 -36.595009
28.897737 -26.779469 -35.447373
28.887195 -25.321284 -36.282898
28.845042 -24.655439 -37.689098
28.781489 -25.706404 -36.595009
28.883574 -13.211977 -43.313087
28.790878 -14.579686 -42.779506
29.069793 -14.42585 -42.162365
32.060248 -22.982447 -31.754718
32.276401 -22.597749 -31.036579
32.128405 -21.646771 -32.224618
30.396256 -31.910046 -27.64615
30.290955 -31.021463 -28.810264
29.99967 -33.098934 -27.014768
30.396256 -31.910046 -27.64615
29.546777 -33.475189 -27.474303
29.99967 -33.098934 -27.014768
29.516323 -9.05108 -43.856544
29.832959 -10.265714 -42.708408
29.173126 -9.11829 -44.679276
29.516323 -9.05108 -43.856544
28.712564 -31.104454 -32.903632
28.715564 -30.626244 -32.678992
28.818264 -29.676018 -33.753121
28.704411 -32.647371 -31.96712
28.712564 -31.104454 -32.903632
32.247229 -17.621423 -33.476635
32.168779 -16.254998 -33.795085
32.130102 -18.029329 -34.259769
32.214698 -18.961213 -33.088974
32.247229 -17.621423 -33.476635
31.337311 -13.569104 -38.27523
31.693219 -13.337501 -37.335148
31.354899 -12.246783 -38.546948
28.7233 -18.830927 -40.814601
28.690297 -20.239342 -40.112019
28.816381 -19.97875 -39.678421
31.548679 -26.90027 -30.114002
31.394033 -25.956492 -31.301218
28.806647 -28.181198 -34.643982
28.912354 -27.796079 -34.331871
28.897737 -26.779469 -35.447373
28.818264 -29.676018 -33.753121
28.806647 -28.181198 -34.643982
32.133644 -15.34636 -34.94511
32.168779 -16.254998 -33.795085
30.432589 -13.954932 -39.989334
30.906883 -13.797265 -39.132069
30.524698 -12.636053 -40.344296
28.765503 -15.997336 -42.152268
28.701647 -17.385724 -41.528377
28.913241 -17.181947 -41.004894
28.765503 -15.997336 -42.152268
28.790878 -14.579686 -42.779506
32.265152 -22.1193 -30.394436
32.214147 -20.750624 -30.807985
32.265152 -22.1193 -30.394436
32.276401 -22.597749 -31.036579
31.321725 -28.173366 -29.538687
30.905513 -28.516467 -30.09308
28.19645 -35.241232 -28.855797
28.404319 -34.423075 -29.869192
31.675583 -10.699897 -37.762268
31.815426 -11.665239 -36.620086
31.414793 -10.941282 -38.786663
31.675583 -10.699897 -37.762268
31.354899 -12.246783 -38.546948
31.414793 -10.941282 -38.786663
30.16264 -11.478074 -41.533172
30.524698 -12.636053 -40.344296
29.720723 -11.58136 -42.376796
30.16264 -11.478074 -41.533172
29.832959 -10.265714 -42.708408
29.067465 -10.477678 -44.268547
28.953189 -11.822249 -43.840504
29.276765 -11.713571 -43.123989
29.067465 -10.477678 -44.268547
29.173126 -9.11829 -44.679276
31.320147 -23.640791 -33.106599
31.759735 -23.347222 -32.413362
31.472665 -22.325038 -33.635994
31.134791 -24.954973 -32.511872
31.320147 -23.640791 -33.106599
30.847721 -23.932789 -33.734504
30.921606 -26.24849 -31.929124
31.394033 -25.956492 -31.301218
31.134791 -24.954973 -32.511872
30.422686 -28.815967 -30.657583
30.905513 -28.516467 -30.09308
30.698019 -27.54951 -31.282972
30.158656 -30.103786 -29.969152
30.422686 -28.815967 -30.657583
29.951161 -29.136829 -31.159044
29.819432 -31.342325 -29.311726
30.290955 -31.021463 -28.810264
30.158656 -30.103786 -29.969152
28.472423 -33.521744 -30.944441
28.404319 -34.423075 -29.869192
28.541759 -32.956011 -30.754255
28.472423 -33.521744 -30.944441
28.704411 -32.647371 -31.96712
32.338192 -19.90769 -31.90616
32.214147 -20.750624 -30.807985
32.221065 -20.315596 -32.689293
32.338192 -19.90769 -31.90616
32.214698 -18.961213 -33.088974
31.907731 -13.009181 -36.424827
31.815426 -11.665239 -36.620086
31.890144 -14.331501 -36.15311
31.907731 -13.009181 -36.424827
31.693219 -13.337501 -37.335148
31.919132 -15.67468 -35.85543
32.133644 -15.34636 -34.94511
31.890144 -14.331501 -36.15311
31.245203 -14.887983 -37.920269
31.337311 -13.569104 -38.27523
30.906883 -13.797265 -39.132069
28.754925 -21.714413 -39.32148
28.74871 -23.14494 -38.548828
28.777162 -22.817692 -38.203186
28.754925 -21.714413 -39.32148
28.690297 -20.239342 -40.112019
28.7233 -18.830927 -40.814601
28.701647 -17.385724 -41.528377
28.883574 -13.211977 -43.313087
28.953189 -11.822249 -43.840504
32.060248 -22.982447 -31.754718
31.759735 -23.347222 -32.413362
31.548679 -26.90027 -30.114002
31.321725 -28.173366 -29.538687
29.106129 -33.836798 -27.911782
29.546777 -33.475189 -27.474303
29.511083 -32.621611 -28.590317
28.747787 -35.117249 -27.167654
29.106129 -33.836798 -27.911782
28.712093 -34.26367 -28.283668
28.275148 -36.319527 -26.479414
28.747787 -35.117249 -27.167654
28.136499 -36.084621 -27.786064
28.413702 -34.700732 -28.609274
28.19645 -35.241232 -28.855797
27.937841 -36.839664 -26.784235
28.136499 -36.084621 -27.786064
28.275148 -36.319527 -26.479414
27.937841 -36.839664 -26.784235
28.845042 -24.655439 -37.689098
28.74871 -23.14494 -38.548828
3 0 13 11
3 0 38 40
3 40 39 13
3 38 39 40
3 0 41 42
3 2 17 15
3 2 19 17
3 2 43 45
3 45 44 19
3 43 44 45
3 1 46 48
3 48 47 20
3 46 47 48
3 3 49 50
3 3 51 52
3 3 53 54
3 55 22 56
3 58 57 22
3 4 24 23
3 6 25 12
3 6 26 25
3 6 28 26
3 59 29 60
3 61 60 14
3 59 60 61
3 63 62 29
3 8 64 65
3 8 66 68
3 66 30 67
3 66 67 68
3 69 31 70
3 71 70 21
3 69 70 71
3 9 32 16
3 9 33 32
3 9 34 33
3 10 35 18
3 10 36 35
3 10 72 74
3 74 73 36
3 72 73 74
3 5 75 76
3 7 37 27
3 11 12 4
3 13 12 11
3 13 6 12
3 13 14 6
3 77 14 78
3 79 78 13
3 77 78 79
3 81 80 14
3 82 8 83
3 15 84 86
3 84 16 85
3 84 85 86
3 17 16 15
3 17 9 16
3 17 18 9
3 19 18 17
3 19 10 18
3 19 87 89
3 89 88 10
3 87 88 89
3 91 90 19
3 20 92 93
3 95 94 20
3 97 96 5
3 99 98 7
3 100 21 101
3 102 21 103
3 105 104 21
3 106 15 107
3 22 108 110
3 108 15 109
3 108 109 110
3 22 2 15
3 22 111 113
3 113 112 2
3 111 112 113
3 115 114 22
3 23 116 118
3 118 117 1
3 116 117 118
3 24 119 121
3 121 120 23
3 119 120 121
3 24 122 124
3 122 5 123
3 122 123 124
3 12 24 4
3 25 24 12
3 25 5 24
3 25 125 127
3 127 126 5
3 125 126 127
3 26 128 130
3 130 129 25
3 128 129 130
3 26 131 133
3 131 3 132
3 131 132 133
3 26 27 3
3 28 27 26
3 28 7 27
3 14 28 6
3 29 28 14
3 29 7 28
3 29 134 136
3 136 135 7
3 134 135 136
3 138 137 29
3 139 20 140
3 30 141 143
3 141 20 142
3 141 142 143
3 30 1 20
3 21 144 145
3 31 146 148
3 148 147 21
3 146 147 148
3 31 149 151
3 149 8 150
3 149 150 151
3 16 152 154
3 152 31 153
3 152 153 154
3 32 31 16
3 32 8 31
3 32 30 8
3 33 30 32
3 33 1 30
3 33 23 1
3 34 23 33
3 34 4 23
3 18 34 9
3 35 34 18
3 35 4 34
3 35 11 4
3 36 11 35
3 36 0 11
3 36 155 157
3 157 156 0
3 155 156 157
3 159 158 36
3 161 160 10
3 163 162 2
3 165 164 1
3 167 166 5
3 27 168 170
3 170 169 3
3 168 169 170
3 37 171 173
3 173 172 27
3 171 172 173
3 37 174 175
3 176 37 177
3 178 177 7
3 176 177 178
3 179 37 180
3 182 181 37
3 184 183 0
