ply
format ascii 1.0
element vertex 91
property float x
property float y
property float z
element face 71
property list uchar int vertex_index
end_header
-63.120995 -61.587036 37.316811
-65.070038 -61.299072 27.080452
-64.190536 -61.810215 32.215405
-62.434242 -63.255844 35.304932
-62.974991 -63.255051 32.741013
-63.68483 -61.766167 34.776611
-65.47374 -60.658653 24.522202
-65.371483 -58.725704 33.809441
-64.647675 -61.670269 29.647301
-64.214447 -60.038105 36.822159
-64.692932 -60.265263 34.291
-65.096863 -60.337288 31.737675
-65.445549 -60.200043 29.174616
-65.762794 -59.804951 26.610683
-62.777619 -62.42144 36.310872
-62.143541 -63.195833 36.575642
-62.486918 -62.361429 37.581581
-64.741387 -61.711874 26.06246
-64.512854 -62.01404 27.342382
-65.271889 -60.978863 25.801327
-64.943238 -61.391665 24.783335
-64.741387 -61.711874 26.06246
-63.835111 -62.451826 31.19346
-63.227339 -63.174244 31.456264
-63.582763 -62.532633 32.478209
-64.419106 -61.740242 30.931353
-64.063681 -62.381853 29.909408
-63.835111 -62.451826 31.19346
-64.629631 -59.251402 36.572342
-64.411179 -59.061144 37.807389
-64.868874 -59.364981 35.306762
-64.453689 -60.151684 35.556579
-64.629631 -59.251402 36.572342
-65.355133 -59.573526 31.504539
-65.234173 -59.531496 32.773558
-65.492443 -58.767735 32.540422
-65.529476 -59.504904 30.22301
-65.271206 -60.268665 30.456145
-65.355133 -59.573526 31.504539
-65.86911 -59.019179 26.386869
-65.782855 -59.233057 27.665103
-65.917942 -59.460878 25.332951
-65.86911 -59.019179 26.386869
-61.73838 -64.009461 35.607136
-62.143541 -63.195833 36.575642
-61.994396 -63.979957 34.325493
-61.73838 -64.009461 35.607136
-62.704617 -63.255448 34.022973
-62.26477 -63.979561 33.043534
-61.994396 -63.979957 34.325493
-65.167298 -60.95709 23.510344
-64.943238 -61.391665 24.783335
-65.673668 -60.193151 23.252069
-65.167298 -60.95709 23.510344
-65.459728 -57.785994 34.792763
-65.208149 -58.595202 35.065983
-65.519135 -57.926558 33.550505
-65.459728 -57.785994 34.792763
-65.492443 -58.767735 32.540422
-65.519135 -57.926558 33.550505
-62.509318 -63.878167 31.758568
-62.26477 -63.979561 33.043534
-62.509318 -63.878167 31.758568
-63.227339 -63.174244 31.456264
-64.301672 -62.199638 28.625806
-64.063681 -62.381853 29.909408
-64.858857 -61.484671 28.363876
-64.512854 -62.01404 27.342382
-64.301672 -62.199638 28.625806
-62.807129 -61.45198 38.56324
-62.486918 -62.361429 37.581581
-63.384522 -60.647674 38.313111
-62.807129 -61.45198 38.56324
-63.931248 -59.873209 38.065784
-64.411179 -59.061144 37.807389
-63.667721 -60.81257 37.069485
-63.384522 -60.647674 38.313111
-63.931248 -59.873209 38.065784
-65.032207 -59.495483 34.05022
-64.868874 -59.364981 35.306762
-65.208149 -58.595202 35.065983
-65.624233 -59.430603 28.947069
-65.529476 -59.504904 30.22301
-65.604172 -60.002497 27.89265
-65.624233 -59.430603 28.947069
-65.782855 -59.233057 27.665103
-65.773415 -59.887729 24.28871
-65.618267 -60.231802 25.566443
-65.917942 -59.460878 25.332951
-65.673668 -60.193151 23.252069
-65.773415 -59.887729 24.28871
3 0 14 16
3 14 3 15
3 14 15 16
3 0 5 3
3 1 17 18
3 1 19 21
3 19 6 20
3 19 20 21
3 2 22 24
3 24 23 4
3 22 23 24
3 2 25 27
3 25 8 26
3 25 26 27
3 28 9 29
3 30 10 31
3 32 31 9
3 30 31 32
3 33 11 34
3 35 34 7
3 33 34 35
3 36 12 37
3 38 37 11
3 36 37 38
3 39 13 40
3 42 41 13
3 3 43 44
3 3 45 46
3 3 47 49
3 47 4 48
3 47 48 49
3 5 4 3
3 5 2 4
3 6 50 51
3 6 52 53
3 54 7 55
3 56 7 57
3 59 58 7
3 4 60 61
3 63 62 4
3 8 64 65
3 8 66 68
3 66 1 67
3 66 67 68
3 69 0 70
3 71 0 72
3 9 73 74
3 9 75 77
3 75 0 76
3 75 76 77
3 9 5 0
3 10 5 9
3 10 2 5
3 7 78 80
3 78 10 79
3 78 79 80
3 11 10 7
3 11 2 10
3 11 8 2
3 12 8 11
3 12 1 8
3 81 12 82
3 13 83 85
3 83 12 84
3 83 84 85
3 13 1 12
3 13 6 1
3 86 6 87
3 88 87 13
3 86 87 88
3 90 89 6
