ply
format ascii 1.0
element vertex 395
property float x
property float y
property float z
element face 336
property list uchar int vertex_index
end_header
23.75021 80.80838 -17.770109
21.493032 61.556236 -26.877401
29.884037 70.431129 -21.443853
23.954544 81.487411 2.167412
22.845596 73.367645 -23.393942
27.030661 76.370193 -20.047514
20.432968 83.814522 -14.342196
26.913677 80.713203 -3.028765
23.802834 54.215355 -27.296793
18.843212 68.926353 -26.538965
25.542118 66.476395 -24.103373
32.148571 63.563736 -22.366899
27.349192 80.753609 -12.954399
30.832235 77.638504 -16.12137
23.954252 82.73069 -8.853134
33.953346 72.959206 -18.428919
36.409904 66.929779 -20.031752
23.403234 77.829636 -20.988062
22.063915 82.462341 -16.207434
20.135534 82.173149 -18.591345
30.88826 77.927887 0.490812
15.629454 69.89743 -27.894617
17.403851 72.392441 -26.240114
26.390392 71.974266 -22.345781
24.247452 70.02243 -23.799173
27.707726 68.604263 -22.782732
28.895721 65.069221 -23.146074
31.09568 67.060486 -21.939631
28.90942 80.220543 -10.320295
30.688951 79.099556 -12.19418
22.653488 81.69323 5.001317
20.138826 83.514061 4.971479
28.561878 80.160759 -5.380657
25.510965 81.803032 -5.969933
27.167192 81.096123 -8.244808
25.611229 81.844398 -11.020781
24.803858 50.722832 -27.59041
22.029835 51.546295 -28.678621
32.460945 75.498146 -17.374105
21.346134 76.418159 -22.810884
24.950443 75.075882 -21.769686
28.52487 73.565216 -20.831259
25.37429 81.153404 -0.511421
28.164421 79.503685 -0.057846
29.798344 79.095047 -2.45895
24.644741 60.413124 -25.678141
22.694147 57.84285 -27.057398
26.691277 53.248535 -26.267241
38.687298 71.514198 -15.929674
41.37339 69.24659 -15.218395
17.048855 66.317917 -28.105322
20.208138 65.28138 -26.725012
20.78949 71.296936 -24.971518
22.168144 67.770897 -25.247889
23.454456 64.10923 -25.460531
26.72547 62.835365 -24.37702
29.945631 61.47847 -23.489244
25.620995 80.975502 -15.441811
27.345013 79.293198 -16.935369
19.073273 83.552666 8.10471
23.974247 82.395111 -3.501226
22.253586 83.42865 -11.651333
23.902388 82.32798 -13.681353
20.897648 55.150772 -28.481234
29.012093 77.222939 -18.176916
30.572315 74.747337 -19.192026
31.992044 71.897446 -20.015638
37.108006 70.999115 -17.735979
35.278362 70.073387 -19.307768
33.250103 68.747559 -20.686472
34.329384 65.401077 -21.241358
24.58775 79.798488 -18.405634
22.76569 80.50143 -18.856514
22.76569 80.50143 -18.856514
20.958352 81.183815 -19.267132
21.942872 81.490764 -18.180727
16.654822 73.990173 -25.991804
15.781337 72.822392 -26.877086
15.032308 74.420124 -26.628777
30.490427 79.380379 -9.95025
29.601618 79.83918 -8.942558
23.304016 81.59032 3.584365
23.923232 80.812607 5.083267
24.57376 80.709698 3.666315
22.626288 82.382514 2.074572
21.97576 82.485424 3.491525
23.304016 81.59032 3.584365
23.262874 82.189517 0.660178
22.626288 82.382514 2.074572
28.730504 80.27697 -7.904815
27.864535 80.628441 -6.812733
29.427847 79.809288 -6.472739
29.601618 79.83918 -8.942558
28.038306 80.658333 -9.282552
28.730504 80.27697 -7.904815
20.589879 60.207061 -27.607498
19.947964 62.081707 -27.553197
23.938876 49.40123 -28.251764
25.24231 49.054199 -27.744124
20.559803 77.76321 -22.394475
19.570066 76.988831 -23.356882
18.732799 84.484902 -14.620793
19.675591 84.375709 -13.2609
28.720118 78.846554 1.429385
27.394917 79.643619 1.212884
31.180912 78.294426 -2.139873
30.343302 78.511467 -0.984069
31.72587 77.710846 -0.664991
30.652884 78.814575 -3.589721
31.180912 78.294426 -2.139873
25.187266 58.592083 -25.811224
26.216793 59.806809 -25.174885
28.081297 52.75085 -25.818604
27.702258 54.451614 -25.637604
29.092278 53.95393 -25.188967
28.488597 51.067524 -25.993603
27.098577 51.565208 -26.44224
28.081297 52.75085 -25.818604
41.928867 69.249439 -14.174495
40.682429 70.4426 -14.549467
21.817543 72.33229 -24.18273
20.057326 72.942184 -24.760912
21.085379 73.977539 -23.972124
32.586176 61.807201 -22.562314
31.484706 60.764568 -23.123487
31.047101 62.521103 -22.928072
28.229608 80.064885 -13.803481
27.365509 80.175831 -15.047187
26.485093 80.864555 -14.198105
31.569411 78.376972 -13.030983
32.268591 78.216698 -11.810287
20.268217 82.642483 8.0424
19.723203 82.557946 9.596345
18.894317 84.396183 5.022583
19.406467 84.28944 3.452271
23.188061 83.10498 -7.656325
23.966418 82.641152 -6.214724
24.732608 82.266861 -7.411534
22.341107 83.540947 -9.106623
23.188061 83.10498 -7.656325
23.103919 83.07967 -10.252233
21.490774 83.889927 -10.505722
22.341107 83.540947 -9.106623
20.649532 51.949665 -29.278976
21.228506 50.158344 -29.343101
38.54432 69.934731 -17.39988
37.897652 71.256656 -16.832826
39.333965 70.192272 -16.496727
35.844133 68.501583 -19.66976
36.796161 69.08514 -18.98336
37.361932 67.513336 -19.345353
22.592202 79.012058 -20.465491
21.588353 78.468948 -21.483064
24.414262 78.309116 -20.01461
22.592202 79.012058 -20.465491
26.227975 77.579395 -19.544337
25.216947 77.099914 -20.517788
24.414262 78.309116 -20.01461
20.29748 83.134349 -16.559162
19.482006 83.81044 -15.626544
21.248441 83.138431 -15.274815
19.333289 82.989754 -17.751118
20.29748 83.134349 -16.559162
21.099725 82.317745 -17.399389
18.367311 82.755981 -18.971252
19.333289 82.989754 -17.751118
19.153399 81.792134 -19.714381
18.367311 82.755981 -18.971252
19.153399 81.792134 -19.714381
20.958352 81.183815 -19.267132
31.369566 77.294727 1.967065
30.082038 78.058655 1.703714
32.184593 77.140789 0.797763
31.369566 77.294727 1.967065
32.6659 76.50763 2.274017
31.72587 77.710846 -0.664991
32.184593 77.140789 0.797763
14.894139 71.574886 -27.704338
14.10717 70.257988 -28.551285
16.516652 71.144936 -27.067366
14.894139 71.574886 -27.704338
15.781337 72.822392 -26.877086
31.380192 78.819885 -10.887193
29.799186 79.66005 -11.257237
30.490427 79.380379 -9.95025
32.268591 78.216698 -11.810287
31.380192 78.819885 -10.887193
23.263061 80.809945 6.492763
23.923232 80.812607 5.083267
22.058324 81.712765 6.490703
23.263061 80.809945 6.492763
21.396157 82.603645 4.986398
20.800994 82.62318 6.475784
22.058324 81.712765 6.490703
20.718429 83.395839 3.476606
21.396157 82.603645 4.986398
21.97576 82.485424 3.491525
19.406467 84.28944 3.452271
20.718429 83.395839 3.476606
22.551865 49.812962 -28.79587
23.416846 51.134563 -28.134515
23.938876 49.40123 -28.251764
21.228506 50.158344 -29.343101
22.551865 49.812962 -28.79587
33.29924 75.662746 -16.359741
31.64659 76.568325 -16.747737
32.484885 76.732925 -15.733373
34.082377 74.548805 -17.003555
33.29924 75.662746 -16.359741
34.828577 73.279335 -17.530962
33.207146 74.228676 -17.901512
34.082377 74.548805 -17.003555
37.84678 65.960964 -19.717574
37.361932 67.513336 -19.345353
38.301645 64.315349 -20.010345
36.864768 65.284165 -20.324524
37.84678 65.960964 -19.717574
20.335648 75.502796 -23.680595
19.570066 76.988831 -23.356882
22.095865 74.892902 -23.102413
21.085379 73.977539 -23.972124
20.335648 75.502796 -23.680595
22.374684 77.123897 -21.899473
20.559803 77.76321 -22.394475
21.588353 78.468948 -21.483064
18.732799 84.484902 -14.620793
19.482006 83.81044 -15.626544
25.289979 80.635482 2.325513
24.57376 80.709698 3.666315
25.999852 80.468479 0.986096
24.664417 81.320407 0.827996
25.289979 80.635482 2.325513
26.769355 80.328544 -0.284633
25.999852 80.468479 0.986096
27.394917 79.643619 1.212884
29.52634 78.715786 0.216483
28.720118 78.846554 1.429385
30.082038 78.058655 1.703714
30.034652 79.347431 -5.050574
29.180111 79.627903 -3.919804
30.652884 78.814575 -3.589721
29.427847 79.809288 -6.472739
30.034652 79.347431 -5.050574
24.211969 57.306946 -26.500853
23.669444 59.127987 -26.36777
25.187266 58.592083 -25.811224
24.766312 55.493199 -26.62055
23.248491 56.029103 -27.177096
24.211969 57.306946 -26.500853
26.210534 55.009788 -26.105774
27.702258 54.451614 -25.637604
25.247056 53.731945 -26.782017
24.766312 55.493199 -26.62055
26.210534 55.009788 -26.105774
26.154868 50.302357 -27.103825
25.747568 51.985683 -26.928825
27.098577 51.565208 -26.44224
25.24231 49.054199 -27.744124
26.154868 50.302357 -27.103825
39.339382 71.576404 -14.905107
37.945305 72.673596 -15.267653
40.030344 70.380394 -15.574034
39.339382 71.576404 -14.905107
40.682429 70.4426 -14.549467
40.677011 69.058468 -16.141088
39.333965 70.192272 -16.496727
40.030344 70.380394 -15.574034
42.55637 68.036416 -14.828439
41.928867 69.249439 -14.174495
43.111846 68.039265 -13.784539
41.949833 67.921006 -15.780335
42.55637 68.036416 -14.828439
40.677011 69.058468 -16.141088
41.949833 67.921006 -15.780335
14.829609 68.531127 -28.697394
14.10717 70.257988 -28.551285
15.539309 66.741371 -28.802746
14.829609 68.531127 -28.697394
16.339154 68.107674 -27.999969
16.238967 64.921573 -28.875475
15.539309 66.741371 -28.802746
17.725876 64.462547 -28.167158
16.238967 64.921573 -28.875475
19.305518 63.944279 -27.477003
17.725876 64.462547 -28.167158
18.628497 65.799648 -27.415167
20.850585 63.418808 -26.801206
19.947964 62.081707 -27.553197
19.305518 63.944279 -27.477003
18.364506 73.489937 -25.39521
16.654822 73.990173 -25.991804
19.096671 71.844689 -25.605816
18.364506 73.489937 -25.39521
20.057326 72.942184 -24.760912
27.257157 61.017929 -24.524324
26.216793 59.806809 -25.174885
25.685105 61.624245 -25.02758
28.867238 60.339482 -24.080436
27.257157 61.017929 -24.524324
28.335551 62.156918 -23.933132
30.392252 59.704548 -23.665501
28.867238 60.339482 -24.080436
30.392252 59.704548 -23.665501
31.484706 60.764568 -23.123487
28.227518 79.334679 -15.793966
26.483004 80.13435 -16.18859
27.365509 80.175831 -15.047187
29.971129 78.507332 -15.386966
29.088624 78.465851 -16.52837
28.227518 79.334679 -15.793966
29.899487 79.237858 -13.423372
28.229608 80.064885 -13.803481
29.019071 79.926582 -12.574289
29.899487 79.237858 -13.423372
31.569411 78.376972 -13.030983
31.641053 77.646446 -14.994577
29.971129 78.507332 -15.386966
32.484885 76.732925 -15.733373
31.641053 77.646446 -14.994577
18.578 83.451195 9.731871
19.723203 82.557946 9.596345
17.88254 84.404194 8.227104
18.578 83.451195 9.731871
19.60605 83.533364 6.538095
20.268217 82.642483 8.0424
20.800994 82.62318 6.475784
18.36154 84.415486 6.589199
19.60605 83.533364 6.538095
18.894317 84.396183 5.022583
17.88254 84.404194 8.227104
18.36154 84.415486 6.589199
23.972747 82.022514 -0.679239
23.262874 82.189517 0.660178
24.664417 81.320407 0.827996
23.272726 82.643367 -2.174142
23.972747 82.022514 -0.679239
24.674268 81.774258 -2.006324
22.504866 83.259873 -3.677042
23.272726 82.643367 -2.174142
23.198059 82.937191 -4.98037
24.742606 82.099072 -4.73558
23.966418 82.641152 -6.214724
22.504866 83.259873 -3.677042
23.198059 82.937191 -4.98037
20.585901 84.182773 -11.915468
19.823089 84.64405 -10.769858
21.490774 83.889927 -10.505722
21.343277 83.621586 -12.996764
19.675591 84.375709 -13.2609
20.585901 84.182773 -11.915468
21.190437 58.350369 -27.697496
20.589879 60.207061 -27.607498
22.09359 59.699543 -26.967399
20.292187 57.004329 -28.409415
21.190437 58.350369 -27.697496
21.795898 56.496811 -27.769316
19.473866 55.596581 -29.133532
20.292187 57.004329 -28.409415
20.083439 53.751903 -29.180283
21.463741 53.348534 -28.579928
20.649532 51.949665 -29.278976
19.473866 55.596581 -29.133532
20.083439 53.751903 -29.180283
26.385151 79.040897 -17.988264
24.58775 79.798488 -18.405634
25.547612 80.050789 -17.352739
27.218691 78.005768 -18.609037
26.385151 79.040897 -17.988264
28.178553 78.258069 -17.556142
28.021377 76.796566 -19.112215
26.227975 77.579395 -19.544337
27.218691 78.005768 -18.609037
37.195553 72.556831 -16.28134
37.945305 72.673596 -15.267653
36.405907 72.29929 -17.184492
37.195553 72.556831 -16.28134
37.897652 71.256656 -16.832826
35.530676 71.979161 -18.082449
34.828577 73.279335 -17.530962
36.405907 72.29929 -17.184492
37.710983 69.548004 -18.197466
38.54432 69.934731 -17.39988
36.193184 70.536251 -18.521873
37.710983 69.548004 -18.197466
36.796161 69.08514 -18.98336
35.824509 64.519813 -20.929327
35.369644 66.165428 -20.636555
36.864768 65.284165 -20.324524
34.768704 63.686512 -21.47453
35.824509 64.519813 -20.929327
33.678297 62.767842 -22.0373
33.238977 64.482406 -21.804129
34.768704 63.686512 -21.47453
32.586176 61.807201 -22.562314
33.678297 62.767842 -22.0373
3 0 71 72
3 0 19 18
3 0 73 75
3 75 74 19
3 73 74 75
3 76 22 77
3 76 77 78
3 2 25 23
3 2 27 25
3 80 79 28
3 3 81 83
3 81 30 82
3 81 82 83
3 3 84 86
3 86 85 30
3 84 85 86
3 3 87 88
3 89 34 90
3 91 90 32
3 89 90 91
3 92 28 93
3 94 93 34
3 92 93 94
3 1 95 96
3 98 97 36
3 99 39 100
3 5 40 17
3 5 41 40
3 6 101 102
3 103 43 104
3 105 44 106
3 107 106 20
3 105 106 107
3 109 108 44
3 111 110 45
3 112 47 113
3 112 113 114
3 117 116 47
3 115 116 117
3 118 49 119
3 9 50 21
3 9 51 50
3 4 120 122
3 120 52 121
3 120 121 122
3 10 53 24
3 10 54 53
3 10 55 54
3 11 56 26
3 11 123 125
3 125 124 56
3 123 124 125
3 12 126 128
3 128 127 57
3 126 127 128
3 130 129 29
3 131 59 132
3 134 133 31
3 7 60 42
3 14 135 137
3 137 136 33
3 135 136 137
3 14 138 139
3 14 140 142
3 140 61 141
3 140 141 142
3 12 62 35
3 12 57 62
3 8 63 46
3 144 143 37
3 13 64 58
3 15 65 38
3 15 66 65
3 145 67 146
3 147 146 48
3 145 146 147
3 16 148 150
3 148 68 149
3 148 149 150
3 16 69 68
3 16 70 69
3 151 17 152
3 153 17 154
3 155 5 156
3 157 156 17
3 155 156 157
3 18 158 160
3 160 159 6
3 158 159 160
3 19 161 163
3 163 162 18
3 161 162 163
3 19 164 165
3 19 166 167
3 169 168 19
3 170 20 171
3 172 20 173
3 172 173 174
3 176 175 20
3 177 21 178
3 22 179 181
3 179 21 180
3 179 180 181
3 22 9 21
3 23 24 4
3 25 24 23
3 25 10 24
3 25 26 10
3 27 26 25
3 27 11 26
3 28 29 12
3 182 29 183
3 184 183 28
3 182 183 184
3 186 185 29
3 30 187 188
3 30 189 190
3 30 191 193
3 191 31 192
3 191 192 193
3 194 31 195
3 196 195 30
3 194 195 196
3 198 197 31
3 32 33 7
3 34 33 32
3 34 14 33
3 34 35 14
3 28 35 34
3 28 12 35
3 36 37 8
3 199 37 200
3 201 200 36
3 199 200 201
3 203 202 37
3 204 38 205
3 206 205 13
3 204 205 206
3 207 38 208
3 209 15 210
3 211 210 38
3 209 210 211
3 212 16 213
3 216 215 16
3 214 215 216
3 39 217 218
3 39 219 221
3 219 4 220
3 219 220 221
3 17 222 224
3 222 39 223
3 222 223 224
3 40 39 17
3 40 4 39
3 40 23 4
3 41 23 40
3 41 2 23
3 226 225 6
3 227 3 228
3 229 42 230
3 231 230 3
3 229 230 231
3 43 232 234
3 232 42 233
3 232 233 234
3 43 7 42
3 20 235 237
3 235 43 236
3 235 236 237
3 44 43 20
3 44 7 43
3 44 32 7
3 238 32 239
3 240 239 44
3 238 239 240
3 242 241 32
3 45 46 1
3 243 46 244
3 245 244 45
3 243 244 245
3 246 8 247
3 248 247 46
3 246 247 248
3 47 249 250
3 47 251 253
3 251 8 252
3 251 252 253
3 47 36 8
3 254 36 255
3 256 255 47
3 254 255 256
3 258 257 36
3 259 48 260
3 49 261 263
3 261 48 262
3 261 262 263
3 49 264 266
3 266 265 48
3 264 265 266
3 267 49 268
3 267 268 269
3 270 49 271
3 273 272 49
3 21 274 275
3 50 276 278
3 278 277 21
3 276 277 278
3 50 279 280
3 50 281 282
3 51 283 285
3 285 284 50
3 283 284 285
3 51 286 288
3 286 1 287
3 286 287 288
3 289 22 290
3 52 291 293
3 291 22 292
3 291 292 293
3 52 9 22
3 24 52 4
3 53 52 24
3 53 9 52
3 53 51 9
3 54 51 53
3 54 1 51
3 54 45 1
3 55 45 54
3 55 294 296
3 296 295 45
3 294 295 296
3 26 55 10
3 56 55 26
3 56 297 299
3 299 298 55
3 297 298 299
3 56 300 301
3 303 302 56
3 57 58 0
3 304 58 305
3 306 305 57
3 304 305 306
3 307 13 308
3 309 308 58
3 307 308 309
3 29 310 312
3 312 311 12
3 310 311 312
3 314 313 29
3 315 13 316
3 318 317 13
3 59 319 320
3 59 321 322
3 31 323 325
3 323 59 324
3 323 324 325
3 326 59 327
3 328 327 31
3 326 327 328
3 330 329 59
3 42 331 333
3 333 332 3
3 331 332 333
3 60 334 336
3 336 335 42
3 334 335 336
3 60 337 338
3 33 60 7
3 339 60 340
3 341 340 33
3 339 340 341
3 343 342 60
3 61 344 346
3 344 345 346
3 61 347 349
3 347 6 348
3 347 348 349
3 35 61 14
3 62 61 35
3 62 6 61
3 62 18 6
3 57 18 62
3 57 0 18
3 46 350 352
3 352 351 1
3 350 351 352
3 63 353 355
3 355 354 46
3 353 354 355
3 63 356 357
3 37 63 8
3 358 63 359
3 360 359 37
3 358 359 360
3 362 361 63
3 58 363 365
3 365 364 0
3 363 364 365
3 64 366 368
3 368 367 58
3 366 367 368
3 64 369 371
3 369 5 370
3 369 370 371
3 38 64 13
3 65 64 38
3 65 5 64
3 65 41 5
3 66 41 65
3 66 2 41
3 48 372 373
3 67 374 376
3 376 375 48
3 374 375 376
3 67 377 379
3 377 15 378
3 377 378 379
3 380 67 381
3 68 382 384
3 382 67 383
3 382 383 384
3 68 15 67
3 68 66 15
3 69 66 68
3 69 2 66
3 69 27 2
3 70 27 69
3 70 11 27
3 385 70 386
3 387 386 16
3 385 386 387
3 388 70 389
3 390 11 391
3 392 391 70
3 390 391 392
3 394 393 11
