ply
format ascii 1.0
element vertex 92
property float x
property float y
property float z
element face 71
property list uchar int vertex_index
end_header
-21.97467 82.212433 -2.672215
-27.971775 78.902847 -2.53882
-30.323353 78.181503 -7.552744
-23.931526 81.514999 -8.002705
-20.44178 82.340637 3.152995
-24.984402 80.530014 -2.681458
-26.033253 80.292648 -5.305302
-22.896294 81.944656 -5.407232
-30.85643 77.28392 -2.297367
-24.037416 80.622208 0.04731
-29.109858 78.655212 -5.094921
-27.178141 79.867142 -7.809702
-21.162632 82.344696 0.186112
-20.878762 82.918838 -4.010651
-21.339574 82.78495 -5.378159
-22.435482 82.078544 -4.039724
-24.996433 79.766556 1.428567
-25.479273 79.799858 0.073803
-30.955223 77.79876 -8.722416
-31.806246 77.285545 -7.413268
-29.36053 78.685288 -8.864688
-30.955223 77.79876 -8.722416
-24.499417 81.192474 -9.221215
-26.122725 80.368546 -9.124714
-25.554834 80.69107 -7.906204
-22.807606 82.009354 -9.318815
-23.375497 81.686829 -10.537326
-24.499417 81.192474 -9.221215
-21.812312 81.463279 3.010599
-21.420816 81.377464 4.461113
-20.802206 82.342667 1.669554
-22.172738 81.465309 1.527157
-21.812312 81.463279 3.010599
-31.183504 77.575287 -6.189563
-31.806246 77.285545 -7.413268
-21.784497 82.552223 -6.74357
-22.302112 82.337395 -8.041307
-23.41391 81.729827 -6.704968
-21.784497 82.552223 -6.74357
-21.339574 82.78495 -5.378159
-20.113652 82.259582 4.683781
-21.420816 81.377464 4.461113
-31.63973 76.531746 -0.861965
-32.209953 76.435737 -2.152443
-32.993254 75.683563 -0.717041
-30.299226 77.336135 -1.001513
-31.63973 76.531746 -0.861965
-28.856898 78.145599 -1.122239
-29.414102 78.093383 -2.418093
-30.299226 77.336135 -1.001513
-27.446452 78.940178 -1.219261
-28.856898 78.145599 -1.122239
-25.952765 79.753761 -1.290581
-26.478088 79.716431 -2.610139
-27.446452 78.940178 -1.219261
-24.510909 80.576111 -1.317074
-25.952765 79.753761 -1.290581
-25.479273 79.799858 0.073803
-31.450043 77.126495 -3.561875
-32.209953 76.435737 -2.152443
-30.576757 77.812141 -4.960651
-31.450043 77.126495 -3.561875
-29.983144 77.969566 -3.696144
-29.716606 78.418358 -6.323832
-31.183504 77.575287 -6.189563
-30.576757 77.812141 -4.960651
-27.787924 79.528107 -8.993167
-29.36053 78.685288 -8.864688
-28.750747 79.024323 -7.681223
-27.787924 79.528107 -8.993167
-26.122725 80.368546 -9.124714
-22.807606 82.009354 -9.318815
-22.302112 82.337395 -8.041307
-23.61013 80.604065 1.457756
-24.996433 79.766556 1.428567
-22.600024 81.483452 0.116711
-23.61013 80.604065 1.457756
-22.172738 81.465309 1.527157
-19.106471 83.221604 3.421704
-20.113652 82.259582 4.683781
-19.397548 83.220841 1.853704
-19.106471 83.221604 3.421704
-19.757973 83.22287 0.370263
-20.802206 82.342667 1.669554
-19.397548 83.220841 1.853704
-20.088793 83.140557 -1.139207
-19.757973 83.22287 0.370263
-20.494812 83.074425 -2.56837
-21.568651 82.278565 -1.243051
-20.088793 83.140557 -1.139207
-20.878762 82.918838 -4.010651
-20.494812 83.074425 -2.56837
3 0 7 5
3 0 13 15
3 15 14 7
3 13 14 15
3 16 9 17
3 2 18 19
3 2 20 21
3 1 10 8
3 3 11 6
3 3 22 24
3 24 23 11
3 22 23 24
3 3 25 27
3 25 26 27
3 4 28 29
3 4 30 32
3 30 12 31
3 30 31 32
3 33 2 34
3 5 6 1
3 7 6 5
3 7 3 6
3 7 35 37
3 37 36 3
3 35 36 37
3 39 38 7
3 40 4 41
3 42 8 43
3 42 43 44
3 45 8 46
3 47 1 48
3 49 48 8
3 47 48 49
3 50 1 51
3 52 5 53
3 54 53 1
3 52 53 54
3 9 55 57
3 55 5 56
3 55 56 57
3 9 0 5
3 8 58 59
3 10 60 62
3 62 61 8
3 60 61 62
3 10 63 65
3 63 2 64
3 63 64 65
3 6 10 1
3 11 10 6
3 11 2 10
3 11 66 68
3 68 67 2
3 66 67 68
3 70 69 11
3 72 71 3
3 73 9 74
3 12 75 77
3 75 9 76
3 75 76 77
3 12 0 9
3 78 4 79
3 80 4 81
3 82 12 83
3 84 83 4
3 82 83 84
3 85 12 86
3 87 0 88
3 89 88 12
3 87 88 89
3 91 90 0
