ply
format ascii 1.0
element vertex 302
property float x
property float y
property float z
element face 274
property list uchar int vertex_index
end_header
62.637047 -68.58847 -13.459587
62.736511 -69.50174 -4.964161
60.567055 -68.763847 -21.456987
65.052704 -54.293442 -28.189619
62.992073 -68.947868 -9.191139
66.256828 -63.97575 -8.770992
66.40583 -62.852291 -13.046158
65.872154 -62.180626 -17.329668
58.644745 -68.538559 -24.554976
63.12397 -61.810841 -24.985243
65.229668 -65.084381 -4.571733
61.841198 -68.618355 -17.644152
64.789909 -61.978943 -21.417982
67.000923 -54.854828 -24.833937
68.43647 -47.189983 -27.724489
66.365471 -46.151718 -31.010485
62.877251 -68.720474 -11.324238
64.799187 -65.987099 -11.128736
64.637566 -65.655708 -13.273928
66.211761 -62.445908 -15.195877
64.342583 -65.447113 -15.412872
57.427399 -68.172012 -25.778421
59.796234 -64.906029 -26.168062
58.509445 -64.410858 -27.309645
62.32703 -69.699219 -2.867985
63.593788 -67.575089 -2.682987
64.21109 -67.273621 -4.771902
67.625793 -60.894184 -10.644691
67.218163 -61.635082 -8.533081
58.333023 -72.138443 -21.402662
59.087608 -72.078911 -19.652208
59.685066 -71.937973 -17.740858
61.274803 -68.706985 -19.619856
63.398735 -65.354919 -19.557348
62.735363 -65.375 -21.481707
64.168228 -58.130463 -26.639151
65.158241 -58.346684 -25.001184
66.100693 -54.620705 -26.595404
67.813217 -51.090981 -26.343775
66.865967 -50.742538 -28.06418
67.462082 -46.716431 -29.424639
62.95369 -69.229019 -7.070457
64.611343 -66.861954 -6.873793
64.800262 -66.409004 -8.992966
66.430504 -63.37952 -10.900747
67.776947 -59.582081 -14.919363
67.568054 -59.11808 -17.060579
67.196739 -58.803268 -19.175768
57.39827 -72.066002 -22.953463
59.694149 -68.72496 -23.111994
61.920319 -65.348473 -23.246897
60.940067 -65.20903 -24.8155
60.289524 -71.820694 -0.941565
61.040337 -71.6996 -7.249268
60.98217 -71.612869 -9.3696
60.803337 -71.58786 -11.498672
64.371124 -65.455383 -2.497681
65.860336 -64.569321 -6.661474
60.525261 -71.64537 -13.622599
60.155888 -71.774895 -15.715754
62.290657 -68.562164 -15.576799
63.929779 -65.358849 -17.51956
65.398773 -62.040783 -19.416986
66.67186 -58.609974 -21.231489
64.035088 -61.926979 -23.287924
65.993378 -58.481934 -23.187197
69.244644 -47.624191 -25.914328
67.897919 -42.559799 -30.715212
56.749329 -67.892517 -26.289602
56.209456 -69.789154 -25.588985
57.290352 -66.01194 -27.055214
57.968422 -66.291435 -26.544033
56.749329 -67.892517 -26.289602
57.812748 -64.063856 -27.789698
57.290352 -66.01194 -27.055214
67.940502 -59.712809 -10.508627
68.160702 -59.283928 -11.560073
65.417691 -52.29516 -28.9141
66.324322 -50.519709 -28.851381
65.959336 -52.51799 -28.1269
67.105133 -61.520067 -12.911023
67.11747 -61.783682 -11.838318
66.418167 -63.115905 -11.973453
67.091388 -61.217186 -13.982761
67.790692 -59.884962 -13.847625
67.105133 -61.520067 -12.911023
58.021507 -70.30228 -23.754219
56.838364 -71.946655 -23.618847
57.461602 -70.182934 -24.419604
60.925972 -63.235506 -26.324585
60.320503 -63.024403 -26.967645
59.445124 -72.874108 -1.018943
59.243475 -72.732013 0.041972
60.496376 -71.8405 -1.991829
59.445124 -72.874108 -1.018943
60.02908 -72.958466 -6.278659
60.996674 -71.750621 -6.195361
59.944817 -73.020359 -9.459311
60.0019 -72.961167 -8.395999
59.8554 -73.007855 -10.523846
60.892753 -71.600365 -10.434136
59.944817 -73.020359 -9.459311
65.455418 -64.000494 -4.472755
65.026146 -64.185995 -3.435729
64.800396 -65.269882 -3.534707
66.893513 -61.984335 -7.488159
67.395684 -60.508319 -8.411245
59.462845 -73.235348 -13.711624
59.610714 -73.122528 -12.651955
67.369182 -54.960064 -23.881861
66.86541 -56.773617 -23.058491
66.497151 -56.668381 -24.010567
67.797268 -53.129385 -24.662575
67.369182 -54.960064 -23.881861
69.067795 -45.459831 -27.471931
69.471882 -45.676935 -26.566851
68.840557 -47.407087 -26.819409
68.658458 -45.17571 -28.365561
69.067795 -45.459831 -27.471931
66.585553 -44.017517 -31.67888
67.351776 -42.221558 -31.531244
67.131695 -44.355759 -30.862848
56.852929 -69.999661 -25.031326
56.209456 -69.789154 -25.588985
58.036072 -68.355286 -25.166699
57.461602 -70.182934 -24.419604
56.852929 -69.999661 -25.031326
59.677109 -62.776817 -27.538437
60.320503 -63.024403 -26.967645
59.152839 -64.658444 -26.738853
59.015251 -62.46632 -28.084536
59.677109 -62.776817 -27.538437
59.015251 -62.46632 -28.084536
57.812748 -64.063856 -27.789698
62.960409 -68.637154 -2.775486
62.661379 -68.67025 -1.728125
62.028 -69.732315 -1.820625
67.736687 -60.083258 -9.452821
67.421978 -61.264633 -9.588886
67.940502 -59.712809 -10.508627
67.395684 -60.508319 -8.411245
67.736687 -60.083258 -9.452821
57.609405 -73.805744 -20.559086
57.203869 -73.826638 -21.394537
57.986698 -73.775978 -19.683858
57.609405 -73.805744 -20.559086
58.710316 -72.108677 -20.527435
58.305009 -73.695217 -18.75777
57.986698 -73.775978 -19.683858
59.386337 -72.008442 -18.696533
58.603738 -73.624748 -17.802096
58.305009 -73.695217 -18.75777
66.622379 -48.506655 -29.53161
67.164024 -48.729484 -28.744409
66.324322 -50.519709 -28.851381
66.074074 -48.224299 -30.324534
66.913776 -46.434075 -30.217562
66.622379 -48.506655 -29.53161
67.715114 -60.541014 -11.71029
67.028149 -62.136852 -10.772719
67.11747 -61.783682 -11.838318
68.160702 -59.283928 -11.560073
67.715114 -60.541014 -11.71029
68.340321 -58.231804 -14.756927
67.790692 -59.884962 -13.847625
68.336666 -57.897087 -15.819998
68.340321 -58.231804 -14.756927
68.232219 -57.665087 -16.890606
68.336666 -57.897087 -15.819998
67.672501 -59.350081 -15.989971
68.129776 -57.406384 -17.948858
68.232219 -57.665087 -16.890606
67.944119 -57.248978 -19.006453
68.129776 -57.406384 -17.948858
67.382396 -58.960674 -18.118174
67.749668 -57.064028 -20.046973
67.944119 -57.248978 -19.006453
56.234669 -73.734371 -22.898506
56.838364 -71.946655 -23.618847
56.736492 -73.790417 -22.169937
56.234669 -73.734371 -22.898506
57.865646 -72.102222 -22.178062
57.203869 -73.826638 -21.394537
56.736492 -73.790417 -22.169937
61.497889 -63.387006 -25.648304
60.36815 -65.05753 -25.491781
60.925972 -63.235506 -26.324585
62.58984 -61.687912 -25.733176
62.032018 -63.509935 -24.900371
61.497889 -63.387006 -25.648304
63.111969 -59.847723 -26.560129
63.646099 -59.970652 -25.812197
62.58984 -61.687912 -25.733176
63.602279 -57.951166 -27.360859
63.111969 -59.847723 -26.560129
64.044517 -56.032656 -28.136093
64.610466 -56.211952 -27.414385
63.602279 -57.951166 -27.360859
64.468136 -54.056157 -28.89908
64.044517 -56.032656 -28.136093
60.008599 -71.732613 0.115541
58.96255 -72.643932 1.099078
59.243475 -72.732013 0.041972
61.009247 -70.793053 -0.857414
60.008599 -71.732613 0.115541
61.308277 -70.759957 -1.904775
62.028 -69.732315 -1.820625
61.009247 -70.793053 -0.857414
61.515129 -70.779763 -2.955039
61.308277 -70.759957 -1.904775
60.496376 -71.8405 -1.991829
61.71987 -70.681023 -4.003127
62.531771 -69.60048 -3.916073
61.515129 -70.779763 -2.955039
61.844761 -70.651691 -5.052808
61.71987 -70.681023 -4.003127
61.95335 -70.515331 -6.105956
62.845101 -69.365379 -6.017309
61.844761 -70.651691 -5.052808
61.997014 -70.464309 -7.159863
61.95335 -70.515331 -6.105956
60.996674 -71.750621 -6.195361
60.030983 -73.004532 -7.335833
60.02908 -72.958466 -6.278659
61.011254 -71.656235 -8.309434
60.030983 -73.004532 -7.335833
60.0019 -72.961167 -8.395999
63.183027 -67.644509 -1.641313
62.661379 -68.67025 -1.728125
63.571695 -66.584655 -1.54866
63.183027 -67.644509 -1.641313
63.982456 -66.515236 -2.590334
63.84124 -65.546493 -1.465333
63.571695 -66.584655 -1.54866
64.474395 -64.391171 -2.409488
63.944512 -64.482281 -1.37714
63.84124 -65.546493 -1.465333
64.474395 -64.391171 -2.409488
65.026146 -64.185995 -3.435729
66.214599 -63.451454 -6.552355
66.53925 -63.102201 -7.597277
66.893513 -61.984335 -7.488159
65.899265 -63.708984 -5.507485
65.545002 -64.826851 -5.616604
66.214599 -63.451454 -6.552355
65.455418 -64.000494 -4.472755
65.899265 -63.708984 -5.507485
59.749752 -73.093773 -11.589992
59.8554 -73.007855 -10.523846
60.664299 -71.616615 -12.560636
59.749752 -73.093773 -11.589992
59.610714 -73.122528 -12.651955
58.850723 -73.507965 -16.808199
58.603738 -73.624748 -17.802096
59.086134 -73.426426 -15.795647
58.850723 -73.507965 -16.808199
59.920477 -71.856434 -16.728306
59.278159 -73.30011 -14.758202
59.086134 -73.426426 -15.795647
60.340575 -71.710133 -14.669176
59.462845 -73.235348 -13.711624
59.278159 -73.30011 -14.758202
67.487229 -56.967381 -21.074833
67.749668 -57.064028 -20.046973
66.934299 -58.706621 -20.203629
67.204651 -56.837637 -22.080637
66.332619 -58.545954 -22.209343
66.86541 -56.773617 -23.058491
67.487229 -56.967381 -21.074833
67.204651 -56.837637 -22.080637
68.203415 -51.247462 -25.417494
67.797268 -53.129385 -24.662575
67.40707 -52.972904 -25.588856
68.919128 -49.514066 -25.20277
68.203415 -51.247462 -25.417494
68.528931 -49.357586 -26.129052
69.548275 -47.85183 -24.961853
68.919128 -49.514066 -25.20277
69.77565 -45.969368 -25.636576
69.548275 -47.85183 -24.961853
69.77565 -45.969368 -25.636576
69.471882 -45.676935 -26.566851
68.171265 -44.938935 -29.215635
68.658458 -45.17571 -28.365561
67.949276 -46.953207 -28.574564
68.389183 -42.860619 -29.860922
68.171265 -44.938935 -29.215635
67.680001 -44.638115 -30.069926
68.5262 -40.793385 -30.476641
68.389183 -42.860619 -29.860922
68.038212 -40.431507 -31.351286
68.5262 -40.793385 -30.476641
68.038212 -40.431507 -31.351286
67.351776 -42.221558 -31.531244
65.417691 -52.29516 -28.9141
64.468136 -54.056157 -28.89908
65.4836 -47.93035 -31.039108
66.074074 -48.224299 -30.324534
65.779465 -45.805943 -31.7492
65.4836 -47.93035 -31.039108
66.585553 -44.017517 -31.67888
65.779465 -45.805943 -31.7492
3 0 18 16
3 0 20 18
3 68 21 69
3 70 23 71
3 72 71 21
3 70 71 72
3 74 73 23
3 1 26 24
3 76 75 27
3 2 30 29
3 2 32 30
3 2 34 32
3 3 37 35
3 3 39 37
3 3 77 79
3 79 78 39
3 77 78 79
3 4 43 41
3 6 44 17
3 6 80 82
3 82 81 44
3 80 81 82
3 6 83 85
3 83 45 84
3 83 84 85
3 7 46 19
3 7 47 46
3 8 86 88
3 86 48 87
3 86 87 88
3 8 49 48
3 8 51 49
3 90 89 22
3 91 52 92
3 94 93 52
3 95 53 96
3 97 54 98
3 99 55 100
3 101 100 54
3 99 100 101
3 10 56 25
3 10 102 104
3 104 103 56
3 102 103 104
3 5 57 42
3 106 105 28
3 107 58 108
3 11 59 31
3 11 60 59
3 11 61 60
3 12 62 33
3 12 63 62
3 9 64 50
3 13 65 36
3 13 109 111
3 111 110 65
3 109 110 111
3 13 112 113
3 14 66 38
3 14 114 116
3 116 115 66
3 114 115 116
3 14 117 118
3 15 67 40
3 15 119 121
3 121 120 67
3 119 120 121
3 16 17 4
3 18 17 16
3 18 6 17
3 18 19 6
3 20 19 18
3 20 7 19
3 21 122 123
3 21 124 126
3 124 8 125
3 124 125 126
3 21 22 8
3 23 22 21
3 23 127 129
3 129 128 22
3 127 128 129
3 23 130 131
3 133 132 23
3 24 134 136
3 134 25 135
3 134 135 136
3 26 25 24
3 26 10 25
3 27 28 5
3 137 28 138
3 139 138 27
3 137 138 139
3 141 140 28
3 29 142 143
3 30 144 146
3 146 145 29
3 144 145 146
3 30 147 148
3 30 149 151
3 149 31 150
3 149 150 151
3 32 31 30
3 32 11 31
3 32 33 11
3 34 33 32
3 34 12 33
3 35 36 9
3 37 36 35
3 37 13 36
3 37 38 13
3 39 38 37
3 39 14 38
3 39 40 14
3 152 40 153
3 154 153 39
3 152 153 154
3 155 15 156
3 157 156 40
3 155 156 157
3 41 42 1
3 43 42 41
3 43 5 42
3 17 43 4
3 44 43 17
3 44 5 43
3 44 27 5
3 158 27 159
3 160 159 44
3 158 159 160
3 162 161 27
3 45 163 164
3 45 165 166
3 19 45 6
3 46 45 19
3 46 167 169
3 169 168 45
3 167 168 169
3 46 170 171
3 47 172 174
3 174 173 46
3 172 173 174
3 47 175 176
3 48 177 178
3 48 179 180
3 48 181 183
3 181 29 182
3 181 182 183
3 49 29 48
3 49 2 29
3 49 50 2
3 51 50 49
3 51 9 50
3 22 51 8
3 184 51 185
3 186 185 22
3 184 185 186
3 187 9 188
3 189 188 51
3 187 188 189
3 190 35 191
3 192 191 9
3 190 191 192
3 193 35 194
3 195 3 196
3 197 196 35
3 195 196 197
3 199 198 3
3 52 200 202
3 200 201 202
3 52 203 204
3 52 205 207
3 205 24 206
3 205 206 207
3 208 24 209
3 210 209 52
3 208 209 210
3 211 1 212
3 213 212 24
3 211 212 213
3 214 1 215
3 216 41 217
3 218 217 1
3 216 217 218
3 53 219 221
3 219 41 220
3 219 220 221
3 53 4 41
3 222 53 223
3 54 224 226
3 224 53 225
3 224 225 226
3 54 4 53
3 54 16 4
3 55 16 54
3 55 0 16
3 25 227 228
3 56 229 231
3 231 230 25
3 229 230 231
3 56 232 233
3 56 234 236
3 234 235 236
3 238 237 56
3 42 26 1
3 57 26 42
3 57 10 26
3 28 57 5
3 239 57 240
3 241 240 28
3 239 240 241
3 242 10 243
3 244 243 57
3 242 243 244
3 246 245 10
3 247 55 248
3 58 249 251
3 249 55 250
3 249 250 251
3 58 0 55
3 31 252 253
3 59 254 256
3 256 255 31
3 254 255 256
3 59 257 258
3 59 259 261
3 259 58 260
3 259 260 261
3 60 58 59
3 60 0 58
3 60 20 0
3 61 20 60
3 61 7 20
3 33 61 11
3 62 61 33
3 62 7 61
3 62 47 7
3 63 47 62
3 63 262 264
3 264 263 47
3 262 263 264
3 50 34 2
3 64 34 50
3 64 12 34
3 36 64 9
3 65 64 36
3 65 12 64
3 65 63 12
3 265 63 266
3 267 266 65
3 265 266 267
3 269 268 63
3 38 270 272
3 272 271 13
3 270 271 272
3 66 273 275
3 275 274 38
3 273 274 275
3 66 276 277
3 66 278 279
3 281 280 66
3 40 282 284
3 284 283 14
3 282 283 284
3 67 285 287
3 287 286 40
3 285 286 287
3 67 288 289
3 67 290 291
3 293 292 67
3 295 294 3
3 296 15 297
3 298 15 299
3 301 300 15
