ply
format ascii 1.0
element vertex 161
property float x
property float y
property float z
element face 134
property list uchar int vertex_index
end_header
38.499386 -1.253809 3.045521
38.520157 -1.378504 6.937429
39.279221 -1.739285 10.13611
40.911655 -2.236435 12.432501
43.418877 -2.822905 13.727684
46.658417 -3.481256 14.10829
38.710777 -1.318478 0.928539
38.796513 -1.53661 8.63866
39.195831 2.264702 9.660467
41.01004 1.714153 11.735688
42.240101 1.376755 12.384168
42.061897 -2.519575 13.205323
43.662373 1.009085 12.781269
46.971619 0.201145 12.929161
39.104042 -4.643161 1.105501
38.868301 -4.788852 3.201833
38.429092 -1.279158 5.061444
38.741646 -4.962764 5.238165
38.754917 -5.157948 7.165195
38.940247 -5.367955 8.942896
39.325935 -5.587573 10.537855
39.991714 2.014032 10.826984
39.982517 -1.975071 11.406446
39.932995 -5.814058 11.921797
40.772903 -6.047418 13.072029
41.846542 -6.289396 13.974037
43.144447 -6.541468 14.625254
45.250076 0.615723 12.949995
44.960304 -3.144783 14.0173
39.125484 4.317499 9.383585
38.909832 2.357146 8.953739
43.042263 3.15164 12.105228
42.296625 3.371879 11.961945
43.753399 2.967805 12.303778
42.951237 1.19292 12.582719
43.042263 3.15164 12.105228
38.474624 -1.328831 5.999436
38.34888 0.634651 5.832897
38.394413 0.584978 6.77089
40.517181 3.889757 10.913185
39.964691 4.060454 10.508436
46.244693 2.28574 12.358322
45.367593 2.534798 12.418761
45.65337 -5.142 14.573362
44.804313 -4.973764 14.527867
45.80936 -3.31302 14.062795
46.495808 -5.27492 14.675666
45.65337 -5.142 14.573362
38.535769 0.404769 0.742536
38.884332 -1.406153 -0.163895
38.431198 0.543096 1.829785
38.535769 0.404769 0.742536
38.325502 0.575431 2.888276
38.605081 -1.286144 1.98703
38.431198 0.543096 1.829785
38.571995 0.535543 7.592219
38.394413 0.584978 6.77089
38.710173 0.456489 8.442835
38.658335 -1.457557 7.788044
38.571995 0.535543 7.592219
38.996172 0.364046 9.149563
38.710173 0.456489 8.442835
38.909832 2.357146 8.953739
41.681595 3.540578 11.637704
41.026344 3.739818 11.367537
41.62507 1.545454 12.059928
41.681595 3.540578 11.637704
42.296625 3.371879 11.961945
48.020634 1.819935 12.225271
47.105465 2.078451 12.347905
47.882649 -0.013316 12.850895
48.020634 1.819935 12.225271
47.726047 -1.854517 13.440459
46.815018 -1.640056 13.518726
47.882649 -0.013316 12.850895
47.570633 -3.652907 14.079123
47.726047 -1.854517 13.440459
39.068901 -2.927913 -0.030939
38.884332 -1.406153 -0.163895
39.265534 -4.590255 0.057542
39.068901 -2.927913 -0.030939
38.907409 -2.980819 1.01702
39.511516 -6.040851 0.069107
39.265534 -4.590255 0.057542
39.342657 -6.224651 1.112146
39.511516 -6.040851 0.069107
39.224787 -6.297496 2.160312
39.342657 -6.224651 1.112146
38.986171 -4.716007 2.153667
39.079933 -6.463325 3.219853
39.224787 -6.297496 2.160312
38.30805 0.643079 3.900899
38.325502 0.575431 2.888276
38.272903 0.630404 4.908861
38.34888 0.634651 5.832897
38.464239 -1.266484 4.053482
38.30805 0.643079 3.900899
38.272903 0.630404 4.908861
39.016605 -6.550281 4.238019
39.079933 -6.463325 3.219853
38.804974 -4.875808 4.219999
38.914252 -6.702395 5.278916
39.016605 -6.550281 4.238019
38.920887 -6.799988 6.242431
38.914252 -6.702395 5.278916
38.748282 -5.060356 6.20168
38.881022 -6.940707 7.238745
38.920887 -6.799988 6.242431
38.973686 -7.045711 8.127595
38.881022 -6.940707 7.238745
38.847582 -5.262951 8.054045
39.015953 -7.176432 9.058435
38.973686 -7.045711 8.127595
39.208798 -7.286241 9.855914
39.015953 -7.176432 9.058435
39.133091 -5.477764 9.740375
39.350572 -7.408456 10.70328
39.208798 -7.286241 9.855914
39.56675 4.185789 9.925177
39.125484 4.317499 9.383585
39.593773 2.139367 10.243726
39.56675 4.185789 9.925177
39.964691 4.060454 10.508436
40.500877 1.864092 11.281336
40.517181 3.889757 10.913185
41.026344 3.739818 11.367537
39.654103 -7.521698 11.395251
39.350572 -7.408456 10.70328
39.629465 -5.700816 11.229826
39.908905 -7.637466 12.143204
39.654103 -7.521698 11.395251
40.328859 -7.754146 12.718319
39.908905 -7.637466 12.143204
40.352949 -5.930738 12.496913
40.705257 -7.865921 13.353407
40.328859 -7.754146 12.718319
41.242076 -7.98691 13.804412
40.705257 -7.865921 13.353407
41.309722 -6.168407 13.523033
41.743085 -8.096848 14.31717
41.242076 -7.98691 13.804412
42.392038 -8.222884 14.642779
41.743085 -8.096848 14.31717
42.495494 -6.415432 14.299646
43.015073 -8.331923 15.029727
42.392038 -8.222884 14.642779
44.573742 2.731479 12.334398
43.753399 2.967805 12.303778
44.456225 0.812404 12.865632
44.573742 2.731479 12.334398
45.367593 2.534798 12.418761
46.110847 0.408434 12.939578
46.244693 2.28574 12.358322
47.105465 2.078451 12.347905
43.896385 -6.672106 14.831844
44.052375 -4.843126 14.321277
44.804313 -4.973764 14.527867
43.015073 -8.331923 15.029727
43.896385 -6.672106 14.831844
46.495808 -5.27492 14.675666
47.570633 -3.652907 14.079123
3 29 8 30
3 31 10 32
3 33 12 34
3 35 34 10
3 33 34 35
3 0 14 6
3 0 15 14
3 1 36 38
3 36 16 37
3 36 37 38
3 1 17 16
3 1 18 17
3 2 19 7
3 2 20 19
3 39 21 40
3 3 22 9
3 3 23 22
3 3 24 23
3 4 25 11
3 4 26 25
3 41 27 42
3 5 28 13
3 5 43 45
3 45 44 28
3 43 44 45
3 5 46 47
3 48 6 49
3 50 6 51
3 52 0 53
3 54 53 6
3 52 53 54
3 55 1 56
3 57 7 58
3 59 58 1
3 57 58 59
3 8 60 62
3 60 7 61
3 60 61 62
3 8 2 7
3 63 9 64
3 10 65 67
3 65 9 66
3 65 66 67
3 10 3 9
3 10 11 3
3 12 11 10
3 12 4 11
3 68 13 69
3 70 13 71
3 72 5 73
3 74 73 13
3 72 73 74
3 76 75 5
3 6 77 78
3 14 79 81
3 81 80 6
3 79 80 81
3 14 82 83
3 14 84 85
3 15 86 88
3 88 87 14
3 86 87 88
3 15 89 90
3 91 0 92
3 16 93 94
3 16 95 97
3 95 0 96
3 95 96 97
3 16 15 0
3 17 15 16
3 17 98 100
3 100 99 15
3 98 99 100
3 17 101 102
3 18 103 105
3 105 104 17
3 103 104 105
3 18 106 107
3 7 18 1
3 19 18 7
3 19 108 110
3 110 109 18
3 108 109 110
3 19 111 112
3 20 113 115
3 115 114 19
3 113 114 115
3 20 116 117
3 118 8 119
3 21 120 122
3 120 8 121
3 120 121 122
3 21 2 8
3 9 123 125
3 123 21 124
3 123 124 125
3 22 21 9
3 22 2 21
3 22 20 2
3 23 20 22
3 23 126 128
3 128 127 20
3 126 127 128
3 23 129 130
3 24 131 133
3 133 132 23
3 131 132 133
3 24 134 135
3 11 24 3
3 25 24 11
3 25 136 138
3 138 137 24
3 136 137 138
3 25 139 140
3 26 141 143
3 143 142 25
3 141 142 143
3 26 144 145
3 146 12 147
3 27 148 150
3 148 12 149
3 148 149 150
3 27 4 12
3 13 151 153
3 151 27 152
3 151 152 153
3 28 27 13
3 28 4 27
3 28 26 4
3 154 26 155
3 156 155 28
3 154 155 156
3 158 157 26
3 160 159 5
