ply
format ascii 1.0
element vertex 802
property float x
property float y
property float z
element face 911
property list uchar int vertex_index
end_header
-44.161617 38.495037 28.215233
-43.842224 58.408619 10.793076
-45.80938 15.642223 38.344353
-54.872963 9.923958 33.226128
-52.793312 7.295448 42.946491
-45.883362 27.379391 24.821579
-52.695183 27.580383 16.441805
-48.528469 37.821651 20.01033
-42.081482 66.680679 -0.805864
-48.354313 55.360508 1.322517
-43.675068 48.884548 30.237331
-45.284904 48.864391 20.920286
-41.6082 59.112568 21.023319
-38.094154 68.501068 9.777433
-57.987541 11.998259 23.341564
-47.669502 17.256954 28.682213
-42.506912 26.667946 33.507336
-46.036957 14.600281 48.68655
-43.106026 38.031288 37.622181
-49.409645 47.099209 11.920856
-44.400543 32.815506 26.724035
-47.101212 32.743702 22.734703
-45.777702 38.280895 24.014053
-44.53743 64.397614 -5.60647
-41.60305 53.154545 30.569351
-42.973057 54.029758 25.913298
-36.492947 67.990753 14.899585
-49.898685 12.19409 35.809361
-51.014839 13.294201 30.943642
-46.306297 16.36227 33.39801
-44.041252 21.385822 31.13028
-43.366798 20.822346 35.900383
-42.60865 32.113388 40.830444
-44.717354 53.704258 16.180542
-46.963615 48.112423 16.336512
-46.557487 52.717724 11.311935
-59.535675 7.948544 30.331234
-53.696213 8.577162 38.084347
-49.334461 11.249023 40.793789
-48.776989 22.648693 22.346451
-52.091297 23.047775 17.849596
-49.269226 27.5868 20.735596
-51.680504 37.206009 16.016569
-42.99609 62.817432 5.027771
-45.976616 57.108318 5.771371
-45.373203 61.07983 0.033335
-44.296768 43.948593 29.401875
-45.105293 43.849968 24.90641
-44.424103 49.165791 25.56423
-43.726788 54.20525 21.102509
-42.50499 59.135349 15.97814
-39.906624 64.019257 15.587219
-41.183334 63.834835 10.336519
-39.863743 68.061081 4.446878
-54.807426 15.126228 21.190151
-56.343906 11.132677 28.338764
-52.712524 14.335526 26.115593
-49.909851 18.123791 24.063698
-45.876781 22.049164 26.679264
-43.528549 27.045326 28.988926
-43.011902 32.709377 31.015831
-51.974918 6.064852 47.689659
-49.092793 10.469025 45.829998
-45.876213 15.14904 43.508587
-43.828434 20.087105 46.356758
-43.487549 20.452229 41.017708
-42.456795 26.347042 38.4487
-42.655754 32.466141 35.731232
-43.512383 38.399227 32.750313
-43.630066 43.60321 34.104023
-42.260719 48.075932 34.930531
-39.196114 51.763477 35.073055
-36.869461 45.047024 43.954002
-46.769764 43.33984 20.593939
-49.362938 42.577019 16.402872
-52.017082 41.657551 12.356216
-48.967476 51.404285 6.790529
-51.607143 45.887249 7.933305
-44.165745 35.657261 27.510906
-45.087879 35.600082 25.443626
-44.81879 38.425407 26.078169
-47.668823 13.738049 37.065582
-47.994289 14.178722 34.596848
-45.963043 15.970592 35.839409
-44.569653 18.420578 34.637428
-44.403778 18.129902 37.11277
-44.288399 56.079258 13.553459
-45.523376 53.259029 13.724196
-45.175259 55.568981 11.037495
-55.241695 6.790335 39.036049
-53.218204 7.922209 40.518021
-51.466614 9.78027 39.455772
-51.159618 9.251759 41.933613
-47.170052 24.905613 23.661045
-48.858284 25.095448 21.554733
-47.49585 27.502716 22.790493
-47.85033 35.326279 21.473024
-48.807007 32.647568 20.765383
-49.525795 35.127991 19.501598
-50.132706 37.532467 18.018789
-42.568233 64.831818 2.101405
-44.14299 62.031765 2.46485
-43.769424 63.927128 -0.432486
-44.140717 46.492428 29.871544
-44.46521 46.58913 27.553211
-44.091034 49.098606 27.897488
-42.355316 56.581379 23.541901
-43.377388 54.209415 23.526958
-42.765476 56.732998 21.107021
-43.151634 56.68697 18.618406
-42.050323 59.228214 18.531637
-37.302677 68.365417 12.377981
-38.318207 66.129166 15.278785
-39.012711 66.329117 12.714499
-40.507294 64.03894 12.98862
-39.727898 66.290405 10.079214
-40.534515 66.022018 7.404638
-38.931141 68.398926 7.122625
-60.376976 10.769001 21.882847
-58.805092 12.272202 20.795876
-57.263859 13.788685 19.708382
-56.32885 13.519073 22.24893
-57.303123 8.964773 31.826483
-58.070614 9.577156 29.388403
-55.576313 10.560902 30.791458
-49.198589 15.17366 29.787886
-51.79747 13.836502 28.53339
-50.085155 15.671356 27.420261
-51.137257 16.133621 25.049072
-48.693436 17.706017 26.373852
-47.72422 19.947319 25.409561
-46.541939 19.557091 27.647196
-43.009186 23.913776 32.329765
-43.571995 24.166885 30.055792
-42.861206 26.854801 31.195305
-43.070202 29.833397 30.036579
-42.625893 29.697117 32.286942
-48.973675 10.053118 48.287571
-47.451378 12.431936 47.250237
-47.441952 12.746099 44.704849
-45.977646 14.911831 46.117935
-43.122982 23.009895 45.081306
-43.667656 20.294842 43.674423
-42.966537 23.197048 42.388062
-42.796932 23.343662 39.74498
-42.586319 26.199898 41.058758
-42.817841 35.110741 39.264626
-42.640793 32.308594 38.239441
-42.945824 35.316662 36.731476
-43.047287 35.474899 34.280357
-43.328819 38.246578 35.148106
-43.705513 41.083115 33.48296
-43.399887 40.861446 35.902725
-41.190857 47.50983 37.26799
-40.918446 50.01553 35.094734
-39.586899 49.31216 37.356575
-37.31559 42.429707 46.21315
-35.257385 43.860229 45.956062
-52.297344 25.303654 17.165951
-53.584839 23.116196 15.513807
-53.744057 25.272339 14.888427
-45.303925 46.388462 23.006201
-45.804459 43.637611 22.731026
-46.008068 46.113033 20.77494
-48.134834 47.630627 14.096
-48.151932 45.329601 16.395622
-49.47261 44.862797 14.260845
-50.766968 42.137928 14.351104
-50.778351 44.355816 12.18976
-47.203468 56.283733 3.446522
-47.483055 54.237087 6.248605
-48.672924 53.438511 4.079845
-44.958717 30.03447 25.83564
-46.400921 30.084534 23.834251
-45.599983 32.801086 24.70718
-46.333771 35.486412 23.44202
-47.03569 38.074512 22.000637
-43.31414 65.644989 -3.289547
-42.727375 67.160019 -6.070473
-42.834229 51.109608 30.477312
-43.420673 51.465809 28.140926
-42.406815 53.671238 28.260044
-41.809635 56.230175 25.916931
-41.067772 58.780399 23.440311
-36.233433 70.449692 9.429624
-37.127079 70.514999 6.807064
-35.084652 72.374512 6.461324
-59.632904 10.487963 24.415405
-52.354755 10.956934 34.542747
-52.964294 11.569172 32.107979
-50.380981 12.736376 33.364281
-48.500118 14.666256 32.174316
-46.870796 16.799911 31.01651
-45.615448 19.156197 29.915371
-44.961792 18.768959 32.240192
-43.573528 21.081505 33.470032
-42.737278 23.687149 34.703903
-42.767029 37.744431 40.157635
-42.961201 40.560135 38.376575
-40.151085 44.299572 41.734459
-45.071522 51.298946 18.642851
-46.001198 48.531445 18.616665
-45.819725 50.910992 16.260502
-46.807297 50.434177 13.90764
-47.982002 49.888538 11.613685
-56.570042 8.276031 34.241653
-55.882057 7.541298 36.642937
-54.245384 9.252262 35.654266
-51.858364 10.352129 36.990433
-49.557514 11.693993 38.286415
-47.496517 13.359543 39.581795
-50.637775 20.617325 20.891125
-50.442024 22.88271 20.130978
-50.616806 25.234894 19.395126
-51.057755 27.619617 18.621996
-48.086205 30.097828 21.844994
-49.885597 30.070854 19.825008
-43.411339 60.665577 7.937777
-44.822136 57.821033 8.238251
-44.482124 59.986118 5.367416
-45.684635 59.161755 2.907829
-46.907845 58.207714 0.615873
-45.00547 62.833981 -2.816698
-46.573528 59.980846 -2.208452
-44.255737 41.272995 28.846119
-44.705692 41.225151 26.635958
-44.630844 43.956905 27.128368
-44.81728 46.552967 25.265099
-44.785912 49.083706 23.237831
-43.832207 51.66605 25.787817
-44.168556 51.699535 23.417686
-44.545696 51.570858 21.03335
-44.139118 54.028973 18.648224
-43.628643 56.460552 16.091957
-43.077435 58.854069 13.387161
-40.778748 61.602184 18.365553
-41.285191 61.67371 15.816801
-41.839428 61.528263 13.206504
-42.530552 61.185421 10.566566
-42.003021 63.422787 7.668139
-41.478409 65.533157 4.730352
-40.916641 67.488083 1.789378
-39.125095 69.931793 1.497
-53.557083 16.875591 20.209593
-60.344162 8.492308 27.895027
-58.854935 10.089376 26.919188
-57.156387 11.616274 25.857365
-53.684464 12.157114 29.67491
-54.502205 12.691345 27.229166
-55.394478 13.149979 24.75679
-53.730179 14.770458 23.67207
-52.314064 16.540558 22.651073
-51.262207 18.491333 21.723028
-49.115013 20.306595 23.168797
-47.222061 22.365585 24.516792
-45.675499 24.679165 25.752028
-44.80685 21.715889 28.873226
-44.461372 24.428082 27.871262
-44.540298 27.224232 26.873974
-43.839703 29.949165 27.892181
-43.543011 32.783993 28.819757
-43.56126 35.65274 29.667118
-52.392204 6.685724 45.348289
-50.379143 7.724983 49.192879
-50.663132 8.262409 46.840553
-50.905972 8.756189 44.405937
-49.194752 10.851099 43.317719
-47.437584 13.03849 42.135895
-45.799194 15.376507 40.906685
-44.84705 16.898727 50.139301
-43.900974 19.758377 49.01556
-44.815273 17.280567 47.561008
-44.686279 17.528641 44.919975
-44.528351 17.714497 42.273582
-44.411263 17.900677 39.662632
-43.362015 20.616367 38.419674
-42.692841 23.49844 37.178299
-42.400375 26.497818 35.927216
-42.496456 29.254459 39.679001
-42.431122 29.407047 37.115845
-42.44239 29.552551 34.648178
-42.746162 32.600296 33.320358
-43.218269 35.589191 31.923361
-43.755405 38.484909 30.438101
-43.95715 41.223343 31.128738
-43.997681 43.827271 31.728033
-43.736717 46.270679 32.219566
-43.167004 45.93771 34.593643
-43.08392 48.537762 32.583099
-42.007507 50.618763 32.796902
-40.529076 52.509403 32.842247
-38.781815 43.469391 44.027916
-38.436874 46.025928 41.814873
-34.722916 46.462223 43.638969
-45.392853 41.081993 24.492922
-46.363071 40.856388 22.404795
-47.605972 40.567741 20.353998
-46.966095 45.751842 18.570513
-47.983536 42.980125 18.486105
-49.047726 40.234367 18.322632
-50.55574 39.865948 16.300865
-51.956085 39.459473 14.296697
-46.269348 54.950336 8.586231
-47.749825 52.096714 8.984447
-49.224644 49.284016 9.417517
-50.036903 50.644154 4.786724
-50.367386 48.621967 7.368483
-50.628868 46.520084 9.849302
-51.886627 43.801987 10.222967
-53.005758 7.608828 41.732256
-53.930173 6.98322 40.968739
-53.717727 6.66984 42.182974
-46.744168 13.516109 47.968393
-47.426609 12.232446 48.484428
-46.719398 13.316618 49.202585
-42.914142 24.514118 44.408855
-42.932917 24.377085 45.765296
-42.83592 24.607695 43.062233
-43.044759 23.103471 43.734684
-42.914142 24.514118 44.408855
-42.645811 26.109119 42.397581
-42.776428 24.698473 41.72341
-42.83592 24.607695 43.062233
-40.544832 47.172134 38.420761
-41.278881 46.237324 38.321079
-39.742854 48.073299 38.465053
-40.388878 48.410995 37.312282
-40.544832 47.172134 38.420761
-34.451971 43.152614 46.87792
-35.529857 42.503021 47.104602
-41.725283 68.474755 -6.248483
-42.105318 67.750336 -4.86528
-41.07287 57.236119 25.848868
-41.426195 55.963082 27.075335
-40.701938 58.51123 24.610557
-41.438704 57.505287 24.678621
-41.07287 57.236119 25.848868
-35.182957 71.307449 9.243123
-35.793665 70.30172 10.711664
-34.608566 72.269859 7.758973
-35.659042 71.412102 7.945474
-35.182957 71.307449 9.243123
-60.377819 9.699905 24.919447
-60.739136 9.846325 23.66919
-42.516285 37.551283 41.444857
-42.677578 36.290031 41.009703
-42.555166 38.954828 40.521814
-42.516285 37.551283 41.444857
-40.256847 42.988793 42.788496
-40.811538 43.325359 41.577154
-57.241034 7.414599 34.675907
-57.644718 7.785128 33.487898
-50.22842 31.291325 19.294077
-49.346302 31.359211 20.295195
-49.689125 32.579681 19.764264
-50.760265 30.031734 18.78592
-50.22842 31.291325 19.294077
-52.18606 35.905386 15.746793
-51.440815 36.048754 16.759813
-52.332409 37.017372 15.018518
-52.18606 35.905386 15.746793
-47.089213 59.37125 -3.203724
-46.370146 60.778755 -3.600169
-47.289307 58.562149 -1.828151
-47.089213 59.37125 -3.203724
-37.029016 66.839119 16.325578
-36.047277 67.687187 16.114616
-39.599247 63.891409 16.846182
-38.805039 64.946364 16.691965
-39.112415 65.074211 15.433002
-40.342686 62.810721 16.976386
-40.035309 62.682873 18.235349
-39.599247 63.891409 16.846182
-37.604016 70.429977 5.47959
-36.601044 71.439591 5.320456
-38.696508 70.776794 0.041779
-38.128563 71.025841 1.348047
-39.695625 69.598808 0.187888
-38.696508 70.776794 0.041779
-55.348024 15.257488 19.930578
-56.57624 14.588717 19.189694
-56.035642 14.457456 20.449267
-54.182254 16.000909 20.699872
-54.722853 16.132169 19.440299
-55.348024 15.257488 19.930578
-59.939918 8.220426 29.11313
-60.929716 7.631195 28.326741
-60.525472 7.359313 29.544844
-52.730738 5.320585 46.89399
-52.420651 4.943856 48.014129
-52.183561 6.375288 46.518974
-52.93938 5.63102 45.723304
-52.730738 5.320585 46.89399
-49.577534 8.635329 49.914234
-50.187801 7.41013 50.302321
-44.334856 18.068368 50.862114
-44.781942 16.607899 51.361278
-43.864704 19.922741 47.686159
-43.54873 21.237257 48.399985
-43.512461 21.401621 47.070583
-42.552553 30.683923 40.254722
-42.523222 29.161551 40.999684
-42.579319 30.591015 41.575405
-43.036592 41.923086 37.449438
-42.67853 41.717493 38.672613
-42.713862 47.006821 34.762087
-42.773802 45.720627 35.789062
-42.32066 46.789738 35.957507
-38.952382 52.989185 33.891752
-39.618863 53.362148 32.776348
-39.862595 52.13644 33.957651
-33.581314 47.124855 43.383846
-33.87579 45.815506 44.551986
-52.873026 22.029059 17.007118
-52.141031 21.954062 18.202182
-54.244622 22.074821 14.639527
-54.184816 23.083931 14.346575
-52.539265 40.328843 12.349995
-52.508766 39.229804 13.320235
-51.986584 40.558512 13.326456
-50.406757 50.23198 3.910861
-49.850876 51.603878 3.463504
-50.987265 47.254608 7.650894
-50.795997 48.260883 6.44701
-51.415876 46.893524 6.729421
-41.322902 54.425266 29.401544
-40.806215 54.082859 30.533387
-54.941919 6.417283 40.227752
-55.798822 5.857787 39.420463
-54.22995 7.356272 39.777035
-54.941919 6.417283 40.227752
-53.930173 6.98322 40.968739
-50.048519 33.819893 19.132372
-49.689125 32.579681 19.764264
-49.166401 33.88778 20.133491
-50.363461 35.009745 18.502327
-50.048519 33.819893 19.132372
-50.666916 36.211983 17.760922
-50.363461 35.009745 18.502327
-49.829251 36.330229 18.760193
-50.906605 37.369238 17.017679
-51.440815 36.048754 16.759813
-50.666916 36.211983 17.760922
-45.352097 62.987139 -5.299178
-45.093323 63.682974 -6.651498
-60.716599 10.851093 20.612285
-61.43038 10.072724 21.147663
-59.930656 11.602693 20.0688
-60.716599 10.851093 20.612285
-59.591034 11.520601 21.339362
-59.188019 12.352364 19.518686
-59.930656 11.602693 20.0688
-58.034475 13.030444 20.252129
-58.417402 13.110605 18.974939
-59.188019 12.352364 19.518686
-51.734178 5.730047 48.809164
-52.420651 4.943856 48.014129
-48.187758 11.043036 49.003096
-48.8748 9.799397 49.46158
-48.212526 11.242527 47.768904
-48.187758 11.043036 49.003096
-47.426609 12.232446 48.484428
-43.159734 22.863016 46.432857
-42.932917 24.377085 45.765296
-43.475708 21.5485 45.719032
-43.512461 21.401621 47.070583
-43.159734 22.863016 46.432857
-41.785729 46.506687 37.126236
-41.278881 46.237324 38.321079
-41.725788 47.792881 36.09926
-42.32066 46.789738 35.957507
-41.785729 46.506687 37.126236
-36.55896 41.78776 47.233147
-37.536366 41.061178 47.32217
-36.286487 43.144968 46.084606
-36.55896 41.78776 47.233147
-35.529857 42.503021 47.104602
-54.264426 24.162002 14.033885
-54.184816 23.083931 14.346575
-53.664448 24.194267 15.201117
-51.887655 45.539589 7.084794
-51.415876 46.893524 6.729421
-52.111361 44.537771 8.175931
-51.887655 45.539589 7.084794
-53.429798 6.302447 43.363875
-53.717727 6.66984 42.182974
-42.398701 66.99282 -3.474818
-42.697811 66.162834 -2.047706
-41.782371 67.510666 -2.232976
-43.020758 66.402504 -4.68001
-42.398701 66.99282 -3.474818
-42.105318 67.750336 -4.86528
-42.344761 67.802323 -7.403349
-41.725283 68.474755 -6.248483
-43.325773 66.451493 -7.183524
-42.344761 67.802323 -7.403349
-44.230801 65.07029 -6.951523
-43.632402 65.778817 -5.838471
-43.325773 66.451493 -7.183524
-44.786693 64.35565 -7.996551
-45.093323 63.682974 -6.651498
-44.230801 65.07029 -6.951523
-41.724785 54.683613 28.246891
-42.004933 53.412892 29.414698
-41.322902 54.425266 29.401544
-42.108225 54.950707 27.088487
-41.724785 54.683613 28.246891
-41.426195 55.963082 27.075335
-35.464739 68.811836 14.690963
-36.047277 67.687187 16.114616
-35.923422 69.07225 13.446644
-35.464739 68.811836 14.690963
-34.895214 69.893333 13.238022
-36.328287 69.259582 12.185842
-36.897812 68.178085 13.638783
-35.923422 69.07225 13.446644
-36.768055 69.407555 10.903803
-36.328287 69.259582 12.185842
-35.793665 70.30172 10.711664
-35.57983 72.369347 5.147586
-36.601044 71.439591 5.320456
-36.105866 71.444755 6.634194
-33.945106 73.202484 6.286662
-34.608566 72.269859 7.758973
-34.454611 73.260514 4.980943
-33.945106 73.202484 6.286662
-34.949789 73.255348 3.667204
-35.57983 72.369347 5.147586
-34.454611 73.260514 4.980943
-61.111171 9.986844 22.402911
-61.43038 10.072724 21.147663
-60.00494 10.628482 23.149126
-61.111171 9.986844 22.402911
-60.739136 9.846325 23.66919
-46.011692 14.372954 49.918982
-46.719398 13.316618 49.202585
-42.547193 31.979585 42.156593
-42.579319 30.591015 41.575405
-42.598388 33.47451 41.346108
-42.547193 31.979585 42.156593
-42.702984 34.973186 40.563198
-42.713245 33.612065 40.047535
-42.598388 33.47451 41.346108
-42.792435 36.427586 39.71113
-42.702984 34.973186 40.563198
-42.677578 36.290031 41.009703
-42.652253 40.36268 39.631284
-42.864115 39.152283 39.267105
-42.555166 38.954828 40.521814
-42.67853 41.717493 38.672613
-42.652253 40.36268 39.631284
-40.758995 44.632194 40.554313
-40.811538 43.325359 41.577154
-40.024946 45.567005 40.653996
-40.758995 44.632194 40.554313
-53.355969 27.509521 15.335199
-52.925697 28.711018 16.028219
-49.00958 53.962055 1.7314
-48.807474 54.857861 0.391806
-60.085054 7.071402 30.737085
-60.525472 7.359313 29.544844
-59.127535 7.621385 31.532688
-60.085054 7.071402 30.737085
-58.011259 8.129499 32.280313
-58.419399 8.456658 31.078858
-59.127535 7.621385 31.532688
-56.936583 8.620402 33.034068
-58.011259 8.129499 32.280313
-57.644718 7.785128 33.487898
-56.182608 6.272376 38.25106
-55.798822 5.857787 39.420463
-56.502789 6.647858 37.054505
-56.182608 6.272376 38.25106
-55.561876 7.165817 37.839493
-56.897041 7.047232 35.876549
-56.502789 6.647858 37.054505
-56.22605 7.908665 35.442295
-57.241034 7.414599 34.675907
-56.897041 7.047232 35.876549
-51.41427 20.738836 19.722946
-51.65488 19.703963 20.111457
-51.316395 21.871529 19.342873
-51.41427 20.738836 19.722946
-50.5399 21.750017 20.511052
-51.266661 22.965243 18.990287
-52.141031 21.954062 18.202182
-51.316395 21.871529 19.342873
-51.346344 28.806116 18.184414
-50.471676 28.845236 19.223502
-50.760265 30.031734 18.78592
-52.165058 28.786499 17.094318
-51.876469 27.6 17.5319
-51.346344 28.806116 18.184414
-52.925697 28.711018 16.028219
-52.165058 28.786499 17.094318
-45.586117 62.205323 -3.904292
-44.77145 63.615797 -4.211584
-45.352097 62.987139 -5.299178
-45.789499 61.407414 -2.512575
-45.586117 62.205323 -3.904292
-46.370146 60.778755 -3.600169
-47.456465 57.675583 -0.415989
-46.740687 59.09428 -0.796289
-47.289307 58.562149 -1.828151
-48.179699 56.25198 -0.062667
-47.631079 56.784111 0.969195
-47.456465 57.675583 -0.415989
-48.807474 54.857861 0.391806
-48.179699 56.25198 -0.062667
-40.285921 59.778553 23.324945
-40.701938 58.51123 24.610557
-40.642224 60.041149 22.136319
-40.285921 59.778553 23.324945
-40.912437 60.207234 20.927823
-41.337986 58.946483 22.231815
-40.642224 60.041149 22.136319
-37.941647 65.908325 16.515178
-37.029016 66.839119 16.325578
-37.405577 67.059959 15.089185
-37.941647 65.908325 16.515178
-38.805039 64.946364 16.691965
-40.497712 61.452041 19.59894
-40.035309 62.682873 18.235349
-41.193474 60.357376 19.694436
-40.912437 60.207234 20.927823
-40.497712 61.452041 19.59894
-38.506046 69.37194 5.637371
-38.02911 69.456963 6.964844
-37.604016 70.429977 5.47959
-38.972347 69.203018 4.299497
-39.397442 68.230004 5.784752
-38.506046 69.37194 5.637371
-38.603024 70.138374 2.824558
-38.128563 71.025841 1.348047
-39.494419 68.996437 2.971939
-38.972347 69.203018 4.299497
-38.603024 70.138374 2.824558
-40.591398 68.376953 0.334076
-40.020868 68.709938 1.643189
-39.695625 69.598808 0.187888
-41.173818 67.973251 -0.963545
-41.499061 67.084381 0.491757
-40.591398 68.376953 0.334076
-41.782371 67.510666 -2.232976
-41.173818 67.973251 -0.963545
-57.706507 13.867536 18.433003
-58.417402 13.110605 18.974939
-57.706507 13.867536 18.433003
-56.57624 14.588717 19.189694
-54.174481 16.997991 18.967315
-54.722853 16.132169 19.440299
-53.114534 17.833095 19.770691
-54.174481 16.997991 18.967315
-61.34502 7.852648 27.116439
-61.930574 6.991535 27.548153
-60.929716 7.631195 28.326741
-60.733448 8.702078 26.659258
-61.34502 7.852648 27.116439
-59.988834 9.500612 26.171338
-60.733448 8.702078 26.659258
-59.599548 9.290842 27.407107
-59.24392 10.28867 25.667296
-60.377819 9.699905 24.919447
-59.988834 9.500612 26.171338
-51.967096 18.640967 20.527408
-53.114534 17.833095 19.770691
-52.409645 17.683462 20.96631
-50.949991 19.554329 21.307077
-51.65488 19.703963 20.111457
-51.967096 18.640967 20.527408
-53.229244 5.997585 44.564774
-52.93938 5.63102 45.723304
-52.592758 6.990586 44.14739
-53.429798 6.302447 43.363875
-53.229244 5.997585 44.564774
-50.936291 6.560112 49.560774
-50.74495 6.245259 50.670215
-50.187801 7.41013 50.302321
-51.177031 6.894918 48.441269
-51.734178 5.730047 48.809164
-50.936291 6.560112 49.560774
-49.676409 8.88905 48.740225
-49.577534 8.635329 49.914234
-48.8748 9.799397 49.46158
-45.416739 15.522177 50.645357
-44.781942 16.607899 51.361278
-45.442003 15.749504 49.412926
-46.011692 14.372954 49.918982
-45.416739 15.522177 50.645357
-43.514148 21.001179 49.727888
-43.54873 21.237257 48.399985
-43.861818 19.498193 50.300244
-43.514148 21.001179 49.727888
-44.374012 18.328552 49.577431
-44.334856 18.068368 50.862114
-43.861818 19.498193 50.300244
-42.568154 27.63427 41.689562
-42.645811 26.109119 42.397581
-42.541387 27.727179 40.368879
-42.568154 27.63427 41.689562
-42.523222 29.161551 40.999684
-43.255935 42.073741 36.212513
-43.180544 40.710791 37.13965
-43.036592 41.923086 37.449438
-43.371025 43.444623 35.313162
-43.514977 42.232328 35.003374
-43.255935 42.073741 36.212513
-43.139494 44.611874 35.557972
-42.773802 45.720627 35.789062
-43.398535 44.77046 34.348833
-43.371025 43.444623 35.313162
-43.139494 44.611874 35.557972
-40.269228 53.760288 31.669835
-40.806215 54.082859 30.533387
-41.066063 52.831974 31.705799
-40.269228 53.760288 31.669835
-39.618863 53.362148 32.776348
-38.212359 41.618426 46.203972
-37.536366 41.061178 47.32217
-38.945471 42.138267 45.111355
-38.212359 41.618426 46.203972
-38.048703 42.949549 45.120533
-39.572212 42.573702 43.935225
-38.945471 42.138267 45.111355
-39.46645 43.884481 42.881187
-40.256847 42.988793 42.788496
-39.572212 42.573702 43.935225
-39.167841 46.430183 40.694203
-40.024946 45.567005 40.653996
-39.29398 45.16275 41.774666
-34.143024 44.514509 45.710533
-34.451971 43.152614 46.87792
-34.99015 45.161226 44.797516
-34.143024 44.514509 45.710533
-33.87579 45.815506 44.551986
-34.463482 47.715481 42.469812
-33.581314 47.124855 43.383846
-35.571649 47.01326 42.65065
-34.463482 47.715481 42.469812
-36.644922 46.305661 42.808166
-35.796188 45.754624 43.796486
-35.571649 47.01326 42.65065
-37.428629 46.795113 41.738602
-37.653168 45.536476 42.884438
-36.644922 46.305661 42.808166
-38.250783 47.264488 40.685936
-37.428629 46.795113 41.738602
-38.981751 47.668743 39.565265
-39.167841 46.430183 40.694203
-38.250783 47.264488 40.685936
-38.825796 48.907604 38.456787
-39.742854 48.073299 38.465053
-38.981751 47.668743 39.565265
-38.619022 50.121643 37.300884
-38.825796 48.907604 38.456787
-38.42363 51.347302 36.159124
-39.391507 50.537819 36.214815
-38.619022 50.121643 37.300884
-38.187286 52.551991 34.969753
-38.42363 51.347302 36.159124
-37.414802 52.135815 36.055822
-38.952382 52.989185 33.891752
-38.187286 52.551991 34.969753
-53.619797 22.063269 15.839223
-52.873026 22.029059 17.007118
-52.838068 23.081986 16.681701
-53.619797 22.063269 15.839223
-54.244622 22.074821 14.639527
-53.880405 26.3555 14.558509
-53.21962 26.426361 15.665116
-53.355969 27.509521 15.335199
-54.279087 25.187916 13.759665
-53.880405 26.3555 14.558509
-54.799456 24.077579 12.905123
-54.264426 24.162002 14.033885
-54.279087 25.187916 13.759665
-52.470199 38.144104 14.158582
-52.332409 37.017372 15.018518
-51.818295 38.332741 15.156633
-52.470199 38.144104 14.158582
-52.508766 39.229804 13.320235
-49.168886 53.001057 3.110064
-48.513618 54.39951 2.701181
-49.00958 53.962055 1.7314
-49.354914 52.041332 4.433285
-49.168886 53.001057 3.110064
-49.850876 51.603878 3.463504
-50.630756 49.271977 5.15613
-50.406757 50.23198 3.910861
-50.202145 49.63306 6.077604
-50.630756 49.271977 5.15613
-50.795997 48.260883 6.44701
-52.251103 43.49514 9.320762
-51.746885 44.844618 9.078136
-52.111361 44.537771 8.175931
-52.407295 42.461492 10.344565
-52.251103 43.49514 9.320762
-52.472522 41.389274 11.41119
-51.951854 42.729769 11.289592
-52.407295 42.461492 10.344565
-52.539265 40.328843 12.349995
-52.472522 41.389274 11.41119
3 0 80 78
3 2 83 81
3 2 85 83
3 1 88 86
3 4 309 311
3 309 90 310
3 309 310 311
3 4 92 90
3 5 95 93
3 7 98 96
3 7 99 98
3 8 102 100
3 10 105 103
3 12 108 106
3 12 110 108
3 13 113 111
3 13 115 113
3 13 117 115
3 14 119 118
3 14 121 119
3 3 124 122
3 15 127 125
3 15 129 127
3 15 131 129
3 16 134 132
3 16 136 134
3 17 312 314
3 312 138 313
3 312 313 314
3 17 140 138
3 315 141 316
3 317 143 318
3 319 318 141
3 317 318 319
3 320 145 321
3 322 321 143
3 320 321 322
3 18 148 146
3 18 150 148
3 18 152 150
3 323 153 324
3 325 155 326
3 327 326 153
3 325 326 327
3 328 157 329
3 6 160 158
3 11 163 161
3 19 166 164
3 19 168 166
3 9 171 169
3 20 174 172
3 22 175 79
3 22 176 175
3 330 178 331
3 24 181 179
3 332 182 333
3 334 183 335
3 336 335 182
3 334 335 336
3 337 184 338
3 339 186 340
3 341 340 184
3 339 340 341
3 342 187 343
3 27 190 188
3 29 191 82
3 29 192 191
3 29 194 192
3 31 195 84
3 31 196 195
3 344 197 345
3 347 346 197
3 348 199 349
3 33 202 200
3 35 203 87
3 35 204 203
3 350 205 351
3 37 206 89
3 37 207 206
3 37 208 207
3 38 209 91
3 38 210 209
3 39 212 211
3 41 213 94
3 41 214 213
3 21 215 173
3 352 216 353
3 354 353 97
3 352 353 354
3 356 355 216
3 42 357 358
3 42 359 360
3 43 219 217
3 45 220 101
3 45 221 220
3 23 222 177
3 361 223 362
3 364 363 223
3 46 226 224
3 48 227 104
3 48 228 227
3 25 229 180
3 49 230 107
3 49 231 230
3 49 232 231
3 50 233 109
3 50 234 233
3 26 365 366
3 51 367 369
3 369 368 112
3 367 368 369
3 51 370 372
3 370 235 371
3 370 371 372
3 51 236 235
3 52 237 114
3 52 238 237
3 52 239 238
3 53 240 116
3 53 241 240
3 374 373 185
3 375 242 376
3 378 377 242
3 54 379 381
3 381 380 120
3 379 380 381
3 54 382 384
3 382 243 383
3 382 383 384
3 36 385 387
3 385 244 386
3 385 386 387
3 55 245 123
3 55 246 245
3 28 247 189
3 56 248 126
3 56 249 248
3 56 250 249
3 57 251 128
3 57 252 251
3 57 253 252
3 58 254 130
3 58 255 254
3 30 256 193
3 59 257 133
3 59 258 257
3 59 259 258
3 60 260 135
3 60 261 260
3 61 388 389
3 61 390 392
3 390 262 391
3 390 391 392
3 393 263 394
3 62 264 137
3 62 265 264
3 62 266 265
3 63 267 139
3 63 268 267
3 395 269 396
3 64 397 399
3 397 270 398
3 397 398 399
3 64 271 270
3 64 272 271
3 65 273 142
3 65 274 273
3 65 275 274
3 66 276 144
3 66 277 276
3 32 400 402
3 400 278 401
3 400 401 402
3 67 279 147
3 67 280 279
3 67 281 280
3 68 282 149
3 68 283 282
3 68 284 283
3 69 285 151
3 69 286 285
3 404 403 198
3 70 405 407
3 405 287 406
3 405 406 407
3 70 288 287
3 70 289 288
3 71 290 154
3 71 408 410
3 410 409 290
3 408 409 410
3 72 291 156
3 72 292 291
3 411 293 412
3 40 413 414
3 416 415 159
3 47 294 225
3 73 295 162
3 73 296 295
3 34 297 201
3 74 298 165
3 74 299 298
3 74 300 299
3 75 301 167
3 75 417 419
3 419 418 301
3 417 418 419
3 44 302 218
3 76 303 170
3 76 304 303
3 420 305 421
3 77 422 424
3 422 306 423
3 422 423 424
3 77 307 306
3 77 308 307
3 78 79 20
3 80 79 78
3 80 22 79
3 426 425 24
3 81 82 27
3 83 82 81
3 83 29 82
3 83 84 29
3 85 84 83
3 85 31 84
3 86 87 33
3 88 87 86
3 88 35 87
3 427 89 428
3 90 429 431
3 429 89 430
3 429 430 431
3 90 37 89
3 90 91 37
3 92 91 90
3 92 38 91
3 93 94 39
3 95 94 93
3 95 41 94
3 96 97 21
3 98 97 96
3 98 432 434
3 434 433 97
3 432 433 434
3 98 435 436
3 99 437 439
3 439 438 98
3 437 438 439
3 99 440 442
3 440 42 441
3 440 441 442
3 100 101 43
3 102 101 100
3 102 45 101
3 444 443 23
3 103 104 46
3 105 104 103
3 105 48 104
3 106 107 25
3 108 107 106
3 108 49 107
3 108 109 49
3 110 109 108
3 110 50 109
3 111 112 26
3 113 112 111
3 113 51 112
3 113 114 51
3 115 114 113
3 115 52 114
3 115 116 52
3 117 116 115
3 117 53 116
3 118 445 446
3 119 447 449
3 449 448 118
3 447 448 449
3 119 450 451
3 119 452 454
3 452 120 453
3 452 453 454
3 121 120 119
3 121 54 120
3 122 123 36
3 124 123 122
3 124 55 123
3 125 126 28
3 127 126 125
3 127 56 126
3 127 128 56
3 129 128 127
3 129 57 128
3 129 130 57
3 131 130 129
3 131 58 130
3 132 133 30
3 134 133 132
3 134 59 133
3 134 135 59
3 136 135 134
3 136 60 135
3 455 61 456
3 457 137 458
3 138 459 461
3 459 137 460
3 459 460 461
3 138 62 137
3 138 139 62
3 140 139 138
3 140 63 139
3 141 462 463
3 141 464 466
3 464 64 465
3 464 465 466
3 141 142 64
3 143 142 141
3 143 65 142
3 143 144 65
3 145 144 143
3 145 66 144
3 146 147 32
3 148 147 146
3 148 67 147
3 148 149 67
3 150 149 148
3 150 68 149
3 150 151 68
3 152 151 150
3 152 69 151
3 153 467 468
3 153 469 471
3 469 70 470
3 469 470 471
3 153 154 70
3 155 154 153
3 155 71 154
3 472 156 473
3 157 474 476
3 474 156 475
3 474 475 476
3 157 72 156
3 158 159 40
3 160 159 158
3 160 477 479
3 479 478 159
3 477 478 479
3 161 162 47
3 163 162 161
3 163 73 162
3 164 165 34
3 166 165 164
3 166 74 165
3 166 167 74
3 168 167 166
3 168 75 167
3 169 170 44
3 171 170 169
3 171 76 170
3 480 77 481
3 483 482 77
3 484 4 485
3 172 173 5
3 174 173 172
3 174 21 173
3 79 174 20
3 175 174 79
3 175 21 174
3 175 96 21
3 176 96 175
3 176 7 96
3 486 177 487
3 488 487 8
3 486 487 488
3 178 489 491
3 489 177 490
3 489 490 491
3 178 23 177
3 492 178 493
3 494 178 495
3 496 23 497
3 498 497 178
3 496 497 498
3 501 500 23
3 499 500 501
3 179 180 10
3 181 180 179
3 181 25 180
3 502 181 503
3 504 503 24
3 502 503 504
3 182 505 507
3 505 181 506
3 505 506 507
3 182 25 181
3 182 106 25
3 183 106 182
3 183 12 106
3 508 26 509
3 510 26 511
3 510 511 512
3 513 111 514
3 515 514 26
3 513 514 515
3 184 516 518
3 516 111 517
3 516 517 518
3 184 13 111
3 184 185 13
3 186 185 184
3 186 519 521
3 521 520 185
3 519 520 521
3 522 186 523
3 524 186 525
3 528 527 186
3 526 527 528
3 529 118 530
3 187 531 533
3 531 118 532
3 531 532 533
3 187 14 118
3 188 189 3
3 190 189 188
3 190 28 189
3 82 190 27
3 191 190 82
3 191 28 190
3 191 125 28
3 192 125 191
3 192 15 125
3 192 193 15
3 194 193 192
3 194 30 193
3 84 194 29
3 195 194 84
3 195 30 194
3 195 132 30
3 196 132 195
3 196 16 132
3 534 17 535
3 536 32 537
3 538 32 539
3 540 146 541
3 542 541 32
3 540 541 542
3 197 543 545
3 543 146 544
3 543 544 545
3 197 18 146
3 197 198 18
3 546 198 547
3 548 547 197
3 546 547 548
3 550 549 198
3 199 551 552
3 199 553 554
3 556 555 6
3 200 201 11
3 202 201 200
3 202 34 201
3 87 202 33
3 203 202 87
3 203 34 202
3 203 164 34
3 204 164 203
3 204 19 164
3 558 557 9
3 559 36 560
3 561 36 562
3 563 122 564
3 565 564 36
3 563 564 565
3 205 566 568
3 566 122 567
3 566 567 568
3 205 3 122
3 89 569 570
3 206 571 573
3 573 572 89
3 571 572 573
3 206 574 575
3 206 576 578
3 576 205 577
3 576 577 578
3 207 205 206
3 207 3 205
3 207 188 3
3 208 188 207
3 208 27 188
3 91 208 37
3 209 208 91
3 209 27 208
3 209 81 27
3 210 81 209
3 210 2 81
3 211 579 580
3 212 581 583
3 583 582 211
3 581 582 583
3 212 584 586
3 584 40 585
3 584 585 586
3 94 212 39
3 213 212 94
3 213 40 212
3 213 158 40
3 214 158 213
3 214 6 158
3 173 95 5
3 215 95 173
3 215 41 95
3 97 215 21
3 216 215 97
3 216 41 215
3 216 214 41
3 587 214 588
3 589 588 216
3 587 588 589
3 590 6 591
3 592 591 214
3 590 591 592
3 594 593 6
3 217 218 1
3 219 218 217
3 219 44 218
3 101 219 43
3 220 219 101
3 220 44 219
3 220 169 44
3 221 169 220
3 221 9 169
3 177 102 8
3 222 102 177
3 222 45 102
3 595 222 596
3 597 596 23
3 595 596 597
3 223 598 600
3 598 222 599
3 598 599 600
3 223 45 222
3 223 221 45
3 601 221 602
3 603 602 223
3 601 602 603
3 604 9 605
3 606 605 221
3 604 605 606
3 608 607 9
3 224 225 0
3 226 225 224
3 226 47 225
3 104 226 46
3 227 226 104
3 227 47 226
3 227 161 47
3 228 161 227
3 228 11 161
3 180 105 10
3 229 105 180
3 229 48 105
3 107 229 25
3 230 229 107
3 230 48 229
3 230 228 48
3 231 228 230
3 231 11 228
3 231 200 11
3 232 200 231
3 232 33 200
3 109 232 49
3 233 232 109
3 233 33 232
3 233 86 33
3 234 86 233
3 234 1 86
3 609 183 610
3 611 183 612
3 613 12 614
3 615 614 183
3 613 614 615
3 112 616 618
3 618 617 26
3 616 617 618
3 620 619 112
3 235 621 622
3 235 623 625
3 623 12 624
3 623 624 625
3 235 110 12
3 236 110 235
3 236 50 110
3 114 236 51
3 237 236 114
3 237 50 236
3 237 234 50
3 238 234 237
3 238 1 234
3 238 217 1
3 239 217 238
3 239 43 217
3 116 239 52
3 240 239 116
3 240 43 239
3 240 100 43
3 241 100 240
3 241 8 100
3 185 117 13
3 626 117 627
3 628 627 185
3 626 627 628
3 629 53 630
3 631 630 117
3 629 630 631
3 242 632 633
3 242 634 636
3 634 53 635
3 634 635 636
3 242 241 53
3 637 241 638
3 639 638 242
3 637 638 639
3 640 8 641
3 642 641 241
3 640 641 642
3 644 643 8
3 120 645 646
3 648 647 120
3 243 649 650
3 243 651 652
3 244 653 655
3 653 654 655
3 244 656 657
3 123 244 36
3 245 244 123
3 245 658 660
3 660 659 244
3 658 659 660
3 245 661 663
3 661 187 662
3 661 662 663
3 246 187 245
3 246 14 187
3 189 124 3
3 247 124 189
3 247 55 124
3 126 247 28
3 248 247 126
3 248 55 247
3 248 246 55
3 249 246 248
3 249 14 246
3 249 121 14
3 250 121 249
3 250 54 121
3 128 250 56
3 251 250 128
3 251 54 250
3 251 243 54
3 252 243 251
3 252 664 666
3 666 665 243
3 664 665 666
3 252 667 669
3 667 211 668
3 667 668 669
3 253 211 252
3 253 39 211
3 130 253 57
3 254 253 130
3 254 39 253
3 254 93 39
3 255 93 254
3 255 5 93
3 193 131 15
3 256 131 193
3 256 58 131
3 133 256 30
3 257 256 133
3 257 58 256
3 257 255 58
3 258 255 257
3 258 5 255
3 258 172 5
3 259 172 258
3 259 20 172
3 135 259 59
3 260 259 135
3 260 20 259
3 260 78 20
3 261 78 260
3 261 0 78
3 262 670 671
3 262 672 674
3 672 4 673
3 672 673 674
3 263 675 677
3 675 676 677
3 263 678 680
3 678 61 679
3 678 679 680
3 137 681 683
3 681 263 682
3 681 682 683
3 264 263 137
3 264 61 263
3 264 262 61
3 265 262 264
3 265 4 262
3 265 92 4
3 266 92 265
3 266 38 92
3 139 266 62
3 267 266 139
3 267 38 266
3 267 210 38
3 268 210 267
3 268 2 210
3 269 684 685
3 269 686 688
3 686 17 687
3 686 687 688
3 270 689 690
3 270 691 692
3 270 693 695
3 693 269 694
3 693 694 695
3 271 269 270
3 271 17 269
3 271 140 17
3 272 140 271
3 272 63 140
3 142 272 64
3 273 272 142
3 273 63 272
3 273 268 63
3 274 268 273
3 274 2 268
3 274 85 2
3 275 85 274
3 275 31 85
3 144 275 65
3 276 275 144
3 276 31 275
3 276 196 31
3 277 196 276
3 277 16 196
3 696 145 697
3 278 698 700
3 698 145 699
3 698 699 700
3 278 66 145
3 147 278 32
3 279 278 147
3 279 66 278
3 279 277 66
3 280 277 279
3 280 16 277
3 280 136 16
3 281 136 280
3 281 60 136
3 149 281 67
3 282 281 149
3 282 60 281
3 282 261 60
3 283 261 282
3 283 0 261
3 283 224 0
3 284 224 283
3 284 46 224
3 151 284 68
3 285 284 151
3 285 46 284
3 285 103 46
3 286 103 285
3 286 10 103
3 198 152 18
3 701 152 702
3 703 702 198
3 701 702 703
3 704 69 705
3 706 705 152
3 704 705 706
3 287 707 708
3 287 709 711
3 709 69 710
3 709 710 711
3 287 286 69
3 288 286 287
3 288 10 286
3 288 179 10
3 289 179 288
3 289 24 179
3 154 289 70
3 290 289 154
3 290 24 289
3 290 712 714
3 714 713 24
3 712 713 714
3 716 715 290
3 156 717 718
3 291 719 721
3 721 720 156
3 719 720 721
3 291 722 723
3 291 724 726
3 724 199 725
3 724 725 726
3 292 199 291
3 292 727 729
3 729 728 199
3 727 728 729
3 730 157 731
3 293 732 734
3 732 157 733
3 732 733 734
3 293 72 157
3 735 293 736
3 737 293 738
3 739 72 740
3 741 740 293
3 739 740 741
3 742 292 743
3 744 743 72
3 742 743 744
3 745 292 746
3 749 748 292
3 747 748 749
3 750 155 751
3 750 751 752
3 753 155 754
3 755 71 756
3 757 756 155
3 755 756 757
3 758 71 759
3 758 759 760
3 762 761 71
3 159 763 765
3 765 764 40
3 763 764 765
3 767 766 159
3 768 160 769
3 770 769 6
3 768 769 770
3 771 160 772
3 775 774 160
3 773 774 775
3 225 80 0
3 294 80 225
3 294 22 80
3 162 294 47
3 295 294 162
3 295 22 294
3 295 176 22
3 296 176 295
3 296 7 176
3 201 163 11
3 297 163 201
3 297 73 163
3 165 297 34
3 298 297 165
3 298 73 297
3 298 296 73
3 299 296 298
3 299 7 296
3 299 99 7
3 300 99 299
3 300 42 99
3 167 300 74
3 301 300 167
3 301 42 300
3 301 776 778
3 778 777 42
3 776 777 778
3 780 779 301
3 218 88 1
3 302 88 218
3 302 35 88
3 170 302 44
3 303 302 170
3 303 35 302
3 303 204 35
3 304 204 303
3 304 19 204
3 781 171 782
3 783 782 9
3 781 782 783
3 305 784 786
3 784 171 785
3 784 785 786
3 305 76 171
3 787 305 788
3 306 789 791
3 789 305 790
3 789 790 791
3 306 76 305
3 306 304 76
3 307 304 306
3 307 19 304
3 307 168 19
3 308 168 307
3 308 75 168
3 792 308 793
3 794 793 77
3 792 793 794
3 795 308 796
3 797 75 798
3 799 798 308
3 797 798 799
3 801 800 75
