ply
format ascii 1.0
element vertex 65
property float x
property float y
property float z
element face 47
property list uchar int vertex_index
end_header
-3.710997 -39.185684 33.964436
-3.700369 -32.270897 37.673256
-4.132254 -31.618135 35.858734
-3.72658 -35.713852 35.874298
-3.315752 -36.286182 37.703545
-3.305017 -39.642006 35.834038
-3.66271 -42.64967 31.944872
-4.060537 -28.099115 37.587822
-3.718788 -37.449768 34.919367
-3.944439 -35.446316 34.949797
-3.936647 -37.182232 33.994866
-3.483107 -41.101887 33.908522
-3.280117 -41.330048 34.843323
-3.508007 -39.413845 34.899237
-3.654083 -30.578527 38.516857
-3.834167 -28.492636 38.47414
-3.880453 -30.185006 37.630539
-3.480455 -32.624716 38.562865
-3.654083 -30.578527 38.516857
-3.089742 -36.595331 38.601198
-3.100723 -38.206188 37.695263
-3.418308 -44.513609 31.857363
-3.616442 -44.356627 30.883315
-4.147276 -33.398457 34.942014
-4.377203 -31.315734 34.938202
-3.929417 -33.665993 35.866516
-4.147276 -33.398457 34.942014
-3.944439 -35.446316 34.949797
-3.095356 -39.8841 36.760509
-3.100723 -38.206188 37.695263
-3.310384 -37.964094 36.768791
-3.076341 -41.51635 35.79306
-3.095356 -39.8841 36.760509
-3.076341 -41.51635 35.79306
-3.280117 -41.330048 34.843323
-3.934992 -38.964355 33.023066
-3.936647 -37.182232 33.994866
-3.910849 -40.696348 32.013284
-3.686853 -40.917677 32.954654
-3.934992 -38.964355 33.023066
-3.887991 -42.459024 30.98476
-3.910849 -40.696348 32.013284
-3.616442 -44.356627 30.883315
-3.887991 -42.459024 30.98476
-4.334614 -29.497664 35.817152
-4.377203 -31.315734 34.938202
-4.298756 -27.738154 36.681696
-4.334614 -29.497664 35.817152
-4.096395 -29.858625 36.723278
-4.23621 -25.94942 37.513024
-4.298756 -27.738154 36.681696
-3.993194 -26.376274 38.402594
-4.23621 -25.94942 37.513024
-3.993194 -26.376274 38.402594
-3.834167 -28.492636 38.47414
-3.288147 -34.632358 38.578009
-3.480455 -32.624716 38.562865
-3.508061 -34.278539 37.688401
-3.288147 -34.632358 38.578009
-3.089742 -36.595331 38.601198
-3.458964 -42.83388 32.89874
-3.483107 -41.101887 33.908522
-3.686853 -40.917677 32.954654
-3.458964 -42.83388 32.89874
-3.418308 -44.513609 31.857363
3 0 8 10
3 8 3 9
3 8 9 10
3 0 5 3
3 0 11 13
3 13 12 5
3 11 12 13
3 1 7 2
3 1 14 16
3 16 15 7
3 14 15 16
3 1 17 18
3 20 19 4
3 22 21 6
3 23 2 24
3 3 25 27
3 25 2 26
3 25 26 27
3 3 1 2
3 3 4 1
3 5 4 3
3 5 28 30
3 30 29 4
3 28 29 30
3 5 31 32
3 34 33 5
3 35 0 36
3 37 6 38
3 39 38 0
3 37 38 39
3 40 6 41
3 43 42 6
3 2 44 45
3 7 46 48
3 48 47 2
3 46 47 48
3 7 49 50
3 7 51 52
3 54 53 7
3 4 55 57
3 57 56 1
3 55 56 57
3 59 58 4
3 6 60 62
3 62 61 0
3 60 61 62
3 64 63 6
