ply
format ascii 1.0
element vertex 1027
property float x
property float y
property float z
element face 1168
property list uchar int vertex_index
end_header
-65.149277 5.467525 10.534558
-43.123726 27.043858 7.050142
-54.909988 14.855797 5.535781
-63.238308 5.367624 27.159096
-52.671986 18.7906 19.331789
-34.522377 37.264011 -2.094172
-60.368114 9.492535 6.872948
-34.106476 25.127125 -14.480883
-41.660862 10.799957 9.738235
-37.113029 15.812687 7.141715
-34.674217 20.235401 1.408885
-37.709122 33.209209 4.305387
-47.730629 6.120173 9.677609
-49.265808 20.708775 6.645533
-65.692001 5.960155 17.65024
-60.766991 12.350153 13.312594
-56.853912 18.741833 9.837709
-51.546059 33.316715 6.653518
-46.530266 40.43832 2.851989
-42.023445 45.951588 -3.46904
-39.186356 47.453564 -11.337683
-33.414673 37.772118 -10.162464
-41.352806 -13.170429 -2.149315
-38.302097 5.764004 -8.492546
-34.252434 23.226307 -6.416525
-61.393402 4.200434 7.93389
-63.099922 7.225422 8.643503
-32.675049 31.607906 -15.299158
-42.191345 19.181519 8.387702
-39.1507 13.304451 8.832346
-39.390617 22.097881 7.773809
-37.004948 24.912209 6.257298
-40.223915 30.253292 6.158838
-54.877357 8.570564 6.561351
-51.097076 3.948736 9.224545
-51.668182 11.048462 6.942707
-48.456524 13.629211 7.655419
-52.175598 17.73745 5.964091
-64.777206 5.884729 22.372076
-62.483784 9.376448 20.412479
-61.122734 8.911848 25.423489
-56.906548 15.538898 16.139454
-58.443008 15.377499 11.301992
-55.267059 19.087677 14.437245
-50.365776 42.654003 3.085891
-44.088379 43.540329 -0.000153
-46.305653 48.686367 -4.32094
-37.905315 3.570257 -4.238523
-33.997913 29.385067 0.493006
-34.275448 21.919285 -2.365231
-33.424889 30.711426 -3.363897
-33.223221 31.393661 -7.450052
-33.84021 37.954807 -6.100521
-58.132767 6.246677 6.858475
-57.597343 12.073919 5.778817
-36.348984 17.669495 -15.128487
-41.188251 2.223764 11.152365
-39.116478 4.292126 9.594889
-37.593884 6.445887 7.345142
-36.587303 8.59824 4.457108
-36.045307 10.649652 1.012584
-35.609276 18.171307 4.642209
-35.176228 27.408627 3.791076
-35.775784 35.633839 1.489461
-44.557041 8.398849 9.955825
-45.26125 16.334393 8.261321
-46.201008 23.815891 7.127885
-65.793762 5.775682 13.420682
-63.649513 8.834908 11.338337
-63.393623 9.378967 15.528975
-59.570946 12.432526 18.241495
-67.447891 1.834412 15.553247
-61.170998 11.489435 9.226925
-58.805042 14.319645 7.512985
-56.779884 17.411667 6.540452
-54.784794 23.051666 13.179343
-55.869778 22.354137 8.960024
-54.90184 20.642029 6.29235
-52.819889 23.917892 6.440952
-50.347218 27.259296 6.552577
-47.548584 30.698448 6.267757
-49.112354 36.952148 5.054951
-44.632843 34.160954 5.342397
-41.851597 37.447269 3.613961
-39.458733 40.274334 1.012075
-37.64732 42.31488 -2.373606
-40.43433 47.333546 -7.359762
-36.437477 43.284275 -6.26594
-35.601112 43.096081 -10.291086
-34.757515 41.909412 -14.113752
-32.924976 36.957558 -13.954657
-35.909824 12.545357 -2.853071
-36.07354 14.302223 -6.951347
-36.32341 15.989819 -11.089964
-34.306053 24.249287 -10.504208
-33.048817 31.594246 -11.486715
-64.931778 4.271332 9.994022
-63.778267 4.97567 8.964359
-64.287994 6.248499 9.637679
-65.786987 3.915827 11.183886
-32.401237 34.12011 -16.117743
-42.589188 23.194332 7.735015
-40.748211 20.639942 8.18565
-41.113026 24.74334 7.507874
-39.713223 26.278549 7.05985
-41.638947 28.664017 6.718205
-54.911606 11.773247 5.834189
-53.270355 9.795511 6.684449
-53.420063 13.102585 5.980471
-51.915268 14.455036 6.263003
-53.559418 16.287224 5.689037
-64.070374 5.691893 24.77351
-63.099842 7.521135 23.887291
-62.345879 7.212988 26.337851
-54.791878 17.120392 17.725037
-55.931351 17.249828 15.226385
-54.042759 18.999424 16.891369
-47.260792 47.41795 -2.330786
-39.748833 -5.487418 -3.573498
-38.735764 -1.675419 -2.891964
-38.979027 -0.512676 -5.039742
-34.08519 33.530235 -0.583759
-33.646034 30.132946 -1.386335
-33.706638 34.155815 -2.509792
-33.453213 34.576267 -4.518456
-34.126072 37.728031 -4.068377
-60.944099 6.898035 7.211737
-59.774231 5.178928 7.303212
-59.428078 8.0196 6.562122
-57.909164 9.217438 6.109053
-58.971153 10.750315 6.222151
-35.159904 21.442097 -14.623587
-36.181351 18.504318 -17.084316
-34.938103 22.069637 -16.566959
-41.43692 6.512836 10.446233
-40.083454 3.243887 10.462561
-40.223137 7.643358 9.934931
-38.068508 14.567142 8.088476
-38.167961 9.963318 8.366894
-37.334507 11.127693 7.306958
-37.029278 7.528912 5.976725
-36.632206 12.273441 6.065618
-36.060909 13.383873 4.649148
-36.291351 17.02066 5.991165
-37.232796 29.191891 5.438393
-36.012989 26.213726 5.139815
-36.196686 30.507465 4.256063
-35.321831 31.687202 2.839255
-36.659885 34.505684 3.010251
-49.392441 5.021099 9.448616
-45.717484 3.295063 11.000634
-44.195541 4.339024 10.961292
-46.115768 7.245312 9.861581
-48.833637 17.232632 7.01281
-46.851566 14.963802 7.997645
-47.261375 18.66909 7.364175
-45.68409 20.143852 7.629699
-47.745705 22.24358 6.936859
-65.850388 5.890669 15.435325
-64.792206 7.631908 14.379086
-64.617073 7.74885 16.607851
-61.056221 10.933184 19.341724
-66.58078 4.014481 18.674128
-66.758965 3.964598 16.487513
-66.684639 3.899836 14.460084
-62.359196 10.636356 12.194801
-62.426327 10.161463 10.2644
-61.095085 12.041241 11.10887
-57.550476 17.016747 10.49003
-58.804131 14.982391 9.210113
-57.859337 16.56675 8.491041
-57.753845 15.838924 6.926077
-57.047409 18.219254 7.953798
-55.200989 26.696438 10.068111
-55.398018 24.755703 10.506989
-55.435226 24.189079 8.659721
-55.640358 21.64032 7.364129
-54.921177 23.370232 7.234078
-53.904297 22.275066 6.344393
-54.116394 25.101604 7.145392
-52.136414 28.582584 6.888083
-50.958061 30.343864 6.636017
-48.97736 28.968056 6.477311
-49.679367 32.119946 6.261238
-48.639107 41.617004 2.796062
-49.81773 39.862682 4.16807
-47.821228 38.726688 4.032491
-46.946041 35.671417 5.063085
-45.560135 37.403973 4.208322
-43.209167 35.842342 4.585814
-44.207901 39.068523 3.166476
-42.998051 44.853725 -1.665342
-41.73777 42.04776 0.500519
-40.676746 43.28019 -1.111765
-38.47364 41.413437 -0.59617
-39.756184 44.283157 -2.882732
-39.786118 47.556332 -9.360279
-38.329224 45.450382 -6.749479
-37.777534 45.57098 -8.753418
-35.995529 43.329502 -8.284807
-37.278 45.384052 -10.743702
-36.227119 44.188801 -14.539536
-34.241364 41.009464 -15.862642
-39.860451 -11.365086 0.387534
-43.172394 -8.641204 -9.103058
-39.522434 1.935987 -9.394049
-35.305168 15.443947 1.341872
-35.931526 11.617601 -0.878531
-35.111435 16.376347 -0.508573
-34.233017 22.615902 -4.372898
-35.029755 18.040455 -4.46665
-35.093487 18.784836 -6.514767
-36.205688 15.149727 -9.026024
-35.180618 19.48534 -8.572802
-35.248699 20.154736 -10.619518
-34.291706 23.764938 -8.467678
-33.151642 34.853634 -8.61138
-33.152779 31.538845 -9.488333
-33.013344 34.764179 -10.620691
-32.839661 34.57233 -12.561687
-33.189049 37.425365 -12.112858
-62.940269 3.338617 8.730532
-62.416794 5.873047 8.025911
-61.762604 8.31373 7.697516
-33.255985 28.564198 -14.718571
-33.846416 25.551323 -16.413515
-32.983654 28.799751 -16.623001
-41.896904 15.037357 9.049876
-40.351402 12.0436 9.379045
-40.509941 16.392044 8.79937
-39.219482 17.756325 8.351164
-38.039513 19.110184 7.690504
-36.983437 20.430477 6.80793
-38.136765 23.530994 7.134623
-38.412224 27.771667 6.373225
-38.905163 31.779823 5.356647
-54.787544 5.270512 7.644295
-53.083645 6.386484 7.739579
-51.403416 7.536329 7.95651
-49.742699 8.713362 8.247921
-48.100796 9.915968 8.560553
-50.064003 12.325777 7.285191
-50.38715 15.830139 6.626767
-50.745182 19.209015 6.302751
-65.32724 5.965994 19.983051
-64.262711 7.774488 18.980648
-63.748367 7.703327 21.424133
-61.845367 9.204687 22.922974
-66.165222 4.013859 20.955311
-58.926025 13.970985 14.646454
-59.529282 13.829132 12.25601
-57.784851 15.548065 13.652399
-56.881538 17.229412 12.779814
-56.236404 19.016609 12.046827
-49.315235 44.367844 1.382667
-47.4641 43.281776 1.290358
-45.275051 42.055 1.508065
-46.326054 44.824688 -0.348286
-45.253429 46.209171 -2.114069
-44.267307 47.394566 -3.992226
-38.584053 47.039829 -13.254772
-40.335213 -10.164865 -1.856916
-41.985279 -11.777136 -4.467405
-40.823242 -8.871334 -4.120893
-41.305664 -7.485022 -6.394264
-39.244675 0.689981 -7.211178
-38.089108 4.656555 -6.35582
-34.215519 24.918617 1.144853
-34.414249 21.126953 -0.426435
-33.902851 25.752407 -0.701424
-33.719135 26.452896 -2.652525
-33.634106 27.023846 -4.669836
-33.607857 27.477154 -6.717615
-33.298656 31.126263 -5.397812
-33.283798 34.801529 -6.565607
-33.618935 37.960224 -8.145527
-56.497246 7.382969 6.612168
-56.404079 10.473991 5.868183
-56.248512 13.447586 5.55427
-37.624866 13.973915 -15.931187
-37.516411 15.015736 -17.911957
-37.248257 16.040462 -19.835583
-36.803238 17.018341 -21.689957
-36.179333 17.913265 -23.458317
-35.388798 18.686817 -25.117455
-34.454308 19.303642 -26.637737
-52.190765 20.860348 18.554768
-39.131718 8.797026 9.242826
-38.28772 5.362732 8.553648
-37.438793 2.864256 5.773457
-37.141823 3.897736 4.126195
-36.947609 4.929348 2.362615
-36.845367 5.951271 0.496368
-36.261448 9.641565 2.797462
-35.619526 14.444366 3.068824
-35.070358 19.24736 3.107795
-36.064072 21.693138 5.700879
-35.292526 22.875092 4.375623
-34.676056 23.955788 2.848355
-34.504318 28.472446 2.231739
-34.618458 32.702522 1.213771
-35.065144 36.561543 -0.225835
-42.426437 1.233383 11.664176
-42.764706 5.411041 10.783863
-43.067299 9.583597 9.923892
-46.482803 11.146631 8.84128
-44.89946 12.409481 9.042009
-43.365417 13.707058 9.122323
-43.701824 17.742081 8.403239
-44.119934 21.655392 7.765536
-44.652603 25.420578 7.177182
-65.535744 5.627901 11.71899
-64.598206 7.024763 10.776609
-64.780914 7.410013 12.393291
-63.613083 9.194183 13.297291
-62.08358 10.89016 14.419983
-63.009109 9.434381 17.928375
-61.636993 10.978172 16.832401
-60.24128 12.466967 15.722979
-58.149155 13.946388 17.157623
-55.888622 15.388748 18.671005
-66.357307 3.860518 12.667064
-63.489758 8.209259 9.761127
-62.243301 9.40107 8.735729
-60.942604 10.648636 7.782244
-59.891357 13.477188 10.095688
-59.948948 12.869099 8.291464
-59.651684 11.967152 6.96708
-58.405956 13.356022 6.338075
-57.212135 14.803829 5.920475
-56.053551 16.293781 5.714664
-53.654755 21.010342 16.16464
-54.904404 21.033447 13.765247
-55.822624 20.888298 11.446453
-56.315956 20.530361 9.337609
-56.327736 19.917999 7.588624
-55.845253 19.018158 6.341092
-54.899483 17.810009 5.697114
-53.715851 19.342609 5.824941
-52.474686 20.889778 6.043376
-51.160477 22.456455 6.29357
-53.191975 26.836876 7.0455
-51.633415 25.576908 6.526761
-49.772057 24.050415 6.518895
-48.320694 25.677288 6.668891
-46.82618 27.336384 6.700732
-45.313137 29.018372 6.578804
-51.389362 40.853104 4.679178
-50.963127 38.046925 5.406712
-50.366516 35.141838 5.926236
-48.33075 33.901707 5.742577
-46.090031 32.436764 5.896923
-43.808556 30.70509 6.273532
-42.340843 32.370949 5.760626
-40.939491 33.984894 5.021503
-39.634434 35.511948 4.045009
-42.923344 40.629616 1.930364
-40.591938 38.938171 2.421159
-38.454269 36.914318 2.829848
-37.423279 38.152538 1.386848
-36.557461 39.187786 -0.259959
-35.860355 39.986004 -2.074265
-43.377872 48.337772 -5.956612
-42.581112 48.99773 -7.970119
-41.171673 46.790607 -5.380722
-38.978386 45.016552 -4.776737
-36.975636 42.94521 -4.27936
-35.319717 40.523251 -4.010822
-34.906624 40.790363 -6.020576
-34.578426 40.79493 -8.055626
-34.285561 40.55938 -10.072132
-36.777924 44.91251 -12.682386
-35.20282 42.612156 -12.24559
-33.981556 40.115108 -12.030174
-33.634781 39.493362 -13.89031
-33.239304 38.712036 -15.606348
-32.639256 36.411407 -15.623999
-36.82571 6.959242 -1.456638
-36.879051 7.953335 -3.477966
-36.993172 8.937849 -5.547194
-35.026222 17.240486 -2.454758
-35.964703 13.437485 -4.885841
-37.150707 9.920328 -7.643217
-37.327251 10.909674 -9.74588
-37.490902 11.913649 -11.837379
-37.603649 12.936031 -13.903051
-36.384861 16.8293 -13.127789
-35.254456 20.804432 -12.639595
-34.254459 24.697659 -12.51111
-33.59515 27.831802 -8.765612
-33.552299 28.11208 -10.790508
-33.445217 28.345875 -12.776825
-32.889408 31.599693 -13.426168
-32.626198 34.328773 -14.402979
-32.310462 34.14028 -16.95382
-32.403759 34.99588 -16.533172
-63.986753 4.547334 26.384125
-63.514044 4.377799 27.539318
-63.654341 5.529758 25.966303
-64.402786 4.709469 25.191332
-63.986753 4.547334 26.384125
-38.205349 -0.117652 -1.50996
-38.630045 -2.237452 -1.836021
-38.249819 0.411862 -2.524598
-38.205349 -0.117652 -1.50996
-47.525245 4.198681 10.305731
-48.356151 3.649144 10.191235
-48.561535 5.570636 9.563112
-46.724057 4.707618 10.339122
-46.518673 2.786126 10.967243
-47.525245 4.198681 10.305731
-55.185837 25.10499 8.522171
-55.318107 25.442759 9.363916
-55.068718 26.358669 9.226366
-54.928812 24.695566 7.809349
-55.178202 23.779656 7.946899
-55.185837 25.10499 8.522171
-54.526421 25.561252 7.765007
-54.518785 24.235918 7.189735
-54.928812 24.695566 7.809349
-51.25206 31.830289 6.644768
-51.786564 30.916984 6.94072
-52.080563 32.40341 6.949471
-39.486237 47.504948 -10.348981
-40.47765 48.455196 -10.66365
-40.177769 48.403813 -11.652352
-41.038042 -13.809428 -0.996556
-40.291865 -12.906757 0.271869
-40.606628 -12.267758 -0.880891
-41.920417 -14.423764 -2.186138
-41.605654 -15.062763 -1.033378
-41.038042 -13.809428 -0.996556
-42.306549 -13.673619 -3.359723
-41.920417 -14.423764 -2.186138
-44.239311 -8.753613 -10.348436
-43.436516 -7.773363 -10.256629
-39.05003 4.496829 -10.03452
-39.660198 2.58282 -10.485271
-38.912266 3.849995 -8.943297
-38.41378 6.331853 -9.562532
-39.05003 4.496829 -10.03452
-63.642681 2.986469 9.20486
-63.15756 2.031537 9.238297
-60.377819 9.699905 24.919447
-60.739136 9.846325 23.66919
-61.484051 9.058267 24.173231
-65.471214 4.949294 21.663694
-65.852047 3.971045 22.117435
-65.158039 4.90648 22.825817
-48.793104 45.167143 0.47873
-49.541331 45.691603 0.61743
-47.867536 44.624109 0.432575
-48.389668 43.82481 1.336512
-48.793104 45.167143 0.47873
-47.298513 45.395565 -0.386746
-46.895077 44.053232 0.471036
-47.867536 44.624109 0.432575
-39.869129 -8.427605 -1.618853
-39.709705 -8.99538 -0.538458
-40.113144 -7.780839 -2.750841
-40.579228 -9.518099 -2.988904
-39.869129 -8.427605 -1.618853
-40.706196 -5.851786 -6.090847
-40.527248 -6.48622 -4.983881
-39.92778 -4.852984 -4.680464
-41.537878 -6.746429 -7.531908
-40.706196 -5.851786 -6.090847
-60.709156 3.228857 8.150221
-61.569266 2.813324 8.451002
-58.201418 4.717975 7.401616
-59.02215 4.184101 7.623985
-58.953499 5.712803 7.080844
-57.325371 5.223222 7.282217
-58.201418 4.717975 7.401616
-57.315006 6.814823 6.735321
-56.50761 5.791367 7.159063
-57.325371 5.223222 7.282217
-36.553755 17.67988 -19.412177
-36.714804 17.27239 -18.45995
-36.020302 18.911808 -18.036543
-36.331246 18.168819 -20.339363
-37.025748 16.529401 -20.76277
-36.553755 17.67988 -19.412177
-34.211296 24.116302 -17.440703
-33.659271 25.763605 -17.363938
-35.455477 19.352647 -23.031816
-35.776817 19.002457 -22.145968
-35.060209 19.739424 -23.861385
-35.784065 18.300041 -24.287886
-35.455477 19.352647 -23.031816
-33.745018 20.577955 -26.235254
-34.200094 20.346061 -25.45985
-33.219461 20.794677 -26.909118
-33.928751 19.520364 -27.311602
-33.745018 20.577955 -26.235254
-40.547922 0.562092 11.051824
-41.04233 0.103511 11.491452
-39.095494 2.071191 9.744359
-39.578981 1.547071 10.178195
-39.599966 3.768006 10.028725
-38.754326 2.561756 9.13232
-39.095494 2.071191 9.744359
-37.722491 4.142342 7.318592
-38.069409 3.600765 7.922845
-37.940802 5.90431 7.949395
-37.516339 4.655072 6.559299
-37.644945 2.351527 6.532749
-37.722491 4.142342 7.318592
-50.918876 2.136562 9.938076
-51.970943 3.428389 9.140036
-43.108402 0.752453 11.834535
-42.233755 -0.834608 12.09425
-55.348024 15.257488 19.930578
-56.57624 14.588717 19.189694
-54.722853 16.132169 19.440299
-55.348024 15.257488 19.930578
-67.762032 0.747394 16.141194
-67.789929 0.77775 17.149415
-67.475788 1.864768 16.561468
-67.592167 0.723413 15.225482
-67.762032 0.747394 16.141194
-67.272236 1.824503 14.63877
-67.592167 0.723413 15.225482
-52.873026 22.029059 17.007118
-52.92276 20.935345 17.359704
-52.141031 21.954062 18.202182
-54.844599 22.042556 13.472295
-54.244622 22.074821 14.639527
-54.184816 23.083931 14.346575
-55.721621 22.583047 9.954325
-55.48574 23.783831 10.727808
-55.633898 23.55492 9.733507
-56.092867 21.442249 9.148817
-55.94471 21.67116 10.143118
-55.721621 22.583047 9.954325
-53.367956 28.251978 7.380317
-53.754116 27.341324 7.564801
-50.877569 41.753554 3.882535
-51.481424 42.218405 4.22122
-50.969631 43.118854 3.424577
-43.985802 49.425277 -7.204278
-44.39745 49.034779 -6.164648
-41.507721 48.165638 -7.664941
-42.21896 49.169883 -8.979313
-41.145569 48.337791 -8.674135
-37.352129 45.628765 -13.883748
-37.680988 45.976169 -12.968579
-38.255193 46.692425 -14.169941
-33.448191 39.308279 -16.533169
-33.740334 39.86075 -15.734495
-33.949221 40.456993 -16.661316
-33.029985 38.228365 -16.361013
-33.448191 39.308279 -16.533169
-43.298344 -11.403564 -6.853065
-42.992449 -12.15875 -5.692967
-42.291174 -11.02195 -5.627503
-64.355022 4.623501 9.47919
-64.06168 3.804995 9.321773
-64.638435 3.452827 9.836605
-65.660095 3.030404 10.990184
-66.121315 2.903703 11.65849
-65.23249 3.208157 10.395252
-65.660095 3.030404 10.990184
-65.359382 4.09358 10.588954
-64.638435 3.452827 9.836605
-65.23249 3.208157 10.395252
-32.4128 32.906332 -16.623528
-32.549706 31.65023 -16.214236
-32.538143 32.864008 -15.708451
-32.4128 32.906332 -16.623528
-32.310462 34.14028 -16.95382
-64.804623 4.810062 24.026534
-64.402786 4.709469 25.191332
-64.42379 5.788311 23.572793
-65.158039 4.90648 22.825817
-64.804623 4.810062 24.026534
-48.059832 47.977589 -2.274454
-47.765883 46.692196 -1.377996
-47.617653 48.653813 -3.339258
-48.059832 47.977589 -2.274454
-47.140084 49.288021 -4.334335
-46.783223 48.052158 -3.325863
-47.617653 48.653813 -3.339258
-39.136579 -4.143452 -2.176788
-39.57594 -6.088881 -2.477143
-39.242299 -3.581418 -3.232731
-39.136579 -4.143452 -2.176788
-38.630045 -2.237452 -1.836021
-39.421246 -2.946985 -4.339697
-39.92778 -4.852984 -4.680464
-39.242299 -3.581418 -3.232731
-38.857396 -1.094048 -3.965853
-39.542878 -2.365613 -5.413586
-39.421246 -2.946985 -4.339697
-38.371451 0.993234 -3.598487
-38.857396 -1.094048 -3.965853
-38.249819 0.411862 -2.524598
-37.834595 3.0347 -3.197877
-38.442171 1.52879 -4.639133
-38.371451 0.993234 -3.598487
-35.398678 20.694468 -17.777864
-36.020302 18.911808 -18.036543
-35.559727 20.286977 -16.825637
-49.193897 3.153374 10.125267
-50.046215 2.617193 10.013232
-50.244759 4.484917 9.336581
-49.193897 3.153374 10.125267
-48.356151 3.649144 10.191235
-45.494249 1.315693 11.595837
-46.518673 2.786126 10.967243
-44.753926 1.783293 11.502764
-45.494249 1.315693 11.595837
-44.956513 3.817044 10.980963
-43.992954 2.305274 11.483093
-44.753926 1.783293 11.502764
-60.716599 10.851093 20.612285
-61.770003 10.154816 19.877102
-61.43038 10.072724 21.147663
-59.930656 11.602693 20.0688
-60.716599 10.851093 20.612285
-59.188019 12.352364 19.518686
-60.313584 11.682855 18.791609
-59.930656 11.602693 20.0688
-58.417402 13.110605 18.974939
-59.188019 12.352364 19.518686
-67.042233 2.954802 18.121908
-66.926155 2.982379 19.195119
-67.131325 2.929861 17.028601
-67.042233 2.954802 18.121908
-66.669872 3.98954 17.580821
-67.103428 2.899505 16.02038
-67.475788 1.864768 16.561468
-67.131325 2.929861 17.028601
-54.264426 24.162002 14.033885
-54.184816 23.083931 14.346575
-55.299504 25.72607 10.28755
-55.140547 25.956392 11.285215
-55.042033 26.92676 11.065776
-52.375741 30.036344 7.066753
-52.840176 29.124832 7.301609
-51.547238 29.463224 6.76205
-52.375741 30.036344 7.066753
-51.786564 30.916984 6.94072
-40.821463 48.449185 -9.674394
-40.47765 48.455196 -10.66365
-40.110224 47.444939 -8.360021
-41.145569 48.337791 -8.674135
-40.821463 48.449185 -9.674394
-36.697986 44.796799 -15.67618
-37.076726 45.26691 -14.812323
-35.908035 43.715937 -15.415616
-36.697986 44.796799 -15.67618
-35.173233 42.576243 -15.202724
-35.492317 43.049107 -14.326644
-35.908035 43.715937 -15.415616
-34.915157 42.126269 -16.077168
-34.499439 41.459438 -14.988197
-35.173233 42.576243 -15.202724
-34.545486 41.549288 -16.891478
-34.915157 42.126269 -16.077168
-33.949221 40.456993 -16.661316
-34.545486 41.549288 -16.891478
-39.643082 -11.919286 1.493289
-39.337046 -10.128862 1.641806
-39.643082 -11.919286 1.493289
-40.291865 -12.906757 0.271869
-43.929232 -9.704657 -9.181942
-42.884732 -9.453984 -7.94533
-43.929232 -9.704657 -9.181942
-44.239311 -8.753613 -10.348436
-40.338331 0.958572 -10.930997
-40.17095 0.225645 -9.818332
-40.338331 0.958572 -10.930997
-39.660198 2.58282 -10.485271
-62.342699 2.382416 8.849324
-63.15756 2.031537 9.238297
-62.166836 3.769525 8.332211
-61.569266 2.813324 8.451002
-62.342699 2.382416 8.849324
-63.359268 4.157144 8.847445
-63.642681 2.986469 9.20486
-64.06168 3.804995 9.321773
-33.22789 27.387819 -17.468681
-33.659271 25.763605 -17.363938
-33.415035 27.175537 -16.518258
-32.704008 30.246153 -16.876157
-32.829352 30.203829 -15.96108
-32.549706 31.65023 -16.214236
-32.809328 28.936583 -17.566175
-32.704008 30.246153 -16.876157
-33.22789 27.387819 -17.468681
-32.809328 28.936583 -17.566175
-53.816177 4.089277 8.349911
-54.712415 3.58938 8.315199
-52.964227 4.647264 8.397553
-53.816177 4.089277 8.349911
-53.935594 5.828498 7.691937
-52.090361 5.16761 8.482062
-51.970943 3.428389 9.140036
-52.964227 4.647264 8.397553
-61.111171 9.986844 22.402911
-61.43038 10.072724 21.147663
-62.164575 9.290567 21.667727
-61.111171 9.986844 22.402911
-60.739136 9.846325 23.66919
-66.469375 2.985059 21.447103
-65.852047 3.971045 22.117435
-66.718376 2.982068 20.33571
-66.469375 2.985059 21.447103
-66.373001 4.01417 19.814719
-66.926155 2.982379 19.195119
-66.718376 2.982068 20.33571
-55.044865 27.944563 10.745472
-55.042033 26.92676 11.065776
-55.05106 27.659577 9.824453
-55.044865 27.944563 10.745472
-55.068718 26.358669 9.226366
-55.05106 27.659577 9.824453
-52.271076 33.817131 7.065891
-52.080563 32.40341 6.949471
-50.523392 44.004497 2.467707
-50.969631 43.118854 3.424577
-49.998121 44.861418 1.616096
-49.541331 45.691603 0.61743
-49.840505 43.510924 2.234279
-50.523392 44.004497 2.467707
-49.998121 44.861418 1.616096
-46.793423 46.121319 -1.339536
-47.298513 45.395565 -0.386746
-47.765883 46.692196 -1.377996
-39.828547 48.245457 -12.602802
-40.177769 48.403813 -11.652352
-39.527395 48.03859 -13.561347
-38.885205 47.246696 -12.296228
-39.828547 48.245457 -12.602802
-39.146682 47.727337 -14.46051
-39.527395 48.03859 -13.561347
-38.255193 46.692425 -14.169941
-39.146682 47.727337 -14.46051
-39.472324 -9.59549 0.583767
-39.337046 -10.128862 1.641806
-40.097832 -10.764976 -0.734691
-39.472324 -9.59549 0.583767
-39.709705 -8.99538 -0.538458
-41.710155 -9.569049 -5.454247
-42.291174 -11.02195 -5.627503
-41.40426 -10.324235 -4.294149
-40.286037 -7.179376 -3.847195
-40.113144 -7.780839 -2.750841
-39.57594 -6.088881 -2.477143
-41.951366 -8.875893 -6.590933
-41.710155 -9.569049 -5.454247
-41.064453 -8.178178 -5.257578
-42.239029 -8.063113 -7.748661
-42.884732 -9.453984 -7.94533
-41.951366 -8.875893 -6.590933
-42.471243 -7.32452 -8.886305
-42.239029 -8.063113 -7.748661
-41.537878 -6.746429 -7.531908
-42.735365 -6.456679 -10.039876
-43.436516 -7.773363 -10.256629
-42.471243 -7.32452 -8.886305
-39.722792 -1.698543 -6.526499
-39.542878 -2.365613 -5.413586
-39.855616 -1.097215 -7.612217
-39.722792 -1.698543 -6.526499
-39.111851 0.088652 -6.12546
-40.032071 -0.397358 -8.726897
-39.855616 -1.097215 -7.612217
-39.383555 1.312984 -8.302613
-40.17095 0.225645 -9.818332
-40.032071 -0.397358 -8.726897
-59.89957 3.718104 7.834882
-60.709156 3.228857 8.150221
-60.583816 4.689681 7.618551
-59.89957 3.718104 7.834882
-59.02215 4.184101 7.623985
-55.65276 4.735139 7.675126
-54.712415 3.58938 8.315199
-55.642395 6.32674 7.128232
-55.65276 4.735139 7.675126
-56.50761 5.791367 7.159063
-38.268079 12.865672 -17.442978
-38.294668 12.241378 -16.432094
-38.213852 13.386582 -18.433363
-38.268079 12.865672 -17.442978
-37.570639 14.494826 -16.921572
-38.107389 14.005064 -19.415165
-38.804831 12.37591 -19.936571
-38.213852 13.386582 -18.433363
-37.973313 14.517427 -20.376978
-38.107389 14.005064 -19.415165
-37.382334 15.528099 -18.87377
-37.774845 15.112383 -21.322222
-37.973313 14.517427 -20.376978
-37.552336 15.601322 -22.249409
-37.774845 15.112383 -21.322222
-37.025748 16.529401 -20.76277
-37.256897 16.151468 -23.148097
-37.552336 15.601322 -22.249409
-34.757139 22.375459 -17.517426
-34.392259 23.81048 -16.490237
-34.211296 24.116302 -17.440703
-35.398678 20.694468 -17.777864
-34.757139 22.375459 -17.517426
-36.08877 18.554994 -21.261788
-36.331246 18.168819 -20.339363
-36.491286 17.465803 -22.574137
-36.08877 18.554994 -21.261788
-35.776817 19.002457 -22.145968
-36.944944 16.59893 -24.032277
-37.256897 16.151468 -23.148097
-36.491286 17.465803 -22.574137
-36.555632 17.081556 -24.871357
-36.944944 16.59893 -24.032277
-36.160365 17.468332 -25.700926
-36.555632 17.081556 -24.871357
-35.784065 18.300041 -24.287886
-35.687708 17.862 -26.464546
-36.160365 17.468332 -25.700926
-34.667339 20.037649 -24.699709
-35.060209 19.739424 -23.861385
-34.921553 18.99523 -25.877596
-34.667339 20.037649 -24.699709
-34.200094 20.346061 -25.45985
-35.220463 18.170412 -27.224688
-35.687708 17.862 -26.464546
-34.921553 18.99523 -25.877596
-34.680281 18.457869 -27.895449
-35.220463 18.170412 -27.224688
-34.154724 18.674591 -28.569313
-34.680281 18.457869 -27.895449
-33.928751 19.520364 -27.311602
-61.913639 5.835807 29.135976
-62.376789 6.068853 27.958776
-62.775158 5.134578 28.336296
-62.775158 5.134578 28.336296
-63.514044 4.377799 27.539318
-51.41427 20.738836 19.722946
-52.431376 19.825474 18.943278
-51.65488 19.703963 20.111457
-51.316395 21.871529 19.342873
-51.41427 20.738836 19.722946
-52.141031 21.954062 18.202182
-51.316395 21.871529 19.342873
-39.995524 1.072153 10.706922
-40.547922 0.562092 11.051824
-40.635852 2.733826 10.807463
-39.995524 1.072153 10.706922
-39.578981 1.547071 10.178195
-38.339947 3.09706 8.611699
-38.754326 2.561756 9.13232
-38.702099 4.827429 9.074269
-38.339947 3.09706 8.611699
-38.069409 3.600765 7.922845
-37.637861 0.610305 5.638286
-37.644945 2.351527 6.532749
-37.568031 1.11397 4.744713
-37.637861 0.610305 5.638286
-37.419546 1.63071 3.921082
-37.568031 1.11397 4.744713
-37.290308 3.380996 4.949826
-37.395207 2.145701 2.980301
-37.419546 1.63071 3.921082
-37.298099 2.661507 2.098511
-37.395207 2.145701 2.980301
-37.044716 4.413542 3.244405
-37.311272 3.184731 1.11733
-37.298099 2.661507 2.098511
-36.896488 5.440309 1.429491
-37.260151 3.695693 0.184206
-37.311272 3.184731 1.11733
-50.918876 2.136562 9.938076
-50.046215 2.617193 10.013232
-41.661423 -0.391679 11.747357
-42.233755 -0.834608 12.09425
-41.807344 1.728573 11.408271
-41.04233 0.103511 11.491452
-41.661423 -0.391679 11.747357
-43.310989 2.786204 11.312734
-43.108402 0.752453 11.834535
-43.992954 2.305274 11.483093
-57.706507 13.867536 18.433003
-58.86005 13.189457 17.699559
-58.417402 13.110605 18.974939
-57.018889 14.667568 17.914314
-57.706507 13.867536 18.433003
-56.57624 14.588717 19.189694
-54.174481 16.997991 18.967315
-55.34025 16.25457 18.198021
-54.722853 16.132169 19.440299
-53.114534 17.833095 19.770691
-53.731932 17.955496 18.528413
-54.174481 16.997991 18.967315
-61.930574 6.991535 27.548153
-62.792094 6.290306 26.748474
-62.376789 6.068853 27.958776
-61.34502 7.852648 27.116439
-61.930574 6.991535 27.548153
-60.733448 8.702078 26.659258
-61.734307 8.062418 25.88067
-61.34502 7.852648 27.116439
-59.988834 9.500612 26.171338
-60.733448 8.702078 26.659258
-60.377819 9.699905 24.919447
-59.988834 9.500612 26.171338
-51.967096 18.640967 20.527408
-53.114534 17.833095 19.770691
-51.65488 19.703963 20.111457
-51.967096 18.640967 20.527408
-66.89061 2.857215 14.092189
-67.272236 1.824503 14.63877
-67.066265 2.867124 15.006666
-66.726944 2.837556 13.195679
-66.89061 2.857215 14.092189
-66.520973 3.880177 13.563574
-66.406475 2.876049 12.40008
-66.726944 2.837556 13.195679
-66.072147 3.888173 11.925475
-66.121315 2.903703 11.65849
-66.406475 2.876049 12.40008
-53.619797 22.063269 15.839223
-52.873026 22.029059 17.007118
-54.279579 21.021895 14.964944
-53.619797 22.063269 15.839223
-54.244622 22.074821 14.639527
-54.799456 24.077579 12.905123
-54.264426 24.162002 14.033885
-55.106068 24.929598 11.568946
-55.140547 25.956392 11.285215
-55.106068 24.929598 11.568946
-55.48574 23.783831 10.727808
-55.179128 22.931812 12.063985
-54.799456 24.077579 12.905123
-55.698043 21.850128 11.19754
-55.303709 21.969982 12.312898
-55.179128 22.931812 12.063985
-56.06929 20.709329 10.392031
-55.698043 21.850128 11.19754
-55.94471 21.67116 10.143118
-54.216325 26.473688 7.614748
-54.526421 25.561252 7.765007
-53.654184 25.96924 7.095446
-54.216325 26.473688 7.614748
-53.754116 27.341324 7.564801
-52.664195 27.70973 6.966791
-53.367956 28.251978 7.380317
-52.840176 29.124832 7.301609
-51.790989 34.754819 6.582223
-52.271076 33.817131 7.065891
-51.90066 41.289732 5.130244
-51.481424 42.218405 4.22122
-51.868685 39.921337 5.417191
-51.90066 41.289732 5.130244
-51.655567 38.518248 5.780958
-51.868685 39.921337 5.417191
-51.176244 39.450015 5.042945
-51.499523 37.119924 5.95882
-51.655567 38.518248 5.780958
-51.201217 35.667381 6.218582
-51.499523 37.119924 5.95882
-50.664822 36.594381 5.666474
-50.956288 34.229276 6.289877
-51.790989 34.754819 6.582223
-51.201217 35.667381 6.218582
-46.715391 49.862018 -5.418125
-47.140084 49.288021 -4.334335
-45.86134 49.209076 -5.346812
-46.715391 49.862018 -5.418125
-44.842167 48.563175 -5.182455
-45.28648 48.040466 -4.156583
-45.86134 49.209076 -5.346812
-43.82259 47.866169 -4.974419
-44.842167 48.563175 -5.182455
-44.39745 49.034779 -6.164648
-43.200352 49.99477 -9.243002
-42.21896 49.169883 -8.979313
-43.587421 49.755257 -8.211032
-43.200352 49.99477 -9.243002
-42.979492 48.667751 -6.963366
-43.985802 49.425277 -7.204278
-43.587421 49.755257 -8.211032
-36.502522 44.550655 -13.610961
-37.352129 45.628765 -13.883748
-37.076726 45.26691 -14.812323
-32.729962 37.078051 -16.369838
-32.93928 37.561721 -15.615174
-33.029985 38.228365 -16.361013
-32.522768 36.141529 -16.2863
-32.729962 37.078051 -16.369838
-42.622785 -12.976973 -4.518768
-42.306549 -13.673619 -3.359723
-41.669043 -12.473783 -3.30836
-42.622785 -12.976973 -4.518768
-42.992449 -12.15875 -5.692967
-37.30462 4.225207 -0.830432
-37.260151 3.695693 0.184206
-37.294792 4.729193 -1.806935
-37.30462 4.225207 -0.830432
-36.835538 6.455256 -0.480135
-37.365513 5.264749 -2.84758
-37.834595 3.0347 -3.197877
-37.294792 4.729193 -1.806935
-37.838085 8.410015 -9.137868
-38.41378 6.331853 -9.562532
-37.726402 7.842166 -8.067882
-37.926357 8.904688 -10.1892
-37.838085 8.410015 -9.137868
-37.238979 10.415001 -8.694548
-38.030214 9.489523 -11.253404
-37.926357 8.904688 -10.1892
-38.112039 9.991511 -12.299153
-38.030214 9.489523 -11.253404
-37.409076 11.411662 -10.791629
-38.191536 10.594013 -13.351109
-38.112039 9.991511 -12.299153
-38.247909 11.105204 -14.383945
-38.191536 10.594013 -13.351109
-37.547275 12.42484 -12.870215
-38.284059 11.722437 -15.418026
-38.247909 11.105204 -14.383945
-37.614257 13.454973 -14.917119
-38.294668 12.241378 -16.432094
-38.284059 11.722437 -15.418026
-32.522768 36.141529 -16.2863
-32.403759 34.99588 -16.533172
-32.520246 35.265758 -15.870871
3 0 98 96
3 0 96 99
3 395 394 100
3 1 103 101
3 1 105 103
3 2 108 106
3 2 110 108
3 3 113 111
3 3 396 397
3 3 398 400
3 398 111 399
3 398 399 400
3 4 116 114
3 401 119 402
3 404 403 119
3 5 123 121
3 5 125 123
3 6 128 126
3 6 130 128
3 7 133 131
3 8 136 134
3 9 139 137
3 9 141 139
3 9 143 141
3 11 146 144
3 11 148 146
3 12 405 407
3 407 406 149
3 405 406 407
3 12 408 410
3 408 150 409
3 408 409 410
3 12 152 150
3 13 155 153
3 13 157 155
3 14 160 158
3 14 163 162
3 14 158 163
3 15 167 165
3 16 170 168
3 16 172 170
3 411 175 412
3 413 412 173
3 411 412 413
3 414 177 415
3 416 415 175
3 414 415 416
3 417 179 418
3 419 418 177
3 417 418 419
3 17 420 422
3 420 181 421
3 420 421 422
3 17 183 181
3 18 186 184
3 18 188 186
3 18 190 188
3 19 193 191
3 19 195 193
3 20 423 425
3 423 196 424
3 423 424 425
3 20 198 196
3 20 200 198
3 22 426 428
3 428 427 203
3 426 427 428
3 22 429 431
3 429 430 431
3 22 432 433
3 435 434 204
3 23 436 438
3 438 437 205
3 436 437 438
3 23 439 440
3 10 208 206
3 24 211 209
3 24 213 211
3 24 215 213
3 21 218 216
3 21 220 218
3 441 221 442
3 26 222 97
3 26 223 222
3 27 226 224
3 28 229 227
3 30 230 102
3 30 231 230
3 30 233 231
3 32 234 104
3 32 235 234
3 33 237 236
3 35 238 107
3 35 239 238
3 35 241 239
3 37 242 109
3 37 243 242
3 38 246 244
3 40 247 112
3 40 443 445
3 445 444 247
3 443 444 445
3 38 446 448
3 446 248 447
3 446 447 448
3 38 244 248
3 41 251 249
3 43 252 115
3 43 253 252
3 449 254 450
3 451 255 452
3 453 452 254
3 451 452 453
3 454 257 455
3 456 455 255
3 454 455 456
3 46 258 117
3 46 259 258
3 457 261 458
3 459 263 460
3 461 460 261
3 459 460 461
3 462 264 463
3 464 463 118
3 462 463 464
3 466 465 264
3 47 265 120
3 47 266 265
3 48 269 267
3 50 270 122
3 50 271 270
3 50 273 271
3 52 274 124
3 52 275 274
3 25 467 468
3 53 469 471
3 471 470 127
3 469 470 471
3 53 472 473
3 53 474 476
3 474 276 475
3 474 475 476
3 54 277 129
3 54 278 277
3 55 280 279
3 477 281 478
3 479 478 132
3 477 478 479
3 480 282 481
3 482 481 281
3 480 481 482
3 484 483 225
3 485 283 486
3 487 284 488
3 489 488 283
3 487 488 489
3 490 285 491
3 494 493 285
3 492 493 494
3 56 495 496
3 57 497 499
3 499 498 135
3 497 498 499
3 57 500 501
3 29 287 228
3 58 288 138
3 58 502 504
3 504 503 288
3 502 503 504
3 58 505 507
3 505 289 506
3 505 506 507
3 59 290 140
3 59 291 290
3 59 293 291
3 61 294 142
3 61 295 294
3 31 296 232
3 62 297 145
3 62 298 297
3 62 299 298
3 63 300 147
3 63 301 300
3 34 508 509
3 510 302 511
3 64 303 151
3 64 304 303
3 36 305 240
3 65 306 154
3 65 307 306
3 65 308 307
3 66 309 156
3 66 310 309
3 67 313 311
3 69 314 159
3 69 315 314
3 39 316 245
3 70 317 161
3 70 318 317
3 70 319 318
3 512 320 513
3 515 514 320
3 71 516 518
3 516 517 518
3 71 519 520
3 71 521 522
3 67 321 164
3 67 311 321
3 68 322 312
3 72 323 166
3 72 324 323
3 42 325 250
3 73 326 169
3 73 327 326
3 73 328 327
3 74 329 171
3 74 330 329
3 523 331 524
3 525 524 286
3 523 524 525
3 75 526 528
3 526 332 527
3 526 527 528
3 75 333 332
3 76 529 531
3 531 530 174
3 529 530 531
3 76 532 534
3 532 334 533
3 532 533 534
3 76 335 334
3 77 336 176
3 77 337 336
3 77 338 337
3 78 339 178
3 78 340 339
3 535 341 536
3 79 342 180
3 79 343 342
3 79 344 343
3 80 345 182
3 80 346 345
3 44 537 539
3 537 347 538
3 537 538 539
3 81 348 185
3 81 349 348
3 81 350 349
3 82 351 187
3 82 352 351
3 82 353 352
3 83 354 189
3 83 355 354
3 45 356 256
3 84 357 192
3 84 358 357
3 84 359 358
3 85 360 194
3 85 361 360
3 540 362 541
3 86 542 544
3 542 363 543
3 542 543 544
3 86 364 363
3 86 365 364
3 87 366 197
3 87 367 366
3 87 368 367
3 88 369 199
3 88 370 369
3 545 371 546
3 547 546 260
3 545 546 547
3 89 372 201
3 89 373 372
3 89 374 373
3 548 375 549
3 550 549 202
3 548 549 550
3 552 551 375
3 555 554 262
3 553 554 555
3 60 377 292
3 91 378 207
3 91 379 378
3 49 380 268
3 92 381 210
3 92 382 381
3 92 383 382
3 93 384 212
3 93 385 384
3 93 386 385
3 94 387 214
3 94 388 387
3 51 389 272
3 95 390 217
3 95 391 390
3 95 392 391
3 90 393 219
3 90 376 393
3 96 556 558
3 556 97 557
3 556 557 558
3 98 97 96
3 98 26 97
3 99 559 560
3 96 561 563
3 563 562 99
3 561 562 563
3 96 564 565
3 100 566 568
3 568 567 27
3 566 567 568
3 570 569 100
3 101 102 28
3 103 102 101
3 103 30 102
3 103 104 30
3 105 104 103
3 105 32 104
3 106 107 33
3 108 107 106
3 108 35 107
3 108 109 35
3 110 109 108
3 110 37 109
3 111 112 38
3 113 112 111
3 113 40 112
3 111 571 572
3 111 573 575
3 573 38 574
3 573 574 575
3 114 115 41
3 116 115 114
3 116 43 115
3 576 117 577
3 578 117 579
3 580 46 581
3 582 581 117
3 580 581 582
3 583 118 584
3 119 585 587
3 585 118 586
3 585 586 587
3 119 588 590
3 590 589 118
3 588 589 590
3 119 591 593
3 591 120 592
3 591 592 593
3 594 120 595
3 596 595 119
3 594 595 596
3 597 47 598
3 599 598 120
3 597 598 599
3 121 122 48
3 123 122 121
3 123 50 122
3 123 124 50
3 125 124 123
3 125 52 124
3 126 127 25
3 128 127 126
3 128 53 127
3 128 129 53
3 130 129 128
3 130 54 129
3 131 132 55
3 133 132 131
3 133 600 602
3 602 601 132
3 600 601 602
3 134 135 56
3 136 135 134
3 136 57 135
3 137 138 29
3 139 138 137
3 139 58 138
3 139 140 58
3 141 140 139
3 141 59 140
3 141 142 59
3 143 142 141
3 143 61 142
3 144 145 31
3 146 145 144
3 146 62 145
3 146 147 62
3 148 147 146
3 148 63 147
3 149 603 605
3 605 604 34
3 603 604 605
3 607 606 149
3 150 608 609
3 150 610 611
3 150 612 614
3 612 151 613
3 612 613 614
3 152 151 150
3 152 64 151
3 153 154 36
3 155 154 153
3 155 65 154
3 155 156 65
3 157 156 155
3 157 66 156
3 158 159 67
3 160 159 158
3 160 69 159
3 615 161 616
3 617 616 39
3 615 616 617
3 618 161 619
3 620 70 621
3 622 621 161
3 620 621 622
3 624 623 70
3 162 625 626
3 163 627 629
3 629 628 162
3 627 628 629
3 163 630 632
3 630 71 631
3 630 631 632
3 163 164 71
3 158 164 163
3 158 67 164
3 165 166 68
3 167 166 165
3 167 72 166
3 168 169 42
3 170 169 168
3 170 73 169
3 170 171 73
3 172 171 170
3 172 74 171
3 633 75 634
3 173 635 637
3 635 174 636
3 635 636 637
3 175 174 173
3 175 76 174
3 175 176 76
3 177 176 175
3 177 77 176
3 177 178 77
3 179 178 177
3 179 78 178
3 638 180 639
3 181 640 642
3 640 180 641
3 640 641 642
3 181 79 180
3 181 182 79
3 183 182 181
3 183 80 182
3 184 185 44
3 186 185 184
3 186 81 185
3 186 187 81
3 188 187 186
3 188 82 187
3 188 189 82
3 190 189 188
3 190 83 189
3 191 192 45
3 193 192 191
3 193 84 192
3 193 194 84
3 195 194 193
3 195 85 194
3 196 643 644
3 196 645 647
3 645 86 646
3 645 646 647
3 196 197 86
3 198 197 196
3 198 87 197
3 198 199 87
3 200 199 198
3 200 88 199
3 648 201 649
3 650 201 651
3 652 89 653
3 654 653 201
3 652 653 654
3 655 202 656
3 657 656 89
3 655 656 657
3 658 202 659
3 661 660 202
3 203 662 663
3 665 664 203
3 204 666 667
3 669 668 204
3 205 670 671
3 673 672 205
3 206 207 60
3 208 207 206
3 208 91 207
3 209 210 49
3 211 210 209
3 211 92 210
3 211 212 92
3 213 212 211
3 213 93 212
3 213 214 93
3 215 214 213
3 215 94 214
3 216 217 51
3 218 217 216
3 218 95 217
3 218 219 95
3 220 219 218
3 220 90 219
3 221 674 675
3 221 676 678
3 676 25 677
3 676 677 678
3 97 679 681
3 679 221 680
3 679 680 681
3 222 221 97
3 222 25 221
3 222 126 25
3 223 126 222
3 223 6 126
3 224 225 7
3 226 225 224
3 226 682 684
3 684 683 225
3 682 683 684
3 685 226 686
3 687 686 27
3 685 686 687
3 688 226 689
3 691 690 226
3 227 228 8
3 229 228 227
3 229 29 228
3 102 229 28
3 230 229 102
3 230 29 229
3 230 137 29
3 231 137 230
3 231 9 137
3 231 232 9
3 233 232 231
3 233 31 232
3 104 233 30
3 234 233 104
3 234 31 233
3 234 144 31
3 235 144 234
3 235 11 144
3 236 692 693
3 237 694 696
3 696 695 236
3 694 695 696
3 237 697 699
3 697 34 698
3 697 698 699
3 107 237 33
3 238 237 107
3 238 34 237
3 238 149 34
3 239 149 238
3 239 12 149
3 239 240 12
3 241 240 239
3 241 36 240
3 109 241 35
3 242 241 109
3 242 36 241
3 242 153 36
3 243 153 242
3 243 13 153
3 244 245 14
3 246 245 244
3 246 39 245
3 112 246 38
3 247 246 112
3 247 39 246
3 247 700 702
3 702 701 39
3 700 701 702
3 704 703 247
3 248 705 706
3 248 707 708
3 248 709 711
3 709 162 710
3 709 710 711
3 244 162 248
3 244 14 162
3 249 250 15
3 251 250 249
3 251 42 250
3 115 251 41
3 252 251 115
3 252 42 251
3 252 168 42
3 253 168 252
3 253 16 168
3 712 173 713
3 714 173 715
3 717 716 173
3 718 17 719
3 720 44 721
3 254 722 723
3 254 724 726
3 724 44 725
3 724 725 726
3 254 184 44
3 255 184 254
3 255 18 184
3 255 256 18
3 257 256 255
3 257 45 256
3 117 727 729
3 727 257 728
3 727 728 729
3 258 257 117
3 258 45 257
3 258 191 45
3 259 191 258
3 259 19 191
3 730 20 731
3 732 260 733
3 734 733 20
3 732 733 734
3 735 260 736
3 738 737 260
3 739 203 740
3 261 741 743
3 741 203 742
3 741 742 743
3 261 22 203
3 261 262 22
3 263 262 261
3 263 744 746
3 746 745 262
3 744 745 746
3 118 747 749
3 747 263 748
3 747 748 749
3 264 263 118
3 264 750 752
3 752 751 263
3 750 751 752
3 264 753 755
3 753 204 754
3 753 754 755
3 756 204 757
3 758 757 264
3 756 757 758
3 761 760 204
3 759 760 761
3 120 762 763
3 265 764 766
3 766 765 120
3 764 765 766
3 265 767 768
3 265 769 771
3 769 205 770
3 769 770 771
3 266 205 265
3 266 23 205
3 267 268 10
3 269 268 267
3 269 49 268
3 122 269 48
3 270 269 122
3 270 49 269
3 270 209 49
3 271 209 270
3 271 24 209
3 271 272 24
3 273 272 271
3 273 51 272
3 124 273 50
3 274 273 124
3 274 51 273
3 274 216 51
3 275 216 274
3 275 21 216
3 127 772 774
3 774 773 25
3 772 773 774
3 776 775 127
3 777 236 778
3 276 779 781
3 779 236 780
3 779 780 781
3 276 33 236
3 129 276 53
3 277 276 129
3 277 33 276
3 277 106 33
3 278 106 277
3 278 2 106
3 279 782 783
3 280 784 786
3 786 785 279
3 784 785 786
3 280 787 789
3 787 788 789
3 132 280 55
3 281 280 132
3 281 790 792
3 792 791 280
3 790 791 792
3 281 793 794
3 282 795 797
3 797 796 281
3 795 796 797
3 282 798 799
3 225 133 7
3 800 133 801
3 802 801 225
3 800 801 802
3 804 803 133
3 805 282 806
3 283 807 809
3 807 282 808
3 807 808 809
3 283 810 812
3 812 811 282
3 810 811 812
3 283 813 814
3 284 815 817
3 817 816 283
3 815 816 817
3 284 818 819
3 820 284 821
3 285 822 824
3 822 284 823
3 822 823 824
3 285 825 827
3 827 826 284
3 825 826 827
3 285 828 829
3 832 831 285
3 830 831 832
3 835 834 3
3 833 834 835
3 836 3 837
3 838 286 839
3 840 839 4
3 838 839 840
3 841 286 842
3 844 843 286
3 135 845 847
3 847 846 56
3 845 846 847
3 849 848 135
3 228 136 8
3 287 136 228
3 287 57 136
3 138 287 29
3 288 287 138
3 288 57 287
3 288 850 852
3 852 851 57
3 850 851 852
3 854 853 288
3 289 855 856
3 289 857 858
3 140 289 58
3 290 289 140
3 290 859 861
3 861 860 289
3 859 860 861
3 290 862 863
3 291 864 866
3 866 865 290
3 864 865 866
3 291 867 868
3 291 869 871
3 869 292 870
3 869 870 871
3 293 292 291
3 293 60 292
3 142 293 59
3 294 293 142
3 294 60 293
3 294 206 60
3 295 206 294
3 295 10 206
3 232 143 9
3 296 143 232
3 296 61 143
3 145 296 31
3 297 296 145
3 297 61 296
3 297 295 61
3 298 295 297
3 298 10 295
3 298 267 10
3 299 267 298
3 299 48 267
3 147 299 62
3 300 299 147
3 300 48 299
3 300 121 48
3 301 121 300
3 301 5 121
3 873 872 34
3 302 874 875
3 302 876 878
3 876 56 877
3 876 877 878
3 151 879 881
3 879 302 880
3 879 880 881
3 303 302 151
3 303 56 302
3 303 134 56
3 304 134 303
3 304 8 134
3 240 152 12
3 305 152 240
3 305 64 152
3 154 305 36
3 306 305 154
3 306 64 305
3 306 304 64
3 307 304 306
3 307 8 304
3 307 227 8
3 308 227 307
3 308 28 227
3 156 308 65
3 309 308 156
3 309 28 308
3 309 101 28
3 310 101 309
3 310 1 101
3 311 312 0
3 313 312 311
3 313 68 312
3 159 313 67
3 314 313 159
3 314 68 313
3 314 165 68
3 315 165 314
3 315 15 165
3 245 160 14
3 316 160 245
3 316 69 160
3 161 316 39
3 317 316 161
3 317 69 316
3 317 315 69
3 318 315 317
3 318 15 315
3 318 249 15
3 319 249 318
3 319 41 249
3 882 319 883
3 884 883 70
3 882 883 884
3 320 885 887
3 885 319 886
3 885 886 887
3 320 41 319
3 320 114 41
3 888 114 889
3 890 889 320
3 888 889 890
3 891 4 892
3 893 892 114
3 891 892 893
3 894 113 895
3 896 895 3
3 894 895 896
3 897 113 898
3 899 40 900
3 901 900 113
3 899 900 901
3 902 40 903
3 905 904 40
3 906 4 907
3 909 908 4
3 164 910 912
3 912 911 71
3 910 911 912
3 321 913 915
3 915 914 164
3 913 914 915
3 321 916 917
3 321 918 920
3 918 99 919
3 918 919 920
3 311 99 321
3 311 0 99
3 312 98 0
3 322 98 312
3 322 26 98
3 166 322 68
3 323 322 166
3 323 26 322
3 323 223 26
3 324 223 323
3 324 6 223
3 250 167 15
3 325 167 250
3 325 72 167
3 169 325 42
3 326 325 169
3 326 72 325
3 326 324 72
3 327 324 326
3 327 6 324
3 327 130 6
3 328 130 327
3 328 54 130
3 171 328 73
3 329 328 171
3 329 54 328
3 329 278 54
3 330 278 329
3 330 2 278
3 286 116 4
3 331 116 286
3 331 43 116
3 921 331 922
3 332 923 925
3 923 331 924
3 923 924 925
3 332 43 331
3 332 253 43
3 333 253 332
3 333 16 253
3 926 75 927
3 174 928 929
3 931 930 174
3 932 75 933
3 934 333 935
3 936 935 75
3 934 935 936
3 334 937 939
3 937 333 938
3 937 938 939
3 334 16 333
3 334 172 16
3 335 172 334
3 335 74 172
3 176 335 76
3 336 335 176
3 336 74 335
3 336 330 74
3 337 330 336
3 337 2 330
3 337 110 2
3 338 110 337
3 338 37 110
3 178 338 77
3 339 338 178
3 339 37 338
3 339 243 37
3 340 243 339
3 340 13 243
3 940 179 941
3 341 942 944
3 942 179 943
3 942 943 944
3 341 78 179
3 180 945 947
3 945 341 946
3 945 946 947
3 342 341 180
3 342 78 341
3 342 340 78
3 343 340 342
3 343 13 340
3 343 157 13
3 344 157 343
3 344 66 157
3 182 344 79
3 345 344 182
3 345 66 344
3 345 310 66
3 346 310 345
3 346 1 310
3 948 17 949
3 347 950 951
3 347 952 953
3 185 347 44
3 348 347 185
3 348 954 956
3 956 955 347
3 954 955 956
3 348 957 958
3 349 959 961
3 961 960 348
3 959 960 961
3 349 962 964
3 962 17 963
3 962 963 964
3 349 183 17
3 350 183 349
3 350 80 183
3 187 350 81
3 351 350 187
3 351 80 350
3 351 346 80
3 352 346 351
3 352 1 346
3 352 105 1
3 353 105 352
3 353 32 105
3 189 353 82
3 354 353 189
3 354 32 353
3 354 235 32
3 355 235 354
3 355 11 235
3 256 190 18
3 356 190 256
3 356 83 190
3 192 356 45
3 357 356 192
3 357 83 356
3 357 355 83
3 358 355 357
3 358 11 355
3 358 148 11
3 359 148 358
3 359 63 148
3 194 359 84
3 360 359 194
3 360 63 359
3 360 301 63
3 361 301 360
3 361 5 301
3 965 46 966
3 967 46 968
3 969 259 970
3 971 970 46
3 969 970 971
3 362 972 974
3 972 259 973
3 972 973 974
3 362 19 259
3 363 975 976
3 363 977 978
3 363 979 981
3 979 362 980
3 979 980 981
3 364 362 363
3 364 19 362
3 364 195 19
3 365 195 364
3 365 85 195
3 197 365 86
3 366 365 197
3 366 85 365
3 366 361 85
3 367 361 366
3 367 5 361
3 367 125 5
3 368 125 367
3 368 52 125
3 199 368 87
3 369 368 199
3 369 52 368
3 369 275 52
3 370 275 369
3 370 21 275
3 260 200 20
3 371 200 260
3 371 88 200
3 201 982 984
3 982 371 983
3 982 983 984
3 372 371 201
3 372 88 371
3 372 370 88
3 373 370 372
3 373 21 370
3 373 220 21
3 374 220 373
3 374 90 220
3 202 374 89
3 375 374 202
3 375 90 374
3 375 376 90
3 985 376 986
3 987 986 375
3 985 986 987
3 989 988 376
3 262 990 992
3 992 991 22
3 990 991 992
3 994 993 262
3 292 995 996
3 377 997 999
3 999 998 292
3 997 998 999
3 377 1000 1002
3 1000 47 1001
3 1000 1001 1002
3 207 377 60
3 378 377 207
3 378 47 377
3 378 266 47
3 379 266 378
3 379 23 266
3 268 208 10
3 380 208 268
3 380 91 208
3 210 380 49
3 381 380 210
3 381 91 380
3 381 379 91
3 382 379 381
3 382 23 379
3 382 1003 1005
3 1005 1004 23
3 1003 1004 1005
3 383 1006 1008
3 1008 1007 382
3 1006 1007 1008
3 383 1009 1010
3 212 383 92
3 384 383 212
3 384 1011 1013
3 1013 1012 383
3 1011 1012 1013
3 384 1014 1015
3 385 1016 1018
3 1018 1017 384
3 1016 1017 1018
3 385 1019 1020
3 385 1021 1023
3 1021 279 1022
3 1021 1022 1023
3 386 279 385
3 386 55 279
3 214 386 93
3 387 386 214
3 387 55 386
3 387 131 55
3 388 131 387
3 388 7 131
3 272 215 24
3 389 215 272
3 389 94 215
3 217 389 51
3 390 389 217
3 390 94 389
3 390 388 94
3 391 388 390
3 391 7 388
3 391 224 7
3 392 224 391
3 392 27 224
3 219 392 95
3 393 392 219
3 393 27 392
3 393 100 27
3 376 100 393
3 376 1024 1026
3 1026 1025 100
3 1024 1025 1026
