ply
format ascii 1.0
element vertex 169
property float x
property float y
property float z
element face 133
property list uchar int vertex_index
end_header
0.529682 51.499611 47.994209
0.444399 44.036011 53.393845
0.108772 42.457977 59.637291
0.593357 40.22374 65.272362
1.497065 51.841637 41.571232
0.800081 58.319107 41.929703
0.865679 36.981537 54.94355
0.473736 40.154537 55.801765
0.310522 37.395088 64.73822
0.883224 48.267754 47.566921
1.380184 48.539558 44.415836
0.981354 51.769493 44.740242
1.119467 55.084488 41.757301
0.644287 55.007339 45.036255
0.177486 45.443451 60.177971
0.068359 46.428375 57.164703
0.831142 44.612198 50.220215
0.245722 39.363003 58.894043
0.180542 38.449158 61.895744
0.234343 41.430344 62.566132
0.530289 44.253548 62.974823
1.096266 46.853447 63.082169
0.189968 43.321728 56.555695
0.292082 54.692787 48.350967
0.507054 38.186052 56.898849
0.669708 38.568037 55.372658
0.703025 36.599552 56.469742
0.703025 36.599552 56.469742
0.900787 35.026033 55.965641
0.166186 47.426445 58.880607
0.334037 46.847943 60.323856
0.637771 44.324105 51.80703
0.829014 42.725401 51.45205
0.635643 42.437308 53.038865
0.453255 45.932991 52.089875
0.646626 46.221085 50.50306
0.637771 44.324105 51.80703
0.223677 36.436327 62.913014
0.254605 36.910149 61.453804
1.536103 46.032944 64.226028
1.120296 44.85146 64.286915
1.560133 44.030956 65.430774
1.520268 48.009655 62.971718
1.536103 46.032944 64.226028
1.688851 50.244061 41.481119
1.63041 48.593021 42.903421
1.438624 50.190597 42.993534
1.746018 51.78133 40.058409
1.688851 50.244061 41.481119
1.569627 53.3905 40.074711
1.746018 51.78133 40.058409
1.04509 58.252624 40.282654
1.204782 56.635315 40.196453
0.959774 56.701797 41.843502
0.895394 59.863659 40.310875
1.04509 58.252624 40.282654
0.121801 46.8242 55.586769
0.069572 48.379207 55.827606
0.256356 56.235023 48.474159
0.20674 54.409485 49.990196
0.356912 56.441509 46.812416
0.256356 56.235023 48.474159
0.846283 38.910071 53.813717
1.064547 37.329588 53.42582
0.650312 40.49657 54.242824
0.846283 38.910071 53.813717
0.669708 38.568037 55.372658
0.459067 42.095274 54.597805
0.635643 42.437308 53.038865
0.650312 40.49657 54.242824
1.084334 35.414079 54.479152
0.900787 35.026033 55.965641
1.064547 37.329588 53.42582
1.084334 35.414079 54.479152
0.348894 35.374246 65.712494
0.288667 35.909292 64.334251
0.486388 36.788792 66.047126
0.348894 35.374246 65.712494
0.52476 34.76795 67.0214
0.627806 38.203118 66.314198
0.45194 38.809414 65.005291
0.486388 36.788792 66.047126
1.131704 48.403656 45.991378
1.339746 46.798465 45.756044
1.091267 46.662563 47.331587
0.111622 47.918907 57.373974
0.122923 45.935913 58.671337
0.166186 47.426445 58.880607
0.069572 48.379207 55.827606
0.111622 47.918907 57.373974
1.045651 43.018849 49.909138
0.829014 42.725401 51.45205
1.065225 44.834785 48.658234
1.279734 43.241436 48.347156
1.045651 43.018849 49.909138
0.857183 46.439976 48.893568
1.091267 46.662563 47.331587
1.065225 44.834785 48.658234
0.672667 48.048862 49.176412
0.857183 46.439976 48.893568
0.646626 46.221085 50.50306
0.495896 49.664791 49.390057
0.706453 49.883682 47.780565
0.672667 48.048862 49.176412
0.287195 37.367071 59.952954
0.393047 37.790285 58.444989
0.213132 38.906081 60.394894
0.287195 37.367071 59.952954
0.254605 36.910149 61.453804
0.245532 37.922123 63.316982
0.223677 36.436327 62.913014
0.288667 35.909292 64.334251
0.510439 46.252991 61.722282
0.334037 46.847943 60.323856
0.353888 44.8485 61.576397
0.898213 39.524691 66.484726
0.627806 38.203118 66.314198
0.868841 41.536606 65.382012
0.898213 39.524691 66.484726
0.837307 43.55151 64.233242
0.561823 42.238644 64.123593
0.868841 41.536606 65.382012
0.813277 45.553498 63.028496
0.837307 43.55151 64.233242
1.120296 44.85146 64.286915
0.793427 47.552941 61.775955
0.510439 46.252991 61.722282
0.813277 45.553498 63.028496
1.085793 48.833957 61.777519
0.793427 47.552941 61.775955
1.085793 48.833957 61.777519
1.520268 48.009655 62.971718
1.583127 46.956383 44.246755
1.339746 46.798465 45.756044
1.583127 46.956383 44.246755
1.63041 48.593021 42.903421
1.380828 55.011925 40.167745
1.569627 53.3905 40.074711
1.308266 53.463062 41.664266
1.380828 55.011925 40.167745
1.204782 56.635315 40.196453
0.359729 39.75877 57.347904
0.507054 38.186052 56.898849
0.393047 37.790285 58.444989
0.182606 45.270876 55.282265
0.129163 44.875051 56.860199
0.121801 46.8242 55.586769
0.309821 45.628017 53.70134
0.317184 43.67887 54.97477
0.182606 45.270876 55.282265
0.453255 45.932991 52.089875
0.309821 45.628017 53.70134
0.369289 51.261437 49.631282
0.495896 49.664791 49.390057
0.250489 52.858024 49.809661
0.20674 54.409485 49.990196
0.410882 53.096199 48.172588
0.369289 51.261437 49.631282
0.250489 52.858024 49.809661
0.533015 56.598785 45.15506
0.468185 54.850063 46.693611
0.356912 56.441509 46.812416
0.610912 58.254669 43.601784
0.722184 56.663223 43.482979
0.533015 56.598785 45.15506
0.696591 59.90054 41.991948
0.610912 58.254669 43.601784
0.895394 59.863659 40.310875
0.696591 59.90054 41.991948
3 24 7 25
3 26 25 6
3 24 25 26
3 27 6 28
3 0 11 9
3 0 13 11
3 30 29 14
3 1 31 33
3 31 16 32
3 31 32 33
3 1 34 36
3 36 35 16
3 34 35 36
3 37 18 38
3 3 19 8
3 3 20 19
3 39 21 40
3 39 40 41
3 43 42 21
3 4 44 46
3 46 45 10
3 44 45 46
3 4 47 48
3 4 49 50
3 5 51 53
3 53 52 12
3 51 52 53
3 5 54 55
3 2 22 17
3 57 56 15
3 58 23 59
3 61 60 23
3 6 62 63
3 7 64 66
3 66 65 6
3 64 65 66
3 7 67 69
3 67 1 68
3 67 68 69
3 6 70 71
3 6 72 73
3 74 8 75
3 76 8 77
3 76 77 78
3 79 3 80
3 81 80 8
3 79 80 81
3 9 82 84
3 82 10 83
3 82 83 84
3 11 10 9
3 11 4 10
3 11 12 4
3 13 12 11
3 13 5 12
3 14 15 2
3 85 15 86
3 87 86 14
3 85 86 87
3 89 88 15
3 16 90 91
3 16 92 94
3 92 93 94
3 16 95 97
3 95 9 96
3 95 96 97
3 98 9 99
3 100 99 16
3 98 99 100
3 101 0 102
3 103 102 9
3 101 102 103
3 104 17 105
3 18 106 108
3 106 17 107
3 106 107 108
3 18 2 17
3 8 109 111
3 109 18 110
3 109 110 111
3 19 18 8
3 19 2 18
3 19 14 2
3 20 14 19
3 20 112 114
3 114 113 14
3 112 113 114
3 115 3 116
3 117 3 118
3 119 20 120
3 121 120 3
3 119 120 121
3 21 122 124
3 122 20 123
3 122 123 124
3 21 125 127
3 127 126 20
3 125 126 127
3 21 128 129
3 131 130 21
3 10 132 133
3 135 134 10
3 12 136 138
3 138 137 4
3 136 137 138
3 140 139 12
3 17 141 143
3 141 7 142
3 141 142 143
3 22 7 17
3 22 1 7
3 15 22 2
3 144 22 145
3 146 145 15
3 144 145 146
3 147 1 148
3 149 148 22
3 147 148 149
3 151 150 1
3 152 0 153
3 23 154 155
3 23 156 158
3 156 0 157
3 156 157 158
3 23 13 0
3 159 13 160
3 161 160 23
3 159 160 161
3 162 5 163
3 164 163 13
3 162 163 164
3 165 5 166
3 168 167 5
