ply
format ascii 1.0
element vertex 288
property float x
property float y
property float z
element face 262
property list uchar int vertex_index
end_header
-26.266478 -25.451096 -37.110443
-28.009529 -16.825783 -39.389393
-30.100767 -26.850584 -30.929806
-30.686157 -22.380886 -31.339073
-27.002159 -21.094709 -38.589134
-26.379051 -15.631702 -42.871262
-28.046795 -35.112556 -26.108021
-25.396109 -38.997078 -24.901852
-28.729708 -12.482728 -39.377247
-29.918888 -17.6091 -35.296467
-29.249884 -22.041485 -35.097904
-27.87746 -26.215231 -34.28289
-28.378092 -30.908445 -30.098732
-26.486015 -30.39604 -32.882183
-26.564693 -23.247139 -37.931919
-26.323151 -20.593979 -40.070599
-26.18224 -22.844746 -39.22897
-26.24371 -25.179245 -38.221741
-26.084772 -38.888481 -23.652046
-24.610802 -40.853447 -23.04306
-29.848381 -15.254494 -35.121391
-30.219069 -17.639822 -33.209145
-30.570827 -24.679893 -31.190498
-30.225391 -22.325167 -33.209293
-29.761259 -24.500685 -32.988739
-28.613304 -24.148676 -34.76162
-29.060246 -26.588135 -32.640667
-28.436638 -14.670008 -39.497494
-27.844893 -11.949633 -41.588413
-27.444414 -14.089341 -41.525715
-26.291742 -15.099251 -44.262024
-26.33606 -12.820488 -44.961838
-27.313099 -30.640949 -31.564224
-26.479038 -32.716007 -30.811195
-24.011345 -41.584229 -24.983604
-30.416466 -19.941462 -31.359154
-27.508276 -18.961979 -39.079216
-27.015409 -16.235132 -41.234402
-26.620432 -18.398113 -40.742607
-27.503374 -37.012253 -24.18129
-26.735006 -37.017063 -25.557529
-25.963261 -37.020546 -26.816456
-29.137081 -10.410079 -36.565365
-28.842604 -10.25306 -39.007187
-29.36652 -12.790169 -37.065022
-29.340599 -15.086889 -37.335842
-29.083227 -17.312986 -37.386967
-30.389866 -20.042343 -33.288715
-29.705885 -19.867292 -35.282181
-28.638723 -19.48041 -37.239086
-28.068752 -21.603767 -36.914513
-27.448702 -23.704273 -36.429131
-26.862255 -25.81295 -35.788342
-23.203819 -43.011429 -22.330662
-28.160553 -9.807163 -41.392982
-26.664787 -13.440847 -43.361515
-29.338997 -28.91444 -30.566566
-28.20948 -28.61912 -32.168564
-27.1364 -28.280264 -33.660038
-26.392595 -27.971813 -34.987808
-24.147671 -41.150841 -24.119114
-24.893261 -39.181442 -25.976849
-25.439568 -37.102962 -27.902828
-25.801058 -34.916367 -29.892227
-26.008743 -32.624413 -31.935707
-26.109852 -30.231995 -34.018787
-24.113273 -41.721287 -22.140921
-24.90568 -40.74017 -22.41699
-29.991311 -17.495773 -32.22217
-29.961987 -16.37307 -33.083216
-26.444608 -13.707022 -45.277535
-26.562871 -14.903456 -44.819032
-26.398191 -33.820871 -29.799121
-26.905197 -32.802068 -30.16185
-26.267737 -19.231971 -41.127956
-26.267734 -20.381325 -40.696558
-27.104189 -37.890678 -23.237106
-27.744829 -36.96188 -23.478361
-29.307253 -11.600624 -35.655501
-28.975328 -10.307074 -35.370394
-29.421973 -12.790669 -35.905329
-29.251801 -11.600124 -36.815193
-29.307253 -11.600624 -35.655501
-27.611133 -10.559145 -42.613411
-27.430313 -11.61909 -42.60839
-26.424295 -11.712395 -45.2043
-26.430509 -11.409277 -45.983982
-28.622155 -34.152849 -26.343754
-28.387225 -35.119608 -25.383454
-28.887096 -31.013835 -29.322593
-28.356051 -31.991993 -29.088797
-28.858545 -29.911442 -30.332649
-29.367549 -30.016832 -29.556511
-28.887096 -31.013835 -29.322593
-23.608166 -42.360008 -23.660122
-23.675745 -42.081135 -23.224888
-23.13624 -43.290302 -22.765896
-24.829639 -39.340543 -26.41428
-24.452303 -40.382835 -25.480227
-24.38868 -40.541937 -25.917658
-25.102792 -38.301304 -27.37727
-25.166415 -38.142202 -26.939839
-24.829639 -39.340543 -26.41428
-25.778863 -34.972994 -30.352825
-25.570441 -36.115433 -29.345672
-25.882706 -33.827017 -31.374565
-25.904901 -33.77039 -30.913967
-25.778863 -34.972994 -30.352825
-26.201847 -30.205412 -34.492012
-26.083276 -31.440329 -33.447654
-26.137524 -28.989306 -35.070349
-26.201847 -30.205412 -34.492012
-26.197279 -21.506709 -40.275743
-26.267734 -20.381325 -40.696558
-26.252696 -21.719363 -39.649784
-26.298235 -22.695223 -39.761612
-26.197279 -21.506709 -40.275743
-26.32897 -23.862473 -39.257998
-26.298235 -22.695223 -39.761612
-26.212975 -24.011996 -38.725355
-26.538086 -25.101641 -38.66617
-26.32897 -23.862473 -39.257998
-25.642665 -39.757686 -22.721483
-26.394888 -38.828792 -22.972485
-25.347787 -39.870964 -23.347553
-25.642665 -39.757686 -22.721483
-24.90568 -40.74017 -22.41699
-29.776643 -15.180406 -34.039339
-29.662903 -14.022832 -34.933514
-30.033725 -16.447158 -34.165268
-29.776643 -15.180406 -34.039339
-29.961987 -16.37307 -33.083216
-27.230074 -12.688944 -42.577041
-27.430313 -11.61909 -42.60839
-27.644653 -13.019487 -41.557064
-26.466766 -12.56764 -45.627442
-26.313901 -13.959869 -44.611931
-26.444608 -13.707022 -45.277535
-26.430509 -11.409277 -45.983982
-26.466766 -12.56764 -45.627442
-28.190403 -34.094049 -27.093441
-27.597053 -35.063992 -26.809103
-27.854724 -31.898287 -29.805619
-28.356051 -31.991993 -29.088797
-27.322228 -31.764539 -30.538365
-27.845596 -30.774697 -30.831478
-27.854724 -31.898287 -29.805619
-26.896068 -31.678478 -31.18771
-27.322228 -31.764539 -30.538365
-26.905197 -32.802068 -30.16185
-23.675358 -42.940208 -24.416735
-23.540003 -42.576702 -24.092367
-24.162875 -41.882575 -25.314579
-23.675358 -42.940208 -24.416735
-24.38868 -40.541937 -25.917658
-24.162875 -41.882575 -25.314579
-30.012831 -19.732374 -30.483052
-30.090009 -18.646593 -31.297175
-30.403696 -21.047778 -30.476771
-30.012831 -19.732374 -30.483052
-30.538542 -22.267489 -30.46673
-30.551312 -21.161174 -31.349114
-30.403696 -21.047778 -30.476771
-30.72005 -23.499466 -30.40242
-30.538542 -22.267489 -30.46673
-30.662385 -24.648969 -30.328133
-30.628492 -23.530389 -31.264786
-30.72005 -23.499466 -30.40242
-30.628543 -25.801791 -30.215055
-30.662385 -24.648969 -30.328133
-30.393514 -26.887137 -30.084709
-30.335797 -25.765239 -31.060152
-30.628543 -25.801791 -30.215055
-26.416378 -18.134038 -41.46396
-26.471792 -19.496046 -40.406603
-26.267737 -19.231971 -41.127956
-26.295687 -16.750833 -42.528288
-26.499741 -17.014907 -41.806934
-26.416378 -18.134038 -41.46396
-26.252033 -16.484607 -43.223669
-26.335397 -15.365476 -43.566643
-26.295687 -16.750833 -42.528288
-26.35427 -16.272513 -43.81826
-26.252033 -16.484607 -43.223669
-26.562871 -14.903456 -44.819032
-26.35427 -16.272513 -43.81826
-28.115514 -36.069456 -24.420088
-27.744829 -36.96188 -23.478361
-27.775084 -36.062404 -25.144655
-28.387225 -35.119608 -25.383454
-28.115514 -36.069456 -24.420088
-26.794073 -37.950367 -23.916668
-27.104189 -37.890678 -23.237106
-26.394888 -38.828792 -22.972485
-26.941158 -36.016245 -26.533857
-27.597053 -35.063992 -26.809103
-27.390901 -36.064809 -25.832775
-26.555286 -36.017987 -27.16332
-26.941158 -36.016245 -26.533857
-26.349134 -37.018805 -26.186992
-26.140303 -35.97314 -27.801752
-26.555286 -36.017987 -27.16332
-28.894177 -9.170549 -36.207105
-28.975328 -10.307074 -35.370394
-28.942084 -9.189283 -37.473198
-28.894177 -9.170549 -36.207105
-28.989843 -10.33157 -37.786276
-28.794846 -9.110774 -38.694109
-28.942084 -9.189283 -37.473198
-29.60745 -14.022331 -36.093207
-29.421973 -12.790669 -35.905329
-29.662903 -14.022832 -34.933514
-30.317768 -18.790642 -32.284149
-29.991311 -17.495773 -32.22217
-30.090009 -18.646593 -31.297175
-22.640289 -43.887703 -21.469952
-23.409782 -42.800278 -21.784721
-22.575378 -44.23365 -21.917423
-22.640289 -43.887703 -21.469952
-23.13624 -43.290302 -22.765896
-22.575378 -44.23365 -21.917423
-28.594433 -8.952946 -39.96273
-28.794846 -9.110774 -38.694109
-28.253408 -8.729997 -41.155628
-28.594433 -8.952946 -39.96273
-28.501579 -10.030112 -40.200085
-27.930077 -8.441547 -42.376587
-28.253408 -8.729997 -41.155628
-27.768963 -9.48791 -42.515696
-28.002723 -10.878398 -41.490698
-27.611133 -10.559145 -42.613411
-27.930077 -8.441547 -42.376587
-27.768963 -9.48791 -42.515696
-26.84026 -12.364697 -43.494941
-27.230074 -12.688944 -42.577041
-27.0546 -13.765094 -42.443615
-26.588658 -12.022575 -44.404139
-26.500424 -13.130667 -44.161676
-26.424295 -11.712395 -45.2043
-26.84026 -12.364697 -43.494941
-26.588658 -12.022575 -44.404139
-30.156682 -27.966686 -29.930481
-30.393514 -26.887137 -30.084709
-28.622155 -34.152849 -26.343754
-28.190403 -34.094049 -27.093441
-29.775797 -28.998613 -29.748861
-29.367549 -30.016832 -29.556511
-29.719882 -27.882512 -30.748186
-30.156682 -27.966686 -29.930481
-29.775797 -28.998613 -29.748861
-23.907311 -41.932438 -22.686861
-24.113273 -41.721287 -22.140921
-23.409782 -42.800278 -21.784721
-24.079508 -41.367535 -24.551359
-23.608166 -42.360008 -23.660122
-23.540003 -42.576702 -24.092367
-25.878456 -36.014348 -28.344938
-26.140303 -35.97314 -27.801752
-25.701414 -37.061754 -27.359642
-25.389696 -37.208731 -28.350973
-25.102792 -38.301304 -27.37727
-25.620313 -36.009664 -28.897527
-25.389696 -37.208731 -28.350973
-25.570441 -36.115433 -29.345672
-26.059202 -34.921051 -29.339637
-25.878456 -36.014348 -28.344938
-25.620313 -36.009664 -28.897527
-26.140048 -33.816187 -30.351711
-26.398191 -33.820871 -29.799121
-26.059202 -34.921051 -29.339637
-26.032722 -32.636538 -32.406115
-25.882706 -33.827017 -31.374565
-26.059297 -31.428204 -32.977247
-26.032722 -32.636538 -32.406115
-26.083276 -31.440329 -33.447654
-26.278895 -27.859215 -35.554859
-26.251224 -29.101904 -34.503298
-26.137524 -28.989306 -35.070349
-26.215837 -26.598856 -36.616176
-26.329536 -26.711455 -36.049126
-26.278895 -27.859215 -35.554859
-26.204453 -26.46293 -37.171825
-26.255094 -25.315171 -37.666092
-26.215837 -26.598856 -36.616176
-26.387304 -26.40545 -37.637183
-26.204453 -26.46293 -37.171825
-26.538086 -25.101641 -38.66617
-26.387304 -26.40545 -37.637183
3 0 16 14
3 0 17 16
3 66 19 67
3 68 21 69
3 2 24 22
3 2 26 24
3 1 29 27
3 71 70 30
3 72 33 73
3 4 38 36
3 75 74 15
3 76 39 77
3 7 40 18
3 7 41 40
3 78 42 79
3 80 44 81
3 82 81 42
3 80 81 82
3 9 45 20
3 9 46 45
3 3 47 35
3 10 48 23
3 10 49 48
3 10 50 49
3 11 51 25
3 11 52 51
3 8 54 43
3 84 83 28
3 5 55 37
3 86 85 31
3 6 87 88
3 12 89 90
3 12 91 93
3 91 56 92
3 91 92 93
3 12 57 56
3 13 58 32
3 13 59 58
3 94 60 95
3 96 95 53
3 94 95 96
3 97 61 98
3 99 98 34
3 97 98 99
3 100 62 101
3 102 101 61
3 100 101 102
3 103 63 104
3 105 64 106
3 107 106 63
3 105 106 107
3 108 65 109
3 111 110 65
3 14 15 4
3 16 15 14
3 16 112 114
3 114 113 15
3 112 113 114
3 16 115 116
3 17 117 119
3 119 118 16
3 117 118 119
3 17 120 121
3 122 18 123
3 19 124 126
3 124 18 125
3 124 125 126
3 19 7 18
3 127 20 128
3 21 129 131
3 129 20 130
3 129 130 131
3 21 9 20
3 22 23 3
3 24 23 22
3 24 10 23
3 24 25 10
3 26 25 24
3 26 11 25
3 27 28 8
3 29 28 27
3 29 132 134
3 134 133 28
3 132 133 134
3 30 31 5
3 135 31 136
3 137 136 30
3 135 136 137
3 139 138 31
3 141 140 6
3 142 12 143
3 144 32 145
3 146 145 12
3 144 145 146
3 33 147 149
3 147 32 148
3 147 148 149
3 33 13 32
3 150 34 151
3 152 34 153
3 155 154 34
3 156 35 157
3 158 35 159
3 160 3 161
3 162 161 35
3 160 161 162
3 163 3 164
3 165 22 166
3 167 166 3
3 165 166 167
3 168 22 169
3 170 2 171
3 172 171 22
3 170 171 172
3 36 37 1
3 38 37 36
3 38 5 37
3 15 38 4
3 173 38 174
3 175 174 15
3 173 174 175
3 176 5 177
3 178 177 38
3 176 177 178
3 179 30 180
3 181 180 5
3 179 180 181
3 182 30 183
3 185 184 30
3 39 186 187
3 39 188 190
3 188 6 189
3 188 189 190
3 18 191 193
3 191 39 192
3 191 192 193
3 40 39 18
3 40 6 39
3 40 194 196
3 196 195 6
3 194 195 196
3 41 197 199
3 199 198 40
3 197 198 199
3 41 200 201
3 42 202 203
3 42 204 205
3 42 206 208
3 206 43 207
3 206 207 208
3 44 43 42
3 44 8 43
3 20 209 211
3 209 44 210
3 209 210 211
3 45 44 20
3 45 8 44
3 45 27 8
3 46 27 45
3 46 1 27
3 35 212 214
3 212 21 213
3 212 213 214
3 47 21 35
3 47 9 21
3 23 47 3
3 48 47 23
3 48 9 47
3 48 46 9
3 49 46 48
3 49 1 46
3 49 36 1
3 50 36 49
3 50 4 36
3 25 50 10
3 51 50 25
3 51 4 50
3 51 14 4
3 52 14 51
3 52 0 14
3 215 53 216
3 217 53 218
3 220 219 53
3 43 221 222
3 54 223 225
3 225 224 43
3 223 224 225
3 54 226 227
3 28 54 8
3 228 54 229
3 230 229 28
3 228 229 230
3 232 231 54
3 37 29 1
3 55 29 37
3 55 233 235
3 235 234 29
3 233 234 235
3 31 55 5
3 236 55 237
3 238 237 31
3 236 237 238
3 240 239 55
3 241 2 242
3 244 243 6
3 56 245 246
3 56 247 249
3 247 2 248
3 247 248 249
3 56 26 2
3 57 26 56
3 57 11 26
3 32 57 12
3 58 57 32
3 58 11 57
3 58 52 11
3 59 52 58
3 59 0 52
3 53 250 252
3 250 19 251
3 250 251 252
3 60 19 53
3 60 7 19
3 34 253 255
3 253 60 254
3 253 254 255
3 61 60 34
3 61 7 60
3 61 41 7
3 62 41 61
3 62 256 258
3 258 257 41
3 256 257 258
3 259 62 260
3 63 261 263
3 261 62 262
3 261 262 263
3 63 264 266
3 266 265 62
3 264 265 266
3 63 267 269
3 267 33 268
3 267 268 269
3 64 33 63
3 64 13 33
3 270 64 271
3 65 272 274
3 272 64 273
3 272 273 274
3 65 13 64
3 65 59 13
3 275 59 276
3 277 276 65
3 275 276 277
3 278 0 279
3 280 279 59
3 278 279 280
3 281 17 282
3 283 282 0
3 281 282 283
3 284 17 285
3 287 286 17
