ply
format ascii 1.0
element vertex 157
property float x
property float y
property float z
element face 140
property list uchar int vertex_index
end_header
-40.317791 -4.66053 64.306519
-46.682701 0.527075 58.645046
-45.872223 -4.548947 59.466537
-36.211315 -3.173519 64.780884
-39.76709 0.000277 62.275642
-42.912666 -6.758967 62.874313
-37.231033 -7.473784 67.790649
-43.582825 -1.994761 61.350338
-43.234386 3.065159 60.228954
-35.601814 -0.855715 63.587555
-49.210823 0.18136 55.973801
-48.030216 1.703678 57.223236
-41.830788 -5.624036 63.741417
-43.375687 -4.398436 62.101311
-41.943733 -3.311235 62.770561
-39.322247 2.514891 61.648499
-41.545975 1.553225 61.236565
-41.118256 4.165165 60.814346
-46.46109 -2.038544 59.050713
-38.416523 -3.856691 64.625313
-40.11665 -2.379883 63.190464
-37.969158 -1.577709 63.434891
-37.45874 0.835835 62.539513
-36.945641 3.411493 61.998108
-41.498901 -7.913506 64.696785
-40.333443 -6.889347 65.489624
-38.896908 -8.201734 67.338058
-38.741734 -6.046623 65.981812
-36.777073 -5.361818 66.237495
-44.380104 -5.641602 61.135277
-44.934986 -3.204438 60.551201
-45.182247 -0.712069 59.997086
-41.83876 -0.931046 61.903584
-43.525822 0.48514 60.706982
-45.111732 1.855011 59.523678
-47.356459 1.115376 57.934141
-47.965931 0.39904 57.383921
-47.292174 -0.189262 58.094825
-46.608101 1.840836 58.457555
-47.281858 2.429137 57.746651
-47.356459 1.115376 57.934141
-39.979662 4.673654 61.069059
-40.220252 3.340028 61.231423
-39.081657 3.848517 61.486136
-40.868901 5.540311 60.715087
-39.979662 4.673654 61.069059
-46.609382 -4.010839 58.650972
-46.147571 -5.272365 58.781835
-46.166657 -3.293745 59.258625
-46.903816 -2.755637 58.44306
-46.609382 -4.010839 58.650972
-36.237024 1.232388 62.651286
-36.530277 -0.00994 63.063534
-35.308561 0.386613 63.175307
-35.980474 2.520217 62.380583
-37.202191 2.123664 62.268811
-36.237024 1.232388 62.651286
-35.725897 3.853467 62.162233
-35.980474 2.520217 62.380583
-40.823717 -8.514696 65.645038
-41.237186 -9.066419 65.111999
-40.240988 -8.002616 66.041458
-40.916172 -7.401426 65.093205
-40.823717 -8.514696 65.645038
-38.06397 -7.837759 67.564354
-38.205679 -8.882821 68.294971
-37.372741 -8.518846 68.521266
-49.784947 0.693458 55.130795
-49.198932 1.487533 55.821452
-43.646385 -6.200285 62.004795
-43.977816 -6.84503 61.413943
-43.244096 -7.403713 62.283461
-43.997535 3.787088 59.692408
-44.936209 3.182014 59.33977
-44.173059 2.460085 59.876316
-45.425361 -5.782188 59.666725
-46.147571 -5.272365 58.781835
-34.705755 -1.70366 64.227127
-35.906565 -2.014617 64.184219
-35.010506 -2.862562 64.823791
-34.362602 -0.503463 63.658026
-34.705755 -1.70366 64.227127
-35.308561 0.386613 63.175307
-34.362602 -0.503463 63.658026
-36.505359 -8.208823 68.74366
-37.372741 -8.518846 68.521266
-36.222435 -7.185246 67.906845
-36.505359 -8.208823 68.74366
-48.556235 -0.362119 56.759203
-48.983831 -1.115612 56.085133
-48.62052 0.942519 56.598518
-48.556235 -0.362119 56.759203
-47.965931 0.39904 57.383921
-48.608629 2.248692 56.446169
-49.198932 1.487533 55.821452
-48.62052 0.942519 56.598518
-47.886721 3.028252 57.046915
-48.608629 2.248692 56.446169
-47.886721 3.028252 57.046915
-47.281858 2.429137 57.746651
-41.943308 4.962087 60.370321
-43.001373 4.412084 60.077625
-42.176321 3.615162 60.52165
-41.943308 4.962087 60.370321
-40.868901 5.540311 60.715087
-47.181368 -1.472071 58.297659
-46.903816 -2.755637 58.44306
-46.571895 -0.755734 58.84788
-47.292174 -0.189262 58.094825
-47.181368 -1.472071 58.297659
-37.893355 4.296819 61.66094
-39.081657 3.848517 61.486136
-38.133944 2.963192 61.823304
-36.713099 4.784377 61.891043
-37.893355 4.296819 61.66094
-36.713099 4.784377 61.891043
-35.725897 3.853467 62.162233
-42.575945 -7.935323 63.228603
-43.244096 -7.403713 62.283461
-41.869062 -8.512593 64.139839
-41.237186 -9.066419 65.111999
-42.205783 -7.336237 63.785549
-42.575945 -7.935323 63.228603
-41.869062 -8.512593 64.139839
-38.874424 -9.285697 67.934708
-38.205679 -8.882821 68.294971
-39.522721 -8.65881 66.965675
-38.874424 -9.285697 67.934708
-39.615176 -7.54554 66.413841
-40.240988 -8.002616 66.041458
-39.522721 -8.65881 66.965675
-35.995455 -6.129263 67.130268
-37.004053 -6.417801 67.014072
-36.222435 -7.185246 67.906845
-35.654364 -5.073286 66.292648
-35.995455 -6.129263 67.130268
-35.371485 -3.979137 65.564343
-36.494194 -4.267669 65.509189
-35.654364 -5.073286 66.292648
-35.010506 -2.862562 64.823791
-35.371485 -3.979137 65.564343
-49.637348 -0.597226 55.237711
-48.983831 -1.115612 56.085133
-49.637348 -0.597226 55.237711
-49.784947 0.693458 55.130795
-44.679302 -6.328515 60.501095
-43.977816 -6.84503 61.413943
-45.126164 -5.095275 60.300907
-45.425361 -5.782188 59.666725
-44.679302 -6.328515 60.501095
-45.822617 2.504803 58.896872
-46.608101 1.840836 58.457555
-45.897216 1.191043 59.084362
-45.822617 2.504803 58.896872
-44.936209 3.182014 59.33977
-43.997535 3.787088 59.692408
-43.001373 4.412084 60.077625
3 1 35 37
3 35 11 36
3 35 36 37
3 1 38 40
3 40 39 11
3 38 39 40
3 0 14 12
3 41 17 42
3 43 42 15
3 41 42 43
3 45 44 17
3 2 46 47
3 2 48 50
3 48 18 49
3 48 49 50
3 3 21 19
3 51 22 52
3 53 52 9
3 51 52 53
3 54 23 55
3 56 55 22
3 54 55 56
3 58 57 23
3 59 24 60
3 61 25 62
3 63 62 24
3 61 62 63
3 6 64 66
3 64 26 65
3 64 65 66
3 6 27 26
3 6 28 27
3 68 67 10
3 5 69 71
3 69 29 70
3 69 70 71
3 7 30 13
3 7 31 30
3 4 32 20
3 8 33 16
3 8 34 33
3 8 72 74
3 74 73 34
3 72 73 74
3 75 2 76
3 77 9 78
3 79 78 3
3 77 78 79
3 80 9 81
3 83 82 9
3 84 6 85
3 87 86 6
3 88 10 89
3 11 90 92
3 90 10 91
3 90 91 92
3 11 93 95
3 95 94 10
3 93 94 95
3 11 96 97
3 99 98 11
3 12 13 5
3 14 13 12
3 14 7 13
3 15 16 4
3 17 16 15
3 17 8 16
3 17 100 102
3 102 101 8
3 100 101 102
3 104 103 17
3 18 105 106
3 18 107 109
3 107 1 108
3 107 108 109
3 19 20 0
3 21 20 19
3 21 4 20
3 9 21 3
3 22 21 9
3 22 4 21
3 22 15 4
3 23 15 22
3 23 110 112
3 112 111 15
3 110 111 112
3 23 113 114
3 116 115 23
3 117 5 118
3 24 119 120
3 24 121 123
3 121 5 122
3 121 122 123
3 24 12 5
3 25 12 24
3 25 0 12
3 26 124 125
3 26 126 127
3 26 128 130
3 128 25 129
3 128 129 130
3 27 25 26
3 27 0 25
3 27 19 0
3 28 19 27
3 28 3 19
3 131 28 132
3 133 132 6
3 131 132 133
3 134 28 135
3 136 3 137
3 138 137 28
3 136 137 138
3 140 139 3
3 10 141 142
3 144 143 10
3 29 145 146
3 29 147 149
3 147 2 148
3 147 148 149
3 13 29 5
3 30 29 13
3 30 2 29
3 30 18 2
3 31 18 30
3 31 1 18
3 20 14 0
3 32 14 20
3 32 7 14
3 16 32 4
3 33 32 16
3 33 7 32
3 33 31 7
3 34 31 33
3 34 1 31
3 34 150 152
3 152 151 1
3 150 151 152
3 154 153 34
3 156 155 8
