ply
format ascii 1.0
element vertex 489
property float x
property float y
property float z
element face 452
property list uchar int vertex_index
end_header
44.38781 -57.398571 -32.334053
62.446362 -33.611233 -40.036118
66.350418 -20.12406 -39.887909
67.099739 -37.529243 -33.698372
48.7052 -39.047516 -38.343628
59.996002 -51.310184 -32.978561
54.585487 -45.974083 -36.250626
56.71302 -28.525669 -43.966263
41.74807 -39.01683 -37.447548
39.751465 -33.919445 -38.76886
60.844772 -61.142776 -27.767229
62.628086 -53.165413 -30.862261
58.12339 -59.702122 -29.793745
51.682568 -42.733944 -37.423576
64.823593 -26.858294 -40.445419
62.212494 -24.800062 -43.941635
59.161499 -22.590216 -46.558418
59.808037 -31.161064 -42.473549
67.175034 -28.743587 -36.608345
64.816742 -35.748047 -37.003578
44.024609 -43.848785 -36.314491
63.98642 -44.625038 -33.868416
61.547638 -42.537163 -36.370773
57.32695 -48.852257 -34.751244
59.020771 -39.997578 -38.480423
56.22023 -37.132942 -40.025948
70.060562 -35.657982 -29.646307
39.040775 -38.532791 -36.971954
38.207157 -35.941933 -37.56134
59.521057 -60.521782 -28.859426
57.116051 -63.716854 -28.269751
45.784584 -59.184071 -31.743505
63.753418 -30.264317 -40.386261
63.559731 -25.853842 -42.267258
62.500114 -29.174833 -41.967957
61.154518 -28.02302 -43.366333
61.177349 -32.419445 -41.354324
68.300293 -33.987309 -33.293892
68.248375 -29.656853 -34.676842
67.232239 -33.134247 -35.108727
66.106697 -32.238731 -36.911942
65.968895 -36.681892 -35.372787
42.610931 -34.42963 -39.067772
43.783775 -36.892036 -38.397232
65.782677 -50.296879 -29.638582
61.322533 -52.325275 -31.975378
63.3629 -48.955536 -32.365181
62.098801 -48.034294 -33.551155
62.769501 -43.646603 -35.162109
60.827553 -46.958946 -34.644119
53.52729 -50.415127 -34.474678
54.923523 -51.871456 -33.765274
55.972736 -47.45813 -35.538002
58.250862 -44.435394 -36.576233
56.909691 -43.028267 -37.39917
57.663635 -38.600342 -39.334312
55.50811 -41.540237 -38.106697
50.188629 -40.955147 -37.89949
58.088875 -25.606464 -45.380928
57.436913 -21.495089 -47.380577
56.373795 -24.411522 -45.928352
54.585461 -23.303127 -46.173187
55.024029 -27.211449 -44.328362
69.263428 -34.819687 -31.473795
40.742432 -36.469624 -38.086128
41.46492 -31.926727 -39.816208
62.05571 -61.564983 -26.481108
63.036331 -57.77187 -28.082567
63.883568 -53.818871 -29.608541
61.788498 -57.230988 -29.33359
60.460083 -56.492798 -30.415125
59.087406 -55.564075 -31.363817
50.977982 -53.340069 -33.471275
52.110901 -48.86277 -35.134361
53.154572 -44.401993 -36.879417
50.669891 -47.207653 -35.736145
49.21347 -45.434883 -36.281288
47.76585 -43.526314 -36.786285
65.686241 -23.452942 -40.25856
64.397804 -22.499722 -42.272865
61.548092 -20.518196 -45.924599
60.753288 -23.704865 -45.395164
59.687584 -26.824451 -44.519836
58.318596 -29.854477 -43.351219
67.998032 -25.353931 -36.158607
66.892395 -24.396847 -38.205948
66.026978 -27.817215 -38.542145
64.947784 -31.285065 -38.683411
63.648621 -34.723534 -38.569984
38.691383 -31.438667 -39.477074
43.039391 -55.443768 -32.875908
44.20155 -50.715485 -34.324814
45.3228 -46.051315 -35.792137
46.360641 -41.466644 -37.282364
45.028755 -39.250694 -37.808044
64.60173 -49.708981 -31.067732
65.193459 -45.460167 -32.487915
65.65451 -41.10405 -33.909019
64.481468 -40.208782 -35.40464
63.301773 -39.196915 -36.829826
62.107414 -38.076614 -38.167412
57.699287 -54.466415 -32.219452
56.311058 -53.227257 -33.014153
58.664101 -50.143654 -33.898674
59.549686 -45.75164 -35.653496
60.306679 -41.314758 -37.484009
60.872536 -36.860672 -39.38739
59.56448 -35.563221 -40.452057
58.157646 -34.198524 -41.325928
56.644859 -32.781387 -41.987961
54.040962 -39.972778 -38.691277
54.695354 -35.601044 -40.553177
55.044384 -31.328682 -42.442665
37.523668 -36.954668 -36.857021
37.871122 -38.270698 -36.612869
37.187634 -39.283434 -35.90855
56.593655 -65.664938 -27.535267
57.812748 -64.063856 -27.789698
57.290352 -66.01194 -27.055214
45.674679 -55.980711 -32.764293
46.373066 -56.873461 -32.46902
45.086197 -58.291321 -32.038779
44.973461 -55.059248 -33.057113
45.674679 -55.980711 -32.764293
43.600975 -33.432612 -39.533596
42.96188 -32.213463 -39.919712
65.417691 -52.29516 -28.9141
66.324322 -50.519709 -28.851381
49.843593 -37.809161 -38.951363
50.585308 -38.762976 -38.729293
49.446914 -40.001331 -38.121559
49.084519 -36.876623 -39.141125
49.843593 -37.809161 -38.951363
65.939121 -18.034703 -40.754707
66.572895 -18.539632 -39.639381
69.208954 -36.923328 -30.855933
69.661995 -35.238834 -30.560051
69.607521 -37.342476 -29.942189
68.720967 -36.561451 -31.730577
69.208954 -36.923328 -30.855933
61.450241 -61.353879 -27.124168
60.925972 -63.235506 -26.324585
60.320503 -63.024403 -26.967645
50.2644 -52.529981 -33.79211
49.68022 -54.799427 -33.018936
50.83086 -50.291332 -34.623654
51.544441 -51.101419 -34.302818
50.2644 -52.529981 -33.79211
50.110355 -49.463774 -34.924546
51.390396 -48.035212 -35.435253
50.83086 -50.291332 -34.623654
47.956516 -46.763302 -35.773494
48.666279 -47.705534 -35.496014
47.232706 -45.809017 -36.025993
48.48966 -44.480598 -36.533787
47.956516 -46.763302 -35.773494
62.618313 -23.161245 -44.064293
63.291932 -23.688136 -43.227104
62.886112 -25.326952 -43.104446
61.880293 -22.659129 -44.933117
62.286112 -21.020312 -45.055775
62.618313 -23.161245 -44.064293
38.086826 -30.266197 -39.829575
37.97694 -32.441933 -38.818921
42.407818 -54.377682 -33.124275
41.822371 -56.794687 -32.392288
42.988898 -52.013541 -33.848728
43.62047 -53.079627 -33.600361
42.407818 -54.377682 -33.124275
44.673704 -44.95005 -36.053314
44.12467 -47.296631 -35.316609
43.475575 -46.195366 -35.577785
42.290024 -40.255313 -37.153549
41.79269 -42.610309 -36.362408
41.250737 -41.371826 -36.656407
45.463218 -37.017616 -38.577679
44.406265 -38.071365 -38.102638
44.840728 -35.838287 -38.872273
46.148124 -38.122128 -38.308044
45.463218 -37.017616 -38.577679
56.475166 -56.004526 -31.796277
57.194797 -56.583545 -31.418105
53.90611 -34.803978 -40.746914
53.608522 -36.96061 -39.858383
54.080625 -32.667797 -41.691658
54.869869 -33.464863 -41.497921
53.90611 -34.803978 -40.746914
54.222898 -30.594373 -42.585254
54.080625 -32.667797 -41.691658
58.690212 -20.543083 -47.554958
59.555706 -21.044779 -46.981339
56.900294 -19.526409 -48.347229
56.520173 -20.987306 -47.610329
53.687967 -22.840665 -46.163483
53.949763 -24.633713 -45.327362
70.345295 -36.094706 -28.726349
70.291507 -34.103901 -29.322275
70.014202 -37.695553 -29.046245
70.345295 -36.094706 -28.726349
69.607521 -37.342476 -29.942189
70.014202 -37.695553 -29.046245
38.287931 -39.566128 -36.318176
38.606138 -40.907123 -36.081668
38.623966 -37.237362 -37.266647
38.287931 -39.566128 -36.318176
37.871122 -38.270698 -36.612869
59.677109 -62.776817 -27.538437
60.320503 -63.024403 -26.967645
59.015251 -62.46632 -28.084536
60.182914 -60.832279 -28.313327
59.677109 -62.776817 -27.538437
58.318554 -62.119318 -28.564588
59.015251 -62.46632 -28.084536
57.812748 -64.063856 -27.789698
47.083521 -57.721428 -32.155051
47.795166 -58.536093 -31.839259
46.496229 -59.998736 -31.427713
47.083521 -57.721428 -32.155051
46.373066 -56.873461 -32.46902
68.274334 -31.822081 -33.985367
68.72612 -30.118445 -33.72028
68.752079 -32.283673 -33.028805
42.897692 -45.026756 -35.831359
43.475575 -46.195366 -35.577785
44.187397 -34.663815 -39.198326
43.197353 -35.660833 -38.732502
43.600975 -33.432612 -39.533596
44.840728 -35.838287 -38.872273
44.187397 -34.663815 -39.198326
66.622379 -48.506655 -29.53161
66.324322 -50.519709 -28.851381
66.074074 -48.224299 -30.324534
66.622379 -48.506655 -29.53161
54.225407 -51.143292 -34.119976
53.661079 -53.360594 -33.280052
52.962963 -52.632429 -33.634754
51.355159 -39.637661 -38.53154
52.102129 -40.52706 -38.293582
50.935598 -41.844545 -37.661533
51.355159 -39.637661 -38.53154
50.585308 -38.762976 -38.729293
55.988613 -22.445523 -46.884216
56.520173 -20.987306 -47.610329
56.905354 -22.953305 -46.654465
55.479628 -23.857325 -46.05077
55.094447 -21.891325 -47.006633
55.988613 -22.445523 -46.884216
54.169047 -26.587875 -44.40495
53.949763 -24.633713 -45.327362
54.804745 -25.257288 -45.250774
70.021572 -33.597477 -30.259298
70.291507 -34.103901 -29.322275
69.623005 -33.17833 -31.173043
70.021572 -33.597477 -30.259298
69.661995 -35.238834 -30.560051
69.233646 -32.699861 -32.118756
69.623005 -33.17833 -31.173043
68.78186 -34.403498 -32.383843
68.752079 -32.283673 -33.028805
69.233646 -32.699861 -32.118756
68.239399 -36.145262 -32.640626
68.78186 -34.403498 -32.383843
68.720967 -36.561451 -31.730577
67.639122 -37.916229 -32.842866
67.700016 -35.758276 -33.496132
68.239399 -36.145262 -32.640626
40.80453 -40.083498 -36.92633
41.250737 -41.371826 -36.656407
39.450882 -39.841479 -36.688533
38.606138 -40.907123 -36.081668
40.30171 -38.809895 -37.245621
39.450882 -39.841479 -36.688533
39.891604 -37.501208 -37.529041
41.245251 -37.743227 -37.766838
40.80453 -40.083498 -36.92633
40.30171 -38.809895 -37.245621
42.388874 -30.962011 -40.29393
42.96188 -32.213463 -39.919712
42.037926 -33.178179 -39.44199
61.497889 -63.387006 -25.648304
60.925972 -63.235506 -26.324585
62.58984 -61.687912 -25.733176
61.497889 -63.387006 -25.648304
63.111969 -59.847723 -26.560129
62.58984 -61.687912 -25.733176
63.602279 -57.951166 -27.360859
63.111969 -59.847723 -26.560129
62.54602 -59.668426 -27.281838
64.044517 -56.032656 -28.136093
63.602279 -57.951166 -27.360859
63.459949 -55.795371 -28.845554
64.468136 -54.056157 -28.89908
64.044517 -56.032656 -28.136093
50.394669 -55.581522 -32.688632
49.096907 -57.04088 -32.236293
49.68022 -54.799427 -33.018936
51.688309 -54.0949 -33.133052
50.394669 -55.581522 -32.688632
52.252636 -51.877598 -33.972977
52.962963 -52.632429 -33.634754
51.688309 -54.0949 -33.133052
49.394489 -48.591919 -35.223442
50.110355 -49.463774 -34.924546
49.941681 -46.321268 -36.008717
49.394489 -48.591919 -35.223442
48.666279 -47.705534 -35.496014
65.368107 -21.312785 -41.147789
65.700196 -19.648344 -40.962463
66.018329 -21.788501 -40.073234
64.723888 -20.836175 -42.154942
65.368107 -21.312785 -41.147789
65.042023 -22.976332 -41.265713
64.019428 -20.367224 -43.203216
64.345512 -18.703677 -43.085293
64.723888 -20.836175 -42.154942
63.710968 -22.011075 -43.229908
63.978767 -24.176782 -42.270061
63.291932 -23.688136 -43.227104
64.019428 -20.367224 -43.203216
63.710968 -22.011075 -43.229908
61.837721 -18.907457 -46.016167
62.286112 -21.020312 -45.055775
61.024572 -18.438721 -46.900391
61.837721 -18.907457 -46.016167
60.749003 -20.008769 -46.664429
61.024572 -18.438721 -46.900391
60.351601 -21.602103 -46.399712
60.749003 -20.008769 -46.664429
61.15069 -22.111531 -45.659881
59.957393 -23.147541 -45.976791
59.555706 -21.044779 -46.981339
60.351601 -21.602103 -46.399712
45.200848 -61.504971 -31.057865
46.496229 -59.998736 -31.427713
45.912492 -62.319636 -30.742073
44.499745 -60.64947 -31.341192
45.200848 -61.504971 -31.057865
43.801358 -59.75672 -31.636466
45.086197 -58.291321 -32.038779
44.499745 -60.64947 -31.341192
66.935756 -20.618206 -38.812905
66.572895 -18.539632 -39.639381
68.605743 -28.003225 -34.409408
68.72612 -30.118445 -33.72028
68.480572 -25.851763 -35.150291
68.605743 -28.003225 -34.409408
68.123203 -27.505392 -35.417725
68.260197 -23.759262 -35.889313
68.480572 -25.851763 -35.150291
67.759563 -23.233142 -36.948254
68.260197 -23.759262 -35.889313
67.206745 -22.7546 -37.971924
67.759563 -23.233142 -36.948254
67.445213 -24.875389 -37.182277
66.621407 -22.260454 -39.046928
66.935756 -20.618206 -38.812905
67.206745 -22.7546 -37.971924
37.734827 -34.693565 -37.861053
37.523668 -36.954668 -36.857021
38.44927 -33.6903 -38.519207
37.734827 -34.693565 -37.861053
37.97694 -32.441933 -38.818921
38.834402 -29.271633 -40.459316
38.086826 -30.266197 -39.829575
39.484713 -30.449345 -40.048435
38.834402 -29.271633 -40.459316
40.014753 -31.689735 -39.694328
39.221424 -32.679056 -39.122967
39.484713 -30.449345 -40.048435
40.871481 -30.693376 -40.218002
40.608193 -32.923086 -39.292534
40.014753 -31.689735 -39.694328
41.736114 -29.737764 -40.728459
40.871481 -30.693376 -40.218002
42.388874 -30.962011 -40.29393
41.736114 -29.737764 -40.728459
43.127015 -58.811321 -31.892972
43.801358 -59.75672 -31.636466
42.452805 -57.83392 -32.163899
41.822371 -56.794687 -32.392288
43.7136 -56.421169 -32.60498
43.127015 -58.811321 -31.892972
42.452805 -57.83392 -32.163899
44.299252 -54.081846 -33.328041
44.973461 -55.059248 -33.057113
43.7136 -56.421169 -32.60498
44.880331 -51.717705 -34.052494
44.299252 -54.081846 -33.328041
43.62047 -53.079627 -33.600361
45.450556 -49.403603 -34.795258
44.880331 -51.717705 -34.052494
43.564045 -49.628715 -34.582947
42.988898 -52.013541 -33.848728
44.762175 -48.3834 -35.058476
43.564045 -49.628715 -34.582947
44.12467 -47.296631 -35.316609
46.011181 -47.071518 -35.528919
45.450556 -49.403603 -34.795258
44.762175 -48.3834 -35.058476
46.544325 -44.788815 -36.289211
47.232706 -45.809017 -36.025993
46.011181 -47.071518 -35.528919
43.428293 -42.671291 -36.58702
42.897692 -45.026756 -35.831359
43.307876 -39.192916 -37.628391
42.290024 -40.255313 -37.153549
42.765923 -37.954433 -37.92239
43.930366 -40.372246 -37.333797
43.307876 -39.192916 -37.628391
44.406265 -38.071365 -38.102638
44.526682 -41.54974 -37.061267
43.428293 -42.671291 -36.58702
43.930366 -40.372246 -37.333797
46.814068 -39.230103 -38.045204
45.694698 -40.358669 -37.545204
46.148124 -38.122128 -38.308044
47.986347 -38.020539 -38.575836
47.532921 -40.25708 -37.812996
46.814068 -39.230103 -38.045204
49.084519 -36.876623 -39.141125
47.986347 -38.020539 -38.575836
66.952686 -39.70628 -33.022824
67.639122 -37.916229 -32.842866
64.833123 -52.057875 -29.623562
65.417691 -52.29516 -28.9141
64.468136 -54.056157 -28.89908
65.4836 -47.93035 -31.039108
66.074074 -48.224299 -30.324534
65.192204 -50.00293 -30.353157
65.779465 -45.805943 -31.7492
65.4836 -47.93035 -31.039108
64.897594 -47.584574 -31.777824
65.999547 -43.671741 -32.417595
66.585553 -44.017517 -31.67888
65.779465 -45.805943 -31.7492
66.230072 -41.493683 -33.128147
65.999547 -43.671741 -32.417595
65.423985 -43.282108 -33.198467
66.377125 -39.316647 -33.803696
66.952686 -39.70628 -33.022824
66.230072 -41.493683 -33.128147
55.867885 -65.291392 -27.966237
56.593655 -65.664938 -27.535267
56.387844 -63.275737 -28.682423
55.867885 -65.291392 -27.966237
56.891514 -61.268372 -29.44442
57.61972 -61.709488 -29.031748
56.387844 -63.275737 -28.682423
57.406849 -59.201399 -30.205252
56.891514 -61.268372 -29.44442
57.888857 -57.132376 -30.990288
58.605398 -57.633099 -30.578781
57.406849 -59.201399 -30.205252
58.393346 -55.015245 -31.791635
57.888857 -57.132376 -30.990288
57.194797 -56.583545 -31.418105
54.371921 -54.062221 -32.929924
53.661079 -53.360594 -33.280052
55.065689 -54.740122 -32.554364
54.371921 -54.062221 -32.929924
55.617291 -52.549357 -33.389713
55.781052 -55.384947 -32.193627
54.535683 -56.897812 -31.733838
55.065689 -54.740122 -32.554364
57.005173 -53.846836 -32.616802
56.475166 -56.004526 -31.796277
55.781052 -55.384947 -32.193627
53.281326 -39.146476 -38.927433
52.861765 -41.353361 -38.057426
52.102129 -40.52706 -38.293582
54.368158 -37.786911 -39.622227
53.281326 -39.146476 -38.927433
53.608522 -36.96061 -39.858383
54.212721 -28.535757 -43.528103
55.034206 -29.270066 -43.385514
54.222898 -30.594373 -42.585254
54.169047 -26.587875 -44.40495
54.212721 -28.535757 -43.528103
65.939121 -18.034703 -40.754707
65.700196 -19.648344 -40.962463
57.827919 -19.995519 -47.966037
58.690212 -20.543083 -47.554958
58.299206 -22.042653 -46.969498
57.827919 -19.995519 -47.966037
56.900294 -19.526409 -48.347229
54.14589 -21.466784 -47.060352
55.094447 -21.891325 -47.006633
54.14589 -21.466784 -47.060352
53.687967 -22.840665 -46.163483
3 113 28 114
3 113 114 115
3 116 30 117
3 116 117 118
3 0 119 121
3 121 120 31
3 119 120 121
3 0 122 123
3 1 34 32
3 1 36 34
3 3 39 37
3 3 41 39
3 125 124 42
3 126 44 127
3 5 47 45
3 5 49 47
3 6 52 50
3 6 54 52
3 6 56 54
3 4 128 130
3 130 129 57
3 128 129 130
3 4 131 132
3 2 133 134
3 7 60 58
3 7 62 60
3 135 63 136
3 137 136 26
3 135 136 137
3 139 138 63
3 9 64 27
3 9 65 64
3 10 140 142
3 140 66 141
3 140 141 142
3 10 67 66
3 10 69 67
3 12 70 29
3 12 71 70
3 143 72 144
3 145 73 146
3 147 146 72
3 145 146 147
3 148 75 149
3 150 149 73
3 148 149 150
3 151 76 152
3 153 77 154
3 155 154 76
3 153 154 155
3 14 79 78
3 15 156 158
3 158 157 33
3 156 157 158
3 15 159 161
3 159 80 160
3 159 160 161
3 15 81 80
3 17 82 35
3 17 83 82
3 18 84 38
3 18 85 84
3 18 86 85
3 19 87 40
3 19 88 87
3 162 89 163
3 164 90 165
3 166 91 167
3 168 167 90
3 166 167 168
3 20 169 171
3 169 92 170
3 169 170 171
3 20 93 92
3 8 172 174
3 172 173 174
3 175 94 176
3 177 176 43
3 175 176 177
3 179 178 94
3 11 95 68
3 21 96 46
3 21 97 96
3 21 98 97
3 22 99 48
3 22 100 99
3 180 101 181
3 23 102 51
3 23 103 102
3 23 104 103
3 24 105 53
3 24 106 105
3 24 107 106
3 25 108 55
3 25 109 108
3 13 110 74
3 182 111 183
3 184 112 185
3 186 185 111
3 184 185 186
3 188 187 112
3 16 189 190
3 192 191 59
3 194 193 61
3 195 26 196
3 197 26 198
3 200 199 26
3 201 27 202
3 28 203 205
3 203 27 204
3 203 204 205
3 28 9 27
3 206 10 207
3 208 29 209
3 210 209 10
3 208 209 210
3 30 211 213
3 211 29 212
3 211 212 213
3 30 12 29
3 31 214 216
3 214 215 216
3 218 217 31
3 32 33 14
3 34 33 32
3 34 15 33
3 34 35 15
3 36 35 34
3 36 17 35
3 37 219 221
3 219 38 220
3 219 220 221
3 39 38 37
3 39 18 38
3 39 40 18
3 41 40 39
3 41 19 40
3 222 20 223
3 42 43 8
3 224 43 225
3 226 225 42
3 224 225 226
3 228 227 43
3 44 229 230
3 44 231 232
3 45 46 11
3 47 46 45
3 47 21 46
3 47 48 21
3 49 48 47
3 49 22 48
3 50 233 235
3 233 51 234
3 233 234 235
3 52 51 50
3 52 23 51
3 52 53 23
3 54 53 52
3 54 24 53
3 54 55 24
3 56 55 54
3 56 25 55
3 57 236 238
3 238 237 13
3 236 237 238
3 240 239 57
3 58 59 16
3 60 59 58
3 60 241 243
3 243 242 59
3 241 242 243
3 60 244 246
3 244 61 245
3 244 245 246
3 62 61 60
3 62 247 249
3 249 248 61
3 247 248 249
3 26 250 251
3 63 252 254
3 254 253 26
3 252 253 254
3 63 255 256
3 63 257 259
3 257 37 258
3 257 258 259
3 260 37 261
3 262 261 63
3 260 261 262
3 263 3 264
3 265 264 37
3 263 264 265
3 266 8 267
3 27 268 269
3 64 270 272
3 272 271 27
3 270 271 272
3 64 273 275
3 273 8 274
3 273 274 275
3 64 42 8
3 65 42 64
3 65 276 278
3 278 277 42
3 276 277 278
3 66 279 280
3 66 281 282
3 66 283 284
3 67 285 287
3 287 286 66
3 285 286 287
3 67 288 289
3 67 290 292
3 290 68 291
3 290 291 292
3 69 68 67
3 69 11 68
3 29 69 10
3 70 69 29
3 70 11 69
3 70 45 11
3 71 45 70
3 71 5 45
3 72 293 295
3 293 294 295
3 72 296 297
3 72 298 300
3 298 50 299
3 298 299 300
3 73 50 72
3 73 6 50
3 73 74 6
3 75 74 73
3 75 13 74
3 301 75 302
3 76 303 305
3 303 75 304
3 303 304 305
3 76 13 75
3 76 57 13
3 77 57 76
3 77 4 57
3 78 306 308
3 308 307 2
3 306 307 308
3 79 309 311
3 311 310 78
3 309 310 311
3 79 312 314
3 312 313 314
3 33 79 14
3 315 79 316
3 317 316 33
3 315 316 317
3 319 318 79
3 80 320 321
3 80 322 323
3 80 324 325
3 81 326 328
3 328 327 80
3 326 327 328
3 81 329 331
3 329 16 330
3 329 330 331
3 35 81 15
3 82 81 35
3 82 16 81
3 82 58 16
3 83 58 82
3 83 7 58
3 332 31 333
3 332 333 334
3 335 31 336
3 337 0 338
3 339 338 31
3 337 338 339
3 340 2 341
3 38 342 343
3 84 344 346
3 346 345 38
3 344 345 346
3 84 347 348
3 84 349 350
3 85 351 353
3 353 352 84
3 351 352 353
3 85 354 356
3 354 2 355
3 354 355 356
3 85 78 2
3 86 78 85
3 86 14 78
3 40 86 18
3 87 86 40
3 87 14 86
3 87 32 14
3 88 32 87
3 88 1 32
3 357 28 358
3 89 359 361
3 359 28 360
3 359 360 361
3 89 9 28
3 362 89 363
3 364 89 365
3 366 9 367
3 368 367 89
3 366 367 368
3 369 65 370
3 371 370 9
3 369 370 371
3 372 65 373
3 375 374 65
3 376 0 377
3 90 378 379
3 90 380 382
3 380 0 381
3 380 381 382
3 90 383 385
3 385 384 0
3 383 384 385
3 91 386 388
3 388 387 90
3 386 387 388
3 91 389 390
3 391 91 392
3 92 393 395
3 393 91 394
3 393 394 395
3 92 396 398
3 398 397 91
3 396 397 398
3 92 399 401
3 399 77 400
3 399 400 401
3 93 77 92
3 93 4 77
3 402 20 403
3 43 404 406
3 406 405 8
3 404 405 406
3 94 407 409
3 409 408 43
3 407 408 409
3 94 410 412
3 410 20 411
3 410 411 412
3 94 93 20
3 413 93 414
3 415 414 94
3 413 414 415
3 416 4 417
3 418 417 93
3 416 417 418
3 420 419 4
3 421 3 422
3 68 423 425
3 423 44 424
3 423 424 425
3 95 44 68
3 95 426 428
3 428 427 44
3 426 427 428
3 46 95 11
3 96 95 46
3 96 429 431
3 431 430 95
3 429 430 431
3 96 432 434
3 432 433 434
3 97 435 437
3 437 436 96
3 435 436 437
3 97 438 440
3 438 3 439
3 438 439 440
3 97 41 3
3 98 41 97
3 98 19 41
3 48 98 21
3 99 98 48
3 99 19 98
3 99 88 19
3 100 88 99
3 100 1 88
3 441 30 442
3 443 30 444
3 445 12 446
3 447 446 30
3 445 446 447
3 448 12 449
3 450 71 451
3 452 451 12
3 450 451 452
3 101 453 455
3 453 71 454
3 453 454 455
3 101 5 71
3 51 456 457
3 102 458 460
3 460 459 51
3 458 459 460
3 102 461 463
3 461 462 463
3 102 464 466
3 464 101 465
3 464 465 466
3 103 101 102
3 103 5 101
3 103 49 5
3 104 49 103
3 104 22 49
3 53 104 23
3 105 104 53
3 105 22 104
3 105 100 22
3 106 100 105
3 106 1 100
3 106 36 1
3 107 36 106
3 107 17 36
3 55 107 24
3 108 107 55
3 108 17 107
3 108 83 17
3 109 83 108
3 109 7 83
3 74 56 6
3 110 56 74
3 110 25 56
3 467 110 468
3 469 468 13
3 467 468 469
3 111 470 472
3 470 110 471
3 470 471 472
3 111 25 110
3 111 109 25
3 112 109 111
3 112 7 109
3 112 62 7
3 473 62 474
3 475 474 112
3 473 474 475
3 477 476 62
3 479 478 2
3 59 480 482
3 482 481 16
3 480 481 482
3 484 483 59
3 61 485 486
3 488 487 61
