ply
format ascii 1.0
element vertex 232
property float x
property float y
property float z
element face 199
property list uchar int vertex_index
end_header
-3.242828 -89.619781 58.933296
-2.636934 -90.613846 49.752094
-4.811018 -92.920624 35.313354
-2.753765 -90.456375 54.506634
-4.972383 -94.861435 50.042152
-5.352936 -93.97287 54.246788
-4.28227 -88.061356 62.980347
-5.981211 -92.171631 58.054333
-2.81909 -90.208206 44.769264
-4.617689 -94.199997 40.457996
-4.710571 -94.892456 45.417953
-3.668541 -88.736023 37.138145
-4.528849 -90.4534 34.963966
-4.218355 -91.162079 37.522018
-2.942324 -90.128937 56.765598
-3.979553 -92.382034 54.486046
-4.205259 -91.853195 56.598022
-2.544643 -87.252975 61.243721
-5.627428 -89.074219 62.400349
-2.690859 -90.474548 47.281937
-3.737942 -92.589981 45.137295
-3.714357 -92.793701 47.591465
-6.287443 -96.613831 49.895851
-5.335358 -88.774078 29.936138
-4.905991 -89.650681 32.429626
-5.03311 -92.105347 32.731487
-2.656284 -90.612961 52.16489
-3.746492 -92.838043 49.975765
-3.832481 -92.706268 52.277142
-5.144321 -94.531113 52.198608
-3.681074 -88.927017 61.005245
-4.535723 -91.11647 58.615009
-5.000875 -90.181793 60.5452
-6.468056 -90.964218 59.852367
-3.110615 -86.60054 63.347183
-3.024818 -89.82489 42.229828
-3.983177 -91.762146 40.083855
-3.824722 -92.241882 42.628834
-4.635307 -94.627914 42.971832
-5.450071 -96.939194 43.222191
-4.826958 -94.976273 47.779144
-5.723959 -97.060638 45.564846
-5.621164 -93.183136 56.19342
-6.834221 -95.162506 53.744846
-4.673058 -93.625275 37.897255
-3.763822 -90.247063 38.601192
-3.943448 -89.949051 37.330082
-3.488916 -89.034035 38.409256
-3.488916 -89.034035 38.409256
-3.146837 -87.826966 38.196571
-2.690266 -88.683411 58.984201
-2.341174 -87.500008 60.139414
-2.893736 -88.436378 60.088509
-3.092576 -89.874359 57.849447
-2.540014 -88.937988 57.900352
-2.690266 -88.683411 58.984201
-6.766666 -97.639557 48.729544
-6.976694 -97.318863 49.685516
-2.154578 -89.431457 49.583013
-2.141195 -89.467163 50.82978
-2.663896 -90.544197 48.517015
-2.181541 -89.361808 48.347935
-2.154578 -89.431457 49.583013
-4.498919 -88.847488 33.524752
-4.734158 -88.459382 32.284779
-4.884483 -93.775368 34.185497
-4.995529 -93.367729 32.894564
-4.922064 -92.512985 34.02242
-5.955407 -94.994575 53.061779
-5.851099 -95.273697 52.037689
-5.248628 -94.251992 53.222698
-2.230411 -89.363037 54.429544
-2.309791 -89.269676 55.620013
-2.705024 -90.534668 53.335762
-2.181671 -89.44133 53.258673
-2.230411 -89.363037 54.429544
-6.789693 -90.282944 60.732091
-6.047742 -90.019218 61.126358
-6.369379 -89.337944 62.006082
-7.25265 -91.109581 59.392342
-6.789693 -90.282944 60.732091
-3.696442 -87.330948 63.163765
-3.48315 -86.200897 64.340828
-4.068978 -86.931305 64.15741
-5.51768 -89.510292 28.802023
-5.334266 -89.988808 30.056059
-6.250953 -98.042427 45.538491
-5.866299 -97.0093 46.678395
-6.003182 -98.086593 44.442309
-6.250953 -98.042427 45.538491
-7.607132 -95.532295 53.345329
-6.990157 -94.612892 54.633173
-7.435746 -96.130531 52.502863
-7.607132 -95.532295 53.345329
-2.400647 -88.994873 44.555467
-2.301791 -89.137512 45.828156
-2.921954 -90.016548 43.499546
-2.503511 -88.803215 43.285749
-2.400647 -88.994873 44.555467
-4.098695 -89.594712 36.051056
-4.310348 -89.248848 34.791922
-3.880193 -88.39016 35.879011
-3.360673 -87.540169 36.940658
-3.146837 -87.826966 38.196571
-3.880193 -88.39016 35.879011
-3.360673 -87.540169 36.940658
-2.078044 -86.244896 61.263569
-2.338802 -86.006638 62.377682
-2.078044 -86.244896 61.263569
-2.341174 -87.500008 60.139414
-2.40407 -89.105957 56.749494
-2.540014 -88.937988 57.900352
-2.848045 -90.292656 55.636116
-2.309791 -89.269676 55.620013
-2.40407 -89.105957 56.749494
-5.34565 -88.060913 63.629167
-4.954849 -88.567788 62.690348
-4.673071 -87.554482 63.919167
-6.029186 -88.453308 63.295298
-5.34565 -88.060913 63.629167
-6.369379 -89.337944 62.006082
-6.029186 -88.453308 63.295298
-4.673071 -87.554482 63.919167
-4.068978 -86.931305 64.15741
-6.148041 -96.785897 48.843897
-5.490511 -95.909698 48.917048
-5.629913 -95.737633 49.969002
-6.148041 -96.785897 48.843897
-6.766666 -97.639557 48.729544
-6.563652 -93.117455 56.787917
-6.757192 -92.458908 57.646374
-2.237675 -89.270683 47.084492
-2.181541 -89.361808 48.347935
-2.754975 -90.341377 46.0256
-2.301791 -89.137512 45.828156
-2.237675 -89.270683 47.084492
-4.827562 -95.152382 39.354873
-4.914961 -95.406761 40.617965
-4.948842 -88.02108 31.038034
-5.197441 -87.599434 29.8224
-5.120674 -89.212379 31.182882
-4.948842 -88.02108 31.038034
-4.734158 -88.459382 32.284779
-5.119582 -90.427109 31.302803
-5.334266 -89.988808 30.056059
-5.120674 -89.212379 31.182882
-4.71742 -90.052041 33.696796
-4.498919 -88.847488 33.524752
-4.310348 -89.248848 34.791922
-5.183142 -91.654442 31.453733
-5.119582 -90.427109 31.302803
-4.969551 -90.878014 32.580557
-5.052126 -92.911964 31.590684
-5.183142 -91.654442 31.453733
-5.052126 -92.911964 31.590684
-4.995529 -93.367729 32.894564
-6.42266 -96.315056 50.886311
-5.715882 -95.572472 51.04723
-5.851099 -95.273697 52.037689
-6.976694 -97.318863 49.685516
-6.42266 -96.315056 50.886311
-2.15087 -89.466721 52.036178
-2.181671 -89.44133 53.258673
-2.646609 -90.613404 50.958492
-2.141195 -89.467163 50.82978
-2.15087 -89.466721 52.036178
-7.000614 -91.855201 58.545391
-6.757192 -92.458908 57.646374
-6.224633 -91.567925 58.95335
-7.000614 -91.855201 58.545391
-7.25265 -91.109581 59.392342
-2.96849 -85.375549 64.48217
-3.48315 -86.200897 64.340828
-2.621788 -85.68042 63.429412
-2.96849 -85.375549 64.48217
-2.827629 -86.926758 62.295452
-2.338802 -86.006638 62.377682
-2.621788 -85.68042 63.429412
-5.567736 -88.312683 28.716183
-5.197441 -87.599434 29.8224
-5.567736 -88.312683 28.716183
-5.51768 -89.510292 28.802023
-3.503997 -90.793518 41.156841
-3.646234 -90.547097 39.882111
-3.167054 -89.578468 40.955097
-4.92377 -95.62072 41.874883
-4.914961 -95.406761 40.617965
-4.626498 -94.413956 41.714914
-5.331152 -96.776359 42.000063
-4.92377 -95.62072 41.874883
-5.042689 -95.783554 43.097012
-5.621633 -97.944198 42.10764
-5.331152 -96.776359 42.000063
-5.417798 -95.967118 47.785544
-4.899671 -94.918854 48.910648
-5.490511 -95.909698 48.917048
-5.275459 -96.018456 46.671995
-5.417798 -95.967118 47.785544
-5.866299 -97.0093 46.678395
-5.866238 -98.025871 43.270981
-5.587015 -96.999916 44.393518
-6.003182 -98.086593 44.442309
-5.621633 -97.944198 42.10764
-5.866238 -98.025871 43.270981
-6.383629 -93.623207 55.85746
-5.801188 -92.677384 57.123877
-6.563652 -93.117455 56.787917
-6.227692 -94.172821 54.969133
-6.383629 -93.623207 55.85746
-6.990157 -94.612892 54.633173
-6.696049 -95.589393 52.810808
-5.955407 -94.994575 53.061779
-6.093578 -94.567688 53.995817
-6.696049 -95.589393 52.810808
-7.435746 -96.130531 52.502863
-2.644544 -88.611321 42.011247
-2.503511 -88.803215 43.285749
-3.167054 -89.578468 40.955097
-2.644544 -88.611321 42.011247
-4.100766 -91.462113 38.802937
-3.763822 -90.247063 38.601192
-3.646234 -90.547097 39.882111
-4.855247 -94.865021 38.074503
-4.645373 -93.912636 39.177626
-4.827562 -95.152382 39.354873
-4.810572 -94.530296 36.78293
-4.855247 -94.865021 38.074503
-4.879552 -94.177971 35.49098
-4.742038 -93.27295 36.605305
-4.810572 -94.530296 36.78293
-4.884483 -93.775368 34.185497
-4.879552 -94.177971 35.49098
3 45 13 46
3 47 46 11
3 45 46 47
3 48 11 49
3 0 16 14
3 0 50 52
3 52 51 17
3 50 51 52
3 0 53 55
3 53 14 54
3 53 54 55
3 1 21 19
3 57 56 22
3 1 58 59
3 1 60 62
3 60 19 61
3 60 61 62
3 63 24 64
3 2 25 12
3 2 65 67
3 67 66 25
3 65 66 67
3 3 28 26
3 5 29 15
3 5 68 70
3 70 69 29
3 68 69 70
3 3 71 72
3 3 73 75
3 73 26 74
3 73 74 75
3 6 32 30
3 76 33 77
3 78 77 18
3 76 77 78
3 80 79 33
3 6 81 83
3 81 34 82
3 81 82 83
3 6 30 34
3 85 84 23
3 8 37 35
3 10 38 20
3 10 39 38
3 4 40 27
3 86 41 87
3 89 88 41
3 7 42 31
3 90 43 91
3 93 92 43
3 8 94 95
3 8 96 98
3 96 35 97
3 96 97 98
3 9 44 36
3 11 99 101
3 99 12 100
3 99 100 101
3 13 12 11
3 13 2 12
3 11 102 103
3 11 104 105
3 14 15 3
3 16 15 14
3 16 5 15
3 17 106 107
3 109 108 17
3 14 110 111
3 14 112 114
3 112 3 113
3 112 113 114
3 115 18 116
3 117 116 6
3 115 116 117
3 118 18 119
3 121 120 18
3 122 6 123
3 19 20 8
3 21 20 19
3 21 10 20
3 22 124 126
3 126 125 4
3 124 125 126
3 128 127 22
3 130 129 7
3 19 131 132
3 19 133 135
3 133 8 134
3 133 134 135
3 137 136 9
3 138 23 139
3 24 140 142
3 140 23 141
3 140 141 142
3 24 143 145
3 145 144 23
3 143 144 145
3 12 146 148
3 146 24 147
3 146 147 148
3 25 24 12
3 25 149 151
3 151 150 24
3 149 150 151
3 25 152 153
3 155 154 25
3 26 27 1
3 28 27 26
3 28 4 27
3 15 28 3
3 29 28 15
3 29 4 28
3 29 22 4
3 156 22 157
3 158 157 29
3 156 157 158
3 160 159 22
3 26 161 162
3 26 163 165
3 163 1 164
3 163 164 165
3 30 31 0
3 32 31 30
3 32 7 31
3 18 32 6
3 33 32 18
3 33 7 32
3 33 166 168
3 168 167 7
3 166 167 168
3 170 169 33
3 34 171 172
3 34 173 174
3 34 175 177
3 175 17 176
3 175 176 177
3 30 17 34
3 30 0 17
3 23 178 179
3 181 180 23
3 35 182 184
3 182 36 183
3 182 183 184
3 37 36 35
3 37 9 36
3 20 37 8
3 38 37 20
3 38 9 37
3 38 185 187
3 187 186 9
3 185 186 187
3 39 188 190
3 190 189 38
3 188 189 190
3 39 191 192
3 27 21 1
3 40 21 27
3 40 10 21
3 193 40 194
3 195 194 4
3 193 194 195
3 41 196 198
3 196 40 197
3 196 197 198
3 41 10 40
3 41 39 10
3 199 39 200
3 201 200 41
3 199 200 201
3 203 202 39
3 31 16 0
3 42 16 31
3 42 5 16
3 204 42 205
3 206 205 7
3 204 205 206
3 43 207 209
3 207 42 208
3 207 208 209
3 43 5 42
3 43 210 212
3 212 211 5
3 210 211 212
3 214 213 43
3 35 215 216
3 35 217 218
3 36 219 221
3 219 13 220
3 219 220 221
3 44 13 36
3 44 2 13
3 222 44 223
3 224 223 9
3 222 223 224
3 225 44 226
3 227 2 228
3 229 228 44
3 227 228 229
3 231 230 2
