ply
format ascii 1.0
element vertex 97
property float x
property float y
property float z
element face 75
property list uchar int vertex_index
end_header
4.003414 4.672237 40.996742
3.591499 13.324459 39.260078
4.093853 25.142521 32.121613
4.79958 16.735088 34.808678
5.16753 7.958075 37.017982
3.44083 23.466412 34.632549
4.484684 20.988747 33.516083
3.848007 19.338211 35.904877
3.844372 9.033394 40.192451
4.427235 10.787756 38.131676
4.58329 6.38936 39.053478
5.217308 3.471586 37.906189
3.2509 17.525284 38.213104
4.180485 15.109699 37.077072
3.341591 20.482367 36.486616
3.644419 21.402311 35.268713
3.138002 22.546467 35.850453
4.326437 3.306408 40.415191
4.616375 4.16497 39.443559
4.293352 5.530798 40.02511
4.62949 23.800382 31.584072
4.442873 25.888666 30.829439
5.130265 17.458887 33.630955
4.972817 19.585717 32.984657
4.642132 18.861918 34.16238
5.234913 15.273926 34.274273
5.130265 17.458887 33.630955
5.098107 10.172462 36.49978
4.727959 11.587303 37.056628
4.797382 9.372915 37.574829
5.47793 8.659056 35.953253
5.098107 10.172462 36.49978
5.491617 6.401035 36.451412
5.47793 8.659056 35.953253
5.487661 1.881642 37.314087
5.200731 1.214606 38.274738
4.933384 2.706083 38.869915
4.900299 4.930473 38.479833
4.616375 4.16497 39.443559
5.200731 1.214606 38.274738
4.933384 2.706083 38.869915
2.758719 18.585331 38.819935
3.043038 19.575903 37.64073
2.962913 16.548571 39.325916
2.758719 18.585331 38.819935
3.133213 14.448158 39.849403
3.4212 15.424871 38.736591
2.962913 16.548571 39.325916
3.298357 12.362996 40.307571
3.133213 14.448158 39.849403
3.424793 10.217464 40.773758
3.717936 11.178926 39.726264
3.298357 12.362996 40.307571
3.543772 8.090115 41.176048
3.424793 10.217464 40.773758
3.623293 5.909536 41.578193
3.923893 6.852816 40.594596
3.543772 8.090115 41.176048
4.824905 21.723495 32.281306
4.62949 23.800382 31.584072
4.289269 23.065634 32.818848
4.824905 21.723495 32.281306
4.972817 19.585717 32.984657
3.549454 18.431748 37.058991
3.341591 20.482367 36.486616
3.043038 19.575903 37.64073
4.604584 13.748275 36.529325
4.30386 12.948728 37.604374
4.727959 11.587303 37.056628
4.914131 14.560969 35.395128
4.490032 15.922394 35.942875
4.604584 13.748275 36.529325
5.234913 15.273926 34.274273
4.914131 14.560969 35.395128
5.516506 4.157791 36.895516
5.491617 6.401035 36.451412
5.192419 5.71483 37.462086
5.516506 4.157791 36.895516
5.487661 1.881642 37.314087
3.692475 3.751602 41.918789
3.623293 5.909536 41.578193
4.035919 2.471076 41.331843
3.692475 3.751602 41.918789
3.724979 1.550441 42.253889
4.326437 3.306408 40.415191
4.035919 2.471076 41.331843
3.867464 27.170403 31.381103
4.442873 25.888666 30.829439
3.534498 26.319618 32.698807
3.867464 27.170403 31.381103
3.207987 25.481564 33.954275
3.767342 24.304466 33.377081
3.534498 26.319618 32.698807
2.901878 24.548161 35.237268
3.207987 25.481564 33.954275
3.138002 22.546467 35.850453
2.901878 24.548161 35.237268
3 14 7 15
3 16 15 5
3 14 15 16
3 0 10 8
3 0 17 19
3 19 18 10
3 17 18 19
3 2 20 21
3 3 22 24
3 24 23 6
3 22 23 24
3 3 25 26
3 1 13 12
3 4 27 29
3 29 28 9
3 27 28 29
3 4 30 31
3 4 32 33
3 35 34 11
3 5 6 2
3 7 6 5
3 7 3 6
3 8 9 1
3 10 9 8
3 10 4 9
3 10 11 4
3 36 11 37
3 38 37 10
3 36 37 38
3 40 39 11
3 41 12 42
3 43 12 44
3 45 1 46
3 47 46 12
3 45 46 47
3 48 1 49
3 50 8 51
3 52 51 1
3 50 51 52
3 53 8 54
3 55 0 56
3 57 56 8
3 55 56 57
3 6 58 60
3 60 59 2
3 58 59 60
3 62 61 6
3 12 63 65
3 63 7 64
3 63 64 65
3 13 7 12
3 13 3 7
3 9 13 1
3 66 13 67
3 68 67 9
3 66 67 68
3 69 3 70
3 71 70 13
3 69 70 71
3 73 72 3
3 11 74 76
3 76 75 4
3 74 75 76
3 78 77 11
3 79 0 80
3 81 0 82
3 81 82 83
3 85 84 0
3 86 2 87
3 88 2 89
3 90 5 91
3 92 91 2
3 90 91 92
3 93 5 94
3 96 95 5
