ply
format ascii 1.0
element vertex 424
property float x
property float y
property float z
element face 429
property list uchar int vertex_index
end_header
-52.61248 -1.717314 -19.98835
-37.710556 15.284595 -24.606236
-58.03035 7.181208 -27.989849
-45.10107 0.935953 -20.564217
-51.442852 8.82959 -30.3783
-44.213547 9.104225 -29.549736
-50.705627 -12.07436 -10.388014
-43.700638 -6.905521 -11.4102
-56.333721 -2.072668 -18.347889
-56.104164 3.436941 -23.662632
-41.847797 4.745193 -19.053162
-45.063114 5.126181 -25.107212
-41.74395 8.081278 -23.293098
-35.986618 17.037182 -27.811638
-39.168457 13.751034 -30.80999
-52.660053 -17.592731 -4.395256
-54.538231 -12.809087 -8.688961
-48.922939 -16.526711 -5.77117
-42.597069 -10.266764 -6.787601
-49.285709 13.223244 -35.802162
-52.793762 13.101376 -35.176197
-38.698368 12.994392 -20.918373
-48.752422 -1.011925 -20.881912
-52.497681 3.703716 -25.064808
-48.703331 3.93075 -25.706257
-47.763062 8.619852 -30.614326
-45.769943 12.586235 -35.425026
-40.88554 11.225382 -27.286137
-42.404228 12.402458 -33.671101
-55.788284 -7.580293 -13.35564
-51.970734 -7.07341 -15.119719
-47.020962 -10.343378 -11.469019
-48.133499 -5.854087 -16.156614
-54.97654 8.619848 -29.304134
-56.024059 11.427406 -34.122818
-54.513939 -1.880753 -19.221519
-56.321991 0.701511 -20.963757
-54.537064 0.893192 -21.784168
-41.875835 6.414776 -21.194759
-34.906254 17.612095 -29.15316
-36.460976 15.890686 -30.636711
-50.762737 -17.147137 -5.07748
-47.78167 14.991478 -38.455917
-49.529137 15.148281 -38.391132
-58.695877 4.800201 -25.007034
-46.883541 -0.241838 -20.88726
-48.825142 1.466234 -23.279686
-46.957512 2.057243 -23.226555
-44.753242 7.168386 -27.350918
-46.524521 6.582767 -27.924828
-45.96117 8.705946 -30.255184
-46.901802 10.726297 -33.051193
-45.142033 10.653969 -32.535313
-38.301434 14.184303 -22.808861
-39.841141 11.715202 -24.068939
-39.283371 13.026211 -25.929802
-40.776718 12.839817 -32.331356
-52.619534 -12.509777 -9.566864
-55.247654 -10.243471 -10.979393
-53.339333 -9.990424 -11.899754
-53.902161 -7.359267 -14.285419
-51.409691 -9.633301 -12.739878
-44.686069 -10.76811 -9.260826
-45.306229 -8.866022 -11.593813
-47.631176 -8.155394 -13.812273
-45.849701 -6.84502 -13.918201
-46.305153 -4.720288 -16.237938
-44.172485 -5.067474 -13.708248
-52.099831 6.328991 -27.695026
-53.92688 6.300268 -27.128658
-53.249474 8.839056 -29.906269
-54.46138 12.482849 -34.672409
-58.03162 -2.395802 -17.449963
-57.721169 3.01358 -22.871094
-57.263557 5.611176 -25.718189
-43.422001 2.587513 -19.933315
-45.16853 3.033327 -22.840725
-43.474495 4.472094 -22.143028
-43.362354 6.354168 -24.324467
-43.053669 8.18906 -26.462276
-36.931931 16.249847 -26.284397
-38.52066 14.191422 -27.668839
-37.569397 15.160477 -29.250702
-55.585052 -15.580343 -5.774212
-56.429401 -13.088165 -7.860117
-53.670387 -15.260624 -6.491919
-51.755081 -14.898102 -7.290554
-50.507858 11.148186 -33.092793
-52.296692 11.198381 -32.733383
-51.056412 13.321175 -35.57732
-50.676132 -1.466999 -20.565739
-52.660332 1.005915 -22.496391
-50.740204 1.15576 -23.019131
-50.600082 3.759148 -25.518478
-50.228558 6.295307 -28.062439
-46.848045 4.347836 -25.57547
-48.35783 6.333822 -28.156456
-49.600677 8.709929 -30.638836
-48.698326 10.942558 -33.22226
-47.514938 12.928257 -35.773155
-46.059807 14.601009 -38.238472
-40.194649 10.310305 -22.115513
-41.420948 9.702082 -25.331478
-42.524406 9.922419 -28.532822
-40.131088 12.594038 -29.125332
-41.763489 11.493418 -30.503159
-43.429966 10.870813 -31.670933
-44.065624 12.359606 -34.721825
-57.101276 -10.505829 -10.080214
-57.593754 -7.846612 -12.425428
-56.152691 -4.845689 -15.812368
-54.297501 -4.644516 -16.7244
-52.376488 -4.423308 -17.532864
-48.829205 -11.386551 -11.049812
-49.49498 -9.056627 -13.403311
-50.034195 -6.607779 -15.768087
-50.433563 -4.06715 -18.152084
-48.513664 -3.463366 -18.510094
-46.656975 -2.511162 -18.558956
-44.893578 -1.129946 -18.28323
-54.348568 3.635292 -24.419136
-55.662582 6.091398 -26.444801
-56.581802 8.084572 -28.646366
-54.025505 10.97381 -32.2243
-55.654434 10.390615 -31.639843
-57.148098 9.403891 -31.036713
-57.453259 9.938442 -33.559509
-35.071551 16.982416 -30.471338
-34.316574 17.782793 -29.714391
-47.757015 15.806572 -39.785652
-46.900395 15.6917 -39.723743
-58.664482 6.537027 -27.679039
-58.997246 5.346524 -26.187632
-58.363113 5.990704 -26.498441
-58.255253 7.59407 -29.218387
-58.664482 6.537027 -27.679039
-44.503433 -7.885771 -11.502007
-44.239311 -8.753613 -10.348436
-43.436516 -7.773363 -10.256629
-57.153328 -0.870368 -19.230671
-58.002277 -1.031935 -18.781708
-57.182671 -2.234235 -17.898926
-37.243545 15.268275 -31.46652
-36.604046 15.565746 -32.088686
-53.621195 -17.786105 -4.11071
-52.095511 -18.701616 -3.398645
-54.122552 -16.586537 -5.084734
-55.083694 -16.779911 -4.800188
-53.621195 -17.786105 -4.11071
-49.397115 -15.451255 -6.917439
-50.813187 -14.636951 -7.677131
-50.33901 -15.712407 -6.530862
-50.402546 15.04832 -38.254129
-49.505766 15.804592 -39.691586
-39.446509 11.652348 -21.516943
-39.552971 11.033867 -20.535141
-38.804831 12.37591 -19.936571
-56.846279 -6.35681 -14.120369
-57.749014 -6.48997 -13.655264
-56.691019 -7.713453 -12.890534
-55.970487 -6.212991 -14.584004
-57.028482 -4.989508 -15.348733
-56.846279 -6.35681 -14.120369
-43.298344 -11.403564 -6.853065
-42.291174 -11.02195 -5.627503
-46.667704 -11.37132 -10.295511
-45.500257 -11.583686 -9.191415
-45.853516 -10.555744 -10.364922
-47.925083 -10.864964 -11.259415
-47.571825 -11.892907 -10.085908
-46.667704 -11.37132 -10.295511
-45.616478 -2.824365 -17.278726
-46.481064 -3.615725 -17.398447
-45.440567 -3.928929 -16.118216
-44.73478 -2.133757 -17.140863
-45.775277 -1.820554 -18.421093
-45.616478 -2.824365 -17.278726
-41.121702 6.908447 -19.604881
-41.861816 5.579985 -20.123961
-41.107683 6.073656 -18.534083
-41.118167 7.637082 -20.643389
-41.121702 6.908447 -19.604881
-41.052225 8.470333 -21.692558
-41.809893 7.248027 -22.243929
-41.118167 7.637082 -20.643389
-35.848911 16.121711 -31.213113
-35.683615 16.75139 -29.894935
-35.071551 16.982416 -30.471338
-36.604046 15.565746 -32.088686
-35.848911 16.121711 -31.213113
-51.163017 -18.426253 -3.664934
-52.095511 -18.701616 -3.398645
-50.214359 -18.203456 -4.006046
-51.711395 -17.369934 -4.736368
-51.163017 -18.426253 -3.664934
-49.322823 -17.837049 -4.297653
-50.214359 -18.203456 -4.006046
-48.402923 -17.526835 -4.644498
-49.842838 -16.836924 -5.424325
-49.322823 -17.837049 -4.297653
-48.630749 15.884974 -39.753259
-48.655403 15.06988 -38.423524
-47.757015 15.806572 -39.785652
-49.505766 15.804592 -39.691586
-48.630749 15.884974 -39.753259
-59.317297 4.21598 -24.677696
-58.931423 3.549272 -23.556427
-59.317297 4.21598 -24.677696
-58.997246 5.346524 -26.187632
-40.182666 13.372069 -33.150078
-39.972588 13.295426 -31.570673
-39.378536 13.827677 -32.389395
-40.966743 13.238233 -33.914704
-40.182666 13.372069 -33.150078
-41.780499 13.019554 -34.584576
-41.590473 12.621137 -33.001228
-40.966743 13.238233 -33.914704
-42.576397 13.079767 -35.215863
-41.780499 13.019554 -34.584576
-43.929232 -9.704657 -9.181942
-43.641569 -10.517437 -8.024214
-42.884732 -9.453984 -7.94533
-44.996149 -9.817066 -10.427319
-43.929232 -9.704657 -9.181942
-44.239311 -8.753613 -10.348436
-44.374233 -4.102521 -14.853371
-45.440567 -3.928929 -16.118216
-45.238819 -4.893881 -14.973093
-53.725724 13.397598 -36.189137
-53.627571 12.792112 -34.924303
-52.891914 13.706862 -36.44103
-54.549278 12.845459 -35.943248
-53.725724 13.397598 -36.189137
-55.330618 12.317737 -35.668453
-55.242719 11.955127 -34.397614
-54.549278 12.845459 -35.943248
-56.105657 11.537824 -35.399088
-55.330618 12.317737 -35.668453
-58.745198 -1.34279 -18.374766
-58.804746 -2.663634 -17.025324
-58.745198 -1.34279 -18.374766
-58.002277 -1.031935 -18.781708
-57.147463 0.516722 -20.538605
-57.153328 -0.870368 -19.230671
-56.327856 -0.685579 -19.655823
-57.847052 1.672756 -21.492273
-57.147463 0.516722 -20.538605
-57.02158 1.857546 -21.917426
-58.444069 2.655961 -22.488457
-57.847052 1.672756 -21.492273
-58.208523 3.906891 -23.939064
-58.931423 3.549272 -23.556427
-58.444069 2.655961 -22.488457
-37.797756 14.90317 -30.773516
-37.015186 15.525582 -29.943706
-37.243545 15.268275 -31.46652
-38.597286 14.198449 -31.553159
-38.368927 14.455756 -30.030346
-37.797756 14.90317 -30.773516
-39.378536 13.827677 -32.389395
-38.597286 14.198449 -31.553159
-56.526079 -15.77023 -5.49838
-55.083694 -16.779911 -4.800188
-56.923831 -14.514589 -6.472764
-56.526079 -15.77023 -5.49838
-56.007227 -14.334254 -6.817165
-57.346006 -13.2685 -7.515716
-56.923831 -14.514589 -6.472764
-51.245413 -13.442788 -8.815286
-52.187308 -13.70394 -8.428709
-50.813187 -14.636951 -7.677131
-50.28846 -13.225079 -9.22586
-51.662581 -12.292068 -9.977439
-51.245413 -13.442788 -8.815286
-41.710155 -9.569049 -5.454247
-42.291174 -11.02195 -5.627503
-41.951366 -8.875893 -6.590933
-41.710155 -9.569049 -5.454247
-42.884732 -9.453984 -7.94533
-41.951366 -8.875893 -6.590933
-42.735365 -6.456679 -10.039876
-43.436516 -7.773363 -10.256629
-42.954088 -5.67404 -11.175793
-42.735365 -6.456679 -10.039876
-51.166184 14.134767 -36.847223
-50.292775 14.234728 -36.984226
-50.402546 15.04832 -38.254129
-52.034858 14.024868 -36.646662
-51.925087 13.211275 -35.376759
-51.166184 14.134767 -36.847223
-52.891914 13.706862 -36.44103
-52.034858 14.024868 -36.646662
-38.107389 14.005064 -19.415165
-38.804831 12.37591 -19.936571
-37.973313 14.517427 -20.376978
-38.107389 14.005064 -19.415165
-37.774845 15.112383 -21.322222
-38.499901 13.589347 -21.863617
-37.973313 14.517427 -20.376978
-37.552336 15.601322 -22.249409
-37.774845 15.112383 -21.322222
-37.256897 16.151468 -23.148097
-38.005995 14.734449 -23.707549
-37.552336 15.601322 -22.249409
-36.944944 16.59893 -24.032277
-37.256897 16.151468 -23.148097
-36.555632 17.081556 -24.871357
-37.321243 15.767221 -25.445316
-36.944944 16.59893 -24.032277
-36.160365 17.468332 -25.700926
-36.555632 17.081556 -24.871357
-35.687708 17.862 -26.464546
-36.459274 16.643515 -27.048018
-36.160365 17.468332 -25.700926
-35.220463 18.170412 -27.224688
-35.687708 17.862 -26.464546
-34.680281 18.457869 -27.895449
-35.446436 17.324638 -28.482399
-35.220463 18.170412 -27.224688
-34.154724 18.674591 -28.569313
-34.680281 18.457869 -27.895449
-34.316574 17.782793 -29.714391
-34.154724 18.674591 -28.569313
-46.039463 15.496465 -39.615021
-46.900395 15.6917 -39.723743
-46.920738 14.796243 -38.347195
-40.277575 9.584846 -21.103766
-39.552971 11.033867 -20.535141
-40.969299 9.195791 -22.704306
-41.052225 8.470333 -21.692558
-40.277575 9.584846 -21.103766
-43.407095 13.058341 -35.741225
-43.234926 12.381032 -34.196463
-42.576397 13.079767 -35.215863
-44.223038 13.246173 -36.201664
-43.407095 13.058341 -35.741225
-45.075197 13.359488 -36.553264
-44.917783 12.472921 -35.073425
-44.223038 13.246173 -36.201664
-45.220129 14.366874 -37.959987
-45.914875 13.593622 -36.831749
-45.075197 13.359488 -36.553264
-45.210533 15.249866 -39.396345
-45.220129 14.366874 -37.959987
-46.039463 15.496465 -39.615021
-45.210533 15.249866 -39.396345
-57.650232 -11.982135 -8.57671
-57.346006 -13.2685 -7.515716
-57.98617 -10.690967 -9.686758
-57.650232 -11.982135 -8.57671
-56.765338 -11.796997 -8.970166
-58.195657 -9.378929 -10.830951
-57.98617 -10.690967 -9.686758
-58.441896 -8.04932 -12.003558
-58.195657 -9.378929 -10.830951
-57.347515 -9.17622 -11.252821
-58.558604 -6.72098 -13.224148
-58.441896 -8.04932 -12.003558
-58.558604 -6.72098 -13.224148
-57.749014 -6.48997 -13.655264
-57.967947 -3.764565 -16.167531
-58.804746 -2.663634 -17.025324
-57.092155 -3.620745 -16.631166
-57.967947 -3.764565 -16.167531
-57.028482 -4.989508 -15.348733
-47.566423 -17.012208 -4.908312
-48.402923 -17.526835 -4.644498
-48.046152 -16.070822 -6.069187
-47.566423 -17.012208 -4.908312
-49.397115 -15.451255 -6.917439
-48.046152 -16.070822 -6.069187
-49.377384 -12.825598 -9.545997
-50.28846 -13.225079 -9.22586
-44.342844 -11.654237 -8.089677
-43.298344 -11.403564 -6.853065
-43.641569 -10.517437 -8.024214
-44.342844 -11.654237 -8.089677
-45.500257 -11.583686 -9.191415
-48.439173 -12.481694 -9.876895
-47.571825 -11.892907 -10.085908
-49.767416 -11.730456 -10.718913
-49.377384 -12.825598 -9.545997
-48.439173 -12.481694 -9.876895
-43.190012 -4.755016 -12.324817
-43.936561 -5.986498 -12.559224
-42.954088 -5.67404 -11.175793
-43.390476 -3.930172 -13.457157
-43.190012 -4.755016 -12.324817
-44.374233 -4.102521 -14.853371
-43.390476 -3.930172 -13.457157
-43.926367 -1.097098 -16.872155
-44.73478 -2.133757 -17.140863
-44.066481 -0.197858 -17.993807
-43.926367 -1.097098 -16.872155
-44.170227 0.835092 -19.134301
-44.997324 -0.096996 -19.423724
-44.066481 -0.197858 -17.993807
-43.330692 1.660872 -18.818849
-44.261536 1.761733 -20.248766
-44.170227 0.835092 -19.134301
-42.558771 2.845833 -18.406502
-43.330692 1.660872 -18.818849
-41.771669 3.924673 -17.966425
-42.634899 3.666353 -19.493239
-42.558771 2.845833 -18.406502
-41.049767 5.356392 -17.474972
-41.771669 3.924673 -17.966425
-41.107683 6.073656 -18.534083
-41.049767 5.356392 -17.474972
-57.814127 8.705412 -30.741819
-58.255253 7.59407 -29.218387
-57.589224 8.292549 -29.513281
-57.966707 8.972687 -32.003217
-57.814127 8.705412 -30.741819
-57.300679 9.671166 -32.298111
-58.093108 8.994924 -33.275152
-57.966707 8.972687 -32.003217
-56.820257 10.793343 -35.117434
-56.738659 10.682924 -33.841164
-56.105657 11.537824 -35.399088
-57.536286 9.807958 -34.829954
-56.820257 10.793343 -35.117434
-58.093108 8.994924 -33.275152
-57.536286 9.807958 -34.829954
3 0 37 35
3 128 127 39
3 130 129 42
3 2 131 133
3 133 132 44
3 131 132 133
3 2 134 135
3 3 47 45
3 5 50 48
3 5 52 50
3 1 55 53
3 6 59 57
3 6 61 59
3 7 136 138
3 136 63 137
3 136 137 138
3 7 65 63
3 7 67 65
3 4 70 68
3 8 139 141
3 141 140 72
3 139 140 141
3 9 73 36
3 9 74 73
3 10 77 75
3 12 78 38
3 12 79 78
3 13 82 80
3 143 142 40
3 15 144 145
3 15 146 148
3 146 83 147
3 146 147 148
3 15 85 83
3 17 86 41
3 17 149 151
3 151 150 86
3 149 150 151
3 19 89 87
3 153 152 43
3 22 92 90
3 24 93 46
3 24 94 93
3 11 95 76
3 25 96 49
3 25 97 96
3 25 98 97
3 26 99 51
3 26 100 99
3 21 154 156
3 154 101 155
3 154 155 156
3 27 102 54
3 27 103 102
3 14 104 81
3 28 105 56
3 28 106 105
3 28 107 106
3 16 108 84
3 29 109 58
3 29 157 159
3 159 158 109
3 157 158 159
3 29 160 162
3 160 110 161
3 160 161 162
3 30 111 60
3 30 112 111
3 18 163 164
3 31 165 167
3 167 166 62
3 165 166 167
3 31 168 170
3 168 113 169
3 168 169 170
3 31 114 113
3 32 115 64
3 32 116 115
3 32 117 116
3 171 118 172
3 173 172 66
3 171 172 173
3 174 119 175
3 176 175 118
3 174 175 176
3 23 120 91
3 33 121 69
3 33 122 121
3 20 123 88
3 34 124 71
3 34 125 124
3 34 126 125
3 35 36 8
3 37 36 35
3 37 9 36
3 177 38 178
3 179 178 10
3 177 178 179
3 180 38 181
3 182 12 183
3 184 183 38
3 182 183 184
3 39 40 13
3 185 40 186
3 187 186 39
3 185 186 187
3 189 188 40
3 190 15 191
3 192 41 193
3 194 193 15
3 192 193 194
3 195 41 196
3 197 17 198
3 199 198 41
3 197 198 199
3 42 43 19
3 200 43 201
3 202 201 42
3 200 201 202
3 204 203 43
3 44 205 206
3 208 207 44
3 45 46 22
3 47 46 45
3 47 24 46
3 48 49 11
3 50 49 48
3 50 25 49
3 50 51 25
3 52 51 50
3 52 26 51
3 53 54 21
3 55 54 53
3 55 27 54
3 209 56 210
3 211 210 14
3 209 210 211
3 212 56 213
3 214 28 215
3 216 215 56
3 214 215 216
3 218 217 28
3 57 58 16
3 59 58 57
3 59 29 58
3 59 60 29
3 61 60 59
3 61 30 60
3 219 62 220
3 221 220 18
3 219 220 221
3 63 222 224
3 222 62 223
3 222 223 224
3 63 31 62
3 63 64 31
3 65 64 63
3 65 32 64
3 65 66 32
3 67 66 65
3 67 225 227
3 227 226 66
3 225 226 227
3 68 69 23
3 70 69 68
3 70 33 69
3 228 71 229
3 230 229 20
3 228 229 230
3 231 71 232
3 233 34 234
3 235 234 71
3 233 234 235
3 237 236 34
3 72 238 239
3 241 240 72
3 36 242 244
3 244 243 8
3 242 243 244
3 73 245 247
3 247 246 36
3 245 246 247
3 73 248 249
3 73 250 252
3 250 44 251
3 250 251 252
3 74 44 73
3 74 2 44
3 75 76 3
3 77 76 75
3 77 11 76
3 38 77 10
3 78 77 38
3 78 11 77
3 78 48 11
3 79 48 78
3 79 5 48
3 80 81 1
3 82 81 80
3 82 14 81
3 40 82 13
3 253 82 254
3 255 254 40
3 253 254 255
3 256 14 257
3 258 257 82
3 256 257 258
3 260 259 14
3 83 261 262
3 83 263 264
3 83 265 267
3 265 84 266
3 265 266 267
3 85 84 83
3 85 16 84
3 41 85 15
3 86 85 41
3 86 16 85
3 86 57 16
3 268 57 269
3 270 269 86
3 268 269 270
3 271 6 272
3 273 272 57
3 271 272 273
3 274 18 275
3 276 18 277
3 279 278 18
3 280 7 281
3 283 282 7
3 87 88 4
3 89 88 87
3 89 20 88
3 43 89 19
3 284 89 285
3 286 285 43
3 284 285 286
3 287 20 288
3 289 288 89
3 287 288 289
3 291 290 20
3 292 21 293
3 294 21 295
3 296 53 297
3 298 297 21
3 296 297 298
3 299 53 300
3 301 1 302
3 303 302 53
3 301 302 303
3 304 1 305
3 306 80 307
3 308 307 1
3 306 307 308
3 309 80 310
3 311 13 312
3 313 312 80
3 311 312 313
3 314 13 315
3 316 39 317
3 318 317 13
3 316 317 318
3 319 39 320
3 322 321 39
3 90 91 0
3 92 91 90
3 92 23 91
3 46 92 22
3 93 92 46
3 93 23 92
3 93 68 23
3 94 68 93
3 94 4 68
3 76 47 3
3 95 47 76
3 95 24 47
3 49 95 11
3 96 95 49
3 96 24 95
3 96 94 24
3 97 94 96
3 97 4 94
3 97 87 4
3 98 87 97
3 98 19 87
3 51 98 25
3 99 98 51
3 99 19 98
3 99 42 19
3 100 42 99
3 100 323 325
3 325 324 42
3 323 324 325
3 101 326 327
3 101 328 330
3 328 12 329
3 328 329 330
3 54 101 21
3 102 101 54
3 102 12 101
3 102 79 12
3 103 79 102
3 103 5 79
3 81 55 1
3 104 55 81
3 104 27 55
3 56 104 14
3 105 104 56
3 105 27 104
3 105 103 27
3 106 103 105
3 106 5 103
3 106 52 5
3 107 52 106
3 107 26 52
3 331 107 332
3 333 332 28
3 331 332 333
3 334 107 335
3 336 26 337
3 338 337 107
3 336 337 338
3 339 100 340
3 341 340 26
3 339 340 341
3 342 100 343
3 345 344 100
3 84 346 347
3 108 348 350
3 350 349 84
3 348 349 350
3 108 351 352
3 58 108 16
3 109 108 58
3 109 353 355
3 355 354 108
3 353 354 355
3 109 356 357
3 359 358 109
3 360 72 361
3 110 362 364
3 362 72 363
3 362 363 364
3 110 8 72
3 60 110 29
3 111 110 60
3 111 8 110
3 111 35 8
3 112 35 111
3 112 0 35
3 365 17 366
3 367 17 368
3 370 369 17
3 371 6 372
3 62 373 375
3 375 374 18
3 373 374 375
3 377 376 62
3 113 378 379
3 113 380 382
3 380 6 381
3 380 381 382
3 113 61 6
3 114 61 113
3 114 30 61
3 64 114 31
3 115 114 64
3 115 30 114
3 115 112 30
3 116 112 115
3 116 0 112
3 116 90 0
3 117 90 116
3 117 22 90
3 66 117 32
3 118 117 66
3 118 22 117
3 118 45 22
3 119 45 118
3 119 3 45
3 383 67 384
3 385 384 7
3 383 384 385
3 386 67 387
3 389 388 67
3 390 119 391
3 392 119 393
3 394 3 395
3 396 395 119
3 394 395 396
3 397 75 398
3 399 398 3
3 397 398 399
3 400 75 401
3 402 10 403
3 404 403 75
3 402 403 404
3 405 10 406
3 408 407 10
3 91 37 0
3 120 37 91
3 120 9 37
3 69 120 23
3 121 120 69
3 121 9 120
3 121 74 9
3 122 74 121
3 122 2 74
3 88 70 4
3 123 70 88
3 123 33 70
3 71 123 20
3 124 123 71
3 124 33 123
3 124 122 33
3 125 122 124
3 125 2 122
3 125 409 411
3 411 410 2
3 409 410 411
3 126 412 414
3 414 413 125
3 412 413 414
3 126 415 416
3 417 126 418
3 419 418 34
3 417 418 419
3 420 126 421
3 423 422 126
