ply
format ascii 1.0
element vertex 651
property float x
property float y
property float z
element face 669
property list uchar int vertex_index
end_header
50.343964 -24.053705 -44.472748
36.002796 -6.775681 -52.556732
36.840179 -37.967403 -36.152702
29.533188 -3.07889 -51.208328
35.176552 5.436583 -57.136673
44.215004 -1.799307 -56.575638
44.564934 -14.396937 -48.972588
52.845589 -13.260794 -51.396118
37.36837 -20.935324 -44.3283
43.312828 -29.997295 -40.771652
61.474823 -4.093284 -46.644333
60.501053 -16.359247 -47.876183
30.998991 -12.478386 -39.48703
29.641605 -7.73316 -44.161057
28.642673 -8.074938 -47.171738
29.087294 -2.649885 -48.440498
35.575718 10.999767 -56.834152
43.967274 4.0723 -57.937431
48.756363 -1.152611 -56.443459
48.859573 -7.0068 -54.407509
53.237244 -7.380136 -53.857033
32.694553 -10.782574 -49.414574
33.619537 -17.600502 -45.568596
36.755039 -13.520237 -48.5755
40.759132 -17.216223 -46.7789
40.42691 -10.098624 -51.203629
63.641052 -18.234726 -44.133568
32.037003 -4.427565 -52.605583
29.780979 2.378773 -48.400047
29.883675 2.458302 -52.208878
31.803152 1.564995 -54.66008
35.402573 -0.51532 -55.617912
39.378979 8.224506 -58.116219
39.450535 2.369883 -57.568108
39.901051 -3.671761 -55.095421
44.509468 -7.845903 -53.321777
48.652172 -13.035687 -50.721069
48.019768 -19.424166 -46.47538
51.798691 -19.070889 -47.735252
32.673565 -36.942535 -33.519333
34.899994 -33.099018 -37.138611
34.492344 -25.005413 -41.423019
37.482269 -29.093727 -40.182076
40.611763 -25.176603 -42.562027
44.215782 -21.740879 -44.59124
47.157059 -26.514105 -42.666977
45.897682 -34.784538 -39.347313
49.998222 -30.596691 -41.556778
53.116867 -34.006912 -40.940651
53.314064 -25.9643 -44.481537
61.146751 -10.065785 -47.777718
56.881767 -14.576948 -50.458977
55.603432 -20.479523 -47.84008
29.217052 -5.217478 -46.356506
29.509638 -2.646906 -46.598946
48.703045 1.766628 -56.701637
51.037399 -1.211519 -55.680054
51.066803 -4.141141 -55.270172
53.274544 -4.429379 -54.398491
34.260761 -8.695303 -51.044472
34.674992 -12.032234 -49.142342
36.375446 -10.073765 -50.636436
38.532909 -11.693174 -49.936104
38.214085 -8.314295 -52.022812
28.903116 -5.558352 -49.249672
29.53001 -5.991718 -50.219574
30.697948 -6.653664 -50.84668
30.544939 -3.626755 -52.086357
30.212337 4.695786 -47.849068
29.639385 2.503681 -50.459969
30.234407 5.038361 -52.154312
31.87779 4.423368 -55.125885
33.370121 3.621405 -56.053444
33.435242 0.66847 -55.329048
35.228409 2.495169 -56.597542
41.706451 9.172689 -57.932991
44.062439 1.143999 -57.515999
41.663635 3.367552 -57.976387
41.812977 0.414455 -57.23748
39.648804 -0.621851 -56.554192
42.01619 -2.573503 -56.004959
42.231697 -5.630115 -54.341637
44.377579 -4.782035 -55.150009
50.96991 -10.005982 -52.986427
48.810394 -9.985215 -52.714859
50.749607 -12.970045 -51.235298
50.38868 -15.963767 -49.255768
52.407299 -16.188616 -49.638115
33.763741 -35.054939 -35.378326
33.596287 -30.963659 -37.588051
35.861507 -22.953178 -42.946289
36.077858 -26.937275 -40.84613
37.508732 -24.921711 -42.234833
38.977421 -27.104599 -41.441559
39.07328 -22.954849 -43.478905
42.617706 -15.655169 -47.906044
42.562679 -19.397587 -45.693481
44.449196 -17.957239 -46.731239
46.114655 -20.39168 -45.563759
46.39666 -16.856518 -47.716003
44.591019 -32.435593 -39.99942
46.605057 -30.512575 -40.959686
45.237663 -28.174717 -41.706978
52.52169 -38.320175 -39.163589
50.981987 -36.570805 -39.559097
51.532455 -32.34676 -41.245041
49.463837 -34.70573 -39.938622
62.12735 -17.296717 -46.107735
62.549553 -14.083942 -45.984642
60.879608 -13.200961 -47.984901
59.318062 -9.257927 -49.77095
59.096252 -12.351741 -49.751534
57.200367 -11.559086 -51.195312
58.752846 -15.440285 -49.352097
31.11878 -9.867384 -39.966461
30.274876 -10.162428 -41.864784
28.95521 -7.86758 -45.806519
28.827915 -5.320884 -47.95414
29.055792 -2.768017 -49.986122
33.699974 9.210577 -56.201553
35.280746 8.288214 -57.214577
43.9771 6.979649 -57.850739
46.330154 4.501127 -57.433525
46.369446 1.585596 -57.342674
46.47176 -1.335859 -56.737556
46.58577 -4.271431 -55.618416
48.826557 -4.072154 -55.673943
51.062595 -7.068329 -54.361969
53.11198 -10.322845 -52.83992
31.802067 -16.298082 -45.844551
33.13953 -14.125712 -47.546677
35.109928 -15.510485 -47.123711
37.101448 -17.136417 -46.453133
39.004814 -19.001532 -45.594521
38.810307 -15.249569 -47.765343
40.634586 -13.556295 -49.001656
42.561958 -12.130429 -50.161995
63.024132 -21.522429 -44.186951
59.949913 -19.499342 -47.404259
30.967186 -9.768545 -49.35981
32.319477 -7.554974 -51.121017
33.90065 -5.479382 -52.759697
29.820648 -0.168812 -46.507935
29.406799 -0.076929 -48.596313
29.302952 -0.073893 -50.400085
29.651745 -0.256641 -51.884697
30.824211 4.888834 -53.821281
30.601486 2.159451 -53.615616
30.511532 -0.686279 -53.025406
31.861084 -1.388708 -53.804794
33.618916 -2.363556 -54.211876
35.669483 -3.598784 -54.246536
37.340282 9.811249 -57.664169
37.19017 6.977215 -57.842255
41.613667 6.295397 -58.202072
39.346375 5.32214 -58.091774
37.208252 4.053587 -57.540367
37.355225 1.072222 -56.760178
37.593719 -1.96629 -55.533012
37.890327 -5.083832 -53.923431
40.171398 -6.81649 -53.275002
42.423847 -8.800755 -52.351021
44.579414 -11.037175 -51.214668
46.663895 -7.252413 -54.03624
46.669998 -10.319242 -52.094658
46.582993 -13.510052 -49.936409
48.381298 -16.176893 -48.58709
49.908539 -18.966032 -47.230629
49.37973 -21.944212 -45.342743
51.064526 -21.803055 -45.905525
34.82095 -37.421051 -34.959824
35.983334 -35.448658 -36.649734
34.77853 -28.961483 -39.294289
36.128376 -31.102573 -38.749062
37.262497 -33.445198 -38.160767
40.278042 -29.460024 -40.619797
42.007309 -27.548801 -41.640709
40.76329 -21.090508 -44.617455
42.36792 -23.364998 -43.595993
43.844166 -25.757675 -42.603394
45.735489 -24.155594 -43.555168
47.609161 -22.835096 -44.495384
48.946014 -25.089565 -43.635941
47.267494 -36.993561 -38.808044
48.002747 -32.695152 -40.381096
48.549812 -28.677727 -41.998917
50.286743 -26.899292 -43.138069
53.401413 -29.860064 -42.727844
51.785751 -28.391851 -42.918594
51.682976 -24.862015 -44.499268
64.103287 -14.995388 -43.838486
61.342049 -7.008033 -47.314842
59.47765 -6.198169 -49.463364
55.351513 -7.882296 -52.891022
55.199265 -10.863755 -52.240616
54.902603 -13.825422 -51.145271
58.218925 -18.495949 -48.551498
56.363674 -17.55773 -49.313881
54.412491 -16.756962 -49.671333
53.706318 -19.630442 -47.947517
52.790474 -22.378202 -46.153778
29.818315 -2.650511 -45.548965
29.701002 -3.902821 -45.542705
52.162365 -1.343107 -55.077152
51.03538 0.252609 -55.646847
53.280938 -2.952037 -54.436371
52.155971 -2.820449 -55.039272
52.162365 -1.343107 -55.077152
37.187634 -39.283434 -35.90855
36.53096 -40.308404 -35.147114
37.523668 -36.954668 -36.857021
37.187634 -39.283434 -35.90855
30.474806 6.242095 -51.933155
30.151259 4.987823 -51.152008
34.273336 4.528994 -56.595059
33.409384 5.051362 -56.201015
34.3126 5.958951 -56.74263
42.919689 9.498727 -57.61425
41.841749 10.555109 -57.570488
32.880246 -30.020011 -37.769623
33.05064 -31.940696 -36.674294
36.614939 -21.944251 -43.637294
35.69182 -21.049974 -43.995865
36.445251 -20.041047 -44.68687
43.951924 -31.216444 -40.385536
43.600975 -33.432612 -39.533596
42.96188 -32.213463 -39.919712
49.843593 -37.809161 -38.951363
50.585308 -38.762976 -38.729293
49.084519 -36.876623 -39.141125
50.222912 -35.638267 -39.74886
49.843593 -37.809161 -38.951363
60.596445 -2.25188 -47.363751
61.502685 -2.742394 -46.214596
60.542084 -3.660025 -47.76585
60.596445 -2.25188 -47.363751
31.139117 -8.577298 -40.075302
31.37957 -9.625999 -38.942066
29.95824 -8.947794 -43.01292
30.371204 -8.868698 -42.06749
30.054568 -7.654064 -43.215626
29.516323 -9.05108 -43.856544
29.832959 -10.265714 -42.708408
29.95824 -8.947794 -43.01292
29.298407 -7.80037 -44.983788
29.173126 -9.11829 -44.679276
29.516323 -9.05108 -43.856544
34.637846 10.105172 -56.517853
33.926155 10.478834 -55.910091
34.864027 11.373429 -56.226391
47.52496 4.588295 -56.956696
46.365521 5.944403 -57.240421
32.917041 -12.454143 -48.480626
32.241088 -13.552542 -47.612072
32.0186 -11.880973 -48.54602
62.618313 -23.161245 -44.064293
63.291932 -23.688136 -43.227104
62.286112 -21.020312 -45.055775
62.618313 -23.161245 -44.064293
31.337311 -13.569104 -38.27523
31.354899 -12.246783 -38.546948
28.596311 -9.488454 -46.652378
28.693281 -9.330647 -46.0784
30.307541 -9.378217 -49.162255
30.428214 -10.918063 -48.424591
29.964171 2.291074 -47.237721
30.179851 3.44958 -46.962231
29.996658 3.537279 -48.124558
29.800813 1.10498 -47.453991
29.984006 1.017281 -46.291665
29.964171 2.291074 -47.237721
31.464792 6.023449 -54.498352
31.009814 6.176979 -53.72271
38.359631 9.017878 -57.890194
38.463645 10.420903 -57.664005
39.482994 9.627532 -57.89003
32.126972 -37.838129 -32.57141
32.072513 -35.870891 -33.689644
32.645565 -39.04771 -32.386966
32.126972 -37.838129 -32.57141
33.197266 -38.137805 -33.329129
32.645565 -39.04771 -32.386966
32.964222 -18.669886 -44.732628
32.055487 -18.018676 -44.870605
32.710802 -16.949292 -45.706574
33.653351 -24.162405 -41.641475
34.290289 -23.113899 -42.470993
33.877392 -26.030508 -40.587833
33.653351 -24.162405 -41.641475
34.635437 -26.983448 -40.358654
34.020485 -28.008543 -39.523468
33.877392 -26.030508 -40.587833
38.086826 -30.266197 -39.829575
37.97694 -32.441933 -38.818921
37.372383 -31.269462 -39.171422
45.463218 -37.017616 -38.577679
44.840728 -35.838287 -38.872273
46.582588 -35.889049 -39.077679
46.148124 -38.122128 -38.308044
45.463218 -37.017616 -38.577679
53.90611 -34.803978 -40.746914
53.608522 -36.96061 -39.858383
52.819278 -36.163544 -40.05212
54.080625 -32.667797 -41.691658
53.90611 -34.803978 -40.746914
53.25914 -31.933488 -41.834248
54.222898 -30.594373 -42.585254
54.080625 -32.667797 -41.691658
63.872169 -16.615057 -43.986027
64.57663 -17.084008 -42.937752
64.345512 -18.703677 -43.085293
62.001503 -10.500854 -46.696323
62.702904 -12.509933 -45.799785
61.848152 -12.074863 -46.88118
61.2444 -8.536909 -47.54628
62.099152 -8.971978 -46.464885
62.001503 -10.500854 -46.696323
58.408066 -7.373261 -50.595012
58.350571 -8.889816 -50.637962
56.367296 -8.202001 -52.197998
55.388105 -6.386551 -52.991852
58.690212 -20.543083 -47.554958
59.084419 -18.997645 -47.977879
59.555706 -21.044779 -46.981339
55.983553 -19.018626 -48.576981
56.900294 -19.526409 -48.347229
56.520173 -20.987306 -47.610329
53.052269 -24.171251 -45.317658
53.687967 -22.840665 -46.163483
53.949763 -24.633713 -45.327362
29.766985 -6.445948 -44.323761
30.054568 -7.654064 -43.215626
29.554709 -5.188107 -45.421486
29.429328 -6.475319 -45.258781
29.766985 -6.445948 -44.323761
29.363345 -3.932192 -46.477726
29.554709 -5.188107 -45.421486
29.701002 -3.902821 -45.542705
35.830929 12.246187 -56.426098
34.864027 11.373429 -56.226391
49.868203 1.741682 -56.157638
48.711405 3.221045 -56.590751
49.870222 0.277555 -56.190845
49.868203 1.741682 -56.157638
51.03538 0.252609 -55.646847
30.906883 -13.797265 -39.132069
30.524698 -12.636053 -40.344296
28.879905 -6.995071 -48.740463
28.749683 -8.253363 -47.701496
28.772894 -6.816645 -48.210705
29.193351 -7.211754 -49.225414
28.879905 -6.995071 -48.740463
29.216563 -5.775035 -49.734623
29.588953 -7.489803 -49.592137
29.193351 -7.211754 -49.225414
30.113979 -6.322691 -50.533127
30.172922 -7.820776 -49.90569
29.588953 -7.489803 -49.592137
30.404418 5.9455 -48.660691
30.459057 5.77494 -47.405243
30.140224 4.816535 -48.999386
30.404418 5.9455 -48.660691
29.924545 3.658028 -49.274876
29.996658 3.537279 -48.124558
30.140224 4.816535 -48.999386
29.853748 3.720483 -50.304837
29.710182 2.441227 -49.430008
29.924545 3.658028 -49.274876
29.936896 3.771021 -51.307141
29.853748 3.720483 -50.304837
30.151259 4.987823 -51.152008
32.663218 5.452343 -55.737236
31.991582 5.790716 -55.150654
32.623956 4.022386 -55.589664
32.663218 5.452343 -55.737236
33.409384 5.051362 -56.201015
40.64673 10.101623 -57.798416
41.841749 10.555109 -57.570488
40.542715 8.698597 -58.024605
39.482994 9.627532 -57.89003
40.64673 10.101623 -57.798416
32.589279 -34.930133 -34.639935
32.072513 -35.870891 -33.689644
33.134367 -33.986335 -35.569431
33.218653 -35.998737 -34.44883
32.589279 -34.930133 -34.639935
33.680014 -33.009299 -36.483188
33.134367 -33.986335 -35.569431
33.05064 -31.940696 -36.674294
33.853886 -19.411443 -44.543782
34.570835 -18.373635 -45.307018
34.974871 -22.087781 -43.232628
35.69182 -21.049974 -43.995865
35.176926 -23.979295 -42.184654
34.290289 -23.113899 -42.470993
34.974871 -22.087781 -43.232628
44.187397 -34.663815 -39.198326
43.600975 -33.432612 -39.533596
45.244351 -33.610065 -39.673367
44.840728 -35.838287 -38.872273
44.187397 -34.663815 -39.198326
51.355159 -39.637661 -38.53154
52.102129 -40.52706 -38.293582
51.751838 -37.44549 -39.361343
51.355159 -39.637661 -38.53154
50.585308 -38.762976 -38.729293
58.239666 -10.436723 -50.628254
58.350571 -8.889816 -50.637962
59.207157 -10.804834 -49.761242
58.148309 -11.955414 -50.473423
57.291724 -10.040396 -51.350143
58.239666 -10.436723 -50.628254
55.988613 -22.445523 -46.884216
56.520173 -20.987306 -47.610329
55.094447 -21.891325 -47.006633
55.988613 -22.445523 -46.884216
54.169047 -26.587875 -44.40495
53.949763 -24.633713 -45.327362
31.414793 -10.941282 -38.786663
31.37957 -9.625999 -38.942066
31.058886 -11.172885 -39.726745
31.354899 -12.246783 -38.546948
31.414793 -10.941282 -38.786663
30.793156 -8.721176 -41.118328
31.139117 -8.577298 -40.075302
30.696828 -10.014906 -40.915622
30.793156 -8.721176 -41.118328
30.371204 -8.868698 -42.06749
30.16264 -11.478074 -41.533172
30.524698 -12.636053 -40.344296
30.636933 -11.320407 -40.675907
30.16264 -11.478074 -41.533172
29.832959 -10.265714 -42.708408
28.84955 -9.226968 -45.395791
29.173126 -9.11829 -44.679276
28.798941 -7.971259 -46.489128
28.693281 -9.330647 -46.0784
28.84955 -9.226968 -45.395791
33.104746 9.465719 -55.501812
33.926155 10.478834 -55.910091
32.902673 8.184321 -55.688488
33.104746 9.465719 -55.501812
33.57431 7.845948 -56.27507
32.902673 8.184321 -55.688488
34.364697 7.384766 -56.781582
33.57431 7.845948 -56.27507
34.49036 8.749396 -56.708065
35.228649 6.862398 -57.175625
34.3126 5.958951 -56.74263
34.364697 7.384766 -56.781582
45.188993 7.183663 -57.449028
44.055014 8.402207 -57.573124
45.153627 5.740388 -57.642132
45.188993 7.183663 -57.449028
46.365521 5.944403 -57.240421
47.516599 3.133878 -57.067581
47.52496 4.588295 -56.956696
48.711405 3.221045 -56.590751
31.572356 -14.638727 -46.761009
31.024085 -15.767351 -45.839107
32.470799 -15.211897 -46.695614
31.572356 -14.638727 -46.761009
32.241088 -13.552542 -47.612072
35.31603 -17.328627 -46.084576
34.570835 -18.373635 -45.307018
34.364733 -16.555493 -46.346153
36.311791 -18.141593 -45.749287
35.31603 -17.328627 -46.084576
36.105688 -16.323451 -46.788422
37.234909 -19.035871 -45.390716
36.445251 -20.041047 -44.68687
36.311791 -18.141593 -45.749287
42.388874 -30.962011 -40.29393
42.96188 -32.213463 -39.919712
62.309971 -4.59905 -45.486637
61.502685 -2.742394 -46.214596
64.019428 -20.367224 -43.203216
64.345512 -18.703677 -43.085293
63.710968 -22.011075 -43.229908
63.291932 -23.688136 -43.227104
63.332592 -19.878577 -44.160259
64.019428 -20.367224 -43.203216
63.710968 -22.011075 -43.229908
61.837721 -18.907457 -46.016167
62.575741 -19.409573 -45.147343
62.286112 -21.020312 -45.055775
61.024572 -18.438721 -46.900391
61.314201 -16.827982 -46.991959
61.837721 -18.907457 -46.016167
60.749003 -20.008769 -46.664429
60.225483 -17.929294 -47.640221
61.024572 -18.438721 -46.900391
60.351601 -21.602103 -46.399712
60.749003 -20.008769 -46.664429
59.555706 -21.044779 -46.981339
60.351601 -21.602103 -46.399712
31.337311 -13.569104 -38.27523
30.906883 -13.797265 -39.132069
28.596311 -9.488454 -46.652378
28.749683 -8.253363 -47.701496
31.154916 -11.373959 -48.518639
30.428214 -10.918063 -48.424591
31.830869 -10.275559 -49.387192
32.0186 -11.880973 -48.54602
31.154916 -11.373959 -48.518639
30.832567 -8.211104 -50.103245
30.307541 -9.378217 -49.162255
30.172922 -7.820776 -49.90569
36.234098 -38.968984 -35.347164
36.53096 -40.308404 -35.147114
30.353195 4.5771 -46.582276
30.459057 5.77494 -47.405243
30.353195 4.5771 -46.582276
30.179851 3.44958 -46.962231
30.079666 -0.197759 -45.346589
29.984006 1.017281 -46.291665
29.97382 -1.411464 -45.50346
30.079666 -0.197759 -45.346589
29.665143 -1.407859 -46.553441
29.818315 -2.650511 -45.548965
29.97382 -1.411464 -45.50346
30.714912 6.251743 -52.889225
30.474806 6.242095 -51.933155
30.529309 4.963598 -52.987797
30.714912 6.251743 -52.889225
31.009814 6.176979 -53.72271
31.351 4.656101 -54.473583
31.464792 6.023449 -54.498352
31.991582 5.790716 -55.150654
36.633432 11.744969 -56.931804
35.830929 12.246187 -56.426098
37.515715 11.15071 -57.346813
38.463645 10.420903 -57.664005
36.458 10.405508 -57.249161
36.633432 11.744969 -56.931804
37.515715 11.15071 -57.346813
42.841775 8.076169 -57.891865
42.919689 9.498727 -57.61425
44.055014 8.402207 -57.573124
33.742354 -37.194007 -34.258625
33.197266 -38.137805 -33.329129
33.218653 -35.998737 -34.44883
34.270958 -38.377063 -34.049374
33.742354 -37.194007 -34.258625
34.292346 -36.237995 -35.169075
34.669295 -39.67198 -33.862881
34.270958 -38.377063 -34.049374
35.224484 -38.695808 -34.750725
34.669295 -39.67198 -33.862881
35.805675 -37.709612 -35.59568
35.224484 -38.695808 -34.750725
35.402142 -36.434855 -35.804779
36.411756 -36.70803 -36.401218
36.234098 -38.968984 -35.347164
35.805675 -37.709612 -35.59568
31.248936 -17.401827 -44.937176
31.024085 -15.767351 -45.839107
31.248936 -17.401827 -44.937176
32.055487 -18.018676 -44.870605
32.964222 -18.669886 -44.732628
33.853886 -19.411443 -44.543782
33.429363 -29.009631 -38.670349
32.880246 -30.020011 -37.769623
34.187409 -29.962571 -38.44117
33.429363 -29.009631 -38.670349
34.020485 -28.008543 -39.523468
37.734827 -34.693565 -37.861053
37.523668 -36.954668 -36.857021
37.051338 -35.7063 -37.156734
37.734827 -34.693565 -37.861053
37.97694 -32.441933 -38.818921
38.834402 -29.271633 -40.459316
38.086826 -30.266197 -39.829575
38.229845 -28.099163 -40.811818
39.484713 -30.449345 -40.048435
38.834402 -29.271633 -40.459316
39.627731 -28.282311 -41.030678
40.014753 -31.689735 -39.694328
39.484713 -30.449345 -40.048435
40.871481 -30.693376 -40.218002
40.014753 -31.689735 -39.694328
41.736114 -29.737764 -40.728459
40.871481 -30.693376 -40.218002
41.142675 -28.504413 -41.130253
42.660069 -28.773048 -41.206181
42.388874 -30.962011 -40.29393
41.736114 -29.737764 -40.728459
46.814068 -39.230103 -38.045204
46.148124 -38.122128 -38.308044
47.986347 -38.020539 -38.575836
46.814068 -39.230103 -38.045204
48.365665 -35.849646 -39.373333
49.084519 -36.876623 -39.141125
47.986347 -38.020539 -38.575836
53.281326 -39.146476 -38.927433
52.102129 -40.52706 -38.293582
53.281326 -39.146476 -38.927433
53.608522 -36.96061 -39.858383
54.212721 -28.535757 -43.528103
54.222898 -30.594373 -42.585254
53.357738 -27.912182 -43.604691
54.169047 -26.587875 -44.40495
54.212721 -28.535757 -43.528103
62.267254 -6.006256 -45.848736
62.309971 -4.59905 -45.486637
64.815555 -15.470367 -42.729996
64.57663 -17.084008 -42.937752
64.263527 -13.434532 -43.599659
64.815555 -15.470367 -42.729996
63.479771 -12.965656 -44.726708
63.32642 -14.539665 -44.911564
62.702904 -12.509933 -45.799785
64.263527 -13.434532 -43.599659
63.479771 -12.965656 -44.726708
62.200867 -7.463631 -46.183991
62.099152 -8.971978 -46.464885
61.408436 -5.550658 -46.979588
62.267254 -6.006256 -45.848736
62.200867 -7.463631 -46.183991
60.475696 -5.1174 -48.101104
60.542084 -3.660025 -47.76585
61.408436 -5.550658 -46.979588
59.543497 -4.712467 -49.175365
60.475696 -5.1174 -48.101104
60.409849 -6.603101 -48.389103
58.53833 -4.348461 -50.228798
59.543497 -4.712467 -49.175365
58.48786 -5.843381 -50.44122
59.397856 -7.728048 -49.617157
58.408066 -7.373261 -50.595012
58.53833 -4.348461 -50.228798
58.48786 -5.843381 -50.44122
54.349621 -4.660093 -53.745587
53.280938 -2.952037 -54.436371
54.313029 -6.155838 -53.644756
54.349621 -4.660093 -53.745587
55.388105 -6.386551 -52.991852
56.27594 -9.720691 -52.043167
56.367296 -8.202001 -52.197998
57.291724 -10.040396 -51.350143
57.827919 -19.995519 -47.966037
58.690212 -20.543083 -47.554958
57.2913 -18.02684 -48.93269
57.827919 -19.995519 -47.966037
56.900294 -19.526409 -48.347229
54.14589 -21.466784 -47.060352
54.654875 -20.054983 -47.893799
55.094447 -21.891325 -47.006633
53.248396 -21.004322 -47.050647
54.14589 -21.466784 -47.060352
53.687967 -22.840665 -46.163483
3 201 54 202
3 203 56 204
3 205 58 206
3 207 206 56
3 205 206 207
3 1 61 59
3 1 63 61
3 2 208 209
3 2 210 211
3 3 65 64
3 3 67 65
3 212 70 213
3 4 214 216
3 214 72 215
3 214 215 216
3 4 74 72
3 217 75 218
3 5 78 76
3 5 80 78
3 5 82 80
3 7 85 83
3 7 87 85
3 219 89 220
3 8 221 223
3 221 90 222
3 221 222 223
3 8 92 90
3 8 94 92
3 6 97 95
3 6 99 97
3 9 224 226
3 224 100 225
3 224 225 226
3 9 102 100
3 227 104 228
3 229 106 230
3 231 230 104
3 229 230 231
3 10 232 233
3 10 234 235
3 11 109 107
3 11 111 109
3 11 113 111
3 236 114 237
3 13 238 240
3 238 115 239
3 238 239 240
3 13 241 243
3 243 242 115
3 241 242 243
3 13 244 246
3 244 116 245
3 244 245 246
3 15 117 53
3 15 118 117
3 16 247 249
3 247 119 248
3 247 248 249
3 16 120 119
3 250 122 251
3 18 123 55
3 18 124 123
3 18 126 124
3 20 127 57
3 20 128 127
3 21 252 254
3 252 130 253
3 252 253 254
3 23 131 60
3 23 132 131
3 23 134 132
3 25 135 62
3 25 136 135
3 255 137 256
3 258 257 137
3 12 259 260
3 14 261 262
3 263 139 264
3 27 140 66
3 27 141 140
3 28 265 267
3 267 266 68
3 265 266 267
3 28 268 270
3 268 142 269
3 268 269 270
3 28 143 142
3 29 144 69
3 29 145 144
3 271 146 272
3 30 147 71
3 30 148 147
3 30 149 148
3 31 150 73
3 31 151 150
3 32 273 275
3 273 152 274
3 273 274 275
3 32 153 152
3 17 154 121
3 33 155 77
3 33 156 155
3 33 157 156
3 34 158 79
3 34 159 158
3 34 160 159
3 35 161 81
3 35 162 161
3 19 163 125
3 36 164 84
3 36 165 164
3 36 166 165
3 38 167 86
3 38 169 167
3 39 276 277
3 39 278 279
3 39 280 281
3 40 170 88
3 40 171 170
3 22 282 284
3 284 283 129
3 282 283 284
3 41 285 286
3 41 287 288
3 41 289 291
3 289 172 290
3 289 290 291
3 42 173 91
3 42 174 173
3 42 292 294
3 294 293 174
3 292 293 294
3 43 175 93
3 43 176 175
3 24 177 133
3 44 178 96
3 44 179 178
3 44 180 179
3 37 181 98
3 37 168 181
3 46 295 296
3 46 297 299
3 297 183 298
3 297 298 299
3 46 184 183
3 45 185 101
3 45 182 185
3 48 300 302
3 302 301 103
3 300 301 302
3 48 303 304
3 48 305 307
3 305 187 306
3 305 306 307
3 47 188 105
3 47 186 188
3 26 308 310
3 308 190 309
3 308 309 310
3 50 311 313
3 313 312 108
3 311 312 313
3 50 314 316
3 314 191 315
3 314 315 316
3 50 192 191
3 318 317 110
3 319 193 320
3 51 194 112
3 51 195 194
3 321 196 322
3 323 322 138
3 321 322 323
3 52 324 326
3 324 197 325
3 324 325 326
3 52 198 197
3 52 199 198
3 49 327 329
3 327 200 328
3 327 328 329
3 49 189 200
3 330 13 331
3 332 53 333
3 334 333 13
3 332 333 334
3 54 335 337
3 335 53 336
3 335 336 337
3 54 15 53
3 338 16 339
3 340 55 341
3 56 342 344
3 342 55 343
3 342 343 344
3 56 18 55
3 56 57 18
3 58 57 56
3 58 20 57
3 59 60 21
3 61 60 59
3 61 23 60
3 61 62 23
3 63 62 61
3 63 25 62
3 346 345 12
3 64 347 349
3 349 348 14
3 347 348 349
3 65 350 352
3 352 351 64
3 350 351 352
3 65 353 354
3 65 355 357
3 355 66 356
3 355 356 357
3 67 66 65
3 67 27 66
3 358 68 359
3 360 68 361
3 362 28 363
3 364 363 68
3 362 363 364
3 365 69 366
3 367 366 28
3 365 366 367
3 70 368 370
3 368 69 369
3 368 369 370
3 70 29 69
3 371 71 372
3 72 373 375
3 373 71 374
3 373 374 375
3 72 30 71
3 72 73 30
3 74 73 72
3 74 31 73
3 75 376 377
3 75 378 380
3 378 32 379
3 378 379 380
3 76 77 17
3 78 77 76
3 78 33 77
3 78 79 33
3 80 79 78
3 80 34 79
3 80 81 34
3 82 81 80
3 82 35 81
3 83 84 19
3 85 84 83
3 85 36 84
3 85 86 36
3 87 86 85
3 87 38 86
3 381 39 382
3 383 88 384
3 385 384 39
3 383 384 385
3 89 386 388
3 386 88 387
3 386 387 388
3 89 40 88
3 390 389 22
3 90 391 392
3 90 393 395
3 393 41 394
3 393 394 395
3 90 91 41
3 92 91 90
3 92 42 91
3 92 93 42
3 94 93 92
3 94 43 93
3 95 96 24
3 97 96 95
3 97 44 96
3 97 98 44
3 99 98 97
3 99 37 98
3 100 396 397
3 100 398 400
3 398 46 399
3 398 399 400
3 100 101 46
3 102 101 100
3 102 45 101
3 401 103 402
3 104 403 405
3 403 103 404
3 403 404 405
3 104 48 103
3 104 105 48
3 106 105 104
3 106 47 105
3 107 108 26
3 109 108 107
3 109 50 108
3 109 110 50
3 111 110 109
3 111 406 408
3 408 407 110
3 406 407 408
3 111 409 411
3 409 112 410
3 409 410 411
3 113 112 111
3 113 51 112
3 412 52 413
3 415 414 52
3 416 49 417
3 114 418 419
3 114 420 422
3 420 12 421
3 420 421 422
3 423 114 424
3 115 425 427
3 425 114 426
3 425 426 427
3 115 12 114
3 115 428 430
3 430 429 12
3 428 429 430
3 432 431 115
3 116 433 434
3 116 435 437
3 435 14 436
3 435 436 437
3 53 116 13
3 117 116 53
3 117 14 116
3 117 64 14
3 118 64 117
3 118 3 64
3 119 438 439
3 119 440 441
3 119 442 443
3 120 444 446
3 446 445 119
3 444 445 446
3 120 447 449
3 447 4 448
3 447 448 449
3 450 121 451
3 122 452 454
3 452 121 453
3 452 453 454
3 122 17 121
3 55 455 457
3 455 122 456
3 455 456 457
3 123 122 55
3 123 17 122
3 123 76 17
3 124 76 123
3 124 5 76
3 124 125 5
3 126 125 124
3 126 19 125
3 57 126 18
3 127 126 57
3 127 19 126
3 127 83 19
3 128 83 127
3 128 7 83
3 458 129 459
3 130 460 462
3 460 129 461
3 460 461 462
3 130 22 129
3 60 130 21
3 131 130 60
3 131 22 130
3 131 463 465
3 465 464 22
3 463 464 465
3 132 466 468
3 468 467 131
3 466 467 468
3 132 469 471
3 469 8 470
3 469 470 471
3 132 133 8
3 134 133 132
3 134 24 133
3 62 134 23
3 135 134 62
3 135 24 134
3 135 95 24
3 136 95 135
3 136 6 95
3 472 9 473
3 474 10 475
3 476 26 477
3 137 478 479
3 137 480 482
3 480 26 481
3 480 481 482
3 137 107 26
3 483 107 484
3 485 484 137
3 483 484 485
3 486 11 487
3 488 487 107
3 486 487 488
3 489 138 490
3 491 490 11
3 489 490 491
3 492 138 493
3 495 494 138
3 497 496 12
3 499 498 14
3 139 500 501
3 139 502 504
3 502 21 503
3 502 503 504
3 66 505 507
3 505 139 506
3 505 506 507
3 140 139 66
3 140 21 139
3 140 59 21
3 141 59 140
3 141 1 59
3 508 2 509
3 68 510 511
3 513 512 68
3 142 514 515
3 142 516 517
3 142 518 520
3 518 54 519
3 518 519 520
3 143 54 142
3 143 15 54
3 69 143 28
3 144 143 69
3 144 15 143
3 144 118 15
3 145 118 144
3 145 3 118
3 521 70 522
3 146 523 525
3 523 70 524
3 523 524 525
3 146 29 70
3 71 526 528
3 526 146 527
3 526 527 528
3 147 146 71
3 147 29 146
3 147 145 29
3 148 145 147
3 148 3 145
3 148 67 3
3 149 67 148
3 149 27 67
3 73 149 30
3 150 149 73
3 150 27 149
3 150 141 27
3 151 141 150
3 151 1 141
3 529 16 530
3 152 531 532
3 152 533 535
3 533 16 534
3 533 534 535
3 152 120 16
3 153 120 152
3 153 4 120
3 121 536 538
3 536 75 537
3 536 537 538
3 154 75 121
3 154 32 75
3 77 154 17
3 155 154 77
3 155 32 154
3 155 153 32
3 156 153 155
3 156 4 153
3 156 74 4
3 157 74 156
3 157 31 74
3 79 157 33
3 158 157 79
3 158 31 157
3 158 151 31
3 159 151 158
3 159 1 151
3 159 63 1
3 160 63 159
3 160 25 63
3 81 160 34
3 161 160 81
3 161 25 160
3 161 136 25
3 162 136 161
3 162 6 136
3 125 82 5
3 163 82 125
3 163 35 82
3 84 163 19
3 164 163 84
3 164 35 163
3 164 162 35
3 165 162 164
3 165 6 162
3 165 99 6
3 166 99 165
3 166 37 99
3 86 166 36
3 167 166 86
3 167 37 166
3 167 168 37
3 169 168 167
3 169 0 168
3 88 539 541
3 541 540 39
3 539 540 541
3 170 542 544
3 544 543 88
3 542 543 544
3 170 545 546
3 170 547 548
3 171 549 551
3 551 550 170
3 549 550 551
3 171 552 554
3 552 2 553
3 552 553 554
3 129 555 556
3 558 557 129
3 560 559 22
3 561 89 562
3 172 563 565
3 563 89 564
3 563 564 565
3 172 40 89
3 91 172 41
3 173 172 91
3 173 40 172
3 173 171 40
3 174 171 173
3 174 2 171
3 174 566 568
3 568 567 2
3 566 567 568
3 570 569 174
3 93 571 573
3 573 572 42
3 571 572 573
3 175 574 576
3 576 575 93
3 574 575 576
3 175 577 578
3 175 579 580
3 176 581 583
3 583 582 175
3 581 582 583
3 176 584 586
3 584 9 585
3 584 585 586
3 133 94 8
3 177 94 133
3 177 43 94
3 96 177 24
3 178 177 96
3 178 43 177
3 178 176 43
3 179 176 178
3 179 9 176
3 179 102 9
3 180 102 179
3 180 45 102
3 98 180 44
3 181 180 98
3 181 45 180
3 181 182 45
3 168 182 181
3 168 0 182
3 183 587 588
3 183 589 590
3 183 591 593
3 591 106 592
3 591 592 593
3 184 106 183
3 184 47 106
3 101 184 46
3 185 184 101
3 185 47 184
3 185 186 47
3 182 186 185
3 182 0 186
3 103 594 595
3 597 596 103
3 187 598 599
3 187 600 602
3 600 49 601
3 600 601 602
3 105 187 48
3 188 187 105
3 188 49 187
3 188 189 49
3 186 189 188
3 186 0 189
3 603 10 604
3 190 605 606
3 190 607 608
3 108 190 26
3 609 190 610
3 611 610 108
3 609 610 611
3 613 612 190
3 191 614 615
3 191 616 618
3 616 10 617
3 616 617 618
3 191 619 621
3 621 620 10
3 619 620 621
3 192 622 624
3 624 623 191
3 622 623 624
3 192 625 626
3 110 192 50
3 627 192 628
3 629 628 110
3 627 628 629
3 631 630 192
3 632 58 633
3 193 634 636
3 634 58 635
3 634 635 636
3 193 20 58
3 112 637 639
3 637 193 638
3 637 638 639
3 194 193 112
3 194 20 193
3 194 128 20
3 195 128 194
3 195 7 128
3 138 113 11
3 196 113 138
3 196 51 113
3 640 196 641
3 197 642 644
3 642 196 643
3 642 643 644
3 197 51 196
3 197 195 51
3 198 195 197
3 198 7 195
3 198 87 7
3 199 87 198
3 199 38 87
3 645 199 646
3 647 646 52
3 645 646 647
3 200 648 650
3 648 199 649
3 648 649 650
3 200 38 199
3 200 169 38
3 189 169 200
3 189 0 169
