ply
format ascii 1.0
element vertex 544
property float x
property float y
property float z
element face 581
property list uchar int vertex_index
end_header
-35.858448 -26.456223 -40.717564
-30.56118 -4.485447 -52.852089
-44.108215 7.119026 -56.67881
-48.552551 -19.99122 -48.145432
-36.408699 2.808485 -58.03315
-29.00728 5.151871 -54.442215
-26.76263 -5.598968 -47.673157
-33.657696 -15.549621 -46.753582
-54.461662 -4.440782 -51.686432
-46.923225 -6.148543 -55.575035
-39.785145 -9.118815 -52.490578
-41.250294 -22.430843 -44.006615
-45.519737 -35.388405 -40.111782
-27.301029 -1.538025 -47.074688
-50.688221 -5.243153 -54.52195
-45.365147 0.546288 -57.066254
-33.280495 -0.40587 -55.987587
-38.106251 -3.073919 -56.034035
-34.920937 -5.985421 -53.348373
-36.555813 -11.851168 -49.677528
-32.033951 -9.864916 -50.117393
-47.688335 -27.493074 -43.838459
-43.805252 -28.423584 -42.05151
-44.770164 -20.881886 -46.095596
-40.011566 5.279408 -58.344131
-32.004208 4.910036 -57.04557
-29.481354 0.562963 -54.424255
-52.357719 -19.556219 -49.402977
-27.433275 -0.02247 -51.383156
-27.605375 -4.486532 -50.919342
-27.015734 -11.288547 -43.628368
-26.524958 -9.998066 -47.006126
-28.33201 -9.354585 -49.227516
-29.599415 -14.558723 -46.689434
-33.00919 -25.618423 -40.687912
-55.449242 -11.729048 -51.032478
-51.873466 -12.32662 -52.651421
-48.172646 -12.92383 -52.374901
-41.581894 -0.992674 -57.476151
-43.259758 -7.320132 -54.71875
-44.483948 -13.864915 -50.607262
-40.97826 -15.530607 -48.179665
-37.789509 -18.071627 -45.730774
-38.180702 -24.485022 -42.178871
-40.321873 -29.707129 -40.465485
-34.565426 -31.2523 -38.089081
-47.357483 1.177885 -56.121933
-44.663071 3.869518 -57.101601
-31.869759 -2.335974 -54.512161
-34.078682 -3.166008 -54.838364
-32.625404 -5.035498 -53.280609
-33.434475 -7.807158 -51.768433
-31.26162 -7.135673 -51.598984
-48.288452 -23.68681 -45.946701
-46.3451 -24.069004 -44.972786
-46.642258 -20.35981 -47.164421
-30.293165 5.256231 -55.944351
-30.664465 2.832541 -55.885643
-29.1544 2.930588 -54.643547
-27.768871 3.013121 -47.814533
-27.009157 -3.523916 -47.547676
-27.161047 -0.722788 -49.36792
-26.981916 -2.777861 -49.583549
-27.450937 -2.197237 -51.327133
-26.906708 -4.942378 -49.44735
-27.13809 -9.557921 -48.275146
-28.90274 -11.917515 -48.040443
-53.941578 -0.91128 -51.50515
-56.304928 -4.106077 -49.791916
-58.494553 -7.385213 -47.90041
-56.767338 -7.701441 -49.837395
-57.177902 -11.390236 -49.589722
-54.983929 -8.055757 -51.526512
-48.798893 -5.679354 -55.296028
-51.332176 -8.772832 -53.785789
-49.480591 -9.129794 -54.21714
-50.032494 -12.607899 -52.741302
-47.624359 -9.514548 -54.157669
-38.146286 4.127056 -58.433998
-40.746681 2.154549 -58.157936
-38.938175 1.09948 -57.938133
-38.977722 -6.065244 -54.415077
-40.679691 -5.011683 -55.529137
-41.49472 -8.117159 -53.72538
-43.9613 -10.547112 -52.778183
-42.18787 -11.298564 -51.6493
-42.699253 -14.590019 -49.42495
-40.470947 -12.265776 -50.371635
-35.056046 -13.58877 -48.22076
-37.249989 -14.919641 -47.690166
-35.775192 -16.592915 -46.358681
-36.360493 -19.63728 -44.551407
-47.599281 -35.004456 -40.838531
-43.509125 -35.844093 -39.39452
-42.642166 -25.258623 -43.034222
-41.999645 -29.041691 -41.227821
-40.94067 -26.033897 -42.155838
-39.366699 -26.866619 -41.349922
-39.648483 -23.418995 -43.057983
-33.027229 -31.104134 -37.686432
-27.400204 -4.310583 -45.260281
-27.087296 -6.350342 -45.630344
-52.580605 -4.827974 -53.29364
-48.065216 -2.241865 -55.935158
-46.144146 -2.798567 -56.55619
-34.790745 1.304403 -57.191589
-37.229439 -0.118898 -57.259468
-35.612473 -1.531775 -56.195503
-36.479225 -4.410864 -54.798485
-37.337982 -7.345608 -53.073364
-38.136478 -10.358863 -51.115372
-35.762333 -8.875566 -51.596909
-34.25909 -10.657099 -50.053345
-32.846111 -12.672255 -48.477467
-50.849144 -30.83778 -43.444073
-48.801743 -31.06735 -42.697952
-46.755772 -31.398552 -41.887352
-44.755566 -31.831545 -41.078201
-45.713089 -27.899298 -42.932152
-44.452431 -24.594147 -43.981968
-42.964691 -21.574583 -45.025536
-42.003357 6.276785 -57.75103
-37.499931 7.100597 -58.438705
-35.708679 5.689381 -58.327568
-33.50996 6.790363 -57.820381
-34.07016 4.090132 -57.740128
-32.572506 2.29347 -56.736076
-31.203547 0.291258 -55.397339
-29.959309 -1.916124 -53.812462
-50.468826 -19.739443 -48.92907
-27.428381 1.210726 -48.778114
-27.550816 2.017929 -51.055794
-28.109594 2.631313 -53.024437
-28.205223 0.437967 -53.079124
-28.45656 -1.885111 -52.745232
-28.849682 -4.314667 -52.061165
-27.377373 -9.168658 -43.638409
-26.777761 -8.447954 -45.68206
-26.512529 -10.604302 -45.446762
-26.590534 -7.758487 -47.479622
-26.952923 -7.205226 -48.996635
-27.898613 -6.875527 -50.203316
-29.37196 -6.836364 -51.076019
-30.009853 -9.442724 -49.844398
-30.744875 -12.129257 -48.423588
-31.549685 -14.889148 -46.873138
-30.39859 -17.26963 -45.222782
-32.386112 -17.706635 -45.256191
-33.96373 -23.354319 -42.104645
-35.5751 -24.159723 -41.87302
-34.631226 -26.02676 -40.732574
-57.484421 -15.147505 -49.058182
-55.792717 -15.446543 -50.213882
-53.1688 -8.417177 -52.87101
-53.680946 -12.040842 -52.074814
-54.04422 -15.697612 -50.92765
-52.23735 -15.916315 -51.165459
-50.382317 -16.137142 -50.944313
-48.500641 -16.407707 -50.32975
-42.657089 3.072773 -57.87883
-43.436512 -0.1717 -57.522316
-44.267185 -3.422812 -56.676125
-39.80558 -1.947161 -56.957359
-42.443657 -4.146174 -56.313293
-45.072781 -6.680757 -55.364929
-45.778774 -9.969706 -53.650055
-46.315353 -13.32501 -51.628304
-46.6203 -16.78072 -49.422516
-44.769661 -17.304596 -48.337414
-42.973614 -18.013918 -47.180149
-41.253189 -18.922174 -46.028862
-38.820976 -13.472163 -49.033623
-39.336075 -16.695198 -46.93845
-39.627636 -20.019279 -44.925488
-38.117863 -21.275782 -43.878399
-36.752007 -22.656364 -42.872681
-36.880219 -25.549503 -41.374252
-42.844868 -32.344864 -40.305279
-38.780701 -30.352577 -39.758457
-37.928497 -27.675282 -40.618126
-36.615051 -28.327284 -39.99313
-35.986053 -31.205488 -38.55069
-35.302189 -28.556215 -39.578773
-33.822006 -28.401058 -39.328117
-45.203102 7.456583 -55.92884
-43.932935 8.661141 -56.251198
-45.428139 5.832647 -56.271473
-45.203102 7.456583 -55.92884
-44.385643 5.494272 -56.890206
-45.705567 4.207892 -56.482869
-45.428139 5.832647 -56.271473
-48.420502 -21.839015 -47.046066
-49.267708 -23.55749 -46.379482
-49.399757 -21.709694 -47.478848
-29.650222 5.204051 -55.193283
-30.211793 6.384097 -55.752018
-29.56885 6.331917 -55.00095
-27.848202 2.587795 -46.446995
-27.966901 3.847907 -47.159626
-34.038645 -17.010761 -45.888298
-35.097393 -17.532408 -45.690848
-34.716444 -16.071268 -46.556131
-45.824909 -37.200661 -39.62276
-46.864681 -37.008686 -39.986135
-46.559509 -35.19643 -40.475156
-44.776443 -37.419411 -39.297629
-45.824909 -37.200661 -39.62276
-44.514431 -35.616249 -39.753151
-43.771137 -37.647255 -38.938997
-44.776443 -37.419411 -39.297629
-27.549903 -5.693257 -44.310236
-27.670879 -4.657239 -44.017401
-27.393449 -6.713137 -44.495267
-27.24375 -5.330463 -45.445312
-27.549903 -5.693257 -44.310236
-51.266138 -28.927692 -44.443049
-51.852631 -30.763442 -43.740433
-48.245039 -29.280212 -43.268206
-49.246796 -29.136661 -43.701898
-48.690092 -27.349522 -44.272152
-36.347279 7.785903 -58.290176
-37.282604 8.523905 -58.20383
-35.451652 7.080296 -58.234607
-36.604305 6.394989 -58.383136
-36.347279 7.785903 -58.290176
-32.757084 5.8502 -57.432975
-32.568584 7.093937 -57.35984
-31.815707 6.153773 -56.972435
-52.270542 -21.406083 -48.431654
-53.210306 -21.339678 -48.593985
-51.413273 -19.647831 -49.166024
-51.326096 -21.497695 -48.1947
-52.270542 -21.406083 -48.431654
-27.364705 -0.16365 -47.926401
-27.521117 0.783494 -47.511921
-27.457441 -0.590881 -46.660208
-27.196554 -10.228603 -43.633389
-27.611133 -10.559145 -42.613411
-27.430313 -11.61909 -42.60839
-26.518743 -10.301184 -46.226444
-26.424295 -11.712395 -45.2043
-26.430509 -11.409277 -45.983982
-30.831171 -18.652138 -44.457998
-29.906859 -18.521887 -44.361963
-31.824932 -18.87064 -44.474702
-31.392351 -17.488132 -45.239486
-30.831171 -18.652138 -44.457998
-32.796495 -19.127672 -44.448747
-31.824932 -18.87064 -44.474702
-33.48646 -24.486371 -41.396278
-33.056278 -23.091227 -42.132464
-32.579009 -24.223279 -41.424097
-59.485157 -9.056995 -46.889995
-58.67788 -9.214686 -47.869702
-35.914526 -22.0195 -43.119185
-36.55625 -21.146822 -43.712044
-35.718769 -20.509958 -43.958547
-35.326072 -22.77118 -42.619354
-36.163553 -23.408043 -42.37285
-35.914526 -22.0195 -43.119185
-40.691508 -31.302363 -40.020071
-41.530394 -30.969645 -40.401239
-41.160759 -29.37441 -40.846653
-39.87405 -31.570343 -39.670755
-40.691508 -31.302363 -40.020071
-39.551287 -30.029853 -40.111971
-39.103465 -31.893067 -39.317242
-39.87405 -31.570343 -39.670755
-36.671657 -31.047096 -38.83092
-36.264989 -32.696616 -38.050501
-36.986156 -29.607994 -39.552139
-36.300552 -29.766386 -39.27191
-36.671657 -31.047096 -38.83092
-47.052773 2.862076 -55.993035
-48.376526 1.450789 -55.431221
-46.010277 2.523702 -56.611767
-47.052773 2.862076 -55.993035
-45.705567 4.207892 -56.482869
-48.99015 -25.44639 -45.326273
-49.267708 -23.55749 -46.379482
-47.988394 -25.589942 -44.89258
-48.690092 -27.349522 -44.272152
-48.99015 -25.44639 -45.326273
-30.960186 6.326871 -56.421825
-30.211793 6.384097 -55.752018
-31.148686 5.083133 -56.49496
-31.815707 6.153773 -56.972435
-30.960186 6.326871 -56.421825
-53.274044 -19.473632 -49.438938
-53.210306 -21.339678 -48.593985
-27.97241 4.311823 -48.518812
-27.966901 3.847907 -47.159626
-27.78492 3.457508 -49.073358
-27.97241 4.311823 -48.518812
-27.230074 -12.688944 -42.577041
-27.430313 -11.61909 -42.60839
-26.561216 -11.156429 -46.649586
-26.430509 -11.409277 -45.983982
-26.867781 -10.936357 -47.284095
-26.831524 -9.777994 -47.640636
-26.561216 -11.156429 -46.649586
-27.307227 -10.776384 -47.800733
-26.867781 -10.936357 -47.284095
-27.904187 -10.674716 -48.276919
-27.73505 -9.456253 -48.751331
-27.307227 -10.776384 -47.800733
-28.189552 -11.956181 -47.683382
-28.617375 -10.63605 -48.63398
-27.904187 -10.674716 -48.276919
-28.438631 -13.214908 -47.115105
-28.189552 -11.956181 -47.683382
-28.786969 -14.535512 -46.4396
-29.251078 -13.238119 -47.364939
-28.438631 -13.214908 -47.115105
-32.122507 -25.458822 -40.61354
-32.579009 -24.223279 -41.424097
-54.889632 -0.776034 -50.47015
-53.70804 0.78749 -51.23798
-56.071306 -2.373432 -49.613533
-54.889632 -0.776034 -50.47015
-55.123253 -2.508678 -50.648533
-57.185032 -3.983989 -48.745735
-56.071306 -2.373432 -49.613533
-57.399741 -5.745645 -48.846163
-58.279845 -5.623557 -47.799982
-57.185032 -3.983989 -48.745735
-57.814272 -9.3728 -48.838194
-58.67788 -9.214686 -47.869702
-57.630946 -7.543327 -48.868903
-56.97262 -9.545839 -49.713559
-58.019554 -11.217198 -48.714358
-57.814272 -9.3728 -48.838194
-35.390043 -19.05459 -44.787211
-36.067842 -18.115098 -45.455044
-35.097393 -17.532408 -45.690848
-35.718769 -20.509958 -43.958547
-35.390043 -19.05459 -44.787211
-47.933971 -36.824867 -40.300663
-48.648574 -34.858696 -41.188488
-47.933971 -36.824867 -40.300663
-46.864681 -37.008686 -39.986135
-42.77221 -37.881298 -38.608402
-43.771137 -37.647255 -38.938997
-42.562971 -36.08849 -39.044812
-42.77221 -37.881298 -38.608402
-32.635599 -32.541187 -36.770418
-32.207976 -30.986832 -37.487746
-33.392675 -32.654429 -37.03262
-32.635599 -32.541187 -36.770418
-34.161774 -32.728512 -37.233944
-33.796328 -31.178217 -37.887757
-33.392675 -32.654429 -37.03262
-29.036628 6.166139 -54.126728
-29.56885 6.331917 -55.00095
-27.491954 -1.931974 -45.815748
-27.457441 -0.590881 -46.660208
-27.541541 -3.318253 -44.908544
-27.670879 -4.657239 -44.017401
-27.350617 -2.924304 -46.167485
-27.491954 -1.931974 -45.815748
-27.541541 -3.318253 -44.908544
-52.695658 0.628805 -52.250737
-53.70804 0.78749 -51.23798
-52.964163 -1.099413 -52.42046
-52.695658 0.628805 -52.250737
-53.224205 -2.864164 -52.511101
-54.20162 -2.676031 -51.595791
-52.964163 -1.099413 -52.42046
-52.283676 -3.05776 -53.314705
-53.521133 -4.634378 -52.490036
-53.224205 -2.864164 -52.511101
-51.299542 -3.282692 -54.067032
-52.283676 -3.05776 -53.314705
-50.35335 -3.490282 -54.681187
-51.634413 -5.035564 -53.907795
-51.299542 -3.282692 -54.067032
-48.687981 -0.279762 -55.481178
-48.376526 1.450789 -55.431221
-49.041847 -1.989638 -55.387791
-48.687981 -0.279762 -55.481178
-47.711349 -0.53199 -56.028545
-49.376718 -3.742509 -55.228554
-50.35335 -3.490282 -54.681187
-49.041847 -1.989638 -55.387791
-51.309597 -32.675529 -42.795979
-51.852631 -30.763442 -43.740433
-50.273506 -32.775358 -42.491259
-51.309597 -32.675529 -42.795979
-50.270497 -29.021876 -44.074959
-51.266138 -28.927692 -44.443049
-49.825444 -30.952565 -43.071013
-50.270497 -29.021876 -44.074959
-49.246796 -29.136661 -43.701898
-49.249806 -32.890143 -42.118199
-50.273506 -32.775358 -42.491259
-49.825444 -30.952565 -43.071013
-48.200512 -33.035903 -41.768242
-48.648574 -34.858696 -41.188488
-49.249806 -32.890143 -42.118199
-42.825122 8.242953 -56.920795
-43.932935 8.661141 -56.251198
-41.772694 7.821833 -57.456906
-43.055786 6.697906 -57.21492
-42.825122 8.242953 -56.920795
-40.72546 7.30237 -57.899155
-41.772694 7.821833 -57.456906
-39.729565 6.803681 -58.195705
-41.007462 5.778097 -58.04758
-40.72546 7.30237 -57.899155
-38.473747 7.714276 -58.242992
-37.282604 8.523905 -58.20383
-38.755748 6.190003 -58.391418
-39.729565 6.803681 -58.195705
-38.473747 7.714276 -58.242992
-33.339136 8.065213 -57.627007
-32.568584 7.093937 -57.35984
-34.352293 7.630786 -57.981014
-33.339136 8.065213 -57.627007
-34.609319 6.239872 -58.073974
-35.451652 7.080296 -58.234607
-34.352293 7.630786 -57.981014
-50.357895 -21.583806 -47.870666
-51.326096 -21.497695 -48.1947
-49.510689 -19.865331 -48.537251
-49.399757 -21.709694 -47.478848
-50.357895 -21.583806 -47.870666
-28.595322 4.907697 -53.500755
-29.036628 6.166139 -54.126728
-27.691362 1.684692 -47.03013
-27.848202 2.587795 -46.446995
-27.598626 2.111924 -48.296323
-27.691362 1.684692 -47.03013
-27.521117 0.783494 -47.511921
-27.614676 2.55631 -49.555149
-27.78492 3.457508 -49.073358
-27.598626 2.111924 -48.296323
-27.675893 2.959912 -50.693989
-27.614676 2.55631 -49.555149
-27.489598 1.614327 -49.916954
-27.867089 3.340726 -51.807545
-27.675893 2.959912 -50.693989
-28.146479 3.647418 -52.791866
-27.867089 3.340726 -51.807545
-27.830205 2.324621 -52.040115
-28.558437 3.891592 -53.733326
-28.595322 4.907697 -53.500755
-28.146479 3.647418 -52.791866
-27.768963 -9.48791 -42.515696
-27.611133 -10.559145 -42.613411
-27.538487 -8.122295 -43.4993
-27.768963 -9.48791 -42.515696
-27.232335 -7.7595 -44.634377
-27.393449 -6.713137 -44.495267
-27.538487 -8.122295 -43.4993
-26.84026 -12.364697 -43.494941
-27.230074 -12.688944 -42.577041
-26.588658 -12.022575 -44.404139
-26.424295 -11.712395 -45.2043
-26.764131 -10.946424 -44.537565
-26.84026 -12.364697 -43.494941
-26.588658 -12.022575 -44.404139
-29.113467 -15.832832 -45.795777
-28.786969 -14.535512 -46.4396
-29.513055 -17.188285 -45.06245
-29.906859 -18.521887 -44.361963
-29.999002 -15.914176 -45.956108
-29.113467 -15.832832 -45.795777
-29.513055 -17.188285 -45.06245
-33.402853 -18.089268 -45.139603
-34.038645 -17.010761 -45.888298
-33.021904 -16.628128 -46.004886
-33.402853 -18.089268 -45.139603
-32.796495 -19.127672 -44.448747
-33.585304 -21.951515 -42.872974
-33.056278 -23.091227 -42.132464
-34.520387 -22.368478 -42.735166
-33.585304 -21.951515 -42.872974
-34.769415 -23.757021 -41.988833
-35.326072 -22.77118 -42.619354
-34.520387 -22.368478 -42.735166
-59.30703 -7.268263 -46.85298
-58.279845 -5.623557 -47.799982
-59.30703 -7.268263 -46.85298
-59.485157 -9.056995 -46.889995
-58.151844 -13.098327 -48.562586
-58.019554 -11.217198 -48.714358
-58.305104 -14.976962 -48.296816
-58.151844 -13.098327 -48.562586
-57.331162 -13.268871 -49.323952
-58.365593 -16.89598 -48.027611
-58.305104 -14.976962 -48.296816
-57.557785 -17.050915 -48.654423
-58.365593 -16.89598 -48.027611
-56.711933 -17.200434 -49.232273
-57.557785 -17.050915 -48.654423
-56.638569 -15.297024 -49.636032
-55.870896 -17.323349 -49.652874
-56.711933 -17.200434 -49.232273
-54.996647 -17.448884 -50.009758
-55.870896 -17.323349 -49.652874
-54.918469 -15.572077 -50.570766
-54.117294 -17.544328 -50.201274
-54.996647 -17.448884 -50.009758
-53.213859 -17.65368 -50.320179
-54.117294 -17.544328 -50.201274
-53.140785 -15.806964 -51.046554
-52.297534 -17.736267 -50.284218
-53.274044 -19.473632 -49.438938
-53.213859 -17.65368 -50.320179
-42.230842 -34.338875 -39.500191
-42.562971 -36.08849 -39.044812
-43.176997 -34.094479 -39.849899
-41.953005 -32.621231 -39.939968
-42.422257 -30.693278 -40.76655
-41.530394 -30.969645 -40.401239
-42.230842 -34.338875 -39.500191
-41.953005 -32.621231 -39.939968
-38.357687 -32.119461 -38.979154
-39.103465 -31.893067 -39.317242
-38.068981 -30.620641 -39.434803
-38.357687 -32.119461 -38.979154
-37.642879 -29.281993 -39.864638
-38.068981 -30.620641 -39.434803
-38.354599 -29.013929 -40.188291
-37.271774 -28.001283 -40.305628
-36.986156 -29.607994 -39.552139
-37.642879 -29.281993 -39.864638
-34.871785 -32.772043 -37.515179
-34.161774 -32.728512 -37.233944
-35.582098 -32.748637 -37.745984
-36.264989 -32.696616 -38.050501
-35.27574 -31.228894 -38.319885
-34.871785 -32.772043 -37.515179
-35.582098 -32.748637 -37.745984
-32.586689 -26.886447 -39.883301
-32.122507 -25.458822 -40.61354
-32.595709 -29.629303 -38.382561
-32.207976 -30.986832 -37.487746
-32.993097 -28.277765 -39.203404
-32.595709 -29.629303 -38.382561
-33.424617 -29.752596 -38.507275
-33.415598 -27.00974 -40.008015
-32.586689 -26.886447 -39.883301
-32.993097 -28.277765 -39.203404
3 2 184 185
3 2 186 187
3 2 188 190
3 188 47 189
3 188 189 190
3 1 50 48
3 1 52 50
3 3 191 193
3 191 53 192
3 191 192 193
3 3 55 53
3 5 194 196
3 194 56 195
3 194 195 196
3 5 58 56
3 197 59 198
3 6 62 60
3 6 64 62
3 8 68 67
3 8 70 68
3 8 72 70
3 9 75 73
3 9 77 75
3 4 80 78
3 10 83 81
3 10 85 83
3 10 87 85
3 7 90 88
3 7 199 201
3 201 200 90
3 199 200 201
3 12 202 204
3 204 203 92
3 202 203 204
3 12 205 206
3 12 207 209
3 207 93 208
3 207 208 209
3 11 96 94
3 11 98 96
3 210 100 211
3 212 101 213
3 214 213 100
3 212 213 214
3 15 103 46
3 15 104 103
3 16 107 105
3 18 108 49
3 18 109 108
3 18 111 109
3 20 112 51
3 20 113 112
3 215 114 216
3 21 217 219
3 217 115 218
3 217 218 219
3 21 116 115
3 21 118 116
3 23 119 54
3 23 120 119
3 220 122 221
3 222 123 223
3 224 223 122
3 222 223 224
3 25 225 227
3 225 124 226
3 225 226 227
3 25 125 124
3 25 126 125
3 26 127 57
3 26 128 127
3 27 228 229
3 27 230 232
3 230 129 231
3 230 231 232
3 13 233 235
3 233 130 234
3 233 234 235
3 28 131 61
3 28 132 131
3 28 133 132
3 29 134 63
3 29 135 134
3 30 236 238
3 236 136 237
3 236 237 238
3 30 137 136
3 31 239 241
3 239 138 240
3 239 240 241
3 31 139 138
3 31 140 139
3 32 141 65
3 32 142 141
3 32 143 142
3 33 144 66
3 33 145 144
3 242 146 243
3 244 147 245
3 246 245 146
3 244 245 246
3 248 247 147
3 34 249 251
3 249 148 250
3 249 250 251
3 34 150 148
3 253 252 69
3 35 151 71
3 35 152 151
3 14 153 102
3 36 154 74
3 36 155 154
3 36 156 155
3 37 157 76
3 37 158 157
3 24 159 121
3 38 160 79
3 38 161 160
3 17 162 106
3 39 163 82
3 39 164 163
3 39 165 164
3 40 166 84
3 40 167 166
3 40 168 167
3 41 169 86
3 41 170 169
3 19 171 110
3 42 172 89
3 42 173 172
3 42 174 173
3 254 175 255
3 256 255 91
3 254 255 256
3 257 149 258
3 259 258 175
3 257 258 259
3 22 177 117
3 44 260 262
3 262 261 95
3 260 261 262
3 44 263 264
3 44 265 267
3 265 178 266
3 265 266 267
3 43 179 97
3 43 176 179
3 268 181 269
3 270 180 271
3 272 271 181
3 270 271 272
3 45 183 99
3 45 182 183
3 273 46 274
3 47 275 277
3 275 46 276
3 275 276 277
3 47 15 46
3 48 49 16
3 50 49 48
3 50 18 49
3 50 51 18
3 52 51 50
3 52 20 51
3 53 278 279
3 53 280 282
3 280 21 281
3 280 281 282
3 53 54 21
3 55 54 53
3 55 23 54
3 56 283 284
3 56 285 287
3 285 25 286
3 285 286 287
3 56 57 25
3 58 57 56
3 58 26 57
3 288 27 289
3 59 290 291
3 59 292 293
3 60 61 13
3 62 61 60
3 62 28 61
3 62 63 28
3 64 63 62
3 64 29 63
3 294 30 295
3 296 31 297
3 298 65 299
3 300 299 31
3 298 299 300
3 301 65 302
3 303 32 304
3 305 304 65
3 303 304 305
3 306 66 307
3 308 307 32
3 306 307 308
3 309 66 310
3 311 33 312
3 313 312 66
3 311 312 313
3 314 34 315
3 67 316 317
3 68 318 320
3 320 319 67
3 318 319 320
3 68 321 322
3 68 323 325
3 323 69 324
3 323 324 325
3 70 69 68
3 70 326 328
3 328 327 69
3 326 327 328
3 70 329 331
3 329 71 330
3 329 330 331
3 72 71 70
3 72 35 71
3 73 74 14
3 75 74 73
3 75 36 74
3 75 76 36
3 77 76 75
3 77 37 76
3 78 79 24
3 80 79 78
3 80 38 79
3 81 82 17
3 83 82 81
3 83 39 82
3 83 84 39
3 85 84 83
3 85 40 84
3 85 86 40
3 87 86 85
3 87 41 86
3 88 89 19
3 90 89 88
3 90 42 89
3 90 91 42
3 332 91 333
3 334 333 90
3 332 333 334
3 336 335 91
3 92 337 338
3 340 339 92
3 93 341 342
3 93 343 344
3 94 95 22
3 96 95 94
3 96 44 95
3 96 97 44
3 98 97 96
3 98 43 97
3 345 99 346
3 347 99 348
3 349 45 350
3 351 350 99
3 349 350 351
3 352 5 353
3 354 13 355
3 100 356 357
3 100 358 360
3 358 13 359
3 358 359 360
3 100 60 13
3 101 60 100
3 101 6 60
3 361 67 362
3 363 67 364
3 365 8 366
3 367 366 67
3 365 366 367
3 368 102 369
3 370 369 8
3 368 369 370
3 371 102 372
3 373 14 374
3 375 374 102
3 373 374 375
3 46 376 377
3 103 378 380
3 380 379 46
3 378 379 380
3 103 381 383
3 381 14 382
3 381 382 383
3 103 73 14
3 104 73 103
3 104 9 73
3 105 106 4
3 107 106 105
3 107 17 106
3 49 107 16
3 108 107 49
3 108 17 107
3 108 81 17
3 109 81 108
3 109 10 81
3 109 110 10
3 111 110 109
3 111 19 110
3 51 111 18
3 112 111 51
3 112 19 111
3 112 88 19
3 113 88 112
3 113 7 88
3 114 384 385
3 114 386 387
3 388 114 389
3 115 390 392
3 390 114 391
3 390 391 392
3 115 393 395
3 395 394 114
3 393 394 395
3 115 396 398
3 396 92 397
3 396 397 398
3 116 92 115
3 116 12 92
3 116 117 12
3 118 117 116
3 118 22 117
3 54 118 21
3 119 118 54
3 119 22 118
3 119 94 22
3 120 94 119
3 120 11 94
3 399 2 400
3 401 121 402
3 403 402 2
3 401 402 403
3 404 121 405
3 406 24 407
3 408 407 121
3 406 407 408
3 122 409 410
3 122 411 413
3 411 24 412
3 411 412 413
3 122 78 24
3 123 78 122
3 123 4 78
3 124 414 415
3 124 416 417
3 124 418 420
3 418 123 419
3 418 419 420
3 125 123 124
3 125 4 123
3 125 105 4
3 126 105 125
3 126 16 105
3 57 126 25
3 127 126 57
3 127 16 126
3 127 48 16
3 128 48 127
3 128 1 48
3 129 421 422
3 129 423 425
3 423 3 424
3 423 424 425
3 426 5 427
3 428 59 429
3 130 430 432
3 430 59 431
3 430 431 432
3 130 433 435
3 435 434 59
3 433 434 435
3 61 130 13
3 131 130 61
3 131 436 438
3 438 437 130
3 436 437 438
3 131 439 440
3 132 441 443
3 443 442 131
3 441 442 443
3 132 444 446
3 444 5 445
3 444 445 446
3 132 58 5
3 133 58 132
3 133 26 58
3 63 133 28
3 134 133 63
3 134 26 133
3 134 128 26
3 135 128 134
3 135 1 128
3 136 447 448
3 136 449 450
3 136 451 453
3 451 101 452
3 451 452 453
3 137 101 136
3 137 6 101
3 454 30 455
3 138 456 457
3 138 458 460
3 458 30 459
3 458 459 460
3 138 137 30
3 139 137 138
3 139 6 137
3 139 64 6
3 140 64 139
3 140 29 64
3 65 140 31
3 141 140 65
3 141 29 140
3 141 135 29
3 142 135 141
3 142 1 135
3 142 52 1
3 143 52 142
3 143 20 52
3 66 143 32
3 144 143 66
3 144 20 143
3 144 113 20
3 145 113 144
3 145 7 113
3 461 33 462
3 146 463 464
3 146 465 467
3 465 33 466
3 465 466 467
3 146 145 33
3 147 145 146
3 147 7 145
3 147 468 470
3 470 469 7
3 468 469 470
3 472 471 147
3 148 473 474
3 148 475 476
3 148 477 479
3 477 149 478
3 477 478 479
3 150 149 148
3 150 0 149
3 69 480 481
3 483 482 69
3 71 484 485
3 151 486 488
3 488 487 71
3 486 487 488
3 151 489 490
3 151 491 492
3 152 493 495
3 495 494 151
3 493 494 495
3 152 496 497
3 102 72 8
3 153 72 102
3 153 35 72
3 74 153 14
3 154 153 74
3 154 35 153
3 154 152 35
3 155 152 154
3 155 498 500
3 500 499 152
3 498 499 500
3 155 501 502
3 156 503 505
3 505 504 155
3 503 504 505
3 156 506 508
3 506 27 507
3 506 507 508
3 76 156 36
3 157 156 76
3 157 27 156
3 157 129 27
3 158 129 157
3 158 3 129
3 121 47 2
3 159 47 121
3 159 15 47
3 79 159 24
3 160 159 79
3 160 15 159
3 160 104 15
3 161 104 160
3 161 9 104
3 106 80 4
3 162 80 106
3 162 38 80
3 82 162 17
3 163 162 82
3 163 38 162
3 163 161 38
3 164 161 163
3 164 9 161
3 164 77 9
3 165 77 164
3 165 37 77
3 84 165 39
3 166 165 84
3 166 37 165
3 166 158 37
3 167 158 166
3 167 3 158
3 167 55 3
3 168 55 167
3 168 23 55
3 86 168 40
3 169 168 86
3 169 23 168
3 169 120 23
3 170 120 169
3 170 11 120
3 110 87 10
3 171 87 110
3 171 41 87
3 89 171 19
3 172 171 89
3 172 41 171
3 172 170 41
3 173 170 172
3 173 11 170
3 173 98 11
3 174 98 173
3 174 43 98
3 91 174 42
3 175 174 91
3 175 43 174
3 175 176 43
3 149 176 175
3 149 0 176
3 117 93 12
3 177 93 117
3 177 509 511
3 511 510 93
3 509 510 511
3 95 177 22
3 512 177 513
3 514 513 95
3 512 513 514
3 516 515 177
3 178 517 518
3 178 519 520
3 97 178 44
3 179 178 97
3 179 521 523
3 523 522 178
3 521 522 523
3 179 524 526
3 524 180 525
3 524 525 526
3 176 180 179
3 176 0 180
3 527 45 528
3 181 529 530
3 181 531 533
3 531 45 532
3 531 532 533
3 181 182 45
3 180 182 181
3 180 0 182
3 534 34 535
3 99 536 537
3 183 538 540
3 540 539 99
3 538 539 540
3 183 541 543
3 541 34 542
3 541 542 543
3 183 150 34
3 182 150 183
3 182 0 150
