ply
format ascii 1.0
element vertex 368
property float x
property float y
property float z
element face 352
property list uchar int vertex_index
end_header
55.842518 -62.785625 20.594648
60.066856 -69.387543 3.454607
50.797157 -78.366135 22.371367
53.809883 -70.530518 21.792034
56.2603 -66.742538 12.187141
53.593819 -74.139938 12.166582
60.274921 -55.048592 17.892046
55.316513 -64.813309 16.51963
52.550217 -74.340355 22.091156
53.514313 -72.412659 16.999815
51.705704 -76.154152 17.123446
57.832291 -60.839977 24.332111
57.615032 -58.867374 19.442169
60.783699 -65.368225 3.697577
63.311356 -65.637604 -0.432985
54.739258 -66.6996 21.348103
57.697136 -73.235329 3.177364
61.72897 -69.765411 -0.773264
58.074192 -68.332703 7.783916
54.661835 -68.711929 16.852802
55.424728 -70.526665 12.208998
56.546593 -72.065514 7.610638
55.91806 -61.790737 18.19483
55.643333 -62.787544 16.233408
55.376823 -63.796719 18.598675
51.725426 -76.307404 22.232433
52.097244 -75.258904 19.614388
51.156197 -77.23468 19.718796
50.667419 -78.162315 17.191591
57.692261 -59.887787 21.864681
56.622826 -60.819843 20.070368
56.641144 -59.779938 17.686172
60.658218 -67.410385 3.587018
62.095085 -65.609192 1.630101
61.778179 -67.661385 1.487493
56.155907 -75.203514 3.056856
56.363731 -64.732758 12.101545
57.22892 -65.604065 9.974154
58.299774 -66.359756 7.835892
57.104836 -67.593338 9.98295
54.2883 -68.626015 21.599566
54.563908 -67.723343 19.131395
54.135906 -69.62587 19.292347
53.515709 -73.289291 14.577348
54.350494 -71.479904 14.561199
54.620384 -72.333427 12.186087
55.964722 -71.334885 9.893976
54.95575 -73.140739 9.834854
55.337814 -73.897591 7.524544
53.747963 -74.972801 9.787196
60.327347 -56.145931 20.314945
56.001419 -61.707371 13.930637
55.807076 -63.780903 14.19582
55.633968 -65.805962 14.374484
53.243156 -72.42659 21.948729
53.602234 -71.496635 19.412106
52.923843 -73.361351 19.513746
52.67849 -74.254608 17.058083
52.507935 -75.129242 14.600522
52.428867 -76.006096 12.160036
51.406494 -77.057312 14.633668
50.310085 -79.12468 14.66401
49.310532 -81.363533 14.664213
59.160316 -59.891624 26.107864
59.015495 -58.987156 23.598276
58.907825 -58.001106 21.132084
58.835808 -56.940773 18.712828
57.591061 -57.78307 17.06835
60.476952 -63.269161 3.782195
61.907791 -63.509041 1.7535
63.300163 -63.52919 -0.280464
55.2341 -64.750061 21.017828
54.179298 -69.511757 24.118641
53.656654 -71.434052 24.344826
53.05439 -73.36972 24.539715
51.491417 -77.384315 24.90152
59.327988 -60.705807 28.653856
59.047077 -71.315918 3.313047
60.963722 -69.665466 1.330733
59.727673 -71.644531 1.172648
59.455414 -64.927071 5.770986
59.473381 -66.970123 5.703701
59.084721 -68.937759 5.605398
54.951447 -65.778954 18.906399
55.018532 -66.791718 16.720428
55.382648 -67.763657 14.481806
54.174511 -70.578156 16.938126
54.971115 -69.649857 14.536643
55.967339 -68.67215 12.216534
56.69175 -69.498566 9.949953
57.483932 -70.226364 7.702845
58.285126 -70.838242 5.488815
57.135117 -72.704742 5.370707
55.747185 -74.591072 5.264881
52.45882 -76.895248 9.754154
62.772266 -67.713928 -0.59964
50.480093 -78.84842 21.093423
50.659613 -78.282692 19.767138
50.976677 -77.800408 21.045082
56.232672 -61.802734 20.332508
56.655079 -61.309536 21.286437
56.264925 -62.292427 21.548577
56.341408 -75.462395 1.974903
55.366059 -76.244171 3.002852
61.096624 -54.687309 18.661541
61.122837 -55.235979 19.872991
60.301134 -55.597262 19.103496
61.084271 -54.121855 17.44498
61.096624 -54.687309 18.661541
60.243502 -54.466845 16.704581
61.084271 -54.121855 17.44498
56.04422 -61.221146 14.889741
56.159 -60.659759 13.748116
49.979551 -79.72184 15.953011
50.488752 -78.643497 15.927801
50.158218 -79.240657 17.216801
49.479775 -80.841267 15.953112
49.810309 -80.244107 14.664112
49.979551 -79.72184 15.953011
56.681691 -59.229603 16.521028
56.364082 -60.25743 16.767508
63.944512 -64.482281 -1.37714
63.938915 -63.428074 -1.300879
63.30576 -64.583397 -0.356724
54.463255 -68.97892 25.246218
54.429703 -68.549976 23.978615
53.640003 -71.881401 25.645278
53.926963 -70.906246 25.514581
53.338871 -72.849235 25.742722
53.355522 -72.401886 24.44227
53.640003 -71.881401 25.645278
51.847126 -76.865353 26.151097
51.913288 -76.363647 24.811954
58.791334 -61.609358 29.017718
59.407995 -61.062158 29.938389
58.678059 -61.211986 27.746958
58.791334 -61.609358 29.017718
58.830223 -64.617245 6.808187
59.278263 -63.875574 5.786544
54.86174 -75.187977 6.359525
55.5425 -74.244332 6.394712
54.657055 -74.841237 7.489356
55.005337 -75.576496 5.220023
54.86174 -75.187977 6.359525
51.84725 -77.443531 10.957989
52.443843 -76.450672 10.957095
51.832273 -76.998955 12.16093
55.780696 -62.289141 17.214119
55.865177 -61.761232 16.041126
56.00254 -61.262829 17.021837
50.415224 -78.74651 18.503535
50.911808 -77.698498 18.455194
50.659613 -78.282692 19.767138
50.158218 -79.240657 17.216801
50.415224 -78.74651 18.503535
57.189796 -60.843508 22.183594
57.762276 -60.363882 23.098396
57.259811 -61.319603 23.417309
57.157544 -60.353815 20.967524
57.189796 -60.843508 22.183594
56.655079 -61.309536 21.286437
56.00254 -61.262829 17.021837
56.364082 -60.25743 16.767508
56.279602 -60.785337 17.940501
57.176666 -74.423423 2.041182
57.947281 -73.439331 2.101436
56.926521 -74.219421 3.11711
57.176666 -74.423423 2.041182
56.341408 -75.462395 1.974903
56.75218 -64.135628 11.005261
56.36866 -63.694991 12.022893
57.184775 -64.571281 9.941566
56.75218 -64.135628 11.005261
56.796326 -65.168412 11.03785
57.716976 -64.955742 8.909771
57.184775 -64.571281 9.941566
57.764347 -65.98191 8.905023
58.252403 -65.333587 7.840641
57.716976 -64.955742 8.909771
53.862129 -75.378841 8.620683
54.657055 -74.841237 7.489356
54.542889 -74.435196 8.65587
61.122845 -55.758922 21.1145
60.356467 -56.654719 21.550778
61.122845 -55.758922 21.1145
61.122837 -55.235979 19.872991
62.661379 -68.67025 -1.728125
62.028 -69.732315 -1.820625
56.202614 -61.125402 12.816046
56.159 -60.659759 13.748116
56.187504 -62.182297 12.937439
56.202614 -61.125402 12.816046
55.822376 -62.247457 15.082023
56.04422 -61.221146 14.889741
55.865177 -61.761232 16.041126
56.090333 -63.219063 13.07003
56.187504 -62.182297 12.937439
55.904247 -62.744137 14.063229
56.085403 -64.256831 13.148682
56.36866 -63.694991 12.022893
56.090333 -63.219063 13.07003
51.321087 -77.524563 13.397746
51.832273 -76.998955 12.16093
51.917681 -76.531704 13.396852
50.772883 -78.558247 13.412917
51.321087 -77.524563 13.397746
50.858289 -78.090996 14.648839
50.217214 -79.633923 13.408036
50.772883 -78.558247 13.412917
49.717438 -80.753349 13.408138
50.217214 -79.633923 13.408036
49.810309 -80.244107 14.664112
49.243138 -81.922032 13.3816
49.717438 -80.753349 13.408138
59.809067 -58.991753 25.706638
59.850034 -59.407167 26.986576
59.736656 -58.539518 24.451844
59.809067 -58.991753 25.706638
59.087906 -59.43939 24.85307
59.700541 -58.075331 23.192443
59.736656 -58.539518 24.451844
59.646706 -57.582306 21.959347
59.700541 -58.075331 23.192443
58.96166 -58.494131 22.36518
59.617586 -57.073518 20.723515
60.356467 -56.654719 21.550778
59.646706 -57.582306 21.959347
58.810713 -56.377903 17.527614
59.53027 -55.431812 17.117223
59.555364 -55.994682 18.302437
58.188339 -56.799052 16.705375
58.810713 -56.377903 17.527614
58.213435 -57.361922 17.890589
57.595152 -57.212547 15.907932
58.188339 -56.799052 16.705375
57.156649 -58.231169 16.212117
57.116102 -58.781504 17.377261
56.681691 -59.229603 16.521028
57.595152 -57.212547 15.907932
57.156649 -58.231169 16.212117
60.881456 -62.325422 2.823632
60.158485 -62.205648 3.814388
61.596876 -62.445362 1.809284
60.881456 -62.325422 2.823632
61.192372 -63.389101 2.767848
62.339035 -62.455011 0.808511
61.596876 -62.445362 1.809284
63.035221 -62.465086 -0.208471
62.339035 -62.455011 0.808511
62.603977 -63.519115 0.736518
63.752483 -62.361683 -1.216374
63.035221 -62.465086 -0.208471
63.752483 -62.361683 -1.216374
63.938915 -63.428074 -1.300879
55.55547 -64.238121 22.0298
55.538309 -63.767843 20.806238
55.859679 -63.255903 21.81821
55.229553 -65.204323 22.251149
55.55547 -64.238121 22.0298
54.982132 -66.179092 22.416286
54.986679 -65.72483 21.182966
55.229553 -65.204323 22.251149
54.709682 -67.143898 22.593346
54.982132 -66.179092 22.416286
54.484203 -68.107105 22.719077
54.513779 -67.662807 21.473834
54.709682 -67.143898 22.593346
54.233799 -69.068886 22.859103
54.484203 -68.107105 22.719077
54.429703 -68.549976 23.978615
54.188286 -69.945099 25.401488
54.463255 -68.97892 25.246218
53.917976 -70.472904 24.231734
54.188286 -69.945099 25.401488
53.926963 -70.906246 25.514581
53.012485 -73.840416 25.859433
53.338871 -72.849235 25.742722
52.694774 -74.356349 24.631051
53.012485 -73.840416 25.859433
52.442688 -74.841667 23.406772
52.802304 -73.855038 23.315435
52.694774 -74.356349 24.631051
52.030293 -75.825192 23.47741
52.137822 -75.32388 22.161794
52.442688 -74.841667 23.406772
51.608421 -76.84586 23.566977
52.030293 -75.825192 23.47741
51.913288 -76.363647 24.811954
59.970196 -60.176279 29.553477
59.407995 -61.062158 29.938389
59.93387 -59.814259 28.259572
59.970196 -60.176279 29.553477
59.244152 -60.298716 27.38086
59.850034 -59.407167 26.986576
59.93387 -59.814259 28.259572
58.594223 -60.804895 26.473962
59.244152 -60.298716 27.38086
58.678059 -61.211986 27.746958
57.930211 -61.279072 25.586086
58.496303 -60.3658 25.219988
58.594223 -60.804895 26.473962
57.335106 -61.778747 24.655038
57.930211 -61.279072 25.586086
57.259811 -61.319603 23.417309
57.335106 -61.778747 24.655038
55.859679 -63.255903 21.81821
56.264925 -62.292427 21.548577
58.96255 -72.643932 1.099078
58.712405 -72.43993 2.175006
57.947281 -73.439331 2.101436
60.008599 -71.732613 0.115541
58.96255 -72.643932 1.099078
61.009247 -70.793053 -0.857414
60.728321 -70.704971 0.199692
60.008599 -71.732613 0.115541
62.028 -69.732315 -1.820625
61.009247 -70.793053 -0.857414
59.789032 -63.046619 4.792148
60.158485 -62.205648 3.814388
59.966183 -64.098116 4.776591
59.789032 -63.046619 4.792148
59.278263 -63.875574 5.786544
58.877594 -65.643414 6.803439
58.830223 -64.617245 6.808187
58.252403 -65.333587 7.840641
55.209698 -75.882717 4.116011
55.951546 -74.897293 4.160868
55.005337 -75.576496 5.220023
55.366059 -76.244171 3.002852
55.209698 -75.882717 4.116011
53.217557 -76.340065 8.604162
53.862129 -75.378841 8.620683
53.103392 -75.934024 9.770675
51.836657 -77.930458 9.739114
51.84725 -77.443531 10.957989
52.529192 -77.343536 8.575109
51.836657 -77.930458 9.739114
53.217557 -76.340065 8.604162
52.529192 -77.343536 8.575109
51.401737 -77.921672 26.257939
51.847126 -76.865353 26.151097
51.019256 -78.454182 24.985792
51.401737 -77.921672 26.257939
50.672127 -78.945091 23.720715
51.144287 -77.875225 23.636443
51.019256 -78.454182 24.985792
50.308124 -79.457329 22.430577
50.672127 -78.945091 23.720715
50.480093 -78.84842 21.093423
50.308124 -79.457329 22.430577
49.017432 -82.002922 15.952731
49.479775 -80.841267 15.953112
48.887932 -82.570858 14.631013
49.017432 -82.002922 15.952731
49.243138 -81.922032 13.3816
48.887932 -82.570858 14.631013
60.243502 -54.466845 16.704581
59.53027 -55.431812 17.117223
63.183027 -67.644509 -1.641313
62.250618 -68.739669 -0.686452
62.661379 -68.67025 -1.728125
63.571695 -66.584655 -1.54866
63.183027 -67.644509 -1.641313
63.84124 -65.546493 -1.465333
63.041811 -66.675766 -0.516312
63.571695 -66.584655 -1.54866
63.944512 -64.482281 -1.37714
63.84124 -65.546493 -1.465333
3 0 24 22
3 2 27 25
3 2 96 98
3 98 97 27
3 96 97 98
3 0 99 101
3 99 30 100
3 99 100 101
3 0 22 30
3 1 34 32
3 103 102 35
3 4 37 36
3 4 39 37
3 3 42 40
3 5 45 43
3 5 47 45
3 5 49 47
3 6 104 106
3 106 105 50
3 104 105 106
3 6 107 108
3 6 109 110
3 111 51 112
3 7 52 23
3 7 53 52
3 8 56 54
3 10 57 26
3 10 58 57
3 10 60 58
3 113 61 114
3 115 114 28
3 113 114 115
3 116 62 117
3 118 117 61
3 116 117 118
3 11 64 63
3 12 65 29
3 12 66 65
3 12 67 66
3 120 119 31
3 13 69 68
3 14 70 33
3 14 121 123
3 123 122 70
3 121 122 123
3 124 72 125
3 126 73 127
3 128 74 129
3 130 129 73
3 128 129 130
3 131 75 132
3 133 76 134
3 136 135 76
3 16 79 77
3 137 80 138
3 18 81 38
3 18 82 81
3 15 83 71
3 19 84 41
3 19 85 84
3 9 86 55
3 20 87 44
3 20 88 87
3 20 89 88
3 21 90 46
3 21 91 90
3 21 92 91
3 139 93 140
3 141 140 48
3 139 140 141
3 143 142 93
3 144 94 145
3 146 145 59
3 144 145 146
3 17 95 78
3 22 147 149
3 147 23 148
3 147 148 149
3 24 23 22
3 24 7 23
3 25 26 8
3 27 26 25
3 27 10 26
3 27 28 10
3 150 28 151
3 152 151 27
3 150 151 152
3 154 153 28
3 155 29 156
3 157 156 11
3 155 156 157
3 30 158 160
3 158 29 159
3 158 159 160
3 30 12 29
3 30 31 12
3 22 31 30
3 22 161 163
3 163 162 31
3 161 162 163
3 32 33 13
3 34 33 32
3 34 14 33
3 35 164 166
3 166 165 16
3 164 165 166
3 168 167 35
3 36 169 170
3 37 171 173
3 173 172 36
3 171 172 173
3 37 174 175
3 37 176 178
3 176 38 177
3 176 177 178
3 39 38 37
3 39 18 38
3 40 41 15
3 42 41 40
3 42 19 41
3 43 44 9
3 45 44 43
3 45 20 44
3 45 46 20
3 47 46 45
3 47 21 46
3 47 48 21
3 49 48 47
3 49 179 181
3 181 180 48
3 179 180 181
3 50 182 183
3 185 184 50
3 187 186 17
3 51 188 189
3 51 190 191
3 23 192 194
3 192 51 193
3 192 193 194
3 52 51 23
3 52 195 197
3 197 196 51
3 195 196 197
3 52 198 200
3 198 36 199
3 198 199 200
3 53 36 52
3 53 4 36
3 54 55 3
3 56 55 54
3 56 9 55
3 26 56 8
3 57 56 26
3 57 9 56
3 57 43 9
3 58 43 57
3 58 5 43
3 58 59 5
3 60 59 58
3 60 201 203
3 203 202 59
3 201 202 203
3 28 60 10
3 61 60 28
3 61 204 206
3 206 205 60
3 204 205 206
3 61 207 208
3 62 209 211
3 211 210 61
3 209 210 211
3 62 212 213
3 63 214 215
3 64 216 218
3 218 217 63
3 216 217 218
3 64 219 220
3 29 64 11
3 65 64 29
3 65 221 223
3 223 222 64
3 221 222 223
3 65 224 226
3 224 50 225
3 224 225 226
3 66 50 65
3 66 6 50
3 66 227 229
3 229 228 6
3 227 228 229
3 67 230 232
3 232 231 66
3 230 231 232
3 67 233 234
3 31 67 12
3 235 67 236
3 237 236 31
3 235 236 237
3 239 238 67
3 68 240 241
3 69 242 244
3 244 243 68
3 242 243 244
3 69 245 246
3 33 69 13
3 70 69 33
3 70 247 249
3 249 248 69
3 247 248 249
3 70 250 251
3 253 252 70
3 254 71 255
3 256 255 0
3 254 255 256
3 257 71 258
3 259 15 260
3 261 260 71
3 259 260 261
3 262 15 263
3 264 40 265
3 266 265 15
3 264 265 266
3 72 267 269
3 267 40 268
3 267 268 269
3 72 3 40
3 270 72 271
3 73 272 274
3 272 72 273
3 272 273 274
3 73 3 72
3 73 54 3
3 74 54 73
3 74 8 54
3 275 74 276
3 277 74 278
3 279 8 280
3 281 280 74
3 279 280 281
3 282 25 283
3 284 283 8
3 282 283 284
3 75 285 287
3 285 25 286
3 285 286 287
3 75 2 25
3 76 288 289
3 76 290 291
3 76 292 294
3 292 63 293
3 292 293 294
3 295 63 296
3 297 296 76
3 295 296 297
3 298 11 299
3 300 299 63
3 298 299 300
3 301 11 302
3 304 303 11
3 305 0 306
3 77 78 1
3 79 78 77
3 79 17 78
3 307 79 308
3 309 308 16
3 307 308 309
3 310 79 311
3 312 17 313
3 314 313 79
3 312 313 314
3 316 315 17
3 317 68 318
3 80 319 321
3 319 68 320
3 319 320 321
3 80 13 68
3 38 322 324
3 322 80 323
3 322 323 324
3 81 80 38
3 81 13 80
3 81 32 13
3 82 32 81
3 82 1 32
3 71 24 0
3 83 24 71
3 83 7 24
3 41 83 15
3 84 83 41
3 84 7 83
3 84 53 7
3 85 53 84
3 85 4 53
3 55 42 3
3 86 42 55
3 86 19 42
3 44 86 9
3 87 86 44
3 87 19 86
3 87 85 19
3 88 85 87
3 88 4 85
3 88 39 4
3 89 39 88
3 89 18 39
3 46 89 20
3 90 89 46
3 90 18 89
3 90 82 18
3 91 82 90
3 91 1 82
3 91 77 1
3 92 77 91
3 92 16 77
3 48 92 21
3 93 92 48
3 93 16 92
3 93 35 16
3 325 35 326
3 327 326 93
3 325 326 327
3 329 328 35
3 59 49 5
3 94 49 59
3 94 330 332
3 332 331 49
3 330 331 332
3 333 94 334
3 335 94 336
3 338 337 94
3 339 75 340
3 341 75 342
3 343 2 344
3 345 344 75
3 343 344 345
3 346 2 347
3 349 348 2
3 350 62 351
3 352 62 353
3 355 354 62
3 357 356 6
3 78 34 1
3 95 34 78
3 95 14 34
3 358 95 359
3 360 359 17
3 358 359 360
3 361 95 362
3 363 14 364
3 365 364 95
3 363 364 365
3 367 366 14
