ply
format ascii 1.0
element vertex 218
property float x
property float y
property float z
element face 172
property list uchar int vertex_index
end_header
-0.780308 52.059643 25.521458
2.215927 50.828671 15.497937
-1.142218 51.175541 36.977783
-1.199747 47.994343 32.503166
-0.070536 44.671894 28.762617
-0.839918 46.178028 44.034668
-0.263294 35.312492 57.219738
-0.036783 55.287884 18.406719
0.974173 48.21944 22.182144
-1.257505 47.23341 38.145744
-1.302853 49.592693 34.653896
-1.292267 45.723866 35.909454
-0.609404 50.187504 43.077534
-0.682035 43.55048 47.446785
-0.141132 32.423855 60.299236
0.450701 51.79269 20.310604
-0.037642 50.196339 23.754223
2.863472 47.309925 17.564339
-1.256418 53.489468 33.339748
-1.291349 51.813213 31.096909
-1.031555 50.117016 29.03673
-0.453808 48.37788 27.168121
-0.787977 46.366817 30.537983
-0.803341 52.729877 39.451927
-0.99765 48.728268 40.544643
-1.171267 44.767246 41.566345
-1.297503 40.869263 42.518349
-1.058416 42.222801 44.914303
-0.791527 36.973434 51.399914
-0.392633 38.119141 54.042015
0.992252 53.140476 16.853611
1.582621 49.654194 18.845686
2.178293 46.06348 20.795679
0.416931 46.54929 25.492264
-1.306439 44.531195 37.579052
-1.274886 46.478638 37.027599
-1.289058 45.285967 38.697197
-1.251209 43.810107 36.506332
-1.306439 44.531195 37.579052
-0.911695 53.88601 24.678618
-0.994232 52.961346 26.503616
-0.612997 52.925945 23.746865
-0.911695 53.88601 24.678618
-0.408975 51.127991 24.63784
-0.241664 51.994293 22.863247
-0.612997 52.925945 23.746865
2.879072 49.557496 14.910495
2.528803 51.275143 13.826714
2.5397 49.069298 16.531138
3.202844 47.798123 15.943696
2.879072 49.557496 14.910495
-1.199318 52.332504 35.158766
-1.126383 54.315438 34.543331
-1.069282 53.158474 36.362348
-0.600032 53.473613 40.745632
-0.708857 54.733562 38.869814
-0.805871 41.585943 47.819124
-0.606987 42.206499 49.114628
-0.661733 38.917976 51.091193
-0.860617 38.297421 49.795688
-0.327963 36.715817 55.630876
-0.219886 38.641701 55.380056
-0.155216 37.238377 56.968918
-0.454681 34.794332 55.878706
-0.519351 36.197657 54.289845
-0.327963 36.715817 55.630876
-0.377895 33.413396 57.406769
-0.454681 34.794332 55.878706
-0.235081 30.543541 60.42181
-0.082441 30.92614 61.774822
-0.253391 56.996792 17.450953
-0.415459 56.311131 19.286069
0.19511 55.905418 16.625349
-0.253391 56.996792 17.450953
0.477735 54.21418 17.630165
0.709628 54.831715 15.848795
0.19511 55.905418 16.625349
-1.324854 38.956228 42.960862
-1.265999 39.605337 44.119102
1.8877 52.522697 14.44948
2.528803 51.275143 13.826714
-1.165402 44.959528 34.88088
-1.119142 46.094766 33.177736
-1.246007 46.859105 34.20631
-1.165402 44.959528 34.88088
-1.251209 43.810107 36.506332
-0.407738 50.877243 44.388647
-0.503063 52.202427 42.558436
-0.519639 48.865085 44.847735
-0.407738 50.877243 44.388647
-0.634896 46.860348 45.326301
-0.724661 48.182766 43.556101
-0.519639 48.865085 44.847735
-0.555954 45.546574 47.03236
-0.760976 44.864254 45.740727
-0.634896 46.860348 45.326301
-0.478204 44.184048 48.759241
-0.555954 45.546574 47.03236
-0.606987 42.206499 49.114628
-0.478204 44.184048 48.759241
-0.117498 35.768709 58.559376
-0.155216 37.238377 56.968918
-0.056418 34.324391 60.099125
-0.202213 33.868173 58.759487
-0.117498 35.768709 58.559376
-0.028936 32.805563 61.629973
-0.056418 34.324391 60.099125
-0.082441 30.92614 61.774822
-0.028936 32.805563 61.629973
-0.241235 54.540066 20.189495
-0.415459 56.311131 19.286069
0.002507 52.792469 21.141438
0.206959 53.540287 19.358662
-0.241235 54.540066 20.189495
0.20653 50.994515 22.032414
0.002507 52.792469 21.141438
-0.241664 51.994293 22.863247
0.417893 43.762315 27.968449
0.146031 42.807305 29.530432
3.532219 46.003751 17.004447
3.202844 47.798123 15.943696
3.174158 45.486435 18.570647
3.532219 46.003751 17.004447
-1.212452 55.440571 32.656678
-1.126383 54.315438 34.543331
-1.288731 54.564133 31.490565
-1.212452 55.440571 32.656678
-1.306196 53.726005 30.369146
-1.288731 54.564133 31.490565
-1.273884 52.651341 32.218328
-1.249752 52.838131 29.291342
-1.306196 53.726005 30.369146
-1.119855 51.990032 28.261252
-1.249752 52.838131 29.291342
-1.161452 50.965114 30.06682
-0.905932 51.08833 27.279094
-0.994232 52.961346 26.503616
-1.119855 51.990032 28.261252
-0.913258 45.281003 32.195144
-0.993862 47.18058 31.520575
-1.119142 46.094766 33.177736
-0.632883 44.492481 31.259909
-0.913258 45.281003 32.195144
-0.274163 43.64502 30.372225
-0.429257 45.519356 29.6503
-0.632883 44.492481 31.259909
0.146031 42.807305 29.530432
-0.274163 43.64502 30.372225
-0.899844 53.935642 37.59942
-0.708857 54.733562 38.869814
-0.972779 51.952709 38.214855
-1.069282 53.158474 36.362348
-0.899844 53.935642 37.59942
-0.706372 51.458691 41.26473
-0.600032 53.473613 40.745632
-0.503063 52.202427 42.558436
-1.245939 44.052885 40.407497
-1.289058 45.285967 38.697197
-1.214386 46.000328 39.856044
-1.234385 42.818254 42.042347
-1.309057 42.103893 40.883499
-1.245939 44.052885 40.407497
-1.146456 40.282106 45.317079
-1.265999 39.605337 44.119102
-1.17796 41.546032 43.716326
-0.994061 40.922104 46.552883
-0.870225 42.88664 46.180544
-0.805871 41.585943 47.819124
-1.146456 40.282106 45.317079
-0.994061 40.922104 46.552883
-0.965909 36.372139 50.127943
-0.860617 38.297421 49.795688
-0.905722 35.067247 51.663668
-0.965909 36.372139 50.127943
-0.26979 40.071932 53.740574
-0.219886 38.641701 55.380056
-0.462286 39.49083 52.412243
-0.26979 40.071932 53.740574
-0.59208 37.546287 52.720965
-0.661733 38.917976 51.091193
-0.462286 39.49083 52.412243
-0.718798 35.624803 52.968794
-0.59208 37.546287 52.720965
-0.519351 36.197657 54.289845
-0.905722 35.067247 51.663668
-0.718798 35.624803 52.968794
-0.316814 31.969078 58.946518
-0.377895 33.413396 57.406769
-0.202213 33.868173 58.759487
-0.316814 31.969078 58.946518
-0.235081 30.543541 60.42181
1.275863 53.6786 15.127318
0.709628 54.831715 15.848795
1.60409 51.984573 16.175774
1.8877 52.522697 14.44948
1.275863 53.6786 15.127318
2.831568 44.863213 20.186317
3.174158 45.486435 18.570647
2.520882 46.686702 19.180009
0.661627 44.701014 26.333273
0.173198 45.610592 27.12744
0.417893 43.762315 27.968449
0.967235 45.559248 24.747696
0.661627 44.701014 26.333273
1.245856 46.394323 23.092636
0.695552 47.384365 23.837204
0.967235 45.559248 24.747696
1.847916 45.316343 22.399403
1.576233 47.14146 21.488912
1.245856 46.394323 23.092636
2.471137 44.217166 21.741318
1.847916 45.316343 22.399403
2.831568 44.863213 20.186317
2.471137 44.217166 21.741318
-1.304438 40.186039 41.402626
-1.309057 42.103893 40.883499
-1.304438 40.186039 41.402626
-1.324854 38.956228 42.960862
3 34 11 35
3 36 35 9
3 34 35 36
3 38 37 11
3 0 39 40
3 0 41 42
3 0 43 45
3 43 16 44
3 43 44 45
3 1 46 47
3 1 48 50
3 48 17 49
3 48 49 50
3 2 51 53
3 51 18 52
3 51 52 53
3 3 19 10
3 3 20 19
3 3 22 20
3 54 23 55
3 5 24 12
3 5 25 24
3 5 27 25
3 57 56 13
3 58 28 59
3 6 60 62
3 60 29 61
3 60 61 62
3 6 63 65
3 65 64 29
3 63 64 65
3 6 66 67
3 69 68 14
3 7 70 71
3 7 72 73
3 7 74 76
3 74 30 75
3 74 75 76
3 8 31 15
3 8 32 31
3 4 33 21
3 78 77 26
3 79 1 80
3 9 10 2
3 11 10 9
3 11 3 10
3 11 81 83
3 83 82 3
3 81 82 83
3 85 84 11
3 86 12 87
3 88 12 89
3 90 5 91
3 92 91 12
3 90 91 92
3 93 13 94
3 95 94 5
3 93 94 95
3 96 13 97
3 99 98 13
3 100 6 101
3 102 14 103
3 104 103 6
3 102 103 104
3 105 14 106
3 108 107 14
3 109 7 110
3 111 15 112
3 113 112 7
3 111 112 113
3 16 114 116
3 114 15 115
3 114 115 116
3 16 8 15
3 118 117 4
3 17 119 120
3 17 121 122
3 18 123 124
3 18 125 126
3 10 18 2
3 19 18 10
3 19 127 129
3 129 128 18
3 127 128 129
3 19 130 131
3 20 132 134
3 134 133 19
3 132 133 134
3 20 135 137
3 135 0 136
3 135 136 137
3 20 21 0
3 22 21 20
3 22 4 21
3 138 22 139
3 140 139 3
3 138 139 140
3 141 22 142
3 143 4 144
3 145 144 22
3 143 144 145
3 147 146 4
3 23 148 149
3 23 150 152
3 150 2 151
3 150 151 152
3 12 153 155
3 153 23 154
3 153 154 155
3 24 23 12
3 24 2 23
3 24 9 2
3 25 9 24
3 25 156 158
3 158 157 9
3 156 157 158
3 25 159 161
3 159 26 160
3 159 160 161
3 27 26 25
3 27 162 164
3 164 163 26
3 162 163 164
3 13 27 5
3 165 27 166
3 167 166 13
3 165 166 167
3 169 168 27
3 28 170 171
3 28 172 173
3 29 174 175
3 29 176 177
3 29 178 180
3 178 28 179
3 178 179 180
3 181 28 182
3 183 182 29
3 181 182 183
3 185 184 28
3 14 186 188
3 188 187 6
3 186 187 188
3 190 189 14
3 30 191 192
3 30 193 195
3 193 1 194
3 193 194 195
3 15 30 7
3 31 30 15
3 31 1 30
3 31 17 1
3 32 17 31
3 32 196 198
3 198 197 17
3 196 197 198
3 21 16 0
3 33 16 21
3 33 8 16
3 199 33 200
3 201 200 4
3 199 200 201
3 202 33 203
3 204 8 205
3 206 205 33
3 204 205 206
3 207 32 208
3 209 208 8
3 207 208 209
3 210 32 211
3 213 212 32
3 26 214 215
3 217 216 26
