ply
format ascii 1.0
element vertex 705
property float x
property float y
property float z
element face 725
property list uchar int vertex_index
end_header
33.749649 -60.447842 56.332909
34.72068 -76.917175 54.325111
54.75531 -52.193531 48.158661
38.095104 -62.993671 51.370918
40.857025 -72.651733 52.485313
34.110992 -67.864334 55.560211
41.726608 -56.387402 48.658722
40.25967 -91.584564 41.664864
61.222321 -54.129566 44.702721
34.805485 -85.260643 47.953022
51.873646 -42.390968 50.096649
50.562378 -59.162273 48.217094
29.718771 -71.019493 61.017181
28.723059 -78.225357 55.254967
59.823509 -45.372002 49.84993
35.212448 -61.479546 53.54232
36.149734 -65.676117 53.210159
33.87405 -63.663158 55.898865
36.515747 -58.615379 51.767296
59.417049 -61.338829 42.501183
37.769234 -75.163292 53.498634
38.040722 -79.958382 52.510063
37.934502 -84.562477 49.718193
34.85252 -81.231651 52.054161
44.157181 -61.324924 49.277763
46.150311 -57.781826 48.247894
25.479105 -78.718681 55.841446
28.582748 -81.394676 50.51635
53.136375 -47.339306 49.172897
55.979862 -43.993622 50.356178
57.179321 -48.807957 49.088737
39.667984 -67.723099 51.84417
37.081551 -70.331497 53.425392
34.43158 -72.39119 55.228088
39.91695 -59.853901 49.875992
56.359097 -56.809155 47.093742
58.389584 -53.379238 47.230042
59.282738 -57.588833 45.033058
61.25116 -57.865856 41.456425
37.64579 -88.879738 44.987537
50.540039 -50.714321 48.096802
43.738102 -52.770187 47.940857
48.228569 -54.203594 47.750244
52.57843 -55.628113 47.778496
32.432003 -65.41481 59.087227
32.004269 -69.615845 58.286377
31.785057 -73.83989 57.035683
29.041399 -74.799522 58.672462
31.751146 -77.839119 54.858788
31.761869 -81.510361 51.211769
31.701761 -84.991341 45.987537
58.921211 -40.578461 50.849731
60.648911 -49.931274 47.655285
63.067047 -46.427486 47.725014
34.295181 -60.875961 54.987312
34.552719 -62.654972 54.610992
33.795521 -61.846298 56.117508
34.779125 -59.627293 54.087639
36.232468 -76.146423 53.946617
37.959953 -77.576263 53.193977
36.36755 -78.466522 53.355095
36.425858 -80.735237 52.353233
34.810543 -79.109238 53.403572
45.321156 -63.805466 49.820595
53.922066 -49.78743 48.67337
55.211739 -48.10759 49.246437
55.934448 -50.500992 48.593689
39.974842 -63.833359 50.787651
40.888451 -66.249313 51.14991
38.904766 -65.323151 51.535431
35.138096 -66.829407 54.320213
36.630173 -67.965561 53.285065
35.452808 -69.102356 54.310204
35.756432 -71.436371 54.309967
34.265987 -70.110397 55.418793
37.286423 -60.753845 51.429634
38.074684 -59.187366 50.638794
39.018501 -61.474174 50.591461
40.994179 -62.246803 50.095917
57.939358 -57.256672 46.258018
60.017193 -61.27758 40.401031
60.32579 -59.601017 41.947498
36.352703 -85.07151 48.908646
37.799904 -86.759872 47.576248
36.255547 -87.134674 46.475288
34.731064 -87.191971 45.255177
47.4314 -47.436985 48.368492
49.622627 -48.219101 48.426735
48.323853 -49.935974 47.99493
40.605946 -53.971348 48.758949
41.602421 -52.142021 48.396187
42.694454 -54.58569 48.216274
48.394073 -58.489929 48.246361
47.167221 -55.987797 47.907036
49.405876 -56.702778 47.926865
50.450779 -54.933609 47.797604
51.558449 -57.383591 47.901878
53.570347 -58.004238 47.716145
31.241707 -68.288574 60.323471
30.895906 -70.352631 59.673294
31.865314 -71.742737 57.739067
30.625134 -72.386803 58.873413
27.312916 -76.848801 57.614258
27.577469 -75.207489 59.429115
28.847038 -76.557587 57.120293
30.320116 -76.258713 56.625999
30.256142 -78.064575 55.054558
31.759596 -79.713593 53.240303
30.221252 -79.785614 53.119507
28.519403 -83.001091 47.690605
30.157055 -83.091988 48.144295
30.092949 -84.782578 45.192245
31.616743 -86.771904 42.921108
57.958336 -44.721378 50.265648
57.452831 -42.297295 50.732689
59.371578 -42.995651 50.508629
61.167221 -43.622189 49.928734
59.912148 -53.814159 46.180542
59.488487 -51.662193 47.445724
60.981697 -52.082336 46.23912
36.48774 -62.197575 52.297417
37.138149 -64.397385 52.234039
35.670464 -63.501411 53.27494
34.833702 -64.661903 54.405853
33.978939 -65.696861 55.711693
35.279556 -58.175674 53.234612
35.863033 -60.12376 52.616051
38.786785 -92.437729 40.344276
59.095634 -63.028034 41.051704
39.318802 -73.988258 53.003174
39.580677 -76.457092 52.928848
39.697182 -78.912796 52.512817
39.683163 -81.337524 51.661629
39.568161 -83.713768 50.318275
38.024265 -82.291962 51.364861
36.415535 -82.938995 50.877251
34.848392 -83.279869 50.235687
42.933212 -58.845947 48.856064
43.901745 -57.069256 48.346336
45.155876 -59.567429 48.722015
47.393654 -60.280792 48.704803
49.568863 -60.954708 48.675804
25.704609 -77.212875 58.137283
27.133503 -78.412323 55.504753
28.643219 -79.82357 53.051682
27.011286 -79.935005 53.093147
26.919514 -81.476028 50.401367
52.440201 -44.867565 49.645973
53.935081 -43.206421 50.250465
54.533508 -45.670403 49.802559
56.562561 -46.423313 49.812859
58.482491 -47.101021 49.541428
62.326378 -54.320686 42.821457
62.276146 -52.387512 44.592609
41.699501 -68.705307 51.579323
40.333717 -70.172432 52.19873
37.785973 -66.703705 52.361382
38.392338 -69.088821 52.600174
38.915291 -71.525131 52.852501
37.470718 -72.740273 53.535049
36.02388 -73.794624 54.226357
34.5895 -74.670135 54.898865
38.71106 -53.461437 49.658623
39.704662 -55.772392 49.279259
38.871372 -57.519268 49.91684
40.810432 -58.151249 49.224571
41.973179 -60.578484 49.449173
43.12664 -63.035442 49.876274
55.587341 -54.539768 47.636177
56.663132 -52.834145 47.86919
57.350712 -55.091084 47.091251
58.902405 -55.53619 46.166252
60.228111 -55.862343 44.831646
60.383518 -57.79451 43.420292
61.328342 -56.060921 43.098572
39.18399 -88.254425 46.143837
38.979176 -90.393616 43.406147
37.486511 -90.924301 42.033142
50.330429 -44.051373 49.489815
50.997894 -46.533371 49.004936
51.80278 -49.015877 48.572968
52.700104 -51.477966 48.194611
44.90633 -55.270176 47.964722
45.969528 -53.470211 47.758919
47.106323 -51.687908 47.76516
49.349808 -52.443298 47.81192
51.54512 -53.191395 47.888283
53.639587 -53.899273 47.869019
54.561626 -56.260479 47.576782
33.351749 -60.918465 57.677734
33.25444 -62.640587 57.603615
33.170425 -64.566132 57.412231
33.104359 -66.633972 57.170822
31.636227 -66.226761 60.8424
32.19912 -67.493774 58.729378
33.069492 -68.790215 56.898438
33.07288 -70.988892 56.575546
33.110634 -73.190292 56.146515
33.169506 -75.360718 55.528084
29.328478 -72.949432 59.955467
30.436432 -74.362648 57.878296
31.753069 -75.87867 56.102089
33.231812 -77.473625 54.625542
33.281067 -79.51181 53.353035
33.305935 -81.470016 51.652626
33.301163 -83.357224 49.507019
30.194176 -81.446503 50.807686
31.745899 -83.255409 48.778549
33.265091 -85.197128 46.943493
33.19445 -87.026001 44.029572
56.995277 -39.845547 50.962097
57.800087 -51.131657 48.214409
59.000992 -49.419754 48.584511
60.25544 -47.689518 48.882248
62.108406 -50.338043 46.269386
61.854568 -48.184113 47.773003
61.535828 -45.939812 49.017273
34.022415 -60.661901 55.660111
34.15863 -60.103071 55.354317
33.885864 -59.889012 56.027115
46.404055 -64.165348 49.806916
45.833703 -65.039254 50.09124
40.872042 -91.984165 40.695173
41.012219 -90.960792 42.180304
60.670376 -60.306444 38.931591
60.482214 -60.407486 40.092999
60.205355 -61.176538 39.239624
41.834274 -73.165237 52.333545
41.605248 -71.918892 52.224041
46.768119 -48.309553 48.191913
46.356062 -47.075613 48.443302
47.214346 -49.559048 48.005133
47.877626 -48.68648 48.181711
46.768119 -48.309553 48.191913
51.578789 -59.467723 48.129509
52.076825 -58.578383 47.971901
51.060414 -58.272932 48.059486
30.307339 -70.686062 60.345237
30.549689 -69.691697 60.78381
29.961122 -70.025127 61.455753
29.261713 -84.749939 44.920913
29.306176 -83.891835 46.441425
28.47494 -83.859195 46.170094
30.036999 -85.684041 43.618511
29.261713 -84.749939 44.920913
52.663607 -41.561945 50.353058
51.675619 -41.159607 50.327053
34.822204 -58.043561 54.101017
35.01132 -57.254116 53.696648
38.69244 -93.414025 38.701729
38.0531 -92.670204 39.579435
58.807495 -63.814284 40.251732
58.630088 -63.914903 41.387653
59.272949 -62.928036 39.908028
58.807495 -63.814284 40.251732
47.973203 -61.514105 48.961925
46.886101 -61.169601 48.975063
49.060808 -61.851062 48.947426
48.481258 -60.61775 48.690303
47.973203 -61.514105 48.961925
50.088124 -62.160108 48.872669
49.060808 -61.851062 48.947426
25.591857 -77.965778 56.989364
24.86206 -77.468887 58.424011
24.749308 -78.22179 57.276092
26.06506 -81.636405 50.453052
26.12156 -80.849266 51.843464
26.876143 -82.293877 48.942728
26.06506 -81.636405 50.453052
62.854248 -53.44883 42.684467
62.785054 -54.353323 41.709164
38.309567 -54.359716 49.962318
37.888783 -53.272489 50.299858
38.806368 -55.515194 49.772637
39.207861 -54.616915 49.468941
38.309567 -54.359716 49.962318
36.851822 -57.799982 51.37339
36.161667 -57.597293 52.08836
42.584004 -63.858709 50.18784
42.06041 -62.641123 49.986096
41.517773 -63.46439 50.297661
43.661905 -64.270575 50.139522
42.584004 -63.858709 50.18784
59.444044 -60.432178 43.160325
58.991272 -61.301204 43.40617
61.734798 -56.996498 41.235377
61.77339 -56.094031 42.05645
61.289751 -56.963389 42.277499
38.66203 -85.2934 49.093716
39.478859 -84.869045 49.393756
38.751332 -84.138123 50.018234
49.587311 -44.890219 49.186844
49.290989 -43.659574 49.481922
49.921043 -46.131218 48.944405
50.664162 -45.292372 49.247376
49.587311 -44.890219 49.186844
43.22483 -51.539876 48.083683
42.15699 -51.225793 48.311348
42.670261 -52.456104 48.168522
44.305523 -51.866686 47.904699
43.22483 -51.539876 48.083683
54.483517 -58.274141 47.493555
54.007101 -59.153461 47.668467
33.07622 -62.089834 58.52776
33.303095 -61.779526 57.640675
33.124874 -61.228774 58.564819
32.801214 -64.990471 58.249729
32.922358 -63.992329 58.378189
32.553146 -64.416668 59.215687
31.193527 -66.618023 61.722222
31.472639 -65.604793 61.98679
28.496367 -74.136154 59.824489
27.764403 -74.340137 60.202816
28.309434 -75.003505 59.050789
29.184939 -73.874477 59.313964
28.639907 -73.211109 60.465992
28.496367 -74.136154 59.824489
32.347598 -87.829697 41.892015
31.543512 -87.712559 41.303613
55.721065 -42.764488 50.537185
54.698675 -42.370888 50.484329
54.957471 -43.600021 50.303321
58.711662 -39.35815 50.88409
57.748695 -38.991693 50.940273
57.958244 -40.212004 50.905914
59.633907 -39.712119 50.751019
58.711662 -39.35815 50.88409
62.743687 -50.489277 45.356615
62.192276 -51.362777 45.430998
62.827557 -51.514011 44.518226
62.460808 -47.3058 47.749009
62.560459 -48.385317 46.98761
63.166699 -47.507003 46.963616
62.931534 -45.303701 48.322063
62.165925 -45.059864 48.968193
62.301438 -46.183649 48.371144
34.400602 -59.478737 54.90448
34.571989 -58.769371 54.52753
34.537153 -60.251627 54.537475
34.400602 -59.478737 54.90448
34.15863 -60.103071 55.354317
45.849852 -62.931939 49.532959
45.267865 -61.691668 49.261543
44.739169 -62.565195 49.549179
45.849852 -62.931939 49.532959
46.404055 -64.165348 49.806916
24.621163 -78.971806 56.064556
24.749308 -78.22179 57.276092
25.401355 -79.470593 54.563503
24.621163 -78.971806 56.064556
40.431646 -65.041336 50.96878
41.464909 -65.465644 50.824658
41.008105 -64.257667 50.643528
41.008105 -64.257667 50.643528
41.517773 -63.46439 50.297661
40.48451 -63.040081 50.441784
57.471007 -58.121537 46.3759
57.149227 -57.032913 46.67588
56.680876 -57.897778 46.793762
58.151905 -58.287079 45.801364
57.471007 -58.121537 46.3759
58.823595 -58.453159 45.188885
58.611048 -57.422753 45.645538
58.151905 -58.287079 45.801364
60.636512 -59.569204 40.866232
60.171492 -60.439298 41.174265
60.482214 -60.407486 40.092999
61.099198 -58.701624 40.620695
60.788475 -58.733436 41.701962
60.636512 -59.569204 40.866232
61.580345 -57.832237 40.330568
61.099198 -58.701624 40.620695
36.196272 -88.136677 45.06007
36.891393 -89.009209 44.316195
36.950668 -88.007206 45.731413
35.434031 -88.165325 44.450015
36.196272 -88.136677 45.06007
35.493306 -87.163322 45.865233
34.678379 -88.146503 43.740885
35.434031 -88.165325 44.450015
47.077642 -46.204729 48.654125
46.356062 -47.075613 48.443302
48.137796 -46.583025 48.626182
47.077642 -46.204729 48.654125
48.527013 -47.828043 48.397614
49.23341 -46.974083 48.655304
48.137796 -46.583025 48.626182
41.104184 -53.056685 48.577568
40.615696 -51.881853 48.796566
40.117458 -52.796516 48.977947
53.082774 -58.888706 47.879035
52.564398 -57.693915 47.809011
52.076825 -58.578383 47.971901
54.007101 -59.153461 47.668467
53.082774 -58.888706 47.879035
32.234801 -64.807323 60.153118
32.553146 -64.416668 59.215687
30.72259 -68.659668 61.108898
30.996267 -67.64893 61.462757
31.068807 -69.320603 59.998382
30.72259 -68.659668 61.108898
30.549689 -69.691697 60.78381
27.445193 -76.028145 58.521687
26.802847 -75.43026 59.797416
26.670571 -76.250915 58.889988
30.798896 -86.678704 42.482943
30.854846 -85.777241 44.056676
30.036999 -85.684041 43.618511
31.543512 -87.712559 41.303613
30.798896 -86.678704 42.482943
60.067633 -42.123232 50.488816
59.842449 -40.914637 50.659367
59.146394 -41.787056 50.67918
60.965454 -42.436501 50.198868
60.067633 -42.123232 50.488816
60.269399 -43.30892 50.218682
61.81604 -42.743299 49.823494
61.614273 -41.557612 50.093628
60.965454 -42.436501 50.198868
63.735138 -46.6346 46.853878
63.166699 -47.507003 46.963616
64.315079 -45.759856 46.720667
63.646988 -45.552742 47.591803
63.735138 -46.6346 46.853878
35.543571 -57.377441 52.822018
35.01132 -57.254116 53.696648
35.897651 -58.395527 52.500954
36.161667 -57.597293 52.08836
35.543571 -57.377441 52.822018
35.029341 -58.901483 53.661125
34.822204 -58.043561 54.101017
34.571989 -58.769371 54.52753
39.413792 -93.011265 39.432034
40.150234 -92.584682 40.092327
39.523228 -92.011146 41.00457
39.413792 -93.011265 39.432034
38.69244 -93.414025 38.701729
58.959211 -62.214781 42.808006
58.991272 -61.301204 43.40617
58.798503 -63.059383 42.083267
58.630088 -63.914903 41.387653
59.256341 -62.183431 41.776443
58.959211 -62.214781 42.808006
58.798503 -63.059383 42.083267
59.733728 -62.052808 39.582691
59.556413 -62.152807 40.726368
59.272949 -62.928036 39.908028
60.205355 -61.176538 39.239624
59.733728 -62.052808 39.582691
40.263559 -74.566219 52.792965
41.032671 -73.897956 52.534035
40.087913 -73.319996 52.744243
40.394497 -75.800636 52.755802
40.263559 -74.566219 52.792965
39.449739 -75.222675 52.966011
40.479997 -77.04586 52.651695
40.394497 -75.800636 52.755802
40.53825 -78.273712 52.44368
40.479997 -77.04586 52.651695
39.63893 -77.684944 52.720833
40.54063 -79.510376 52.137859
40.53825 -78.273712 52.44368
40.533621 -80.72274 51.712265
40.54063 -79.510376 52.137859
39.690173 -80.12516 52.087223
40.469145 -81.942528 51.171456
40.533621 -80.72274 51.712265
39.625662 -82.525646 50.989952
40.411644 -83.13065 50.499779
40.469145 -81.942528 51.171456
45.767212 -60.81292 48.983669
44.656529 -60.446176 48.999889
45.267865 -61.691668 49.261543
46.274765 -59.92411 48.713409
45.767212 -60.81292 48.983669
46.886101 -61.169601 48.975063
50.59214 -61.258997 48.593975
51.088898 -60.36278 48.36462
50.065621 -60.05849 48.446449
50.59214 -61.258997 48.593975
50.088124 -62.160108 48.872669
29.386688 -70.379177 62.206535
29.961122 -70.025127 61.455753
25.045627 -76.707638 59.517997
24.86206 -77.468887 58.424011
25.866417 -76.432952 59.1515
25.045627 -76.707638 59.517997
26.508763 -77.030838 57.875771
26.670571 -76.250915 58.889988
25.866417 -76.432952 59.1515
26.167445 -80.078755 53.189354
26.245196 -79.326843 54.467297
25.401355 -79.470593 54.563503
26.9654 -80.705517 51.747257
26.167445 -80.078755 53.189354
26.12156 -80.849266 51.843464
27.676087 -83.056408 47.587347
27.719459 -82.23856 49.045986
26.876143 -82.293877 48.942728
28.47494 -83.859195 46.170094
27.676087 -83.056408 47.587347
62.829132 -52.482242 43.570043
62.301262 -53.354099 43.707033
62.854248 -53.44883 42.684467
62.827557 -51.514011 44.518226
62.829132 -52.482242 43.570043
41.939686 -66.696678 51.067807
41.464909 -65.465644 50.824658
42.345211 -67.924675 51.282513
41.939686 -66.696678 51.067807
41.293976 -67.47731 51.364616
42.739191 -69.162613 51.509678
42.345211 -67.924675 51.282513
42.026485 -69.945678 51.771046
42.739191 -69.162613 51.509678
41.343593 -70.679241 52.080749
42.026485 -69.945678 51.771046
41.016609 -69.43887 51.889026
40.595371 -71.412082 52.342022
41.605248 -71.918892 52.224041
41.343593 -70.679241 52.080749
38.292962 -52.349626 50.018589
37.888783 -53.272489 50.299858
39.170016 -52.541561 49.427784
38.292962 -52.349626 50.018589
39.658503 -53.716392 49.208786
40.117458 -52.796516 48.977947
39.170016 -52.541561 49.427784
37.63129 -58.085976 50.80914
36.851822 -57.799982 51.37339
37.295215 -58.901372 51.203045
38.029635 -57.251926 50.448162
37.63129 -58.085976 50.80914
38.473028 -58.353317 50.277817
38.389723 -56.388632 50.091427
38.029635 -57.251926 50.448162
39.288017 -56.64583 49.59805
38.806368 -55.515194 49.772637
38.389723 -56.388632 50.091427
44.759163 -64.655586 50.111683
44.223898 -63.420454 49.848434
43.661905 -64.270575 50.139522
45.833703 -65.039254 50.09124
44.759163 -64.655586 50.111683
40.872042 -91.984165 40.695173
40.150234 -92.584682 40.092327
59.376888 -58.557181 44.426262
58.823595 -58.453159 45.188885
59.898415 -59.563272 42.883482
59.444044 -60.432178 43.160325
59.87142 -60.469923 42.22434
59.927278 -58.660019 43.619879
59.898415 -59.563272 42.883482
60.354654 -58.697764 42.683895
59.833128 -57.691671 44.226675
59.376888 -58.557181 44.426262
59.927278 -58.660019 43.619879
62.272407 -55.223913 41.917893
61.82736 -55.190804 42.960014
61.77339 -56.094031 42.05645
62.785054 -54.353323 41.709164
62.272407 -55.223913 41.917893
61.734798 -56.996498 41.235377
61.580345 -57.832237 40.330568
41.834274 -73.165237 52.333545
41.032671 -73.897956 52.534035
40.382745 -90.527195 43.099075
41.012219 -90.960792 42.180304
40.302143 -84.324116 49.70998
40.411644 -83.13065 50.499779
40.302143 -84.324116 49.70998
39.478859 -84.869045 49.393756
38.59473 -86.392098 48.022743
38.66203 -85.2934 49.093716
37.867203 -85.661175 48.647221
39.286774 -87.139374 47.306537
38.59473 -86.392098 48.022743
38.491947 -87.507148 46.860042
39.978569 -87.751323 46.590191
39.286774 -87.139374 47.306537
39.844905 -88.862125 45.338562
39.978569 -87.751323 46.590191
39.742498 -89.931721 43.969717
39.844905 -88.862125 45.338562
39.081583 -89.32402 44.774992
39.619423 -90.98909 42.535505
40.382745 -90.527195 43.099075
39.742498 -89.931721 43.969717
37.402963 -91.91349 40.423868
38.0531 -92.670204 39.579435
38.136648 -91.681015 41.188709
36.811754 -90.03149 42.838997
37.56615 -89.902019 43.51034
36.891393 -89.009209 44.316195
36.742151 -91.012668 41.273251
36.811754 -90.03149 42.838997
37.402963 -91.91349 40.423868
36.742151 -91.012668 41.273251
50.858621 -41.990882 50.069435
51.675619 -41.159607 50.327053
50.087013 -42.821085 49.766018
49.290989 -43.659574 49.481922
51.102038 -43.22117 49.793232
50.858621 -41.990882 50.069435
50.087013 -42.821085 49.766018
50.31026 -47.376236 48.715835
49.921043 -46.131218 48.944405
49.23341 -46.974083 48.655304
41.143055 -50.953816 48.656704
40.615696 -51.881853 48.796566
41.143055 -50.953816 48.656704
42.15699 -51.225793 48.311348
45.421236 -52.216697 47.81373
44.305523 -51.866686 47.904699
44.853815 -53.120199 47.849888
45.989633 -51.325546 47.816851
45.421236 -52.216697 47.81373
46.537926 -52.579059 47.76204
46.605581 -50.435015 47.890248
45.989633 -51.325546 47.816851
47.715088 -50.811941 47.880045
47.214346 -49.559048 48.005133
46.605581 -50.435015 47.890248
54.979157 -57.402261 47.423874
54.065986 -57.132358 47.646463
54.483517 -58.274141 47.493555
55.877892 -57.676599 47.182354
55.460361 -56.534817 47.335262
54.979157 -57.402261 47.423874
56.680876 -57.897778 46.793762
55.877892 -57.676599 47.182354
51.578789 -59.467723 48.129509
51.088898 -60.36278 48.36462
33.428505 -60.152031 57.562812
33.550699 -60.683154 57.005322
33.627454 -59.916719 56.8904
33.22192 -60.350271 58.50584
33.428505 -60.152031 57.562812
33.124874 -61.228774 58.564819
33.22192 -60.350271 58.50584
33.627454 -59.916719 56.8904
33.885864 -59.889012 56.027115
32.964365 -63.029556 58.473881
33.07622 -62.089834 58.52776
33.212433 -63.603359 57.507923
32.964365 -63.029556 58.473881
32.922358 -63.992329 58.378189
31.836913 -65.213299 61.030704
31.472639 -65.604793 61.98679
32.034115 -65.820785 59.964813
32.234801 -64.807323 60.153118
31.836913 -65.213299 61.030704
31.438967 -67.257667 60.582935
31.193527 -66.618023 61.722222
30.996267 -67.64893 61.462757
29.082675 -71.332638 61.653591
29.386688 -70.379177 62.206535
27.026133 -74.608375 60.684112
26.802847 -75.43026 59.797416
27.026133 -74.608375 60.684112
27.764403 -74.340137 60.202816
28.887529 -72.297607 61.122734
28.639907 -73.211109 60.465992
29.523625 -71.984463 60.486324
29.082675 -71.332638 61.653591
28.887529 -72.297607 61.122734
33.910072 -88.063518 43.128083
34.678379 -88.146503 43.740885
33.962757 -87.108986 44.642375
33.136452 -87.956745 42.446247
32.405597 -86.898953 43.47534
32.347598 -87.829697 41.892015
33.910072 -88.063518 43.128083
33.136452 -87.956745 42.446247
53.694324 -41.969672 50.429966
52.663607 -41.561945 50.353058
52.904364 -42.798694 50.173557
53.694324 -41.969672 50.429966
54.698675 -42.370888 50.484329
56.45755 -41.916325 50.725441
55.721065 -42.764488 50.537185
56.716347 -43.145459 50.544433
56.228773 -40.690451 50.840145
56.45755 -41.916325 50.725441
57.224054 -41.071421 50.847393
56.020568 -39.455286 50.951649
56.228773 -40.690451 50.840145
56.808872 -38.613833 50.992592
56.020568 -39.455286 50.951649
56.808872 -38.613833 50.992592
57.748695 -38.991693 50.940273
59.633907 -39.712119 50.751019
59.842449 -40.914637 50.659367
62.687378 -49.462282 46.235801
62.743687 -50.489277 45.356615
61.981487 -49.261078 47.021195
62.687378 -49.462282 46.235801
62.560459 -48.385317 46.98761
61.981621 -43.901052 49.423924
61.351524 -44.781001 49.473004
62.165925 -45.059864 48.968193
61.81604 -42.743299 49.823494
61.981621 -43.901052 49.423924
62.931534 -45.303701 48.322063
63.646988 -45.552742 47.591803
3 0 56 54
3 0 217 219
3 217 54 218
3 217 218 219
3 1 60 58
3 1 62 60
3 221 220 63
3 2 66 64
3 3 69 67
3 5 72 70
3 5 74 72
3 3 77 75
3 3 67 77
3 7 222 223
3 226 225 80
3 224 225 226
3 4 227 228
3 9 84 82
3 9 85 84
3 229 86 230
3 231 88 232
3 233 232 86
3 231 232 233
3 6 91 89
3 11 94 92
3 11 96 94
3 11 234 236
3 236 235 96
3 234 235 236
3 12 237 239
3 237 99 238
3 237 238 239
3 12 101 99
3 13 104 102
3 13 106 104
3 13 108 106
3 240 111 241
3 242 241 109
3 240 241 242
3 244 243 111
3 10 245 246
3 14 115 113
3 14 116 115
3 8 119 117
3 15 122 120
3 17 123 55
3 17 124 123
3 247 125 248
3 15 126 57
3 15 120 126
3 250 249 127
3 251 128 252
3 254 253 128
3 20 130 129
3 21 131 59
3 21 132 131
3 21 134 132
3 23 135 61
3 23 136 135
3 24 139 137
3 255 140 256
3 257 141 258
3 259 258 140
3 257 258 259
3 261 260 141
3 26 262 264
3 262 142 263
3 262 263 264
3 26 143 142
3 26 145 143
3 265 146 266
3 268 267 146
3 28 149 147
3 30 150 65
3 30 151 150
3 270 269 152
3 31 154 68
3 31 155 154
3 16 156 121
3 32 157 71
3 32 158 157
3 32 159 158
3 33 160 73
3 33 161 160
3 271 162 272
3 273 163 274
3 275 274 162
3 273 274 275
3 18 276 277
3 34 164 76
3 34 165 164
3 34 166 165
3 278 167 279
3 280 279 78
3 278 279 280
3 282 281 167
3 35 170 168
3 37 171 79
3 37 172 171
3 19 283 284
3 38 173 81
3 38 174 173
3 38 285 287
3 287 286 174
3 285 286 287
3 22 288 290
3 290 289 133
3 288 289 290
3 39 175 83
3 39 176 175
3 39 177 176
3 291 178 292
3 293 179 294
3 295 294 178
3 293 294 295
3 40 180 87
3 40 181 180
3 41 296 298
3 298 297 90
3 296 297 298
3 41 299 300
3 25 182 138
3 42 183 93
3 42 184 183
3 42 185 184
3 43 186 95
3 43 187 186
3 43 188 187
3 302 301 97
3 303 190 304
3 305 304 189
3 303 304 305
3 44 306 308
3 306 191 307
3 306 307 308
3 44 192 191
3 309 193 310
3 45 194 98
3 45 195 194
3 45 196 195
3 46 197 100
3 46 198 197
3 47 311 313
3 313 312 103
3 311 312 313
3 47 314 316
3 314 199 315
3 314 315 316
3 47 200 199
3 48 201 105
3 48 202 201
3 48 203 202
3 49 204 107
3 49 205 204
3 27 206 144
3 50 207 110
3 50 208 207
3 50 209 208
3 318 317 112
3 29 319 321
3 321 320 148
3 319 320 321
3 51 210 114
3 51 322 324
3 324 323 210
3 322 323 324
3 51 325 326
3 36 211 169
3 52 212 118
3 52 213 212
3 327 214 328
3 329 328 153
3 327 328 329
3 53 330 332
3 330 215 331
3 330 331 332
3 53 216 215
3 53 333 335
3 335 334 216
3 333 334 335
3 54 55 15
3 56 55 54
3 56 17 55
3 336 57 337
3 54 338 340
3 338 57 339
3 338 339 340
3 54 15 57
3 58 59 20
3 60 59 58
3 60 21 59
3 60 61 21
3 62 61 60
3 62 23 61
3 63 341 343
3 343 342 24
3 341 342 343
3 345 344 63
3 346 26 347
3 349 348 26
3 64 65 28
3 66 65 64
3 66 30 65
3 67 350 352
3 350 68 351
3 350 351 352
3 69 68 67
3 69 31 68
3 70 71 16
3 72 71 70
3 72 32 71
3 72 73 32
3 74 73 72
3 74 33 73
3 75 76 18
3 77 76 75
3 77 34 76
3 77 78 34
3 67 78 77
3 67 353 355
3 355 354 78
3 353 354 355
3 356 79 357
3 358 357 35
3 356 357 358
3 359 79 360
3 361 37 362
3 363 362 79
3 361 362 363
3 80 81 19
3 364 81 365
3 366 365 80
3 364 365 366
3 367 38 368
3 369 368 81
3 367 368 369
3 371 370 38
3 82 83 22
3 84 83 82
3 84 39 83
3 84 372 374
3 374 373 39
3 372 373 374
3 85 375 377
3 377 376 84
3 375 376 377
3 85 378 379
3 86 380 381
3 86 382 383
3 86 384 386
3 384 87 385
3 384 385 386
3 88 87 86
3 88 40 87
3 89 387 389
3 387 90 388
3 387 388 389
3 91 90 89
3 91 41 90
3 92 93 25
3 94 93 92
3 94 42 93
3 94 95 42
3 96 95 94
3 96 43 95
3 96 97 43
3 390 97 391
3 392 391 96
3 390 391 392
3 394 393 97
3 395 44 396
3 397 98 398
3 99 399 401
3 399 98 400
3 399 400 401
3 99 45 98
3 99 100 45
3 101 100 99
3 101 46 100
3 102 402 404
3 402 103 403
3 402 403 404
3 104 103 102
3 104 47 103
3 104 105 47
3 106 105 104
3 106 48 105
3 106 107 48
3 108 107 106
3 108 49 107
3 109 110 27
3 111 110 109
3 111 50 110
3 111 112 50
3 405 112 406
3 407 406 111
3 405 406 407
3 409 408 112
3 113 114 29
3 115 114 113
3 115 51 114
3 115 410 412
3 412 411 51
3 410 411 412
3 116 413 415
3 415 414 115
3 413 414 415
3 116 416 418
3 416 417 418
3 117 118 36
3 119 118 117
3 119 52 118
3 419 53 420
3 423 422 53
3 421 422 423
3 120 121 3
3 122 121 120
3 122 16 121
3 55 122 15
3 123 122 55
3 123 16 122
3 123 70 16
3 124 70 123
3 124 5 70
3 125 424 425
3 125 426 428
3 426 18 427
3 426 427 428
3 57 429 431
3 429 125 430
3 429 430 431
3 126 125 57
3 126 18 125
3 126 75 18
3 120 75 126
3 120 3 75
3 127 432 434
3 434 433 7
3 432 433 434
3 436 435 127
3 437 19 438
3 128 439 440
3 128 441 443
3 441 19 442
3 441 442 443
3 128 80 19
3 444 80 445
3 446 445 128
3 444 445 446
3 448 447 80
3 129 449 451
3 451 450 4
3 449 450 451
3 130 452 454
3 454 453 129
3 452 453 454
3 130 455 456
3 59 130 20
3 131 130 59
3 131 457 459
3 459 458 130
3 457 458 459
3 131 460 461
3 132 462 464
3 464 463 131
3 462 463 464
3 132 465 466
3 132 467 469
3 467 133 468
3 467 468 469
3 134 133 132
3 134 22 133
3 61 134 21
3 135 134 61
3 135 22 134
3 135 82 22
3 136 82 135
3 136 9 82
3 137 138 6
3 139 138 137
3 139 25 138
3 470 139 471
3 472 471 24
3 470 471 472
3 140 473 475
3 473 139 474
3 473 474 475
3 140 25 139
3 140 92 25
3 141 92 140
3 141 11 92
3 141 476 478
3 478 477 11
3 476 477 478
3 480 479 141
3 481 12 482
3 142 483 484
3 142 485 486
3 142 487 489
3 487 102 488
3 487 488 489
3 143 102 142
3 143 13 102
3 143 144 13
3 145 144 143
3 145 27 144
3 490 145 491
3 492 491 26
3 490 491 492
3 146 493 495
3 493 145 494
3 493 494 495
3 146 27 145
3 146 109 27
3 496 109 497
3 498 497 146
3 496 497 498
3 500 499 109
3 147 148 10
3 149 148 147
3 149 29 148
3 65 149 28
3 150 149 65
3 150 29 149
3 150 113 29
3 151 113 150
3 151 14 113
3 152 153 8
3 501 153 502
3 503 502 152
3 501 502 503
3 505 504 153
3 68 506 507
3 154 508 510
3 510 509 68
3 508 509 510
3 154 511 512
3 154 513 514
3 155 515 517
3 517 516 154
3 515 516 517
3 155 518 520
3 518 4 519
3 518 519 520
3 121 69 3
3 156 69 121
3 156 31 69
3 71 156 16
3 157 156 71
3 157 31 156
3 157 155 31
3 158 155 157
3 158 4 155
3 158 129 4
3 159 129 158
3 159 20 129
3 73 159 32
3 160 159 73
3 160 20 159
3 160 58 20
3 161 58 160
3 161 1 58
3 162 521 522
3 162 523 524
3 162 525 527
3 525 89 526
3 525 526 527
3 163 89 162
3 163 6 89
3 76 528 530
3 530 529 18
3 528 529 530
3 164 531 533
3 533 532 76
3 531 532 533
3 164 534 535
3 164 536 538
3 536 163 537
3 536 537 538
3 165 163 164
3 165 6 163
3 165 137 6
3 166 137 165
3 166 24 137
3 78 166 34
3 167 166 78
3 167 24 166
3 167 63 24
3 539 63 540
3 541 540 167
3 539 540 541
3 543 542 63
3 545 544 7
3 168 169 2
3 170 169 168
3 170 36 169
3 79 170 35
3 171 170 79
3 171 36 170
3 171 117 36
3 172 117 171
3 172 8 117
3 546 37 547
3 81 548 550
3 550 549 19
3 548 549 550
3 173 551 553
3 553 552 81
3 551 552 553
3 173 554 556
3 554 37 555
3 554 555 556
3 173 172 37
3 174 172 173
3 174 8 172
3 174 152 8
3 557 152 558
3 559 558 174
3 557 558 559
3 561 560 152
3 563 562 38
3 565 564 4
3 566 7 567
3 133 568 569
3 571 570 133
3 83 572 574
3 574 573 22
3 572 573 574
3 175 575 577
3 577 576 83
3 575 576 577
3 175 578 579
3 175 580 581
3 176 582 584
3 584 583 175
3 582 583 584
3 176 585 587
3 585 7 586
3 585 586 587
3 176 127 7
3 177 127 176
3 177 588 590
3 590 589 127
3 588 589 590
3 591 177 592
3 593 592 39
3 591 592 593
3 594 177 595
3 597 596 177
3 598 10 599
3 178 600 601
3 178 602 604
3 602 10 603
3 602 603 604
3 178 147 10
3 179 147 178
3 179 28 147
3 87 605 607
3 605 179 606
3 605 606 607
3 180 179 87
3 180 28 179
3 180 64 28
3 181 64 180
3 181 2 64
3 90 608 609
3 611 610 90
3 138 91 6
3 182 91 138
3 182 41 91
3 93 182 25
3 183 182 93
3 183 41 182
3 183 612 614
3 614 613 41
3 612 613 614
3 184 615 617
3 617 616 183
3 615 616 617
3 184 618 619
3 184 620 622
3 620 88 621
3 620 621 622
3 185 88 184
3 185 40 88
3 95 185 42
3 186 185 95
3 186 40 185
3 186 181 40
3 187 181 186
3 187 2 181
3 187 168 2
3 188 168 187
3 188 35 168
3 97 188 43
3 623 188 624
3 625 624 97
3 623 624 625
3 626 35 627
3 628 627 188
3 626 627 628
3 630 629 35
3 632 631 11
3 633 189 634
3 635 634 0
3 633 634 635
3 636 189 637
3 639 638 189
3 640 0 641
3 189 56 0
3 190 56 189
3 190 17 56
3 642 190 643
3 191 644 646
3 644 190 645
3 644 645 646
3 191 17 190
3 191 124 17
3 192 124 191
3 192 5 124
3 193 647 648
3 193 649 651
3 649 44 650
3 649 650 651
3 98 652 654
3 652 193 653
3 652 653 654
3 194 193 98
3 194 44 193
3 194 192 44
3 195 192 194
3 195 5 192
3 195 74 5
3 196 74 195
3 196 33 74
3 100 196 45
3 197 196 100
3 197 33 196
3 197 161 33
3 198 161 197
3 198 1 161
3 655 12 656
3 103 657 658
3 660 659 103
3 199 661 662
3 199 663 665
3 663 12 664
3 663 664 665
3 199 101 12
3 200 101 199
3 200 46 101
3 105 200 47
3 201 200 105
3 201 46 200
3 201 198 46
3 202 198 201
3 202 1 198
3 202 62 1
3 203 62 202
3 203 23 62
3 107 203 48
3 204 203 107
3 204 23 203
3 204 136 23
3 205 136 204
3 205 9 136
3 144 108 13
3 206 108 144
3 206 49 108
3 110 206 27
3 207 206 110
3 207 49 206
3 207 205 49
3 208 205 207
3 208 9 205
3 208 85 9
3 209 85 208
3 209 666 668
3 668 667 85
3 666 667 668
3 112 209 50
3 669 209 670
3 671 670 112
3 669 670 671
3 673 672 209
3 148 674 676
3 676 675 10
3 674 675 676
3 678 677 148
3 114 679 681
3 681 680 29
3 679 680 681
3 210 682 684
3 684 683 114
3 682 683 684
3 210 685 686
3 210 687 688
3 690 689 210
3 692 691 51
3 169 66 2
3 211 66 169
3 211 30 66
3 118 211 36
3 212 211 118
3 212 30 211
3 212 151 30
3 213 151 212
3 213 14 151
3 153 119 8
3 214 119 153
3 214 52 119
3 693 214 694
3 215 695 697
3 695 214 696
3 695 696 697
3 215 52 214
3 215 213 52
3 216 213 215
3 216 14 213
3 216 116 14
3 698 116 699
3 700 699 216
3 698 699 700
3 702 701 116
3 704 703 53
