ply
format ascii 1.0
element vertex 103
property float x
property float y
property float z
element face 84
property list uchar int vertex_index
end_header
-30.077888 38.149044 -26.79586
-27.518847 33.158371 -28.61969
-33.282066 42.367847 -24.568493
-30.4044 43.613083 -26.707314
-28.592258 38.529987 -27.882095
-28.685881 35.745564 -27.770084
-27.117001 36.023628 -28.772999
-35.820538 46.632069 -23.45034
-34.940262 44.190445 -23.356766
-33.966949 44.87933 -24.624409
-32.091324 42.952141 -25.769962
-32.430172 45.65205 -25.597641
-33.960312 41.839348 -23.07806
-32.54245 39.927334 -24.301628
-31.634691 40.356598 -25.720554
-30.273516 40.838947 -26.867432
-28.487898 41.385555 -27.772732
-26.935139 37.491615 -28.757141
-27.85463 37.276808 -28.327547
-27.672767 38.744794 -28.311689
-34.226789 46.197342 -24.552489
-34.893743 45.7557 -24.037374
-35.153583 47.073712 -23.965454
-33.4584 46.583702 -25.039105
-33.19856 45.26569 -25.111025
-34.226789 46.197342 -24.552489
-30.004001 36.820908 -26.655183
-30.626114 37.979531 -26.12257
-28.19573 33.07592 -28.053884
-28.779247 34.369517 -27.629081
-28.102364 34.451968 -28.194887
-27.782249 31.75063 -28.492309
-28.19573 33.07592 -28.053884
-35.3804 45.411257 -23.403553
-35.737219 45.012003 -22.723638
-36.177357 46.232815 -22.770426
-36.700457 47.423862 -22.84882
-36.177357 46.232815 -22.770426
-36.158539 47.921658 -23.409426
-36.700457 47.423862 -22.84882
-35.153583 47.073712 -23.965454
-36.158539 47.921658 -23.409426
-29.307997 35.619168 -27.142295
-30.004001 36.820908 -26.655183
-29.381884 36.947304 -27.282972
-29.307997 35.619168 -27.142295
-28.779247 34.369517 -27.629081
-35.14653 43.870558 -22.567768
-35.737219 45.012003 -22.723638
-34.656555 42.695009 -22.428415
-35.14653 43.870558 -22.567768
-34.450287 43.014896 -23.217413
-34.06624 41.577683 -22.204567
-34.656555 42.695009 -22.428415
-33.490366 40.679628 -22.854748
-34.06624 41.577683 -22.204567
-32.781435 39.723622 -23.466532
-33.490366 40.679628 -22.854748
-33.251381 40.883341 -23.689844
-32.215451 38.710884 -24.076954
-32.454436 38.507171 -23.241858
-32.781435 39.723622 -23.466532
-31.858395 38.868676 -24.875454
-32.215451 38.710884 -24.076954
-31.404515 39.083308 -25.584917
-31.858395 38.868676 -24.875454
-32.088571 40.141966 -25.011091
-30.85629 39.252821 -26.258207
-30.626114 37.979531 -26.12257
-31.404515 39.083308 -25.584917
-27.620587 40.172579 -28.257008
-27.672767 38.744794 -28.311689
-28.540078 39.957771 -27.827413
-32.503994 47.074803 -25.421642
-33.4584 46.583702 -25.039105
-33.532223 48.006455 -24.863106
-31.410345 46.082893 -25.972532
-32.503994 47.074803 -25.421642
-30.397459 45.06341 -26.527369
-31.417286 44.632567 -26.152477
-31.410345 46.082893 -25.972532
-29.347377 43.981476 -27.079918
-30.397459 45.06341 -26.527369
-28.389126 42.867712 -27.612627
-29.446149 42.499319 -27.240023
-29.347377 43.981476 -27.079918
-27.418616 41.689527 -28.138947
-28.389126 42.867712 -27.612627
-27.620587 40.172579 -28.257008
-27.418616 41.689527 -28.138947
-26.18927 36.178684 -29.165018
-26.935139 37.491615 -28.757141
-26.509356 34.676706 -29.13871
-26.18927 36.178684 -29.165018
-25.581625 34.831762 -29.530729
-26.710279 33.244078 -29.062055
-27.317924 34.591 -28.696344
-26.509356 34.676706 -29.13871
-27.067915 31.785471 -28.975683
-26.710279 33.244078 -29.062055
-27.331318 30.37773 -28.848303
-27.782249 31.75063 -28.492309
-27.067915 31.785471 -28.975683
3 17 6 18
3 19 18 4
3 17 18 19
3 20 9 21
3 22 21 7
3 20 21 22
3 23 11 24
3 25 24 9
3 23 24 25
3 0 26 27
3 1 28 30
3 30 29 5
3 28 29 30
3 1 31 32
3 2 12 8
3 2 13 12
3 2 14 13
3 3 15 10
3 3 16 15
3 4 5 0
3 6 5 4
3 6 1 5
3 7 33 35
3 33 8 34
3 33 34 35
3 9 8 7
3 9 2 8
3 9 10 2
3 11 10 9
3 11 3 10
3 36 7 37
3 38 7 39
3 41 40 7
3 5 42 44
3 44 43 0
3 42 43 44
3 46 45 5
3 8 47 48
3 12 49 51
3 51 50 8
3 49 50 51
3 12 52 53
3 12 54 55
3 13 56 58
3 58 57 12
3 56 57 58
3 13 59 61
3 59 60 61
3 13 62 63
3 14 64 66
3 66 65 13
3 64 65 66
3 14 67 69
3 67 0 68
3 67 68 69
3 10 14 2
3 15 14 10
3 15 0 14
3 15 4 0
3 16 4 15
3 16 70 72
3 72 71 4
3 70 71 72
3 73 11 74
3 73 74 75
3 76 11 77
3 78 3 79
3 80 79 11
3 78 79 80
3 81 3 82
3 83 16 84
3 85 84 3
3 83 84 85
3 86 16 87
3 89 88 16
3 90 6 91
3 92 6 93
3 92 93 94
3 95 1 96
3 97 96 6
3 95 96 97
3 98 1 99
3 102 101 1
3 100 101 102
