ply
format ascii 1.0
element vertex 160
property float x
property float y
property float z
element face 143
property list uchar int vertex_index
end_header
-44.565247 11.4611 57.226658
-50.896835 4.640579 52.023075
-38.841068 5.182144 61.323772
-47.896828 8.063898 54.773369
-49.187042 2.793705 55.669102
-46.065807 5.848356 57.927944
-42.203144 8.572918 59.754978
-37.963593 10.976219 61.269012
-46.256516 9.786663 56.026409
-46.862953 10.745808 54.166664
-45.301441 12.596678 55.483734
-47.743225 4.352827 56.870594
-46.533501 3.154596 58.270065
-42.76836 5.75901 59.926296
-40.619545 6.915457 60.615829
-40.110592 9.80497 60.557072
-38.376278 8.005236 61.23901
-36.480556 6.157261 61.783978
-49.458252 6.333706 53.449085
-49.99646 7.095276 51.411762
-48.436295 8.894281 52.814922
-42.832138 13.057381 58.369652
-43.748058 14.397854 56.760555
-51.33868 2.15366 52.454903
-50.35907 1.205557 54.287788
-50.138901 3.775919 53.940609
-48.716915 5.419197 55.271408
-47.113678 7.043938 56.47839
-45.372719 8.614223 57.595638
-44.760685 4.509016 59.155861
-44.202911 7.257303 58.880356
-43.530361 10.105442 58.645027
-41.612358 11.508034 59.625572
-39.63599 12.826981 60.510735
-37.614929 14.078503 61.255188
-46.608101 1.840836 58.457555
-47.281858 2.429137 57.746651
-39.979662 4.673654 61.069059
-39.081657 3.848517 61.486136
-39.730306 6.048801 60.9698
-40.868901 5.540311 60.715087
-39.979662 4.673654 61.069059
-51.195137 5.01791 50.975872
-51.828707 4.208924 50.197918
-51.530405 3.831593 51.245121
-47.044925 11.116325 53.106308
-46.311779 12.117684 53.803602
-42.504534 14.58458 58.166939
-41.942239 13.808649 58.89678
-51.291275 0.89019 52.582982
-51.815607 1.370103 51.628237
-49.773056 1.999631 54.978445
-49.784947 0.693458 55.130795
-49.198932 1.487533 55.821452
-43.997535 3.787088 59.692408
-44.936209 3.182014 59.33977
-36.287775 7.611326 61.787449
-35.293863 6.647692 61.994801
-50.187801 7.41013 50.302321
-49.386192 8.320476 51.023676
-44.057167 14.943514 55.787546
-43.3743 15.912342 56.448492
-45.531023 13.043119 54.462137
-46.311779 12.117684 53.803602
-46.082197 11.671243 54.825199
-48.608629 2.248692 56.446169
-49.198932 1.487533 55.821452
-47.886721 3.028252 57.046915
-48.465134 3.573266 56.269848
-48.608629 2.248692 56.446169
-47.138363 3.753711 57.570329
-47.886721 3.028252 57.046915
-47.281858 2.429137 57.746651
-41.943308 4.962087 60.370321
-43.001373 4.412084 60.077625
-41.693953 6.337233 60.271062
-41.943308 4.962087 60.370321
-40.868901 5.540311 60.715087
-37.893355 4.296819 61.66094
-39.081657 3.848517 61.486136
-36.713099 4.784377 61.891043
-37.660812 5.669702 61.553875
-37.893355 4.296819 61.66094
-35.493354 5.226351 62.055168
-36.713099 4.784377 61.891043
-35.725897 3.853467 62.162233
-35.293863 6.647692 61.994801
-35.493354 5.226351 62.055168
-48.60611 9.219978 51.725256
-49.386192 8.320476 51.023676
-49.216378 7.994778 52.113342
-47.831597 10.190561 52.430437
-47.649624 9.820044 53.490793
-47.044925 11.116325 53.106308
-48.60611 9.219978 51.725256
-47.831597 10.190561 52.430437
-42.962494 15.254816 57.36239
-43.290098 13.727618 57.565103
-42.504534 14.58458 58.166939
-43.3743 15.912342 56.448492
-42.962494 15.254816 57.36239
-51.751328 2.588133 51.461035
-51.815607 1.370103 51.628237
-51.117757 3.397119 52.238989
-51.530405 3.831593 51.245121
-51.751328 2.588133 51.461035
-50.211472 -0.085128 54.394705
-49.637348 -0.597226 55.237711
-49.784947 0.693458 55.130795
-50.80147 0.416138 53.499424
-50.211472 -0.085128 54.394705
-50.848875 1.679609 53.371346
-51.291275 0.89019 52.582982
-50.80147 0.416138 53.499424
-45.822617 2.504803 58.896872
-46.608101 1.840836 58.457555
-45.647093 3.831806 58.712963
-45.822617 2.504803 58.896872
-44.936209 3.182014 59.33977
-43.764522 5.134013 59.541078
-43.997535 3.787088 59.692408
-43.001373 4.412084 60.077625
-41.332349 13.033976 59.52474
-41.942239 13.808649 58.89678
-42.222248 12.282708 58.997612
-40.344166 13.693449 59.967321
-41.332349 13.033976 59.52474
-40.624174 12.167507 60.068153
-39.426045 14.396852 60.423094
-40.344166 13.693449 59.967321
-38.415514 15.022613 60.795321
-39.426045 14.396852 60.423094
-38.625459 13.452742 60.882961
-37.466331 15.682827 61.147991
-38.415514 15.022613 60.795321
-37.235636 8.535314 61.514965
-37.428417 7.081249 61.511494
-36.287775 7.611326 61.787449
-37.029294 10.020805 61.529966
-38.169936 9.490728 61.254011
-37.235636 8.535314 61.514965
-36.879599 11.546729 61.563868
-37.029294 10.020805 61.529966
-36.705267 13.097871 61.556956
-37.789261 12.527361 61.2621
-36.879599 11.546729 61.563868
-36.589363 14.682476 61.5324
-36.705267 13.097871 61.556956
-37.466331 15.682827 61.147991
-36.589363 14.682476 61.5324
-50.74495 6.245259 50.670215
-51.195137 5.01791 50.975872
-50.446647 5.867928 51.717419
-50.74495 6.245259 50.670215
-50.187801 7.41013 50.302321
-44.833858 14.042926 55.149135
-44.524749 13.497266 56.122144
-44.057167 14.943514 55.787546
-45.531023 13.043119 54.462137
-44.833858 14.042926 55.149135
3 0 10 8
3 35 12 36
3 2 37 38
3 2 39 41
3 39 14 40
3 39 40 41
3 2 16 14
3 1 42 44
3 42 43 44
3 3 20 18
3 46 45 9
3 48 47 21
3 49 23 50
3 4 51 53
3 51 24 52
3 51 52 53
3 4 25 24
3 4 26 25
3 5 27 11
3 5 28 27
3 54 29 55
3 6 30 13
3 6 31 30
3 6 32 31
3 7 33 15
3 7 34 33
3 57 56 17
3 59 58 19
3 61 60 22
3 8 9 3
3 10 9 8
3 10 62 64
3 64 63 9
3 62 63 64
3 65 4 66
3 67 11 68
3 69 68 4
3 67 68 69
3 12 70 72
3 70 11 71
3 70 71 72
3 12 5 11
3 73 13 74
3 14 75 77
3 75 13 76
3 75 76 77
3 14 6 13
3 14 15 6
3 16 15 14
3 16 7 15
3 78 2 79
3 80 17 81
3 82 81 2
3 80 81 82
3 83 17 84
3 83 84 85
3 87 86 17
3 18 19 1
3 20 19 18
3 20 88 90
3 90 89 19
3 88 89 90
3 9 20 3
3 91 20 92
3 93 92 9
3 91 92 93
3 95 94 20
3 21 22 0
3 96 22 97
3 98 97 21
3 96 97 98
3 100 99 22
3 23 101 102
3 23 103 105
3 103 1 104
3 103 104 105
3 24 106 108
3 106 107 108
3 24 109 110
3 24 111 113
3 111 23 112
3 111 112 113
3 25 23 24
3 25 1 23
3 25 18 1
3 26 18 25
3 26 3 18
3 11 26 4
3 27 26 11
3 27 3 26
3 27 8 3
3 28 8 27
3 28 0 8
3 114 12 115
3 29 116 118
3 116 12 117
3 116 117 118
3 29 5 12
3 13 119 121
3 119 29 120
3 119 120 121
3 30 29 13
3 30 5 29
3 30 28 5
3 31 28 30
3 31 0 28
3 31 21 0
3 32 21 31
3 32 122 124
3 124 123 21
3 122 123 124
3 15 32 6
3 33 32 15
3 33 125 127
3 127 126 32
3 125 126 127
3 33 128 129
3 34 130 132
3 132 131 33
3 130 131 132
3 34 133 134
3 17 16 2
3 135 16 136
3 137 136 17
3 135 136 137
3 138 7 139
3 140 139 16
3 138 139 140
3 141 7 142
3 143 34 144
3 145 144 7
3 143 144 145
3 146 34 147
3 149 148 34
3 19 150 152
3 152 151 1
3 150 151 152
3 154 153 19
3 22 10 0
3 155 10 156
3 157 156 22
3 155 156 157
3 159 158 10
