ply
format ascii 1.0
element vertex 660
property float x
property float y
property float z
element face 788
property list uchar int vertex_index
end_header
-54.744564 -1.248976 45.047081
-43.890938 -9.451494 60.235973
-50.03611 -18.363789 52.024513
-68.726311 -11.503052 20.770771
-63.462109 -10.884666 36.379906
-59.216125 2.721642 36.364483
-50.780731 -10.833717 46.176403
-56.710747 -14.422417 44.189655
-57.6213 -6.125966 38.506592
-63.946579 -2.911917 30.482533
-49.550568 -5.483945 52.846188
-44.753723 -21.999798 59.846783
-44.545242 -14.997023 53.931679
-68.606339 -19.486288 27.058084
-62.795837 -18.543581 43.269489
-67.464378 -17.80257 34.944469
-68.455841 -10.123235 28.280315
-68.118729 -2.290648 22.040606
-57.028214 0.819054 40.780106
-52.924957 -6.076126 45.334351
-54.205975 -8.437853 42.367496
-55.924675 -3.745888 41.362747
-58.814728 -1.60169 37.260559
-46.669216 -7.498188 56.492294
-48.75684 -2.412584 56.196465
-42.148163 -16.867058 57.946869
-44.011105 -12.362003 56.899895
-46.792549 -10.458135 52.991856
-68.76236 -15.500669 24.053062
-51.195641 -21.015833 56.40139
-60.164597 -12.424605 40.310364
-60.297421 -16.14883 44.090767
-63.322918 -14.706044 40.015602
-65.353012 -17.833714 39.101227
-66.050964 -13.885603 35.903809
-68.150314 -13.866045 31.76462
-66.346962 -10.100071 32.357616
-64.039337 1.313801 28.678228
-66.459145 -2.31184 26.279926
-66.042793 1.872766 24.193571
-67.27153 1.950277 19.71611
-61.319092 4.295185 31.831287
-49.676132 -15.027849 48.371872
-53.277462 -16.486399 48.080593
-53.151428 -12.801967 44.558506
-56.746273 -10.489757 40.775803
-60.299988 -8.442832 36.955986
-63.629345 -6.993871 33.041672
-60.919128 -4.20877 34.55571
-61.557823 0.139931 33.037682
-52.274174 -3.378356 49.077675
-53.223793 1.502495 48.769699
-51.24387 -0.37328 52.71106
-47.173824 -20.110678 55.992813
-41.775444 -20.82917 60.089394
-43.894623 -18.85218 56.230953
-46.524136 -17.002491 52.271408
-47.486752 -13.042665 50.003906
-49.842064 -8.366648 49.18071
-57.179214 -17.844881 48.172802
-60.072609 -19.681036 47.485615
-64.069733 -21.906456 41.618423
-66.360672 -21.935173 37.638931
-67.961021 -22.543808 33.664902
-68.705017 -18.442923 30.858631
-69.190056 -14.524161 27.726099
-69.365601 -10.727224 24.316719
-66.467468 -6.313323 29.00639
-68.451828 -6.342663 24.911015
-69.18174 -6.793775 20.96237
-55.902966 -0.201895 42.937271
-56.022614 2.005209 42.617958
-55.068108 1.052635 44.813736
-53.97514 -3.640663 45.183586
-54.437767 -4.902213 43.36594
-55.325157 -2.51795 43.151752
-56.640732 -1.421303 41.075882
-45.249325 -8.475169 58.341103
-46.42292 -5.995783 58.097134
-44.9785 -7.015429 59.866913
-42.789581 -13.296598 58.905224
-43.982925 -10.910835 58.5951
-45.320435 -9.964748 56.651451
-68.776779 -13.518085 22.433805
-67.924553 -15.980477 22.457798
-67.878937 -13.929412 20.884939
-50.586723 -19.744148 54.192154
-52.61792 -20.248001 54.351025
-52.089001 -18.915461 52.175789
-61.846401 -11.574287 38.355164
-61.849869 -13.486458 40.206745
-63.412235 -12.796133 38.20343
-64.74173 -14.200263 37.965828
-64.887032 -12.285248 36.182106
-66.23378 -11.978456 34.142166
-64.976471 -10.387932 34.380486
-63.78978 3.387974 27.91954
-65.11821 1.666307 26.447107
-64.735199 3.727045 25.609154
-65.538872 3.928232 23.279558
-50.043404 -13.028059 47.077316
-51.387451 -13.942684 46.457016
-51.77422 -11.877894 45.178123
-55.921349 -7.251048 40.44632
-55.316322 -9.496781 41.392284
-57.090889 -8.348205 39.488483
-58.538277 -9.409753 38.874451
-58.845772 -7.287028 37.568314
-60.562172 -6.352867 35.625816
-59.292664 -5.101027 36.544411
-59.18639 0.607683 36.819111
-60.209549 -0.668434 35.16481
-60.415108 1.494255 34.645042
-61.60379 2.26486 32.438972
-50.943008 -4.439528 50.98996
-51.861389 -1.909058 50.955997
-50.617195 -2.927988 52.821705
-47.901646 -0.905598 57.544605
-45.915638 -21.020514 57.946877
-40.820274 -19.942976 60.787144
-43.274467 -15.92696 55.935543
-42.819614 -17.955505 56.892002
-43.996021 -17.019695 54.896873
-45.136971 -17.926363 54.250702
-45.320797 -16.089357 52.905743
-46.786858 -15.13026 50.935841
-45.956604 -14.04529 51.952457
-48.207428 -8.006631 52.869305
-48.300339 -9.441444 51.081802
-49.688637 -6.965951 50.994621
-51.15403 -5.882976 49.099735
-52.163975 3.022606 50.467167
-54.981567 -15.468048 46.130081
-55.281765 -17.141605 48.159363
-56.92939 -16.192513 46.166565
-61.719421 -17.233715 43.803932
-60.271652 -17.932522 45.885113
-61.44376 -19.080273 45.368401
-62.261608 -20.466164 44.586945
-63.550209 -20.103298 42.511429
-66.48822 -17.726614 37.021042
-65.944885 -19.775089 38.400658
-66.964478 -19.853266 36.352028
-67.2789 -22.17202 35.648624
-67.791489 -20.094149 34.311054
-68.36245 -20.476494 32.293846
-68.223778 -18.050871 32.882969
-68.34584 -11.980862 30.037704
-68.830765 -14.129259 29.719084
-69.001892 -12.243855 28.010431
-69.319496 -12.624096 26.040024
-69.086304 -10.375987 26.267891
-63.781021 -4.980326 31.652861
-65.130486 -6.555433 31.038246
-65.219124 -4.57158 29.617012
-67.418976 -2.244375 24.153076
-67.544434 -4.284999 25.472662
-68.334503 -4.355374 23.400616
-68.996628 -6.540443 22.899338
-68.811356 -4.512878 21.370331
-68.934494 -4.706059 19.424326
-68.513992 -2.406359 19.97921
-67.503685 1.895124 17.569689
-58.130955 1.799816 38.586971
-57.880322 3.845922 38.107449
-51.794296 -8.495593 45.625534
-52.487572 -9.645172 44.275047
-53.428326 -7.298999 43.701309
-55.052879 -6.104112 41.755814
-56.659813 -4.94678 39.785744
-58.241737 -3.862108 37.789936
-57.384453 -2.636307 39.326767
-57.927162 -0.371967 38.963219
-48.115559 -6.503839 54.670227
-49.280159 -3.953063 54.611965
-47.87059 -4.976654 56.357655
-47.346542 -3.47273 57.835407
-41.14576 -17.841333 59.939896
-41.812416 -15.615719 59.331757
-42.912308 -14.670844 57.30912
-44.146687 -13.741991 55.298584
-45.513954 -12.800188 53.31649
-45.352226 -11.42488 54.928017
-46.739594 -9.003122 54.74749
-54.457146 -20.827845 54.314552
-55.890137 -20.128994 52.197502
-58.445076 -13.39107 42.25246
-58.585621 -15.23555 44.181099
-60.232521 -14.316195 42.196945
-61.831886 -15.370681 42.055397
-63.135628 -16.621872 41.728821
-64.108818 -18.114948 41.182709
-64.495895 -16.143848 39.653774
-65.766663 -15.837138 37.57444
-66.904854 -15.72323 35.491051
-67.858871 -15.803915 33.411087
-67.204781 -13.776244 33.832993
-67.404556 -11.881639 32.089371
-67.524582 -10.018782 30.318832
-64.061417 -0.802538 29.508694
-65.286552 -2.52722 28.394936
-65.277191 -0.435852 27.354073
-66.330109 -0.225706 25.17421
-67.177361 -0.149385 22.987417
-67.775284 -0.172426 20.823038
-66.773529 1.956259 21.938896
-68.593826 -9.422146 19.109388
-67.782486 -11.827152 19.264568
-62.312008 4.901533 29.513496
-49.693615 -16.804897 50.045074
-51.620693 -17.452679 50.045433
-51.352032 -15.803491 48.101662
-53.076645 -14.740159 46.177109
-54.842056 -13.633626 44.26619
-53.538513 -10.688178 43.28624
-54.944389 -11.636566 42.667717
-56.626312 -12.520506 42.361237
-58.409401 -11.448342 40.453697
-60.170521 -10.467669 38.534992
-61.885303 -9.624884 36.597191
-63.52383 -8.956789 34.633987
-62.007019 -7.628088 35.013512
-62.216904 -5.577016 33.65543
-62.479496 -3.473929 32.536179
-59.789215 -2.881865 35.767143
-61.288704 -2.032871 33.714798
-62.721222 -1.335621 31.62945
-62.842365 0.804529 30.876072
-62.736298 2.900118 30.197577
-53.539219 -2.311209 47.096825
-54.071293 0.083364 46.946617
-53.009109 -0.903896 48.997978
-52.292534 0.586546 50.801571
-50.063873 -1.375813 54.501621
-49.844322 -21.821392 58.421795
-49.17289 -20.570118 56.199059
-48.548042 -19.23831 54.011566
-43.102901 -21.50556 59.798687
-41.775146 -18.925629 58.865242
-42.786285 -19.813301 58.187054
-44.186523 -20.500921 57.905277
-45.370319 -19.558834 55.957382
-46.683041 -18.653299 53.98378
-48.128975 -17.747215 52.00795
-48.045296 -16.045015 50.309551
-48.37109 -14.114219 48.993851
-49.105103 -11.972094 48.081993
-46.993305 -11.81672 51.367409
-48.553726 -10.77205 49.445007
-50.163033 -9.661339 47.536022
-51.389824 -7.239191 47.269859
-52.58522 -4.768884 47.165985
-54.064476 2.382086 46.629211
-53.661339 -18.052372 50.162739
-55.627098 -18.679749 50.226959
-57.345016 -19.410131 50.08242
-58.740986 -16.989473 46.128162
-58.809326 -18.670841 47.977352
-58.694962 -20.30662 49.623756
-64.790558 -19.863234 40.452366
-65.271538 -21.847424 39.627556
-68.613861 -20.965225 30.328539
-68.848999 -18.937189 28.903744
-68.571259 -16.06085 31.35117
-68.983116 -16.458435 29.337765
-69.040298 -16.949507 27.406084
-69.179054 -14.999201 25.823296
-69.254211 -13.067106 24.166479
-69.253479 -11.121075 22.469164
-65.049561 -8.486805 32.642166
-66.419212 -8.22254 30.623608
-67.583633 -8.15454 28.587481
-66.489326 -4.346123 27.552578
-67.59182 -6.252501 26.957075
-68.48996 -8.256469 26.55212
-69.085358 -8.487204 24.545952
-69.32222 -8.79514 22.606802
-69.164436 -9.124437 20.779158
-68.975578 -7.047996 19.146105
-68.084557 -0.251707 18.721012
-43.936932 -10.181165 59.415537
-43.365429 -11.388312 59.587198
-43.319435 -10.658641 60.407635
-63.986753 4.547334 26.384125
-64.26249 3.55751 26.764347
-63.514044 4.377799 27.539318
-64.402786 4.709469 25.191332
-63.986753 4.547334 26.384125
-59.010183 3.714523 36.08851
-59.74898 3.14159 35.23905
-59.74898 3.14159 35.23905
-60.348471 2.527897 34.379329
-59.815616 2.107949 35.504762
-47.965931 0.39904 57.383921
-47.292174 -0.189262 58.094825
-45.687969 -22.185983 59.974303
-45.09758 -22.702773 60.896391
-45.334681 -21.510156 58.89683
-46.268926 -21.696341 59.024349
-45.687969 -22.185983 59.974303
-40.520908 -19.399829 61.336533
-40.355806 -20.470571 61.709345
-68.277615 -20.789053 26.884453
-68.547921 -20.502057 27.75562
-51.828707 4.208924 50.197918
-51.530405 3.831593 51.245121
-56.991737 1.879171 40.579047
-57.543108 2.369553 39.482479
-57.579584 1.309435 39.683538
-55.812562 3.044824 42.370098
-55.434807 2.62186 43.511207
-46.609382 -4.010839 58.650972
-46.884731 -4.734256 57.96627
-46.147571 -5.272365 58.781835
-46.903816 -2.755637 58.44306
-46.609382 -4.010839 58.650972
-41.750301 -14.934956 60.130423
-41.318245 -16.105828 60.336565
-68.351506 -16.755931 24.003113
-68.731469 -16.49177 24.825115
-67.342861 -17.239009 22.484702
-67.299435 -16.191384 21.766008
-52.127443 -21.272058 56.410865
-51.451193 -21.641264 57.449215
-54.278939 -20.153133 53.301626
-53.537533 -20.537923 54.332788
-53.359325 -19.863211 53.319862
-54.995434 -19.803708 52.243101
-55.173642 -20.47842 53.256027
-54.278939 -20.153133 53.301626
-65.852047 3.971045 22.117435
-65.158039 4.90648 22.825817
-68.104599 -9.533445 18.374409
-68.479801 -8.33732 18.303013
-60.976763 5.244722 31.487112
-61.473221 5.547897 30.328216
-61.81555 4.598359 30.672391
-57.501921 4.800169 37.78676
-57.118136 4.385581 38.956164
-51.291275 0.89019 52.582982
-51.815607 1.370103 51.628237
-51.768202 0.106633 51.756315
-49.202514 -22.262861 59.405737
-50.122711 -22.452402 59.472525
-48.173357 -20.340398 56.095936
-48.513935 -21.002 57.188114
-47.514402 -20.77228 57.084992
-41.920936 -21.703501 60.849129
-41.288868 -21.363177 60.999779
-42.439172 -21.167365 59.94404
-42.584665 -22.041695 60.703775
-41.920936 -21.703501 60.849129
-67.179665 -13.046728 19.410177
-67.113964 -11.944059 18.624636
-59.853933 -20.546205 48.153698
-59.16511 -20.858996 49.222769
-59.383786 -19.993828 48.554686
-63.630161 -22.925108 42.114196
-63.43655 -22.000535 42.620964
-64.270001 -22.913127 41.167171
-63.630161 -22.925108 42.114196
-66.008556 -22.978958 38.23118
-65.463989 -22.935083 39.225493
-65.816105 -21.891298 38.633243
-66.525234 -23.097229 37.278928
-66.008556 -22.978958 38.23118
-67.732201 -23.582714 34.333065
-67.39114 -23.39682 35.324926
-67.61996 -22.357914 34.656763
-67.994091 -23.816052 33.37488
-67.732201 -23.582714 34.333065
-68.150452 -22.783057 32.687472
-67.994091 -23.816052 33.37488
-68.806092 -4.794114 18.516893
-68.751976 -3.623793 18.718953
-67.789929 0.77775 17.149415
-67.475788 1.864768 16.561468
-54.957554 2.145573 44.609096
-55.434807 2.62186 43.511207
-55.545361 1.528922 43.715847
-45.425361 -5.782188 59.666725
-46.147571 -5.272365 58.781835
-45.70071 -6.505606 58.982023
-42.768756 -12.581193 59.74226
-42.238884 -13.775395 59.917156
-43.386253 -12.103717 58.750162
-42.768756 -12.581193 59.74226
-43.365429 -11.388312 59.587198
-67.276626 -15.165851 20.979578
-67.299435 -16.191384 21.766008
-67.901745 -14.954944 21.671368
-53.094866 -19.196942 52.232245
-53.359325 -19.863211 53.319862
-52.35346 -19.581731 53.263407
-64.804623 4.810062 24.026534
-65.137035 3.827638 24.444356
-64.402786 4.709469 25.191332
-65.158039 4.90648 22.825817
-64.804623 4.810062 24.026534
-60.522232 4.897144 32.661951
-60.800463 3.928362 32.972452
-60.942812 2.9132 33.276294
-61.009449 1.879558 33.542007
-60.348471 2.527897 34.379329
-60.800463 3.928362 32.972452
-61.461441 3.280023 32.135129
-60.942812 2.9132 33.276294
-48.556235 -0.362119 56.759203
-48.983831 -1.115612 56.085133
-48.329243 -1.659091 56.870535
-48.556235 -0.362119 56.759203
-47.965931 0.39904 57.383921
-46.885309 -21.227198 58.062023
-46.268926 -21.696341 59.024349
-46.544731 -20.565596 56.969845
-47.514402 -20.77228 57.084992
-46.885309 -21.227198 58.062023
-40.811283 -20.92008 61.348654
-40.355806 -20.470571 61.709345
-41.297859 -20.386073 60.438269
-41.288868 -21.363177 60.999779
-40.811283 -20.92008 61.348654
-52.515179 3.422734 49.402884
-53.045088 2.662678 48.55415
-52.693884 2.262551 49.618433
-52.515179 3.422734 49.402884
-51.828707 4.208924 50.197918
-61.19748 -19.997384 46.028412
-60.511904 -20.297765 47.087019
-60.758184 -19.380654 46.427008
-61.606403 -20.690329 45.637684
-61.19748 -19.997384 46.028412
-61.852684 -19.773218 44.977673
-61.885159 -21.424862 45.122231
-61.606403 -20.690329 45.637684
-62.532488 -21.280389 44.105225
-61.885159 -21.424862 45.122231
-63.176789 -21.098956 43.067467
-62.532488 -21.280389 44.105225
-62.905909 -20.284731 43.549187
-63.809971 -21.004877 42.064926
-63.43655 -22.000535 42.620964
-63.176789 -21.098956 43.067467
-68.541725 -2.473943 18.996395
-68.751976 -3.623793 18.718953
-68.724243 -3.556209 19.701768
-67.042233 2.954802 18.121908
-67.387608 1.9227 18.642899
-66.926155 2.982379 19.195119
-67.131325 2.929861 17.028601
-67.042233 2.954802 18.121908
-67.475788 1.864768 16.561468
-67.131325 2.929861 17.028601
-57.417791 3.392606 39.242718
-58.005639 2.822869 38.34721
-57.543108 2.369553 39.482479
-57.118136 4.385581 38.956164
-57.417791 3.392606 39.242718
-56.488937 2.472249 41.497973
-56.991737 1.879171 40.579047
-56.525414 1.412131 41.699032
-56.488937 2.472249 41.497973
-55.812562 3.044824 42.370098
-47.181368 -1.472071 58.297659
-47.624094 -2.189164 57.690006
-46.903816 -2.755637 58.44306
-47.292174 -0.189262 58.094825
-47.181368 -1.472071 58.297659
-44.198981 -22.530725 60.755429
-45.09758 -22.702773 60.896391
-40.984917 -17.218635 60.640634
-40.683651 -18.349007 60.912909
-41.479088 -16.728526 59.635827
-40.984917 -17.218635 60.640634
-41.318245 -16.105828 60.336565
-42.300998 -14.456159 59.118491
-41.750301 -14.934956 60.130423
-42.238884 -13.775395 59.917156
-68.275757 -19.765549 26.211122
-68.653458 -18.484579 26.327626
-67.932602 -16.995835 23.205481
-68.351506 -16.755931 24.003113
-68.343457 -15.740573 23.25543
-67.932602 -16.995835 23.205481
-67.342861 -17.239009 22.484702
-52.838583 -20.888141 55.385683
-52.127443 -21.272058 56.410865
-51.90678 -20.631917 55.376207
-53.758196 -21.178064 55.367446
-52.838583 -20.888141 55.385683
-53.537533 -20.537923 54.332788
-54.530311 -21.501651 55.210569
-53.758196 -21.178064 55.367446
-55.204937 -21.188591 54.13019
-54.530311 -21.501651 55.210569
-55.921433 -20.839166 53.071664
-55.204937 -21.188591 54.13019
-55.173642 -20.47842 53.256027
-56.604674 -20.530186 51.988793
-55.921433 -20.839166 53.071664
-66.469375 2.985059 21.447103
-66.1562 2.942245 22.609227
-65.852047 3.971045 22.117435
-66.718376 2.982068 20.33571
-67.022529 1.953268 20.827503
-66.469375 2.985059 21.447103
-66.926155 2.982379 19.195119
-66.718376 2.982068 20.33571
-43.733232 -8.749976 60.964291
-43.253714 -9.949773 61.208714
-43.253714 -9.949773 61.208714
-43.319435 -10.658641 60.407635
-67.698929 -10.735948 18.451999
-68.188156 -10.624649 19.186978
-68.104599 -9.533445 18.374409
-67.113964 -11.944059 18.624636
-67.698929 -10.735948 18.451999
-61.913639 5.835807 29.135976
-62.775158 5.134578 28.336296
-61.913639 5.835807 29.135976
-61.473221 5.547897 30.328216
-60.976763 5.244722 31.487112
-60.522232 4.897144 32.661951
-58.342281 4.276663 36.959994
-59.010183 3.714523 36.08851
-58.548223 3.283782 37.235966
-58.342281 4.276663 36.959994
-57.501921 4.800169 37.78676
-62.775158 5.134578 28.336296
-63.514044 4.377799 27.539318
-63.050894 4.144754 28.716518
-51.751328 2.588133 51.461035
-52.228255 1.804576 50.634369
-51.815607 1.370103 51.628237
-51.530405 3.831593 51.245121
-51.751328 2.588133 51.461035
-49.637348 -0.597226 55.237711
-49.410356 -1.894198 55.349043
-48.983831 -1.115612 56.085133
-50.211472 -0.085128 54.394705
-49.637348 -0.597226 55.237711
-50.80147 0.416138 53.499424
-50.653872 -0.874547 53.606341
-50.211472 -0.085128 54.394705
-51.291275 0.89019 52.582982
-50.80147 0.416138 53.499424
-44.277013 -7.531944 60.77976
-44.434719 -8.233462 60.051443
-43.733232 -8.749976 60.964291
-44.679302 -6.328515 60.501095
-44.277013 -7.531944 60.77976
-45.425361 -5.782188 59.666725
-44.679302 -6.328515 60.501095
-50.775533 -22.044044 58.459418
-50.122711 -22.452402 59.472525
-50.519982 -21.418613 57.411592
-51.451193 -21.641264 57.449215
-50.775533 -22.044044 58.459418
-48.849651 -21.627637 58.299482
-49.202514 -22.262861 59.405737
-49.508606 -21.195755 57.310427
-48.849651 -21.627637 58.299482
-48.513935 -21.002 57.188114
-43.37357 -22.283606 60.731381
-42.584665 -22.041695 60.703775
-43.928312 -21.752679 59.822735
-44.198981 -22.530725 60.755429
-43.37357 -22.283606 60.731381
-40.983017 -18.892155 60.36352
-40.520908 -19.399829 61.336533
-40.683651 -18.349007 60.912909
-68.277615 -20.789053 26.884453
-68.275757 -19.765549 26.211122
-67.22789 -14.097858 20.220363
-67.830712 -12.878282 20.074753
-67.179665 -13.046728 19.410177
-67.276626 -15.165851 20.979578
-67.22789 -14.097858 20.220363
-54.455738 2.810298 45.516834
-54.957554 2.145573 44.609096
-54.566292 1.717361 45.721474
-53.465429 3.102474 47.483905
-53.644134 1.94229 47.699455
-53.045088 2.662678 48.55415
-53.775516 3.479202 46.363765
-53.465429 3.102474 47.483905
-54.455738 2.810298 45.516834
-53.775516 3.479202 46.363765
-53.881035 -18.765397 51.225719
-53.094866 -19.196942 52.232245
-52.87517 -18.483916 51.169264
-54.863914 -19.079085 51.257829
-53.881035 -18.765397 51.225719
-54.644218 -18.36606 50.194849
-55.758617 -19.404371 51.212231
-54.995434 -19.803708 52.243101
-54.863914 -19.079085 51.257829
-57.332113 -20.170755 50.931252
-56.604674 -20.530186 51.988793
-56.617576 -19.769562 51.139961
-58.007086 -20.619 50.70192
-57.332113 -20.170755 50.931252
-58.019989 -19.858376 49.853088
-58.508694 -21.117944 50.305177
-58.007086 -20.619 50.70192
-58.508694 -21.117944 50.305177
-59.16511 -20.858996 49.222769
-59.853933 -20.546205 48.153698
-60.511904 -20.297765 47.087019
-64.870903 -22.883611 40.171737
-64.270001 -22.913127 41.167171
-64.670636 -21.87694 40.62299
-64.870903 -22.883611 40.171737
-65.463989 -22.935083 39.225493
-66.984348 -23.215652 36.283775
-66.525234 -23.097229 37.278928
-66.819786 -22.053596 36.643777
-66.984348 -23.215652 36.283775
-67.39114 -23.39682 35.324926
-68.351166 -21.749399 32.001944
-68.150452 -22.783057 32.687472
-68.161735 -21.510151 32.979374
-68.476872 -21.993765 31.01929
-68.351166 -21.749399 32.001944
-68.488156 -20.720859 31.311193
-68.483666 -22.267883 30.073786
-68.476872 -21.993765 31.01929
-68.551682 -21.241526 29.390847
-68.483666 -22.267883 30.073786
-68.669251 -20.227508 28.67845
-68.551682 -21.241526 29.390847
-68.73143 -19.951207 29.616141
-68.727669 -19.211738 27.980914
-68.547921 -20.502057 27.75562
-68.669251 -20.227508 28.67845
-68.870438 -17.216189 26.501626
-68.653458 -18.484579 26.327626
-68.823318 -18.217897 27.232084
-68.939815 -16.241035 25.710232
-68.870438 -17.216189 26.501626
-69.109676 -15.974354 26.61469
-68.970707 -15.249935 24.938179
-68.731469 -16.49177 24.825115
-68.939815 -16.241035 25.710232
-68.670677 -7.150245 18.321371
-68.479801 -8.33732 18.303013
-68.784702 -8.235071 19.127747
-68.826633 -5.965083 18.377782
-68.955036 -5.877028 19.285215
-68.806092 -4.794114 18.516893
-68.670677 -7.150245 18.321371
-68.826633 -5.965083 18.377782
-68.327008 -1.396617 18.367296
-68.541725 -2.473943 18.996395
-68.299274 -1.329033 19.350111
-68.080365 -0.295666 17.725077
-67.794121 0.821708 18.14535
-67.789929 0.77775 17.149415
-68.327008 -1.396617 18.367296
-68.080365 -0.295666 17.725077
3 0 72 70
3 0 75 73
3 0 70 75
3 1 79 77
3 1 280 282
3 280 81 281
3 280 281 282
3 1 77 81
3 3 85 83
3 2 88 86
3 4 91 89
3 4 93 91
3 4 95 93
3 283 98 284
3 285 284 96
3 283 284 285
3 287 286 98
3 5 288 289
3 6 102 100
3 8 105 103
3 8 107 105
3 8 109 107
3 5 112 110
3 5 290 292
3 292 291 112
3 290 291 292
3 10 116 114
3 294 293 117
3 11 295 296
3 11 297 299
3 297 118 298
3 297 298 299
3 300 119 301
3 12 122 120
3 12 124 122
3 12 126 124
3 10 129 127
3 10 114 129
3 13 302 303
3 305 304 131
3 7 134 132
3 14 137 135
3 14 138 137
3 14 139 138
3 15 142 140
3 15 144 142
3 15 146 144
3 16 149 147
3 16 151 149
3 9 154 152
3 17 157 155
3 17 159 157
3 17 161 159
3 18 306 308
3 308 307 163
3 306 307 308
3 310 309 71
3 19 167 165
3 21 168 74
3 21 169 168
3 21 171 169
3 18 172 76
3 18 163 172
3 23 175 173
3 311 176 312
3 313 312 78
3 311 312 313
3 315 314 176
3 316 178 317
3 26 179 80
3 26 180 179
3 26 182 180
3 23 183 82
3 23 173 183
3 28 318 319
3 321 320 84
3 29 322 323
3 324 184 325
3 326 325 87
3 324 325 326
3 327 185 328
3 329 328 184
3 327 328 329
3 30 188 186
3 32 189 90
3 32 190 189
3 32 192 190
3 34 193 92
3 34 194 193
3 34 196 194
3 36 197 94
3 36 198 197
3 37 201 199
3 39 202 97
3 39 203 202
3 39 205 203
3 331 330 99
3 333 332 206
3 41 334 336
3 336 335 208
3 334 335 336
3 338 337 164
3 42 211 209
3 44 212 101
3 44 213 212
3 20 214 166
3 45 215 104
3 45 216 215
3 45 217 216
3 46 218 106
3 46 219 218
3 46 221 219
3 48 222 108
3 48 223 222
3 22 224 170
3 49 225 111
3 49 226 225
3 49 227 226
3 41 228 113
3 41 208 228
3 50 231 229
3 52 232 115
3 52 339 341
3 341 340 232
3 339 340 341
3 24 233 174
3 342 234 343
3 53 344 346
3 344 235 345
3 344 345 346
3 53 236 235
3 54 347 348
3 54 349 351
3 349 237 350
3 349 350 351
3 25 238 177
3 55 239 121
3 55 240 239
3 55 241 240
3 56 242 123
3 56 243 242
3 56 244 243
3 57 245 125
3 57 246 245
3 27 247 181
3 58 248 128
3 58 249 248
3 58 250 249
3 50 251 130
3 50 229 251
3 353 352 207
3 51 252 230
3 43 253 210
3 59 254 133
3 59 255 254
3 31 256 187
3 60 257 136
3 60 258 257
3 60 354 356
3 356 355 258
3 354 355 356
3 61 357 358
3 61 359 360
3 33 259 191
3 62 260 141
3 62 361 363
3 363 362 260
3 361 362 363
3 62 364 365
3 63 366 368
3 368 367 143
3 366 367 368
3 63 369 370
3 63 371 372
3 64 261 145
3 64 262 261
3 35 263 195
3 65 264 148
3 65 265 264
3 65 266 265
3 66 267 150
3 66 268 267
3 47 269 220
3 67 270 153
3 67 271 270
3 38 272 200
3 68 273 156
3 68 274 273
3 68 275 274
3 69 276 158
3 69 277 276
3 69 278 277
3 374 373 160
3 40 279 204
3 376 375 162
3 70 71 18
3 72 71 70
3 72 377 379
3 379 378 71
3 377 378 379
3 73 74 19
3 75 74 73
3 75 21 74
3 75 76 21
3 70 76 75
3 70 18 76
3 77 78 23
3 79 78 77
3 79 380 382
3 382 381 78
3 380 381 382
3 383 80 384
3 81 385 387
3 385 80 386
3 385 386 387
3 81 26 80
3 81 82 26
3 77 82 81
3 77 23 82
3 83 84 28
3 85 84 83
3 85 388 390
3 390 389 84
3 388 389 390
3 86 87 29
3 88 87 86
3 88 391 393
3 393 392 87
3 391 392 393
3 89 90 30
3 91 90 89
3 91 32 90
3 91 92 32
3 93 92 91
3 93 34 92
3 93 94 34
3 95 94 93
3 95 36 94
3 96 97 37
3 98 97 96
3 98 39 97
3 98 99 39
3 394 99 395
3 396 395 98
3 394 395 396
3 398 397 99
3 400 399 41
3 100 101 42
3 102 101 100
3 102 44 101
3 103 104 20
3 105 104 103
3 105 45 104
3 105 106 45
3 107 106 105
3 107 46 106
3 107 108 46
3 109 108 107
3 109 48 108
3 110 111 22
3 112 111 110
3 112 49 111
3 112 113 49
3 401 113 402
3 403 402 112
3 401 402 403
3 404 41 405
3 406 405 113
3 404 405 406
3 114 115 50
3 116 115 114
3 116 52 115
3 117 407 409
3 409 408 24
3 407 408 409
3 411 410 117
3 118 412 413
3 118 414 416
3 414 53 415
3 414 415 416
3 119 417 418
3 119 419 421
3 419 54 420
3 419 420 421
3 120 121 25
3 122 121 120
3 122 55 121
3 122 123 55
3 124 123 122
3 124 56 123
3 124 125 56
3 126 125 124
3 126 57 125
3 127 128 27
3 129 128 127
3 129 58 128
3 129 130 58
3 114 130 129
3 114 50 130
3 131 422 424
3 424 423 51
3 422 423 424
3 426 425 131
3 132 133 43
3 134 133 132
3 134 59 133
3 135 136 31
3 137 136 135
3 137 60 136
3 137 427 429
3 429 428 60
3 427 428 429
3 138 430 432
3 432 431 137
3 430 431 432
3 138 433 434
3 138 435 436
3 139 437 439
3 439 438 138
3 437 438 439
3 139 440 442
3 440 61 441
3 440 441 442
3 140 141 33
3 142 141 140
3 142 62 141
3 142 143 62
3 144 143 142
3 144 63 143
3 144 145 63
3 146 145 144
3 146 64 145
3 147 148 35
3 149 148 147
3 149 65 148
3 149 150 65
3 151 150 149
3 151 66 150
3 152 153 47
3 154 153 152
3 154 67 153
3 155 156 38
3 157 156 155
3 157 68 156
3 157 158 68
3 159 158 157
3 159 69 158
3 159 160 69
3 161 160 159
3 161 443 445
3 445 444 160
3 443 444 445
3 446 162 447
3 448 447 40
3 446 447 448
3 449 162 450
3 452 451 162
3 163 164 5
3 453 164 454
3 455 454 163
3 453 454 455
3 457 456 164
3 71 458 460
3 460 459 18
3 458 459 460
3 462 461 71
3 165 166 6
3 167 166 165
3 167 20 166
3 74 167 19
3 168 167 74
3 168 20 167
3 168 103 20
3 169 103 168
3 169 8 103
3 169 170 8
3 171 170 169
3 171 22 170
3 76 171 21
3 172 171 76
3 172 22 171
3 172 110 22
3 163 110 172
3 163 5 110
3 173 174 10
3 175 174 173
3 175 24 174
3 78 175 23
3 176 175 78
3 176 24 175
3 176 117 24
3 463 117 464
3 465 464 176
3 463 464 465
3 467 466 117
3 468 11 469
3 470 177 471
3 178 472 474
3 472 177 473
3 472 473 474
3 178 25 177
3 80 475 477
3 475 178 476
3 475 476 477
3 179 178 80
3 179 25 178
3 179 120 25
3 180 120 179
3 180 12 120
3 180 181 12
3 182 181 180
3 182 27 181
3 82 182 26
3 183 182 82
3 183 27 182
3 183 127 27
3 173 127 183
3 173 10 127
3 479 478 13
3 84 480 482
3 482 481 28
3 480 481 482
3 484 483 84
3 87 485 487
3 487 486 29
3 485 486 487
3 184 488 490
3 490 489 87
3 488 489 490
3 184 491 492
3 184 493 494
3 185 495 497
3 497 496 184
3 495 496 497
3 185 498 499
3 186 187 7
3 188 187 186
3 188 31 187
3 90 188 30
3 189 188 90
3 189 31 188
3 189 135 31
3 190 135 189
3 190 14 135
3 190 191 14
3 192 191 190
3 192 33 191
3 92 192 32
3 193 192 92
3 193 33 192
3 193 140 33
3 194 140 193
3 194 15 140
3 194 195 15
3 196 195 194
3 196 35 195
3 94 196 34
3 197 196 94
3 197 35 196
3 197 147 35
3 198 147 197
3 198 16 147
3 199 200 9
3 201 200 199
3 201 38 200
3 97 201 37
3 202 201 97
3 202 38 201
3 202 155 38
3 203 155 202
3 203 17 155
3 203 204 17
3 205 204 203
3 205 40 204
3 99 205 39
3 500 205 501
3 502 501 99
3 500 501 502
3 503 40 504
3 505 504 205
3 503 504 505
3 507 506 40
3 509 508 1
3 510 1 511
3 206 207 3
3 512 207 513
3 514 513 206
3 512 513 514
3 516 515 207
3 208 517 518
3 520 519 208
3 522 521 41
3 164 523 525
3 525 524 5
3 523 524 525
3 527 526 164
3 209 210 2
3 211 210 209
3 211 43 210
3 101 211 42
3 212 211 101
3 212 43 211
3 212 132 43
3 213 132 212
3 213 7 132
3 166 102 6
3 214 102 166
3 214 44 102
3 104 214 20
3 215 214 104
3 215 44 214
3 215 213 44
3 216 213 215
3 216 7 213
3 216 186 7
3 217 186 216
3 217 30 186
3 106 217 45
3 218 217 106
3 218 30 217
3 218 89 30
3 219 89 218
3 219 4 89
3 219 220 4
3 221 220 219
3 221 47 220
3 108 221 46
3 222 221 108
3 222 47 221
3 222 152 47
3 223 152 222
3 223 9 152
3 170 109 8
3 224 109 170
3 224 48 109
3 111 224 22
3 225 224 111
3 225 48 224
3 225 223 48
3 226 223 225
3 226 9 223
3 226 199 9
3 227 199 226
3 227 37 199
3 113 227 49
3 228 227 113
3 228 37 227
3 228 96 37
3 208 96 228
3 208 528 530
3 530 529 96
3 528 529 530
3 229 230 0
3 231 230 229
3 231 51 230
3 115 231 50
3 232 231 115
3 232 51 231
3 232 131 51
3 531 131 532
3 533 532 232
3 531 532 533
3 535 534 131
3 174 116 10
3 233 116 174
3 233 52 116
3 536 233 537
3 538 537 24
3 536 537 538
3 539 233 540
3 541 52 542
3 543 542 233
3 541 542 543
3 545 544 52
3 546 79 547
3 548 547 1
3 546 547 548
3 549 79 550
3 552 551 79
3 234 553 554
3 234 555 557
3 555 29 556
3 555 556 557
3 558 234 559
3 235 560 562
3 560 234 561
3 560 561 562
3 235 29 234
3 235 86 29
3 236 86 235
3 236 2 86
3 237 563 564
3 237 565 567
3 565 11 566
3 565 566 567
3 177 568 570
3 568 119 569
3 568 569 570
3 238 119 177
3 238 54 119
3 121 238 25
3 239 238 121
3 239 54 238
3 239 237 54
3 240 237 239
3 240 11 237
3 240 118 11
3 241 118 240
3 241 53 118
3 123 241 55
3 242 241 123
3 242 53 241
3 242 236 53
3 243 236 242
3 243 2 236
3 243 209 2
3 244 209 243
3 244 42 209
3 125 244 56
3 245 244 125
3 245 42 244
3 245 100 42
3 246 100 245
3 246 6 100
3 181 126 12
3 247 126 181
3 247 57 126
3 128 247 27
3 248 247 128
3 248 57 247
3 248 246 57
3 249 246 248
3 249 6 246
3 249 165 6
3 250 165 249
3 250 19 165
3 130 250 58
3 251 250 130
3 251 19 250
3 251 73 19
3 229 73 251
3 229 0 73
3 572 571 13
3 207 85 3
3 573 85 574
3 575 574 207
3 573 574 575
3 577 576 85
3 230 72 0
3 252 72 230
3 252 578 580
3 580 579 72
3 578 579 580
3 581 252 582
3 583 582 51
3 581 582 583
3 584 252 585
3 587 586 252
3 210 88 2
3 253 88 210
3 253 588 590
3 590 589 88
3 588 589 590
3 133 253 43
3 254 253 133
3 254 591 593
3 593 592 253
3 591 592 593
3 254 594 596
3 594 185 595
3 594 595 596
3 255 185 254
3 255 597 599
3 599 598 185
3 597 598 599
3 187 134 7
3 256 134 187
3 256 59 134
3 136 256 31
3 257 256 136
3 257 59 256
3 257 255 59
3 258 255 257
3 258 600 602
3 602 601 255
3 600 601 602
3 258 603 604
3 606 605 258
3 608 607 60
3 191 139 14
3 259 139 191
3 259 61 139
3 141 259 33
3 260 259 141
3 260 61 259
3 260 609 611
3 611 610 61
3 609 610 611
3 613 612 260
3 143 614 616
3 616 615 62
3 614 615 616
3 618 617 143
3 145 619 621
3 621 620 63
3 619 620 621
3 261 622 624
3 624 623 145
3 622 623 624
3 261 625 626
3 261 627 628
3 262 629 631
3 631 630 261
3 629 630 631
3 262 632 634
3 632 13 633
3 632 633 634
3 195 146 15
3 263 146 195
3 263 64 146
3 148 263 35
3 264 263 148
3 264 64 263
3 264 262 64
3 265 262 264
3 265 13 262
3 265 635 637
3 637 636 13
3 635 636 637
3 266 638 640
3 640 639 265
3 638 639 640
3 266 641 643
3 641 28 642
3 641 642 643
3 150 266 65
3 267 266 150
3 267 28 266
3 267 83 28
3 268 83 267
3 268 3 83
3 220 95 4
3 269 95 220
3 269 36 95
3 153 269 47
3 270 269 153
3 270 36 269
3 270 198 36
3 271 198 270
3 271 16 198
3 200 154 9
3 272 154 200
3 272 67 154
3 156 272 38
3 273 272 156
3 273 67 272
3 273 271 67
3 274 271 273
3 274 16 271
3 274 151 16
3 275 151 274
3 275 66 151
3 158 275 68
3 276 275 158
3 276 66 275
3 276 268 66
3 277 268 276
3 277 3 268
3 277 206 3
3 278 206 277
3 278 644 646
3 646 645 206
3 644 645 646
3 160 278 69
3 647 278 648
3 649 648 160
3 647 648 649
3 651 650 278
3 204 161 17
3 279 161 204
3 279 652 654
3 654 653 161
3 652 653 654
3 162 279 40
3 655 279 656
3 657 656 162
3 655 656 657
3 659 658 279
