ply
format ascii 1.0
element vertex 134
property float x
property float y
property float z
element face 108
property list uchar int vertex_index
end_header
-38.96447 10.508842 -16.933002
-40.106728 -4.218551 -5.78743
-40.819466 -1.484697 -10.242615
-44.575981 -3.137569 -15.998495
-41.454166 1.512341 -14.682423
-38.733177 8.069372 -12.760927
-40.367569 7.402119 -18.015003
-40.3605 8.859388 -20.092018
-41.154228 -0.018843 -12.467945
-39.797962 3.229654 -11.576494
-40.050434 4.573944 -13.747438
-38.525463 6.899702 -10.632519
-41.770092 -6.007836 -8.669552
-42.207539 -4.442558 -10.941385
-40.466557 -2.884411 -8.013256
-38.911293 11.757429 -18.954769
-42.608467 -2.79287 -13.206066
-42.959156 -1.064251 -15.461081
-43.239384 0.73423 -17.704384
-41.695541 3.104153 -16.879688
-40.251736 5.96759 -15.896782
-38.89217 9.274378 -14.864838
-39.05003 4.496829 -10.03452
-39.660198 2.58282 -10.485271
-38.41378 6.331853 -9.562532
-39.161713 5.064678 -11.104506
-39.05003 4.496829 -10.03452
-40.706196 -5.851786 -6.090847
-39.92778 -4.852984 -4.680464
-40.93841 -5.113193 -7.228491
-41.537878 -6.746429 -7.531908
-40.706196 -5.851786 -6.090847
-39.552971 11.033867 -20.535141
-38.804831 12.37591 -19.936571
-45.616478 -2.824365 -17.278726
-45.440567 -3.928929 -16.118216
-44.73478 -2.133757 -17.140863
-45.616478 -2.824365 -17.278726
-41.121702 6.908447 -19.604881
-41.107683 6.073656 -18.534083
-41.118167 7.637082 -20.643389
-41.121702 6.908447 -19.604881
-40.364035 8.130753 -19.053511
-41.052225 8.470333 -21.692558
-41.118167 7.637082 -20.643389
-39.421246 -2.946985 -4.339697
-39.92778 -4.852984 -4.680464
-39.542878 -2.365613 -5.413586
-39.421246 -2.946985 -4.339697
-44.374233 -4.102521 -14.853371
-45.440567 -3.928929 -16.118216
-40.338331 0.958572 -10.930997
-40.986847 -0.75177 -11.35528
-40.17095 0.225645 -9.818332
-40.476095 1.605406 -12.02222
-40.338331 0.958572 -10.930997
-39.660198 2.58282 -10.485271
-42.471243 -7.32452 -8.886305
-41.537878 -6.746429 -7.531908
-42.735365 -6.456679 -10.039876
-42.471243 -7.32452 -8.886305
-41.988816 -5.225197 -9.805468
-42.954088 -5.67404 -11.175793
-42.735365 -6.456679 -10.039876
-39.722792 -1.698543 -6.526499
-40.286642 -3.551481 -6.900343
-39.542878 -2.365613 -5.413586
-39.855616 -1.097215 -7.612217
-39.722792 -1.698543 -6.526499
-40.032071 -0.397358 -8.726897
-40.643012 -2.184554 -9.127935
-39.855616 -1.097215 -7.612217
-40.17095 0.225645 -9.818332
-40.032071 -0.397358 -8.726897
-38.268079 12.865672 -17.442978
-38.937882 11.133135 -17.943886
-38.294668 12.241378 -16.432094
-38.213852 13.386582 -18.433363
-38.268079 12.865672 -17.442978
-38.804831 12.37591 -19.936571
-38.213852 13.386582 -18.433363
-40.277575 9.584846 -21.103766
-39.635897 10.308408 -19.523393
-39.552971 11.033867 -20.535141
-41.052225 8.470333 -21.692558
-40.277575 9.584846 -21.103766
-43.190012 -4.755016 -12.324817
-42.954088 -5.67404 -11.175793
-43.390476 -3.930172 -13.457157
-43.190012 -4.755016 -12.324817
-42.408003 -3.617714 -12.073726
-43.592224 -2.965219 -14.60228
-44.374233 -4.102521 -14.853371
-43.390476 -3.930172 -13.457157
-43.926367 -1.097098 -16.872155
-44.73478 -2.133757 -17.140863
-43.767568 -2.10091 -15.729788
-44.066481 -0.197858 -17.993807
-43.926367 -1.097098 -16.872155
-43.09927 -0.165011 -16.582732
-44.170227 0.835092 -19.134301
-44.066481 -0.197858 -17.993807
-43.330692 1.660872 -18.818849
-44.170227 0.835092 -19.134301
-42.558771 2.845833 -18.406502
-43.330692 1.660872 -18.818849
-42.467462 1.919192 -17.292036
-41.771669 3.924673 -17.966425
-42.558771 2.845833 -18.406502
-41.049767 5.356392 -17.474972
-41.771669 3.924673 -17.966425
-40.973638 4.535872 -16.388235
-40.309652 6.684855 -16.955893
-41.107683 6.073656 -18.534083
-41.049767 5.356392 -17.474972
-37.838085 8.410015 -9.137868
-38.41378 6.331853 -9.562532
-37.926357 8.904688 -10.1892
-37.838085 8.410015 -9.137868
-38.030214 9.489523 -11.253404
-38.62932 7.484537 -11.696723
-37.926357 8.904688 -10.1892
-38.112039 9.991511 -12.299153
-38.030214 9.489523 -11.253404
-38.191536 10.594013 -13.351109
-38.812674 8.671875 -13.812883
-38.112039 9.991511 -12.299153
-38.247909 11.105204 -14.383945
-38.191536 10.594013 -13.351109
-38.284059 11.722437 -15.418026
-38.92832 9.89161 -15.89892
-38.247909 11.105204 -14.383945
-38.294668 12.241378 -16.432094
-38.284059 11.722437 -15.418026
3 0 7 6
3 22 9 23
3 24 11 25
3 26 25 9
3 24 25 26
3 1 27 28
3 1 29 31
3 29 12 30
3 29 30 31
3 1 14 12
3 33 32 15
3 3 34 35
3 3 36 37
3 2 16 13
3 4 17 8
3 4 18 17
3 4 19 18
3 5 20 10
3 5 21 20
3 6 38 39
3 7 40 42
3 42 41 6
3 40 41 42
3 7 43 44
3 45 1 46
3 48 47 1
3 49 3 50
3 51 8 52
3 53 52 2
3 51 52 53
3 9 54 56
3 54 8 55
3 54 55 56
3 9 4 8
3 9 10 4
3 11 10 9
3 11 5 10
3 12 57 58
3 12 59 60
3 12 61 63
3 61 13 62
3 61 62 63
3 14 13 12
3 14 2 13
3 64 14 65
3 66 65 1
3 64 65 66
3 67 14 68
3 69 2 70
3 71 70 14
3 69 70 71
3 73 72 2
3 74 15 75
3 76 75 0
3 74 75 76
3 77 15 78
3 80 79 15
3 15 7 0
3 81 7 82
3 83 82 15
3 81 82 83
3 85 84 7
3 13 86 87
3 16 88 90
3 90 89 13
3 88 89 90
3 16 91 93
3 91 3 92
3 91 92 93
3 8 16 2
3 17 16 8
3 17 3 16
3 17 94 96
3 96 95 3
3 94 95 96
3 18 97 99
3 99 98 17
3 97 98 99
3 18 100 101
3 18 102 103
3 19 104 106
3 106 105 18
3 104 105 106
3 19 107 108
3 10 19 4
3 20 19 10
3 20 109 111
3 111 110 19
3 109 110 111
3 20 112 114
3 112 6 113
3 112 113 114
3 21 6 20
3 21 0 6
3 115 11 116
3 117 11 118
3 119 5 120
3 121 120 11
3 119 120 121
3 122 5 123
3 124 21 125
3 126 125 5
3 124 125 126
3 127 21 128
3 129 0 130
3 131 130 21
3 129 130 131
3 133 132 0
