ply
format ascii 1.0
element vertex 901
property float x
property float y
property float z
element face 1017
property list uchar int vertex_index
end_header
-0.337963 -64.811325 25.460627
5.677126 -83.504761 33.015877
1.605129 -65.431305 43.021854
-1.801088 -41.218307 41.263767
2.908205 -60.620811 8.917184
-0.447538 -73.764175 55.930077
0.458405 -75.656837 46.590927
1.291449 -65.454193 51.818237
2.860577 -74.592484 28.458313
5.815357 -72.919754 19.305347
0.771454 -63.285309 16.900967
3.032101 -84.853073 42.467358
1.290443 -75.620026 37.501953
0.351564 -65.286514 34.206993
2.43351 -55.536182 49.045998
0.710146 -54.153938 41.44487
-1.707335 -53.446995 33.472031
-3.097223 -52.56292 25.354908
-0.035179 -68.698761 57.981522
0.327379 -69.834755 53.652344
0.83881 -65.193024 56.020798
-0.643595 -71.780563 60.601219
1.248892 -69.92408 26.634537
4.21475 -73.775299 23.895916
2.111483 -69.250732 22.185593
3.319933 -68.425476 17.775221
0.05171 -64.183975 21.138783
1.846968 -84.883926 47.040146
1.065456 -70.693649 44.586395
0.874199 -75.793427 42.027157
1.069101 -70.704773 40.058567
0.901463 -70.602036 35.560913
1.105976 -65.343613 38.605598
2.780312 -56.327709 52.910805
-0.258049 -42.499619 44.505756
0.864542 -48.899479 44.773994
-0.563812 -47.978203 41.290283
-0.562733 -53.739021 37.50243
-1.826376 -47.261848 37.56789
-3.112738 -10.650192 43.297478
-2.641584 -19.264673 43.772079
-3.570173 -46.063583 29.821758
6.218931 -66.373032 9.390229
4.319586 -58.736343 5.363585
-0.355623 -79.131393 53.728775
0.292976 -80.204803 48.978897
-0.012421 -75.033745 51.229057
0.780293 -70.456978 49.133568
1.635015 -65.511635 47.439072
-0.795452 -77.240204 58.639442
-1.265234 -35.416206 44.301407
4.366623 -79.048988 30.649662
7.18257 -82.447838 28.067638
6.010986 -78.074486 25.932846
7.786041 -77.110931 21.148092
9.545931 -76.408653 16.37076
7.51008 -72.170807 14.760096
4.721724 -67.500122 13.476692
1.722212 -62.116783 12.799814
-3.437815 -2.045382 42.412971
-4.807924 0.550394 38.467796
4.295427 -84.340294 37.818447
1.054295 -80.548721 44.383926
1.926651 -80.36705 39.848572
2.998631 -79.839142 35.284271
1.892233 -75.220306 32.986343
0.866407 -70.368996 31.091217
-0.234661 -65.1567 29.825073
1.86994 -61.014416 54.442841
2.097246 -60.671848 50.301239
2.057783 -60.28117 46.145302
2.214148 -49.998665 48.076569
1.763109 -54.773075 45.271736
1.539738 -59.928661 41.972672
0.551226 -59.715103 37.770844
-0.571917 -59.607494 33.544205
-1.402563 -59.444904 29.306894
-2.042875 -27.61694 44.070415
-2.740652 -33.742268 41.171402
-2.776777 -46.66972 33.712372
-2.516085 -53.107666 29.413691
-1.776377 -59.05938 25.085653
-1.818979 -58.3587 20.905294
-1.642012 -57.312771 16.778313
0.258905 -66.52095 58.818459
0.371382 -67.027969 56.917458
0.66008 -65.014351 57.917381
0.311926 -65.710007 60.552818
-0.071918 -67.860985 60.013077
0.44276 -67.437096 25.951017
1.625931 -69.612495 24.408205
0.695484 -67.150108 23.751184
1.059992 -66.80217 21.56201
-0.19537 -64.533165 23.291962
1.82214 -86.506676 50.766937
1.288237 -84.644943 49.345551
1.381931 -68.094353 43.744251
1.10146 -70.717773 42.319103
1.308193 -68.080978 41.499123
1.142544 -68.056152 39.259056
1.408503 -65.382401 40.812157
0.301355 -83.527512 54.092072
-1.084064 -41.8358 42.935249
-0.483883 -45.204323 42.990906
-1.211306 -44.682259 41.275887
-1.230803 -47.597294 39.454338
-1.850447 -44.210556 39.484344
-3.597582 -13.724793 41.934216
6.233511 -85.778282 34.251381
7.173073 -87.617065 32.937969
6.858175 -85.277519 31.72691
4.566645 -63.583813 9.083595
3.589193 -59.727955 7.092041
-0.495281 -76.451599 54.824471
-0.254919 -77.149574 52.430618
-0.245008 -74.486282 53.576134
0.805676 -67.699623 52.687187
0.561226 -70.202545 51.403053
1.038504 -67.901352 50.473732
1.231676 -68.023926 48.23716
1.495039 -65.507622 49.637848
-0.590996 -72.862015 58.276138
-0.800825 -74.483597 59.660507
-0.685619 -75.560997 57.239525
-0.610804 -78.286636 56.169052
-0.290754 -36.306381 45.675285
-0.712286 -32.585197 45.549526
3.632927 -76.832939 29.524067
5.16156 -78.57592 28.30155
4.369364 -76.397163 27.216486
4.995184 -73.340508 21.601402
6.025917 -75.466576 22.555475
6.901375 -75.029121 20.209646
8.673855 -76.716248 18.750525
7.783739 -74.644501 17.867266
8.661585 -74.321655 15.545259
6.657803 -72.529419 17.019527
2.033276 -65.952461 17.241131
4.003477 -67.977356 15.606018
2.606108 -65.457458 15.125646
3.223114 -64.908615 13.05318
1.218895 -62.737129 14.829077
0.300014 -77.991043 47.739632
0.662037 -80.45639 46.667099
0.592733 -78.168823 45.440865
1.072758 -75.737335 39.761925
1.208994 -78.163231 40.897305
1.555893 -78.026382 38.634735
2.430239 -80.139229 37.573631
1.954155 -77.820358 36.369644
2.424517 -77.551155 34.098076
1.554489 -75.447769 35.244267
0.6688 -67.984299 34.800285
0.845942 -70.507019 33.323357
0.457764 -67.920105 32.581299
0.329735 -67.816513 30.36734
0.011366 -65.240448 32.014336
1.722212 -61.19183 56.479729
2.305613 -59.018826 55.716843
2.640295 -55.933388 50.957695
2.374331 -58.441238 51.647064
2.335947 -58.148857 49.639862
2.126289 -60.479797 48.224014
2.220098 -57.852695 47.646271
0.754642 -51.482346 43.180992
1.368303 -51.890877 44.983131
1.280935 -54.438755 43.371338
1.665802 -57.303024 43.659531
1.209507 -57.081276 41.649094
1.089912 -59.80262 39.875385
0.654497 -56.907532 39.62159
-1.171545 -53.587521 35.4944
-0.570852 -56.682137 35.518272
-1.132753 -56.596161 33.449081
-1.042896 -59.544888 31.425478
-1.604338 -56.496796 31.374498
-3.100363 -22.370827 42.401672
-2.359831 -23.493073 43.933517
-2.809114 -26.573921 42.563805
-2.475637 -30.646301 42.694221
-3.102934 -29.737568 41.073292
-2.847666 -43.390694 35.752083
-3.255217 -43.018089 33.852608
-3.399645 -49.38266 27.61327
-3.043707 -49.676773 29.603598
-2.821379 -52.868732 27.385078
-2.242239 -56.169052 27.227833
-2.441889 -55.907043 25.161243
-1.827829 -58.751198 22.98954
-2.594572 -55.56493 23.09882
-0.279243 -71.150368 56.999634
-0.101431 -71.855667 54.731346
0.114481 -69.340355 55.856018
0.569815 -67.410713 54.850655
1.060658 -65.346802 53.959564
-0.356688 -69.198105 61.399376
-0.376846 -70.268921 59.223053
2.060974 -72.299393 27.4827
3.495916 -74.20034 26.182232
2.570362 -71.95089 25.232277
3.177452 -71.561989 22.978251
3.860821 -71.150742 20.724167
4.59869 -70.734322 18.477625
2.683474 -68.851318 19.971926
1.51298 -66.400902 19.389507
0.379774 -63.767197 19.006512
0.732916 -73.21907 45.537964
0.673428 -75.773766 44.301781
0.864132 -73.285675 43.257751
0.954575 -73.286148 40.98719
1.020634 -73.236931 38.724838
1.09037 -73.146042 36.469513
0.990427 -70.665665 37.805733
0.914427 -68.025436 37.025925
0.735804 -65.315048 36.403809
-0.382429 -81.506485 59.058884
2.862955 -56.721291 54.916389
3.107674 -53.812035 52.166939
2.784832 -53.317913 50.317627
0.646948 -43.203247 45.981155
1.124189 -46.392914 46.182236
0.305708 -45.776592 44.622566
0.145985 -48.412209 43.063721
0.097054 -51.127342 41.335686
0.080685 -53.922729 39.487957
-0.569462 -50.82716 39.444046
-1.204348 -50.573975 37.511948
-1.773535 -50.352478 35.550812
-2.892809 -14.971167 43.568893
-3.36133 -18.074545 42.197952
0.046009 -81.731659 52.678177
0.449955 -82.280449 50.30085
-0.049398 -79.768806 51.330948
0.014959 -77.658379 50.068115
0.227282 -75.417923 48.899391
0.118193 -72.400536 52.43512
0.346571 -72.798218 50.130013
0.557554 -73.064301 47.829025
0.955332 -70.613937 46.858925
1.353655 -68.081833 45.991615
1.679028 -65.480057 45.231987
-0.577085 -79.977768 57.589897
-0.302155 -80.963486 55.109756
0.166708 -39.845123 45.816383
-0.788853 -39.049698 44.40345
-1.62179 -38.289391 42.875179
5.051495 -81.266029 31.815998
6.417688 -82.995758 30.55706
5.849586 -80.767258 29.417103
6.687803 -80.236717 26.992928
5.174555 -75.932617 24.893108
6.892941 -77.574409 23.546156
8.409924 -79.209854 22.093418
8.361666 -71.825272 12.54561
5.373304 -70.322235 16.250191
6.171488 -69.910477 14.056471
6.981686 -69.47876 11.912421
5.464357 -66.974915 11.400454
3.878906 -64.290794 11.035105
2.284781 -61.414753 10.824647
-3.296556 -6.33359 42.924198
-4.133055 -0.693779 40.491539
5.614471 -86.212662 36.728249
4.969105 -83.956734 35.437492
0.895855 -82.620956 47.972538
1.374441 -82.775406 45.679703
1.881891 -82.772797 43.404556
0.893076 -78.217651 43.163269
1.472715 -80.510193 42.115391
2.420465 -82.643158 41.129501
2.997723 -82.412209 38.840321
3.623901 -82.098465 36.527596
4.307615 -81.713531 34.186558
3.643108 -79.473701 32.976921
2.98237 -77.220879 31.817116
2.324539 -74.935066 30.725403
1.198858 -73.012947 34.219902
1.381027 -72.831467 31.974072
1.663914 -72.594543 29.729303
0.995306 -70.176743 28.862186
0.319569 -67.658607 28.157169
-0.354374 -65.017578 27.6397
1.157568 -63.213203 57.20192
1.349958 -63.178585 55.217743
1.551622 -63.154194 53.144279
2.358658 -58.72739 53.673622
2.002071 -60.848633 52.376785
1.737194 -63.108349 51.026649
1.873943 -63.031616 48.888535
1.926817 -62.929344 46.740578
1.865068 -62.816128 44.586891
2.806231 -50.582161 49.737244
2.388102 -52.82423 48.524216
1.561493 -49.432636 46.435303
1.915789 -52.343212 46.756168
2.145647 -55.144405 47.157455
2.002384 -57.565151 45.656197
1.865965 -60.0919 44.062344
1.670429 -62.709644 42.429367
1.344601 -62.62421 40.269661
0.913118 -62.565651 38.109352
0.423016 -62.528881 35.949425
0.042803 -56.778934 37.577137
-0.022881 -59.656349 35.66
-0.066032 -62.498783 33.790054
-0.494862 -62.453979 31.631279
-0.818026 -62.371841 29.473999
-1.012476 -62.233047 27.320698
-1.758959 -20.497721 45.208038
-1.442705 -24.652151 45.323311
-1.095186 -28.692535 45.433952
-1.681429 -31.600367 44.191689
-2.08436 -34.557739 42.797035
-2.311193 -37.572567 41.233017
-2.863733 -36.90448 39.498852
-2.397287 -40.649281 39.505714
-2.391459 -43.783535 37.635433
-2.338148 -46.958347 35.648415
-2.261221 -50.142929 33.573341
-3.173906 -46.377548 31.769855
-2.67544 -49.924328 31.589493
-2.153051 -53.294292 31.443256
-1.971064 -56.360851 29.299465
-1.642664 -59.287769 27.192345
-1.078772 -62.024227 25.17527
-1.034723 -61.738415 23.04216
-0.904591 -61.373531 20.925377
-0.708143 -60.929752 18.828396
-1.759336 -57.879616 18.833906
-0.453653 -60.407097 16.755156
-0.136921 -59.804134 14.711788
0.254677 -59.118122 12.708153
0.73568 -58.346729 10.758186
1.31666 -57.490803 8.878752
2.00112 -56.557301 7.087353
2.785641 -55.56168 5.399714
3.662315 -54.529205 3.828325
4.62154 -53.495483 2.382312
5.652967 -52.507545 1.068084
7.488762 -84.726822 29.165119
0.609789 -64.934952 58.667915
0.459492 -65.767651 58.36792
0.409201 -65.688252 59.118454
0.409201 -65.688252 59.118454
0.285415 -66.115478 59.685638
0.435712 -65.28278 59.985634
1.027723 -84.421779 50.518506
1.555189 -85.575809 50.056244
1.294674 -85.352646 51.229198
0.767483 -84.731911 53.609818
0.534281 -83.863064 52.891766
1.294674 -85.352646 51.229198
1.527876 -86.221493 51.94725
4.091711 -61.693967 8.064069
4.920931 -63.175469 8.147274
3.737425 -62.102312 9.00039
3.248699 -60.174383 8.004613
4.432205 -61.24754 7.151497
4.091711 -61.693967 8.064069
-0.347969 -31.184193 46.103632
-0.154722 -33.085751 46.164122
0.209595 -31.684747 46.718227
3.702805 -85.843731 41.995548
3.385933 -85.921047 43.159609
3.34206 -84.748741 41.313467
3.702805 -85.843731 41.995548
2.598088 -58.073458 56.346046
2.264028 -59.18112 56.740818
-3.113187 -26.077557 41.749584
-2.954739 -24.472374 42.482738
-3.258812 -23.976011 41.668518
-3.260097 -27.659381 41.004328
-2.956024 -28.155744 41.818549
-3.113187 -26.077557 41.749584
-3.483107 -41.101887 33.908522
-3.280117 -41.330048 34.843323
-0.155458 -67.991669 61.690594
-0.275257 -68.571857 62.470886
2.47147 -85.945183 46.596515
2.148967 -85.869797 47.744823
2.138712 -84.913364 45.897409
2.47147 -85.945183 46.596515
-0.047123 -82.802868 58.539662
-0.23572 -82.066834 57.80492
3.215838 -52.490606 51.813396
3.430308 -52.781231 52.724201
3.054417 -52.243545 50.88874
2.946253 -53.564974 51.242283
3.215838 -52.490606 51.813396
-3.002773 -12.810679 43.433186
-2.595242 -13.485797 44.226452
-2.705206 -11.325309 44.090744
-3.66317 -17.512353 41.353946
-3.479456 -15.899669 42.066084
-3.781296 -15.337477 41.222078
-3.531161 -19.690206 41.474838
-3.66317 -17.512353 41.353946
7.38277 -88.55981 32.214869
7.394787 -87.348896 31.619658
7.396441 -67.389332 8.611171
7.004178 -67.682518 9.611785
5.50649 -59.74426 4.556717
5.154528 -60.280766 5.396344
4.704249 -58.196371 4.554439
5.50649 -59.74426 4.556717
-0.729316 -72.507225 61.336178
-0.610473 -71.155426 61.749924
-0.841441 -76.624031 59.880211
-0.844128 -75.245728 60.390743
-0.798139 -75.861901 59.149974
-0.777227 -78.014252 59.370873
-0.841441 -76.624031 59.880211
-0.686268 -78.608986 58.11467
-0.668043 -79.383034 58.8461
-0.777227 -78.014252 59.370873
0.484136 -38.530756 46.376909
0.684953 -40.255266 46.477897
1.002381 -38.940899 47.038424
6.779193 -78.889599 25.240824
7.117601 -79.970714 25.770865
6.349394 -79.155601 26.462887
8.523665 -77.951194 20.393995
8.835606 -79.000656 20.866658
8.097983 -78.160393 21.620755
9.819308 -77.443314 16.788445
9.383271 -77.597111 17.978327
9.109893 -76.56245 17.560643
10.221891 -77.34177 15.592256
9.819308 -77.443314 16.788445
9.970402 -76.295715 15.200403
10.221891 -77.34177 15.592256
8.518085 -73.108871 14.012038
9.093838 -74.184296 14.40462
8.085833 -73.246231 15.152677
7.935873 -71.99804 13.652853
8.943879 -72.936104 12.904795
8.518085 -73.108871 14.012038
-3.367185 -4.189486 42.668584
-2.984796 -4.904286 43.571169
-3.055426 -2.760182 43.315556
-3.713528 -3.526348 41.763267
-3.642898 -5.670452 42.018881
-3.367185 -4.189486 42.668584
-4.470489 -0.071692 39.479668
-4.183163 1.43651 40.090843
-4.520598 2.058597 39.078972
-4.724836 -1.613631 38.832874
-4.387401 -2.235717 39.844746
-4.470489 -0.071692 39.479668
-5.057657 -1.058064 37.828299
-4.724836 -1.613631 38.832874
4.954949 -85.276478 37.273348
5.305581 -86.390888 37.940155
4.646059 -85.454704 38.485254
1.362888 -62.321208 57.829476
1.071223 -63.273678 58.113167
2.51019 -50.290413 48.906906
2.760263 -49.14649 49.481194
2.464221 -48.854742 48.650856
-2.200271 -19.881197 44.490059
-1.902014 -18.382786 45.139328
-2.343326 -17.766262 44.421349
-2.874714 -38.515337 38.592917
-3.089742 -36.595331 38.601198
-3.100723 -38.206188 37.695263
-2.641491 -40.387738 38.596348
-2.63051 -38.776881 39.502283
-2.874714 -38.515337 38.592917
-2.638577 -41.954864 37.661207
-2.394373 -42.216408 38.570573
-2.641491 -40.387738 38.596348
-3.37204 -46.220565 30.795806
-3.418308 -44.513609 31.857363
-3.616442 -44.356627 30.883315
-1.700674 -57.596193 17.806109
-2.27315 -56.248452 18.906486
-2.214488 -55.965029 17.87869
-0.445652 -57.517832 12.728966
-0.595919 -57.888088 13.72702
-0.20515 -57.132136 11.753982
0.495178 -58.732426 11.733169
-0.445652 -57.517832 12.728966
0.589444 -55.850769 8.910346
0.300629 -56.294161 9.843502
0.931674 -55.384018 8.014647
1.65889 -57.024052 7.983053
0.589444 -55.850769 8.910346
2.130869 -53.945099 5.453465
1.689612 -54.419834 6.284903
2.569206 -53.428861 4.66777
3.223978 -55.045443 4.61402
2.130869 -53.945099 5.453465
4.139123 -52.01477 2.458086
3.561289 -52.447403 3.171834
4.654837 -51.520802 1.800972
5.137253 -53.001514 1.725198
4.139123 -52.01477 2.458086
0.120004 -66.785496 60.282948
-0.013073 -67.323109 60.997445
0.178848 -66.24762 61.267315
2.136553 -86.681172 49.608219
2.4923 -87.58551 50.3246
1.869602 -85.750305 48.897526
2.136553 -86.681172 49.608219
1.555189 -85.575809 50.056244
1.567603 -84.764434 48.192848
2.148967 -85.869797 47.744823
1.869602 -85.750305 48.897526
0.507146 -84.330345 54.818573
0.106172 -83.077347 55.321514
0.507146 -84.330345 54.818573
0.767483 -84.731911 53.609818
2.150859 -87.342365 51.486782
1.527876 -86.221493 51.94725
2.4923 -87.58551 50.3246
2.150859 -87.342365 51.486782
-3.703049 -11.541749 41.758881
-3.35516 -12.187493 42.615847
-3.460627 -10.004449 42.440512
-3.905054 -13.139253 41.061774
-3.703049 -11.541749 41.758881
-3.781296 -15.337477 41.222078
-3.905054 -13.139253 41.061774
6.703292 -86.697674 33.594675
6.943684 -87.852706 34.233162
6.473904 -86.933315 34.889868
7.237338 -86.179123 31.014128
7.394787 -87.348896 31.619658
7.015624 -86.447292 32.332439
5.76733 -64.62253 8.270636
6.593473 -66.017139 8.423953
5.392788 -64.978422 9.236912
5.76733 -64.62253 8.270636
4.920931 -63.175469 8.147274
4.789332 -60.776572 6.260573
4.432205 -61.24754 7.151497
3.95439 -59.232149 6.227813
5.154528 -60.280766 5.396344
4.789332 -60.776572 6.260573
0.056044 -34.946343 46.227001
0.255405 -36.761385 46.30636
0.602204 -35.401347 46.858076
-0.50152 -34.445789 45.612406
0.056044 -34.946343 46.227001
-0.154722 -33.085751 46.164122
-3.109169 -0.651704 43.037537
-3.055426 -2.760182 43.315556
-4.869194 2.684286 38.00914
-4.520598 2.058597 39.078972
-5.156254 1.107897 37.408741
-4.869194 2.684286 38.00914
3.973724 -84.492351 38.989012
4.646059 -85.454704 38.485254
1.972328 -60.267622 57.122261
1.645211 -61.310522 57.46838
2.013912 -60.105328 56.098286
1.972328 -60.267622 57.122261
2.264028 -59.18112 56.740818
2.07593 -48.520454 47.888745
2.464221 -48.854742 48.650856
-3.076341 -41.51635 35.79306
-2.866681 -41.758444 36.719532
-3.095356 -39.8841 36.760509
-3.051442 -43.204391 34.802346
-3.076341 -41.51635 35.79306
-3.280117 -41.330048 34.843323
-2.217089 -55.65988 16.85154
-2.214488 -55.965029 17.87869
-1.544264 -56.985412 15.7621
-2.217089 -55.65988 16.85154
7.652525 -83.300572 27.323776
7.571012 -82.169014 26.81228
-0.467019 -69.864197 62.149002
-0.275257 -68.571857 62.470886
-0.500142 -70.489334 61.000298
-0.610473 -71.155426 61.749924
-0.467019 -69.864197 62.149002
-0.214303 -68.529545 60.706226
-0.155458 -67.991669 61.690594
-0.013073 -67.323109 60.997445
2.731279 -84.897937 43.611015
3.385933 -85.921047 43.159609
-0.198573 -82.177585 59.799602
-0.47031 -80.845802 60.326943
-0.198573 -82.177585 59.799602
-0.047123 -82.802868 58.539662
3.192989 -55.756237 55.517055
2.876759 -56.92469 55.945819
3.109256 -55.511521 54.506279
3.192989 -55.756237 55.517055
3.067935 -55.314729 53.503487
2.821633 -56.5245 53.913597
3.109256 -55.511521 54.506279
3.231616 -54.056893 53.131554
3.430308 -52.781231 52.724201
2.943993 -55.069872 52.538872
3.067935 -55.314729 53.503487
3.231616 -54.056893 53.131554
0.885568 -44.79808 46.081696
1.357294 -45.164825 46.786738
1.118673 -43.569992 46.686197
-2.468939 -15.619509 44.319755
-2.595242 -13.485797 44.226452
-2.767196 -17.11792 43.670486
-2.343326 -17.766262 44.421349
-2.468939 -15.619509 44.319755
-3.400677 -21.838347 41.576698
-3.230847 -20.222686 42.299812
-3.531161 -19.690206 41.474838
-3.258812 -23.976011 41.668518
-3.400677 -21.838347 41.576698
-3.841723 -44.165981 29.923203
-3.616442 -44.356627 30.883315
-3.783756 -45.887116 28.840986
-3.841723 -44.165981 29.923203
-3.698492 -47.546654 27.736742
-3.484909 -47.723122 28.717514
-3.783756 -45.887116 28.840986
-3.582758 -49.204851 26.611993
-3.698492 -47.546654 27.736742
-3.431547 -50.794981 25.482812
-3.248434 -50.97279 26.484089
-3.582758 -49.204851 26.611993
-3.228464 -52.371035 24.336335
-3.431547 -50.794981 25.482812
7.274763 -88.810817 33.568607
6.943684 -87.852706 34.233162
7.484459 -89.753563 32.845507
7.274763 -88.810817 33.568607
7.38277 -88.55981 32.214869
7.396441 -67.389332 8.611171
6.593473 -66.017139 8.423953
0.247982 -82.006054 51.489514
0.608581 -83.239532 50.996155
0.406608 -82.965137 52.184818
-0.807931 -73.858742 60.865822
-0.729316 -72.507225 61.336178
-0.72221 -73.13208 60.130863
-0.807931 -73.858742 60.865822
-0.844128 -75.245728 60.390743
-0.570715 -80.147392 59.580593
-0.47031 -80.845802 60.326943
-0.479757 -80.742126 58.32439
-0.570715 -80.147392 59.580593
-0.668043 -79.383034 58.8461
-0.333047 -81.302475 57.070427
-0.23572 -82.066834 57.80492
-0.479757 -80.742126 58.32439
-0.195582 -81.795334 55.830356
-0.333047 -81.302475 57.070427
-0.43962 -80.470627 56.349826
-4e-04 -82.245499 54.600914
0.106172 -83.077347 55.321514
-0.195582 -81.795334 55.830356
0.406608 -82.965137 52.184818
0.534281 -83.863064 52.891766
0.173682 -82.629585 53.385125
0.925072 -41.934328 46.560283
1.118673 -43.569992 46.686197
0.406828 -41.524185 45.898769
0.925072 -41.934328 46.560283
0.684953 -40.255266 46.477897
-0.062023 -38.075752 45.745834
0.484136 -38.530756 46.376909
0.255405 -36.761385 46.30636
7.323628 -81.063454 26.274926
7.571012 -82.169014 26.81228
6.935187 -81.342277 27.530283
7.323628 -81.063454 26.274926
7.117601 -79.970714 25.770865
7.220171 -78.639561 24.047479
6.779193 -78.889599 25.240824
6.451963 -77.824447 24.739501
7.978662 -79.457283 23.321109
7.220171 -78.639561 24.047479
7.651433 -78.392132 22.819787
8.572941 -80.286392 22.565306
7.978662 -79.457283 23.321109
8.95644 -80.060383 21.308792
8.572941 -80.286392 22.565306
8.95644 -80.060383 21.308792
8.835606 -79.000656 20.866658
8.967572 -77.753853 19.195211
8.523665 -77.951194 20.393995
8.229948 -76.91359 19.949309
8.967572 -77.753853 19.195211
9.383271 -77.597111 17.978327
9.528229 -75.252216 14.787653
9.970402 -76.295715 15.200403
9.103758 -75.365154 15.958009
9.528229 -75.252216 14.787653
9.093838 -74.184296 14.40462
9.363616 -72.803543 11.794912
9.945828 -73.914376 12.154097
8.943879 -72.936104 12.904795
8.780266 -71.639725 11.46997
9.363616 -72.803543 11.794912
8.090276 -70.466469 11.153375
8.780266 -71.639725 11.46997
7.671676 -70.652016 12.229015
7.385555 -69.235382 10.872881
8.090276 -70.466469 11.153375
6.626891 -67.983459 10.616898
7.385555 -69.235382 10.872881
6.223021 -68.226837 11.656437
5.841644 -66.673973 10.395342
7.004178 -67.682518 9.611785
6.626891 -67.983459 10.616898
-2.811247 -9.189068 43.955215
-2.705206 -11.325309 44.090744
-2.903156 -7.030767 43.768575
-2.984796 -4.904286 43.571169
-3.204647 -8.491891 43.110838
-2.811247 -9.189068 43.955215
-2.903156 -7.030767 43.768575
-3.552536 -7.846148 42.253872
-3.460627 -10.004449 42.440512
-3.204647 -8.491891 43.110838
-3.552536 -7.846148 42.253872
-3.642898 -5.670452 42.018881
-3.484215 0.076454 42.07208
-3.109169 -0.651704 43.037537
-3.831835 0.752255 41.111365
-4.183163 1.43651 40.090843
-3.785435 -1.369581 41.452255
-3.484215 0.076454 42.07208
-3.831835 0.752255 41.111365
-4.061148 -2.850547 40.802551
-3.713528 -3.526348 41.763267
-3.785435 -1.369581 41.452255
-4.061148 -2.850547 40.802551
-4.387401 -2.235717 39.844746
-5.057657 -1.058064 37.828299
-5.156254 1.107897 37.408741
5.921962 -87.346027 37.393627
5.305581 -86.390888 37.940155
6.164383 -87.150505 36.128302
5.921962 -87.346027 37.393627
5.923991 -85.995472 35.489815
6.473904 -86.933315 34.889868
6.164383 -87.150505 36.128302
0.869096 -83.462696 49.8232
1.027723 -84.421779 50.518506
0.608581 -83.239532 50.996155
1.902448 -83.859104 45.217188
2.138712 -84.913364 45.897409
1.610704 -83.829666 46.359925
2.156173 -83.857799 44.079614
1.902448 -83.859104 45.217188
1.628166 -82.774102 44.54213
2.456996 -83.812935 42.935957
2.731279 -84.897937 43.611015
2.156173 -83.857799 44.079614
3.036243 -83.643783 40.644538
3.34206 -84.748741 41.313467
2.726283 -83.748115 41.798429
3.324871 -83.528309 39.499949
3.036243 -83.643783 40.644538
2.709094 -82.527683 39.984911
3.646575 -83.376251 38.329384
3.973724 -84.492351 38.989012
3.324871 -83.528309 39.499949
0.438337 -65.126106 61.40844
0.178848 -66.24762 61.267315
0.553123 -64.7356 60.608326
0.438337 -65.126106 61.40844
0.435712 -65.28278 59.985634
0.553123 -64.7356 60.608326
0.82248 -64.174251 58.470897
0.609789 -64.934952 58.667915
0.908824 -64.113777 57.559651
0.82248 -64.174251 58.470897
1.071223 -63.273678 58.113167
1.43989 -62.202517 56.840824
1.362888 -62.321208 57.829476
1.645211 -61.310522 57.46838
2.584284 -57.870058 55.316616
2.598088 -58.073458 56.346046
2.876759 -56.92469 55.945819
3.114771 -49.483505 50.27285
2.760263 -49.14649 49.481194
3.065116 -50.87567 50.598549
3.114771 -49.483505 50.27285
2.795532 -51.950037 50.027435
3.054417 -52.243545 50.88874
3.065116 -50.87567 50.598549
1.530951 -46.717579 46.941578
1.357294 -45.164825 46.786738
1.749602 -48.23744 47.068112
1.530951 -46.717579 46.941578
1.342841 -47.912775 46.308769
1.88782 -49.715651 47.255936
2.07593 -48.520454 47.888745
1.749602 -48.23744 47.068112
-1.397686 -19.043101 45.818171
-1.902014 -18.382786 45.139328
-1.232633 -21.123945 45.852882
-1.397686 -19.043101 45.818171
-1.074505 -23.201159 45.910518
-1.232633 -21.123945 45.852882
-1.600832 -22.574936 45.265675
-0.89839 -25.239815 45.945568
-1.074505 -23.201159 45.910518
-0.724631 -27.260008 46.000889
-0.89839 -25.239815 45.945568
-1.268946 -26.672343 45.378631
-0.539419 -29.237862 46.045845
-0.724631 -27.260008 46.000889
-0.903736 -30.638866 45.491739
-0.347969 -31.184193 46.103632
-0.539419 -29.237862 46.045845
-3.355366 -29.311863 40.216875
-3.260097 -27.659381 41.004328
-3.181738 -31.358052 40.262883
-3.355366 -29.311863 40.216875
-3.000597 -33.360402 40.311937
-2.921793 -31.739918 41.122347
-3.181738 -31.358052 40.262883
-3.062137 -34.941508 39.475662
-3.288147 -34.632358 38.578009
-3.089742 -36.595331 38.601198
-2.802192 -35.323374 40.335127
-3.000597 -33.360402 40.311937
-3.062137 -34.941508 39.475662
-2.619562 -43.587114 36.693758
-2.638577 -41.954864 37.661207
-2.866681 -41.758444 36.719532
-3.458964 -42.83388 32.89874
-3.483107 -41.101887 33.908522
-3.214562 -44.697818 32.811231
-3.458964 -42.83388 32.89874
-3.418308 -44.513609 31.857363
-2.977138 -53.87204 23.208291
-2.845897 -54.063925 24.226864
-3.228464 -52.371035 24.336335
-2.653389 -55.350601 22.068594
-2.977138 -53.87204 23.208291
-2.265592 -56.747486 20.971831
-2.206776 -56.961815 22.002057
-2.653389 -55.350601 22.068594
-2.235771 -56.507944 19.936137
-2.27315 -56.248452 18.906486
-1.789157 -58.119158 19.8696
-2.265592 -56.747486 20.971831
-2.235771 -56.507944 19.936137
-0.791718 -58.231094 14.728838
-0.889467 -58.558453 15.745051
-1.544264 -56.985412 15.7621
0.058878 -59.461128 13.709971
-0.791718 -58.231094 14.728838
-0.595919 -57.888088 13.72702
0.01014 -56.722124 10.783219
-0.20515 -57.132136 11.753982
1.02617 -57.918766 9.818469
0.01014 -56.722124 10.783219
0.300629 -56.294161 9.843502
1.297352 -54.917645 7.128722
0.931674 -55.384018 8.014647
2.393381 -56.059491 6.243533
1.297352 -54.917645 7.128722
1.689612 -54.419834 6.284903
3.937276 -56.60904 4.572504
4.704249 -58.196371 4.554439
3.552614 -57.149012 5.381649
4.375613 -56.092802 3.786809
3.937276 -56.60904 4.572504
3.223978 -55.045443 4.61402
4.775012 -55.519893 3.03928
4.375613 -56.092802 3.786809
3.081676 -52.964264 3.89484
2.569206 -53.428861 4.66777
4.141928 -54.012344 3.105319
3.081676 -52.964264 3.89484
3.561289 -52.447403 3.171834
5.254625 -55.003033 2.316274
4.775012 -55.519893 3.03928
4.141928 -54.012344 3.105319
5.665188 -54.41489 1.637458
5.254625 -55.003033 2.316274
6.180902 -53.920921 0.980344
5.665188 -54.41489 1.637458
5.137253 -53.001514 1.725198
6.598231 -53.342371 0.37934
6.180902 -53.920921 0.980344
5.291801 -51.145305 1.143527
4.654837 -51.520802 1.800972
6.198465 -52.068281 0.478488
5.291801 -51.145305 1.143527
6.598231 -53.342371 0.37934
6.198465 -52.068281 0.478488
7.552632 -85.903774 29.733232
7.237338 -86.179123 31.014128
7.173469 -85.002171 30.446015
7.805621 -84.440064 27.872516
7.335666 -83.58733 28.616378
7.652525 -83.300572 27.323776
7.771185 -85.615555 28.401027
7.805621 -84.440064 27.872516
8.088044 -85.328797 27.108425
7.552632 -85.903774 29.733232
7.771185 -85.615555 28.401027
3 340 86 341
3 342 341 84
3 340 341 342
3 343 84 344
3 345 344 87
3 343 344 345
3 0 91 89
3 0 93 91
3 346 95 347
3 348 347 94
3 346 347 348
3 2 98 96
3 2 100 98
3 350 349 101
3 351 94 352
3 3 104 102
3 3 106 104
3 1 110 108
3 4 353 355
3 355 354 111
3 353 354 355
3 4 356 358
3 356 112 357
3 356 357 358
3 5 115 113
3 7 118 116
3 7 120 118
3 5 123 121
3 5 113 123
3 359 126 360
3 359 360 361
3 8 129 127
3 9 132 130
3 9 134 132
3 9 136 134
3 10 139 137
3 10 141 139
3 11 362 363
3 11 364 365
3 6 144 142
3 12 147 145
3 12 149 147
3 12 151 149
3 13 154 152
3 13 156 154
3 366 158 367
3 14 161 159
3 14 163 161
3 15 166 164
3 15 168 166
3 15 170 168
3 16 173 171
3 16 175 173
3 368 178 369
3 370 369 176
3 368 369 370
3 371 180 372
3 373 372 178
3 371 372 373
3 374 182 375
3 17 185 183
3 17 187 185
3 17 189 187
3 18 192 190
3 20 193 85
3 20 194 193
3 376 195 377
3 18 196 88
3 18 190 196
3 22 199 197
3 24 200 90
3 24 201 200
3 24 203 201
3 26 204 92
3 26 205 204
3 27 378 379
3 27 380 381
3 28 208 206
3 30 209 97
3 30 210 209
3 30 212 210
3 32 213 99
3 32 214 213
3 383 382 215
3 384 217 385
3 386 218 387
3 388 387 217
3 386 387 388
3 34 221 219
3 36 222 103
3 36 223 222
3 36 225 223
3 38 226 105
3 38 227 226
3 39 389 391
3 389 228 390
3 389 390 391
3 392 229 393
3 394 393 107
3 392 393 394
3 396 395 229
3 398 397 109
3 42 399 400
3 43 401 402
3 43 403 404
3 44 232 230
3 46 233 114
3 46 234 233
3 19 235 191
3 47 236 117
3 47 237 236
3 47 238 237
3 48 239 119
3 48 240 239
3 21 405 406
3 49 407 409
3 409 408 122
3 407 408 409
3 49 410 411
3 49 412 414
3 412 241 413
3 412 413 414
3 44 242 124
3 44 230 242
3 415 243 416
3 415 416 417
3 50 244 125
3 50 245 244
3 51 248 246
3 53 249 128
3 53 418 420
3 420 419 249
3 418 419 420
3 23 250 198
3 54 251 131
3 54 252 251
3 54 421 423
3 423 422 252
3 421 422 423
3 55 424 426
3 426 425 133
3 424 425 426
3 55 427 428
3 55 429 430
3 56 431 433
3 433 432 135
3 431 432 433
3 56 434 436
3 434 253 435
3 434 435 436
3 25 254 202
3 57 255 138
3 57 256 255
3 57 257 256
3 58 258 140
3 58 259 258
3 59 437 439
3 437 260 438
3 437 438 439
3 59 440 442
3 442 441 260
3 440 441 442
3 60 443 445
3 443 261 444
3 443 444 445
3 60 446 448
3 448 447 261
3 446 447 448
3 60 449 450
3 61 451 453
3 451 262 452
3 451 452 453
3 61 263 262
3 45 264 231
3 62 265 143
3 62 266 265
3 29 267 207
3 63 268 146
3 63 269 268
3 63 270 269
3 64 271 148
3 64 272 271
3 64 273 272
3 65 274 150
3 65 275 274
3 31 276 211
3 66 277 153
3 66 278 277
3 66 279 278
3 67 280 155
3 67 281 280
3 454 282 455
3 68 283 157
3 68 284 283
3 33 285 216
3 69 286 160
3 69 287 286
3 69 288 287
3 70 289 162
3 70 290 289
3 71 456 458
3 456 291 457
3 456 457 458
3 71 292 291
3 35 293 220
3 72 294 165
3 72 295 294
3 72 296 295
3 73 297 167
3 73 298 297
3 73 299 298
3 74 300 169
3 74 301 300
3 37 302 224
3 75 303 172
3 75 304 303
3 75 305 304
3 76 306 174
3 76 307 306
3 40 459 461
3 459 308 460
3 459 460 461
3 77 309 177
3 77 310 309
3 77 311 310
3 78 312 179
3 78 313 312
3 462 314 463
3 462 463 464
3 465 315 466
3 467 466 314
3 465 466 467
3 468 316 469
3 470 469 315
3 468 469 470
3 79 317 181
3 79 318 317
3 41 471 473
3 471 319 472
3 471 472 473
3 80 320 184
3 80 321 320
3 80 322 321
3 81 323 186
3 81 324 323
3 81 325 324
3 82 326 188
3 82 327 326
3 83 474 476
3 474 328 475
3 474 475 476
3 83 329 328
3 83 330 329
3 477 331 478
3 479 332 480
3 481 480 331
3 479 480 481
3 482 333 483
3 484 334 485
3 486 485 333
3 484 485 486
3 487 335 488
3 489 336 490
3 491 490 335
3 489 490 491
3 492 337 493
3 494 338 495
3 496 495 337
3 494 495 496
3 52 339 247
3 84 85 18
3 86 85 84
3 86 20 85
3 87 497 499
3 497 88 498
3 497 498 499
3 84 88 87
3 84 18 88
3 89 90 22
3 91 90 89
3 91 24 90
3 91 92 24
3 93 92 91
3 93 26 92
3 94 500 501
3 95 502 504
3 504 503 94
3 502 503 504
3 95 505 507
3 505 27 506
3 505 506 507
3 96 97 28
3 98 97 96
3 98 30 97
3 98 99 30
3 100 99 98
3 100 32 99
3 101 508 509
3 511 510 101
3 94 512 513
3 94 514 515
3 102 103 34
3 104 103 102
3 104 36 103
3 104 105 36
3 106 105 104
3 106 38 105
3 516 107 517
3 518 517 39
3 516 517 518
3 519 107 520
3 522 521 107
3 108 523 525
3 523 109 524
3 523 524 525
3 110 109 108
3 110 526 528
3 528 527 109
3 526 527 528
3 111 529 531
3 531 530 42
3 529 530 531
3 533 532 111
3 112 534 535
3 112 536 538
3 536 43 537
3 536 537 538
3 113 114 44
3 115 114 113
3 115 46 114
3 116 117 19
3 118 117 116
3 118 47 117
3 118 119 47
3 120 119 118
3 120 48 119
3 121 122 21
3 123 122 121
3 123 49 122
3 123 124 49
3 113 124 123
3 113 44 124
3 539 125 540
3 539 540 541
3 126 542 544
3 542 125 543
3 542 543 544
3 126 50 125
3 127 128 51
3 129 128 127
3 129 53 128
3 130 131 23
3 132 131 130
3 132 54 131
3 132 133 54
3 134 133 132
3 134 55 133
3 134 135 55
3 136 135 134
3 136 56 135
3 137 138 25
3 139 138 137
3 139 57 138
3 139 140 57
3 141 140 139
3 141 58 140
3 545 59 546
3 547 60 548
3 550 549 60
3 551 61 552
3 142 143 45
3 144 143 142
3 144 62 143
3 145 146 29
3 147 146 145
3 147 63 146
3 147 148 63
3 149 148 147
3 149 64 148
3 149 150 64
3 151 150 149
3 151 65 150
3 152 153 31
3 154 153 152
3 154 66 153
3 154 155 66
3 156 155 154
3 156 67 155
3 553 157 554
3 158 555 557
3 555 157 556
3 555 556 557
3 158 68 157
3 159 160 33
3 161 160 159
3 161 69 160
3 161 162 69
3 163 162 161
3 163 70 162
3 558 71 559
3 164 165 35
3 166 165 164
3 166 72 165
3 166 167 72
3 168 167 166
3 168 73 167
3 168 169 73
3 170 169 168
3 170 74 169
3 171 172 37
3 173 172 171
3 173 75 172
3 173 174 75
3 175 174 173
3 175 76 174
3 176 177 40
3 178 177 176
3 178 77 177
3 178 179 77
3 180 179 178
3 180 78 179
3 560 181 561
3 560 561 562
3 182 563 565
3 563 181 564
3 563 564 565
3 182 79 181
3 183 184 41
3 185 184 183
3 185 80 184
3 185 186 80
3 187 186 185
3 187 81 186
3 187 188 81
3 189 188 187
3 189 82 188
3 566 83 567
3 569 568 83
3 571 570 52
3 190 191 5
3 192 191 190
3 192 19 191
3 85 192 18
3 193 192 85
3 193 19 192
3 193 116 19
3 194 116 193
3 194 7 116
3 195 572 573
3 195 574 576
3 574 21 575
3 574 575 576
3 88 577 579
3 577 195 578
3 577 578 579
3 196 195 88
3 196 21 195
3 196 121 21
3 190 121 196
3 190 5 121
3 197 198 8
3 199 198 197
3 199 23 198
3 90 199 22
3 200 199 90
3 200 23 199
3 200 130 23
3 201 130 200
3 201 9 130
3 201 202 9
3 203 202 201
3 203 25 202
3 92 203 24
3 204 203 92
3 204 25 203
3 204 137 25
3 205 137 204
3 205 10 137
3 580 11 581
3 206 207 6
3 208 207 206
3 208 29 207
3 97 208 28
3 209 208 97
3 209 29 208
3 209 145 29
3 210 145 209
3 210 12 145
3 210 211 12
3 212 211 210
3 212 31 211
3 99 212 30
3 213 212 99
3 213 31 212
3 213 152 31
3 214 152 213
3 214 13 152
3 215 582 583
3 585 584 215
3 586 216 587
3 588 216 589
3 590 33 591
3 592 591 216
3 590 591 592
3 217 593 594
3 217 595 597
3 595 33 596
3 595 596 597
3 217 159 33
3 218 159 217
3 218 14 159
3 219 598 600
3 598 220 599
3 598 599 600
3 221 220 219
3 221 35 220
3 103 221 34
3 222 221 103
3 222 35 221
3 222 164 35
3 223 164 222
3 223 15 164
3 223 224 15
3 225 224 223
3 225 37 224
3 105 225 36
3 226 225 105
3 226 37 225
3 226 171 37
3 227 171 226
3 227 16 171
3 228 601 602
3 228 603 605
3 603 40 604
3 603 604 605
3 107 228 39
3 229 228 107
3 229 40 228
3 229 176 40
3 606 176 607
3 608 607 229
3 606 607 608
3 610 609 176
3 611 41 612
3 613 41 614
3 615 183 616
3 617 616 41
3 615 616 617
3 618 183 619
3 620 17 621
3 622 621 183
3 620 621 622
3 624 623 17
3 109 625 626
3 629 628 109
3 627 628 629
3 631 630 42
3 230 632 634
3 632 231 633
3 632 633 634
3 232 231 230
3 232 45 231
3 114 232 44
3 233 232 114
3 233 45 232
3 233 142 45
3 234 142 233
3 234 6 142
3 191 115 5
3 235 115 191
3 235 46 115
3 117 235 19
3 236 235 117
3 236 46 235
3 236 234 46
3 237 234 236
3 237 6 234
3 237 206 6
3 238 206 237
3 238 28 206
3 119 238 47
3 239 238 119
3 239 28 238
3 239 96 28
3 240 96 239
3 240 2 96
3 122 635 637
3 637 636 21
3 635 636 637
3 639 638 122
3 640 215 641
3 241 642 644
3 642 215 643
3 642 643 644
3 241 645 647
3 647 646 215
3 645 646 647
3 124 241 49
3 242 241 124
3 242 648 650
3 650 649 241
3 648 649 650
3 242 651 653
3 651 101 652
3 651 652 653
3 230 101 242
3 230 654 656
3 656 655 101
3 654 655 656
3 657 219 658
3 243 659 661
3 659 219 660
3 659 660 661
3 243 34 219
3 125 662 664
3 662 243 663
3 662 663 664
3 244 243 125
3 244 34 243
3 244 102 34
3 245 102 244
3 245 3 102
3 246 247 1
3 248 247 246
3 248 52 247
3 128 248 51
3 249 248 128
3 249 52 248
3 249 665 667
3 667 666 52
3 665 666 667
3 669 668 249
3 198 129 8
3 250 129 198
3 250 53 129
3 131 250 23
3 251 250 131
3 251 53 250
3 251 670 672
3 672 671 53
3 670 671 672
3 252 673 675
3 675 674 251
3 673 674 675
3 252 676 677
3 252 678 679
3 681 680 252
3 133 682 684
3 684 683 54
3 682 683 684
3 686 685 133
3 135 687 689
3 689 688 55
3 687 688 689
3 691 690 135
3 253 692 694
3 692 693 694
3 253 695 696
3 202 136 9
3 254 136 202
3 254 56 136
3 138 254 25
3 255 254 138
3 255 56 254
3 255 253 56
3 256 253 255
3 256 697 699
3 699 698 253
3 697 698 699
3 256 700 701
3 257 702 704
3 704 703 256
3 702 703 704
3 257 705 707
3 705 42 706
3 705 706 707
3 140 257 57
3 258 257 140
3 258 42 257
3 258 111 42
3 259 111 258
3 259 4 111
3 708 39 709
3 260 710 711
3 260 712 714
3 712 39 713
3 712 713 714
3 260 715 717
3 717 716 39
3 715 716 717
3 719 718 260
3 720 59 721
3 261 722 723
3 261 724 726
3 724 59 725
3 724 725 726
3 261 727 729
3 729 728 59
3 727 728 729
3 731 730 261
3 733 732 60
3 262 734 735
3 262 736 737
3 262 738 740
3 738 108 739
3 738 739 740
3 263 108 262
3 263 1 108
3 231 741 743
3 741 95 742
3 741 742 743
3 264 95 231
3 264 27 95
3 143 264 45
3 265 264 143
3 265 27 264
3 265 744 746
3 746 745 27
3 744 745 746
3 266 747 749
3 749 748 265
3 747 748 749
3 266 750 752
3 750 11 751
3 750 751 752
3 207 144 6
3 267 144 207
3 267 62 144
3 146 267 29
3 268 267 146
3 268 62 267
3 268 266 62
3 269 266 268
3 269 11 266
3 269 753 755
3 755 754 11
3 753 754 755
3 270 756 758
3 758 757 269
3 756 757 758
3 270 759 761
3 759 61 760
3 759 760 761
3 148 270 63
3 271 270 148
3 271 61 270
3 271 263 61
3 272 263 271
3 272 1 263
3 272 246 1
3 273 246 272
3 273 51 246
3 150 273 64
3 274 273 150
3 274 51 273
3 274 127 51
3 275 127 274
3 275 8 127
3 211 151 12
3 276 151 211
3 276 65 151
3 153 276 31
3 277 276 153
3 277 65 276
3 277 275 65
3 278 275 277
3 278 8 275
3 278 197 8
3 279 197 278
3 279 22 197
3 155 279 66
3 280 279 155
3 280 22 279
3 280 89 22
3 281 89 280
3 281 0 89
3 762 87 763
3 764 87 765
3 767 766 87
3 768 86 769
3 282 770 772
3 770 86 771
3 770 771 772
3 282 20 86
3 157 773 775
3 773 282 774
3 773 774 775
3 283 282 157
3 283 20 282
3 283 194 20
3 284 194 283
3 284 7 194
3 216 776 778
3 776 158 777
3 776 777 778
3 285 158 216
3 285 68 158
3 160 285 33
3 286 285 160
3 286 68 285
3 286 284 68
3 287 284 286
3 287 7 284
3 287 120 7
3 288 120 287
3 288 48 120
3 162 288 69
3 289 288 162
3 289 48 288
3 289 240 48
3 290 240 289
3 290 2 240
3 291 779 780
3 291 781 782
3 291 783 785
3 783 218 784
3 783 784 785
3 292 218 291
3 292 14 218
3 220 786 787
3 293 788 790
3 790 789 220
3 788 789 790
3 293 791 793
3 791 71 792
3 791 792 793
3 165 293 35
3 294 293 165
3 294 71 293
3 294 292 71
3 295 292 294
3 295 14 292
3 295 163 14
3 296 163 295
3 296 70 163
3 167 296 72
3 297 296 167
3 297 70 296
3 297 290 70
3 298 290 297
3 298 2 290
3 298 100 2
3 299 100 298
3 299 32 100
3 169 299 73
3 300 299 169
3 300 32 299
3 300 214 32
3 301 214 300
3 301 13 214
3 224 170 15
3 302 170 224
3 302 74 170
3 172 302 37
3 303 302 172
3 303 74 302
3 303 301 74
3 304 301 303
3 304 13 301
3 304 156 13
3 305 156 304
3 305 67 156
3 174 305 75
3 306 305 174
3 306 67 305
3 306 281 67
3 307 281 306
3 307 0 281
3 308 794 795
3 308 796 797
3 177 308 40
3 309 308 177
3 309 798 800
3 800 799 308
3 798 799 800
3 309 801 802
3 310 803 805
3 805 804 309
3 803 804 805
3 310 806 807
3 310 808 810
3 808 126 809
3 808 809 810
3 311 126 310
3 311 50 126
3 179 311 77
3 312 311 179
3 312 50 311
3 312 245 50
3 313 245 312
3 313 3 245
3 811 180 812
3 813 180 814
3 815 78 816
3 817 816 180
3 815 816 817
3 314 818 820
3 818 819 820
3 314 821 823
3 821 78 822
3 821 822 823
3 314 313 78
3 315 313 314
3 315 3 313
3 315 106 3
3 316 106 315
3 316 38 106
3 181 824 826
3 824 316 825
3 824 825 826
3 317 316 181
3 317 38 316
3 317 227 38
3 318 227 317
3 318 16 227
3 827 182 828
3 319 829 831
3 829 182 830
3 829 830 831
3 319 79 182
3 184 319 41
3 320 319 184
3 320 79 319
3 320 318 79
3 321 318 320
3 321 16 318
3 321 175 16
3 322 175 321
3 322 76 175
3 186 322 80
3 323 322 186
3 323 76 322
3 323 307 76
3 324 307 323
3 324 0 307
3 324 93 0
3 325 93 324
3 325 26 93
3 188 325 81
3 326 325 188
3 326 26 325
3 326 205 26
3 327 205 326
3 327 10 205
3 832 189 833
3 834 833 17
3 832 833 834
3 835 189 836
3 837 82 838
3 839 838 189
3 837 838 839
3 328 840 841
3 328 842 844
3 842 82 843
3 842 843 844
3 328 327 82
3 329 327 328
3 329 10 327
3 329 141 10
3 330 141 329
3 330 58 141
3 845 330 846
3 847 846 83
3 845 846 847
3 331 848 850
3 848 330 849
3 848 849 850
3 331 58 330
3 331 259 58
3 332 259 331
3 332 4 259
3 851 332 852
3 333 853 855
3 853 332 854
3 853 854 855
3 333 4 332
3 333 112 4
3 334 112 333
3 334 43 112
3 856 334 857
3 335 858 860
3 858 334 859
3 858 859 860
3 335 43 334
3 335 861 863
3 863 862 43
3 861 862 863
3 336 864 866
3 866 865 335
3 864 865 866
3 336 867 868
3 869 336 870
3 337 871 873
3 871 336 872
3 871 872 873
3 337 874 876
3 876 875 336
3 874 875 876
3 337 877 878
3 338 879 881
3 881 880 337
3 879 880 881
3 338 882 883
3 884 338 885
3 886 338 887
3 889 888 338
3 247 110 1
3 339 110 247
3 339 890 892
3 892 891 110
3 890 891 892
3 893 339 894
3 895 894 52
3 893 894 895
3 896 339 897
3 896 897 898
3 900 899 339
