ply
format ascii 1.0
element vertex 94
property float x
property float y
property float z
element face 77
property list uchar int vertex_index
end_header
17.561028 85.886665 -9.737833
15.343995 87.343376 -4.126703
18.674107 85.064819 1.933063
21.035484 84.124634 -3.852858
16.374691 86.690887 -7.043436
13.539497 87.97316 -7.100777
21.298031 83.277618 1.981733
19.792988 84.664085 -1.04925
22.571205 82.891624 -0.847057
14.432953 87.812889 -1.018339
11.934889 88.873566 -0.780369
12.690836 88.536652 -4.028584
17.068928 86.355652 -1.108122
18.143642 85.819099 -4.065702
19.356644 85.143913 -6.824348
22.421871 83.479271 -6.459515
20.727962 84.351204 -9.360111
16.044711 86.550777 -9.849647
15.451542 86.952889 -8.502449
16.967859 86.288776 -8.390635
22.626288 82.382514 2.074572
21.97576 82.485424 3.491525
23.262874 82.189517 0.660178
21.934618 83.084621 0.567338
22.626288 82.382514 2.074572
12.231316 88.402584 -7.044413
12.624842 88.079693 -8.556411
18.161957 85.171562 3.503375
19.406467 84.28944 3.452271
17.385987 85.887996 1.978317
18.161957 85.171562 3.503375
17.871517 85.710236 0.41247
16.583397 86.533413 0.457724
17.385987 85.887996 1.978317
23.188061 83.10498 -7.656325
23.966418 82.641152 -6.214724
22.341107 83.540947 -9.106623
21.574917 83.915237 -7.909813
23.188061 83.10498 -7.656325
21.490774 83.889927 -10.505722
22.341107 83.540947 -9.106623
10.789106 89.13491 -0.592079
11.093442 89.058434 -2.276513
14.033945 87.594025 -8.531119
14.957094 87.332023 -7.072107
15.451542 86.952889 -8.502449
12.624842 88.079693 -8.556411
14.033945 87.594025 -8.531119
20.718429 83.395839 3.476606
21.97576 82.485424 3.491525
19.986069 84.171219 1.957398
19.406467 84.28944 3.452271
20.718429 83.395839 3.476606
16.625754 86.082661 -11.155473
18.239621 85.411781 -10.958718
13.183921 88.343227 -0.899354
12.766077 88.465492 0.735846
14.015109 87.935154 0.616861
11.471415 88.889977 -3.900621
11.093442 89.058434 -2.276513
12.312862 88.705109 -2.404477
11.806985 88.68433 -5.508317
13.115167 88.254906 -5.56468
12.231316 88.402584 -7.044413
11.471415 88.889977 -3.900621
11.806985 88.68433 -5.508317
16.044711 86.550777 -9.849647
16.625754 86.082661 -11.155473
15.26541 87.262032 0.502615
14.015109 87.935154 0.616861
15.75094 87.084271 -1.06323
15.26541 87.262032 0.502615
16.583397 86.533413 0.457724
23.972747 82.022514 -0.679239
23.262874 82.189517 0.660178
23.272726 82.643367 -2.174142
23.972747 82.022514 -0.679239
22.504866 83.259873 -3.677042
21.803345 83.508129 -2.349957
23.272726 82.643367 -2.174142
23.198059 82.937191 -4.98037
23.966418 82.641152 -6.214724
21.728677 83.801952 -5.156186
22.504866 83.259873 -3.677042
23.198059 82.937191 -4.98037
19.823089 84.64405 -10.769858
18.239621 85.411781 -10.958718
19.144495 85.118934 -9.548972
19.823089 84.64405 -10.769858
21.490774 83.889927 -10.505722
11.57928 88.912369 0.915703
12.766077 88.465492 0.735846
11.57928 88.912369 0.915703
10.789106 89.13491 -0.592079
3 0 17 19
3 19 18 4
3 17 18 19
3 20 6 21
3 22 8 23
3 24 23 6
3 22 23 24
3 1 11 9
3 26 25 5
3 2 27 28
3 2 29 30
3 2 31 33
3 31 12 32
3 31 32 33
3 3 13 7
3 3 14 13
3 34 15 35
3 36 16 37
3 38 37 15
3 36 37 38
3 40 39 16
3 42 41 10
3 4 5 1
3 43 5 44
3 45 44 4
3 43 44 45
3 47 46 5
3 6 48 49
3 6 50 52
3 50 2 51
3 50 51 52
3 6 7 2
3 8 7 6
3 8 3 7
3 54 53 0
3 9 55 57
3 55 10 56
3 55 56 57
3 11 10 9
3 11 58 60
3 60 59 10
3 58 59 60
3 5 11 1
3 61 11 62
3 63 62 5
3 61 62 63
3 65 64 11
3 67 66 0
3 68 9 69
3 12 70 72
3 70 9 71
3 70 71 72
3 12 1 9
3 7 12 2
3 13 12 7
3 13 1 12
3 13 4 1
3 14 4 13
3 14 0 4
3 73 8 74
3 75 8 76
3 77 3 78
3 79 78 8
3 77 78 79
3 15 80 81
3 15 82 84
3 82 3 83
3 82 83 84
3 15 14 3
3 16 14 15
3 16 0 14
3 16 85 87
3 87 86 0
3 85 86 87
3 89 88 16
3 10 90 91
3 93 92 10
