ply
format ascii 1.0
element vertex 484
property float x
property float y
property float z
element face 483
property list uchar int vertex_index
end_header
6.655773 38.4352 -33.075203
9.998684 64.695969 -32.218971
20.324636 36.093727 -31.753332
5.171001 26.621136 -30.179827
4.757772 75.901688 -29.055029
6.982426 51.358734 -35.054306
12.271032 37.570675 -33.429329
15.316761 50.134987 -32.290161
25.680761 47.385567 -27.897837
1.994446 62.044792 -34.136856
5.803764 33.672356 -31.806059
8.796366 31.982243 -31.630175
8.141315 58.196533 -34.319084
10.78145 51.227997 -34.149879
12.738132 57.546776 -32.395973
30.408924 45.937431 -25.962446
34.286232 50.189392 -23.648008
7.216644 70.983757 -31.282473
3.086376 69.406929 -32.155785
5.466129 64.404495 -33.815689
4.368822 57.214745 -35.105469
16.10141 36.717701 -32.892197
12.584885 70.618546 -29.207952
15.429079 63.52523 -29.645628
9.683651 76.644913 -27.864344
6.518005 44.444134 -34.396523
9.027424 38.302338 -33.35778
9.569941 44.743111 -34.426636
13.367311 43.953384 -33.640076
17.804625 42.921249 -32.105316
18.050085 56.042389 -29.78583
20.427177 48.770393 -30.007582
22.557625 41.99918 -30.252024
-1.256853 59.885239 -30.029173
1.455742 72.941994 -28.973886
3.940144 49.594948 -34.981316
4.307619 41.744358 -33.690582
11.956772 30.949566 -31.949911
6.233368 36.456371 -32.526421
7.29686 32.700203 -31.635664
7.534086 35.618519 -32.440895
8.981756 61.501335 -33.416382
10.340996 58.025032 -33.485756
11.387236 61.190804 -32.368233
32.038609 51.231316 -24.531763
8.595028 67.984352 -31.880869
6.256516 67.785316 -32.683479
7.607719 64.777328 -33.17112
6.793848 61.425629 -34.180611
18.185764 36.370087 -32.383682
19.610641 32.963428 -32.027397
14.158823 73.252342 -27.514059
11.121744 73.801521 -28.68799
6.664667 47.884926 -34.875374
7.945538 44.801136 -34.501457
8.280073 48.133125 -34.794266
12.961613 50.748764 -33.316757
12.071104 47.60408 -33.92662
14.238256 47.07238 -33.149193
15.519213 43.433662 -32.942619
16.564613 46.484665 -32.208488
18.402897 62.607178 -28.228994
16.770187 59.789673 -29.720392
19.686726 58.857887 -28.337595
23.073895 48.079628 -28.913118
21.522522 45.319016 -30.146544
24.022413 44.758968 -29.138945
24.879726 41.567837 -29.299719
26.427195 44.195198 -28.157827
3.791517 77.766563 -27.349474
2.899733 74.704597 -29.175585
2.471519 65.819588 -33.301941
1.659374 58.098274 -34.636177
5.67098 54.396614 -35.174988
4.065756 53.448029 -35.216072
5.365828 50.768097 -35.127563
5.240414 47.108398 -34.752869
10.569931 37.984512 -33.451691
10.402294 34.736195 -32.682198
12.028358 34.299438 -32.804504
5.441093 30.348251 -31.010496
7.075672 29.403954 -30.789343
8.715685 28.623184 -30.70503
7.474808 54.807175 -34.87339
8.787592 51.471138 -34.73407
9.474504 54.777267 -34.292099
11.667387 54.418701 -33.437729
14.045723 53.839447 -32.357559
27.505878 49.881882 -26.617239
28.157011 46.675789 -26.936228
30.038334 49.018036 -25.709204
5.917662 73.635696 -30.357504
3.844286 72.780815 -30.729204
4.981863 70.46714 -31.887602
4.209927 67.078972 -33.159874
3.59141 63.507164 -34.135635
3.123047 59.775795 -34.781418
4.837427 60.873352 -34.634338
6.148441 57.957581 -34.858925
14.11977 37.129356 -33.246704
13.774815 33.870403 -32.828796
11.197897 67.748833 -30.793974
12.615635 64.248375 -31.01362
14.029764 67.164825 -29.50017
8.356434 73.955803 -29.661715
9.764191 71.008995 -30.368395
22.456692 35.870789 -31.028357
21.639883 32.817039 -31.492228
6.528809 41.16338 -33.729805
7.677013 38.461861 -33.210693
7.762884 41.540043 -33.933533
9.229492 41.500618 -34.023712
10.884567 41.210995 -33.967842
10.082851 47.995193 -34.482292
11.37953 44.420471 -34.142982
12.712152 40.785751 -33.728531
14.700785 40.314831 -33.29512
16.827894 39.861485 -32.690514
19.052399 39.458382 -31.959654
13.99194 60.590721 -31.102583
15.316752 56.859398 -31.127234
16.590883 53.129555 -31.136797
19.26923 52.353035 -29.879332
17.820286 49.46096 -31.156351
19.011919 45.89315 -31.183443
20.173244 42.443443 -31.192293
21.315281 39.108501 -31.147875
23.545856 38.791344 -30.280909
28.650307 43.605366 -27.160036
0.392078 70.652283 -28.474081
0.836205 69.392036 -30.474512
-0.143106 66.913567 -29.882856
2.809877 55.901299 -35.076431
2.665207 51.897682 -35.019661
4.01066 45.683868 -34.448151
5.306242 43.476582 -34.126823
5.592566 39.955971 -33.357826
4.886131 37.766064 -32.78933
8.901052 35.158146 -32.532127
10.341623 31.429508 -31.760435
13.650898 30.522949 -32.118233
13.722416 27.067181 -31.221453
6.00619 24.222134 -29.651629
5.084496 24.614071 -29.76041
15.781337 72.822392 -26.877086
15.032308 74.420124 -26.628777
15.032308 74.420124 -26.628777
13.412432 74.776794 -27.197416
20.589879 60.207061 -27.607498
19.044812 60.732532 -28.283295
19.947964 62.081707 -27.553197
24.377328 47.732597 -28.405477
23.938876 49.40123 -28.251764
25.24231 49.054199 -27.744124
1.519521 63.020378 -33.627994
1.758058 64.907776 -33.210537
2.232982 63.93219 -33.719398
1.33614 61.029335 -33.98449
1.519521 63.020378 -33.627994
1.82691 60.071533 -34.386516
1.168604 59.056076 -34.23415
1.33614 61.029335 -33.98449
9.579018 29.989601 -31.204417
9.538678 28.310072 -30.741844
8.756025 30.302713 -31.167603
28.488597 51.067524 -25.993603
27.098577 51.565208 -26.44224
29.754825 50.635601 -25.539586
28.772106 49.449959 -26.163221
28.488597 51.067524 -25.993603
33.293272 49.158886 -24.213676
32.16946 49.679848 -24.655554
33.16242 50.710354 -24.089886
34.243368 48.701988 -23.687908
33.293272 49.158886 -24.213676
15.868558 35.102886 -32.801831
14.877738 35.308713 -32.979084
15.11059 36.923529 -33.069451
9.004942 77.87463 -27.270344
10.440099 77.815517 -26.893297
8.356478 76.589924 -28.236591
9.004942 77.87463 -27.270344
9.020042 75.300358 -28.76303
7.69287 75.245369 -29.135277
8.356478 76.589924 -28.236591
23.040623 34.290322 -30.938465
23.486601 35.768179 -30.623041
19.848204 50.561714 -29.943457
20.649532 51.949665 -29.278976
21.228506 50.158344 -29.343101
25.275384 40.020071 -29.327647
25.969728 41.343635 -28.806852
-1.501333 58.188065 -29.401893
-1.301386 60.319786 -28.954735
-1.412878 57.718102 -30.383392
-1.501333 58.188065 -29.401893
1.235032 73.549839 -27.889427
1.823246 74.589882 -28.098197
0.92391 71.797138 -28.723984
0.7032 72.404984 -27.639525
1.235032 73.549839 -27.889427
2.619967 70.385044 -31.460109
2.998921 72.071987 -30.746818
3.465331 71.093872 -31.442495
0.579481 67.504615 -31.087019
1.186865 68.588192 -31.281362
0.089826 66.265381 -30.791191
0.346549 68.152802 -30.178684
0.579481 67.504615 -31.087019
-0.366834 64.935765 -30.445585
0.089826 66.265381 -30.791191
3.32498 48.687725 -34.808053
2.687512 49.839092 -34.827225
3.302676 50.746315 -35.000489
3.975402 47.639408 -34.714734
3.360238 46.732185 -34.54147
3.32498 48.687725 -34.808053
4.596875 39.755211 -33.239956
4.187605 38.514447 -32.943085
3.898349 40.503594 -33.393711
11.991515 29.218212 -31.461767
11.183941 29.458183 -31.367029
11.149197 31.189537 -31.855173
14.539256 30.343887 -32.159
13.712857 32.196676 -32.473514
14.601215 32.017614 -32.514282
14.713025 25.13307 -30.898106
14.591055 26.90229 -31.33547
13.841082 25.277245 -30.736866
14.713025 25.13307 -30.898106
21.377243 31.230514 -31.575655
22.327866 31.219766 -31.358325
31.792593 52.866009 -24.366333
30.754963 51.742241 -24.950865
33.079272 52.274754 -23.980846
31.792593 52.866009 -24.366333
34.203083 51.753792 -23.538969
33.16242 50.710354 -24.089886
33.079272 52.274754 -23.980846
17.889242 34.776308 -32.412075
16.847065 34.950115 -32.666333
17.143587 36.543894 -32.63794
18.601681 33.072979 -32.233933
17.889242 34.776308 -32.412075
18.898203 34.666758 -32.20554
19.399361 31.344458 -32.000226
18.601681 33.072979 -32.233933
14.894139 71.574886 -27.704338
14.10717 70.257988 -28.551285
13.371854 71.935444 -28.361005
14.894139 71.574886 -27.704338
15.781337 72.822392 -26.877086
11.174845 76.47308 -27.372559
10.440099 77.815517 -26.893297
11.893892 75.051384 -27.784382
10.402697 75.223217 -28.276167
11.174845 76.47308 -27.372559
12.640283 73.526931 -28.101025
11.893892 75.051384 -27.784382
13.412432 74.776794 -27.197416
22.551865 49.812962 -28.79587
23.938876 49.40123 -28.251764
21.750536 48.42501 -29.46035
21.228506 50.158344 -29.343101
22.551865 49.812962 -28.79587
26.743462 42.657316 -28.235906
25.969728 41.343635 -28.806852
25.653461 42.881518 -28.728773
30.511027 44.453561 -26.020691
31.37997 45.549663 -25.427061
-1.050717 61.944291 -29.520666
-1.301386 60.319786 -28.954735
2.991134 77.002167 -27.285992
3.425498 78.501423 -26.297554
2.545241 75.471183 -28.199047
2.991134 77.002167 -27.285992
3.345625 76.23558 -28.262529
2.177738 73.823296 -29.074736
1.823246 74.589882 -28.098197
2.545241 75.471183 -28.199047
2.004522 66.801968 -32.695076
2.311951 68.595639 -32.121998
2.778948 67.613259 -32.728863
2.004522 66.801968 -32.695076
1.758058 64.907776 -33.210537
1.054968 56.972381 -34.422268
1.168604 59.056076 -34.23415
1.569605 56.044266 -34.711838
1.054968 56.972381 -34.422268
3.639821 42.655302 -33.830852
3.898349 40.503594 -33.393711
6.179492 28.050073 -30.476061
6.044446 26.186516 -30.060727
5.306047 28.484693 -30.595161
6.996781 27.577925 -30.365485
6.179492 28.050073 -30.476061
6.258382 29.876103 -30.899919
7.882099 27.203305 -30.294834
6.996781 27.577925 -30.365485
8.702106 26.812919 -30.252678
7.882099 27.203305 -30.294834
7.895679 29.013569 -30.747186
9.58616 26.502384 -30.25823
8.702106 26.812919 -30.252678
9.58616 26.502384 -30.25823
9.538678 28.310072 -30.741844
26.154868 50.302357 -27.103825
27.098577 51.565208 -26.44224
26.593319 48.633724 -27.257538
25.24231 49.054199 -27.744124
26.154868 50.302357 -27.103825
31.038471 50.124676 -25.120483
29.754825 50.635601 -25.539586
30.754963 51.742241 -24.950865
31.169323 48.573208 -25.244274
31.038471 50.124676 -25.120483
32.16946 49.679848 -24.655554
31.354618 47.032905 -25.370895
30.223629 47.477733 -25.835825
31.169323 48.573208 -25.244274
31.37997 45.549663 -25.427061
31.354618 47.032905 -25.370895
14.70526 33.679237 -32.77013
13.947292 35.49988 -33.03775
14.877738 35.308713 -32.979084
14.601215 32.017614 -32.514282
14.70526 33.679237 -32.77013
15.868558 35.102886 -32.801831
16.847065 34.950115 -32.666333
6.00619 24.222134 -29.651629
6.044446 26.186516 -30.060727
14.829609 68.531127 -28.697394
13.307325 68.891685 -29.354061
14.10717 70.257988 -28.551285
15.539309 66.741371 -28.802746
14.829609 68.531127 -28.697394
16.238967 64.921573 -28.875475
14.729422 65.345028 -29.572899
15.539309 66.741371 -28.802746
17.725876 64.462547 -28.167158
16.915988 63.066204 -28.937311
16.238967 64.921573 -28.875475
19.305518 63.944279 -27.477003
17.725876 64.462547 -28.167158
19.947964 62.081707 -27.553197
19.305518 63.944279 -27.477003
4.319612 79.130623 -26.331449
3.425498 78.501423 -26.297554
4.81678 78.241478 -27.257248
4.319612 79.130623 -26.331449
5.299907 77.30904 -28.110025
4.274644 76.834125 -28.202252
4.81678 78.241478 -27.257248
5.893539 76.218311 -28.831934
5.299907 77.30904 -28.110025
6.473484 75.085316 -29.483171
5.337717 74.768692 -29.706266
5.893539 76.218311 -28.831934
7.137048 73.795749 -30.009609
6.473484 75.085316 -29.483171
7.69287 75.245369 -29.135277
22.632219 32.763447 -31.170401
22.048288 34.343914 -31.260292
23.040623 34.290322 -30.938465
22.327866 31.219766 -31.358325
22.632219 32.763447 -31.170401
21.190437 58.350369 -27.697496
20.589879 60.207061 -27.607498
20.292187 57.004329 -28.409415
21.190437 58.350369 -27.697496
19.473866 55.596581 -29.133532
18.868406 57.450138 -29.061712
20.292187 57.004329 -28.409415
20.083439 53.751903 -29.180283
20.649532 51.949665 -29.278976
18.659658 54.197712 -29.832581
19.473866 55.596581 -29.133532
20.083439 53.751903 -29.180283
24.031183 37.228457 -30.249318
23.486601 35.768179 -30.623041
23.001274 37.331067 -30.654633
24.608449 38.631825 -29.818241
24.212791 40.179591 -29.790314
25.275384 40.020071 -29.327647
24.031183 37.228457 -30.249318
24.608449 38.631825 -29.818241
27.855018 42.3624 -27.737011
26.743462 42.657316 -28.235906
27.538751 43.900282 -27.658932
29.631719 43.287529 -26.619486
29.529615 44.771398 -26.561241
30.511027 44.453561 -26.020691
28.838047 42.114433 -27.20398
29.631719 43.287529 -26.619486
27.855018 42.3624 -27.737011
28.838047 42.114433 -27.20398
35.304783 51.155548 -23.112789
34.203083 51.753792 -23.538969
35.202965 49.663505 -23.128096
35.304783 51.155548 -23.112789
34.243368 48.701988 -23.687908
35.202965 49.663505 -23.128096
0.296855 71.121994 -27.30109
0.7032 72.404984 -27.639525
0.018895 69.279713 -28.089428
0.296855 71.121994 -27.30109
2.526645 73.033878 -29.970009
3.372009 73.742706 -29.952395
2.998921 72.071987 -30.746818
1.80465 72.152576 -29.86916
2.177738 73.823296 -29.074736
2.526645 73.033878 -29.970009
2.619967 70.385044 -31.460109
2.311951 68.595639 -32.121998
1.494881 70.377598 -30.619473
1.186865 68.588192 -31.281362
1.145973 71.167015 -29.724199
1.80465 72.152576 -29.86916
1.494881 70.377598 -30.619473
-0.248697 67.410355 -28.793816
0.018895 69.279713 -28.089428
0.124486 68.782925 -29.178469
-0.493844 65.458455 -29.447508
-0.248697 67.410355 -28.793816
-0.493844 65.458455 -29.447508
-0.366834 64.935765 -30.445585
-0.923707 61.4216 -30.518743
-1.050717 61.944291 -29.520666
-1.097294 59.33836 -30.928869
-0.923707 61.4216 -30.518743
-1.412878 57.718102 -30.383392
-1.097294 59.33836 -30.928869
2.144856 54.945778 -34.931964
1.569605 56.044266 -34.711838
2.234625 56.999786 -34.856304
2.072522 52.94397 -34.903579
2.144856 54.945778 -34.931964
2.737542 53.89949 -35.048046
2.071213 50.813923 -34.808007
2.072522 52.94397 -34.903579
2.071213 50.813923 -34.808007
2.687512 49.839092 -34.827225
3.491341 44.625057 -34.209637
3.360238 46.732185 -34.54147
4.15914 43.714113 -34.069367
3.639821 42.655302 -33.830852
3.491341 44.625057 -34.209637
4.331409 27.104048 -30.296453
5.084496 24.614071 -29.76041
4.504008 29.020821 -30.733059
4.331409 27.104048 -30.296453
4.639054 30.884379 -31.148393
5.306047 28.484693 -30.595161
4.504008 29.020821 -30.733059
4.871587 32.604286 -31.548285
4.639054 30.884379 -31.148393
5.052922 34.266339 -31.946067
5.622428 32.010303 -31.408278
4.871587 32.604286 -31.548285
4.594105 36.313192 -32.437703
4.187605 38.514447 -32.943085
5.344947 35.71921 -32.297694
5.052922 34.266339 -31.946067
4.594105 36.313192 -32.437703
10.351647 29.713234 -31.269547
9.579018 29.989601 -31.204417
9.568995 31.705875 -31.695305
10.351647 29.713234 -31.269547
11.183941 29.458183 -31.367029
14.555295 28.630175 -31.78386
14.539256 30.343887 -32.159
13.686657 28.795065 -31.669843
14.555295 28.630175 -31.78386
14.591055 26.90229 -31.33547
12.874337 27.27702 -31.097538
11.991515 29.218212 -31.461767
12.839594 29.008374 -31.585682
12.874337 27.27702 -31.097538
13.841082 25.277245 -30.736866
20.362622 31.303709 -31.84324
20.625262 32.890234 -31.759813
21.377243 31.230514 -31.575655
19.399361 31.344458 -32.000226
20.362622 31.303709 -31.84324
3 0 40 38
3 1 43 41
3 1 47 45
3 1 41 47
3 2 50 49
3 3 142 143
3 145 144 51
3 146 51 147
3 5 55 53
3 7 58 56
3 7 60 58
3 148 63 149
3 150 149 61
3 148 149 150
3 8 151 153
3 151 64 152
3 151 152 153
3 8 66 64
3 8 68 66
3 4 70 69
3 9 154 156
3 156 155 71
3 154 155 156
3 9 157 158
3 9 159 161
3 159 72 160
3 159 160 161
3 5 75 73
3 5 53 75
3 6 79 77
3 10 81 80
3 11 82 39
3 11 162 164
3 164 163 82
3 162 163 164
3 12 85 83
3 14 86 42
3 14 87 86
3 165 88 166
3 167 90 168
3 169 168 88
3 167 168 169
3 16 170 172
3 172 171 44
3 170 171 172
3 16 173 174
3 17 93 91
3 19 94 46
3 19 95 94
3 19 97 95
3 12 98 48
3 12 83 98
3 21 175 177
3 177 176 99
3 175 176 177
3 22 103 101
3 24 178 179
3 24 180 181
3 24 182 184
3 182 104 183
3 182 183 184
3 22 105 52
3 22 101 105
3 186 185 106
3 25 110 108
3 27 111 54
3 27 112 111
3 13 113 84
3 28 114 57
3 28 115 114
3 28 116 115
3 29 117 59
3 29 118 117
3 23 119 102
3 30 120 62
3 30 121 120
3 31 187 189
3 187 122 188
3 187 188 189
3 31 123 122
3 31 124 123
3 32 125 65
3 32 126 125
3 32 127 126
3 191 190 67
3 15 128 89
3 33 192 193
3 33 194 195
3 34 196 197
3 34 198 200
3 198 129 199
3 198 199 200
3 18 201 203
3 203 202 92
3 201 202 203
3 204 130 205
3 206 131 207
3 208 207 130
3 206 207 208
3 210 209 131
3 20 132 96
3 35 133 74
3 35 211 213
3 213 212 133
3 211 212 213
3 35 214 216
3 214 134 215
3 214 215 216
3 25 135 76
3 25 108 135
3 36 217 219
3 217 137 218
3 217 218 219
3 36 136 137
3 26 138 109
3 37 139 78
3 37 220 222
3 222 221 139
3 220 221 222
3 223 140 224
3 225 224 100
3 223 224 225
3 226 141 227
3 229 228 141
3 231 230 107
3 38 39 10
3 40 39 38
3 40 11 39
3 41 42 12
3 43 42 41
3 43 14 42
3 232 44 233
3 234 44 235
3 236 16 237
3 238 237 44
3 236 237 238
3 45 46 17
3 47 46 45
3 47 19 46
3 47 48 19
3 41 48 47
3 41 12 48
3 49 239 241
3 241 240 21
3 239 240 241
3 50 242 244
3 244 243 49
3 242 243 244
3 50 245 246
3 51 247 249
3 249 248 22
3 247 248 249
3 251 250 51
3 252 24 253
3 254 52 255
3 256 255 24
3 254 255 256
3 51 257 259
3 257 52 258
3 257 258 259
3 51 22 52
3 53 54 25
3 55 54 53
3 55 27 54
3 56 57 13
3 58 57 56
3 58 28 57
3 58 59 28
3 60 59 58
3 60 29 59
3 61 62 23
3 63 62 61
3 63 30 62
3 64 260 261
3 64 262 264
3 262 31 263
3 262 263 264
3 64 65 31
3 66 65 64
3 66 32 65
3 66 67 32
3 68 67 66
3 68 265 267
3 267 266 67
3 265 266 267
3 269 268 15
3 270 33 271
3 69 272 273
3 70 274 276
3 276 275 69
3 274 275 276
3 70 277 279
3 277 34 278
3 277 278 279
3 71 280 282
3 282 281 18
3 280 281 282
3 284 283 71
3 72 285 286
3 72 287 288
3 73 74 20
3 75 74 73
3 75 35 74
3 75 76 35
3 53 76 75
3 53 25 76
3 289 36 290
3 77 78 26
3 79 78 77
3 79 37 78
3 80 291 293
3 293 292 3
3 291 292 293
3 81 294 296
3 296 295 80
3 294 295 296
3 81 297 298
3 39 81 10
3 82 81 39
3 82 299 301
3 301 300 81
3 299 300 301
3 82 302 303
3 305 304 82
3 83 84 5
3 85 84 83
3 85 13 84
3 42 85 12
3 86 85 42
3 86 13 85
3 86 56 13
3 87 56 86
3 87 7 56
3 88 306 307
3 88 308 310
3 308 8 309
3 308 309 310
3 88 89 8
3 90 89 88
3 90 15 89
3 44 311 313
3 311 90 312
3 311 312 313
3 314 90 315
3 316 315 44
3 314 315 316
3 317 15 318
3 319 318 90
3 317 318 319
3 321 320 15
3 91 92 4
3 93 92 91
3 93 18 92
3 46 93 17
3 94 93 46
3 94 18 93
3 94 71 18
3 95 71 94
3 95 9 71
3 95 96 9
3 97 96 95
3 97 20 96
3 48 97 19
3 98 97 48
3 98 20 97
3 98 73 20
3 83 73 98
3 83 5 73
3 99 100 6
3 322 100 323
3 324 323 99
3 322 323 324
3 326 325 100
3 328 327 21
3 330 329 3
3 101 102 1
3 103 102 101
3 103 23 102
3 331 103 332
3 333 332 22
3 331 332 333
3 334 103 335
3 336 23 337
3 338 337 103
3 336 337 338
3 339 61 340
3 341 340 23
3 339 340 341
3 342 61 343
3 345 344 61
3 346 69 347
3 348 69 349
3 350 4 351
3 352 351 69
3 350 351 352
3 353 4 354
3 355 91 356
3 357 356 4
3 355 356 357
3 104 358 360
3 358 91 359
3 358 359 360
3 104 17 91
3 52 104 24
3 105 104 52
3 105 17 104
3 105 45 17
3 101 45 105
3 101 1 45
3 106 107 2
3 361 107 362
3 363 362 106
3 361 362 363
3 365 364 107
3 108 109 0
3 110 109 108
3 110 26 109
3 54 110 25
3 111 110 54
3 111 26 110
3 111 77 26
3 112 77 111
3 112 6 77
3 84 55 5
3 113 55 84
3 113 27 55
3 57 113 13
3 114 113 57
3 114 27 113
3 114 112 27
3 115 112 114
3 115 6 112
3 115 99 6
3 116 99 115
3 116 21 99
3 59 116 28
3 117 116 59
3 117 21 116
3 117 49 21
3 118 49 117
3 118 2 49
3 102 43 1
3 119 43 102
3 119 14 43
3 62 119 23
3 120 119 62
3 120 14 119
3 120 87 14
3 121 87 120
3 121 7 87
3 366 63 367
3 368 63 369
3 370 30 371
3 372 371 63
3 370 371 372
3 122 373 374
3 122 375 377
3 375 30 376
3 375 376 377
3 122 121 30
3 123 121 122
3 123 7 121
3 123 60 7
3 124 60 123
3 124 29 60
3 65 124 31
3 125 124 65
3 125 29 124
3 125 118 29
3 126 118 125
3 126 2 118
3 126 106 2
3 127 106 126
3 127 378 380
3 380 379 106
3 378 379 380
3 67 127 32
3 381 127 382
3 383 382 67
3 381 382 383
3 385 384 127
3 89 68 8
3 128 68 89
3 128 386 388
3 388 387 68
3 386 387 388
3 389 128 390
3 391 390 15
3 389 390 391
3 392 128 393
3 395 394 128
3 396 16 397
3 398 16 399
3 401 400 16
3 129 402 403
3 129 404 405
3 92 70 4
3 406 70 407
3 408 407 92
3 406 407 408
3 409 34 410
3 411 410 70
3 409 410 411
3 413 412 18
3 130 414 415
3 130 416 418
3 416 34 417
3 416 417 418
3 130 129 34
3 131 129 130
3 131 419 421
3 421 420 129
3 419 420 421
3 131 422 423
3 425 424 131
3 426 33 427
3 428 33 429
3 431 430 33
3 96 72 9
3 132 72 96
3 132 432 434
3 434 433 72
3 432 433 434
3 74 132 20
3 133 132 74
3 133 435 437
3 437 436 132
3 435 436 437
3 133 438 439
3 441 440 133
3 134 442 443
3 134 444 446
3 444 36 445
3 444 445 446
3 76 134 35
3 135 134 76
3 135 36 134
3 135 136 36
3 108 136 135
3 108 0 136
3 447 3 448
3 449 3 450
3 451 80 452
3 453 452 3
3 451 452 453
3 454 80 455
3 456 10 457
3 458 457 80
3 456 457 458
3 137 459 460
3 137 461 463
3 461 10 462
3 461 462 463
3 137 38 10
3 136 38 137
3 136 0 38
3 109 40 0
3 138 40 109
3 138 11 40
3 78 138 26
3 139 138 78
3 139 11 138
3 139 464 466
3 466 465 11
3 464 465 466
3 468 467 139
3 100 79 6
3 140 79 100
3 140 37 79
3 469 140 470
3 141 471 473
3 471 140 472
3 471 472 473
3 141 37 140
3 141 474 476
3 476 475 37
3 474 475 476
3 478 477 141
3 107 50 2
3 479 50 480
3 481 480 107
3 479 480 481
3 483 482 50
