ply
format ascii 1.0
element vertex 470
property float x
property float y
property float z
element face 462
property list uchar int vertex_index
end_header
54.830681 33.506935 15.139504
46.587601 64.070152 -11.347015
51.473625 53.578568 -5.606697
47.220535 54.726784 -13.422504
53.383507 49.784485 3.517124
56.280018 38.873962 8.346491
41.794807 62.963242 -18.702749
41.055084 51.244164 -19.044291
52.395519 48.531067 -1.839567
56.22813 36.363567 11.829028
56.718315 32.942413 9.046719
29.471317 52.253166 -25.369967
39.980633 68.870346 -17.06378
44.71077 64.217583 -15.493031
44.364254 53.565018 -16.51309
38.707893 45.933609 -17.840536
49.567951 58.739067 -8.875736
47.92038 59.370064 -13.140818
49.58989 54.651321 -9.730436
47.265182 50.726288 -9.000563
54.253468 46.600441 2.075733
54.964775 41.15818 4.940167
55.225182 44.434402 6.28862
55.107372 42.042603 10.662028
53.86644 39.33181 14.882379
50.523365 57.248726 -4.175072
52.783287 51.867645 -1.187019
37.972618 60.311935 -21.071066
45.483276 58.799431 -16.684042
42.227085 56.903214 -19.389647
38.362106 53.909767 -21.546289
55.679955 34.983494 13.516178
56.578117 33.390682 11.862485
31.546576 54.500702 -24.200903
34.119934 53.318192 -23.42993
43.739349 66.826241 -14.438482
45.773697 64.303749 -13.523983
43.049595 49.595665 -13.746052
50.65213 56.132256 -7.331806
49.872063 56.67585 -9.504318
50.595505 54.216858 -7.710747
54.121532 48.207153 2.656427
54.866409 45.542519 4.147772
54.402924 47.118088 4.939976
54.264511 44.76202 9.6443
53.843422 43.479877 11.991651
54.621525 40.733879 12.811973
53.197411 42.113209 14.27739
49.128208 60.025764 -5.446899
49.335655 59.08622 -2.948349
52.187668 52.47274 2.112988
52.050011 53.545815 -0.350225
53.178299 50.862328 1.128813
53.619774 49.236572 0.446042
55.780342 40.036697 6.617798
55.094482 38.292984 5.989019
55.993767 37.144405 7.413429
56.815601 29.848003 8.873598
41.03437 65.985764 -17.993704
38.313961 68.096893 -18.658953
39.283657 64.992149 -19.403395
39.974327 61.795662 -19.966043
47.848846 57.020851 -13.480118
46.806335 59.250786 -15.017939
46.592804 56.74295 -15.220121
42.758698 52.531967 -17.833628
43.572968 55.216896 -18.132196
41.834946 54.010468 -19.344133
40.34824 55.519539 -20.505377
39.984276 52.564911 -20.45669
38.063454 50.928001 -21.527998
39.281555 49.747719 -20.19145
52.046261 51.057182 -3.751574
51.034378 51.789078 -5.751032
53.396786 48.642746 5.969716
49.400986 58.020561 -0.391914
56.432926 37.655426 10.095437
56.55632 35.955647 8.883872
56.752602 34.710011 10.375437
56.973614 31.680557 10.280743
42.526276 66.595421 -16.342276
43.383354 63.77552 -17.221487
46.061764 52.492554 -12.990051
45.853981 54.303963 -15.047789
44.635525 51.934845 -14.533268
43.139183 51.073418 -15.955599
41.578556 49.939369 -17.274729
39.967213 48.575226 -18.521833
40.163994 47.380447 -16.524488
48.214554 61.39534 -10.213362
47.472328 61.739021 -12.417162
48.836151 59.185318 -11.080431
48.939331 56.987099 -11.564869
48.464745 54.834641 -11.643148
49.912292 52.344902 -7.687168
48.702293 52.675423 -9.550917
47.417305 52.735413 -11.32498
54.694599 43.919361 3.606999
55.414047 42.829643 5.502057
55.846329 41.695747 7.457454
54.451912 45.971466 7.279763
55.309006 43.271435 8.472841
55.963745 40.507114 9.442381
55.753387 39.248459 11.416742
55.220455 37.903927 13.340206
54.391716 36.461243 15.182022
52.872635 37.826492 16.846054
53.316307 34.914661 16.928873
47.17762 63.564949 -9.009121
48.760117 60.808647 -7.876961
50.127823 58.07885 -6.564802
51.278992 55.403275 -5.074032
50.760361 56.284683 -1.72031
51.746941 54.530327 -2.745548
52.209251 52.782555 -3.431257
52.918591 50.194466 -1.688112
53.417175 47.602737 0.081573
53.905552 39.411999 4.626633
56.092361 34.147984 7.848783
46.512215 61.791801 -14.4433
45.316364 61.514122 -16.252768
43.877098 60.884232 -17.826136
45.16571 56.138367 -16.768686
43.950439 58.010071 -18.133043
42.207336 59.906502 -19.173231
40.341255 58.611259 -20.337831
38.330296 57.0467 -21.386751
36.235802 55.266792 -22.395426
36.323334 52.121704 -22.57757
38.326935 47.023857 -19.733564
55.445274 32.746752 14.233229
55.869912 33.485031 13.421566
55.255318 34.245215 14.327841
32.619267 55.557457 -23.660002
31.192725 56.215664 -24.02133
33.905946 54.966202 -23.274515
32.833255 53.909447 -23.815416
32.619267 55.557457 -23.660002
46.180649 64.18695 -12.435499
45.227125 65.507035 -12.914078
45.634077 65.390236 -11.825595
53.097542 44.151046 12.714947
53.357754 44.823744 11.480206
52.774536 43.467712 13.857817
53.520416 42.796543 13.134521
53.097542 44.151046 12.714947
48.604656 59.983173 -2.194006
48.565022 60.50882 -3.4878
56.466276 28.865108 8.319968
56.85626 28.270381 8.668297
51.813118 48.942402 -2.769843
51.638489 50.20546 -3.725847
52.22089 49.794124 -2.795571
56.91876 31.014885 10.909652
56.775865 32.535619 11.071614
56.721012 31.869947 11.700523
57.063361 30.13439 10.076579
56.91876 31.014885 10.909652
28.081297 52.75085 -25.818604
29.092278 53.95393 -25.188967
28.488597 51.067524 -25.993603
28.081297 52.75085 -25.818604
29.754825 50.635601 -25.539586
28.488597 51.067524 -25.993603
44.552592 51.109867 -13.388856
45.348644 52.2137 -13.76166
45.265711 51.388722 -12.617247
42.376478 49.844353 -15.561625
43.094389 50.334542 -14.850825
42.331684 49.105476 -14.456851
41.596165 49.277328 -16.22119
42.358869 50.506394 -16.615164
42.376478 49.844353 -15.561625
40.888884 47.997867 -15.846069
40.871275 48.659908 -16.899608
41.596165 49.277328 -16.22119
49.938468 51.186107 -6.599634
50.473335 52.06699 -6.7191
50.499511 50.908196 -5.631566
47.983738 51.700856 -9.27574
48.668033 51.588421 -8.415712
47.949478 50.613853 -8.140536
46.570086 50.693973 -9.830217
46.646147 51.698536 -10.992426
47.341244 51.730851 -10.162771
54.474033 45.259901 2.841366
54.210697 44.442448 2.696998
53.990132 45.782987 1.931365
53.837639 46.704979 7.872421
53.924349 47.307106 6.62474
53.310076 48.040619 7.217397
52.279858 37.020367 17.77055
52.087616 38.455469 17.687365
52.501694 35.564451 17.811959
53.094471 36.370576 16.887463
52.279858 37.020367 17.77055
52.689872 34.090763 17.758159
52.501694 35.564451 17.811959
47.374398 63.20129 -7.783152
46.512821 64.599655 -8.266312
48.165646 61.823139 -7.217071
47.968868 62.186798 -8.443041
47.374398 63.20129 -7.783152
50.804263 55.749245 -0.461906
50.080674 57.152622 -1.056112
50.124575 56.617183 0.202292
53.990132 45.782987 1.931365
53.571985 46.284135 0.934285
53.835321 47.101589 1.078653
54.435164 40.285089 4.7834
53.891645 40.828328 3.978976
54.421257 41.701418 4.135743
54.470978 37.373071 5.800508
55.107245 36.803404 6.344975
38.54432 69.934731 -17.39988
39.333965 70.192272 -16.496727
36.796161 69.08514 -18.98336
37.361932 67.513336 -19.345353
36.59032 61.141941 -21.389384
37.646125 61.975243 -20.844181
36.91394 59.439087 -21.5835
36.59032 61.141941 -21.389384
37.091576 50.03281 -22.068091
37.768641 49.505867 -21.424509
51.815752 47.697212 -1.744087
52.476221 47.243461 -0.899742
56.318993 32.688625 12.59472
56.129036 34.187088 12.689331
55.869912 33.485031 13.421566
56.721012 31.869947 11.700523
56.318993 32.688625 12.59472
30.129907 55.077698 -24.604435
31.192725 56.215664 -24.02133
30.508947 53.376934 -24.785435
29.092278 53.95393 -25.188967
30.129907 55.077698 -24.604435
31.792593 52.866009 -24.366333
30.754963 51.742241 -24.950865
30.508947 53.376934 -24.785435
33.079272 52.274754 -23.980846
31.792593 52.866009 -24.366333
32.833255 53.909447 -23.815416
34.203083 51.753792 -23.538969
33.079272 52.274754 -23.980846
44.209951 66.768281 -13.371328
43.111846 68.039265 -13.784539
44.756523 65.564995 -13.981233
44.209951 66.768281 -13.371328
45.227125 65.507035 -12.914078
42.826614 48.815906 -12.515245
43.759626 49.940277 -12.995248
42.157512 48.403824 -13.267558
42.826614 48.815906 -12.515245
42.331684 49.105476 -14.456851
42.157512 48.403824 -13.267558
47.065479 49.683491 -7.774699
47.949478 50.613853 -8.140536
46.335518 49.738045 -8.577519
47.065479 49.683491 -7.774699
53.568298 45.464815 10.30653
53.743938 46.100256 9.054689
54.053967 44.120948 10.817975
53.568298 45.464815 10.30653
53.357754 44.823744 11.480206
48.461298 60.978592 -4.737075
48.349691 61.431697 -6.00204
49.231932 59.555992 -4.197624
48.461298 60.978592 -4.737075
48.565022 60.50882 -3.4878
52.118839 53.009277 0.881382
51.449087 54.37981 0.223137
51.517916 53.843273 1.454743
55.556887 36.229114 7.05718
55.107245 36.803404 6.344975
55.544124 37.718694 6.701224
56.467409 30.451656 8.407148
56.418766 31.998861 8.493708
56.766958 31.395208 8.960158
56.467409 30.451656 8.407148
56.466276 28.865108 8.319968
37.84678 65.960964 -19.717574
37.361932 67.513336 -19.345353
38.798809 66.544521 -19.031174
38.301645 64.315349 -20.010345
37.84678 65.960964 -19.717574
38.64698 62.717106 -20.291669
38.301645 64.315349 -20.010345
39.628992 63.393906 -19.684719
38.973472 61.053798 -20.518555
37.646125 61.975243 -20.844181
38.64698 62.717106 -20.291669
38.377691 48.915726 -20.756235
37.768641 49.505867 -21.424509
38.672505 50.33786 -20.859724
37.357107 43.768007 -18.119065
37.98417 45.123253 -18.491221
38.08083 44.578363 -17.46838
51.132548 50.571408 -4.725575
51.540319 51.42313 -4.751303
51.638489 50.20546 -3.725847
50.499511 50.908196 -5.631566
51.132548 50.571408 -4.725575
51.813118 48.942402 -2.769843
51.815752 47.697212 -1.744087
52.782317 49.984218 5.306057
53.390147 49.213616 4.74342
52.775677 50.555088 4.079762
52.70142 49.377636 6.598263
52.782317 49.984218 5.306057
53.310076 48.040619 7.217397
52.70142 49.377636 6.598263
48.620621 58.864826 0.403699
48.637321 59.450344 -0.915788
49.375141 57.436149 0.914872
48.620621 58.864826 0.403699
50.124575 56.617183 0.202292
49.375141 57.436149 0.914872
51.49583 53.264126 2.744651
51.517916 53.843273 1.454743
52.177757 51.899215 3.377694
51.49583 53.264126 2.744651
52.775677 50.555088 4.079762
52.785588 51.128613 2.815056
52.177757 51.899215 3.377694
56.984354 29.218113 9.373006
56.894607 30.76428 9.57717
57.063361 30.13439 10.076579
56.85626 28.270381 8.668297
56.984354 29.218113 9.373006
29.754825 50.635601 -25.539586
30.754963 51.742241 -24.950865
40.677011 69.058468 -16.141088
39.333965 70.192272 -16.496727
42.55637 68.036416 -14.828439
43.111846 68.039265 -13.784539
41.949833 67.921006 -15.780335
42.55637 68.036416 -14.828439
43.132812 66.710831 -15.390379
41.253455 67.732883 -16.703028
40.677011 69.058468 -16.141088
41.949833 67.921006 -15.780335
43.84256 50.765255 -14.13966
44.552592 51.109867 -13.388856
43.759626 49.940277 -12.995248
40.063541 46.744506 -15.388065
40.888884 47.997867 -15.846069
39.428154 46.072904 -16.103251
40.063541 46.744506 -15.388065
38.700103 45.349486 -16.761274
39.435944 46.657028 -17.182512
39.428154 46.072904 -16.103251
38.08083 44.578363 -17.46838
38.700103 45.349486 -16.761274
55.043312 32.001291 14.952195
54.289467 32.720707 15.919466
49.273033 51.42316 -7.483838
49.938468 51.186107 -6.599634
49.307293 52.510162 -8.619042
49.273033 51.42316 -7.483838
48.668033 51.588421 -8.415712
45.968376 51.577106 -11.824962
46.739534 52.613984 -12.157515
46.646147 51.698536 -10.992426
45.265711 51.388722 -12.617247
45.968376 51.577106 -11.824962
46.570086 50.693973 -9.830217
46.335518 49.738045 -8.577519
54.286169 43.082009 3.469159
54.210697 44.442448 2.696998
54.829687 42.53877 4.273583
54.421257 41.701418 4.135743
54.286169 43.082009 3.469159
54.358211 45.366743 8.462032
53.837639 46.704979 7.872421
53.743938 46.100256 9.054689
52.433205 42.752798 15.054136
52.774536 43.467712 13.857817
52.769782 41.381969 15.370672
52.433205 42.752798 15.054136
53.104296 39.99127 15.673166
53.531925 40.72251 14.579885
52.769782 41.381969 15.370672
52.607394 39.238611 16.655003
52.087616 38.455469 17.687365
53.369537 38.579151 15.864216
53.104296 39.99127 15.673166
52.607394 39.238611 16.655003
53.53228 33.42457 16.81415
54.289467 32.720707 15.919466
54.073494 34.210798 16.034188
53.53228 33.42457 16.81415
52.689872 34.090763 17.758159
45.980355 65.182857 -10.664703
45.634077 65.390236 -11.825595
46.275364 64.930256 -9.495756
46.512821 64.599655 -8.266312
46.88261 63.81755 -10.178068
45.980355 65.182857 -10.664703
46.275364 64.930256 -9.495756
48.944163 60.417206 -6.66193
48.165646 61.823139 -7.217071
48.349691 61.431697 -6.00204
49.368321 58.55339 -1.670131
48.604656 59.983173 -2.194006
48.637321 59.450344 -0.915788
51.405186 54.915249 -1.035268
50.804263 55.749245 -0.461906
51.449087 54.37981 0.223137
52.987049 46.779297 0.060828
52.476221 47.243461 -0.899742
52.906347 48.066902 -0.878997
52.987049 46.779297 0.060828
53.571985 46.284135 0.934285
53.194996 39.956265 3.976938
53.891645 40.828328 3.978976
53.119835 38.490799 4.60293
53.194996 39.956265 3.976938
53.876513 37.932579 5.119315
54.500017 38.852491 5.307826
54.470978 37.373071 5.800508
53.119835 38.490799 4.60293
53.876513 37.932579 5.119315
55.606184 34.730904 7.274857
55.556887 36.229114 7.05718
56.043064 35.646195 7.631106
56.105789 32.601647 7.89474
56.405338 33.545198 8.447751
56.418766 31.998861 8.493708
55.586132 33.185949 7.461276
56.105789 32.601647 7.89474
55.606184 34.730904 7.274857
55.586132 33.185949 7.461276
55.445274 32.746752 14.233229
55.043312 32.001291 14.952195
37.710983 69.548004 -18.197466
38.54432 69.934731 -17.39988
39.147297 68.48362 -17.861367
37.710983 69.548004 -18.197466
36.796161 69.08514 -18.98336
37.092779 57.806469 -21.741343
36.91394 59.439087 -21.5835
38.151457 58.679317 -21.228908
36.045533 56.916515 -22.24568
37.092779 57.806469 -21.741343
37.283049 56.156746 -21.891089
34.963881 55.940502 -22.757264
36.045533 56.916515 -22.24568
35.177868 54.292492 -22.912678
33.905946 54.966202 -23.274515
34.963881 55.940502 -22.757264
35.304783 51.155548 -23.112789
34.203083 51.753792 -23.538969
35.221634 52.719948 -23.00375
36.221516 50.629661 -22.592877
37.193394 51.524853 -22.052784
37.091576 50.03281 -22.068091
35.202965 49.663505 -23.128096
35.304783 51.155548 -23.112789
36.221516 50.629661 -22.592877
37.900381 47.553795 -20.527292
38.377691 48.915726 -20.756235
38.804245 48.385788 -19.962507
37.793691 45.668377 -19.437735
38.517414 46.478733 -18.78705
37.98417 45.123253 -18.491221
37.506792 46.17118 -20.338013
37.793691 45.668377 -19.437735
36.973548 44.8157 -20.042183
37.900381 47.553795 -20.527292
37.506792 46.17118 -20.338013
3 0 130 132
3 132 131 31
3 130 131 132
3 133 33 134
3 135 34 136
3 137 136 33
3 135 136 137
3 1 138 140
3 138 36 139
3 138 139 140
3 2 40 38
3 4 43 41
3 141 45 142
3 143 47 144
3 145 144 45
3 143 144 145
3 146 49 147
3 4 52 50
3 4 41 52
3 5 56 54
3 149 148 57
3 6 60 58
3 6 61 60
3 3 64 62
3 7 67 65
3 7 69 67
3 7 71 69
3 8 150 152
3 152 151 72
3 150 151 152
3 9 78 76
3 153 79 154
3 155 154 32
3 153 154 155
3 157 156 79
3 11 158 159
3 11 160 161
3 11 162 163
3 13 80 35
3 13 81 80
3 164 84 165
3 166 165 82
3 164 165 166
3 167 85 168
3 169 168 37
3 167 168 169
3 170 86 171
3 172 171 85
3 170 171 172
3 173 88 174
3 175 174 86
3 173 174 175
3 16 91 89
3 18 92 39
3 18 93 92
3 176 94 177
3 178 177 73
3 176 177 178
3 19 179 181
3 179 95 180
3 179 180 181
3 19 96 95
3 19 182 184
3 184 183 96
3 182 183 184
3 20 185 187
3 185 97 186
3 185 186 187
3 22 98 42
3 22 99 98
3 188 100 189
3 190 189 74
3 188 189 190
3 23 101 44
3 23 102 101
3 23 103 102
3 24 104 46
3 24 105 104
3 191 106 192
3 193 107 194
3 195 194 106
3 193 194 195
3 197 196 107
3 198 108 199
3 200 109 201
3 202 201 108
3 200 201 202
3 25 110 48
3 25 111 110
3 203 112 204
3 205 204 75
3 203 204 205
3 26 113 51
3 26 114 113
3 26 115 114
3 20 116 53
3 20 206 208
3 208 207 116
3 206 207 208
3 21 209 211
3 209 117 210
3 209 210 211
3 213 212 55
3 10 118 77
3 12 214 215
3 217 216 59
3 27 218 219
3 27 220 221
3 17 119 90
3 28 120 63
3 28 121 120
3 14 122 83
3 29 123 66
3 29 124 123
3 29 125 124
3 30 126 68
3 30 127 126
3 30 128 127
3 223 222 70
3 15 129 87
3 225 224 8
3 31 32 9
3 226 32 227
3 228 227 31
3 226 227 228
3 230 229 32
3 33 231 232
3 33 233 235
3 233 11 234
3 233 234 235
3 33 236 238
3 238 237 11
3 236 237 238
3 34 239 241
3 241 240 33
3 239 240 241
3 34 242 243
3 244 35 245
3 36 246 248
3 246 35 247
3 246 247 248
3 36 13 35
3 249 37 250
3 251 37 252
3 254 253 37
3 38 39 16
3 40 39 38
3 40 18 39
3 255 19 256
3 258 257 19
3 41 42 20
3 43 42 41
3 43 22 42
3 259 44 260
3 45 261 263
3 261 44 262
3 261 262 263
3 45 23 44
3 45 46 23
3 47 46 45
3 47 24 46
3 264 48 265
3 49 266 268
3 266 48 267
3 266 267 268
3 49 25 48
3 50 269 271
3 269 51 270
3 269 270 271
3 52 51 50
3 52 26 51
3 52 53 26
3 41 53 52
3 41 20 53
3 54 55 21
3 56 55 54
3 56 272 274
3 274 273 55
3 272 273 274
3 57 275 277
3 277 276 10
3 275 276 277
3 279 278 57
3 58 59 12
3 60 59 58
3 60 280 282
3 282 281 59
3 280 281 282
3 60 283 284
3 61 285 287
3 287 286 60
3 285 286 287
3 61 288 290
3 288 27 289
3 288 289 290
3 62 63 17
3 64 63 62
3 64 28 63
3 65 66 14
3 67 66 65
3 67 29 66
3 67 68 29
3 69 68 67
3 69 30 68
3 69 70 30
3 71 70 69
3 71 291 293
3 293 292 70
3 291 292 293
3 296 295 15
3 294 295 296
3 72 73 2
3 297 73 298
3 299 298 72
3 297 298 299
3 301 300 73
3 303 302 8
3 304 74 305
3 306 305 4
3 304 305 306
3 307 74 308
3 310 309 74
3 311 75 312
3 313 75 314
3 316 315 75
3 317 50 318
3 319 50 320
3 321 4 322
3 323 322 50
3 321 322 323
3 76 77 5
3 78 77 76
3 78 10 77
3 32 78 9
3 79 78 32
3 79 10 78
3 79 57 10
3 324 57 325
3 326 325 79
3 324 325 326
3 328 327 57
3 330 329 11
3 331 12 332
3 35 333 334
3 80 335 337
3 337 336 35
3 335 336 337
3 80 338 340
3 338 12 339
3 338 339 340
3 80 58 12
3 81 58 80
3 81 6 58
3 82 83 3
3 84 83 82
3 84 14 83
3 37 341 343
3 341 84 342
3 341 342 343
3 85 84 37
3 85 14 84
3 85 65 14
3 86 65 85
3 86 7 65
3 86 87 7
3 88 87 86
3 88 15 87
3 344 88 345
3 346 88 347
3 348 15 349
3 350 349 88
3 348 349 350
3 352 351 15
3 354 353 0
3 89 90 1
3 91 90 89
3 91 17 90
3 39 91 16
3 92 91 39
3 92 17 91
3 92 62 17
3 93 62 92
3 93 3 62
3 73 40 2
3 94 40 73
3 94 18 40
3 355 94 356
3 95 357 359
3 357 94 358
3 357 358 359
3 95 18 94
3 95 93 18
3 96 93 95
3 96 3 93
3 96 82 3
3 360 82 361
3 362 361 96
3 360 361 362
3 364 363 82
3 366 365 19
3 97 367 368
3 97 369 371
3 369 21 370
3 369 370 371
3 42 97 20
3 98 97 42
3 98 21 97
3 98 54 21
3 99 54 98
3 99 5 54
3 74 43 4
3 100 43 74
3 100 22 43
3 44 372 374
3 372 100 373
3 372 373 374
3 101 100 44
3 101 22 100
3 101 99 22
3 102 99 101
3 102 5 99
3 102 76 5
3 103 76 102
3 103 9 76
3 46 103 23
3 104 103 46
3 104 9 103
3 104 31 9
3 105 31 104
3 105 0 31
3 375 47 376
3 377 47 378
3 379 24 380
3 381 380 47
3 379 380 381
3 106 382 383
3 106 384 386
3 384 24 385
3 384 385 386
3 106 105 24
3 107 105 106
3 107 0 105
3 107 387 389
3 389 388 0
3 387 388 389
3 391 390 107
3 392 1 393
3 108 394 395
3 108 396 398
3 396 1 397
3 396 397 398
3 108 89 1
3 109 89 108
3 109 16 89
3 48 399 401
3 399 109 400
3 399 400 401
3 110 109 48
3 110 16 109
3 110 38 16
3 111 38 110
3 111 2 38
3 75 402 404
3 402 49 403
3 402 403 404
3 112 49 75
3 112 25 49
3 51 405 407
3 405 112 406
3 405 406 407
3 113 112 51
3 113 25 112
3 113 111 25
3 114 111 113
3 114 2 111
3 114 72 2
3 115 72 114
3 115 8 72
3 53 115 26
3 116 115 53
3 116 8 115
3 116 408 410
3 410 409 8
3 408 409 410
3 412 411 116
3 117 413 414
3 117 415 416
3 55 117 21
3 417 117 418
3 419 418 55
3 417 418 419
3 421 420 117
3 77 56 5
3 118 56 77
3 118 422 424
3 424 423 56
3 422 423 424
3 425 118 426
3 427 426 10
3 425 426 427
3 428 118 429
3 431 430 118
3 433 432 0
3 59 434 436
3 436 435 12
3 434 435 436
3 438 437 59
3 90 36 1
3 119 36 90
3 119 13 36
3 63 119 17
3 120 119 63
3 120 13 119
3 120 81 13
3 121 81 120
3 121 6 81
3 83 64 3
3 122 64 83
3 122 28 64
3 66 122 14
3 123 122 66
3 123 28 122
3 123 121 28
3 124 121 123
3 124 6 121
3 124 61 6
3 125 61 124
3 125 27 61
3 68 125 29
3 126 125 68
3 126 27 125
3 126 439 441
3 441 440 27
3 439 440 441
3 127 442 444
3 444 443 126
3 442 443 444
3 127 445 446
3 127 447 449
3 447 34 448
3 447 448 449
3 128 34 127
3 128 450 452
3 452 451 34
3 450 451 452
3 70 128 30
3 453 128 454
3 455 454 70
3 453 454 455
3 458 457 128
3 456 457 458
3 87 71 7
3 129 71 87
3 129 459 461
3 461 460 71
3 459 460 461
3 462 129 463
3 464 463 15
3 462 463 464
3 465 129 466
3 465 466 467
3 469 468 129
