ply
format ascii 1.0
element vertex 305
property float x
property float y
property float z
element face 289
property list uchar int vertex_index
end_header
56.645882 -68.257851 40.761032
46.346249 -66.273041 50.361885
57.449577 -61.059349 45.779381
60.393517 -61.075497 38.078217
53.442974 -68.310852 48.220749
57.561653 -64.869949 43.769562
58.519356 -64.600533 39.451759
50.302826 -67.533218 49.890617
50.974285 -72.091003 49.34565
47.724113 -71.134811 50.944443
48.552753 -62.747417 49.219048
52.484818 -63.892445 48.686943
42.041367 -64.681976 50.499405
43.778881 -69.619919 51.440033
55.561111 -68.550735 45.084
53.295826 -72.413338 46.243
44.697296 -74.57531 51.788712
54.443855 -60.302685 47.620789
55.550507 -64.621498 46.940472
56.839844 -67.918373 38.320145
56.005096 -69.350143 36.334148
55.937759 -69.817238 38.891777
57.212036 -66.612251 42.394299
58.164543 -64.801773 41.723602
57.588112 -66.406433 40.123581
57.741177 -66.070923 37.694008
48.404037 -66.956314 50.23365
49.070816 -69.345352 50.443703
47.163193 -68.717926 50.77491
46.378548 -62.058411 49.245323
47.486954 -64.52523 49.793236
49.545349 -65.167648 49.657608
57.002655 -58.986401 46.493782
58.364452 -59.317486 45.344711
54.634178 -68.498398 46.828079
54.471436 -70.460297 45.690166
53.494987 -70.399879 47.431179
49.564911 -73.990562 49.816208
42.35347 -71.18605 51.962769
44.356075 -72.099564 51.744446
42.811523 -73.678741 52.181778
52.5952 -59.773174 48.041924
53.106079 -66.142288 48.621353
54.142277 -64.314148 47.991844
54.531944 -66.451134 47.587002
55.693771 -66.633621 46.183662
57.644806 -63.020798 44.888416
58.565495 -61.26358 44.311157
58.501373 -63.090733 43.11483
59.450264 -62.828037 38.764351
58.657753 -64.265396 37.023575
51.993298 -67.987854 49.237709
52.263283 -70.193848 48.81205
50.782394 -69.840927 49.810532
49.456909 -71.69014 50.325653
48.010925 -73.521317 50.779282
41.208317 -75.14418 52.582756
51.615417 -61.563286 48.512146
50.607384 -63.365509 49.069534
51.433689 -65.711563 49.29567
44.19717 -65.505707 50.402771
45.112392 -67.976288 50.90995
42.990921 -67.144043 50.985703
59.471039 -59.525528 43.819466
56.227386 -68.469742 43.039429
55.19548 -70.379425 43.640327
54.094769 -72.341721 44.188515
52.256214 -72.33168 47.978817
45.812653 -70.438141 51.276794
46.261684 -72.885559 51.392784
43.05806 -76.172371 52.123169
55.396687 -58.544044 47.270966
56.070808 -60.735508 46.880325
53.480408 -62.08675 48.110115
55.123764 -62.510803 47.394386
56.517426 -62.824959 46.323006
56.692253 -64.808395 45.524944
56.585663 -66.687729 44.436104
46.916601 -65.399135 50.077561
46.404055 -64.165348 49.806916
45.833703 -65.039254 50.09124
60.670376 -60.306444 38.931591
60.205355 -61.176538 39.239624
60.880507 -60.203712 37.740818
60.670376 -60.306444 38.931591
60.489767 -60.904047 36.841343
60.880507 -60.203712 37.740818
49.496201 -75.118282 49.353169
48.801062 -74.933132 50.017666
41.834274 -73.165237 52.333545
42.582497 -72.432395 52.072274
41.605248 -71.918892 52.224041
51.578789 -59.467723 48.129509
52.076825 -58.578383 47.971901
55.584396 -70.029319 35.264887
55.585468 -70.323436 36.579259
58.807495 -63.814284 40.251732
58.630088 -63.914903 41.387653
58.341949 -64.701153 40.587681
58.98481 -63.714285 39.108055
59.272949 -62.928036 39.908028
58.807495 -63.814284 40.251732
57.726112 -65.840187 36.43234
57.292731 -66.763759 36.73854
47.973203 -61.514105 48.961925
46.886101 -61.169601 48.975063
47.465651 -62.402914 49.232185
49.060808 -61.851062 48.947426
47.973203 -61.514105 48.961925
49.580069 -63.056463 49.144291
50.088124 -62.160108 48.872669
49.060808 -61.851062 48.947426
42.584004 -63.858709 50.18784
41.517773 -63.46439 50.297661
43.119269 -65.093841 50.451088
43.661905 -64.270575 50.139522
42.584004 -63.858709 50.18784
59.444044 -60.432178 43.160325
59.018267 -60.394554 44.065311
58.991272 -61.301204 43.40617
53.098327 -73.383488 45.463783
53.497799 -73.347679 44.43654
53.695297 -72.37753 45.215758
45.575039 -74.944931 51.478477
46.357233 -74.100055 51.280513
45.47949 -73.730435 51.590748
42.218689 -76.9035 52.248855
42.133189 -75.658276 52.352963
41.293818 -76.389404 52.478649
54.920271 -59.423364 47.445878
54.483517 -58.274141 47.493555
54.007101 -59.153461 47.668467
56.42247 -68.634258 37.327146
56.42469 -68.403369 36.058611
56.842064 -67.687485 37.051609
55.5518 -70.556984 37.858074
55.585468 -70.323436 36.579259
55.971428 -69.583691 37.612962
56.842064 -67.687485 37.051609
57.292731 -66.763759 36.73854
57.29051 -66.994648 38.007076
45.849852 -62.931939 49.532959
45.267865 -61.691668 49.261543
46.932751 -63.291821 49.519279
45.849852 -62.931939 49.532959
46.404055 -64.165348 49.806916
41.464909 -65.465644 50.824658
41.008105 -64.257667 50.643528
41.008105 -64.257667 50.643528
41.517773 -63.46439 50.297661
57.471007 -58.121537 46.3759
56.680876 -57.897778 46.793762
58.151905 -58.287079 45.801364
57.471007 -58.121537 46.3759
57.683554 -59.151944 45.919246
58.823595 -58.453159 45.188885
58.151905 -58.287079 45.801364
50.233485 -74.137676 49.141289
50.938171 -73.187896 48.90601
50.269598 -73.040783 49.580929
50.233485 -74.137676 49.141289
49.496201 -75.118282 49.353169
53.082774 -58.888706 47.879035
52.076825 -58.578383 47.971901
53.519527 -60.037929 47.831356
54.007101 -59.153461 47.668467
53.082774 -58.888706 47.879035
55.963409 -69.061138 35.033445
56.42469 -68.403369 36.058611
55.963409 -69.061138 35.033445
55.584396 -70.029319 35.264887
58.959211 -62.214781 42.808006
58.991272 -61.301204 43.40617
58.533434 -62.177156 43.712993
58.798503 -63.059383 42.083267
58.332958 -63.946253 42.419216
58.630088 -63.914903 41.387653
58.959211 -62.214781 42.808006
58.798503 -63.059383 42.083267
59.733728 -62.052808 39.582691
59.272949 -62.928036 39.908028
59.921891 -61.951767 38.421284
60.205355 -61.176538 39.239624
59.733728 -62.052808 39.582691
59.525882 -62.658917 37.543577
59.997509 -61.782646 37.20051
59.921891 -61.951767 38.421284
59.129627 -63.377596 36.673189
59.525882 -62.658917 37.543577
59.054008 -63.546717 37.893963
58.640785 -64.032509 35.763535
59.129627 -63.377596 36.673189
58.1844 -64.937423 36.097124
58.199465 -65.16816 37.358791
57.726112 -65.840187 36.43234
58.640785 -64.032509 35.763535
58.1844 -64.937423 36.097124
48.024068 -74.69851 50.499203
48.801062 -74.933132 50.017666
48.787918 -73.755939 50.297745
40.263559 -74.566219 52.792965
41.032671 -73.897956 52.534035
40.394497 -75.800636 52.755802
40.263559 -74.566219 52.792965
41.293818 -76.389404 52.478649
40.394497 -75.800636 52.755802
45.767212 -60.81292 48.983669
45.267865 -61.691668 49.261543
45.767212 -60.81292 48.983669
46.886101 -61.169601 48.975063
50.59214 -61.258997 48.593975
51.088898 -60.36278 48.36462
51.111401 -62.464398 48.79084
50.59214 -61.258997 48.593975
50.088124 -62.160108 48.872669
41.939686 -66.696678 51.067807
42.516144 -65.91301 50.742554
41.464909 -65.465644 50.824658
42.345211 -67.924675 51.282513
41.939686 -66.696678 51.067807
42.739191 -69.162613 51.509678
43.384901 -68.381981 51.212868
42.345211 -67.924675 51.282513
42.026485 -69.945678 51.771046
43.066175 -70.402985 51.701401
42.739191 -69.162613 51.509678
41.343593 -70.679241 52.080749
42.026485 -69.945678 51.771046
41.605248 -71.918892 52.224041
41.343593 -70.679241 52.080749
44.759163 -64.655586 50.111683
43.661905 -64.270575 50.139522
45.27171 -65.889374 50.382328
45.833703 -65.039254 50.09124
44.759163 -64.655586 50.111683
59.376888 -58.557181 44.426262
58.823595 -58.453159 45.188885
58.917745 -59.421507 44.582088
59.898415 -59.563272 42.883482
59.444044 -60.432178 43.160325
59.927278 -58.660019 43.619879
59.898415 -59.563272 42.883482
59.376888 -58.557181 44.426262
59.927278 -58.660019 43.619879
60.489767 -60.904047 36.841343
59.997509 -61.782646 37.20051
55.952606 -69.316341 42.19463
56.161854 -69.210396 41.055431
56.436634 -68.363797 41.90023
55.436653 -70.271183 42.495079
55.952606 -69.316341 42.19463
55.711433 -69.424583 43.339878
54.92836 -71.252296 42.762508
55.436653 -70.271183 42.495079
54.378005 -72.233445 43.036602
54.92836 -71.252296 42.762508
54.645125 -71.360573 43.914421
53.831194 -73.243145 43.278835
54.378005 -72.233445 43.036602
53.831194 -73.243145 43.278835
53.497799 -73.347679 44.43654
51.579136 -73.308235 48.222594
51.61525 -72.211342 48.662233
50.938171 -73.187896 48.90601
52.13513 -73.367733 47.359466
51.579136 -73.308235 48.222594
52.654936 -73.408562 46.491558
52.77602 -72.372509 47.110909
52.13513 -73.367733 47.359466
53.098327 -73.383488 45.463783
52.654936 -73.408562 46.491558
47.231853 -74.417935 50.973762
47.136305 -73.203438 51.086033
46.357233 -74.100055 51.280513
48.024068 -74.69851 50.499203
47.231853 -74.417935 50.973762
42.00992 -74.411461 52.382267
41.834274 -73.165237 52.333545
41.032671 -73.897956 52.534035
43.080591 -77.41412 51.90688
42.218689 -76.9035 52.248855
43.931776 -76.606255 51.801823
43.080591 -77.41412 51.90688
44.751394 -75.807724 51.634594
43.877678 -75.373841 51.95594
43.931776 -76.606255 51.801823
45.575039 -74.944931 51.478477
44.751394 -75.807724 51.634594
54.979157 -57.402261 47.423874
54.483517 -58.274141 47.493555
55.877892 -57.676599 47.182354
54.979157 -57.402261 47.423874
56.199671 -58.765223 46.882374
56.680876 -57.897778 46.793762
55.877892 -57.676599 47.182354
52.105308 -60.66823 48.277035
51.578789 -59.467723 48.129509
51.088898 -60.36278 48.36462
55.807793 -69.99009 40.120804
56.291821 -69.037544 39.826404
56.161854 -69.210396 41.055431
55.474007 -70.795246 39.1492
55.807793 -69.99009 40.120804
55.5518 -70.556984 37.858074
55.474007 -70.795246 39.1492
3 0 21 19
3 0 24 22
3 0 19 24
3 1 28 26
3 1 78 80
3 78 30 79
3 78 79 80
3 1 26 30
3 2 33 32
3 3 81 82
3 3 83 84
3 3 85 86
3 4 36 34
3 88 87 37
3 89 40 90
3 91 90 38
3 89 90 91
3 92 41 93
3 4 44 42
3 4 34 44
3 95 94 20
3 5 48 46
3 6 96 98
3 98 97 23
3 96 97 98
3 6 99 101
3 99 49 100
3 99 100 101
3 6 50 49
3 103 102 25
3 7 53 51
3 9 54 27
3 9 55 54
3 10 104 106
3 106 105 29
3 104 105 106
3 10 107 108
3 10 109 111
3 109 58 110
3 109 110 111
3 7 59 31
3 7 51 59
3 12 62 60
3 12 112 113
3 12 114 116
3 114 60 115
3 114 115 116
3 117 63 118
3 119 118 47
3 117 118 119
3 14 65 64
3 15 66 35
3 15 120 122
3 122 121 66
3 120 121 122
3 8 67 52
3 13 68 61
3 16 69 39
3 16 123 125
3 125 124 69
3 123 124 125
3 126 70 127
3 128 127 56
3 126 127 128
3 17 129 131
3 129 71 130
3 129 130 131
3 17 72 71
3 11 73 57
3 18 74 43
3 18 75 74
3 18 76 75
3 14 77 45
3 14 64 77
3 19 132 134
3 132 20 133
3 132 133 134
3 21 20 19
3 21 135 137
3 137 136 20
3 135 136 137
3 22 23 5
3 24 23 22
3 24 6 23
3 24 25 6
3 19 25 24
3 19 138 140
3 140 139 25
3 138 139 140
3 26 27 7
3 28 27 26
3 28 9 27
3 141 29 142
3 30 143 145
3 143 29 144
3 143 144 145
3 30 10 29
3 30 31 10
3 26 31 30
3 26 7 31
3 147 146 12
3 148 12 149
3 32 150 151
3 33 152 154
3 154 153 32
3 152 153 154
3 33 155 156
3 34 35 14
3 36 35 34
3 36 15 35
3 37 157 159
3 159 158 8
3 157 158 159
3 161 160 37
3 38 39 13
3 40 39 38
3 40 16 39
3 41 162 163
3 41 164 166
3 164 17 165
3 164 165 166
3 42 43 11
3 44 43 42
3 44 18 43
3 44 45 18
3 34 45 44
3 34 14 45
3 20 167 168
3 170 169 20
3 46 47 2
3 48 47 46
3 48 171 173
3 173 172 47
3 171 172 173
3 23 48 5
3 174 48 175
3 176 175 23
3 174 175 176
3 178 177 48
3 49 179 180
3 49 181 183
3 181 3 182
3 181 182 183
3 49 184 186
3 186 185 3
3 184 185 186
3 50 187 189
3 189 188 49
3 187 188 189
3 50 190 191
3 25 50 6
3 192 50 193
3 194 193 25
3 192 193 194
3 196 195 50
3 51 52 4
3 53 52 51
3 53 8 52
3 27 53 7
3 54 53 27
3 54 8 53
3 54 37 8
3 55 37 54
3 55 197 199
3 199 198 37
3 197 198 199
3 200 56 201
3 202 56 203
3 205 204 56
3 29 206 207
3 209 208 29
3 210 57 211
3 58 212 214
3 212 57 213
3 212 213 214
3 58 11 57
3 31 58 10
3 59 58 31
3 59 11 58
3 59 42 11
3 51 42 59
3 51 4 42
3 60 61 1
3 62 61 60
3 62 13 61
3 215 62 216
3 217 216 12
3 215 216 217
3 218 62 219
3 220 13 221
3 222 221 62
3 220 221 222
3 223 38 224
3 225 224 13
3 223 224 225
3 226 38 227
3 229 228 38
3 60 230 231
3 60 232 234
3 232 1 233
3 232 233 234
3 47 33 2
3 63 33 47
3 63 235 237
3 237 236 33
3 235 236 237
3 238 63 239
3 240 63 241
3 243 242 63
3 245 244 3
3 64 246 248
3 248 247 0
3 246 247 248
3 65 249 251
3 251 250 64
3 249 250 251
3 65 252 253
3 35 65 14
3 66 65 35
3 66 254 256
3 256 255 65
3 254 255 256
3 66 257 258
3 260 259 66
3 52 36 4
3 67 36 52
3 67 15 36
3 261 67 262
3 263 262 8
3 261 262 263
3 264 67 265
3 266 15 267
3 268 267 67
3 266 267 268
3 270 269 15
3 61 28 1
3 68 28 61
3 68 9 28
3 39 68 13
3 69 68 39
3 69 9 68
3 69 55 9
3 271 55 272
3 273 272 69
3 271 272 273
3 275 274 55
3 56 276 278
3 276 40 277
3 276 277 278
3 70 40 56
3 70 16 40
3 279 70 280
3 281 70 282
3 283 16 284
3 285 284 70
3 283 284 285
3 287 286 16
3 71 288 289
3 71 290 291
3 71 292 294
3 292 32 293
3 292 293 294
3 72 32 71
3 72 2 32
3 57 295 297
3 295 41 296
3 295 296 297
3 73 41 57
3 73 17 41
3 43 73 11
3 74 73 43
3 74 17 73
3 74 72 17
3 75 72 74
3 75 2 72
3 75 46 2
3 76 46 75
3 76 5 46
3 45 76 18
3 77 76 45
3 77 5 76
3 77 22 5
3 64 22 77
3 64 0 22
3 298 21 299
3 300 299 0
3 298 299 300
3 301 21 302
3 304 303 21
