ply
format ascii 1.0
element vertex 751
property float x
property float y
property float z
element face 796
property list uchar int vertex_index
end_header
-56.372734 -58.544769 50.801025
-31.693153 -66.990677 53.388084
-43.988167 -62.895863 47.434593
-27.519571 -84.422577 45.103256
-51.03627 -60.906868 49.464764
-29.282623 -76.265884 51.632893
-36.900009 -64.658722 48.27784
-35.113655 -75.167343 49.291267
-52.481033 -51.332165 49.960815
-59.704243 -51.395832 49.852551
-38.383617 -54.800991 49.298542
-44.84671 -52.58292 48.166451
-64.490814 -53.032997 44.206909
-33.277184 -85.583252 47.480282
-54.071205 -59.690575 50.454288
-29.880175 -68.496178 56.952164
-28.278509 -72.792755 55.492668
-30.386305 -71.66468 52.740482
-40.319141 -63.752697 47.329033
-39.630035 -69.003937 47.795219
-43.464146 -68.145523 47.707409
-54.012787 -46.708389 49.280499
-34.16259 -55.316704 59.994633
-35.367405 -53.365047 56.073906
-36.026451 -56.254658 51.64119
-36.989437 -51.527626 52.707569
-45.819389 -47.527622 48.46302
-48.607845 -51.831539 48.946651
-61.761833 -47.250565 48.163292
-62.526024 -52.045017 47.694038
-64.431473 -48.097107 45.722828
-25.706051 -80.528801 49.710033
-22.948151 -81.137321 50.685612
-24.645496 -84.140076 44.789719
-34.170563 -80.515259 49.257622
-47.628677 -61.975304 48.293869
-26.900736 -76.840057 53.253704
-28.345201 -80.531563 49.261917
-33.988754 -65.716232 50.359692
-32.917358 -70.689163 50.352173
-36.028374 -69.822289 48.653988
-54.85593 -55.447693 50.87421
-57.800377 -55.387192 50.694778
-56.262386 -51.156418 50.495491
-58.139378 -46.802513 49.275806
-33.082115 -62.42033 54.109337
-35.069321 -60.935467 50.790714
-37.682793 -59.689533 48.542889
-40.849228 -58.638035 47.547562
-41.375538 -53.573799 48.170269
-44.357025 -57.716244 47.709957
-47.978943 -56.864769 48.68713
-51.536098 -56.068302 49.957664
-60.385139 -55.912052 48.893517
-62.495579 -56.710407 45.557098
-64.043327 -57.637207 41.189159
-31.952684 -75.76078 50.268879
-31.088272 -80.663597 49.169453
-30.330414 -85.147995 46.169052
-29.694 -89.24324 41.083267
-56.290867 -60.148129 50.376442
-57.231644 -60.872608 49.626614
-57.262058 -58.956036 50.377106
-55.372849 -59.07365 50.732574
-55.14505 -61.070812 50.254097
-30.744452 -67.715706 55.134109
-29.996126 -69.966164 54.653362
-31.016977 -69.320969 53.078068
-42.14077 -63.325333 47.264442
-41.868462 -65.940659 47.378128
-43.758259 -65.51078 47.489895
-36.106483 -52.428352 54.297237
-47.770939 -47.185528 48.562069
-62.76321 -45.203026 47.001526
-63.240185 -47.623722 47.103275
-64.16024 -45.623085 45.860867
-26.552221 -82.337814 47.318264
-25.161026 -82.309311 47.396553
-26.098387 -84.179718 44.824593
-27.132235 -86.330795 42.406837
-49.370682 -61.46233 48.870979
-49.198463 -63.989853 48.650394
-50.851898 -63.364426 49.145012
-28.659777 -74.406494 53.380268
-27.562292 -74.860794 54.507454
-28.075191 -76.530907 52.419556
-27.534794 -78.556747 51.124092
-28.797377 -78.452148 50.652523
-35.369183 -65.163353 49.18251
-34.88303 -67.677429 49.236938
-36.471416 -67.21315 48.394547
-53.743542 -53.456234 50.513988
-55.487122 -53.321121 50.787403
-54.397766 -51.196686 50.335823
-54.982895 -44.464352 48.679028
-56.110321 -46.714394 49.384682
-57.125763 -44.524025 48.620247
-59.181335 -44.661503 48.359013
-34.573158 -59.352356 52.74778
-37.120441 -55.500248 50.323112
-36.718563 -57.890591 49.877037
-38.034458 -57.24427 48.880215
-39.208351 -59.143337 47.888084
-39.500465 -56.650337 48.200253
-43.439484 -50.500336 48.312183
-43.063347 -53.048447 48.043755
-42.792507 -55.604126 47.759884
-44.565041 -55.14407 47.941624
-46.166008 -57.284374 48.125912
-46.387642 -54.721722 48.328209
-50.542046 -51.547779 49.466236
-50.095333 -53.98843 49.454338
-51.9384 -53.68882 50.0373
-53.238083 -55.718372 50.504944
-58.715637 -53.435043 50.374199
-59.141815 -55.602413 50.005325
-60.163078 -53.671982 49.578838
-63.62516 -52.503944 46.088623
-62.603329 -54.411293 46.819206
-63.557819 -54.884037 44.952911
-63.340778 -57.168144 43.465122
-64.323425 -55.399906 42.853668
-33.928806 -72.854858 49.602261
-32.420883 -73.226692 50.372414
-33.467915 -75.481323 49.726082
-33.708439 -83.101776 48.641911
-32.577461 -80.642166 49.20163
-32.158649 -83.100769 48.291557
-30.693533 -82.965225 47.941017
-31.77322 -85.440887 46.82679
-31.133974 -89.764938 42.203979
-52.610275 -60.311886 50.012794
-52.40139 -62.668964 49.607189
-53.8377 -61.904087 49.989906
-29.049683 -69.327042 58.78059
-29.05378 -70.661255 56.284897
-29.298599 -72.207001 54.094429
-29.80932 -73.992004 52.293083
-38.560226 -64.192551 47.660744
-38.186874 -66.777176 47.807732
-39.998283 -66.357651 47.474449
-41.537521 -68.586563 47.666386
-51.139252 -49.142212 49.334572
-53.173782 -49.001858 49.710339
-51.897301 -46.782536 49.049465
-34.672836 -53.028755 60.480362
-34.734879 -54.329865 57.989746
-34.84613 -55.657993 55.535076
-35.097134 -57.062698 53.222843
-35.591515 -54.758759 53.742718
-36.482418 -53.903278 52.156971
-37.540905 -53.097042 50.819374
-43.973309 -47.970501 48.543579
-45.250057 -50.039593 48.346825
-46.702171 -52.177238 48.488369
-47.151749 -49.660423 48.572056
-49.122669 -49.361816 48.926273
-60.731342 -49.322598 49.116772
-61.210079 -51.672428 48.962357
-62.247337 -49.646626 48.13929
-63.52504 -50.069565 46.811104
-64.533997 -50.582203 45.175392
-25.011732 -78.997574 52.284782
-23.690304 -79.4245 52.987217
-24.350471 -80.730606 50.122864
-23.733629 -82.493706 47.678207
-34.643471 -77.857727 49.429268
-35.868954 -80.266663 49.315147
-35.351784 -82.939011 48.952541
-45.827072 -62.450043 47.795418
-25.339762 -75.96225 56.779591
-27.276857 -73.428619 56.893135
-26.470261 -75.372711 55.647034
-25.717218 -77.225349 54.124237
-26.284569 -78.722725 51.666203
-27.029203 -80.482834 49.430187
-27.920752 -82.509949 47.410439
-32.766235 -66.324188 51.77726
-32.157063 -68.725922 51.615974
-33.442596 -68.179428 50.320839
-34.400673 -70.245346 49.402157
-35.57552 -72.479561 48.988255
-37.781429 -69.411812 48.119289
-55.759266 -57.211555 50.967381
-56.995094 -57.162827 50.83112
-56.374363 -55.323521 50.967262
-57.149986 -53.312218 50.764809
-58.042801 -51.222229 50.354694
-55.192673 -48.944126 49.959961
-57.155983 -48.974693 49.991768
-59.018372 -49.099373 49.728043
-60.042957 -46.978683 48.88343
-61.082977 -44.884567 47.831924
-31.519945 -65.476578 55.589733
-33.599892 -56.320389 62.040092
-32.392483 -64.690048 53.723766
-33.390308 -63.965717 52.011799
-34.538391 -63.304279 50.513084
-35.845722 -62.702801 49.275219
-35.564899 -58.592564 51.176422
-36.297733 -60.284657 49.515305
-37.305954 -62.155048 48.330547
-38.899765 -61.652096 47.694122
-40.598591 -61.183086 47.363144
-42.369099 -60.736084 47.317719
-38.041065 -50.673035 51.345707
-38.775188 -52.346493 49.759602
-40.180538 -51.658863 48.992451
-39.807896 -54.158367 48.581856
-41.095261 -56.104954 47.833786
-42.575554 -58.165096 47.500435
-44.177528 -60.299019 47.522682
-45.993134 -59.860783 47.930035
-47.790192 -59.412556 48.481796
-49.548004 -58.949535 49.112713
-48.237961 -54.335739 48.856903
-49.775547 -56.457035 49.323574
-51.248581 -58.473495 49.752522
-52.871845 -57.996964 50.327393
-54.389008 -57.551704 50.76025
-58.174026 -57.398384 50.263645
-59.315754 -57.732121 49.255733
-60.38311 -58.10614 47.833801
-61.466644 -54.002399 48.38147
-61.508118 -56.286629 47.391075
-61.354446 -58.502281 46.053055
-62.222015 -58.91161 43.987541
-62.985558 -59.321243 41.716087
-65.224396 -46.142044 44.432003
-65.303375 -48.659431 44.065788
-65.257355 -51.165092 43.291458
-65.117599 -53.606079 42.116234
-64.60791 -58.084183 38.792618
-22.305849 -80.034935 53.779778
-31.583164 -71.160416 51.477776
-31.052813 -73.602646 51.279106
-30.564119 -76.016747 50.909882
-33.016716 -78.090179 49.639072
-31.509012 -78.252594 49.910843
-30.110617 -78.363602 50.248383
-29.686871 -80.611206 49.182423
-29.290941 -82.745499 47.632633
-28.922256 -84.778046 45.572357
-34.418724 -87.998917 46.595352
-32.897068 -87.937561 45.723034
-31.431889 -87.656494 44.783478
-30.000656 -87.227295 43.859322
-28.575565 -86.74791 43.038403
-63.934223 -44.408308 45.757336
-63.461725 -45.413055 46.431196
-63.235708 -44.198279 46.327665
-56.592768 -43.401627 48.273449
-56.054329 -44.494188 48.649637
-55.521333 -43.37179 48.30284
-57.667355 -43.454315 48.155102
-56.592768 -43.401627 48.273449
-34.443672 -58.637358 53.886549
-34.151083 -59.761389 53.647167
-57.693623 -61.160097 49.034105
-57.752615 -60.139195 49.559975
-55.037515 -62.139688 49.924413
-55.637932 -61.59637 49.958285
-43.276308 -69.472 47.888492
-42.312995 -69.69252 47.867981
-42.500833 -68.366043 47.686898
-50.851478 -46.861025 48.915645
-51.518276 -47.962374 49.192019
-50.472454 -48.040863 49.058199
-34.968093 -51.871046 60.756371
-34.622884 -52.371133 61.705637
-35.051142 -53.847456 57.031826
-35.009829 -53.17994 58.260773
-35.326092 -52.69753 57.302853
-44.896349 -47.749061 48.503299
-44.341019 -46.723568 48.638742
-45.264059 -46.502128 48.598463
-49.464163 -48.150665 48.85405
-48.446804 -48.273672 48.744171
-48.788297 -47.062521 48.671948
-50.472454 -48.040863 49.058199
-50.130961 -49.252014 49.130423
-49.464163 -48.150665 48.85405
-23.902743 -84.256157 44.913201
-23.44681 -83.432972 46.357444
-24.189563 -83.316891 46.233963
-24.397004 -85.123536 43.394928
-23.902743 -84.256157 44.913201
-36.764449 -80.080154 49.333056
-36.126408 -78.906425 49.293806
-35.935635 -84.09507 48.747226
-36.217258 -82.771397 49.070161
-35.105235 -84.232979 48.51095
-35.935635 -84.09507 48.747226
-47.540397 -63.262341 48.234314
-46.639595 -63.49971 47.985089
-46.727874 -62.212674 48.044643
-49.092433 -65.256645 48.57258
-49.922516 -64.912437 48.746234
-52.296222 -63.862444 49.385227
-53.009666 -63.425356 49.515175
-25.79197 -75.042809 57.521241
-25.238864 -75.424873 58.179625
-27.777683 -73.110687 56.192902
-27.708225 -72.417046 57.406122
-28.209051 -72.099114 56.705889
-60.666161 -43.725051 47.548924
-60.132156 -44.773035 48.095468
-59.715339 -43.61352 47.812468
-61.594928 -43.858139 47.214834
-60.666161 -43.725051 47.548924
-31.546811 -64.811638 56.839144
-31.126551 -65.8988 56.566832
-33.881241 -55.818546 61.017363
-33.83209 -55.176167 62.246864
-34.113439 -54.674324 61.224135
-32.684168 -62.837771 55.078701
-33.043097 -61.732596 55.313383
-32.737299 -63.555189 53.916551
-32.339352 -63.97263 54.885915
-32.684168 -62.837771 55.078701
-34.803856 -62.119873 50.651899
-34.269756 -62.475481 51.42531
-34.535222 -61.291075 51.564125
-38.65662 -50.274994 50.793434
-38.36787 -49.452148 51.622839
-39.023681 -51.111723 50.000382
-38.408127 -51.509764 50.552655
-38.65662 -50.274994 50.793434
-40.778038 -52.616331 48.58136
-40.961351 -51.350141 48.754286
-41.558852 -52.307609 48.343195
-63.845688 -58.67276 40.249285
-63.316803 -59.514778 40.512749
-63.514443 -58.479225 41.452623
-65.559639 -45.177135 43.693026
-65.10611 -44.898861 44.431645
-65.441352 -43.933953 43.692667
-65.572151 -48.973417 43.127411
-65.613411 -47.702344 43.412149
-65.549141 -50.226247 42.740246
-65.280365 -49.912261 43.678623
-65.572151 -48.973417 43.127411
-65.314937 -53.896076 40.997425
-65.405532 -52.696666 41.669168
-65.009689 -54.767147 41.352974
-65.314937 -53.896076 40.997425
-64.826363 -58.274441 37.557571
-64.955578 -57.255783 38.504897
-64.629631 -59.251402 36.572342
-64.411179 -59.061144 37.807389
-64.826363 -58.274441 37.557571
-34.997665 -89.112663 46.055421
-35.212744 -87.900254 46.961952
-32.737871 -89.04937 44.553595
-33.475447 -89.136544 45.121084
-32.005282 -88.908837 44.083816
-32.164479 -87.797027 45.253256
-32.737871 -89.04937 44.553595
-28.963878 -88.979766 40.606258
-28.404661 -87.732101 41.583827
-29.134783 -87.995575 42.060835
-56.761256 -60.510368 50.001528
-56.681229 -61.497269 49.644543
-56.210841 -61.135029 50.019457
-57.767822 -59.180909 49.935221
-57.752615 -60.139195 49.559975
-57.246851 -59.914322 50.00186
-56.210841 -61.135029 50.019457
-55.637932 -61.59637 49.958285
-55.717958 -60.609471 50.315269
-35.65896 -52.202944 56.363222
-35.326092 -52.69753 57.302853
-36.028499 -51.734596 55.474888
-35.736944 -52.896699 55.185572
-35.65896 -52.202944 56.363222
-36.411819 -51.248852 54.593996
-36.028499 -51.734596 55.474888
-36.853296 -50.798488 53.799162
-36.54796 -51.977989 53.502403
-36.411819 -51.248852 54.593996
-46.203552 -46.296339 48.487509
-45.264059 -46.502128 48.598463
-47.179327 -46.125292 48.537033
-46.795164 -47.356575 48.512545
-46.203552 -46.296339 48.487509
-48.176016 -45.977282 48.509596
-47.179327 -46.125292 48.537033
-48.788297 -47.062521 48.671948
-48.176016 -45.977282 48.509596
-25.877557 -85.133163 43.432831
-25.151111 -85.113342 43.415394
-25.371941 -84.159897 44.807156
-26.394481 -86.208702 42.223953
-25.877557 -85.133163 43.432831
-26.615311 -85.255257 43.615715
-26.934909 -87.320854 40.924257
-26.394481 -86.208702 42.223953
-50.749233 -64.599724 48.993544
-49.922516 -64.912437 48.746234
-50.02518 -63.677139 48.897703
-39.420581 -70.347611 48.020481
-40.384213 -70.133446 47.946201
-58.69514 -43.523054 48.024485
-58.153549 -44.592764 48.48963
-57.667355 -43.454315 48.155102
-59.715339 -43.61352 47.812468
-58.69514 -43.523054 48.024485
-33.902851 -56.442232 59.766083
-34.18705 -55.956366 58.739573
-33.405562 -61.295376 54.327946
-33.043097 -61.732596 55.313383
-33.541618 -62.033507 53.223436
-33.405562 -61.295376 54.327946
-34.28714 -60.49952 52.542658
-34.151083 -59.761389 53.647167
-34.82124 -60.143912 51.769247
-34.535222 -61.291075 51.564125
-34.28714 -60.49952 52.542658
-42.590824 -50.770878 48.414152
-42.846525 -49.507233 48.580394
-42.402756 -52.044933 48.279938
-42.590824 -50.770878 48.414152
-43.251416 -51.774392 48.177969
-42.219442 -53.311123 48.107012
-41.558852 -52.307609 48.343195
-42.402756 -52.044933 48.279938
-22.221792 -81.457016 51.046553
-22.607951 -82.037537 49.434956
-31.723658 -91.018783 41.372581
-31.856324 -89.963059 42.794067
-30.996827 -90.785385 40.698206
-31.723658 -91.018783 41.372581
-30.27684 -90.524536 40.13785
-30.413987 -89.504089 41.643623
-30.996827 -90.785385 40.698206
-29.53807 -90.248931 39.526085
-30.27684 -90.524536 40.13785
-57.138027 -61.891428 49.133438
-56.681229 -61.497269 49.644543
-57.138027 -61.891428 49.133438
-57.693623 -61.160097 49.034105
-53.727821 -63.042917 49.706533
-53.009666 -63.425356 49.515175
-53.119545 -62.286525 49.798547
-54.38384 -62.556326 49.792318
-54.491375 -61.487449 50.122001
-55.037515 -62.139688 49.924413
-53.727821 -63.042917 49.706533
-54.38384 -62.556326 49.792318
-28.594638 -70.366257 58.349849
-28.623829 -69.764924 59.672909
-28.596687 -71.033364 57.102003
-28.594638 -70.366257 58.349849
-29.051732 -69.994148 57.532743
-28.666145 -71.727005 55.888783
-28.209051 -72.099114 56.705889
-28.596687 -71.033364 57.102003
-41.337955 -69.924759 47.881785
-40.384213 -70.133446 47.946201
-40.583778 -68.79525 47.730803
-41.337955 -69.924759 47.881785
-42.312995 -69.69252 47.867981
-51.281643 -45.680537 48.782016
-50.851478 -46.861025 48.915645
-52.355118 -45.631609 48.832414
-51.281643 -45.680537 48.782016
-53.412861 -45.594535 48.947931
-52.955044 -46.745463 49.164982
-52.355118 -45.631609 48.832414
-53.897915 -44.472517 48.647196
-54.497841 -45.586371 48.979764
-53.412861 -45.594535 48.947931
-54.426475 -43.355143 48.364323
-53.897915 -44.472517 48.647196
-55.521333 -43.37179 48.30284
-54.426475 -43.355143 48.364323
-34.368562 -53.530349 61.466999
-34.622884 -52.371133 61.705637
-34.417713 -54.17273 60.237498
-34.113439 -54.674324 61.224135
-34.368562 -53.530349 61.466999
-34.978808 -52.529384 59.50608
-34.968093 -51.871046 60.756371
-34.703857 -53.67931 59.235054
-34.978808 -52.529384 59.50608
-35.009829 -53.17994 58.260773
-34.473194 -55.462946 57.737129
-34.18705 -55.956366 58.739573
-34.448735 -54.823284 58.992189
-34.52882 -56.12701 56.509794
-34.473194 -55.462946 57.737129
-34.790504 -54.993929 56.762411
-34.580158 -56.790176 55.280197
-34.52882 -56.12701 56.509794
-34.971632 -56.360345 54.378959
-34.70566 -57.492528 54.12408
-34.580158 -56.790176 55.280197
-43.468458 -46.9889 48.853462
-44.341019 -46.723568 48.638742
-43.113438 -48.242316 48.696092
-43.468458 -46.9889 48.853462
-43.706396 -49.235418 48.427881
-42.846525 -49.507233 48.580394
-43.113438 -48.242316 48.696092
-24.351018 -79.211037 52.635999
-24.089436 -78.571838 54.006473
-24.750149 -78.358375 53.655256
-23.00069 -82.715729 47.931253
-22.607951 -82.037537 49.434956
-23.34089 -81.815514 49.18191
-23.00069 -82.715729 47.931253
-23.44681 -83.432972 46.357444
-24.397004 -85.123536 43.394928
-25.151111 -85.113342 43.415394
-35.513666 -77.701957 49.350866
-34.878563 -76.512535 49.360267
-35.748759 -76.356765 49.281866
-35.256213 -79.062195 49.372208
-35.513666 -77.701957 49.350866
-36.126408 -78.906425 49.293806
-36.475843 -81.435223 49.251464
-36.764449 -80.080154 49.333056
-35.610369 -81.602837 49.133844
-36.475843 -81.435223 49.251464
-36.217258 -82.771397 49.070161
-34.283562 -84.314362 48.355635
-34.530112 -83.020393 48.797226
-35.105235 -84.232979 48.51095
-34.067934 -85.5551 47.774821
-33.492812 -84.342514 48.061097
-34.283562 -84.314362 48.355635
-45.728684 -63.751053 47.783153
-44.809231 -63.973963 47.602741
-44.907619 -62.672953 47.615005
-45.728684 -63.751053 47.783153
-46.639595 -63.49971 47.985089
-48.32529 -64.269615 48.412577
-47.540397 -63.262341 48.234314
-48.41357 -62.982579 48.472132
-48.32529 -64.269615 48.412577
-49.092433 -65.256645 48.57258
-51.521476 -64.210175 49.154139
-51.626644 -63.016695 49.3761
-52.296222 -63.862444 49.385227
-50.749233 -64.599724 48.993544
-51.521476 -64.210175 49.154139
-24.737882 -76.305756 57.33675
-25.238864 -75.424873 58.179625
-24.914164 -76.840713 55.902661
-24.737882 -76.305756 57.33675
-27.238701 -72.813789 58.202163
-27.708225 -72.417046 57.406122
-26.760518 -73.775993 57.578012
-27.238701 -72.813789 58.202163
-26.35722 -74.748039 56.954962
-26.760518 -73.775993 57.578012
-26.873559 -74.400665 56.270084
-25.905012 -75.66748 56.213313
-25.79197 -75.042809 57.521241
-26.35722 -74.748039 56.954962
-25.102892 -77.472263 54.574984
-24.914164 -76.840713 55.902661
-25.52849 -76.593799 55.451914
-25.364475 -78.111461 53.20451
-24.750149 -78.358375 53.655256
-25.102892 -77.472263 54.574984
-38.496279 -70.551548 48.182516
-38.705732 -69.207875 47.957254
-39.420581 -70.347611 48.020481
-37.563367 -70.752922 48.328507
-38.496279 -70.551548 48.182516
-36.68684 -70.95816 48.595856
-36.904902 -69.617051 48.386639
-37.563367 -70.752922 48.328507
-36.460413 -72.286797 48.76299
-35.801947 -71.150925 48.821122
-36.68684 -70.95816 48.595856
-36.227144 -73.645962 48.976681
-36.460413 -72.286797 48.76299
-35.996212 -74.989853 49.128187
-35.344588 -73.823452 49.139761
-36.227144 -73.645962 48.976681
-35.748759 -76.356765 49.281866
-35.996212 -74.989853 49.128187
-44.694277 -65.281421 47.630392
-43.873213 -64.203322 47.462244
-44.809231 -63.973963 47.602741
-44.564398 -66.587967 47.687605
-44.694277 -65.281421 47.630392
-44.417341 -67.905338 47.796362
-43.611203 -66.828151 47.598652
-44.564398 -66.587967 47.687605
-44.242956 -69.21521 47.921564
-44.417341 -67.905338 47.796362
-43.276308 -69.472 47.888492
-44.242956 -69.21521 47.921564
-62.435045 -44.017369 46.799635
-61.923094 -45.043796 47.416725
-61.594928 -43.858139 47.214834
-63.235708 -44.198279 46.327665
-62.435045 -44.017369 46.799635
-29.129678 -68.740521 60.119396
-28.623829 -69.764924 59.672909
-29.515662 -68.271679 59.150411
-29.129678 -68.740521 60.119396
-29.930907 -67.856247 58.236199
-29.464929 -68.91161 57.866377
-29.515662 -68.271679 59.150411
-30.306666 -67.4086 57.248047
-29.930907 -67.856247 58.236199
-30.738805 -67.018364 56.33902
-30.312314 -68.105942 56.043137
-30.306666 -67.4086 57.248047
-31.132199 -66.596142 55.361921
-30.738805 -67.018364 56.33902
-31.126551 -65.8988 56.566832
-33.505388 -55.678381 63.226917
-33.83209 -55.176167 62.246864
-33.298321 -56.828201 63.06097
-33.505388 -55.678381 63.226917
-33.621502 -56.944074 60.788813
-33.881241 -55.818546 61.017363
-33.902851 -56.442232 59.766083
-33.345247 -57.443874 61.840158
-33.621502 -56.944074 60.788813
-33.298321 -56.828201 63.06097
-33.345247 -57.443874 61.840158
-31.903083 -64.365894 55.818899
-31.546811 -64.811638 56.839144
-31.956214 -65.083313 54.65675
-31.903083 -64.365894 55.818899
-32.339352 -63.97263 54.885915
-33.695715 -62.8062 52.174667
-33.236211 -63.193023 53.060568
-33.541618 -62.033507 53.223436
-33.964349 -63.634998 51.262442
-33.695715 -62.8062 52.174667
-34.269756 -62.475481 51.42531
-34.835146 -58.207527 52.985311
-34.443672 -58.637358 53.886549
-34.70566 -57.492528 54.12408
-37.306309 -50.327568 53.0004
-36.853296 -50.798488 53.799162
-37.832122 -49.900272 52.319469
-38.36787 -49.452148 51.622839
-37.515251 -51.10033 52.026638
-37.306309 -50.327568 53.0004
-37.832122 -49.900272 52.319469
-40.4305 -50.405931 49.200737
-40.961351 -51.350141 48.754286
-39.726356 -50.767908 49.616806
-40.4305 -50.405931 49.200737
-39.477863 -52.002678 49.376027
-39.023681 -51.111723 50.000382
-39.726356 -50.767908 49.616806
-58.223806 -58.402082 49.87849
-57.767822 -59.180909 49.935221
-57.718042 -58.17721 50.320375
-58.79467 -58.568951 49.374534
-58.223806 -58.402082 49.87849
-58.74489 -57.565252 49.759689
-59.289015 -58.785193 48.716106
-58.79467 -58.568951 49.374534
-59.822693 -58.972202 48.00514
-59.289015 -58.785193 48.716106
-59.849432 -57.919131 48.544767
-60.283981 -59.175879 47.154144
-59.822693 -58.972202 48.00514
-60.769649 -59.373949 46.263771
-60.283981 -59.175879 47.154144
-60.868778 -58.304211 46.943428
-61.192051 -59.566097 45.255936
-60.769649 -59.373949 46.263771
-61.625835 -59.770762 44.223179
-61.192051 -59.566097 45.255936
-61.78823 -58.706946 45.020298
-62.009808 -59.951006 43.099426
-61.625835 -59.770762 44.223179
-62.391579 -60.155822 41.963699
-62.009808 -59.951006 43.099426
-62.603786 -59.116427 42.851814
-62.73941 -60.319084 40.762878
-62.391579 -60.155822 41.963699
-62.73941 -60.319084 40.762878
-63.316803 -59.514778 40.512749
-64.574032 -44.639381 45.146076
-63.934223 -44.408308 45.757336
-64.692318 -45.882565 45.146435
-64.574032 -44.639381 45.146076
-65.10611 -44.898861 44.431645
-65.573921 -46.443651 43.595257
-65.559639 -45.177135 43.693026
-65.263886 -47.400737 44.248896
-65.573921 -46.443651 43.595257
-65.613411 -47.702344 43.412149
-65.475411 -51.476173 42.25678
-65.549141 -50.226247 42.740246
-65.187477 -52.385586 42.703846
-65.475411 -51.476173 42.25678
-65.405532 -52.696666 41.669168
-64.612602 -55.664061 41.721691
-64.720512 -54.502993 42.484951
-65.009689 -54.767147 41.352974
-64.472553 -56.782711 40.889437
-64.183376 -56.518557 42.021413
-64.612602 -55.664061 41.721691
-64.754845 -57.006199 39.691166
-64.955578 -57.255783 38.504897
-64.325619 -57.860695 39.990888
-64.472553 -56.782711 40.889437
-64.754845 -57.006199 39.691166
-64.127979 -58.896248 39.051014
-63.845688 -58.67276 40.249285
-64.325619 -57.860695 39.990888
-63.931248 -59.873209 38.065784
-64.127979 -58.896248 39.051014
-64.411179 -59.061144 37.807389
-23.439934 -78.886933 54.472121
-24.089436 -78.571838 54.006473
-22.747706 -79.19215 54.868401
-23.439934 -78.886933 54.472121
-22.998076 -79.729717 53.383498
-22.056688 -79.583996 55.349283
-22.747706 -79.19215 54.868401
-21.900641 -80.905823 52.593636
-22.627 -80.586128 52.232695
-22.221792 -81.457016 51.046553
-21.580253 -80.43813 54.222383
-21.900641 -80.905823 52.593636
-22.056688 -79.583996 55.349283
-21.580253 -80.43813 54.222383
-34.638705 -86.762932 47.332355
-35.212744 -87.900254 46.961952
-33.847954 -86.791085 47.037817
-34.067934 -85.5551 47.774821
-34.638705 -86.762932 47.332355
-34.236275 -89.167222 45.557243
-34.997665 -89.112663 46.055421
-33.657896 -87.968239 46.159193
-34.236275 -89.167222 45.557243
-33.475447 -89.136544 45.121084
-31.282932 -88.710716 43.493729
-32.005282 -88.908837 44.083816
-31.856324 -89.963059 42.794067
-27.682996 -87.523544 41.268044
-27.8539 -86.539353 42.72262
-28.404661 -87.732101 41.583827
-26.934909 -87.320854 40.924257
-27.682996 -87.523544 41.268044
-28.963878 -88.979766 40.606258
-29.53807 -90.248931 39.526085
3 0 62 60
3 0 60 63
3 1 67 65
3 2 70 68
3 248 75 249
3 250 249 73
3 248 249 250
3 3 78 76
3 3 79 78
3 4 82 80
3 5 85 83
3 5 87 85
3 6 90 88
3 8 93 91
3 251 96 252
3 253 252 94
3 251 252 253
3 255 254 96
3 256 98 257
3 10 101 99
3 10 103 101
3 11 105 104
3 11 107 105
3 11 109 107
3 8 112 110
3 8 91 112
3 9 116 114
3 12 119 117
3 12 121 119
3 7 124 122
3 13 127 125
3 13 129 127
3 259 258 61
3 14 133 131
3 261 260 64
3 15 135 134
3 17 136 66
3 17 137 136
3 18 140 138
3 20 141 69
3 20 262 264
3 264 263 141
3 262 263 264
3 265 144 266
3 267 266 142
3 265 266 267
3 268 145 269
3 23 270 272
3 270 146 271
3 270 271 272
3 23 147 146
3 23 149 147
3 25 150 71
3 25 151 150
3 26 273 275
3 273 152 274
3 273 274 275
3 26 153 152
3 26 155 153
3 276 156 277
3 278 277 72
3 276 277 278
3 279 142 280
3 281 280 156
3 279 280 281
3 28 159 157
3 30 160 74
3 30 161 160
3 31 164 162
3 33 165 77
3 33 282 284
3 284 283 165
3 282 283 284
3 33 285 286
3 287 167 288
3 289 168 290
3 292 291 168
3 35 293 295
3 295 294 169
3 293 294 295
3 297 296 81
3 299 298 132
3 300 170 301
3 16 302 304
3 302 171 303
3 302 303 304
3 36 172 84
3 36 173 172
3 36 174 173
3 37 175 86
3 37 176 175
3 38 179 177
3 40 180 89
3 40 181 180
3 19 182 139
3 41 185 183
3 43 186 92
3 43 187 186
3 21 188 143
3 44 189 95
3 44 190 189
3 44 191 190
3 305 192 306
3 307 306 97
3 305 306 307
3 309 308 192
3 310 193 311
3 22 312 314
3 312 194 313
3 312 313 314
3 45 315 316
3 45 317 319
3 317 195 318
3 317 318 319
3 45 196 195
3 46 320 322
3 320 197 321
3 320 321 322
3 46 198 197
3 24 199 148
3 47 200 100
3 47 201 200
3 47 202 201
3 48 203 102
3 48 204 203
3 323 205 324
3 325 206 326
3 327 326 205
3 325 326 327
3 49 328 330
3 328 207 329
3 328 329 330
3 49 208 207
3 49 209 208
3 50 210 106
3 50 211 210
3 50 212 211
3 51 213 108
3 51 214 213
3 27 215 154
3 52 216 111
3 52 217 216
3 52 218 217
3 41 219 113
3 41 183 219
3 42 220 184
3 53 221 115
3 53 222 221
3 29 223 158
3 54 224 118
3 54 225 224
3 54 226 225
3 55 227 120
3 55 331 333
3 333 332 227
3 331 332 333
3 334 228 335
3 334 335 336
3 337 229 338
3 339 230 340
3 341 340 229
3 339 340 341
3 342 231 343
3 345 344 231
3 346 232 347
3 350 349 232
3 348 349 350
3 32 233 163
3 39 234 178
3 56 235 123
3 56 236 235
3 34 237 166
3 57 238 126
3 57 239 238
3 57 240 239
3 58 241 128
3 58 242 241
3 351 243 352
3 353 244 354
3 355 245 356
3 357 356 244
3 355 356 357
3 59 246 130
3 59 247 246
3 59 358 360
3 360 359 247
3 358 359 360
3 60 361 363
3 361 61 362
3 361 362 363
3 62 61 60
3 62 364 366
3 366 365 61
3 364 365 366
3 63 64 14
3 60 64 63
3 60 367 369
3 369 368 64
3 367 368 369
3 65 66 15
3 67 66 65
3 67 17 66
3 68 69 18
3 70 69 68
3 70 20 69
3 370 23 371
3 372 71 373
3 374 373 23
3 372 373 374
3 375 71 376
3 377 25 378
3 379 378 71
3 377 378 379
3 380 26 381
3 382 72 383
3 384 383 26
3 382 383 384
3 385 72 386
3 388 387 72
3 73 74 28
3 75 74 73
3 75 30 74
3 76 77 31
3 78 77 76
3 78 33 77
3 78 389 391
3 391 390 33
3 389 390 391
3 79 392 394
3 394 393 78
3 392 393 394
3 79 395 396
3 80 81 35
3 82 81 80
3 82 397 399
3 399 398 81
3 397 398 399
3 83 84 16
3 85 84 83
3 85 36 84
3 85 86 36
3 87 86 85
3 87 37 86
3 88 89 38
3 90 89 88
3 90 40 89
3 401 400 19
3 91 92 41
3 93 92 91
3 93 43 92
3 94 95 21
3 96 95 94
3 96 44 95
3 96 97 44
3 402 97 403
3 404 403 96
3 402 403 404
3 406 405 97
3 408 407 22
3 409 45 410
3 412 411 45
3 98 413 414
3 98 415 417
3 415 46 416
3 415 416 417
3 99 100 24
3 101 100 99
3 101 47 100
3 101 102 47
3 103 102 101
3 103 48 102
3 104 418 419
3 105 420 422
3 422 421 104
3 420 421 422
3 105 423 425
3 423 49 424
3 423 424 425
3 105 106 49
3 107 106 105
3 107 50 106
3 107 108 50
3 109 108 107
3 109 51 108
3 110 111 27
3 112 111 110
3 112 52 111
3 112 113 52
3 91 113 112
3 91 41 113
3 114 115 42
3 116 115 114
3 116 53 115
3 117 118 29
3 119 118 117
3 119 54 118
3 119 120 54
3 121 120 119
3 121 55 120
3 427 426 32
3 122 123 39
3 124 123 122
3 124 56 123
3 125 126 34
3 127 126 125
3 127 57 126
3 127 128 57
3 129 128 127
3 129 58 128
3 428 130 429
3 430 130 431
3 432 59 433
3 434 433 130
3 432 433 434
3 436 435 59
3 61 437 438
3 440 439 61
3 131 132 4
3 133 132 131
3 133 441 443
3 443 442 132
3 441 442 443
3 64 133 14
3 444 133 445
3 446 445 64
3 444 445 446
3 448 447 133
3 134 449 450
3 135 451 453
3 453 452 134
3 451 452 453
3 135 454 456
3 454 16 455
3 454 455 456
3 66 135 15
3 136 135 66
3 136 16 135
3 136 83 16
3 137 83 136
3 137 5 83
3 138 139 6
3 140 139 138
3 140 19 139
3 69 140 18
3 141 140 69
3 141 19 140
3 141 457 459
3 459 458 19
3 457 458 459
3 461 460 141
3 142 143 8
3 144 143 142
3 144 21 143
3 462 144 463
3 464 144 465
3 466 21 467
3 468 467 144
3 466 467 468
3 469 94 470
3 471 470 21
3 469 470 471
3 472 94 473
3 475 474 94
3 145 476 477
3 145 478 480
3 478 22 479
3 478 479 480
3 481 145 482
3 146 483 485
3 483 145 484
3 483 484 485
3 146 22 145
3 146 486 488
3 488 487 22
3 486 487 488
3 147 489 491
3 491 490 146
3 489 490 491
3 147 492 493
3 147 494 496
3 494 148 495
3 494 495 496
3 149 148 147
3 149 24 148
3 71 149 23
3 150 149 71
3 150 24 149
3 150 99 24
3 151 99 150
3 151 10 99
3 152 497 498
3 152 499 500
3 152 501 503
3 501 104 502
3 501 502 503
3 153 104 152
3 153 11 104
3 153 154 11
3 155 154 153
3 155 27 154
3 72 155 26
3 156 155 72
3 156 27 155
3 156 110 27
3 142 110 156
3 142 8 110
3 157 158 9
3 159 158 157
3 159 29 158
3 74 159 28
3 160 159 74
3 160 29 159
3 160 117 29
3 161 117 160
3 161 12 117
3 162 504 506
3 504 163 505
3 504 505 506
3 164 163 162
3 164 32 163
3 77 164 31
3 165 164 77
3 165 32 164
3 165 507 509
3 509 508 32
3 507 508 509
3 511 510 165
3 513 512 33
3 514 166 515
3 516 515 7
3 514 515 516
3 167 517 519
3 517 166 518
3 517 518 519
3 167 34 166
3 520 167 521
3 168 522 524
3 522 167 523
3 522 523 524
3 168 34 167
3 168 125 34
3 525 125 526
3 527 526 168
3 525 526 527
3 528 13 529
3 530 529 125
3 528 529 530
3 169 531 533
3 533 532 2
3 531 532 533
3 535 534 169
3 81 536 538
3 538 537 35
3 536 537 538
3 540 539 81
3 132 82 4
3 541 82 542
3 543 542 132
3 541 542 543
3 545 544 82
3 170 546 547
3 170 548 549
3 171 550 551
3 171 552 553
3 84 171 16
3 172 171 84
3 172 554 556
3 556 555 171
3 554 555 556
3 172 557 559
3 557 170 558
3 557 558 559
3 173 170 172
3 173 560 562
3 562 561 170
3 560 561 562
3 173 563 565
3 563 162 564
3 563 564 565
3 174 162 173
3 174 31 162
3 86 174 36
3 175 174 86
3 175 31 174
3 175 76 31
3 176 76 175
3 176 3 76
3 177 178 1
3 179 178 177
3 179 39 178
3 89 179 38
3 180 179 89
3 180 39 179
3 180 122 39
3 181 122 180
3 181 7 122
3 139 90 6
3 182 90 139
3 182 40 90
3 566 182 567
3 568 567 19
3 566 567 568
3 569 182 570
3 571 40 572
3 573 572 182
3 571 572 573
3 574 181 575
3 576 575 40
3 574 575 576
3 577 181 578
3 579 7 580
3 581 580 181
3 579 580 581
3 583 582 7
3 584 70 585
3 586 585 2
3 584 585 586
3 587 70 588
3 589 20 590
3 591 590 70
3 589 590 591
3 592 20 593
3 595 594 20
3 183 184 0
3 185 184 183
3 185 42 184
3 92 185 41
3 186 185 92
3 186 42 185
3 186 114 42
3 187 114 186
3 187 9 114
3 143 93 8
3 188 93 143
3 188 43 93
3 95 188 21
3 189 188 95
3 189 43 188
3 189 187 43
3 190 187 189
3 190 9 187
3 190 157 9
3 191 157 190
3 191 28 157
3 97 191 44
3 192 191 97
3 192 28 191
3 192 73 28
3 596 73 597
3 598 597 192
3 596 597 598
3 600 599 73
3 601 134 602
3 603 134 604
3 605 15 606
3 607 606 134
3 605 606 607
3 608 15 609
3 610 65 611
3 612 611 15
3 610 611 612
3 193 613 615
3 613 65 614
3 613 614 615
3 193 1 65
3 194 616 617
3 194 618 619
3 620 194 621
3 622 621 22
3 620 621 622
3 623 194 624
3 626 625 194
3 627 193 628
3 195 629 631
3 629 193 630
3 629 630 631
3 195 1 193
3 195 177 1
3 196 177 195
3 196 38 177
3 632 196 633
3 634 633 45
3 632 633 634
3 197 635 637
3 635 196 636
3 635 636 637
3 197 38 196
3 197 88 38
3 198 88 197
3 198 6 88
3 148 638 640
3 638 98 639
3 638 639 640
3 199 98 148
3 199 46 98
3 100 199 24
3 200 199 100
3 200 46 199
3 200 198 46
3 201 198 200
3 201 6 198
3 201 138 6
3 202 138 201
3 202 18 138
3 102 202 47
3 203 202 102
3 203 18 202
3 203 68 18
3 204 68 203
3 204 2 68
3 641 25 642
3 205 643 644
3 205 645 647
3 645 25 646
3 645 646 647
3 205 151 25
3 206 151 205
3 206 10 151
3 207 648 649
3 207 650 651
3 207 652 654
3 652 206 653
3 652 653 654
3 208 206 207
3 208 10 206
3 208 103 10
3 209 103 208
3 209 48 103
3 106 209 49
3 210 209 106
3 210 48 209
3 210 204 48
3 211 204 210
3 211 2 204
3 211 169 2
3 212 169 211
3 212 35 169
3 108 212 50
3 213 212 108
3 213 35 212
3 213 80 35
3 214 80 213
3 214 4 80
3 154 109 11
3 215 109 154
3 215 51 109
3 111 215 27
3 216 215 111
3 216 51 215
3 216 214 51
3 217 214 216
3 217 4 214
3 217 131 4
3 218 131 217
3 218 14 131
3 113 218 52
3 219 218 113
3 219 14 218
3 219 63 14
3 183 63 219
3 183 0 63
3 184 62 0
3 220 62 184
3 220 655 657
3 657 656 62
3 655 656 657
3 115 220 42
3 221 220 115
3 221 658 660
3 660 659 220
3 658 659 660
3 221 661 662
3 222 663 665
3 665 664 221
3 663 664 665
3 222 666 667
3 158 116 9
3 223 116 158
3 223 53 116
3 118 223 29
3 224 223 118
3 224 53 223
3 224 222 53
3 225 222 224
3 225 668 670
3 670 669 222
3 668 669 670
3 225 671 672
3 226 673 675
3 675 674 225
3 673 674 675
3 226 676 677
3 120 226 54
3 227 226 120
3 227 678 680
3 680 679 226
3 678 679 680
3 227 681 682
3 684 683 227
3 685 75 686
3 228 687 689
3 687 75 688
3 687 688 689
3 228 30 75
3 690 228 691
3 229 692 694
3 692 228 693
3 692 693 694
3 229 30 228
3 229 161 30
3 230 161 229
3 230 12 161
3 695 230 696
3 231 697 699
3 697 230 698
3 697 698 699
3 231 12 230
3 231 121 12
3 700 121 701
3 702 701 231
3 700 701 702
3 703 55 704
3 705 704 121
3 703 704 705
3 232 706 707
3 232 708 710
3 708 55 709
3 708 709 710
3 232 711 713
3 713 712 55
3 711 712 713
3 716 715 232
3 714 715 716
3 163 717 718
3 233 719 721
3 721 720 163
3 719 720 721
3 233 722 723
3 724 233 725
3 726 725 32
3 724 725 726
3 727 233 728
3 730 729 233
3 178 67 1
3 234 67 178
3 234 17 67
3 123 234 39
3 235 234 123
3 235 17 234
3 235 137 17
3 236 137 235
3 236 5 137
3 166 124 7
3 237 124 166
3 237 56 124
3 126 237 34
3 238 237 126
3 238 56 237
3 238 236 56
3 239 236 238
3 239 5 236
3 239 87 5
3 240 87 239
3 240 37 87
3 128 240 57
3 241 240 128
3 241 37 240
3 241 176 37
3 242 176 241
3 242 3 176
3 243 731 732
3 243 733 735
3 733 13 734
3 733 734 735
3 736 243 737
3 244 738 740
3 738 243 739
3 738 739 740
3 244 13 243
3 244 129 13
3 245 129 244
3 245 58 129
3 130 741 743
3 741 245 742
3 741 742 743
3 246 245 130
3 246 58 245
3 246 242 58
3 247 242 246
3 247 3 242
3 247 79 3
3 744 79 745
3 746 745 247
3 744 745 746
3 748 747 79
3 750 749 59
