ply
format ascii 1.0
element vertex 59
property float x
property float y
property float z
element face 42
property list uchar int vertex_index
end_header
14.159674 32.169388 68.338509
11.058367 38.202988 67.907478
9.364826 41.107689 67.377907
12.577547 31.817806 70.321358
11.009604 34.706966 70.069969
12.670568 35.213135 68.215256
12.730518 38.582809 66.007065
13.54247 38.636859 64.993358
13.499592 37.013593 66.105232
12.753222 40.250189 64.84779
13.54247 38.636859 64.993358
10.203817 37.8577 68.756584
10.179436 36.10969 69.837829
11.033986 36.454977 68.988723
8.509988 40.655752 68.135158
8.50664 42.499376 66.982845
14.21417 33.806883 67.270955
14.917212 32.227527 67.295418
10.224103 41.388804 66.500217
10.211597 39.655338 67.642692
11.070874 39.936453 66.765003
9.366583 42.88793 66.193214
10.224103 41.388804 66.500217
8.50664 42.499376 66.982845
9.366583 42.88793 66.193214
11.793575 33.262386 70.195663
10.963383 32.948193 71.094093
11.747355 31.503613 71.219787
13.469617 35.328756 67.209328
13.415121 33.691261 68.276882
14.21417 33.806883 67.270955
12.700543 36.897972 67.11116
13.469617 35.328756 67.209328
13.499592 37.013593 66.105232
11.906949 40.126363 65.814796
11.070874 39.936453 66.765003
11.894443 38.392899 66.957271
11.906949 40.126363 65.814796
12.753222 40.250189 64.84779
12.505215 30.108345 71.326344
11.747355 31.503613 71.219787
13.29449 30.343629 70.356762
12.505215 30.108345 71.326344
14.085553 30.51942 69.365338
13.36861 31.993597 69.329934
13.29449 30.343629 70.356762
14.831119 30.632656 68.325413
14.085553 30.51942 69.365338
14.917212 32.227527 67.295418
14.831119 30.632656 68.325413
10.155195 34.300961 70.885353
10.963383 32.948193 71.094093
10.155195 34.300961 70.885353
10.179436 36.10969 69.837829
9.357047 39.310051 68.491798
10.203817 37.8577 68.756584
10.211597 39.655338 67.642692
9.357047 39.310051 68.491798
8.509988 40.655752 68.135158
3 0 5 3
3 7 6 8
3 10 9 6
3 1 11 13
3 13 12 4
3 11 12 13
3 15 14 2
3 17 16 0
3 18 2 19
3 20 19 1
3 18 19 20
3 21 2 22
3 24 23 2
3 3 25 27
3 25 4 26
3 25 26 27
3 5 4 3
3 5 1 4
3 28 5 29
3 30 29 0
3 28 29 30
3 6 31 33
3 31 5 32
3 31 32 33
3 6 1 5
3 6 34 36
3 36 35 1
3 34 35 36
3 38 37 6
3 39 3 40
3 41 3 42
3 43 0 44
3 45 44 3
3 43 44 45
3 46 0 47
3 49 48 0
3 4 50 51
3 53 52 4
3 2 54 56
3 56 55 1
3 54 55 56
3 58 57 2
