ply
format ascii 1.0
element vertex 279
property float x
property float y
property float z
element face 231
property list uchar int vertex_index
end_header
-49.876518 -90.152222 -5.922316
-56.959625 -79.001694 -7.084108
-52.84655 -83.425293 -13.322186
-58.336761 -75.270706 -0.11709
-54.830479 -79.987373 0.842501
-53.947174 -79.346909 -16.732754
-50.152321 -85.998672 -16.104721
-50.679985 -81.398247 -19.075371
-51.128731 -75.976105 -22.274342
-53.010132 -84.349411 -6.372038
-55.129444 -81.096375 -10.372124
-54.22789 -82.062195 -2.785286
-58.146896 -77.12661 -3.567379
-54.363419 -77.036385 -18.480682
-52.338844 -80.351471 -17.900181
-52.645798 -77.898155 -19.552074
-50.905258 -78.792053 -20.635921
-52.921951 -75.236176 -21.277493
-54.902573 -81.634476 -6.703579
-54.086475 -82.764961 -8.398478
-56.107723 -80.01844 -8.770384
-51.424919 -86.021088 -0.232129
-52.500721 -84.630249 -2.439657
-52.913811 -83.46817 -0.584402
-56.5923 -77.646133 0.388523
-56.488853 -78.616745 -1.369684
-58.387482 -76.218018 -1.815485
-60.113449 -74.639633 -4.020653
-54.804977 -78.936722 2.60944
-56.425056 -76.617645 2.089804
-53.446156 -81.468414 -15.02496
-51.549416 -84.678452 -14.716908
-51.980835 -82.604782 -16.300243
-50.43755 -83.795654 -17.575947
-49.168167 -79.741943 -21.751926
-53.168716 -83.969574 -10.023726
-54.040558 -82.232468 -11.884289
-57.226341 -78.296684 -10.80929
-54.817009 -80.375046 -13.708483
-55.47686 -78.36676 -15.528709
-50.49044 -88.689026 -4.031534
-51.966599 -85.865494 -4.283957
-53.67746 -83.167633 -4.595659
-55.599258 -80.576439 -4.949163
-54.626171 -81.01368 -0.963623
-56.142948 -79.579453 -3.160078
-57.654297 -78.043266 -5.337376
-59.729271 -75.50428 -5.763977
-49.800125 -88.031158 -14.618708
-49.555695 -73.623817 -24.911022
-49.522533 -90.928841 -6.864362
-49.225002 -91.684753 -5.882903
-53.680401 -76.210224 -19.922541
-53.504609 -77.46727 -19.016378
-54.539212 -75.779339 -19.386845
-53.818478 -74.879234 -20.78525
-52.783874 -76.567166 -20.414783
-53.680401 -76.210224 -19.922541
-51.566302 -85.406769 0.714892
-50.950241 -86.674508 0.899084
-52.310748 -84.13031 0.538755
-52.169365 -84.744629 -0.408266
-51.566302 -85.406769 0.714892
-59.264071 -74.513844 -1.218678
-59.289431 -74.987499 -2.067876
-58.362122 -75.744362 -0.966287
-51.939718 -85.012764 -13.215296
-52.499637 -84.336403 -12.454292
-54.670227 -78.375218 3.466606
-53.950756 -79.519432 3.740181
-55.480266 -77.215679 3.206788
-55.615016 -77.777184 2.349622
-54.670227 -78.375218 3.466606
-49.756241 -83.224148 -18.977156
-49.635024 -84.422852 -18.227444
-50.558768 -82.59695 -18.325659
-49.837252 -81.950619 -19.679064
-49.756241 -83.224148 -18.977156
-50.243961 -76.375378 -22.785628
-49.263679 -78.258297 -22.52442
-50.148449 -77.859024 -22.013134
-52.628591 -84.982018 -7.236891
-52.172832 -85.767929 -6.23848
-58.301075 -76.900951 -11.061212
-57.732056 -77.807873 -10.004963
-55.860447 -78.887001 -13.975168
-55.448868 -79.846298 -13.009895
-56.190373 -77.882858 -14.885281
-55.146935 -79.370903 -14.618596
-55.860447 -78.887001 -13.975168
-50.750785 -88.001641 -3.082349
-50.118213 -89.400132 -2.959761
-51.488865 -86.589875 -3.20856
-51.22852 -87.27726 -4.157745
-50.750785 -88.001641 -3.082349
-54.728325 -80.500527 -0.060561
-53.89908 -81.683552 0.150114
-54.001234 -81.170399 1.053176
-60.905346 -73.76928 -5.130427
-61.013071 -73.352055 -4.278803
-50.555763 -71.703838 -25.339025
-50.452923 -73.294025 -24.450424
-50.798763 -87.352104 -0.077253
-50.950241 -86.674508 0.899084
-51.218025 -86.667672 -1.182646
-50.798763 -87.352104 -0.077253
-51.96282 -85.325669 -1.335893
-51.755926 -85.972252 -2.28641
-51.218025 -86.667672 -1.182646
-60.152415 -74.198307 -3.17046
-59.250466 -75.428826 -2.918069
-59.289431 -74.987499 -2.067876
-61.013071 -73.352055 -4.278803
-60.152415 -74.198307 -3.17046
-49.298716 -87.769867 -16.122874
-49.405929 -86.694344 -16.808481
-57.598698 -78.160378 -8.142372
-58.023075 -77.695847 -7.295127
-54.035536 -80.617081 1.96459
-54.001234 -81.170399 1.053176
-54.022785 -80.091755 2.84806
-53.950756 -79.519432 3.740181
-54.817728 -79.462048 1.725971
-54.035536 -80.617081 1.96459
-54.022785 -80.091755 2.84806
-49.548544 -85.592835 -17.544094
-49.405929 -86.694344 -16.808481
-50.294936 -84.897163 -16.840334
-49.548544 -85.592835 -17.544094
-49.635024 -84.422852 -18.227444
-49.949888 -80.647522 -20.459339
-49.837252 -81.950619 -19.679064
-50.792622 -80.09515 -19.855646
-49.081342 -81.122467 -21.017342
-49.949888 -80.647522 -20.459339
-50.036713 -79.266998 -21.193924
-48.229675 -81.707214 -21.631901
-49.081342 -81.122467 -21.017342
-48.303749 -80.252094 -22.316692
-48.229675 -81.707214 -21.631901
-48.303749 -80.252094 -22.316692
-49.263679 -78.258297 -22.52442
-50.246688 -89.374557 -6.910685
-50.606026 -88.669334 -6.01362
-53.166763 -84.189793 -8.250111
-52.628591 -84.982018 -7.236891
-53.548304 -83.557186 -7.385258
-52.707884 -84.792099 -9.062735
-53.166763 -84.189793 -8.250111
-53.627595 -83.367267 -9.211102
-52.281035 -85.466957 -9.904528
-52.707884 -84.792099 -9.062735
-52.66072 -84.608543 -10.805062
-52.281035 -85.466957 -9.904528
-53.096641 -83.739991 -11.735343
-52.66072 -84.608543 -10.805062
-53.604637 -83.101021 -10.954007
-53.443554 -82.82888 -12.603238
-52.499637 -84.336403 -12.454292
-53.096641 -83.739991 -11.735343
-57.172747 -78.668751 -8.98551
-56.533674 -79.510067 -7.927246
-57.598698 -78.160378 -8.142372
-56.667032 -79.157562 -9.789837
-57.172747 -78.668751 -8.98551
-57.732056 -77.807873 -10.004963
-57.718019 -77.369415 -11.824526
-58.301075 -76.900951 -11.061212
-56.653534 -78.807118 -11.560299
-57.718019 -77.369415 -11.824526
-55.605086 -80.206963 -11.341716
-56.177892 -79.696529 -10.590707
-56.653534 -78.807118 -11.560299
-55.060643 -80.775009 -12.097798
-54.585001 -81.664422 -11.128207
-55.605086 -80.206963 -11.341716
-54.428783 -81.303757 -12.796386
-55.060643 -80.775009 -12.097798
-55.448868 -79.846298 -13.009895
-56.532556 -76.840393 -15.860155
-56.190373 -77.882858 -14.885281
-55.749531 -77.273972 -16.453037
-56.532556 -76.840393 -15.860155
-54.984688 -77.764046 -17.055059
-54.712017 -78.856834 -16.130731
-55.749531 -77.273972 -16.453037
-55.192811 -76.608784 -17.929023
-54.155296 -78.191647 -17.606718
-54.984688 -77.764046 -17.055059
-55.416153 -75.418209 -18.879846
-55.192811 -76.608784 -17.929023
-54.539212 -75.779339 -19.386845
-55.416153 -75.418209 -18.879846
-49.543819 -90.886955 -4.892323
-49.225002 -91.684753 -5.882903
-49.85078 -90.155358 -3.946931
-50.118213 -89.400132 -2.959761
-50.183479 -89.420624 -4.976925
-49.543819 -90.886955 -4.892323
-49.85078 -90.155358 -3.946931
-50.912987 -87.937736 -5.068229
-50.606026 -88.669334 -6.01362
-50.183479 -89.420624 -4.976925
-51.651066 -86.52597 -5.19444
-50.912987 -87.937736 -5.068229
-51.22852 -87.27726 -4.157745
-52.488366 -85.107452 -5.327998
-52.172832 -85.767929 -6.23848
-51.651066 -86.52597 -5.19444
-52.23366 -85.247872 -3.361807
-51.488865 -86.589875 -3.20856
-51.755926 -85.972252 -2.28641
-53.0429 -82.910797 0.339725
-52.310748 -84.13031 0.538755
-53.769991 -82.240925 -0.774012
-53.0429 -82.910797 0.339725
-53.89908 -81.683552 0.150114
-58.370411 -77.216633 -6.42176
-58.023075 -77.695847 -7.295127
-57.306961 -78.52248 -6.210742
-59.407898 -75.947139 -6.635061
-58.370411 -77.216633 -6.42176
-58.691784 -76.773773 -5.550676
-60.448038 -74.619652 -6.867261
-59.407898 -75.947139 -6.635061
-60.713257 -74.201603 -6.00209
-59.92136 -75.071956 -4.892315
-60.905346 -73.76928 -5.130427
-60.448038 -74.619652 -6.867261
-60.713257 -74.201603 -6.00209
-56.208904 -76.052445 2.907585
-55.480266 -77.215679 3.206788
-57.205017 -75.426994 1.79871
-56.208904 -76.052445 2.907585
-58.16087 -74.753524 0.695263
-57.380909 -75.944176 0.986357
-57.205017 -75.426994 1.79871
-59.1382 -74.039704 -0.405484
-58.16087 -74.753524 0.695263
-59.264071 -74.513844 -1.218678
-59.1382 -74.039704 -0.405484
-49.522533 -90.928841 -6.864362
-50.246688 -89.374557 -6.910685
-51.291151 -85.639343 -13.912657
-51.939718 -85.012764 -13.215296
-52.197983 -84.051873 -14.019547
-50.416506 -87.315697 -13.863557
-51.291151 -85.639343 -13.912657
-50.674771 -86.354805 -14.667808
-49.585694 -88.975678 -13.846502
-50.416506 -87.315697 -13.863557
-49.122618 -88.78611 -15.379867
-49.976223 -87.014915 -15.361715
-49.298716 -87.769867 -16.122874
-48.98214 -89.779022 -14.66887
-49.122618 -88.78611 -15.379867
-49.585694 -88.975678 -13.846502
-48.98214 -89.779022 -14.66887
-53.969549 -73.519169 -21.728041
-53.818478 -74.879234 -20.78525
-53.049228 -73.803406 -22.179325
-53.969549 -73.519169 -21.728041
-52.152619 -74.173371 -22.67775
-52.025341 -75.606141 -21.775917
-53.049228 -73.803406 -22.179325
-51.239441 -74.470169 -23.132084
-52.152619 -74.173371 -22.67775
-50.243961 -76.375378 -22.785628
-51.239441 -74.470169 -23.132084
-49.457443 -75.199234 -24.103967
-50.452923 -73.294025 -24.450424
-48.58325 -75.638858 -24.614801
-49.457443 -75.199234 -24.103967
-49.645031 -71.974224 -25.742928
-50.555763 -71.703838 -25.339025
-48.668919 -74.00098 -25.361259
-49.645031 -71.974224 -25.742928
-48.58325 -75.638858 -24.614801
-48.668919 -74.00098 -25.361259
3 0 50 51
3 52 15 53
3 54 53 13
3 52 53 54
3 55 17 56
3 57 56 15
3 55 56 57
3 1 20 18
3 58 21 59
3 60 23 61
3 62 61 21
3 60 61 62
3 3 26 24
3 3 63 65
3 65 64 26
3 63 64 65
3 2 66 67
3 68 28 69
3 70 29 71
3 72 71 28
3 70 71 72
3 5 32 30
3 7 33 14
3 7 73 75
3 75 74 33
3 73 74 75
3 7 76 77
3 8 34 16
3 8 78 80
3 80 79 34
3 78 79 80
3 9 81 82
3 10 35 19
3 10 36 35
3 83 37 84
3 85 38 86
3 87 39 88
3 89 88 38
3 87 88 89
3 90 40 91
3 92 41 93
3 94 93 40
3 92 93 94
3 11 42 22
3 11 43 42
3 4 95 97
3 95 44 96
3 95 96 97
3 12 45 25
3 12 46 45
3 12 47 46
3 99 98 27
3 6 48 31
3 100 49 101
3 13 14 5
3 15 14 13
3 15 7 14
3 15 16 7
3 17 16 15
3 17 8 16
3 18 19 9
3 20 19 18
3 20 10 19
3 21 102 103
3 21 104 105
3 21 106 108
3 106 22 107
3 106 107 108
3 23 22 21
3 23 11 22
3 24 25 4
3 26 25 24
3 26 12 25
3 26 27 12
3 109 27 110
3 111 110 26
3 109 110 111
3 113 112 27
3 115 114 6
3 117 116 1
3 118 4 119
3 28 120 121
3 28 122 124
3 122 4 123
3 122 123 124
3 28 24 4
3 29 24 28
3 29 3 24
3 30 31 2
3 32 31 30
3 32 6 31
3 14 32 5
3 33 32 14
3 33 6 32
3 33 125 127
3 127 126 6
3 125 126 127
3 129 128 33
3 16 130 132
3 132 131 7
3 130 131 132
3 34 133 135
3 135 134 16
3 133 134 135
3 34 136 137
3 34 138 139
3 141 140 34
3 143 142 0
3 19 144 146
3 146 145 9
3 144 145 146
3 35 147 149
3 149 148 19
3 147 148 149
3 35 150 151
3 35 152 153
3 36 154 156
3 156 155 35
3 154 155 156
3 36 157 159
3 157 2 158
3 157 158 159
3 160 20 161
3 162 161 1
3 160 161 162
3 37 163 165
3 163 20 164
3 163 164 165
3 37 10 20
3 166 37 167
3 168 37 169
3 170 10 171
3 172 171 37
3 170 171 172
3 173 36 174
3 175 174 10
3 173 174 175
3 38 176 178
3 176 36 177
3 176 177 178
3 38 2 36
3 38 30 2
3 39 30 38
3 39 5 30
3 179 39 180
3 181 39 182
3 183 5 184
3 185 184 39
3 183 184 185
3 186 13 187
3 188 187 5
3 186 187 188
3 189 13 190
3 192 191 13
3 193 0 194
3 40 195 196
3 40 197 199
3 197 0 198
3 197 198 199
3 40 200 202
3 202 201 0
3 200 201 202
3 41 203 205
3 205 204 40
3 203 204 205
3 41 206 208
3 206 9 207
3 206 207 208
3 22 209 211
3 209 41 210
3 209 210 211
3 42 41 22
3 42 9 41
3 42 18 9
3 43 18 42
3 43 1 18
3 212 23 213
3 44 214 216
3 214 23 215
3 214 215 216
3 44 11 23
3 25 44 4
3 45 44 25
3 45 11 44
3 45 43 11
3 46 43 45
3 46 1 43
3 46 217 219
3 219 218 1
3 217 218 219
3 47 220 222
3 222 221 46
3 220 221 222
3 47 223 224
3 27 47 12
3 225 47 226
3 227 226 27
3 225 226 227
3 229 228 47
3 230 29 231
3 232 29 233
3 234 3 235
3 236 235 29
3 234 235 236
3 237 3 238
3 240 239 3
3 242 241 0
3 31 243 245
3 245 244 2
3 243 244 245
3 48 246 248
3 248 247 31
3 246 247 248
3 48 249 250
3 251 48 252
3 253 252 6
3 251 252 253
3 254 48 255
3 257 256 48
3 258 17 259
3 260 17 261
3 262 8 263
3 264 263 17
3 262 263 264
3 265 8 266
3 268 267 8
3 49 269 270
3 49 271 272
3 273 49 274
3 275 49 276
3 278 277 49
