ply
format ascii 1.0
element vertex 554
property float x
property float y
property float z
element face 556
property list uchar int vertex_index
end_header
26.237247 -50.730114 -22.496977
16.179115 -53.338146 -12.451799
33.342098 -57.469273 -28.121805
32.292004 -45.537918 -29.001463
19.591356 -52.853291 -17.691515
22.943731 -45.096733 -15.436462
25.883593 -41.957405 -22.698122
28.692789 -36.446182 -30.166445
32.164204 -29.076363 -37.951195
39.666199 -48.538616 -34.285576
23.179457 -58.589863 -19.194124
27.324219 -57.151211 -21.586893
30.693691 -54.717499 -24.705126
29.584103 -48.53463 -25.458944
17.446957 -53.187786 -15.179287
26.208658 -41.541313 -17.258841
24.517405 -43.839203 -19.066191
27.563602 -39.704609 -21.258604
30.289608 -32.941429 -34.095543
35.422951 -47.476471 -32.122055
36.090755 -53.124187 -31.596472
38.171501 -43.281456 -35.191383
15.196817 -53.373043 -9.634317
33.187012 -51.395905 -28.414156
34.517639 -41.922909 -32.765938
22.677483 -52.117405 -20.03034
15.578838 -49.229218 -7.725309
17.727951 -49.212692 -10.762667
20.882294 -45.743279 -11.91839
19.385601 -48.887589 -13.945679
21.016479 -48.221149 -17.107676
22.994665 -47.138847 -20.127211
25.3927 -45.528236 -23.086138
29.902002 -35.428993 -23.663404
28.196545 -37.094933 -25.419287
27.244276 -39.476257 -26.36537
27.981943 -43.291882 -26.234266
30.444031 -40.402184 -29.750109
37.351143 -58.412441 -31.086695
24.8776 -54.62587 -20.785112
25.310581 -57.992954 -20.312925
26.828815 -53.829262 -22.035299
28.6443 -52.802486 -23.450129
27.975592 -49.737286 -23.900537
15.782816 -55.935265 -14.121168
16.730812 -53.277546 -13.836147
26.995117 -40.72599 -19.232676
28.338181 -38.76424 -20.350416
36.221741 -42.649406 -34.141525
36.698647 -45.397091 -33.763054
37.535088 -40.599464 -35.664398
31.660027 -50.072418 -26.80261
32.023434 -53.152592 -26.515482
32.874283 -48.408524 -28.670969
33.975967 -46.589958 -30.574305
33.433311 -43.790916 -30.892466
17.761473 -55.921703 -16.461657
19.231808 -55.81583 -17.545038
21.035839 -52.552109 -18.869101
16.738367 -49.257549 -9.218304
18.122665 -47.488304 -9.695095
21.99184 -45.493896 -13.652924
20.272867 -47.22892 -12.969851
21.162424 -46.932129 -14.666101
20.175472 -48.600384 -15.5403
21.990557 -46.515987 -16.371321
25.211111 -42.975555 -20.883123
23.634579 -45.301624 -19.737257
24.510277 -44.491058 -21.389898
24.149979 -46.406712 -21.600355
25.438358 -43.537601 -23.038561
32.208244 -23.933426 -30.566679
30.63018 -29.782925 -29.467691
31.462603 -29.096722 -28.358904
30.840782 -31.560089 -27.139463
30.764929 -33.150303 -24.891684
30.047609 -33.937866 -25.876699
29.082781 -36.23967 -24.596437
29.141823 -34.690376 -26.795767
28.334984 -34.988808 -30.059378
27.919247 -36.625122 -28.032587
27.954481 -38.025928 -28.245279
27.42075 -41.188805 -26.420259
28.440105 -39.792877 -28.196386
29.243509 -41.926376 -27.945158
29.455891 -38.25486 -30.03998
31.180862 -31.045069 -36.051727
31.471462 -34.799248 -33.859955
32.504993 -32.917732 -35.760536
32.065968 -62.559975 -26.213247
33.437653 -60.436588 -28.057169
37.763836 -50.848595 -33.048187
36.615997 -55.837246 -31.347311
38.523735 -53.438641 -32.691483
27.624092 -60.611336 -21.223925
29.375378 -59.423134 -22.755087
29.13224 -56.057243 -23.050417
30.26062 -51.545738 -25.04524
31.022661 -47.128696 -27.170237
16.609543 -55.949375 -15.322001
18.391281 -53.054623 -16.465841
24.649158 -43.320778 -16.294054
23.773209 -44.546158 -17.247152
25.459438 -42.635475 -18.196836
26.11648 -41.766487 -20.12948
26.655134 -40.719559 -22.080622
31.607218 -24.662975 -31.883966
29.466785 -34.747074 -32.123055
29.340639 -31.392605 -34.155014
29.989162 -29.460699 -36.186958
34.460125 -52.426991 -30.10581
34.63562 -55.342915 -29.937551
35.725136 -50.318932 -31.849932
37.177654 -48.150421 -33.401535
38.855457 -45.947998 -34.733536
40.753403 -43.726822 -35.865265
39.860989 -41.150166 -36.405113
15.701649 -53.372261 -11.045338
32.114048 -59.457657 -26.230291
30.865046 -57.977531 -24.472712
32.142685 -56.302151 -26.325872
33.302505 -54.436581 -28.2348
34.283783 -49.48922 -30.313501
35.060127 -44.657223 -32.425148
35.628017 -39.970566 -34.541626
21.050074 -58.962517 -18.175417
22.887154 -55.204849 -19.657393
24.441334 -51.518257 -21.222101
14.547211 -51.150852 -7.318098
15.529999 -51.200832 -8.753807
16.341927 -51.192516 -10.226526
17.039124 -51.1287 -11.723143
19.273935 -47.412132 -11.30612
18.590736 -49.090294 -12.345188
17.697672 -51.012829 -13.225504
18.398287 -50.844749 -14.711592
19.211853 -50.617737 -16.160036
20.187937 -50.317505 -17.556826
22.802486 -45.974571 -18.065256
21.94945 -47.738651 -18.635798
21.347637 -49.923382 -18.901976
22.681633 -49.411217 -20.213148
24.152699 -48.756805 -21.52434
25.702587 -47.939072 -22.87945
31.916512 -26.550529 -29.509535
28.831573 -37.605156 -22.443384
27.949568 -38.488564 -23.323717
27.111736 -39.50478 -24.0464
27.521931 -38.135208 -26.028929
26.556633 -40.78904 -24.520727
26.413668 -42.437431 -24.707029
26.684875 -44.492222 -24.620382
27.262743 -46.942566 -24.321947
28.767801 -45.759407 -25.883509
30.169579 -44.390862 -27.574526
31.448298 -42.848328 -29.378962
30.463072 -36.585072 -31.938101
31.580379 -38.733723 -31.623487
32.617565 -41.152885 -31.254599
33.720966 -39.333076 -33.138924
34.930172 -58.18082 -29.791616
35.425869 -60.891788 -29.649839
15.709725 -54.621391 -12.659882
15.53848 -54.602873 -12.014256
16.454963 -53.307846 -13.143973
15.985574 -54.591091 -13.352056
15.709725 -54.621391 -12.659882
28.511641 -38.258291 -19.92428
27.952495 -39.232458 -19.341265
37.187634 -39.283434 -35.90855
36.878415 -41.624435 -34.902962
36.53096 -40.308404 -35.147114
37.871122 -38.270698 -36.612869
37.187634 -39.283434 -35.90855
18.1061 -46.66225 -9.178097
17.456072 -47.47744 -8.921958
22.467785 -45.295315 -14.544693
22.82332 -44.657833 -14.045741
23.299266 -44.459252 -14.93751
32.060248 -22.982447 -31.754718
32.276401 -22.597749 -31.036579
30.396256 -31.910046 -27.64615
30.735481 -30.671507 -28.303577
30.290955 -31.021463 -28.810264
29.99967 -33.098934 -27.014768
30.444195 -32.748978 -26.508081
30.396256 -31.910046 -27.64615
29.546777 -33.475189 -27.474303
29.594716 -34.314121 -26.336233
29.99967 -33.098934 -27.014768
32.880246 -30.020011 -37.769623
33.05064 -31.940696 -36.674294
32.334598 -30.997048 -36.855866
40.153639 -49.77145 -34.061283
39.582407 -52.221463 -33.264236
39.094967 -50.988628 -33.488529
40.718487 -47.371671 -34.816902
40.153639 -49.77145 -34.061283
23.304674 -60.38419 -18.966639
22.172708 -60.582379 -18.452818
26.472086 -59.340208 -20.740026
25.465267 -59.761079 -20.103043
26.3174 -57.572083 -20.949909
27.474156 -58.881274 -21.405409
26.622022 -61.07027 -20.558543
26.472086 -59.340208 -20.740026
25.693722 -41.843784 -16.305999
26.352934 -40.973961 -16.830904
25.428908 -42.431045 -16.776447
24.913972 -42.733516 -15.823605
25.693722 -41.843784 -16.305999
29.077951 -30.773416 -34.066387
29.0698 -32.316334 -33.129875
29.807437 -27.792245 -37.185978
29.564322 -28.816451 -36.145691
30.380349 -28.460189 -37.178471
29.807437 -27.792245 -37.185978
14.918903 -54.59615 -9.947669
14.770669 -54.558001 -9.282739
15.449233 -53.372652 -10.339827
15.171319 -54.595759 -10.65318
14.918903 -54.59615 -9.947669
31.473899 -60.358305 -25.293654
31.411702 -61.978974 -25.289871
20.051379 -59.053061 -17.685976
20.008492 -60.854919 -17.462272
22.782318 -53.661127 -19.843866
21.9282 -55.39756 -19.126669
21.823364 -53.853838 -19.313142
14.905631 -49.1834 -7.007689
15.422308 -48.295238 -7.19756
15.063025 -50.190035 -7.521704
14.389817 -50.144216 -6.804084
14.905631 -49.1834 -7.007689
20.954505 -45.018479 -11.430326
21.667248 -44.943131 -12.283976
20.234545 -45.798323 -11.084829
20.954505 -45.018479 -11.430326
20.078115 -46.577706 -11.612255
19.430366 -46.63275 -10.778694
20.234545 -45.798323 -11.084829
31.548679 -26.90027 -30.114002
31.761865 -25.606752 -30.696751
31.394033 -25.956492 -31.301218
31.664237 -28.676055 -27.80509
31.440349 -29.92744 -27.228435
30.122727 -34.97739 -23.205928
30.55419 -33.838045 -23.820069
30.333465 -34.289648 -24.277544
29.680813 -36.06805 -22.597612
30.122727 -34.97739 -23.205928
29.366788 -36.517074 -23.053394
29.145599 -37.156132 -21.987602
29.680813 -36.06805 -22.597612
32.126972 -37.838129 -32.57141
31.52592 -36.766486 -32.741721
32.072513 -35.870891 -33.689644
32.645565 -39.04771 -32.386966
32.098972 -39.943304 -31.439043
32.126972 -37.838129 -32.57141
33.197266 -38.137805 -33.329129
33.169265 -40.242981 -32.196762
32.645565 -39.04771 -32.386966
36.753633 -60.92464 -30.289872
35.790996 -62.164314 -29.571444
36.388506 -59.652114 -30.368267
37.82535 -59.614275 -30.942059
36.753633 -60.92464 -30.289872
41.79269 -42.610309 -36.362408
41.250737 -41.371826 -36.656407
15.511576 -55.91995 -13.494566
15.031011 -57.389015 -13.535752
16.256814 -54.606406 -13.978658
15.511576 -55.91995 -13.494566
15.985574 -54.591091 -13.352056
26.887733 -40.620995 -17.795477
26.352934 -40.973961 -16.830904
27.280963 -40.213333 -18.782395
26.601888 -41.133651 -18.245759
26.887733 -40.620995 -17.795477
27.666649 -39.745115 -19.791546
27.280963 -40.213333 -18.782395
27.952495 -39.232458 -19.341265
38.287931 -39.566128 -36.318176
38.606138 -40.907123 -36.081668
37.853295 -41.94046 -35.427891
38.287931 -39.566128 -36.318176
37.871122 -38.270698 -36.612869
14.883525 -53.350649 -8.93355
14.770669 -54.558001 -9.282739
17.53466 -57.548676 -16.3342
16.834498 -57.514181 -15.817911
18.269827 -57.495739 -16.875891
17.53466 -57.548676 -16.3342
18.49664 -55.868766 -17.003348
19.142246 -57.479717 -17.370787
18.269827 -57.495739 -16.875891
20.100527 -55.703051 -18.070492
19.142246 -57.479717 -17.370787
21.002542 -54.07119 -18.732523
20.100527 -55.703051 -18.070492
20.133823 -54.18397 -18.20707
21.856661 -52.334757 -19.44972
21.823364 -53.853838 -19.313142
21.002542 -54.07119 -18.732523
16.184158 -48.347897 -7.937065
15.422308 -48.295238 -7.19756
16.763922 -48.362063 -8.683563
16.158603 -49.243384 -8.471806
16.184158 -48.347897 -7.937065
17.430516 -48.372926 -9.456699
16.763922 -48.362063 -8.683563
17.456072 -47.47744 -8.921958
22.222021 -44.818439 -13.151243
22.82332 -44.657833 -14.045741
21.437067 -45.618588 -12.785657
21.667248 -44.943131 -12.283976
22.222021 -44.818439 -13.151243
32.196995 -23.454977 -29.924536
32.276401 -22.597749 -31.036579
32.162933 -24.79431 -29.44424
32.196995 -23.454977 -29.924536
31.046391 -29.439823 -28.913297
31.321725 -28.173366 -29.538687
30.905513 -28.516467 -30.09308
31.129438 -31.159123 -26.618715
31.440349 -29.92744 -27.228435
31.151693 -30.328406 -27.749184
30.802855 -32.355196 -26.015574
31.091512 -31.954231 -25.494826
31.129438 -31.159123 -26.618715
28.127115 -35.806965 -29.045983
28.19645 -35.241232 -28.855797
28.404319 -34.423075 -29.869192
32.589279 -34.930133 -34.639935
32.072513 -35.870891 -33.689644
31.988228 -33.85849 -34.810246
33.134367 -33.986335 -35.569431
32.589279 -34.930133 -34.639935
33.134367 -33.986335 -35.569431
33.05064 -31.940696 -36.674294
32.094614 -64.057721 -26.233576
31.342098 -65.102761 -25.322401
32.780456 -62.996027 -27.155536
32.094614 -64.057721 -26.233576
32.75181 -61.498282 -27.135208
33.567841 -61.861877 -28.038883
32.780456 -62.996027 -27.155536
39.000532 -54.659203 -32.504257
38.414236 -57.146103 -31.701863
37.937439 -55.925541 -31.889089
39.000532 -54.659203 -32.504257
39.582407 -52.221463 -33.264236
24.370236 -60.085735 -19.526039
23.304674 -60.38419 -18.966639
24.245019 -58.291409 -19.753524
24.370236 -60.085735 -19.526039
25.465267 -59.761079 -20.103043
26.683542 -62.881359 -20.406609
26.622022 -61.07027 -20.558543
27.662329 -62.371857 -21.107416
26.683542 -62.881359 -20.406609
28.499735 -60.017235 -21.989506
28.537972 -61.777756 -21.872998
27.662329 -62.371857 -21.107416
15.341317 -57.459248 -14.104275
15.031011 -57.389015 -13.535752
15.75468 -57.466303 -14.704692
15.341317 -57.459248 -14.104275
16.196179 -55.94232 -14.721585
16.258533 -57.528017 -15.248083
15.75468 -57.466303 -14.704692
17.185508 -55.935539 -15.891829
16.834498 -57.514181 -15.817911
16.258533 -57.528017 -15.248083
24.151979 -43.571274 -15.366305
24.913972 -42.733516 -15.823605
23.796444 -44.208755 -15.865258
23.299266 -44.459252 -14.93751
24.151979 -43.571274 -15.366305
31.320147 -23.640791 -33.106599
31.759735 -23.347222 -32.413362
31.134791 -24.954973 -32.511872
31.320147 -23.640791 -33.106599
31.394033 -25.956492 -31.301218
31.134791 -24.954973 -32.511872
30.422686 -28.815967 -30.657583
30.905513 -28.516467 -30.09308
30.158656 -30.103786 -29.969152
30.422686 -28.815967 -30.657583
30.290955 -31.021463 -28.810264
30.158656 -30.103786 -29.969152
28.472423 -33.521744 -30.944441
28.404319 -34.423075 -29.869192
28.566972 -34.114435 -31.082057
28.472423 -33.521744 -30.944441
28.745874 -34.843122 -31.13559
28.513886 -35.717495 -30.112911
28.566972 -34.114435 -31.082057
29.132873 -33.993568 -32.113895
29.079787 -35.596628 -31.14475
28.745874 -34.843122 -31.13559
29.403712 -33.06984 -33.139035
29.132873 -33.993568 -32.113895
29.0698 -32.316334 -33.129875
29.24006 -29.782404 -35.129719
29.077951 -30.773416 -34.066387
29.664901 -30.426652 -35.170986
29.24006 -29.782404 -35.129719
29.564322 -28.816451 -36.145691
30.976199 -29.252374 -37.110855
30.585012 -30.252884 -36.119343
30.380349 -28.460189 -37.178471
31.46787 -28.268021 -38.060589
31.672533 -30.060716 -37.001461
30.976199 -29.252374 -37.110855
40.80453 -40.083498 -36.92633
41.250737 -41.371826 -36.656407
40.307196 -42.438494 -36.135189
39.450882 -39.841479 -36.688533
39.016245 -42.215811 -35.798248
38.606138 -40.907123 -36.081668
40.30171 -38.809895 -37.245621
39.450882 -39.841479 -36.688533
40.80453 -40.083498 -36.92633
40.30171 -38.809895 -37.245621
15.299747 -54.61993 -11.311025
15.171319 -54.595759 -10.65318
15.940382 -53.355204 -11.748568
15.53848 -54.602873 -12.014256
15.299747 -54.61993 -11.311025
31.387662 -63.530133 -25.281349
31.342098 -65.102761 -25.322401
32.090008 -61.008816 -26.221769
31.387662 -63.530133 -25.281349
31.411702 -61.978974 -25.289871
29.382165 -61.125799 -22.672261
28.537972 -61.777756 -21.872998
30.126999 -60.402998 -23.531073
29.382165 -61.125799 -22.672261
30.120212 -58.700333 -23.6139
30.849398 -59.618242 -24.414864
30.126999 -60.402998 -23.531073
31.488217 -58.780552 -25.341444
30.849398 -59.618242 -24.414864
31.503865 -57.139841 -25.399292
32.128366 -57.879904 -26.278081
31.473899 -60.358305 -25.293654
31.488217 -58.780552 -25.341444
36.234098 -38.968984 -35.347164
36.53096 -40.308404 -35.147114
35.924879 -41.309986 -34.341576
21.108017 -60.768705 -17.943464
20.008492 -60.854919 -17.462272
22.114765 -58.77619 -18.68477
22.172708 -60.582379 -18.452818
21.108017 -60.768705 -17.943464
21.00966 -57.276394 -18.385681
20.051379 -59.053061 -17.685976
21.968614 -57.083683 -18.916405
21.00966 -57.276394 -18.385681
21.9282 -55.39756 -19.126669
13.959118 -51.098145 -6.62381
14.389817 -50.144216 -6.804084
14.150479 -52.188114 -7.085358
13.959118 -51.098145 -6.62381
14.558722 -52.239553 -7.775441
14.150479 -52.188114 -7.085358
15.050116 -52.264544 -8.493296
14.558722 -52.239553 -7.775441
15.038605 -51.175842 -8.035953
15.363408 -52.286938 -9.194062
14.883525 -53.350649 -8.93355
15.050116 -52.264544 -8.493296
18.854731 -46.670835 -9.973181
18.1061 -46.66225 -9.178097
18.6983 -47.450218 -10.500608
18.854731 -46.670835 -9.973181
19.430366 -46.63275 -10.778694
31.907731 -24.298201 -31.225323
32.060248 -22.982447 -31.754718
31.759735 -23.347222 -32.413362
32.017067 -26.102861 -28.915669
32.162933 -24.79431 -29.44424
32.062378 -25.241978 -30.038107
31.689557 -27.823625 -28.934219
31.548679 -26.90027 -30.114002
31.321725 -28.173366 -29.538687
31.891191 -27.402959 -28.380406
31.689557 -27.823625 -28.934219
31.664237 -28.676055 -27.80509
32.017067 -26.102861 -28.915669
31.891191 -27.402959 -28.380406
30.875256 -32.678751 -24.428606
31.091512 -31.954231 -25.494826
30.875256 -32.678751 -24.428606
30.55419 -33.838045 -23.820069
28.898903 -37.735674 -20.941118
28.511641 -38.258291 -19.92428
28.584877 -38.184698 -21.3969
28.898903 -37.735674 -20.941118
29.145599 -37.156132 -21.987602
29.106129 -33.836798 -27.911782
29.546777 -33.475189 -27.474303
28.747787 -35.117249 -27.167654
29.106129 -33.836798 -27.911782
28.275148 -36.319527 -26.479414
28.669184 -35.892654 -26.107527
28.747787 -35.117249 -27.167654
28.136499 -36.084621 -27.786064
28.19645 -35.241232 -28.855797
27.937841 -36.839664 -26.784235
28.136499 -36.084621 -27.786064
27.720589 -37.380165 -27.030758
27.859238 -37.615071 -25.724108
28.275148 -36.319527 -26.479414
27.937841 -36.839664 -26.784235
33.742354 -37.194007 -34.258625
33.197266 -38.137805 -33.329129
34.270958 -38.377063 -34.049374
33.742354 -37.194007 -34.258625
34.669295 -39.67198 -33.862881
34.119303 -40.627992 -32.952431
34.270958 -38.377063 -34.049374
35.224484 -38.695808 -34.750725
35.072828 -40.946737 -33.653782
34.669295 -39.67198 -33.862881
35.805675 -37.709612 -35.59568
35.224484 -38.695808 -34.750725
36.234098 -38.968984 -35.347164
35.805675 -37.709612 -35.59568
31.936695 -27.241317 -39.01099
31.46787 -28.268021 -38.060589
32.713322 -28.065983 -38.851921
31.936695 -27.241317 -39.01099
32.880246 -30.020011 -37.769623
32.713322 -28.065983 -38.851921
34.3141 -60.733993 -28.906106
33.567841 -61.861877 -28.038883
34.183912 -59.308704 -28.924392
34.561949 -62.089478 -28.835218
34.3141 -60.733993 -28.906106
35.178021 -59.536304 -29.720728
34.807455 -63.434885 -28.820253
34.561949 -62.089478 -28.835218
34.807455 -63.434885 -28.820253
35.790996 -62.164314 -29.571444
37.82535 -59.614275 -30.942059
38.414236 -57.146103 -31.701863
41.262089 -44.965774 -35.606746
40.718487 -47.371671 -34.816902
40.209801 -46.132719 -35.07542
41.262089 -44.965774 -35.606746
41.79269 -42.610309 -36.362408
3 0 41 39
3 0 43 41
3 1 162 163
3 1 164 166
3 164 45 165
3 164 165 166
3 167 47 168
3 169 50 170
3 171 170 48
3 169 170 171
3 173 172 50
3 3 53 51
3 3 55 53
3 4 57 56
3 4 58 57
3 174 60 175
3 5 176 178
3 176 61 177
3 176 177 178
3 5 63 61
3 5 65 63
3 6 68 66
3 6 70 68
3 179 71 180
3 181 74 182
3 183 182 72
3 181 182 183
3 184 76 185
3 186 185 74
3 184 185 186
3 187 78 188
3 189 188 76
3 187 188 189
3 7 81 79
3 7 83 81
3 7 85 83
3 8 88 86
3 8 190 192
3 192 191 88
3 190 191 192
3 2 90 89
3 9 93 91
3 9 193 195
3 195 194 93
3 193 194 195
3 9 196 197
3 10 198 199
3 11 200 202
3 202 201 40
3 200 201 202
3 11 203 205
3 203 94 204
3 203 204 205
3 11 96 94
3 13 97 42
3 13 98 97
3 14 99 44
3 14 100 99
3 15 206 207
3 15 208 210
3 208 101 209
3 208 209 210
3 15 103 101
3 17 104 46
3 17 105 104
3 211 108 212
3 213 109 214
3 216 215 109
3 19 112 110
3 21 113 49
3 21 114 113
3 21 116 114
3 22 217 218
3 22 219 221
3 219 117 220
3 219 220 221
3 222 118 223
3 12 119 95
3 23 120 52
3 23 121 120
3 23 122 121
3 24 123 54
3 24 124 123
3 224 125 225
3 25 226 228
3 226 126 227
3 226 227 228
3 25 127 126
3 26 229 230
3 26 231 233
3 231 128 232
3 231 232 233
3 26 129 128
3 27 130 59
3 27 131 130
3 28 234 235
3 28 236 237
3 28 238 240
3 238 132 239
3 238 239 240
3 29 133 62
3 29 134 133
3 29 135 134
3 30 136 64
3 30 137 136
3 16 138 102
3 31 139 67
3 31 140 139
3 31 141 140
3 32 142 69
3 32 143 142
3 241 144 242
3 243 242 106
3 241 242 243
3 245 244 73
3 33 246 248
3 248 247 75
3 246 247 248
3 33 249 250
3 33 251 253
3 251 145 252
3 251 252 253
3 34 146 77
3 34 147 146
3 35 148 80
3 35 149 148
3 35 150 149
3 36 151 82
3 36 152 151
3 36 153 152
3 37 154 84
3 37 155 154
3 18 156 107
3 254 157 255
3 256 255 87
3 254 255 256
3 257 158 258
3 259 258 157
3 257 258 259
3 260 159 261
3 262 261 158
3 260 261 262
3 20 160 111
3 38 161 92
3 38 263 265
3 265 264 161
3 263 264 265
3 38 266 267
3 269 268 115
3 39 40 10
3 41 40 39
3 41 11 40
3 41 42 11
3 43 42 41
3 43 13 42
3 270 44 271
3 45 272 274
3 272 44 273
3 272 273 274
3 45 14 44
3 275 15 276
3 277 46 278
3 279 278 15
3 277 278 279
3 47 280 282
3 280 46 281
3 280 281 282
3 47 17 46
3 48 49 19
3 50 49 48
3 50 21 49
3 50 283 285
3 285 284 21
3 283 284 285
3 287 286 50
3 288 22 289
3 51 52 12
3 53 52 51
3 53 23 52
3 53 54 23
3 55 54 53
3 55 24 54
3 56 290 291
3 57 292 294
3 294 293 56
3 292 293 294
3 57 295 296
3 57 297 298
3 58 299 301
3 301 300 57
3 299 300 301
3 58 302 304
3 302 25 303
3 302 303 304
3 305 26 306
3 307 59 308
3 309 308 26
3 307 308 309
3 60 310 312
3 310 59 311
3 310 311 312
3 60 27 59
3 61 313 314
3 61 315 317
3 315 28 316
3 315 316 317
3 61 62 28
3 63 62 61
3 63 29 62
3 63 64 29
3 65 64 63
3 65 30 64
3 66 67 16
3 68 67 66
3 68 31 67
3 68 69 31
3 70 69 68
3 70 32 69
3 71 318 319
3 71 320 321
3 72 322 324
3 322 73 323
3 322 323 324
3 74 73 72
3 74 325 327
3 327 326 73
3 325 326 327
3 74 328 330
3 328 75 329
3 328 329 330
3 76 75 74
3 76 33 75
3 76 77 33
3 78 77 76
3 78 34 77
3 79 331 333
3 331 80 332
3 331 332 333
3 81 80 79
3 81 35 80
3 81 82 35
3 83 82 81
3 83 36 82
3 83 84 36
3 85 84 83
3 85 37 84
3 86 87 18
3 88 87 86
3 88 334 336
3 336 335 87
3 334 335 336
3 88 337 338
3 340 339 88
3 89 341 342
3 90 343 345
3 345 344 89
3 343 344 345
3 90 346 347
3 91 92 20
3 93 92 91
3 93 38 92
3 93 348 350
3 350 349 38
3 348 349 350
3 352 351 93
3 40 353 355
3 355 354 10
3 353 354 355
3 357 356 40
3 94 358 359
3 94 360 361
3 94 362 364
3 362 95 363
3 362 363 364
3 96 95 94
3 96 12 95
3 42 96 11
3 97 96 42
3 97 12 96
3 97 51 12
3 98 51 97
3 98 3 51
3 44 365 366
3 99 367 369
3 369 368 44
3 367 368 369
3 99 370 371
3 99 372 374
3 372 56 373
3 372 373 374
3 100 56 99
3 100 4 56
3 101 375 376
3 101 377 379
3 377 5 378
3 377 378 379
3 101 102 5
3 103 102 101
3 103 16 102
3 46 103 15
3 104 103 46
3 104 16 103
3 104 66 16
3 105 66 104
3 105 6 66
3 380 106 381
3 382 106 383
3 385 384 106
3 386 72 387
3 388 72 389
3 391 390 72
3 392 79 393
3 394 79 395
3 396 7 397
3 398 397 79
3 396 397 398
3 399 107 400
3 401 400 7
3 399 400 401
3 108 402 404
3 402 107 403
3 402 403 404
3 108 18 107
3 405 108 406
3 109 407 409
3 407 108 408
3 407 408 409
3 109 18 108
3 109 86 18
3 410 86 411
3 412 411 109
3 410 411 412
3 413 8 414
3 415 414 86
3 413 414 415
3 110 111 2
3 112 111 110
3 112 20 111
3 49 112 19
3 113 112 49
3 113 20 112
3 113 91 20
3 114 91 113
3 114 9 91
3 114 115 9
3 116 115 114
3 116 416 418
3 418 417 115
3 416 417 418
3 419 116 420
3 421 420 21
3 419 420 421
3 422 116 423
3 425 424 116
3 117 426 427
3 117 428 430
3 428 1 429
3 428 429 430
3 431 89 432
3 118 433 435
3 433 89 434
3 433 434 435
3 118 2 89
3 95 436 437
3 119 438 440
3 440 439 95
3 438 439 440
3 119 441 442
3 52 119 12
3 120 119 52
3 120 443 445
3 445 444 119
3 443 444 445
3 120 446 448
3 446 118 447
3 446 447 448
3 121 118 120
3 121 2 118
3 121 110 2
3 122 110 121
3 122 19 110
3 54 122 23
3 123 122 54
3 123 19 122
3 123 48 19
3 124 48 123
3 124 449 451
3 451 450 48
3 449 450 451
3 125 452 453
3 125 454 456
3 454 10 455
3 454 455 456
3 457 125 458
3 126 459 461
3 459 125 460
3 459 460 461
3 126 10 125
3 126 39 10
3 127 39 126
3 127 0 39
3 128 462 463
3 128 464 465
3 128 466 467
3 129 468 470
3 470 469 128
3 468 469 470
3 129 471 473
3 471 22 472
3 471 472 473
3 59 129 26
3 130 129 59
3 130 22 129
3 130 117 22
3 131 117 130
3 131 1 117
3 474 60 475
3 132 476 478
3 476 60 477
3 476 477 478
3 132 27 60
3 62 132 28
3 133 132 62
3 133 27 132
3 133 131 27
3 134 131 133
3 134 1 131
3 134 45 1
3 135 45 134
3 135 14 45
3 64 135 29
3 136 135 64
3 136 14 135
3 136 100 14
3 137 100 136
3 137 4 100
3 102 65 5
3 138 65 102
3 138 30 65
3 67 138 16
3 139 138 67
3 139 30 138
3 139 137 30
3 140 137 139
3 140 4 137
3 140 58 4
3 141 58 140
3 141 25 58
3 69 141 31
3 142 141 69
3 142 25 141
3 142 127 25
3 143 127 142
3 143 0 127
3 106 479 481
3 479 71 480
3 479 480 481
3 144 71 106
3 144 482 484
3 484 483 71
3 482 483 484
3 73 485 487
3 485 144 486
3 485 486 487
3 488 144 489
3 490 489 73
3 488 489 490
3 492 491 144
3 75 493 494
3 496 495 75
3 497 47 498
3 145 499 501
3 499 47 500
3 499 500 501
3 145 17 47
3 77 145 33
3 146 145 77
3 146 17 145
3 146 105 17
3 147 105 146
3 147 6 105
3 502 78 503
3 504 78 505
3 506 34 507
3 508 507 78
3 506 507 508
3 80 509 510
3 148 511 513
3 513 512 80
3 511 512 513
3 148 514 516
3 514 34 515
3 514 515 516
3 148 147 34
3 149 147 148
3 149 6 147
3 149 70 6
3 150 70 149
3 150 32 70
3 82 150 35
3 151 150 82
3 151 32 150
3 151 143 32
3 152 143 151
3 152 0 143
3 152 43 0
3 153 43 152
3 153 13 43
3 84 153 36
3 154 153 84
3 154 13 153
3 154 98 13
3 155 98 154
3 155 3 98
3 107 85 7
3 156 85 107
3 156 37 85
3 87 156 18
3 157 156 87
3 157 37 156
3 157 155 37
3 158 155 157
3 158 3 155
3 158 55 3
3 159 55 158
3 159 24 55
3 517 159 518
3 519 159 520
3 521 24 522
3 523 522 159
3 521 522 523
3 524 124 525
3 526 525 24
3 524 525 526
3 527 124 528
3 530 529 124
3 531 8 532
3 533 8 534
3 536 535 8
3 111 90 2
3 160 90 111
3 160 537 539
3 539 538 90
3 537 538 539
3 92 160 20
3 161 160 92
3 161 540 542
3 542 541 160
3 540 541 542
3 161 543 544
3 546 545 161
3 548 547 38
3 115 549 551
3 551 550 9
3 549 550 551
3 553 552 115
