ply
format ascii 1.0
element vertex 354
property float x
property float y
property float z
element face 317
property list uchar int vertex_index
end_header
-45.876541 -92.557465 22.219387
-46.866779 -83.164093 19.715252
-49.385509 -74.026253 16.132332
-55.746391 -70.417358 6.047113
-46.476921 -87.842224 21.24468
-54.636269 -67.641525 9.122419
-59.583824 -67.957321 1.521924
-45.867462 -95.605682 17.087057
-46.984528 -90.869705 16.664846
-48.500832 -81.537582 14.096596
-44.436371 -97.229477 22.218061
-46.545677 -80.252274 23.826097
-47.715607 -78.552383 17.964563
-50.029831 -76.956619 12.538469
-51.905991 -69.624786 14.263657
-52.144722 -72.333199 10.87472
-53.400764 -75.237106 7.615459
-57.368248 -73.080658 3.059527
-61.29612 -70.229485 -1.352654
-45.939575 -94.07486 19.671549
-46.533714 -93.238617 16.990099
-46.439247 -91.711929 19.425671
-46.652023 -85.496109 20.52387
-46.993065 -87.000671 18.349941
-47.566711 -82.346519 16.846558
-45.287769 -94.907791 22.362566
-45.19136 -96.427826 19.657553
-47.604462 -77.113083 19.893995
-48.440239 -76.276962 17.055454
-48.72464 -77.751831 15.187735
-49.58707 -75.467178 14.327221
-54.197922 -66.549377 15.061831
-52.439972 -68.530502 16.001375
-53.447662 -67.489914 13.337902
-55.044937 -69.003448 7.557925
-53.353127 -69.992348 10.003668
-53.875179 -71.424278 8.41255
-52.718739 -73.800919 9.235721
-54.594193 -72.862534 6.856526
-55.348064 -74.232193 5.305466
-56.576202 -71.797699 4.560619
-60.526272 -69.153564 0.112303
-46.248547 -90.198303 21.828674
-46.013077 -88.696274 24.193996
-46.194977 -86.34584 23.494688
-46.361504 -84.006042 22.677969
-49.542267 -72.702591 17.943172
-54.648994 -66.419495 10.752056
-56.217155 -66.552551 6.692543
-57.676689 -69.272491 3.758038
-46.49181 -94.782898 14.524769
-46.760231 -89.351212 18.966503
-47.311565 -88.509003 16.162409
-48.954239 -83.00032 12.16889
-49.684605 -80.710754 11.478266
-55.379959 -65.840637 16.795874
-43.573944 -97.961319 24.752228
-44.154846 -98.752838 19.358707
-46.603947 -81.682899 21.787189
-46.999836 -79.382751 20.852875
-47.201904 -80.848846 18.854807
-48.053104 -80.043404 16.028528
-49.180336 -79.246735 13.329049
-50.578674 -78.428383 10.763401
-50.878681 -70.582428 16.96636
-50.545574 -71.806213 15.199286
-53.176552 -68.654434 11.646139
-51.831436 -70.913696 12.550101
-50.628876 -73.18705 13.447013
-51.027992 -74.65477 11.7212
-51.605312 -76.13179 10.018587
-55.992752 -75.487244 3.725367
-57.984978 -74.236343 1.507616
-58.581093 -70.570312 2.321259
-59.378029 -71.753204 0.848582
-59.93964 -72.808701 -0.693878
-61.77771 -71.189438 -2.900919
-47.050211 -83.914619 18.67227
-46.942833 -85.080627 19.076579
-46.759401 -84.330101 20.119561
-47.216745 -82.755306 18.280905
-47.400177 -83.505832 17.237923
-47.050211 -83.914619 18.67227
-45.582155 -93.732628 22.290976
-45.269458 -94.150856 23.692315
-45.563845 -92.975693 23.620725
-48.912874 -75.151607 16.593893
-48.444488 -75.579949 17.988529
-48.917124 -74.454594 17.526968
-54.297207 -66.448021 12.888575
-53.822792 -67.019645 14.199866
-54.672337 -65.977753 13.750539
-45.777529 -89.122772 25.681217
-45.868655 -89.872986 24.458103
-46.09388 -85.608917 24.599125
-45.997647 -86.777137 25.002659
-46.177143 -84.439018 24.190766
-46.27824 -85.175941 23.086329
-46.09388 -85.608917 24.599125
-49.834854 -72.125737 18.840633
-49.192352 -73.163513 19.353883
-57.031181 -65.953766 5.520632
-56.807369 -65.322891 6.269006
-56.523742 -67.230148 5.94729
-57.031181 -65.953766 5.520632
-46.179636 -95.19429 15.805913
-46.058035 -95.968933 14.499454
-45.745861 -96.380325 15.780598
-47.044465 -91.635223 15.502185
-46.819057 -92.81968 15.664811
-46.759121 -92.054161 16.827472
-47.268993 -90.444939 15.312611
-47.044465 -91.635223 15.502185
-47.463881 -87.3368 15.850065
-47.152315 -87.754837 17.256175
-47.304631 -86.582634 16.943831
-47.629305 -88.081505 14.801328
-47.463881 -87.3368 15.850065
-48.727536 -82.268951 13.132743
-48.472336 -83.420715 13.50355
-48.245632 -82.689346 14.467403
-56.416897 -64.963836 16.351303
-56.129524 -65.583343 17.660609
-55.746381 -65.236935 15.480031
-56.416897 -64.963836 16.351303
-44.005157 -97.595398 23.485144
-44.057913 -96.834885 24.897566
-44.489126 -96.468964 23.630482
-43.871285 -98.361221 21.994588
-43.440071 -98.727142 23.261672
-44.005157 -97.595398 23.485144
-44.295609 -97.991157 20.788384
-43.730522 -99.122902 20.564912
-43.871285 -98.361221 21.994588
-45.393723 -96.782471 17.004215
-45.055672 -97.193543 18.289463
-45.529411 -96.016754 18.372305
-45.745861 -96.380325 15.780598
-45.393723 -96.782471 17.004215
-46.378738 -81.401146 24.311121
-46.421894 -80.702187 25.339332
-46.574812 -80.967587 22.806643
-46.407873 -82.116458 23.291668
-46.378738 -81.401146 24.311121
-52.809055 -76.394875 7.969327
-51.911329 -76.842217 9.170891
-52.503038 -75.684448 8.817023
-53.722618 -75.91021 6.801199
-52.809055 -76.394875 7.969327
-47.113354 -85.832909 17.989615
-46.822544 -86.24839 19.436906
-46.942833 -85.080627 19.076579
-47.304631 -86.582634 16.943831
-47.113354 -85.832909 17.989615
-47.778572 -83.093815 15.842384
-47.400177 -83.505832 17.237923
-48.033772 -81.94205 15.471577
-48.245632 -82.689346 14.467403
-47.778572 -83.093815 15.842384
-44.914825 -95.308121 23.702735
-45.269458 -94.150856 23.692315
-44.86207 -96.068634 22.290313
-44.489126 -96.468964 23.630482
-44.914825 -95.308121 23.702735
-46.665498 -79.578179 24.815081
-46.421894 -80.702187 25.339332
-48.0266 -75.998009 19.407799
-47.714055 -76.444512 20.844634
-48.022351 -76.695022 18.474725
-48.0266 -75.998009 19.407799
-48.444488 -75.579949 17.988529
-53.318947 -67.53994 15.531603
-52.935524 -68.094631 16.871094
-53.814499 -67.104069 16.401321
-60.958708 -67.801834 -0.286071
-60.055048 -68.555442 0.817114
-60.487484 -67.203712 0.418739
-61.431382 -68.342655 -0.988387
-60.958708 -67.801834 -0.286071
-61.816305 -68.880616 -1.720865
-60.911196 -69.691524 -0.620175
-61.431382 -68.342655 -0.988387
-62.173111 -69.364422 -2.458353
-61.816305 -68.880616 -1.720865
-45.98639 -90.624 23.275442
-46.062544 -91.377884 22.024031
-45.800387 -91.803582 23.470799
-46.130812 -89.447288 23.011335
-45.98639 -90.624 23.275442
-45.868655 -89.872986 24.458103
-45.906697 -87.952354 25.352313
-45.777529 -89.122772 25.681217
-46.104027 -87.521057 23.844342
-45.906697 -87.952354 25.352313
-45.997647 -86.777137 25.002659
-45.800387 -91.803582 23.470799
-45.563845 -92.975693 23.620725
-48.995503 -73.792763 18.432388
-49.192352 -73.163513 19.353883
-49.463888 -73.364422 17.037752
-48.917124 -74.454594 17.526968
-48.995503 -73.792763 18.432388
-55.441635 -65.318687 10.320988
-54.897873 -65.912812 11.595652
-55.318234 -65.857628 9.502934
-55.441635 -65.318687 10.320988
-55.311871 -66.468643 8.688115
-54.642632 -67.03051 9.937238
-55.318234 -65.857628 9.502934
-56.102314 -65.924156 7.473177
-56.807369 -65.322891 6.269006
-55.426712 -67.097038 7.907481
-55.311871 -66.468643 8.688115
-56.102314 -65.924156 7.473177
-55.937633 -68.455597 6.379981
-55.631046 -67.777999 7.125234
-56.523742 -67.230148 5.94729
-56.28836 -69.162552 5.624576
-55.395664 -69.710403 6.802519
-55.937633 -68.455597 6.379981
-57.253509 -68.590118 4.480038
-56.71154 -69.844924 4.902576
-56.28836 -69.162552 5.624576
-58.153221 -67.9715 3.338546
-57.253509 -68.590118 4.480038
-59.106789 -67.313915 2.220489
-58.630257 -68.614906 2.639981
-58.153221 -67.9715 3.338546
-59.975475 -66.611344 1.105335
-59.106789 -67.313915 2.220489
-60.487484 -67.203712 0.418739
-59.975475 -66.611344 1.105335
-46.386565 -95.567184 13.278896
-46.058035 -95.968933 14.499454
-46.787931 -94.367333 13.25688
-46.386565 -95.567184 13.278896
-46.798106 -93.59182 14.432146
-46.512762 -94.010758 15.757434
-46.819057 -92.81968 15.664811
-46.787931 -94.367333 13.25688
-46.798106 -93.59182 14.432146
-47.432512 -89.264588 15.061392
-47.268993 -90.444939 15.312611
-47.148046 -89.689354 16.413628
-47.432512 -89.264588 15.061392
-47.629305 -88.081505 14.801328
-48.671188 -84.15654 12.499504
-48.472336 -83.420715 13.50355
-49.14431 -83.708992 11.20376
-48.671188 -84.15654 12.499504
-49.545 -82.5573 10.897565
-49.14431 -83.708992 11.20376
-49.910183 -81.412518 10.552253
-49.545 -82.5573 10.897565
-49.319422 -81.855537 11.823578
-50.396696 -80.272731 10.233841
-49.910183 -81.412518 10.552253
-55.091652 -66.416687 18.12944
-56.129524 -65.583343 17.660609
-54.405518 -66.749698 17.268343
-55.091652 -66.416687 18.12944
-54.78894 -66.195007 15.928853
-53.814499 -67.104069 16.401321
-54.405518 -66.749698 17.268343
-55.155363 -65.591305 14.61301
-54.78894 -66.195007 15.928853
-55.746381 -65.236935 15.480031
-54.672337 -65.977753 13.750539
-55.155363 -65.591305 14.61301
-43.623323 -97.190849 26.223034
-44.057913 -96.834885 24.897566
-43.079158 -98.255219 25.998793
-43.623323 -97.190849 26.223034
-42.962272 -99.035225 24.449025
-43.079158 -98.255219 25.998793
-42.962272 -99.035225 24.449025
-43.440071 -98.727142 23.261672
-43.48822 -99.888924 19.069904
-43.730522 -99.122902 20.564912
-43.907471 -99.519073 17.92265
-43.48822 -99.888924 19.069904
-44.537414 -98.356048 18.14004
-44.673103 -97.590332 19.50813
-45.055672 -97.193543 18.289463
-43.907471 -99.519073 17.92265
-44.537414 -98.356048 18.14004
-46.286652 -83.27803 23.737057
-46.177143 -84.439018 24.190766
-46.482726 -82.84447 22.232579
-46.286652 -83.27803 23.737057
-46.407873 -82.116458 23.291668
-46.806109 -79.121102 23.323
-46.665498 -79.578179 24.815081
-47.335501 -77.551506 21.356949
-47.714055 -76.444512 20.844634
-47.033188 -78.68634 21.836388
-47.335501 -77.551506 21.356949
-47.302149 -78.247917 20.373435
-46.772756 -79.817512 22.339486
-46.806109 -79.121102 23.323
-47.033188 -78.68634 21.836388
-50.843731 -79.131546 9.876409
-50.396696 -80.272731 10.233841
-50.131639 -79.569569 11.120833
-52.053044 -69.044891 17.363781
-52.935524 -68.094631 16.871094
-51.272398 -70.070854 17.846274
-52.053044 -69.044891 17.363781
-51.659326 -69.556465 16.483868
-50.503061 -71.065655 18.352227
-51.272398 -70.070854 17.846274
-50.210474 -71.642509 17.454766
-49.834854 -72.125737 18.840633
-50.503061 -71.065655 18.352227
-54.048328 -66.954704 12.044979
-54.297207 -66.448021 12.888575
-54.897873 -65.912812 11.595652
-51.39801 -77.990513 9.543298
-51.091993 -77.280086 10.390994
-51.911329 -76.842217 9.170891
-50.843731 -79.131546 9.876409
-51.39801 -77.990513 9.543298
-54.696268 -75.407753 5.646202
-53.722618 -75.91021 6.801199
-54.374414 -74.734649 6.460463
-55.018612 -76.035279 4.856153
-54.696268 -75.407753 5.646202
-55.670408 -74.859718 4.515416
-55.264115 -76.650479 4.02457
-55.018612 -76.035279 4.856153
-56.208904 -76.052445 2.907585
-55.264115 -76.650479 4.02457
-57.205017 -75.426994 1.79871
-56.208904 -76.052445 2.907585
-56.988865 -74.861794 2.616491
-58.16087 -74.753524 0.695263
-57.205017 -75.426994 1.79871
-59.1382 -74.039704 -0.405484
-58.16087 -74.753524 0.695263
-58.962309 -73.522522 0.406869
-60.06551 -73.282841 -1.507073
-59.1382 -74.039704 -0.405484
-60.984545 -72.473209 -2.610593
-60.06551 -73.282841 -1.507073
-60.858675 -71.999069 -1.797398
-61.845202 -71.626957 -3.718936
-60.984545 -72.473209 -2.610593
-62.413906 -69.844398 -3.232485
-61.536915 -70.709462 -2.126787
-62.173111 -69.364422 -2.458353
-62.604269 -70.280586 -4.015068
-62.413906 -69.844398 -3.232485
-61.845202 -71.626957 -3.718936
-62.604269 -70.280586 -4.015068
3 0 21 19
3 1 77 79
3 79 78 22
3 77 78 79
3 1 80 82
3 80 24 81
3 80 81 82
3 0 83 85
3 83 25 84
3 83 84 85
3 0 19 25
3 2 86 88
3 86 28 87
3 86 87 88
3 2 30 28
3 89 33 90
3 91 90 31
3 89 90 91
3 3 36 34
3 3 38 36
3 3 40 38
3 92 43 93
3 94 44 95
3 96 45 97
3 98 97 44
3 96 97 98
3 99 46 100
3 101 48 102
3 104 103 48
3 7 105 107
3 105 50 106
3 105 106 107
3 8 108 110
3 110 109 20
3 108 109 110
3 8 111 112
3 4 51 42
3 113 52 114
3 115 114 23
3 113 114 115
3 117 116 52
3 9 118 120
3 118 53 119
3 118 119 120
3 9 54 53
3 121 55 122
3 124 123 55
3 10 125 127
3 125 56 126
3 125 126 127
3 10 128 130
3 130 129 56
3 128 129 130
3 10 131 133
3 131 57 132
3 131 132 133
3 7 134 136
3 136 135 26
3 134 135 136
3 7 137 138
3 11 139 140
3 11 141 143
3 141 58 142
3 141 142 143
3 12 59 27
3 12 60 59
3 12 61 60
3 13 62 29
3 13 63 62
3 14 64 32
3 14 65 64
3 5 66 47
3 15 67 35
3 15 68 67
3 15 69 68
3 16 70 37
3 16 144 146
3 146 145 70
3 144 145 146
3 16 147 148
3 17 71 39
3 17 72 71
3 6 73 49
3 18 74 41
3 18 75 74
3 18 76 75
3 19 20 7
3 21 20 19
3 21 8 20
3 22 23 4
3 149 23 150
3 151 150 22
3 149 150 151
3 153 152 23
3 24 154 155
3 24 156 158
3 156 9 157
3 156 157 158
3 25 159 160
3 25 161 163
3 161 10 162
3 161 162 163
3 25 26 10
3 19 26 25
3 19 7 26
3 164 11 165
3 166 27 167
3 28 168 170
3 168 27 169
3 168 169 170
3 28 12 27
3 28 29 12
3 30 29 28
3 30 13 29
3 31 171 173
3 171 32 172
3 171 172 173
3 33 32 31
3 33 14 32
3 34 35 5
3 36 35 34
3 36 15 35
3 36 37 15
3 38 37 36
3 38 16 37
3 38 39 16
3 40 39 38
3 40 17 39
3 174 41 175
3 176 175 6
3 174 175 176
3 177 41 178
3 179 18 180
3 181 180 41
3 179 180 181
3 183 182 18
3 184 42 185
3 186 185 0
3 184 185 186
3 43 187 189
3 187 42 188
3 187 188 189
3 43 4 42
3 190 43 191
3 44 192 194
3 192 43 193
3 192 193 194
3 44 4 43
3 44 22 4
3 45 22 44
3 45 1 22
3 195 0 196
3 46 197 198
3 46 199 201
3 199 2 200
3 199 200 201
3 202 47 203
3 204 47 205
3 206 5 207
3 208 207 47
3 206 207 208
3 48 209 210
3 48 211 213
3 211 5 212
3 211 212 213
3 48 34 5
3 214 34 215
3 216 215 48
3 214 215 216
3 217 3 218
3 219 218 34
3 217 218 219
3 220 49 221
3 222 221 3
3 220 221 222
3 223 49 224
3 225 6 226
3 227 226 49
3 225 226 227
3 228 6 229
3 231 230 6
3 50 232 233
3 50 234 235
3 20 50 7
3 236 50 237
3 238 237 20
3 236 237 238
3 240 239 50
3 42 21 0
3 51 21 42
3 51 8 21
3 23 51 4
3 52 51 23
3 52 8 51
3 52 241 243
3 243 242 8
3 241 242 243
3 245 244 52
3 53 246 247
3 53 248 249
3 53 250 251
3 54 252 254
3 254 253 53
3 252 253 254
3 54 255 256
3 55 257 258
3 55 259 260
3 55 261 263
3 261 31 262
3 261 262 263
3 264 31 265
3 266 265 55
3 264 265 266
3 268 267 31
3 56 269 270
3 56 271 272
3 56 273 274
3 276 275 56
3 57 277 278
3 57 279 280
3 26 57 10
3 281 57 282
3 283 282 26
3 281 282 283
3 285 284 57
3 286 45 287
3 58 288 290
3 288 45 289
3 288 289 290
3 58 1 45
3 291 11 292
3 27 293 294
3 59 295 297
3 297 296 27
3 295 296 297
3 59 298 300
3 298 11 299
3 298 299 300
3 59 58 11
3 60 58 59
3 60 1 58
3 60 24 1
3 61 24 60
3 61 9 24
3 29 61 12
3 62 61 29
3 62 9 61
3 62 54 9
3 63 54 62
3 63 301 303
3 303 302 54
3 301 302 303
3 32 304 305
3 64 306 308
3 308 307 32
3 306 307 308
3 64 309 310
3 64 311 313
3 311 46 312
3 311 312 313
3 65 46 64
3 65 2 46
3 47 314 316
3 314 33 315
3 314 315 316
3 66 33 47
3 66 14 33
3 35 66 5
3 67 66 35
3 67 14 66
3 67 65 14
3 68 65 67
3 68 2 65
3 68 30 2
3 69 30 68
3 69 13 30
3 37 69 15
3 70 69 37
3 70 13 69
3 70 63 13
3 317 63 318
3 319 318 70
3 317 318 319
3 321 320 63
3 39 322 324
3 324 323 16
3 322 323 324
3 71 325 327
3 327 326 39
3 325 326 327
3 71 328 329
3 71 330 331
3 72 332 334
3 334 333 71
3 332 333 334
3 72 335 336
3 49 40 3
3 73 40 49
3 73 17 40
3 41 73 6
3 74 73 41
3 74 17 73
3 74 72 17
3 75 72 74
3 75 337 339
3 339 338 72
3 337 338 339
3 75 340 341
3 76 342 344
3 344 343 75
3 342 343 344
3 76 345 346
3 347 76 348
3 349 348 18
3 347 348 349
3 350 76 351
3 353 352 76
