ply
format ascii 1.0
element vertex 108
property float x
property float y
property float z
element face 84
property list uchar int vertex_index
end_header
-0.05378 48.812092 49.262585
0.154806 56.73666 47.317196
0.174728 50.795872 54.427067
-0.067562 44.443829 60.991795
0.083525 47.668758 57.778152
0.098154 52.803707 48.347733
-0.04031 55.578014 44.685501
-0.206072 51.566982 45.69976
-0.429873 47.542667 46.617935
0.199713 53.822437 50.93951
0.179657 49.921192 51.895493
0.054972 45.971241 52.725636
0.203566 46.945423 55.326229
0.09409 40.723553 61.825825
0.041145 59.51836 43.566498
-0.271427 41.116482 64.063065
-0.164076 46.814854 49.667141
-0.352123 46.180142 48.344816
-0.241826 48.17738 47.94026
0.187221 52.309155 52.683289
0.106495 54.183506 52.160274
0.094003 52.670224 53.904053
0.052841 44.162497 59.815
0.128384 45.774962 58.208179
0.007982 46.056293 59.384974
0.013264 42.583691 61.40881
0.133666 42.302359 60.232016
0.052841 44.162497 59.815
0.097975 58.12751 45.441847
0.067315 60.031796 44.862812
0.124145 58.640946 46.738161
-0.134841 56.899506 42.800589
-0.218517 54.897682 43.362419
-0.045988 43.997982 53.082385
0.08753 44.511915 54.406759
-0.39643 39.3976 65.521248
-0.634867 41.149512 65.01783
-0.149819 39.288835 64.469192
-0.39643 39.3976 65.521248
0.015004 51.078991 55.593752
0.094003 52.670224 53.904053
-0.030597 49.515434 57.269295
0.129127 49.232315 56.102609
0.015004 51.078991 55.593752
-0.144277 47.871173 58.881622
-0.030597 49.515434 57.269295
-0.21982 46.258709 60.488444
0.007982 46.056293 59.384974
-0.144277 47.871173 58.881622
-0.301397 52.892166 43.869549
-0.218517 54.897682 43.362419
-0.123191 53.572498 45.19263
-0.407738 50.877243 44.388647
-0.301397 52.892166 43.869549
-0.519639 48.865085 44.847735
-0.407738 50.877243 44.388647
-0.317972 49.554825 46.158848
-0.634896 46.860348 45.326301
-0.519639 48.865085 44.847735
-0.555954 45.546574 47.03236
-0.634896 46.860348 45.326301
-0.555954 45.546574 47.03236
-0.352123 46.180142 48.344816
0.124435 57.174049 48.58156
0.124145 58.640946 46.738161
0.146888 55.716938 50.392717
0.106495 54.183506 52.160274
0.17726 55.279549 49.128353
0.124435 57.174049 48.58156
0.146888 55.716938 50.392717
0.161828 44.999006 55.707056
0.08753 44.511915 54.406759
0.129269 46.458332 54.025932
0.188405 45.413294 56.982217
0.143545 47.307091 56.55219
0.128384 45.774962 58.208179
0.161828 44.999006 55.707056
0.188405 45.413294 56.982217
0.119487 40.38825 60.58535
0.133666 42.302359 60.232016
0.114102 38.841664 62.154924
0.119487 40.38825 60.58535
0.027253 61.420276 42.949455
0.067315 60.031796 44.862812
-0.046236 60.829987 41.633507
0.027253 61.420276 42.949455
-0.094113 58.869678 42.241087
0.000418 57.548187 44.126
-0.134841 56.899506 42.800589
-0.046236 60.829987 41.633507
-0.094113 58.869678 42.241087
-0.1097 45.394429 51.398667
-0.164076 46.814854 49.667141
0.000596 47.391666 50.994111
-0.1097 45.394429 51.398667
-0.045988 43.997982 53.082385
-0.363577 44.562533 62.024201
-0.21982 46.258709 60.488444
-0.465509 42.898859 63.559835
-0.634867 41.149512 65.01783
-0.169494 42.780155 62.52743
-0.363577 44.562533 62.024201
-0.465509 42.898859 63.559835
0.032939 39.092371 63.350572
-0.088668 40.920018 62.944445
-0.149819 39.288835 64.469192
0.114102 38.841664 62.154924
0.032939 39.092371 63.350572
3 0 7 5
3 0 8 7
3 0 16 18
3 18 17 8
3 16 17 18
3 2 19 21
3 19 9 20
3 19 20 21
3 2 10 9
3 2 12 10
3 3 22 24
3 24 23 4
3 22 23 24
3 3 25 27
3 25 13 26
3 25 26 27
3 1 28 30
3 28 14 29
3 28 29 30
3 32 31 6
3 34 33 11
3 35 15 36
3 38 37 15
3 39 2 40
3 41 4 42
3 43 42 2
3 41 42 43
3 44 4 45
3 46 3 47
3 48 47 4
3 46 47 48
3 5 6 1
3 7 6 5
3 7 49 51
3 51 50 6
3 49 50 51
3 7 52 53
3 8 54 56
3 56 55 7
3 54 55 56
3 8 57 58
3 8 59 60
3 62 61 8
3 63 1 64
3 9 65 66
3 9 67 69
3 67 1 68
3 67 68 69
3 9 5 1
3 10 5 9
3 10 0 5
3 10 11 0
3 12 11 10
3 12 70 72
3 72 71 11
3 70 71 72
3 4 12 2
3 73 12 74
3 75 74 4
3 73 74 75
3 77 76 12
3 13 78 79
3 13 80 81
3 14 82 83
3 14 84 85
3 6 14 1
3 86 14 87
3 88 87 6
3 86 87 88
3 90 89 14
3 11 91 93
3 93 92 0
3 91 92 93
3 95 94 11
3 96 3 97
3 15 98 99
3 15 100 102
3 100 3 101
3 100 101 102
3 15 13 3
3 103 13 104
3 105 104 15
3 103 104 105
3 107 106 13
