ply
format ascii 1.0
element vertex 230
property float x
property float y
property float z
element face 193
property list uchar int vertex_index
end_header
-29.321566 22.250866 61.233482
-37.317734 17.287151 61.040794
-16.339737 23.700584 68.508224
-33.360901 19.755928 61.645329
-25.398594 25.21637 60.467705
-10.700993 23.948143 74.913849
-29.450125 15.704189 62.687717
-25.578226 18.594421 62.731892
-22.111269 22.191643 63.068451
-18.979015 26.553875 64.127762
-31.33914 20.975025 61.538815
-33.162079 23.053028 60.72876
-31.135815 24.256042 60.398788
-29.092922 25.518604 59.883163
-27.064882 26.916313 59.309376
-27.333807 23.644558 60.835228
-23.745773 16.914829 63.623318
-23.793447 20.293777 62.8241
-22.091866 18.742268 64.041664
-19.081619 22.91803 65.385223
-17.643545 25.204079 66.264946
-17.450085 28.94339 64.883789
-16.173943 27.550526 67.192566
-12.020723 26.163353 72.729568
-35.361168 18.540398 61.485733
-23.532209 27.013699 60.244957
-11.030367 19.86026 76.334366
-35.563797 15.286449 61.809612
-33.500587 16.480373 62.139717
-31.446449 17.695625 62.24369
-29.423723 18.97411 62.161777
-27.453655 20.363205 61.973797
-27.466656 17.074951 62.716339
-25.526075 15.270042 63.336971
-25.55426 21.910995 61.784245
-23.73756 23.65778 61.69873
-22.005554 25.626022 61.798115
-20.516953 24.286842 63.505241
-12.329811 22.097076 74.163445
-13.616894 24.135193 71.876984
-14.896956 25.954521 69.536682
-38.081938 18.243244 60.473566
-38.266917 16.626938 60.688124
-22.047479 17.009685 64.39476
-22.918819 17.828549 63.832491
-22.874432 16.095966 64.185587
-16.991641 24.452331 67.386585
-17.676114 23.327485 66.851067
-17.02421 22.575737 67.972705
-34.250365 20.798679 61.211983
-35.250498 20.190914 61.132185
-34.361035 19.148163 61.565531
-34.008442 24.101484 60.186615
-33.011463 24.696409 60.052675
-25.239064 26.867916 59.640131
-26.072208 27.717888 59.060966
-26.231738 26.066342 59.888541
-24.465401 26.115035 60.356331
-24.305871 27.766581 59.528757
-25.239064 26.867916 59.640131
-34.600178 14.274217 62.052341
-35.679701 13.701844 61.834167
-33.568573 14.87118 62.217394
-34.532192 15.883411 61.974665
-34.600178 14.274217 62.052341
-30.448287 16.699907 62.465704
-31.479944 16.070612 62.404449
-30.481782 15.074894 62.626463
-25.497335 13.613215 63.511753
-26.480853 14.532543 63.228124
-24.59263 14.399555 63.744742
-25.497335 13.613215 63.511753
-19.662296 27.182938 63.122967
-20.431265 26.049421 62.811706
-19.747984 25.420358 63.816502
-18.853241 28.368109 63.384627
-19.662296 27.182938 63.122967
-17.277874 30.810166 64.093806
-16.662087 30.165591 65.286537
-13.472205 26.142224 71.156327
-12.818808 25.149273 72.303276
-12.674119 27.156303 71.582618
-14.112236 27.051887 69.986176
-14.256925 25.044857 70.706833
-13.472205 26.142224 71.156327
-14.755482 27.921938 68.806862
-14.112236 27.051887 69.986176
-31.998331 25.297916 59.88769
-33.011463 24.696409 60.052675
-32.148947 23.654535 60.563774
-30.967867 25.887566 59.619717
-31.998331 25.297916 59.88769
-29.946421 26.518847 59.361904
-30.967867 25.887566 59.619717
-30.114369 24.887323 60.140976
-28.901992 27.145145 59.018585
-29.946421 26.518847 59.361904
-28.078902 26.217458 59.59627
-27.887973 27.844 58.731691
-28.901992 27.145145 59.018585
-29.458573 14.08575 62.794185
-30.481782 15.074894 62.626463
-28.442878 14.749617 62.903498
-29.458573 14.08575 62.794185
-18.395151 22.18446 66.411205
-19.075409 21.091909 65.898284
-18.362582 24.061055 65.825085
-18.395151 22.18446 66.411205
-17.676114 23.327485 66.851067
-16.024016 29.469158 66.440925
-16.662087 30.165591 65.286537
-16.812014 28.246958 66.038177
-11.147131 27.102775 73.026615
-11.360858 25.055748 73.821708
-10.487266 25.995171 74.118755
-11.814108 28.193777 71.931145
-11.147131 27.102775 73.026615
-12.674119 27.156303 71.582618
-11.814108 28.193777 71.931145
-36.200968 19.554453 60.994166
-37.179251 18.92783 60.771696
-36.339451 17.913775 61.263264
-36.200968 19.554453 60.994166
-35.250498 20.190914 61.132185
-34.150953 22.447229 60.753698
-34.250365 20.798679 61.211983
-33.26149 21.404478 61.187044
-34.150953 22.447229 60.753698
-34.008442 24.101484 60.186615
-26.848195 28.550861 58.383806
-27.887973 27.844 58.731691
-26.848195 28.550861 58.383806
-26.072208 27.717888 59.060966
-23.344595 28.696054 59.37565
-24.305871 27.766581 59.528757
-22.635963 28.036386 60.244947
-23.344595 28.696054 59.37565
-16.368645 21.769451 69.07233
-17.02421 22.575737 67.972705
-10.372383 18.655321 77.326638
-11.144721 17.829145 76.956353
-10.486737 16.624206 77.948624
-10.203106 20.69536 76.633076
-10.372383 18.655321 77.326638
-10.038419 22.739302 75.922818
-10.86568 21.904201 75.624108
-10.203106 20.69536 76.633076
-9.820277 24.789118 75.13821
-10.038419 22.739302 75.922818
-10.487266 25.995171 74.118755
-9.820277 24.789118 75.13821
-38.081938 18.243244 60.473566
-37.179251 18.92783 60.771696
-37.466331 15.682827 61.147991
-38.266917 16.626938 60.688124
-36.589363 14.682476 61.5324
-36.705267 13.097871 61.556956
-35.679701 13.701844 61.834167
-36.440765 16.2868 61.425203
-37.466331 15.682827 61.147991
-36.589363 14.682476 61.5324
-32.507013 15.462986 62.352463
-33.568573 14.87118 62.217394
-32.473518 17.087999 62.191704
-32.507013 15.462986 62.352463
-31.479944 16.070612 62.404449
-27.451144 15.434997 62.917808
-28.458391 16.38957 62.702028
-28.442878 14.749617 62.903498
-26.496365 16.172497 63.026655
-27.451144 15.434997 62.917808
-26.480853 14.532543 63.228124
-23.702478 15.221948 63.887915
-24.635924 16.092436 63.480144
-24.59263 14.399555 63.744742
-22.874432 16.095966 64.185587
-23.702478 15.221948 63.887915
-21.872635 27.342548 61.021527
-22.635963 28.036386 60.244947
-22.768881 26.31986 61.021536
-21.287954 17.969072 64.771679
-22.047479 17.009685 64.39476
-21.319954 19.746315 64.335613
-21.287954 17.969072 64.771679
-21.329656 21.471002 63.849007
-22.101568 20.466955 63.555058
-21.319954 19.746315 64.335613
-19.81483 21.834196 65.007393
-19.075409 21.091909 65.898284
-20.532497 22.518602 64.067402
-19.81483 21.834196 65.007393
-19.799286 23.602436 64.445232
-21.314111 23.239242 63.286846
-21.329656 21.471002 63.849007
-20.532497 22.518602 64.067402
-21.175565 26.719011 61.958144
-21.261254 24.956432 62.651678
-20.431265 26.049421 62.811706
-21.872635 27.342548 61.021527
-21.175565 26.719011 61.958144
-18.088776 29.562866 63.76264
-18.853241 28.368109 63.384627
-18.21455 27.748632 64.505775
-18.088776 29.562866 63.76264
-17.277874 30.810166 64.093806
-15.701327 22.854354 69.664562
-16.368645 21.769451 69.07233
-11.785167 18.950544 75.881386
-11.144721 17.829145 76.956353
-12.434889 20.068953 74.795925
-11.785167 18.950544 75.881386
-11.680089 20.978668 75.248906
-13.065842 21.107483 73.65678
-12.434889 20.068953 74.795925
-13.709384 22.126541 72.51355
-13.065842 21.107483 73.65678
-12.973353 23.116135 73.020214
-14.339906 23.071659 71.348942
-13.709384 22.126541 72.51355
-14.979937 23.981323 70.178791
-14.339906 23.071659 71.348942
-14.256925 25.044857 70.706833
-15.618346 24.827552 69.022453
-15.701327 22.854354 69.664562
-14.979937 23.981323 70.178791
-15.393975 28.71994 67.634804
-15.53545 26.752524 68.364624
-14.755482 27.921938 68.806862
-16.024016 29.469158 66.440925
-15.393975 28.71994 67.634804
3 0 12 10
3 0 13 12
3 0 15 13
3 1 41 42
3 43 18 44
3 45 44 16
3 43 44 45
3 2 46 48
3 46 20 47
3 46 47 48
3 2 22 20
3 3 49 51
3 51 50 24
3 49 50 51
3 53 52 11
3 4 54 56
3 56 55 14
3 54 55 56
3 4 57 59
3 57 25 58
3 57 58 59
3 60 27 61
3 62 28 63
3 64 63 27
3 62 63 64
3 6 65 67
3 65 29 66
3 65 66 67
3 6 30 29
3 6 32 30
3 68 33 69
3 71 70 33
3 7 34 31
3 8 35 17
3 8 36 35
3 9 37 19
3 9 72 74
3 74 73 37
3 72 73 74
3 9 75 76
3 78 77 21
3 5 38 26
3 79 39 80
3 81 80 23
3 79 80 81
3 82 40 83
3 84 83 39
3 82 83 84
3 86 85 40
3 10 11 3
3 12 11 10
3 12 87 89
3 89 88 11
3 87 88 89
3 12 90 91
3 13 92 94
3 94 93 12
3 92 93 94
3 13 95 96
3 13 97 99
3 97 14 98
3 97 98 99
3 15 14 13
3 15 4 14
3 100 6 101
3 103 102 6
3 16 17 7
3 18 17 16
3 18 8 17
3 104 19 105
3 20 106 108
3 106 19 107
3 106 107 108
3 20 9 19
3 20 21 9
3 22 21 20
3 22 109 111
3 111 110 21
3 109 110 111
3 112 23 113
3 114 113 5
3 112 113 114
3 115 23 116
3 118 117 23
3 24 119 121
3 121 120 1
3 119 120 121
3 123 122 24
3 11 124 126
3 126 125 3
3 124 125 126
3 128 127 11
3 14 129 130
3 132 131 14
3 25 133 134
3 25 135 136
3 137 2 138
3 139 26 140
3 139 140 141
3 142 26 143
3 144 5 145
3 146 145 26
3 144 145 146
3 147 5 148
3 150 149 5
3 152 151 1
3 153 1 154
3 27 155 157
3 155 156 157
3 27 158 160
3 158 1 159
3 158 159 160
3 27 24 1
3 28 24 27
3 28 3 24
3 161 28 162
3 29 163 165
3 163 28 164
3 163 164 165
3 29 3 28
3 29 10 3
3 30 10 29
3 30 0 10
3 30 31 0
3 32 31 30
3 32 7 31
3 166 32 167
3 168 167 6
3 166 167 168
3 33 169 171
3 169 32 170
3 169 170 171
3 33 7 32
3 33 16 7
3 172 16 173
3 174 173 33
3 172 173 174
3 176 175 16
3 31 15 0
3 34 15 31
3 34 4 15
3 17 34 7
3 35 34 17
3 35 4 34
3 35 25 4
3 36 25 35
3 36 177 179
3 179 178 25
3 177 178 179
3 180 18 181
3 182 18 183
3 184 8 185
3 186 185 18
3 184 185 186
3 19 187 188
3 37 189 191
3 191 190 19
3 189 190 191
3 37 192 194
3 192 8 193
3 192 193 194
3 37 36 8
3 195 36 196
3 197 196 37
3 195 196 197
3 199 198 36
3 21 200 202
3 202 201 9
3 200 201 202
3 204 203 21
3 205 2 206
3 26 207 208
3 38 209 211
3 211 210 26
3 209 210 211
3 38 212 213
3 23 38 5
3 39 38 23
3 39 214 216
3 216 215 38
3 214 215 216
3 39 217 218
3 40 219 221
3 221 220 39
3 219 220 221
3 40 222 224
3 222 2 223
3 222 223 224
3 40 22 2
3 225 22 226
3 227 226 40
3 225 226 227
3 229 228 22
