ply
format ascii 1.0
element vertex 109
property float x
property float y
property float z
element face 86
property list uchar int vertex_index
end_header
33.276367 32.45937 -22.817266
32.364414 28.050583 -26.178377
34.954346 29.883949 -19.646624
34.755039 25.974072 -23.818705
35.426826 33.796955 -15.731264
34.717876 22.398308 -28.197157
32.267502 33.402584 -24.356188
31.589304 31.102646 -25.836115
32.759056 30.275845 -24.492353
35.093971 35.326012 -17.641764
34.729645 24.129402 -25.990412
34.16188 31.293209 -21.231058
33.830807 29.215092 -23.099581
34.823841 27.905285 -21.700537
34.584827 33.341431 -19.411821
35.154549 31.864033 -17.658812
33.589661 27.139927 -25.009642
31.716384 28.385601 -26.73411
31.328829 29.911632 -26.562979
31.976859 29.576614 -26.007246
32.224304 26.929037 -27.017912
31.716384 28.385601 -26.73411
34.620041 34.976815 -19.48115
34.248767 33.959916 -20.289606
35.542037 31.95854 -15.84337
35.405899 30.992079 -16.807144
35.290688 32.830494 -16.695038
34.071542 23.747813 -27.571773
34.077427 24.61336 -26.468401
34.72376 23.263855 -27.093784
34.015239 22.754373 -28.543917
34.071542 23.747813 -27.571773
31.928403 32.252615 -25.096151
31.345592 32.623793 -25.818262
31.684691 33.773761 -25.078298
35.351477 28.110495 -19.989168
35.315039 29.049418 -18.876099
35.290411 36.933477 -17.804308
34.874612 35.969105 -18.596121
35.387859 36.269464 -16.777994
35.290411 36.933477 -17.804308
35.554287 35.504936 -15.822744
35.260399 34.561483 -16.686514
35.387859 36.269464 -16.777994
35.360834 23.513193 -25.501765
34.742342 25.051737 -24.904559
35.373531 24.435528 -24.415911
35.41724 22.774997 -26.718138
35.360834 23.513193 -25.501765
35.411356 21.90945 -27.821511
34.72376 23.263855 -27.093784
35.41724 22.774997 -26.718138
30.9433 31.409565 -26.463154
31.345592 32.623793 -25.818262
30.9433 31.409565 -26.463154
31.328829 29.911632 -26.562979
35.286225 27.121162 -21.016125
34.889094 28.894617 -20.67358
35.351477 28.110495 -19.989168
35.342807 26.226281 -22.16847
35.286225 27.121162 -21.016125
35.308406 25.260674 -23.227555
34.78944 26.939678 -22.759621
35.342807 26.226281 -22.16847
35.373531 24.435528 -24.415911
35.308406 25.260674 -23.227555
32.176167 34.923809 -24.412114
31.684691 33.773761 -25.078298
32.680961 34.503172 -23.61336
32.176167 34.923809 -24.412114
33.185394 34.031565 -22.843899
32.771935 32.930977 -23.586727
32.680961 34.503172 -23.61336
33.594538 33.518885 -21.992328
33.185394 34.031565 -22.843899
34.037294 32.935805 -21.199224
33.719123 31.876289 -22.024162
33.594538 33.518885 -21.992328
34.373353 32.31732 -20.32144
34.037294 32.935805 -21.199224
34.248767 33.959916 -20.289606
34.839399 34.333721 -18.526792
34.620041 34.976815 -19.48115
34.874612 35.969105 -18.596121
35.41514 30.039459 -17.882193
35.315039 29.049418 -18.876099
35.054448 30.873991 -18.652718
35.41514 30.039459 -17.882193
35.405899 30.992079 -16.807144
35.600589 34.71566 -14.792431
35.554287 35.504936 -15.822744
35.565355 32.89328 -14.801937
35.600589 34.71566 -14.792431
35.542037 31.95854 -15.84337
35.565355 32.89328 -14.801937
33.507435 26.118622 -25.978016
34.159653 25.634664 -25.500027
34.077427 24.61336 -26.468401
32.894812 26.57395 -26.562384
32.977037 27.595255 -25.594009
33.507435 26.118622 -25.978016
32.224304 26.929037 -27.017912
32.894812 26.57395 -26.562384
35.437345 21.263782 -29.053963
35.411356 21.90945 -27.821511
34.69968 21.594864 -29.306324
35.437345 21.263782 -29.053963
34.015239 22.754373 -28.543917
34.69968 21.594864 -29.306324
3 0 8 6
3 1 17 19
3 19 18 7
3 17 18 19
3 1 20 21
3 2 13 11
3 22 14 23
3 4 15 9
3 4 24 26
3 26 25 15
3 24 25 26
3 3 16 12
3 5 27 29
3 29 28 10
3 27 28 29
3 5 30 31
3 6 32 34
3 32 7 33
3 32 33 34
3 8 7 6
3 8 1 7
3 36 35 2
3 37 9 38
3 39 9 40
3 41 4 42
3 43 42 9
3 41 42 43
3 44 10 45
3 46 45 3
3 44 45 46
3 47 10 48
3 49 5 50
3 51 50 10
3 49 50 51
3 7 52 53
3 55 54 7
3 11 12 0
3 13 12 11
3 13 3 12
3 56 13 57
3 58 57 2
3 56 57 58
3 59 13 60
3 61 3 62
3 63 62 13
3 61 62 63
3 65 64 3
3 66 6 67
3 68 6 69
3 70 0 71
3 72 71 6
3 70 71 72
3 73 0 74
3 75 11 76
3 77 76 0
3 75 76 77
3 14 78 80
3 78 11 79
3 78 79 80
3 14 2 11
3 9 81 83
3 81 14 82
3 81 82 83
3 15 14 9
3 15 2 14
3 15 84 86
3 86 85 2
3 84 85 86
3 88 87 15
3 89 4 90
3 91 4 92
3 94 93 4
3 12 8 0
3 16 8 12
3 16 1 8
3 10 16 3
3 95 16 96
3 97 96 10
3 95 96 97
3 98 1 99
3 100 99 16
3 98 99 100
3 102 101 1
3 103 5 104
3 105 5 106
3 108 107 5
