ply
format ascii 1.0
element vertex 780
property float x
property float y
property float z
element face 792
property list uchar int vertex_index
end_header
-64.629013 -24.938894 -12.7575
-66.69062 -57.017818 17.005142
-63.997284 -7.854095 -14.48527
-68.232971 -40.90509 -0.132874
-59.763653 -60.233524 2.75519
-62.414448 -33.423592 -14.541996
-55.146751 -65.406128 12.439248
-62.703194 -57.422855 9.48945
-64.020142 -50.350029 0.683265
-68.119522 -49.338448 7.818119
-62.006313 -0.024712 -25.732609
-67.32251 -55.998566 -11.840799
-65.449791 -16.288424 -13.854515
-66.594696 -32.439659 -7.178049
-63.194962 -53.434086 -5.876457
-63.482162 -42.669312 -7.248564
-63.250572 -28.555046 -13.7679
-61.655403 -60.658489 14.354416
-65.268852 -57.135265 13.156497
-66.016922 -53.412476 8.533728
-67.489502 -53.41687 12.256681
-57.4058 -62.97015 7.425006
-57.845207 -65.35498 4.348722
-63.492458 -59.046001 -4.493874
-61.785309 -57.082909 -1.631521
-66.365227 -45.563507 0.203606
-63.969345 -46.635719 -3.34318
-65.803757 -41.584175 -3.626156
-64.877808 -37.447643 -7.307131
-67.593544 -36.688213 -3.758776
-65.098427 -11.78661 -14.134365
-63.924774 -8.336883 -19.134686
-62.866066 -38.767673 -14.731834
-57.453835 -64.087036 15.906732
-58.879417 -61.374638 10.802597
-60.42762 -58.409515 5.986139
-61.765038 -55.224854 1.504417
-63.562416 -53.941788 4.930567
-66.428078 -49.500683 4.227912
-68.404808 -45.119583 3.705335
-63.043018 -3.777421 -19.855343
-60.378292 4.234814 -26.791424
-66.607544 -23.921135 -10.081797
-65.158791 -20.961359 -13.381517
-66.83609 -19.627863 -10.07749
-66.151382 -15.611429 -9.988216
-66.392212 -56.443417 21.081524
-67.001472 -53.472652 16.138891
-67.737213 -49.653091 11.456398
-68.407158 -45.393654 7.117518
-67.758636 -27.79546 -7.049839
-65.474945 -28.293432 -10.306019
-65.222786 -54.880554 -8.848652
-62.634563 -51.786823 -2.71624
-62.962227 -47.993534 -6.808855
-62.920475 -43.69492 -10.841192
-62.834599 -38.289272 -11.030058
-63.889328 -33.079502 -10.765882
-63.859512 -18.704556 -17.398903
-63.963879 -26.489389 -13.245298
-63.193733 -26.243145 -14.975481
-63.953655 -24.438416 -14.156855
-65.751213 -58.71685 17.489567
-64.825638 -58.826801 15.573444
-66.186523 -57.095181 15.052882
-66.597641 -55.296871 12.67911
-67.099838 -55.303692 14.5961
-58.601761 -61.647137 5.048193
-57.397583 -64.093231 5.845468
-58.81176 -62.787861 3.521657
-59.447296 -64.021271 2.077032
-60.16626 -61.359676 1.270284
-61.405998 -59.794201 -0.925827
-60.838959 -58.715836 0.534358
-67.405701 -43.210373 0.031425
-66.14254 -43.585415 -1.730598
-67.136047 -41.166885 -1.85487
-66.754402 -39.108292 -3.698912
-67.967911 -38.800186 -1.970167
-64.642044 -9.727495 -14.278168
-64.495361 -10.020497 -16.54393
-64.106644 -7.8087 -16.789417
-62.470806 -36.059566 -14.718212
-56.879089 -65.32605 18.525343
-62.187878 -59.084755 11.888387
-60.183712 -60.926041 12.563566
-60.813377 -59.398655 10.100142
-59.659378 -59.92017 8.352586
-61.43029 -57.807846 7.712549
-61.998371 -56.168858 5.408463
-63.171162 -55.701263 7.168692
-67.262405 -51.375427 8.158724
-66.275146 -51.465302 6.341395
-67.471085 -49.34008 6.019982
-67.571732 -47.294106 3.958569
-68.314423 -47.232906 5.723035
-59.298615 5.892847 -27.368229
-59.639042 6.225399 -29.878307
-58.480156 8.006933 -30.446926
-67.443512 -23.612722 -8.511353
-66.836182 -21.763218 -10.080647
-67.383743 -21.527878 -8.456919
-68.657425 -43.195221 5.08423
-67.925247 -25.630838 -7.005487
-67.224831 -25.772343 -8.567019
-61.391144 -66.450104 -0.684446
-63.389526 -56.218769 -5.231443
-64.45961 -57.047207 -6.665546
-64.103134 -54.199703 -7.375389
-62.861214 -52.77404 1.042043
-62.268284 -53.542358 -0.63028
-63.110767 -51.013786 -1.042498
-63.767471 -44.694778 -5.307777
-63.21669 -47.306683 -5.094265
-63.10355 -45.320503 -7.086136
-62.924278 -43.216812 -9.058735
-62.726162 -40.97731 -11.002035
-63.154716 -40.538883 -9.160835
-65.750198 -34.90641 -7.252819
-64.367096 -35.291458 -9.074648
-65.199203 -32.764156 -8.940071
-64.677582 -30.619356 -10.536432
-66.029892 -30.332703 -8.788824
-65.368828 -18.635441 -13.649317
-64.435677 -19.786037 -15.301596
-64.652466 -17.300026 -15.712763
-63.697754 -14.874787 -20.292969
-62.528736 -1.856922 -22.752865
-63.05426 -4.204913 -22.304028
-62.586819 -2.517942 -25.210865
-62.749493 -25.844358 -16.871906
-61.133259 -62.113297 16.871899
-63.105804 -60.494694 16.176878
-63.588177 -58.920475 13.710917
-64.050308 -57.219097 11.304655
-64.467239 -55.430088 8.97067
-65.673721 -55.315266 10.806807
-66.963928 -53.374043 10.37888
-67.837311 -51.412212 9.995836
-56.234276 -64.21788 9.88992
-55.987473 -65.295761 8.253811
-56.83033 -67.907745 5.202038
-58.629753 -66.670509 2.919054
-60.367126 -65.265366 0.688745
-62.31834 -60.874416 -2.324324
-62.488819 -58.082329 -3.086594
-62.574295 -55.325336 -3.762297
-65.208557 -47.946468 0.411654
-64.058685 -48.514252 -1.35009
-65.088348 -46.037811 -1.571356
-64.846542 -44.097122 -3.516249
-64.503342 -42.10495 -5.430664
-64.091324 -40.041447 -7.314442
-65.371078 -39.543018 -5.486494
-66.282066 -37.023254 -5.500645
-67.127243 -34.565872 -5.497042
-65.365707 -13.988445 -14.006876
-64.756157 -14.809889 -16.040709
-64.709778 -12.368549 -16.307261
-64.124985 -10.83491 -18.784184
-61.457581 1.704935 -28.754955
-62.146343 -0.916388 -28.157417
-56.112804 -64.633232 14.164188
-59.576347 -62.370483 15.088678
-58.13102 -62.766594 13.326048
-56.971657 -63.37125 11.587613
-57.913734 -62.052963 9.083189
-58.889153 -60.674362 6.662245
-59.846519 -59.22937 4.328435
-60.737831 -57.710304 2.07709
-61.141911 -56.845085 3.705462
-62.484386 -54.490456 3.187652
-63.851601 -52.157101 2.77204
-64.812897 -53.58836 6.716512
-65.063278 -51.71957 4.543263
-65.199203 -49.837997 2.445314
-66.460709 -47.532715 2.185753
-67.551773 -45.250408 1.965954
-68.379288 -43.009865 1.756482
-63.542088 -5.778037 -17.084343
-62.799671 -3.974585 -17.464874
-61.275826 2.245157 -26.252125
-60.627342 4.105623 -29.321011
-65.546501 -24.414515 -11.568121
-64.879158 -23.154484 -13.064585
-65.91098 -22.313971 -11.657475
-66.126045 -20.108778 -11.776525
-66.170334 -17.885715 -11.866533
-67.055847 -19.540937 -8.375101
-66.606796 -17.561737 -10.04479
-66.022713 -15.713946 -11.916056
-65.672501 -13.646954 -11.943205
-66.396606 -58.120522 21.519844
-66.744705 -56.824593 19.018354
-66.672363 -55.089806 18.584934
-67.117264 -55.259956 16.565498
-67.502815 -53.474194 14.175362
-67.88121 -51.522808 11.859791
-68.22773 -49.460136 9.627041
-68.093346 -47.556343 9.241371
-68.517464 -47.332306 7.4808
-68.728668 -45.173378 5.419901
-68.844711 -43.004726 3.439063
-68.854553 -40.836693 1.530687
-68.752579 -38.671745 -0.31278
-68.538231 -36.508499 -2.096827
-68.216118 -34.34668 -3.823967
-67.796486 -32.192719 -5.494188
-67.295853 -30.066042 -7.10598
-66.737061 -28.006254 -8.656792
-66.147232 -26.083206 -10.142834
-64.981766 -26.416012 -11.679747
-66.357307 -55.473011 -10.327116
-61.522564 -56.108246 -0.104029
-62.171333 -54.413128 -2.2325
-62.669235 -52.613251 -4.327616
-63.226707 -49.197289 -3.082842
-62.861275 -49.943352 -4.77129
-63.018597 -50.694733 -6.405901
-62.870949 -41.313301 -12.814766
-62.559929 -38.591549 -12.896872
-62.572941 -35.915825 -12.833248
-63.653805 -37.891182 -9.158104
-63.241219 -35.647465 -10.942663
-62.905689 -33.313988 -12.640343
-63.498829 -30.828259 -12.346319
-64.242111 -28.512901 -11.997948
-64.169083 -22.197065 -14.792124
-63.586151 -21.315094 -16.744171
-63.523945 -17.670467 -19.620445
-63.565071 -5.968853 -19.480698
-63.430752 -6.725113 -21.858566
-62.707607 -3.701573 -27.508804
-62.451748 -33.407556 -15.491039
-62.479927 -34.725544 -15.579148
-62.442627 -34.741579 -14.630104
-58.664482 6.537027 -27.679039
-58.997246 5.346524 -26.187632
-58.255253 7.59407 -29.218387
-58.889386 6.94989 -28.907578
-58.664482 6.537027 -27.679039
-67.649925 -56.247494 -12.625819
-67.32074 -57.524036 -11.469539
-67.581085 -22.552513 -7.704327
-67.413627 -22.5703 -8.484136
-67.610969 -23.594935 -7.731544
-67.851837 -24.603993 -6.978611
-67.968361 -25.689478 -6.253717
-67.610969 -23.594935 -7.731544
-67.68438 -24.62178 -7.75842
-67.851837 -24.603993 -6.978611
-54.297207 -66.448021 12.888575
-54.672337 -65.977753 13.750539
-61.863817 -66.990925 -1.386761
-62.212215 -65.595459 -1.783259
-63.425463 -52.416605 -6.931576
-63.879549 -52.799413 -7.681042
-63.649048 -53.816895 -6.625923
-62.945711 -28.484205 -14.701253
-62.97249 -29.727953 -13.992144
-63.039988 -24.841366 -16.412321
-62.971613 -26.043751 -15.923693
-63.262107 -25.040759 -15.464109
-62.865599 -24.515608 -17.402186
-63.039988 -24.841366 -16.412321
-63.735027 -60.419187 17.110792
-62.86484 -61.199385 17.432032
-57.031181 -65.953766 5.520632
-56.807369 -65.322891 6.269006
-57.621395 -64.724106 5.097095
-57.337768 -66.631362 4.77538
-56.523742 -67.230148 5.94729
-57.031181 -65.953766 5.520632
-60.661957 -63.898449 0.27407
-59.907211 -64.643318 1.382888
-60.202041 -63.276401 0.968213
-61.171221 -64.470861 -0.41064
-60.661957 -63.898449 0.27407
-61.637563 -61.702974 -1.232465
-62.146828 -62.275386 -1.917174
-63.793495 -8.853189 -20.262783
-63.8936 -10.102203 -20.087533
-64.024879 -9.585897 -18.959435
-61.572706 1.143206 -29.931217
-61.148961 2.507324 -30.270692
-63.276064 -38.789129 -15.622348
-63.207603 -40.146042 -14.655862
-56.416897 -64.963836 16.351303
-56.129524 -65.583343 17.660609
-57.166462 -64.706543 17.216037
-56.783319 -64.360134 15.03546
-55.746381 -65.236935 15.480031
-56.416897 -64.963836 16.351303
-62.475718 -4.400601 -16.358525
-62.983164 -5.091398 -16.132123
-60.681954 3.172611 -25.274203
-60.158504 3.933286 -25.569891
-60.827059 3.239985 -26.521774
-61.130721 2.177782 -25.004553
-60.681954 3.172611 -25.274203
-59.749359 6.023098 -31.142471
-59.185999 7.138402 -31.434551
-66.834198 -19.704062 -7.552774
-67.193527 -20.594713 -7.619366
-66.379089 -16.586583 -10.016503
-66.542065 -17.623578 -9.153307
-66.314357 -16.648424 -9.12502
-66.394409 -57.28197 21.300684
-66.280178 -57.808605 22.56625
-66.277981 -56.970053 22.34709
-66.836917 -54.281229 17.361913
-66.371033 -54.211794 18.361995
-66.535587 -53.403217 17.138973
-67.809212 -50.58795 11.658095
-67.622757 -51.582496 12.809147
-67.550759 -50.647638 12.60745
-68.250252 -46.474998 8.179444
-67.758461 -46.647957 9.027984
-67.915367 -45.566612 7.966058
-68.836433 -41.992437 3.288158
-68.751068 -43.099973 4.261646
-68.742791 -42.087684 4.110741
-68.841354 -40.90842 2.33397
-68.849632 -41.92071 2.484875
-68.836433 -41.992437 3.288158
-68.820789 -37.603996 -0.417234
-68.830276 -38.715281 0.478895
-68.713616 -36.522373 -1.309258
-68.645405 -37.590122 -1.204804
-68.820789 -37.603996 -0.417234
-68.375912 -33.226571 -3.862948
-68.491009 -34.331494 -3.034166
-68.166096 -32.14959 -4.698059
-68.006302 -33.2697 -4.659078
-68.375912 -33.226571 -3.862948
-67.978577 -28.859164 -6.275124
-68.017357 -27.783099 -6.279765
-67.527244 -28.930751 -7.07791
-67.747185 -29.994454 -6.303194
-67.978577 -28.859164 -6.275124
-64.051478 -59.489297 -5.191952
-63.446825 -60.471927 -4.095598
-65.407246 -56.334355 -8.473925
-65.025657 -57.417681 -7.382373
-64.841198 -55.963881 -7.757099
-65.790047 -55.176783 -9.587884
-65.974506 -56.630583 -9.213158
-65.407246 -56.334355 -8.473925
-65.514862 -53.713991 -9.945498
-66.082122 -54.010219 -10.684731
-65.790047 -55.176783 -9.587884
-63.101107 -48.31756 -7.642755
-63.129292 -49.66816 -7.441277
-62.990412 -49.344133 -6.607378
-63.14539 -45.066052 -10.690002
-62.944002 -44.805998 -9.837591
-63.188761 -43.88114 -11.710705
-63.14539 -45.066052 -10.690002
-62.895712 -42.504111 -11.827979
-63.163998 -42.690331 -12.697492
-63.188761 -43.88114 -11.710705
-63.562427 -19.578521 -18.119601
-63.425747 -20.88379 -17.792234
-63.722831 -20.009825 -17.071537
-64.413837 -15.433909 -16.991743
-64.462941 -14.115645 -17.218633
-63.49802 -17.163387 -20.763984
-63.61085 -16.272627 -19.956707
-63.584924 -15.765547 -21.100246
-63.39774 -18.627855 -20.313826
-63.49802 -17.163387 -20.763984
-63.2305 -5.952143 -23.261902
-63.242506 -5.465013 -22.081297
-63.042254 -4.692043 -23.484633
-63.386274 -7.342322 -22.967666
-63.2305 -5.952143 -23.261902
-62.561152 -3.003988 -28.93033
-62.426975 -2.30898 -27.833111
-62.280519 -1.611395 -29.254637
-63.642069 -24.138395 -15.054796
-63.262107 -25.040759 -15.464109
-63.573694 -25.340781 -14.566168
-65.288426 -58.771826 16.531506
-64.594944 -59.585241 16.809075
-65.057732 -59.530265 17.767136
-60.561523 -61.945604 0.564839
-60.202041 -63.276401 0.968213
-59.806778 -62.690473 1.673658
-60.786129 -60.576938 0.172229
-61.181393 -61.162866 -0.533216
-60.561523 -61.945604 0.564839
-62.705377 -36.062135 -15.642805
-62.903008 -37.416189 -15.649616
-62.668436 -37.413619 -14.725023
-62.705377 -36.062135 -15.642805
-62.479927 -34.725544 -15.579148
-57.709265 -65.128799 19.388453
-56.652313 -65.900223 19.844243
-57.950159 -64.518812 18.091417
-57.709265 -65.128799 19.388453
-58.237532 -63.899305 16.782112
-57.166462 -64.706543 17.216037
-57.950159 -64.518812 18.091417
-59.618666 4.762302 -25.858294
-59.317297 4.21598 -24.677696
-58.997246 5.346524 -26.187632
-59.838453 5.06383 -27.079826
-60.158504 3.933286 -25.569891
-59.618666 4.762302 -25.858294
-58.606556 8.029169 -31.71886
-59.185999 7.138402 -31.434551
-59.059599 7.116166 -30.162616
-65.909935 -15.803527 -9.065103
-66.314357 -16.648424 -9.12502
-65.814613 -14.714928 -9.964593
-65.909935 -15.803527 -9.065103
-66.068367 -56.126953 22.12108
-66.277981 -56.970053 22.34709
-66.675606 -52.583227 15.916469
-66.535587 -53.403217 17.138973
-66.209721 -52.513792 16.916551
-67.182888 -52.557418 14.948697
-66.675606 -52.583227 15.916469
-67.211914 -49.750797 12.386147
-67.550759 -50.647638 12.60745
-68.08905 -44.475769 6.912735
-67.915367 -45.566612 7.966058
-68.214184 -43.376553 5.896091
-68.532291 -44.294438 6.100874
-68.08905 -44.475769 6.912735
-68.366783 -42.262663 4.892372
-68.214184 -43.376553 5.896091
-68.742791 -42.087684 4.110741
-68.366783 -42.262663 4.892372
-68.100662 -26.700788 -6.257589
-67.968361 -25.689478 -6.253717
-67.841941 -26.713149 -7.027663
-68.017357 -27.783099 -6.279765
-68.100662 -26.700788 -6.257589
-60.958708 -67.801834 -0.286071
-60.487484 -67.203712 0.418739
-60.958708 -67.801834 -0.286071
-61.863817 -66.990925 -1.386761
-64.374569 -53.110176 -8.450228
-64.934395 -53.450601 -9.186859
-64.66296 -54.540128 -8.11202
-64.374569 -53.110176 -8.450228
-63.879549 -52.799413 -7.681042
-63.035539 -45.61879 -7.960063
-62.964878 -46.955305 -7.821423
-63.032888 -46.657018 -6.947496
-62.945904 -44.566944 -8.946362
-63.035539 -45.61879 -7.960063
-63.013914 -44.268658 -8.072436
-62.922376 -43.455866 -9.949963
-62.944002 -44.805998 -9.837591
-62.945904 -44.566944 -8.946362
-63.723685 -13.486111 -20.584715
-63.933739 -14.148094 -19.344763
-63.629765 -14.300633 -21.501852
-63.723685 -13.486111 -20.584715
-63.584924 -15.765547 -21.100246
-63.629765 -14.300633 -21.501852
-62.808533 -3.848557 -24.938051
-63.042254 -4.692043 -23.484633
-62.820539 -3.361428 -23.757447
-62.401459 -32.123487 -15.334665
-62.554428 -32.162226 -14.379192
-62.917292 -27.328254 -15.305044
-62.945711 -28.484205 -14.701253
-63.222152 -27.399096 -14.37169
-62.695172 -27.128861 -16.253256
-62.917292 -27.328254 -15.305044
-62.971613 -26.043751 -15.923693
-62.624651 -26.985356 -17.219528
-62.695172 -27.128861 -16.253256
-62.735851 -25.593832 -17.862829
-62.624651 -26.985356 -17.219528
-62.735851 -25.593832 -17.862829
-62.865599 -24.515608 -17.402186
-61.878567 -62.008687 17.779542
-60.888024 -62.76738 18.147713
-62.119532 -61.303995 16.524389
-61.878567 -62.008687 17.779542
-62.86484 -61.199385 17.432032
-63.965721 -59.660747 15.875161
-63.735027 -60.419187 17.110792
-64.594944 -59.585241 16.809075
-67.596161 -54.696152 -12.979676
-67.131607 -54.495979 -12.202957
-55.441635 -65.318687 10.320988
-54.897873 -65.912812 11.595652
-55.690514 -64.812004 11.164584
-55.318234 -65.857628 9.502934
-55.441635 -65.318687 10.320988
-56.110875 -64.756821 9.071866
-55.311871 -66.468643 8.688115
-55.318234 -65.857628 9.502934
-56.102314 -65.924156 7.473177
-56.692528 -64.694496 7.04964
-56.807369 -65.322891 6.269006
-55.311871 -66.468643 8.688115
-56.102314 -65.924156 7.473177
-55.937633 -68.455597 6.379981
-56.523742 -67.230148 5.94729
-56.28836 -69.162552 5.624576
-55.937633 -68.455597 6.379981
-57.253509 -68.590118 4.480038
-56.28836 -69.162552 5.624576
-58.153221 -67.9715 3.338546
-57.253509 -68.590118 4.480038
-57.730041 -67.289127 4.060546
-59.106789 -67.313915 2.220489
-58.153221 -67.9715 3.338546
-59.975475 -66.611344 1.105335
-59.106789 -67.313915 2.220489
-59.49844 -65.967938 1.803899
-60.879135 -65.857735 0.00215
-60.487484 -67.203712 0.418739
-59.975475 -66.611344 1.105335
-61.683229 -65.063231 -1.097236
-60.879135 -65.857735 0.00215
-61.171221 -64.470861 -0.41064
-62.212215 -65.595459 -1.783259
-61.683229 -65.063231 -1.097236
-62.859766 -61.386135 -3.010822
-62.146828 -62.275386 -1.917174
-62.905399 -59.960208 -3.409099
-63.446825 -60.471927 -4.095598
-62.859766 -61.386135 -3.010822
-61.862169 -60.334308 -1.625075
-61.637563 -61.702974 -1.232465
-61.181393 -61.162866 -0.533216
-64.439751 -12.894975 -17.351909
-64.462941 -14.115645 -17.218633
-64.732968 -13.589219 -16.173985
-64.147355 -12.128156 -18.59037
-64.439751 -12.894975 -17.351909
-64.417382 -11.60173 -17.545723
-63.9373 -11.466173 -19.830323
-64.147355 -12.128156 -18.59037
-63.9373 -11.466173 -19.830323
-63.8936 -10.102203 -20.087533
-61.917088 -0.167456 -29.632448
-61.801962 0.394274 -28.456186
-61.572706 1.143206 -29.931217
-62.280519 -1.611395 -29.254637
-61.917088 -0.167456 -29.632448
-63.276064 -38.789129 -15.622348
-62.903008 -37.416189 -15.649616
-62.451748 -33.407556 -15.491039
-62.401459 -32.123487 -15.334665
-55.841217 -66.159393 18.994174
-56.652313 -65.900223 19.844243
-55.841217 -66.159393 18.994174
-56.129524 -65.583343 17.660609
-55.155363 -65.591305 14.61301
-55.746381 -65.236935 15.480031
-55.629778 -65.01968 13.301718
-54.672337 -65.977753 13.750539
-55.155363 -65.591305 14.61301
-60.077244 -62.912436 17.264696
-60.888024 -62.76738 18.147713
-59.298788 -63.041029 16.373085
-60.077244 -62.912436 17.264696
-60.354803 -62.24189 15.980289
-58.515091 -63.228759 15.497705
-58.237532 -63.899305 16.782112
-59.298788 -63.041029 16.373085
-63.354372 -5.993125 -15.941858
-63.769686 -6.816066 -15.784807
-63.58197 -7.031154 -14.642321
-63.170879 -4.876311 -17.274608
-63.354372 -5.993125 -15.941858
-62.983164 -5.091398 -16.132123
-62.337187 -3.207755 -17.710832
-62.475718 -4.400601 -16.358525
-62.576002 -2.893543 -18.876617
-62.337187 -3.207755 -17.710832
-62.697676 -2.794961 -20.071852
-62.921345 -3.876003 -18.660108
-62.576002 -2.893543 -18.876617
-62.440534 -1.834712 -21.520613
-62.785877 -2.817171 -21.304104
-62.697676 -2.794961 -20.071852
-62.18642 -0.795572 -22.991426
-62.440534 -1.834712 -21.520613
-61.925209 0.120533 -24.481299
-62.267525 -0.940817 -24.242737
-62.18642 -0.795572 -22.991426
-61.559966 1.255467 -24.741056
-61.130721 2.177782 -25.004553
-61.64107 1.110222 -25.992367
-61.925209 0.120533 -24.481299
-61.559966 1.255467 -24.741056
-60.733841 3.707668 -30.55372
-61.148961 2.507324 -30.270692
-61.042462 2.905279 -29.037983
-60.243509 4.96321 -30.863823
-60.133192 5.165511 -29.599659
-59.749359 6.023098 -31.142471
-60.733841 3.707668 -30.55372
-60.243509 4.96321 -30.863823
-65.529026 -59.415842 18.732797
-65.057732 -59.530265 17.767136
-66.01508 -58.611618 18.480624
-65.529026 -59.415842 18.732797
-66.484783 -57.762102 18.238411
-66.220917 -57.867334 17.247355
-66.01508 -58.611618 18.480624
-67.649925 -56.247494 -12.625819
-67.596161 -54.696152 -12.979676
-67.357475 -21.588183 -7.660275
-67.581085 -22.552513 -7.704327
-67.219795 -20.534408 -8.41601
-67.357475 -21.588183 -7.660275
-67.193527 -20.594713 -7.619366
-66.76659 -18.613178 -8.318463
-66.834198 -19.704062 -7.552774
-66.831322 -18.551337 -9.209945
-66.76659 -18.613178 -8.318463
-66.542065 -17.623578 -9.153307
-65.575173 -13.732691 -10.942088
-65.911941 -14.629191 -10.965711
-65.814613 -14.714928 -9.964593
-65.395485 -12.688247 -11.965186
-65.575173 -13.732691 -10.942088
-65.108448 -11.758075 -13.060766
-65.385464 -12.716782 -13.038785
-65.395485 -12.688247 -11.965186
-64.880257 -10.728517 -13.132668
-64.870236 -10.757053 -14.206267
-65.108448 -11.758075 -13.060766
-64.503715 -9.864901 -13.188588
-64.880257 -10.728517 -13.132668
-64.181336 -8.928201 -13.292139
-64.319664 -8.790795 -14.381719
-64.503715 -9.864901 -13.188588
-63.709027 -8.178318 -13.40776
-64.181336 -8.928201 -13.292139
-63.58197 -7.031154 -14.642321
-63.709027 -8.178318 -13.40776
-66.234848 -58.618664 22.787531
-66.280178 -57.808605 22.56625
-66.135101 -58.924086 21.75089
-66.234848 -58.618664 22.787531
-66.337776 -58.313454 20.495762
-66.135101 -58.924086 21.75089
-66.511826 -57.665489 19.245017
-66.337776 -58.313454 20.495762
-66.570656 -57.472558 20.269099
-66.717662 -56.921205 18.011748
-66.484783 -57.762102 18.238411
-66.511826 -57.665489 19.245017
-66.129002 -55.581297 20.857686
-66.068367 -56.126953 22.12108
-66.269077 -54.904492 19.609391
-66.371033 -54.211794 18.361995
-66.532287 -55.766611 19.833229
-66.129002 -55.581297 20.857686
-66.269077 -54.904492 19.609391
-67.43356 -52.558189 13.966932
-67.252144 -53.473423 15.157127
-67.182888 -52.557418 14.948697
-67.692013 -52.498501 13.017577
-67.43356 -52.558189 13.966932
-67.622757 -51.582496 12.809147
-67.395531 -48.750844 11.237799
-67.211914 -49.750797 12.386147
-67.573597 -47.702471 10.130285
-67.758461 -46.647957 9.027984
-67.915279 -48.604717 10.348885
-67.395531 -48.750844 11.237799
-67.573597 -47.702471 10.130285
-68.881263 -39.797754 1.400629
-68.841354 -40.90842 2.33397
-68.803566 -39.754219 0.608953
-68.881263 -39.797754 1.400629
-68.830276 -38.715281 0.478895
-68.652065 -35.412403 -2.170596
-68.713616 -36.522373 -1.309258
-68.377174 -35.427589 -2.960397
-68.652065 -35.412403 -2.170596
-68.491009 -34.331494 -3.034166
-67.997501 -31.057793 -5.497298
-68.166096 -32.14959 -4.698059
-67.546169 -31.12938 -6.300084
-67.997501 -31.057793 -5.497298
-67.747185 -29.994454 -6.303194
-54.297207 -66.448021 12.888575
-54.897873 -65.912812 11.595652
-66.959259 -57.222418 -10.704294
-67.32074 -57.524036 -11.469539
-64.535054 -58.489901 -6.277788
-64.051478 -59.489297 -5.191952
-63.976034 -58.046604 -5.57971
-64.535054 -58.489901 -6.277788
-65.025657 -57.417681 -7.382373
-66.476658 -56.95964 -9.947453
-65.974506 -56.630583 -9.213158
-66.839909 -55.735788 -11.083958
-66.959259 -57.222418 -10.704294
-66.476658 -56.95964 -9.947453
-66.649006 -54.233202 -11.446116
-67.131607 -54.495979 -12.202957
-66.839909 -55.735788 -11.083958
-66.649006 -54.233202 -11.446116
-66.082122 -54.010219 -10.684731
-65.514862 -53.713991 -9.945498
-64.934395 -53.450601 -9.186859
-63.33728 -51.046928 -7.196298
-63.425463 -52.416605 -6.931576
-63.10678 -52.064409 -6.141179
-63.33728 -51.046928 -7.196298
-63.129292 -49.66816 -7.441277
-63.101107 -48.31756 -7.642755
-62.964878 -46.955305 -7.821423
-63.210045 -41.418856 -13.697329
-63.163998 -42.690331 -12.697492
-62.868507 -40.040487 -13.7733
-63.207603 -40.146042 -14.655862
-63.210045 -41.418856 -13.697329
-62.800049 -32.107424 -13.428366
-62.554428 -32.162226 -14.379192
-62.660069 -33.36879 -13.591169
-63.096619 -30.864559 -13.281354
-62.800049 -32.107424 -13.428366
-63.202259 -32.071123 -12.493331
-63.374701 -29.691653 -13.057109
-62.97249 -29.727953 -13.992144
-63.096619 -30.864559 -13.281354
-63.749783 -23.017719 -15.37243
-63.642069 -24.138395 -15.054796
-64.061369 -23.31774 -14.47449
-63.458317 -22.576733 -16.348454
-63.749783 -23.017719 -15.37243
-63.877617 -21.756079 -15.768148
-63.283928 -22.250977 -17.338318
-63.458317 -22.576733 -16.348454
-63.283928 -22.250977 -17.338318
-63.425747 -20.88379 -17.792234
-64.361992 -16.678977 -16.827769
-64.704312 -16.054958 -15.876736
-64.413837 -15.433909 -16.991743
-63.965515 -17.381242 -17.670839
-64.255989 -18.002291 -16.555833
-64.361992 -16.678977 -16.827769
-63.884636 -15.466358 -19.117872
-63.933739 -14.148094 -19.344763
-63.797731 -16.864197 -18.78161
-63.884636 -15.466358 -19.117872
-63.61085 -16.272627 -19.956707
-63.691728 -18.187511 -18.509674
-63.965515 -17.381242 -17.670839
-63.797731 -16.864197 -18.78161
-63.394644 -19.061476 -19.230372
-63.562427 -19.578521 -18.119601
-63.691728 -18.187511 -18.509674
-63.394644 -19.061476 -19.230372
-63.39774 -18.627855 -20.313826
-63.546484 -8.047304 -21.624724
-63.793495 -8.853189 -20.262783
-63.677763 -7.530998 -20.496626
-63.546484 -8.047304 -21.624724
-63.386274 -7.342322 -22.967666
-62.868927 -4.440373 -26.087021
-62.808533 -3.848557 -24.938051
-62.647213 -3.109757 -26.359834
-62.867378 -4.503656 -28.509472
-62.561152 -3.003988 -28.93033
-62.927578 -5.15164 -27.152168
-62.867378 -4.503656 -28.509472
-62.868927 -4.440373 -26.087021
-62.927578 -5.15164 -27.152168
-57.814127 8.705412 -30.741819
-58.255253 7.59407 -29.218387
-57.966707 8.972687 -32.003217
-57.814127 8.705412 -30.741819
-58.606556 8.029169 -31.71886
-57.966707 8.972687 -32.003217
3 0 61 59
3 1 64 62
3 1 66 64
3 4 69 67
3 4 71 69
3 4 73 71
3 3 76 74
3 3 78 76
3 2 81 79
3 5 233 235
3 235 234 82
3 233 234 235
3 7 86 84
3 7 88 86
3 7 90 88
3 9 93 91
3 9 95 93
3 236 96 237
3 238 98 239
3 240 239 96
3 238 239 240
3 11 241 242
3 243 101 244
3 245 244 99
3 243 244 245
3 246 103 247
3 248 99 249
3 250 249 103
3 248 249 250
3 6 251 252
3 254 253 105
3 14 108 106
3 14 255 257
3 257 256 108
3 255 256 257
3 8 111 109
3 15 114 112
3 15 115 114
3 15 117 115
3 13 120 118
3 13 122 120
3 12 125 123
3 10 129 127
3 16 258 259
3 260 130 261
3 262 261 60
3 260 261 262
3 264 263 130
3 265 132 266
3 18 133 63
3 18 134 133
3 18 136 134
3 20 137 65
3 20 138 137
3 21 140 139
3 22 267 269
3 269 268 68
3 267 268 269
3 22 270 272
3 270 141 271
3 270 271 272
3 22 142 141
3 273 143 274
3 275 274 70
3 273 274 275
3 277 276 143
3 278 144 279
3 24 145 72
3 24 146 145
3 25 149 147
3 27 150 75
3 27 151 150
3 27 153 151
3 29 154 77
3 29 155 154
3 30 158 156
3 31 159 80
3 31 280 282
3 282 281 159
3 280 281 282
3 284 283 160
3 32 285 286
3 33 287 289
3 289 288 83
3 287 288 289
3 33 290 292
3 290 162 291
3 290 291 292
3 17 163 131
3 34 164 85
3 34 165 164
3 34 166 165
3 35 167 87
3 35 168 167
3 35 170 168
3 37 171 89
3 37 172 171
3 19 173 135
3 38 174 92
3 38 175 174
3 38 176 175
3 39 177 94
3 39 178 177
3 293 180 294
3 41 295 296
3 41 297 299
3 297 181 298
3 297 298 299
3 41 182 181
3 301 300 97
3 42 185 183
3 44 186 100
3 44 187 186
3 302 188 303
3 45 304 306
3 304 189 305
3 304 305 306
3 45 190 189
3 45 191 190
3 46 307 309
3 307 192 308
3 307 308 309
3 46 193 192
3 47 310 312
3 310 194 311
3 310 311 312
3 47 195 194
3 47 196 195
3 48 313 315
3 313 197 314
3 313 314 315
3 48 198 197
3 49 316 318
3 316 199 317
3 316 317 318
3 49 200 199
3 49 201 200
3 319 202 320
3 321 320 102
3 319 320 321
3 322 203 323
3 324 323 202
3 322 323 324
3 325 204 326
3 327 205 328
3 329 328 204
3 327 328 329
3 330 206 331
3 332 207 333
3 334 333 206
3 332 333 334
3 50 335 336
3 50 337 339
3 337 208 338
3 337 338 339
3 50 209 208
3 42 210 104
3 42 183 210
3 23 340 341
3 52 342 344
3 344 343 107
3 342 343 344
3 52 345 347
3 345 212 346
3 345 346 347
3 52 348 350
3 350 349 212
3 348 349 350
3 36 213 169
3 53 214 110
3 53 215 214
3 26 216 148
3 54 217 113
3 54 218 217
3 54 351 353
3 353 352 218
3 351 352 353
3 55 354 355
3 55 356 357
3 55 358 360
3 358 219 359
3 358 359 360
3 56 220 116
3 56 221 220
3 28 222 152
3 57 223 119
3 57 224 223
3 57 225 224
3 51 226 121
3 51 211 226
3 43 227 184
3 58 228 124
3 58 361 363
3 363 362 228
3 361 362 363
3 365 364 157
3 366 229 367
3 368 367 126
3 366 367 368
3 370 369 229
3 40 230 179
3 371 231 372
3 373 372 128
3 371 372 373
3 375 374 231
3 376 232 377
3 378 377 161
3 376 377 378
3 59 60 16
3 61 60 59
3 61 379 381
3 381 380 60
3 379 380 381
3 62 382 384
3 382 63 383
3 382 383 384
3 64 63 62
3 64 18 63
3 64 65 18
3 66 65 64
3 66 20 65
3 67 68 21
3 69 68 67
3 69 22 68
3 69 70 22
3 71 70 69
3 71 385 387
3 387 386 70
3 385 386 387
3 71 388 390
3 388 72 389
3 388 389 390
3 73 72 71
3 73 24 72
3 74 75 25
3 76 75 74
3 76 27 75
3 76 77 27
3 78 77 76
3 78 29 77
3 79 80 30
3 81 80 79
3 81 31 80
3 82 391 393
3 393 392 32
3 391 392 393
3 395 394 82
3 396 83 397
3 398 83 399
3 400 33 401
3 402 401 83
3 400 401 402
3 84 85 17
3 86 85 84
3 86 34 85
3 86 87 34
3 88 87 86
3 88 35 87
3 88 89 35
3 90 89 88
3 90 37 89
3 91 92 19
3 93 92 91
3 93 38 92
3 93 94 38
3 95 94 93
3 95 39 94
3 96 403 405
3 403 404 405
3 96 406 408
3 406 41 407
3 406 407 408
3 96 97 41
3 98 97 96
3 98 409 411
3 411 410 97
3 409 410 411
3 99 100 42
3 101 100 99
3 101 44 100
3 412 45 413
3 415 414 45
3 416 46 417
3 418 47 419
3 418 419 420
3 422 421 47
3 423 48 424
3 425 49 426
3 427 102 428
3 429 428 49
3 427 428 429
3 430 102 431
3 433 432 102
3 103 434 435
3 103 436 438
3 436 50 437
3 436 437 438
3 103 104 50
3 99 104 103
3 99 42 104
3 105 439 440
3 442 441 105
3 106 107 23
3 108 107 106
3 108 52 107
3 108 443 445
3 445 444 52
3 443 444 445
3 447 446 108
3 109 110 36
3 111 110 109
3 111 53 110
3 112 113 26
3 114 113 112
3 114 54 113
3 114 448 450
3 450 449 54
3 448 449 450
3 115 451 453
3 453 452 114
3 451 452 453
3 115 454 456
3 454 55 455
3 454 455 456
3 115 116 55
3 117 116 115
3 117 56 116
3 118 119 28
3 120 119 118
3 120 57 119
3 120 121 57
3 122 121 120
3 122 51 121
3 123 124 43
3 125 124 123
3 125 58 124
3 457 126 458
3 459 126 460
3 462 461 126
3 127 128 40
3 129 128 127
3 129 463 465
3 465 464 128
3 463 464 465
3 467 466 5
3 60 468 470
3 470 469 16
3 468 469 470
3 130 471 473
3 473 472 60
3 471 472 473
3 130 474 475
3 130 476 477
3 479 478 130
3 480 131 481
3 132 482 484
3 482 131 483
3 482 483 484
3 132 17 131
3 63 485 487
3 485 132 486
3 485 486 487
3 133 132 63
3 133 17 132
3 133 84 17
3 134 84 133
3 134 7 84
3 134 135 7
3 136 135 134
3 136 19 135
3 65 136 18
3 137 136 65
3 137 19 136
3 137 91 19
3 138 91 137
3 138 9 91
3 489 488 11
3 139 490 492
3 492 491 6
3 490 491 492
3 140 493 495
3 495 494 139
3 493 494 495
3 140 496 497
3 68 140 21
3 498 140 499
3 500 499 68
3 498 499 500
3 502 501 140
3 141 503 504
3 141 505 506
3 141 507 508
3 142 509 511
3 511 510 141
3 509 510 511
3 142 512 513
3 70 142 22
3 143 142 70
3 143 514 516
3 516 515 142
3 514 515 516
3 143 517 519
3 517 105 518
3 517 518 519
3 520 105 521
3 522 521 143
3 520 521 522
3 524 523 105
3 144 525 526
3 144 527 529
3 527 23 528
3 527 528 529
3 72 530 532
3 530 144 531
3 530 531 532
3 145 144 72
3 145 23 144
3 145 106 23
3 146 106 145
3 146 14 106
3 147 148 8
3 149 148 147
3 149 26 148
3 75 149 25
3 150 149 75
3 150 26 149
3 150 112 26
3 151 112 150
3 151 15 112
3 151 152 15
3 153 152 151
3 153 28 152
3 77 153 27
3 154 153 77
3 154 28 153
3 154 118 28
3 155 118 154
3 155 13 118
3 156 157 12
3 158 157 156
3 158 533 535
3 535 534 157
3 533 534 535
3 80 158 30
3 159 158 80
3 159 536 538
3 538 537 158
3 536 537 538
3 159 539 540
3 542 541 159
3 160 161 10
3 543 161 544
3 545 544 160
3 543 544 545
3 547 546 161
3 549 548 32
3 551 550 5
3 83 552 553
3 555 554 83
3 162 556 557
3 162 558 560
3 558 6 559
3 558 559 560
3 131 561 562
3 163 563 565
3 565 564 131
3 563 564 565
3 163 566 568
3 566 33 567
3 566 567 568
3 85 163 17
3 164 163 85
3 164 33 163
3 164 162 33
3 165 162 164
3 165 6 162
3 165 139 6
3 166 139 165
3 166 21 139
3 87 166 34
3 167 166 87
3 167 21 166
3 167 67 21
3 168 67 167
3 168 4 67
3 168 169 4
3 170 169 168
3 170 36 169
3 89 170 35
3 171 170 89
3 171 36 170
3 171 109 36
3 172 109 171
3 172 8 109
3 135 90 7
3 173 90 135
3 173 37 90
3 92 173 19
3 174 173 92
3 174 37 173
3 174 172 37
3 175 172 174
3 175 8 172
3 175 147 8
3 176 147 175
3 176 25 147
3 94 176 38
3 177 176 94
3 177 25 176
3 177 74 25
3 178 74 177
3 178 3 74
3 569 179 570
3 571 570 2
3 569 570 571
3 180 572 574
3 572 179 573
3 572 573 574
3 180 40 179
3 575 180 576
3 577 180 578
3 579 40 580
3 581 580 180
3 579 580 581
3 582 127 583
3 584 583 40
3 582 583 584
3 585 127 586
3 587 10 588
3 589 588 127
3 587 588 589
3 181 590 591
3 181 592 594
3 592 10 593
3 592 593 594
3 181 160 10
3 182 160 181
3 182 595 597
3 597 596 160
3 595 596 597
3 97 182 41
3 598 182 599
3 600 599 97
3 598 599 600
3 602 601 182
3 603 62 604
3 605 62 606
3 607 1 608
3 609 608 62
3 607 608 609
3 611 610 11
3 183 184 0
3 185 184 183
3 185 43 184
3 100 185 42
3 186 185 100
3 186 43 185
3 186 123 43
3 187 123 186
3 187 12 123
3 612 101 613
3 188 614 616
3 614 101 615
3 614 615 616
3 188 44 101
3 617 188 618
3 189 619 621
3 619 188 620
3 619 620 621
3 189 44 188
3 189 187 44
3 190 187 189
3 190 12 187
3 190 156 12
3 191 156 190
3 191 30 156
3 622 191 623
3 624 623 45
3 622 623 624
3 625 191 626
3 627 30 628
3 629 628 191
3 627 628 629
3 630 79 631
3 632 631 30
3 630 631 632
3 633 79 634
3 635 2 636
3 637 636 79
3 635 636 637
3 638 2 639
3 641 640 2
3 192 642 643
3 192 644 645
3 192 646 647
3 193 648 650
3 650 649 192
3 648 649 650
3 193 651 653
3 651 1 652
3 651 652 653
3 654 46 655
3 194 656 657
3 194 658 660
3 658 46 659
3 658 659 660
3 194 193 46
3 195 193 194
3 195 1 193
3 195 66 1
3 196 66 195
3 196 20 66
3 661 196 662
3 663 662 47
3 661 662 663
3 197 664 666
3 664 196 665
3 664 665 666
3 197 20 196
3 197 138 20
3 198 138 197
3 198 9 138
3 667 48 668
3 199 669 670
3 199 671 673
3 671 48 672
3 671 672 673
3 199 198 48
3 200 198 199
3 200 9 198
3 200 95 9
3 201 95 200
3 201 39 95
3 102 201 49
3 202 201 102
3 202 39 201
3 202 178 39
3 203 178 202
3 203 3 178
3 674 203 675
3 204 676 678
3 676 203 677
3 676 677 678
3 204 3 203
3 204 78 3
3 205 78 204
3 205 29 78
3 679 205 680
3 206 681 683
3 681 205 682
3 681 682 683
3 206 29 205
3 206 155 29
3 207 155 206
3 207 13 155
3 684 207 685
3 208 686 688
3 686 207 687
3 686 687 688
3 208 13 207
3 208 122 13
3 209 122 208
3 209 51 122
3 104 209 50
3 210 209 104
3 210 51 209
3 210 211 51
3 183 211 210
3 183 0 211
3 690 689 6
3 691 11 692
3 107 693 695
3 695 694 23
3 693 694 695
3 697 696 107
3 212 698 699
3 212 700 702
3 700 11 701
3 700 701 702
3 212 703 705
3 705 704 11
3 703 704 705
3 707 706 212
3 709 708 52
3 169 73 4
3 213 73 169
3 213 24 73
3 110 213 36
3 214 213 110
3 214 24 213
3 214 146 24
3 215 146 214
3 215 14 146
3 148 111 8
3 216 111 148
3 216 53 111
3 113 216 26
3 217 216 113
3 217 53 216
3 217 215 53
3 218 215 217
3 218 14 215
3 218 710 712
3 712 711 14
3 710 711 712
3 714 713 218
3 716 715 54
3 219 717 718
3 219 719 721
3 719 32 720
3 719 720 721
3 116 219 55
3 220 219 116
3 220 32 219
3 220 82 32
3 221 82 220
3 221 5 82
3 152 117 15
3 222 117 152
3 222 56 117
3 119 222 28
3 223 222 119
3 223 56 222
3 223 221 56
3 224 221 223
3 224 5 221
3 224 722 724
3 724 723 5
3 722 723 724
3 225 725 727
3 727 726 224
3 725 726 727
3 225 728 730
3 728 16 729
3 728 729 730
3 121 225 57
3 226 225 121
3 226 16 225
3 226 59 16
3 211 59 226
3 211 0 59
3 184 61 0
3 227 61 184
3 227 731 733
3 733 732 61
3 731 732 733
3 124 227 43
3 228 227 124
3 228 734 736
3 736 735 227
3 734 735 736
3 228 737 738
3 740 739 228
3 157 125 12
3 741 125 742
3 743 742 157
3 741 742 743
3 744 58 745
3 746 745 125
3 744 745 746
3 126 747 748
3 229 749 751
3 751 750 126
3 749 750 751
3 229 752 754
3 752 58 753
3 752 753 754
3 229 755 757
3 757 756 58
3 755 756 757
3 759 758 229
3 179 81 2
3 230 81 179
3 230 31 81
3 128 230 40
3 231 230 128
3 231 31 230
3 231 760 762
3 762 761 31
3 760 761 762
3 764 763 231
3 161 129 10
3 232 129 161
3 232 765 767
3 767 766 129
3 765 766 767
3 768 232 769
3 770 232 771
3 773 772 232
3 774 98 775
3 776 98 777
3 779 778 98
