ply
format ascii 1.0
element vertex 1101
property float x
property float y
property float z
element face 1225
property list uchar int vertex_index
end_header
40.589478 -6.579755 -4.454247
52.572174 43.289768 1.791972
38.44548 16.023228 -11.620039
38.113705 22.738529 5.855444
51.511284 17.427155 7.569449
61.373314 10.775881 10.800816
40.666019 45.65435 -10.237114
39.837685 3.617794 -7.63932
44.387497 35.317173 4.070744
43.972466 20.809525 8.364885
51.978668 31.279736 6.164499
57.118088 21.557362 12.451482
56.090893 16.77103 18.7694
64.360313 9.00452 17.35527
46.326263 46.416252 -4.081184
38.21384 36.627705 -0.42765
36.338005 26.27586 -16.636595
37.453133 20.17812 -26.648458
41.969318 12.922829 -23.068964
37.802086 6.137817 2.243454
39.055138 6.370296 9.106703
56.896919 26.69276 8.462997
57.57933 13.828037 7.335328
35.952534 33.097992 -7.83791
36.417244 20.926556 -1.394264
44.972565 -13.850804 -5.837412
40.294441 -2.235928 -5.890385
42.613075 -7.433816 -8.522423
48.848511 39.67392 2.597615
48.258934 33.439392 5.249997
52.334118 37.569599 4.579227
49.964645 50.027313 -5.5121
49.53849 45.153931 -1.149675
45.197739 41.351707 0.482942
37.497818 21.601715 -13.961498
38.730389 18.764355 -19.298952
40.162521 13.852268 -17.241148
37.31966 14.611977 4.793999
37.982822 6.559826 6.145959
38.611416 14.669212 7.729095
47.73888 19.175411 8.167545
43.99543 12.89282 10.015154
47.583496 11.578362 9.707941
51.310772 10.171793 8.971285
59.102226 16.017471 11.120312
58.433861 18.089466 8.864546
59.661469 12.151119 8.559456
58.034004 7.389765 8.507599
60.879627 6.290035 9.590255
63.466705 5.534107 11.566449
65.39563 8.091986 21.129536
67.432335 4.561174 17.356499
44.469658 50.284889 -12.244444
41.613773 48.615288 -15.16765
38.3894 43.452721 -13.332739
36.206745 37.328918 -12.015253
37.409538 40.105328 -8.43996
37.87495 30.183357 3.217834
36.365322 29.44997 -0.09824
36.687099 22.371334 2.761727
37.07827 13.653709 0.75845
39.215874 9.883846 -9.537979
41.220215 8.399311 -15.229868
41.981277 2.739061 -13.180706
40.529278 29.737328 5.437211
40.636677 22.113564 7.698039
44.021858 28.385693 6.568343
47.904968 26.536652 6.902242
51.693432 24.513195 6.878565
56.444424 19.014748 15.312115
59.643238 14.261608 14.193982
62.939209 9.775532 13.828311
60.37886 12.883457 17.87055
61.3325 11.685726 21.880909
43.308098 46.664734 -7.123913
39.2514 41.787048 -5.059521
41.88026 42.174446 -2.042601
40.888275 36.515949 2.247145
36.902012 22.862011 -21.484079
40.904266 14.000488 9.444124
41.042648 5.765482 10.999386
55.120007 35.313824 6.700931
55.01091 29.03587 7.163147
54.897209 22.433052 6.948667
57.487854 24.182434 10.19205
57.151421 20.281399 7.512169
54.875549 15.630539 7.116493
54.850883 8.73764 8.390144
65.740944 5.045973 14.214615
35.961433 29.880692 -12.10582
36.497414 24.760235 -8.935184
36.60025 35.454918 -3.875713
36.001148 27.546677 -4.253658
37.106358 18.634254 -6.284161
37.773491 11.909159 -4.119274
38.432858 5.043913 -2.411694
42.24913 -10.650789 -5.337324
40.458908 -4.73409 -5.098663
41.38102 -5.095816 -7.369076
41.407192 -7.149447 -6.269772
50.893784 41.542385 2.075253
50.645348 38.652325 3.584949
52.48444 40.50053 3.327242
52.556923 45.955856 0.040083
51.235985 46.863358 -1.648607
51.105911 44.271839 0.306839
49.198128 42.50515 0.841825
37.996677 18.907257 -12.753119
38.725544 17.552979 -15.470947
39.272335 14.829956 -14.400726
37.526772 18.778027 5.523236
37.833096 14.747147 6.410876
38.351685 18.757645 6.869
49.651768 18.308979 7.885608
47.673733 15.393154 8.875329
49.565636 14.609943 8.53363
49.4524 10.882769 9.358572
51.424423 13.811142 8.156948
60.232849 13.376389 10.816487
59.665089 14.199757 9.562768
60.545948 11.417034 9.563999
60.289871 9.217936 8.918695
61.405067 8.648443 9.881994
62.203789 5.869175 10.480048
62.465233 8.173056 11.061829
65.656677 7.439072 23.035566
42.603634 48.036148 -11.284437
41.26543 47.211983 -12.789064
39.963089 46.108566 -14.251642
39.487564 44.687225 -11.789904
37.922569 41.921745 -10.886477
38.87109 43.039871 -9.24328
37.94025 26.563145 4.650766
37.053055 26.438499 3.188004
37.252884 22.691307 4.458613
36.983269 18.552204 3.871736
39.545555 6.737169 -8.569483
40.517616 6.023624 -11.374712
40.822994 3.043713 -10.391378
42.315304 32.70253 4.823069
42.197281 29.149708 6.126059
44.153069 31.950272 5.440697
50.171326 32.376564 5.715784
48.051796 30.059696 6.170893
49.985218 29.015495 6.39004
49.842209 25.53447 6.906108
51.821152 27.946323 6.583191
57.986755 16.572514 14.667928
58.046917 15.626274 16.40387
59.977913 13.530869 15.972904
58.218216 14.777145 18.273645
58.922745 13.282055 22.292553
48.345703 48.2575 -4.929871
48.633774 50.501419 -7.280508
46.865776 48.640694 -6.548836
45.405853 48.749802 -8.154474
44.776409 46.689201 -5.588024
42.571983 44.555401 -4.52323
44.100632 44.4193 -3.07531
44.736992 38.457039 2.419588
42.946419 39.100285 1.408722
42.56004 36.029572 3.258709
40.634415 33.252743 3.978616
35.675732 28.214886 -18.105574
35.748608 26.33704 -20.331713
36.606377 24.50753 -19.01792
40.274681 15.528538 -21.112715
39.355312 17.696499 -22.084044
41.009575 15.026962 -24.025354
41.640625 14.9258 -26.985643
42.771095 13.089836 -26.039557
60.83609 9.696993 30.38866
61.033249 8.387081 32.218483
38.36076 2.128016 0.556534
38.151619 2.404671 2.731031
38.4035 6.530293 7.754488
38.268669 2.54846 6.604351
38.623833 2.449589 8.24701
42.225594 21.522961 8.163486
40.77042 18.095119 8.609745
42.300621 17.533833 9.02692
43.953304 8.898647 10.897243
42.392361 9.415472 10.695009
42.353149 5.367002 11.539721
56.119217 31.055309 7.940697
56.116951 27.882214 7.766338
54.94352 25.76659 7.075564
56.121235 24.64724 7.45155
57.385498 22.874371 11.24983
58.272865 16.063976 7.781489
57.898689 19.183128 8.077644
57.349445 17.055611 7.271176
56.222366 18.055904 6.997033
56.314667 14.724247 7.114382
54.873562 12.188038 7.599166
56.41106 11.382809 7.559142
58.216763 4.191509 9.552036
56.534737 4.718222 9.403024
63.67823 9.38019 15.545873
64.426186 7.46339 13.929968
65.289848 7.17293 15.55494
67.844246 2.348436 16.109514
37.453766 43.223118 -17.096224
36.255558 41.516193 -18.51174
35.681747 37.212917 -15.914225
36.056816 35.381397 -9.869726
35.829659 33.762295 -11.846388
35.895714 31.570412 -9.940203
36.222023 27.465477 -10.456001
36.002636 29.055214 -8.166969
38.652527 39.377411 -2.637449
37.683041 38.826424 -4.301439
37.272606 36.202106 -2.069788
36.182487 25.314804 -0.544006
36.053226 28.632404 -2.092106
36.168018 24.345341 -2.732492
36.386402 23.154457 -5.078419
36.661045 19.859722 -3.768175
37.435951 15.318039 -5.144032
36.977585 16.40876 -2.60845
37.442104 9.902306 1.584244
37.672153 9.259663 -0.723122
38.019833 5.667048 -0.001287
38.743591 1.705875 -1.749531
35.992023 22.896984 -25.013117
36.104836 21.420593 -27.445864
43.488586 -12.461996 -5.67309
43.835892 -11.011548 -7.606091
45.410511 -12.329144 -7.918276
40.08828 0.595949 -6.744665
41.07365 0.139156 -9.403404
41.262978 -2.610895 -8.400562
42.592445 -5.22704 -9.812035
46.618999 37.621227 3.293017
46.308849 34.435253 4.718769
48.527782 36.650112 4.069952
50.396217 35.594662 4.797118
52.156197 34.493114 5.518784
51.230717 49.353737 -3.700119
49.816032 47.647354 -3.299397
47.927841 45.887032 -2.605169
45.744511 43.999031 -1.706253
47.461498 43.342373 -0.407927
47.010834 40.59161 1.577129
36.945232 24.067028 -15.254307
37.392174 22.422005 -17.770819
38.099628 20.095356 -16.590807
39.497177 16.394974 -18.258852
41.078278 13.190399 -20.133238
37.433975 10.35268 3.684016
37.786098 6.434547 4.300817
37.661697 10.598312 5.546992
38.134773 10.647579 7.147713
38.855347 10.522938 8.467462
45.827618 20.015995 8.347946
43.991768 16.874969 9.179853
45.798904 16.153137 9.111584
45.749035 12.251793 9.947502
45.650436 8.34219 10.875944
47.44352 7.757051 10.678284
51.152042 6.530769 10.006739
58.045605 18.737232 11.687844
58.041519 19.914394 10.473776
58.813427 17.025078 9.880653
59.028652 15.103432 8.545489
58.684982 12.962315 7.81319
57.815964 10.604387 7.750852
59.101498 9.875347 8.202601
59.49316 6.799688 8.926099
61.409821 3.359318 10.513569
62.919273 3.065536 11.305058
64.35363 2.84343 12.276407
64.947868 8.594946 19.226376
66.02784 6.86669 17.272696
66.594551 6.490744 19.060019
38.692314 44.765362 -15.682013
37.359638 41.991447 -14.869551
36.344604 38.966904 -14.218803
37.087048 40.55014 -12.545088
36.742836 38.83424 -10.210089
36.416782 36.794899 -7.943682
37.957024 33.552315 1.528563
37.034595 33.23962 -0.06735
36.968624 29.970654 1.684984
36.469086 26.020683 1.44405
36.414951 21.776798 0.797022
36.728706 17.345051 -0.232969
36.721935 18.070786 1.940898
37.071606 14.246887 2.899754
38.850037 12.99778 -10.551769
39.747387 11.96879 -13.368696
40.160011 9.016638 -12.363636
41.634109 5.57263 -14.215467
42.261799 -0.050018 -12.112957
39.114792 26.409325 5.809049
39.252293 22.53389 6.934885
40.542702 26.009583 6.659462
42.178757 25.409229 7.21805
43.97142 24.659275 7.517926
46.086327 31.051891 5.872793
45.944412 27.498875 6.809005
45.866295 23.808922 7.605517
47.807259 22.898998 7.536097
49.73629 21.957848 7.370046
51.5942 21.000549 7.170314
56.775551 20.260578 13.804646
58.004154 17.614777 13.089809
59.362171 15.091103 12.566467
60.775543 12.648895 12.278263
62.16806 10.232065 12.234786
61.322605 12.020235 13.913683
61.885544 11.477396 15.686755
62.457188 10.989893 17.562124
58.513084 14.007885 20.247999
60.838966 12.285326 19.852179
63.013237 10.510889 19.505102
63.515205 9.981684 21.4809
63.914543 9.339758 23.454758
64.157913 8.5291 25.394115
45.874989 50.661659 -10.659872
43.983135 48.552231 -9.736996
41.937088 46.320045 -8.678194
39.953663 43.866688 -7.624088
41.185925 44.375103 -6.044538
40.466827 42.144897 -3.49416
39.864265 39.597546 -1.118652
43.470146 41.896835 -0.717514
41.306171 39.495571 0.232679
39.426121 36.72702 1.017891
39.1665 33.549305 2.882276
39.072872 30.096317 4.471662
53.726795 44.965534 1.786997
53.877739 42.244656 3.331319
35.861774 24.547276 -22.636404
37.197224 21.404064 -24.031839
37.862602 20.928448 -20.371679
38.324894 19.66375 -23.055311
40.733223 11.173485 -16.23498
41.770386 10.715473 -19.137136
45.437817 6.758625 -22.715776
43.777946 11.097954 -25.010881
38.116714 2.539967 4.756278
39.442169 18.51738 7.896645
39.642525 14.408043 8.739037
39.81675 10.254745 9.496529
42.367043 13.484283 9.860328
41.003502 9.875572 10.235382
39.937668 6.106876 10.189887
53.847473 36.453159 5.611998
53.739452 33.367561 6.270094
55.079903 32.223915 7.073769
53.613377 30.165581 6.636653
53.494179 26.863705 6.797951
53.39682 23.480061 6.875297
53.323997 20.031551 7.000626
57.14909 27.268978 10.938694
57.344536 25.459206 9.267268
57.913864 21.11702 9.451595
57.587223 22.318089 8.616827
57.001312 23.497925 7.956746
56.154526 21.367271 7.146785
54.877365 19.049984 6.923466
53.266235 16.533577 7.289663
53.205112 13.001572 7.820581
53.119698 9.452902 8.623346
52.994072 5.907806 9.680573
56.489471 8.042934 8.336325
54.792694 5.297176 9.459251
63.4758 7.785063 12.422529
64.655289 5.269108 12.819647
65.68277 2.671635 13.409039
66.682617 4.825512 15.732211
66.863495 2.519239 14.689602
35.657249 30.120125 -15.955477
35.774353 35.634365 -13.853598
35.703884 31.989605 -13.87261
36.116825 28.092197 -14.335466
36.546768 25.776745 -12.817923
36.953773 23.187576 -11.40967
37.341568 20.355595 -10.108995
38.237041 41.100727 -6.716383
36.946754 37.956253 -6.080111
36.172867 34.408283 -5.809036
36.404236 32.609398 -1.873465
36.047665 31.678196 -3.850132
35.929008 30.478352 -5.958437
36.165169 26.236771 -6.544268
36.79221 21.800232 -7.545771
37.713074 17.325314 -8.909338
38.070309 14.149662 -7.802181
38.41304 10.885298 -6.779247
38.737843 7.590601 -5.83452
37.32029 12.857479 -1.593992
38.108887 8.465044 -3.207081
39.039223 4.327358 -4.966879
39.313812 1.165739 -4.184519
41.26392 -8.562925 -4.889688
40.954979 -9.467862 -3.116899
41.873997 -11.737461 -3.381014
44.413754 -15.175083 -3.648832
46.03952 -16.215124 -3.574673
36.156815 20.129257 -29.910769
34.681484 20.79142 -30.415491
42.503723 -9.248674 -7.054981
44.045139 -9.270623 -9.346254
66.349903 6.38104 22.891915
65.672928 7.015708 23.976853
56.14448 17.308622 17.869967
55.10458 17.85926 19.058789
57.068905 16.198652 17.586635
57.122492 16.736244 16.687202
56.14448 17.308622 17.869967
60.247892 8.422771 33.464821
60.087353 9.130546 32.559126
39.125484 4.317499 9.383585
38.909832 2.357146 8.953739
38.839485 4.409942 8.676856
43.098787 5.146764 11.683004
43.153227 7.132824 11.218482
43.898865 6.912586 11.361766
43.042263 3.15164 12.105228
42.296625 3.371879 11.961945
43.098787 5.146764 11.683004
56.506935 27.287487 8.114667
56.466276 28.865108 8.319968
56.85626 28.270381 8.668297
57.251793 22.215867 11.850656
56.868195 23.675362 12.277338
56.734489 23.016858 12.878165
57.380036 2.807974 10.117869
58.288214 2.605896 10.178038
36.323591 40.929571 -17.460957
36.854662 42.369656 -17.803982
36.922695 41.783034 -16.753198
35.871205 40.028568 -18.239296
36.323591 40.929571 -17.460957
36.036686 38.777933 -16.162199
35.584299 37.87693 -16.940538
43.363411 -7.331183 -9.712623
43.353096 -6.227795 -10.357429
42.60276 -6.330428 -9.167229
51.813118 48.942402 -2.769843
51.638489 50.20546 -3.725847
50.300717 8.661264 9.668029
49.37153 9.016752 9.861673
50.381586 10.527281 9.164929
51.231407 8.351281 9.489012
50.221351 6.840753 10.185756
50.300717 8.661264 9.668029
60.360332 5.012485 9.756871
59.667099 5.267312 9.424793
60.186394 6.544861 9.258177
61.144724 4.824676 10.051912
60.625429 3.547127 10.218528
60.360332 5.012485 9.756871
44.552592 51.109867 -13.388856
45.265711 51.388722 -12.617247
42.376478 49.844353 -15.561625
42.331684 49.105476 -14.456851
41.596165 49.277328 -16.22119
42.376478 49.844353 -15.561625
40.888884 47.997867 -15.846069
41.596165 49.277328 -16.22119
42.632753 2.780984 -14.57505
42.459169 4.197769 -15.09243
41.807693 4.155845 -13.698087
42.365614 -1.391057 -11.554972
41.667725 0.044569 -10.75818
41.77154 -1.29647 -10.200195
55.769979 20.318699 15.693043
55.488829 19.63171 16.478269
56.609988 19.637663 14.558381
55.935543 20.941614 14.939308
55.769979 20.318699 15.693043
57.45845 14.445994 21.47717
57.334503 14.898815 20.469127
63.075767 9.787498 24.690447
62.865837 10.181477 23.686499
63.197452 9.382168 25.660125
64.036228 8.934429 24.424436
63.075767 9.787498 24.690447
49.938468 51.186107 -6.599634
50.499511 50.908196 -5.631566
48.668033 51.588421 -8.415712
47.949478 50.613853 -8.140536
46.570086 50.693973 -9.830217
46.646147 51.698536 -10.992426
54.210697 44.442448 2.696998
53.990132 45.782987 1.931365
53.990132 45.782987 1.931365
53.571985 46.284135 0.934285
39.126704 18.310469 -23.996818
38.840103 18.680124 -22.569677
39.641913 17.326843 -23.511185
38.530638 19.173504 -24.433649
39.126704 18.310469 -23.996818
41.869695 15.068352 -28.482133
42.524895 14.302981 -28.010607
42.651423 9.516493 -20.073376
42.065884 9.42706 -18.626806
42.289055 10.695776 -20.601027
42.651423 9.516493 -20.073376
46.451737 6.399468 -23.428762
45.772582 5.609543 -22.08477
44.725349 10.605264 -25.902073
44.221055 10.038435 -24.456472
44.189819 11.534614 -26.490665
44.725349 10.605264 -25.902073
62.575384 8.681623 28.798656
61.681854 9.483291 29.129707
61.72962 8.895326 30.057609
38.34888 0.634651 5.832897
38.394413 0.584978 6.77089
40.517181 3.889757 10.913185
39.964691 4.060454 10.508436
40.490158 5.936179 10.594637
53.891645 40.828328 3.978976
54.421257 41.701418 4.135743
54.48374 35.883491 6.156465
54.470978 37.373071 5.800508
55.107245 36.803404 6.344975
57.318472 25.725706 10.565372
57.002186 26.581201 11.508819
57.171568 25.03793 11.135497
54.744058 3.591846 10.099612
55.663715 5.007699 9.431138
55.61508 3.302369 10.071499
53.808058 3.842967 10.198247
54.744058 3.591846 10.099612
67.326214 1.215211 15.030169
67.35387 2.433838 15.399558
67.816589 1.12981 15.740125
66.706516 1.263297 14.436343
67.326214 1.215211 15.030169
35.542037 31.95854 -15.84337
35.405899 30.992079 -16.807144
39.156239 -0.052099 -2.631856
38.90074 0.106024 -1.50293
40.436985 -8.453202 -2.042093
40.613076 -8.246164 -3.013311
41.648416 -12.177466 -2.321969
41.225382 -10.951024 -2.239762
42.449596 -12.704798 -3.479793
41.648416 -12.177466 -2.321969
44.090475 -15.753393 -2.521907
43.446688 -14.93488 -2.512819
44.903359 -16.273414 -2.484827
45.226637 -15.695104 -3.611753
44.090475 -15.753393 -2.521907
36.903597 19.288864 -30.9525
36.889072 19.66428 -29.6115
37.635855 18.823887 -30.65323
34.63084 20.046121 -31.518037
35.391924 19.899574 -31.397165
33.950025 20.99214 -30.619264
34.63084 20.046121 -31.518037
44.875553 -9.927878 -9.602079
43.940516 -10.141085 -8.476173
44.77093 -10.798341 -8.731997
44.948032 -8.941132 -10.494266
44.875553 -9.927878 -9.602079
51.896454 46.409607 -0.804262
51.815752 47.697212 -1.744087
52.476221 47.243461 -0.899742
66.300915 6.715237 21.964344
66.170391 7.041694 21.011329
65.526153 7.765529 22.082551
66.300915 6.715237 21.964344
66.349903 6.38104 22.891915
42.826614 48.815906 -12.515245
43.759626 49.940277 -12.995248
43.536646 49.160518 -11.76444
42.157512 48.403824 -13.267558
42.826614 48.815906 -12.515245
41.934532 47.624066 -12.036751
41.439602 47.913635 -13.978357
42.331684 49.105476 -14.456851
42.157512 48.403824 -13.267558
56.321246 18.430481 16.141324
55.488829 19.63171 16.478269
57.092411 17.209364 15.81923
57.21559 17.793631 14.990022
56.321246 18.430481 16.141324
58.016836 16.099394 15.535899
57.092411 17.209364 15.81923
57.122492 16.736244 16.687202
57.872473 13.649493 23.537884
57.66328 14.083078 22.499447
59.170168 12.914571 23.330565
57.872473 13.649493 23.537884
60.375045 12.116407 23.124742
60.127623 12.483891 22.086731
59.170168 12.914571 23.330565
61.574815 11.354461 22.899574
60.375045 12.116407 23.124742
47.065479 49.683491 -7.774699
47.949478 50.613853 -8.140536
47.749775 49.571056 -6.914672
46.135814 48.695248 -7.351655
46.335518 49.738045 -8.577519
47.065479 49.683491 -7.774699
35.71217 27.275963 -19.218643
35.351477 28.110495 -19.989168
35.315039 29.049418 -18.876099
40.469044 15.992075 -24.48184
39.641913 17.326843 -23.511185
40.182443 16.361731 -23.054699
41.3251 14.976381 -25.505499
40.784569 15.941494 -25.961984
40.469044 15.992075 -24.48184
43.09013 13.384999 -27.537563
42.524895 14.302981 -28.010607
42.20586 14.007818 -26.5126
42.61223 6.817085 -17.589983
41.790799 8.268979 -16.673172
42.041647 6.947417 -16.146679
59.988774 9.785502 31.644215
59.729114 10.403723 30.681606
60.934669 9.042037 31.303572
59.988774 9.785502 31.644215
60.087353 9.130546 32.559126
61.828199 8.240369 30.97252
61.72962 8.895326 30.057609
60.934669 9.042037 31.303572
38.535769 0.404769 0.742536
38.884332 -1.406153 -0.163895
38.709324 0.317094 -0.349898
38.431198 0.543096 1.829785
38.535769 0.404769 0.742536
38.256189 2.266344 1.643783
38.325502 0.575431 2.888276
38.431198 0.543096 1.829785
38.571995 0.535543 7.592219
38.394413 0.584978 6.77089
38.446251 2.499024 7.425681
38.710173 0.456489 8.442835
38.571995 0.535543 7.592219
38.710173 0.456489 8.442835
38.909832 2.357146 8.953739
41.681595 3.540578 11.637704
41.026344 3.739818 11.367537
41.697899 5.566242 11.269554
41.681595 3.540578 11.637704
42.296625 3.371879 11.961945
55.556887 36.229114 7.05718
55.107245 36.803404 6.344975
56.467409 30.451656 8.407148
56.418766 31.998861 8.493708
56.118084 29.468761 7.853518
56.467409 30.451656 8.407148
56.466276 28.865108 8.319968
57.12039 24.383898 11.664388
56.868195 23.675362 12.277338
57.436676 23.528402 10.72094
57.171568 25.03793 11.135497
57.12039 24.383898 11.664388
56.539023 3.07133 10.043363
57.37575 4.454866 9.47753
57.380036 2.807974 10.117869
55.61508 3.302369 10.071499
56.539023 3.07133 10.043363
68.208813 2.233011 16.885399
67.63829 3.454805 16.733007
68.002858 3.33938 17.508891
68.310772 1.067214 16.416716
68.208813 2.233011 16.885399
68.283116 -0.151412 16.047327
67.816589 1.12981 15.740125
68.310772 1.067214 16.416716
37.357107 43.768007 -18.119065
38.08083 44.578363 -17.46838
36.758003 42.914545 -18.826822
37.357107 43.768007 -18.119065
36.854662 42.369656 -17.803982
36.049822 42.030651 -19.480818
36.758003 42.914545 -18.826822
35.684708 40.592441 -19.22718
36.049822 42.030651 -19.480818
35.684708 40.592441 -19.22718
35.871205 40.028568 -18.239296
35.387859 36.269464 -16.777994
35.290411 36.933477 -17.804308
35.584299 37.87693 -16.940538
35.554287 35.504936 -15.822744
35.387859 36.269464 -16.777994
38.709324 0.317094 -0.349898
38.90074 0.106024 -1.50293
38.552176 1.916946 -0.596499
35.360834 23.513193 -25.501765
35.373531 24.435528 -24.415911
35.41724 22.774997 -26.718138
35.360834 23.513193 -25.501765
36.048429 22.158788 -26.229491
35.411356 21.90945 -27.821511
35.41724 22.774997 -26.718138
45.558239 -11.457138 -8.888089
44.77093 -10.798341 -8.731997
44.623202 -11.670346 -7.762183
41.866203 -2.671495 -9.698774
41.77154 -1.29647 -10.200195
41.168314 -1.23587 -8.901983
42.530937 -3.979568 -10.404511
41.866203 -2.671495 -9.698774
41.927712 -3.918967 -9.106299
43.323887 -5.077915 -11.062119
43.262378 -3.830443 -11.654595
42.530937 -3.979568 -10.404511
43.323887 -5.077915 -11.062119
43.353096 -6.227795 -10.357429
54.997434 17.253166 19.975428
55.10458 17.85926 19.058789
56.123407 16.280387 19.729827
54.997434 17.253166 19.975428
51.132548 50.571408 -4.725575
51.638489 50.20546 -3.725847
50.597681 49.690525 -4.60611
50.499511 50.908196 -5.631566
51.132548 50.571408 -4.725575
51.233351 48.108548 -2.674363
51.813118 48.942402 -2.769843
51.815752 47.697212 -1.744087
44.747431 6.634358 11.351116
43.898865 6.912586 11.361766
44.80187 8.620418 10.886594
45.567774 6.398032 11.381736
44.747431 6.634358 11.351116
46.464315 6.105462 11.282906
45.567774 6.398032 11.381736
46.546978 8.04962 10.777114
47.341415 5.856404 11.222466
46.464315 6.105462 11.282906
48.367091 7.453893 10.521528
48.44796 9.31991 10.018428
49.37153 9.016752 9.861673
47.341415 5.856404 11.222466
48.367091 7.453893 10.521528
50.110845 4.984747 10.76406
50.221351 6.840753 10.185756
51.046473 4.721355 10.613637
50.110845 4.984747 10.76406
57.025013 27.640491 9.167706
56.85626 28.270381 8.668297
59.0289 3.963222 9.737761
58.854962 5.495598 9.239068
59.667099 5.267312 9.424793
58.288214 2.605896 10.178038
59.0289 3.963222 9.737761
60.774437 2.023007 10.814889
60.625429 3.547127 10.218528
61.641132 1.893777 11.066408
60.774437 2.023007 10.814889
62.395859 1.746886 11.462152
61.641132 1.893777 11.066408
62.164547 3.212427 10.909313
63.230464 1.652739 11.804501
62.395859 1.746886 11.462152
63.947643 1.541686 12.290176
63.230464 1.652739 11.804501
63.636451 2.954483 11.790733
64.734615 1.475342 12.718442
63.947643 1.541686 12.290176
66.769851 6.241073 19.976571
65.995091 7.291365 20.094777
66.170391 7.041694 21.011329
67.268524 5.347508 19.065596
66.769851 6.241073 19.976571
67.687416 4.382723 18.213836
67.013443 5.525959 18.208259
67.268524 5.347508 19.065596
68.002858 3.33938 17.508891
67.687416 4.382723 18.213836
44.552592 51.109867 -13.388856
43.759626 49.940277 -12.995248
40.063541 46.744506 -15.388065
40.888884 47.997867 -15.846069
40.788431 47.361927 -14.709646
39.428154 46.072904 -16.103251
40.063541 46.744506 -15.388065
39.327702 45.436964 -14.966828
38.700103 45.349486 -16.761274
39.428154 46.072904 -16.103251
38.07304 43.99424 -16.389118
38.08083 44.578363 -17.46838
38.700103 45.349486 -16.761274
36.875631 41.167198 -15.639862
36.922695 41.783034 -16.753198
37.406702 42.607282 -15.982888
36.852121 40.479175 -14.544177
36.368114 39.654927 -15.314488
36.875631 41.167198 -15.639862
37.537232 19.688712 -27.980345
38.248541 19.093331 -27.635986
46.09301 -13.503429 -6.911696
45.831185 -14.309708 -5.82464
42.248594 5.534077 -15.639479
42.041647 6.947417 -16.146679
41.427162 6.985971 -14.722668
42.248594 5.534077 -15.639479
42.459169 4.197769 -15.09243
43.074911 -1.246163 -12.861657
42.365614 -1.391057 -11.554972
43.178726 -2.587202 -12.303672
42.944594 0.055546 -13.468044
43.074911 -1.246163 -12.861657
42.804333 1.450085 -14.001918
42.121538 1.344521 -12.646832
42.944594 0.055546 -13.468044
42.632753 2.780984 -14.57505
42.804333 1.450085 -14.001918
56.424767 22.299921 13.541458
56.734489 23.016858 12.878165
56.253498 21.651529 14.21804
55.935543 20.941614 14.939308
56.94682 20.90897 13.128064
56.424767 22.299921 13.541458
56.253498 21.651529 14.21804
57.187069 15.283445 19.481949
57.154555 15.774088 18.521522
56.123407 16.280387 19.729827
58.36565 14.392515 19.260822
57.187069 15.283445 19.481949
57.334503 14.898815 20.469127
58.717914 13.64497 21.270276
57.45845 14.445994 21.47717
57.66328 14.083078 22.499447
62.666168 10.50244 22.69957
62.423853 10.833705 21.680904
61.574815 11.354461 22.899574
63.714874 9.660721 22.467829
62.666168 10.50244 22.69957
62.865837 10.181477 23.686499
64.923545 7.560722 25.156128
65.672928 7.015708 23.976853
64.907295 7.984086 24.214841
49.273033 51.42316 -7.483838
49.938468 51.186107 -6.599634
49.29921 50.264366 -6.396304
49.273033 51.42316 -7.483838
48.668033 51.588421 -8.415712
45.968376 51.577106 -11.824962
46.646147 51.698536 -10.992426
45.172324 50.473274 -11.452158
45.265711 51.388722 -12.617247
45.968376 51.577106 -11.824962
45.640421 49.705731 -9.407173
46.570086 50.693973 -9.830217
46.335518 49.738045 -8.577519
54.286169 43.082009 3.469159
53.802267 43.605095 2.559158
54.210697 44.442448 2.696998
54.421257 41.701418 4.135743
54.286169 43.082009 3.469159
52.987049 46.779297 0.060828
52.476221 47.243461 -0.899742
53.141859 45.460695 0.91354
52.987049 46.779297 0.060828
53.571985 46.284135 0.934285
35.286225 27.121162 -21.016125
35.351477 28.110495 -19.989168
35.342807 26.226281 -22.16847
35.286225 27.121162 -21.016125
35.805191 25.442158 -21.484058
35.308406 25.260674 -23.227555
35.342807 26.226281 -22.16847
35.926899 23.72213 -23.824761
35.373531 24.435528 -24.415911
35.308406 25.260674 -23.227555
37.966803 20.043661 -24.921913
37.761059 20.533907 -23.543575
38.530638 19.173504 -24.433649
38.094758 19.430689 -26.230222
37.325178 20.791092 -25.340149
37.966803 20.043661 -24.921913
38.248541 19.093331 -27.635986
38.094758 19.430689 -26.230222
41.016609 15.750576 -27.416525
40.784569 15.941494 -25.961984
41.245679 15.893127 -28.913015
41.016609 15.750576 -27.416525
41.869695 15.068352 -28.482133
41.547303 9.656066 -17.175728
40.976719 9.786398 -15.732424
41.790799 8.268979 -16.673172
41.251805 10.944479 -17.686058
41.547303 9.656066 -17.175728
42.065884 9.42706 -18.626806
41.943001 11.933239 -21.099077
41.424332 11.952936 -19.635187
42.289055 10.695776 -20.601027
42.388521 11.799454 -22.566941
41.523798 13.056614 -21.601101
41.943001 11.933239 -21.099077
44.796162 6.317694 -21.307755
45.772582 5.609543 -22.08477
44.485138 7.538069 -21.862696
43.843483 7.097138 -20.454674
44.796162 6.317694 -21.307755
46.031682 7.443669 -24.114912
46.451737 6.399468 -23.428762
45.050991 7.868771 -23.30892
46.031682 7.443669 -24.114912
44.098312 8.648214 -22.455839
44.485138 7.538069 -21.862696
45.050991 7.868771 -23.30892
43.292835 10.887016 -23.537899
43.735945 9.827497 -22.98349
44.221055 10.038435 -24.456472
42.873632 12.010392 -24.039923
42.388521 11.799454 -22.566941
43.292835 10.887016 -23.537899
43.686394 12.530556 -27.005003
43.274521 12.093895 -25.525219
44.189819 11.534614 -26.490665
43.09013 13.384999 -27.537563
43.686394 12.530556 -27.005003
60.641621 10.252016 29.420816
59.729114 10.403723 30.681606
60.641621 10.252016 29.420816
61.681854 9.483291 29.129707
63.342765 8.899344 26.632435
63.197452 9.382168 25.660125
64.175529 8.019617 26.333187
63.342765 8.899344 26.632435
63.360382 8.389861 27.571506
64.923545 7.560722 25.156128
64.175529 8.019617 26.333187
60.999724 7.631946 33.074537
60.247892 8.422771 33.464821
60.214367 7.667637 34.320875
61.749624 7.54376 31.849016
60.999724 7.631946 33.074537
61.828199 8.240369 30.97252
61.749624 7.54376 31.849016
40.430325 -6.802111 -3.681985
40.215483 -5.545685 -3.740271
38.30805 0.643079 3.900899
38.325502 0.575431 2.888276
38.134166 2.472319 3.743654
38.272903 0.630404 4.908861
38.192692 2.544213 5.680314
38.34888 0.634651 5.832897
38.30805 0.643079 3.900899
38.272903 0.630404 4.908861
39.56675 4.185789 9.925177
39.125484 4.317499 9.383585
39.496403 6.238586 9.648295
39.56675 4.185789 9.925177
39.964691 4.060454 10.508436
40.517181 3.889757 10.913185
41.026344 3.739818 11.367537
53.194996 39.956265 3.976938
53.181089 41.372593 3.329281
53.891645 40.828328 3.978976
53.119835 38.490799 4.60293
52.409279 39.035064 3.953235
53.194996 39.956265 3.976938
53.876513 37.932579 5.119315
54.470978 37.373071 5.800508
53.090795 37.011379 5.095612
53.119835 38.490799 4.60293
53.876513 37.932579 5.119315
55.606184 34.730904 7.274857
55.556887 36.229114 7.05718
56.105789 32.601647 7.89474
56.418766 31.998861 8.493708
55.586132 33.185949 7.461276
56.105789 32.601647 7.89474
55.59956 31.639612 7.507233
55.099955 33.768869 6.88735
55.606184 34.730904 7.274857
55.586132 33.185949 7.461276
56.789378 28.106257 11.877235
57.002186 26.581201 11.508819
57.006498 28.809095 11.238627
56.789378 28.106257 11.877235
57.151099 27.928601 10.405554
57.006498 28.809095 11.238627
57.248821 27.023714 9.569841
57.151099 27.928601 10.405554
57.246813 26.364092 10.102981
57.120728 26.075983 8.865132
57.025013 27.640491 9.167706
57.248821 27.023714 9.569841
51.967488 4.409873 10.450554
51.046473 4.721355 10.613637
52.073057 6.219288 9.843656
52.908747 4.148282 10.308908
53.893383 5.602491 9.569912
53.808058 3.842967 10.198247
51.967488 4.409873 10.450554
52.908747 4.148282 10.308908
65.399186 1.389445 13.284758
64.734615 1.475342 12.718442
65.0182 2.757532 12.842723
66.116154 1.339495 13.796062
66.273133 2.595437 14.049321
66.706516 1.263297 14.436343
65.399186 1.389445 13.284758
66.116154 1.339495 13.796062
35.41514 30.039459 -17.882193
35.315039 29.049418 -18.876099
35.66649 29.167506 -17.030525
35.41514 30.039459 -17.882193
35.405899 30.992079 -16.807144
36.013176 38.089911 -15.066514
36.036686 38.777933 -16.162199
36.368114 39.654927 -15.314488
35.600589 34.71566 -14.792431
35.554287 35.504936 -15.822744
35.72805 36.423641 -14.883911
35.565355 32.89328 -14.801937
35.600589 34.71566 -14.792431
35.739119 33.811985 -13.863104
35.680566 31.054865 -14.914044
35.542037 31.95854 -15.84337
35.565355 32.89328 -14.801937
39.441349 -0.322167 -3.84935
39.028701 1.435807 -2.967025
39.156239 -0.052099 -2.631856
39.931663 -2.023001 -4.702283
39.804126 -0.535094 -5.037452
39.441349 -0.322167 -3.84935
40.013897 -3.272082 -4.306422
40.376675 -3.485009 -5.494524
39.931663 -2.023001 -4.702283
40.150198 -4.622853 -4.062479
40.013897 -3.272082 -4.306422
40.215483 -5.545685 -3.740271
40.524193 -5.656923 -4.776455
40.150198 -4.622853 -4.062479
40.767546 -7.793696 -3.899705
40.926699 -7.57134 -4.671967
40.430325 -6.802111 -3.681985
41.109449 -9.015394 -4.003293
40.767546 -7.793696 -3.899705
40.613076 -8.246164 -3.013311
40.765873 -9.816225 -2.107705
40.436985 -8.453202 -2.042093
41.414488 -10.602661 -3.248957
40.765873 -9.816225 -2.107705
41.225382 -10.951024 -2.239762
43.256891 -13.067066 -4.625831
42.681292 -12.099728 -4.527052
42.449596 -12.704798 -3.479793
43.99888 -13.76147 -4.707992
44.230576 -13.1564 -5.755251
43.256891 -13.067066 -4.625831
43.719475 -14.42361 -3.613702
43.446688 -14.93488 -2.512819
44.69316 -14.512944 -4.743122
43.99888 -13.76147 -4.707992
43.719475 -14.42361 -3.613702
45.551779 -14.971847 -4.730351
45.831185 -14.309708 -5.82464
44.69316 -14.512944 -4.743122
46.364662 -15.491867 -4.693271
45.551779 -14.971847 -4.730351
45.226637 -15.695104 -3.611753
47.328358 -15.727874 -4.595886
46.364662 -15.491867 -4.693271
45.668434 -16.864788 -2.441351
44.903359 -16.273414 -2.484827
46.964516 -16.519391 -3.475731
45.668434 -16.864788 -2.441351
47.328358 -15.727874 -4.595886
46.964516 -16.519391 -3.475731
36.863083 20.309948 -28.379047
36.778984 20.799357 -27.047161
37.537232 19.688712 -27.980345
36.130826 20.774925 -28.678317
36.863083 20.309948 -28.379047
36.889072 19.66428 -29.6115
35.437345 21.263782 -29.053963
35.411356 21.90945 -27.821511
36.130826 20.774925 -28.678317
36.12959 19.568493 -31.144804
36.903597 19.288864 -30.9525
36.876372 18.7281 -32.186534
35.41915 20.460338 -30.16313
36.12959 19.568493 -31.144804
35.391924 19.899574 -31.397165
34.69968 21.594864 -29.306324
35.437345 21.263782 -29.053963
35.41915 20.460338 -30.16313
33.997044 21.95093 -29.653084
34.69968 21.594864 -29.306324
33.997044 21.95093 -29.653084
33.950025 20.99214 -30.619264
44.079443 -8.249586 -10.124538
43.363411 -7.331183 -9.712623
43.329107 -8.35222 -8.934338
44.079443 -8.249586 -10.124538
44.948032 -8.941132 -10.494266
46.311983 -12.742599 -7.952128
45.191538 -13.089974 -6.877844
46.09301 -13.503429 -6.911696
46.498734 -11.846971 -8.992026
46.311983 -12.742599 -7.952128
47.400205 -12.260426 -9.025878
45.558239 -11.457138 -8.888089
46.498734 -11.846971 -8.992026
3 0 99 97
3 1 102 100
3 1 105 103
3 1 100 105
3 2 109 107
3 3 112 110
3 4 115 113
3 4 117 115
3 5 120 118
3 5 122 120
3 5 124 122
3 406 405 125
3 6 127 126
3 6 129 127
3 6 131 129
3 3 134 132
3 3 110 134
3 7 138 136
3 8 141 139
3 10 144 142
3 10 146 144
3 12 407 408
3 12 409 411
3 409 148 410
3 409 410 411
3 12 150 148
3 14 154 152
3 14 156 154
3 14 158 156
3 8 161 159
3 8 139 161
3 16 165 163
3 18 168 166
3 18 170 168
3 412 172 413
3 19 174 173
3 20 177 175
3 20 414 416
3 416 415 177
3 414 415 416
3 9 180 178
3 417 183 418
3 419 418 181
3 417 418 419
3 422 421 183
3 420 421 422
3 21 423 425
3 423 185 424
3 423 424 425
3 21 187 185
3 11 426 428
3 426 188 427
3 426 427 428
3 22 191 189
3 22 193 191
3 22 195 193
3 430 429 196
3 13 200 198
3 431 203 432
3 433 432 202
3 431 432 433
3 435 434 203
3 436 204 437
3 23 207 205
3 23 209 207
3 15 212 210
3 24 215 213
3 24 217 215
3 24 219 217
3 19 222 220
3 19 173 222
3 17 225 224
3 25 228 226
3 26 231 229
3 27 232 98
3 27 438 440
3 440 439 232
3 438 439 440
3 28 235 233
3 30 236 101
3 30 237 236
3 441 238 442
3 32 239 104
3 32 240 239
3 32 242 240
3 28 243 106
3 28 233 243
3 34 246 244
3 36 247 108
3 36 248 247
3 37 251 249
3 39 252 111
3 39 253 252
3 40 256 254
3 42 257 114
3 42 258 257
3 42 259 258
3 43 443 445
3 445 444 116
3 443 444 445
3 43 446 448
3 446 260 447
3 446 447 448
3 44 263 261
3 46 264 119
3 46 265 264
3 46 267 265
3 48 268 121
3 48 449 451
3 451 450 268
3 449 450 451
3 48 452 454
3 452 269 453
3 452 453 454
3 49 270 123
3 49 271 270
3 50 274 272
3 52 455 456
3 53 457 458
3 53 459 460
3 53 461 462
3 54 275 128
3 54 276 275
3 54 278 276
3 56 279 130
3 56 280 279
3 57 283 281
3 59 284 133
3 59 285 284
3 59 287 285
3 37 288 135
3 37 249 288
3 61 291 289
3 63 292 137
3 63 463 465
3 465 464 292
3 463 464 465
3 466 293 467
3 468 467 230
3 466 467 468
3 64 296 294
3 66 297 140
3 66 298 297
3 29 299 234
3 67 300 143
3 67 301 300
3 67 302 301
3 68 303 145
3 68 304 303
3 69 469 470
3 69 471 473
3 471 305 472
3 471 472 473
3 69 306 305
3 70 307 147
3 70 308 307
3 70 310 308
3 72 311 149
3 72 312 311
3 474 313 475
3 73 314 151
3 73 315 314
3 73 316 315
3 476 317 477
3 478 318 479
3 480 479 317
3 478 479 480
3 31 481 482
3 484 483 153
3 485 319 486
3 74 320 155
3 74 321 320
3 74 323 321
3 76 324 157
3 76 325 324
3 33 326 241
3 77 327 160
3 77 328 327
3 77 329 328
3 64 330 162
3 64 294 330
3 488 487 331
3 489 331 490
3 78 333 164
3 78 334 333
3 35 335 245
3 491 336 492
3 493 492 167
3 491 492 493
3 495 494 336
3 497 496 169
3 62 337 290
3 498 338 499
3 501 500 338
3 502 339 503
3 504 340 505
3 507 506 340
3 510 509 171
3 508 509 510
3 38 341 250
3 512 511 176
3 65 342 295
3 79 343 179
3 79 344 343
3 41 345 255
3 80 346 182
3 80 347 346
3 80 513 515
3 515 514 347
3 513 514 515
3 517 516 332
3 81 518 520
3 518 348 519
3 518 519 520
3 81 349 348
3 82 350 184
3 82 351 350
3 82 352 351
3 83 353 186
3 83 354 353
3 84 521 523
3 521 355 522
3 521 522 523
3 84 356 355
3 45 357 262
3 85 358 190
3 85 359 358
3 85 360 359
3 86 361 192
3 86 362 361
3 86 363 362
3 87 364 194
3 87 365 364
3 47 366 266
3 524 367 525
3 526 525 197
3 524 525 526
3 528 527 367
3 71 368 309
3 88 369 199
3 88 370 369
3 51 371 273
3 529 372 530
3 531 530 201
3 529 530 531
3 533 532 372
3 534 373 535
3 55 374 277
3 89 375 206
3 89 376 375
3 89 377 376
3 90 378 208
3 90 379 378
3 75 380 322
3 91 381 211
3 91 382 381
3 58 383 282
3 92 384 214
3 92 385 384
3 92 386 385
3 93 387 216
3 93 388 387
3 93 389 388
3 94 390 218
3 94 391 390
3 60 392 286
3 95 393 221
3 95 394 393
3 95 395 394
3 537 536 223
3 538 397 539
3 540 398 541
3 543 542 398
3 544 399 545
3 546 400 547
3 548 547 399
3 546 547 548
3 549 401 550
3 549 550 551
3 552 402 553
3 555 554 402
3 96 403 396
3 556 404 557
3 558 557 227
3 556 557 558
3 560 559 404
3 97 98 26
3 99 98 97
3 99 27 98
3 100 101 28
3 102 101 100
3 102 30 101
3 103 561 563
3 561 104 562
3 561 562 563
3 105 104 103
3 105 32 104
3 105 106 32
3 100 106 105
3 100 28 106
3 107 108 34
3 109 108 107
3 109 36 108
3 110 111 37
3 112 111 110
3 112 39 111
3 113 114 40
3 115 114 113
3 115 42 114
3 115 116 42
3 117 116 115
3 117 43 116
3 118 119 44
3 120 119 118
3 120 46 119
3 120 121 46
3 122 121 120
3 122 48 121
3 122 123 48
3 124 123 122
3 124 49 123
3 125 564 566
3 566 565 50
3 564 565 566
3 568 567 125
3 126 569 571
3 571 570 52
3 569 570 571
3 127 572 574
3 574 573 126
3 572 573 574
3 127 575 577
3 575 53 576
3 575 576 577
3 127 128 53
3 129 128 127
3 129 54 128
3 129 130 54
3 131 130 129
3 131 56 130
3 132 133 57
3 134 133 132
3 134 59 133
3 134 135 59
3 110 135 134
3 110 37 135
3 136 137 61
3 138 137 136
3 138 63 137
3 139 140 64
3 141 140 139
3 141 66 140
3 142 143 29
3 144 143 142
3 144 67 143
3 144 145 67
3 146 145 144
3 146 68 145
3 578 69 579
3 580 147 581
3 582 581 69
3 580 581 582
3 148 583 585
3 583 147 584
3 583 584 585
3 148 70 147
3 148 149 70
3 150 149 148
3 150 72 149
3 586 151 587
3 588 151 589
3 590 73 591
3 592 591 151
3 590 591 592
3 594 593 73
3 152 153 31
3 154 153 152
3 154 595 597
3 597 596 153
3 595 596 597
3 154 598 600
3 598 155 599
3 598 599 600
3 156 155 154
3 156 74 155
3 156 157 74
3 158 157 156
3 158 76 157
3 159 160 33
3 161 160 159
3 161 77 160
3 161 162 77
3 139 162 161
3 139 64 162
3 163 601 603
3 601 164 602
3 601 602 603
3 165 164 163
3 165 78 164
3 166 167 35
3 168 167 166
3 168 604 606
3 606 605 167
3 604 605 606
3 168 607 609
3 607 169 608
3 607 608 609
3 170 169 168
3 170 610 612
3 612 611 169
3 610 611 612
3 615 614 62
3 613 614 615
3 616 171 617
3 172 618 620
3 618 171 619
3 618 619 620
3 172 621 623
3 623 622 171
3 621 622 623
3 173 624 626
3 624 625 626
3 174 627 629
3 629 628 173
3 627 628 629
3 174 630 631
3 175 176 38
3 177 176 175
3 177 632 634
3 634 633 176
3 632 633 634
3 177 635 636
3 638 637 177
3 178 179 65
3 180 179 178
3 180 79 179
3 181 182 41
3 183 182 181
3 183 80 182
3 183 639 641
3 641 640 80
3 639 640 641
3 643 642 183
3 644 81 645
3 646 184 647
3 185 648 650
3 648 184 649
3 648 649 650
3 185 82 184
3 185 186 82
3 187 186 185
3 187 83 186
3 188 651 652
3 188 653 655
3 653 84 654
3 653 654 655
3 189 190 45
3 191 190 189
3 191 85 190
3 191 192 85
3 193 192 191
3 193 86 192
3 193 194 86
3 195 194 193
3 195 87 194
3 196 197 47
3 656 197 657
3 658 657 196
3 656 657 658
3 660 659 197
3 198 199 71
3 200 199 198
3 200 88 199
3 661 201 662
3 663 662 51
3 661 662 663
3 664 201 665
3 668 667 201
3 666 667 668
3 202 669 670
3 203 671 673
3 673 672 202
3 671 672 673
3 203 674 675
3 203 676 677
3 679 678 203
3 204 680 682
3 680 681 682
3 204 683 684
3 205 206 55
3 207 206 205
3 207 89 206
3 207 208 89
3 209 208 207
3 209 90 208
3 210 211 75
3 212 211 210
3 212 91 211
3 213 214 58
3 215 214 213
3 215 92 214
3 215 216 92
3 217 216 215
3 217 93 216
3 217 218 93
3 219 218 217
3 219 94 218
3 220 221 60
3 222 221 220
3 222 95 221
3 222 223 95
3 173 223 222
3 173 685 687
3 687 686 223
3 685 686 687
3 224 688 689
3 225 690 692
3 692 691 224
3 690 691 692
3 225 693 694
3 226 227 96
3 228 227 226
3 228 695 697
3 697 696 227
3 695 696 697
3 229 230 7
3 231 230 229
3 231 698 700
3 700 699 230
3 698 699 700
3 98 231 26
3 232 231 98
3 232 701 703
3 703 702 231
3 701 702 703
3 232 704 706
3 704 705 706
3 708 707 232
3 233 234 8
3 235 234 233
3 235 29 234
3 101 235 28
3 236 235 101
3 236 29 235
3 236 142 29
3 237 142 236
3 237 10 142
3 709 12 710
3 712 711 12
3 238 713 714
3 238 715 717
3 715 31 716
3 715 716 717
3 104 718 720
3 718 238 719
3 718 719 720
3 239 238 104
3 239 31 238
3 239 152 31
3 240 152 239
3 240 14 152
3 240 241 14
3 242 241 240
3 242 33 241
3 106 242 32
3 243 242 106
3 243 33 242
3 243 159 33
3 233 159 243
3 233 8 159
3 244 245 16
3 246 245 244
3 246 35 245
3 108 246 34
3 247 246 108
3 247 35 246
3 247 166 35
3 248 166 247
3 248 18 166
3 249 250 19
3 251 250 249
3 251 38 250
3 111 251 37
3 252 251 111
3 252 38 251
3 252 175 38
3 253 175 252
3 253 20 175
3 254 255 9
3 256 255 254
3 256 41 255
3 114 256 40
3 257 256 114
3 257 41 256
3 257 181 41
3 258 181 257
3 258 721 723
3 723 722 181
3 721 722 723
3 258 724 725
3 259 726 728
3 728 727 258
3 726 727 728
3 259 729 730
3 116 259 42
3 731 259 732
3 733 732 116
3 731 732 733
3 735 734 259
3 260 736 737
3 260 738 739
3 740 21 741
3 261 262 11
3 263 262 261
3 263 45 262
3 119 263 44
3 264 263 119
3 264 45 263
3 264 189 45
3 265 189 264
3 265 22 189
3 265 266 22
3 267 266 265
3 267 47 266
3 121 267 46
3 268 267 121
3 268 47 267
3 268 196 47
3 742 196 743
3 744 743 268
3 742 743 744
3 746 745 196
3 269 747 748
3 269 749 750
3 123 269 48
3 270 269 123
3 270 751 753
3 753 752 269
3 751 752 753
3 270 754 755
3 271 756 758
3 758 757 270
3 756 757 758
3 271 759 760
3 272 273 13
3 274 273 272
3 274 51 273
3 761 274 762
3 763 762 50
3 761 762 763
3 764 274 765
3 766 51 767
3 768 767 274
3 766 767 768
3 770 769 51
3 772 771 52
3 128 773 775
3 775 774 53
3 773 774 775
3 275 776 778
3 778 777 128
3 776 777 778
3 275 779 780
3 275 781 783
3 781 202 782
3 781 782 783
3 276 202 275
3 276 784 786
3 786 785 202
3 784 785 786
3 276 787 789
3 787 277 788
3 787 788 789
3 278 277 276
3 278 55 277
3 130 278 54
3 279 278 130
3 279 55 278
3 279 205 55
3 280 205 279
3 280 23 205
3 281 282 15
3 283 282 281
3 283 58 282
3 133 283 57
3 284 283 133
3 284 58 283
3 284 213 58
3 285 213 284
3 285 24 213
3 285 286 24
3 287 286 285
3 287 60 286
3 135 287 59
3 288 287 135
3 288 60 287
3 288 220 60
3 249 220 288
3 249 19 220
3 791 790 17
3 793 792 25
3 289 290 2
3 291 290 289
3 291 62 290
3 137 291 61
3 292 291 137
3 292 62 291
3 292 794 796
3 796 795 62
3 794 795 796
3 798 797 292
3 230 138 7
3 293 138 230
3 293 63 138
3 799 293 800
3 799 800 801
3 802 293 803
3 804 63 805
3 806 805 293
3 804 805 806
3 808 807 63
3 294 295 3
3 296 295 294
3 296 65 295
3 140 296 64
3 297 296 140
3 297 65 296
3 297 178 65
3 298 178 297
3 298 9 178
3 234 141 8
3 299 141 234
3 299 66 141
3 143 299 29
3 300 299 143
3 300 66 299
3 300 298 66
3 301 298 300
3 301 9 298
3 301 254 9
3 302 254 301
3 302 40 254
3 145 302 67
3 303 302 145
3 303 40 302
3 303 113 40
3 304 113 303
3 304 4 113
3 809 11 810
3 305 811 812
3 305 813 815
3 813 11 814
3 813 814 815
3 305 261 11
3 306 261 305
3 306 44 261
3 147 306 69
3 307 306 147
3 307 44 306
3 307 118 44
3 308 118 307
3 308 5 118
3 308 309 5
3 310 309 308
3 310 71 309
3 149 310 70
3 311 310 149
3 311 71 310
3 311 198 71
3 312 198 311
3 312 13 198
3 816 150 817
3 818 817 12
3 816 817 818
3 313 819 821
3 819 150 820
3 819 820 821
3 313 72 150
3 151 822 824
3 822 313 823
3 822 823 824
3 314 313 151
3 314 72 313
3 314 312 72
3 315 312 314
3 315 13 312
3 315 272 13
3 316 272 315
3 316 50 272
3 825 316 826
3 827 826 73
3 825 826 827
3 317 828 830
3 828 316 829
3 828 829 830
3 317 50 316
3 317 125 50
3 318 125 317
3 318 831 833
3 833 832 125
3 831 832 833
3 153 834 836
3 836 835 31
3 834 835 836
3 838 837 153
3 319 839 840
3 319 841 843
3 841 52 842
3 841 842 843
3 155 844 846
3 844 319 845
3 844 845 846
3 320 319 155
3 320 52 319
3 320 126 52
3 321 126 320
3 321 6 126
3 321 322 6
3 323 322 321
3 323 75 322
3 157 323 74
3 324 323 157
3 324 75 323
3 324 210 75
3 325 210 324
3 325 15 210
3 241 158 14
3 326 158 241
3 326 76 158
3 160 326 33
3 327 326 160
3 327 76 326
3 327 325 76
3 328 325 327
3 328 15 325
3 328 281 15
3 329 281 328
3 329 57 281
3 162 329 77
3 330 329 162
3 330 57 329
3 330 132 57
3 294 132 330
3 294 3 132
3 331 332 1
3 847 332 848
3 849 848 331
3 847 848 849
3 851 850 332
3 852 103 853
3 331 854 856
3 854 103 855
3 854 855 856
3 331 1 103
3 164 857 858
3 333 859 861
3 861 860 164
3 859 860 861
3 333 862 863
3 333 864 866
3 864 224 865
3 864 865 866
3 334 224 333
3 334 17 224
3 245 165 16
3 335 165 245
3 335 78 165
3 167 335 35
3 336 335 167
3 336 78 335
3 336 334 78
3 867 334 868
3 869 868 336
3 867 868 869
3 870 17 871
3 872 871 334
3 870 871 872
3 874 873 17
3 169 875 876
3 879 878 169
3 877 878 879
3 290 109 2
3 337 109 290
3 337 36 109
3 880 337 881
3 882 881 62
3 880 881 882
3 338 883 885
3 883 337 884
3 883 884 885
3 338 36 337
3 338 248 36
3 886 248 887
3 888 887 338
3 886 887 888
3 889 18 890
3 891 890 248
3 889 890 891
3 339 892 893
3 339 894 896
3 894 895 896
3 897 339 898
3 899 339 900
3 903 902 339
3 901 902 903
3 340 904 906
3 904 905 906
3 340 907 909
3 907 18 908
3 907 908 909
3 340 170 18
3 910 170 911
3 912 911 340
3 910 911 912
3 914 913 170
3 171 915 916
3 918 917 171
3 919 318 920
3 921 318 922
3 921 922 923
3 925 924 318
3 926 172 927
3 926 927 928
3 929 172 930
3 932 931 172
3 934 933 0
3 250 174 19
3 341 174 250
3 341 935 937
3 937 936 174
3 935 936 937
3 176 341 38
3 938 341 939
3 940 939 176
3 938 939 940
3 942 941 341
3 295 112 3
3 342 112 295
3 342 39 112
3 179 342 65
3 343 342 179
3 343 39 342
3 343 253 39
3 344 253 343
3 344 20 253
3 255 180 9
3 345 180 255
3 345 79 180
3 182 345 41
3 346 345 182
3 346 79 345
3 346 344 79
3 347 344 346
3 347 20 344
3 347 943 945
3 945 944 20
3 943 944 945
3 947 946 347
3 949 948 80
3 332 102 1
3 950 102 951
3 952 951 332
3 950 951 952
3 953 30 954
3 955 954 102
3 953 954 955
3 348 956 957
3 348 958 960
3 958 30 959
3 958 959 960
3 348 237 30
3 349 237 348
3 349 10 237
3 961 81 962
3 184 963 964
3 350 965 967
3 967 966 184
3 965 966 967
3 350 968 970
3 968 81 969
3 968 969 970
3 350 349 81
3 351 349 350
3 351 10 349
3 351 146 10
3 352 146 351
3 352 68 146
3 186 352 82
3 353 352 186
3 353 68 352
3 353 304 68
3 354 304 353
3 354 4 304
3 355 971 972
3 355 973 974
3 355 975 976
3 356 977 979
3 979 978 355
3 977 978 979
3 356 980 982
3 980 21 981
3 980 981 982
3 262 188 11
3 357 188 262
3 357 84 188
3 190 357 45
3 358 357 190
3 358 84 357
3 358 356 84
3 359 356 358
3 359 21 356
3 359 187 21
3 360 187 359
3 360 83 187
3 192 360 85
3 361 360 192
3 361 83 360
3 361 354 83
3 362 354 361
3 362 4 354
3 362 117 4
3 363 117 362
3 363 43 117
3 194 363 86
3 364 363 194
3 364 43 363
3 364 260 43
3 365 260 364
3 365 983 985
3 985 984 260
3 983 984 985
3 266 195 22
3 366 195 266
3 366 87 195
3 197 366 47
3 367 366 197
3 367 87 366
3 367 365 87
3 986 365 987
3 988 987 367
3 986 987 988
3 990 989 365
3 309 124 5
3 368 124 309
3 368 49 124
3 199 368 71
3 369 368 199
3 369 49 368
3 369 271 49
3 370 271 369
3 370 991 993
3 993 992 271
3 991 992 993
3 273 200 13
3 371 200 273
3 371 88 200
3 201 371 51
3 372 371 201
3 372 88 371
3 372 370 88
3 994 370 995
3 996 995 372
3 994 995 996
3 998 997 370
3 999 163 1000
3 373 1001 1003
3 1001 163 1002
3 1001 1002 1003
3 373 16 163
3 277 1004 1006
3 1004 204 1005
3 1004 1005 1006
3 374 204 277
3 374 1007 1009
3 1009 1008 204
3 1007 1008 1009
3 206 374 55
3 375 374 206
3 375 1010 1012
3 1012 1011 374
3 1010 1011 1012
3 375 1013 1015
3 1013 373 1014
3 1013 1014 1015
3 376 373 375
3 376 16 373
3 376 244 16
3 377 244 376
3 377 34 244
3 208 377 89
3 378 377 208
3 378 34 377
3 378 107 34
3 379 107 378
3 379 2 107
3 322 131 6
3 380 131 322
3 380 56 131
3 211 380 75
3 381 380 211
3 381 56 380
3 381 280 56
3 382 280 381
3 382 23 280
3 282 212 15
3 383 212 282
3 383 91 212
3 214 383 58
3 384 383 214
3 384 91 383
3 384 382 91
3 385 382 384
3 385 23 382
3 385 209 23
3 386 209 385
3 386 90 209
3 216 386 92
3 387 386 216
3 387 90 386
3 387 379 90
3 388 379 387
3 388 2 379
3 388 289 2
3 389 289 388
3 389 61 289
3 218 389 93
3 390 389 218
3 390 61 389
3 390 136 61
3 391 136 390
3 391 7 136
3 286 219 24
3 392 219 286
3 392 94 219
3 221 392 60
3 393 392 221
3 393 94 392
3 393 391 94
3 394 391 393
3 394 7 391
3 394 229 7
3 395 229 394
3 395 26 229
3 223 395 95
3 1016 395 1017
3 1018 1017 223
3 1016 1017 1018
3 1019 26 1020
3 1021 1020 395
3 1019 1020 1021
3 1022 97 1023
3 1024 1023 26
3 1022 1023 1024
3 1025 97 1026
3 1027 0 1028
3 1029 1028 97
3 1027 1028 1029
3 1030 396 1031
3 1032 1031 0
3 1030 1031 1032
3 397 1033 1035
3 1033 396 1034
3 1033 1034 1035
3 397 96 396
3 1036 397 1037
3 398 1038 1040
3 1038 397 1039
3 1038 1039 1040
3 398 96 397
3 398 226 96
3 1041 226 1042
3 1043 1042 398
3 1041 1042 1043
3 1044 25 1045
3 1046 1045 226
3 1044 1045 1046
3 399 1047 1048
3 399 1049 1051
3 1049 25 1050
3 1049 1050 1051
3 399 1052 1054
3 1054 1053 25
3 1052 1053 1054
3 400 1055 1057
3 1057 1056 399
3 1055 1056 1057
3 400 1058 1059
3 1060 400 1061
3 1062 400 1063
3 1065 1064 400
3 1066 225 1067
3 1068 1067 17
3 1066 1067 1068
3 401 1069 1071
3 1069 225 1070
3 1069 1070 1071
3 401 1072 1074
3 1074 1073 225
3 1072 1073 1074
3 1075 401 1076
3 1075 1076 1077
3 402 1078 1080
3 1078 401 1079
3 1078 1079 1080
3 402 1081 1083
3 1083 1082 401
3 1081 1082 1083
3 402 1084 1085
3 1087 1086 402
3 396 99 0
3 403 99 396
3 403 27 99
3 227 403 96
3 404 403 227
3 404 27 403
3 404 1088 1090
3 1090 1089 27
3 1088 1089 1090
3 1092 1091 404
3 1093 228 1094
3 1095 1094 25
3 1093 1094 1095
3 1096 228 1097
3 1096 1097 1098
3 1100 1099 228
