ply
format ascii 1.0
element vertex 113
property float x
property float y
property float z
element face 87
property list uchar int vertex_index
end_header
-55.633617 -62.564529 -28.156464
-48.015984 -63.967682 -30.39204
-51.869286 -56.133366 -32.957771
-47.807648 -56.89962 -33.286873
-53.821617 -55.937328 -32.621529
-51.771389 -52.636692 -34.635296
-53.597275 -66.115463 -26.869591
-46.029255 -64.628609 -30.694824
-45.677326 -57.488861 -33.242622
-53.736885 -62.792976 -28.805786
-53.813766 -59.390106 -30.732388
-51.891579 -59.615189 -31.205498
-49.943298 -59.952404 -31.593288
-47.948051 -60.432194 -31.869858
-49.869194 -56.445862 -33.184135
-45.884697 -61.055489 -31.995808
-56.575209 -62.443573 -27.796639
-56.617292 -60.809656 -28.843407
-55.55831 -64.180633 -27.144064
-56.575209 -62.443573 -27.796639
-54.615446 -64.339996 -27.513027
-54.540138 -65.956101 -26.500628
-55.55831 -64.180633 -27.144064
-48.011143 -65.729923 -29.632933
-48.979416 -63.709095 -30.168045
-47.056208 -66.084396 -29.872879
-48.011143 -65.729923 -29.632933
-47.02262 -64.298146 -30.543432
-46.062843 -66.41486 -30.024271
-47.056208 -66.084396 -29.872879
-54.774677 -57.599453 -31.453474
-54.766452 -59.307285 -30.455773
-50.746491 -52.786136 -34.664938
-51.681528 -50.879709 -35.426489
-52.731355 -64.632614 -28.193552
-52.789337 -62.931652 -29.104866
-44.712095 -59.640225 -32.586348
-44.583595 -57.832699 -33.134594
-54.750881 -54.139313 -33.370486
-54.778603 -55.873064 -32.398045
-53.788668 -54.195213 -33.534409
-54.750881 -54.139313 -33.370486
-52.812502 -54.293232 -33.70253
-52.845452 -56.035347 -32.78965
-53.788668 -54.195213 -33.534409
-52.763554 -52.544895 -34.541292
-51.820338 -54.385029 -33.796533
-52.812502 -54.293232 -33.70253
-52.68968 -50.789465 -35.411407
-52.763554 -52.544895 -34.541292
-51.681528 -50.879709 -35.426489
-52.68968 -50.789465 -35.411407
-53.501509 -67.717903 -25.910981
-54.540138 -65.956101 -26.500628
-52.576554 -67.949661 -26.31831
-53.501509 -67.717903 -25.910981
-45.066173 -66.828693 -30.162211
-46.062843 -66.41486 -30.024271
-44.99437 -65.01907 -30.744909
-45.066173 -66.828693 -30.162211
-46.6402 -55.428436 -33.934549
-46.742487 -57.19424 -33.264747
-47.70536 -55.133815 -33.956674
-45.550624 -55.705324 -33.833454
-46.6402 -55.428436 -33.934549
-44.583595 -57.832699 -33.134594
-45.550624 -55.705324 -33.833454
-55.676378 -60.894497 -29.167811
-56.617292 -60.809656 -28.843407
-54.728012 -61.00872 -29.492472
-54.685251 -62.678753 -28.481125
-55.676378 -60.894497 -29.167811
-53.775326 -61.091541 -29.769087
-54.728012 -61.00872 -29.492472
-54.766452 -59.307285 -30.455773
-52.827777 -61.230217 -30.068167
-52.789337 -62.931652 -29.104866
-53.775326 -61.091541 -29.769087
-53.817692 -57.663717 -31.676959
-54.774677 -57.599453 -31.453474
-54.778603 -55.873064 -32.398045
-51.866684 -61.342759 -30.304722
-52.827777 -61.230217 -30.068167
-52.852672 -59.502648 -30.968943
-50.917214 -61.532849 -30.574774
-51.866684 -61.342759 -30.304722
-49.943073 -61.701456 -30.768669
-50.917214 -61.532849 -30.574774
-50.917439 -59.783797 -31.399393
-48.979641 -61.960043 -30.992664
-48.979416 -63.709095 -30.168045
-49.943073 -61.701456 -30.768669
-49.795393 -54.690721 -33.939357
-50.820291 -54.541277 -33.909715
-50.746491 -52.786136 -34.664938
-48.76462 -54.9176 -33.990727
-48.838421 -56.672741 -33.235504
-49.795393 -54.690721 -33.939357
-47.70536 -55.133815 -33.956674
-48.76462 -54.9176 -33.990727
-52.661551 -66.293858 -27.225454
-53.66708 -64.45422 -27.837688
-52.731355 -64.632614 -28.193552
-52.576554 -67.949661 -26.31831
-52.661551 -66.293858 -27.225454
-44.922091 -63.23251 -31.395401
-44.99437 -65.01907 -30.744909
-45.956976 -62.842049 -31.345316
-44.815781 -61.423538 -31.962941
-45.781012 -59.272175 -32.619215
-44.712095 -59.640225 -32.586348
-44.922091 -63.23251 -31.395401
-44.815781 -61.423538 -31.962941
3 0 16 17
3 0 18 19
3 0 20 22
3 20 6 21
3 20 21 22
3 1 23 24
3 1 25 26
3 1 27 29
3 27 7 28
3 27 28 29
3 30 10 31
3 2 11 4
3 2 12 11
3 2 14 12
3 33 32 5
3 35 34 9
3 3 15 13
3 37 36 8
3 38 4 39
3 40 4 41
3 42 2 43
3 44 43 4
3 42 43 44
3 45 5 46
3 47 46 2
3 45 46 47
3 48 5 49
3 51 50 5
3 6 52 53
3 6 54 55
3 7 56 57
3 7 58 59
3 60 8 61
3 62 61 3
3 60 61 62
3 63 8 64
3 66 65 8
3 67 0 68
3 69 9 70
3 71 70 0
3 69 70 71
3 10 72 74
3 72 9 73
3 72 73 74
3 10 75 77
3 77 76 9
3 75 76 77
3 4 78 80
3 78 10 79
3 78 79 80
3 11 10 4
3 11 81 83
3 83 82 10
3 81 82 83
3 11 84 85
3 12 86 88
3 88 87 11
3 86 87 88
3 12 89 91
3 89 1 90
3 89 90 91
3 12 13 1
3 14 13 12
3 14 3 13
3 5 14 2
3 92 14 93
3 94 93 5
3 92 93 94
3 95 3 96
3 97 96 14
3 95 96 97
3 99 98 3
3 9 6 0
3 100 6 101
3 102 101 9
3 100 101 102
3 104 103 6
3 13 7 1
3 15 7 13
3 15 105 107
3 107 106 7
3 105 106 107
3 8 15 3
3 108 15 109
3 110 109 8
3 108 109 110
3 112 111 15
