ply
format ascii 1.0
element vertex 107
property float x
property float y
property float z
element face 83
property list uchar int vertex_index
end_header
0.134115 36.959774 62.484024
0.120089 43.052589 56.087883
-0.531939 40.862518 50.782471
-0.02375 29.428425 63.250408
-0.274372 44.817616 50.071697
0.144884 40.052948 59.344875
-0.047138 39.164261 56.718098
0.028297 36.224926 59.899014
0.083261 33.187271 62.960709
0.173243 43.881165 58.638206
-0.146948 42.024723 53.439133
-0.028212 37.461189 64.87532
0.092123 33.755703 65.481308
0.120201 30.02948 65.868874
-0.164076 46.814854 49.667141
-0.352123 46.180142 48.344816
0.052841 44.162497 59.815
0.128384 45.774962 58.208179
0.133666 42.302359 60.232016
0.052841 44.162497 59.815
-0.730823 40.241962 49.486967
-0.805871 41.585943 47.819124
-0.606987 42.206499 49.114628
-0.661733 38.917976 51.091193
-0.860617 38.297421 49.795688
-0.730823 40.241962 49.486967
-0.013429 42.538656 54.763508
-0.045988 43.997982 53.082385
0.08753 44.511915 54.406759
-0.219886 38.641701 55.380056
-0.155216 37.238377 56.968918
-0.17639 29.045826 61.897396
-0.235081 30.543541 60.42181
-0.082441 30.92614 61.774822
-0.089621 27.561678 63.300855
-0.242261 27.179079 61.947844
-0.17639 29.045826 61.897396
-0.274823 37.569954 65.927376
-0.149819 39.288835 64.469192
-0.39643 39.3976 65.521248
0.056785 32.090225 66.891342
-0.048391 33.918539 66.621986
0.070823 30.227114 67.085125
0.106162 31.892591 65.675091
0.056785 32.090225 66.891342
-0.478204 44.184048 48.759241
-0.555954 45.546574 47.03236
-0.352123 46.180142 48.344816
-0.403155 42.840067 50.427084
-0.606987 42.206499 49.114628
-0.478204 44.184048 48.759241
-0.117498 35.768709 58.559376
-0.155216 37.238377 56.968918
-0.009421 37.694594 58.308556
-0.056418 34.324391 60.099125
-0.117498 35.768709 58.559376
-0.028936 32.805563 61.629973
-0.056418 34.324391 60.099125
0.055779 34.706099 61.429862
0.029756 31.307848 63.105559
-0.082441 30.92614 61.774822
-0.028936 32.805563 61.629973
0.161828 44.999006 55.707056
0.08753 44.511915 54.406759
0.188405 45.413294 56.982217
0.128384 45.774962 58.208179
0.146666 43.466877 57.363045
0.161828 44.999006 55.707056
0.188405 45.413294 56.982217
0.119487 40.38825 60.58535
0.159064 41.967056 58.99154
0.133666 42.302359 60.232016
0.114102 38.841664 62.154924
0.139499 38.506361 60.91445
0.119487 40.38825 60.58535
-0.1097 45.394429 51.398667
-0.164076 46.814854 49.667141
-0.21066 43.42117 51.755415
-0.1097 45.394429 51.398667
-0.045988 43.997982 53.082385
-0.26979 40.071932 53.740574
-0.097043 40.594492 55.078615
-0.219886 38.641701 55.380056
-0.462286 39.49083 52.412243
-0.339444 41.443621 52.110802
-0.26979 40.071932 53.740574
-0.661733 38.917976 51.091193
-0.462286 39.49083 52.412243
0.032939 39.092371 63.350572
-0.149819 39.288835 64.469192
0.052952 37.210482 63.679672
0.114102 38.841664 62.154924
0.032939 39.092371 63.350572
-0.108559 35.771282 66.318993
-0.274823 37.569954 65.927376
0.031955 35.608446 65.178314
-0.108559 35.771282 66.318993
-0.048391 33.918539 66.621986
0.129435 28.381836 67.223752
0.070823 30.227114 67.085125
0.104399 28.165736 65.949452
0.129435 28.381836 67.223752
0.032423 27.865208 64.640219
0.048226 29.728952 64.559641
0.104399 28.165736 65.949452
-0.089621 27.561678 63.300855
0.032423 27.865208 64.640219
3 14 4 15
3 0 7 5
3 0 8 7
3 16 9 17
3 19 18 9
3 2 20 22
3 20 21 22
3 2 23 25
3 23 24 25
3 1 26 28
3 26 10 27
3 26 27 28
3 30 29 6
3 3 31 33
3 31 32 33
3 3 34 36
3 34 35 36
3 37 11 38
3 37 38 39
3 40 12 41
3 42 13 43
3 44 43 12
3 42 43 44
3 4 45 47
3 45 46 47
3 4 48 50
3 48 2 49
3 48 49 50
3 5 6 1
3 7 6 5
3 7 51 53
3 53 52 6
3 51 52 53
3 7 54 55
3 8 56 58
3 58 57 7
3 56 57 58
3 8 59 61
3 59 3 60
3 59 60 61
3 62 1 63
3 9 64 65
3 9 66 68
3 66 1 67
3 66 67 68
3 9 5 1
3 69 5 70
3 71 70 9
3 69 70 71
3 72 0 73
3 74 73 5
3 72 73 74
3 75 4 76
3 10 77 79
3 77 4 78
3 77 78 79
3 10 2 4
3 6 10 1
3 80 10 81
3 82 81 6
3 80 81 82
3 83 2 84
3 85 84 10
3 83 84 85
3 87 86 2
3 11 88 89
3 11 90 92
3 90 0 91
3 90 91 92
3 93 11 94
3 12 95 97
3 95 11 96
3 95 96 97
3 12 0 11
3 12 8 0
3 13 8 12
3 13 3 8
3 98 13 99
3 100 13 101
3 102 3 103
3 104 103 13
3 102 103 104
3 106 105 3
