ply
format ascii 1.0
element vertex 433
property float x
property float y
property float z
element face 427
property list uchar int vertex_index
end_header
-62.315884 -17.907198 -43.59761
-55.546261 -48.833969 -35.993275
-62.551167 -48.075054 -33.13303
-60.754177 -33.761993 -41.249744
-53.77689 -34.384087 -42.585415
-55.949074 -19.200155 -49.091866
-47.339684 -49.824242 -35.877884
-38.319729 -37.201416 -37.301041
-64.794144 -24.935043 -39.32069
-63.724998 -32.987045 -38.596527
-61.947899 -25.780165 -42.775066
-58.885803 -26.436653 -45.227673
-59.246765 -18.644455 -46.99704
-59.194416 -48.616104 -35.007824
-51.591667 -49.122726 -36.217682
-51.683132 -27.017605 -45.442024
-49.697868 -34.712936 -41.538445
-61.876205 -41.009869 -37.223728
-58.611336 -41.487835 -38.931076
-54.971722 -41.698032 -39.471813
-57.486267 -34.17865 -42.624947
-55.480385 -26.780914 -46.111626
-65.020515 -17.31566 -39.643265
-58.861206 -11.044159 -47.838993
-42.934227 -50.916077 -35.078606
-50.928139 -41.996025 -39.061478
-46.61924 -42.645618 -38.11797
-42.367123 -43.577065 -36.940136
-41.616817 -36.332886 -38.695103
-37.357262 -30.888704 -39.111149
-63.669533 -21.404732 -41.445774
-63.399677 -25.360207 -41.126595
-62.227036 -21.806192 -43.265285
-60.729713 -22.195446 -44.891438
-60.808609 -18.283867 -45.412994
-57.407654 -48.744308 -35.607712
-57.547058 -52.24287 -33.632854
-55.680145 -52.341297 -34.119442
-53.755718 -52.453098 -34.447289
-53.607971 -48.942238 -36.187519
-50.246964 -23.428169 -46.812263
-49.691849 -27.205971 -44.705845
-65.76207 -36.089733 -34.940334
-62.265129 -33.414818 -40.053448
-62.900295 -37.031746 -38.009438
-61.38575 -37.40242 -39.2421
-60.283035 -41.298248 -38.221371
-59.805737 -37.674152 -40.187428
-58.13689 -37.852982 -40.806309
-59.169823 -34.013508 -42.119335
-57.563541 -22.792486 -47.182373
-57.234978 -26.64143 -45.88171
-55.859795 -22.981903 -47.705406
-54.062893 -23.123137 -47.784992
-54.190369 -19.391045 -49.474899
-62.7551 -51.497841 -31.041149
-43.213242 -54.555336 -34.077526
-45.136673 -50.339893 -35.534389
-54.47049 -38.061256 -41.069733
-52.995674 -41.813408 -39.360233
-52.47575 -38.181641 -40.794598
-48.268661 -38.645279 -39.762794
-46.130081 -39.012917 -39.133739
-44.457973 -43.094299 -37.550652
-44.03315 -39.450417 -38.483475
-42.035294 -39.918503 -37.822285
-36.543926 -34.187744 -37.550312
-37.934673 -33.886345 -38.199852
-65.715759 -28.489033 -37.243832
-65.134918 -32.515965 -36.959446
-64.357422 -28.934271 -39.020771
-62.932907 -29.382092 -40.672089
-61.462959 -29.782089 -42.109268
-59.936562 -30.101109 -43.246548
-60.448685 -26.148155 -44.171329
-59.18071 -22.53112 -46.225918
-57.631149 -18.954325 -48.250664
-60.908936 -48.401947 -34.181652
-61.093872 -51.858028 -32.10397
-59.35397 -52.097824 -32.966389
-49.721592 -52.935581 -34.69458
-49.499176 -49.412773 -36.108566
-52.856117 -30.689104 -44.036793
-51.77005 -34.513279 -42.147884
-64.363007 -36.580837 -36.55146
-63.406612 -40.618935 -35.974564
-62.258949 -44.572403 -35.190235
-60.642063 -44.877285 -36.220016
-58.95293 -45.076893 -36.997589
-57.181263 -45.198429 -37.513611
-55.318748 -45.287857 -37.780186
-56.84407 -41.606255 -39.342186
-56.360458 -37.967506 -41.091591
-55.688187 -34.287754 -42.767319
-58.327759 -30.328979 -44.017784
-56.613678 -30.479191 -44.391743
-54.786327 -30.584595 -44.380386
-53.623383 -26.891144 -45.942581
-52.183365 -23.255947 -47.460331
-66.947464 -28.104343 -35.418308
-66.083984 -24.562185 -37.442955
-65.021072 -21.046198 -39.525173
-63.740196 -17.565208 -41.647728
-60.714714 -14.45048 -45.742836
-59.125786 -14.806419 -47.53545
-40.798229 -51.490879 -34.50547
-53.362755 -45.398865 -37.826878
-51.317375 -45.579865 -37.693104
-49.194275 -45.862263 -37.41927
-50.397793 -38.368599 -40.335537
-48.791496 -42.272415 -38.631672
-47.01553 -46.252678 -37.038914
-44.818062 -46.73082 -36.573452
-42.656593 -47.253365 -36.030346
-40.600845 -47.762451 -35.405106
-40.412659 -44.040535 -36.279976
-40.191582 -40.366791 -37.140934
-39.881889 -36.803978 -38.002529
-41.061142 -32.897598 -39.574657
-39.426228 -33.433556 -38.876026
-49.267708 -23.55749 -46.379482
-49.399757 -21.709694 -47.478848
-66.111404 -34.071842 -35.081169
-66.406052 -35.850649 -34.092981
-62.653133 -49.786448 -32.087089
-63.434236 -49.566482 -31.461841
-63.33227 -47.855089 -32.507782
-46.381804 -51.873014 -35.151085
-47.471379 -51.596126 -35.25218
-46.238179 -50.082068 -35.706136
-45.280298 -52.13084 -34.979337
-46.381804 -51.873014 -35.151085
-45.824909 -37.200661 -39.62276
-46.864681 -37.008686 -39.986135
-44.776443 -37.419411 -39.297629
-45.081615 -39.231667 -38.808607
-45.824909 -37.200661 -39.62276
-43.771137 -37.647255 -38.938997
-44.776443 -37.419411 -39.297629
-37.614872 -37.336776 -36.942793
-37.703247 -39.098698 -36.478361
-38.127201 -35.543881 -37.750446
-37.422344 -35.679241 -37.392198
-37.614872 -37.336776 -36.942793
-57.578899 -53.96434 -32.617344
-56.641323 -54.025835 -32.903707
-50.65663 -51.029153 -35.456131
-50.746491 -52.786136 -34.664938
-51.681528 -50.879709 -35.426489
-51.266138 -28.927692 -44.443049
-51.852631 -30.763442 -43.740433
-52.269624 -28.853355 -44.739409
-49.246796 -29.136661 -43.701898
-48.690092 -27.349522 -44.272152
-52.270542 -21.406083 -48.431654
-53.123129 -23.189542 -47.622661
-53.210306 -21.339678 -48.593985
-51.326096 -21.497695 -48.1947
-52.270542 -21.406083 -48.431654
-67.066658 -26.201514 -35.488691
-67.452877 -27.969313 -34.509698
-66.634918 -24.430435 -36.501014
-66.515724 -26.333264 -36.430632
-67.066658 -26.201514 -35.488691
-65.020793 -19.180929 -39.584219
-65.61562 -20.917628 -38.551071
-65.615341 -19.052359 -38.610117
-59.668484 -10.886468 -46.859287
-59.485157 -9.056995 -46.889995
-58.67788 -9.214686 -47.869702
-59.78796 -12.747319 -46.790914
-60.595237 -12.589629 -45.811208
-59.668484 -10.886468 -46.859287
-61.144394 -53.541433 -31.044682
-60.265167 -53.682493 -31.491884
-41.980325 -53.060416 -34.327692
-42.119833 -54.880045 -33.827152
-43.073735 -52.735706 -34.578066
-41.866228 -51.203478 -34.792038
-40.912326 -53.347817 -34.041124
-41.980325 -53.060416 -34.327692
-40.691508 -31.302363 -40.020071
-41.530394 -30.969645 -40.401239
-39.87405 -31.570343 -39.670755
-40.243685 -33.165577 -39.225341
-40.691508 -31.302363 -40.020071
-39.103465 -31.893067 -39.317242
-39.87405 -31.570343 -39.670755
-36.671657 -31.047096 -38.83092
-36.264989 -32.696616 -38.050501
-36.950594 -32.538224 -38.330731
-36.986156 -29.607994 -39.552139
-36.671657 -31.047096 -38.83092
-55.707867 -54.075048 -33.147002
-56.641323 -54.025835 -32.903707
-56.613602 -52.292084 -33.876148
-54.750881 -54.139313 -33.370486
-54.778603 -55.873064 -32.398045
-55.707867 -54.075048 -33.147002
-53.788668 -54.195213 -33.534409
-54.750881 -54.139313 -33.370486
-54.717932 -52.397197 -34.283366
-52.812502 -54.293232 -33.70253
-53.788668 -54.195213 -33.534409
-52.763554 -52.544895 -34.541292
-52.812502 -54.293232 -33.70253
-52.68968 -50.789465 -35.411407
-52.763554 -52.544895 -34.541292
-53.681844 -50.697668 -35.317404
-52.599819 -49.032482 -36.202601
-51.681528 -50.879709 -35.426489
-52.68968 -50.789465 -35.411407
-48.99015 -25.44639 -45.326273
-49.969406 -25.31707 -45.759054
-49.267708 -23.55749 -46.379482
-48.690092 -27.349522 -44.272152
-48.99015 -25.44639 -45.326273
-66.010334 -37.862505 -33.943677
-66.406052 -35.850649 -34.092981
-65.318924 -38.118262 -34.734335
-66.010334 -37.862505 -33.943677
-53.274044 -19.473632 -49.438938
-53.210306 -21.339678 -48.593985
-54.126631 -21.257091 -48.629946
-65.545803 -17.263746 -38.641449
-65.615341 -19.052359 -38.610117
-57.814272 -9.3728 -48.838194
-58.67788 -9.214686 -47.869702
-58.019554 -11.217198 -48.714358
-57.814272 -9.3728 -48.838194
-63.537146 -51.25865 -30.414963
-63.434236 -49.566482 -31.461841
-62.80953 -53.157097 -29.973166
-63.537146 -51.25865 -30.414963
-44.318583 -54.238562 -34.250906
-43.351553 -56.365937 -33.552046
-44.174958 -52.447615 -34.805957
-44.318583 -54.238562 -34.250906
-45.280298 -52.13084 -34.979337
-47.933971 -36.824867 -40.300663
-48.983265 -36.679108 -40.65062
-48.648574 -34.858696 -41.188488
-47.199371 -38.829098 -39.448267
-47.933971 -36.824867 -40.300663
-46.864681 -37.008686 -39.986135
-42.77221 -37.881298 -38.608402
-43.034222 -39.68446 -38.15288
-43.771137 -37.647255 -38.938997
-42.562971 -36.08849 -39.044812
-41.826055 -38.125695 -38.258694
-42.77221 -37.881298 -38.608402
-36.726971 -35.82994 -37.067428
-36.069116 -35.882469 -36.70669
-37.2393 -34.037045 -37.875082
-36.726971 -35.82994 -37.067428
-37.422344 -35.679241 -37.392198
-65.425339 -30.502499 -37.101639
-65.797829 -32.284958 -36.090725
-66.088249 -30.271492 -36.232918
-59.395216 -53.802391 -31.923094
-60.265167 -53.682493 -31.491884
-60.223921 -51.977926 -32.535179
-58.482355 -53.891817 -32.284111
-58.450514 -52.170347 -33.299622
-57.578899 -53.96434 -32.617344
-59.395216 -53.802391 -31.923094
-58.482355 -53.891817 -32.284111
-49.795393 -54.690721 -33.939357
-50.746491 -52.786136 -34.664938
-48.76462 -54.9176 -33.990727
-49.795393 -54.690721 -33.939357
-48.662333 -53.151796 -34.660528
-47.70536 -55.133815 -33.956674
-48.76462 -54.9176 -33.990727
-48.551125 -51.390392 -35.367521
-48.662333 -53.151796 -34.660528
-49.610384 -51.174177 -35.401573
-48.41943 -49.618507 -35.993225
-47.471379 -51.596126 -35.25218
-48.551125 -51.390392 -35.367521
-51.309597 -32.675529 -42.795979
-52.313083 -32.601191 -43.092338
-51.852631 -30.763442 -43.740433
-50.273506 -32.775358 -42.491259
-50.733959 -34.613107 -41.843165
-51.309597 -32.675529 -42.795979
-50.270497 -29.021876 -44.074959
-51.266138 -28.927692 -44.443049
-50.68749 -27.111788 -45.073935
-50.270497 -29.021876 -44.074959
-49.246796 -29.136661 -43.701898
-49.249806 -32.890143 -42.118199
-50.273506 -32.775358 -42.491259
-48.648574 -34.858696 -41.188488
-49.249806 -32.890143 -42.118199
-38.429985 -38.971716 -36.861708
-37.703247 -39.098698 -36.478361
-63.179657 -46.117621 -33.535522
-63.33227 -47.855089 -32.507782
-65.448494 -34.302849 -35.94989
-66.111404 -34.071842 -35.081169
-65.797829 -32.284958 -36.090725
-64.619393 -38.363814 -35.539898
-65.318924 -38.118262 -34.734335
-65.062538 -36.335285 -35.745897
-64.141195 -40.382863 -35.25145
-64.619393 -38.363814 -35.539898
-63.88481 -38.599886 -36.263012
-63.60738 -42.389561 -34.956289
-64.341962 -42.153489 -34.233176
-64.141195 -40.382863 -35.25145
-63.033548 -44.366295 -34.564125
-63.60738 -42.389561 -34.956289
-62.83278 -42.595669 -35.5824
-62.405058 -46.323729 -34.161632
-63.179657 -46.117621 -33.535522
-63.033548 -44.366295 -34.564125
-50.357895 -21.583806 -47.870666
-51.215165 -23.342058 -47.136297
-51.326096 -21.497695 -48.1947
-49.399757 -21.709694 -47.478848
-50.357895 -21.583806 -47.870666
-67.288444 -29.881169 -34.434881
-67.452877 -27.969313 -34.509698
-66.704102 -30.079147 -35.320156
-67.288444 -29.881169 -34.434881
-66.331612 -28.296688 -36.33107
-66.088249 -30.271492 -36.232918
-66.704102 -30.079147 -35.320156
-66.147075 -22.675621 -37.509962
-66.634918 -24.430435 -36.501014
-65.552528 -22.804192 -38.484064
-66.147075 -22.675621 -37.509962
-65.61562 -20.917628 -38.551071
-64.902092 -15.548423 -39.650069
-65.545803 -17.263746 -38.641449
-64.314712 -15.599484 -40.686892
-64.902092 -15.548423 -39.650069
-63.674553 -15.724258 -41.689123
-64.380356 -17.440434 -40.645497
-64.314712 -15.599484 -40.686892
-62.983524 -15.844851 -42.713642
-63.674553 -15.724258 -41.689123
-62.271368 -16.015847 -43.688583
-63.02804 -17.736203 -42.622669
-62.983524 -15.844851 -42.713642
-61.470783 -14.287488 -44.761196
-60.595237 -12.589629 -45.811208
-61.515299 -16.178839 -44.670223
-62.271368 -16.015847 -43.688583
-61.470783 -14.287488 -44.761196
-58.151844 -13.098327 -48.562586
-58.993496 -12.925289 -47.687221
-58.019554 -11.217198 -48.714358
-58.305104 -14.976962 -48.296816
-58.151844 -13.098327 -48.562586
-58.365593 -16.89598 -48.027611
-59.186276 -16.725437 -47.266245
-58.305104 -14.976962 -48.296816
-57.557785 -17.050915 -48.654423
-58.438957 -18.79939 -47.623852
-58.365593 -16.89598 -48.027611
-56.711933 -17.200434 -49.232273
-57.557785 -17.050915 -48.654423
-55.870896 -17.323349 -49.652874
-56.790112 -19.07724 -48.671265
-56.711933 -17.200434 -49.232273
-54.996647 -17.448884 -50.009758
-55.870896 -17.323349 -49.652874
-54.117294 -17.544328 -50.201274
-55.069721 -19.2956 -49.283383
-54.996647 -17.448884 -50.009758
-53.213859 -17.65368 -50.320179
-54.117294 -17.544328 -50.201274
-53.274044 -19.473632 -49.438938
-53.213859 -17.65368 -50.320179
-61.975008 -53.361339 -30.513272
-61.924486 -51.677934 -31.572559
-61.144394 -53.541433 -31.044682
-62.80953 -53.157097 -29.973166
-61.975008 -53.361339 -30.513272
-42.249257 -56.727541 -33.349106
-43.351553 -56.365937 -33.552046
-42.249257 -56.727541 -33.349106
-42.119833 -54.880045 -33.827152
-39.869854 -53.643048 -33.711567
-40.912326 -53.347817 -34.041124
-39.803269 -51.743262 -34.156906
-38.874893 -53.89543 -33.363003
-39.869854 -53.643048 -33.711567
-39.704577 -49.879047 -34.606724
-39.803269 -51.743262 -34.156906
-40.699537 -49.626665 -34.955288
-39.662371 -47.979439 -35.046013
-39.704577 -49.879047 -34.606724
-39.568278 -46.118481 -35.483448
-39.662371 -47.979439 -35.046013
-40.506752 -45.901493 -35.842541
-39.532936 -44.234705 -35.91762
-39.568278 -46.118481 -35.483448
-39.422398 -42.397833 -36.348099
-39.532936 -44.234705 -35.91762
-40.302121 -42.203663 -36.710455
-39.365911 -40.554403 -36.781655
-39.422398 -42.397833 -36.348099
-39.211065 -38.772997 -37.212452
-39.365911 -40.554403 -36.781655
-40.036735 -38.585385 -37.571731
-39.100809 -37.002697 -37.651785
-38.429985 -38.971716 -36.861708
-39.211065 -38.772997 -37.212452
-42.230842 -34.338875 -39.500191
-42.562971 -36.08849 -39.044812
-41.953005 -32.621231 -39.939968
-41.530394 -30.969645 -40.401239
-41.338979 -34.615242 -39.13488
-42.230842 -34.338875 -39.500191
-41.953005 -32.621231 -39.939968
-38.357687 -32.119461 -38.979154
-38.68045 -33.659951 -38.537939
-39.103465 -31.893067 -39.317242
-38.068981 -30.620641 -39.434803
-37.645967 -32.387524 -38.655501
-38.357687 -32.119461 -38.979154
-37.642879 -29.281993 -39.864638
-38.068981 -30.620641 -39.434803
-36.986156 -29.607994 -39.552139
-37.642879 -29.281993 -39.864638
-35.861035 -34.239765 -37.245795
-36.069116 -35.882469 -36.70669
-35.582098 -32.748637 -37.745984
-35.861035 -34.239765 -37.245795
-36.264989 -32.696616 -38.050501
3 0 32 30
3 0 34 32
3 1 37 35
3 1 38 37
3 1 39 38
3 121 120 40
3 122 42 123
3 3 45 43
3 3 47 45
3 3 49 47
3 5 52 50
3 5 54 52
3 2 124 126
3 124 55 125
3 124 125 126
3 6 127 128
3 6 129 131
3 129 57 130
3 129 130 131
3 4 60 58
3 132 62 133
3 134 64 135
3 136 135 62
3 134 135 136
3 138 137 64
3 7 139 140
3 7 141 143
3 141 67 142
3 141 142 143
3 8 70 68
3 10 71 31
3 10 72 71
3 10 74 72
3 12 75 33
3 12 76 75
3 13 79 77
3 145 144 36
3 14 146 148
3 146 80 147
3 146 147 148
3 14 81 80
3 15 149 151
3 151 150 82
3 149 150 151
3 153 152 41
3 9 84 69
3 17 85 44
3 17 86 85
3 17 87 86
3 18 88 46
3 18 89 88
3 18 91 89
3 20 92 48
3 20 93 92
3 11 94 73
3 21 95 51
3 21 96 95
3 21 97 96
3 154 98 155
3 156 155 53
3 154 155 156
3 158 157 98
3 159 99 160
3 161 100 162
3 163 162 99
3 161 162 163
3 22 164 166
3 164 101 165
3 164 165 166
3 22 102 101
3 23 167 169
3 167 168 169
3 23 170 172
3 170 103 171
3 170 171 172
3 23 104 103
3 174 173 78
3 24 175 177
3 177 176 56
3 175 176 177
3 24 178 180
3 178 105 179
3 178 179 180
3 19 106 90
3 25 107 59
3 25 108 107
3 16 109 83
3 26 110 61
3 26 111 110
3 26 112 111
3 27 113 63
3 27 114 113
3 27 115 114
3 28 116 65
3 28 117 116
3 181 118 182
3 183 119 184
3 185 184 118
3 183 184 185
3 187 186 119
3 29 188 190
3 190 189 66
3 188 189 190
3 29 191 192
3 30 31 8
3 32 31 30
3 32 10 31
3 32 33 10
3 34 33 32
3 34 12 33
3 35 36 13
3 37 36 35
3 37 193 195
3 195 194 36
3 193 194 195
3 37 196 198
3 196 197 198
3 38 199 201
3 201 200 37
3 199 200 201
3 38 202 203
3 38 204 205
3 39 206 208
3 208 207 38
3 206 207 208
3 39 209 211
3 209 14 210
3 209 210 211
3 40 41 15
3 212 41 213
3 214 213 40
3 212 213 214
3 216 215 41
3 42 217 218
3 42 219 220
3 43 44 9
3 45 44 43
3 45 17 44
3 45 46 17
3 47 46 45
3 47 18 46
3 47 48 18
3 49 48 47
3 49 20 48
3 50 51 11
3 52 51 50
3 52 21 51
3 52 53 21
3 54 53 52
3 54 221 223
3 223 222 53
3 221 222 223
3 224 22 225
3 226 23 227
3 229 228 23
3 55 230 231
3 55 232 233
3 234 56 235
3 57 236 238
3 236 56 237
3 236 237 238
3 57 24 56
3 58 59 19
3 60 59 58
3 60 25 59
3 239 61 240
3 241 240 16
3 239 240 241
3 62 242 244
3 242 61 243
3 242 243 244
3 62 26 61
3 62 63 26
3 64 63 62
3 64 27 63
3 64 65 27
3 245 65 246
3 247 246 64
3 245 246 247
3 248 28 249
3 250 249 65
3 248 249 250
3 251 66 252
3 67 253 255
3 253 66 254
3 253 254 255
3 67 29 66
3 68 256 258
3 256 69 257
3 256 257 258
3 70 69 68
3 70 9 69
3 31 70 8
3 71 70 31
3 71 9 70
3 71 43 9
3 72 43 71
3 72 3 43
3 72 73 3
3 74 73 72
3 74 11 73
3 33 74 10
3 75 74 33
3 75 11 74
3 75 50 11
3 76 50 75
3 76 5 50
3 77 78 2
3 79 78 77
3 79 259 261
3 261 260 78
3 259 260 261
3 36 79 13
3 262 79 263
3 264 263 36
3 262 263 264
3 266 265 79
3 80 267 268
3 80 269 270
3 80 271 273
3 271 272 273
3 81 274 276
3 276 275 80
3 274 275 276
3 81 277 279
3 277 6 278
3 277 278 279
3 82 83 4
3 280 83 281
3 282 281 82
3 280 281 282
3 283 16 284
3 285 284 83
3 283 284 285
3 41 286 288
3 288 287 15
3 286 287 288
3 290 289 41
3 291 16 292
3 294 293 16
3 295 7 296
3 297 2 298
3 69 299 301
3 299 42 300
3 299 300 301
3 84 42 69
3 84 302 304
3 304 303 42
3 302 303 304
3 44 84 9
3 85 84 44
3 85 305 307
3 307 306 84
3 305 306 307
3 85 308 310
3 308 309 310
3 86 311 313
3 313 312 85
3 311 312 313
3 86 314 316
3 314 2 315
3 314 315 316
3 86 77 2
3 87 77 86
3 87 13 77
3 46 87 17
3 88 87 46
3 88 13 87
3 88 35 13
3 89 35 88
3 89 1 35
3 89 90 1
3 91 90 89
3 91 19 90
3 48 91 18
3 92 91 48
3 92 19 91
3 92 58 19
3 93 58 92
3 93 4 58
3 73 49 3
3 94 49 73
3 94 20 49
3 51 94 11
3 95 94 51
3 95 20 94
3 95 93 20
3 96 93 95
3 96 4 93
3 96 82 4
3 97 82 96
3 97 15 82
3 53 97 21
3 98 97 53
3 98 15 97
3 98 40 15
3 317 40 318
3 319 318 98
3 317 318 319
3 321 320 40
3 99 322 323
3 99 324 325
3 99 326 328
3 326 68 327
3 326 327 328
3 100 68 99
3 100 8 68
3 329 100 330
3 101 331 333
3 331 100 332
3 331 332 333
3 101 8 100
3 101 30 8
3 102 30 101
3 102 0 30
3 334 22 335
3 336 22 337
3 338 102 339
3 340 339 22
3 338 339 340
3 341 102 342
3 343 0 344
3 345 344 102
3 343 344 345
3 103 346 347
3 103 348 350
3 348 0 349
3 348 349 350
3 103 34 0
3 104 34 103
3 104 12 34
3 351 104 352
3 353 352 23
3 351 352 353
3 354 104 355
3 356 12 357
3 358 357 104
3 356 357 358
3 359 76 360
3 361 360 12
3 359 360 361
3 362 76 363
3 364 5 365
3 366 365 76
3 364 365 366
3 367 5 368
3 369 54 370
3 371 370 5
3 369 370 371
3 372 54 373
3 375 374 54
3 78 55 2
3 376 55 377
3 378 377 78
3 376 377 378
3 380 379 55
3 56 381 382
3 384 383 56
3 105 385 386
3 105 387 389
3 387 388 389
3 90 39 1
3 106 39 90
3 106 14 39
3 59 106 19
3 107 106 59
3 107 14 106
3 107 81 14
3 108 81 107
3 108 6 81
3 83 60 4
3 109 60 83
3 109 25 60
3 61 109 16
3 110 109 61
3 110 25 109
3 110 108 25
3 111 108 110
3 111 6 108
3 111 57 6
3 112 57 111
3 112 24 57
3 63 112 26
3 113 112 63
3 113 24 112
3 113 105 24
3 114 105 113
3 114 390 392
3 392 391 105
3 390 391 392
3 114 393 394
3 115 395 397
3 397 396 114
3 395 396 397
3 115 398 399
3 65 115 27
3 116 115 65
3 116 400 402
3 402 401 115
3 400 401 402
3 116 403 404
3 117 405 407
3 407 406 116
3 405 406 407
3 117 408 410
3 408 7 409
3 408 409 410
3 411 28 412
3 118 413 414
3 118 415 417
3 415 28 416
3 415 416 417
3 118 117 28
3 119 117 118
3 119 7 117
3 119 67 7
3 418 67 419
3 420 419 119
3 418 419 420
3 421 29 422
3 423 422 67
3 421 422 423
3 424 29 425
3 427 426 29
3 66 428 429
3 432 431 66
3 430 431 432
