ply
format ascii 1.0
element vertex 411
property float x
property float y
property float z
element face 340
property list uchar int vertex_index
end_header
-3.323248 -69.764748 75.747986
-6.229799 -39.477226 54.966267
-4.883583 -51.376228 59.39801
-1.857832 -61.226097 63.784149
-0.541838 -70.362297 66.749084
-2.414633 -34.195454 48.994167
-1.361021 -65.937981 70.753082
-1.570805 -70.19474 71.620148
-4.827387 -36.963051 51.581001
-4.866179 -73.569977 75.34201
-2.528969 -74.452789 71.894508
-5.912357 -45.713638 57.05125
-4.435017 -49.666756 54.949528
-2.002644 -61.685795 69.208115
-0.824091 -65.781631 65.488159
-0.981087 -75.026711 67.542915
-1.458736 -26.949213 48.334381
0.270172 -31.449884 46.643745
-3.377518 -56.497047 61.710987
-2.797531 -67.825546 75.751953
-1.986311 -67.981743 73.613312
-2.348194 -70.020393 73.801704
-4.115389 -45.540138 52.227734
-5.244751 -47.708332 56.014137
-4.745298 -50.584091 57.082073
-2.195713 -61.826401 71.900269
-0.901293 -68.082672 68.772781
-1.030903 -65.88121 68.151146
-2.233383 -76.966202 69.904144
-1.661728 -74.775726 69.812584
-1.43391 -77.336121 67.760391
-3.707394 -35.592415 50.216682
-4.527475 -33.503002 50.993446
-3.318356 -32.073078 49.743744
-0.564827 -29.17802 47.515533
-1.053261 -32.805359 47.83054
-2.574348 -59.246704 65.466766
-3.341192 -56.94342 64.34153
-2.58555 -58.897625 62.787029
-1.909992 -63.893005 72.674088
-1.836422 -65.940796 73.243782
-1.360632 -68.061363 71.268791
-0.97599 -70.303635 69.252754
-5.72213 -41.546333 54.010941
-5.687668 -38.270332 53.152489
-4.981522 -40.316879 52.302219
-3.983751 -39.012123 50.805531
-1.223299 -63.285007 62.006523
-1.867823 -60.90147 61.131447
-4.025097 -71.685547 75.598267
-2.895538 -72.050613 73.837387
-5.574871 -44.694992 54.977871
-4.787693 -46.673439 54.020786
-1.896904 -61.485783 66.488274
-1.579807 -63.817928 70.065163
-1.368706 -63.688808 67.387451
-1.255741 -63.511436 64.688187
-1.969179 -72.332489 71.822876
-1.236851 -72.541359 69.59687
-0.679512 -72.689728 67.204773
-3.304375 -65.712006 77.66391
-3.804974 -67.574005 77.631104
-5.354059 -71.231361 77.070847
-5.485359 -34.87899 52.437508
-0.941908 -23.176994 48.151501
-2.605293 -58.464691 60.189808
-3.373224 -55.947575 59.191486
-4.106195 -53.326691 58.149517
-3.930735 -52.537224 55.885033
-3.685563 -44.942377 51.416372
-3.703616 -46.543608 51.72533
-5.181071 -49.99694 58.80509
-5.191802 -50.381351 59.997358
-4.81444 -50.980159 58.240042
-5.111928 -49.600872 57.647121
-5.181071 -49.99694 58.80509
-2.347816 -61.863428 73.206993
-2.497292 -60.841915 72.768158
-0.563743 -69.21127 66.462776
-0.74347 -68.071457 67.474625
-0.721566 -69.222485 67.760932
-0.393371 -70.372493 65.452259
-0.563743 -69.21127 66.462776
-1.734509 -78.447369 67.804622
-1.833646 -77.151162 68.832268
-2.134245 -78.262409 68.876499
-6.173886 -37.821388 54.544415
-6.309153 -38.403194 55.513356
-2.187016 -32.40878 48.803886
-2.638878 -31.347592 49.178674
-2.866494 -33.134266 49.368955
-1.733947 -33.500406 48.412353
-1.506331 -31.713732 48.222072
-2.187016 -32.40878 48.803886
-2.157566 -65.90662 74.405445
-2.109265 -64.920803 74.201652
-4.976304 -41.936349 52.714657
-5.351826 -40.931606 53.15658
-5.346609 -42.551076 53.569018
-3.534412 -40.032803 50.40873
-4.054346 -40.670517 51.145636
-3.390746 -38.341805 50.136185
-3.534412 -40.032803 50.40873
-1.239634 -63.144728 60.689892
-0.965175 -64.375231 61.074137
-4.231369 -73.810753 74.545563
-3.810828 -72.868538 74.673691
-4.445638 -72.627762 75.470139
-6.105161 -44.678421 57.589674
-5.948749 -46.151791 58.192319
-6.038339 -44.188978 56.503296
-6.105161 -44.678421 57.589674
-5.743614 -45.204315 56.014561
-5.869595 -43.679655 55.466606
-6.038339 -44.188978 56.503296
-4.191325 -49.155487 53.97621
-4.367662 -47.658828 53.511839
-4.611355 -48.170097 54.485157
-2.296801 -60.602953 68.701996
-2.329976 -60.704759 70.071297
-1.949774 -61.585789 67.848195
-2.243931 -60.502947 67.342075
-2.296801 -60.602953 68.701996
-0.772749 -65.712593 64.147501
-0.988574 -64.577495 63.747515
-1.039916 -64.646534 65.088173
-3.812235 -65.575364 78.570206
-3.567117 -64.672497 78.589191
-4.062534 -66.506363 78.553802
-3.554674 -66.643006 77.647507
-3.812235 -65.575364 78.570206
-5.611035 -70.095898 77.918014
-4.926899 -70.322823 77.242531
-4.833642 -32.444718 51.442134
-4.318444 -31.724705 50.77609
-1.890025 -25.850498 48.759793
-2.151991 -27.703593 48.867374
-1.200322 -25.063104 48.242941
-1.631611 -23.964388 48.668352
-1.890025 -25.850498 48.759793
-0.763697 -26.196323 47.803425
-0.505282 -24.310214 47.711985
-1.200322 -25.063104 48.242941
0.512964 -29.606925 46.506275
0.095465 -28.470993 46.942169
-0.147327 -30.313952 47.079639
0.866657 -30.800799 46.007228
0.512964 -29.606925 46.506275
-3.752821 -55.522497 62.423311
-3.734658 -55.745683 63.738583
-3.359355 -56.720234 63.026259
-3.771399 -55.247221 61.142395
-3.752821 -55.522497 62.423311
-2.257769 -59.484858 59.373745
-2.236558 -59.683081 60.660628
-1.889034 -60.703247 59.844565
-3.340613 -55.619507 57.998979
-2.994052 -56.944542 58.445833
-3.707098 -54.309065 57.477995
-3.73971 -54.637133 58.670502
-3.340613 -55.619507 57.998979
-3.619369 -53.914332 56.345753
-4.018465 -52.931957 57.017275
-3.707098 -54.309065 57.477995
-2.391921 -67.903644 74.682632
-2.232511 -66.927093 74.59021
-2.638121 -66.848995 75.659531
-4.120165 -43.934524 51.856737
-4.543238 -44.547979 52.677414
-4.120165 -43.934524 51.856737
-3.685563 -44.942377 51.416372
-4.644111 -74.777298 74.449245
-5.338273 -74.476677 75.17234
-5.695458 -47.165645 57.63171
-5.948749 -46.151791 58.192319
-5.361655 -48.162993 57.113153
-5.578554 -46.710985 56.532694
-5.695458 -47.165645 57.63171
-4.995024 -49.146211 56.548105
-5.361655 -48.162993 57.113153
-5.111928 -49.600872 57.647121
-2.426511 -60.775062 71.417374
-2.497292 -60.841915 72.768158
-2.099178 -61.756098 70.554192
-2.329976 -60.704759 70.071297
-2.426511 -60.775062 71.417374
-0.808275 -66.970726 67.163807
-0.966098 -66.981941 68.461963
-0.74347 -68.071457 67.474625
-0.70487 -66.920937 65.832313
-0.927497 -65.831421 66.819652
-0.808275 -66.970726 67.163807
-0.608136 -66.892334 64.506712
-0.70487 -66.920937 65.832313
-3.713884 -31.009743 50.15124
-4.318444 -31.724705 50.77609
-3.922916 -32.78804 50.368595
-3.0818 -30.265526 49.572056
-3.713884 -31.009743 50.15124
-3.0818 -30.265526 49.572056
-2.638878 -31.347592 49.178674
-1.709068 -28.785659 48.473993
-2.151991 -27.703593 48.867374
-1.262113 -29.900063 48.064569
-1.011782 -28.063617 47.924957
-1.709068 -28.785659 48.473993
-0.809044 -30.991689 47.673036
-1.262113 -29.900063 48.064569
-1.506331 -31.713732 48.222072
-2.95777 -58.095062 64.904148
-3.313765 -57.119529 65.696373
-2.930343 -58.271172 66.258991
-4.8753 -51.705792 60.637296
-5.191802 -50.381351 59.997358
-2.14605 -63.896907 73.916805
-2.204956 -62.89673 73.593903
-1.873207 -64.9169 72.958935
-2.14605 -63.896907 73.916805
-2.109265 -64.920803 74.201652
-1.911366 -66.96127 73.428547
-2.157566 -65.90662 74.405445
-2.232511 -66.927093 74.59021
-4.553231 -41.322895 51.89398
-4.976304 -41.936349 52.714657
-4.482636 -39.664501 51.553875
-4.553231 -41.322895 51.89398
-4.054346 -40.670517 51.145636
-3.252567 -36.631951 49.84176
-3.845572 -37.302269 50.511106
-3.390746 -38.341805 50.136185
-2.606187 -35.93347 49.230503
-3.061013 -34.893935 49.605424
-3.252567 -36.631951 49.84176
-1.963457 -35.264105 48.602706
-2.606187 -35.93347 49.230503
-1.561897 -61.952959 60.252353
-1.545561 -62.093238 61.568985
-1.239634 -63.144728 60.689892
-1.889034 -60.703247 59.844565
-1.561897 -61.952959 60.252353
-3.246049 -73.051071 73.793251
-3.460317 -71.86808 74.717827
-3.810828 -72.868538 74.673691
-3.062765 -74.252159 72.821811
-2.712254 -73.251701 72.865948
-3.246049 -73.051071 73.793251
-4.231369 -73.810753 74.545563
-4.644111 -74.777298 74.449245
-2.878178 -75.483811 71.870968
-3.062765 -74.252159 72.821811
-2.730384 -76.740517 70.875786
-2.381176 -75.709496 70.899326
-2.878178 -75.483811 71.870968
-2.588524 -78.008904 69.886513
-2.730384 -76.740517 70.875786
-2.134245 -78.262409 68.876499
-2.588524 -78.008904 69.886513
-6.330148 -40.014652 55.995001
-6.309153 -38.403194 55.513356
-6.197059 -41.070772 55.460804
-6.330148 -40.014652 55.995001
-5.943225 -42.105325 54.983141
-5.975964 -40.51178 54.488604
-6.197059 -41.070772 55.460804
-5.6485 -43.120662 54.494406
-5.943225 -42.105325 54.983141
-5.869595 -43.679655 55.466606
-5.272979 -44.125406 54.052482
-5.346609 -42.551076 53.569018
-5.6485 -43.120662 54.494406
-4.87939 -45.114629 53.57394
-5.272979 -44.125406 54.052482
-5.181282 -45.684216 54.499329
-4.451541 -46.106789 53.12426
-4.543238 -44.547979 52.677414
-4.87939 -45.114629 53.57394
-4.031511 -47.092178 52.615313
-4.451541 -46.106789 53.12426
-4.367662 -47.658828 53.511839
-3.703616 -46.543608 51.72533
-4.031511 -47.092178 52.615313
-2.582653 -59.383408 66.831322
-2.930343 -58.271172 66.258991
-2.235626 -60.366243 65.97752
-2.582653 -59.383408 66.831322
-2.243931 -60.502947 67.342075
-2.052853 -62.859703 72.287178
-2.347816 -61.863428 73.206993
-2.204956 -62.89673 73.593903
-0.972353 -64.464281 62.406683
-1.23952 -63.398222 63.347355
-0.988574 -64.577495 63.747515
-0.965175 -64.375231 61.074137
-0.972353 -64.464281 62.406683
-0.772749 -65.712593 64.147501
-0.608136 -66.892334 64.506712
-1.374025 -78.654618 66.708084
-1.734509 -78.447369 67.804622
-1.122914 -77.481812 66.606583
-1.374025 -78.654618 66.708084
-0.896502 -76.327107 66.497844
-1.207499 -76.181416 67.651653
-1.122914 -77.481812 66.606583
-0.723154 -75.120923 66.334915
-0.896502 -76.327107 66.497844
-0.572367 -73.952431 66.165844
-0.830299 -73.85822 67.373844
-0.723154 -75.120923 66.334915
-0.476424 -72.739823 65.948128
-0.572367 -73.952431 66.165844
-0.407587 -71.576107 65.720283
-0.610675 -71.526013 66.976928
-0.476424 -72.739823 65.948128
-0.393371 -70.372493 65.452259
-0.407587 -71.576107 65.720283
-3.160798 -64.766875 77.562366
-3.567117 -64.672497 78.589191
-2.891542 -65.792225 76.615509
-3.160798 -64.766875 77.562366
-3.050953 -66.768776 76.707932
-2.638121 -66.848995 75.659531
-2.891542 -65.792225 76.615509
-4.406 -67.392711 78.417122
-4.062534 -66.506363 78.553802
-4.152356 -68.494145 77.52266
-4.406 -67.392711 78.417122
-3.911493 -69.589516 76.5811
-3.564111 -68.669376 76.689545
-4.152356 -68.494145 77.52266
-4.262418 -70.549915 76.506241
-3.674173 -70.725147 75.673126
-3.911493 -69.589516 76.5811
-4.689578 -71.458454 76.334557
-4.262418 -70.549915 76.506241
-4.926899 -70.322823 77.242531
-6.109838 -70.959262 77.651398
-5.611035 -70.095898 77.918014
-5.840194 -72.121059 76.859074
-6.109838 -70.959262 77.651398
-5.596254 -73.290367 75.994655
-5.110119 -72.400669 76.206429
-5.840194 -72.121059 76.859074
-5.338273 -74.476677 75.17234
-5.596254 -73.290367 75.994655
-5.902821 -37.217941 53.637526
-6.173886 -37.821388 54.544415
-5.958734 -38.873779 54.059378
-5.801666 -35.52227 53.280035
-5.902821 -37.217941 53.637526
-5.586514 -36.574661 52.794999
-5.667415 -33.812397 52.945616
-5.801666 -35.52227 53.280035
-5.312584 -33.132711 52.164165
-5.006417 -34.190996 51.715477
-4.833642 -32.444718 51.442134
-5.667415 -33.812397 52.945616
-5.312584 -33.132711 52.164165
-1.361973 -22.068826 48.616079
-1.631611 -23.964388 48.668352
-0.690519 -21.2432 48.098256
-1.361973 -22.068826 48.616079
-0.264709 -22.388051 47.622843
-0.690519 -21.2432 48.098256
-0.264709 -22.388051 47.622843
-0.505282 -24.310214 47.711985
-0.316742 -27.310727 47.394001
-0.763697 -26.196323 47.803425
-1.011782 -28.063617 47.924957
-0.316742 -27.310727 47.394001
0.095465 -28.470993 46.942169
-1.282771 -34.569057 48.020893
-1.733947 -33.500406 48.412353
-1.963457 -35.264105 48.602706
-0.638966 -33.91716 47.394842
-1.282771 -34.569057 48.020893
0.02275 -33.239423 46.801445
-0.391544 -32.127622 47.237143
-0.638966 -33.91716 47.394842
0.621656 -32.618459 46.143917
0.02275 -33.239423 46.801445
0.866657 -30.800799 46.007228
0.621656 -32.618459 46.143917
-3.68047 -55.96458 65.07233
-3.313765 -57.119529 65.696373
-3.68047 -55.96458 65.07233
-3.734658 -55.745683 63.738583
-4.524431 -52.686811 59.985906
-4.8753 -51.705792 60.637296
-2.610086 -58.2031 58.944994
-2.257769 -59.484858 59.373745
-2.989259 -57.206133 59.690647
-2.610086 -58.2031 58.944994
-2.994052 -56.944542 58.445833
-3.769252 -54.972485 59.882644
-3.771399 -55.247221 61.142395
-3.375371 -56.222311 60.451237
-4.135737 -53.662043 59.36166
-3.769252 -54.972485 59.882644
-3.73971 -54.637133 58.670502
-4.494889 -52.351459 58.773764
-4.524431 -52.686811 59.985906
-4.135737 -53.662043 59.36166
-3.546655 -53.535378 55.226313
-3.619369 -53.914332 56.345753
-3.777648 -52.089218 54.836537
-3.546655 -53.535378 55.226313
-4.029789 -50.653984 54.368784
-4.182876 -51.10199 55.417281
-3.777648 -52.089218 54.836537
-4.191325 -49.155487 53.97621
-4.029789 -50.653984 54.368784
3 0 21 19
3 70 69 22
3 2 71 72
3 2 73 75
3 73 24 74
3 73 74 75
3 76 25 77
3 4 78 80
3 80 79 26
3 78 79 80
3 4 81 82
3 83 30 84
3 85 84 28
3 83 84 85
3 1 86 87
3 5 33 31
3 5 88 90
3 90 89 33
3 88 89 90
3 5 91 93
3 91 35 92
3 91 92 93
3 3 38 36
3 94 40 95
3 7 41 20
3 7 42 41
3 96 45 97
3 98 97 43
3 96 97 98
3 99 46 100
3 102 101 46
3 104 103 47
3 9 105 107
3 107 106 49
3 105 106 107
3 11 108 109
3 11 110 111
3 11 112 114
3 112 51 113
3 112 113 114
3 12 52 23
3 12 115 117
3 117 116 52
3 115 116 117
3 13 118 119
3 13 120 122
3 120 53 121
3 120 121 122
3 6 54 39
3 14 55 27
3 14 56 55
3 14 123 125
3 125 124 56
3 123 124 125
3 10 57 50
3 15 58 29
3 15 59 58
3 126 60 127
3 128 61 129
3 130 129 60
3 128 129 130
3 131 62 132
3 8 63 44
3 134 133 32
3 16 135 136
3 16 137 139
3 137 64 138
3 137 138 139
3 16 140 142
3 142 141 64
3 140 141 142
3 17 143 145
3 145 144 34
3 143 144 145
3 17 146 147
3 18 148 150
3 150 149 37
3 148 149 150
3 18 151 152
3 153 65 154
3 155 154 48
3 153 154 155
3 156 66 157
3 158 67 159
3 160 159 66
3 158 159 160
3 161 68 162
3 163 162 67
3 161 162 163
3 19 164 166
3 164 20 165
3 164 165 166
3 21 20 19
3 21 7 20
3 22 167 168
3 170 169 22
3 172 171 9
3 173 11 174
3 175 23 176
3 177 176 11
3 175 176 177
3 24 178 180
3 178 23 179
3 178 179 180
3 24 12 23
3 25 181 182
3 25 183 185
3 183 13 184
3 183 184 185
3 26 27 6
3 186 27 187
3 188 187 26
3 186 187 188
3 189 14 190
3 191 190 27
3 189 190 191
3 193 192 14
3 28 29 10
3 30 29 28
3 30 15 29
3 31 32 8
3 33 32 31
3 33 194 196
3 196 195 32
3 194 195 196
3 33 197 198
3 200 199 33
3 201 16 202
3 203 34 204
3 205 204 16
3 203 204 205
3 35 206 208
3 206 34 207
3 206 207 208
3 35 17 34
3 36 209 211
3 209 37 210
3 209 210 211
3 38 37 36
3 38 18 37
3 212 2 213
3 214 39 215
3 40 216 218
3 216 39 217
3 216 217 218
3 40 6 39
3 20 219 221
3 219 40 220
3 219 220 221
3 41 40 20
3 41 6 40
3 41 26 6
3 42 26 41
3 42 4 26
3 43 44 1
3 45 44 43
3 45 8 44
3 222 45 223
3 46 224 226
3 224 45 225
3 224 225 226
3 46 8 45
3 46 31 8
3 227 31 228
3 229 228 46
3 227 228 229
3 230 5 231
3 232 231 31
3 230 231 232
3 234 233 5
3 47 48 3
3 235 48 236
3 237 236 47
3 235 236 237
3 239 238 48
3 49 50 0
3 240 50 241
3 242 241 49
3 240 241 242
3 243 10 244
3 245 244 50
3 243 244 245
3 247 246 9
3 248 10 249
3 250 28 251
3 252 251 10
3 250 251 252
3 253 28 254
3 256 255 28
3 257 1 258
3 259 1 260
3 261 43 262
3 263 262 1
3 261 262 263
3 51 264 266
3 264 43 265
3 264 265 266
3 51 267 269
3 269 268 43
3 267 268 269
3 23 51 11
3 52 51 23
3 52 270 272
3 272 271 51
3 270 271 272
3 52 273 275
3 273 22 274
3 273 274 275
3 276 22 277
3 278 277 52
3 276 277 278
3 280 279 22
3 281 36 282
3 53 283 285
3 283 36 284
3 283 284 285
3 53 3 36
3 39 286 288
3 286 25 287
3 286 287 288
3 54 25 39
3 54 13 25
3 27 54 6
3 55 54 27
3 55 13 54
3 55 53 13
3 56 53 55
3 56 3 53
3 56 47 3
3 289 47 290
3 291 290 56
3 289 290 291
3 293 292 47
3 295 294 14
3 50 21 0
3 57 21 50
3 57 7 21
3 29 57 10
3 58 57 29
3 58 7 57
3 58 42 7
3 59 42 58
3 59 4 42
3 296 30 297
3 298 30 299
3 300 15 301
3 302 301 30
3 300 301 302
3 303 15 304
3 305 59 306
3 307 306 15
3 305 306 307
3 308 59 309
3 310 4 311
3 312 311 59
3 310 311 312
3 314 313 4
3 60 315 316
3 60 317 318
3 60 319 321
3 319 19 320
3 319 320 321
3 61 19 60
3 61 0 19
3 322 61 323
3 324 61 325
3 326 0 327
3 328 327 61
3 326 327 328
3 329 49 330
3 331 330 0
3 329 330 331
3 62 332 334
3 332 49 333
3 332 333 334
3 62 9 49
3 335 62 336
3 337 62 338
3 339 9 340
3 341 340 62
3 339 340 341
3 343 342 9
3 44 344 346
3 346 345 1
3 344 345 346
3 63 347 349
3 349 348 44
3 347 348 349
3 63 350 351
3 32 63 8
3 352 63 353
3 354 353 32
3 352 353 354
3 356 355 63
3 64 357 358
3 64 359 360
3 64 361 362
3 364 363 64
3 34 365 367
3 367 366 16
3 365 366 367
3 369 368 34
3 370 35 371
3 372 371 5
3 370 371 372
3 373 35 374
3 375 17 376
3 377 376 35
3 375 376 377
3 378 17 379
3 381 380 17
3 37 382 383
3 385 384 37
3 386 2 387
3 48 38 3
3 65 38 48
3 65 18 38
3 388 65 389
3 66 390 392
3 390 65 391
3 390 391 392
3 66 18 65
3 66 393 395
3 395 394 18
3 393 394 395
3 67 396 398
3 398 397 66
3 396 397 398
3 67 399 401
3 399 2 400
3 399 400 401
3 67 24 2
3 68 24 67
3 68 12 24
3 402 68 403
3 404 68 405
3 406 12 407
3 408 407 68
3 406 407 408
3 410 409 12
