ply
format ascii 1.0
element vertex 381
property float x
property float y
property float z
element face 353
property list uchar int vertex_index
end_header
-21.744354 68.285019 27.943163
-29.345049 75.217224 8.430552
-25.331202 72.247284 18.817657
-19.167206 81.825668 9.357538
-31.356678 52.763752 38.396225
-22.639645 59.493732 36.346397
-23.315058 70.143051 23.836004
-21.004274 75.286636 19.966938
-24.844154 65.368927 27.902725
-27.465372 67.245529 23.512409
-31.348843 75.7659 3.183813
-25.95545 78.910904 2.809823
-32.188038 71.124878 14.08439
-34.132481 72.165207 9.056622
-32.439713 47.787487 43.128723
-26.769913 55.729771 37.244133
-27.378868 74.022812 13.647836
-24.211105 78.371033 8.396294
-22.57547 77.194748 14.146252
-29.976942 69.368607 18.880859
-35.962631 50.007061 39.331505
-25.863949 60.637424 32.515602
-22.105007 64.434341 31.834614
-20.853355 70.205612 26.92576
-22.425907 69.118286 26.122498
-21.469631 71.489746 24.51614
-23.079737 66.942795 27.872478
-24.174849 67.719162 25.798626
-30.329901 75.574005 5.807246
-28.701609 77.322556 2.933846
-27.723621 77.107742 5.608519
-30.828945 73.227921 11.260568
-33.180122 71.745499 11.600941
-31.817278 73.721207 8.702879
-32.805561 74.030457 6.112
-26.364517 73.197617 16.239447
-24.953835 75.568558 13.754816
-24.034365 74.742371 16.492809
-26.472084 69.740295 21.146454
-28.749203 68.319687 21.215023
-27.626791 70.775192 18.719967
-28.744905 71.731125 16.264519
-21.663216 80.084839 8.739138
-22.399851 80.414291 5.76923
-19.785524 82.178528 6.214566
-31.884945 50.312916 40.779343
-34.204048 48.968739 41.300655
-33.695229 51.402409 38.926682
-24.632099 57.488674 36.750088
-26.315517 58.211079 34.892265
-24.248632 60.013645 34.458241
-23.882959 62.441822 32.156773
-24.301916 71.210968 21.365644
-23.123926 73.771088 19.225431
-22.252705 72.678162 21.9203
-20.297348 74.060989 22.833214
-26.866173 63.809856 28.087357
-28.324154 64.776947 25.93996
-26.1567 66.23053 25.754986
-25.310226 68.692993 23.52409
-32.423031 75.779572 0.573436
-29.742022 77.388351 0.294341
-26.921129 78.977509 0.100297
-33.435131 68.901505 16.890661
-35.353897 70.153748 11.993704
-33.82457 74.146515 3.500561
-33.028664 45.168789 45.465004
-29.026934 54.1777 37.811058
-27.253965 53.175716 39.552551
-28.368742 74.699326 11.045097
-26.787436 76.748001 8.307953
-25.869984 76.237259 11.024853
-23.387682 77.871048 11.254923
-20.951624 79.569672 11.767026
-21.775095 76.333038 17.058012
-20.255013 78.844376 14.840137
-31.083149 66.949951 21.504948
-32.319748 67.990112 19.226282
-31.125147 70.321335 16.507805
-29.811277 72.559097 13.780149
-25.059616 78.711731 5.578476
-23.182844 80.585922 2.868203
-36.420383 47.564297 41.662331
-38.064693 48.503048 39.556999
-37.651146 50.931126 37.245193
-28.019081 59.01659 32.959621
-27.47542 61.410267 30.504398
-25.386045 63.020535 30.162306
-23.508905 64.759369 29.920403
-21.897568 66.591904 29.688126
-20.522825 66.627243 31.424725
-21.146265 68.45768 28.558667
-20.700766 69.417977 28.049965
-21.298855 69.245316 27.434461
-32.268808 53.277199 37.44817
-33.438084 52.596528 37.713398
-32.525953 52.08308 38.661454
-31.09653 53.964557 37.179398
-32.268808 53.277199 37.44817
-22.495204 60.769149 35.218834
-23.299698 61.029106 34.274755
-23.444139 59.753688 35.402319
-21.716981 60.622192 36.175045
-22.495204 60.769149 35.218834
-20.00065 73.355423 24.219067
-20.883489 72.775368 23.674677
-20.586792 72.069801 25.06053
-19.340388 74.67437 23.459679
-20.00065 73.355423 24.219067
-24.996433 79.766556 1.428567
-25.479273 79.799858 0.073803
-26.438289 78.944207 1.45506
-33.312285 70.378898 14.283365
-33.935831 69.267212 15.686501
-32.811584 70.013192 15.487526
-35.182957 71.307449 9.243123
-35.793665 70.30172 10.711664
-34.743189 71.159477 10.525163
-34.608566 72.269859 7.758973
-35.182957 71.307449 9.243123
-27.522183 51.85389 40.689243
-28.400056 52.430264 39.861128
-19.118973 79.632378 15.33465
-19.916901 78.368866 16.389802
-19.411552 80.046448 13.704122
-19.118973 79.632378 15.33465
-28.603133 66.548485 23.626995
-29.032524 65.314194 24.84077
-27.894763 66.011238 24.726185
-21.812312 81.463279 3.010599
-22.791348 80.500107 4.318716
-21.420816 81.377464 4.461113
-22.172738 81.465309 1.527157
-21.812312 81.463279 3.010599
-33.581314 47.124855 43.383846
-33.87579 45.815506 44.551986
-32.734189 46.478138 44.296864
-27.648366 56.171436 36.324756
-28.776877 55.395401 36.608219
-27.898423 54.953736 37.527596
-20.069069 70.603538 27.588726
-20.278654 71.427734 26.265339
-20.069069 70.603538 27.588726
-20.700766 69.417977 28.049965
-20.278654 71.427734 26.265339
-20.586792 72.069801 25.06053
-21.161493 70.847679 25.72095
-20.291531 76.589996 18.953202
-19.974101 75.998131 20.501031
-20.113652 82.259582 4.683781
-21.420816 81.377464 4.461113
-21.092688 81.29641 5.991898
-34.588963 51.903496 37.937022
-35.722664 51.205822 38.139433
-34.82893 50.704735 39.129093
-34.588963 51.903496 37.937022
-33.438084 52.596528 37.713398
-23.116861 62.243195 33.124021
-24.065796 61.227733 33.307507
-23.299698 61.029106 34.274755
-22.227885 63.239454 32.962942
-22.993983 63.438082 31.995694
-23.116861 62.243195 33.124021
-21.361519 64.368789 32.780271
-22.227885 63.239454 32.962942
-19.620638 75.385307 21.934169
-19.974101 75.998131 20.501031
-20.650811 74.673812 21.400076
-19.620638 75.385307 21.934169
-19.340388 74.67437 23.459679
-27.595163 64.293402 27.013658
-28.695815 63.558172 27.184497
-27.966825 63.074627 28.258195
-31.63973 76.531746 -0.861965
-32.993254 75.683563 -0.717041
-30.299226 77.336135 -1.001513
-31.63973 76.531746 -0.861965
-31.082527 76.583962 0.433889
-28.856898 78.145599 -1.122239
-30.299226 77.336135 -1.001513
-27.446452 78.940178 -1.219261
-28.856898 78.145599 -1.122239
-28.331575 78.18293 0.197319
-25.952765 79.753761 -1.290581
-27.446452 78.940178 -1.219261
-25.952765 79.753761 -1.290581
-25.479273 79.799858 0.073803
-18.202801 82.867271 8.142606
-17.9485 82.654197 9.80434
-34.518369 68.142563 17.110154
-34.007288 67.733964 18.280146
-34.518369 68.142563 17.110154
-33.935831 69.267212 15.686501
-33.808326 70.689209 13.04164
-33.312285 70.378898 14.283365
-32.68408 71.435188 12.842666
-34.895214 69.893333 13.238022
-33.808326 70.689209 13.04164
-34.26701 70.949624 11.797322
-35.923422 69.07225 13.446644
-34.895214 69.893333 13.238022
-36.328287 69.259582 12.185842
-35.923422 69.07225 13.446644
-36.328287 69.259582 12.185842
-35.793665 70.30172 10.711664
-33.945106 73.202484 6.286662
-34.608566 72.269859 7.758973
-33.469021 73.097832 7.584311
-34.454611 73.260514 4.980943
-33.945106 73.202484 6.286662
-33.315066 74.088486 4.80628
-34.949789 73.255348 3.667204
-34.454611 73.260514 4.980943
-34.361609 74.099579 2.193675
-34.949789 73.255348 3.667204
-33.660839 74.916108 0.730112
-34.361609 74.099579 2.193675
-33.123801 74.963043 2.036998
-32.993254 75.683563 -0.717041
-33.660839 74.916108 0.730112
-32.201698 44.423651 46.30283
-33.33761 43.806894 46.632391
-31.872471 45.806976 45.138363
-32.201698 44.423651 46.30283
-31.577996 47.116326 43.970223
-32.734189 46.478138 44.296864
-31.872471 45.806976 45.138363
-31.272695 48.449783 42.811913
-31.577996 47.116326 43.970223
-30.995311 49.712498 41.637223
-32.162329 49.050202 41.954033
-31.272695 48.449783 42.811913
-30.715545 50.998863 40.474524
-30.995311 49.712498 41.637223
-30.451412 52.224282 39.282965
-31.620811 51.538334 39.587784
-30.715545 50.998863 40.474524
-29.28654 52.931256 38.990381
-30.191806 53.470726 38.103642
-30.451412 52.224282 39.282965
-28.14045 53.676708 38.681804
-29.28654 52.931256 38.990381
-28.400056 52.430264 39.861128
-26.400203 52.655861 40.380111
-27.522183 51.85389 40.689243
-26.155636 54.020432 39.275993
-26.400203 52.655861 40.380111
-25.91361 55.297459 38.121784
-27.011939 54.452743 38.398342
-26.155636 54.020432 39.275993
-24.844704 56.176911 37.874761
-25.701006 56.609223 36.99711
-25.91361 55.297459 38.121784
-23.809126 57.147419 37.651457
-24.844704 56.176911 37.874761
-22.812899 58.149948 37.449612
-23.635872 58.491203 36.548243
-23.809126 57.147419 37.651457
-21.844249 59.255009 37.279373
-22.812899 58.149948 37.449612
-20.676942 77.113197 17.498739
-21.389685 75.809837 18.512475
-20.291531 76.589996 18.953202
-21.015054 77.588707 15.949075
-20.676942 77.113197 17.498739
-19.916901 78.368866 16.389802
-19.759858 80.409096 12.167566
-20.603319 79.207024 13.303581
-19.411552 80.046448 13.704122
-18.867649 81.537094 10.962822
-20.059415 80.69767 10.562282
-19.759858 80.409096 12.167566
-17.9485 82.654197 9.80434
-18.867649 81.537094 10.962822
-29.468138 64.083628 26.121963
-28.695815 63.558172 27.184497
-29.468138 64.083628 26.121963
-29.032524 65.314194 24.84077
-29.245049 67.085564 22.478302
-28.603133 66.548485 23.626995
-28.107287 67.782608 22.363716
-30.412022 66.400695 22.623264
-29.245049 67.085564 22.478302
-29.916176 67.634819 21.359986
-31.576601 65.723984 22.822287
-30.412022 66.400695 22.623264
-32.242256 66.266441 21.719081
-31.576601 65.723984 22.822287
-32.860556 66.786522 20.579748
-32.242256 66.266441 21.719081
-31.701448 67.470032 20.365615
-33.449596 67.278267 19.447956
-32.860556 66.786522 20.579748
-32.877439 68.445808 18.058472
-34.007288 67.733964 18.280146
-33.449596 67.278267 19.447956
-23.61013 80.604065 1.457756
-24.996433 79.766556 1.428567
-24.569147 79.748413 2.839013
-23.61013 80.604065 1.457756
-22.172738 81.465309 1.527157
-18.51196 83.043701 6.57112
-19.476365 82.002098 7.786052
-18.202801 82.867271 8.142606
-18.778343 83.140549 4.952489
-18.51196 83.043701 6.57112
-20.113652 82.259582 4.683781
-18.778343 83.140549 4.952489
-34.143024 44.514509 45.710533
-33.33761 43.806894 46.632391
-34.143024 44.514509 45.710533
-33.87579 45.815506 44.551986
-34.463482 47.715481 42.469812
-33.581314 47.124855 43.383846
-33.32188 48.378113 42.214689
-35.571649 47.01326 42.65065
-34.463482 47.715481 42.469812
-35.312216 48.266518 41.481493
-36.644922 46.305661 42.808166
-35.571649 47.01326 42.65065
-37.428629 46.795113 41.738602
-36.644922 46.305661 42.808166
-38.250783 47.264488 40.685936
-37.428629 46.795113 41.738602
-37.242538 48.033673 40.609665
-38.981751 47.668743 39.565265
-38.250783 47.264488 40.685936
-38.825796 48.907604 38.456787
-38.981751 47.668743 39.565265
-38.619022 50.121643 37.300884
-38.825796 48.907604 38.456787
-37.857919 49.717087 38.401096
-38.42363 51.347302 36.159124
-38.619022 50.121643 37.300884
-36.566921 51.667855 37.096277
-36.806888 50.469093 38.288349
-35.722664 51.205822 38.139433
-37.414802 52.135815 36.055822
-36.566921 51.667855 37.096277
-38.42363 51.347302 36.159124
-37.414802 52.135815 36.055822
-29.931658 54.671532 36.886814
-31.09653 53.964557 37.179398
-30.191806 53.470726 38.103642
-29.931658 54.671532 36.886814
-28.776877 55.395401 36.608219
-27.421168 57.41209 35.148823
-27.648366 56.171436 36.324756
-26.542715 56.970425 36.068199
-28.27295 57.814846 34.182501
-27.421168 57.41209 35.148823
-27.167299 58.613834 33.925943
-29.159048 58.281391 33.217836
-28.27295 57.814846 34.182501
-28.868462 59.47419 31.956692
-29.159048 58.281391 33.217836
-28.596631 60.671028 30.729081
-28.868462 59.47419 31.956692
-27.74725 60.213428 31.732009
-28.271448 61.874832 29.466715
-28.596631 60.671028 30.729081
-27.170797 62.610062 29.295877
-27.966825 63.074627 28.258195
-28.271448 61.874832 29.466715
-21.222872 67.611122 29.431148
-21.146265 68.45768 28.558667
-21.820961 67.438462 28.815644
-20.535501 67.628792 30.299448
-21.222872 67.611122 29.431148
-21.210197 66.609574 30.556425
-19.794694 67.836121 31.109721
-20.535501 67.628792 30.299448
-20.570428 65.46524 32.575327
-21.313916 65.530792 31.629669
-21.361519 64.368789 32.780271
-19.766906 66.700356 32.344696
-20.570428 65.46524 32.575327
-19.794694 67.836121 31.109721
-19.766906 66.700356 32.344696
-21.716981 60.622192 36.175045
-21.844249 59.255009 37.279373
3 0 91 93
3 93 92 23
3 91 92 93
3 0 23 24
3 0 24 26
3 1 30 28
3 1 33 31
3 1 28 33
3 2 37 35
3 2 40 38
3 2 35 40
3 3 44 42
3 4 47 45
3 4 94 96
3 96 95 47
3 94 95 96
3 4 97 98
3 5 50 48
3 5 99 101
3 101 100 50
3 99 100 101
3 5 102 103
3 6 54 52
3 104 55 105
3 106 105 25
3 104 105 106
3 108 107 55
3 8 58 56
3 6 59 27
3 6 52 59
3 10 61 60
3 11 62 29
3 11 109 111
3 111 110 62
3 109 110 111
3 12 112 114
3 114 113 63
3 112 113 114
3 13 64 32
3 13 115 117
3 117 116 64
3 115 116 117
3 13 118 119
3 10 65 34
3 10 60 65
3 120 68 121
3 16 71 69
3 18 72 36
3 18 73 72
3 7 74 53
3 122 75 123
3 125 124 75
3 9 126 128
3 128 127 57
3 126 127 128
3 19 76 39
3 19 77 76
3 19 78 77
3 16 79 41
3 16 69 79
3 17 80 70
3 129 81 130
3 131 130 43
3 129 130 131
3 133 132 81
3 14 134 136
3 136 135 66
3 134 135 136
3 20 82 46
3 20 83 82
3 20 84 83
3 15 137 139
3 139 138 67
3 137 138 139
3 21 85 49
3 21 86 85
3 21 87 86
3 22 88 51
3 22 89 88
3 22 90 89
3 23 140 141
3 143 142 23
3 24 25 6
3 23 25 24
3 23 144 146
3 146 145 25
3 144 145 146
3 26 27 8
3 24 27 26
3 24 6 27
3 28 29 10
3 30 29 28
3 30 11 29
3 31 32 12
3 33 32 31
3 33 13 32
3 33 34 13
3 28 34 33
3 28 10 34
3 35 36 16
3 37 36 35
3 37 18 36
3 148 147 7
3 38 39 9
3 40 39 38
3 40 19 39
3 40 41 19
3 35 41 40
3 35 16 41
3 42 43 17
3 44 43 42
3 44 149 151
3 151 150 43
3 149 150 151
3 45 46 14
3 47 46 45
3 47 20 46
3 47 152 154
3 154 153 20
3 152 153 154
3 156 155 47
3 48 49 15
3 50 49 48
3 50 21 49
3 50 51 21
3 157 51 158
3 159 158 50
3 157 158 159
3 160 22 161
3 162 161 51
3 160 161 162
3 164 163 22
3 52 53 2
3 54 53 52
3 54 7 53
3 25 54 6
3 55 54 25
3 55 7 54
3 55 165 167
3 167 166 7
3 165 166 167
3 169 168 55
3 56 170 172
3 170 57 171
3 170 171 172
3 58 57 56
3 58 9 57
3 27 58 8
3 59 58 27
3 59 9 58
3 59 38 9
3 52 38 59
3 52 2 38
3 60 173 174
3 61 175 177
3 177 176 60
3 175 176 177
3 61 178 179
3 29 61 10
3 62 61 29
3 62 180 182
3 182 181 61
3 180 181 182
3 62 183 184
3 186 185 62
3 188 187 3
3 63 189 190
3 192 191 63
3 32 193 195
3 195 194 12
3 193 194 195
3 64 196 198
3 198 197 32
3 196 197 198
3 64 199 200
3 64 201 202
3 204 203 64
3 34 205 207
3 207 206 13
3 205 206 207
3 65 208 210
3 210 209 34
3 208 209 210
3 65 211 212
3 65 213 214
3 60 215 217
3 217 216 65
3 215 216 217
3 60 218 219
3 220 66 221
3 222 66 223
3 224 14 225
3 226 225 66
3 224 225 226
3 227 14 228
3 229 45 230
3 231 230 14
3 229 230 231
3 232 45 233
3 234 4 235
3 236 235 45
3 234 235 236
3 237 67 238
3 239 238 4
3 237 238 239
3 68 240 242
3 240 67 241
3 240 241 242
3 68 15 67
3 243 68 244
3 245 68 246
3 247 15 248
3 249 248 68
3 247 248 249
3 250 48 251
3 252 251 15
3 250 251 252
3 253 48 254
3 255 5 256
3 257 256 48
3 255 256 257
3 259 258 5
3 69 70 1
3 71 70 69
3 71 17 70
3 36 71 16
3 72 71 36
3 72 17 71
3 72 42 17
3 73 42 72
3 73 3 42
3 53 37 2
3 74 37 53
3 74 18 37
3 260 74 261
3 262 261 7
3 260 261 262
3 75 263 265
3 263 74 264
3 263 264 265
3 75 18 74
3 75 73 18
3 266 73 267
3 268 267 75
3 266 267 268
3 269 3 270
3 271 270 73
3 269 270 271
3 273 272 3
3 57 274 275
3 277 276 57
3 39 278 280
3 280 279 9
3 278 279 280
3 76 281 283
3 283 282 39
3 281 282 283
3 76 284 285
3 76 286 287
3 77 288 290
3 290 289 76
3 288 289 290
3 77 291 292
3 77 293 295
3 293 63 294
3 293 294 295
3 78 63 77
3 78 12 63
3 41 78 19
3 79 78 41
3 79 12 78
3 79 31 12
3 69 31 79
3 69 1 31
3 70 30 1
3 80 30 70
3 80 11 30
3 43 80 17
3 81 80 43
3 81 11 80
3 81 296 298
3 298 297 11
3 296 297 298
3 300 299 81
3 301 44 302
3 303 302 3
3 301 302 303
3 304 44 305
3 307 306 44
3 66 308 309
3 311 310 66
3 46 312 314
3 314 313 14
3 312 313 314
3 82 315 317
3 317 316 46
3 315 316 317
3 82 318 319
3 82 320 321
3 83 322 324
3 324 323 82
3 322 323 324
3 83 325 326
3 83 327 328
3 84 329 331
3 331 330 83
3 329 330 331
3 84 332 333
3 334 84 335
3 336 335 20
3 334 335 336
3 337 84 338
3 340 339 84
3 67 341 343
3 343 342 4
3 341 342 343
3 345 344 67
3 49 346 348
3 348 347 15
3 346 347 348
3 85 349 351
3 351 350 49
3 349 350 351
3 85 352 353
3 85 354 355
3 86 356 358
3 358 357 85
3 356 357 358
3 86 359 360
3 86 361 363
3 361 56 362
3 361 362 363
3 87 56 86
3 87 8 56
3 51 87 21
3 88 87 51
3 88 8 87
3 88 26 8
3 89 26 88
3 89 0 26
3 89 364 366
3 366 365 0
3 364 365 366
3 90 367 369
3 369 368 89
3 367 368 369
3 90 370 371
3 372 90 373
3 374 373 22
3 372 373 374
3 375 90 376
3 378 377 90
3 380 379 5
