ply
format ascii 1.0
element vertex 193
property float x
property float y
property float z
element face 163
property list uchar int vertex_index
end_header
3.192894 -40.244576 37.971535
4.723461 -25.084797 37.464714
4.017384 -32.92202 37.802658
4.011803 -39.449402 34.321423
3.978996 -46.022102 30.342216
5.401699 -16.63995 36.948887
5.184155 -1.042374 38.643288
4.04377 -4.138992 42.207451
4.910667 -10.009625 39.705956
4.44104 -18.657646 40.375229
3.839382 -26.777353 40.861496
3.630524 -36.634125 37.913872
4.022568 -36.154709 36.117287
3.617298 -39.798775 36.159004
3.588432 -43.020531 34.285912
3.17057 -43.358307 36.134548
5.066624 -20.935589 37.236294
4.64946 1.94058 39.833641
4.537235 -6.972989 40.983353
4.377815 -11.364208 41.386436
4.69479 -14.389691 40.075687
4.375984 -29.078552 37.651333
4.408573 -32.391846 36.022694
3.998901 -42.75679 32.401527
3.556946 -46.248154 32.285236
4.068424 0.269915 41.666943
4.63121 -2.525732 40.472992
5.077934 -5.548539 39.237118
5.430576 -8.785883 37.942944
5.188644 -13.237591 38.363823
4.913696 -17.585131 38.693863
4.616852 -21.801647 38.960754
4.155952 -22.790695 40.630951
4.303017 -25.87068 39.186714
3.968147 -29.788769 39.384178
3.598518 -33.566368 39.553596
4.954193 -24.750733 36.581081
5.125775 -22.67613 36.466871
4.895043 -23.010193 37.350504
4.326437 3.306408 40.415191
4.616375 4.16497 39.443559
4.067438 -12.097496 42.178696
4.157379 -9.940969 42.010143
4.270466 -13.514792 41.548334
4.067438 -12.097496 42.178696
4.219597 -37.611717 34.306792
4.224979 -35.964371 35.204724
4.017186 -37.802055 35.219355
4.228834 -39.312912 33.382733
4.219597 -37.611717 34.306792
4.005352 -41.103096 33.361475
4.222383 -40.966606 32.422785
4.228834 -39.312912 33.382733
3.346861 -46.385919 33.230386
3.572689 -44.634343 33.285574
3.362604 -44.772108 34.230725
3.328871 -47.966911 32.188318
3.346861 -46.385919 33.230386
5.68304 -16.231285 36.039724
5.55938 -14.429627 36.763317
4.213722 -45.921408 29.33303
4.219645 -44.28284 30.400829
5.471085 -0.375338 37.682637
5.200731 1.214606 38.274738
5.404709 -2.653084 38.023304
5.471085 -0.375338 37.682637
3.731476 -2.827046 42.801529
3.701799 -4.997648 43.019795
4.056097 -1.934538 41.937197
3.743803 -0.622592 42.531275
3.731476 -2.827046 42.801529
3.997667 -24.784024 40.746223
3.876205 -23.343341 41.431296
3.71792 -25.33667 41.546568
3.335171 -33.948918 40.40866
3.540786 -32.092836 40.313859
3.386186 -35.396442 39.618972
3.335171 -33.948918 40.40866
3.153673 -44.940996 35.155043
3.362604 -44.772108 34.230725
3.379501 -43.189419 35.21023
5.323023 -20.563454 36.34485
5.49056 -18.415635 36.201147
5.234161 -18.787769 37.092591
5.323023 -20.563454 36.34485
5.125775 -22.67613 36.466871
3.95301 -47.607349 29.238582
3.74673 -47.72406 30.244923
4.933384 2.706083 38.869915
4.616375 4.16497 39.443559
4.916807 0.449103 39.238464
5.200731 1.214606 38.274738
4.933384 2.706083 38.869915
3.990356 -6.32836 42.420651
3.701799 -4.997648 43.019795
4.237089 -7.745359 41.808602
4.290503 -5.555991 41.595402
3.990356 -6.32836 42.420651
4.457525 -9.168598 41.184894
4.237089 -7.745359 41.808602
4.157379 -9.940969 42.010143
4.428953 -15.027534 40.89296
4.536302 -12.876949 40.731062
4.270466 -13.514792 41.548334
4.302078 -17.161511 41.04273
4.567915 -16.523668 40.225458
4.428953 -15.027534 40.89296
3.54314 -27.28888 41.665081
3.71792 -25.33667 41.546568
3.661218 -28.698329 40.96781
3.54314 -27.28888 41.665081
4.584706 -28.781166 36.767286
4.758444 -26.784288 36.673977
4.549722 -27.081674 37.558024
4.601 -30.437813 35.952967
4.584706 -28.781166 36.767286
4.392278 -30.735199 36.837013
4.63038 -32.177011 35.114775
4.601 -30.437813 35.952967
4.417982 -34.08294 35.157427
4.215571 -34.273277 36.069991
4.224979 -35.964371 35.204724
4.63038 -32.177011 35.114775
4.417982 -34.08294 35.157427
4.229597 -42.650185 31.430484
4.222383 -40.966606 32.422785
3.988949 -44.389446 31.371872
4.219645 -44.28284 30.400829
4.229597 -42.650185 31.430484
3.535705 -47.837086 31.216432
3.74673 -47.72406 30.244923
3.767971 -46.135128 31.313726
3.535705 -47.837086 31.216432
3.328871 -47.966911 32.188318
5.68304 -16.231285 36.039724
5.49056 -18.415635 36.201147
4.954193 -24.750733 36.581081
4.758444 -26.784288 36.673977
4.213722 -45.921408 29.33303
3.95301 -47.607349 29.238582
3.724979 1.550441 42.253889
3.743803 -0.622592 42.531275
4.035919 2.471076 41.331843
3.724979 1.550441 42.253889
4.358942 1.105247 40.750292
4.326437 3.306408 40.415191
4.035919 2.471076 41.331843
5.351598 -4.906167 38.320219
5.404709 -2.653084 38.023304
5.131044 -3.295456 38.940203
5.52792 -6.524839 37.673132
5.351598 -4.906167 38.320219
5.254255 -7.167211 38.590031
5.71373 -8.245069 37.019068
5.52792 -6.524839 37.673132
5.573818 -10.502594 37.260345
5.71373 -8.245069 37.019068
5.452852 -12.728448 37.470785
5.573818 -10.502594 37.260345
5.30961 -11.011737 38.153383
5.295172 -14.938771 37.656355
5.55938 -14.429627 36.763317
5.452852 -12.728448 37.470785
4.171169 -19.253205 41.179519
4.302078 -17.161511 41.04273
4.028626 -21.31973 41.307381
3.876205 -23.343341 41.431296
4.298496 -20.72417 40.50309
4.171169 -19.253205 41.179519
4.028626 -21.31973 41.307381
3.725601 -30.204037 40.229151
3.903765 -28.283061 40.122837
3.661218 -28.698329 40.96781
3.783333 -31.677568 39.468887
3.725601 -30.204037 40.229151
3.540786 -32.092836 40.313859
3.402189 -36.930321 38.79911
3.614521 -35.100246 38.733734
3.386186 -35.396442 39.618972
3.183375 -38.735546 38.827942
3.411709 -38.439351 37.942704
3.402189 -36.930321 38.79911
2.93403 -40.522782 38.86538
3.183375 -38.735546 38.827942
2.9396 -42.016526 37.96555
2.93403 -40.522782 38.86538
2.928438 -43.573391 37.047056
3.181732 -41.801442 37.053042
2.9396 -42.016526 37.96555
2.918575 -45.113558 36.083391
2.928438 -43.573391 37.047056
3.153673 -44.940996 35.155043
2.918575 -45.113558 36.083391
3 0 13 11
3 0 15 13
3 1 36 38
3 38 37 16
3 36 37 38
3 39 17 40
3 41 19 42
3 44 43 19
3 2 22 21
3 3 45 47
3 47 46 12
3 45 46 47
3 3 48 49
3 3 50 52
3 50 23 51
3 50 51 52
3 53 24 54
3 55 54 14
3 53 54 55
3 57 56 24
3 5 58 59
3 4 60 61
3 6 62 63
3 6 64 65
3 7 66 67
3 7 68 70
3 68 25 69
3 68 69 70
3 7 26 25
3 8 27 18
3 8 28 27
3 8 29 28
3 9 30 20
3 9 31 30
3 10 71 73
3 71 32 72
3 71 72 73
3 10 33 32
3 10 34 33
3 74 35 75
3 77 76 35
3 11 12 2
3 13 12 11
3 13 3 12
3 13 14 3
3 15 14 13
3 15 78 80
3 80 79 14
3 78 79 80
3 16 81 83
3 83 82 5
3 81 82 83
3 85 84 16
3 87 86 4
3 17 88 89
3 17 90 92
3 90 6 91
3 90 91 92
3 93 7 94
3 95 18 96
3 97 96 7
3 95 96 97
3 19 98 100
3 98 18 99
3 98 99 100
3 19 8 18
3 19 20 8
3 101 20 102
3 103 102 19
3 101 102 103
3 104 9 105
3 106 105 20
3 104 105 106
3 107 10 108
3 110 109 10
3 21 111 113
3 113 112 1
3 111 112 113
3 22 114 116
3 116 115 21
3 114 115 116
3 22 117 118
3 12 22 2
3 119 22 120
3 121 120 12
3 119 120 121
3 123 122 22
3 23 124 125
3 23 126 128
3 126 4 127
3 126 127 128
3 14 23 3
3 24 23 14
3 24 4 23
3 24 129 131
3 131 130 4
3 129 130 131
3 133 132 24
3 135 134 5
3 137 136 1
3 139 138 4
3 25 140 141
3 25 142 143
3 25 144 146
3 144 17 145
3 144 145 146
3 26 17 25
3 26 6 17
3 18 26 7
3 27 26 18
3 27 6 26
3 27 147 149
3 149 148 6
3 147 148 149
3 28 150 152
3 152 151 27
3 150 151 152
3 28 153 154
3 28 155 156
3 29 157 159
3 159 158 28
3 157 158 159
3 29 160 162
3 160 5 161
3 160 161 162
3 20 29 8
3 30 29 20
3 30 5 29
3 30 16 5
3 31 16 30
3 31 1 16
3 163 9 164
3 32 165 166
3 32 167 169
3 167 9 168
3 167 168 169
3 32 31 9
3 33 31 32
3 33 1 31
3 33 21 1
3 34 21 33
3 34 2 21
3 170 34 171
3 172 171 10
3 170 171 172
3 35 173 175
3 173 34 174
3 173 174 175
3 35 2 34
3 35 11 2
3 176 11 177
3 178 177 35
3 176 177 178
3 179 0 180
3 181 180 11
3 179 180 181
3 182 0 183
3 184 0 185
3 186 15 187
3 188 187 0
3 186 187 188
3 189 15 190
3 192 191 15
