ply
format ascii 1.0
element vertex 257
property float x
property float y
property float z
element face 221
property list uchar int vertex_index
end_header
42.060555 9.645266 60.409027
46.669403 0.63056 58.843559
39.580925 -0.440496 64.105003
46.999191 -3.534005 57.125214
51.09248 8.523088 49.355904
44.778606 4.925016 59.755508
45.517693 9.593935 57.612015
48.181782 4.98295 56.521538
38.061451 9.240513 62.049919
40.911575 4.48584 61.977333
43.31918 0.265823 61.925606
46.63937 -5.610596 55.953056
40.687252 12.235186 60.729874
52.385651 8.304857 46.979923
45.89003 2.744413 59.36924
46.538326 4.997442 58.259827
47.556931 2.820717 57.700775
37.587307 -0.89649 64.901535
38.191406 1.573816 63.671021
40.251476 1.986738 62.931618
42.231609 2.328522 61.982651
41.496048 -0.046785 63.123062
47.039215 -1.454397 58.104469
48.201889 0.701931 56.972801
48.420746 -1.391022 56.028175
49.749725 -1.351158 53.807213
37.012146 -3.282798 66.407906
38.91291 -2.801016 65.511185
40.725513 -2.372656 64.445068
49.793159 8.812092 51.6502
43.45863 7.213995 60.084526
43.861469 9.680798 59.150558
45.260551 7.271933 58.722862
46.933762 7.224375 57.101288
48.48975 7.090908 55.245544
49.120857 2.830334 55.810562
49.720158 4.906668 54.566101
49.949394 6.905991 53.190529
51.33868 6.714468 50.977112
37.354927 6.440212 62.564438
39.485764 6.781269 61.99115
41.528957 7.046841 61.172867
42.900333 4.753893 60.994682
44.114368 2.582708 60.798241
45.043682 0.490168 60.498932
42.441826 -2.019705 63.178833
44.061508 -1.752045 61.69796
45.590508 -1.567739 60.00235
45.721375 -3.624012 59.246643
45.488346 -5.691167 58.238075
47.225554 -5.574867 54.780414
46.383612 -6.636664 55.332679
42.261767 10.94603 59.986057
41.575115 12.24099 60.146481
41.373903 10.940226 60.569451
52.046837 9.128309 46.067667
53.042866 8.248278 45.76858
49.618881 -2.383462 53.17688
48.99926 -2.412298 54.342617
50.395668 -1.329121 52.64489
49.618881 -2.383462 53.17688
37.624099 -4.196821 66.757614
36.722739 -4.44151 67.26762
38.574481 -3.955929 66.309254
37.962528 -3.041907 65.959545
37.624099 -4.196821 66.757614
39.42246 -3.732164 65.718799
38.574481 -3.955929 66.309254
50.183833 9.573186 49.644749
49.534172 9.717688 50.791897
50.442819 8.66759 50.503052
49.386042 1.779168 55.360992
48.661373 1.766133 56.391681
48.926558 0.714966 55.942112
50.44556 4.855536 53.497196
50.156893 3.854246 54.146778
50.560178 5.855197 52.80941
49.834776 5.90633 53.878315
50.44556 4.855536 53.497196
51.254821 5.759436 51.702702
50.644037 6.81023 52.083821
50.560178 5.855197 52.80941
38.4097 10.669642 61.813187
37.383051 10.552636 62.08395
39.090807 9.366278 61.711479
38.4097 10.669642 61.813187
37.019177 5.083423 62.913196
36.262895 6.247981 62.754395
40.19867 5.633554 61.984241
39.158101 5.458182 62.355808
39.871006 4.310467 62.3489
41.979873 -3.151517 63.867214
41.583669 -2.196181 63.811951
41.121717 -3.327993 64.500332
44.228506 -2.760011 61.452713
43.53117 -2.868257 62.339985
44.993006 -2.667858 60.604908
44.826008 -1.659892 60.850155
44.228506 -2.760011 61.452713
45.05844 -3.695995 60.227054
45.655941 -2.595876 59.624496
44.993006 -2.667858 60.604908
44.733923 -6.778317 58.810608
44.911649 -5.748704 59.328804
45.258051 -6.723974 57.651936
44.733923 -6.778317 58.810608
44.795468 10.857285 57.850929
43.967355 10.900717 58.620201
44.689581 9.637366 58.381287
47.444083 -4.542017 55.415538
47.623993 -3.503722 56.001617
46.819281 -4.5723 56.539135
47.444083 -4.542017 55.415538
47.225554 -5.574867 54.780414
40.914863 13.603217 60.330162
40.040292 13.606067 60.862637
40.914863 13.603217 60.330162
41.575115 12.24099 60.146481
51.428017 9.270559 47.273697
50.781431 9.379675 48.461687
51.739066 8.413972 48.167913
51.428017 9.270559 47.273697
52.046837 9.128309 46.067667
36.98983 9.080858 62.262741
37.383051 10.552636 62.08395
36.831392 0.11008 64.573891
36.561367 -1.140912 65.231262
37.133442 1.345233 63.958634
36.831392 0.11008 64.573891
37.889357 0.338663 64.286278
37.437416 2.650225 63.466488
37.133442 1.345233 63.958634
38.510922 2.854455 63.195744
37.437416 2.650225 63.466488
39.540957 3.060916 62.826042
38.510922 2.854455 63.195744
39.221441 1.780277 63.30132
40.581525 3.236289 62.454476
39.871006 4.310467 62.3489
39.540957 3.060916 62.826042
45.522037 10.727772 56.977814
46.279038 9.495617 56.717277
49.035986 -0.33151 55.469799
48.926558 0.714966 55.942112
48.311318 -0.344546 56.500488
48.334771 -2.43223 55.453098
47.709969 -2.462514 56.576695
47.623993 -3.503722 56.001617
49.085235 -1.37109 54.917694
48.334771 -2.43223 55.453098
48.99926 -2.412298 54.342617
49.700475 -0.311579 54.359318
49.035986 -0.33151 55.469799
49.085235 -1.37109 54.917694
50.390232 -0.306437 53.250694
49.700475 -0.311579 54.359318
50.390232 -0.306437 53.250694
50.395668 -1.329121 52.64489
36.026018 -3.534142 66.795475
36.722739 -4.44151 67.26762
36.273786 -2.334066 65.984448
36.026018 -3.534142 66.795475
37.299727 -2.089644 65.65472
36.561367 -1.140912 65.231262
36.273786 -2.334066 65.984448
40.328762 -3.517984 65.185741
39.819211 -2.586836 64.978127
39.42246 -3.732164 65.718799
41.121717 -3.327993 64.500332
40.328762 -3.517984 65.185741
48.938335 9.937404 51.933094
49.123787 8.96675 52.735459
48.938335 9.937404 51.933094
49.534172 9.717688 50.791897
50.183833 9.573186 49.644749
50.781431 9.379675 48.461687
46.987072 8.310837 56.461914
46.279038 9.495617 56.717277
46.225728 8.409155 57.356651
47.765066 8.244103 55.534042
46.987072 8.310837 56.461914
47.711756 7.157642 56.173416
48.472082 8.106158 54.53313
47.765066 8.244103 55.534042
49.857242 2.816079 54.769008
49.386042 1.779168 55.360992
49.420507 3.868501 55.188332
49.857242 2.816079 54.769008
50.156893 3.854246 54.146778
49.201904 8.0137 53.505623
48.472082 8.106158 54.53313
49.219572 6.998449 54.218036
49.871277 7.859042 52.420364
49.123787 8.96675 52.735459
49.201904 8.0137 53.505623
51.946817 5.715537 50.563125
51.254821 5.759436 51.702702
52.011634 6.638723 49.81271
51.946817 5.715537 50.563125
51.888535 7.543032 49.002106
51.21558 7.618778 50.166508
52.011634 6.638723 49.81271
52.53512 7.433917 47.814115
51.739066 8.413972 48.167913
51.888535 7.543032 49.002106
53.198837 7.396762 46.612291
52.53512 7.433917 47.814115
53.042866 8.248278 45.76858
53.198837 7.396762 46.612291
39.722601 12.166978 61.153164
40.040292 13.606067 60.862637
40.403707 10.863615 61.051457
39.722601 12.166978 61.153164
41.090359 9.568655 60.891033
41.373903 10.940226 60.569451
40.403707 10.863615 61.051457
36.636568 7.680707 62.520001
36.262895 6.247981 62.754395
37.708189 7.840362 62.307179
36.98983 9.080858 62.262741
36.636568 7.680707 62.520001
38.092682 5.287653 62.642453
37.019177 5.083423 62.913196
38.420346 6.610741 62.277794
38.092682 5.287653 62.642453
39.158101 5.458182 62.355808
39.802964 8.136656 61.682094
39.090807 9.366278 61.711479
38.773607 8.010891 62.020534
40.82456 8.269442 61.272953
39.802964 8.136656 61.682094
40.507361 6.914055 61.582009
41.794756 8.346054 60.790947
41.090359 9.568655 60.891033
40.82456 8.269442 61.272953
42.721329 -3.002086 63.080421
41.979873 -3.151517 63.867214
43.251667 -1.885875 62.438396
42.721329 -3.002086 63.080421
43.53117 -2.868257 62.339985
45.028164 -4.715127 59.833088
45.05844 -3.695995 60.227054
45.604861 -4.65759 58.742359
45.028164 -4.715127 59.833088
44.911649 -5.748704 59.328804
45.833563 -6.683689 56.509426
46.063858 -5.650882 57.095565
45.258051 -6.723974 57.651936
46.383612 -6.636664 55.332679
45.833563 -6.683689 56.509426
43.162223 10.963796 59.356822
42.261767 10.94603 59.986057
42.961012 9.663032 59.779792
43.162223 10.963796 59.356822
43.967355 10.900717 58.620201
44.795468 10.857285 57.850929
45.522037 10.727772 56.977814
3 51 50 11
3 0 52 54
3 54 53 12
3 52 53 54
3 56 55 13
3 1 16 14
3 2 18 17
3 2 19 18
3 2 21 19
3 3 24 22
3 57 25 58
3 60 59 25
3 61 26 62
3 63 27 64
3 65 64 26
3 63 64 65
3 67 66 27
3 4 68 70
3 70 69 29
3 68 69 70
3 5 32 30
3 7 33 15
3 7 34 33
3 71 35 72
3 73 72 23
3 71 72 73
3 74 36 75
3 76 37 77
3 78 77 36
3 76 77 78
3 79 38 80
3 81 80 37
3 79 80 81
3 8 82 83
3 8 84 85
3 86 39 87
3 9 88 90
3 88 40 89
3 88 89 90
3 9 41 40
3 9 42 41
3 10 43 20
3 10 44 43
3 91 45 92
3 93 92 28
3 91 92 93
3 94 46 95
3 96 47 97
3 98 97 46
3 96 97 98
3 99 48 100
3 101 100 47
3 99 100 101
3 102 49 103
3 105 104 49
3 6 106 108
3 108 107 31
3 106 107 108
3 11 109 111
3 111 110 3
3 109 110 111
3 113 112 11
3 12 114 115
3 117 116 12
3 13 118 120
3 120 119 4
3 118 119 120
3 122 121 13
3 14 15 5
3 16 15 14
3 16 7 15
3 123 8 124
3 17 125 126
3 18 127 129
3 129 128 17
3 127 128 129
3 18 130 131
3 18 132 133
3 19 134 136
3 136 135 18
3 134 135 136
3 19 137 139
3 137 9 138
3 137 138 139
3 19 20 9
3 21 20 19
3 21 10 20
3 141 140 6
3 22 23 1
3 24 23 22
3 24 142 144
3 144 143 23
3 142 143 144
3 145 24 146
3 147 146 3
3 145 146 147
3 25 148 150
3 148 24 149
3 148 149 150
3 25 151 153
3 153 152 24
3 151 152 153
3 25 154 155
3 157 156 25
3 26 158 159
3 26 160 161
3 26 162 164
3 162 17 163
3 162 163 164
3 27 17 26
3 27 2 17
3 27 28 2
3 165 28 166
3 167 166 27
3 165 166 167
3 169 168 28
3 29 170 171
3 173 172 29
3 175 174 4
3 30 31 0
3 32 31 30
3 32 6 31
3 15 32 5
3 33 32 15
3 33 6 32
3 33 176 178
3 178 177 6
3 176 177 178
3 34 179 181
3 181 180 33
3 179 180 181
3 34 182 183
3 23 16 1
3 35 16 23
3 35 7 16
3 184 35 185
3 36 186 188
3 186 35 187
3 186 187 188
3 36 7 35
3 36 34 7
3 37 34 36
3 37 189 191
3 191 190 34
3 189 190 191
3 37 192 194
3 192 29 193
3 192 193 194
3 38 29 37
3 38 4 29
3 195 38 196
3 197 38 198
3 199 4 200
3 201 200 38
3 199 200 201
3 202 13 203
3 204 203 4
3 202 203 204
3 205 13 206
3 208 207 13
3 209 12 210
3 211 12 212
3 213 0 214
3 215 214 12
3 213 214 215
3 39 216 217
3 39 218 220
3 218 8 219
3 218 219 220
3 221 39 222
3 40 223 225
3 223 39 224
3 223 224 225
3 40 8 39
3 40 226 228
3 228 227 8
3 226 227 228
3 41 229 231
3 231 230 40
3 229 230 231
3 41 232 234
3 232 0 233
3 232 233 234
3 41 30 0
3 42 30 41
3 42 5 30
3 20 42 9
3 43 42 20
3 43 5 42
3 43 14 5
3 44 14 43
3 44 1 14
3 28 21 2
3 45 21 28
3 45 10 21
3 235 45 236
3 46 237 239
3 237 45 238
3 237 238 239
3 46 10 45
3 46 44 10
3 47 44 46
3 47 1 44
3 47 22 1
3 48 22 47
3 48 3 22
3 240 48 241
3 49 242 244
3 242 48 243
3 242 243 244
3 49 3 48
3 49 11 3
3 245 11 246
3 247 246 49
3 245 246 247
3 249 248 11
3 31 250 252
3 252 251 0
3 250 251 252
3 254 253 31
3 256 255 6
