ply
format ascii 1.0
element vertex 235
property float x
property float y
property float z
element face 198
property list uchar int vertex_index
end_header
53.305443 2.402288 -22.084528
45.850586 -6.430392 -13.278677
54.600922 -6.747833 -13.698616
51.709564 6.614716 -25.945211
49.653946 -11.649286 -9.99984
54.136971 -11.163432 -9.306379
49.702347 -2.976322 -17.80208
45.705967 -10.585133 -9.857903
50.014893 -7.500249 -14.09271
54.302692 -2.136023 -17.985441
57.537445 3.960196 -21.978415
52.576557 4.561346 -24.048204
54.720745 5.389084 -24.260263
44.055328 -4.92879 -12.312204
43.888023 -2.442308 -13.610357
42.863079 5.495523 -17.06349
44.154507 5.876762 -19.899733
52.166183 -9.452844 -11.889381
49.922184 -9.637642 -12.09156
52.289337 -7.272428 -14.008064
52.228622 -5.021706 -16.062201
54.544903 -4.450856 -15.861704
58.178715 1.640268 -19.671869
58.537544 6.713205 -24.188868
44.113747 -7.22855 -10.902822
51.857162 -11.535187 -9.719418
54.464645 -8.993748 -11.508141
43.284229 2.822908 -15.969393
43.627388 0.16111 -14.82313
51.596176 -0.454086 -19.95273
45.850925 -8.61164 -11.642277
47.586956 -11.364799 -10.065775
47.798798 -9.39447 -12.029196
47.849129 -7.262215 -13.867558
49.937584 -5.267019 -15.996096
51.993095 -2.736271 -18.044611
53.885159 0.160019 -20.061689
56.873394 -6.117764 -13.266447
56.805748 -3.761523 -15.497112
56.547417 -1.39851 -17.723024
56.106674 0.936762 -19.932207
55.494133 3.209583 -22.11455
56.730579 6.185114 -24.273138
52.941 3.481817 -23.066366
51.814602 3.175689 -22.917089
52.179045 2.096159 -21.935251
45.784621 -5.258977 -14.032535
44.886992 -4.508176 -13.549299
44.952957 -5.679591 -12.79544
46.79896 -5.716358 -14.431511
45.784621 -5.258977 -14.032535
44.418925 4.629802 -19.31534
43.508793 5.686143 -18.481611
43.773211 4.439182 -17.897219
43.363411 -7.331183 -9.712623
43.353096 -6.227795 -10.357429
50.642752 6.336517 -25.583166
51.042744 5.291294 -24.744243
51.210993 7.580189 -26.855093
50.642752 6.336517 -25.583166
52.219314 7.99447 -27.170172
51.210993 7.580189 -26.855093
52.997067 -11.34931 -9.512898
51.613319 -12.51906 -8.618286
52.753224 -12.333182 -8.411767
42.632753 2.780984 -14.57505
42.459169 4.197769 -15.09243
44.549418 -0.73857 -15.504749
43.757706 -1.140599 -14.216743
44.679735 -2.040279 -14.898363
44.375304 0.513634 -16.159836
44.549418 -0.73857 -15.504749
49.513378 -1.822242 -18.658665
48.605194 -2.81761 -17.496044
50.649262 -1.715204 -18.877405
50.460293 -0.561125 -19.733989
49.513378 -1.822242 -18.658665
44.875553 -9.927878 -9.602079
44.77093 -10.798341 -8.731997
45.778446 -9.598387 -10.75009
44.948032 -8.941132 -10.494266
44.875553 -9.927878 -9.602079
48.620451 -11.507043 -10.032808
47.400205 -12.260426 -9.025878
48.433701 -12.40267 -8.992911
57.952482 -5.844918 -13.039779
56.809984 -7.277627 -12.156046
57.726118 -2.252438 -16.431788
57.869297 -3.459626 -15.286258
57.596953 -1.070931 -17.544745
56.676583 -2.580017 -16.610068
57.726118 -2.252438 -16.431788
58.044516 7.794243 -25.391132
58.822139 7.866275 -25.39505
51.47624 4.26461 -23.79574
51.814602 3.175689 -22.917089
52.143061 5.588031 -24.996707
51.042744 5.291294 -24.744243
51.47624 4.26461 -23.79574
53.186476 6.005852 -25.203268
52.752979 7.032538 -26.151772
52.143061 5.588031 -24.996707
54.25857 6.419721 -25.309297
53.186476 6.005852 -25.203268
53.648651 4.975215 -24.154233
55.242832 6.838506 -25.401196
54.25857 6.419721 -25.309297
53.882203 -12.202894 -8.20929
52.753224 -12.333182 -8.411767
43.971676 -3.685549 -12.961281
43.178726 -2.587202 -12.303672
43.262378 -3.830443 -11.654595
44.803339 -3.264934 -14.198376
43.971676 -3.685549 -12.961281
44.886992 -4.508176 -13.549299
44.679735 -2.040279 -14.898363
44.803339 -3.264934 -14.198376
48.72484 -3.989323 -16.693213
48.605194 -2.81761 -17.496044
42.61223 6.817085 -17.589983
42.041647 6.947417 -16.146679
43.257945 7.007705 -19.008105
42.61223 6.817085 -17.589983
43.508793 5.686143 -18.481611
43.843483 7.097138 -20.454674
43.257945 7.007705 -19.008105
45.558239 -11.457138 -8.888089
44.77093 -10.798341 -8.731997
59.104002 1.853328 -19.527937
58.412601 0.448458 -18.519167
58.771513 3.037238 -20.726107
59.104002 1.853328 -19.527937
58.450878 4.197202 -21.879379
57.85808 2.800232 -20.825142
58.771513 3.037238 -20.726107
58.950927 5.573707 -22.984606
58.037494 5.336701 -23.083641
58.450878 4.197202 -21.879379
59.313015 6.754603 -24.142508
58.950927 5.573707 -22.984606
58.822139 7.866275 -25.39505
59.313015 6.754603 -24.142508
43.323887 -5.077915 -11.062119
43.262378 -3.830443 -11.654595
44.084537 -6.07867 -11.607513
43.323887 -5.077915 -11.062119
43.353096 -6.227795 -10.357429
52.219314 7.99447 -27.170172
52.752979 7.032538 -26.151772
49.433985 -12.58373 -8.916816
48.433701 -12.40267 -8.992911
50.535593 -12.526681 -8.776605
51.613319 -12.51906 -8.618286
50.755554 -11.592237 -9.859629
49.433985 -12.58373 -8.916816
50.535593 -12.526681 -8.776605
42.248594 5.534077 -15.639479
42.041647 6.947417 -16.146679
43.073654 4.159216 -16.516441
42.248594 5.534077 -15.639479
42.459169 4.197769 -15.09243
43.983786 3.102874 -17.35017
43.773211 4.439182 -17.897219
43.073654 4.159216 -16.516441
43.074911 -1.246163 -12.861657
43.178726 -2.587202 -12.303672
42.944594 0.055546 -13.468044
43.074911 -1.246163 -12.861657
43.757706 -1.140599 -14.216743
42.804333 1.450085 -14.001918
42.944594 0.055546 -13.468044
43.455809 1.492009 -15.396262
42.632753 2.780984 -14.57505
42.804333 1.450085 -14.001918
44.203724 1.844534 -16.732968
43.455809 1.492009 -15.396262
44.375304 0.513634 -16.159836
43.983786 3.102874 -17.35017
44.203724 1.844534 -16.732968
51.324411 0.667972 -20.869352
50.460293 -0.561125 -19.733989
52.450809 0.974101 -21.018629
52.179045 2.096159 -21.935251
51.324411 0.667972 -20.869352
45.130927 5.168611 -20.676749
44.418925 4.629802 -19.31534
44.796162 6.317694 -21.307755
45.130927 5.168611 -20.676749
43.843483 7.097138 -20.454674
44.796162 6.317694 -21.307755
44.079443 -8.249586 -10.124538
43.363411 -7.331183 -9.712623
44.982336 -7.920095 -11.27255
44.079443 -8.249586 -10.124538
44.948032 -8.941132 -10.494266
46.498734 -11.846971 -8.992026
47.400205 -12.260426 -9.025878
46.646462 -10.974966 -9.961839
45.558239 -11.457138 -8.888089
46.498734 -11.846971 -8.992026
47.798231 -6.132269 -14.725952
46.79896 -5.716358 -14.431511
46.849857 -6.846304 -13.573118
48.842459 -5.134671 -15.790221
47.798231 -6.132269 -14.725952
48.893356 -6.264617 -14.931827
49.819966 -4.121671 -16.899088
48.72484 -3.989323 -16.693213
48.842459 -5.134671 -15.790221
55.282452 -10.931394 -9.078917
53.882203 -12.202894 -8.20929
55.441772 -9.800462 -10.176012
55.282452 -10.931394 -9.078917
55.605609 -8.715619 -11.276893
54.300808 -10.07859 -10.40726
55.441772 -9.800462 -10.176012
55.669019 -7.555756 -12.387294
55.605609 -8.715619 -11.276893
56.809984 -7.277627 -12.156046
57.90312 -4.637747 -14.170926
57.952482 -5.844918 -13.039779
56.839571 -4.939643 -14.38178
57.90312 -4.637747 -14.170926
57.869297 -3.459626 -15.286258
57.363066 0.120879 -18.697446
57.596953 -1.070931 -17.544745
58.412601 0.448458 -18.519167
56.247749 7.236521 -25.407633
55.242832 6.838506 -25.401196
55.725662 5.787099 -24.2667
57.141033 7.530197 -25.433267
57.634062 6.44916 -24.231003
58.044516 7.794243 -25.391132
56.247749 7.236521 -25.407633
57.141033 7.530197 -25.433267
3 0 43 45
3 43 11 44
3 43 44 45
3 0 12 11
3 1 46 48
3 48 47 13
3 46 47 48
3 1 49 50
3 51 16 52
3 53 52 15
3 51 52 53
3 2 19 17
3 2 21 19
3 54 24 55
3 3 56 57
3 3 58 59
3 3 60 61
3 5 62 64
3 62 25 63
3 62 63 64
3 5 26 25
3 65 27 66
3 67 28 68
3 69 68 14
3 67 68 69
3 71 70 28
3 6 72 73
3 6 74 76
3 74 29 75
3 74 75 76
3 7 77 78
3 7 79 81
3 79 30 80
3 79 80 81
3 4 82 84
3 82 31 83
3 82 83 84
3 8 32 18
3 8 33 32
3 8 34 33
3 9 35 20
3 9 36 35
3 85 37 86
3 87 38 88
3 89 39 90
3 91 90 38
3 89 90 91
3 10 40 22
3 10 41 40
3 10 42 41
3 93 92 23
3 11 94 95
3 11 96 98
3 96 3 97
3 96 97 98
3 11 99 101
3 101 100 3
3 99 100 101
3 12 102 104
3 104 103 11
3 102 103 104
3 12 105 106
3 107 5 108
3 13 109 111
3 109 14 110
3 109 110 111
3 112 14 113
3 114 113 13
3 112 113 114
3 116 115 14
3 117 6 118
3 15 119 120
3 16 121 123
3 123 122 15
3 121 122 123
3 16 124 125
3 126 7 127
3 17 18 4
3 19 18 17
3 19 8 18
3 19 20 8
3 21 20 19
3 21 9 20
3 128 22 129
3 130 22 131
3 132 10 133
3 134 133 22
3 132 133 134
3 135 23 136
3 137 136 10
3 135 136 137
3 138 23 139
3 141 140 23
3 142 13 143
3 24 144 146
3 144 13 145
3 144 145 146
3 24 1 13
3 148 147 3
3 149 4 150
3 25 151 152
3 25 153 155
3 153 4 154
3 153 154 155
3 25 17 4
3 26 17 25
3 26 2 17
3 156 15 157
3 27 158 160
3 158 15 159
3 158 159 160
3 27 161 163
3 163 162 15
3 161 162 163
3 14 164 165
3 28 166 168
3 168 167 14
3 166 167 168
3 28 169 170
3 28 171 173
3 171 27 172
3 171 172 173
3 174 27 175
3 176 175 28
3 174 175 176
3 178 177 27
3 29 179 180
3 29 181 183
3 181 0 182
3 181 182 183
3 184 16 185
3 186 16 187
3 189 188 16
3 190 24 191
3 30 192 194
3 192 24 193
3 192 193 194
3 30 1 24
3 31 195 196
3 31 197 199
3 197 7 198
3 197 198 199
3 18 31 4
3 32 31 18
3 32 7 31
3 32 30 7
3 33 30 32
3 33 1 30
3 33 200 202
3 202 201 1
3 200 201 202
3 34 203 205
3 205 204 33
3 203 204 205
3 34 206 208
3 206 6 207
3 206 207 208
3 20 34 8
3 35 34 20
3 35 6 34
3 35 29 6
3 36 29 35
3 36 0 29
3 209 5 210
3 211 5 212
3 213 26 214
3 215 214 5
3 213 214 215
3 37 216 218
3 216 26 217
3 216 217 218
3 37 2 26
3 219 37 220
3 38 221 223
3 221 37 222
3 221 222 223
3 38 2 37
3 38 21 2
3 39 21 38
3 39 9 21
3 22 224 226
3 224 39 225
3 224 225 226
3 40 39 22
3 40 9 39
3 40 36 9
3 41 36 40
3 41 0 36
3 41 12 0
3 42 12 41
3 42 227 229
3 229 228 12
3 227 228 229
3 23 42 10
3 230 42 231
3 232 231 23
3 230 231 232
3 234 233 42
