ply
format ascii 1.0
element vertex 150
property float x
property float y
property float z
element face 133
property list uchar int vertex_index
end_header
-23.257025 14.230045 -31.034496
-22.611906 27.397896 -30.774288
-22.422962 20.85392 -30.815266
-25.558243 21.631844 -30.83939
-25.928473 15.816944 -31.921837
-24.05835 33.51709 -30.175171
-18.885017 27.212807 -30.97123
-19.161568 19.924156 -30.259544
-25.997372 27.54496 -29.912853
-28.408356 22.185791 -30.095261
-22.733452 17.528381 -30.850945
-24.213352 18.13205 -31.153107
-18.865627 23.620037 -30.640057
-23.171875 30.529068 -30.575787
-24.980968 30.47044 -30.058071
-24.368179 27.478115 -30.443275
-27.084442 19.182362 -31.322659
-27.025717 21.947857 -30.577797
-28.456207 19.589603 -31.126366
-22.370289 24.159046 -30.824947
-24.055807 24.393379 -30.702328
-24.017689 21.262032 -30.908119
-25.667555 18.688148 -31.320766
-21.238941 30.594933 -30.924248
-20.76947 27.311047 -30.940319
-20.629236 23.903687 -30.79504
-20.796963 20.411083 -30.590214
-21.24086 16.878876 -30.442013
-25.901711 33.329784 -29.504421
-26.616983 30.412571 -29.331676
-25.653624 24.60117 -30.395866
-27.138695 24.766518 -29.874622
-21.921206 13.357803 -30.457161
-23.925311 14.640017 -31.282896
-23.663525 16.289185 -31.191121
-22.995238 15.879213 -30.942721
-24.18148 13.143381 -31.575935
-23.925311 14.640017 -31.282896
-28.519041 18.358797 -31.692509
-27.770325 19.385983 -31.224513
-27.833158 18.155177 -31.790655
-29.176503 18.60124 -31.630166
-28.519041 18.358797 -31.692509
-26.593536 16.167444 -32.048897
-26.463076 17.603046 -31.748361
-25.798014 17.252546 -31.621302
-26.709425 14.903412 -32.558647
-26.593536 16.167444 -32.048897
-20.584818 32.272601 -30.990784
-21.642374 32.159852 -30.801245
-19.06127 28.938975 -31.054859
-18.05212 28.968707 -31.106945
-19.827244 27.261927 -30.955774
-20.003496 28.988094 -31.039404
-19.06127 28.938975 -31.054859
-24.98003 33.423437 -29.839796
-25.581625 34.831762 -29.530729
-24.659944 34.925415 -29.866104
-26.733351 27.564213 -29.532455
-27.043157 28.998019 -29.241867
-26.307178 28.978766 -29.622264
-28.45264 23.526463 -29.60553
-27.817809 24.816826 -29.49521
-27.773525 23.476154 -29.984941
-29.054982 22.251613 -29.734545
-28.45264 23.526463 -29.60553
-21.253528 12.890756 -30.140871
-20.833796 14.76556 -30.204767
-24.403475 16.591019 -31.342202
-23.473402 17.830216 -31.002026
-23.663525 16.289185 -31.191121
-25.261035 15.433466 -31.726567
-25.070912 16.974497 -31.537472
-24.403475 16.591019 -31.342202
-26.107107 14.436447 -32.316332
-25.261035 15.433466 -31.726567
-17.941364 27.148928 -30.930714
-18.05212 28.968707 -31.106945
-17.931669 25.352543 -30.765127
-18.875322 25.416422 -30.805643
-17.941364 27.148928 -30.930714
-17.986235 23.453903 -30.512379
-17.931669 25.352543 -30.765127
-18.134205 21.605963 -30.322122
-19.013597 21.772096 -30.449801
-17.986235 23.453903 -30.512379
-29.117497 19.733861 -30.915171
-29.093571 21.031955 -30.399619
-28.432282 20.887697 -30.610813
-29.117497 19.733861 -30.915171
-29.176503 18.60124 -31.630166
-27.17152 17.850153 -31.749308
-26.375999 18.935255 -31.321713
-26.463076 17.603046 -31.748361
-27.833158 18.155177 -31.790655
-27.17152 17.850153 -31.749308
-26.709425 14.903412 -32.558647
-26.107107 14.436447 -32.316332
-23.620922 35.097155 -30.175878
-24.659944 34.925415 -29.866104
-23.052079 33.62093 -30.426707
-23.620922 35.097155 -30.175878
-22.608841 32.126919 -30.627015
-23.615113 32.023079 -30.375479
-23.052079 33.62093 -30.426707
-22.205408 30.562 -30.750017
-22.608841 32.126919 -30.627015
-21.642374 32.159852 -30.801245
-20.238231 30.630038 -31.031368
-20.584818 32.272601 -30.990784
-21.004205 28.95299 -30.932283
-20.238231 30.630038 -31.031368
-20.003496 28.988094 -31.039404
-26.509356 34.676706 -29.13871
-25.581625 34.831762 -29.530729
-26.710279 33.244078 -29.062055
-26.509356 34.676706 -29.13871
-27.067915 31.785471 -28.975683
-26.710279 33.244078 -29.062055
-26.259347 31.871177 -29.418049
-27.331318 30.37773 -28.848303
-27.067915 31.785471 -28.975683
-27.331318 30.37773 -28.848303
-27.043157 28.998019 -29.241867
-27.304012 26.174992 -29.51334
-26.733351 27.564213 -29.532455
-26.568033 26.155739 -29.893738
-27.304012 26.174992 -29.51334
-27.817809 24.816826 -29.49521
-29.054982 22.251613 -29.734545
-29.093571 21.031955 -30.399619
-18.347319 19.648232 -30.05489
-18.134205 21.605963 -30.322122
-19.453978 18.048737 -30.105959
-18.347319 19.648232 -30.05489
-20.493623 16.526097 -30.197193
-20.201214 18.401516 -30.350779
-19.453978 18.048737 -30.105959
-21.581033 15.11834 -30.449587
-20.493623 16.526097 -30.197193
-20.833796 14.76556 -30.204767
-22.356526 11.628388 -30.583813
-21.253528 12.890756 -30.140871
-22.932707 12.180982 -30.950004
-22.356526 11.628388 -30.583813
-23.600617 12.617103 -31.238672
-22.589115 13.793924 -30.745829
-22.932707 12.180982 -30.950004
-24.18148 13.143381 -31.575935
-23.600617 12.617103 -31.238672
3 0 33 35
3 35 34 10
3 33 34 35
3 0 36 37
3 1 15 13
3 38 18 39
3 40 39 16
3 38 39 40
3 42 41 18
3 2 21 19
3 4 22 11
3 4 43 45
3 45 44 22
3 43 44 45
3 4 46 47
3 48 23 49
3 6 50 51
3 6 52 54
3 52 24 53
3 52 53 54
3 6 25 24
3 7 26 12
3 7 27 26
3 5 55 57
3 55 28 56
3 55 56 57
3 8 29 14
3 8 58 60
3 60 59 29
3 58 59 60
3 3 30 20
3 9 31 17
3 9 61 63
3 63 62 31
3 61 62 63
3 9 64 65
3 66 32 67
3 10 11 2
3 68 11 69
3 70 69 10
3 68 69 70
3 71 4 72
3 73 72 11
3 71 72 73
3 75 74 4
3 76 6 77
3 78 12 79
3 80 79 6
3 78 79 80
3 81 12 82
3 83 7 84
3 85 84 12
3 83 84 85
3 13 14 5
3 15 14 13
3 15 8 14
3 16 17 3
3 18 17 16
3 18 9 17
3 18 86 88
3 88 87 9
3 86 87 88
3 90 89 18
3 19 20 1
3 21 20 19
3 21 3 20
3 11 21 2
3 22 21 11
3 22 3 21
3 22 16 3
3 91 16 92
3 93 92 22
3 91 92 93
3 95 94 16
3 97 96 4
3 98 5 99
3 100 5 101
3 102 13 103
3 104 103 5
3 102 103 104
3 23 105 107
3 105 13 106
3 105 106 107
3 23 1 13
3 108 23 109
3 24 110 112
3 110 23 111
3 110 111 112
3 24 1 23
3 24 19 1
3 25 19 24
3 25 2 19
3 12 25 6
3 26 25 12
3 26 2 25
3 26 10 2
3 27 10 26
3 27 0 10
3 28 113 114
3 28 115 116
3 14 28 5
3 29 28 14
3 29 117 119
3 119 118 28
3 117 118 119
3 29 120 121
3 123 122 29
3 20 15 1
3 30 15 20
3 30 8 15
3 17 30 3
3 31 30 17
3 31 8 30
3 31 124 126
3 126 125 8
3 124 125 126
3 128 127 31
3 130 129 9
3 131 7 132
3 133 7 134
3 135 27 136
3 137 136 7
3 135 136 137
3 32 138 140
3 138 27 139
3 138 139 140
3 32 0 27
3 141 32 142
3 143 32 144
3 145 0 146
3 147 146 32
3 145 146 147
3 149 148 0
