ply
format ascii 1.0
element vertex 263
property float x
property float y
property float z
element face 212
property list uchar int vertex_index
end_header
56.071259 -67.613022 -26.800783
53.87896 -75.118759 -24.076361
56.074715 -75.514832 -21.386412
58.600723 -73.927521 -1.096321
59.017822 -74.217331 -5.30805
58.907463 -74.427849 -9.549021
51.057739 -74.027893 -25.951754
53.119797 -65.945312 -28.416647
58.400429 -74.825325 -13.80065
57.522411 -75.311523 -17.863333
55.251045 -57.542637 -31.373102
54.991512 -71.406296 -25.399549
56.278458 -71.827309 -24.284231
58.197426 -73.643333 1.025508
55.223221 -79.060402 -3.541334
57.008537 -76.490784 -3.360943
57.075623 -76.794151 -5.483103
59.021629 -74.309464 -7.422398
57.027245 -77.092018 -7.617304
56.647728 -77.763428 -11.914331
56.335648 -78.128052 -14.041643
56.885788 -75.473045 -19.715509
54.18042 -61.784637 -29.837252
55.071068 -75.40274 -22.84355
60.703228 -71.860306 -3.042093
56.821198 -76.144272 -1.240736
58.878769 -74.106232 -3.202776
60.953011 -71.801643 -5.141455
51.469467 -78.453491 -23.972715
52.526119 -74.65889 -25.099981
53.575356 -70.802238 -26.329054
54.61972 -66.865929 -27.662722
52.078766 -70.024139 -27.120123
56.879448 -77.412552 -9.764666
58.696167 -74.599686 -11.681311
54.704643 -78.904495 -19.866259
55.397224 -78.743454 -18.066866
55.928833 -78.470024 -16.108477
58.01638 -75.077957 -15.87554
55.659637 -62.834621 -29.095095
56.690308 -58.700676 -30.616758
56.749329 -67.892517 -26.289602
56.209456 -69.789154 -25.588985
55.531385 -69.509659 -26.100166
57.290352 -66.01194 -27.055214
56.749329 -67.892517 -26.289602
56.593655 -65.664938 -27.535267
57.290352 -66.01194 -27.055214
56.158085 -78.180225 -5.590711
56.149422 -77.927277 -4.512218
55.231884 -79.31335 -4.619827
56.133896 -78.329159 -6.657812
57.051434 -76.943084 -6.550204
56.158085 -78.180225 -5.590711
55.355471 -79.838371 -14.216213
55.526846 -79.602692 -13.142045
54.475014 -75.26075 -23.459955
53.904964 -77.087242 -22.838159
53.30891 -76.945251 -23.454565
56.838364 -71.946655 -23.618847
57.461602 -70.182934 -24.419604
59.445124 -72.874108 -1.018943
59.243475 -72.732013 0.041972
58.399074 -73.785427 -0.035407
59.651976 -72.893913 -2.069207
60.496376 -71.8405 -1.991829
59.445124 -72.874108 -1.018943
55.958185 -77.335403 -1.316418
55.844929 -77.042026 -0.237782
60.02908 -72.958466 -6.278659
60.996674 -71.750621 -6.195361
59.985416 -73.009487 -5.224752
59.944817 -73.020359 -9.459311
60.0019 -72.961167 -8.395999
58.964546 -74.368657 -8.48571
59.8554 -73.007855 -10.523846
59.944817 -73.020359 -9.459311
50.258541 -80.153343 -23.970741
50.936922 -80.325913 -23.452455
51.791929 -74.343391 -25.525868
51.288294 -76.313301 -25.003393
50.554103 -75.997803 -25.429279
55.927578 -78.993439 -9.911664
56.016323 -78.740044 -8.818157
59.462845 -73.235348 -13.711624
59.610714 -73.122528 -12.651955
58.548298 -74.712506 -12.74098
55.389679 -77.209664 -20.626335
54.263309 -78.912323 -20.664865
54.948346 -77.217491 -21.424942
56.475166 -56.004526 -31.796277
57.194797 -56.583545 -31.418105
55.970676 -58.121657 -30.99493
56.852929 -69.999661 -25.031326
55.634985 -71.616803 -24.84189
56.209456 -69.789154 -25.588985
57.461602 -70.182934 -24.419604
56.852929 -69.999661 -25.031326
57.176666 -74.423423 2.041182
57.947281 -73.439331 2.101436
57.362167 -74.682304 0.95923
57.176666 -74.423423 2.041182
57.563816 -74.824398 -0.101685
58.399074 -73.785427 -0.035407
57.362167 -74.682304 0.95923
56.115879 -77.775593 -3.451138
56.051855 -77.508659 -2.376521
55.159197 -78.793468 -2.466716
49.795023 -75.673561 -25.814324
50.554103 -75.997803 -25.429279
50.291586 -73.63073 -26.31642
49.795023 -75.673561 -25.814324
55.682886 -79.42038 -12.078389
55.811718 -79.168877 -10.986497
56.491688 -77.94574 -12.977987
55.682886 -79.42038 -12.078389
55.526846 -79.602692 -13.142045
57.609405 -73.805744 -20.559086
56.480251 -75.493938 -20.550961
57.203869 -73.826638 -21.394537
57.986698 -73.775978 -19.683858
57.609405 -73.805744 -20.559086
58.305009 -73.695217 -18.75777
57.204099 -75.392284 -18.789421
57.986698 -73.775978 -19.683858
58.603738 -73.624748 -17.802096
58.305009 -73.695217 -18.75777
52.89579 -63.326729 -29.475044
53.650109 -63.864975 -29.12695
52.365478 -65.407066 -28.764742
53.443499 -61.186927 -30.188349
52.89579 -63.326729 -29.475044
53.978811 -59.065928 -30.956274
54.715733 -59.663637 -30.605177
53.443499 -61.186927 -30.188349
54.376429 -80.086433 -2.560357
55.159197 -78.793468 -2.466716
54.417212 -80.450519 -3.659555
54.376429 -80.086433 -2.560357
55.231884 -79.31335 -4.619827
54.417212 -80.450519 -3.659555
54.446522 -77.161445 -22.153511
53.904964 -77.087242 -22.838159
55.572891 -75.458786 -22.114981
54.948346 -77.217491 -21.424942
54.446522 -77.161445 -22.153511
56.234669 -73.734371 -22.898506
55.674763 -73.615025 -23.56389
56.838364 -71.946655 -23.618847
56.736492 -73.790417 -22.169937
55.572891 -75.458786 -22.114981
56.234669 -73.734371 -22.898506
57.203869 -73.826638 -21.394537
56.736492 -73.790417 -22.169937
58.96255 -72.643932 1.099078
57.947281 -73.439331 2.101436
58.96255 -72.643932 1.099078
59.243475 -72.732013 0.041972
61.515129 -70.779763 -2.955039
60.496376 -71.8405 -1.991829
61.71987 -70.681023 -4.003127
61.515129 -70.779763 -2.955039
56.674053 -75.932773 -0.173893
55.844929 -77.042026 -0.237782
57.71096 -75.035897 -1.168529
57.563816 -74.824398 -0.101685
56.674053 -75.932773 -0.173893
56.914867 -76.317528 -2.300839
55.958185 -77.335403 -1.316418
56.051855 -77.508659 -2.376521
61.844761 -70.651691 -5.052808
61.71987 -70.681023 -4.003127
60.828119 -71.830974 -4.091774
61.95335 -70.515331 -6.105956
61.844761 -70.651691 -5.052808
61.95335 -70.515331 -6.105956
60.996674 -71.750621 -6.195361
60.030983 -73.004532 -7.335833
60.02908 -72.958466 -6.278659
59.019725 -74.263397 -6.365224
60.030983 -73.004532 -7.335833
60.0019 -72.961167 -8.395999
52.104164 -78.612617 -23.402742
50.936922 -80.325913 -23.452455
52.674214 -76.786125 -24.024538
53.30891 -76.945251 -23.454565
52.104164 -78.612617 -23.402742
50.759968 -78.210601 -24.43976
50.258541 -80.153343 -23.970741
51.997793 -76.55619 -24.536348
50.759968 -78.210601 -24.43976
51.288294 -76.313301 -25.003393
50.802099 -71.628852 -26.900605
51.568252 -72.026016 -26.535939
50.291586 -73.63073 -26.31642
51.314171 -69.55423 -27.472613
50.802099 -71.628852 -26.900605
51.834687 -67.514816 -28.120874
52.599282 -67.984725 -27.768385
51.314171 -69.55423 -27.472613
52.365478 -65.407066 -28.764742
51.834687 -67.514816 -28.120874
56.090221 -78.579777 -7.744476
56.133896 -78.329159 -6.657812
56.953346 -77.252285 -8.690985
56.090221 -78.579777 -7.744476
56.016323 -78.740044 -8.818157
56.763588 -77.58799 -10.839499
55.927578 -78.993439 -9.911664
55.811718 -79.168877 -10.986497
59.749752 -73.093773 -11.589992
59.8554 -73.007855 -10.523846
58.801815 -74.513768 -10.615166
59.749752 -73.093773 -11.589992
59.610714 -73.122528 -12.651955
53.631247 -80.646732 -20.001831
54.263309 -78.912323 -20.664865
54.017713 -80.572281 -19.128603
53.631247 -80.646732 -20.001831
54.364004 -80.49176 -18.228907
54.017713 -80.572281 -19.128603
55.050933 -78.823974 -18.966563
54.660927 -80.346466 -17.262467
54.364004 -80.49176 -18.228907
54.926731 -80.209751 -16.283272
54.660927 -80.346466 -17.262467
55.663028 -78.606739 -17.087671
55.152063 -80.009357 -15.24963
54.926731 -80.209751 -16.283272
56.13224 -78.299038 -15.07506
55.355471 -79.838371 -14.216213
55.152063 -80.009357 -15.24963
58.850723 -73.507965 -16.808199
57.769396 -75.19474 -16.869436
58.603738 -73.624748 -17.802096
59.086134 -73.426426 -15.795647
58.850723 -73.507965 -16.808199
59.278159 -73.30011 -14.758202
58.208405 -74.951641 -14.838095
59.086134 -73.426426 -15.795647
59.462845 -73.235348 -13.711624
59.278159 -73.30011 -14.758202
55.867885 -65.291392 -27.966237
56.593655 -65.664938 -27.535267
55.345489 -67.239475 -27.231752
56.387844 -63.275737 -28.682423
55.867885 -65.291392 -27.966237
55.139679 -64.850275 -28.378909
56.891514 -61.268372 -29.44442
56.387844 -63.275737 -28.682423
57.406849 -59.201399 -30.205252
56.891514 -61.268372 -29.44442
56.174972 -60.767648 -29.855927
57.888857 -57.132376 -30.990288
57.406849 -59.201399 -30.205252
57.888857 -57.132376 -30.990288
57.194797 -56.583545 -31.418105
54.535683 -56.897812 -31.733838
53.978811 -59.065928 -30.956274
55.781052 -55.384947 -32.193627
54.535683 -56.897812 -31.733838
56.475166 -56.004526 -31.796277
55.781052 -55.384947 -32.193627
3 0 41 43
3 43 42 11
3 41 42 43
3 0 44 45
3 0 46 47
3 48 16 49
3 50 49 14
3 48 49 50
3 51 18 52
3 53 52 16
3 51 52 53
3 54 20 55
3 1 56 58
3 56 23 57
3 56 57 58
3 60 59 12
3 3 61 63
3 63 62 13
3 61 62 63
3 3 64 66
3 64 24 65
3 64 65 66
3 67 25 68
3 4 26 15
3 4 27 26
3 4 69 71
3 71 70 27
3 69 70 71
3 5 72 74
3 74 73 17
3 72 73 74
3 5 75 76
3 77 28 78
3 6 79 81
3 79 29 80
3 79 80 81
3 6 30 29
3 6 32 30
3 82 33 83
3 8 34 19
3 8 84 86
3 86 85 34
3 84 85 86
3 2 87 89
3 87 35 88
3 87 88 89
3 9 36 21
3 9 37 36
3 9 38 37
3 7 39 31
3 10 40 22
3 10 90 92
3 92 91 40
3 90 91 92
3 11 12 1
3 93 12 94
3 95 94 11
3 93 94 95
3 97 96 12
3 98 13 99
3 100 13 101
3 102 3 103
3 104 103 13
3 102 103 104
3 14 105 107
3 105 15 106
3 105 106 107
3 16 15 14
3 16 4 15
3 16 17 4
3 18 17 16
3 18 5 17
3 108 6 109
3 111 110 6
3 112 19 113
3 20 114 116
3 114 19 115
3 114 115 116
3 20 8 19
3 117 21 118
3 119 118 2
3 117 118 119
3 120 21 121
3 122 9 123
3 124 123 21
3 122 123 124
3 126 125 9
3 127 22 128
3 129 128 7
3 127 128 129
3 130 22 131
3 132 10 133
3 134 133 22
3 132 133 134
3 135 14 136
3 137 14 138
3 140 139 14
3 23 141 142
3 23 143 145
3 143 2 144
3 143 144 145
3 12 23 1
3 146 23 147
3 148 147 12
3 146 147 148
3 149 2 150
3 151 150 23
3 149 150 151
3 153 152 2
3 13 154 155
3 157 156 13
3 24 158 159
3 24 160 161
3 25 162 163
3 25 164 166
3 164 3 165
3 164 165 166
3 15 167 169
3 167 25 168
3 167 168 169
3 26 25 15
3 26 3 25
3 26 24 3
3 27 24 26
3 27 170 172
3 172 171 24
3 170 171 172
3 27 173 174
3 176 175 27
3 17 177 179
3 179 178 4
3 177 178 179
3 181 180 17
3 28 182 183
3 28 184 186
3 184 1 185
3 184 185 186
3 187 28 188
3 29 189 191
3 189 28 190
3 189 190 191
3 29 1 28
3 29 11 1
3 30 11 29
3 30 0 11
3 30 31 0
3 32 31 30
3 32 7 31
3 192 32 193
3 194 193 6
3 192 193 194
3 195 32 196
3 197 7 198
3 199 198 32
3 197 198 199
3 201 200 7
3 202 18 203
3 33 204 206
3 204 18 205
3 204 205 206
3 33 5 18
3 19 207 209
3 207 33 208
3 207 208 209
3 34 33 19
3 34 5 33
3 34 210 212
3 212 211 5
3 210 211 212
3 214 213 34
3 35 215 216
3 35 217 218
3 21 35 2
3 36 35 21
3 36 219 221
3 221 220 35
3 219 220 221
3 36 222 223
3 37 224 226
3 226 225 36
3 224 225 226
3 37 227 228
3 37 229 231
3 229 20 230
3 229 230 231
3 38 20 37
3 38 8 20
3 232 38 233
3 234 233 9
3 232 233 234
3 235 38 236
3 237 8 238
3 239 238 38
3 237 238 239
3 241 240 8
3 31 242 244
3 244 243 0
3 242 243 244
3 39 245 247
3 247 246 31
3 245 246 247
3 39 248 249
3 22 39 7
3 40 39 22
3 40 250 252
3 252 251 39
3 250 251 252
3 40 253 254
3 256 255 40
3 257 10 258
3 259 10 260
3 262 261 10
