ply
format ascii 1.0
element vertex 173
property float x
property float y
property float z
element face 151
property list uchar int vertex_index
end_header
30.293816 79.457817 -7.564821
37.203312 73.832993 -14.605633
32.56348 77.493805 -1.820795
36.016434 75.967834 -6.1068
37.493473 73.980278 -0.463465
42.484344 69.252289 -13.130596
33.848232 77.333839 -11.426394
39.425827 73.270241 -9.917042
33.480927 76.353691 1.104715
35.144638 75.821228 -1.146095
35.880104 74.678276 1.751211
32.071434 78.540215 -9.580206
38.515862 73.969048 -5.37463
37.742599 74.784042 -8.076014
40.186836 72.595657 -7.333649
41.80806 70.911186 -9.163982
34.137535 75.827347 -15.345377
35.703808 73.599464 -16.633005
31.507425 78.534103 -4.720491
33.263443 77.772858 -6.843147
34.280815 76.855499 -4.020182
36.828007 75.03653 -3.307901
39.121368 73.000427 -2.602858
39.991467 71.638611 -13.880539
36.518108 73.417274 4.651553
37.09663 72.022316 7.539865
29.110023 79.37616 -14.652563
32.449871 77.654388 -13.867785
35.574879 75.775703 -13.102478
35.031242 76.749565 -8.826321
36.77108 75.405586 -10.666632
38.440037 73.703178 -12.356117
41.024174 71.418411 -11.611252
43.329369 68.934578 -10.834568
38.044209 72.803375 2.402258
39.592216 71.897942 0.209101
35.082384 74.892883 2.891937
34.680515 75.515984 1.427963
33.882796 75.730591 2.568689
33.882796 75.730591 2.568689
32.6659 76.50763 2.274017
31.182625 78.999016 -8.572513
30.490427 79.380379 -9.95025
29.601618 79.83918 -8.942558
40.471336 72.163025 -5.992799
39.351349 73.282353 -6.35414
39.635849 72.84972 -5.013289
41.281234 71.384396 -6.960835
40.471336 72.163025 -5.992799
28.730504 80.27697 -7.904815
29.427847 79.809288 -6.472739
29.601618 79.83918 -8.942558
28.730504 80.27697 -7.904815
31.180912 78.294426 -2.139873
31.72587 77.710846 -0.664991
32.035452 78.013954 -3.270643
30.652884 78.814575 -3.589721
31.180912 78.294426 -2.139873
41.928867 69.249439 -14.174495
40.682429 70.4426 -14.549467
41.237905 70.44545 -13.505568
36.391458 72.121731 8.682983
36.051712 72.879307 7.24247
28.229608 80.064885 -13.803481
27.365509 80.175831 -15.047187
33.149051 77.494113 -12.647089
31.569411 78.376972 -13.030983
32.268591 78.216698 -11.810287
43.633591 68.641559 -9.606764
42.568714 69.922882 -9.999275
42.872936 69.629863 -8.771471
44.351239 67.615071 -10.40848
43.633591 68.641559 -9.606764
38.281039 72.150932 3.837868
37.281159 73.110325 3.526905
37.517988 72.457882 4.962516
40.526211 70.722947 0.539619
39.779212 71.282097 1.625754
40.379955 71.3032 -0.850081
40.526211 70.722947 0.539619
32.184593 77.140789 0.797763
32.6659 76.50763 2.274017
33.022204 76.923748 -0.35804
31.72587 77.710846 -0.664991
32.184593 77.140789 0.797763
43.111846 68.039265 -13.784539
43.582448 67.981304 -12.717385
31.380192 78.819885 -10.887193
30.490427 79.380379 -9.95025
32.959833 77.937027 -10.5033
32.268591 78.216698 -11.810287
31.380192 78.819885 -10.887193
42.091847 70.54216 -7.876002
40.997448 71.753422 -8.248816
41.281234 71.384396 -6.960835
42.872936 69.629863 -8.771471
42.091847 70.54216 -7.876002
33.29924 75.662746 -16.359741
32.484885 76.732925 -15.733373
34.082377 74.548805 -17.003555
33.29924 75.662746 -16.359741
34.920671 74.713405 -15.989191
34.828577 73.279335 -17.530962
34.082377 74.548805 -17.003555
39.938602 72.365409 -3.627403
39.635849 72.84972 -5.013289
38.818615 73.484737 -3.988744
30.034652 79.347431 -5.050574
30.652884 78.814575 -3.589721
30.900621 78.99596 -6.142656
29.427847 79.809288 -6.472739
30.034652 79.347431 -5.050574
39.339382 71.576404 -14.905107
37.945305 72.673596 -15.267653
38.597389 72.735802 -14.243086
39.339382 71.576404 -14.905107
40.682429 70.4426 -14.549467
41.928867 69.249439 -14.174495
43.111846 68.039265 -13.784539
35.762451 73.576786 5.798315
35.401386 74.262383 4.342108
36.807369 72.719795 6.095709
35.762451 73.576786 5.798315
36.051712 72.879307 7.24247
37.807249 71.760402 6.406671
37.517988 72.457882 4.962516
36.807369 72.719795 6.095709
37.377691 71.252495 8.970644
36.391458 72.121731 8.682983
38.027761 71.039746 7.839231
37.377691 71.252495 8.970644
37.807249 71.760402 6.406671
38.027761 71.039746 7.839231
28.227518 79.334679 -15.793966
27.365509 80.175831 -15.047187
29.971129 78.507332 -15.386966
28.227518 79.334679 -15.793966
29.899487 79.237858 -13.423372
28.229608 80.064885 -13.803481
30.779947 78.515274 -14.260174
29.899487 79.237858 -13.423372
31.569411 78.376972 -13.030983
31.641053 77.646446 -14.994577
29.971129 78.507332 -15.386966
30.779947 78.515274 -14.260174
33.293703 76.740868 -14.606581
32.484885 76.732925 -15.733373
31.641053 77.646446 -14.994577
44.004961 67.822449 -11.569371
43.582448 67.981304 -12.717385
42.906857 69.093434 -11.982582
44.004961 67.822449 -11.569371
44.351239 67.615071 -10.40848
36.199106 74.047775 3.201382
35.082384 74.892883 2.891937
35.401386 74.262383 4.342108
39.005209 71.734814 2.722332
38.281039 72.150932 3.837868
38.818213 72.350659 1.305679
39.005209 71.734814 2.722332
39.779212 71.282097 1.625754
40.144531 71.854443 -2.25606
39.356792 72.449185 -1.196878
40.379955 71.3032 -0.850081
39.938602 72.365409 -3.627403
40.144531 71.854443 -2.25606
37.195553 72.556831 -16.28134
36.45356 73.716228 -15.619319
37.945305 72.673596 -15.267653
36.405907 72.29929 -17.184492
37.195553 72.556831 -16.28134
34.828577 73.279335 -17.530962
36.405907 72.29929 -17.184492
3 36 10 37
3 38 37 8
3 36 37 38
3 39 8 40
3 0 41 43
3 41 11 42
3 41 42 43
3 44 14 45
3 46 45 12
3 44 45 46
3 48 47 14
3 0 49 50
3 0 51 52
3 1 17 16
3 2 20 18
3 4 21 9
3 4 22 21
3 2 53 54
3 2 55 57
3 55 18 56
3 55 56 57
3 5 58 60
3 60 59 23
3 58 59 60
3 61 25 62
3 63 26 64
3 6 65 67
3 65 27 66
3 65 66 67
3 6 28 27
3 3 29 19
3 7 30 13
3 7 31 30
3 7 32 31
3 68 33 69
3 70 69 15
3 68 69 70
3 72 71 33
3 73 34 74
3 75 74 24
3 73 74 75
3 76 35 77
3 79 78 35
3 8 9 2
3 10 9 8
3 10 4 9
3 8 80 81
3 8 82 84
3 82 2 83
3 82 83 84
3 86 85 5
3 11 87 88
3 11 89 91
3 89 6 90
3 89 90 91
3 12 13 3
3 14 13 12
3 14 7 13
3 14 15 7
3 92 15 93
3 94 93 14
3 92 93 94
3 96 95 15
3 16 97 98
3 17 99 101
3 101 100 16
3 99 100 101
3 17 102 103
3 18 19 0
3 20 19 18
3 20 3 19
3 9 20 2
3 21 20 9
3 21 3 20
3 21 12 3
3 22 12 21
3 22 104 106
3 106 105 12
3 104 105 106
3 18 107 108
3 18 109 111
3 109 0 110
3 109 110 111
3 23 112 114
3 114 113 1
3 112 113 114
3 116 115 23
3 118 117 5
3 119 24 120
3 25 121 123
3 121 24 122
3 121 122 123
3 25 124 126
3 126 125 24
3 124 125 126
3 127 25 128
3 129 25 130
3 132 131 25
3 26 133 134
3 26 135 136
3 137 26 138
3 27 139 141
3 139 26 140
3 139 140 141
3 27 142 144
3 144 143 26
3 142 143 144
3 27 145 147
3 145 16 146
3 145 146 147
3 28 16 27
3 28 1 16
3 19 11 0
3 29 11 19
3 29 6 11
3 13 29 3
3 30 29 13
3 30 6 29
3 30 28 6
3 31 28 30
3 31 1 28
3 31 23 1
3 32 23 31
3 32 5 23
3 15 32 7
3 33 32 15
3 33 5 32
3 33 148 150
3 150 149 5
3 148 149 150
3 152 151 33
3 24 153 155
3 153 10 154
3 153 154 155
3 34 10 24
3 34 4 10
3 156 34 157
3 35 158 160
3 158 34 159
3 158 159 160
3 35 4 34
3 35 22 4
3 161 22 162
3 163 162 35
3 161 162 163
3 165 164 22
3 166 17 167
3 168 167 1
3 166 167 168
3 169 17 170
3 172 171 17
