ply
format ascii 1.0
element vertex 479
property float x
property float y
property float z
element face 512
property list uchar int vertex_index
end_header
46.506927 -84.825897 43.900452
56.482155 -66.205521 30.621853
53.640564 -74.00766 32.270641
44.652813 -92.258408 32.793617
52.370216 -76.218964 42.810089
48.037212 -75.875702 50.219124
41.255127 -82.547531 50.681282
49.639908 -82.752548 33.361591
47.101246 -87.881676 22.355679
56.844284 -67.456596 35.783073
55.052483 -70.024544 31.562229
55.16584 -71.29673 36.824371
58.623817 -63.799622 34.503494
41.379318 -77.634628 52.374542
49.649017 -80.319 17.242012
49.620605 -80.505623 43.549721
51.082626 -79.691376 38.370743
48.384796 -84.248131 38.862526
44.023514 -95.244881 26.387505
46.127903 -90.439171 27.620203
56.016014 -64.614273 25.531586
54.747211 -68.446083 26.373795
53.623352 -72.328751 26.94573
52.202835 -76.34639 27.400673
43.314026 -88.740746 43.401245
45.491272 -88.793633 38.755558
42.640289 -92.756554 37.582794
58.254681 -62.512909 29.38158
54.66124 -72.125168 41.884689
50.613831 -76.422272 47.180618
47.484161 -80.468803 47.837021
44.709732 -79.48526 50.753281
44.105282 -84.259613 47.93187
40.773148 -87.248222 47.036545
53.335503 -75.365936 37.660774
51.87624 -78.222534 32.870422
50.31958 -80.670876 27.807423
47.150208 -87.551834 33.477703
48.201363 -85.419426 27.997688
48.852165 -82.870628 22.554554
47.930756 -85.122513 17.149899
50.163029 -79.330704 19.815479
48.09317 -82.681213 43.798752
49.015366 -82.427124 41.312263
47.518204 -84.669678 41.473846
56.687332 -61.799229 22.502506
56.232986 -65.444656 28.06024
55.334465 -66.524918 25.994328
55.524616 -67.342422 28.543999
54.369583 -71.992363 31.937454
54.28326 -71.212257 29.292889
53.641827 -73.19516 29.590267
52.970581 -74.311111 27.17915
52.916382 -75.224884 29.861725
41.764767 -90.337021 42.695744
42.953144 -90.81488 40.619179
41.484413 -92.383766 39.725483
57.548611 -65.030121 32.606583
58.47068 -63.211384 31.943775
57.311596 -64.345261 30.039429
57.057922 -63.569672 27.492411
50.902058 -74.28479 48.46637
49.42749 -76.246002 48.890129
49.097504 -78.453049 47.554977
47.84293 -78.194153 49.237358
41.384079 -80.107956 51.762901
43.103123 -78.655869 51.69059
42.979099 -81.115974 50.814926
44.457417 -81.897705 49.57148
42.733131 -83.535767 49.461044
42.417969 -85.894196 47.630043
41.036125 -84.934464 49.101685
53.567619 -74.144569 42.369156
54.024639 -73.789009 39.870872
52.947205 -75.865417 40.294838
50.373756 -81.276367 35.91851
51.557056 -79.024391 35.632286
50.80909 -80.445404 33.139805
51.106747 -79.493011 30.364262
50.036831 -81.762436 30.575855
45.043179 -90.590988 35.853149
46.395691 -88.312943 36.165634
45.896645 -89.953186 33.260342
46.662121 -89.215523 24.987068
47.15332 -87.919228 27.902706
47.584541 -86.659821 25.206295
48.549 -84.168533 25.264198
47.942204 -85.325653 22.523811
48.295307 -83.972092 19.86554
47.500999 -86.500984 19.739792
56.706192 -66.881378 33.20406
55.741123 -68.09726 31.127748
55.921722 -68.772133 33.732742
55.163696 -70.708496 34.195625
54.39032 -72.69574 34.603142
59.601501 -62.489796 36.322803
57.711048 -65.609451 35.170673
51.053593 -78.343254 43.208405
51.753632 -78.001976 40.684666
50.43792 -80.194046 41.032982
49.77755 -81.948494 38.661629
49.09346 -83.595642 36.138271
44.31831 -93.804115 29.622938
45.462666 -91.479271 30.233273
45.100189 -92.907562 27.118862
45.753029 -91.773445 24.574509
46.299812 -90.485077 22.017031
55.876839 -63.726181 23.041771
55.225006 -65.658585 23.48447
54.680107 -67.588196 23.838589
54.891937 -69.263809 28.950377
54.197273 -70.378441 26.684336
52.335159 -75.342979 24.722387
44.902176 -86.873703 43.788769
45.986351 -86.868065 41.45417
44.456451 -88.946526 41.187035
44.053955 -90.892967 38.323868
43.705074 -92.703606 35.25885
43.40398 -94.379341 32.05127
43.128639 -95.930908 28.759403
59.596458 -62.017105 33.791615
59.488003 -61.41851 31.222923
58.02813 -61.718166 26.840061
56.837921 -62.717518 24.977966
55.677826 -70.162941 41.349831
52.900829 -74.353638 44.684566
52.014046 -74.403786 46.740116
51.594109 -76.409531 45.131409
50.168186 -78.499176 45.524433
48.634422 -80.602966 45.842564
47.020752 -82.68576 46.044281
46.452782 -75.314552 51.168243
44.805492 -77.040138 51.480476
46.408577 -77.720444 50.540916
46.174042 -80.095024 49.479378
45.806763 -82.425308 47.98185
45.365551 -84.692436 46.07122
43.708706 -86.548576 45.859398
42.082695 -88.168419 45.355461
40.505821 -89.469826 44.533287
39.389557 -86.024323 48.469238
55.010254 -71.773254 39.406624
54.289406 -73.300812 37.262207
53.555229 -74.739487 34.970657
52.271454 -77.49556 38.030602
52.618275 -76.846619 35.31221
52.819038 -76.080322 32.578651
52.073555 -77.318192 30.119989
51.312057 -78.45903 27.614357
50.547096 -79.524048 25.070063
46.943504 -86.55088 38.915554
47.75462 -85.957268 36.240921
48.407028 -85.132446 33.49255
46.599201 -89.039909 30.596596
47.747696 -86.567169 30.742893
48.90313 -84.126945 30.71839
49.267349 -82.993294 27.94968
49.548912 -81.78389 25.203728
49.819092 -80.548523 22.489786
49.190025 -81.574821 19.877119
48.724331 -82.642311 17.241249
50.480093 -78.84842 21.093423
50.659613 -78.282692 19.767138
56.655079 -61.309536 21.286437
56.264925 -62.292427 21.548577
40.872042 -91.984165 40.695173
41.62459 -91.360393 41.210613
41.012219 -90.960792 42.180304
48.732351 -76.060852 49.554626
49.496201 -75.118282 49.353169
48.801062 -74.933132 50.017666
55.164768 -71.002613 35.509998
55.584396 -70.029319 35.264887
55.585468 -70.323436 36.579259
57.277666 -66.533024 35.476873
57.726112 -65.840187 36.43234
57.292731 -66.763759 36.73854
49.979551 -79.72184 15.953011
50.158218 -79.240657 17.216801
49.479775 -80.841267 15.953112
49.979551 -79.72184 15.953011
45.613184 -92.42115 23.032443
45.276996 -93.01691 24.264367
45.886576 -91.776966 21.753704
46.026421 -91.129261 23.29577
45.613184 -92.42115 23.032443
46.183987 -91.120003 20.518436
45.886576 -91.776966 21.753704
54.463255 -68.97892 25.246218
54.429703 -68.549976 23.978615
54.713659 -68.017139 25.106192
53.640003 -71.881401 25.645278
53.926963 -70.906246 25.514581
53.910313 -71.353596 26.815033
53.338871 -72.849235 25.742722
53.640003 -71.881401 25.645278
51.847126 -76.865353 26.151097
51.913288 -76.363647 24.811954
52.268997 -75.844684 26.06153
42.762003 -95.306583 31.543521
42.887259 -94.470177 33.207867
42.624333 -96.082367 29.897588
43.266309 -95.155124 30.405337
42.762003 -95.306583 31.543521
58.791334 -61.609358 29.017718
59.407995 -61.062158 29.938389
58.871342 -61.96571 30.302252
58.141405 -62.115538 28.11082
58.678059 -61.211986 27.746958
58.791334 -61.609358 29.017718
53.098327 -73.383488 45.463783
53.497799 -73.347679 44.43654
45.575039 -74.944931 51.478477
46.357233 -74.100055 51.280513
42.218689 -76.9035 52.248855
41.293818 -76.389404 52.478649
38.66203 -85.2934 49.093716
39.478859 -84.869045 49.393756
48.198044 -84.450348 15.873856
48.594831 -83.210247 15.919531
48.327544 -83.882412 17.195574
56.42469 -68.403369 36.058611
56.842064 -67.687485 37.051609
55.5518 -70.556984 37.858074
55.585468 -70.323436 36.579259
56.842064 -67.687485 37.051609
57.292731 -66.763759 36.73854
50.415224 -78.74651 18.503535
50.659613 -78.282692 19.767138
49.906023 -79.824852 18.528745
50.158218 -79.240657 17.216801
50.415224 -78.74651 18.503535
44.412239 -94.752629 25.170865
43.88101 -95.924462 24.76051
57.189796 -60.843508 22.183594
57.259811 -61.319603 23.417309
57.189796 -60.843508 22.183594
56.655079 -61.309536 21.286437
50.233485 -74.137676 49.141289
50.938171 -73.187896 48.90601
50.164774 -75.265396 48.678249
50.233485 -74.137676 49.141289
49.496201 -75.118282 49.353169
55.963409 -69.061138 35.033445
56.383003 -68.114364 34.757908
56.42469 -68.403369 36.058611
55.542709 -69.740314 33.964184
55.963409 -69.061138 35.033445
55.584396 -70.029319 35.264887
59.525882 -62.658917 37.543577
59.997509 -61.782646 37.20051
59.129627 -63.377596 36.673189
59.525882 -62.658917 37.543577
58.640785 -64.032509 35.763535
59.112659 -63.144709 35.413149
59.129627 -63.377596 36.673189
58.1844 -64.937423 36.097124
57.726112 -65.840187 36.43234
58.167433 -64.704537 34.837084
58.640785 -64.032509 35.763535
58.1844 -64.937423 36.097124
48.024068 -74.69851 50.499203
48.801062 -74.933132 50.017666
40.479997 -77.04586 52.651695
41.293818 -76.389404 52.478649
40.394497 -75.800636 52.755802
40.53825 -78.273712 52.44368
40.479997 -77.04586 52.651695
40.54063 -79.510376 52.137859
41.381698 -78.871292 52.068721
40.53825 -78.273712 52.44368
40.533621 -80.72274 51.712265
40.54063 -79.510376 52.137859
40.469145 -81.942528 51.171456
41.319603 -81.327743 51.222092
40.533621 -80.72274 51.712265
40.411644 -83.13065 50.499779
40.469145 -81.942528 51.171456
44.950576 -93.583969 25.536543
44.561852 -94.076222 26.753183
44.412239 -94.752629 25.170865
45.426609 -92.340503 25.846685
44.950576 -93.583969 25.536543
45.276996 -93.01691 24.264367
46.540733 -89.800457 20.74102
46.94145 -88.498756 20.910345
46.700529 -89.183377 22.186355
46.540733 -89.800457 20.74102
46.183987 -91.120003 20.518436
55.55547 -64.238121 22.0298
55.859679 -63.255903 21.81821
55.229553 -65.204323 22.251149
55.55547 -64.238121 22.0298
55.550922 -64.692383 23.26312
54.982132 -66.179092 22.416286
55.229553 -65.204323 22.251149
54.709682 -67.143898 22.593346
54.982132 -66.179092 22.416286
54.952557 -66.62339 23.66153
54.484203 -68.107105 22.719077
54.709682 -67.143898 22.593346
54.484203 -68.107105 22.719077
54.429703 -68.549976 23.978615
54.188286 -69.945099 25.401488
54.463255 -68.97892 25.246218
54.472242 -69.412262 26.529066
54.188286 -69.945099 25.401488
53.926963 -70.906246 25.514581
53.012485 -73.840416 25.859433
53.338871 -72.849235 25.742722
53.296966 -73.319931 27.06244
52.694774 -74.356349 24.631051
53.012485 -73.840416 25.859433
52.65287 -74.827045 25.950769
52.442688 -74.841667 23.406772
52.694774 -74.356349 24.631051
52.030293 -75.825192 23.47741
52.442688 -74.841667 23.406772
52.030293 -75.825192 23.47741
51.913288 -76.363647 24.811954
40.762606 -92.984284 39.122637
40.872042 -91.984165 40.695173
40.150234 -92.584682 40.092327
41.362869 -93.342315 38.12648
40.762606 -92.984284 39.122637
41.940807 -93.528709 37.055135
42.062351 -92.57016 38.654139
41.362869 -93.342315 38.12648
42.505413 -93.658783 35.973629
41.940807 -93.528709 37.055135
43.037806 -93.632309 34.811657
43.172682 -92.73008 36.420822
42.505413 -93.658783 35.973629
43.554527 -93.541473 33.65506
43.037806 -93.632309 34.811657
42.887259 -94.470177 33.207867
42.489111 -96.860473 28.212178
42.624333 -96.082367 29.897588
42.986053 -96.654251 27.099415
42.489111 -96.860473 28.212178
42.346525 -97.583816 26.55219
43.433491 -96.311238 25.913466
43.576076 -95.587895 27.573454
42.986053 -96.654251 27.099415
43.88101 -95.924462 24.76051
43.433491 -96.311238 25.913466
60.09376 -61.611196 35.963636
60.489767 -60.904047 36.841343
59.997509 -61.782646 37.20051
60.091238 -61.374851 34.698042
60.09376 -61.611196 35.963636
59.598979 -62.25345 35.057209
60.119495 -61.135317 33.41844
60.091238 -61.374851 34.698042
60.065268 -60.836019 32.134094
60.119495 -61.135317 33.41844
59.542231 -61.717807 32.507269
60.050203 -60.53263 30.838011
60.065268 -60.836019 32.134094
59.970196 -60.176279 29.553477
60.050203 -60.53263 30.838011
59.407995 -61.062158 29.938389
58.594223 -60.804895 26.473962
58.678059 -61.211986 27.746958
57.930211 -61.279072 25.586086
58.594223 -60.804895 26.473962
57.335106 -61.778747 24.655038
57.930211 -61.279072 25.586086
57.433025 -62.217842 25.909014
56.762626 -62.258373 23.740236
57.259811 -61.319603 23.417309
57.335106 -61.778747 24.655038
55.859679 -63.255903 21.81821
56.264925 -62.292427 21.548577
56.282085 -62.762705 22.772139
55.952606 -69.316341 42.19463
56.161854 -69.210396 41.055431
55.436653 -70.271183 42.495079
55.952606 -69.316341 42.19463
54.92836 -71.252296 42.762508
55.169533 -71.144055 41.61726
55.436653 -70.271183 42.495079
54.378005 -72.233445 43.036602
54.92836 -71.252296 42.762508
53.831194 -73.243145 43.278835
54.114429 -73.134869 42.126922
54.378005 -72.233445 43.036602
53.234224 -74.249104 43.526861
53.831194 -73.243145 43.278835
53.497799 -73.347679 44.43654
51.579136 -73.308235 48.222594
50.938171 -73.187896 48.90601
52.13513 -73.367733 47.359466
51.579136 -73.308235 48.222594
51.458052 -74.344288 47.603243
52.654936 -73.408562 46.491558
52.13513 -73.367733 47.359466
52.457437 -74.378712 45.712341
53.098327 -73.383488 45.463783
52.654936 -73.408562 46.491558
47.231853 -74.417935 50.973762
46.357233 -74.100055 51.280513
47.244997 -75.595127 50.693683
48.024068 -74.69851 50.499203
47.231853 -74.417935 50.973762
43.080591 -77.41412 51.90688
42.218689 -76.9035 52.248855
42.24122 -78.145249 52.032566
43.931776 -76.606255 51.801823
43.080591 -77.41412 51.90688
43.954307 -77.848004 51.585533
44.751394 -75.807724 51.634594
43.931776 -76.606255 51.801823
45.629137 -76.177345 51.324359
45.575039 -74.944931 51.478477
44.751394 -75.807724 51.634594
40.382745 -90.527195 43.099075
41.012219 -90.960792 42.180304
41.135294 -89.903424 43.614515
40.302143 -84.324116 49.70998
41.145626 -83.740998 49.891484
40.411644 -83.13065 50.499779
40.212841 -85.479394 48.785461
40.302143 -84.324116 49.70998
39.478859 -84.869045 49.393756
38.59473 -86.392098 48.022743
38.66203 -85.2934 49.093716
39.286774 -87.139374 47.306537
38.59473 -86.392098 48.022743
39.978569 -87.751323 46.590191
40.081353 -86.636272 47.752891
39.286774 -87.139374 47.306537
39.844905 -88.862125 45.338562
40.639484 -88.359024 45.784916
39.978569 -87.751323 46.590191
39.742498 -89.931721 43.969717
39.844905 -88.862125 45.338562
40.382745 -90.527195 43.099075
39.742498 -89.931721 43.969717
55.807793 -69.99009 40.120804
56.161854 -69.210396 41.055431
55.474007 -70.795246 39.1492
55.807793 -69.99009 40.120804
55.34404 -70.968097 40.378228
55.088047 -71.534992 38.115498
55.5518 -70.556984 37.858074
55.474007 -70.795246 39.1492
51.401737 -77.921672 26.257939
51.847126 -76.865353 26.151097
51.757446 -77.40271 27.507515
51.019256 -78.454182 24.985792
51.401737 -77.921672 26.257939
50.929577 -78.991539 26.34221
50.672127 -78.945091 23.720715
51.019256 -78.454182 24.985792
50.308124 -79.457329 22.430577
50.672127 -78.945091 23.720715
50.183094 -80.036285 23.779924
49.991061 -79.939614 21.152632
50.480093 -78.84842 21.093423
50.308124 -79.457329 22.430577
49.017432 -82.002922 15.952731
49.479775 -80.841267 15.953112
49.186674 -81.480656 17.24163
48.887932 -82.570858 14.631013
49.017432 -82.002922 15.952731
48.594831 -83.210247 15.919531
47.141327 -87.808411 19.602401
47.301123 -87.19133 21.047736
46.94145 -88.498756 20.910345
47.377155 -87.111843 18.335545
47.141327 -87.808411 19.602401
47.592033 -86.422607 17.040598
47.715878 -85.811748 18.444845
47.377155 -87.111843 18.335545
47.853964 -85.732712 15.788532
47.592033 -86.422607 17.040598
48.198044 -84.450348 15.873856
47.853964 -85.732712 15.788532
3 161 41 162
3 0 44 42
3 164 163 45
3 1 48 46
3 2 51 49
3 2 53 51
3 165 56 166
3 167 166 54
3 165 166 167
3 1 59 57
3 1 46 59
3 5 168 170
3 168 62 169
3 168 169 170
3 5 64 62
3 6 67 65
3 6 69 67
3 6 71 69
3 4 74 72
3 7 77 75
3 7 79 77
3 3 82 80
3 8 85 83
3 8 87 85
3 8 89 87
3 9 92 90
3 11 171 173
3 171 93 172
3 171 172 173
3 11 94 93
3 9 174 176
3 174 96 175
3 174 175 176
3 9 90 96
3 14 177 178
3 14 179 180
3 15 99 97
3 17 100 43
3 17 101 100
3 18 104 102
3 181 105 182
3 183 106 184
3 185 184 105
3 183 184 185
3 187 186 106
3 20 108 107
3 21 109 47
3 21 188 190
3 190 189 109
3 188 189 190
3 10 110 91
3 22 111 50
3 22 191 193
3 193 192 111
3 191 192 193
3 22 194 195
3 23 112 52
3 23 196 198
3 198 197 112
3 196 197 198
3 24 115 113
3 26 116 55
3 26 117 116
3 199 118 200
3 201 119 202
3 203 202 118
3 201 202 203
3 12 120 95
3 27 121 58
3 27 204 206
3 206 205 121
3 204 205 206
3 27 207 209
3 207 122 208
3 207 208 209
3 20 123 60
3 20 107 123
3 210 125 211
3 29 126 61
3 29 127 126
3 29 128 127
3 30 129 63
3 30 130 129
3 212 131 213
3 13 214 215
3 31 132 66
3 31 133 132
3 31 134 133
3 32 135 68
3 32 136 135
3 32 137 136
3 33 138 70
3 33 139 138
3 216 140 217
3 28 141 124
3 34 142 73
3 34 143 142
3 16 144 98
3 35 145 76
3 35 146 145
3 35 147 146
3 36 148 78
3 36 149 148
3 25 150 114
3 37 151 81
3 37 152 151
3 19 153 103
3 38 154 84
3 38 155 154
3 38 156 155
3 39 157 86
3 39 158 157
3 39 159 158
3 40 160 88
3 40 218 220
3 220 219 160
3 218 219 220
3 222 221 9
3 223 11 224
3 225 9 226
3 41 227 228
3 41 229 231
3 229 14 230
3 229 230 231
3 42 43 15
3 44 43 42
3 44 17 43
3 233 232 18
3 45 234 235
3 237 236 45
3 46 47 20
3 48 47 46
3 48 21 47
3 49 50 10
3 51 50 49
3 51 22 50
3 51 52 22
3 53 52 51
3 53 23 52
3 54 55 24
3 56 55 54
3 56 26 55
3 57 58 12
3 59 58 57
3 59 27 58
3 59 60 27
3 46 60 59
3 46 20 60
3 238 61 239
3 62 240 242
3 240 61 241
3 240 241 242
3 62 29 61
3 62 63 29
3 64 63 62
3 64 30 63
3 65 66 13
3 67 66 65
3 67 31 66
3 67 68 31
3 69 68 67
3 69 32 68
3 69 70 32
3 71 70 69
3 71 33 70
3 72 73 28
3 74 73 72
3 74 34 73
3 75 76 16
3 77 76 75
3 77 35 76
3 77 78 35
3 79 78 77
3 79 36 78
3 80 81 25
3 82 81 80
3 82 37 81
3 83 84 19
3 85 84 83
3 85 38 84
3 85 86 38
3 87 86 85
3 87 39 86
3 87 88 39
3 89 88 87
3 89 40 88
3 90 91 1
3 92 91 90
3 92 10 91
3 243 92 244
3 245 244 9
3 243 244 245
3 93 246 248
3 246 92 247
3 246 247 248
3 93 10 92
3 93 49 10
3 94 49 93
3 94 2 49
3 249 95 250
3 251 95 252
3 253 12 254
3 255 254 95
3 253 254 255
3 96 256 257
3 96 258 260
3 258 12 259
3 258 259 260
3 96 57 12
3 90 57 96
3 90 1 57
3 261 5 262
3 263 13 264
3 263 264 265
3 266 13 267
3 268 65 269
3 270 269 13
3 268 269 270
3 271 65 272
3 273 6 274
3 275 274 65
3 273 274 275
3 277 276 6
3 97 98 4
3 99 98 97
3 99 16 98
3 43 99 15
3 100 99 43
3 100 16 99
3 100 75 16
3 101 75 100
3 101 7 75
3 102 103 3
3 104 103 102
3 104 19 103
3 278 104 279
3 280 279 18
3 278 279 280
3 105 281 283
3 281 104 282
3 281 282 283
3 105 19 104
3 105 83 19
3 106 83 105
3 106 8 83
3 106 284 286
3 286 285 8
3 284 285 286
3 288 287 106
3 107 289 290
3 108 291 293
3 293 292 107
3 291 292 293
3 108 294 295
3 47 108 20
3 109 108 47
3 109 296 298
3 298 297 108
3 296 297 298
3 109 299 300
3 302 301 109
3 91 48 1
3 110 48 91
3 110 21 48
3 50 110 10
3 111 110 50
3 111 21 110
3 111 303 305
3 305 304 21
3 303 304 305
3 307 306 111
3 52 308 310
3 310 309 22
3 308 309 310
3 112 311 313
3 313 312 52
3 311 312 313
3 112 314 315
3 112 316 317
3 319 318 112
3 113 114 0
3 115 114 113
3 115 25 114
3 55 115 24
3 116 115 55
3 116 25 115
3 116 80 25
3 117 80 116
3 117 3 80
3 320 56 321
3 320 321 322
3 323 56 324
3 325 26 326
3 327 326 56
3 325 326 327
3 328 26 329
3 330 117 331
3 332 331 26
3 330 331 332
3 118 333 335
3 333 117 334
3 333 334 335
3 118 3 117
3 118 102 3
3 119 102 118
3 119 18 102
3 336 119 337
3 338 119 339
3 338 339 340
3 341 18 342
3 343 342 119
3 341 342 343
3 345 344 18
3 95 346 348
3 346 347 348
3 120 349 351
3 351 350 95
3 349 350 351
3 120 352 353
3 58 120 12
3 121 120 58
3 121 354 356
3 356 355 120
3 354 355 356
3 121 357 358
3 361 360 121
3 359 360 361
3 122 362 363
3 122 364 365
3 60 122 27
3 123 122 60
3 123 366 368
3 368 367 122
3 366 367 368
3 123 369 371
3 369 45 370
3 369 370 371
3 107 45 123
3 107 372 374
3 374 373 45
3 372 373 374
3 375 124 376
3 377 124 378
3 379 28 380
3 381 380 124
3 379 380 381
3 382 28 383
3 384 72 385
3 386 385 28
3 384 385 386
3 125 387 389
3 387 72 388
3 387 388 389
3 125 4 72
3 61 390 391
3 126 392 394
3 394 393 61
3 392 393 394
3 126 395 396
3 126 397 399
3 397 125 398
3 397 398 399
3 127 125 126
3 127 4 125
3 127 97 4
3 128 97 127
3 128 15 97
3 63 128 29
3 129 128 63
3 129 15 128
3 129 42 15
3 130 42 129
3 130 0 42
3 131 400 401
3 131 402 404
3 402 5 403
3 402 403 404
3 66 405 407
3 407 406 13
3 405 406 407
3 132 408 410
3 410 409 66
3 408 409 410
3 132 411 412
3 132 413 415
3 413 131 414
3 413 414 415
3 133 131 132
3 133 5 131
3 133 64 5
3 134 64 133
3 134 30 64
3 68 134 31
3 135 134 68
3 135 30 134
3 135 130 30
3 136 130 135
3 136 0 130
3 136 113 0
3 137 113 136
3 137 24 113
3 70 137 32
3 138 137 70
3 138 24 137
3 138 54 24
3 139 54 138
3 139 416 418
3 418 417 54
3 416 417 418
3 419 71 420
3 421 420 6
3 419 420 421
3 140 422 424
3 422 71 423
3 422 423 424
3 140 33 71
3 425 140 426
3 427 140 428
3 429 33 430
3 431 430 140
3 429 430 431
3 432 139 433
3 434 433 33
3 432 433 434
3 435 139 436
3 438 437 139
3 124 439 440
3 141 441 443
3 443 442 124
3 441 442 443
3 141 444 446
3 444 11 445
3 444 445 446
3 73 141 28
3 142 141 73
3 142 11 141
3 142 94 11
3 143 94 142
3 143 2 94
3 98 74 4
3 144 74 98
3 144 34 74
3 76 144 16
3 145 144 76
3 145 34 144
3 145 143 34
3 146 143 145
3 146 2 143
3 146 53 2
3 147 53 146
3 147 23 53
3 78 147 35
3 148 147 78
3 148 23 147
3 148 447 449
3 449 448 23
3 447 448 449
3 149 450 452
3 452 451 148
3 450 451 452
3 149 453 454
3 114 44 0
3 150 44 114
3 150 17 44
3 81 150 25
3 151 150 81
3 151 17 150
3 151 101 17
3 152 101 151
3 152 7 101
3 103 82 3
3 153 82 103
3 153 37 82
3 84 153 19
3 154 153 84
3 154 37 153
3 154 152 37
3 155 152 154
3 155 7 152
3 155 79 7
3 156 79 155
3 156 36 79
3 86 156 38
3 157 156 86
3 157 36 156
3 157 149 36
3 158 149 157
3 158 455 457
3 457 456 149
3 455 456 457
3 158 458 460
3 458 41 459
3 458 459 460
3 159 41 158
3 159 14 41
3 88 159 39
3 160 159 88
3 160 14 159
3 160 461 463
3 463 462 14
3 461 462 463
3 466 465 160
3 464 465 466
3 467 89 468
3 469 468 8
3 467 468 469
3 470 89 471
3 472 40 473
3 474 473 89
3 472 473 474
3 475 40 476
3 478 477 40
