ply
format ascii 1.0
element vertex 109
property float x
property float y
property float z
element face 77
property list uchar int vertex_index
end_header
-46.019119 16.391922 -40.99157
-49.482395 16.460903 -40.992039
-42.765945 15.304737 -39.756935
-47.732361 16.621666 -41.115387
-41.227226 14.78854 -38.590359
-52.990067 14.312347 -37.705864
-54.637177 13.208069 -37.214088
-51.275955 14.94836 -38.117126
-44.380451 14.13274 -37.681503
-44.361259 15.898724 -40.554218
-46.87574 16.506794 -41.053478
-47.757015 15.806572 -39.785652
-46.900395 15.6917 -39.723743
-40.477226 14.654673 -37.842625
-41.191997 14.212595 -37.044205
-39.641976 14.965812 -38.621525
-40.391976 15.09968 -39.369259
-40.477226 14.654673 -37.842625
-53.807667 13.954739 -38.740428
-53.813622 13.760208 -37.459976
-52.984112 14.506878 -38.986317
-54.648701 13.151937 -38.485485
-53.807667 13.954739 -38.740428
-50.379175 15.704631 -39.554582
-50.402546 15.04832 -38.254129
-49.505766 15.804592 -39.691586
-50.362139 16.145432 -40.841237
-51.258919 15.38916 -39.40378
-50.379175 15.704631 -39.554582
-43.573198 14.718739 -38.719219
-43.564509 13.944908 -37.221063
-42.757255 14.530907 -38.25878
-42.616878 16.037042 -41.20334
-43.414535 16.334036 -41.601982
-43.563602 15.60173 -40.155576
-48.630749 15.884974 -39.753259
-47.757015 15.806572 -39.785652
-48.607378 16.541284 -41.053713
-49.505766 15.804592 -39.691586
-48.630749 15.884974 -39.753259
-41.987896 14.272808 -37.675491
-41.191997 14.212595 -37.044205
-41.996586 15.046639 -39.173647
-42.757255 14.530907 -38.25878
-41.987896 14.272808 -37.675491
-41.103035 15.421078 -40.086796
-41.872394 15.679177 -40.670084
-41.996586 15.046639 -39.173647
-41.103035 15.421078 -40.086796
-40.391976 15.09968 -39.369259
-53.725724 13.397598 -36.189137
-52.891914 13.706862 -36.44103
-54.549278 12.845459 -35.943248
-53.725724 13.397598 -36.189137
-53.813622 13.760208 -37.459976
-55.330618 12.317737 -35.668453
-54.549278 12.845459 -35.943248
-55.412216 12.428156 -36.944723
-55.330618 12.317737 -35.668453
-55.412216 12.428156 -36.944723
-54.648701 13.151937 -38.485485
-51.166184 14.134767 -36.847223
-50.402546 15.04832 -38.254129
-52.034858 14.024868 -36.646662
-51.166184 14.134767 -36.847223
-52.133011 14.630354 -37.911495
-52.891914 13.706862 -36.44103
-52.034858 14.024868 -36.646662
-52.115975 15.071154 -39.198149
-52.133011 14.630354 -37.911495
-51.258919 15.38916 -39.40378
-52.984112 14.506878 -38.986317
-52.115975 15.071154 -39.198149
-45.861242 17.040468 -42.336548
-45.030321 16.881621 -42.164994
-46.039463 15.496465 -39.615021
-46.900395 15.6917 -39.723743
-44.223038 13.246173 -36.201664
-43.407095 13.058341 -35.741225
-43.564509 13.944908 -37.221063
-45.075197 13.359488 -36.553264
-44.223038 13.246173 -36.201664
-45.220129 14.366874 -37.959987
-45.075197 13.359488 -36.553264
-45.210533 15.249866 -39.396345
-45.220129 14.366874 -37.959987
-44.370855 15.015732 -39.11786
-45.190189 16.145323 -40.772894
-46.039463 15.496465 -39.615021
-45.210533 15.249866 -39.396345
-44.201391 16.635022 -41.946317
-45.030321 16.881621 -42.164994
-45.190189 16.145323 -40.772894
-44.201391 16.635022 -41.946317
-43.414535 16.334036 -41.601982
-42.616878 16.037042 -41.20334
-41.872394 15.679177 -40.670084
-46.717863 17.15534 -42.398456
-46.87574 16.506794 -41.053478
-45.861242 17.040468 -42.336548
-47.587593 17.105491 -42.425863
-46.717863 17.15534 -42.398456
-48.46261 17.02511 -42.364189
-48.607378 16.541284 -41.053713
-47.587593 17.105491 -42.425863
-49.35989 16.725327 -42.279532
-48.46261 17.02511 -42.364189
-50.362139 16.145432 -40.841237
-49.35989 16.725327 -42.279532
3 0 10 12
3 10 3 11
3 10 11 12
3 13 4 14
3 17 16 4
3 15 16 17
3 18 6 19
3 20 19 5
3 18 19 20
3 22 21 6
3 1 23 25
3 23 7 24
3 23 24 25
3 1 26 28
3 28 27 7
3 26 27 28
3 2 29 31
3 29 8 30
3 29 30 31
3 2 9 8
3 2 32 34
3 34 33 9
3 32 33 34
3 3 35 36
3 3 37 39
3 37 1 38
3 37 38 39
3 4 40 41
3 4 42 44
3 42 2 43
3 42 43 44
3 4 45 47
3 47 46 2
3 45 46 47
3 49 48 4
3 5 50 51
3 6 52 54
3 54 53 5
3 52 53 54
3 6 55 56
3 6 57 58
3 60 59 6
3 7 61 62
3 7 63 64
3 7 65 67
3 65 5 66
3 65 66 67
3 68 5 69
3 70 69 7
3 68 69 70
3 72 71 5
3 74 73 0
3 75 0 76
3 8 77 79
3 77 78 79
3 8 80 81
3 8 82 83
3 9 84 86
3 86 85 8
3 84 85 86
3 9 87 89
3 87 0 88
3 87 88 89
3 9 90 92
3 92 91 0
3 90 91 92
3 94 93 9
3 96 95 2
3 97 3 98
3 99 98 0
3 97 98 99
3 100 3 101
3 102 1 103
3 104 103 3
3 102 103 104
3 105 1 106
3 108 107 1
