ply
format ascii 1.0
element vertex 86
property float x
property float y
property float z
element face 68
property list uchar int vertex_index
end_header
-62.499809 -28.126354 -17.56715
-63.105072 -33.22155 -18.300228
-63.630116 -27.215942 -21.419472
-62.939949 -36.064705 -16.567398
-62.489048 -33.391521 -16.440083
-62.72221 -25.343307 -18.853752
-62.849468 -27.719837 -19.511242
-62.694408 -30.90086 -14.216389
-62.38847 -30.823383 -16.127335
-62.64085 -28.413363 -15.634607
-63.887905 -35.93943 -18.356483
-64.149338 -32.934368 -20.096252
-62.621914 -30.604675 -18.041405
-63.347797 -30.262699 -19.917938
-62.451748 -33.407556 -15.491039
-62.479927 -34.725544 -15.579148
-62.924646 -25.051334 -19.852312
-62.861902 -23.916224 -19.424366
-62.945711 -28.484205 -14.701253
-62.667629 -29.657111 -14.925498
-62.97249 -29.727953 -13.992144
-64.034922 -28.520474 -21.574396
-63.893763 -30.043852 -20.823629
-63.488957 -28.73932 -20.668705
-64.169924 -26.929187 -22.341875
-64.034922 -28.520474 -21.574396
-62.705377 -36.062135 -15.642805
-62.903008 -37.416189 -15.649616
-62.714498 -34.728113 -16.50374
-62.705377 -36.062135 -15.642805
-62.479927 -34.725544 -15.579148
-62.988276 -26.239599 -20.181057
-62.785839 -26.531572 -19.182497
-62.924646 -25.051334 -19.852312
-63.378599 -25.987651 -21.135172
-63.239792 -27.467889 -20.465357
-62.988276 -26.239599 -20.181057
-63.764069 -25.662335 -22.116616
-63.378599 -25.987651 -21.135172
-62.541439 -30.862122 -15.171862
-62.401459 -32.123487 -15.334665
-62.554428 -32.162226 -14.379192
-62.917292 -27.328254 -15.305044
-62.945711 -28.484205 -14.701253
-62.695172 -27.128861 -16.253256
-62.917292 -27.328254 -15.305044
-62.624651 -26.985356 -17.219528
-62.570329 -28.269858 -16.600879
-62.695172 -27.128861 -16.253256
-62.735851 -25.593832 -17.862829
-62.611009 -26.734831 -18.210451
-62.624651 -26.985356 -17.219528
-62.851957 -24.265083 -18.393109
-62.735851 -25.593832 -17.862829
-62.861902 -23.916224 -19.424366
-62.851957 -24.265083 -18.393109
-63.313006 -37.437645 -16.540129
-62.903008 -37.416189 -15.649616
-63.786984 -37.375008 -17.434672
-63.313006 -37.437645 -16.540129
-63.413927 -36.002067 -17.461941
-64.378889 -37.338143 -18.292741
-63.786984 -37.375008 -17.434672
-64.517966 -35.825672 -19.215547
-64.378889 -37.338143 -18.292741
-64.648682 -34.323141 -20.085432
-64.517966 -35.825672 -19.215547
-64.018621 -34.436899 -19.226368
-64.796791 -32.74999 -20.957378
-64.648682 -34.323141 -20.085432
-62.438759 -32.107452 -16.283709
-62.451748 -33.407556 -15.491039
-62.401459 -32.123487 -15.334665
-64.294533 -31.379687 -20.912786
-63.748568 -31.598534 -20.007095
-63.893763 -30.043852 -20.823629
-64.796791 -32.74999 -20.957378
-64.294533 -31.379687 -20.912786
-64.169924 -26.929187 -22.341875
-63.764069 -25.662335 -22.116616
-62.800049 -32.107424 -13.428366
-62.554428 -32.162226 -14.379192
-63.096619 -30.864559 -13.281354
-62.800049 -32.107424 -13.428366
-62.97249 -29.727953 -13.992144
-63.096619 -30.864559 -13.281354
3 14 4 15
3 17 16 5
3 18 9 19
3 20 19 7
3 18 19 20
3 1 10 3
3 1 11 10
3 0 12 8
3 2 13 6
3 2 21 23
3 23 22 13
3 21 22 23
3 2 24 25
3 26 3 27
3 4 28 30
3 28 3 29
3 28 29 30
3 4 1 3
3 5 6 0
3 31 6 32
3 33 32 5
3 31 32 33
3 34 2 35
3 36 35 6
3 34 35 36
3 38 37 2
3 7 39 41
3 39 8 40
3 39 40 41
3 9 8 7
3 9 0 8
3 42 9 43
3 44 9 45
3 46 0 47
3 48 47 9
3 46 47 48
3 49 5 50
3 51 50 0
3 49 50 51
3 52 5 53
3 55 54 5
3 3 56 57
3 10 58 60
3 60 59 3
3 58 59 60
3 10 61 62
3 10 63 64
3 11 65 67
3 67 66 10
3 65 66 67
3 11 68 69
3 8 70 72
3 70 4 71
3 70 71 72
3 12 4 8
3 12 1 4
3 6 12 0
3 13 12 6
3 13 1 12
3 13 11 1
3 73 11 74
3 75 74 13
3 73 74 75
3 77 76 11
3 79 78 2
3 80 7 81
3 82 7 83
3 85 84 7
