ply
format ascii 1.0
element vertex 132
property float x
property float y
property float z
element face 98
property list uchar int vertex_index
end_header
-4.440439 -8.152911 39.76226
-3.417261 -25.581194 40.935364
-3.96501 -16.950161 40.509941
-4.411882 -23.799725 37.438225
-2.885695 -40.126194 37.686981
-3.808516 -9.358706 41.583546
-4.212526 -12.553713 40.189331
-4.761045 -19.408924 37.211174
-3.700991 -21.305866 40.751724
-4.806364 -11.477987 38.355461
-3.989241 -5.007314 41.113564
-4.641748 -3.777655 39.197952
-5.30739 -2.666523 37.188801
-4.523222 -15.910081 38.734341
-4.229055 -20.315002 39.013973
-3.925852 -24.653433 39.217365
-3.607798 -28.886158 39.360458
-3.260542 -32.978535 39.452473
-3.113187 -26.077557 41.749584
-3.258812 -23.976011 41.668518
-3.260097 -27.659381 41.004328
-3.113187 -26.077557 41.749584
-3.66317 -17.512353 41.353946
-3.781296 -15.337477 41.222078
-3.833 -19.128014 40.630832
-3.531161 -19.690206 41.474838
-3.66317 -17.512353 41.353946
-3.713528 -3.526348 41.763267
-3.642898 -5.670452 42.018881
-4.724836 -1.613631 38.832874
-4.387401 -2.235717 39.844746
-5.057657 -1.058064 37.828299
-4.974569 -3.222089 38.193376
-4.724836 -1.613631 38.832874
-4.81456 -15.438225 37.810866
-4.664793 -13.694034 38.544901
-4.956131 -13.222179 37.621426
-3.654083 -30.578527 38.516857
-3.834167 -28.492636 38.47414
-3.480455 -32.624716 38.562865
-3.43417 -30.932347 39.406465
-3.654083 -30.578527 38.516857
-2.874714 -38.515337 38.592917
-3.100723 -38.206188 37.695263
-2.641491 -40.387738 38.596348
-2.874714 -38.515337 38.592917
-2.638577 -41.954864 37.661207
-2.641491 -40.387738 38.596348
-3.703049 -11.541749 41.758881
-3.460627 -10.004449 42.440512
-3.905054 -13.139253 41.061774
-3.703049 -11.541749 41.758881
-4.010521 -10.956209 40.886438
-4.088768 -14.751937 40.349636
-3.781296 -15.337477 41.222078
-3.905054 -13.139253 41.061774
-5.058788 -19.000164 36.280648
-4.933471 -17.187647 37.049282
-4.853696 -21.215664 36.411434
-5.058788 -19.000164 36.280648
-4.679115 -23.411065 36.52496
-4.586464 -21.604324 37.3247
-4.853696 -21.215664 36.411434
-3.095356 -39.8841 36.760509
-3.100723 -38.206188 37.695263
-2.866681 -41.758444 36.719532
-3.095356 -39.8841 36.760509
-3.400677 -21.838347 41.576698
-3.531161 -19.690206 41.474838
-3.559126 -23.44353 40.843544
-3.258812 -23.976011 41.668518
-3.400677 -21.838347 41.576698
-4.938734 -9.266028 38.102545
-4.623401 -9.815449 39.05886
-4.755771 -7.60349 38.805944
-5.122189 -10.994414 37.398983
-4.938734 -9.266028 38.102545
-4.956131 -13.222179 37.621426
-5.122189 -10.994414 37.398983
-3.552536 -7.846148 42.253872
-3.460627 -10.004449 42.440512
-3.898878 -7.18301 41.348555
-3.552536 -7.846148 42.253872
-3.642898 -5.670452 42.018881
-4.061148 -2.850547 40.802551
-3.713528 -3.526348 41.763267
-4.315494 -4.392485 40.155758
-4.061148 -2.850547 40.802551
-4.387401 -2.235717 39.844746
-4.856426 -5.415862 38.52379
-4.755771 -7.60349 38.805944
-4.541093 -5.965283 39.480106
-5.189247 -4.860296 37.519215
-4.856426 -5.415862 38.52379
-4.974569 -3.222089 38.193376
-5.526563 -4.371341 36.519523
-5.189247 -4.860296 37.519215
-5.405987 -0.500561 36.769244
-5.057657 -1.058064 37.828299
-5.662059 -2.177273 36.137876
-5.405987 -0.500561 36.769244
-5.526563 -4.371341 36.519523
-5.662059 -2.177273 36.137876
-4.642133 -17.659502 37.972758
-4.81456 -15.438225 37.810866
-4.933471 -17.187647 37.049282
-4.474428 -25.588459 36.606898
-4.679115 -23.411065 36.52496
-4.23621 -25.94942 37.513024
-4.474428 -25.588459 36.606898
-3.993194 -26.376274 38.402594
-4.168867 -24.226579 38.327795
-4.23621 -25.94942 37.513024
-3.766825 -26.769796 39.288911
-3.993194 -26.376274 38.402594
-3.834167 -28.492636 38.47414
-3.355366 -29.311863 40.216875
-3.260097 -27.659381 41.004328
-3.512529 -27.233676 40.147911
-3.181738 -31.358052 40.262883
-3.355366 -29.311863 40.216875
-3.43417 -30.932347 39.406465
-3.000597 -33.360402 40.311937
-3.181738 -31.358052 40.262883
-3.288147 -34.632358 38.578009
-3.480455 -32.624716 38.562865
-3.062137 -34.941508 39.475662
-3.288147 -34.632358 38.578009
-3.000597 -33.360402 40.311937
-3.062137 -34.941508 39.475662
-2.638577 -41.954864 37.661207
-2.866681 -41.758444 36.719532
3 0 6 5
3 1 18 19
3 1 20 21
3 2 22 23
3 2 24 26
3 24 8 25
3 24 25 26
3 27 10 28
3 29 11 30
3 31 12 32
3 33 32 11
3 31 32 33
3 34 13 35
3 36 35 9
3 34 35 36
3 3 14 7
3 3 15 14
3 37 16 38
3 39 17 40
3 41 40 16
3 39 40 41
3 4 42 43
3 4 44 45
3 4 46 47
3 5 48 49
3 6 50 52
3 52 51 5
3 50 51 52
3 6 53 55
3 53 2 54
3 53 54 55
3 56 7 57
3 58 7 59
3 60 3 61
3 62 61 7
3 60 61 62
3 63 4 64
3 66 65 4
3 8 67 68
3 8 69 71
3 69 1 70
3 69 70 71
3 72 9 73
3 74 73 0
3 72 73 74
3 75 9 76
3 78 77 9
3 79 5 80
3 10 81 83
3 81 5 82
3 81 82 83
3 10 0 5
3 84 10 85
3 11 86 88
3 86 10 87
3 86 87 88
3 11 0 10
3 11 89 91
3 91 90 0
3 89 90 91
3 12 92 94
3 94 93 11
3 92 93 94
3 12 95 96
3 97 12 98
3 99 12 100
3 102 101 12
3 9 6 0
3 13 6 9
3 13 2 6
3 7 103 105
3 103 13 104
3 103 104 105
3 14 13 7
3 14 2 13
3 14 8 2
3 15 8 14
3 15 1 8
3 106 3 107
3 108 3 109
3 110 15 111
3 112 111 3
3 110 111 112
3 16 113 115
3 113 15 114
3 113 114 115
3 16 1 15
3 16 116 118
3 118 117 1
3 116 117 118
3 17 119 121
3 121 120 16
3 119 120 121
3 17 122 123
3 124 17 125
3 126 17 127
3 129 128 17
3 131 130 4
